<svg viewBox="0 0 216 230" xmlns="http://www.w3.org/2000/svg" xmlns:xlink="http://www.w3.org/1999/xlink" width="216.000000" height="230.000000" fill="none">
	<rect id="1-1" width="216.000000" height="230.000000" x="0.000000" y="0.000000" />
	<path id="矢量 505" d="M21.0902 183.068L5.59131 176.207L1.77554 150.174L0.0820312 130.446L2.48296 117.066L6.29873 111.359L2.65446 106.272L4.09073 99.86L9.55713 95.5212L29.1719 87.5701L47.5647 81.3504L75.3898 75.3016L76.4402 60.7675L79.2913 46.5112L86.4941 25.2443L91.6175 18.9391L99.7636 20.478L104.651 7.56824L108.167 2.67365L114.233 0.942383L126.988 0.942383L147.504 3.16525L168.812 5.04614L180.902 8.72242L186.497 11.0308L189.563 16.9086L190.785 29.4763L198.073 30.1817L203.69 32.4686L209.971 32.3618L214.772 33.6228L215.287 39.4579L204.676 110.205L202.596 112.043L198.866 111.594L198.009 113.048L201.76 115.591L202.339 118.241L202.596 125.359L199.659 165.05L188.984 177.404L188.384 180.247L185.597 187.428L182.231 188.689L180.666 185.419L161.759 201.62L135.134 219.767L125.959 224.341L125.081 228.06L123.108 229.705L119.7 227.376L116.334 228.637L100.45 220.985L97.2555 223.614L21.6904 186.744L21.0902 183.068Z" fill="rgb(255,255,255)" fill-rule="nonzero" />
	<path id="矢量 505" d="M5.59131 176.207L1.77554 150.174L0.0820312 130.446L2.48296 117.066L6.29873 111.359L2.65446 106.272L4.09073 99.86L9.55713 95.5212L29.1719 87.5701L47.5647 81.3504L75.3898 75.3016L76.4402 60.7675L79.2913 46.5112L86.4941 25.2443L91.6175 18.9391L99.7636 20.478L104.651 7.56824L108.167 2.67365L114.233 0.942383L126.988 0.942383L147.504 3.16525L168.812 5.04614L180.902 8.72242L186.497 11.0308L189.563 16.9086L190.785 29.4763L198.073 30.1817L203.69 32.4686L209.971 32.3618L214.772 33.6228L215.287 39.4579L204.676 110.205L202.596 112.043L198.866 111.594L198.009 113.048L201.76 115.591L202.339 118.241L202.596 125.359L199.659 165.05L188.984 177.404L188.384 180.247L185.597 187.428L182.231 188.689L180.666 185.419L161.759 201.62L135.134 219.767L125.959 224.341L125.081 228.06L123.108 229.705L119.7 227.376L116.334 228.637L100.45 220.985L97.2555 223.614L21.6904 186.744L21.0902 183.068L5.59131 176.207Z" fill-rule="nonzero" stroke="rgb(0,0,0)" stroke-width="1.000000" />
	<path id="矢量 506" d="M110.482 2.03229L104.587 5.90094L98.8629 20.6488L92.3247 44.6088L90.7598 58.3948L90.7598 62.1352C90.7598 62.1352 93.7395 61.7719 94.5541 61.6009C97.0622 61.0452 100.192 60.8956 100.192 60.8956L118.006 62.1566L147.825 70.8985C147.825 70.8985 160.73 76.4557 165.317 76.7121C167.247 76.819 172.842 75.1305 172.842 75.1305L176.893 58.1811L185.704 33.4731L190.741 28.6212L190.227 21.0977L186.497 10.6459L176.657 6.49942L160.408 3.59259L118.285 0.536133L110.482 2.03229Z" fill="rgb(1,89,188)" fill-rule="nonzero" />
	<g id="组合 101">
		<path id="矢量 507" d="M123.028 0C123.24 0 123.375 0 123.57 0.0662581C124.119 0.250072 125.521 1.4128 125.95 2.41737C126.207 2.99446 126.46 3.46254 126.561 3.58651C126.574 3.70193 126.728 3.90284 126.829 4.17001C127.088 4.8497 127.592 5.69824 128.179 5.98678C128.567 6.17701 128.749 6.29029 129 6.43563C129.09 6.5083 129.487 6.69212 130.109 7.01272C130.709 7.31195 131.566 7.7608 131.974 8.01729C132.381 8.2524 133.345 8.78674 134.117 9.21422C135.232 9.81268 139.176 12.1424 142.585 14.237C144.042 15.1347 146.165 16.4599 146.979 17.0156C151.352 19.9652 152.617 20.7988 152.767 20.7988C152.853 20.7988 153.067 20.9484 153.217 21.1408C153.56 21.5469 156.776 24.0048 156.969 24.0048C157.055 24.0048 157.419 24.2613 157.826 24.5819C158.212 24.9239 158.92 25.4796 159.391 25.8216C159.884 26.185 160.57 26.7193 160.956 27.0399C161.342 27.3391 162.221 28.0231 162.886 28.5361C164.193 29.5193 167.752 32.4047 168.631 33.1742C168.931 33.452 169.981 34.3497 170.967 35.1833C173.754 37.5558 177.398 40.8687 178.706 42.2153C179.37 42.8992 180.014 43.4549 180.121 43.4549C180.249 43.4549 180.464 43.113 180.614 42.7069C180.764 42.3008 181.128 41.6595 181.428 41.3176C181.921 40.7191 182.072 40.6764 183.336 40.6764C184.644 40.6764 184.751 40.7191 185.523 41.4886C186.337 42.3008 187.053 43.8717 187.281 44.3954C187.349 44.5514 187.48 45.0045 187.581 45.3145C187.986 46.5691 188.676 49.0271 189.231 51.1495C189.568 52.4362 189.51 52.6029 191.011 54.1418C196.949 60.2974 198.964 62.5417 199.585 63.8669C200.336 65.4058 200.786 67.0088 200.786 68.1202C200.786 68.6546 200.872 69.5095 201 70.0011C201.193 70.8347 201.729 76.1995 202.308 82.7826C203.101 92.2725 203.594 104.798 203.337 109.714C203.165 113.347 202.865 114.266 201.386 115.741C200.7 116.425 200.014 116.981 199.864 116.981C199.5 116.981 198.749 117.793 198.921 117.985C199.007 118.049 199.714 117.921 200.507 117.707C201.472 117.429 202.201 117.323 202.694 117.429C203.53 117.6 205.245 119.182 205.438 119.973C205.502 120.272 205.631 120.614 205.716 120.721C205.802 120.849 205.931 121.319 205.995 121.79C206.317 124.119 206.617 126.15 206.81 127.026C207.174 128.779 207.667 132.028 207.86 134.08C207.967 135.191 208.139 136.452 208.267 136.858C208.375 137.264 208.589 138.525 208.718 139.637C209.532 146.156 209.897 148.913 210.561 153.423C210.733 154.727 210.99 156.394 211.076 157.163C211.183 157.933 211.419 159.621 211.612 160.904C211.783 162.207 212.04 164.217 212.169 165.392C212.298 166.568 212.491 167.871 212.598 168.278C212.705 168.684 212.876 169.838 213.005 170.842C213.348 174.113 213.841 177.703 213.97 177.896C214.034 178.003 214.227 179.221 214.42 180.61C214.591 181.999 214.891 184.137 215.063 185.377C215.234 186.616 215.47 188.497 215.577 189.544C215.706 190.613 215.899 191.746 216.006 192.088C216.585 193.798 215.963 196.469 214.763 197.303C213.777 198.008 212.255 198.393 210.39 198.415C209.404 198.436 208.01 198.585 207.26 198.778C206.188 199.034 205.588 199.056 204.473 198.885C203.037 198.692 203.037 198.692 201.515 199.505C200.679 199.975 199.821 200.338 199.585 200.338C199.371 200.338 198.921 200.488 198.578 200.637C197.506 201.214 195.405 201.621 193.583 201.621L191.782 201.621L191.782 205.104C191.782 208.524 191.74 208.824 190.882 211.346C190.775 211.709 190.582 212.329 190.496 212.735C190.282 213.675 189.96 214.552 189.124 216.582C188.588 217.886 188.16 218.484 186.852 219.81C184.708 221.968 182.779 222.845 176.884 224.341C176.176 224.533 175.169 224.79 174.633 224.939C171.203 225.858 166.037 226.606 158.555 227.269C157.205 227.376 155.747 227.568 155.34 227.675C154.932 227.803 153.668 227.953 152.553 228.017C151.438 228.081 149.938 228.231 149.23 228.338C146.786 228.722 142.992 229.043 139.155 229.193C133.731 229.406 124.642 230.005 122.906 230.261C121.169 230.518 115.746 230.518 115.124 230.261C114.888 230.176 114.009 230.026 113.195 229.941C112.38 229.855 111.523 229.642 111.287 229.492C111.051 229.321 110.622 229.193 110.301 229.193C109.979 229.193 109.615 229.043 109.465 228.872C109.315 228.701 109.036 228.551 108.822 228.551C108.286 228.551 105.563 225.965 104.599 224.533C104.148 223.871 103.312 222.353 102.755 221.178C102.176 220.002 101.576 218.762 101.404 218.442C101.233 218.1 101.104 217.694 101.104 217.544C101.104 217.394 100.826 216.497 100.483 215.578C100.14 214.659 99.7538 213.227 99.6038 212.372C99.2394 210.298 99.1322 210.17 98.2747 210.683C96.7741 211.538 95.3164 211.88 93.2585 211.88C91.5435 211.88 91.0933 211.794 90.0644 211.324C88.9711 210.79 86.956 208.909 86.956 208.375C86.956 208.268 86.5916 207.413 86.12 206.451C85.0481 204.185 83.5261 200.637 83.5261 200.338C83.5261 200.231 83.4189 199.953 83.3117 199.74C83.0545 199.312 82.0684 196.683 81.8112 195.743C81.7254 195.401 81.4253 194.524 81.1895 193.819C80.9323 193.114 80.525 191.917 80.2891 191.147C80.0533 190.378 79.7104 189.438 79.5389 189.053C79.3674 188.668 79.2387 188.176 79.2387 187.963C79.2387 187.599 78.9386 186.467 78.3384 184.543C78.2098 184.137 77.974 183.218 77.8025 182.512C77.6524 181.786 77.4166 180.867 77.3309 180.461C76.8378 178.558 76.3876 176.357 76.1304 174.69C75.4015 169.795 75.1229 168.149 74.9942 167.85C74.8013 167.38 74.2868 161.823 74.1368 158.446L73.9867 155.56L72.8077 155.411C68.7775 154.919 65.7121 154.427 63.8042 153.936C63.3969 153.85 62.325 153.615 61.4461 153.423C60.5672 153.23 59.4525 152.995 58.9809 152.888C58.5093 152.782 57.4374 152.546 56.6014 152.397C55.7653 152.226 54.9507 152.012 54.7792 151.927C54.6292 151.82 54.1147 151.67 53.6216 151.585C52.4212 151.35 50.8992 150.943 50.4704 150.73C50.256 150.623 49.9774 150.537 49.8273 150.537C49.42 150.537 44.5324 149.105 41.7242 148.143C40.3736 147.673 38.9802 147.224 38.6158 147.118C38.2728 147.032 37.4368 146.733 36.7937 146.476C36.1506 146.22 35.4217 145.963 35.1859 145.899C34.9501 145.857 34.5642 145.707 34.3284 145.621C34.0926 145.515 33.3638 145.215 32.7207 144.98C32.0776 144.724 31.2844 144.382 30.9628 144.211C30.6627 144.04 30.2983 143.911 30.1697 143.911C30.0411 143.911 29.3336 143.634 28.5833 143.292C27.8545 142.95 26.3968 142.308 25.3249 141.881C24.2745 141.454 22.6239 140.727 21.6807 140.278C18.7224 138.867 16.8788 138.076 14.3921 137.136C13.9205 136.965 13.2774 136.687 12.9558 136.516C12.6557 136.345 12.227 136.217 11.9912 136.217C11.7768 136.217 11.4124 136.067 11.198 135.896C10.9622 135.725 10.6407 135.576 10.4906 135.576C9.99755 135.576 7.0607 134.08 6.18178 133.374C3.26636 131.044 1.80865 127.518 2.4732 124.44C3.03056 121.939 3.43786 120.977 4.35965 120.08L5.28143 119.225L4.6812 118.584C4.35965 118.242 4.01666 117.793 3.88803 117.6C3.78085 117.387 3.37355 116.724 2.98768 116.083C1.98015 114.394 1.16555 111.958 0.758247 109.5C0.629625 108.73 0.436693 107.833 0.350946 107.469C0.029392 106.443 -0.120666 94.2176 0.11514 89.1947C0.350946 83.894 0.843994 77.5674 1.18698 75.4087C1.42279 73.9339 1.72291 71.2194 2.0659 67.5218C2.17308 66.4745 2.36601 65.1707 2.4732 64.6363C2.60182 64.102 2.85906 62.7341 3.03056 61.6226C3.22349 60.5112 3.4593 59.3143 3.56648 58.9509C3.67366 58.6089 3.82372 57.925 3.88803 57.4547C4.35965 54.5907 5.94598 52.496 8.60415 51.2991C9.07576 51.0854 9.65456 50.7861 9.89037 50.6579C10.1262 50.5296 11.8626 49.6747 13.749 48.7343C17.0932 47.0457 17.2003 47.0244 18.7867 47.003L20.3944 46.9816L20.5659 45.5923C20.6517 44.8229 20.8875 43.861 21.1019 43.4549C21.8307 42.0015 22.4738 41.5954 27.8974 39.0733C29.0764 38.5176 30.4269 37.8764 30.8985 37.6199C31.3701 37.3848 31.9061 37.1069 32.0776 37.0428C34.2212 36.0382 36.8151 34.7986 37.3296 34.5421C37.694 34.3497 41.1668 32.6185 45.0469 30.6948C51.6494 27.4246 52.5284 26.9972 53.9432 26.2491C54.7149 25.843 59.7097 23.4705 62.0892 22.3591C63.2039 21.8461 64.2758 21.3331 64.4473 21.2263C64.6188 21.098 65.0046 20.9056 65.3047 20.7774C65.7978 20.585 70.1495 18.4263 71.1999 17.8706C71.4357 17.7423 72.2503 17.3576 73.022 16.9943C73.7938 16.6309 75.8088 15.6691 77.5238 14.8569C79.2387 14.0447 81.4039 13.0187 82.3471 12.5913C83.2903 12.1638 84.2121 11.7149 84.3836 11.5867C84.5551 11.4798 84.8552 11.3302 85.0267 11.2661C85.1982 11.202 86.3129 10.689 87.4919 10.1119C88.671 9.5562 90.2144 8.82949 90.9218 8.50888C91.6293 8.18828 92.7225 7.69668 93.3657 7.39745C96.131 6.11502 97.996 5.7303 98.5319 6.37151C98.682 6.5425 98.9821 6.69212 99.1965 6.69212C99.4109 6.69212 99.7967 6.99135 100.075 7.33333C100.611 8.08141 101.019 8.14553 101.619 7.56844C102.348 6.90585 104.899 5.55931 109.358 3.48606C110.065 3.16545 111.737 2.35325 113.088 1.69066C115.553 0.472359 116.818 0.215874 117.782 0.686096C119.133 1.34868 119.583 1.37006 120.569 0.70747C121.105 0.344117 121.71 0.106869 121.898 0.0662581C122.106 0.0213737 122.248 0 122.513 0M125.328 228.551C126.807 228.445 129.787 228.209 131.974 228.038C134.16 227.846 136.668 227.761 137.547 227.825C138.705 227.932 139.541 227.868 140.505 227.611C141.256 227.419 142.713 227.269 143.721 227.248C146.272 227.226 152.724 226.628 154.804 226.222C155.404 226.115 157.226 225.858 158.877 225.666C160.527 225.474 162.886 225.174 164.129 225.025C165.372 224.854 166.766 224.661 167.237 224.597C169.488 224.319 174.547 223.272 175.062 222.994C175.276 222.887 175.726 222.781 176.048 222.781C176.605 222.781 178.02 222.417 179.992 221.776C184.987 220.13 186.809 218.484 188.138 214.338C188.395 213.526 188.696 212.564 188.824 212.201C189.832 209.08 189.982 208.118 189.96 204.848L189.96 201.556L188.76 200.894C186.788 199.804 185.887 198.65 184.087 194.888C183.358 193.37 182.607 191.831 182.436 191.511C182.286 191.169 182.136 190.805 182.136 190.677C182.136 190.57 182.007 190.164 181.836 189.801C181.15 188.198 180.228 185.825 179.864 184.628C179.649 183.923 179.349 183.154 179.199 182.919C179.049 182.683 178.92 182.256 178.92 181.957C178.92 181.658 178.77 181.23 178.599 181.016C178.427 180.781 178.277 180.418 178.277 180.204C178.277 180.012 178.149 179.52 177.977 179.135C177.698 178.473 176.777 175.502 176.005 172.766C175.833 172.125 175.576 171.313 175.448 170.949C175.34 170.607 175.147 169.859 175.062 169.303C174.954 168.748 174.783 168.107 174.654 167.871C174.526 167.636 174.419 167.145 174.419 166.781C174.419 166.418 174.311 165.905 174.161 165.649C174.033 165.392 173.797 164.559 173.625 163.789C173.475 163.02 173.197 161.737 173.004 160.904C172.832 160.091 172.639 159.13 172.575 158.766C172.511 158.424 172.339 157.505 172.168 156.736C171.246 152.461 170.174 143.399 169.981 138.397C169.874 135.17 169.938 135.255 166.508 135.063C164.343 134.956 160.913 134.336 159.734 133.866C159.498 133.759 159.07 133.631 158.77 133.567C157.848 133.374 154.418 132.583 153.625 132.37C153.217 132.263 151.867 131.942 150.624 131.622C148.351 131.066 146.401 130.467 146.015 130.211C145.908 130.125 145.457 129.997 145.05 129.933C144.643 129.848 143.914 129.634 143.442 129.441C142.971 129.27 142.199 128.971 141.727 128.8C141.256 128.608 140.591 128.351 140.227 128.202C139.884 128.052 139.348 127.817 139.048 127.71C138.748 127.582 138.169 127.347 137.761 127.154C137.354 126.983 136.39 126.577 135.618 126.278C132.166 124.846 125.221 121.426 123.549 120.315C122.949 119.909 122.927 119.909 121.834 120.336C121.212 120.593 118.833 121.384 116.539 122.11C112.637 123.35 111.673 123.671 108.629 124.697C107.986 124.932 106.957 125.338 106.335 125.637C105.692 125.936 104.62 126.428 103.955 126.727C101.983 127.582 99.9897 128.565 99.1751 129.078C95.788 131.151 91.222 133.011 89.5713 133.011C88.6281 133.011 87.8135 133.502 87.8135 134.08C87.8135 134.293 88.0279 134.742 88.3065 135.084C89.9143 137.093 90.5574 140.428 89.85 143.163C89.4856 144.638 89.3998 144.873 88.2422 147.417C87.5991 148.806 87.5563 149.041 87.6634 150.73C87.7921 153.102 88.1565 155.368 89.0997 159.621C89.2283 160.22 89.3998 160.989 89.4641 161.331C89.5928 162.101 90.9218 165.563 91.3291 166.204C91.5435 166.546 91.6293 167.465 91.6078 169.56C91.6078 171.142 91.6936 172.937 91.8436 173.514C91.9723 174.113 92.2295 175.545 92.4224 176.72C92.8297 179.135 93.1084 180.61 93.3871 181.85C94.0945 184.714 94.266 185.462 94.7376 187.3C95.0377 188.412 95.3379 189.758 95.4236 190.292C95.5093 190.805 95.6594 191.383 95.7451 191.575C95.9595 192.002 96.3668 193.584 96.6026 194.781C96.6884 195.315 96.8599 196.042 96.9885 196.384C97.1171 196.747 97.3315 197.602 97.4601 198.308C97.9531 201.043 98.0818 201.599 98.2961 202.027C98.4248 202.262 98.5319 202.711 98.5319 203.031C98.5319 203.33 98.682 204.036 98.8535 204.592C99.025 205.126 99.3251 206.152 99.518 206.857C99.711 207.562 99.9897 208.375 100.14 208.674C100.29 208.973 100.483 209.593 100.547 210.063C100.74 211.132 101.833 214.573 102.519 216.262C102.798 216.967 103.034 217.672 103.034 217.822C103.034 217.993 103.162 218.378 103.334 218.677C103.505 218.997 104.084 220.173 104.62 221.284C105.756 223.593 107.321 225.581 108.8 226.521C110.408 227.59 113.752 228.701 114.567 228.466C114.781 228.402 115.274 228.445 115.681 228.53C116.646 228.765 121.877 228.787 125.328 228.551ZM95.3164 209.978C95.8523 209.871 96.7312 209.614 97.31 209.422C98.339 209.037 98.532 208.674 98.1246 207.862C97.8245 207.263 97.4387 206.066 97.2672 205.254C97.1814 204.848 96.9885 204.292 96.8599 204.036C96.7098 203.779 96.6026 203.33 96.6026 203.053C96.6026 202.753 96.474 202.048 96.3025 201.492C96.0024 200.424 95.6165 198.65 95.3164 196.918C95.1449 195.914 94.2446 192.259 93.7086 190.399C93.5371 189.822 93.3442 188.946 93.2799 188.476C93.2156 188.005 93.0655 187.343 92.9584 186.98C92.2509 184.5 92.1009 183.88 92.1009 183.325C92.1009 183.004 91.9723 182.341 91.8008 181.85C91.6293 181.38 91.2863 179.948 91.029 178.644C90.7718 177.361 90.4717 175.951 90.3645 175.545C90.2573 175.139 90.1072 173.108 90.0429 171.056C89.9572 168.427 89.8286 167.059 89.5928 166.461C87.8349 161.93 87.7921 161.78 86.7202 156.415C86.613 155.838 86.463 154.662 86.3772 153.808C86.2486 152.14 86.0342 151.927 85.3268 152.696C84.7909 153.295 83.3975 153.979 81.0609 154.791C79.6032 155.304 78.7886 155.453 77.5881 155.453C76.4734 155.453 75.9803 155.539 75.8946 155.731C75.766 156.073 76.1518 162.977 76.4519 165.392C76.9664 169.752 77.3523 172.574 77.6524 174.048C77.8453 174.925 78.124 176.378 78.3169 177.255C78.4884 178.131 78.7671 179.349 78.9172 179.926C79.0887 180.525 79.2816 181.337 79.3459 181.743C79.4317 182.149 79.5603 182.726 79.646 183.025C79.9033 183.838 80.4606 185.761 80.8465 187.3C81.2967 188.967 83.0331 194.418 83.4189 195.315C83.912 196.491 84.3622 197.645 85.0267 199.59C85.3911 200.659 85.8199 201.792 85.9914 202.112C86.1629 202.454 86.3129 202.839 86.3129 202.988C86.3129 203.138 86.4201 203.352 86.5487 203.48C86.6773 203.608 86.9989 204.335 87.2561 205.062C88.1565 207.584 90.0429 209.956 91.1577 209.956C91.3935 209.956 91.715 210.063 91.8865 210.191C92.2295 210.405 93.6872 210.32 95.3164 209.978ZM195.963 199.74C197.077 199.505 198.835 198.842 201.215 197.709C202.737 196.982 204.645 195.337 204.645 194.738C204.645 194.546 204.73 194.332 204.838 194.247C205.138 194.076 205.695 192.9 205.824 192.131C205.888 191.767 205.845 190.699 205.716 189.758C205.588 188.818 205.395 187.386 205.309 186.552C205.202 185.74 205.009 184.778 204.88 184.457C204.752 184.115 204.645 183.538 204.645 183.175C204.645 182.79 204.495 181.871 204.323 181.102C204.152 180.332 203.873 178.943 203.68 178.003C203.508 177.062 203.165 175.438 202.951 174.369C202.715 173.322 202.458 172.061 202.394 171.59C202.308 171.12 202.115 170.009 201.944 169.132C201.772 168.256 201.493 166.76 201.322 165.82C201.15 164.879 200.85 163.383 200.679 162.507C200.486 161.63 200.25 160.412 200.164 159.814C200.057 159.194 199.907 158.467 199.8 158.211C199.65 157.74 199.2 155.539 198.942 154.064C198.878 153.722 198.707 152.803 198.535 152.034C198.364 151.264 198.128 150.067 197.999 149.362C197.871 148.656 197.678 147.652 197.592 147.118C197.485 146.583 197.313 145.728 197.185 145.194C196.606 142.907 196.241 141.197 196.177 140.599C196.134 140.257 195.898 139.038 195.641 137.927C195.384 136.815 195.105 135.341 194.998 134.678C194.891 133.994 194.741 133.331 194.655 133.203C194.569 133.075 194.376 132.263 194.205 131.429C194.033 130.596 193.755 129.292 193.583 128.522C193.412 127.753 193.176 126.663 193.09 126.064C192.79 124.355 192.211 121.619 192.083 121.426C192.018 121.341 191.825 121.255 191.632 121.255C191.354 121.255 191.311 121.426 191.439 122.26C191.547 123.093 191.482 123.393 190.989 124.226C189.532 126.748 186.745 129.463 184.151 130.874C183.679 131.13 182.929 131.557 182.457 131.835C181.986 132.113 181.407 132.348 181.171 132.37C180.914 132.37 180.635 132.455 180.507 132.583C180.056 133.032 174.269 134.785 172.811 134.913C171.653 135.02 171.332 135.106 171.353 135.362C171.396 135.533 171.503 136.217 171.632 136.858C171.739 137.499 171.932 139.38 172.061 141.026C172.404 145.942 172.682 148.913 172.811 149.362C172.897 149.597 173.025 150.366 173.111 151.072C173.561 154.235 174.011 156.885 174.204 157.334C174.333 157.612 174.419 158.082 174.419 158.403C174.419 159.023 174.912 161.545 175.405 163.255C175.555 163.853 175.855 165.093 176.048 166.033C176.241 166.974 176.691 168.577 177.012 169.603C177.355 170.629 177.634 171.633 177.634 171.826C177.634 172.039 177.913 173.087 178.256 174.155C178.599 175.203 179.199 177.084 179.585 178.323C179.971 179.563 180.399 180.867 180.55 181.209C180.678 181.572 181.171 182.812 181.621 183.987C182.072 185.163 182.5 186.21 182.607 186.338C182.693 186.445 182.779 186.744 182.779 187.001C182.779 187.279 182.865 187.535 182.972 187.599C183.079 187.664 183.229 187.984 183.293 188.305C183.551 189.331 185.373 193.755 186.166 195.208C187.517 197.731 188.631 198.992 189.96 199.547C191.247 200.103 193.798 200.189 195.963 199.74ZM210.325 196.94C212.876 196.747 214.184 196.405 213.648 196.063C213.477 195.935 212.812 195.85 212.19 195.85C210.433 195.85 208.289 194.738 207.86 193.584C207.753 193.306 207.581 193.071 207.474 193.071C207.367 193.071 207.024 193.648 206.703 194.353C206.381 195.059 205.824 195.892 205.481 196.213C204.602 197.047 204.966 197.346 206.638 197.218C207.367 197.153 209.039 197.025 210.325 196.94ZM214.163 194.866C214.527 194.503 214.506 193.37 214.034 190.186C213.927 189.373 213.777 188.347 213.734 187.941C213.519 186.125 212.962 182.406 212.769 181.422C212.662 180.845 212.469 179.541 212.362 178.537C212.255 177.532 212.062 176.25 211.933 175.651C211.826 175.074 211.483 172.766 211.183 170.522C210.883 168.299 210.497 165.456 210.304 164.217C210.132 162.977 209.854 160.925 209.682 159.621C209.168 155.731 208.739 152.696 208.396 150.324C207.839 146.583 207.26 142.266 206.788 138.461C206.66 137.414 206.467 136.11 206.36 135.576C206.252 135.041 206.059 133.567 205.931 132.284C205.802 131.002 205.631 129.848 205.566 129.741C205.438 129.527 205.245 128.266 204.859 125.103C204.516 122.345 204.066 120.678 203.444 119.845C202.758 118.947 202.094 118.755 201.343 119.225C200.614 119.695 198.299 119.567 196.756 118.947C195.898 118.605 195.47 118.541 195.084 118.712C194.784 118.819 194.162 118.904 193.69 118.904C192.704 118.904 192.64 119.182 193.262 120.764C193.476 121.319 193.862 122.751 194.141 123.927C194.398 125.103 194.676 126.257 194.784 126.492C194.891 126.727 195.019 127.39 195.084 127.988C195.169 128.565 195.298 129.335 195.405 129.698C195.791 130.938 196.07 132.113 196.413 133.887C196.584 134.87 196.884 136.367 197.056 137.179C197.227 138.012 197.463 139.188 197.592 139.829C197.699 140.449 197.892 141.154 197.999 141.368C198.128 141.582 198.214 142.009 198.214 142.308C198.214 142.821 198.728 145.237 199.264 147.331C199.371 147.737 199.585 148.699 199.714 149.469C200.014 151.072 200.443 153.273 200.893 155.624C201.086 156.522 201.322 157.762 201.429 158.339C201.536 158.937 201.729 159.899 201.858 160.476C201.986 161.075 202.244 162.25 202.415 163.105C202.93 165.67 203.38 167.893 203.616 168.919C203.744 169.453 203.916 170.458 204.001 171.163C204.087 171.868 204.366 173.322 204.623 174.369C205.052 176.1 205.395 177.874 205.909 181.016C206.017 181.615 206.21 182.619 206.317 183.261C206.445 183.902 206.703 185.227 206.874 186.231C207.967 192.43 207.817 191.896 209.018 193.178C209.618 193.819 210.197 194.353 210.304 194.353C210.39 194.353 210.776 194.503 211.14 194.674C211.526 194.845 212.169 195.016 212.576 195.059C212.984 195.102 213.434 195.166 213.584 195.166C213.712 195.187 213.991 195.059 214.163 194.866ZM79.8175 153.508C82.1756 152.76 84.1907 151.841 85.091 151.093C85.5626 150.708 85.7341 150.345 85.8842 149.319C85.9914 148.528 86.4415 147.224 87.0203 146.006C87.8992 144.147 88.6281 141.368 88.3494 140.941C88.3065 140.834 87.985 140.705 87.6634 140.641C86.6559 140.449 85.1553 140.043 84.7051 139.829C84.4693 139.722 83.8477 139.551 83.3117 139.444C82.7758 139.316 81.2324 138.931 79.8818 138.568C78.5313 138.183 76.3662 137.606 75.0585 137.286C73.7723 136.944 72.2717 136.559 71.7358 136.409C71.1999 136.281 70.6854 136.067 70.5782 135.982C70.4496 135.875 70.2138 135.789 70.0209 135.789C69.8279 135.789 68.9919 135.597 68.1773 135.362C67.3627 135.106 66.1622 134.764 65.5191 134.571C64.876 134.379 64.1043 134.165 63.8042 134.058C63.5041 133.973 62.1107 133.545 60.6958 133.118C59.281 132.69 57.8876 132.263 57.5875 132.156C57.2873 132.049 56.5156 131.835 55.8725 131.643C54.6721 131.301 52.7427 130.724 50.8348 130.125C50.2561 129.933 49.2271 129.612 48.584 129.42C47.9409 129.228 47.2978 128.993 47.1691 128.907C47.0405 128.822 46.5046 128.651 45.9901 128.544C45.4756 128.437 44.2323 128.052 43.2247 127.667C42.2172 127.283 41.0167 126.855 40.5451 126.727C40.0735 126.577 39.5376 126.406 39.3661 126.321C39.1946 126.257 38.4229 125.979 37.6511 125.744C36.8794 125.487 36.0648 125.209 35.829 125.103C35.5932 125.017 34.7786 124.718 34.0069 124.44C33.2351 124.162 32.3777 123.82 32.0776 123.671C31.7774 123.521 31.3916 123.393 31.1986 123.393C30.8771 123.393 30.1268 123.136 28.7548 122.559C27.9188 122.196 26.3968 121.704 25.4321 121.469C24.8962 121.341 23.8887 121.084 23.1812 120.892C21.6807 120.486 17.1789 120.272 16.5572 120.571C16.3 120.7 15.4425 120.999 14.6065 121.255C13.7919 121.49 12.913 121.79 12.6772 121.875C10.2977 122.837 8.77565 123.393 8.53984 123.393C8.38978 123.393 7.85386 123.564 7.36081 123.777C6.86776 123.991 6.05316 124.355 5.56011 124.568C4.18815 125.145 3.93091 125.53 4.05953 126.855C4.16671 128.116 4.6812 129.634 5.04563 129.762C5.17425 129.805 5.28143 129.954 5.28143 130.104C5.28143 130.532 7.53231 132.562 8.36835 132.904C8.77565 133.075 9.16151 133.31 9.24726 133.438C9.31157 133.545 9.56881 133.652 9.80462 133.652C10.019 133.652 10.3834 133.738 10.5978 133.866C11.1766 134.186 12.4199 134.678 12.9987 134.828C13.5132 134.956 16.0642 135.96 17.3933 136.538C17.7577 136.687 18.7652 137.136 19.6442 137.521C20.5231 137.905 21.402 138.354 21.5949 138.504C21.7664 138.654 22.0237 138.782 22.1523 138.782C22.2809 138.782 22.6668 138.931 22.9883 139.102C23.3313 139.273 23.76 139.423 23.953 139.423C24.1459 139.423 24.4246 139.573 24.5746 139.744C24.7247 139.915 24.9819 140.064 25.132 140.064C25.3035 140.064 25.6036 140.15 25.818 140.257C26.5254 140.641 29.1407 141.774 30.4698 142.266C30.9414 142.437 32.099 142.886 33.0422 143.27C34.8644 143.997 35.2717 144.147 37.9727 145.13C40.6952 146.134 41.1025 146.263 42.5816 146.711C43.3534 146.947 44.4038 147.267 44.9397 147.438C45.4756 147.609 46.0973 147.759 46.3331 147.759C46.5903 147.759 46.869 147.844 46.9762 147.951C47.1048 148.058 47.9623 148.336 48.9055 148.614C52.9785 149.704 54.3076 150.067 55.551 150.324C56.0226 150.409 56.7086 150.601 57.0515 150.708C58.3592 151.157 60.0956 151.606 60.5672 151.606C60.8244 151.606 61.2103 151.692 61.4247 151.82C61.639 151.927 62.4751 152.119 63.2897 152.226C64.1043 152.354 65.5834 152.611 66.591 152.782C67.5985 152.974 69.3778 153.252 70.5782 153.423C71.7573 153.594 72.9577 153.829 73.2578 153.936C73.5365 154.043 74.6512 154.15 75.7445 154.15C77.3952 154.171 78.0597 154.064 79.8175 153.508ZM88.2851 138.889C88.2422 138.418 88.0922 137.884 87.9207 137.713C87.7706 137.542 87.5991 137.2 87.5134 136.944C87.2776 136.153 86.2057 135.362 84.3193 134.593C83.2903 134.186 81.854 133.738 81.1252 133.631C80.4178 133.524 79.6675 133.331 79.4745 133.246C79.2816 133.139 78.5528 133.011 77.8453 132.947C76.3876 132.797 76.0661 132.733 73.9867 132.263C73.1721 132.07 72.1431 131.857 71.7358 131.793C71.3285 131.728 70.8998 131.6 70.7712 131.515C70.664 131.429 70.0852 131.258 69.4849 131.13C68.9062 131.002 67.8343 130.681 67.1269 130.446C66.4195 130.19 65.4977 129.912 65.0904 129.805C64.6831 129.719 63.3326 129.292 62.0892 128.864C60.8459 128.416 59.5597 127.988 59.1952 127.903C58.8522 127.817 57.909 127.475 57.1373 127.154C56.3656 126.855 55.5938 126.599 55.4223 126.599C55.2508 126.599 54.9936 126.492 54.865 126.364C54.7364 126.235 54.2433 126.043 53.7931 125.936C52.6999 125.701 49.7416 124.974 48.7983 124.718C48.391 124.611 47.2763 124.29 46.3331 124.034C45.3899 123.777 44.3395 123.478 43.975 123.393C43.2676 123.2 42.0886 122.794 41.4026 122.516C41.1668 122.41 40.245 122.089 39.3661 121.811C38.4872 121.512 37.2224 121.063 36.5793 120.828C35.9362 120.571 34.7357 120.123 33.8997 119.823C33.0851 119.545 32.3134 119.203 32.2062 119.097C32.0776 118.99 31.7989 118.904 31.5416 118.904C31.2844 118.904 30.9843 118.797 30.8557 118.669C30.727 118.541 30.234 118.349 29.7838 118.263C29.3336 118.156 28.1975 117.878 27.2543 117.622C24.1245 116.767 22.9883 116.532 21.1447 116.297C19.0868 116.062 16.0642 116.168 15.4425 116.51C13.749 117.451 9.9118 119.139 9.03289 119.353C7.2965 119.759 6.37471 120.208 5.64586 121.042C4.85269 121.897 3.8666 123.756 4.08097 123.97C4.16671 124.055 4.83126 123.82 5.56011 123.435C6.28897 123.072 7.42512 122.559 8.06823 122.324C8.71134 122.068 9.54737 121.747 9.89037 121.597C12.6772 120.358 17.6505 118.904 19.0225 118.904C20.7589 118.904 26.4182 120.165 28.5405 121.042C28.9906 121.213 31.1129 121.939 32.7207 122.474C33.2566 122.645 33.8568 122.88 34.0498 122.965C34.5214 123.222 37.2439 124.205 38.5086 124.568C39.0446 124.739 40.2879 125.167 41.2954 125.551C42.303 125.915 43.5034 126.342 43.975 126.471C44.4466 126.599 44.9397 126.77 45.0469 126.855C45.1755 126.919 45.6471 127.069 46.1187 127.154C46.5903 127.24 47.6622 127.582 48.4768 127.903C49.3128 128.245 50.1703 128.522 50.4275 128.522C50.6633 128.522 50.942 128.608 51.0707 128.715C51.1778 128.8 51.6494 128.993 52.1211 129.121C52.5927 129.228 53.2787 129.441 53.6216 129.57C53.9861 129.677 54.8435 129.933 55.551 130.125C56.2584 130.318 57.223 130.617 57.6947 130.767C58.1663 130.916 59.1309 131.215 59.8383 131.408C60.5458 131.622 61.5104 131.921 61.982 132.049C62.4536 132.199 63.4183 132.498 64.1257 132.69C64.8331 132.904 65.6477 133.139 65.9479 133.246C66.248 133.331 67.2126 133.609 68.0916 133.866C68.9705 134.101 70.1281 134.443 70.664 134.593C71.5643 134.87 72.3789 135.106 75.3801 135.918C76.0232 136.089 77.0522 136.367 77.631 136.538C78.2312 136.709 79.2816 136.986 79.989 137.179C80.6964 137.371 81.5754 137.606 81.9184 137.692C82.2828 137.799 83.2903 138.098 84.1692 138.354C85.0481 138.611 86.2057 139.038 86.7417 139.316C88.0707 140.021 88.3709 139.936 88.2851 138.889ZM86.2486 133.567C86.1629 133.374 86.0128 133.225 85.8842 133.225C85.6484 133.225 85.5841 133.93 85.8199 134.144C86.0557 134.379 86.3772 133.93 86.2486 133.567ZM172.275 133.331C172.575 133.161 173.218 133.032 173.711 133.011C174.204 133.011 174.869 132.861 175.212 132.69C175.533 132.519 176.391 132.22 177.098 132.028C177.806 131.835 178.685 131.557 179.028 131.408C179.392 131.258 180.099 130.959 180.635 130.745C181.171 130.532 181.75 130.232 181.943 130.083C182.114 129.933 182.415 129.805 182.565 129.805C183.015 129.805 185.759 127.924 186.916 126.834C188.052 125.765 189.574 123.863 190.046 122.922C190.325 122.388 190.303 122.281 189.96 121.897C189.746 121.661 189.403 121.469 189.21 121.469C188.846 121.469 187.924 121.127 186.53 120.507C186.187 120.358 185.351 120.058 184.708 119.866C183.529 119.503 180.614 118.498 179.092 117.921C178.642 117.75 177.913 117.494 177.484 117.323C176.691 117.045 175.212 116.446 171.696 115.036C170.774 114.672 169.552 114.138 168.995 113.86C168.416 113.582 167.859 113.347 167.752 113.347C167.623 113.347 167.087 113.155 166.53 112.898C165.972 112.663 165.329 112.385 165.094 112.278C164.858 112.193 164.043 111.808 163.271 111.466C162.5 111.103 160.678 110.312 159.198 109.714C157.719 109.094 156.24 108.474 155.876 108.324C155.533 108.153 155.082 107.982 154.911 107.918C154.74 107.854 154.439 107.704 154.268 107.598C154.096 107.491 153.475 107.17 152.874 106.914C152.296 106.657 150.752 105.952 149.445 105.332C148.158 104.712 146.465 103.943 145.693 103.601C144.943 103.259 139.391 100.523 133.367 97.5305C122.113 91.9306 120.848 91.3321 120.269 91.3321C120.097 91.3321 119.69 91.2039 119.369 91.0542C118.254 90.4985 115.746 90.1566 114.652 90.4344C114.095 90.5627 113.173 90.7336 112.573 90.8191C111.994 90.8833 111.223 91.0329 110.858 91.1184C108.522 91.8023 106.892 92.2512 106.249 92.4008C105.842 92.5077 104.834 92.7855 104.02 93.042C103.205 93.2771 102.219 93.4695 101.833 93.4695C101.447 93.4695 101.062 93.5763 100.997 93.6832C100.933 93.8115 100.547 93.8969 100.183 93.8969C99.7967 93.8969 99.2179 94.0466 98.8749 94.2176C98.5534 94.3885 98.1032 94.5382 97.9103 94.5382C97.6959 94.5382 97.31 94.7733 97.0528 95.0511C96.6026 95.5214 96.5598 95.7351 96.6455 97.3595C96.7098 98.8129 96.8599 99.39 97.4172 100.523C98.2747 102.275 98.4891 102.532 100.568 104.178C102.005 105.332 103.462 106.251 108.35 109.179C108.543 109.307 109.529 109.927 110.537 110.59C111.544 111.231 112.509 111.83 112.68 111.915C112.852 112.001 113.259 112.236 113.559 112.449C114.031 112.749 117.225 114.736 118.575 115.549C118.79 115.698 119.369 116.04 119.862 116.339C120.333 116.617 120.912 116.981 121.148 117.13C121.384 117.28 121.77 117.494 122.005 117.622C122.241 117.729 122.927 118.113 123.506 118.477C124.106 118.819 125.114 119.353 125.757 119.652C126.4 119.973 127.086 120.294 127.257 120.4C128.243 120.977 133.174 123.393 133.345 123.393C133.453 123.393 133.71 123.521 133.881 123.671C134.074 123.82 134.653 124.119 135.189 124.333C135.725 124.547 136.454 124.846 136.797 124.996C137.161 125.167 138.212 125.594 139.155 125.958C140.098 126.321 141.149 126.77 141.47 126.941C141.813 127.112 142.242 127.24 142.435 127.24C142.628 127.24 142.992 127.39 143.206 127.561C143.442 127.732 143.785 127.881 144 127.881C144.193 127.881 144.643 128.031 144.964 128.202C145.307 128.373 145.822 128.522 146.122 128.522C146.443 128.522 146.765 128.608 146.872 128.693C147.129 128.928 149.53 129.655 151.588 130.125C152.424 130.318 153.432 130.574 153.839 130.703C154.246 130.852 155.018 131.023 155.554 131.087C156.669 131.258 158.384 131.664 159.306 131.985C163.057 133.246 170.967 134.08 172.275 133.331ZM90.0644 131.386C91.6507 130.852 93.6443 130.125 94.6733 129.719C94.8448 129.634 95.4236 129.335 95.9595 129.014C96.4954 128.715 97.2243 128.309 97.5673 128.116C97.9317 127.924 98.5963 127.518 99.0679 127.24C99.8825 126.727 100.59 126.385 102.241 125.658C102.605 125.509 103.548 125.081 104.32 124.718C105.092 124.376 106.142 123.927 106.678 123.713C107.214 123.521 107.943 123.243 108.286 123.093C109.165 122.73 110.236 122.345 111.458 122.003C113.645 121.362 114.567 121.063 116.346 120.443C117.354 120.08 118.768 119.674 119.497 119.545C121.469 119.161 121.319 118.733 118.854 117.494C117.761 116.959 116.71 116.382 116.539 116.254C116.26 116.019 115.596 115.591 112.787 113.924C112.552 113.775 112.059 113.454 111.673 113.197C111.308 112.92 110.922 112.706 110.837 112.706C110.751 112.706 110.001 112.257 109.165 111.701C108.329 111.146 107.3 110.504 106.892 110.269C106.485 110.055 105.456 109.436 104.599 108.88C103.763 108.346 102.326 107.427 101.447 106.871C98.1675 104.798 95.8309 102.104 95.1235 99.561C94.5018 97.3595 94.9734 92.5077 95.9166 91.1611C96.1739 90.8191 96.3883 90.4344 96.3883 90.3062C96.3883 89.7932 97.9531 88.126 98.8535 87.6986C100.011 87.1429 100.075 86.7154 99.2179 85.5826C98.2318 84.3001 97.4815 82.7185 96.6241 80.0681C95.5093 76.6056 95.4236 76.1568 94.6519 67.6073C94.3732 64.4867 94.3089 62.734 94.1588 54.0349L94.0302 46.9816L93.0012 47.0244C91.9937 47.0671 91.0933 47.2808 87.3848 48.3923C86.27 48.7343 84.8123 49.1617 84.1692 49.3541C83.5261 49.5465 82.7115 49.7816 82.3471 49.9098C82.0041 50.0167 81.4253 50.1877 81.0609 50.2945C80.7179 50.4014 79.8818 50.6793 79.2387 50.9357C78.5956 51.1922 77.6953 51.4701 77.2451 51.577C76.7949 51.6625 76.3019 51.8548 76.1733 51.9831C76.0446 52.1113 75.7445 52.2182 75.4873 52.2182C75.23 52.2182 74.8442 52.3678 74.6084 52.5388C74.394 52.7098 74.051 52.8594 73.8366 52.8594C73.6437 52.8594 72.8505 53.1372 72.0574 53.5006C71.2642 53.8639 70.5139 54.1418 70.3853 54.1418C70.0852 54.1418 65.4548 55.9372 64.5973 56.3861C64.2543 56.557 63.8899 56.7067 63.7613 56.7067C63.5469 56.7067 58.2949 58.844 56.6228 59.6135C54.8864 60.3829 53.0428 61.1951 52.9571 61.1951C52.8928 61.1951 52.0996 61.5371 49.1199 62.905C48.6483 63.1188 47.3406 63.6959 46.2259 64.2088C45.1112 64.7004 44.0393 65.2561 43.8464 65.4058C43.6749 65.5554 43.3962 65.6836 43.2462 65.6836C43.0961 65.6836 41.7885 66.2607 40.3736 66.9447C38.9374 67.6286 37.6083 68.2699 37.4368 68.334C36.515 68.7187 25.7108 74.4255 24.103 75.3659C21.8736 76.7125 20.716 77.888 20.716 78.8498C20.716 79.2346 20.6303 79.5979 20.5231 79.662C20.3516 79.7689 20.2873 80.4315 19.9014 85.1337C19.5155 89.8359 19.8585 101.399 20.3944 102.468C20.5659 102.788 20.716 103.216 20.716 103.387C20.716 103.579 20.8446 104.028 21.0161 104.413C21.1876 104.798 21.4877 105.546 21.7021 106.08C22.5596 108.217 25.1749 111.851 27.5329 114.159C29.0335 115.634 29.7838 116.104 32.6564 117.344C33.4281 117.665 34.1784 117.985 35.9362 118.755C36.5793 119.032 37.7369 119.481 38.5086 119.738C39.2804 119.994 40.2021 120.315 40.5451 120.422C40.9096 120.55 41.4884 120.721 41.8313 120.828C42.1958 120.913 43.2033 121.234 44.0822 121.533C44.9611 121.832 46.2688 122.239 46.9762 122.431C47.6836 122.623 48.4768 122.88 48.7555 122.987C49.0341 123.093 49.9559 123.329 50.8348 123.5C52.657 123.884 53.6645 123.713 55.701 122.709C56.3656 122.388 56.9872 122.11 57.0515 122.11C57.4374 122.11 64.9618 118.242 66.0979 117.472C66.4195 117.237 66.8482 116.981 67.0197 116.916C67.1912 116.831 67.6414 116.574 67.9844 116.361C68.3488 116.126 68.9705 115.762 69.3778 115.549C69.7851 115.313 71.0498 114.608 72.186 113.946C73.3222 113.283 74.9728 112.428 75.8303 112.065C76.7092 111.68 77.781 111.188 78.2312 110.975C78.6814 110.782 79.3459 110.526 79.7318 110.462C80.1177 110.376 80.5249 110.226 80.6321 110.141C80.9751 109.885 83.4832 109.072 83.912 109.072C84.1264 109.072 84.3836 108.987 84.5122 108.88C84.6194 108.752 85.2411 108.581 85.8842 108.452C87.3419 108.196 88.8425 107.811 89.4641 107.512C89.7 107.405 90.0429 107.384 90.1716 107.469C90.5574 107.704 89.3355 108.623 88.6281 108.645C88.3065 108.645 87.9207 108.773 87.7706 108.944C87.5991 109.094 87.0418 109.307 86.5058 109.393C85.9914 109.478 85.4769 109.628 85.3483 109.692C85.2411 109.778 84.4693 110.077 83.6333 110.333C82.8187 110.59 81.9398 110.889 81.704 111.017C81.4682 111.124 80.6536 111.445 79.8818 111.723C79.1101 112.001 78.1026 112.428 77.631 112.684C77.1594 112.92 76.3019 113.304 75.7016 113.561C75.1228 113.796 74.4797 114.095 74.3083 114.202C74.1368 114.33 73.7938 114.501 73.558 114.608C73.3222 114.715 72.7648 115.057 72.3146 115.356C71.8644 115.655 71.4571 115.912 71.4143 115.912C71.3714 115.912 70.4496 116.446 69.3778 117.087C68.3059 117.729 67.3413 118.263 67.2341 118.263C67.1269 118.263 66.9125 118.391 66.7625 118.541C66.2694 118.99 64.2115 120.187 63.9114 120.187C63.7613 120.187 63.4612 120.336 63.2897 120.529C63.0968 120.7 62.1107 121.277 61.0817 121.768C58.4878 123.051 57.8876 123.307 56.4513 123.777C55.1437 124.205 54.9293 124.419 55.4438 124.697C55.9797 124.996 58.5736 125.958 58.8308 125.958C58.9594 125.958 59.3882 126.086 59.774 126.257C60.1599 126.406 61.0174 126.706 61.6605 126.919C62.3036 127.112 63.1396 127.411 63.5255 127.582C63.8899 127.753 64.383 127.881 64.6402 127.881C64.876 127.881 65.3905 128.009 65.7764 128.18C67.8772 129.057 76.1304 131.087 77.5881 131.087C78.0168 131.087 78.6171 131.194 78.9601 131.322C79.2816 131.451 80.2248 131.6 81.0609 131.664C81.8755 131.728 82.6043 131.814 82.6686 131.878C82.9259 132.156 89.0354 131.75 90.0644 131.386ZM190.325 119.759C190.282 119.225 190.068 118.455 189.81 118.049C189.382 117.301 188.031 116.04 187.195 115.549C186.316 115.078 183.615 113.775 183.465 113.775C183.379 113.775 182.929 113.561 182.457 113.326C181.986 113.069 180.828 112.535 179.885 112.129C178.942 111.723 177.784 111.21 177.313 110.996C176.841 110.782 176.305 110.547 176.134 110.483C175.962 110.419 175.662 110.269 175.49 110.162C175.319 110.055 174.633 109.756 173.99 109.5C173.347 109.243 172.125 108.709 171.267 108.303C170.41 107.918 169.124 107.341 168.373 107.02C167.623 106.721 166.551 106.251 165.951 105.973C162.521 104.413 161.942 104.156 161.771 104.156C161.685 104.156 161.321 104.007 160.978 103.857C160.656 103.686 160.227 103.494 160.056 103.43C159.884 103.366 159.584 103.216 159.413 103.109C159.241 103.002 158.748 102.767 158.341 102.596C157.934 102.425 156.99 101.976 156.24 101.613C155.511 101.25 154.74 100.95 154.547 100.95C154.354 100.95 154.032 100.822 153.861 100.672C153.668 100.501 152.081 99.7747 150.302 99.0266C147.044 97.6801 144.793 96.6755 143.699 96.1198C143.357 95.9488 142.992 95.8206 142.885 95.8206C142.778 95.8206 142.092 95.5427 141.341 95.2008C140.613 94.8588 139.241 94.2817 138.297 93.8969C135.489 92.7641 135.361 92.7 133.903 92.0161C131.137 90.7123 129.615 90.0497 129.337 90.0497C129.187 90.0497 128.972 89.9642 128.844 89.8573C128.737 89.7505 127.686 89.2589 126.529 88.7673C125.371 88.2757 124.256 87.8054 124.063 87.6986C123.613 87.4848 121.984 86.865 119.54 85.9887C118.018 85.4543 116.603 85.3047 114.331 85.433C113.002 85.4971 111.759 85.6894 111.437 85.8604C111.115 86.01 110.429 86.3307 109.894 86.523C109.358 86.7154 108.607 87.0146 108.221 87.1856C107.836 87.3566 107.3 87.4848 107 87.4848C106.721 87.4848 106.228 87.5917 105.885 87.7199C105.563 87.8482 104.513 88.0192 103.57 88.126C100.74 88.4253 99.9253 88.7031 98.8964 89.7077C98.339 90.2848 97.846 91.0542 97.5887 91.781C97.3744 92.4222 97.0957 93.0206 97.0099 93.1275C96.7956 93.3626 96.7527 94.1107 96.9456 94.1107C97.0314 94.1107 97.4815 93.8969 97.9746 93.6618C98.4462 93.4054 99.0893 93.0847 99.3894 92.9351C99.6895 92.7855 100.376 92.5932 100.954 92.5077C101.512 92.4222 102.026 92.2725 102.09 92.1657C102.155 92.0588 102.433 91.9733 102.734 91.9733C103.248 91.9733 105.52 91.3962 107.535 90.7764C108.071 90.6268 109.272 90.2848 110.215 90.0283C111.158 89.7932 112.273 89.5153 112.68 89.4085C113.881 89.0879 118.404 89.152 119.068 89.494C119.39 89.6436 119.969 89.8359 120.355 89.9001C120.741 89.9856 121.555 90.2634 122.177 90.5627C122.777 90.8405 124.17 91.439 125.221 91.8878C126.293 92.3153 127.3 92.7855 127.472 92.9138C127.643 93.0634 128.522 93.4909 129.401 93.8969C130.28 94.303 131.695 95.0511 132.531 95.5427C133.367 96.0557 134.139 96.4618 134.224 96.4618C134.31 96.4618 136.904 97.7015 139.991 99.219C146.851 102.596 152.853 105.439 153.089 105.439C153.153 105.439 153.989 105.824 154.975 106.272C155.94 106.743 157.934 107.619 159.413 108.217C160.892 108.837 162.521 109.543 163.057 109.82C163.593 110.098 164.901 110.654 165.951 111.103C167.023 111.53 168.18 112.001 168.523 112.171C169.038 112.407 172.425 113.775 174.526 114.608C174.762 114.715 175.405 114.993 175.941 115.249C176.477 115.484 177.034 115.698 177.162 115.698C177.291 115.698 177.763 115.848 178.213 116.04C179.842 116.745 179.864 116.767 183.101 117.857C183.808 118.092 184.687 118.434 185.073 118.605C185.437 118.755 185.823 118.904 185.952 118.904C186.209 118.904 189.017 120.336 189.296 120.614C189.424 120.742 189.725 120.806 189.96 120.785C190.325 120.721 190.389 120.593 190.325 119.759ZM7.63949 118.049C8.1111 117.814 8.62559 117.622 8.79708 117.622C8.96858 117.622 9.37588 117.494 9.71887 117.323C12.5057 115.955 15.5283 114.715 16.6001 114.523C17.3718 114.373 17.479 114.01 16.8574 113.625C16.4501 113.347 14.928 111.146 14.928 110.804C14.928 110.697 14.6708 110.12 14.3492 109.5C13.2988 107.469 12.9987 105.011 12.57 95.0725C12.2913 88.2757 12.2913 85.9032 12.57 83.3597C12.6772 82.2696 12.8701 79.4269 12.9987 77.0117C13.1059 74.5965 13.3203 71.7751 13.4275 70.7065C13.5346 69.6591 13.749 67.7355 13.8562 66.4317C13.9848 65.1493 14.1777 63.5035 14.3064 62.7982C14.4136 62.0928 14.6494 60.4043 14.8209 59.0578C15.121 56.7067 15.5068 54.3342 15.9784 52.1968C16.0856 51.6625 16.4072 50.8075 16.6644 50.3159C17.0074 49.6533 17.0717 49.3541 16.9002 49.1831C16.7073 48.9907 16.5572 49.0335 16.2571 49.29C16.0428 49.4823 15.807 49.6533 15.7212 49.6533C15.6569 49.6533 15.2496 49.8884 14.8423 50.1663C14.435 50.4442 13.2988 51.064 12.3127 51.5556C11.3266 52.0472 10.3834 52.5388 10.2119 52.6243C10.0404 52.7098 9.41875 53.0304 8.83996 53.3082C8.2826 53.5861 7.42512 54.1632 6.95351 54.5693C6.05316 55.3601 5.79592 56.1082 5.28143 59.4639C5.15281 60.2119 5.00275 60.9173 4.93844 61.0242C4.72407 61.3661 3.88803 67.1798 3.54504 70.7065C3.41642 72.0102 3.20205 73.5919 3.03056 74.2331C2.75188 75.3659 2.40889 78.8712 2.02302 84.3856C1.93728 85.7963 1.80865 90.0711 1.74434 93.8969C1.59429 103.002 2.13021 110.12 3.13774 112.599C4.40252 115.613 6.13891 118.477 6.7177 118.477C6.76058 118.477 7.16788 118.284 7.63949 118.049ZM195.32 116.831C198.042 116.639 199.178 116.083 200.657 114.159C201.793 112.663 201.901 110.248 201.429 98.0648C201.172 91.1184 200.679 83.2101 200.336 80.4315C200.207 79.3201 200.079 77.7812 200.057 77.0117C200.036 76.2422 199.907 75.2804 199.778 74.8743C199.65 74.4682 199.478 73.0789 199.393 71.7965C199.328 70.5141 199.178 69.2958 199.071 69.082C198.942 68.8683 198.857 68.2912 198.857 67.7783C198.857 66.218 198.085 64.4439 196.756 62.905C196.091 62.1356 195.491 61.473 195.427 61.4089C195.341 61.3448 194.741 60.6822 194.033 59.9127C190.389 55.8517 179.842 45.5068 174.847 41.1038C173.604 39.9924 172.554 39.0519 172.489 38.9878C172.425 38.9023 171.76 38.3252 170.989 37.684C170.217 37.0428 169.359 36.2734 169.059 35.9741C168.373 35.3115 164.472 32.0841 162.092 30.2032C161.128 29.4338 159.906 28.4506 159.37 28.0231C158.834 27.5743 158.298 27.2109 158.191 27.2109C158.062 27.2109 157.826 27.0613 157.676 26.8689C157.526 26.6766 156.84 26.1636 156.176 25.6934C155.511 25.2445 154.825 24.7529 154.654 24.6033C154.268 24.2186 150.967 21.9102 149.23 20.7988C148.952 20.6278 147.451 19.6019 145.865 18.5545C142.992 16.5882 139.434 14.3867 139.176 14.3867C139.091 14.3867 138.233 13.8737 137.247 13.2325C134.889 11.7149 133.431 10.8814 129.08 8.61575C128.136 8.12416 126.507 7.24783 125.435 6.69212C124.385 6.1364 122.541 5.19595 121.362 4.59749C117.075 2.48149 116.732 2.41737 116.389 3.65705C116.003 5.00359 115.467 8.20965 115.338 10.005C115.274 10.9455 115.146 12.1424 115.038 12.6768C114.845 13.5531 114.652 16.866 114.481 21.8675C114.46 22.872 114.331 25.6506 114.224 28.0658C113.666 39.5435 114.095 56.8135 115.146 65.7905C115.188 66.1538 115.274 67.0729 115.338 67.8637C115.403 68.6759 115.531 69.4882 115.639 69.6805C115.767 69.8942 115.917 70.5996 116.003 71.2408C116.239 73.2072 118.082 77.8667 119.347 79.7475C119.69 80.2605 119.969 80.7307 119.969 80.7949C119.969 80.8803 120.505 81.6284 121.148 82.462C121.791 83.317 122.327 84.1078 122.327 84.236C122.327 84.5139 123.742 85.7536 124.342 85.9887C125.907 86.5871 126.872 86.9719 128.072 87.5276C128.801 87.8482 129.487 88.126 129.594 88.126C129.68 88.126 130.301 88.4253 130.966 88.7673C131.631 89.1306 132.274 89.4085 132.381 89.4085C132.617 89.4085 135.168 90.5199 136.089 91.0329C136.39 91.1825 136.797 91.3321 136.968 91.3321C137.268 91.3321 138.276 91.7596 140.87 92.9351C142.992 93.9183 144.428 94.5382 144.514 94.5382C144.578 94.5382 145.264 94.8374 146.058 95.2008C146.872 95.5641 147.815 95.9916 148.158 96.1412C148.523 96.2908 149.445 96.7183 150.238 97.0816C151.031 97.445 151.803 97.7442 151.931 97.7442C152.06 97.7442 152.424 97.8725 152.724 98.0435C153.046 98.2144 153.732 98.5351 154.268 98.7702C154.804 99.0053 155.811 99.4541 156.519 99.7747C157.226 100.095 158.105 100.48 158.448 100.63C158.813 100.779 159.777 101.228 160.592 101.591C161.428 101.976 162.392 102.404 162.735 102.553C163.1 102.703 164.493 103.301 165.844 103.857C167.194 104.434 168.824 105.161 169.467 105.482C170.11 105.823 170.731 106.08 170.817 106.08C170.924 106.08 171.953 106.529 173.089 107.063C174.226 107.619 175.469 108.175 175.812 108.324C177.205 108.923 177.999 109.265 179.135 109.778C183.915 111.915 188.803 114.373 189.253 114.843C189.467 115.057 189.789 115.356 190.025 115.527C190.239 115.677 190.625 116.126 190.904 116.532C191.397 117.216 191.461 117.237 192.404 117.109C192.94 117.023 194.269 116.916 195.32 116.831ZM27.0184 115.634C26.9113 115.463 26.1395 114.736 25.3035 114.031C23.9744 112.877 22.6453 111.445 22.6453 111.124C22.6453 111.081 22.2595 110.44 21.7878 109.735C21.3162 109.03 20.8232 108.217 20.716 107.961C20.5874 107.683 20.4159 107.32 20.3301 107.149C19.8156 106.23 19.4298 105.375 19.4298 105.161C19.4298 105.011 19.3012 104.648 19.1297 104.349C18.9796 104.028 18.6795 102.682 18.4651 101.356C18.165 99.2404 18.1221 97.7015 18.2079 89.9428C18.3365 79.662 18.4437 78.8285 19.9228 76.7552C20.1158 76.456 20.1158 76.285 19.9014 75.943C19.344 75.0453 19.1511 73.3568 19.0654 68.2485C18.9367 62.4348 19.344 52.2609 19.7728 50.6365C19.9014 50.0594 19.9871 49.461 19.9228 49.3113C19.7942 48.9907 18.6795 48.7129 18.3365 48.9052C17.9292 49.1617 17.5433 50.3159 17.3075 52.1113C17.1575 53.0517 16.8788 54.8258 16.643 56.0654C16.4286 57.3051 16.1285 59.2715 15.9999 60.4471C15.8713 61.6226 15.6569 63.2043 15.5497 63.9737C15.4425 64.7432 15.2496 66.6241 15.1424 68.1416C15.0138 69.6805 14.8209 71.54 14.7137 72.3095C13.8348 78.1873 13.7061 100.053 14.4993 104.798C15.0567 108.11 15.0138 107.961 16.4929 110.889C17.0289 111.936 18.1221 113.732 18.508 114.202C18.5723 114.245 19.194 114.373 19.9228 114.458C22.7739 114.779 25.9466 115.591 26.6111 116.168C26.8898 116.425 27.2328 116.019 27.0184 115.634ZM104.534 86.0742C105.413 85.9246 106.571 85.7108 107.107 85.6039C108.05 85.433 110.665 84.4711 111.48 84.0223C112.144 83.6803 116.132 83.4025 117.375 83.6376C117.975 83.7444 119.111 84.0864 119.862 84.3856C121.191 84.92 122.134 84.9414 121.448 84.407C120.248 83.4879 117.654 79.7903 116.775 77.7598C116.518 77.1613 116.217 76.5201 116.11 76.3277C115.982 76.114 115.896 75.8362 115.896 75.7079C115.896 75.5797 115.767 75.1736 115.596 74.8102C115.167 73.8698 114.652 71.9889 114.502 70.7065C114.417 70.1294 114.267 69.3385 114.159 68.9538C113.924 68.1843 113.624 65.0852 113.323 60.0196C113.195 58.1387 113.002 55.6807 112.873 54.5693C112.595 52.2609 112.487 33.8368 112.723 27.5315C112.959 20.3286 113.838 8.59438 114.181 7.97454C114.31 7.7608 114.395 7.33333 114.395 7.0341C114.395 6.47838 115.103 4.10589 115.489 3.42193C115.724 2.97309 115.188 2.67385 114.76 3.01583C114.417 3.29369 109.358 5.77304 108.393 6.1364C108.221 6.20052 107.921 6.35014 107.75 6.457C107.578 6.56387 106.764 6.96997 105.928 7.33333C105.113 7.69668 104.277 8.10278 104.106 8.20965C103.934 8.31652 103.248 8.6585 102.605 8.9791C99.368 10.5394 97.8888 12.463 97.8888 15.1134C97.8888 15.5836 97.8031 16.3103 97.6745 16.695C97.5673 17.1011 97.4172 18.2553 97.3529 19.2599C97.2886 20.2858 97.1385 21.7392 97.0099 22.5087C96.9027 23.2781 96.7098 25.7789 96.5812 28.0658C96.4526 30.3528 96.2811 33.5803 96.1739 35.2261C95.9381 39.3939 95.9595 58.8868 96.1953 62.905C96.6884 70.5782 97.0314 74.1049 97.5673 76.5842C97.7388 77.3537 97.9103 78.2086 97.9531 78.5079C98.1675 79.662 99.6467 83.317 100.504 84.7704C100.826 85.3261 101.104 85.8818 101.104 85.9887C101.104 86.0955 101.319 86.3307 101.576 86.5016C101.919 86.7581 102.133 86.7795 102.476 86.5871C102.734 86.4375 103.655 86.2238 104.534 86.0742ZM24.5746 73.1431C26.6326 71.8606 38.6158 65.6836 41.0811 64.6363C41.7242 64.3585 43.0318 63.76 43.975 63.3325C48.4768 61.2165 48.8626 61.0455 52.1854 59.5707C52.5498 59.3997 53.1929 59.1433 53.5788 58.9936C54.5863 58.5662 55.5724 58.1387 57.1802 57.3906C57.9733 57.0273 58.8522 56.6639 59.1738 56.5784C59.4739 56.5143 59.7955 56.3647 59.8598 56.2578C59.9241 56.1509 60.117 56.0654 60.2885 56.0654C60.4814 56.0654 61.2532 55.7876 62.0249 55.4242C62.7752 55.0823 63.5041 54.783 63.6112 54.783C63.7184 54.783 64.4258 54.4838 65.1547 54.1418C65.905 53.7785 66.591 53.5006 66.6767 53.5006C66.7839 53.5006 67.1483 53.3724 67.5128 53.2014C67.8986 53.0304 68.3917 52.8594 68.6275 52.7953C69.0562 52.667 69.6779 52.4533 71.9502 51.577C72.5933 51.3205 73.4293 51.0212 73.7723 50.9144C74.1368 50.8075 74.6084 50.6365 74.8442 50.5296C75.2943 50.3373 76.5806 49.8457 77.9097 49.3541C78.7028 49.0762 82.2399 47.9648 84.2764 47.3663C84.8766 47.1953 85.6484 46.9602 85.9914 46.832C86.8488 46.5541 88.7782 46.0412 89.9143 45.806C90.4288 45.6992 90.9647 45.5282 91.0933 45.4427C91.2434 45.3572 91.9508 45.229 92.7011 45.1435C93.4514 45.058 94.0945 44.9511 94.1588 44.887C94.2231 44.8229 94.3089 42.1939 94.3303 39.0519C94.3946 33.8795 94.6519 28.7712 94.9949 26.1422C95.0592 25.6079 95.2092 23.9407 95.3164 22.4018C95.5737 19.0034 96.0453 15.2416 96.3883 13.9592C96.5383 13.4248 96.7312 12.634 96.8384 12.1852C96.9671 11.7577 97.4815 10.86 97.996 10.2188C98.5319 9.57757 98.9607 8.9791 98.9607 8.89361C98.9607 8.82949 98.8106 8.573 98.5963 8.35927C98.0818 7.78218 96.8599 7.86767 95.3593 8.61575C94.6304 8.95773 93.9873 9.25696 93.923 9.25696C93.8373 9.25696 93.0227 9.64169 92.0794 10.1119C91.1362 10.5821 89.7857 11.2233 89.0354 11.5226C88.3065 11.8218 86.2057 12.805 84.3836 13.6813C80.9323 15.3485 74.051 18.6614 72.9148 19.1957C71.1356 20.0293 67.9415 21.5896 67.5556 21.8247C67.1698 22.0385 64.6402 23.2568 58.5521 26.1422C54.9722 27.8307 43.2247 33.6016 42.3673 34.0719C41.96 34.307 40.8024 34.8841 39.7948 35.3543C38.7873 35.8245 37.8226 36.2947 37.6511 36.4016C36.6222 36.9573 30.234 40.0993 28.9692 40.655C28.1546 41.0183 27.3186 41.4244 27.1471 41.5313C26.9756 41.6382 26.4611 41.8947 26.0109 42.087C25.5607 42.2794 24.7033 42.6855 24.0816 43.0061C22.1523 43.9679 21.8736 44.9725 21.1447 53.7143C20.7803 58.2456 20.6303 70.45 20.9089 72.6087C21.2948 75.4728 21.3377 75.4942 22.8168 74.3827C23.4814 73.8911 24.2745 73.314 24.5746 73.1431ZM187.924 50.5724C187.924 50.3587 187.808 50.0487 187.654 49.7773C187.549 49.5294 187.422 49.1404 187.339 48.8967C187.257 48.6552 187.129 48.2469 187.034 47.999C186.944 47.7617 186.816 47.4582 186.758 47.2424C186.698 47.0158 186.518 46.537 186.4 46.2271C186.282 45.9172 186.012 45.0772 185.641 44.3783C184.961 43.098 184.297 42.3841 183.482 42.3841C182.646 42.3841 182.288 42.7688 182.046 43.5597C181.915 43.9893 181.831 44.4787 181.789 44.6284C181.724 44.7993 182.41 45.6543 183.461 46.7016C184.447 47.6848 185.712 49.0313 186.29 49.7153C187.345 50.9357 187.924 51.2564 187.924 50.5724ZM125.007 4.341C125.135 4.12727 124.428 2.63111 123.849 1.94715C123.463 1.45555 121.962 1.43418 121.427 1.92577C120.869 2.41737 120.934 2.56698 121.962 3.03721C122.456 3.25094 123.206 3.67842 123.613 3.99903C124.428 4.57612 124.792 4.68298 125.007 4.341Z" fill="rgb(0,0,0)" fill-rule="nonzero" transform="matrix(1,0,0,-1,-0.183105,229.964)" />
		<path id="矢量 508" d="M16.4527 55.4221C16.1311 54.7381 15.681 53.8405 15.4452 53.4343C14.7806 52.2802 13.1943 48.7749 12.6584 47.236C12.0796 45.6329 11.6294 44.5001 11.3507 43.9872C11.2221 43.7734 11.1364 43.4528 11.1364 43.2604C11.1364 43.0681 11.0077 42.6192 10.8362 42.2559C10.5361 41.5933 9.18559 37.2758 8.73542 35.5873C8.62824 35.1171 8.39243 34.3476 8.24237 33.8774C8.07088 33.4072 7.87795 32.6377 7.7922 32.1675C7.70645 31.6973 7.57783 31.227 7.49208 31.0988C7.40633 30.9919 7.25628 30.5431 7.17053 30.137C7.08478 29.7309 6.78467 28.7049 6.50599 27.85C6.22731 27.0164 5.9915 26.1401 5.9915 25.9263C5.97006 25.7126 5.82001 25.1569 5.64851 24.6867C5.47702 24.2164 5.24121 23.447 5.13403 22.9768C4.81247 21.502 4.34086 19.5997 3.955 18.2745C3.76207 17.5692 3.50482 16.4578 3.39764 15.8166C3.29046 15.1754 3.09752 14.5555 3.01178 14.4273C2.90459 14.3204 2.75453 13.6792 2.66879 13.038C2.58304 12.3968 2.43298 11.7342 2.34723 11.5418C2.1543 11.1785 1.76844 9.70368 1.38257 7.80141C1.21108 7.09608 0.99671 6.17701 0.868089 5.77091C0.739467 5.36481 0.632283 4.70222 0.632283 4.3175C0.632283 3.93277 0.546536 3.44117 0.417914 3.22743C0.31073 3.0137 0.160672 2.2015 0.0749244 1.41067C-0.0536969 0.085495 -0.0536968 0 0.375041 0C0.718031 0 0.868089 0.17099 0.975273 0.812202C1.06102 1.23968 1.18964 1.7099 1.27539 1.81677C1.36114 1.94501 1.48976 2.45798 1.57551 2.99232C1.66125 3.52667 1.81131 4.25337 1.9185 4.59535C2.04712 4.95871 2.39011 6.24113 2.69022 7.48081C3.65488 11.4136 3.82638 12.0548 4.16937 13.3586C4.3623 14.0639 4.61954 15.1754 4.72673 15.8166C4.83391 16.4578 5.02684 17.0776 5.11259 17.2059C5.21977 17.3127 5.34839 17.7616 5.39127 18.1677C5.45558 18.5738 5.71282 19.6852 5.97006 20.6257C6.24874 21.5661 6.59173 22.8699 6.74179 23.5111C6.89185 24.1523 7.19197 25.221 7.3849 25.8622C7.57783 26.5034 7.85651 27.5721 8.028 28.2133C8.30668 29.4103 9.29278 32.6377 9.65721 33.514C9.76439 33.7919 9.85014 34.198 9.85014 34.4117C9.85014 34.6255 10.1503 35.7583 10.5147 36.9124C10.8791 38.0666 11.3722 39.6269 11.5865 40.3964C11.8223 41.1658 12.101 41.978 12.1868 42.2131C12.6584 43.3673 13.3015 45.0986 13.623 46.1245C13.816 46.7444 14.0518 47.3001 14.1589 47.3642C14.2661 47.4283 14.3519 47.6207 14.3519 47.8131C14.3519 48.0054 15.0807 49.6512 15.9811 51.4893C17.7389 55.0588 18.2534 56.3198 18.0605 56.5122C17.9747 56.5763 17.7175 56.6404 17.4602 56.6404C17.1172 56.6404 16.8814 56.3412 16.4527 55.4221Z" fill="rgb(0,0,0)" fill-rule="nonzero" transform="matrix(1,0,0,-1,167.601,70.8772)" />
		<path id="矢量 509" d="M1.46688 16.5431C-0.162326 16.1157 -0.333821 15.9661 0.459344 15.6455C0.866645 15.4958 1.89562 15.4531 3.48195 15.56C4.96109 15.6455 6.35449 15.6027 7.01904 15.4745C7.64071 15.3462 9.31278 15.1325 10.7276 15.0256C14.8435 14.6623 17.3731 14.2775 23.3754 13.102C23.9756 12.9951 24.7902 12.8027 25.1975 12.6959C26.4409 12.3539 28.4559 11.8623 29.4849 11.6486C30.7497 11.3707 34.3511 10.4089 35.1657 10.131C36.7306 9.61806 39.9461 8.63487 40.6321 8.50662C41.0394 8.42113 41.511 8.27151 41.7039 8.18602C41.8754 8.10052 42.7115 7.80129 43.5261 7.5448C44.3621 7.28832 45.3268 6.94634 45.6698 6.79672C46.6559 6.36925 49.5713 5.40743 49.85 5.40743C50 5.40743 50.4073 5.27919 50.7717 5.1082C55.0591 3.27006 65.2845 0.128117 67.4282 0.0212485C68.2857 -0.0428727 68.3929 0.0212485 68.4572 0.448723C68.5215 0.833451 68.4358 0.918946 67.9641 0.918946C67.3853 0.918946 63.2266 2.20137 61.9189 2.75709C61.5545 2.92808 61.1258 3.05632 60.9543 3.05632C60.7828 3.05632 60.5684 3.12044 60.4827 3.20594C60.3969 3.29143 59.9253 3.46242 59.4323 3.61204C58.9392 3.74028 57.7173 4.16775 56.7098 4.53111C55.7022 4.91583 54.5446 5.32194 54.1373 5.45018C53.73 5.55705 53.3013 5.72804 53.1727 5.83491C53.0655 5.9204 51.9079 6.34788 50.6003 6.79672C49.314 7.2242 48.1564 7.67305 48.0493 7.77992C47.9206 7.88678 47.6634 7.97228 47.449 7.97228C47.2561 7.97228 46.763 8.10052 46.3772 8.27151C45.584 8.59212 42.4542 9.59668 39.989 10.3234C39.1101 10.5799 37.6952 11.0287 36.8378 11.3066C36.0017 11.5844 35.1657 11.8196 34.9728 11.8196C34.8013 11.8196 34.2225 11.9478 33.7294 12.1188C29.8708 13.3585 23.6969 14.7264 16.194 15.9874C14.522 16.2867 8.19806 16.7783 5.58276 16.8424C3.50338 16.8851 2.45298 16.821 1.46688 16.5431Z" fill="rgb(0,0,0)" fill-rule="nonzero" transform="matrix(1,0,0,-1,97.1602,76.7119)" />
	</g>
</svg>
