<svg viewBox="0 0 216 230" xmlns="http://www.w3.org/2000/svg" xmlns:xlink="http://www.w3.org/1999/xlink" width="216.000000" height="230.000000" fill="none">
	<rect id="1-10" width="216.000000" height="230.000000" x="0.000000" y="0.000000" />
	<path id="矢量 490" d="M94.6566 1.08252L86.9153 4.44805L81.276 16.0934L82.8153 31.9233L80.2398 38.431L73.1647 67.0976L72.3062 80.0237L56.661 83.136L36.22 89.748L18.3397 97.6257L7.96384 101.587L3.96742 106.293L4.64829 113.039L6.43928 115.258L2.76849 120.663L1.16992 136.166L2.07282 154.795L6.12844 177.773L17.9549 183.551L21.004 182.494L22.4842 188.778L97.2912 222.984L101.199 221.063L116.607 228.345L119.005 227.005L121.951 229.85L124.585 228.345L126.021 224.191L141.193 215.36L160.272 202.032L178.389 186.291L180.624 189.791L183.111 189.046L186.693 178.652L196.921 167.647L200.739 127.975L199.511 118.891L195.796 116.732L197.631 115.466L201.302 116.732L203.774 112.309L215.2 39.3692L212.166 36.8227L201.228 35.4527L193.96 32.6828L189.564 33.3678L181.912 31.5213L179.114 16.8678L170.085 9.86865L152.93 5.93723L94.6566 1.08252Z" fill="rgb(255,255,255)" fill-rule="nonzero" />
	<path id="矢量 491" d="M93.8573 1.3208L87.3151 3.43543L82.4898 12.1024L82.2529 24.7455L86.9302 64.9235L91.0006 68.6017L108.185 70.4781L134.473 75.5115C134.473 75.5115 152.634 82.8829 159.058 83.5232C161.856 83.8062 170.233 82.2128 170.233 82.2128L173.06 79.5769L176.346 63.4343L182.933 45.5493L180.609 22.4075L177.131 14.7532L170.085 9.86866L154.677 5.89257L93.8573 1.3208Z" fill="rgb(1,89,188)" fill-rule="nonzero" />
	<g id="组合 98">
		<path id="矢量 492" d="M92.0472 229.259C91.84 229.14 91.4699 229.05 91.2035 229.035C90.7446 229.035 90.1378 228.827 89.1905 228.35C88.9537 228.231 88.702 228.142 88.6428 228.142C88.3616 228.142 86.7482 227.07 86.1265 226.474C84.6168 225.015 83.5659 223.511 82.441 221.173C81.2124 218.656 81.0348 218.03 80.798 215.707C80.576 213.548 80.5612 207.264 80.7832 206.4C80.872 206.028 80.946 205.03 80.946 204.166C80.946 203.302 81.0496 202.007 81.168 201.262C81.4641 199.401 81.4493 199.148 80.946 198.135C80.1023 196.408 79.4362 194.591 77.5416 188.828C77.29 188.053 76.994 187.041 76.8756 186.594C76.772 186.147 76.5796 185.403 76.4463 184.956C76.1503 184.003 75.5286 181.68 75.2474 180.488C75.1438 180.042 74.9958 179.505 74.907 179.297C74.833 179.088 74.7145 178.597 74.6553 178.18C74.5961 177.778 74.4925 177.331 74.4185 177.197C74.3593 177.063 74.2705 176.721 74.2409 176.438C74.2113 176.155 74.1373 175.842 74.0781 175.753C73.9745 175.574 73.6192 173.966 73.3972 172.67C73.3232 172.268 73.2344 171.732 73.1752 171.479C72.5979 168.53 72.3611 167.086 72.3611 166.46C72.3611 166.133 72.2871 165.731 72.1983 165.567C72.1095 165.388 72.0355 164.822 72.0355 164.301C72.0355 163.78 71.9763 163.139 71.8875 162.871C71.8134 162.618 71.6802 161.591 71.621 160.608C71.5618 159.625 71.4286 158.344 71.3398 157.749C71.177 156.736 71.1622 151.181 71.325 150.705C71.3842 150.526 71.2066 150.467 70.4369 150.392C69.9041 150.347 69.3268 150.228 69.1492 150.139C68.9715 150.035 68.4831 149.96 68.0686 149.96C67.6542 149.96 67.1806 149.886 67.0177 149.796C66.8549 149.707 66.4109 149.633 66.026 149.603C65.6412 149.588 65.0195 149.484 64.6347 149.394C63.1545 149.022 62.5773 148.918 62.0296 148.918C61.7188 148.918 61.408 148.858 61.3191 148.769C61.1859 148.635 60.5051 148.501 58.5216 148.203C58.122 148.128 57.6336 148.009 57.4559 147.905C57.2783 147.801 50.1588 145.939 49.6407 145.939C49.1671 145.939 43.7349 144.346 42.8616 143.914C42.6248 143.795 39.7089 142.842 39.1316 142.663C36.9854 141.978 36.1269 141.665 35.3276 141.234C35.1204 141.114 34.8096 141.025 34.6467 141.025C34.4691 141.025 34.2915 140.966 34.2471 140.876C34.2027 140.802 34.0547 140.727 33.9215 140.727C33.7882 140.727 33.4182 140.593 33.0778 140.444C31.9529 139.923 31.3904 139.685 31.2424 139.685C31.1684 139.685 31.0204 139.581 30.9167 139.462C30.8131 139.342 30.5763 139.238 30.3691 139.238C30.1767 139.238 29.629 139.045 29.1406 138.791C28.6521 138.553 28.1933 138.345 28.1045 138.345C28.0156 138.345 27.32 138.047 26.5651 137.674C25.7954 137.302 25.1145 137.004 25.0405 137.004C24.9517 137.004 24.5965 136.841 24.2412 136.632C23.886 136.424 23.4864 136.23 23.368 136.17C23.2495 136.126 22.8795 135.977 22.5539 135.858C22.2282 135.724 21.3697 135.337 20.6297 134.979C18.6611 134.041 17.625 133.579 17.5065 133.579C17.4473 133.579 17.0921 133.445 16.7221 133.267C16.352 133.103 15.8488 132.864 15.5971 132.76C15.3603 132.656 14.7831 132.403 14.339 132.194C13.895 132.001 13.2585 131.748 12.9329 131.658C12.6072 131.554 12.2076 131.42 12.0448 131.346C11.8819 131.271 11.1271 131.003 10.3722 130.75C6.92343 129.588 4.80681 127.876 3.45986 125.165C3.06022 124.346 2.67538 123.349 2.61617 122.932C2.57177 122.53 2.46816 121.874 2.40895 121.487C2.15733 119.715 3.32665 116.379 4.45157 115.679C4.7476 115.501 5.01403 115.233 5.01403 115.113C5.01403 114.994 4.7624 114.622 4.45157 114.294C3.68189 113.475 2.95661 112.403 2.39415 111.197C2.12772 110.646 1.9057 110.155 1.9057 110.11C1.9057 110.065 1.74288 109.663 1.53566 109.216C1.32844 108.77 1.16562 108.248 1.16562 108.07C1.16562 107.876 1.09161 107.653 0.988004 107.548C0.736377 107.295 0.455148 105.121 0.144315 101.115C-0.048105 98.7624 -0.048105 87.0128 0.144315 85.33C0.218323 84.6301 0.351537 82.9324 0.425545 81.5326C0.514354 80.1477 0.647568 78.3011 0.721576 77.4374C0.795584 76.5737 0.913996 75.0994 0.988004 74.1612C1.04721 73.223 1.18042 72.2997 1.28403 72.121C1.38765 71.9423 1.46165 71.2424 1.46165 70.5127C1.46165 69.7681 1.53566 69.098 1.63927 68.9044C1.74288 68.7257 1.8761 68.0109 1.9205 67.311C2.06852 65.4793 2.30534 63.6178 2.43856 63.4242C2.49776 63.32 2.60137 62.769 2.66058 62.1882C2.73459 61.6075 2.853 60.6693 2.94181 60.0885C3.03062 59.5226 3.14903 58.7185 3.19344 58.3015C3.23784 57.8994 3.35625 57.4229 3.47467 57.2591C3.59308 57.0953 3.68189 56.6783 3.68189 56.3209C3.68189 55.9635 3.7855 55.4721 3.91871 55.2189C4.05193 54.9657 4.11113 54.6232 4.06673 54.4594C4.02232 54.2807 4.06673 54.0573 4.15554 53.9531C4.24435 53.8489 4.36276 53.4468 4.43677 53.0894C4.51077 52.7171 4.7328 52.181 4.95482 51.898C5.31006 51.4215 7.07144 50.1408 7.6487 49.9323C7.78192 49.8876 8.00394 49.7685 8.12235 49.6643C8.24077 49.56 9.17326 49.0686 10.1946 48.5474C11.2159 48.0411 12.1484 47.5645 12.2668 47.4901C12.3852 47.4156 12.5924 47.3114 12.7108 47.2667C12.8292 47.2071 13.5397 46.8795 14.265 46.5221C15.76 45.8222 17.2549 45.2414 17.5953 45.2265C17.7138 45.2265 18.291 45.3308 18.8535 45.4648C19.4307 45.5839 19.934 45.6584 20.008 45.6137C20.0672 45.5839 20.1116 45.0329 20.1116 44.4075C20.1264 43.6927 20.2004 43.1268 20.3336 42.8885C20.452 42.68 20.5409 42.3971 20.5557 42.2482C20.5557 41.6227 22.5391 39.6421 23.1607 39.6123C23.3088 39.6123 25.0257 38.8231 25.7362 38.4359C25.8546 38.3614 26.2543 38.1678 26.6243 38.004C26.9943 37.8402 27.6604 37.5424 28.1045 37.3339C28.5485 37.1403 29.037 36.9318 29.185 36.8872C29.3182 36.8276 29.4366 36.7233 29.4366 36.634C29.4366 36.5595 29.6142 36.4851 29.8214 36.4851C30.0435 36.4851 30.2951 36.3957 30.3839 36.2915C30.4727 36.1872 30.8427 35.9788 31.2128 35.8298C31.5828 35.6809 32.8113 35.1001 33.9511 34.5491C35.0908 33.9833 36.3637 33.3876 36.7634 33.2089C37.1778 33.0451 38.1103 32.6132 38.8356 32.2558C42.3731 30.5433 43.054 30.2305 43.2612 30.2305C43.3797 30.2305 43.5129 30.171 43.5573 30.1114C43.6461 29.9625 45.9107 28.8456 48.3826 27.7436C48.6638 27.6096 49.5963 27.1777 50.4548 26.7608C51.3133 26.3587 52.4382 25.8226 52.9711 25.5694C53.8888 25.1525 54.7177 24.7653 57.8556 23.2612C58.6253 22.9038 59.4689 22.5166 59.7058 22.3975C59.9574 22.2932 60.8159 21.8912 61.63 21.504C63.8946 20.4467 64.9899 19.9403 67.1066 18.9873C68.0687 18.5703 69.2232 18.0193 70.7033 17.2896C71.2066 17.0365 71.695 16.828 71.769 16.828C71.8578 16.828 72.3611 16.6195 72.9088 16.3663C73.4712 16.1132 74.3149 15.7111 74.8034 15.4877C75.2918 15.2643 76.1355 14.8623 76.698 14.6091C77.2456 14.3559 77.7637 14.1475 77.8525 14.1475C77.9413 14.1475 78.4001 13.9539 78.859 13.7156C79.6287 13.3135 81.168 12.5838 82.2041 12.1371C82.4558 12.0328 83.033 11.7648 83.5067 11.5414C83.9951 11.318 84.6464 11.05 84.972 10.9308C85.5049 10.7521 86.4374 10.3054 87.0146 9.96287C87.1331 9.88841 87.3403 9.78417 87.4587 9.7395C87.5771 9.69482 87.8879 9.57569 88.1248 9.47145C88.3764 9.35231 88.8648 9.14383 89.2349 9.0098C89.6049 8.86088 90.2414 8.57794 90.6706 8.38435C91.0851 8.20565 91.4847 8.04184 91.5291 8.04184C91.5883 8.04184 92.1064 7.80357 92.6836 7.52063C93.2609 7.23768 93.8382 6.99942 93.9714 6.99942C94.0898 6.99942 94.3414 6.89517 94.5338 6.77604C95.0963 6.35907 96.8133 6.00167 97.6126 6.10591C98.471 6.22504 99.7736 6.98452 100.01 7.52063C100.232 8.01205 100.543 7.99716 101.224 7.44617C101.772 7.01431 102.512 6.61223 104.658 5.5847C105.295 5.28686 105.842 4.98903 105.887 4.89968C105.946 4.82522 106.109 4.76565 106.257 4.76565C106.405 4.76565 106.716 4.6763 106.952 4.55717C107.174 4.45293 107.604 4.24444 107.885 4.12531C108.166 3.99128 109.01 3.6041 109.735 3.26159C110.475 2.91908 111.408 2.50211 111.807 2.30852C112.222 2.12981 112.917 1.81709 113.361 1.6086C115.167 0.774665 116.529 0.506614 116.825 0.938475C116.914 1.05761 117.21 1.20653 117.461 1.2512C117.713 1.31077 118.009 1.45969 118.113 1.57882C118.409 1.93622 118.882 1.81709 119.326 1.26609C119.548 0.98315 119.8 0.744882 119.874 0.744882C119.963 0.744882 120.363 0.581073 120.792 0.372588C121.576 -0.0145972 122.45 -0.118839 122.612 0.149212C122.657 0.223671 122.849 0.298129 123.027 0.298129C123.441 0.298129 124.64 1.63839 124.803 2.29362C124.877 2.54678 125.025 2.85951 125.143 2.99354C125.395 3.27648 125.795 4.54228 125.795 5.10816C125.795 5.406 125.898 5.55492 126.165 5.65916C126.535 5.79318 129.081 7.04409 129.495 7.29725C129.614 7.37171 129.821 7.46106 129.939 7.50574C130.058 7.5653 130.694 7.89292 131.345 8.23543C131.997 8.59283 133.003 9.12894 133.566 9.44166C134.143 9.75439 134.972 10.2309 135.431 10.5139C135.889 10.7968 136.319 11.0202 136.363 11.0202C136.422 11.0202 136.689 11.184 136.94 11.3776C137.207 11.5861 137.577 11.8243 137.784 11.8988C138.317 12.1371 139.427 12.7774 139.693 13.0157C139.827 13.1199 140.034 13.2539 140.152 13.3135C140.271 13.3582 140.552 13.522 140.774 13.6709C140.981 13.8049 142.091 14.49 143.216 15.175C144.341 15.8749 145.644 16.7237 146.132 17.0811C146.606 17.4385 147.05 17.7215 147.109 17.7215C147.183 17.7215 147.464 17.9151 147.731 18.1682C147.997 18.4065 148.323 18.615 148.471 18.615C148.604 18.615 148.782 18.7192 148.841 18.8384C148.915 18.9575 149.24 19.2106 149.566 19.3893C149.906 19.5829 150.513 19.9999 150.928 20.3275C151.342 20.6551 152.23 21.2955 152.882 21.7422C154.51 22.8442 161.94 28.5031 162.665 29.1881C162.799 29.3073 163.42 29.8434 164.072 30.3795C164.708 30.9156 165.374 31.4963 165.566 31.675C165.759 31.8537 166.218 32.2409 166.603 32.5388C167.417 33.1642 167.846 33.5365 172.331 37.5424C174.137 39.1358 176.016 40.9079 176.52 41.4589C177.541 42.6056 177.896 42.68 177.896 41.7716C177.896 40.6994 178.651 39.8804 180.057 39.4336C180.797 39.1954 180.857 39.1954 181.671 39.5081C182.366 39.7613 182.647 39.9697 183.166 40.6399C183.521 41.1015 183.92 41.8163 184.054 42.2184C184.187 42.6354 184.394 43.097 184.498 43.2608C184.616 43.4246 184.705 43.648 184.705 43.782C184.705 43.9012 184.838 44.2586 185.001 44.5713C185.164 44.8691 185.297 45.2712 185.297 45.4648C185.297 45.6584 185.401 45.9413 185.519 46.1051C185.637 46.2541 185.741 46.6264 185.741 46.9242C185.741 47.222 185.845 47.5496 185.963 47.6539C186.081 47.7581 186.185 48.0411 186.185 48.2793C186.185 48.5176 186.289 48.9495 186.407 49.2473C186.525 49.5302 186.629 50.0217 186.629 50.3344C186.629 50.8407 186.762 51.0045 188.879 53.0298C191.602 55.6359 194.548 58.6589 195.821 60.1481C196.768 61.2649 197.375 62.4414 197.567 63.5136C197.627 63.8412 197.745 64.2284 197.834 64.3922C197.908 64.5411 197.952 64.9581 197.908 65.3155C197.878 65.658 197.923 66.1792 198.026 66.4473C198.204 66.9387 198.382 68.4428 198.604 71.5551C198.663 72.4635 198.796 73.3868 198.885 73.6102C198.988 73.8485 199.062 74.6526 199.062 75.3972C199.062 76.1567 199.166 77.1693 199.284 77.6608C199.403 78.1522 199.506 79.0904 199.506 79.7456C199.506 80.4008 199.58 81.205 199.654 81.5326C199.743 81.8602 199.802 82.6793 199.802 83.3494C199.817 84.0195 199.877 85.1215 199.965 85.8065C200.261 88.2041 200.765 99.2389 200.75 103.2C200.75 107.876 200.513 109.038 199.299 110.631C198.589 111.554 198.056 112.001 196.946 112.582C196.221 112.969 196.073 113.341 196.62 113.461C196.901 113.505 198.16 112.939 198.352 112.656C198.411 112.582 199.018 112.478 199.684 112.463L200.913 112.403L201.919 113.326C202.467 113.848 203.014 114.428 203.118 114.652C203.355 115.114 204.125 118.107 204.184 118.792C204.199 119.06 204.258 119.328 204.302 119.402C204.347 119.477 204.421 119.953 204.465 120.475C204.509 120.981 204.613 121.532 204.687 121.681C204.776 121.83 204.835 122.262 204.835 122.664C204.85 123.051 204.939 123.542 205.057 123.751C205.175 123.959 205.264 124.54 205.279 125.091C205.279 125.672 213.997 181.829 214.13 182.945C214.19 183.526 214.323 184.137 214.426 184.315C214.53 184.494 214.604 185.134 214.604 185.73C214.619 186.445 214.693 186.922 214.826 187.1C215.167 187.547 215.137 190.6 214.796 191.255C214.056 192.61 213.079 193.385 211.792 193.623C211.422 193.697 210.8 193.816 210.386 193.891C209.986 193.965 209.246 194.084 208.757 194.129C208.269 194.189 207.692 194.323 207.47 194.427C207.248 194.546 206.744 194.635 206.345 194.635C205.945 194.635 205.501 194.725 205.338 194.859C205.131 195.023 204.598 195.067 203.162 195.082L201.268 195.082L200.158 195.752C199.566 196.125 198.988 196.422 198.9 196.422C198.811 196.422 198.308 196.631 197.775 196.869C197.257 197.122 196.739 197.316 196.65 197.316C196.546 197.316 196.339 197.405 196.176 197.524C195.362 198.09 191.366 198.09 190.907 197.524C190.655 197.227 189.353 197.271 188.479 197.599C187.28 198.061 183.95 198.805 183.121 198.805C182.292 198.805 182.041 199.029 182.041 199.758C182.041 200.562 181.641 203.288 181.449 203.809C181.36 204.017 181.301 204.449 181.301 204.777C181.301 205.104 181.212 205.745 181.093 206.221C180.975 206.683 180.723 207.681 180.56 208.41C180.25 209.736 179.702 211.314 179.288 212.089C179.169 212.297 179.08 212.55 179.08 212.654C179.08 212.759 178.651 213.488 178.118 214.293C177.23 215.633 175.558 217.42 175.173 217.42C175.099 217.42 174.891 217.554 174.729 217.703C174.092 218.284 170.244 220.249 168.275 220.994C167.579 221.262 166.825 221.56 166.573 221.664C165.907 221.962 163.376 222.751 162.873 222.826C162.281 222.915 160.43 223.377 160.06 223.525C159.217 223.853 155.205 224.568 152.438 224.866C151.105 225.015 149.181 225.164 144.741 225.461C143.645 225.536 142.343 225.655 141.854 225.744C141.366 225.834 140.374 225.908 139.634 225.908C138.909 225.908 137.606 226.012 136.748 226.131C135.889 226.251 134.454 226.355 133.566 226.355C132.663 226.355 131.701 226.429 131.419 226.519C131.138 226.608 130.235 226.727 129.421 226.802C128.607 226.861 126.683 227.025 125.129 227.159C123.589 227.278 121.354 227.457 120.17 227.546C118.986 227.636 117.328 227.784 116.47 227.859C115.611 227.948 114.146 228.067 113.199 228.142C112.251 228.201 111.408 228.291 111.319 228.335C111.245 228.395 110.253 228.499 109.128 228.589C106.775 228.752 102.852 229.11 100.78 229.333C98.5451 229.571 92.506 229.512 92.0472 229.259ZM99.3739 227.859C100.025 227.77 101.92 227.591 103.592 227.472C107.589 227.174 111.348 226.846 113.731 226.578C114.797 226.459 116.189 226.355 116.84 226.355C117.491 226.34 118.498 226.28 119.06 226.206C120.141 226.042 123.648 225.729 130.457 225.164C131.597 225.074 133.077 224.895 133.743 224.776C134.409 224.657 135.342 224.568 135.815 224.568C136.629 224.568 140.123 224.3 143.631 223.957C144.533 223.883 146.398 223.704 147.775 223.6C154.125 223.064 156.937 222.691 159.039 222.096C159.453 221.977 159.942 221.887 160.12 221.887C160.297 221.887 160.578 221.813 160.741 221.738C160.889 221.649 161.304 221.515 161.644 221.441C163.213 221.113 166.099 220.234 166.825 219.862C167.032 219.743 167.313 219.654 167.431 219.654C167.55 219.654 168.083 219.445 168.586 219.192C170.614 218.224 173.397 216.765 173.826 216.482C174.936 215.722 176.52 214.01 176.86 213.205C176.949 213.027 177.26 212.446 177.556 211.91C178.103 210.927 178.903 208.783 179.021 207.964C179.066 207.725 179.184 207.189 179.302 206.772C179.51 206.057 179.672 204.97 180.176 201.188C180.442 199.237 180.664 196.035 180.857 191.806C180.931 190.213 181.064 187.577 181.153 185.939L181.315 182.99L180.886 182.067C180.634 181.575 180.324 180.861 180.19 180.488C180.057 180.116 179.85 179.625 179.732 179.401C179.613 179.163 179.524 178.895 179.524 178.776C179.524 178.612 179.184 177.763 178.399 175.917C178.281 175.663 178.192 175.38 178.192 175.306C178.192 175.217 178.103 174.963 177.985 174.725C177.867 174.502 177.63 173.876 177.467 173.34C177.008 171.896 176.682 170.958 176.401 170.287C176.268 169.96 175.972 168.992 175.765 168.143C175.543 167.279 175.306 166.475 175.232 166.326C175.099 166.073 174.862 165.254 174.64 164.182C174.566 163.854 174.344 163.08 174.151 162.469C173.722 161.129 173.545 160.474 173.145 158.597C172.982 157.823 172.775 156.989 172.686 156.736C172.597 156.498 172.494 155.962 172.449 155.545C172.42 155.143 172.301 154.666 172.183 154.502C172.064 154.338 171.976 153.936 171.976 153.609C171.961 153.281 171.872 152.849 171.754 152.641C171.635 152.432 171.546 152.045 171.532 151.762C171.532 151.479 171.472 151.047 171.398 150.794C171.31 150.541 171.176 149.737 171.087 148.992C170.806 146.818 170.525 145.15 170.362 144.703C170.273 144.465 170.199 143.795 170.199 143.214C170.185 142.574 170.111 141.993 169.977 141.77C169.844 141.531 169.77 140.966 169.755 140.236C169.755 139.596 169.681 138.925 169.578 138.747C169.489 138.568 169.4 137.957 169.385 137.377C169.37 136.811 169.267 135.56 169.163 134.622C169.06 133.684 168.971 132.358 168.941 131.688C168.926 131.003 168.867 130.407 168.808 130.348C168.749 130.273 168.083 130.244 167.343 130.273C166.351 130.318 165.833 130.258 165.433 130.095C165.122 129.961 164.486 129.856 164.012 129.856C163.539 129.856 162.813 129.767 162.414 129.648C162.014 129.529 161.037 129.38 160.238 129.335C159.453 129.276 158.758 129.171 158.713 129.097C158.669 129.022 158.373 128.963 158.062 128.963C157.736 128.963 157.263 128.873 156.996 128.754C156.449 128.516 155.205 128.233 154.214 128.114C153.844 128.069 153.459 127.965 153.355 127.876C153.237 127.786 152.837 127.667 152.467 127.608C152.082 127.548 151.579 127.444 151.327 127.355C151.091 127.265 150.558 127.131 150.143 127.042C148.56 126.684 140.907 124.138 138.613 123.2C137.71 122.827 136.703 122.425 136.393 122.306C136.067 122.187 135.46 121.934 135.046 121.725C134.616 121.532 134.232 121.368 134.187 121.368C133.95 121.368 128.281 118.583 125.291 116.99C124.729 116.692 124.226 116.454 124.167 116.454C124.093 116.454 123.708 116.215 123.278 115.933C122.45 115.382 121.902 115.277 121.413 115.62C121.251 115.739 120.703 115.918 120.2 116.007C119.696 116.111 119.238 116.26 119.193 116.32C119.149 116.394 118.956 116.454 118.764 116.454C118.572 116.454 118.231 116.543 117.994 116.662C117.358 116.975 113.139 118.241 112.71 118.241C112.592 118.241 112.266 118.33 112 118.449C111.733 118.568 111.112 118.777 110.623 118.911C110.135 119.06 109.557 119.268 109.335 119.373C109.128 119.492 108.817 119.581 108.655 119.581C108.492 119.581 108.166 119.67 107.929 119.79C107.707 119.909 107.219 120.087 106.849 120.177C105.502 120.519 104.096 120.981 103.814 121.174C103.652 121.279 103.415 121.368 103.267 121.368C103.134 121.368 102.763 121.472 102.453 121.606C102.142 121.74 101.698 121.949 101.446 122.053C100.025 122.679 99.1667 123.066 98.6635 123.319C98.3526 123.468 97.9826 123.602 97.8346 123.602C97.6866 123.602 97.4793 123.706 97.3757 123.825C97.2721 123.944 97.0353 124.049 96.8577 124.049C96.6801 124.049 96.4432 124.153 96.3396 124.272C96.236 124.391 96.088 124.495 95.9992 124.495C95.9104 124.495 94.6966 125.061 93.3201 125.746C90.9667 126.908 90.1378 127.28 88.7908 127.771C88.5096 127.861 88.0063 128.054 87.6807 128.174C87.3551 128.293 86.6298 128.442 86.0821 128.501C85.3569 128.576 84.9868 128.695 84.7648 128.933L84.454 129.246L85.0608 130.035C85.3865 130.467 85.8009 131.167 85.9785 131.569C86.2894 132.284 86.393 132.596 86.7038 133.818C86.7778 134.13 86.7926 135.232 86.7186 136.453C86.5854 138.836 86.1858 140.295 85.2089 142.068C84.4688 143.378 84.3504 143.75 84.3504 144.644C84.3504 145.537 84.5872 147.354 84.8832 148.799C85.0016 149.35 85.0608 149.886 85.0164 149.99C84.972 150.109 85.0312 150.481 85.1645 150.839C85.2829 151.196 85.3865 151.837 85.3865 152.283C85.3865 152.715 85.4605 153.117 85.5345 153.162C85.6233 153.207 85.6825 153.445 85.6825 153.668C85.6825 153.906 85.7713 154.428 85.8897 154.815C86.0081 155.217 86.2154 156.081 86.3634 156.736C86.6742 158.21 87.1035 159.923 87.3995 160.935C87.5327 161.367 87.6067 161.799 87.5623 161.903C87.5327 162.008 87.5623 162.216 87.6363 162.365C87.7547 162.603 87.8287 162.588 88.3912 162.127C90.0342 160.831 91.9584 160.295 96.7097 159.804C97.3609 159.744 98.0418 159.61 98.2194 159.521C98.397 159.416 98.9299 159.342 99.4184 159.342C99.892 159.342 100.484 159.282 100.721 159.193C100.958 159.119 101.787 158.985 102.556 158.91C103.326 158.821 104.362 158.687 104.851 158.612C105.339 158.523 106.242 158.389 106.849 158.3C110.209 157.808 112.355 157.451 113.317 157.242C113.657 157.168 114.161 157.108 114.442 157.108C114.723 157.108 115.241 157.004 115.582 156.885C115.922 156.766 116.544 156.661 116.943 156.661C117.343 156.661 117.817 156.587 117.994 156.483C118.172 156.379 118.66 156.259 119.06 156.2C120.422 156.006 122.45 155.604 122.701 155.455C122.849 155.381 123.19 155.321 123.456 155.321C123.722 155.306 124.107 155.217 124.315 155.098C124.522 154.979 124.951 154.889 125.277 154.874C125.587 154.874 126.12 154.785 126.461 154.666C127.808 154.204 128.267 154.07 128.829 153.966C129.836 153.787 131.449 153.4 132.529 153.073C133.107 152.909 133.832 152.715 134.158 152.641C134.483 152.581 134.957 152.447 135.194 152.373C135.445 152.283 136.067 152.09 136.6 151.956C137.133 151.822 137.858 151.613 138.228 151.509C138.598 151.405 139.294 151.211 139.782 151.077C140.271 150.943 140.833 150.749 141.04 150.675C141.248 150.586 141.647 150.467 141.928 150.392C142.21 150.332 142.742 150.169 143.113 150.035C143.734 149.796 144.548 149.558 146.147 149.141C146.561 149.037 147.094 148.873 147.331 148.799C148.308 148.456 149.448 148.173 149.788 148.173C149.98 148.173 150.336 148.069 150.573 147.95C150.795 147.831 151.135 147.726 151.313 147.726C151.475 147.712 151.786 147.622 151.993 147.503C152.201 147.384 152.63 147.295 152.941 147.28C153.266 147.28 153.903 147.19 154.347 147.071C154.806 146.952 155.842 146.714 156.656 146.535C157.47 146.356 158.299 146.148 158.506 146.088C159.054 145.91 161.008 145.642 161.614 145.671C164.96 145.79 167.15 146.237 168.497 147.041C169.741 147.786 169.711 147.771 169.829 148.143C169.977 148.65 169.578 148.694 168.69 148.277C167.742 147.831 166.455 147.443 165.167 147.22C164.131 147.041 161.348 147.161 159.838 147.443C159.394 147.518 158.654 147.652 158.21 147.712C157.766 147.786 157.204 147.92 156.982 148.009C156.745 148.099 156.301 148.173 155.99 148.173C155.679 148.173 155.235 148.248 155.013 148.322C154.806 148.411 153.651 148.709 152.452 148.977C151.268 149.26 149.832 149.633 149.255 149.811C148.693 149.99 147.953 150.213 147.627 150.288C147.301 150.377 146.576 150.63 146.014 150.869C145.451 151.107 144.874 151.3 144.726 151.3C144.578 151.3 144.193 151.39 143.897 151.509C143.586 151.613 142.935 151.822 142.446 151.956C141.958 152.105 141.366 152.313 141.114 152.417C140.878 152.536 140.478 152.656 140.226 152.685C139.989 152.73 139.486 152.864 139.116 152.998C138.124 153.326 136.689 153.743 135.268 154.115C134.572 154.294 133.684 154.547 133.27 154.651C130.502 155.425 129.184 155.768 128.933 155.768C128.77 155.768 127.823 155.991 126.846 156.274C125.854 156.557 124.877 156.825 124.655 156.87C123.604 157.064 122.716 157.242 122.168 157.376C121.058 157.659 119.356 158.002 117.624 158.3C116.662 158.463 115.715 158.672 115.508 158.746C115.286 158.836 114.782 158.895 114.383 158.895C113.983 158.895 113.406 158.999 113.11 159.119C112.829 159.238 112.162 159.342 111.63 159.342C111.112 159.342 110.446 159.446 110.149 159.565C109.868 159.685 109.306 159.789 108.906 159.789C108.521 159.789 107.87 159.848 107.485 159.923C107.1 159.997 105.739 160.176 104.48 160.31C100.395 160.742 97.0501 161.189 96.8281 161.323C96.7689 161.367 95.9844 161.471 95.0815 161.561C94.1934 161.65 93.0833 161.829 92.6392 161.963C92.1952 162.082 91.4255 162.291 90.9371 162.425C89.4125 162.842 88.11 163.869 87.3995 165.254C87.2663 165.522 87.1627 165.85 87.1627 165.999C87.1627 166.148 87.0591 166.46 86.9406 166.699C86.7926 166.981 86.7186 167.562 86.7186 168.411C86.7186 169.111 86.615 170.094 86.4966 170.585C86.3782 171.077 86.2894 171.926 86.2746 172.462C86.2746 173.013 86.171 173.742 86.0525 174.085C85.9193 174.457 85.8305 175.231 85.8305 175.976C85.8305 176.661 85.7565 177.376 85.6677 177.555C85.5641 177.718 85.4309 178.508 85.3717 179.297C85.2977 180.071 85.1792 181.188 85.1052 181.754C85.0164 182.335 84.898 183.437 84.8092 184.211C84.7204 184.986 84.5428 186.192 84.4096 186.892C84.2912 187.592 84.1135 188.694 84.0395 189.349C83.9803 190.004 83.8175 191.285 83.6991 192.178C83.3587 194.769 83.1958 196.169 82.9442 198.88C82.811 200.279 82.6482 201.873 82.5594 202.439C82.2781 204.39 82.1153 211.359 82.2781 213.98C82.4558 216.809 82.5742 217.479 83.1958 219.132C83.6251 220.279 84.8832 222.647 85.5937 223.63C86.7926 225.298 88.406 226.519 90.1378 227.07C92.506 227.814 92.9353 227.889 95.0075 227.993C97.3609 228.112 97.6422 228.112 99.3739 227.859ZM183.402 197.107C183.891 196.899 184.764 196.72 186.999 196.378C188.464 196.154 188.553 195.946 187.532 195.097C187.118 194.755 186.54 194.084 186.229 193.623C185.386 192.342 185.134 191.806 183.225 187.041C183.077 186.668 182.855 186.371 182.751 186.371C182.603 186.371 182.573 186.907 182.603 189.051C182.647 191.449 182.47 194.099 182.1 196.69C182.011 197.316 182.011 197.316 182.47 197.316C182.707 197.316 183.136 197.227 183.402 197.107ZM81.8933 195.946C81.9377 195.752 81.9821 195.231 81.9821 194.784C81.9821 194.338 82.0413 193.459 82.1301 192.848C82.2041 192.238 82.3818 190.689 82.515 189.423C82.6334 188.158 82.8406 186.787 82.959 186.385C83.0774 185.983 83.1662 185.269 83.1662 184.792C83.1662 184.33 83.2698 183.66 83.3883 183.318C83.5067 182.975 83.6103 182.29 83.6103 181.799C83.6103 181.307 83.6843 180.771 83.7879 180.593C83.9507 180.28 84.0395 179.654 84.3356 176.14C84.4096 175.276 84.5132 174.472 84.5872 174.368C84.6908 174.189 84.8388 172.581 85.0756 169.096C85.1348 168.113 85.2681 167.056 85.3717 166.758C85.4605 166.46 85.5197 166.162 85.5049 166.088C85.4605 165.924 86.393 163.988 86.5706 163.884C86.7926 163.75 86.7482 162.946 86.5114 162.499C86.2598 162.037 85.5789 159.982 85.4013 159.193C85.3421 158.91 85.2088 158.523 85.12 158.344C85.0164 158.166 84.9424 157.808 84.9424 157.555C84.9424 157.302 84.8684 156.944 84.7796 156.781C84.676 156.602 84.5576 156.081 84.4984 155.634C84.4244 155.172 84.2023 153.966 83.9951 152.939C83.7879 151.911 83.6103 150.63 83.6103 150.094C83.6103 149.543 83.5067 148.858 83.3883 148.575C83.2698 148.277 83.2106 147.86 83.2402 147.622C83.2847 147.399 83.255 147.101 83.1662 146.982C83.033 146.788 82.9738 146.818 82.7518 147.116C82.2337 147.846 81.4937 148.486 80.7536 148.828C79.2438 149.543 78.0745 149.96 77.6157 149.96C77.364 149.96 77.0236 150.064 76.8608 150.184C76.6536 150.347 76.1059 150.392 74.6257 150.407C73.56 150.407 72.6423 150.467 72.5979 150.541C72.5387 150.615 72.5683 150.839 72.6423 151.032C72.7015 151.211 72.8496 153.192 72.9384 155.396C73.042 157.615 73.19 159.819 73.2788 160.31C73.4268 161.144 73.5452 162.216 73.8117 165.224C73.8709 165.879 73.9745 166.505 74.0337 166.609C74.1077 166.713 74.2261 167.309 74.3001 167.949C74.3741 168.575 74.5665 169.9 74.7294 170.883C74.907 171.866 75.0846 173.057 75.1438 173.519C75.203 173.995 75.3362 174.457 75.4398 174.561C75.5434 174.666 75.6174 174.934 75.6174 175.187C75.6174 175.425 75.6767 175.827 75.7655 176.08C75.8395 176.333 76.0023 177.048 76.1207 177.659C76.2391 178.269 76.4463 179.178 76.5795 179.669C76.7128 180.161 76.8756 180.801 76.9348 181.084C76.994 181.367 77.1272 181.754 77.216 181.933C77.3196 182.111 77.3936 182.454 77.3936 182.677C77.3936 182.916 77.4676 183.184 77.5713 183.288C77.6601 183.377 77.7489 183.645 77.7637 183.869C77.8081 184.42 78.3113 186.251 79.007 188.366C79.3178 189.319 79.7323 190.6 79.9099 191.21C80.0875 191.821 80.3835 192.804 80.576 193.37C80.7536 193.95 81.0348 194.829 81.1828 195.335C81.4789 196.303 81.7305 196.527 81.8933 195.946ZM195.214 196.05C196.739 195.663 197.863 195.231 198.692 194.74C198.855 194.635 199.462 194.293 200.025 193.965C201.579 193.087 203.281 191.598 204.08 190.406C205.175 188.768 205.279 188.53 205.279 187.636C205.279 186.49 204.835 183.199 204.598 182.528C204.48 182.231 204.391 181.769 204.391 181.531C204.391 181.292 191.691 125.448 190.996 122.708C190.655 121.323 190.063 118.494 190.004 117.958C189.959 117.481 189.56 117.02 189.367 117.213C189.323 117.273 189.249 117.66 189.205 118.107C189.086 119.447 188.45 120.564 186.851 122.232C185.948 123.185 182.988 125.582 182.337 125.88C182.218 125.94 181.922 126.118 181.671 126.282C181.241 126.55 179.495 127.429 178.562 127.831C178.325 127.935 177.955 128.099 177.748 128.188C176.431 128.784 173.781 129.588 173.485 129.484C173.337 129.439 173.086 129.514 172.923 129.633C172.745 129.767 172.286 129.841 171.591 129.856C170.407 129.856 170.244 129.99 170.51 130.72C170.599 130.943 170.658 131.703 170.658 132.433C170.643 133.222 170.703 133.862 170.821 134.071C170.925 134.249 171.058 135.232 171.117 136.26C171.221 138.017 171.309 139.074 171.68 142.291C171.768 143.036 171.872 144.138 171.916 144.748C171.961 145.359 172.079 145.954 172.183 146.073C172.272 146.193 172.39 146.758 172.449 147.339C172.582 148.709 172.775 149.841 172.908 150.064C172.967 150.169 173.056 150.496 173.086 150.809C173.16 151.39 173.367 152.432 173.619 153.4C173.693 153.698 173.752 154.1 173.752 154.294C173.752 154.487 173.841 154.949 173.959 155.321C174.196 156.096 174.477 157.227 174.64 158.076C174.699 158.404 174.817 158.88 174.906 159.119C175.217 160.057 175.395 160.697 175.528 161.382C175.72 162.454 176.135 163.869 176.283 164.018C176.357 164.107 176.416 164.375 176.416 164.629C176.416 164.882 176.505 165.209 176.623 165.373C176.727 165.537 176.86 165.909 176.89 166.192C176.979 166.728 177.186 167.398 177.526 168.203C177.645 168.456 177.763 168.917 177.822 169.245C177.881 169.573 177.97 169.9 178.015 169.99C178.148 170.198 178.932 172.432 179.036 172.893C179.08 173.102 179.184 173.34 179.258 173.444C179.347 173.549 179.465 173.847 179.524 174.115C179.598 174.383 179.791 174.978 179.968 175.425C180.146 175.872 180.324 176.378 180.368 176.542C180.412 176.706 180.634 177.257 180.871 177.778C181.108 178.284 181.301 178.865 181.301 179.059C181.301 179.252 181.404 179.491 181.523 179.595C181.641 179.699 181.745 179.952 181.745 180.176C181.745 180.399 181.804 180.637 181.878 180.712C181.952 180.801 182.381 181.784 182.84 182.901C183.284 184.033 183.817 185.298 184.009 185.73C184.202 186.162 184.483 186.802 184.631 187.16C184.779 187.502 184.986 187.86 185.105 187.949C185.208 188.038 185.297 188.232 185.297 188.366C185.297 188.485 185.489 189.006 185.726 189.498C185.948 189.989 186.259 190.689 186.407 191.061C186.57 191.434 186.777 191.836 186.881 191.97C186.984 192.089 187.073 192.283 187.073 192.387C187.073 192.685 188.124 193.95 188.968 194.665C189.811 195.395 190.714 195.886 191.588 196.095C192.476 196.303 194.296 196.288 195.214 196.05ZM204.391 193.355C204.761 193.295 205.19 193.176 205.353 193.087C205.516 192.997 206.078 192.893 206.611 192.834C209.187 192.565 212.547 191.866 212.798 191.553C213.065 191.195 212.843 191.106 211.333 191.017C210.341 190.972 209.868 190.853 209.261 190.555C208.284 190.064 207.174 188.991 206.818 188.217C206.685 187.889 206.493 187.651 206.419 187.681C206.345 187.696 206.152 188.217 205.99 188.828C205.738 189.825 205.486 190.376 205.101 190.838C205.027 190.912 204.761 191.329 204.495 191.732C204.213 192.178 203.829 192.565 203.547 192.685C203.192 192.848 203.059 192.997 203.059 193.265C203.059 193.563 203.118 193.608 203.399 193.548C203.577 193.489 204.021 193.414 204.391 193.355ZM212.946 190.302C213.716 190.034 213.79 189.438 213.287 187.785C213.198 187.502 213.124 186.921 213.124 186.49C213.124 186.073 213.065 185.671 212.976 185.626C212.902 185.581 212.828 185.105 212.828 184.598C212.828 184.077 212.724 183.407 212.606 183.124C212.487 182.826 212.384 182.216 212.384 181.754C212.384 181.292 203.725 125.374 203.636 125.136C203.488 124.719 203.296 123.602 203.088 121.889C203.029 121.398 202.896 120.847 202.792 120.668C202.689 120.489 202.615 119.983 202.615 119.551C202.6 119.119 202.511 118.598 202.393 118.39C202.274 118.181 202.186 117.779 202.171 117.481C202.171 116.945 201.608 115.337 201.209 114.711C200.75 114.026 200.01 113.997 198.382 114.637C197.686 114.905 197.493 114.905 196.235 114.756C195.318 114.652 194.696 114.488 194.415 114.294C193.941 113.982 192.801 113.937 191.144 114.16C190.078 114.324 189.989 114.533 190.522 115.545C190.729 115.918 190.936 116.469 190.996 116.752C191.04 117.035 191.144 117.437 191.218 117.645C191.277 117.854 191.484 118.658 191.647 119.432C191.824 120.206 192.061 121.204 192.18 121.636C192.298 122.053 192.505 122.798 192.624 123.274C192.757 123.736 192.935 124.331 193.023 124.57C193.097 124.823 205.901 182.097 206.034 183.02C206.093 183.467 206.212 184.271 206.286 184.807C206.478 186.132 207.188 187.592 208.047 188.455C208.817 189.215 210.608 190.168 211.303 190.168C211.525 190.168 211.821 190.242 211.94 190.317C212.221 190.496 212.384 190.496 212.946 190.302ZM76.4315 148.65C76.6832 148.575 77.2456 148.426 77.6897 148.322C79.1994 147.98 80.9312 147.012 81.9821 145.925C82.441 145.433 82.7222 144.703 82.7222 143.974C82.7222 143.378 82.8554 142.946 83.3735 141.934C84.3356 140.027 84.9424 138.508 84.9424 137.987C84.9572 137.734 85.046 137.362 85.1645 137.153C85.4605 136.632 85.4309 136.453 85.0164 136.036C84.7796 135.783 84.4984 135.664 84.1579 135.664C83.8915 135.664 83.5955 135.59 83.5215 135.515C83.4327 135.426 83.0478 135.322 82.663 135.292C82.2781 135.247 81.8637 135.113 81.7453 134.994C81.6121 134.875 81.3456 134.771 81.1384 134.771C80.7684 134.771 79.4955 134.398 78.9922 134.16C78.8442 134.086 78.5185 134.026 78.2669 134.026C78.0301 134.026 77.6749 133.952 77.4972 133.847C77.2308 133.713 74.8774 133.028 73.0272 132.552C72.4795 132.403 69.7116 131.569 68.8235 131.271C68.4683 131.152 68.1279 131.092 68.0538 131.137C67.9798 131.182 67.7726 131.107 67.595 130.988C67.4174 130.854 67.1362 130.75 66.9733 130.75C66.8105 130.75 66.4109 130.66 66.0704 130.541C65.7448 130.422 64.7827 130.109 63.9242 129.856C63.0657 129.588 61.4376 129.082 60.283 128.725C59.1433 128.367 58.0628 128.069 57.8852 128.069C57.7224 128.069 57.5448 128.01 57.4855 127.935C57.3967 127.786 55.4281 127.131 53.1931 126.506C52.7046 126.372 52.2014 126.208 52.083 126.148C51.9646 126.089 50.7656 125.687 49.4187 125.255C48.0718 124.823 46.7544 124.376 46.488 124.257C46.2216 124.138 45.8959 124.049 45.7479 124.049C45.6147 124.049 45.3631 123.944 45.215 123.825C45.0522 123.706 44.7118 123.602 44.4454 123.602C44.1789 123.602 43.9273 123.542 43.8829 123.468C43.8385 123.393 43.0096 123.095 42.0623 122.783C41.1002 122.47 39.9457 122.068 39.5017 121.874C38.6136 121.487 37.8291 121.204 36.4673 120.757C35.9789 120.594 35.446 120.415 35.2832 120.34C35.1204 120.281 34.5579 120.072 34.0251 119.879C33.4922 119.7 32.3377 119.283 31.4348 118.956C30.5467 118.643 29.6734 118.33 29.5106 118.285C29.3478 118.226 29.0518 118.107 28.8445 117.988C28.6373 117.883 28.3117 117.794 28.1045 117.794C27.8972 117.794 27.6012 117.705 27.4384 117.6C27.2756 117.496 26.6095 117.243 25.9582 117.064C25.307 116.871 24.4781 116.618 24.108 116.484C23.0571 116.141 21.9618 115.992 19.8156 115.903C17.6102 115.828 17.1513 115.903 15.0791 116.752C14.635 116.945 14.1022 117.154 13.895 117.228C13.6877 117.317 13.3325 117.466 13.0809 117.571C12.844 117.675 12.2076 117.913 11.6747 118.092C11.1419 118.271 10.5794 118.479 10.4166 118.539C10.2538 118.598 9.72092 118.777 9.23247 118.911C8.74402 119.045 8.18156 119.224 8.00394 119.298C7.81152 119.373 7.26386 119.566 6.80502 119.73C6.33137 119.879 5.53208 120.236 4.99923 120.519C4.05193 121.04 4.05193 121.04 4.09633 121.636C4.14074 122.381 4.91042 124.734 5.23605 125.091C5.35446 125.225 5.45807 125.404 5.45807 125.478C5.45807 125.657 7.39708 127.623 7.5747 127.623C7.6487 127.623 7.95954 127.816 8.25557 128.04C8.5516 128.278 9.12886 128.591 9.5285 128.739C9.94295 128.888 10.3426 129.067 10.4166 129.127C10.5054 129.171 10.8014 129.276 11.0827 129.335C11.6007 129.454 12.326 129.722 13.0365 130.095C13.2437 130.214 13.5545 130.303 13.7173 130.303C13.969 130.303 14.6054 130.512 15.4491 130.899C15.6119 130.973 15.982 131.122 16.2632 131.241C18.6907 132.239 19.638 132.656 21.3697 133.535C21.7842 133.728 22.317 133.981 22.5539 134.086C22.8055 134.19 23.4272 134.488 23.96 134.726C25.3662 135.396 29.1998 137.004 29.3478 137.004C29.4218 137.004 29.5994 137.094 29.7178 137.213C29.851 137.317 30.3247 137.526 30.7687 137.674C31.2128 137.809 32.0565 138.136 32.6189 138.374C33.1962 138.628 33.8771 138.925 34.1435 139.03C34.3951 139.149 34.8392 139.342 35.1056 139.462C35.3572 139.581 36.2749 139.908 37.1334 140.191C37.9919 140.489 39.0576 140.861 39.5017 141.04C39.9457 141.204 40.5378 141.397 40.819 141.472C41.0854 141.546 41.3814 141.665 41.4703 141.755C41.5591 141.844 41.7515 141.919 41.8995 141.919C42.0327 141.919 42.3732 142.008 42.6396 142.127C42.906 142.246 43.5573 142.455 44.0901 142.589C44.623 142.723 45.2743 142.931 45.5407 143.05C45.8071 143.17 46.1772 143.259 46.3548 143.259C46.5472 143.259 46.8284 143.363 46.9912 143.482C47.1393 143.601 49.0783 144.152 49.3151 144.152C49.5371 144.152 49.8775 144.227 50.0552 144.331C50.2328 144.42 55.5317 145.612 55.6946 145.731C55.8574 145.85 56.9823 146.014 57.1599 146.118C57.3375 146.222 57.826 146.341 58.2256 146.401C58.6401 146.446 59.6614 146.654 60.5199 146.833C61.3783 147.027 62.4589 147.22 62.9177 147.265C63.3914 147.324 63.8502 147.443 63.9538 147.548C64.0574 147.652 64.5163 147.726 65.0343 147.726C65.5524 147.726 66.0112 147.801 66.1148 147.92C66.2185 148.009 66.7809 148.143 67.373 148.203C67.965 148.248 69.0012 148.382 69.6968 148.471C72.3611 148.843 73.0716 148.888 74.5073 148.843C75.3214 148.814 76.1947 148.724 76.4315 148.65ZM85.3865 134.696C85.3865 134.577 85.3273 134.354 85.2533 134.205C85.1645 134.071 84.898 133.46 84.6316 132.864C84.0543 131.554 83.1366 130.66 81.8785 130.154C81.4049 129.961 80.8868 129.722 80.724 129.603C80.5612 129.499 80.2207 129.41 79.9691 129.41C79.7175 129.41 79.4214 129.305 79.3178 129.186C79.2142 129.052 78.8886 128.963 78.5482 128.963C78.2373 128.963 77.7341 128.859 77.438 128.739C77.1568 128.62 76.5647 128.516 76.1503 128.516C75.7211 128.516 75.277 128.412 75.1142 128.293C74.9514 128.174 74.5369 128.069 74.1965 128.069C73.8413 128.069 73.3824 127.995 73.1456 127.906C72.9236 127.801 72.4351 127.682 72.0651 127.623C71.695 127.548 70.8661 127.355 70.2149 127.191C69.5636 127.012 68.7347 126.789 68.3647 126.699C67.9946 126.625 67.6394 126.491 67.5506 126.416C67.4766 126.342 64.3979 125.433 64.1462 125.374C63.9094 125.314 63.4654 125.18 63.1841 125.076C62.9029 124.987 62.4293 124.823 62.148 124.719C61.8668 124.614 61.2303 124.421 60.7419 124.272C60.2534 124.138 59.6614 123.944 59.4097 123.84C59.1729 123.736 58.5957 123.527 58.1516 123.393C57.7076 123.259 57.1451 123.051 56.8935 122.947C56.2422 122.649 55.5021 122.41 54.8213 122.247C54.4956 122.172 54.096 122.053 53.9332 121.979C53.7703 121.904 53.2671 121.725 52.8231 121.591C52.379 121.442 51.6389 121.204 51.1949 121.07C50.7508 120.921 50.0848 120.728 49.7147 120.623C49.3447 120.534 48.8562 120.385 48.6046 120.296C48.3678 120.221 47.9089 120.102 47.5981 120.028C47.2873 119.968 46.9468 119.834 46.858 119.745C46.7692 119.655 46.488 119.581 46.2216 119.581C45.9699 119.581 45.6739 119.477 45.5703 119.358C45.4667 119.239 45.2299 119.134 45.0374 119.134C44.845 119.134 44.475 119.045 44.2085 118.926C43.9421 118.807 43.2168 118.568 42.61 118.39C41.2038 117.958 40.1973 117.63 38.6136 117.049C37.9179 116.796 36.9558 116.454 36.4673 116.29C35.9789 116.126 35.3868 115.933 35.1352 115.843C34.8984 115.754 34.4987 115.635 34.2471 115.56C34.0103 115.486 33.433 115.292 32.989 115.113C32.5449 114.935 31.9825 114.726 31.7308 114.652C31.494 114.592 30.5171 114.265 29.5846 113.937C28.6521 113.609 27.7492 113.326 27.5864 113.326C27.4236 113.326 27.0979 113.222 26.8611 113.103C26.6391 112.984 26.2691 112.88 26.047 112.88C25.8398 112.88 25.4698 112.775 25.233 112.656C25.0109 112.537 24.5669 112.433 24.2709 112.433C23.96 112.433 23.59 112.329 23.4272 112.21C23.2791 112.09 22.8351 111.986 22.4651 111.986C22.095 111.986 21.6658 111.897 21.5178 111.778C21.2957 111.614 20.7777 111.584 19.1495 111.629C17.0181 111.688 15.9524 111.867 15.6563 112.225C15.5675 112.344 15.3603 112.433 15.1975 112.433C15.0495 112.433 14.7386 112.552 14.5166 112.716C13.9394 113.118 13.1697 113.565 12.4148 113.937C12.0448 114.116 11.5711 114.354 11.3491 114.458C11.1419 114.577 10.831 114.667 10.683 114.667C10.535 114.667 10.3426 114.726 10.2686 114.801C10.1798 114.875 9.82453 115.009 9.45449 115.084C6.76061 115.724 5.45807 116.498 4.80681 117.883C4.65879 118.196 4.40716 118.717 4.25915 119.015C4.11113 119.313 4.02232 119.67 4.06673 119.79C4.17034 120.058 4.51077 120.102 4.64399 119.879C4.7772 119.67 6.47938 118.688 6.7014 118.688C6.81982 118.688 7.39708 118.524 7.98914 118.33C9.05485 117.988 9.45449 117.824 10.4462 117.407C10.6978 117.288 10.9939 117.198 11.1123 117.198C11.3935 117.198 12.5184 116.796 13.4213 116.379C13.8506 116.171 14.2354 116.007 14.2798 116.007C14.3242 116.007 15.1235 115.709 16.056 115.337L17.7286 114.667L19.6972 114.667C21.1181 114.682 21.7694 114.741 22.0358 114.89C22.243 115.009 22.6131 115.099 22.8499 115.113C23.886 115.113 29.3182 116.707 29.9546 117.183C30.0287 117.243 30.5023 117.422 30.9908 117.556C31.4792 117.705 32.3525 117.988 32.915 118.196C33.4922 118.405 34.1139 118.598 34.3211 118.643C34.5283 118.688 34.7652 118.777 34.8392 118.851C34.928 118.911 35.8309 119.239 36.8522 119.566C37.8587 119.879 39.0872 120.326 39.5609 120.534C40.0345 120.743 40.5674 120.921 40.745 120.921C40.9226 120.921 41.1298 120.981 41.2186 121.055C41.3518 121.204 42.1807 121.502 44.5342 122.276C45.3039 122.53 46.2068 122.842 46.5324 122.961C47.1096 123.185 47.5981 123.364 48.6786 123.736C48.9598 123.84 49.4631 123.989 49.7887 124.063C50.1144 124.153 50.7508 124.346 51.1949 124.51C51.6389 124.689 52.1718 124.853 52.379 124.897C52.5862 124.942 52.9563 125.061 53.2227 125.18C53.4743 125.299 53.7999 125.389 53.9628 125.389C54.1108 125.404 54.392 125.493 54.5992 125.612C54.8065 125.731 55.1765 125.821 55.4281 125.836C55.6649 125.836 55.9462 125.91 56.035 125.999C56.1238 126.089 56.4198 126.208 56.6863 126.282C56.9675 126.357 57.5299 126.521 57.9296 126.655C58.344 126.789 59.2025 127.072 59.8538 127.28C60.5051 127.489 61.5708 127.816 62.222 128.01C62.8733 128.188 63.9982 128.546 64.7087 128.799C65.434 129.052 66.4257 129.35 66.9289 129.469C68.0094 129.722 68.3647 129.827 70.4369 130.452C71.2954 130.705 72.3611 131.018 72.8052 131.122C73.2492 131.226 73.8413 131.39 74.1077 131.48C75.9875 132.12 77.3492 132.537 79.9839 133.281C80.6352 133.46 81.3012 133.669 81.4641 133.728C82.4114 134.086 84.9128 134.89 85.1348 134.905C85.2681 134.92 85.3865 134.815 85.3865 134.696ZM83.1366 128.933C83.1662 128.635 83.107 128.516 82.8554 128.442C82.4114 128.293 82.1153 128.635 82.2929 129.082C82.4854 129.588 83.0774 129.484 83.1366 128.933ZM171.665 128.278C171.931 128.159 172.405 128.069 172.701 128.069C173.012 128.069 173.382 127.965 173.545 127.846C173.693 127.727 174.033 127.623 174.299 127.623C174.551 127.623 174.803 127.563 174.847 127.489C174.906 127.414 175.217 127.31 175.558 127.25C175.898 127.191 176.638 126.938 177.215 126.699C179.391 125.791 180.205 125.374 181.493 124.51C182.055 124.138 182.692 123.721 182.914 123.602C184.335 122.827 186.54 120.564 187.384 119C188.228 117.451 188.198 117.63 187.754 117.243C187.532 117.049 187.266 116.901 187.162 116.901C187.058 116.901 186.585 116.707 186.096 116.469C185.623 116.23 184.986 115.992 184.705 115.933C184.424 115.888 184.054 115.784 183.891 115.724C183.358 115.501 182.559 115.233 182.115 115.113C181.315 114.89 179.11 114.101 178.755 113.907C178.607 113.833 178.385 113.773 178.266 113.773C178.148 113.773 177.926 113.714 177.778 113.639C177.452 113.461 176.919 113.267 173.604 112.061C171.087 111.152 169.326 110.467 168.201 109.976C167.964 109.872 167.461 109.678 167.091 109.529C166.721 109.38 166.233 109.187 165.981 109.082C165.744 108.978 165.137 108.77 164.649 108.621C164.16 108.472 163.687 108.263 163.598 108.159C163.509 108.055 163.346 107.965 163.243 107.965C163.139 107.965 162.71 107.802 162.295 107.608C161.881 107.414 161.111 107.102 160.578 106.923C159.616 106.581 158.551 106.119 156.73 105.255C156.197 105.002 155.575 104.719 155.324 104.615C155.087 104.511 154.154 104.108 153.252 103.721C152.364 103.334 151.327 102.902 150.957 102.753C150.587 102.619 149.699 102.217 148.959 101.86C147.657 101.234 146.961 100.922 146.517 100.758C146.398 100.698 145.999 100.505 145.644 100.296C145.288 100.088 144.904 99.9239 144.8 99.9239C144.682 99.9239 144.267 99.7303 143.882 99.4772C143.483 99.2389 143.113 99.0304 143.053 99.0304C142.95 99.0304 138.169 96.6477 137.266 96.1563C137.029 96.0074 136.496 95.7542 136.082 95.5606C135.682 95.367 134.616 94.816 133.714 94.3395C131.671 93.2524 131.775 93.312 130.975 92.9248C130.605 92.761 130.206 92.5525 130.087 92.478C129.969 92.4036 129.762 92.3142 129.643 92.2696C129.525 92.21 128.696 91.7781 127.793 91.2867C125.484 90.0358 121.339 88.0105 121.073 88.0105C120.999 88.0105 120.525 87.8765 120.007 87.7127C116.855 86.7 115.256 86.7298 110.475 87.951C109.987 88.0701 109.35 88.2339 109.069 88.2935C108.788 88.3679 108.358 88.5019 108.107 88.5764C106.982 88.9636 104.821 89.4699 102.897 89.7826C102.482 89.8571 102.038 89.9762 101.935 90.0358C101.831 90.1103 101.446 90.1996 101.076 90.2592C100.129 90.423 98.7079 90.84 98.3526 91.0633C98.175 91.1676 97.8198 91.3016 97.5534 91.3612C96.8577 91.5101 96.7393 91.9419 96.8429 93.7587C96.9761 95.784 97.4645 96.7222 99.4332 98.7028C100.632 99.9239 102.912 101.711 103.252 101.711C103.311 101.711 103.459 101.8 103.578 101.919C103.711 102.024 104.214 102.336 104.688 102.604C105.176 102.872 105.872 103.304 106.242 103.572C106.612 103.84 107.263 104.243 107.663 104.466C108.077 104.689 109.454 105.568 110.727 106.417C112 107.266 113.095 107.965 113.139 107.965C113.184 107.965 113.406 108.085 113.628 108.248C114.205 108.65 116.129 109.931 116.588 110.229C116.81 110.363 117.358 110.661 117.802 110.884C118.246 111.108 118.971 111.539 119.415 111.852C119.859 112.18 120.318 112.433 120.437 112.433C120.555 112.433 120.895 112.612 121.191 112.85C121.487 113.073 122.05 113.431 122.464 113.639C122.864 113.848 124.078 114.488 125.129 115.039C128.03 116.573 132.307 118.688 132.529 118.688C132.633 118.688 132.796 118.792 132.899 118.911C133.003 119.03 133.166 119.134 133.255 119.134C133.447 119.134 134.424 119.611 134.72 119.849C134.824 119.924 135.061 120.028 135.268 120.072C135.875 120.206 136.748 120.564 136.925 120.743C137.029 120.847 137.222 120.921 137.355 120.921C137.606 120.921 137.814 121.011 138.938 121.577C139.22 121.711 139.545 121.815 139.693 121.815C139.827 121.815 140.004 121.874 140.093 121.949C140.167 122.023 140.759 122.247 141.41 122.455C143.068 122.991 143.571 123.17 144.001 123.378C144.208 123.483 144.637 123.617 144.963 123.676C145.288 123.736 145.629 123.825 145.703 123.885C145.866 124.004 146.428 124.183 147.997 124.644C148.604 124.823 149.403 125.046 149.773 125.151C150.143 125.255 150.839 125.463 151.327 125.597C151.816 125.746 152.334 125.91 152.467 125.999C152.615 126.074 152.896 126.133 153.104 126.133C153.503 126.133 154.569 126.357 155.398 126.625C155.945 126.789 156.878 126.967 158.21 127.146C158.654 127.206 159.172 127.34 159.35 127.444C159.527 127.548 160.001 127.623 160.386 127.623C160.786 127.623 161.2 127.712 161.289 127.801C161.392 127.906 162.059 128.04 162.769 128.114C163.479 128.174 164.619 128.278 165.315 128.352C167.431 128.546 171.087 128.501 171.665 128.278ZM85.0904 127.072C86.4966 126.789 88.4948 126.193 89.4569 125.761C89.8713 125.582 90.3006 125.389 90.419 125.329C90.5374 125.285 90.7446 125.18 90.863 125.106C90.9815 125.031 91.3811 124.838 91.7511 124.659C92.1212 124.466 92.7132 124.168 93.0833 123.974C94.1046 123.438 95.7328 122.708 95.8956 122.708C95.9696 122.708 96.2804 122.589 96.5912 122.425C98.8115 121.323 101.698 120.028 101.979 120.028C102.097 120.013 102.453 119.894 102.778 119.73C103.104 119.566 103.518 119.447 103.696 119.432C103.874 119.432 104.066 119.373 104.11 119.283C104.155 119.209 104.347 119.134 104.525 119.134C104.717 119.134 104.984 119.045 105.147 118.926C105.309 118.822 105.65 118.688 105.887 118.643C106.138 118.598 106.73 118.434 107.219 118.271C107.707 118.107 108.447 117.868 108.847 117.734C109.261 117.615 110.016 117.377 110.549 117.198C112.236 116.647 113.421 116.275 114.101 116.081C114.472 115.977 115.582 115.65 116.588 115.352C117.58 115.054 118.705 114.771 119.075 114.711C119.815 114.607 120.422 114.22 120.259 113.952C120.2 113.848 120.037 113.773 119.904 113.773C119.652 113.773 118.764 113.341 117.358 112.522C116.988 112.314 116.425 112.001 116.1 111.822C115.774 111.644 115.078 111.212 114.546 110.869C114.013 110.527 112.888 109.797 112.029 109.246C111.171 108.695 110.105 107.98 109.661 107.683C109.217 107.37 108.566 106.953 108.225 106.759C107.456 106.312 105.324 104.987 104.007 104.138C103.459 103.781 102.986 103.498 102.941 103.498C102.897 103.498 102.586 103.304 102.231 103.051C101.875 102.813 101.269 102.381 100.869 102.098C99.4479 101.1 97.7754 99.5516 96.9169 98.405C96.4284 97.7795 96.0436 97.1838 96.0436 97.0945C96.0436 96.9902 95.9548 96.7371 95.8364 96.5286C95.2591 95.4415 95.1407 94.7565 95.1703 92.7759C95.1851 91.4654 95.2591 90.6315 95.3923 90.3038C95.5107 90.0358 95.5995 89.6486 95.5995 89.4401C95.5995 89.2465 95.7032 88.8891 95.8216 88.6658C95.94 88.4275 96.0436 88.0999 96.0584 87.9361C96.0732 87.4297 97.5682 85.4491 98.4858 84.7046C98.9595 84.3174 99.5812 83.9451 99.8476 83.9004C100.543 83.7664 100.573 83.6026 100.025 83.0516C99.4331 82.4559 98.2638 80.7582 98.2638 80.5051C98.2638 80.3859 98.1602 80.2221 98.0418 80.1179C97.9234 80.0136 97.8198 79.8498 97.8198 79.7605C97.8198 79.6711 97.731 79.418 97.6126 79.2095C97.5089 78.9861 97.3017 78.45 97.1537 78.0182C97.0057 77.5714 96.8429 77.1544 96.7689 77.0651C96.6949 76.9906 96.6357 76.797 96.6357 76.6183C96.6357 76.4396 96.5616 76.2311 96.4728 76.1418C96.3248 75.9929 96.162 75.1441 95.9104 73.1932C95.8512 72.7018 95.7328 72.1359 95.644 71.9274C95.5699 71.7189 95.5255 71.2871 95.5699 70.9446C95.5995 70.5872 95.5255 70.1106 95.3923 69.783C95.2295 69.3958 95.1555 68.7555 95.1555 67.8173C95.1555 67.0132 95.0667 66.1643 94.9483 65.792C94.8003 65.3602 94.6966 64.0795 94.6374 61.8755C94.519 57.7952 94.4598 46.0903 94.5634 45.4946C94.6522 44.9287 94.371 44.8542 93.2461 45.1967C91.6031 45.6733 90.9074 45.852 89.1609 46.2392C88.184 46.4625 87.2515 46.7008 87.0887 46.7604C86.9258 46.8348 86.5558 46.9391 86.2746 46.9838C85.3569 47.1625 80.6796 48.5772 79.3918 49.0686C78.8442 49.2771 78.2225 49.4409 78.0005 49.4409C77.7933 49.4409 77.4824 49.5451 77.3344 49.6643C77.1716 49.7834 76.8756 49.8876 76.6684 49.8876C76.4611 49.8876 76.1503 49.9919 76.0023 50.111C75.8395 50.2302 75.5878 50.3344 75.425 50.3344C75.277 50.3344 74.9662 50.4238 74.759 50.5429C74.5369 50.662 73.9301 50.8705 73.3972 51.0194C72.8643 51.1683 71.5766 51.6151 70.5109 52.0172C69.46 52.4192 68.2907 52.8362 67.9206 52.9405C66.8105 53.2681 64.6051 54.0871 64.4571 54.2211C64.3683 54.2956 64.161 54.3552 63.9834 54.3552C63.8058 54.3552 63.5838 54.4594 63.4802 54.5785C63.3766 54.6977 63.1841 54.8019 63.0361 54.8019C62.8881 54.8019 62.3256 54.9955 61.7632 55.2338C60.1202 55.9188 59.1433 56.306 58.6697 56.4847C58.1072 56.6783 57.3079 57.0208 56.7899 57.2888C56.5826 57.3931 56.331 57.4824 56.2274 57.4824C56.1238 57.4824 55.8426 57.5718 55.5909 57.6909C54.8953 58.0037 53.9628 58.4057 52.305 59.1205C51.4909 59.463 50.292 59.9843 49.6407 60.2672C48.9894 60.5501 48.3234 60.8331 48.1606 60.9075C47.9977 60.9671 47.4797 61.1905 47.0208 61.4139C46.562 61.6223 46.1327 61.801 46.0587 61.801C45.9995 61.801 45.7479 61.9053 45.4963 62.0393C45.2595 62.1584 44.4158 62.5456 43.6461 62.8732C42.8764 63.2009 41.9439 63.6327 41.5739 63.8114C40.9374 64.1539 38.6284 65.2559 36.2453 66.3728C35.6384 66.6558 35.0316 66.9387 34.9132 67.0132C34.7948 67.0876 34.3951 67.2961 34.0251 67.4599C33.655 67.6386 33.2554 67.8322 33.137 67.9067C33.0186 67.9811 32.5893 68.2045 32.1749 68.3832C31.7752 68.5768 30.8871 69.0087 30.2063 69.3661C29.5254 69.7086 28.9037 69.9915 28.8149 69.9915C28.7261 69.9915 28.5337 70.0809 28.4153 70.2C28.2821 70.3191 27.5124 70.751 26.6983 71.1828C25.1441 71.987 24.9813 72.0763 24.034 72.672C23.7084 72.8805 23.1755 73.1783 22.8499 73.3421C22.095 73.7293 20.4076 75.4121 20.4076 75.7993C20.4076 75.9482 20.3484 76.1269 20.2596 76.1716C20.1856 76.2163 20.1116 76.6034 20.1116 77.0055C20.1116 77.4076 20.008 77.9884 19.8896 78.2862C19.7564 78.5989 19.6676 79.284 19.6676 79.9541C19.6676 80.5795 19.564 81.6964 19.4455 82.4261C19.1347 84.3025 19.1347 91.0931 19.4455 92.5525C19.564 93.1184 19.6676 94.2502 19.6676 95.0543C19.6676 96.0074 19.7416 96.6924 19.8896 97.0498C20.008 97.3328 20.1116 97.8391 20.1116 98.1518C20.1116 98.4794 20.1708 98.8517 20.23 99.0006C20.304 99.1347 20.5409 99.8197 20.7777 100.52C21.6954 103.334 22.9683 105.479 25.3662 108.263C26.1803 109.201 28.2969 111.212 28.6817 111.405C28.8889 111.51 29.1702 111.674 29.2886 111.778C29.407 111.867 29.6438 111.986 29.8066 112.031C30.4135 112.21 31.8048 112.716 32.2785 112.939C33.6402 113.55 34.2471 113.773 34.5283 113.773C34.7059 113.773 34.9724 113.863 35.1352 113.982C35.298 114.086 35.594 114.22 35.8013 114.265C36.0085 114.309 36.8374 114.577 37.6515 114.875C38.4655 115.173 40.4638 115.858 42.0919 116.394C43.7201 116.93 45.2891 117.466 45.5703 117.571C45.8515 117.675 46.5176 117.883 47.0504 118.017C47.5833 118.151 48.2346 118.36 48.501 118.479C48.7674 118.598 49.1671 118.688 49.3891 118.688C49.6111 118.702 49.9515 118.792 50.1588 118.911C50.6768 119.209 52.3642 119.209 52.4678 118.911C52.527 118.792 52.7046 118.688 52.8823 118.688C53.0451 118.688 53.5927 118.509 54.0812 118.3C54.5696 118.092 55.2505 117.824 55.6057 117.705C56.2126 117.481 57.5151 116.826 59.0693 115.947C59.4541 115.739 59.839 115.56 59.913 115.56C60.1202 115.56 63.5394 113.595 63.5986 113.446C63.6282 113.386 63.7318 113.326 63.8354 113.326C63.9242 113.326 64.2646 113.148 64.5903 112.924C64.9159 112.701 65.3896 112.403 65.6264 112.284C67.0473 111.51 68.1871 110.869 68.5127 110.646C68.7199 110.512 69.2528 110.214 69.6968 109.991C70.1409 109.767 71.2066 109.231 72.0651 108.785C72.9236 108.338 73.708 107.965 73.8117 107.965C73.9153 107.965 74.2853 107.802 74.6257 107.608C75.3658 107.176 76.6832 106.685 77.9117 106.387C78.4001 106.268 79.007 106.104 79.2438 106.015C79.8507 105.806 80.7536 105.553 83.6103 104.838C84.9572 104.496 86.3782 104.123 86.7778 104.004C87.1627 103.885 87.7399 103.796 88.0359 103.796C88.332 103.796 88.6576 103.721 88.7316 103.647C88.8204 103.558 89.2497 103.453 89.6937 103.394C90.1378 103.349 90.567 103.26 90.641 103.2C90.7298 103.141 91.1295 103.051 91.5291 103.007C91.9436 102.947 92.5208 102.872 92.8465 102.813C93.3941 102.709 93.4089 102.724 93.3053 103.066C93.1573 103.528 92.9797 103.647 92.3136 103.647C92.0176 103.647 91.7363 103.706 91.6771 103.781C91.6327 103.87 91.2775 103.974 90.8927 104.019C90.5078 104.064 90.0786 104.168 89.9454 104.257C89.7973 104.332 89.5013 104.391 89.2645 104.391C89.0425 104.391 88.7168 104.496 88.554 104.615C88.406 104.734 88.0656 104.838 87.8139 104.838C87.5623 104.838 87.0739 104.928 86.7482 105.047C86.4226 105.166 85.8305 105.315 85.4309 105.374C85.046 105.419 84.4244 105.568 84.0543 105.672C83.6843 105.791 83.0182 106 82.5742 106.134C82.1301 106.268 81.6269 106.417 81.4641 106.476C81.3012 106.551 80.7388 106.715 80.2059 106.849C79.6731 106.997 79.0662 107.206 78.8442 107.31C78.6222 107.429 78.2817 107.519 78.0893 107.519C77.8969 107.519 77.6157 107.623 77.4528 107.742C77.3048 107.861 77.0532 107.965 76.92 107.965C76.5351 107.965 71.695 110.259 71.5322 110.512C71.4878 110.586 71.3694 110.646 71.251 110.646C71.1326 110.646 70.7625 110.825 70.4073 111.063C69.386 111.718 69.2232 111.808 68.4387 112.21C68.039 112.418 67.2694 112.865 66.7513 113.178C66.2481 113.505 65.7892 113.773 65.7596 113.773C65.7448 113.773 65.4192 113.982 65.0639 114.22C64.6939 114.473 64.3387 114.667 64.2498 114.667C64.1758 114.667 63.9538 114.786 63.7614 114.95C63.3618 115.248 58.0776 117.958 56.4494 118.688C55.887 118.941 55.2357 119.253 55.0137 119.373C54.7917 119.492 54.466 119.551 54.2736 119.507C54.0812 119.462 53.8148 119.507 53.6371 119.641C53.3411 119.879 53.3411 119.879 53.6963 120.162C53.9036 120.311 54.392 120.489 54.8065 120.549C55.2061 120.594 55.6205 120.683 55.6946 120.743C56.0202 120.936 62.4737 123.155 62.7401 123.155C62.8289 123.155 63.1249 123.244 63.3766 123.364C64.013 123.632 66.5737 124.421 67.8466 124.719C68.4239 124.868 69.0604 125.061 69.2824 125.18C69.5044 125.299 69.904 125.389 70.1853 125.389C70.4517 125.389 70.7477 125.463 70.8365 125.553C70.9253 125.642 71.3546 125.761 71.7838 125.836C72.2279 125.91 73.0864 126.074 73.6932 126.208C75.0254 126.491 75.8839 126.655 77.4676 126.878C78.1189 126.967 78.9182 127.101 79.2438 127.176C80.2207 127.384 83.8619 127.325 85.0904 127.072ZM188.405 116.141C188.405 115.739 188.006 114.428 187.695 113.788C187.31 112.999 185.993 111.644 185.238 111.271C184.868 111.078 184.527 110.869 184.483 110.78C184.424 110.706 184.276 110.646 184.128 110.646C183.98 110.646 183.772 110.542 183.669 110.423C183.565 110.303 183.328 110.199 183.151 110.199C182.973 110.199 182.736 110.095 182.633 109.976C182.529 109.857 182.351 109.752 182.233 109.752C182.115 109.752 181.833 109.663 181.626 109.544C181.064 109.261 179.539 108.576 178.932 108.353C178.814 108.308 178.607 108.204 178.488 108.129C178.37 108.055 177.896 107.846 177.452 107.668C176.727 107.37 175.868 106.997 174.566 106.402C174.329 106.298 173.826 106.089 173.456 105.94C173.086 105.806 172.242 105.434 171.561 105.106C170.88 104.794 170.273 104.54 170.185 104.54C170.111 104.54 169.563 104.317 168.986 104.034C168.394 103.751 167.446 103.334 166.869 103.111C166.307 102.887 165.7 102.604 165.537 102.5C165.374 102.396 165.167 102.307 165.063 102.307C164.96 102.307 164.353 102.068 163.731 101.77C161.333 100.669 161.022 100.534 159.838 100.073C158.743 99.641 158.358 99.4921 157.87 99.2389C157.633 99.1198 157.366 99.0304 157.278 99.0304C157.189 99.0304 157.011 98.9411 156.893 98.8219C156.76 98.7177 155.857 98.3007 154.88 97.9135C153.903 97.5115 152.571 96.9456 151.919 96.6477C151.268 96.335 150.143 95.8436 149.403 95.5309C148.678 95.2181 147.938 94.8607 147.775 94.7565C147.612 94.6522 147.405 94.5629 147.301 94.5629C147.198 94.5629 146.635 94.3395 146.043 94.0566C145.451 93.7885 144.297 93.2673 143.483 92.9248C142.668 92.5823 141.662 92.1355 141.262 91.9568C140.848 91.7632 140.33 91.5548 140.108 91.5101C139.901 91.4505 139.649 91.3165 139.545 91.1973C139.457 91.0782 139.264 90.9889 139.131 90.9889C138.998 90.9889 138.82 90.9293 138.746 90.8548C138.657 90.7804 137.769 90.3634 136.748 89.9464C135.727 89.5146 134.483 88.9785 133.965 88.7402C133.462 88.5019 133.018 88.3083 132.973 88.3083C132.944 88.3083 132.381 88.0701 131.76 87.7722C130.413 87.1617 130.28 87.1021 129.199 86.6852C128.755 86.5064 128.059 86.1937 127.645 86.0001C126.12 85.2853 123.871 84.2876 123.752 84.2876C123.693 84.2876 122.953 84.0046 122.094 83.6323C120.585 83.0069 120.259 82.9026 118.838 82.5155C118.468 82.4112 117.905 82.2474 117.58 82.1581C116.766 81.9198 113.583 81.9198 113.347 82.173C113.243 82.2623 112.947 82.3517 112.695 82.3517C112.459 82.3665 111.985 82.4857 111.659 82.6495C111.334 82.8133 110.993 82.9324 110.904 82.9473C110.816 82.9473 110.357 83.1558 109.883 83.3941C109.409 83.6472 108.877 83.8408 108.699 83.8408C108.536 83.8408 108.27 83.9302 108.107 84.0493C107.944 84.1536 107.515 84.2876 107.145 84.3323C106.775 84.3769 105.783 84.511 104.925 84.645C104.066 84.7641 103.06 84.8832 102.675 84.8832C102.29 84.8832 101.505 85.062 100.928 85.2704C100.099 85.5832 99.6996 85.8512 99.0779 86.5065C98.6339 86.9532 98.2638 87.3851 98.2638 87.4446C98.2638 87.5042 98.0714 87.8318 97.8346 88.1892C97.5978 88.5466 97.3609 89.0529 97.3017 89.3061C97.2573 89.5742 97.1389 89.8273 97.0649 89.872C96.8577 90.006 96.9021 90.84 97.1241 90.84C97.2129 90.84 97.5682 90.6315 97.879 90.3932C98.2046 90.14 98.5747 89.9464 98.7227 89.9464C98.8707 89.9464 99.0187 89.8869 99.0779 89.8124C99.1667 89.6486 100.203 89.3508 101.594 89.0529C102.083 88.9487 102.882 88.77 103.37 88.636C103.859 88.5168 104.732 88.3381 105.295 88.2339C105.872 88.1297 106.331 88.0254 106.331 88.0105C106.331 87.9956 106.701 87.8914 107.145 87.7871C107.589 87.6829 108.329 87.4893 108.773 87.3702C109.217 87.251 110.253 86.9681 111.067 86.7447C111.881 86.5362 112.814 86.2682 113.139 86.1788C113.894 85.9555 118.438 85.9555 118.72 86.1788C118.823 86.2682 119.267 86.3724 119.696 86.432C121.251 86.6256 124.773 88.2637 133.121 92.627C134.676 93.446 136.57 94.414 137.34 94.7863C138.11 95.1734 138.85 95.5309 138.968 95.6053C139.279 95.7691 142.742 97.5115 144.43 98.3454C145.2 98.7177 145.925 99.0304 146.028 99.0304C146.132 99.0304 146.221 99.09 146.221 99.1644C146.221 99.2389 146.369 99.3431 146.561 99.4027C146.931 99.5069 148.249 100.103 149.063 100.534C149.359 100.683 149.744 100.817 149.892 100.817C150.054 100.817 150.217 100.922 150.276 101.041C150.321 101.16 150.469 101.264 150.617 101.264C150.765 101.264 151.313 101.473 151.845 101.726C152.378 101.979 153.03 102.277 153.296 102.381C153.562 102.5 153.992 102.694 154.258 102.813C154.51 102.932 154.998 103.141 155.324 103.275C155.649 103.409 156.182 103.647 156.508 103.796C158.98 104.928 161.837 106.149 163.317 106.7C164.871 107.295 166.514 107.965 166.987 108.204C167.224 108.323 167.506 108.412 167.624 108.412C167.742 108.412 167.95 108.472 168.098 108.561C168.586 108.829 170.851 109.752 171.028 109.752C171.117 109.752 171.28 109.857 171.384 109.976C171.487 110.095 171.739 110.199 171.961 110.199C172.168 110.199 172.479 110.303 172.627 110.423C172.79 110.542 173.056 110.646 173.234 110.646C173.411 110.646 173.604 110.691 173.663 110.75C173.707 110.81 173.974 110.929 174.24 111.033C174.492 111.123 175.38 111.45 176.194 111.748C177.008 112.061 177.807 112.344 177.97 112.388C178.133 112.433 178.473 112.552 178.74 112.671C178.992 112.79 179.302 112.88 179.421 112.88C179.554 112.88 179.702 112.954 179.746 113.029C179.791 113.118 179.939 113.178 180.072 113.178C180.19 113.178 180.501 113.282 180.753 113.401C181.019 113.52 181.73 113.773 182.337 113.982C185.297 114.979 186.688 115.56 187.458 116.081C188.124 116.528 188.405 116.558 188.405 116.141ZM7.39708 113.863C7.84112 113.669 8.49239 113.461 8.86243 113.401C9.23247 113.341 9.67652 113.207 9.85414 113.088C10.0318 112.969 10.2834 112.88 10.4018 112.88C10.6238 112.88 11.3491 112.552 12.4148 111.971C12.696 111.822 13.4805 111.42 14.1466 111.093C14.8127 110.765 15.4047 110.423 15.4491 110.348C15.4935 110.259 15.9376 110.199 16.4112 110.199C16.8849 110.199 17.3141 110.14 17.3585 110.08C17.3881 110.021 17.0033 109.47 16.5 108.859C15.6415 107.831 15.1679 107.057 14.5906 105.732C13.9986 104.362 13.895 104.064 13.895 103.826C13.895 103.692 13.7913 103.379 13.6729 103.141C13.5545 102.917 13.4509 102.47 13.4509 102.158C13.4509 101.845 13.3473 101.398 13.2289 101.175C13.0809 100.892 13.0069 100.296 13.0069 99.4027C13.0069 98.673 12.9329 97.4072 12.8589 96.6031C12.6368 94.3097 12.5184 81.6815 12.7108 79.4478C12.7996 78.3904 12.9329 76.0524 13.0069 74.2654C13.0809 72.4784 13.1845 70.9446 13.2437 70.8701C13.2881 70.7808 13.3917 69.7234 13.4657 68.5321C13.7321 64.2433 13.8358 63.0519 13.9542 62.8732C14.0134 62.769 14.0726 62.2329 14.0578 61.6819C14.0578 61.1458 14.1614 60.3268 14.2798 59.8949C14.413 59.4482 14.5166 58.8525 14.5166 58.5546C14.5166 58.2419 14.6054 57.6314 14.7238 57.1846C14.8423 56.7379 14.9311 56.0677 14.9311 55.6805C14.9311 55.2934 15.0051 54.787 15.0939 54.5488C15.2419 54.1616 15.3899 53.3276 15.6267 51.5257C15.6711 51.1534 15.8044 50.7216 15.908 50.5578C16.0264 50.394 16.1152 50.0515 16.1152 49.7685C16.1152 49.2324 16.4112 48.5623 16.7665 48.2644C16.8997 48.1453 17.0033 47.9368 17.0033 47.7879C17.0033 47.4156 16.3224 47.4007 15.8192 47.773C15.4491 48.0262 14.1762 48.6963 9.79493 50.9301C6.87902 52.4044 5.90212 53.134 5.90212 53.8191C5.90212 54.0871 5.81331 54.4147 5.6949 54.5785C5.57649 54.7424 5.45807 55.2189 5.41367 55.621C5.36926 56.0379 5.26565 56.7081 5.16204 57.1101C4.96962 57.959 4.7476 59.329 4.59958 60.7884C4.54038 61.3394 4.40716 61.8755 4.30355 61.9797C4.19994 62.084 4.12593 62.5605 4.12593 63.1413C4.11113 63.6923 4.02232 64.2731 3.90391 64.4816C3.7855 64.69 3.69669 65.2559 3.68189 65.792C3.68189 66.3132 3.60788 66.8791 3.50427 67.0578C3.40066 67.2365 3.26744 68.0258 3.20824 68.8002C3.00102 71.4211 2.8382 72.8954 2.64578 73.908C2.54217 74.459 2.49776 75.1292 2.54217 75.3972C2.57177 75.6653 2.54217 76.0376 2.46816 76.246C2.37935 76.4545 2.32014 77.1842 2.32014 77.8841C2.32014 78.584 2.24614 79.5818 2.12772 80.1179C2.02411 80.654 1.8909 82.2921 1.83169 83.7664C1.78729 85.2407 1.68368 86.9532 1.60967 87.5638C1.43205 89.0083 1.44685 97.0647 1.62447 98.807C1.69848 99.5516 1.80209 101.085 1.84649 102.232C1.9057 103.379 2.00931 104.451 2.09812 104.615C2.18693 104.779 2.27574 105.285 2.29054 105.732C2.32014 106.625 2.49776 107.489 2.79379 108.189C2.8974 108.442 3.03062 108.77 3.08982 108.933C3.54867 110.08 4.62919 112.09 5.05843 112.582C5.28046 112.82 5.45807 113.058 5.45807 113.088C5.45807 113.133 5.59129 113.401 5.76891 113.684C6.13895 114.309 6.34617 114.339 7.39708 113.863ZM191.144 112.433C191.795 112.373 192.757 112.239 193.29 112.15C193.823 112.061 194.504 111.986 194.829 111.986C195.466 111.986 196.813 111.242 197.582 110.467C198.115 109.946 198.604 109.038 198.826 108.189C199.048 107.28 199.122 95.2479 198.9 94.414C198.796 94.0417 198.663 92.5674 198.604 91.1378C198.411 86.5809 198.189 83.4983 198.012 82.7537C197.923 82.3517 197.878 81.8007 197.923 81.5177C197.967 81.2348 197.908 80.4157 197.804 79.7009C197.686 78.9861 197.582 77.9288 197.582 77.3331C197.582 76.7524 197.479 75.8142 197.345 75.2483C197.197 74.6079 197.138 73.9527 197.197 73.4762C197.257 72.9699 197.212 72.4933 197.064 72.0763C196.931 71.6892 196.842 70.885 196.842 70.0064C196.827 69.0533 196.768 68.4576 196.62 68.2045C196.487 67.9662 196.413 67.4003 196.398 66.6706C196.398 65.9558 196.309 65.3453 196.176 65.0921C196.058 64.8539 195.984 64.3922 195.998 64.0646C196.013 63.6923 195.924 63.3498 195.776 63.186C195.658 63.0371 195.51 62.7541 195.451 62.5456C195.406 62.3371 195.066 61.8457 194.696 61.4287C193.201 59.7758 185.208 51.7938 183.299 50.0366C182.736 49.5154 181.685 48.5474 180.99 47.8922C179.391 46.3732 177.26 44.4224 176.505 43.7671C176.179 43.4842 175.513 42.8587 175.01 42.3673C174.507 41.8759 173.604 41.042 172.997 40.5058C172.39 39.9697 171.265 38.972 170.495 38.2721C169.074 36.9765 167.446 35.5618 166.129 34.4747C165.729 34.1471 164.945 33.4769 164.368 32.9855C163.79 32.4941 162.976 31.824 162.577 31.4963C162.162 31.1687 161.762 30.8411 161.674 30.7518C161.585 30.6773 161.304 30.439 161.037 30.2305C160.771 30.0221 160.134 29.5306 159.616 29.1137C158.018 27.8181 154.658 25.2716 153.548 24.4972C152.956 24.0951 151.712 23.1867 150.75 22.4868C149.803 21.7869 148.796 21.1019 148.515 20.953C148.234 20.8041 147.997 20.6105 147.997 20.536C147.997 20.4616 147.938 20.402 147.864 20.402C147.79 20.402 147.213 20.0446 146.591 19.6127C145.969 19.1958 145.303 18.7341 145.111 18.615C144.918 18.4958 144.4 18.1384 143.956 17.8257C143.497 17.5279 143.098 17.2747 143.053 17.2747C142.994 17.2747 142.683 17.0811 142.343 16.828C142.017 16.5897 141.677 16.3812 141.618 16.3812C141.544 16.3812 141.07 16.0983 140.552 15.7409C140.049 15.3835 139.531 15.0559 139.412 14.9963C139.294 14.9367 138.953 14.7431 138.672 14.5793C138.391 14.4006 137.888 14.1028 137.562 13.939C137.236 13.7603 136.689 13.4327 136.333 13.2093C135.993 12.9859 135.46 12.6583 135.149 12.4945C134.853 12.3307 134.498 12.1371 134.38 12.0626C133.58 11.5563 132.248 10.8266 130.383 9.85863C129.199 9.24807 127.186 8.20565 125.898 7.53552C124.625 6.88028 123.426 6.25483 123.234 6.15059C123.056 6.04634 122.479 5.7634 121.946 5.51024C121.413 5.25708 120.881 4.98903 120.762 4.92946C119.933 4.48271 119.578 4.3189 119.415 4.3189C119.312 4.3189 119.119 4.22955 119.001 4.11042C118.808 3.94661 117.254 3.32115 116.292 3.02332C115.996 2.93397 115.981 2.96375 115.73 4.24444C115.626 4.73587 115.478 5.34643 115.389 5.5847C115.286 5.83786 115.241 6.13569 115.256 6.26972C115.286 6.40375 115.226 6.70158 115.123 6.93985C114.96 7.34193 114.856 8.16097 114.546 11.0946C114.161 14.8623 114.101 15.5175 114.175 15.6366C114.22 15.7111 114.161 16.3514 114.027 17.0662C113.879 17.9151 113.805 19.3596 113.805 21.2806C113.805 22.9634 113.702 24.8546 113.583 25.763C113.332 27.5947 113.287 41.3845 113.509 43.4097C113.583 44.065 113.687 46.3434 113.731 48.4729C113.791 50.6322 113.924 52.9851 114.042 53.8042C114.161 54.6381 114.22 55.5763 114.161 55.9933C114.101 56.4102 114.161 57.5271 114.294 58.5546C114.427 59.5673 114.605 61.2947 114.694 62.3967C114.782 63.4987 115.004 65.0772 115.167 65.8963C115.33 66.7153 115.508 67.728 115.582 68.13C115.833 69.7979 116.751 72.6124 117.609 74.3846C118.616 76.4247 119.519 77.9437 120.289 78.8521C120.363 78.9414 120.673 79.3733 120.969 79.8052C121.739 80.9072 122.746 81.9347 123.308 82.2176C124.181 82.6495 124.907 82.9473 125.084 82.9473C125.173 82.9473 125.617 83.126 126.076 83.3345C126.535 83.543 127.112 83.8111 127.349 83.9153C127.601 84.0344 128.178 84.2876 128.651 84.4961C129.125 84.7045 129.569 84.8832 129.658 84.8832C129.747 84.8832 130.191 85.062 130.65 85.2704C131.597 85.7172 132.278 86.015 132.603 86.1342C132.722 86.1788 132.929 86.2831 133.047 86.3575C133.166 86.432 133.551 86.5809 133.906 86.6852C134.246 86.7894 134.602 86.9532 134.69 87.0723C134.779 87.1766 134.942 87.2659 135.06 87.2659C135.164 87.2659 135.741 87.4893 136.333 87.7574C136.925 88.0403 137.917 88.4871 138.524 88.7551C139.131 89.0232 139.975 89.3954 140.374 89.5742C140.789 89.7677 141.484 90.0656 141.928 90.2443C142.372 90.423 142.846 90.6166 142.979 90.691C143.098 90.7506 144.104 91.1973 145.185 91.659C146.265 92.1206 147.272 92.5674 147.39 92.627C148.234 93.0588 149.61 93.6694 149.744 93.6694C149.832 93.6694 150.084 93.7587 150.321 93.8779C150.765 94.1012 151.638 94.4884 151.993 94.6225C152.112 94.6671 152.319 94.7714 152.438 94.8458C152.556 94.9203 153.192 95.1883 153.844 95.4564C155.043 95.9329 155.191 95.9925 156.804 96.7222C158.773 97.6157 159.039 97.7348 159.424 97.9284C159.631 98.0476 159.883 98.1369 159.972 98.1369C160.134 98.1369 161.674 98.8219 162.532 99.2687C162.739 99.3878 163.021 99.4772 163.139 99.4772C163.257 99.4772 163.435 99.5814 163.539 99.7005C163.642 99.8197 163.864 99.9239 164.042 99.9239C164.205 99.9239 164.486 100.028 164.634 100.147C164.797 100.266 165.034 100.371 165.182 100.371C165.315 100.371 165.507 100.475 165.611 100.594C165.715 100.713 165.951 100.817 166.129 100.817C166.307 100.817 166.543 100.922 166.647 101.041C166.751 101.16 166.958 101.264 167.091 101.264C167.239 101.264 167.565 101.368 167.816 101.488C168.068 101.607 168.482 101.815 168.734 101.934C168.986 102.053 169.267 102.158 169.385 102.158C169.489 102.158 169.652 102.262 169.755 102.381C169.859 102.5 170.066 102.604 170.199 102.604C170.347 102.604 170.688 102.724 170.969 102.858C171.236 102.992 171.635 103.185 171.857 103.304C172.064 103.409 172.346 103.498 172.464 103.498C172.582 103.498 172.76 103.602 172.864 103.721C172.967 103.84 173.174 103.945 173.323 103.945C173.485 103.945 173.989 104.153 174.447 104.391C174.906 104.645 175.395 104.838 175.528 104.838C175.676 104.838 175.868 104.942 175.972 105.062C176.076 105.181 176.312 105.285 176.49 105.285C176.668 105.285 176.904 105.389 177.008 105.508C177.112 105.627 177.304 105.732 177.437 105.732C177.571 105.732 177.807 105.821 177.97 105.925C178.133 106.03 179.036 106.447 179.968 106.849C180.901 107.251 181.774 107.653 181.907 107.772C182.026 107.876 182.248 107.965 182.381 107.965C182.514 107.965 183.062 108.204 183.624 108.487C184.172 108.77 184.705 109.008 184.809 109.008C184.897 109.008 185.578 109.425 186.318 109.916C187.354 110.616 187.843 111.063 188.361 111.793C188.997 112.701 189.071 112.746 189.501 112.656C189.752 112.612 190.492 112.507 191.144 112.433ZM26.0914 111.063C26.047 110.869 25.9878 110.72 25.973 110.72C25.6918 110.616 24.5817 109.752 23.9896 109.172C23.2051 108.368 21.651 106.357 21.4882 105.91C21.4438 105.776 21.3105 105.553 21.2217 105.434C20.8221 104.942 19.934 103.126 19.4455 101.756C19.1495 100.951 18.8091 100.043 18.6759 99.7452C18.5426 99.4176 18.4834 99.0453 18.5426 98.8219C18.6019 98.5986 18.5574 98.256 18.439 98.0178C18.3058 97.7795 18.217 97.1094 18.217 96.3946C18.2022 95.7244 18.143 95.0543 18.069 94.9054C17.5657 93.9374 17.8914 77.8395 18.4242 76.9757C18.4834 76.8715 18.5278 76.5885 18.513 76.3354C18.4982 75.9035 19.2087 74.4292 19.5344 74.2356C19.7416 74.1016 19.6824 73.5357 19.4455 73.2081C19.3271 73.0443 19.2235 72.7465 19.2235 72.5529C19.2235 72.3593 19.1495 72.0763 19.0607 71.9125C18.5575 70.9446 18.6463 55.0551 19.1791 50.0366C19.2679 49.3367 19.4011 48.6218 19.4899 48.4431C19.7712 47.9219 19.6972 47.7283 19.1495 47.4603C18.5278 47.1625 18.0986 47.1327 17.9358 47.4007C17.7138 47.7581 17.4473 48.6219 17.4473 49.0686C17.4473 49.3218 17.3437 49.6494 17.2253 49.7983C17.0921 49.977 17.0033 50.4089 17.0033 50.8556C17.0033 51.3024 16.9145 51.7342 16.7813 51.9129C16.648 52.0767 16.574 52.5384 16.5592 53.0596C16.5592 53.5361 16.4852 54.0722 16.3816 54.2509C16.2928 54.4296 16.1596 55.1147 16.0856 55.7699C15.7896 58.3462 15.7156 58.9269 15.5527 59.7907C15.1679 61.8606 14.6054 67.862 14.339 72.8954C14.265 74.2059 14.1466 75.8886 14.0578 76.6183C13.8358 78.4649 13.8358 97.7646 14.0578 98.956C14.1466 99.4474 14.265 100.341 14.3242 100.922C14.3686 101.517 14.5018 102.083 14.6054 102.187C14.6942 102.277 14.7831 102.59 14.7831 102.872C14.7831 103.915 16.5444 107.519 17.8914 109.231C18.439 109.931 18.513 109.976 19.1791 109.991C21.0737 110.035 22.9387 110.259 23.0867 110.437C23.1755 110.557 23.4124 110.646 23.59 110.646C23.7676 110.646 24.2857 110.81 24.7149 111.003C25.1589 111.212 25.6622 111.376 25.8546 111.376C26.1506 111.391 26.1803 111.331 26.0914 111.063ZM103.356 82.9324C106.197 82.6495 107.041 82.5155 108.447 82.0538C109.232 81.7858 109.987 81.4879 110.105 81.3837C110.816 80.788 114.768 79.8796 115.878 80.0583C117.55 80.3115 119.193 80.8029 120.363 81.3986C120.836 81.6368 121.354 81.6815 121.354 81.4879C121.354 81.4135 120.807 80.788 120.141 80.103C118.35 78.2862 116.647 75.3674 115.656 72.4486C114.886 70.2 114.723 69.6788 114.546 68.9491C114.457 68.5768 114.294 67.9811 114.175 67.6088C114.072 67.2365 114.013 66.7302 114.057 66.4771C114.101 66.209 114.042 65.8516 113.939 65.658C113.761 65.3155 113.657 64.3773 113.376 60.6544C113.302 59.6566 113.184 58.7482 113.11 58.644C113.051 58.5398 112.947 57.6165 112.903 56.5889C112.725 53.0745 112.473 48.4729 112.325 46.0158C112.133 42.8736 112.133 28.4584 112.325 26.2544C112.414 25.3312 112.503 23.3208 112.533 21.7869C112.577 20.2531 112.666 18.5554 112.755 18.0193C112.843 17.4832 112.917 16.3812 112.917 15.5622C112.917 14.6836 113.006 13.7752 113.139 13.3433C113.258 12.9412 113.361 12.0626 113.361 11.3925C113.361 10.6479 113.435 10.1118 113.539 10.0075C113.657 9.88841 113.702 9.47145 113.687 8.92045C113.657 8.33967 113.731 7.84825 113.894 7.52063C114.027 7.23768 114.101 6.86539 114.057 6.70158C113.968 6.32929 114.649 4.22955 115.019 3.73812C115.167 3.54453 115.286 3.29137 115.286 3.18713C115.286 2.90419 115.004 2.78505 114.797 2.94886C114.486 3.21691 111.511 4.6912 110.149 5.27197C109.424 5.5847 108.477 6.00167 108.033 6.21015C107.13 6.62712 106.449 6.93985 106.109 7.05898C105.99 7.10366 105.783 7.2079 105.665 7.28236C105.324 7.49084 103.859 8.14608 103.459 8.26521C103.267 8.32478 102.867 8.51837 102.571 8.69707C101.935 9.06937 101.328 9.41188 100.632 9.76928C99.9956 10.0969 98.7079 11.4074 98.7079 11.7052C98.7079 11.8243 98.6043 12.1222 98.4858 12.3604C98.3674 12.5838 98.249 13.0752 98.2194 13.4327C98.1898 13.7901 98.0862 14.2219 97.9974 14.4006C97.8938 14.5793 97.8198 15.1303 97.8198 15.6366C97.8198 16.1429 97.7458 16.6939 97.6422 16.8726C97.5534 17.0513 97.4497 17.7959 97.4201 18.5107C97.4053 19.2255 97.3165 19.9403 97.2277 20.1042C97.1537 20.2531 97.0797 20.9083 97.0797 21.5487C97.0797 22.189 97.0057 23.008 96.9169 23.3654C96.8429 23.7228 96.7541 24.9291 96.7245 26.046C96.6949 27.1628 96.5468 28.6073 96.4136 29.2626C96.2656 29.9774 96.1916 30.7369 96.2508 31.1836C96.2952 31.5708 96.2656 33.3131 96.1768 35.0555C95.9844 39.1954 95.9844 53.6106 96.1916 56.9017C96.2804 58.3313 96.3396 60.0587 96.3248 60.7586C96.31 61.4585 96.3692 62.4563 96.458 62.9924C96.5616 63.5285 96.6357 64.6305 96.6357 65.4495C96.6357 66.2686 96.7097 67.177 96.7837 67.4599C96.8725 67.7429 96.9761 68.5917 97.0057 69.3512C97.0501 70.0957 97.1537 70.8999 97.2277 71.1084C97.3165 71.3169 97.3757 71.853 97.3757 72.2699C97.3757 72.7167 97.4793 73.1634 97.5978 73.3273C97.7162 73.4911 97.8198 73.8931 97.8198 74.2208C97.8198 74.5484 97.879 75.01 97.953 75.2632C98.471 77.0502 98.7967 78.0033 98.9595 78.2564C99.0631 78.4202 99.1519 78.6883 99.1519 78.867C99.1519 79.0457 99.2555 79.2691 99.3739 79.3733C99.4924 79.4775 99.596 79.6562 99.596 79.7754C99.596 79.8945 99.9956 80.5944 100.484 81.339C100.973 82.0687 101.372 82.7537 101.372 82.8729C101.372 83.0962 101.668 83.2452 101.875 83.126C101.935 83.0962 102.601 83.0069 103.356 82.9324ZM21.7694 72.121C22.1246 71.8828 22.6427 71.5254 22.9239 71.3169C23.2051 71.1084 24.0932 70.5872 24.8777 70.1553C25.677 69.7383 26.5355 69.2618 26.8019 69.098C27.3348 68.8002 27.912 68.5023 30.7687 67.1323C31.79 66.6409 32.7817 66.1494 32.989 66.0303C33.7883 65.5835 40.0197 62.5456 40.1529 62.5456C40.1973 62.5456 40.745 62.3074 41.3814 62.0095C42.0179 61.7117 42.8024 61.3543 43.128 61.2054C44.0605 60.7884 45.6739 60.0289 47.0208 59.4035C47.6869 59.0759 48.3086 58.8227 48.3974 58.8227C48.4862 58.8227 48.7378 58.7333 48.945 58.6142C49.8775 58.1377 51.2985 57.4973 51.6389 57.3931C51.8461 57.3484 52.305 57.1399 52.675 56.9463C53.0451 56.7527 53.4151 56.5889 53.5187 56.5889C53.6075 56.5889 53.874 56.4996 54.1108 56.3805C54.6436 56.1124 55.0877 55.9188 56.0646 55.5465C56.5086 55.3827 56.9971 55.1444 57.1747 55.0253C57.3375 54.9062 57.6484 54.8019 57.8556 54.8019C58.0628 54.8019 58.3588 54.7126 58.5216 54.6083C58.6845 54.5041 59.3209 54.236 59.9278 53.9978C60.5347 53.7744 61.5116 53.4021 62.074 53.1638C62.6513 52.9256 63.2729 52.6873 63.4802 52.6277C63.6874 52.5682 63.9834 52.4341 64.1462 52.3299C64.3091 52.2108 64.5903 52.1214 64.7827 52.1214C64.9603 52.1214 65.2712 52.0321 65.4488 51.9129C65.6264 51.8087 66.1444 51.6002 66.5885 51.4513C67.4914 51.1534 69.5044 50.4238 70.2593 50.0961C70.5257 49.977 70.8809 49.8876 71.0438 49.8876C71.2214 49.8876 71.5322 49.7983 71.7394 49.6792C72.1687 49.4707 72.8052 49.2324 73.8413 48.9197C74.7146 48.6367 76.3871 48.0411 76.5795 47.9219C76.6684 47.8773 77.2604 47.6837 77.9117 47.505C78.563 47.3114 79.8951 46.8944 80.872 46.5817C81.8489 46.2541 82.885 45.9264 83.1662 45.8669C83.9359 45.6733 85.2089 45.3159 86.1265 45.0478C87.0294 44.7798 87.8287 44.5713 88.7168 44.3926C89.0425 44.3181 89.7085 44.1543 90.197 44.0054C90.6854 43.8714 91.4551 43.6927 91.8992 43.6331C92.3432 43.5735 92.8761 43.4544 93.0981 43.3651C93.3053 43.2906 93.6457 43.2459 93.853 43.2906C94.0602 43.3353 94.2822 43.2906 94.3414 43.2013C94.3858 43.097 94.4302 40.9079 94.4302 38.3019C94.4154 35.7107 94.4746 33.1791 94.5634 32.6877C94.6522 32.1963 94.7263 30.6624 94.7263 29.2924C94.7411 27.6245 94.8151 26.5672 94.9483 26.1055C95.0667 25.7035 95.1555 24.7504 95.1555 23.8271C95.1555 22.7847 95.2295 22.0103 95.3775 21.5933C95.5107 21.221 95.5995 20.4467 95.5995 19.717C95.5995 18.9873 95.6884 18.2427 95.8216 17.9151C95.94 17.6023 96.0288 17.0811 96.014 16.7535C95.9844 15.8451 96.1916 14.2964 96.4284 13.656C96.5469 13.3582 96.6357 12.9412 96.6357 12.7476C96.6357 12.554 96.7393 12.1966 96.8577 11.9733C96.9761 11.735 97.0797 11.3925 97.0797 11.2138C97.0797 10.7224 97.6126 9.90331 98.1898 9.51612C98.5155 9.29274 98.7079 9.03959 98.7079 8.8311C98.7079 8.38435 98.0418 7.89292 97.4201 7.89292C96.7245 7.89292 94.9335 8.51837 93.1277 9.39699C92.3136 9.79906 91.5439 10.1267 91.4255 10.1267C91.3071 10.1267 91.0851 10.2309 90.9223 10.3501C90.7742 10.4692 90.493 10.5734 90.3302 10.5734C90.1526 10.5734 89.9305 10.6777 89.8269 10.7968C89.7233 10.9159 89.5605 11.0202 89.4421 11.0202C89.3385 11.0202 88.702 11.2733 88.0211 11.601C87.3403 11.9137 85.8009 12.6136 84.5724 13.1795C83.3587 13.7305 82.0857 14.2964 81.7601 14.4453C81.4345 14.5942 80.7832 14.892 80.3243 15.1005C79.8655 15.309 79.451 15.4877 79.3918 15.4877C79.3474 15.4877 78.9034 15.6813 78.3853 15.9196C77.8821 16.1578 77.1716 16.4855 76.8016 16.6493C76.4315 16.8131 75.6915 17.1556 75.1438 17.4087C74.5961 17.6619 74.1225 17.8704 74.0781 17.8704C74.0485 17.8704 73.2936 18.2129 72.4055 18.6299C71.5322 19.0468 70.5701 19.4936 70.2889 19.6127C69.1344 20.1339 68.5719 20.3722 68.3647 20.4616C68.2463 20.5062 68.0391 20.6105 67.9206 20.67C67.2102 21.0721 66.6773 21.2955 66.4405 21.2955C66.3073 21.2955 66.1 21.3997 65.9964 21.5189C65.8928 21.638 65.7448 21.7422 65.6708 21.7422C65.5968 21.7422 64.7827 22.1145 63.8502 22.5613C62.9325 23.008 62.1332 23.3803 62.0592 23.3803C62 23.3803 61.4524 23.6186 60.8307 23.9313C60.209 24.2292 59.3061 24.661 58.8177 24.8844C58.3292 25.1078 57.2339 25.629 56.3754 26.0311C53.3855 27.4458 53.1635 27.55 52.9711 27.55C52.8675 27.55 52.4678 27.7436 52.0978 27.967C51.7277 28.1904 51.1209 28.5031 50.7508 28.652C49.9515 28.9796 48.2494 29.7689 47.9385 29.9476C47.8201 30.0221 47.6129 30.1263 47.4945 30.171C47.2725 30.2454 44.6674 31.5112 44.2381 31.7346C43.9421 31.8984 42.906 32.4047 41.7219 32.9408C41.189 33.194 40.523 33.5067 40.2417 33.6408C39.9605 33.7748 39.6201 33.9535 39.5017 34.0428C39.3832 34.1322 38.9096 34.3556 38.4655 34.5343C38.0215 34.713 37.3258 35.0257 36.9114 35.2193C36.5117 35.4129 36.0677 35.6065 35.9493 35.6511C35.8309 35.6958 35.6236 35.8001 35.5052 35.8745C35.0612 36.1575 33.3442 36.9318 33.1962 36.9318C33.0926 36.9318 32.9446 37.0212 32.8558 37.1403C32.7669 37.2446 32.1305 37.5573 31.4644 37.8253C30.7983 38.0934 30.1471 38.4061 30.0139 38.5104C29.8954 38.6295 29.703 38.7188 29.6142 38.7188C29.407 38.7188 28.4153 39.1656 28.1045 39.389C27.986 39.4783 27.5864 39.6719 27.2164 39.8208C26.2839 40.1931 25.5882 40.491 25.0997 40.7441C24.8629 40.8632 24.6113 40.9526 24.5225 40.9526C24.4485 40.9526 24.0784 41.1611 23.7084 41.3994C23.3532 41.6525 23.0127 41.8461 22.9535 41.861C22.7167 41.8759 21.8878 43.097 21.8878 43.4246C21.8878 43.6331 21.799 43.9458 21.6806 44.1245C21.5622 44.3181 21.429 45.1074 21.3697 46.0158C21.3105 46.8795 21.1921 47.7135 21.1033 47.8773C21.0293 48.0411 20.8961 48.9048 20.8221 49.8132C20.7629 50.7067 20.6445 52.1214 20.5705 52.9405C20.3484 55.1742 20.3632 70.3787 20.5853 71.3615C20.7333 72.0615 20.9405 72.5231 21.0885 72.5231C21.1181 72.5231 21.429 72.3444 21.7694 72.121ZM184.971 48.9495C185.016 48.741 184.868 48.3389 184.172 46.8051C184.054 46.5519 183.965 46.2987 183.965 46.2243C183.965 46.1647 183.772 45.6882 183.521 45.167C183.284 44.6606 183.077 44.1543 183.077 44.0799C183.077 43.782 182.144 42.0099 181.715 41.4887C181.345 41.0271 181.197 40.9526 180.649 40.9526C179.88 40.9526 179.598 41.2355 179.288 42.2333C178.917 43.4842 178.977 43.6331 180.102 44.5862C181.256 45.5541 183.832 48.2793 183.994 48.6963C184.098 48.9941 184.557 49.3069 184.779 49.2324C184.868 49.2175 184.942 49.0835 184.971 48.9495ZM124.359 4.66141C124.463 4.55717 123.737 3.15735 123.249 2.53189C122.598 1.69795 121.709 1.41501 121.117 1.86176C120.969 1.9809 120.688 2.08514 120.525 2.08514C120.141 2.08514 119.815 2.44254 119.919 2.72548C119.963 2.84462 120.215 2.97864 120.496 3.03821C121.162 3.17224 123.426 4.3189 123.53 4.55717C123.604 4.76565 124.196 4.84011 124.359 4.66141Z" fill="rgb(0,0,0)" fill-rule="nonzero" transform="matrix(1,0,0,-1,0.59668,229.999)" />
		<path id="矢量 493" d="M0.0364546 15.3844C-0.111561 15.0121 0.125264 14.9377 1.99026 14.8185C2.93756 14.759 3.84045 14.6547 4.00327 14.5654C4.16609 14.476 4.83216 14.3569 5.48343 14.2973C6.1495 14.2228 7.24481 14.1037 7.94049 14.0144C10.2791 13.7016 11.9961 13.5378 14.4532 13.4038C18.0796 13.1804 22.6236 12.8379 23.0381 12.7337C23.2453 12.689 24.0446 12.5848 24.8143 12.5103C25.5839 12.4209 26.8865 12.272 27.7006 12.1529C31.4306 11.6317 35.3826 11.1403 38.2837 10.8722C39.0534 10.7977 39.823 10.6935 39.9859 10.6339C40.1487 10.5893 41.1108 10.4552 42.1321 10.351C44.5299 10.0829 46.4097 9.85957 47.6087 9.66598C48.1415 9.59152 49.3108 9.45749 50.1989 9.36814C51.1018 9.27879 52.7004 9.11498 53.7513 8.99585C54.817 8.8916 56.3416 8.7278 57.1557 8.63844C57.9697 8.54909 58.8282 8.41507 59.0651 8.34061C59.3019 8.25126 59.7755 8.19169 60.1012 8.19169C60.4416 8.19169 61.3741 8.01299 62.1882 7.80451C63.0023 7.59602 63.9348 7.35776 64.2604 7.2833C64.586 7.20884 65.0153 7.07481 65.2225 7.01525C65.4297 6.94079 65.9922 6.76209 66.4806 6.62806C68.8785 5.94304 69.5002 5.70477 71.7056 4.573C73.911 3.44123 76.1757 1.92227 77.2414 0.864957C78.0999 -0.0136556 78.6919 -0.251923 78.6919 0.284179C78.6919 0.701148 76.0868 3.27742 75.6724 3.27742C75.6132 3.27742 75.3912 3.39655 75.1692 3.56036C72.9933 5.06443 70.0922 6.52382 68.0348 7.13438C67.7536 7.20884 67.0727 7.41732 66.5398 7.58113C66.007 7.75983 65.4297 7.89386 65.2521 7.89386C65.0893 7.89386 64.9117 7.95342 64.8525 8.02788C64.8081 8.10234 64.3936 8.22148 63.92 8.28104C63.4611 8.32572 62.9875 8.44485 62.8839 8.5342C62.7802 8.60866 62.2918 8.7278 61.7737 8.80225C60.264 9.01074 58.2066 9.35325 57.9697 9.4426C57.8513 9.48727 56.9484 9.59152 55.9715 9.68087C54.9946 9.77022 53.2332 9.94892 52.0491 10.0681C50.865 10.1872 48.8668 10.3808 47.6087 10.4999C45.3588 10.7084 44.0859 10.8871 42.3985 11.1849C41.9249 11.2594 41.096 11.3636 40.5483 11.4083C39.9859 11.453 39.2754 11.5423 38.9497 11.6168C38.6241 11.6913 37.0255 11.8848 35.3974 12.0635C33.7692 12.2274 32.0078 12.4358 31.475 12.5103C30.9421 12.5848 29.8764 12.7188 29.1067 12.8081C28.337 12.8975 26.9309 13.0762 25.9984 13.1953C22.8901 13.5974 16.481 14.1633 11.9369 14.4462C9.68707 14.5802 8.32533 14.7292 5.94228 15.0568C4.41772 15.2653 1.02816 15.6227 0.524906 15.6376C0.288081 15.6376 0.0956608 15.5333 0.0364546 15.3844Z" fill="rgb(0,0,0)" fill-rule="nonzero" transform="matrix(1,0,0,-1,92.8442,18.5371)" />
		<path id="矢量 494" d="M5.74072 61.0844C4.11255 59.1634 3.28366 58.0763 2.98763 57.4359C2.52878 56.4382 1.7739 54.0108 1.50747 52.6259C1.37426 51.9707 1.21144 51.1963 1.13744 50.8985C1.04863 50.6006 0.98942 50.0347 0.98942 49.6327C0.98942 49.2306 0.915413 48.6647 0.826603 48.3818C0.737794 48.0988 0.60458 47.1606 0.530572 46.2969C0.456564 45.4332 0.338152 44.0334 0.249343 43.1696C-0.00228384 40.6232 -0.0762916 33.8325 0.0865255 27.5333C0.293747 19.3726 0.515771 13.7733 0.708191 11.748C0.782199 10.8099 0.88581 9.18667 0.915413 8.12935C0.945016 7.08693 1.03383 6.14875 1.09303 6.04451C1.15224 5.95516 1.24105 4.58512 1.28545 3.00659C1.32986 1.44296 1.41867 0.102701 1.47787 0.0431337C1.53708 -0.031325 1.7147 -0.00154153 1.84791 0.0729172C2.06993 0.221835 2.09954 0.534562 2.09954 2.60451C2.09954 4.82339 1.90712 9.79723 1.58148 15.6944C1.06343 25.5527 0.856206 37.2427 1.13744 40.9359C1.56668 46.4458 1.65549 47.3096 2.12914 50.1688C2.26235 50.9431 2.41037 51.926 2.48438 52.3281C3.03204 55.6936 4.05334 57.8976 6.14036 60.1909C7.08766 61.2333 7.23568 61.6652 6.67322 61.7545C6.45119 61.7843 6.16996 61.5907 5.74072 61.0844Z" fill="rgb(0,0,0)" fill-rule="nonzero" transform="matrix(1,0,0,-1,168.03,77.7886)" />
	</g>
</svg>
