<svg viewBox="0 0 216 230" xmlns="http://www.w3.org/2000/svg" xmlns:xlink="http://www.w3.org/1999/xlink" width="216.000000" height="230.000000" fill="none">
	<rect id="1-11" width="216.000000" height="230.000000" x="0.000000" y="0.000000" />
	<path id="矢量 495" d="M81.0393 13.9639L81.7794 29.63L82.3567 33.7402L80.3289 37.1057L75.5332 52.3995L72.3804 80.2769L46.9218 85.8911L16.1049 98.1767L7.47561 102.034L3.73082 108.541L6.3655 114.885L3.09435 120.261L0.770508 137.104L5.4922 176.805L17.8959 183.715L20.6194 182.777L22.3364 188.451L96.9658 223.312L101.362 221.302L116.445 228.346L119.716 227.109L120.87 228.852L123.475 228.852L126.11 223.789L155.24 206.365L178.789 185.889L179.677 189.046L181.66 189.791L183.422 188.376L187.092 178.175L196.832 168.049L200.902 131.668L199.629 119.651L195.959 116.806L197.868 115.972L200.902 116.404L203.3 113.56L214.801 39.3841L212.24 36.8972L201.465 35.5272L194.123 32.9658L188.469 32.6382L181.453 31.1192L178.315 18.0294L175.207 13.9639L164.831 9.27303L142.318 5.25225L92.5846 1.88672L87.4336 3.64395L82.6823 9.51129L81.0393 13.9639Z" fill="rgb(255,255,255)" fill-rule="nonzero" />
	<path id="矢量 495" d="M81.7794 29.63L82.3567 33.7402L80.3289 37.1057L75.5332 52.3995L72.3804 80.2769L46.9218 85.8911L16.1049 98.1767L7.47561 102.034L3.73082 108.541L6.3655 114.885L3.09435 120.261L0.770508 137.104L5.4922 176.805L17.8959 183.715L20.6194 182.777L22.3364 188.451L96.9658 223.312L101.362 221.302L116.445 228.346L119.716 227.109L120.87 228.852L123.475 228.852L126.11 223.789L155.24 206.365L178.789 185.889L179.677 189.046L181.66 189.791L183.422 188.376L187.092 178.175L196.832 168.049L200.902 131.668L199.629 119.651L195.959 116.806L197.868 115.972L200.902 116.404L203.3 113.56L214.801 39.3841L212.24 36.8972L201.465 35.5272L194.123 32.9658L188.469 32.6382L181.453 31.1192L178.315 18.0294L175.207 13.9639L164.831 9.27303L142.318 5.25225L92.5846 1.88672L87.4336 3.64395L82.6823 9.51129L81.0393 13.9639L81.7794 29.63Z" fill-rule="nonzero" stroke="rgb(0,0,0)" stroke-width="1.000000" />
	<path id="矢量 496" d="M182.238 46.1301L180.432 26.5028L177.915 17.2252L171.062 11.4621L157.327 7.3371L138.04 5.41606L96.729 1.88672L89.0618 2.88447L84.044 6.74143L80.6841 18.908L82.3567 36.0782L86.7971 64.5065L90.4383 68.3635L109.666 71.5503L142.658 78.9664L159.769 84.0296L166.726 84.0296L170.53 82.1979L172.602 80.0237L182.238 46.1301Z" fill="rgb(1,89,188)" fill-rule="nonzero" />
	<path id="矢量 496" d="M180.432 26.5028L177.915 17.2252L171.062 11.4621L157.327 7.3371L138.04 5.41606L96.729 1.88672L89.0618 2.88447L84.044 6.74143L80.6841 18.908L82.3567 36.0782L86.7971 64.5065L90.4383 68.3635L109.666 71.5503L142.658 78.9664L159.769 84.0296L166.726 84.0296L170.53 82.1979L172.602 80.0237L182.238 46.1301L180.432 26.5028Z" fill-rule="nonzero" stroke="rgb(0,0,0)" stroke-width="1.000000" />
	<g id="组合 99">
		<path id="矢量 497" d="M91.3811 228.801C91.1443 228.682 90.6706 228.593 90.3302 228.578C90.0046 228.578 89.6049 228.474 89.4421 228.354C89.2941 228.235 89.0425 228.131 88.8945 228.131C88.5688 228.131 86.171 226.955 85.6973 226.567C84.676 225.733 83.3143 224.229 82.7962 223.366C82.4854 222.83 82.1597 222.293 82.0561 222.174C81.9673 222.055 81.7601 221.653 81.6121 221.281C81.4493 220.909 81.1828 220.372 81.0052 220.089C80.5316 219.315 79.9543 217.275 79.8211 215.86C79.6435 214.207 79.5991 207.729 79.7619 206.746C79.8507 206.166 79.9839 204.855 80.0579 203.843C80.1319 202.83 80.2651 201.46 80.354 200.805C80.7092 197.856 80.7092 197.35 80.3836 196.68C79.5695 194.997 77.6897 189.606 77.6897 188.966C77.6897 188.817 77.6305 188.638 77.5417 188.593C77.4677 188.549 77.3936 188.415 77.3936 188.296C77.3936 188.176 77.3196 187.908 77.216 187.67C77.1272 187.447 76.9644 186.926 76.8608 186.509C76.772 186.106 76.5796 185.392 76.4463 184.945C76.1355 183.932 75.5138 181.579 75.2474 180.448C75.1438 179.986 75.0106 179.539 74.9662 179.465C74.8774 179.316 74.5813 177.976 74.3001 176.531C74.2409 176.189 74.1521 175.846 74.0929 175.757C73.9301 175.504 73.5008 173.389 73.1012 170.947C73.0272 170.411 72.894 169.785 72.82 169.532C72.746 169.294 72.6127 168.519 72.5239 167.819C72.4351 167.12 72.3315 166.315 72.2723 166.032C72.2279 165.749 72.1391 164.916 72.0947 164.171C72.0355 163.441 71.9171 162.726 71.8431 162.607C71.7691 162.488 71.6654 161.58 71.6062 160.597C71.547 159.614 71.4286 158.333 71.3398 157.738C71.177 156.725 71.1622 151.17 71.325 150.694C71.3842 150.515 71.2066 150.456 70.4369 150.381C69.9041 150.337 69.3268 150.217 69.1492 150.128C68.9716 150.024 63.3618 149.16 63.1397 149.071C62.9029 148.981 62.4885 148.907 62.222 148.907C61.9408 148.907 61.4524 148.818 61.1563 148.698C60.8455 148.579 60.2978 148.445 59.9278 148.386C58.3588 148.162 57.9148 148.058 57.604 147.894C57.4263 147.79 54.096 147.165 53.8148 147.045C53.5187 146.926 53.0451 146.822 52.7787 146.822C52.4974 146.822 45.6295 144.931 45.4223 144.812C45.2151 144.693 44.9042 144.603 44.7266 144.588C44.401 144.588 43.7349 144.335 42.8616 143.903C42.6248 143.784 42.2843 143.695 42.0919 143.695C41.8995 143.695 41.7071 143.635 41.6479 143.561C41.6035 143.486 41.3518 143.367 41.1002 143.308C40.8338 143.263 40.523 143.159 40.3897 143.084C40.2713 143.01 39.6053 142.786 38.9096 142.563C37.5182 142.131 35.9493 141.55 35.3128 141.223C35.076 141.104 34.7948 141.014 34.6763 141.014C34.5579 141.014 34.3507 140.955 34.2027 140.88C33.7883 140.657 32.6781 140.18 31.8789 139.897C31.4792 139.749 31.0056 139.54 30.8427 139.421C30.6799 139.317 30.4431 139.227 30.3099 139.227C30.1619 139.227 29.8658 139.138 29.629 139.019C29.0666 138.721 28.1489 138.334 28.0452 138.334C27.9268 138.334 26.0322 137.47 25.7362 137.276C25.6178 137.202 25.4106 137.098 25.2922 137.053C25.1737 137.008 24.8777 136.874 24.6557 136.755C24.4189 136.651 24.1524 136.547 24.034 136.547C23.9304 136.547 23.7676 136.443 23.664 136.323C23.5604 136.204 23.3532 136.1 23.2199 136.1C23.0719 136.1 22.7611 135.996 22.5243 135.877C21.1773 135.192 18.5427 133.97 17.699 133.643C17.1513 133.449 16.5888 133.211 16.4556 133.137C16.3076 133.062 15.9376 132.898 15.6415 132.764C15.3307 132.63 14.8571 132.422 14.6054 132.303C13.9098 131.99 12.1188 131.32 11.6007 131.186C11.3639 131.111 10.7866 130.918 10.3426 130.739C9.89854 130.575 9.27688 130.337 8.98084 130.233C7.92993 129.86 6.27216 128.729 5.23605 127.686C4.40716 126.852 4.05193 126.331 3.41546 125.065C3.00102 124.187 2.64578 123.323 2.64578 123.129C2.64578 122.951 2.57177 122.4 2.46816 121.923C2.27574 120.97 2.45336 119.406 2.92701 118.007C3.26744 116.979 4.11113 115.743 4.59958 115.535C5.08804 115.326 5.13244 114.954 4.70319 114.567C4.19994 114.105 2.8678 112.243 2.52737 111.529C1.80209 109.965 1.16562 108.357 1.16562 108.044C1.16562 107.865 1.06201 107.582 0.943599 107.419C0.825187 107.27 0.721576 106.882 0.721576 106.57C0.721576 106.257 0.647568 105.87 0.57356 105.721C0.484751 105.557 0.395942 104.872 0.351537 104.202C0.321934 103.517 0.233125 102.102 0.144315 101.03C-0.0481051 98.5579 -0.0481051 87.3444 0.144315 85.3936C0.218323 84.5746 0.351537 82.8025 0.440346 81.4473C0.514354 80.0922 0.647568 78.2903 0.721576 77.4265C0.795584 76.5628 2.32014 63.607 2.42375 63.4134C2.52737 63.2496 2.70498 62.0731 2.8974 60.1074C2.94181 59.6458 3.03062 59.2139 3.10463 59.1693C3.17863 59.1246 3.23784 58.7821 3.23784 58.3949C3.25264 58.0077 3.34145 57.5312 3.45986 57.3227C3.57828 57.1142 3.66709 56.6525 3.68189 56.2803C3.68189 55.908 3.7855 55.4463 3.91871 55.2527C4.06673 55.0442 4.12593 54.7613 4.08153 54.5081C4.03713 54.2699 4.06673 54.0167 4.15554 53.9274C4.22955 53.8529 4.36276 53.4657 4.43677 53.0934C4.718 51.5894 5.85772 50.7256 11.0827 48.0898C11.6155 47.8217 12.1484 47.5388 12.2668 47.4792C12.3852 47.4048 12.5924 47.3005 12.7108 47.2559C12.8292 47.1963 13.6137 46.824 14.4574 46.4368C15.2863 46.0347 16.0264 45.7071 16.1004 45.7071C16.1744 45.7071 16.5592 45.5731 16.9441 45.3944C17.4917 45.171 17.7434 45.1263 17.9802 45.2455C18.1578 45.3199 18.7203 45.4391 19.2087 45.4986L20.1116 45.6029L20.1116 44.4264C20.1264 43.6818 20.2004 43.1159 20.3336 42.8777C20.4521 42.6692 20.5409 42.3862 20.5557 42.2373C20.5557 41.6119 22.5391 39.6313 23.1755 39.6015C23.2643 39.6015 24.3301 39.125 25.5438 38.5442C26.7427 37.9634 28.2377 37.2635 28.8445 36.9805C29.4514 36.6827 30.0583 36.3849 30.1767 36.3104C30.2951 36.236 30.5023 36.1317 30.6207 36.087C31.4644 35.7594 32.9594 35.0446 33.285 34.8361C33.4922 34.7021 35.0168 33.9873 36.0233 33.5703C36.2749 33.4661 37.2962 32.9747 38.3175 32.4832C39.3388 31.9918 40.819 31.2919 41.6035 30.9047C42.388 30.5324 43.128 30.2197 43.2612 30.2197C43.3797 30.2197 43.5129 30.1601 43.5573 30.1006C43.6017 30.0261 44.1197 29.7432 44.7118 29.4453C45.7331 28.9539 46.3548 28.6561 48.353 27.7477C48.8118 27.5243 49.8035 27.0626 50.5288 26.7201C51.2689 26.3776 52.3346 25.8713 52.8971 25.6033C53.4743 25.3352 54.4956 24.8587 55.1913 24.531C55.887 24.2034 56.5531 23.8758 56.6715 23.8162C56.8935 23.6822 57.8704 23.2206 58.6697 22.8483C58.9213 22.744 59.4098 22.5207 59.7798 22.3568C60.5643 21.9994 62.3553 21.1655 63.9242 20.4358C64.5311 20.1529 65.3008 19.7955 65.6264 19.6466C65.952 19.4976 66.6181 19.1998 67.1066 18.9764C67.595 18.753 68.4683 18.351 69.0308 18.0829C70.9994 17.1447 71.7246 16.8171 71.8135 16.8171C71.9023 16.8171 72.2871 16.6384 74.8034 15.4769C77.068 14.4195 77.7045 14.1366 77.8525 14.1366C77.9413 14.1366 78.4001 13.943 78.859 13.7196C79.6879 13.2878 81.3605 12.4985 82.2041 12.1411C82.4558 12.022 83.0182 11.7688 83.4771 11.5603C83.9211 11.3518 84.6464 11.0391 85.0905 10.8604C85.5197 10.6966 86.0081 10.4583 86.1858 10.3392C86.3486 10.2201 86.6002 10.1158 86.7334 10.1158C86.8666 10.1158 87.0591 10.0116 87.1627 9.89246C87.2663 9.77332 87.4439 9.66908 87.5771 9.66908C87.6955 9.66908 88.2284 9.4606 88.7464 9.22233C89.2497 8.96917 89.7825 8.77558 89.8862 8.77558C90.0046 8.77558 90.1378 8.71601 90.1822 8.64155C90.2266 8.58198 90.5818 8.40328 90.9667 8.25436C91.3515 8.12034 92.1212 7.77783 92.6688 7.49489C93.2165 7.21194 93.7938 6.98857 93.9566 6.98857C94.1194 6.98857 94.2822 6.929 94.3266 6.85454C94.4894 6.58649 96.4432 6.05039 97.2425 6.05039C97.9234 6.05039 98.2194 6.13974 98.8707 6.52692C99.3148 6.79497 99.818 7.21194 100.01 7.45021C100.44 7.98631 100.528 7.98631 101.209 7.45021C101.505 7.22683 102.66 6.5716 103.785 6.0206C104.91 5.46961 105.857 4.9484 105.901 4.88883C105.946 4.81437 106.109 4.7548 106.271 4.7548C106.419 4.7548 106.671 4.69524 106.819 4.60589C106.952 4.53143 107.441 4.30805 107.885 4.09957C108.329 3.90598 109.883 3.19117 111.348 2.52104C115.226 0.734033 116.322 0.421306 116.766 0.957409C116.869 1.07654 117.106 1.18079 117.284 1.18079C117.461 1.18079 117.787 1.31481 117.994 1.47862C118.512 1.89559 118.808 1.85091 119.341 1.27014C120.096 0.45109 122.331 -0.323281 122.612 0.138363C122.657 0.212822 122.849 0.287281 123.027 0.287281C123.5 0.287281 124.907 1.95516 124.907 2.52104C124.907 2.66996 124.995 2.86355 125.114 2.9529C125.38 3.17628 125.795 4.45697 125.795 5.05264C125.795 5.35047 125.884 5.54407 126.061 5.60363C126.298 5.67809 129.051 7.03324 129.495 7.2864C129.614 7.36086 129.821 7.45021 129.939 7.49489C130.058 7.55445 130.694 7.88207 131.345 8.22458C131.997 8.58198 133.136 9.19255 133.862 9.59462C134.602 9.98181 135.431 10.4583 135.712 10.6519C135.993 10.8455 136.274 11.0093 136.333 11.0093C136.393 11.0093 136.718 11.188 137.074 11.4263C138.154 12.1113 138.287 12.2007 138.598 12.3347C138.761 12.4092 139.131 12.6325 139.412 12.8261C139.693 13.0197 140.034 13.2282 140.152 13.2878C140.271 13.3473 140.552 13.5112 140.774 13.6601C140.996 13.7941 141.988 14.4195 142.979 15.0301C144.948 16.2512 145.081 16.3406 146.265 17.1447C146.724 17.4575 147.139 17.7106 147.213 17.7106C147.272 17.7106 147.523 17.9191 147.76 18.1574C147.997 18.4105 148.278 18.6041 148.367 18.6041C148.471 18.6041 148.796 18.8126 149.107 19.0509C149.418 19.304 149.744 19.4976 149.847 19.4976C149.936 19.4976 150.143 19.6317 150.306 19.8104C150.454 19.9742 151.209 20.5549 151.993 21.1059C153.414 22.0888 154.436 22.8036 155.413 23.5035C155.709 23.712 156.612 24.4119 157.411 25.0374C158.21 25.6628 159.572 26.735 160.43 27.3903C161.896 28.5369 162.739 29.2219 163.672 30.041C163.879 30.2346 164.427 30.6813 164.9 31.0536C165.359 31.411 165.759 31.7535 165.789 31.8131C165.803 31.8876 166.233 32.2599 166.721 32.647C167.861 33.5703 168.897 34.4341 169.829 35.2829C170.229 35.6701 171.606 36.8763 172.864 37.9932C175.084 39.944 176.298 41.1353 177.053 42.0437C177.526 42.6245 177.896 42.4905 177.896 41.7608C177.896 40.6886 178.562 39.9589 179.998 39.4526C180.738 39.1994 180.768 39.1994 181.626 39.4824C182.366 39.7355 182.603 39.9142 183.151 40.6141C183.506 41.0609 183.906 41.7459 184.039 42.1182C184.172 42.4905 184.379 42.9819 184.498 43.2053C184.616 43.4138 184.705 43.6818 184.705 43.801C184.705 43.9052 184.838 44.2477 185.001 44.5604C185.164 44.8583 185.297 45.2604 185.297 45.4539C185.297 45.6475 185.401 45.9305 185.519 46.0943C185.637 46.2432 185.741 46.6155 185.741 46.9133C185.741 47.2112 185.845 47.5388 185.963 47.643C186.081 47.7473 186.185 48.0749 186.185 48.3727C186.2 48.6706 186.289 49.0726 186.407 49.2811C186.526 49.4896 186.614 49.9215 186.629 50.2491C186.629 50.7852 186.733 50.9341 187.858 52.0063C192.52 56.5036 196.842 61.0605 196.842 61.4775C196.842 61.5668 197.005 61.9838 197.212 62.4156C197.419 62.8326 197.582 63.3538 197.582 63.5623C197.597 63.7708 197.686 64.1133 197.804 64.3218C197.938 64.5601 197.982 64.9175 197.923 65.3195C197.878 65.662 197.923 66.1535 198.026 66.4364C198.204 66.9278 198.382 68.4319 198.604 71.5443C198.663 72.4527 198.796 73.376 198.885 73.5993C198.988 73.8376 199.062 74.6716 199.062 75.4608C199.062 76.2501 199.166 77.3074 199.284 77.7988C199.403 78.2902 199.492 79.1689 199.506 79.7347C199.506 80.3155 199.595 81.3133 199.714 81.9685C199.817 82.6237 199.891 83.3683 199.847 83.6364C199.803 83.8895 199.847 84.7979 199.951 85.6468C200.276 88.4017 200.765 99.1387 200.75 103.189C200.75 107.821 200.557 108.833 199.432 110.427C198.707 111.439 198.026 112.035 196.946 112.556C196.457 112.794 196.25 112.973 196.28 113.137C196.354 113.569 196.961 113.509 197.775 113.003C198.411 112.586 198.722 112.497 199.61 112.452C200.528 112.392 200.75 112.437 201.283 112.765C201.845 113.092 202.896 114.209 203.192 114.79C203.34 115.088 204.051 117.932 204.184 118.751C204.228 119.079 204.302 119.391 204.332 119.436C204.361 119.481 204.421 119.942 204.465 120.464C204.509 120.97 204.613 121.521 204.687 121.67C204.776 121.819 204.835 122.251 204.835 122.653C204.85 123.04 204.939 123.531 205.057 123.74C205.175 123.948 205.264 124.529 205.279 125.095C205.279 125.661 205.353 126.137 205.457 126.242C205.56 126.346 214.264 183.992 214.382 184.2C214.515 184.424 214.589 185.005 214.604 185.704C214.604 186.449 214.678 186.926 214.826 187.119C215.167 187.581 215.137 190.529 214.767 191.244C213.82 193.121 212.724 193.642 208.535 194.163C208.091 194.223 207.573 194.342 207.396 194.446C207.218 194.55 206.759 194.625 206.36 194.625C205.96 194.625 205.501 194.714 205.338 194.833C205.131 194.982 204.465 195.056 203.029 195.101C201.209 195.146 200.972 195.176 200.587 195.473C200.099 195.861 199.432 196.188 197.804 196.843C197.153 197.111 196.428 197.424 196.176 197.528C194.933 198.079 191.366 198.065 190.907 197.514C190.7 197.26 189.264 197.231 188.805 197.484C188.05 197.886 185.208 198.526 182.411 198.928C181.315 199.077 181.301 199.107 181.301 200.432C181.301 201.073 181.227 201.788 181.138 202.026C181.049 202.249 180.886 203.009 180.768 203.709C180.294 206.508 180.116 207.253 179.569 208.846C179.362 209.427 179.154 210.097 179.08 210.335C179.021 210.589 178.858 210.991 178.74 211.229C178.621 211.482 178.325 212.078 178.103 212.569C177.6 213.671 176.831 214.788 176.135 215.458C175.513 216.069 173.915 217.32 173.604 217.454C173.485 217.513 173.189 217.692 172.938 217.856C172.346 218.243 169.696 219.538 168.867 219.866C168.497 220 168.009 220.209 167.787 220.328C167.55 220.447 167.254 220.536 167.121 220.536C166.987 220.536 166.691 220.626 166.484 220.745C166.055 220.968 164.871 221.355 164.279 221.474C164.072 221.519 163.539 221.683 163.095 221.862C162.651 222.025 161.585 222.338 160.726 222.547C159.868 222.755 158.847 223.008 158.432 223.127C157.159 223.5 156.301 223.663 155.723 223.663C155.427 223.663 154.983 223.768 154.747 223.887C154.495 224.021 153.932 224.11 153.34 224.11C152.808 224.11 152.127 224.185 151.845 224.274C151.564 224.363 150.528 224.497 149.551 224.557C148.574 224.631 146.946 224.765 145.925 224.855C144.178 225.004 142.432 225.123 137.858 225.451C136.807 225.525 122.953 226.716 121.058 226.925C120.363 227.014 118.601 227.148 117.136 227.238C115.67 227.327 113.983 227.461 113.391 227.55C112.799 227.625 111.792 227.684 111.171 227.684C110.549 227.684 109.439 227.788 108.699 227.908C107.974 228.027 106.804 228.131 106.109 228.131C105.413 228.131 104.614 228.205 104.332 228.295C104.051 228.369 102.778 228.503 101.52 228.578C100.262 228.652 98.9003 228.771 98.4859 228.861C97.3313 229.084 91.914 229.039 91.3811 228.801ZM98.1898 227.312C99.0927 227.267 100.351 227.163 101.002 227.074C101.653 226.999 103.015 226.865 104.036 226.791C105.058 226.716 106.553 226.582 107.367 226.508C108.181 226.418 110.52 226.21 112.547 226.046C114.59 225.882 116.855 225.674 117.609 225.599C118.35 225.51 119.386 225.451 119.904 225.451C120.422 225.451 121.236 225.376 121.724 225.302C122.213 225.212 123.486 225.108 124.537 225.063C125.602 225.019 126.698 224.929 126.979 224.855C127.26 224.78 128.296 224.676 129.273 224.631C130.25 224.572 131.331 224.468 131.671 224.393C132.026 224.319 133.418 224.2 134.779 224.11C136.156 224.036 138.095 223.872 139.116 223.753C142.047 223.395 144.134 223.217 145.259 223.217C145.836 223.217 146.724 223.142 147.257 223.068C147.79 222.993 149.048 222.859 150.069 222.77C152.645 222.562 154.288 222.338 155.279 222.085C155.753 221.966 156.345 221.876 156.597 221.876C156.834 221.876 157.174 221.802 157.337 221.713C157.5 221.623 157.944 221.504 158.329 221.43C159.912 221.147 163.124 220.253 164.101 219.851C164.368 219.732 164.708 219.643 164.871 219.643C165.034 219.643 165.374 219.553 165.641 219.434C165.907 219.315 166.425 219.107 166.795 218.973C167.787 218.6 169.992 217.603 170.643 217.245C170.762 217.171 171.161 216.977 171.532 216.783C174.063 215.518 175.646 213.88 176.905 211.274C177.674 209.665 177.822 209.233 178.399 206.985C178.547 206.449 178.755 205.674 178.873 205.257C178.992 204.84 179.08 204.26 179.08 203.962C179.08 203.664 179.14 203.128 179.228 202.785C179.643 200.894 179.924 198.839 180.042 196.858C180.102 195.995 180.176 195.19 180.205 195.071C180.324 194.729 180.723 187.894 180.812 184.796C180.901 181.892 180.916 182.041 180.176 180.597C180.057 180.388 179.968 180.075 179.968 179.926C179.968 179.763 179.865 179.509 179.746 179.346C179.628 179.197 179.524 178.958 179.524 178.824C179.524 178.69 179.347 178.184 179.14 177.708C178.932 177.231 178.651 176.531 178.533 176.159C178.414 175.787 178.192 175.221 178.044 174.893C177.793 174.312 177.334 173.032 176.905 171.691C176.786 171.319 176.549 170.664 176.386 170.232C176.209 169.785 176.031 169.189 175.957 168.892C175.868 168.385 175.691 167.805 174.995 165.511C174.862 165.109 174.714 164.499 174.655 164.171C174.581 163.843 174.462 163.411 174.388 163.203C174.063 162.414 173.219 159.212 172.997 157.991C172.908 157.455 172.745 156.8 172.627 156.531C172.508 156.263 172.42 155.757 172.42 155.415C172.42 155.072 172.316 154.655 172.198 154.506C172.079 154.342 171.976 153.94 171.976 153.613C171.976 153.27 171.872 152.868 171.754 152.719C171.635 152.555 171.532 152.109 171.532 151.721C171.532 151.334 171.472 150.977 171.398 150.917C171.31 150.873 171.25 150.59 171.25 150.277C171.25 149.979 171.147 149.026 171.013 148.162C170.88 147.299 170.732 146.331 170.688 146.003C170.643 145.675 170.51 145.229 170.407 145.005C170.273 144.767 170.199 144.112 170.199 143.352C170.199 142.563 169.341 135.817 169.267 135.698C169.163 135.534 168.971 132.854 168.956 131.454C168.941 130.918 168.897 130.411 168.823 130.352C168.764 130.292 168.098 130.248 167.343 130.277C166.366 130.307 165.818 130.248 165.433 130.084C165.108 129.935 164.456 129.845 163.835 129.845C163.257 129.845 162.577 129.756 162.31 129.652C162.044 129.533 161.17 129.399 160.356 129.339C159.542 129.28 158.817 129.175 158.728 129.101C158.654 129.041 158.284 128.952 157.914 128.922C157.544 128.878 157.056 128.773 156.804 128.684C156.005 128.401 155.043 128.178 154.288 128.103C153.888 128.058 153.414 127.939 153.252 127.82C153.089 127.701 152.734 127.612 152.438 127.612C152.156 127.597 151.757 127.507 151.549 127.388C151.342 127.269 151.017 127.18 150.824 127.165C150.617 127.165 150.262 127.105 150.01 127.016C144.756 125.393 142.017 124.499 140.892 124.082C138.509 123.174 137.236 122.668 136.866 122.474C136.659 122.355 136.407 122.251 136.319 122.251C136.23 122.251 135.727 122.042 135.223 121.804C134.705 121.566 134.232 121.357 134.187 121.357C133.95 121.357 128.415 118.632 125.055 116.875C124.611 116.636 124.211 116.443 124.152 116.443C124.093 116.443 123.708 116.205 123.278 115.922C122.39 115.326 122.094 115.296 121.191 115.683C120.836 115.832 120.259 116.011 119.919 116.071C119.563 116.13 119.252 116.234 119.193 116.309C119.149 116.383 118.956 116.443 118.764 116.443C118.572 116.443 118.231 116.532 117.994 116.651C117.402 116.964 113.139 118.23 112.71 118.23C112.592 118.23 112.266 118.319 112 118.438C111.23 118.766 109.187 119.436 108.699 119.525C108.462 119.57 108.181 119.674 108.092 119.734C107.988 119.808 107.53 119.972 107.056 120.106C105.502 120.508 103.74 121.089 103.652 121.223C103.607 121.298 103.444 121.357 103.296 121.357C103.134 121.357 102.764 121.461 102.453 121.595C102.142 121.729 101.698 121.938 101.446 122.027C100.854 122.28 99.8476 122.727 98.8411 123.204C98.3822 123.412 97.953 123.591 97.879 123.591C97.731 123.591 97.1685 123.859 93.5273 125.646C90.567 127.105 89.4125 127.612 89.1165 127.612C88.9981 127.612 88.554 127.776 88.1248 127.984C87.6215 128.237 86.985 128.401 86.2746 128.461C85.4901 128.52 85.1053 128.639 84.8388 128.863L84.4688 129.175L85.2681 130.292C85.7121 130.903 86.1562 131.707 86.2598 132.079C86.3634 132.452 86.5262 132.988 86.615 133.271C86.7926 133.822 86.8074 136.815 86.6446 138.155C86.5854 138.587 86.4522 139.123 86.3338 139.346C86.2302 139.57 86.1266 139.868 86.1266 140.017C86.1266 140.151 86.0674 140.389 85.9933 140.538C84.7352 143.01 84.3504 143.933 84.3504 144.424C84.3504 144.946 84.5872 146.643 84.9572 148.713C85.046 149.235 85.0756 149.756 85.0312 149.89C84.9868 150.009 86.2746 155.593 86.2746 155.846C86.2746 156.1 86.3782 156.561 86.4966 156.844C86.615 157.142 86.7186 157.559 86.7186 157.768C86.7186 157.976 86.7778 158.259 86.8518 158.408C87.0443 158.81 87.4735 160.522 87.5919 161.342C87.6955 162.19 88.0212 162.384 88.5392 161.893C89.5309 160.984 91.84 160.061 93.8086 159.778C94.4006 159.689 95.0075 159.555 95.1555 159.48C95.3035 159.391 95.792 159.331 96.2212 159.331C96.6505 159.316 97.1685 159.227 97.3757 159.108C97.583 158.989 98.101 158.899 98.5303 158.884C98.9595 158.884 99.596 158.825 99.9364 158.75C100.277 158.676 101.195 158.542 101.964 158.438C104.125 158.184 105.517 157.991 106.405 157.812C107.411 157.619 108.729 157.425 110.475 157.231C111.215 157.157 112.074 157.023 112.399 156.934C112.725 156.844 113.465 156.725 114.027 156.666C114.605 156.606 115.212 156.472 115.389 156.383C115.567 156.278 115.996 156.204 116.366 156.204C116.721 156.204 117.299 156.115 117.669 155.995C118.024 155.891 118.986 155.683 119.8 155.534C120.614 155.4 121.443 155.221 121.65 155.132C121.858 155.042 122.361 154.923 122.76 154.849C124.537 154.551 126.431 154.119 127.793 153.732C129.021 153.389 131.612 152.764 132.159 152.675C132.441 152.63 132.751 152.541 132.825 152.481C132.914 152.406 133.64 152.198 134.454 151.99C135.268 151.781 136.467 151.468 137.118 151.29C137.769 151.111 138.509 150.902 138.761 150.843C139.027 150.783 139.323 150.679 139.427 150.605C139.531 150.545 139.886 150.441 140.226 150.381C140.818 150.277 141.44 150.083 142.328 149.696C142.58 149.592 142.891 149.503 143.024 149.503C143.305 149.503 145.895 148.684 146.635 148.371C146.902 148.252 147.316 148.162 147.568 148.162C147.805 148.162 148.189 148.073 148.412 147.954C148.634 147.85 149.078 147.716 149.403 147.671C149.729 147.611 150.469 147.433 151.031 147.269C151.609 147.105 152.467 146.897 152.956 146.822C153.444 146.748 154.48 146.554 155.25 146.375C156.02 146.197 157.026 146.003 157.485 145.943C157.944 145.869 158.58 145.72 158.891 145.616C159.75 145.303 164.856 145.363 165.744 145.69C166.099 145.824 166.573 145.929 166.795 145.929C167.535 145.929 170.051 147.552 170.051 148.028C170.051 148.505 169.622 148.535 168.793 148.118C168.379 147.894 167.92 147.716 167.787 147.716C167.654 147.716 167.52 147.656 167.461 147.582C167.417 147.507 166.765 147.299 165.996 147.12C163.909 146.643 161.822 146.733 158.062 147.433C157.618 147.507 156.878 147.641 156.434 147.716C155.028 147.939 153.873 148.177 153.104 148.386C152.704 148.49 151.86 148.698 151.253 148.832C150.647 148.981 149.684 149.22 149.107 149.383C148.545 149.532 147.805 149.741 147.479 149.83C146.68 150.039 145.422 150.471 144.445 150.843C144.001 151.022 143.349 151.23 142.994 151.304C142.654 151.364 142.239 151.498 142.091 151.587C141.928 151.662 141.647 151.736 141.455 151.736C141.262 151.736 140.981 151.841 140.833 151.96C140.67 152.079 140.404 152.183 140.241 152.183C140.063 152.183 139.738 152.287 139.501 152.406C139.279 152.526 138.953 152.63 138.79 152.63C138.628 152.63 138.021 152.794 137.444 152.987C136.407 153.345 135.386 153.628 133.566 154.059C133.077 154.179 132.441 154.342 132.159 154.417C131.878 154.476 130.946 154.715 130.087 154.938C129.229 155.147 128.207 155.415 127.793 155.534C127.038 155.742 125.706 156.07 124.389 156.338C123.989 156.427 123.219 156.606 122.686 156.74C122.154 156.874 121.399 157.038 120.984 157.097C120.585 157.172 120.052 157.291 119.83 157.38C119.593 157.47 119.193 157.544 118.912 157.544C118.631 157.544 118.231 157.619 117.994 157.708C117.772 157.797 117.017 157.961 116.322 158.065C115.626 158.17 113.805 158.467 112.251 158.735C110.712 158.989 108.877 159.257 108.181 159.316C107.485 159.376 106.819 159.48 106.716 159.54C106.612 159.614 105.916 159.718 105.176 159.808C103.459 159.986 101.92 160.165 100.41 160.359C99.7588 160.433 98.6339 160.582 97.8938 160.657C97.1685 160.746 96.3248 160.88 96.0436 160.969C95.7624 161.044 95.2887 161.118 95.0075 161.118C94.7263 161.118 94.3562 161.222 94.2082 161.342C94.0454 161.461 93.631 161.565 93.2905 161.565C92.9501 161.565 92.4764 161.654 92.2396 161.773C92.0176 161.893 91.4551 162.101 91.0111 162.235C89.9158 162.578 88.8204 163.337 88.184 164.201C87.1627 165.571 86.8962 166.36 86.7038 168.713C86.6446 169.577 86.5114 170.515 86.4226 170.798C86.3486 171.081 86.2746 171.632 86.2746 172.004C86.2746 172.391 86.171 172.942 86.0526 173.225C85.9341 173.523 85.8305 174.134 85.8305 174.58C85.8305 175.027 85.7565 175.578 85.6529 175.816C85.5641 176.04 85.4309 176.799 85.3717 177.499C85.3125 178.199 85.1645 179.331 85.0312 180.031C84.898 180.731 84.6908 181.937 84.5724 182.711C84.0543 186.241 83.8915 187.223 83.8027 187.372C83.7435 187.462 83.6103 188.176 83.5067 188.951C83.3883 189.74 83.1958 191.021 83.0922 191.795C82.9738 192.57 82.811 193.82 82.7222 194.55C82.6334 195.295 82.515 195.995 82.4706 196.114C82.4262 196.233 82.3226 196.977 82.2634 197.752C82.0857 200.03 81.8341 202.204 81.6121 203.634C81.0348 207.238 81.0496 214.862 81.6269 216.962C82.1005 218.66 82.3374 219.3 82.8406 220.313C83.5511 221.772 84.5576 223.306 85.3717 224.185C86.0526 224.929 87.7843 226.136 88.4948 226.359C88.702 226.418 89.2349 226.612 89.6789 226.791C91.3959 227.461 93.0389 227.565 98.1898 227.312ZM183.151 197.067C183.314 196.948 183.713 196.858 184.039 196.858C184.379 196.858 184.986 196.769 185.386 196.65C185.785 196.531 186.466 196.397 186.91 196.337C187.813 196.233 188.257 196.039 188.243 195.771C188.243 195.667 187.902 195.324 187.488 194.997C186.777 194.446 185.771 193.24 185.756 192.927C185.741 192.852 185.652 192.674 185.534 192.555C185.43 192.421 185.119 191.78 184.868 191.125C184.601 190.47 184.187 189.517 183.95 188.995C183.713 188.489 183.521 188.013 183.521 187.938C183.521 187.864 183.417 187.611 183.299 187.387C183.18 187.149 183.077 186.806 183.077 186.628C183.077 186.33 182.707 185.987 182.366 185.987C182.292 185.987 182.248 187.253 182.248 188.861C182.248 191.051 182.174 192.361 181.893 194.446C181.626 196.531 181.582 197.201 181.73 197.29C181.967 197.439 182.796 197.305 183.151 197.067ZM195.14 196.054C195.969 195.861 196.635 195.652 197.36 195.354C197.523 195.28 197.819 195.161 198.026 195.071C198.234 194.982 198.604 194.803 198.84 194.654C199.092 194.505 199.669 194.163 200.158 193.895C201.075 193.389 203.651 191.274 203.651 191.021C203.651 190.946 203.962 190.47 204.332 189.963C205.368 188.608 205.472 187.894 205.057 185.243C204.924 184.468 204.805 183.59 204.776 183.307C204.761 183.024 204.657 182.488 204.569 182.116C204.228 180.716 192.55 129.22 192.417 128.356C192.357 127.984 192.254 127.582 192.18 127.463C192.106 127.344 192.002 126.986 191.943 126.644C191.676 125.169 191.351 123.785 191.203 123.531C191.114 123.382 191.025 123.04 190.996 122.787C190.966 122.534 190.848 121.923 190.714 121.432C190.448 120.479 190.078 118.826 189.915 117.858C189.856 117.485 189.723 117.247 189.575 117.217C189.382 117.187 189.308 117.351 189.219 118.007C189.027 119.585 188.376 120.717 186.659 122.414C185.652 123.427 182.929 125.586 182.337 125.869C182.218 125.929 181.922 126.108 181.671 126.271C181.241 126.54 179.495 127.418 178.562 127.82C178.325 127.924 177.955 128.088 177.748 128.178C176.52 128.729 174.211 129.443 173.693 129.429C173.471 129.414 173.086 129.503 172.849 129.622C172.612 129.756 172.02 129.845 171.443 129.845L170.466 129.845L170.584 130.709C170.643 131.171 170.688 132.035 170.658 132.6C170.643 133.196 170.703 133.836 170.806 134.09C170.91 134.343 171.043 135.341 171.102 136.323C171.206 137.991 171.339 139.406 171.694 142.503C171.768 143.203 171.887 144.276 171.946 144.886C172.005 145.497 172.109 146.107 172.198 146.226C172.272 146.346 172.39 146.882 172.449 147.418C172.553 148.445 172.701 149.22 173.071 150.917C173.204 151.498 173.382 152.332 173.456 152.779C173.545 153.226 173.663 153.896 173.722 154.268C173.796 154.64 173.915 155.176 174.003 155.459C174.225 156.174 174.507 157.351 174.625 158.065C174.684 158.408 174.788 158.765 174.862 158.884C174.921 158.989 175.04 159.331 175.099 159.614C175.38 160.939 175.646 161.967 175.809 162.354C175.898 162.592 175.972 162.92 175.972 163.099C175.972 163.277 176.076 163.62 176.194 163.858C176.312 164.082 176.416 164.409 176.416 164.573C176.416 164.737 176.49 164.99 176.564 165.154C176.653 165.303 176.771 165.72 176.845 166.062C176.993 166.747 177.215 167.462 177.526 168.192C177.645 168.445 177.763 168.847 177.793 169.085C177.837 169.338 178.118 170.202 178.414 171.021C178.71 171.84 178.992 172.719 179.066 172.957C179.125 173.21 179.243 173.538 179.332 173.702C179.421 173.865 179.569 174.238 179.658 174.521C180.264 176.278 180.501 176.933 180.886 177.767C181.108 178.273 181.301 178.854 181.301 179.048C181.301 179.241 181.404 179.48 181.523 179.584C181.641 179.688 181.745 179.897 181.745 180.06C181.745 180.209 181.937 180.731 182.174 181.207C182.396 181.669 182.736 182.473 182.914 182.994C183.092 183.5 183.373 184.23 183.536 184.617C184.113 185.898 184.513 186.806 184.69 187.283C184.794 187.551 184.971 187.849 185.09 187.938C185.208 188.028 185.297 188.206 185.297 188.31C185.297 188.43 185.504 188.951 185.741 189.457C185.993 189.978 186.185 190.514 186.185 190.634C186.185 190.768 186.289 190.946 186.407 191.051C186.526 191.155 186.629 191.304 186.629 191.393C186.629 191.825 187.369 192.986 188.228 193.91C189.293 195.042 190.67 195.965 191.306 195.965C191.543 195.965 191.839 196.039 191.958 196.114C192.283 196.322 194.104 196.292 195.14 196.054ZM81.4049 193.046C81.4641 192.242 81.5825 191.378 81.6713 191.155C81.7601 190.917 81.8341 190.5 81.8341 190.217C81.8341 189.695 82.1449 187.73 82.4262 186.464C82.515 186.121 82.7074 184.915 82.8554 183.783C83.0182 182.667 83.2551 181.49 83.3735 181.192C83.5067 180.88 83.6103 180.269 83.6103 179.837C83.6103 179.39 83.6695 178.839 83.7583 178.601C83.8323 178.363 83.9655 177.633 84.0691 176.978C84.158 176.323 84.3208 175.146 84.4392 174.372C84.5428 173.597 84.7056 172.347 84.7796 171.587C84.8536 170.842 84.9572 170.157 85.0016 170.068C85.0608 169.979 85.1645 169.294 85.2385 168.534C85.4753 166.122 85.5493 165.883 86.6742 163.724C86.8666 163.382 86.8814 163.188 86.7482 162.756C86.4966 161.922 86.1414 160.91 85.9785 160.642C85.8897 160.493 85.8305 160.254 85.8305 160.106C85.8305 159.971 85.1645 157.782 85.0312 157.246C83.9951 152.675 83.7287 151.245 83.6547 149.875C83.6103 149.22 83.5215 148.624 83.4475 148.55C83.3735 148.46 83.3143 148.133 83.3143 147.805C83.3143 147.001 83.1218 146.703 82.811 146.956C82.6778 147.075 82.5742 147.239 82.5742 147.358C82.5742 147.999 78.7998 149.949 77.5713 149.949C77.3344 149.949 77.068 150.039 76.9792 150.143C76.846 150.262 76.0763 150.351 74.685 150.396C72.6868 150.471 72.5831 150.485 72.6275 150.768C72.6571 150.932 72.8052 153.226 72.9532 155.861C73.1012 158.497 73.264 160.716 73.3084 160.791C73.3972 160.939 73.5896 162.592 73.8265 165.213C73.8857 165.869 73.9745 166.494 74.0485 166.598C74.1077 166.703 74.2113 167.268 74.2853 167.864C74.4629 169.502 74.8774 172.004 75.0254 172.495C75.1142 172.734 75.1734 173.21 75.1734 173.553C75.1734 173.88 75.277 174.297 75.3954 174.461C75.5138 174.61 75.6175 174.953 75.6175 175.221C75.6175 175.489 75.6767 175.846 75.7507 176.04C75.8247 176.233 75.9727 176.889 76.0615 177.499C76.1651 178.11 76.2983 178.75 76.3723 178.914C76.4908 179.197 76.698 179.956 76.9348 181.073C76.994 181.356 77.1272 181.743 77.216 181.922C77.3196 182.101 77.3936 182.413 77.3936 182.637C77.3936 182.845 77.4824 183.203 77.6009 183.426C77.7193 183.649 77.8525 184.171 77.9117 184.573C77.9561 184.99 78.0597 185.451 78.1337 185.615C78.2077 185.779 78.4001 186.419 78.5778 187.03C78.7554 187.64 79.0366 188.519 79.1994 188.966C79.3623 189.412 79.5251 189.919 79.5695 190.083C79.6139 190.246 79.8211 190.991 80.0579 191.721C80.2799 192.465 80.502 193.314 80.5464 193.627C80.65 194.267 80.9016 194.669 81.1532 194.58C81.242 194.55 81.3605 193.91 81.4049 193.046ZM204.628 193.284C205.101 193.21 205.546 193.076 205.634 192.986C205.708 192.912 206.108 192.838 206.508 192.838C206.907 192.838 207.485 192.778 207.781 192.689C208.077 192.614 208.979 192.436 209.794 192.301C210.608 192.167 211.57 192.004 211.925 191.944C212.621 191.825 213.139 191.378 212.798 191.185C212.695 191.14 212.029 191.051 211.333 191.006C210.341 190.961 209.868 190.842 209.261 190.529C208.343 190.083 207.07 188.832 206.774 188.102C206.552 187.581 206.271 187.536 206.197 188.013C206.049 188.847 205.546 190.276 205.294 190.544C205.146 190.723 204.894 191.08 204.761 191.348C204.48 191.899 203.518 192.838 203.251 192.838C203.044 192.838 202.985 193.314 203.162 193.478C203.222 193.537 203.37 193.552 203.518 193.508C203.651 193.463 204.154 193.359 204.628 193.284ZM213.02 190.291C213.642 190.008 213.731 189.561 213.405 188.415C213.257 187.864 213.124 187.015 213.124 186.553C213.124 186.092 213.065 185.66 212.976 185.615C212.902 185.57 212.828 185.064 212.828 184.513C212.828 183.962 204.213 128.982 204.213 128.684C204.213 128.386 204.125 127.805 204.006 127.403C203.888 127.001 203.799 126.405 203.799 126.093C203.799 125.765 203.74 125.393 203.651 125.244C203.518 124.976 203.325 123.799 203.088 121.878C203.029 121.387 202.896 120.836 202.792 120.657C202.689 120.479 202.615 119.972 202.615 119.54C202.6 119.109 202.511 118.587 202.393 118.379C202.274 118.17 202.186 117.768 202.171 117.47C202.171 116.934 201.608 115.326 201.209 114.701C200.75 114.016 200.113 114.001 198.322 114.626C197.597 114.879 197.36 114.894 196.176 114.745C195.318 114.641 194.696 114.477 194.415 114.284C193.941 113.971 192.89 113.926 191.218 114.15C190.078 114.313 189.974 114.507 190.522 115.535C190.714 115.907 191.07 116.994 191.277 117.932C191.78 120.062 191.913 120.627 192.18 121.625C192.653 123.382 192.875 124.142 193.023 124.559C193.112 124.812 193.231 125.303 193.29 125.676C193.438 126.584 193.882 128.505 194.045 128.922C194.119 129.116 205.93 182.473 206.019 183.009C206.093 183.545 206.226 184.171 206.3 184.409C206.389 184.632 206.463 185.049 206.463 185.332C206.463 186.106 207.248 187.64 208.047 188.445C208.846 189.234 210.238 189.963 211.481 190.232C212.591 190.485 212.606 190.485 213.02 190.291ZM75.5434 148.758C76.4315 148.609 77.1568 148.46 78.1337 148.192C79.6879 147.775 81.8489 146.36 82.4262 145.378C82.6186 145.05 82.7222 144.603 82.7222 144.097C82.7222 143.516 82.8406 143.084 83.1811 142.429C83.4327 141.938 83.7287 141.372 83.8323 141.163C83.9359 140.955 84.1432 140.493 84.2764 140.121C84.4096 139.748 84.6168 139.227 84.7352 138.959C84.8536 138.691 84.9424 138.259 84.9424 137.991C84.9424 137.723 85.046 137.366 85.1645 137.202C85.4753 136.785 85.4309 136.428 85.0164 136.026C84.7796 135.772 84.4984 135.653 84.158 135.653C83.8915 135.653 83.5955 135.579 83.5215 135.504C83.4327 135.415 81.3457 134.76 81.1384 134.76C80.7536 134.76 79.6435 134.432 78.7702 134.06C78.5186 133.956 74.6406 132.928 73.2492 132.6C72.8052 132.496 72.0651 132.273 71.621 132.094C71.177 131.93 70.4073 131.692 69.9189 131.573C69.4304 131.454 68.6607 131.245 68.2167 131.111C67.7726 130.977 67.2102 130.828 66.9585 130.784C66.7217 130.739 66.4553 130.65 66.3665 130.59C66.2925 130.531 65.8484 130.396 65.4044 130.292C64.9603 130.188 64.5311 130.054 64.4423 129.994C64.3683 129.935 64.1018 129.845 63.8502 129.786C63.3174 129.667 61.8668 129.22 59.7798 128.55C58.9213 128.282 56.5826 127.493 56.0054 127.329C55.4429 127.165 54.5104 126.897 53.9332 126.718C53.3707 126.54 52.7342 126.361 52.527 126.316C52.3198 126.271 52.0978 126.182 52.009 126.123C51.935 126.063 50.7656 125.676 49.4187 125.244C48.0718 124.812 46.7544 124.365 46.488 124.246C46.2216 124.127 45.8959 124.038 45.7479 124.038C45.6147 124.038 43.8533 123.457 43.5129 123.278C43.1576 123.114 42.1659 122.757 41.3074 122.489C40.4342 122.221 39.4869 121.878 39.2056 121.729C38.9244 121.581 38.4951 121.402 38.2435 121.342C37.6959 121.208 36.8522 120.91 36.5117 120.747C36.3637 120.672 36.1713 120.613 36.0825 120.613C35.9937 120.613 35.7125 120.523 35.4608 120.404C35.1944 120.3 34.5875 120.076 34.0991 119.913C32.3673 119.317 30.2507 118.528 29.9991 118.379C29.851 118.304 29.5846 118.23 29.407 118.23C29.2146 118.23 28.9333 118.126 28.7853 118.007C28.6225 117.887 28.3413 117.783 28.1637 117.783C27.986 117.783 27.6456 117.694 27.4088 117.575C27.1868 117.456 26.4911 117.217 25.8842 117.039C25.2774 116.845 24.4041 116.577 23.96 116.443C22.7167 116.041 21.8582 115.937 19.5196 115.951C17.1365 115.951 16.3668 116.056 15.8192 116.443C15.6119 116.577 15.1827 116.785 14.8571 116.875C14.2798 117.053 13.9986 117.158 13.0809 117.56C12.8441 117.664 12.2076 117.902 11.6747 118.081C11.1419 118.26 10.5794 118.468 10.4166 118.528C10.2538 118.587 9.69132 118.766 9.15846 118.9C8.62561 119.049 8.06315 119.243 7.90033 119.347C7.73751 119.451 7.36748 119.57 7.08625 119.63C6.80502 119.674 6.00573 120.017 5.31006 120.359L4.05193 121L4.09633 121.625C4.14074 122.37 4.91042 124.723 5.23605 125.08C5.35446 125.214 5.45807 125.393 5.45807 125.467C5.45807 125.706 7.21946 127.388 8.06315 127.969C8.47759 128.252 9.11406 128.58 9.4693 128.714C9.82453 128.833 10.5942 129.116 11.1567 129.339C11.7339 129.548 12.326 129.756 12.4888 129.801C12.6516 129.86 12.9181 129.979 13.0809 130.099C13.2437 130.203 13.5101 130.292 13.6729 130.292C13.9838 130.292 16.5592 131.305 17.4769 131.796C17.773 131.945 18.1134 132.079 18.217 132.079C18.3798 132.079 19.7416 132.69 20.7037 133.196C21.3105 133.509 21.9322 133.822 22.4799 134.06C22.7611 134.179 23.4272 134.477 23.96 134.73C25.4994 135.43 29.1998 136.994 29.3478 136.994C29.4218 136.994 29.5994 137.083 29.7178 137.202C29.851 137.306 30.3247 137.515 30.7687 137.664C31.5976 137.917 33.3294 138.646 34.0547 139.019C34.2619 139.138 34.5727 139.227 34.7356 139.227C34.8984 139.227 35.1056 139.317 35.1944 139.436C35.2832 139.555 35.5496 139.674 35.7717 139.719C35.9937 139.763 36.7042 139.987 37.3554 140.21C38.5248 140.612 38.88 140.746 39.9901 141.223C40.3009 141.357 40.6562 141.461 40.7746 141.461C40.9078 141.461 41.189 141.55 41.3963 141.67C41.6183 141.789 42.4916 142.087 43.3501 142.34C44.2085 142.593 45.1114 142.876 45.3483 142.965C45.5999 143.054 46.0439 143.174 46.3548 143.248C46.6656 143.308 47.006 143.442 47.0949 143.531C47.1837 143.62 47.4945 143.695 47.7757 143.695C48.0718 143.695 48.4418 143.799 48.5898 143.918C48.7526 144.037 49.0783 144.142 49.3151 144.142C49.5371 144.142 49.8775 144.216 50.0552 144.32C50.2328 144.41 50.6472 144.544 50.9729 144.603C51.7869 144.737 53.0007 145.05 53.2819 145.184C53.4151 145.258 56.1238 145.929 56.3754 145.929C56.6271 145.929 56.9823 146.003 57.1599 146.107C57.3375 146.212 57.8556 146.331 58.2996 146.405C58.7437 146.465 59.4098 146.584 59.7798 146.673C60.6383 146.867 62.0148 147.12 63.0065 147.254C63.421 147.314 68.5275 148.237 68.7051 148.326C68.8828 148.43 69.4156 148.52 69.9189 148.55C70.4073 148.579 71.3102 148.654 71.9171 148.728C73.4712 148.922 74.5073 148.922 75.5434 148.758ZM85.3273 134.715C85.3569 134.611 85.2977 134.313 85.1645 134.075C85.046 133.836 84.9424 133.568 84.9424 133.479C84.9424 132.794 83.5659 131.007 82.6926 130.56C81.02 129.711 80.2799 129.399 79.9099 129.399C79.6879 129.399 79.4215 129.294 79.3178 129.175C79.1994 129.041 78.8738 128.952 78.4445 128.952C78.0745 128.937 77.6009 128.848 77.3936 128.729C77.1864 128.609 76.6832 128.52 76.2687 128.505C75.8543 128.505 75.3954 128.416 75.2326 128.282C75.0846 128.163 74.6406 128.058 74.2557 128.058C73.8709 128.058 73.3824 127.984 73.1456 127.895C72.9236 127.79 72.4351 127.671 72.0651 127.612C71.695 127.552 70.8662 127.344 70.2149 127.165C69.5636 126.986 68.7347 126.778 68.3647 126.703C68.0095 126.629 67.6394 126.495 67.5654 126.42C67.4766 126.331 67.2102 126.271 66.9585 126.271C66.7069 126.271 66.4257 126.197 66.3369 126.108C66.2481 126.018 65.9076 125.884 65.5968 125.825C65.0788 125.706 64.8271 125.631 63.4802 125.155C63.1989 125.05 62.2664 124.753 61.408 124.484C60.5495 124.231 59.6614 123.933 59.4098 123.829C59.1729 123.725 58.5661 123.516 58.0776 123.368C57.5892 123.219 57.1155 123.025 57.0119 122.951C56.9083 122.876 56.6123 122.757 56.3458 122.697C55.8426 122.563 54.5992 122.161 54.0812 121.953C53.9184 121.893 53.3855 121.729 52.8971 121.581C52.4086 121.447 51.7721 121.238 51.4909 121.119C51.2097 121 50.6768 120.836 50.3068 120.747C49.9368 120.672 49.4039 120.538 49.1227 120.464C48.5454 120.33 47.8053 120.076 47.0801 119.779C46.8136 119.66 46.414 119.57 46.1772 119.57C45.9403 119.57 45.6739 119.466 45.5703 119.347C45.4667 119.228 45.1855 119.123 44.9486 119.123C44.697 119.123 44.327 119.034 44.1197 118.915C43.8977 118.796 42.9208 118.453 41.9439 118.155C40.3009 117.649 38.8504 117.143 37.5775 116.651C37.2962 116.547 36.6894 116.339 36.2453 116.205C35.8013 116.071 35.1944 115.877 34.9132 115.773C34.6319 115.669 33.9955 115.445 33.507 115.281C32.2637 114.849 31.716 114.656 30.6947 114.269C30.2063 114.09 29.2738 113.792 28.6225 113.613C27.9712 113.435 27.246 113.226 26.9943 113.137C26.7575 113.062 26.2543 112.928 25.8842 112.854C25.529 112.78 25.1589 112.646 25.0849 112.571C24.9961 112.482 24.6705 112.422 24.3301 112.422C23.9896 112.422 23.59 112.318 23.4272 112.199C23.2791 112.08 22.8499 111.975 22.4799 111.975C22.1098 111.975 21.6806 111.886 21.5178 111.767C21.2957 111.618 20.7185 111.573 19.0755 111.603C17.0329 111.633 16.6184 111.707 15.5971 112.199C15.3603 112.303 15.0495 112.437 14.9311 112.497C14.8127 112.541 14.339 112.809 13.895 113.092C12.4592 113.971 11.3195 114.507 9.97255 114.879C9.4841 115.013 8.89204 115.222 8.67001 115.341C8.43319 115.46 8.09275 115.549 7.91513 115.549C7.01224 115.549 5.07323 117.024 4.7328 117.962C4.62919 118.23 4.42197 118.706 4.25915 119.004C3.99272 119.525 4.00752 120.017 4.30355 120.017C4.37756 120.017 4.65879 119.853 4.91042 119.66C5.56169 119.183 6.28696 118.811 7.08625 118.587C8.03355 118.319 9.4989 117.798 10.4462 117.396C10.6978 117.277 11.0679 117.187 11.2751 117.187C11.4823 117.187 11.7043 117.128 11.7487 117.039C11.7931 116.964 11.9412 116.89 12.0596 116.89C12.178 116.89 12.5924 116.756 12.9773 116.577C13.3621 116.413 13.8062 116.22 13.969 116.145C14.1318 116.071 14.8275 115.803 15.5231 115.549C16.2188 115.281 16.9589 114.984 17.1809 114.864C17.7286 114.567 21.5178 114.581 22.0358 114.879C22.243 114.998 22.6131 115.088 22.8499 115.103C23.886 115.103 29.3182 116.696 29.9547 117.173C30.0287 117.232 30.5023 117.411 30.9908 117.545C31.4792 117.694 32.3525 117.977 32.915 118.185C33.4922 118.394 34.1139 118.587 34.3211 118.632C34.5283 118.677 34.7652 118.781 34.8688 118.855C34.9724 118.945 35.2684 119.064 35.5348 119.123C36.1121 119.257 38.1991 119.972 38.8356 120.24C39.0872 120.33 39.5313 120.538 39.8421 120.672C40.1529 120.806 40.5526 120.91 40.7302 120.91C40.9226 120.91 41.1298 120.97 41.2186 121.044C41.3815 121.223 42.1511 121.506 44.3122 122.191C45.2151 122.489 46.2068 122.817 46.5324 122.951C47.8941 123.472 49.0487 123.874 49.9368 124.112C50.3512 124.231 50.9877 124.425 51.3429 124.559C51.7129 124.693 52.2458 124.857 52.527 124.931C53.1043 125.065 53.8296 125.318 54.5696 125.616C54.8361 125.735 59.6466 127.165 60.6679 127.493C61.6892 127.805 62.8881 128.178 63.3322 128.312C63.7762 128.446 64.2203 128.609 64.2943 128.669C64.4423 128.758 64.7827 128.863 68.3647 129.845C70.4961 130.426 71.6062 130.754 71.9911 130.903C72.2723 131.022 73.486 131.35 74.5813 131.632C74.8626 131.692 75.4694 131.901 75.9135 132.079C76.3575 132.243 77.0236 132.452 77.3936 132.526C77.7637 132.586 78.2669 132.72 78.5038 132.794C78.7554 132.883 79.6435 133.166 80.502 133.419C81.3605 133.688 82.6926 134.119 83.4623 134.387C85.0757 134.953 85.2237 134.983 85.3273 134.715ZM83.2847 129.101C83.3587 128.699 82.959 128.312 82.6038 128.416C82.0117 128.609 82.3226 129.458 82.9442 129.369C83.107 129.339 83.2551 129.22 83.2847 129.101ZM171.783 128.237C171.961 128.133 172.36 128.058 172.671 128.058C172.997 128.058 173.382 127.954 173.545 127.835C173.693 127.716 174.003 127.612 174.211 127.612C174.433 127.612 174.803 127.507 175.025 127.388C175.262 127.269 175.587 127.165 175.765 127.165C176.179 127.165 178.222 126.331 179.894 125.482C181.626 124.604 184.468 122.549 185.667 121.298C186.333 120.613 186.984 119.734 187.384 118.989C187.576 118.632 187.828 118.17 187.946 117.962C188.139 117.604 188.124 117.56 187.754 117.232C187.532 117.039 187.266 116.89 187.162 116.89C187.044 116.89 186.674 116.726 186.318 116.532C185.963 116.324 185.267 116.056 184.779 115.922C182.884 115.4 182.396 115.237 181.478 114.864C181.212 114.745 180.901 114.656 180.797 114.656C180.59 114.656 179.214 114.15 178.755 113.896C178.607 113.822 178.385 113.762 178.266 113.762C178.148 113.762 177.926 113.703 177.778 113.628C177.467 113.465 177.112 113.331 173.678 112.065C172.212 111.529 170.954 111.082 170.895 111.082C170.747 111.082 169.859 110.71 169.282 110.397C169.074 110.278 168.764 110.188 168.601 110.188C168.438 110.188 168.231 110.099 168.142 109.98C168.053 109.861 167.816 109.742 167.639 109.697C167.461 109.652 166.943 109.474 166.499 109.295C166.055 109.116 165.285 108.833 164.797 108.669C164.308 108.506 163.805 108.267 163.672 108.163C163.554 108.044 163.317 107.955 163.154 107.955C162.991 107.955 162.799 107.895 162.71 107.821C162.636 107.746 162.31 107.582 161.985 107.463C159.735 106.629 159.305 106.451 156.73 105.244C156.197 104.991 155.575 104.708 155.324 104.604C155.087 104.5 153.814 103.964 152.512 103.413C150.232 102.445 149.166 101.953 146.28 100.568C145.555 100.211 144.859 99.9131 144.77 99.9131C144.667 99.9131 144.341 99.7642 144.03 99.5706C143.734 99.377 143.083 99.0345 142.594 98.8111C141.44 98.275 135.386 95.2073 132.455 93.6734C131.197 93.0033 130.072 92.4374 129.984 92.3927C129.88 92.3481 129.702 92.2885 129.614 92.2438C129.51 92.1991 128.696 91.7673 127.793 91.2759C125.499 90.0249 121.339 87.9997 121.073 87.9997C120.999 87.9997 120.422 87.8359 119.785 87.6274C118.187 87.1062 117.698 87.0466 115.73 87.0615C114.087 87.0764 113.465 87.1806 110.475 87.9401C109.987 88.0592 109.35 88.223 109.069 88.2826C108.788 88.3571 108.358 88.4911 108.107 88.5656C107.278 88.8485 106.035 89.1612 105.324 89.2655C104.925 89.3101 104.332 89.4591 104.007 89.5782C103.681 89.6973 103.222 89.7867 103 89.7867C102.778 89.7867 102.349 89.8909 102.068 90.0101C101.772 90.1292 101.357 90.2334 101.135 90.2334C100.721 90.2334 99.6848 90.5462 98.5599 90.9929C98.1898 91.1418 97.7014 91.2907 97.4794 91.3503C96.9909 91.4546 96.7837 91.9162 96.7541 92.9735C96.7245 94.1351 96.9761 95.2817 97.4942 96.2944C98.0862 97.441 100.425 99.8535 101.905 100.821C104.258 102.37 104.614 102.594 104.703 102.594C104.762 102.594 105.309 102.936 105.901 103.338C106.494 103.755 107.308 104.261 107.692 104.47C108.092 104.693 109.454 105.557 110.727 106.406C112 107.255 113.08 107.955 113.139 107.955C113.184 107.955 113.939 108.431 114.797 109.012C115.67 109.593 116.485 110.114 116.618 110.159C116.736 110.203 116.914 110.322 116.988 110.412C117.077 110.501 117.432 110.71 117.802 110.858C118.172 111.022 118.882 111.439 119.4 111.782C119.919 112.139 120.437 112.422 120.54 112.422C120.659 112.422 120.969 112.616 121.236 112.839C121.502 113.077 122.124 113.465 122.612 113.718C123.101 113.971 124.167 114.522 124.981 114.954C125.795 115.386 127.201 116.1 128.089 116.547C128.992 116.994 129.821 117.411 129.939 117.485C130.058 117.575 130.368 117.724 130.605 117.843C131.523 118.26 133.432 119.153 133.936 119.391C134.217 119.525 134.557 119.719 134.676 119.808C134.794 119.898 135.061 120.017 135.268 120.062C135.875 120.196 136.748 120.553 136.926 120.732C137.029 120.836 137.236 120.91 137.399 120.91C137.577 120.91 137.843 121.015 137.991 121.134C138.154 121.253 138.435 121.357 138.613 121.357C138.79 121.357 139.013 121.447 139.101 121.566C139.19 121.685 139.457 121.804 139.679 121.849C140.211 121.953 142.669 122.802 142.994 122.995C143.142 123.085 143.364 123.144 143.483 123.144C143.616 123.144 143.867 123.234 144.045 123.353C144.223 123.472 144.637 123.606 144.963 123.665C145.288 123.725 145.629 123.814 145.703 123.874C145.792 123.933 146.25 124.112 146.739 124.246C147.227 124.395 147.79 124.574 147.997 124.648C148.204 124.723 148.767 124.872 149.255 124.991C150.217 125.214 152.023 125.765 152.512 125.974C152.674 126.048 153.074 126.137 153.4 126.182C154.095 126.286 155.057 126.48 155.99 126.703C157.485 127.076 157.944 127.165 158.403 127.165C158.654 127.18 159.039 127.269 159.246 127.388C159.453 127.507 159.957 127.597 160.371 127.612C160.771 127.612 161.2 127.701 161.289 127.79C161.392 127.895 162.059 128.029 162.769 128.103C163.48 128.163 164.619 128.267 165.315 128.341C167.15 128.52 171.384 128.446 171.783 128.237ZM85.3569 127.016C86.8518 126.718 88.5244 126.182 89.5753 125.691C90.9223 125.065 92.432 124.321 92.6392 124.187C92.9945 123.948 95.7328 122.697 95.8808 122.697C95.9548 122.697 96.4433 122.489 96.9465 122.236C99.5812 120.955 101.727 120.017 102.023 120.017C102.112 120.017 102.541 119.868 103 119.704C105.235 118.84 105.62 118.692 105.961 118.632C106.168 118.587 106.76 118.409 107.293 118.23C107.826 118.051 109.025 117.664 109.957 117.381C110.89 117.083 111.896 116.756 112.177 116.651C112.459 116.562 113.095 116.354 113.583 116.22C114.072 116.086 114.634 115.922 114.842 115.847C115.049 115.788 115.744 115.579 116.396 115.4C117.047 115.207 117.861 114.969 118.216 114.849C118.557 114.745 119.045 114.656 119.267 114.656C119.771 114.656 120.407 114.179 120.259 113.941C120.2 113.837 120.037 113.762 119.904 113.762C119.771 113.762 119.489 113.673 119.282 113.554C119.075 113.45 118.483 113.122 117.95 112.839C117.106 112.392 116.588 112.095 115.508 111.424C112.873 109.816 111.659 109.042 110.993 108.565C110.549 108.238 109.321 107.448 108.255 106.793C107.204 106.138 105.798 105.274 105.147 104.857C104.495 104.44 103.444 103.785 102.823 103.413C99.0779 101.149 96.5765 98.5877 95.6292 96.0263C95.1851 94.835 95.1555 94.6414 95.1555 92.8097C95.1555 91.4248 95.2147 90.71 95.3775 90.3377C95.4959 90.0398 95.5996 89.608 95.5996 89.3846C95.5996 89.1612 95.7032 88.8336 95.8216 88.6847C95.94 88.5209 96.0436 88.2379 96.0436 88.0592C96.0436 87.7167 96.5765 86.8083 97.435 85.7063C98.0122 84.9469 99.5368 83.83 99.9808 83.83C100.558 83.83 100.543 83.5321 99.9216 82.8918C99.3592 82.2961 98.2638 80.7921 98.2638 80.5687C98.2638 80.524 98.0714 80.0922 97.8346 79.6305C97.5978 79.154 97.3165 78.5285 97.2277 78.2158C97.1241 77.9031 96.9613 77.4563 96.8577 77.2032C96.3396 75.9522 96.2064 75.5055 96.1176 74.8205C96.0584 74.4184 95.9696 73.6738 95.9104 73.1824C95.8512 72.691 95.7328 72.1251 95.644 71.9166C95.57 71.7081 95.5256 71.2762 95.57 70.9337C95.5996 70.5763 95.5256 70.0998 95.3923 69.7722C95.2295 69.385 95.1555 68.7446 95.1555 67.8065C95.1555 67.0172 95.0667 66.1386 94.9483 65.7812C94.8003 65.3493 94.6967 63.9942 94.6375 61.7157C94.5042 57.6652 94.4598 46.1241 94.5634 45.4837C94.6523 44.9178 94.371 44.8434 93.2461 45.1859C91.6919 45.6326 90.9371 45.8411 89.6049 46.1539C88.8797 46.3326 88.036 46.5262 87.7547 46.6006C87.4735 46.6751 86.837 46.824 86.3486 46.9431C84.6908 47.3452 80.4724 48.6259 79.3771 49.0726C78.8886 49.2662 78.2817 49.43 78.0449 49.43C77.8081 49.43 77.4825 49.5343 77.3344 49.6534C77.1716 49.7726 76.8756 49.8768 76.6684 49.8768C76.4611 49.8768 76.1503 49.981 76.0023 50.1002C75.8395 50.2193 75.5731 50.3236 75.3954 50.3236C75.2178 50.3236 74.9514 50.4278 74.7886 50.5469C74.6405 50.6661 74.4037 50.7703 74.2853 50.7703C73.9449 50.7703 71.4582 51.6042 69.9189 52.2148C69.1936 52.5126 68.2907 52.8254 67.9206 52.9445C66.9734 53.2126 65.9668 53.5848 65.6708 53.7487C65.5228 53.838 65.286 53.8976 65.138 53.8976C64.9899 53.8976 64.7383 54.0018 64.5755 54.1209C64.4275 54.2401 64.1462 54.3443 63.9834 54.3443C63.8058 54.3443 63.5838 54.4486 63.4802 54.5677C63.3766 54.6868 63.1841 54.7911 63.0509 54.7911C62.9177 54.7911 62.3553 54.9847 61.778 55.2229C60.0758 55.9229 59.1433 56.2951 58.6697 56.4738C58.1072 56.6674 57.3079 57.0099 56.7899 57.278C56.5827 57.3822 56.331 57.4716 56.2274 57.4716C56.1238 57.4716 55.8426 57.5609 55.591 57.6801C54.8657 58.0077 53.9332 58.4098 52.305 59.1097C50.4992 59.8692 49.0043 60.5244 47.9681 61.0009C47.5241 61.2094 46.9172 61.4626 46.6064 61.5668C46.3104 61.6711 45.3483 62.1029 44.4898 62.5199C43.6313 62.9369 42.8764 63.2794 42.8172 63.2794C42.758 63.2794 42.2399 63.5027 41.6627 63.7857C40.3749 64.4111 38.0807 65.4982 36.3933 66.2875C35.6977 66.6151 35.0316 66.9278 34.9132 67.0023C34.7948 67.0768 34.3951 67.2852 34.0251 67.4491C33.655 67.6278 33.0926 67.9107 32.7669 68.0894C32.4413 68.2681 32.0121 68.4766 31.8196 68.5659C31.0944 68.8787 25.3958 71.8123 24.9221 72.1102C24.6705 72.274 24.3005 72.4974 23.1459 73.2122C22.9831 73.3164 22.7019 73.4653 22.5095 73.5398C21.9322 73.8078 20.4076 75.4013 20.4076 75.7438C20.4076 75.9225 20.3484 76.1161 20.2596 76.1607C20.1856 76.2054 20.1116 76.5926 20.1116 76.9947C20.1116 77.4116 20.0376 77.8882 19.934 78.0669C19.8304 78.2456 19.712 79.1689 19.6528 80.107C19.5936 81.0452 19.4751 82.2515 19.3863 82.7876C19.1495 84.2767 19.1939 91.2907 19.4455 92.4672C19.564 93.0033 19.6528 94.1202 19.6676 94.9392C19.6676 95.9816 19.7416 96.6369 19.9044 97.0241C20.0376 97.3219 20.0968 97.7687 20.0524 97.9771C20.0228 98.2005 20.0672 98.543 20.1708 98.7515C20.2744 98.96 20.4076 99.3621 20.4669 99.645C20.6593 100.673 21.7546 103.174 22.6723 104.678C24.6261 107.865 28.7261 111.975 29.9398 111.975C30.0435 111.975 30.2211 112.065 30.3099 112.184C30.3987 112.288 30.6947 112.422 30.9612 112.467C31.2128 112.511 31.8196 112.72 32.2785 112.928C32.7373 113.137 33.211 113.316 33.3146 113.316C33.4182 113.316 33.6402 113.42 33.7883 113.539C33.9511 113.658 34.2471 113.762 34.4691 113.762C34.6763 113.762 34.9724 113.852 35.1352 113.971C35.298 114.075 35.594 114.209 35.8013 114.254C36.0085 114.299 36.8374 114.567 37.6515 114.864C38.4655 115.162 39.8717 115.654 40.7598 115.937C41.6627 116.234 42.5952 116.562 42.832 116.666C43.0836 116.771 43.6757 116.964 44.1641 117.113C44.6526 117.247 45.2151 117.441 45.4223 117.515C45.6295 117.604 46.0291 117.724 46.3104 117.798C46.5916 117.858 47.1689 118.021 47.5685 118.141C47.9829 118.275 48.6046 118.453 48.9747 118.543C49.3447 118.632 49.8627 118.811 50.1292 118.915C50.7656 119.183 52.1422 119.183 52.3642 118.915C52.4678 118.796 52.7787 118.662 53.0747 118.602C53.3559 118.558 53.9628 118.349 54.4216 118.141C54.8657 117.947 55.2949 117.783 55.3689 117.783C55.4429 117.783 56.1534 117.456 56.9379 117.068C57.7224 116.666 58.7437 116.16 59.1877 115.937C60.8899 115.073 62.2664 114.313 63.1101 113.762C63.3618 113.599 63.717 113.39 63.9242 113.301C64.1314 113.226 64.5015 112.988 64.7679 112.78C65.0195 112.586 65.3008 112.422 65.3748 112.422C65.4636 112.422 65.8632 112.184 66.2925 111.901C66.7217 111.618 67.1214 111.38 67.1954 111.38C67.2694 111.38 67.6098 111.201 67.965 110.978C69.1936 110.188 73.3972 108.029 73.9597 107.88C74.1817 107.821 74.4629 107.687 74.5961 107.567C74.8478 107.344 76.4167 106.778 78.2817 106.257C78.9774 106.063 80.1763 105.721 80.946 105.512C81.7157 105.289 83.1811 104.902 84.2024 104.664C85.2237 104.41 86.3486 104.113 86.7186 103.993C87.0887 103.874 87.6511 103.785 87.9916 103.785C88.3172 103.785 88.6428 103.725 88.7316 103.636C88.8056 103.562 89.2793 103.428 89.7529 103.353C90.2414 103.279 91.2331 103.1 91.9436 102.966C92.6688 102.832 93.2905 102.742 93.3201 102.787C93.3645 102.817 93.3201 103.025 93.2461 103.234C93.1277 103.532 92.9797 103.621 92.4616 103.681C91.7067 103.785 90.3154 104.068 89.901 104.232C89.4865 104.381 88.3616 104.664 87.8435 104.753C87.6067 104.783 87.1035 104.917 86.7334 105.036C86.3634 105.155 85.7565 105.304 85.3865 105.349C85.0164 105.408 84.454 105.542 84.1283 105.646C83.8027 105.751 83.1366 105.959 82.6482 106.093C82.1597 106.227 81.6269 106.406 81.4641 106.465C81.3013 106.54 80.7388 106.719 80.2059 106.853C79.6731 106.987 79.0662 107.195 78.8442 107.314C78.6222 107.419 78.2817 107.508 78.0893 107.508C77.8969 107.508 77.6157 107.612 77.4529 107.731C77.3048 107.85 77.0384 107.955 76.8756 107.955C76.7128 107.955 76.4463 108.044 76.2835 108.163C76.1207 108.267 75.8247 108.416 75.6175 108.476C75.1142 108.625 70.6737 110.859 70.1705 111.201C69.9485 111.35 69.6672 111.529 69.5488 111.573C69.4304 111.633 69.1344 111.812 68.8827 111.975C68.6459 112.139 68.3351 112.303 68.2167 112.363C68.0983 112.407 67.891 112.511 67.7726 112.586C67.6542 112.66 67.225 112.899 66.8253 113.122C66.0704 113.569 65.9964 113.599 65.0047 114.254C64.6495 114.477 64.3239 114.656 64.2647 114.656C64.1907 114.656 63.9094 114.82 63.6282 115.013C62.9473 115.475 57.5596 118.23 57.3227 118.23C57.2339 118.23 57.0711 118.319 56.9823 118.438C56.8787 118.558 56.5827 118.706 56.331 118.766C56.0646 118.811 55.5317 119.019 55.1469 119.228C54.7621 119.421 54.3772 119.54 54.3032 119.496C54.0812 119.362 53.4151 119.585 53.4151 119.808C53.4151 120.062 54.0516 120.389 54.8213 120.523C55.5021 120.642 56.257 120.866 56.8935 121.134C57.4263 121.342 57.7372 121.461 60.4459 122.414C61.5856 122.817 62.6069 123.144 62.7105 123.144C62.8289 123.144 63.1249 123.234 63.3766 123.353C64.0426 123.651 66.6181 124.425 67.8318 124.708C68.3943 124.842 69.0456 125.05 69.2676 125.169C69.4896 125.289 69.9041 125.378 70.1705 125.378C70.4369 125.378 70.7921 125.482 70.9402 125.601C71.103 125.72 71.473 125.825 71.7542 125.825C72.0355 125.825 72.4647 125.884 72.7163 125.959C73.1604 126.093 74.0781 126.301 75.5434 126.569C75.9579 126.659 77.0384 126.822 77.9709 126.942C78.8886 127.061 79.6879 127.195 79.7323 127.239C79.7767 127.284 80.7388 127.314 81.8785 127.314C83.3439 127.314 84.3504 127.225 85.3569 127.016ZM188.405 116.13C188.405 115.788 188.035 114.522 187.739 113.822C187.443 113.107 185.993 111.633 185.238 111.261C184.868 111.067 184.527 110.858 184.483 110.769C184.424 110.695 184.276 110.635 184.128 110.635C183.98 110.635 183.772 110.531 183.669 110.412C183.565 110.293 183.343 110.188 183.18 110.188C183.018 110.188 182.766 110.099 182.648 109.995C182.514 109.876 181.878 109.578 181.227 109.31C180.575 109.042 179.85 108.729 179.628 108.61C179.391 108.491 179.125 108.401 179.006 108.401C178.903 108.401 178.74 108.297 178.636 108.178C178.533 108.059 178.355 107.955 178.237 107.955C178.118 107.955 177.63 107.761 177.127 107.508C176.638 107.27 176.179 107.061 176.105 107.061C175.972 107.061 174.507 106.406 173.559 105.929C173.323 105.81 173.056 105.721 172.967 105.721C172.864 105.721 172.242 105.453 171.561 105.125C170.88 104.798 170.273 104.53 170.199 104.53C170.125 104.53 169.578 104.306 168.986 104.023C167.905 103.517 167.343 103.264 166.351 102.891C166.07 102.772 165.7 102.594 165.537 102.489C165.374 102.385 165.167 102.296 165.048 102.296C164.945 102.296 164.338 102.057 163.716 101.76C163.095 101.447 162.384 101.119 162.133 101.03C161.896 100.926 161.526 100.762 161.318 100.687C161.111 100.598 160.356 100.285 159.616 99.9875C158.891 99.6897 157.751 99.1834 157.1 98.8706C156.449 98.5579 155.457 98.1261 154.88 97.9027C154.317 97.6793 153.474 97.3219 153.03 97.1283C152.586 96.9198 151.949 96.6369 151.623 96.488C151.298 96.3391 150.647 96.0412 150.188 95.8327C149.729 95.6242 149.314 95.4455 149.255 95.4455C149.211 95.4455 148.722 95.2371 148.175 94.9839C147.627 94.7307 146.961 94.4329 146.709 94.3138C145.644 93.8521 145.214 93.6585 144.297 93.2267C143.764 92.9735 143.275 92.765 143.201 92.765C143.083 92.765 142.624 92.5714 141.41 92.0204C140.3 91.5141 139.116 90.978 138.346 90.6206C137.917 90.427 136.97 90.0101 136.23 89.7122C135.505 89.3995 134.572 88.9974 134.158 88.8187C133.758 88.6251 133.048 88.3273 132.603 88.1486C132.159 87.9699 131.686 87.7614 131.567 87.6869C131.449 87.6125 131.182 87.4785 130.975 87.404C130.768 87.3147 130.472 87.1955 130.309 87.1211C130.146 87.0466 129.614 86.8232 129.125 86.6445C128.637 86.4509 127.956 86.1382 127.615 85.9595C127.275 85.7659 126.934 85.617 126.846 85.617C126.772 85.617 126.076 85.3192 125.291 84.9469C124.507 84.5746 123.811 84.2767 123.752 84.2767C123.693 84.2767 122.982 83.9789 122.154 83.6215C121.339 83.2641 119.815 82.7578 118.749 82.4748C117.136 82.0579 116.573 81.9685 115.182 81.9685C114.042 81.9685 113.465 82.0281 113.347 82.1621C113.243 82.2514 112.962 82.3408 112.725 82.3408C112.266 82.3408 110.682 82.9365 109.335 83.6364C109.128 83.7406 108.788 83.83 108.595 83.83C108.403 83.83 108.166 83.9044 108.077 83.9938C107.974 84.098 107.544 84.2321 107.115 84.2916C104.969 84.649 103.163 84.8724 102.408 84.8724C101.949 84.8724 101.52 84.932 101.446 85.0064C101.357 85.066 100.973 85.2596 100.573 85.3936C100.129 85.5723 99.596 85.9446 99.1223 86.436C98.323 87.27 98.175 87.5082 97.5978 88.7443C97.3757 89.191 97.1537 89.6824 97.0649 89.8165C96.8725 90.1888 96.9021 90.8291 97.1241 90.8291C97.2129 90.8291 97.5682 90.6206 97.879 90.3823C98.2046 90.1292 98.5303 89.9356 98.6191 89.9356C98.6931 89.9356 99.0483 89.8016 99.3888 89.6378C99.7292 89.4591 100.336 89.2655 100.736 89.191C102.956 88.774 103.74 88.6102 103.874 88.5209C103.962 88.4762 104.51 88.3422 105.102 88.223C106.849 87.8805 107.648 87.7018 107.885 87.5976C108.003 87.5529 108.447 87.4189 108.847 87.3147C109.765 87.0913 112.34 86.4062 113.139 86.168C113.894 85.9446 118.438 85.9446 118.72 86.168C118.823 86.2573 119.267 86.3616 119.696 86.4211C121.251 86.6147 124.936 88.3273 133.122 92.6161C135.845 94.0457 137.473 94.8797 137.932 95.0584C138.05 95.103 138.287 95.2222 138.45 95.3264C139.013 95.654 139.205 95.7434 141.632 96.9347C142.979 97.59 144.46 98.3345 144.918 98.5728C145.392 98.826 145.88 99.0196 145.999 99.0196C146.117 99.0196 146.221 99.0791 146.221 99.1536C146.221 99.228 146.369 99.3323 146.561 99.3919C146.961 99.511 147.538 99.7493 147.849 99.928C147.967 100.002 148.234 100.136 148.441 100.211C148.648 100.3 148.989 100.464 149.211 100.583C149.418 100.702 149.729 100.807 149.892 100.807C150.054 100.807 150.217 100.911 150.277 101.03C150.321 101.149 150.484 101.253 150.647 101.253C150.809 101.253 151.12 101.358 151.357 101.462C151.579 101.581 151.875 101.715 151.993 101.76C152.112 101.804 152.319 101.909 152.438 101.968C152.556 102.043 152.911 102.206 153.222 102.34C153.518 102.474 153.992 102.683 154.258 102.802C154.51 102.921 154.998 103.13 155.324 103.264C155.649 103.398 156.33 103.71 156.834 103.949C157.352 104.187 157.796 104.381 157.84 104.381C157.899 104.381 159.024 104.887 160.356 105.497C160.934 105.766 162.014 106.197 163.317 106.689C163.894 106.897 164.767 107.27 165.285 107.508C165.789 107.761 166.321 107.955 166.469 107.955C166.617 107.955 166.869 108.059 167.032 108.178C167.18 108.297 167.432 108.401 167.58 108.401C167.713 108.401 167.95 108.461 168.098 108.535C168.231 108.625 168.645 108.803 169.015 108.967C169.385 109.131 169.933 109.369 170.244 109.503C170.555 109.637 170.895 109.742 170.999 109.742C171.117 109.742 171.28 109.846 171.384 109.965C171.487 110.084 171.739 110.188 171.961 110.188C172.168 110.188 172.479 110.293 172.627 110.412C172.79 110.531 173.041 110.635 173.175 110.635C173.323 110.635 173.619 110.739 173.855 110.858C174.077 110.978 174.877 111.275 175.602 111.529C176.342 111.782 177.156 112.095 177.423 112.214C177.689 112.318 178.029 112.422 178.163 112.422C178.311 112.422 178.488 112.482 178.577 112.556C178.651 112.631 179.11 112.794 179.598 112.943C180.087 113.092 180.62 113.286 180.783 113.39C180.945 113.479 181.241 113.613 181.449 113.658C181.656 113.703 182.292 113.911 182.855 114.135C183.432 114.358 184.098 114.581 184.335 114.656C185.06 114.849 186.881 115.669 187.458 116.071C188.124 116.517 188.405 116.547 188.405 116.13ZM6.98263 114.001C7.16025 113.882 7.87073 113.658 8.5664 113.479C9.24727 113.301 9.88374 113.092 9.95775 113.018C10.0466 112.928 10.2242 112.869 10.3722 112.869C10.5054 112.869 11.8079 112.273 13.2437 111.529C15.4787 110.382 15.9524 110.188 16.574 110.188C17.0625 110.188 17.2993 110.129 17.2993 109.995C17.2993 109.891 16.9293 109.369 16.4704 108.848C16.0264 108.312 15.4343 107.448 15.1679 106.912C14.9163 106.376 14.635 105.84 14.561 105.721C14.3686 105.423 13.9098 104.068 13.895 103.785C13.895 103.666 13.7914 103.368 13.6729 103.13C13.5545 102.906 13.4509 102.474 13.4509 102.192C13.4509 101.909 13.3769 101.536 13.2733 101.358C12.9477 100.762 12.622 92.5565 12.6368 85.3192C12.6516 80.0326 12.7256 78.2158 13.1697 72.2144C13.2585 71.0231 13.3917 69.251 13.4509 68.2681C13.5249 67.2852 13.6433 65.7514 13.7321 64.843C13.821 63.9495 13.9542 62.5348 14.0282 61.7157C14.1022 60.8967 14.2354 59.9883 14.3242 59.7054C14.4278 59.4224 14.5018 58.9161 14.5018 58.5885C14.5018 58.2609 14.6054 57.6652 14.7238 57.2631C14.8423 56.861 14.9311 56.176 14.9311 55.7441C14.9311 55.3123 16.3668 48.6706 16.6184 48.3578C16.8257 48.0749 17.0033 47.7622 17.0033 47.6728C17.0033 47.3005 16.1892 47.5239 15.1531 48.1494C14.5758 48.5068 13.9542 48.8493 13.7765 48.8939C13.6137 48.9535 13.1845 49.162 12.8292 49.3556C12.474 49.5492 11.8968 49.847 11.5267 50.0257C11.1567 50.1895 10.6682 50.4427 10.4166 50.5767C10.1798 50.7107 9.36568 51.1277 8.61081 51.5149C6.74581 52.468 5.90212 53.1828 5.90212 53.7933C5.90212 54.0614 5.81331 54.4039 5.6949 54.5677C5.59129 54.7315 5.45807 55.1634 5.41367 55.5357C5.36927 55.908 5.26565 56.5483 5.16204 56.9504C4.99923 57.7248 4.80681 59.0352 4.58478 60.7924C4.52558 61.3583 4.39236 61.8795 4.28875 61.9838C4.19994 62.0731 4.12593 62.5795 4.12593 63.1305C4.11113 63.741 4.03712 64.2027 3.90391 64.3814C3.7559 64.575 2.30534 77.5457 2.26094 78.3796C2.23133 79.1986 2.12772 80.1219 2.05372 80.4049C1.96491 80.6878 1.9057 81.626 1.9057 82.4897C1.9057 83.3534 1.80209 85.1553 1.68368 86.5105C1.44685 89.2506 1.40245 96.622 1.60967 98.7962C1.68368 99.5408 1.78729 101.045 1.84649 102.147C1.8909 103.353 2.02411 104.41 2.15733 104.783C2.29054 105.125 2.33495 105.527 2.29054 105.676C2.15733 106.004 2.43856 107.18 2.8826 108.297C3.07502 108.774 3.23784 109.295 3.23784 109.444C3.23784 109.593 3.29705 109.757 3.37105 109.801C3.44506 109.846 3.68189 110.233 3.90391 110.665C4.12593 111.097 4.52558 111.752 4.7772 112.109C5.47288 113.092 5.7393 113.509 5.90212 113.882C6.06494 114.254 6.49418 114.313 6.98263 114.001ZM191.144 112.422C191.795 112.363 192.757 112.229 193.29 112.139C193.823 112.05 194.518 111.975 194.844 111.975C195.273 111.975 195.658 111.826 196.25 111.439C197.745 110.471 198.367 109.652 198.811 108.133C199.048 107.329 199.122 95.4455 198.9 94.4776C198.796 94.0755 198.678 92.5565 198.604 91.1269C198.382 86.2276 198.189 83.4726 198.012 82.7429C197.923 82.3408 197.878 81.7898 197.923 81.5069C197.967 81.2239 197.908 80.4049 197.804 79.6901C197.686 78.9753 197.582 77.8882 197.582 77.2776C197.582 76.667 197.508 75.9225 197.419 75.6395C197.331 75.3566 197.242 74.4333 197.212 73.5993C197.183 72.7654 197.094 71.9464 197.005 71.7826C196.916 71.6187 196.842 70.8295 196.842 70.0253C196.827 69.0425 196.768 68.4468 196.62 68.1936C196.487 67.9554 196.398 67.3746 196.398 66.63C196.398 65.8854 196.309 65.3046 196.176 65.0664C196.058 64.8579 195.969 64.3814 195.954 64.0091C195.954 63.607 195.865 63.2496 195.747 63.1453C195.643 63.056 195.51 62.7879 195.466 62.5646C195.421 62.3263 194.8 61.537 193.986 60.6733C191.839 58.3949 183.861 50.4576 182.899 49.6534C182.633 49.43 181.848 48.7004 181.153 48.0302C180.457 47.3601 179.598 46.5559 179.228 46.2432C178.044 45.2008 175.942 43.2798 174.936 42.282C173.989 41.3587 171.354 38.976 169.311 37.2188C168.793 36.7721 168.038 36.1019 167.609 35.7296C167.195 35.3573 166.558 34.8212 166.188 34.5234C165.833 34.2256 165.167 33.6746 164.723 33.2874C164.279 32.9151 163.45 32.2152 162.873 31.7535C162.31 31.277 161.763 30.8303 161.674 30.7409C161.585 30.6664 161.304 30.4282 161.037 30.2197C160.771 30.0112 160.134 29.5198 159.616 29.1028C158.181 27.9413 154.702 25.3054 153.577 24.5162C153.015 24.1141 152.482 23.7269 152.378 23.6524C152.29 23.578 151.653 23.1163 150.957 22.6249C150.262 22.1484 149.462 21.5676 149.181 21.3591C148.9 21.1506 147.997 20.5401 147.183 19.9891C146.369 19.4381 145.303 18.7233 144.815 18.3956C143.823 17.7255 143.438 17.4724 143.113 17.3234C142.994 17.2639 142.683 17.0554 142.446 16.8767C142.195 16.698 141.84 16.4746 141.632 16.3853C141.233 16.2066 141.114 16.1321 139.782 15.2535C138.539 14.4344 138.391 14.3451 137.636 13.9728C137.266 13.7792 136.94 13.6005 136.896 13.5409C136.852 13.4963 136.422 13.2133 135.934 12.9304C135.445 12.6474 134.927 12.3645 134.794 12.2751C134.661 12.2007 134.024 11.8284 133.388 11.471C132.293 10.8455 131.419 10.3839 125.943 7.55445C124.685 6.89922 123.545 6.30355 123.426 6.24398C123.308 6.16952 122.701 5.87169 122.094 5.57385C121.487 5.27602 120.881 4.97818 120.762 4.90372C120.644 4.84416 120.274 4.66545 119.948 4.53143C119.622 4.38251 119.252 4.20381 119.134 4.14424C118.616 3.8613 117.609 3.41455 117.476 3.41455C117.387 3.41455 117.106 3.31031 116.825 3.17628C115.996 2.7742 115.833 2.99758 115.67 4.71013C115.656 4.96329 115.522 5.35047 115.374 5.57385C115.241 5.78234 115.167 6.08017 115.212 6.22909C115.256 6.37801 115.212 6.69073 115.123 6.929C115.034 7.16727 114.886 7.92675 114.812 8.62666C114.738 9.32657 114.62 10.4286 114.56 11.0838C114.205 14.3153 114.102 15.5066 114.176 15.6258C114.22 15.7002 114.161 16.3406 114.027 17.0554C113.879 17.9042 113.805 19.3487 113.805 21.3442C113.791 23.1461 113.717 24.9331 113.583 25.8266C113.317 27.6583 113.273 41.2694 113.524 43.3989C113.613 44.1435 113.746 46.6453 113.805 48.9833C113.983 54.3592 114.205 58.4544 114.324 58.6629C114.383 58.7523 114.486 59.6011 114.56 60.5691C114.812 63.9793 115.197 66.8385 115.448 67.3299C115.522 67.4788 115.582 67.8214 115.582 68.0894C115.582 68.3575 115.67 68.8787 115.789 69.251C115.892 69.6084 116.1 70.3083 116.233 70.7997C116.381 71.2911 116.588 71.8868 116.707 72.1102C116.825 72.3484 116.914 72.6314 116.914 72.7356C116.914 72.8399 117.003 73.1228 117.121 73.3611C118.734 76.6373 119.726 78.3647 120.348 78.9604C120.496 79.1093 120.792 79.5114 121.014 79.8539C121.902 81.2686 122.894 82.1025 124.463 82.7131C124.833 82.8471 125.395 83.0705 125.721 83.2045C126.298 83.4279 126.964 83.7108 128.651 84.4852C129.125 84.6937 129.569 84.8724 129.658 84.8724C129.747 84.8724 130.191 85.0511 130.65 85.2596C131.597 85.7063 132.278 86.0042 132.603 86.1233C132.722 86.168 132.929 86.2722 133.048 86.3467C133.166 86.4211 133.536 86.5552 133.862 86.6594C134.187 86.7636 134.557 86.9275 134.676 87.0317C134.794 87.1359 135.061 87.27 135.268 87.3295C135.475 87.3891 136.037 87.6274 136.526 87.8508C137.014 88.0741 137.888 88.4613 138.45 88.6996C139.027 88.9527 140.093 89.4293 140.818 89.7569C141.558 90.0845 142.979 90.6951 144.001 91.1269C145.792 91.8715 146.547 92.214 148.619 93.1969C149.166 93.4501 149.684 93.6585 149.758 93.6585C149.832 93.6585 150.084 93.7479 150.321 93.867C150.765 94.0904 151.638 94.4776 151.993 94.6116C152.112 94.6563 152.319 94.7605 152.438 94.835C152.556 94.9094 153.03 95.1179 153.474 95.2966C153.918 95.4604 154.451 95.6838 154.658 95.7732C154.865 95.8476 155.235 96.0114 155.472 96.1157C155.723 96.2199 156.212 96.4284 156.582 96.6071C156.952 96.7709 157.648 97.0836 158.136 97.307C158.625 97.5304 159.202 97.8133 159.424 97.9176C159.631 98.0367 159.898 98.1261 159.986 98.1261C160.149 98.1261 161.466 98.7068 162.547 99.2578C162.784 99.377 163.05 99.4663 163.169 99.4663C163.272 99.4663 163.435 99.5706 163.539 99.6897C163.642 99.8088 163.864 99.9131 164.042 99.9131C164.205 99.9131 164.486 100.017 164.634 100.136C164.797 100.256 165.034 100.36 165.182 100.36C165.315 100.36 165.507 100.464 165.611 100.583C165.715 100.702 165.951 100.807 166.129 100.807C166.307 100.807 166.543 100.911 166.647 101.03C166.751 101.149 166.958 101.253 167.121 101.253C167.283 101.253 167.594 101.343 167.802 101.447C168.216 101.67 168.749 101.909 169.977 102.445C170.392 102.623 170.836 102.832 170.969 102.906C171.117 102.981 171.324 103.04 171.443 103.04C171.546 103.04 171.724 103.145 171.828 103.264C171.931 103.383 172.168 103.487 172.346 103.487C172.523 103.487 172.76 103.591 172.864 103.71C172.967 103.83 173.175 103.934 173.323 103.934C173.485 103.934 173.989 104.142 174.447 104.381C174.906 104.634 175.395 104.827 175.528 104.827C175.676 104.827 175.868 104.932 175.972 105.051C176.076 105.17 176.312 105.274 176.49 105.274C176.668 105.274 176.905 105.378 177.008 105.497C177.112 105.617 177.304 105.721 177.437 105.721C177.571 105.721 177.748 105.78 177.837 105.855C177.911 105.929 178.636 106.272 179.45 106.614C180.264 106.957 180.99 107.299 181.064 107.374C181.153 107.448 181.33 107.508 181.463 107.508C181.597 107.508 181.789 107.612 181.893 107.731C181.996 107.85 182.203 107.955 182.351 107.955C182.499 107.955 183.062 108.193 183.624 108.476C184.172 108.759 184.705 108.997 184.809 108.997C184.897 108.997 185.578 109.414 186.318 109.905C187.354 110.605 187.843 111.052 188.361 111.782C188.997 112.69 189.071 112.735 189.501 112.646C189.752 112.601 190.492 112.497 191.144 112.422ZM26.0914 111.052C26.047 110.858 25.9878 110.71 25.973 110.71C25.7066 110.605 24.5817 109.727 23.9896 109.131C23.1903 108.342 21.8138 106.585 21.429 105.84C21.3105 105.617 20.9405 104.932 20.5853 104.291C20.0228 103.279 18.9275 100.613 18.9275 100.27C18.9275 100.196 18.8239 99.9428 18.7055 99.7046C18.5575 99.4365 18.513 99.094 18.5575 98.8558C18.6167 98.6324 18.5723 98.2899 18.4834 98.1112C18.3798 97.9325 18.2762 97.1879 18.2466 96.4582C18.217 95.7136 18.1282 95.0137 18.0542 94.8797C17.847 94.4776 17.7434 86.8381 17.8914 83.3832C18.0542 79.6007 18.2466 77.2478 18.4094 76.9798C18.4686 76.8755 18.5278 76.5777 18.513 76.3245C18.4982 75.8927 19.2087 74.4184 19.5344 74.2248C19.7416 74.0908 19.6824 73.5249 19.4455 73.1973C19.3271 73.0335 19.2235 72.7207 19.2235 72.5123C19.2235 72.3038 19.1643 72.0655 19.0755 71.9762C18.7647 71.6634 18.6167 64.8132 18.7943 58.6629C19.0311 50.7405 19.1495 49.0875 19.49 48.4323C19.7712 47.9111 19.6972 47.7175 19.1495 47.4494C18.5278 47.1516 18.1282 47.1218 17.9358 47.3899C17.7434 47.643 17.4473 48.7152 17.4473 49.162C17.4473 49.3556 16.1596 55.1038 16.0856 55.759C15.7896 58.3353 15.7156 58.9161 15.5527 59.7798C15.3455 60.9116 15.1087 62.8773 14.9163 65.0664C14.8423 66.0046 14.709 67.5831 14.6202 68.5659C14.5462 69.5488 14.413 71.4996 14.339 72.8845C14.265 74.2844 14.1318 75.9522 14.0578 76.6075C13.8506 78.2605 13.8506 97.6197 14.0578 98.8706C14.1466 99.4067 14.265 100.315 14.3242 100.881C14.3834 101.462 14.5018 102.072 14.6054 102.251C14.709 102.43 14.7831 102.742 14.7831 102.936C14.7831 103.785 15.8636 106.168 17.0773 108.029C18.3354 109.95 18.2318 109.905 21.6214 110.144C22.4503 110.188 22.9831 110.293 23.0867 110.427C23.1755 110.546 23.4124 110.635 23.59 110.635C23.7676 110.635 24.2857 110.799 24.7149 110.993C25.1589 111.201 25.6622 111.365 25.8546 111.365C26.1507 111.38 26.1803 111.32 26.0914 111.052ZM103.148 82.996C103.681 82.9663 104.377 82.8769 104.703 82.8025C105.028 82.728 105.694 82.6237 106.183 82.5791C107.056 82.5046 109.72 81.6707 110.12 81.3579C110.845 80.7772 114.782 79.8837 115.878 80.0475C117.373 80.2709 119.267 80.8367 120.363 81.3877C120.821 81.6111 121.354 81.6707 121.354 81.4771C121.354 81.4175 120.807 80.807 120.126 80.107C118.172 78.0669 116.277 74.7162 115.419 71.6932C115.256 71.1273 115.064 70.5912 114.99 70.5019C114.93 70.4274 114.753 69.8466 114.62 69.2361C114.486 68.6255 114.279 67.866 114.176 67.5682C114.072 67.2555 114.013 66.8683 114.057 66.7045C114.102 66.5407 114.057 66.0939 113.953 65.6918C113.746 64.9472 113.598 63.607 113.376 60.6435C113.302 59.6458 113.184 58.7374 113.11 58.6331C113.051 58.5289 112.947 57.6056 112.903 56.5781C112.843 55.5506 112.74 53.5848 112.651 52.185C112.162 44.6945 111.985 30.3835 112.325 26.3329C112.399 25.3799 112.473 23.4737 112.488 22.0888C112.503 20.7039 112.607 19.0062 112.71 18.3212C112.829 17.6362 112.917 16.4002 112.917 15.5662C112.917 14.6727 113.006 13.7643 113.139 13.3325C113.258 12.9304 113.361 12.0518 113.361 11.3816C113.361 10.637 113.435 10.1009 113.539 9.9967C113.657 9.87757 113.702 9.44571 113.687 8.83514C113.657 8.13523 113.717 7.74805 113.879 7.49489C114.013 7.30129 114.102 6.91411 114.087 6.64606C114.042 6.06528 114.634 4.2187 115.004 3.72727C115.167 3.53368 115.286 3.28052 115.286 3.17628C115.286 2.89334 115.004 2.7742 114.768 2.9678C114.501 3.19117 111.363 4.73991 110.105 5.27602C109.084 5.70788 107.47 6.45246 106.819 6.78008C106.612 6.89922 106.331 6.98857 106.197 6.98857C106.064 6.98857 105.916 7.09281 105.872 7.21194C105.813 7.33108 105.591 7.43532 105.369 7.43532C105.132 7.43532 104.895 7.50978 104.851 7.58424C104.747 7.74805 103.548 8.32882 103.296 8.32882C103.208 8.32882 102.897 8.47774 102.586 8.67133C102.29 8.85004 101.875 9.0883 101.668 9.19255C100.499 9.75843 99.2555 10.7711 98.9447 11.3965C98.7967 11.7241 98.5895 12.156 98.4711 12.3645C98.2342 12.841 97.9678 14.1515 97.8494 15.6258C97.7902 16.2363 97.6866 16.8469 97.5978 16.966C97.5238 17.0852 97.4053 17.8298 97.3461 18.6041C97.0501 22.61 96.9761 23.4737 96.8577 23.6524C96.7985 23.7567 96.7541 24.4417 96.7689 25.1714C96.7689 25.9011 96.6653 27.2562 96.5321 28.1795C96.3988 29.0879 96.2804 30.2793 96.2804 30.8154C96.2804 31.3515 96.2212 33.2874 96.1472 35.134C95.9696 39.7504 95.9992 53.3764 96.1916 56.727C96.2804 58.246 96.31 59.9138 96.2508 60.4499C96.1916 61.0456 96.236 61.6711 96.3396 62.088C96.4432 62.4603 96.5765 63.8006 96.6505 65.0664C96.7837 67.6724 97.0205 70.0402 97.2277 70.9933C97.3165 71.3358 97.3757 71.9464 97.3757 72.3335C97.3757 72.7207 97.4794 73.1675 97.5978 73.3164C97.7162 73.4802 97.8198 73.8823 97.8198 74.2099C97.8198 74.5375 97.8938 75.029 97.9678 75.297C98.0566 75.5651 98.1898 76.0416 98.2786 76.3543C98.7079 77.9031 99.892 80.5389 100.499 81.3133C100.736 81.6111 100.928 81.9238 100.928 82.0132C100.928 82.0876 101.032 82.2366 101.15 82.3408C101.269 82.445 101.372 82.6535 101.372 82.7876C101.372 83.1003 101.639 83.2492 101.964 83.1301C102.083 83.0705 102.615 83.0109 103.148 82.996ZM21.4882 72.3633C22.2726 71.7081 23.6788 70.7997 24.8777 70.1445C25.677 69.7275 26.6391 69.2063 27.0091 68.9978C28.4449 68.1936 39.9457 62.5348 40.1529 62.5348C40.1973 62.5348 40.745 62.2965 41.3815 61.9987C42.0179 61.7008 42.8024 61.3434 43.128 61.1945C43.4537 61.0456 44.253 60.6733 44.9042 60.3755C45.5555 60.0628 46.2216 59.7649 46.3844 59.6905C46.5472 59.616 46.784 59.4969 46.9024 59.4224C47.0208 59.3479 47.4205 59.1693 47.7905 59.0352C48.9747 58.5736 49.3299 58.4247 50.3068 57.9332C50.8396 57.6801 51.3281 57.4716 51.3873 57.4716C51.4465 57.4716 51.935 57.278 52.453 57.0248C52.9711 56.7866 53.4743 56.5781 53.5631 56.5781C53.6519 56.5781 53.8296 56.5185 53.9776 56.4292C54.1108 56.3547 54.466 56.1909 54.7473 56.0718C55.0285 55.9526 55.8278 55.625 56.5234 55.3272C57.2191 55.0293 57.9 54.7911 58.0184 54.7911C58.1368 54.7911 58.3588 54.7017 58.5217 54.5975C58.6845 54.4932 59.3209 54.2103 59.9278 53.9869C62.0888 53.1828 62.6661 52.9445 62.7993 52.8254C62.8881 52.7658 63.0509 52.7062 63.1841 52.7062C63.3026 52.7062 63.6578 52.5722 63.9686 52.4084C64.2647 52.2446 64.6643 52.1106 64.8419 52.1106C65.0195 52.1106 65.2712 52.0212 65.3896 51.917C65.5228 51.8127 66.026 51.6042 66.5145 51.4553C67.4026 51.1873 69.3416 50.4725 70.2593 50.0853C70.5257 49.9662 70.881 49.8768 71.0438 49.8768C71.2214 49.8768 71.5322 49.7874 71.7394 49.6683C72.1687 49.4598 72.8052 49.2216 73.8413 48.9088C74.8626 48.5961 76.2243 48.1047 76.7572 47.8515C77.0088 47.7473 77.3048 47.643 77.4084 47.643C77.5121 47.643 77.8673 47.5537 78.2077 47.4346C78.5334 47.3154 79.1994 47.1069 79.6879 46.9729C80.9904 46.5857 81.8489 46.2879 82.3818 46.0645C82.6334 45.9454 82.9886 45.856 83.1663 45.856C83.3439 45.856 83.6103 45.7816 83.7731 45.7071C83.9211 45.6178 84.3356 45.4837 84.676 45.4093C85.0312 45.3497 85.6825 45.171 86.1266 45.037C87.0295 44.7689 87.8139 44.5604 88.7168 44.3817C89.0425 44.3073 89.7085 44.1435 90.197 43.9946C90.6854 43.8605 91.4551 43.6818 91.8992 43.6223C92.3432 43.5627 92.8761 43.4436 93.0981 43.3542C93.3053 43.2798 93.6458 43.2351 93.853 43.2798C94.0602 43.3244 94.2822 43.2798 94.3414 43.1904C94.3858 43.0862 94.4302 40.8971 94.4154 38.291C94.4154 35.5509 94.4746 33.2278 94.5634 32.7513C94.6523 32.3045 94.7263 30.7707 94.7263 29.356C94.7411 27.6285 94.8151 26.5563 94.9483 26.0947C95.0667 25.6777 95.1555 24.7097 95.1555 23.6822C95.1703 22.4611 95.2295 21.8505 95.3775 21.5825C95.5107 21.3293 95.5848 20.7485 95.5996 19.8401C95.5996 19.0062 95.6884 18.2467 95.8216 17.9042C95.94 17.5915 96.0288 17.0703 96.014 16.7427C95.9844 15.8343 96.1916 14.2855 96.4284 13.6452C96.5469 13.3473 96.6357 12.9006 96.6357 12.6772C96.6357 12.4538 96.7393 12.1411 96.8577 11.9922C96.9761 11.8284 97.0797 11.5008 97.0797 11.2774C97.0797 10.7562 97.6718 9.84778 98.2638 9.44571C98.5303 9.267 98.7079 9.01384 98.7079 8.82025C98.7079 8.35861 98.0418 7.88207 97.3905 7.88207C96.6801 7.88207 94.1194 8.82025 92.9353 9.50527C92.8169 9.57973 92.4172 9.75843 92.0472 9.89246C91.6771 10.0265 91.1887 10.235 90.9667 10.3541C90.7298 10.4732 90.419 10.5626 90.271 10.5626C90.1378 10.5626 89.9306 10.6668 89.827 10.786C89.7233 10.9051 89.5605 11.0093 89.4421 11.0093C89.3385 11.0093 88.7316 11.2476 88.0952 11.5454C87.4587 11.8433 86.4374 12.3198 85.8305 12.6028C85.2237 12.8857 84.2468 13.3473 83.6695 13.6303C83.0774 13.9132 82.5446 14.1366 82.4706 14.1366C82.3818 14.1366 82.0265 14.2855 81.6713 14.4791C81.3161 14.6727 80.5612 15.0152 79.9839 15.2386C79.007 15.6258 78.3705 15.9087 76.5796 16.7427C75.8395 17.0852 75.1438 17.3979 73.7673 18.0085C73.3676 18.1872 72.5979 18.5446 72.0651 18.7828C71.5322 19.0211 70.807 19.3636 70.4369 19.5274C69.0456 20.1529 67.5358 20.8677 67.1362 21.0613C66.8993 21.1804 66.5885 21.2846 66.4405 21.2846C66.3073 21.2846 66.1001 21.3889 65.9964 21.508C65.8928 21.6272 65.7596 21.7314 65.6856 21.7314C65.6116 21.7314 64.7235 22.1335 63.717 22.6249C62.6957 23.1163 61.8224 23.5184 61.7632 23.5184C61.704 23.5184 61.0823 23.7865 60.3867 24.129C59.691 24.4566 58.8177 24.8736 58.4476 25.0374C58.0776 25.2012 57.3523 25.5437 56.8195 25.7968C56.2866 26.0351 55.7538 26.2883 55.6354 26.3478C55.5169 26.3925 55.2209 26.5563 54.9693 26.6903C54.7325 26.8095 54.2292 27.0626 53.8592 27.2265C53.4891 27.3754 52.5566 27.8221 51.7721 28.1944C50.9877 28.5667 50.292 28.8794 50.218 28.8794C50.0996 28.8794 48.427 29.6538 47.9385 29.9368C47.8201 30.0112 47.6129 30.1154 47.4945 30.1601C47.3761 30.2048 46.2364 30.7409 44.9782 31.3664C43.7201 31.9769 42.2547 32.6917 41.7219 32.93C41.189 33.1832 40.1233 33.6895 39.3536 34.0618C37.7255 34.8361 36.2749 35.5212 35.9493 35.6403C35.8309 35.685 35.6236 35.7892 35.5052 35.8637C35.3868 35.953 34.8244 36.2211 34.2471 36.4742C33.6846 36.7274 33.1074 36.9954 32.989 37.0699C32.6781 37.2784 31.716 37.74 30.9168 38.0528C30.5467 38.2017 30.1471 38.4102 30.0139 38.5144C29.8954 38.6186 29.703 38.708 29.6142 38.708C29.5106 38.708 28.8445 39.0058 28.1193 39.3781C27.394 39.7504 26.7279 40.0482 26.6243 40.0482C26.5207 40.0482 26.2691 40.1376 26.0618 40.2567C25.6474 40.4652 24.7889 40.8524 24.4041 41.0013C24.2857 41.0609 23.9896 41.2247 23.738 41.3885C23.5012 41.5523 23.1903 41.731 23.0719 41.7757C22.7019 41.9246 21.8878 43.0415 21.8878 43.3989C21.8878 43.5776 21.799 43.9201 21.6806 44.1584C21.5622 44.3966 21.429 45.2604 21.3697 46.0794C21.3105 46.8984 21.1921 47.6579 21.1033 47.7622C21.0293 47.8664 20.9109 48.7003 20.8369 49.6236C20.7777 50.532 20.6445 52.0957 20.5705 53.0785C20.378 55.4016 20.3336 70.353 20.5261 71.1124C20.6149 71.44 20.7185 71.8719 20.7629 72.1102C20.8665 72.5271 21.1625 72.6314 21.4882 72.3633ZM184.971 48.9386C185.001 48.8046 184.823 48.2536 184.572 47.7175C184.32 47.1814 184.068 46.5559 184.009 46.3326C183.965 46.1092 183.728 45.5582 183.491 45.0817C183.269 44.62 183.077 44.1584 183.077 44.0541C183.077 43.7265 182.203 42.0735 181.745 41.5076C181.345 41.0162 181.197 40.9417 180.649 40.9417C179.88 40.9417 179.598 41.2247 179.288 42.2224C178.947 43.3542 179.006 43.6818 179.628 44.1584C180.324 44.6796 182.766 47.1516 183.802 48.3578C184.587 49.2811 184.883 49.43 184.971 48.9386ZM124.463 4.68035C124.463 4.591 123.989 3.6826 123.678 3.19117C122.79 1.74667 122.006 1.34459 121.088 1.83602C120.866 1.95516 120.496 2.08918 120.274 2.14875C119.667 2.26788 119.771 2.84866 120.422 2.98269C120.999 3.10182 123.352 4.26338 123.589 4.54632C123.752 4.73991 124.463 4.84416 124.463 4.68035Z" fill="rgb(0,0,0)" fill-rule="nonzero" transform="matrix(1,0,0,-1,0.59668,229.988)" />
		<path id="矢量 498" d="M0.0865255 15.4982C-0.313117 15.2451 0.663786 14.9919 3.18005 14.7387C3.94973 14.6494 4.85263 14.5154 5.17826 14.4409C5.77032 14.2771 6.54 14.1877 10.2404 13.7857C11.3061 13.6814 12.2386 13.5474 12.3126 13.5027C12.3866 13.4581 13.2895 13.3985 14.3256 13.3836C15.3617 13.3687 16.5311 13.2942 16.9159 13.2198C17.3007 13.1453 18.5441 12.9964 19.6838 12.8773C20.8235 12.7581 22.4221 12.5943 23.2362 12.505C24.0502 12.4305 25.1456 12.2965 25.6784 12.222C26.5813 12.088 28.9792 11.8795 30.1189 11.8349C30.4001 11.82 30.7406 11.7753 30.859 11.7157C30.9774 11.6562 31.7175 11.537 32.4871 11.4626C35.2698 11.1796 37.1496 10.9265 37.2976 10.8371C37.3865 10.7924 37.9637 10.7031 38.6002 10.6584C39.2218 10.5988 39.9175 10.4946 40.1247 10.4201C40.332 10.3308 40.7908 10.2712 41.146 10.2712C41.5013 10.2712 42.4486 10.167 43.2479 10.0478C44.0472 9.92871 45.5717 9.75001 46.6226 9.67555C50.3082 9.39261 52.0992 9.24369 52.4692 9.15434C52.6765 9.10966 53.8458 8.97564 55.0595 8.8565C56.288 8.73737 57.9458 8.52888 58.7599 8.40975C59.574 8.29062 60.6841 8.11192 61.2466 8.03746C61.7942 7.963 62.3715 7.82897 62.5343 7.73962C62.6823 7.66516 62.9487 7.5907 63.1264 7.5907C63.4816 7.5907 65.9979 7.03971 66.4567 6.86101C66.6195 6.78655 67.1524 6.62274 67.6408 6.45893C69.5354 5.87815 73.1766 4.31452 74.4495 3.54015C75.9297 2.63175 77.4395 1.60422 77.8687 1.21704C78.0167 1.08301 78.4016 0.800068 78.6976 0.591583C79.0084 0.383099 79.2601 0.174614 79.2601 0.115047C79.2601 -0.0636535 79.8225 -0.0189783 79.9261 0.144831C80.1037 0.442666 79.5709 1.02344 78.1203 2.12543C75.4857 4.12093 73.1914 5.40162 70.4531 6.38447C69.7279 6.65252 69.0174 6.92058 68.899 6.98014C68.7805 7.03971 68.1737 7.24819 67.5668 7.4269C66.96 7.6056 66.2939 7.82897 66.0867 7.90343C65.8794 7.97789 65.3762 8.11192 64.9766 8.18637C64.5621 8.26083 63.7332 8.43953 63.1264 8.55867C62.5195 8.69269 61.4834 8.8565 60.8321 8.93096C60.1808 9.02031 59.352 9.13945 58.9819 9.2288C58.6119 9.30326 57.6202 9.45217 56.7617 9.54152C55.9032 9.63087 54.2454 9.79468 53.0613 9.92871C51.8772 10.0478 50.619 10.1819 50.249 10.2117C49.2425 10.301 45.3201 10.7031 43.7363 10.8818C42.9666 10.9711 41.7381 11.0903 40.998 11.1647C40.2728 11.2392 39.3403 11.3583 38.9258 11.4477C38.1857 11.5966 36.6316 11.82 34.5594 12.0731C33.9525 12.1327 33.02 12.2667 32.4871 12.3561C31.0218 12.5943 29.2604 12.7879 26.4925 13.0411C23.251 13.3389 20.2314 13.6368 17.5376 13.9197C16.3534 14.0537 14.4884 14.2175 13.3931 14.292C12.2978 14.3665 11.2321 14.4707 11.0249 14.5154C10.6844 14.6047 9.23389 14.7834 5.62231 15.1855C4.89703 15.2748 3.96453 15.4089 3.57969 15.4833C2.7064 15.662 0.367755 15.6769 0.0865255 15.4982Z" fill="rgb(0,0,0)" fill-rule="nonzero" transform="matrix(1,0,0,-1,90.6479,19.2764)" />
		<path id="矢量 499" d="M5.66899 61.0859C4.88451 60.386 3.21193 58.0778 2.66428 56.9609C2.41265 56.4248 2.04261 55.4867 1.86499 54.8761C1.68738 54.2655 1.43575 53.4465 1.31734 53.0742C1.19893 52.687 1.11012 52.0913 1.11012 51.7339C1.11012 51.3765 1.03611 50.8106 0.947299 50.483C0.873291 50.1554 0.740077 49.381 0.666069 48.7705C0.592062 48.1599 0.458848 47.0877 0.38484 46.3878C0.162817 44.5412 0 40.8927 0 37.6017C0 33.6851 0.518054 21.4441 0.828886 18.019C0.917696 17.0362 1.05091 15.2938 1.12492 14.1472C1.46535 9.0244 1.64297 6.98423 1.73178 6.83531C1.79099 6.74596 1.8798 5.4057 1.939 3.85696C2.02781 0.982855 2.20543 0 2.59027 0C2.78269 0 2.81229 0.446753 2.8567 2.90389C2.8863 4.63133 2.8419 6.10562 2.73829 6.55237C2.64948 6.96934 2.51626 8.667 2.42745 10.3498C2.35345 12.0325 2.22023 13.9089 2.14622 14.5195C2.07222 15.13 2.01301 16.232 2.01301 16.9468C1.99821 17.6765 1.939 18.5402 1.85019 18.8827C1.77619 19.2252 1.64297 21.325 1.55416 23.529C1.46535 25.7478 1.33214 28.3837 1.24333 29.4112C1.05091 31.779 1.05091 41.682 1.24333 44.2285C1.53936 48.0706 1.65777 49.0832 1.83539 49.2619C1.9242 49.3513 1.99821 49.798 1.99821 50.2596C1.99821 50.7064 2.07222 51.3467 2.16103 51.6744C2.23503 52.002 2.33864 52.5679 2.38305 52.9402C2.42745 53.3125 2.59027 53.9081 2.75309 54.2655C2.9011 54.6229 3.03432 55.0697 3.03432 55.2633C3.03432 55.4718 3.09352 55.7398 3.16753 55.8887C3.24154 56.0228 3.44876 56.4397 3.62638 56.7971C3.98162 57.5417 5.32856 59.433 6.17224 60.3414C6.77911 61.0264 6.82351 61.1306 6.55708 61.3987C6.30546 61.6518 6.29066 61.6369 5.66899 61.0859Z" fill="rgb(0,0,0)" fill-rule="nonzero" transform="matrix(1,0,0,-1,167.465,78.0283)" />
	</g>
</svg>
