<svg viewBox="0 0 216 230" xmlns="http://www.w3.org/2000/svg" xmlns:xlink="http://www.w3.org/1999/xlink" width="216.000000" height="230.000000" fill="none">
	<rect id="1-12" width="216.000000" height="230.000000" x="0.000000" y="0.000000" />
	<path id="矢量 500" d="M93.0287 1.15723L85.3558 3.79759L80.2159 10.9536L79.7715 23.2553L81.6823 34.4918L79.7715 36.4421L74.0095 59.7403L72.3356 79.3179L51.8796 83.2035L28.4758 91.6196L15.2927 97.5304L7.14584 101.086L3.47233 107.642L6.2719 114.198L2.76133 119.703L1.56152 127.46L1.97627 151.328L5.39796 177.611L18.8921 183.777L20.9215 183.042L22.4916 188.473L97.5021 223.023L101.413 221.312L115.87 228.318L119.306 227.793L121.943 228.918L124.179 227.958L125.942 223.833L153.256 207.24L179.223 185.563L179.711 188.743L181.385 189.838L184.585 186.283L186.422 178.362L197.368 166.78L200.005 137.661L199.679 119.298L195.916 115.728L197.442 115.038L201.678 115.893L204.715 107.972L215.01 38.2873L212.136 35.4669L201.989 34.0867L195.205 30.9663L190.169 31.7464L180.26 30.0512L177.712 19.4447L172.868 12.8138L158.381 7.5481L139.125 5.3728L93.0287 1.15723Z" fill="rgb(255,255,255)" fill-rule="nonzero" />
	<path id="矢量 500" d="M85.3558 3.79759L80.2159 10.9536L79.7715 23.2553L81.6823 34.4918L79.7715 36.4421L74.0095 59.7403L72.3356 79.3179L51.8796 83.2035L28.4758 91.6196L15.2927 97.5304L7.14584 101.086L3.47233 107.642L6.2719 114.198L2.76133 119.703L1.56152 127.46L1.97627 151.328L5.39796 177.611L18.8921 183.777L20.9215 183.042L22.4916 188.473L97.5021 223.023L101.413 221.312L115.87 228.318L119.306 227.793L121.943 228.918L124.179 227.958L125.942 223.833L153.256 207.24L179.223 185.563L179.711 188.743L181.385 189.838L184.585 186.283L186.422 178.362L197.368 166.78L200.005 137.661L199.679 119.298L195.916 115.728L197.442 115.038L201.678 115.893L204.715 107.972L215.01 38.2873L212.136 35.4669L201.989 34.0867L195.205 30.9663L190.169 31.7464L180.26 30.0512L177.712 19.4447L172.868 12.8138L158.381 7.5481L139.125 5.3728L93.0287 1.15723L85.3558 3.79759Z" fill-rule="nonzero" stroke="rgb(0,0,0)" stroke-width="1.000000" />
	<path id="矢量 501" d="M93.5027 1.24707L84.7189 3.79742L80.4973 10.5483L79.3716 19.1295L88.1554 64.9158L91.903 67.9912L108.923 71.4717L127.542 75.1172L156.693 82.6033L164.766 83.5334L172.35 80.698L177.949 58.2849L182.422 44.7681L178.349 19.9396L174.586 14.2689L168.439 10.9534L152.471 6.58781L93.5027 1.24707Z" fill="rgb(1,89,188)" fill-rule="nonzero" />
	<path id="矢量 501" d="M84.7189 3.79742L80.4973 10.5483L79.3716 19.1295L88.1554 64.9158L91.903 67.9912L108.923 71.4717L127.542 75.1172L156.693 82.6033L164.766 83.5334L172.35 80.698L177.949 58.2849L182.422 44.7681L178.349 19.9396L174.586 14.2689L168.439 10.9534L152.471 6.58781L93.5027 1.24707L84.7189 3.79742Z" fill-rule="nonzero" stroke="rgb(0,0,0)" stroke-width="1.000000" />
	<g id="组合 100">
		<path id="矢量 502" d="M89.9082 229.255C89.6415 229.135 89.2712 229.03 89.0935 229.03C88.9305 229.03 88.6195 228.94 88.4121 228.835C88.2047 228.715 87.8048 228.58 87.5233 228.52C85.6866 228.16 82.6648 225.895 81.4058 223.959C80.28 222.219 79.2283 220.029 78.7543 218.379C78.2803 216.713 78.0878 213.053 78.3248 209.828C78.5322 206.932 78.9025 203.707 79.0802 203.167C79.1691 202.927 79.2283 202.522 79.2283 202.251C79.2283 201.981 79.2876 201.576 79.3765 201.336C79.4505 201.096 79.5838 200.331 79.6727 199.626C79.7468 198.921 79.8949 198.066 79.9838 197.721C80.1615 197.151 80.1467 197.061 79.7912 196.521C79.5839 196.206 79.3468 195.636 79.258 195.276C79.1247 194.72 78.5322 192.95 78.147 191.975C78.1026 191.855 77.9841 191.45 77.8952 191.075C77.8064 190.7 77.5694 189.965 77.3768 189.425C77.199 188.885 76.8584 187.805 76.651 187.024C75.8955 184.294 75.4956 182.749 75.303 181.909C75.1993 181.459 75.0512 180.934 74.9475 180.754C74.8587 180.589 74.7846 180.243 74.7846 179.988C74.7846 179.748 74.7105 179.358 74.6365 179.148C74.4735 178.698 74.1032 177.123 73.9107 176.073C73.8366 175.698 73.7181 175.098 73.6292 174.723C73.5404 174.348 73.3922 173.643 73.3034 173.147C73.2145 172.652 73.0515 171.782 72.933 171.197C72.6072 169.637 72.3702 167.897 72.1332 165.406C72.0739 164.686 71.9554 164.026 71.8813 163.906C71.8221 163.801 71.7184 162.886 71.6592 161.896C71.5999 160.906 71.4814 159.661 71.3925 159.121C71.2296 158.175 71.2148 152.4 71.3777 151.92C71.437 151.755 71.2444 151.68 70.4594 151.605C69.9113 151.545 69.378 151.44 69.2892 151.38C69.1855 151.319 68.667 151.214 68.1338 151.154C65.8971 150.869 63.8974 150.344 62.3421 150.179C61.8977 150.119 61.4534 150.014 61.3497 149.939C61.2608 149.864 60.7572 149.729 60.2387 149.654C59.7203 149.564 58.95 149.444 58.5057 149.369C58.0761 149.294 54.2841 148.364 54.0027 148.244C53.7064 148.124 53.2028 148.019 52.8917 148.019C52.551 148.019 52.2252 147.929 52.1215 147.794C52.0178 147.674 45.6632 146.114 45.4559 145.994C45.2485 145.874 44.9374 145.784 44.7597 145.769C44.5819 145.769 44.182 145.664 43.8709 145.529C42.3749 144.884 41.9009 144.704 40.4196 144.254C39.8864 144.089 39.2346 143.848 38.968 143.728C38.7014 143.608 38.3903 143.518 38.257 143.518C38.0348 143.518 36.0647 142.753 35.3389 142.378C35.1019 142.258 34.8205 142.168 34.702 142.168C34.5835 142.168 34.3761 142.108 34.228 142.048C33.4577 141.658 32.5542 141.268 31.9024 141.043C31.5025 140.893 31.0285 140.683 30.8655 140.563C30.7026 140.458 30.4656 140.368 30.3323 140.368C30.1842 140.368 29.8879 140.278 29.6509 140.158C29.2065 139.933 28.9844 139.828 27.592 139.258C27.0884 139.048 26.3625 138.703 25.9774 138.493C25.5923 138.283 25.1924 138.118 25.1183 138.118C24.8961 138.118 19.7414 135.657 19.371 135.462C18.9859 135.267 18.2157 134.937 17.6676 134.727C17.1195 134.517 16.29 134.172 15.8457 133.962C15.3865 133.752 14.8236 133.497 14.5718 133.377C14.3348 133.272 13.7571 133.032 13.3127 132.867C12.8684 132.702 12.3647 132.492 12.2018 132.417C12.0389 132.357 11.7426 132.252 11.5352 132.222C10.4539 132.012 7.4618 130.647 6.58786 129.972C5.3288 128.996 4.18823 127.646 3.64017 126.491C3.3143 125.831 2.98842 125.156 2.89955 124.991C2.73661 124.706 2.6033 123.896 2.41073 122.276C2.18855 120.37 3.46242 117.04 4.6178 116.5C5.0918 116.275 5.13623 115.915 4.70667 115.525C4.21786 115.075 2.89955 113.199 2.54405 112.464C1.84786 111.009 1.16648 109.269 1.16648 108.969C1.16648 108.789 1.0628 108.504 0.944297 108.354C0.825797 108.189 0.722109 107.799 0.722109 107.498C0.722109 107.183 0.648047 106.748 0.559172 106.508C0.470297 106.283 0.381422 105.578 0.351797 104.963C0.336984 104.348 0.233297 102.998 0.144422 101.963C-0.0481406 99.6224 -0.0481406 88.1608 0.144422 86.1356C0.218484 85.3104 0.351797 83.5252 0.425859 82.16C0.692484 77.7794 0.810984 76.2192 0.929484 76.0242C0.988734 75.9192 1.04798 75.3191 1.04798 74.704C1.03317 74.0739 1.13686 73.2788 1.25536 72.9487C1.35905 72.6037 1.46273 71.7636 1.46273 71.0435C1.46273 70.2484 1.5368 69.6933 1.64048 69.5883C1.74417 69.4833 1.86267 68.8232 1.92192 68.0881C2.08486 66.0778 2.32186 64.2926 2.4848 63.8725C2.55886 63.6625 2.66255 63.0774 2.7218 62.5823C2.76623 62.0872 2.86992 61.2621 2.94398 60.7371C3.03286 60.227 3.15136 59.4169 3.21061 58.9368C3.26986 58.4717 3.40317 57.9317 3.50686 57.7517C3.61055 57.5716 3.68461 57.1516 3.68461 56.8065C3.68461 56.4765 3.7883 55.9814 3.92161 55.7264C4.05492 55.4713 4.11417 55.1263 4.06973 54.9613C4.0253 54.7812 4.06973 54.5562 4.15861 54.4512C4.24748 54.3462 4.36598 53.9411 4.44005 53.5811C4.72148 52.0809 5.87686 51.2108 11.0909 48.5554C11.6241 48.2854 12.1574 48.0003 12.2759 47.9403C12.3944 47.8653 12.6017 47.7603 12.7202 47.7153C12.8387 47.6703 13.5497 47.3402 14.2755 46.9802C15.8901 46.2001 17.2825 45.66 17.6824 45.675C17.8454 45.675 18.423 45.78 18.9711 45.9C19.5192 46.005 20.008 46.0801 20.0524 46.035C20.0969 45.99 20.1265 45.45 20.1265 44.8199C20.1413 44.1148 20.2154 43.5297 20.3487 43.3047C20.4672 43.0946 20.556 42.8096 20.5709 42.6596C20.5709 42.0295 22.5557 40.0342 23.1927 40.0042C23.3408 40.0042 27.4142 38.084 28.4659 37.5289C28.7029 37.4089 28.9844 37.3038 29.1029 37.3038C29.2214 37.3038 29.3547 37.1988 29.3991 37.0788C29.4584 36.9588 29.6361 36.8538 29.8287 36.8538C30.0064 36.8538 30.2434 36.7488 30.3471 36.6288C30.4508 36.5087 30.5989 36.4037 30.6878 36.4037C30.8507 36.4037 31.2655 36.2237 33.828 34.9785C34.7316 34.5435 35.724 34.0784 36.0499 33.9284C36.3758 33.7784 37.4423 33.2833 38.4199 32.8032C39.3975 32.3232 40.8492 31.6331 41.6342 31.243C42.4193 30.868 43.1599 30.5529 43.2932 30.5529C43.4117 30.5529 43.545 30.4929 43.5895 30.4329C43.6339 30.3579 44.3745 29.9528 45.2633 29.5178C46.1372 29.0977 47.263 28.5426 47.7518 28.2876C48.2554 28.0476 48.6998 27.8525 48.759 27.8525C48.8331 27.8525 49.6182 27.4925 50.5365 27.0424C52.4622 26.0973 54.1656 25.3022 55.5284 24.6721C56.0616 24.4321 57.1281 23.922 57.8984 23.547C58.6686 23.1719 59.5129 22.7819 59.7499 22.6618C60.0017 22.5568 60.8609 22.1518 61.6755 21.7617C63.3197 20.9816 64.8454 20.2765 65.5268 19.9765C66.5192 19.5414 70.2224 17.8012 71.1259 17.3361C71.437 17.1861 71.748 17.0511 71.8221 17.0511C71.9406 17.0511 73.5996 16.301 76.6362 14.8758C77.2139 14.6207 77.8508 14.3507 78.0582 14.3057C78.2655 14.2457 78.6803 14.0357 78.9913 13.8256C79.2876 13.6156 79.6283 13.4506 79.7468 13.4506C79.8505 13.4506 80.5763 13.1505 81.3317 12.7905C83.524 11.7403 84.2646 11.4103 85.3459 10.9752C85.894 10.7502 86.3828 10.5102 86.4272 10.4352C86.4717 10.3601 86.6198 10.3001 86.7679 10.3001C86.916 10.3001 87.1234 10.1951 87.2271 10.0751C87.3308 9.95509 87.553 9.85008 87.7307 9.85008C87.9085 9.85008 88.1159 9.79007 88.2047 9.71506C88.2788 9.64005 89.1675 9.23499 90.1896 8.81494C91.2117 8.37988 92.4115 7.8398 92.8707 7.59977C93.3298 7.34473 93.8187 7.14971 93.9668 7.14971C94.1001 7.14971 94.3963 7.0597 94.6037 6.93968C95.448 6.48962 96.4553 6.21958 97.2996 6.21958C98.0254 6.21958 98.3217 6.30959 98.9586 6.69965C99.3882 6.96968 99.8918 7.37474 100.084 7.61477C100.514 8.15485 100.603 8.15485 101.284 7.61477C101.58 7.38974 102.736 6.72965 103.862 6.17457C104.987 5.6195 105.935 5.09443 105.98 5.03442C106.024 4.95941 106.187 4.8994 106.335 4.8994C106.483 4.8994 106.794 4.79438 107.031 4.67437C107.254 4.56935 107.742 4.32932 108.113 4.1643C108.483 4.01428 109.313 3.62422 109.964 3.32418C115.238 0.848843 116.363 0.473792 116.837 1.05887C116.941 1.17889 117.237 1.31391 117.504 1.35891C117.785 1.41892 118.082 1.55394 118.185 1.67396C118.496 2.04901 118.97 1.92899 119.415 1.37392C119.637 1.08888 119.918 0.848843 120.022 0.848843C120.126 0.848843 120.614 0.638814 121.118 0.383779C121.977 -0.0812843 122.022 -0.0812843 122.496 0.158749C122.747 0.293767 123.088 0.398782 123.221 0.398782C123.621 0.398782 124.984 2.12402 124.999 2.66409C124.999 2.79911 125.088 2.99414 125.206 3.08415C125.473 3.30918 125.888 4.59936 125.888 5.19944C125.888 5.49948 125.977 5.69451 126.154 5.75452C126.377 5.82953 127.236 6.24958 129.221 7.25472C129.635 7.46475 130.065 7.68978 130.183 7.74979C130.302 7.8248 130.939 8.15485 131.591 8.49989C132.242 8.82994 133.175 9.34001 133.664 9.62505C134.153 9.91009 134.76 10.2401 134.997 10.3752C136.108 10.9752 137.234 11.6503 138.108 12.2204C138.271 12.3104 138.567 12.4754 138.775 12.5655C138.982 12.6555 139.337 12.8805 139.589 13.0605C139.826 13.2405 140.137 13.4506 140.256 13.4956C140.374 13.5556 140.656 13.7206 140.878 13.8706C141.085 14.0056 142.063 14.6207 143.026 15.2208C145.307 16.646 145.218 16.571 146.225 17.3211C146.714 17.6662 147.188 17.9512 147.277 17.9512C147.381 17.9512 147.647 18.1462 147.884 18.4013C148.121 18.6413 148.432 18.8513 148.566 18.8513C148.714 18.8513 148.892 18.9413 148.951 19.0463C149.01 19.1664 149.306 19.3764 149.588 19.5414C149.869 19.6914 150.314 20.0065 150.551 20.2165C150.802 20.4415 151.558 21.0116 152.254 21.4917C153.483 22.3318 154.165 22.8119 155.809 23.997C156.253 24.3121 157.157 25.0022 157.809 25.5422C158.46 26.0673 159.66 27.0274 160.475 27.6575C162.208 29.0077 162.519 29.2627 164.548 30.973C165.156 31.498 165.733 32.0081 165.807 32.1131C165.896 32.2181 166.385 32.6232 166.918 33.0433C168.044 33.8984 167.881 33.7634 172.31 37.7689C175.628 40.7693 176.428 41.5344 177.183 42.4646C177.657 43.0496 178.028 42.9146 178.028 42.1795C178.028 41.0994 178.694 40.3643 180.161 39.8542C180.946 39.5692 180.961 39.5692 181.82 39.8992C182.546 40.1842 182.812 40.3943 183.36 41.1294C183.731 41.6244 184.13 42.3295 184.234 42.7046C184.353 43.0796 184.545 43.4847 184.649 43.6197C184.753 43.7397 184.841 43.9798 184.841 44.1448C184.841 44.3098 184.975 44.6849 185.138 44.9999C185.301 45.2999 185.434 45.705 185.434 45.9C185.434 46.0951 185.538 46.3801 185.656 46.5451C185.775 46.6951 185.878 47.0702 185.878 47.3702C185.878 47.6703 185.982 48.0003 186.101 48.1053C186.219 48.2103 186.323 48.5404 186.323 48.8404C186.323 49.1405 186.426 49.5455 186.56 49.7256C186.708 49.9506 186.767 50.2056 186.708 50.4456C186.56 51.0157 186.989 51.5858 189.033 53.5361C191.389 55.7714 194.781 59.2819 195.906 60.632C197.195 62.1623 198.025 64.2475 198.025 65.9428C198.025 66.3628 198.099 66.8729 198.188 67.1129C198.35 67.533 198.513 69.0182 198.75 72.1836C198.81 73.0988 198.943 74.0289 199.032 74.2539C199.136 74.494 199.21 75.229 199.21 75.9041C199.21 76.5792 199.313 77.6144 199.432 78.1845C199.55 78.7695 199.654 79.7447 199.654 80.3598C199.654 80.9748 199.743 82.025 199.847 82.6851C199.965 83.3452 200.039 84.1853 200.024 84.5603C200.009 84.9354 200.084 86.2556 200.187 87.4857C200.306 88.7309 200.454 91.2513 200.543 93.1115C200.617 94.9718 200.765 98.0772 200.854 100.012C201.076 104.708 200.928 108.324 200.424 109.884C200.217 110.514 199.032 112.194 198.513 112.599C198.276 112.764 198.039 112.959 197.951 113.019C197.876 113.094 197.477 113.304 197.091 113.484C196.603 113.724 196.395 113.919 196.425 114.084C196.499 114.519 197.106 114.459 197.921 113.949C198.543 113.559 198.884 113.454 199.758 113.394C201.017 113.319 201.446 113.514 202.572 114.774C203.12 115.375 203.342 115.78 203.55 116.53C203.683 117.055 203.905 117.835 204.024 118.255C204.142 118.675 204.246 119.185 204.246 119.41C204.246 119.62 204.32 119.98 204.409 120.22C204.557 120.61 204.705 121.495 204.957 123.641C205.016 124.136 214.837 188.42 214.985 188.615C215.326 189.08 215.296 192.05 214.926 192.77C213.978 194.66 212.852 195.186 208.69 195.711C208.245 195.771 207.727 195.891 207.549 195.996C207.371 196.101 206.897 196.176 206.512 196.176C206.097 196.176 205.653 196.266 205.49 196.401C205.283 196.566 204.749 196.611 203.313 196.626L201.417 196.626L200.306 197.301C199.713 197.676 199.15 197.976 199.076 197.976C198.958 197.976 197.477 198.576 196.321 199.101C195.077 199.656 191.507 199.641 191.048 199.086C190.841 198.831 189.27 198.801 189.033 199.041C188.945 199.131 188.485 199.296 187.997 199.401C187.523 199.521 182.234 200.676 181.805 200.676C180.798 200.676 180.605 200.871 180.487 201.951C180.427 202.447 180.324 203.092 180.25 203.377C180.176 203.662 180.013 204.412 179.879 205.027C179.746 205.642 179.553 206.422 179.435 206.752C179.331 207.082 179.139 207.757 178.991 208.252C178.161 211.238 176.546 214.493 175.317 215.678C174.532 216.443 172.829 217.704 171.881 218.229C171.392 218.499 170.77 218.844 170.503 219.009C170.236 219.174 169.703 219.429 169.318 219.579C166.533 220.629 165.6 220.989 165.215 221.154C164.978 221.259 164.341 221.469 163.808 221.604C163.274 221.739 162.578 221.949 162.252 222.054C160.593 222.579 156.994 223.479 155.942 223.629C155.498 223.689 154.979 223.809 154.802 223.914C154.639 224.004 154.239 224.079 153.928 224.079C153.617 224.079 153.128 224.154 152.846 224.23C152.565 224.32 151.262 224.485 149.973 224.605C148.684 224.74 147.573 224.875 147.499 224.92C147.395 224.98 145.899 225.115 141.885 225.43C140.952 225.505 139.886 225.625 139.515 225.715C139.145 225.805 138.256 225.865 137.516 225.88C136.79 225.88 135.916 225.955 135.59 226.045C135.264 226.12 134.464 226.225 133.812 226.255C133.161 226.285 131.961 226.39 131.146 226.48C130.331 226.57 128.806 226.705 127.739 226.795C126.688 226.87 125.414 227.005 124.925 227.08C124.436 227.17 123.473 227.23 122.777 227.23C122.081 227.245 121.222 227.305 120.851 227.395C120.481 227.485 119.281 227.605 118.185 227.665C113.46 227.965 108.972 228.295 107.565 228.43C106.735 228.52 105.076 228.655 103.862 228.745C102.662 228.82 100.766 228.955 99.6696 229.03C98.5735 229.105 96.9441 229.24 96.0405 229.315C93.5224 229.54 90.5007 229.51 89.9082 229.255ZM97.1515 227.665C98.3365 227.59 99.9066 227.455 100.632 227.38C101.373 227.305 102.558 227.245 103.284 227.245C104.01 227.23 105.017 227.17 105.506 227.08C106.009 227.005 107.95 226.825 109.816 226.705C115.815 226.3 117.504 226.18 118.407 226.03C118.896 225.94 119.726 225.88 120.259 225.88C120.792 225.88 121.888 225.775 122.703 225.655C123.518 225.535 124.54 225.43 124.955 225.43C125.384 225.43 126.184 225.37 126.732 225.28C128.539 225.01 135.901 224.29 138.952 224.094C139.974 224.019 140.908 223.914 140.996 223.854C141.085 223.794 142.078 223.689 143.189 223.629C144.3 223.554 145.722 223.434 146.329 223.344C146.936 223.269 148.477 223.089 149.736 222.954C154.239 222.474 157.601 221.754 163.363 220.014C164.222 219.759 165.096 219.459 165.319 219.339C165.526 219.219 165.867 219.129 166.059 219.129C166.252 219.129 166.548 219.024 166.711 218.904C166.859 218.784 167.081 218.679 167.2 218.679C167.659 218.679 171.51 216.638 172.547 215.873C173.584 215.093 174.769 213.938 174.769 213.698C174.769 213.638 174.858 213.503 174.962 213.398C175.184 213.143 175.51 212.558 176.072 211.403C176.472 210.578 176.68 210.083 177.213 208.627C177.569 207.697 178.205 205.057 178.62 202.777C178.709 202.327 178.872 201.546 178.991 201.051C179.094 200.556 179.228 199.611 179.272 198.951C179.331 198.291 179.465 197.181 179.583 196.476C179.894 194.6 180.131 192.65 180.205 191.375C180.235 190.76 180.324 189.98 180.398 189.65C180.472 189.32 180.546 187.97 180.561 186.664C180.59 185.359 180.664 184.009 180.753 183.694C180.887 183.169 180.857 183.019 180.501 182.329C180.279 181.894 180.101 181.459 180.101 181.369C180.101 181.264 180.013 180.964 179.894 180.694C179.124 178.878 178.857 178.203 178.546 177.303C178.354 176.748 177.954 175.623 177.657 174.798C177.361 173.973 176.887 172.562 176.591 171.647C176.295 170.747 176.028 169.892 175.984 169.772C175.939 169.652 175.791 169.142 175.658 168.647C175.51 168.152 175.287 167.372 175.139 166.922C175.006 166.472 174.828 165.811 174.769 165.466C174.695 165.121 174.576 164.716 174.488 164.566C174.413 164.416 174.236 163.861 174.102 163.321C173.969 162.781 173.762 162.016 173.643 161.596C173.525 161.191 173.303 160.201 173.125 159.421C172.962 158.641 172.769 157.935 172.68 157.86C172.606 157.77 172.547 157.38 172.547 156.99C172.547 156.585 172.443 156.015 172.325 155.715C172.206 155.43 172.103 154.935 172.103 154.635C172.103 154.335 172.029 154.005 171.925 153.9C171.747 153.72 171.629 153.105 171.377 150.914C171.303 150.314 171.199 149.774 171.155 149.699C171.11 149.624 170.858 149.519 170.592 149.459C170.325 149.414 169.673 149.159 169.14 148.904C166.533 147.614 166.104 147.509 163.215 147.494C161.823 147.494 160.416 147.569 159.956 147.674C159.512 147.779 158.475 147.974 157.661 148.109C155.172 148.514 153.543 148.829 152.402 149.129C151.528 149.354 150.58 149.594 149.291 149.909C148.847 150.014 148.24 150.164 147.958 150.254C147.677 150.329 146.803 150.569 146.033 150.779C145.262 150.989 144.389 151.259 144.107 151.38C143.826 151.5 143.189 151.71 142.7 151.845C142.211 151.995 141.678 152.16 141.515 152.22C141.352 152.28 140.285 152.595 139.145 152.91C138.004 153.21 136.953 153.525 136.819 153.6C136.671 153.675 136.271 153.795 135.931 153.87C135.575 153.93 135.027 154.095 134.701 154.215C134.375 154.335 133.649 154.545 133.072 154.68C132.509 154.8 131.605 155.01 131.072 155.145C130.124 155.385 129.146 155.61 127.517 155.955C127.073 156.06 126.465 156.21 126.184 156.3C125.621 156.48 124.184 156.81 122.999 157.02C122.599 157.095 121.622 157.29 120.851 157.47C120.081 157.65 119.089 157.86 118.644 157.935C118.2 158.025 117.77 158.115 117.696 158.175C117.622 158.22 117.148 158.31 116.645 158.37C116.156 158.43 115.015 158.626 114.112 158.791C112.497 159.106 109.964 159.511 108.409 159.706C107.624 159.811 103.358 160.456 101.225 160.801C100.662 160.891 99.8177 161.011 99.3734 161.071C98.929 161.131 98.1587 161.266 97.6699 161.356C97.1811 161.446 96.3812 161.581 95.8924 161.656C94.0408 161.971 92.1893 162.526 91.3746 163.036C91.2561 163.111 91.0487 163.216 90.9302 163.276C90.8117 163.321 90.4414 163.576 90.1155 163.831C88.101 165.406 87.6863 166.472 86.6494 172.547C86.5605 173.042 86.3976 173.928 86.2643 174.498C86.131 175.083 85.968 175.893 85.894 176.298C85.7755 177.018 85.6125 177.798 85.2867 179.223C85.1978 179.598 85.0052 180.604 84.8423 181.474C84.6942 182.344 84.3979 183.829 84.1905 184.774C83.9683 185.719 83.7462 186.799 83.6869 187.174C83.6128 187.549 83.524 187.955 83.4647 188.075C83.3907 188.27 83.1685 189.35 82.7982 191.375C82.5167 192.845 82.3093 193.88 82.1612 194.525C82.0723 194.9 81.9538 195.546 81.8946 195.951C81.7613 196.956 81.4799 198.456 81.2132 199.581C81.0947 200.091 81.0059 200.706 81.0059 200.946C81.0059 201.201 80.9466 201.561 80.8725 201.771C80.7244 202.131 80.3245 205.312 79.8801 209.377C79.6135 211.913 79.6579 213.788 80.0282 216.353C80.2949 218.124 80.7985 219.624 81.6132 221.079C81.6724 221.199 81.8946 221.649 82.102 222.054C82.887 223.659 84.3535 225.295 85.5237 225.895C85.6866 225.97 86.1902 226.24 86.6346 226.48C87.079 226.72 87.553 226.93 87.6863 226.93C87.8048 226.93 87.9677 226.99 88.0566 227.065C88.3232 227.305 90.1303 227.725 91.3746 227.83C92.7225 227.935 93.7298 227.92 97.1515 227.665ZM182.234 198.936C182.486 198.891 183.064 198.771 183.508 198.651C184.604 198.381 186.397 198.006 187.211 197.901C188.648 197.691 188.767 197.406 187.73 196.656C187.374 196.401 186.767 195.756 186.382 195.246C185.775 194.405 185.478 193.865 184.753 192.2C184.649 191.96 184.382 191.375 184.175 190.925C183.731 189.995 183.479 189.32 183.049 187.955C182.797 187.129 182.708 187.009 182.427 187.054C182.116 187.099 182.101 187.174 182.086 188.675C182.086 190.385 181.835 192.8 181.598 193.625C181.509 193.91 181.435 194.585 181.435 195.126C181.435 195.666 181.361 196.371 181.286 196.701C180.768 198.816 180.783 199.266 181.405 199.101C181.598 199.056 181.968 198.981 182.234 198.936ZM195.284 197.616C196.114 197.421 196.78 197.211 197.506 196.911C197.669 196.836 197.965 196.716 198.173 196.626C198.38 196.551 198.647 196.416 198.765 196.326C198.884 196.251 199.521 195.861 200.172 195.486C200.824 195.096 201.387 194.75 201.431 194.69C201.476 194.63 201.935 194.255 202.454 193.85C203.016 193.4 203.698 192.665 204.157 191.99C204.572 191.39 205.001 190.76 205.12 190.595C205.446 190.16 205.475 188.45 205.209 186.799C205.075 185.974 204.972 185.104 204.986 184.879C204.986 184.654 204.912 184.309 204.809 184.129C204.705 183.949 204.572 183.424 204.512 182.974C204.453 182.524 192.011 127.451 191.877 126.791C191.744 126.131 191.507 125.156 191.359 124.616C191.092 123.656 190.722 122.065 190.248 119.74C189.922 118.15 189.922 118.165 189.685 118.165C189.537 118.165 189.448 118.42 189.374 118.975C189.211 120.445 188.589 121.54 186.989 123.236C186.086 124.196 183.123 126.611 182.471 126.911C182.353 126.971 182.057 127.151 181.805 127.316C181.361 127.601 179.598 128.486 178.62 128.921C178.339 129.056 177.909 129.251 177.687 129.356C177.45 129.476 177.139 129.567 176.991 129.567C176.843 129.567 176.68 129.627 176.635 129.702C176.561 129.807 175.332 130.182 173.51 130.617C173.11 130.722 172.295 130.842 171.703 130.872L170.636 130.947L170.71 132.837C170.755 133.887 170.873 134.952 170.962 135.192C171.051 135.447 171.17 136.452 171.229 137.443C171.288 138.433 171.407 139.918 171.495 140.743C171.599 141.568 171.732 142.858 171.806 143.593C171.895 144.344 172.014 145.469 172.073 146.099C172.132 146.729 172.266 147.344 172.369 147.449C172.473 147.554 172.547 148.004 172.547 148.469C172.547 148.934 172.606 149.369 172.68 149.459C172.754 149.534 172.843 149.894 172.888 150.269C172.932 150.644 173.14 151.83 173.362 152.895C173.569 153.975 173.806 155.19 173.88 155.625C173.939 156.045 174.073 156.615 174.147 156.9C174.295 157.395 174.562 158.445 174.769 159.421C174.843 159.706 174.962 160.156 175.036 160.396C175.391 161.431 175.658 162.481 175.658 162.886C175.658 163.111 175.717 163.336 175.791 163.396C175.88 163.441 175.984 163.801 176.043 164.191C176.102 164.581 176.235 165.031 176.339 165.196C176.458 165.361 176.546 165.646 176.546 165.841C176.546 166.037 176.621 166.322 176.695 166.487C176.783 166.637 176.902 167.057 176.976 167.402C177.124 168.092 177.346 168.812 177.657 169.547C177.776 169.802 177.894 170.207 177.924 170.447C177.998 170.957 179.331 174.873 179.509 175.098C179.568 175.188 179.657 175.413 179.702 175.623C179.805 176.133 180.561 178.203 181.049 179.283C181.257 179.763 181.435 180.318 181.435 180.499C181.435 180.679 181.538 180.919 181.657 181.024C181.775 181.129 181.879 181.384 181.879 181.609C181.879 181.819 181.983 182.134 182.101 182.284C182.22 182.449 182.323 182.674 182.323 182.809C182.323 182.929 182.412 183.139 182.516 183.259C182.62 183.394 182.827 183.874 182.975 184.324C183.123 184.774 183.419 185.554 183.656 186.049C183.879 186.544 184.279 187.459 184.545 188.075C184.812 188.69 186.278 192.005 186.767 192.995C187.448 194.345 187.878 195.02 188.485 195.636C189.478 196.641 190.87 197.526 191.448 197.526C191.685 197.526 191.981 197.601 192.1 197.676C192.425 197.886 194.247 197.856 195.284 197.616ZM205.49 194.63C205.668 194.54 206.231 194.405 206.764 194.36C208.275 194.195 210.645 193.805 211.208 193.64C211.489 193.55 211.904 193.475 212.126 193.475C212.363 193.475 212.689 193.325 212.852 193.16C213.267 192.74 213.03 192.575 211.948 192.575C210.897 192.575 209.593 192.23 208.882 191.78C208.23 191.36 207.238 190.28 206.882 189.59C206.616 189.095 206.32 189.08 206.32 189.545C206.32 190.07 205.742 191.69 205.401 192.11C205.223 192.35 204.898 192.815 204.705 193.145C204.512 193.475 204.098 193.895 203.787 194.09C203.461 194.3 203.209 194.57 203.209 194.735C203.209 194.99 203.298 195.005 204.187 194.915C204.735 194.855 205.312 194.735 205.49 194.63ZM80.8429 193.955C80.917 193.805 81.0058 193.19 81.0207 192.575C81.0355 191.96 81.1392 191.225 81.2577 190.94C81.3614 190.67 81.4502 190.235 81.4502 189.995C81.4502 189.755 81.6428 188.78 81.8798 187.805C82.3834 185.719 82.5908 184.759 82.7093 183.949C82.7685 183.619 82.9018 183.094 83.0203 182.779C83.1388 182.479 83.2277 181.969 83.2277 181.654C83.2277 181.339 83.3166 180.994 83.4055 180.904C83.5092 180.799 83.6425 180.258 83.7017 179.703C83.7462 179.148 83.9091 178.263 84.0424 177.723C84.1905 177.183 84.4868 175.698 84.709 174.423C85.257 171.332 85.42 170.462 85.6125 169.472C85.7014 169.022 85.8051 168.302 85.8495 167.867C85.894 167.432 86.0125 167.012 86.131 166.907C86.2495 166.817 86.3383 166.622 86.3532 166.487C86.3532 166.277 86.5013 165.947 87.2419 164.551C87.39 164.266 87.3752 164.071 87.0938 163.351C86.916 162.886 86.679 162.301 86.5605 162.076C86.442 161.836 86.3383 161.536 86.3383 161.386C86.3383 161.251 86.2347 160.996 86.1162 160.831C85.9977 160.681 85.894 160.336 85.894 160.066C85.894 159.796 85.8051 159.361 85.6866 159.091C85.4052 158.415 85.0497 157.125 84.8571 156.045C84.7682 155.55 84.6349 154.815 84.5609 154.395C84.4868 153.99 84.3239 153.18 84.1905 152.595C83.8054 150.854 83.6721 149.939 83.6721 148.964C83.6721 147.824 83.4647 147.749 82.7833 148.619C82.5315 148.949 82.1464 149.309 81.9242 149.429C80.8133 150.059 78.9765 150.929 78.7543 150.929C78.621 150.944 78.4581 150.989 78.3988 151.064C78.3396 151.124 78.0878 151.169 77.836 151.169C77.5694 151.169 77.2287 151.274 77.0509 151.395C76.8287 151.56 76.2066 151.62 74.6957 151.65C72.7257 151.695 72.6368 151.71 72.6812 151.995C72.7109 152.16 72.8145 153.81 72.933 155.67C73.0515 157.53 73.1848 159.586 73.2293 160.246C73.2737 160.906 73.3478 161.686 73.3922 161.971C73.4959 162.511 73.6737 164.236 73.8662 166.472C73.9255 167.177 74.0292 167.837 74.1032 167.942C74.1625 168.047 74.2662 168.617 74.3402 169.217C74.5032 170.687 74.8735 172.847 75.2438 174.573C75.4067 175.353 75.6141 176.298 75.6882 176.673C75.7622 177.048 75.8955 177.693 75.9696 178.098C76.3844 180.243 76.7398 181.699 76.9028 181.864C76.962 181.924 77.0065 182.179 77.0065 182.449C77.0065 182.704 77.1102 183.049 77.2287 183.214C77.3472 183.364 77.4509 183.679 77.4509 183.904C77.4509 184.129 77.5101 184.459 77.5842 184.654C77.7471 185.044 78.0878 186.289 78.3396 187.399C78.4433 187.82 78.5766 188.285 78.6358 188.45C78.8877 189.065 79.6727 191.78 79.9097 192.8C80.043 193.385 80.1764 193.94 80.206 194.045C80.28 194.315 80.68 194.27 80.8429 193.955ZM213.4 191.69C213.696 191.51 213.785 190.445 213.578 189.785C213.385 189.215 203.476 124.826 203.239 122.891C203.179 122.396 203.046 121.84 202.942 121.66C202.839 121.48 202.765 120.97 202.765 120.535C202.75 120.1 202.661 119.575 202.542 119.365C202.424 119.155 202.32 118.75 202.32 118.465C202.305 117.835 201.92 116.635 201.476 115.87C200.957 114.985 200.558 114.91 198.987 115.435C197.699 115.855 197.61 115.87 196.306 115.705C195.566 115.615 194.87 115.465 194.751 115.375C194.321 115.03 193.403 114.834 192.707 114.94C192.337 115 191.655 115.09 191.211 115.135C190.455 115.24 190.396 115.27 190.352 115.675C190.322 115.915 190.367 116.155 190.441 116.2C190.841 116.455 191.166 117.55 192.04 121.54C192.174 122.201 192.351 122.846 192.396 122.966C192.514 123.206 192.781 124.181 192.974 125.066C193.033 125.351 193.166 125.741 193.255 125.921C193.359 126.101 193.433 126.476 193.433 126.746C193.433 127.031 193.492 127.316 193.551 127.391C193.625 127.481 205.92 182.734 206.186 184.474C206.246 184.924 206.379 185.764 206.468 186.319C206.942 189.5 209.43 191.735 212.541 191.81C212.911 191.81 213.296 191.765 213.4 191.69ZM89.3157 162.496C89.9378 161.926 92.5004 160.621 93.004 160.621C93.1817 160.621 93.4632 160.546 93.6409 160.441C93.8187 160.351 94.263 160.216 94.6333 160.156C95.0037 160.096 96.3664 159.871 97.6699 159.661C98.9734 159.436 100.677 159.151 101.447 159.031C102.217 158.911 103.225 158.731 103.669 158.641C104.113 158.565 104.987 158.43 105.595 158.355C107.654 158.13 110.69 157.635 112.631 157.245C113.208 157.125 113.934 156.99 114.26 156.96C114.586 156.915 115.326 156.78 115.889 156.66C116.467 156.555 117.326 156.375 117.815 156.285C120.037 155.85 122.392 155.355 123.592 155.055C123.918 154.98 124.599 154.845 125.117 154.77C125.636 154.68 126.184 154.545 126.332 154.47C126.48 154.38 126.791 154.32 127.028 154.32C127.25 154.32 127.636 154.215 127.873 154.095C128.095 153.975 128.435 153.87 128.598 153.87C128.761 153.87 129.235 153.78 129.65 153.66C130.924 153.3 132.879 152.805 133.886 152.58C134.864 152.355 136.879 151.77 137.96 151.38C138.301 151.259 138.686 151.169 138.819 151.169C138.967 151.169 139.663 150.974 140.374 150.734C141.085 150.494 142.093 150.194 142.626 150.059C144.003 149.699 145.159 149.354 145.588 149.189C145.796 149.099 146.196 148.979 146.477 148.904C148.255 148.514 150.299 147.989 151.513 147.629C152.284 147.404 153.32 147.164 153.809 147.104C154.298 147.044 155.128 146.879 155.661 146.744C156.194 146.609 157.261 146.429 158.031 146.354C158.801 146.264 159.616 146.144 159.823 146.084C160.045 146.009 161.512 146.009 163.082 146.084C165.437 146.189 166.104 146.264 166.741 146.519C167.274 146.729 167.703 146.804 168.014 146.744C168.355 146.669 168.548 146.714 168.681 146.879C168.8 147.014 168.962 147.119 169.051 147.119C169.155 147.119 169.481 147.359 169.792 147.644C170.103 147.929 170.488 148.169 170.651 148.169C170.918 148.169 170.933 148.094 170.844 147.389C170.784 146.969 170.636 146.399 170.533 146.129C170.414 145.844 170.325 145.124 170.325 144.494C170.325 143.863 170.236 143.203 170.147 143.023C170.044 142.843 169.91 142.123 169.851 141.418C169.585 138.253 169.466 137.083 169.362 136.933C169.274 136.783 169.17 135.087 169.081 132.687C169.066 132.042 168.992 131.472 168.933 131.412C168.874 131.337 168.207 131.307 167.466 131.337C166.474 131.382 165.956 131.322 165.556 131.157C165.245 131.022 164.622 130.917 164.148 130.917C163.674 130.917 162.993 130.812 162.638 130.677C162.267 130.557 161.838 130.482 161.675 130.527C161.304 130.617 158.994 130.287 158.831 130.122C158.771 130.062 158.46 130.017 158.135 130.017C157.823 130.017 157.379 129.927 157.172 129.807C156.713 129.567 155.468 129.281 154.402 129.161C154.002 129.116 153.528 128.996 153.365 128.876C153.202 128.756 152.846 128.666 152.55 128.666C152.269 128.651 151.869 128.561 151.661 128.441C151.454 128.321 151.113 128.231 150.906 128.216C150.699 128.216 150.239 128.126 149.869 128.006C149.514 127.886 148.521 127.571 147.662 127.301C146.803 127.046 145.648 126.656 145.07 126.461C144.507 126.251 143.84 126.041 143.589 125.966C142.981 125.801 140.863 125.081 140.33 124.841C140.093 124.736 139.619 124.556 139.293 124.421C138.967 124.301 138.404 124.091 138.034 123.941C137.664 123.806 137.19 123.596 136.967 123.476C136.76 123.356 136.508 123.266 136.419 123.266C136.331 123.266 135.827 123.071 135.323 122.816C134.805 122.576 134.331 122.366 134.286 122.366C134.005 122.366 126.614 118.705 125.888 118.225C125.606 118.03 125.266 117.865 125.132 117.865C124.999 117.865 124.806 117.76 124.703 117.64C124.599 117.52 124.421 117.415 124.303 117.415C124.184 117.415 123.829 117.205 123.518 116.965C122.747 116.35 122.229 116.275 121.4 116.65C121.029 116.83 120.6 116.965 120.466 116.965C120.318 116.965 119.296 117.265 118.2 117.64C115.771 118.45 115.608 118.495 114.112 118.915C113.46 119.08 112.734 119.305 112.482 119.38C112.245 119.47 111.801 119.605 111.52 119.665C110.942 119.8 110.231 120.04 109.475 120.355C109.209 120.475 108.868 120.565 108.705 120.565C108.557 120.565 108.246 120.655 108.009 120.775C107.787 120.895 106.898 121.21 106.039 121.465C104.38 121.96 103.55 122.261 102.884 122.606C102.647 122.726 102.336 122.816 102.188 122.816C102.04 122.816 101.877 122.876 101.832 122.951C101.788 123.026 101.566 123.131 101.358 123.176C101.151 123.236 100.351 123.581 99.6104 123.941C98.8549 124.316 98.1735 124.616 98.0847 124.616C97.9365 124.616 97.3292 124.886 96.7071 125.246C96.5886 125.306 96.3368 125.441 96.1442 125.516C95.9517 125.606 94.6333 126.236 93.2262 126.941C91.8042 127.631 90.471 128.246 90.2637 128.306C90.0563 128.351 89.8489 128.456 89.8045 128.531C89.76 128.606 89.5675 128.666 89.3749 128.666C89.1675 128.666 88.7528 128.801 88.4269 128.981C88.101 129.146 87.2419 129.386 86.5309 129.521C85.6866 129.657 85.1237 129.837 84.946 130.017C84.6497 130.302 84.6497 130.317 85.1237 130.947C85.9384 132.042 86.2791 132.627 86.442 133.242C86.5309 133.572 86.6938 134.142 86.7975 134.517C87.0049 135.237 87.0345 138.433 86.8568 139.648C86.7975 140.038 86.6642 140.428 86.5457 140.533C86.4272 140.623 86.3383 140.893 86.3383 141.118C86.3383 141.343 86.2347 141.613 86.1162 141.718C85.9977 141.823 85.894 142.048 85.894 142.228C85.894 142.408 85.731 142.798 85.5237 143.098C85.3163 143.398 85.02 143.998 84.8571 144.434C84.5905 145.124 84.5609 145.334 84.709 146.279C85.0793 148.919 85.1682 149.474 85.2867 149.969C85.3607 150.254 85.42 150.719 85.4348 151.004C85.4496 151.289 85.5237 151.605 85.5977 151.695C85.6718 151.785 85.7755 152.325 85.8347 152.895C85.894 153.48 85.9977 154.065 86.0717 154.2C86.131 154.35 86.2643 154.815 86.3532 155.25C86.442 155.685 86.605 156.48 86.7087 157.02C86.8272 157.56 87.0493 158.475 87.2271 159.046C87.4048 159.631 87.5974 160.336 87.6567 160.621C87.7159 160.906 87.8492 161.296 87.9381 161.476C88.0418 161.656 88.1159 162.001 88.1159 162.256C88.1159 162.526 88.2195 162.766 88.3825 162.856C88.7232 163.066 88.6787 163.081 89.3157 162.496ZM76.4584 149.834C76.6954 149.744 77.0657 149.669 77.3027 149.669C77.5397 149.669 77.7767 149.609 77.8212 149.519C77.8656 149.444 78.0434 149.369 78.1915 149.369C78.4433 149.369 80.2208 148.559 80.9318 148.124C82.3686 147.239 82.7833 146.669 82.9315 145.334C83.0055 144.599 83.2277 143.938 83.7314 142.873C84.1017 142.078 84.4127 141.388 84.4127 141.328C84.4127 141.268 84.5312 140.953 84.6942 140.608C84.9904 139.933 85.4496 138.088 85.4496 137.548C85.4496 137.173 84.7386 136.768 84.0869 136.768C83.8943 136.768 83.6128 136.662 83.4647 136.542C83.3018 136.422 82.9315 136.317 82.65 136.317C82.3538 136.317 81.9835 136.212 81.8354 136.092C81.6724 135.972 81.4206 135.867 81.2577 135.867C81.1095 135.867 80.68 135.777 80.2949 135.657C79.9097 135.537 79.1987 135.342 78.7099 135.207C78.2211 135.072 77.6286 134.892 77.3768 134.832C77.1398 134.757 76.2659 134.517 75.4512 134.292C73.6144 133.797 71.5555 133.182 71.1555 133.017C70.8741 132.897 69.5854 132.537 68.4152 132.267C68.1338 132.207 67.7042 132.072 67.4524 131.982C66.6525 131.697 58.7723 129.281 58.0761 129.116C57.8095 129.056 57.5132 128.936 57.4095 128.861C57.3059 128.771 56.8022 128.591 56.269 128.456C55.7357 128.306 55.0395 128.111 54.7137 128.006C54.3878 127.886 53.7212 127.691 53.2324 127.541C52.7436 127.406 52.24 127.241 52.1215 127.181C52.003 127.121 50.8032 126.716 49.4552 126.281C48.1073 125.846 46.789 125.396 46.5224 125.276C46.2557 125.156 45.915 125.066 45.7817 125.066C45.6336 125.066 45.3818 124.961 45.2189 124.841C45.0707 124.721 44.7004 124.616 44.419 124.616C44.1375 124.616 43.7672 124.511 43.6191 124.391C43.4562 124.271 42.8637 124.031 42.286 123.851C41.7083 123.671 41.0269 123.431 40.7603 123.326C40.5085 123.206 40.1826 123.116 40.0197 123.116C39.8715 123.116 39.6197 123.011 39.4568 122.876C39.2939 122.756 38.8643 122.561 38.494 122.441C38.1237 122.336 37.2645 122.02 36.5684 121.765C35.8722 121.495 35.0427 121.225 34.7168 121.15C34.4057 121.06 33.9317 120.91 33.6799 120.805C32.6579 120.355 32.3024 120.22 31.3099 119.875C30.747 119.695 29.9027 119.38 29.4584 119.215C29.014 119.035 28.3919 118.825 28.0808 118.75C27.7697 118.675 27.4142 118.555 27.2661 118.48C27.1328 118.405 26.5107 118.195 25.9034 118C25.296 117.82 24.4962 117.58 24.1259 117.445C23.0742 117.1 21.978 116.95 19.8302 116.86C17.6232 116.785 17.164 116.86 15.0902 117.715C14.6459 117.91 14.1126 118.12 13.9052 118.195C13.6979 118.285 13.3424 118.435 13.0905 118.54C12.8535 118.645 12.2166 118.885 11.6834 119.065C11.1501 119.245 10.5872 119.455 10.4243 119.515C10.2614 119.575 9.72811 119.755 9.2393 119.89C8.75048 120.025 8.21723 120.19 8.0543 120.265C7.89136 120.34 7.43217 120.505 7.01742 120.64C6.61748 120.775 5.77317 121.135 5.16586 121.45L4.05492 122.005L4.09936 122.681C4.15861 123.581 4.48448 124.586 5.22511 126.101C5.8028 127.301 8.08392 129.266 9.4763 129.777C9.8318 129.897 10.602 130.182 11.1649 130.407C11.7426 130.617 12.3351 130.827 12.498 130.872C12.661 130.932 12.9276 131.052 13.0905 131.172C13.2535 131.277 13.5201 131.367 13.683 131.367C13.9645 131.367 16.1864 132.237 17.5491 132.882C17.8898 133.032 18.2157 133.167 18.2897 133.167C18.3638 133.167 18.823 133.362 19.3118 133.602C19.8006 133.842 20.8079 134.322 21.5337 134.667C22.2743 135.012 23.3408 135.522 23.9037 135.792C24.4814 136.062 25.4738 136.497 26.1255 136.768C26.7773 137.038 27.6957 137.443 28.1697 137.683C28.6437 137.923 29.1473 138.118 29.2658 138.118C29.3991 138.118 29.6213 138.208 29.7398 138.328C29.8731 138.433 30.4508 138.673 31.0137 138.868C31.9617 139.168 33.0578 139.633 34.0799 140.158C34.2872 140.278 38.1089 141.628 39.679 142.243C40.0493 142.378 40.5529 142.528 40.8195 142.573C41.0862 142.618 41.3824 142.738 41.4713 142.858C41.5602 142.978 41.7231 143.068 41.8416 143.068C42.0194 143.068 44.3153 143.758 45.3818 144.134C45.6336 144.224 46.078 144.344 46.389 144.419C46.7001 144.479 51.6475 145.874 52.1067 146.009C52.5659 146.129 53.1435 146.294 53.3805 146.369C53.6324 146.444 54.1952 146.549 54.6396 146.594C55.084 146.654 55.5876 146.804 55.7505 146.909C55.9135 147.029 56.2245 147.119 56.4615 147.119C56.6985 147.119 57.0244 147.194 57.2022 147.299C57.3799 147.404 57.8984 147.524 58.3427 147.599C58.7871 147.659 59.4537 147.779 59.824 147.869C60.6831 148.064 62.0607 148.319 63.0531 148.454C63.4678 148.514 66.9488 149.354 67.4228 149.369C67.8968 149.369 69.3484 149.714 69.9409 149.744C70.5334 149.774 71.2 149.864 71.437 149.924C72.0443 150.104 75.9696 150.044 76.4584 149.834ZM85.5237 135.867C85.6125 135.717 85.494 135.417 84.5757 133.497C84.1461 132.582 83.5684 132.057 82.1908 131.367C81.6576 131.097 81.0503 130.782 80.8281 130.677C80.6207 130.557 80.28 130.467 80.0875 130.467C79.9097 130.452 79.5838 130.362 79.3765 130.242C79.1691 130.122 78.6951 130.032 78.3248 130.017C77.8952 130.017 72.4887 128.726 72.1184 128.651C71.748 128.591 71.1852 128.471 70.8593 128.381C68.5634 127.811 67.7339 127.571 67.6005 127.451C67.5265 127.376 67.2599 127.316 67.008 127.316C66.771 127.316 66.4304 127.211 66.2822 127.091C66.1193 126.971 65.823 126.866 65.6157 126.866C65.4083 126.851 65.0676 126.761 64.8602 126.641C64.6529 126.521 64.3418 126.431 64.164 126.416C63.9863 126.416 63.6604 126.326 63.4234 126.206C63.2012 126.086 62.3421 125.786 61.5274 125.516C60.7127 125.261 59.8092 124.961 59.5277 124.856C59.2463 124.751 58.6094 124.526 58.1205 124.376C57.6317 124.241 57.1725 124.061 57.0837 124.016C57.0096 123.956 56.4319 123.761 55.8246 123.581C55.2173 123.401 54.5211 123.146 54.2989 123.026C54.0619 122.906 53.736 122.816 53.5731 122.816C53.4102 122.816 53.0695 122.726 52.8177 122.621C51.9141 122.231 50.418 121.765 50.0922 121.765C49.9144 121.765 49.7219 121.705 49.6774 121.615C49.633 121.54 49.396 121.465 49.1738 121.465C48.9516 121.465 48.6405 121.36 48.4776 121.24C48.3295 121.12 48.0332 121.015 47.8259 121.015C47.6185 121.015 47.2926 120.91 47.0852 120.79C46.8779 120.67 46.5075 120.58 46.2557 120.565C46.0039 120.565 45.7077 120.46 45.604 120.34C45.5003 120.22 45.2189 120.115 44.9819 120.115C44.73 120.115 44.3597 120.025 44.1524 119.905C43.9302 119.8 43.2488 119.545 42.6415 119.365C42.0342 119.185 41.3676 118.975 41.1602 118.885C40.9529 118.795 40.5974 118.675 40.3455 118.615C40.1085 118.54 39.3383 118.285 38.6421 118.015C37.1016 117.445 36.361 117.19 35.6796 116.995C35.3982 116.905 34.4946 116.59 33.6799 116.29C32.8652 115.99 32.0061 115.69 31.7543 115.615C31.5173 115.555 30.5841 115.21 29.6805 114.879C28.7918 114.549 27.8438 114.264 27.592 114.264C27.355 114.264 22.8816 112.914 22.5261 112.914C22.1706 112.914 21.6966 112.809 21.4448 112.689C21.0893 112.494 20.6301 112.464 18.9563 112.524C17.8157 112.569 16.7048 112.674 16.4678 112.764C15.579 113.094 15.0014 113.394 13.2683 114.399C12.5573 114.819 11.8907 115.165 11.787 115.165C11.6834 115.165 11.476 115.27 11.3279 115.39C11.1649 115.51 10.9131 115.615 10.765 115.615C10.6317 115.615 10.291 115.705 10.0244 115.825C9.75773 115.945 9.13561 116.155 8.6468 116.29C6.35086 116.965 5.4473 117.55 4.8548 118.765C4.67705 119.14 4.41042 119.695 4.2623 119.995C4.11417 120.295 4.0253 120.655 4.06973 120.775C4.17342 121.03 4.4993 121.09 4.63261 120.88C4.75111 120.685 6.49898 119.665 6.70636 119.665C7.00261 119.665 9.93548 118.66 10.2762 118.45C10.365 118.39 10.6613 118.3 10.9427 118.255C11.2242 118.195 11.5945 118.09 11.7574 118.03C11.9204 117.955 12.3499 117.775 12.7202 117.625C13.0905 117.49 13.6534 117.25 13.9793 117.115C14.3052 116.965 14.9569 116.71 15.4309 116.53C15.8901 116.365 16.6307 116.08 17.0603 115.915C17.6824 115.675 18.2009 115.615 19.7265 115.615C20.9264 115.615 21.741 115.675 21.9484 115.795C22.1262 115.9 22.615 116.02 23.0149 116.08C24.6443 116.305 27.4587 117.1 28.6733 117.655C28.9251 117.775 29.2214 117.865 29.3399 117.865C29.4435 117.865 29.6657 117.955 29.8287 118.06C29.9916 118.165 30.5249 118.39 31.0137 118.54C31.5025 118.69 32.3764 118.975 32.9393 119.17C33.517 119.38 34.1835 119.59 34.4205 119.65C34.6724 119.71 34.9982 119.845 35.1612 119.92C35.3241 120.01 36.124 120.31 36.9387 120.58C37.7534 120.85 38.8939 121.255 39.4568 121.495C40.0345 121.72 40.6122 121.915 40.7603 121.915C40.9084 121.915 41.175 122.005 41.3528 122.125C41.649 122.321 44.4338 123.311 45.7521 123.686C46.0335 123.776 46.6409 123.986 47.0852 124.166C47.5296 124.346 48.1073 124.541 48.3443 124.616C48.5961 124.676 48.9516 124.796 49.159 124.886C49.3664 124.961 50.0625 125.186 50.7143 125.366C51.366 125.561 51.9734 125.756 52.0474 125.816C52.1363 125.876 52.4029 125.966 52.6399 126.011C53.0991 126.086 53.7805 126.311 54.61 126.656C54.8766 126.776 55.2765 126.866 55.5135 126.866C55.7505 126.866 56.0172 126.956 56.106 127.076C56.1949 127.196 56.4912 127.316 56.7578 127.361C57.0244 127.391 57.4392 127.496 57.6762 127.601C57.928 127.691 58.9204 128.006 59.898 128.291C60.8757 128.591 61.8385 128.891 62.0459 128.951C62.2532 129.026 62.8161 129.191 63.3049 129.341C63.7937 129.492 64.2677 129.672 64.3418 129.732C64.4307 129.807 64.7713 129.912 65.0824 130.002C67.5857 130.647 69.7632 131.262 70.7112 131.607C71.0519 131.727 71.4518 131.817 71.6295 131.817C71.8073 131.817 71.985 131.877 72.0443 131.952C72.0887 132.042 72.4442 132.147 72.8294 132.207C73.2145 132.252 73.6588 132.372 73.8218 132.462C73.9847 132.552 74.355 132.672 74.6365 132.732C74.9179 132.792 75.6585 133.017 76.2659 133.212C76.8732 133.422 77.7767 133.707 78.2655 133.842C78.7544 133.992 79.4209 134.187 79.7468 134.307C80.0875 134.427 80.4578 134.517 80.5911 134.517C80.7392 134.517 81.0651 134.607 81.3317 134.727C81.5984 134.847 82.2501 135.057 82.7833 135.207C83.3166 135.357 84.0128 135.597 84.3387 135.747C85.0052 136.047 85.3903 136.092 85.5237 135.867ZM83.3462 129.987C83.3166 129.612 83.2277 129.492 83.0203 129.492C82.8722 129.492 82.6649 129.597 82.5908 129.747C82.3982 130.062 82.6945 130.467 83.1092 130.467C83.3462 130.467 83.3907 130.377 83.3462 129.987ZM171.836 129.311C172.058 129.206 172.532 129.116 172.888 129.116C173.288 129.116 173.614 129.026 173.732 128.891C173.836 128.771 174.117 128.666 174.354 128.666C174.591 128.666 174.917 128.591 175.095 128.501C175.258 128.411 175.569 128.306 175.776 128.276C176.932 128.081 179.968 126.656 181.642 125.531C182.205 125.156 182.842 124.736 183.064 124.616C183.686 124.256 185.775 122.456 186.175 121.9C186.382 121.63 186.678 121.24 186.841 121.03C187.004 120.82 187.3 120.34 187.493 119.965C187.7 119.59 187.908 119.26 187.952 119.215C188.011 119.17 188.1 118.99 188.159 118.81C188.234 118.57 188.159 118.42 187.819 118.18C187.582 118 187.315 117.865 187.226 117.865C187.123 117.865 186.737 117.7 186.352 117.505C185.967 117.31 185.153 117.01 184.545 116.815C183.938 116.635 183.197 116.395 182.916 116.29C181.953 115.945 181.361 115.75 180.694 115.54C180.324 115.435 179.568 115.165 178.991 114.955C178.428 114.729 177.554 114.414 177.065 114.249C176.576 114.084 175.45 113.664 174.547 113.334C172.295 112.494 172.384 112.539 171.762 112.254C171.451 112.119 171.11 112.014 170.992 112.014C170.873 112.014 170.355 111.819 169.851 111.579C169.333 111.339 168.385 110.919 167.733 110.664C167.081 110.394 166.355 110.094 166.104 109.989C165.867 109.884 165.289 109.689 164.845 109.539C164.4 109.389 163.926 109.179 163.793 109.074C163.674 108.954 163.423 108.864 163.245 108.864C163.082 108.864 162.904 108.804 162.86 108.729C162.815 108.669 162.46 108.489 162.075 108.354C159.927 107.558 158.579 106.973 156.95 106.148C156.49 105.908 155.987 105.713 155.839 105.713C155.69 105.713 155.513 105.653 155.424 105.578C155.35 105.503 154.165 104.963 152.772 104.363C151.395 103.763 149.484 102.908 148.551 102.458C147.618 102.008 146.418 101.438 145.885 101.183C143.722 100.162 142.256 99.4424 139.515 98.0622C136.849 96.712 130.702 93.5466 130.183 93.2615C130.065 93.1865 129.665 92.9915 129.295 92.8115C128.924 92.6314 128.095 92.1814 127.443 91.8213C125.473 90.7412 121.414 88.7609 121.148 88.7609C121.074 88.7609 120.392 88.5509 119.637 88.2808C118.333 87.8308 118.141 87.8158 116.111 87.8158C114.378 87.8158 113.727 87.8758 112.705 88.1458C111.327 88.5059 109.964 88.8509 109.135 89.046C108.853 89.106 108.513 89.226 108.409 89.286C108.29 89.361 107.935 89.466 107.594 89.526C107.268 89.586 106.735 89.706 106.409 89.7961C105.343 90.0811 103.758 90.4411 103.076 90.5762C101.714 90.8312 100.766 91.0562 100.218 91.2513C99.9214 91.3713 99.5215 91.4613 99.3289 91.4613C99.1512 91.4613 98.7957 91.5963 98.529 91.7463C98.2772 91.9113 97.8328 92.0914 97.5366 92.1364C97.033 92.2414 97.0182 92.2564 96.8404 93.2765C96.7071 94.0716 96.7071 94.4017 96.8256 94.6867C96.9293 94.8968 97.0033 95.3318 97.0033 95.6619C97.0033 95.9769 97.0774 96.2919 97.1515 96.337C97.2403 96.397 97.4625 96.757 97.6403 97.1321C98.3661 98.6473 100.781 101.033 102.839 102.278C103.313 102.563 103.802 102.863 103.936 102.938C104.084 103.028 104.528 103.283 104.928 103.523C105.343 103.778 105.906 104.138 106.187 104.348C106.78 104.798 107.061 104.963 107.891 105.428C108.216 105.593 109.535 106.448 110.809 107.303C112.082 108.159 113.164 108.864 113.208 108.864C113.342 108.864 116.245 110.829 116.348 110.979C116.393 111.054 116.556 111.114 116.719 111.114C116.867 111.114 117 111.174 117 111.249C117 111.324 117.445 111.594 117.978 111.849C118.526 112.104 119.281 112.554 119.666 112.839C120.052 113.124 120.452 113.364 120.555 113.364C120.644 113.364 120.94 113.529 121.192 113.724C121.681 114.099 122.392 114.489 125.74 116.26C127.695 117.28 132.035 119.485 132.924 119.89C133.175 120.01 133.679 120.235 134.064 120.415C134.464 120.595 134.805 120.805 134.864 120.88C134.909 120.955 135.057 121.015 135.205 121.015C135.471 121.015 137.19 121.705 138.078 122.155C138.315 122.276 138.626 122.366 138.775 122.366C138.908 122.366 139.115 122.471 139.219 122.591C139.323 122.711 139.53 122.816 139.678 122.816C139.841 122.816 140.078 122.891 140.226 122.966C140.567 123.176 144.166 124.451 144.922 124.631C145.248 124.706 145.781 124.901 146.107 125.051C146.433 125.201 146.981 125.381 147.321 125.441C147.677 125.501 147.988 125.591 148.032 125.666C148.077 125.726 148.418 125.831 148.803 125.891C149.188 125.951 149.736 126.086 150.032 126.191C150.314 126.296 150.95 126.491 151.439 126.641C151.928 126.791 152.461 126.956 152.624 127.031C152.787 127.091 153.187 127.181 153.513 127.226C154.313 127.346 155.379 127.556 156.624 127.856C157.201 127.991 158.001 128.141 158.401 128.201C158.816 128.261 159.29 128.381 159.468 128.486C159.645 128.591 160.09 128.666 160.475 128.666C160.845 128.666 161.319 128.771 161.512 128.906C161.749 129.056 162.075 129.131 162.43 129.086C162.741 129.041 163.23 129.071 163.511 129.146C165.037 129.552 171.125 129.672 171.836 129.311ZM85.5385 128.066C87.7307 127.601 88.9454 127.136 91.893 125.681C93.3595 124.946 94.7963 124.241 95.0777 124.121C95.5813 123.896 98.055 122.786 99.2993 122.215C100.825 121.525 102.099 121.015 102.321 121.015C102.454 121.015 102.691 120.925 102.854 120.805C103.017 120.7 103.313 120.565 103.521 120.52C103.728 120.475 104.261 120.295 104.706 120.115C105.15 119.935 105.728 119.725 105.965 119.665C106.217 119.59 106.839 119.395 107.372 119.215C108.646 118.795 111.475 117.88 112.038 117.715C112.29 117.64 113.253 117.355 114.186 117.055C115.119 116.77 116.289 116.425 116.778 116.29C117.267 116.155 118.007 115.945 118.422 115.825C118.837 115.705 119.326 115.615 119.504 115.615C120.244 115.615 120.748 114.97 120.155 114.774C119.874 114.684 117.059 113.274 116.511 112.944C116.334 112.839 116.008 112.629 115.786 112.494C115.578 112.359 114.601 111.744 113.638 111.144C112.675 110.559 111.431 109.734 110.853 109.329C110.29 108.924 109.046 108.114 108.098 107.543C107.165 106.958 105.995 106.238 105.506 105.923C105.032 105.593 104.513 105.278 104.38 105.188C102.232 103.883 101.625 103.493 100.751 102.818C98.529 101.153 96.5738 99.0373 95.9961 97.7171C95.3295 96.1569 95.1962 95.4668 95.2407 93.5616C95.2555 92.5114 95.3592 91.4313 95.4777 91.1012C95.5814 90.7862 95.6702 90.3511 95.6702 90.1261C95.6702 89.9161 95.7739 89.601 95.8924 89.451C96.0109 89.286 96.1146 88.9709 96.1146 88.7459C96.1146 88.5359 96.2183 88.2658 96.3368 88.1608C96.4553 88.0558 96.559 87.9058 96.559 87.8308C96.559 87.6358 97.3588 86.6156 98.0106 85.9405C98.7808 85.1754 99.6844 84.5603 100.055 84.5603C100.632 84.5603 100.632 84.2453 100.055 83.6902C99.1956 82.8801 97.8773 80.6448 97.4477 79.3096C97.3885 79.0996 97.1218 78.3645 96.8552 77.6594C96.3664 76.3542 96.1887 75.5741 96.0257 73.9839C95.9665 73.4888 95.8628 72.9937 95.7739 72.8887C95.685 72.7837 95.6258 72.2587 95.6406 71.7186C95.6554 71.1035 95.5962 70.5934 95.448 70.3084C95.2999 70.0083 95.2258 69.4083 95.2258 68.3731C95.2258 67.428 95.1518 66.6479 95.0185 66.3028C94.8703 65.8978 94.7667 64.6976 94.6926 62.2823C94.5741 58.1267 94.5297 47.1002 94.6333 46.1551L94.7074 45.48L94.189 45.495C93.9075 45.495 93.078 45.675 92.3374 45.9C91.6116 46.1101 90.6044 46.3651 90.1155 46.4551C89.6267 46.5601 88.9305 46.7251 88.5602 46.8302C86.679 47.4002 86.2939 47.5052 86.1013 47.5052C85.7755 47.5052 81.4354 48.8104 80.1171 49.3055C79.4209 49.5605 78.5914 49.8306 78.2655 49.9056C77.6434 50.0256 76.9769 50.2506 76.1474 50.5957C75.8807 50.7157 75.5548 50.8057 75.4363 50.8057C75.303 50.8057 75.0216 50.8957 74.8142 51.0157C74.592 51.1357 73.9847 51.3458 73.4515 51.4958C72.9182 51.6458 71.5555 52.1109 70.4149 52.5309C69.2744 52.966 67.7783 53.5061 67.0821 53.7311C66.3859 53.9561 65.7638 54.1962 65.6897 54.2712C65.6009 54.3462 65.4083 54.4062 65.2305 54.4062C65.0528 54.4062 64.7862 54.5112 64.6232 54.6312C64.4751 54.7512 64.1937 54.8563 64.0307 54.8563C63.853 54.8563 63.6308 54.9613 63.5271 55.0813C63.4234 55.2013 63.2309 55.3063 63.0827 55.3063C62.9346 55.3063 62.3717 55.5013 61.8089 55.7414C60.135 56.4465 59.187 56.8215 58.713 56.9865C58.476 57.0766 58.0909 57.2416 57.8687 57.3466C57.6614 57.4666 57.3799 57.5566 57.2614 57.5566C57.1429 57.5566 56.9652 57.6616 56.8615 57.7817C56.7578 57.9017 56.5652 58.0067 56.4171 58.0067C56.1801 58.0067 55.7654 58.1717 54.2693 58.8318C54.0323 58.9368 53.1584 59.3119 52.3437 59.6569C51.529 60.002 50.4625 60.482 49.9737 60.7221C49.47 60.9621 48.9812 61.1571 48.8479 61.1571C48.7294 61.1571 48.5072 61.2471 48.3443 61.3521C48.1814 61.4572 47.4555 61.8172 46.7149 62.1323C45.9891 62.4473 45.0115 62.8674 44.5671 63.0624C44.1227 63.2724 43.5599 63.5124 43.308 63.6175C43.071 63.7225 42.2267 64.1275 41.4565 64.5026C39.3827 65.5077 37.0572 66.6179 36.0499 67.0679C35.5611 67.293 35.0575 67.533 34.939 67.608C34.8205 67.683 34.4205 67.893 34.0502 68.0581C33.6799 68.2381 33.117 68.5231 32.7912 68.7032C32.4653 68.8832 32.0357 69.0932 31.8432 69.1832C30.3175 69.8433 24.2147 73.0988 23.6963 73.5038C23.4593 73.6988 22.9705 73.9989 22.5705 74.1789C21.9484 74.479 20.9115 75.5591 20.5264 76.3092C20.2598 76.8343 20.1265 77.3143 20.1265 77.8094C20.1265 78.1995 20.0228 78.7695 19.9043 79.0546C19.7858 79.3696 19.6821 80.0597 19.6821 80.6298C19.6821 81.1999 19.5784 82.325 19.4599 83.1501C19.1489 85.1904 19.1489 91.9113 19.4599 93.1865C19.5784 93.6816 19.6821 94.8367 19.6821 95.7369C19.6821 96.877 19.7562 97.5071 19.9043 97.7621C20.0228 97.9722 20.1117 98.4522 20.1265 98.8573C20.1265 99.2474 20.1857 99.6824 20.245 99.8324C20.319 99.9674 20.556 100.658 20.793 101.363C21.8744 104.723 23.8148 107.679 27.0143 110.874C28.14 111.999 29.4287 112.914 29.8731 112.914C30.036 112.914 30.2434 113.004 30.3323 113.124C30.436 113.244 30.747 113.379 31.0581 113.439C31.3544 113.499 31.6802 113.589 31.7543 113.664C31.8432 113.724 32.3172 113.934 32.8356 114.114C33.3392 114.309 33.7984 114.519 33.8429 114.579C33.8873 114.654 34.1391 114.714 34.3909 114.714C34.6575 114.714 34.9982 114.804 35.1612 114.924C35.3241 115.03 35.6204 115.165 35.8277 115.21C36.0351 115.255 36.8646 115.54 37.6793 115.84C38.494 116.14 39.6938 116.56 40.3455 116.77C40.9973 116.98 42.1971 117.385 43.0118 117.67C43.8265 117.97 44.7004 118.24 44.9374 118.285C45.1892 118.315 45.4559 118.405 45.5299 118.48C45.6188 118.54 45.9595 118.66 46.2705 118.75C46.5964 118.825 47.337 119.035 47.8999 119.215C48.4776 119.395 49.1738 119.59 49.4552 119.65C49.7367 119.71 50.1218 119.845 50.2995 119.935C50.6699 120.145 52.2104 120.175 52.3289 119.98C52.3733 119.905 52.9806 119.68 53.662 119.455C54.3582 119.245 54.9655 118.99 55.0099 118.915C55.0544 118.825 55.2173 118.765 55.3506 118.765C55.4987 118.765 56.8763 118.12 58.4168 117.325C59.9721 116.53 61.4385 115.765 61.6755 115.645C61.9274 115.525 62.505 115.15 62.979 114.834C63.453 114.519 63.8974 114.264 63.9419 114.264C64.0011 114.264 64.3122 114.084 64.638 113.859C64.9639 113.634 65.4379 113.334 65.6749 113.214C67.4376 112.254 68.2523 111.774 68.667 111.474C68.9189 111.279 69.2299 111.114 69.3336 111.114C69.4521 111.114 69.6891 111.009 69.8817 110.874C70.326 110.559 73.6292 108.864 73.807 108.864C73.881 108.864 74.3847 108.654 74.9179 108.384C76.2659 107.739 76.6065 107.618 78.1174 107.198C78.6951 107.048 79.6579 106.778 80.2652 106.598C82.5167 105.968 82.887 105.863 84.4868 105.488C85.3904 105.278 86.3235 105.038 86.5902 104.948C86.842 104.873 87.4197 104.768 87.8492 104.708C88.2788 104.663 88.7528 104.558 88.9157 104.483C89.0639 104.393 89.5378 104.273 89.9526 104.213C90.3673 104.138 91.2413 103.973 91.893 103.853C93.4632 103.538 93.4928 103.538 93.3595 103.958C93.2262 104.393 93.0336 104.513 92.3819 104.513C92.0856 104.513 91.8042 104.573 91.7449 104.648C91.7005 104.738 91.345 104.843 90.9598 104.888C90.5747 104.933 90.1452 105.038 90.0118 105.128C89.8637 105.203 89.5971 105.263 89.4193 105.263C89.2268 105.263 88.8861 105.368 88.6491 105.488C88.4269 105.608 88.0418 105.713 87.8196 105.713C87.5974 105.713 87.153 105.803 86.842 105.923C86.5161 106.028 85.9384 106.163 85.5237 106.223C85.1237 106.283 84.5164 106.418 84.1905 106.538C83.8647 106.643 83.1981 106.853 82.7093 106.988C82.2205 107.138 81.6872 107.303 81.5243 107.363C81.3613 107.423 80.7985 107.604 80.2652 107.754C79.732 107.889 79.1247 108.099 78.9025 108.219C78.6803 108.324 78.3396 108.414 78.147 108.414C77.9545 108.414 77.673 108.519 77.5101 108.639C77.362 108.759 77.0954 108.864 76.9472 108.864C76.7843 108.864 76.3547 109.014 75.9844 109.179C75.6141 109.359 74.8735 109.704 74.3402 109.944C73.1849 110.484 73.0515 110.544 72.4887 110.844C72.2517 110.979 71.748 111.234 71.3777 111.414C71.0074 111.594 70.2075 112.074 69.6002 112.479C68.9929 112.884 68.3856 113.259 68.2671 113.304C67.9857 113.409 67.9116 113.454 66.06 114.594C65.2009 115.12 64.401 115.585 64.2529 115.645C64.1048 115.705 63.7345 115.915 63.4234 116.11C62.5791 116.65 57.6317 119.215 57.4244 119.215C57.3355 119.215 57.1429 119.305 57.0244 119.41C56.7578 119.635 54.4322 120.58 54.2397 120.55C53.8397 120.475 53.4546 120.595 53.4546 120.79C53.4546 121.075 54.0915 121.405 54.9359 121.54C55.2914 121.6 55.6913 121.705 55.8246 121.765C56.1653 121.93 57.0244 122.231 57.5725 122.366C57.8391 122.426 58.1354 122.546 58.239 122.621C58.3427 122.696 59.424 123.086 60.6387 123.476C61.8681 123.866 63.0531 124.286 63.2753 124.406C63.5123 124.526 63.8678 124.616 64.0752 124.616C64.2825 124.616 64.6232 124.706 64.8306 124.826C65.2009 125.021 65.9415 125.246 67.5265 125.666C67.8968 125.771 68.5633 125.981 69.0225 126.131C69.4817 126.281 70.0446 126.416 70.2816 126.416C70.5186 126.416 70.8445 126.521 70.9926 126.641C71.1555 126.761 71.5258 126.866 71.8073 126.866C72.0887 126.866 72.5183 126.926 72.7701 127.001C73.6589 127.271 75.7919 127.676 77.599 127.916C78.2063 128.006 79.0062 128.126 79.3765 128.201C80.7096 128.456 83.9684 128.381 85.5385 128.066ZM188.545 117.1C188.545 116.74 188.159 115.45 187.834 114.714C187.508 113.964 186.278 112.719 185.256 112.104C184.782 111.804 184.293 111.564 184.19 111.564C184.071 111.564 183.908 111.459 183.805 111.339C183.701 111.219 183.464 111.114 183.286 111.114C183.108 111.114 182.871 111.009 182.768 110.889C182.664 110.769 182.471 110.664 182.338 110.664C182.205 110.664 182.027 110.604 181.953 110.529C181.864 110.454 181.138 110.109 180.338 109.764C179.539 109.419 178.768 109.089 178.635 109.029C178.324 108.864 177.48 108.504 175.361 107.588C174.665 107.303 173.91 106.958 173.688 106.838C173.451 106.718 173.199 106.613 173.11 106.613C173.021 106.613 172.577 106.433 172.118 106.223C171.658 106.013 171.051 105.728 170.77 105.608C170.488 105.488 169.748 105.173 169.14 104.888C167.94 104.348 165.704 103.403 164.4 102.863C163.956 102.683 163.452 102.428 163.289 102.323C163.126 102.203 162.919 102.113 162.815 102.113C162.726 102.113 162.208 101.918 161.69 101.663C161.156 101.423 160.653 101.213 160.579 101.213C160.49 101.213 160.238 101.108 160.001 100.988C159.779 100.868 159.32 100.658 158.994 100.538C158.668 100.403 157.868 100.027 157.216 99.7124C156.564 99.3974 155.498 98.9173 154.846 98.6623C154.194 98.4072 153.38 98.0622 153.039 97.8972C152.684 97.7471 152.121 97.4771 151.78 97.3271C151.424 97.1621 150.58 96.787 149.884 96.487C149.188 96.1869 148.329 95.8119 147.958 95.6319C147.588 95.4668 147.099 95.2418 146.847 95.1368C146.61 95.0318 146.107 94.8067 145.736 94.6417C143.974 93.8466 143.396 93.5916 142.774 93.3365C142.404 93.2015 141.841 92.9615 141.515 92.8115C140.345 92.2864 139.278 91.7913 138.286 91.3263C137.738 91.0712 137.234 90.8612 137.16 90.8612C137.086 90.8612 136.627 90.6662 136.138 90.4111C135.634 90.1711 135.19 89.9611 135.131 89.9611C135.071 89.9611 134.746 89.8261 134.42 89.676C133.309 89.151 132.198 88.6559 130.331 87.8758C129.309 87.4407 128.154 86.9307 127.739 86.7356C126.258 86.0005 123.918 85.0104 123.681 85.0104C123.547 85.0104 123.37 84.9504 123.296 84.8754C123.207 84.8004 122.644 84.5303 122.036 84.2603C121.044 83.8402 120.244 83.5702 118.259 83.0301C117.43 82.8051 113.593 82.7001 113.401 82.8951C113.312 82.9851 113.016 83.0601 112.749 83.0601C112.482 83.0601 112.008 83.1951 111.712 83.3602C111.401 83.5252 111.075 83.6602 110.972 83.6602C110.883 83.6602 110.616 83.7502 110.379 83.8702C109.238 84.4553 108.113 84.8454 107.15 85.0254C104.81 85.4455 103.373 85.6405 102.78 85.6255C101.699 85.5805 100.129 86.2406 99.2252 87.1407C98.8105 87.5457 98.3957 88.0258 98.3217 88.2058C98.0995 88.7159 97.7884 89.226 97.6107 89.406C97.5218 89.496 97.4477 89.706 97.4477 89.8711C97.4477 90.0511 97.344 90.3811 97.2255 90.6212C96.9885 91.0862 96.9293 91.6113 97.1218 91.6113C97.1959 91.6113 97.5514 91.4163 97.9069 91.1612C98.2624 90.9212 98.6179 90.7112 98.692 90.7112C98.766 90.7112 99.1067 90.5762 99.4326 90.4111C99.7733 90.2611 100.603 90.0211 101.299 89.8861C101.995 89.751 102.958 89.541 103.447 89.406C104.261 89.196 105.239 88.9859 107.12 88.6109C107.52 88.5359 107.92 88.4159 108.009 88.3409C108.113 88.2658 108.527 88.1458 108.927 88.0858C109.342 88.0258 109.742 87.9358 109.816 87.8608C109.979 87.7408 111.49 87.3057 112.482 87.1107C112.808 87.0507 113.312 86.9157 113.593 86.8256C114.201 86.6306 116.882 86.6306 117.963 86.8106C120.007 87.1707 121.044 87.4407 122.259 87.9358C123.681 88.5059 128.984 91.1612 132.627 93.1265C133.857 93.7866 134.953 94.3567 135.071 94.4017C135.19 94.4467 135.531 94.6117 135.812 94.7767C136.094 94.9268 136.893 95.3318 137.59 95.6769C138.286 96.0069 138.952 96.337 139.071 96.412C139.456 96.652 143.396 98.6023 144.329 99.0373C144.818 99.2474 145.381 99.5174 145.588 99.6374C146.27 99.9975 146.847 100.282 147.292 100.463C147.544 100.568 147.84 100.703 147.958 100.778C148.077 100.853 148.343 100.988 148.551 101.063C148.758 101.153 149.099 101.318 149.321 101.438C149.528 101.558 149.84 101.663 150.002 101.663C150.165 101.663 150.328 101.768 150.388 101.888C150.432 102.008 150.595 102.113 150.758 102.113C150.921 102.113 151.232 102.218 151.469 102.323C151.691 102.443 151.987 102.578 152.106 102.623C152.224 102.668 152.432 102.773 152.55 102.833C152.669 102.908 153.024 103.073 153.335 103.208C153.632 103.343 154.106 103.553 154.372 103.673C154.624 103.793 155.113 104.003 155.439 104.138C155.765 104.273 156.446 104.588 156.95 104.828C157.468 105.068 157.912 105.263 157.957 105.263C158.001 105.263 158.446 105.458 158.949 105.698C161.038 106.658 161.408 106.823 162.326 107.168C163.215 107.498 163.615 107.649 164.993 108.219C165.274 108.339 165.689 108.534 165.911 108.654C166.118 108.759 166.459 108.864 166.667 108.864C166.859 108.864 167.111 108.969 167.215 109.089C167.318 109.209 167.526 109.314 167.659 109.314C167.807 109.314 168.118 109.404 168.355 109.524C168.577 109.644 169.037 109.854 169.362 109.989C169.688 110.139 170.147 110.349 170.37 110.454C170.607 110.574 170.918 110.664 171.066 110.664C171.199 110.664 171.407 110.769 171.51 110.889C171.614 111.009 171.866 111.114 172.088 111.114C172.295 111.114 172.606 111.219 172.754 111.339C172.917 111.459 173.199 111.564 173.377 111.564C173.569 111.564 173.747 111.624 173.791 111.699C173.836 111.774 174.399 111.999 175.021 112.209C175.658 112.419 176.546 112.749 176.991 112.914C177.435 113.094 178.013 113.304 178.25 113.364C179.079 113.619 180.916 114.294 181.064 114.414C181.153 114.474 181.375 114.564 181.583 114.609C181.79 114.654 182.427 114.864 182.99 115.09C183.568 115.315 184.234 115.54 184.471 115.615C185.286 115.825 187.123 116.695 187.715 117.13C188.337 117.58 188.545 117.58 188.545 117.1ZM7.04705 114.94C7.29886 114.819 7.99505 114.579 8.58755 114.414C10.2317 113.979 10.6465 113.799 13.372 112.404C15.5939 111.264 15.9494 111.114 16.6604 111.114C17.1047 111.114 17.4602 111.054 17.4602 110.979C17.4602 110.904 17.2825 110.649 17.0603 110.409C16.1123 109.389 15.505 108.519 15.0754 107.633C14.8384 107.108 14.5718 106.583 14.5125 106.463C14.3348 106.133 14.0534 105.278 13.8904 104.588C13.8015 104.258 13.683 103.928 13.5942 103.853C13.5201 103.763 13.4609 103.403 13.4609 103.058C13.4609 102.698 13.372 102.218 13.2535 101.993C13.135 101.738 13.0165 100.778 12.9572 99.4124C12.9128 98.2122 12.8091 95.9919 12.7499 94.4617C12.5721 90.6062 12.6165 80.7798 12.8387 77.8094C12.9276 76.4442 13.0905 74.2839 13.1794 73.0088C13.2831 71.7336 13.4164 69.8733 13.4757 68.8832C13.5349 67.8931 13.6534 66.3478 13.7423 65.4327C13.8312 64.5326 13.9645 63.1074 14.0385 62.2823C14.1126 61.4572 14.2459 60.542 14.3348 60.257C14.4385 59.972 14.5422 59.4019 14.5718 58.9818C14.6014 58.5768 14.6903 57.9317 14.7792 57.5566C14.868 57.1816 14.9421 56.5965 14.9421 56.2514C14.9421 55.9064 15.0162 55.4413 15.105 55.2013C15.2532 54.8263 15.4013 53.8811 15.6383 52.0059C15.6827 51.6308 15.7864 51.2408 15.8753 51.1357C15.9642 51.0307 16.0827 50.5807 16.1419 50.1306C16.2012 49.6205 16.3937 49.1405 16.6307 48.8104C16.8381 48.5254 17.0159 48.2253 17.0159 48.1353C17.0159 47.7603 16.2012 47.9853 15.1643 48.6154C14.5866 48.9754 13.9645 49.3205 13.7867 49.3655C13.6238 49.4255 13.1942 49.6355 12.8387 49.8306C12.4832 50.0256 11.9055 50.3256 11.5352 50.5057C11.1649 50.6707 10.6761 50.9257 10.4243 51.0607C10.1873 51.1958 9.65405 51.4808 9.2393 51.6758C8.83936 51.8858 8.32092 52.1709 8.09873 52.3209C7.89136 52.4859 7.62473 52.6059 7.53586 52.6059C7.43217 52.6059 7.03223 52.876 6.6323 53.221C6.06942 53.7011 5.90648 53.9261 5.90648 54.2862C5.90648 54.5262 5.83242 54.8713 5.72873 55.0513C5.63986 55.2313 5.50655 55.6814 5.4473 56.0564C5.37323 56.4315 5.25473 57.0766 5.16586 57.4816C4.9733 58.4567 4.7363 59.927 4.60298 61.1571C4.54373 61.6972 4.41042 62.2823 4.30673 62.4623C4.20305 62.6423 4.12898 63.2424 4.12898 63.8125C4.11417 64.4726 4.04011 64.9376 3.9068 65.1177C3.75867 65.3127 3.68461 65.7778 3.68461 66.4529C3.68461 67.0079 3.59573 67.623 3.50686 67.803C3.40317 67.9831 3.26986 68.7482 3.21061 69.4833C3.16617 70.2334 3.04767 71.4485 2.9588 72.1836C2.86992 72.9337 2.73661 74.2389 2.67736 75.109C2.61811 75.9792 2.51442 76.7593 2.46998 76.8343C2.42555 76.9243 2.33667 77.7944 2.27742 78.7695C2.23298 79.7447 2.1293 80.8548 2.05523 81.2449C1.98117 81.6199 1.8923 83.1201 1.83305 84.5603C1.78861 86.0005 1.68492 87.6658 1.61086 88.2358C1.43311 89.571 1.43311 97.8522 1.61086 99.6374C1.68492 100.388 1.78861 101.903 1.84786 103.013C1.8923 104.168 2.02561 105.278 2.14411 105.608C2.26261 105.923 2.30705 106.343 2.26261 106.553C2.14411 107.018 2.35148 107.829 3.18098 110.064C3.37355 110.604 3.6698 111.219 3.83273 111.444C3.99567 111.669 4.12898 111.939 4.12898 112.044C4.12898 112.149 4.3808 112.584 4.69186 113.004C5.5658 114.204 5.84723 114.624 5.95092 114.91C6.06942 115.225 6.45455 115.24 7.04705 114.94ZM191.433 113.364C192.174 113.289 193.062 113.169 193.433 113.079C193.803 112.989 194.44 112.914 194.84 112.914C195.447 112.914 195.743 112.809 196.395 112.374C197.891 111.384 198.617 110.469 198.958 109.089C199.195 108.204 199.254 96.442 199.047 95.3768C198.958 94.9118 198.824 93.3515 198.75 91.9113C198.543 87.1707 198.336 84.2153 198.158 83.4652C198.069 83.0601 198.025 82.5051 198.069 82.22C198.113 81.935 198.054 81.1099 197.951 80.3898C197.832 79.6697 197.728 78.6045 197.728 78.0044C197.728 77.4193 197.625 76.5042 197.506 75.9792C197.402 75.4541 197.314 74.524 197.314 73.9089C197.328 73.2788 197.269 72.6337 197.165 72.4537C197.062 72.2737 196.988 71.4935 196.988 70.6534C196.973 69.6633 196.914 69.0632 196.766 68.8082C196.632 68.5681 196.558 67.9831 196.543 67.218C196.543 66.3928 196.469 65.9278 196.321 65.7178C196.203 65.5527 196.099 65.1027 196.099 64.6676C196.099 64.2025 196.025 63.8275 195.892 63.7225C195.788 63.6325 195.655 63.3624 195.61 63.1374C195.492 62.5673 193.773 60.7371 187.863 54.8563C184.753 51.7658 181.849 48.9754 179.657 46.9802C179.302 46.6501 178.605 46.005 178.102 45.525C177.613 45.0599 176.917 44.4148 176.546 44.0998C176.176 43.7847 175.391 43.0346 174.799 42.4346C174.206 41.8495 173.599 41.2794 173.451 41.1744C173.303 41.0694 172.651 40.4993 172.014 39.9142C171.377 39.3291 170.355 38.414 169.748 37.8889C169.14 37.3639 168.266 36.5988 167.807 36.1787C167.348 35.7736 166.681 35.1886 166.326 34.8885C165.956 34.5885 165.289 34.0334 164.845 33.6433C163.734 32.6982 160.075 29.7128 159.068 28.9327C158.623 28.5877 158.149 28.2126 158.031 28.1076C157.912 27.9876 157.216 27.4475 156.476 26.9074C155.75 26.3673 155.009 25.7973 154.846 25.6472C154.683 25.4972 154.12 25.0772 153.587 24.7171C153.054 24.3571 152.595 24.027 152.55 23.967C152.491 23.892 151.484 23.1869 149.973 22.1668C149.81 22.0468 149.499 21.7917 149.291 21.6117C149.084 21.4317 148.743 21.1916 148.521 21.0866C148.299 20.9666 147.632 20.5315 147.04 20.1115C144.863 18.5663 143.959 17.9512 143.885 17.9512C143.855 17.9512 143.544 17.7562 143.189 17.5161C142.833 17.2911 142.152 16.871 141.663 16.601C141.174 16.331 140.404 15.8359 139.93 15.5209C138.997 14.8758 137.649 14.0807 137.264 13.9606C137.116 13.9006 136.997 13.8106 136.997 13.7356C136.997 13.6606 136.775 13.4956 136.523 13.3756C136.256 13.2555 135.708 12.9555 135.294 12.7005C134.894 12.4604 134.449 12.2054 134.331 12.1454C134.212 12.0854 133.783 11.8454 133.368 11.6053C132.316 10.9752 121.311 5.19944 120.703 4.95941C120.185 4.74938 119.355 4.37433 118.63 3.99928C118.467 3.92427 118.215 3.78925 118.067 3.71424C117.919 3.63923 117.593 3.53421 117.326 3.48921C117.074 3.4292 116.822 3.30918 116.778 3.23417C116.645 3.03914 116.111 3.06915 116.052 3.29418C116.023 3.38419 115.919 3.87926 115.815 4.37433C115.726 4.8694 115.578 5.40947 115.489 5.55949C115.163 6.18958 114.541 11.2603 114.364 14.8758C114.304 16.0309 114.186 17.0811 114.112 17.2011C114.038 17.3211 113.919 19.2864 113.86 21.5517C113.801 23.817 113.682 26.1573 113.608 26.7274C113.371 28.4526 113.416 41.5944 113.667 44.7299C113.786 46.2151 113.89 48.6604 113.89 50.1456C113.89 51.6458 113.964 53.236 114.053 53.6711C114.141 54.1212 114.23 55.4263 114.245 56.5815C114.275 57.7367 114.364 59.1918 114.452 59.8069C114.556 60.422 114.689 61.8472 114.778 62.9574C114.867 64.0675 115.03 65.4327 115.149 65.9728C115.267 66.5279 115.371 67.188 115.371 67.428C115.371 67.683 115.445 67.9381 115.519 67.9831C115.608 68.0281 115.667 68.3731 115.667 68.7332C115.667 69.0932 115.726 69.5433 115.8 69.7383C115.889 69.9333 116.097 70.5934 116.26 71.2085C117.089 74.1189 119.207 78.3645 120.526 79.7447C120.629 79.8497 120.94 80.2848 121.207 80.7198C121.814 81.6799 122.984 82.7901 123.666 83.0451C123.947 83.1501 124.362 83.3302 124.584 83.4502C124.792 83.5702 125.103 83.6602 125.266 83.6602C125.443 83.6602 125.606 83.7202 125.651 83.7952C125.695 83.8552 126.154 84.0803 126.658 84.2753C127.176 84.4703 127.858 84.7704 128.184 84.9504C128.51 85.1154 129.043 85.3554 129.369 85.4605C129.695 85.5655 130.331 85.8205 130.776 86.0305C131.753 86.4806 132.405 86.7656 132.701 86.8707C132.82 86.9157 133.027 87.0207 133.146 87.0957C133.264 87.1707 133.635 87.3057 133.961 87.4107C134.286 87.5157 134.657 87.6808 134.775 87.7858C134.894 87.8908 135.16 88.0258 135.368 88.0858C135.575 88.1458 136.168 88.4009 136.701 88.6409C137.234 88.8809 138.034 89.241 138.478 89.436C138.923 89.631 140.048 90.1411 140.967 90.5462C141.885 90.9662 142.73 91.3113 142.848 91.3113C142.967 91.3113 143.085 91.3713 143.129 91.4463C143.174 91.5063 143.633 91.7313 144.137 91.9113C144.655 92.1064 145.633 92.5264 146.329 92.8415C147.603 93.4416 149.528 94.3117 150.476 94.7317C150.758 94.8517 151.173 95.0468 151.395 95.1668C151.602 95.2718 151.884 95.3618 152.002 95.3618C152.121 95.3618 152.298 95.4668 152.402 95.5868C152.506 95.7069 152.684 95.8119 152.817 95.8119C152.935 95.8119 153.469 96.0219 153.987 96.2619C154.491 96.517 154.994 96.712 155.068 96.712C155.142 96.712 155.631 96.907 156.135 97.1471C159.157 98.5723 160.016 98.9623 160.134 98.9623C160.253 98.9623 161.734 99.6224 162.667 100.102C162.904 100.222 163.171 100.312 163.289 100.312C163.393 100.312 163.556 100.418 163.66 100.538C163.763 100.658 164 100.763 164.178 100.763C164.356 100.763 164.593 100.868 164.696 100.988C164.8 101.108 165.037 101.213 165.23 101.213C165.407 101.213 165.659 101.318 165.793 101.438C165.911 101.558 166.104 101.663 166.222 101.663C166.355 101.663 166.637 101.753 166.874 101.873C167.096 101.978 167.54 102.188 167.852 102.323C168.148 102.443 168.622 102.653 168.888 102.773C169.14 102.893 169.703 103.133 170.103 103.313C170.518 103.493 170.962 103.703 171.095 103.778C171.244 103.853 171.451 103.913 171.569 103.913C171.673 103.913 171.851 104.018 171.955 104.138C172.058 104.258 172.28 104.363 172.458 104.363C172.621 104.363 172.903 104.468 173.051 104.588C173.214 104.708 173.495 104.813 173.673 104.813C173.865 104.813 174.043 104.873 174.088 104.948C174.206 105.143 175.406 105.713 175.687 105.713C175.821 105.713 175.998 105.818 176.102 105.938C176.206 106.058 176.398 106.163 176.517 106.163C176.65 106.163 177.228 106.388 177.791 106.673C178.368 106.958 179.479 107.468 180.25 107.814C182.057 108.594 182.56 108.834 183.257 109.194C183.568 109.359 184.279 109.674 184.812 109.899C186.234 110.484 187.774 111.669 188.53 112.764C189.137 113.634 189.196 113.694 189.641 113.589C189.893 113.544 190.707 113.439 191.433 113.364ZM26.0515 111.969C26.0515 111.744 25.8885 111.549 25.5479 111.354C25.0146 111.069 23.1186 109.209 22.6742 108.549C22.5409 108.339 22.1114 107.694 21.7262 107.123C21.3559 106.538 20.9115 105.803 20.7782 105.473C20.6301 105.158 20.4227 104.783 20.319 104.663C19.9191 104.153 18.5119 100.087 18.6008 99.7124C18.6452 99.5474 18.586 99.1573 18.4527 98.8573C18.3342 98.5423 18.2453 97.8522 18.2453 97.3121C18.2453 96.772 18.186 96.0969 18.0972 95.8119C17.6972 94.5367 17.7713 83.4652 18.2009 79.3096C18.4971 76.4742 18.5564 76.2342 19.4303 74.989L19.8895 74.3589L19.5636 73.9089C19.3859 73.6688 19.2377 73.2788 19.2377 73.0388C19.2377 72.8137 19.1637 72.5437 19.0896 72.4687C18.8526 72.2286 18.7489 69.7083 18.7637 63.7075C18.7934 55.6364 19.0896 49.7105 19.5044 48.9004C19.7858 48.3754 19.7117 48.1803 19.1637 47.9103C18.5415 47.6103 18.1416 47.5803 17.949 47.8503C17.7565 48.0903 17.4602 49.1705 17.4602 49.6205C17.4602 49.8156 17.3565 50.1156 17.238 50.2656C17.1047 50.4456 17.0159 50.8807 17.0159 51.3308C17.0159 51.7808 16.927 52.2159 16.7937 52.3959C16.6604 52.5609 16.5863 53.026 16.5715 53.5511C16.5715 54.0311 16.4826 54.5712 16.3937 54.7512C16.29 54.9313 16.1567 55.5614 16.1123 56.1314C15.9494 57.6616 15.742 59.3119 15.5642 60.332C15.1495 62.6123 14.6607 68.0881 14.3496 73.6088C14.2755 74.974 14.1422 76.6993 14.0682 77.4344C13.846 79.3096 13.8608 98.4222 14.0682 99.7124C14.157 100.252 14.2755 101.168 14.3348 101.738C14.394 102.323 14.5125 102.938 14.6162 103.118C14.7051 103.298 14.794 103.613 14.794 103.823C14.794 104.798 16.5419 108.369 17.7861 109.974C18.4527 110.829 18.4082 110.814 21.6374 111.054C22.452 111.114 23.4297 111.564 23.6074 111.564C23.8 111.564 24.3036 111.729 24.748 111.939C25.7404 112.404 26.0515 112.419 26.0515 111.969ZM103.328 83.7202C103.906 83.6902 104.558 83.6002 104.78 83.5102C104.987 83.4352 105.446 83.3602 105.787 83.3602C106.143 83.3602 106.78 83.2552 107.224 83.1351C107.668 83.0001 108.305 82.8351 108.631 82.7451C108.957 82.6551 109.283 82.5351 109.357 82.445C109.446 82.37 109.609 82.31 109.727 82.31C109.846 82.31 110.053 82.22 110.172 82.1C110.305 81.995 110.749 81.785 111.149 81.6349C111.564 81.4999 112.023 81.3199 112.186 81.2599C112.631 81.0648 114.897 80.7798 115.741 80.7948C116.585 80.8098 117.741 81.0499 118.452 81.3499C118.718 81.4699 119.044 81.5599 119.192 81.5599C119.326 81.5599 119.785 81.7399 120.185 81.935C120.94 82.31 121.444 82.415 121.444 82.175C121.444 82.115 120.97 81.5899 120.407 81.0199C118.526 79.1596 116.897 76.3692 115.712 73.0088C115.341 71.9736 114.912 70.6234 114.764 70.0083C114.601 69.3933 114.393 68.6132 114.304 68.2831C114.201 67.9531 114.141 67.428 114.171 67.1279C114.186 66.8279 114.127 66.4229 114.023 66.2278C113.845 65.8978 113.741 64.9076 113.46 61.2921C113.386 60.332 113.282 59.4469 113.208 59.3419C113.134 59.2219 113.03 58.1867 112.971 57.0316C112.912 55.8764 112.764 53.206 112.631 51.1057C112.305 46.005 112.157 30.4329 112.394 26.8024C112.497 25.3622 112.571 23.2019 112.586 22.0017C112.586 20.8016 112.69 19.3014 112.793 18.6413C112.912 17.9962 113.001 16.751 113.001 15.8659C113.001 14.8908 113.09 13.9906 113.223 13.5406C113.342 13.1355 113.445 12.2504 113.445 11.5603C113.445 10.8702 113.519 10.2701 113.593 10.2251C113.682 10.1801 113.741 9.70006 113.741 9.15998C113.741 8.61991 113.845 7.94482 113.964 7.64478C114.082 7.35974 114.171 6.93968 114.156 6.71465C114.127 6.20458 114.749 4.34432 115.119 3.81925C115.549 3.23417 115.252 2.66409 114.749 3.14416C114.482 3.39919 111.416 4.9144 109.298 5.82953C108.394 6.21958 107.387 6.69965 106.898 6.93968C106.691 7.0597 106.409 7.14971 106.291 7.14971C106.172 7.14971 105.995 7.25472 105.891 7.37474C105.787 7.49476 105.55 7.59977 105.358 7.59977C105.18 7.59977 104.987 7.65978 104.943 7.73479C104.824 7.92982 103.699 8.49989 103.432 8.49989C103.313 8.49989 102.973 8.66492 102.662 8.85994C102.365 9.03997 101.966 9.25 101.788 9.31C101.595 9.37001 101.447 9.47503 101.447 9.53504C101.447 9.59504 101.18 9.76007 100.869 9.89508C100.203 10.1951 99.24 11.1103 98.9882 11.6503C98.4994 12.7305 98.3068 13.3306 98.3068 13.7056C98.3068 13.9306 98.2032 14.3057 98.0995 14.5307C97.981 14.7558 97.8921 15.3708 97.8921 15.9259C97.8921 16.481 97.8032 17.0661 97.7143 17.2461C97.6107 17.4261 97.4773 18.1912 97.4181 18.9263C97.3588 19.6764 97.2552 20.9816 97.1663 21.8517C97.0922 22.7218 96.9589 24.5821 96.87 25.9773C96.7812 27.3875 96.633 28.8727 96.5442 29.2777C96.4405 29.6978 96.3516 31.138 96.322 32.5032C96.2924 33.8684 96.2183 37.1088 96.159 39.7042C96.0553 43.7097 96.1146 50.7907 96.322 60.257C96.3516 61.4572 96.4553 62.8674 96.5442 63.4074C96.633 63.9475 96.7071 65.0577 96.7071 65.8828C96.7071 66.7079 96.7812 67.668 96.8552 68.0131C96.9293 68.3431 97.033 69.2732 97.0626 70.0533C97.107 70.8485 97.1959 71.6286 97.2848 71.7936C97.3737 71.9586 97.4477 72.4537 97.4477 72.8887C97.4477 73.3688 97.5366 73.8189 97.6699 73.9989C97.7884 74.1489 97.8921 74.554 97.8921 74.899C97.8921 75.2441 97.9513 75.7091 98.0254 75.9492C98.0995 76.1892 98.3513 76.9693 98.5587 77.6894C98.7809 78.4245 99.0178 79.0396 99.0919 79.0996C99.166 79.1446 99.2252 79.3396 99.2252 79.5196C99.2252 79.7147 99.3289 79.9547 99.4474 80.0597C99.5659 80.1647 99.6696 80.3448 99.6696 80.4498C99.6696 80.5698 99.9807 81.1099 100.351 81.6649C100.736 82.235 101.18 82.9851 101.329 83.3302C101.58 83.8852 101.669 83.9753 101.936 83.8852C102.114 83.8402 102.736 83.7652 103.328 83.7202ZM22.0077 72.6037C22.4669 72.2887 23.0445 71.8986 23.2964 71.7186C23.5482 71.5536 24.2888 71.1185 24.9405 70.7584C25.5923 70.3984 26.4218 69.9483 26.7921 69.7383C29.3695 68.3281 38.4644 63.8575 38.7754 63.8575C38.8495 63.8575 38.9828 63.7675 39.0717 63.6475C39.1754 63.5274 39.4124 63.3924 39.6049 63.3474C39.7975 63.3024 40.5529 62.9724 41.2639 62.6423C41.9749 62.2973 42.834 61.9072 43.1599 61.7572C44.0487 61.3521 45.678 60.587 47.0556 59.942C47.7222 59.6119 48.3591 59.3569 48.4628 59.3569C48.5517 59.3569 49.233 59.0418 49.9589 58.6818C50.6995 58.3067 51.366 58.0067 51.4549 58.0067C51.5438 58.0067 52.003 57.8117 52.4918 57.5566C52.9806 57.3166 53.4546 57.1066 53.5583 57.1066C53.6472 57.1066 53.9138 57.0166 54.1508 56.8965C54.7877 56.5665 55.2469 56.3865 55.9727 56.1314C56.3282 55.9964 56.8615 55.7564 57.1281 55.6064C57.3947 55.4413 57.765 55.3063 57.9428 55.3063C58.1354 55.3063 58.402 55.2163 58.5649 55.1113C58.7279 54.9913 59.5574 54.6462 60.4165 54.3312C61.2756 54.0161 62.3125 53.6111 62.742 53.4161C63.1568 53.221 63.6012 53.056 63.7049 53.056C63.8085 53.056 64.0307 52.951 64.1789 52.831C64.3418 52.711 64.6232 52.6059 64.8158 52.6059C65.0084 52.6059 65.3194 52.5159 65.4972 52.3959C65.6749 52.2909 66.1934 52.0809 66.6377 51.9309C67.645 51.6008 69.6447 50.8507 70.3112 50.5657C70.5779 50.4456 70.9333 50.3556 71.0963 50.3556C71.274 50.3556 71.5851 50.2656 71.7925 50.1456C72.222 49.9356 72.859 49.6955 73.8959 49.3805C74.5772 49.1555 76.1622 48.5854 76.9028 48.2704C77.1398 48.1803 77.4064 48.1053 77.4953 48.1053C77.7027 48.1053 80.206 47.3252 81.6724 46.8001C82.2501 46.5901 82.9463 46.3801 83.2277 46.3051C83.5092 46.2451 83.9387 46.1101 84.1609 46.02C84.3979 45.93 84.7386 45.855 84.946 45.855C85.1385 45.855 85.42 45.795 85.5681 45.72C85.7014 45.645 86.2198 45.48 86.7087 45.345C87.1975 45.1949 87.8048 45.0149 88.0566 44.9399C88.3084 44.8649 88.6343 44.8049 88.7824 44.8049C88.9305 44.8049 89.4193 44.6999 89.8785 44.5648C90.3377 44.4298 90.945 44.2798 91.2265 44.2048C91.5079 44.1448 92.1745 43.9798 92.7077 43.8447C93.241 43.7247 93.8187 43.6497 93.9964 43.6947C94.1594 43.7397 94.3519 43.7097 94.4112 43.6197C94.4556 43.5147 94.5 41.3094 94.4852 38.684C94.4852 35.9537 94.5445 33.5833 94.6333 33.1183C94.7074 32.6682 94.7963 31.108 94.7963 29.6678C94.8111 27.9126 94.8852 26.8024 95.0185 26.3523C95.137 25.9623 95.2258 24.9872 95.2258 24.012C95.2258 22.8719 95.2999 22.1668 95.448 21.8067C95.5814 21.4617 95.6702 20.7866 95.6702 20.0065C95.6702 19.1964 95.7591 18.5363 95.9072 18.1762C96.0257 17.8612 96.0998 17.4711 96.0554 17.2911C96.0109 17.1111 96.0702 16.406 96.2035 15.7009C96.3368 14.9958 96.4997 14.0507 96.5738 13.6006C96.6627 13.1505 96.796 12.5805 96.8848 12.3254C96.9737 12.0854 97.0774 11.6803 97.1218 11.4253C97.2255 10.8252 97.7884 10.0001 98.3365 9.62505C98.8845 9.25 98.9142 8.76993 98.3957 8.36487C97.9217 7.98982 97.1959 7.95982 96.2627 8.27486C95.4629 8.5599 93.4335 9.41502 93.2262 9.56504C93.0188 9.71506 90.4118 10.7502 90.234 10.7502C90.1452 10.7502 89.997 10.8552 89.8933 10.9752C89.7897 11.0952 89.6267 11.2003 89.5082 11.2003C89.3305 11.2003 87.864 11.8754 85.5089 13.0155C85.02 13.2555 84.5609 13.4506 84.5016 13.4506C84.3979 13.4506 83.0055 14.0957 81.6724 14.7558C81.2725 14.9658 80.5319 15.2808 80.043 15.4759C79.5542 15.6559 78.621 16.0609 77.9693 16.376C77.3175 16.676 76.5917 17.0211 76.3399 17.1261C76.1029 17.2311 75.4512 17.5311 74.8883 17.7862C74.3402 18.0412 73.8662 18.2512 73.8366 18.2512C73.807 18.2512 73.1849 18.5213 72.459 18.8663C71.748 19.2114 70.8593 19.6164 70.489 19.7814C68.7855 20.5615 67.5709 21.1316 67.1858 21.3417C66.9488 21.4467 66.6377 21.5517 66.4896 21.5517C66.3563 21.5517 66.1489 21.6567 66.0452 21.7767C65.9415 21.8967 65.8082 22.0017 65.7342 22.0017C65.6601 22.0017 64.8454 22.3768 63.8974 22.8269C62.9642 23.2769 62.1644 23.652 62.1199 23.652C62.0755 23.652 61.3941 23.967 60.5942 24.3421C58.8315 25.1672 58.3427 25.4072 56.6393 26.2173C55.9135 26.5624 54.847 27.0724 54.2841 27.3425C53.7064 27.6275 53.1287 27.8525 52.9954 27.8525C52.8473 27.8525 52.6844 27.9276 52.6399 28.0026C52.551 28.1376 50.4477 29.2027 50.2699 29.2027C50.181 29.2027 47.8407 30.3129 44.8634 31.7831C43.6784 32.3532 42.3897 32.9833 41.9749 33.1783C41.175 33.5533 38.5236 34.8135 37.0868 35.5036C36.598 35.7436 36.0944 35.9687 35.9759 36.0137C35.8574 36.0587 35.65 36.1637 35.5315 36.2387C35.2649 36.4037 33.3392 37.3038 33.2355 37.3038C33.2059 37.3038 32.8356 37.5139 32.4209 37.7539C32.0061 38.0089 31.6062 38.204 31.5469 38.204C31.4136 38.204 30.273 38.729 29.9027 38.9541C29.7102 39.0741 27.9771 39.8692 26.0515 40.7093C25.77 40.8293 25.3553 41.0394 25.1331 41.1444C24.9257 41.2644 24.6739 41.3544 24.5702 41.3544C24.4665 41.3544 24.0962 41.5644 23.7259 41.8045C23.3704 42.0595 23.0297 42.2545 22.9705 42.2695C22.7483 42.2845 21.904 43.5147 21.904 43.8297C21.904 44.0098 21.8151 44.3548 21.6966 44.5948C21.5781 44.8349 21.4448 45.705 21.3855 46.5301C21.3263 47.3552 21.2078 48.1203 21.1337 48.2103C20.9856 48.3904 20.9264 49.0805 20.5709 54.1062C20.3783 56.9715 20.3635 71.1785 20.556 71.7186C20.6449 71.9436 20.719 72.2736 20.719 72.4687C20.719 72.7537 20.956 73.1588 21.1189 73.1588C21.1485 73.1588 21.5485 72.9037 22.0077 72.6037ZM185.138 49.3205C185.138 49.1855 184.93 48.6754 184.693 48.1953C184.442 47.7003 184.205 47.0402 184.16 46.7251C184.101 46.4101 184.012 46.1101 183.938 46.065C183.79 45.975 183.212 44.6849 183.212 44.4598C183.212 44.1598 182.323 42.4646 181.879 41.9245C181.479 41.4294 181.331 41.3544 180.783 41.3544C180.013 41.3544 179.731 41.6394 179.42 42.6446C179.05 43.8898 179.109 44.0548 180.22 44.9849C181.316 45.915 183.271 47.9403 184.13 49.0355C184.693 49.7406 185.138 49.8756 185.138 49.3205ZM124.451 4.79438C124.481 4.71937 124.392 4.47934 124.244 4.22431C124.095 3.98427 123.829 3.48921 123.651 3.12916C123.088 2.004 121.918 1.44893 121.237 1.974C121.074 2.09401 120.792 2.19903 120.614 2.19903C120.229 2.19903 119.903 2.55908 120.007 2.84412C120.052 2.96413 120.303 3.09915 120.57 3.15916C121.148 3.26417 122.999 4.1793 123.518 4.59936C123.888 4.8994 124.332 4.98941 124.451 4.79438Z" fill="rgb(0,0,0)" fill-rule="nonzero" transform="matrix(1,0,0,-1,0.498535,230.097)" />
		<path id="矢量 503" d="M0.0424268 16.0275C-0.105698 15.7724 0.101677 15.6674 1.18299 15.4574C1.70143 15.3524 2.5013 15.1724 2.96049 15.0523C3.43449 14.9323 4.01218 14.8273 4.26399 14.8273C4.50099 14.8273 5.18236 14.7373 5.77486 14.6173C6.90061 14.3922 10.9889 13.8372 12.4109 13.7022C12.8552 13.6721 14.1884 13.5671 15.3734 13.4921C16.5584 13.4021 17.6841 13.2971 17.8915 13.2521C18.0989 13.2071 19.4024 13.0721 20.7799 12.937C25.1792 12.547 31.519 11.8269 34.1852 11.3918C34.7185 11.3018 35.785 11.1968 36.5552 11.1518C37.3255 11.0918 38.1254 10.9868 38.3327 10.9118C38.7179 10.7768 40.1102 10.5667 42.3321 10.3267C43.0283 10.2517 44.0207 10.1167 44.554 10.0267C45.0872 9.93664 46.3167 9.80162 47.2943 9.72661C50.1087 9.50158 52.1084 9.30655 53.1452 9.14153C53.6785 9.05152 54.7746 8.9165 55.5893 8.82649C58.8184 8.46644 59.4554 8.37643 59.959 8.24141C60.2404 8.1664 60.907 8.03138 61.4402 7.95637C62.6845 7.77635 66.0321 7.04125 66.3432 6.87622C66.4765 6.80121 66.8468 6.6962 67.1579 6.63619C67.4837 6.57618 68.4021 6.26114 69.2168 5.9461C70.0315 5.61605 71.0684 5.211 71.5127 5.03097C72.283 4.73093 73.5865 4.07084 75.5862 2.97569C76.075 2.70566 77.0822 2.03056 77.8229 1.47549C79.7633 0.00528884 80.4002 -0.294752 80.4002 0.260323C80.4002 0.560364 79.6152 1.31047 78.5635 2.01556C78.2376 2.25559 77.8969 2.51063 77.8081 2.60064C77.5562 2.87068 75.8232 4.02584 75.6602 4.02584C75.5862 4.02584 75.127 4.23586 74.6678 4.4909C72.8755 5.48103 70.1056 6.7262 69.7056 6.7262C69.6167 6.7262 69.3501 6.81622 69.0983 6.93623C68.5502 7.19127 65.7507 8.01638 64.8175 8.2114C64.462 8.28642 63.4844 8.49644 62.6252 8.67647C61.7661 8.85649 60.6107 9.06652 60.0331 9.14153C59.4702 9.21654 58.2704 9.38156 57.3668 9.50158C56.4781 9.6216 54.8339 9.81662 53.7229 9.93664C52.612 10.0417 51.6344 10.1767 51.5455 10.2217C51.4714 10.2817 50.5679 10.4017 49.5606 10.4767C45.4872 10.8218 41.2064 11.3018 38.4068 11.7369C37.5921 11.8719 36.1997 12.0369 35.2962 12.1269C34.4074 12.2169 33.3706 12.352 33.0002 12.427C32.6299 12.517 31.7708 12.652 31.0746 12.727C26.8827 13.2521 25.8606 13.3571 23.4462 13.5671C15.0623 14.2872 10.9741 14.7373 7.0043 15.3524C2.35318 16.0875 0.205364 16.2975 0.0424268 16.0275Z" fill="rgb(0,0,0)" fill-rule="nonzero" transform="matrix(1,0,0,-1,88.646,19.9448)" />
		<path id="矢量 504" d="M4.92038 60.6434C4.60931 60.2384 4.32788 59.8933 4.26863 59.8483C4.1205 59.7133 3.24657 58.1981 3.24657 58.0781C3.24657 58.0031 3.06882 57.748 2.84663 57.478C2.47632 57.0579 2.28375 56.6679 1.69126 55.0477C0.313695 51.2371 -0.293617 43.8711 0.135945 36.2201C0.210007 35.0649 0.328507 32.7396 0.417382 31.0444C0.506257 29.3491 0.639569 27.4589 0.728444 26.8438C0.817319 26.2287 0.950631 24.8485 1.02469 23.7684C1.11357 22.7032 1.27651 20.873 1.39501 19.7178C1.51351 18.5627 1.72088 16.5674 1.83938 15.2922C1.95788 14.017 2.09119 12.8319 2.13563 12.6669C2.20969 12.3818 2.343 11.1366 2.65407 8.16623C2.89107 5.7059 3.43913 1.3853 3.63169 0.335158C3.72057 -0.144908 4.09088 -0.0999014 4.19456 0.410169C4.32788 1.05526 3.89831 6.80105 3.46875 10.1165C3.27619 11.6017 3.15769 12.7869 2.80219 16.3424C2.74294 16.9574 2.60963 18.3826 2.52075 19.4928C2.43188 20.6029 2.28375 22.0581 2.18007 22.7182C2.09119 23.3783 1.97269 24.7285 1.91344 25.7186C1.80976 27.4139 1.67644 28.9291 1.32094 32.7246C1.08394 35.2599 0.980256 43.6011 1.15801 46.1214C1.38019 49.2419 1.55794 50.502 2.06157 52.6473C2.15044 53.0224 2.29857 53.6225 2.37263 53.9975C2.50594 54.6876 2.58 54.8676 3.39469 56.5479C4.07606 57.9881 4.68338 58.9482 5.32031 59.6233C5.98687 60.3284 6.26831 60.8385 6.14981 61.1385C5.98687 61.5586 5.48325 61.3485 4.92038 60.6434Z" fill="rgb(0,0,0)" fill-rule="nonzero" transform="matrix(1,0,0,-1,166.688,77.5674)" />
	</g>
</svg>
