<svg viewBox="0 0 216 230" xmlns="http://www.w3.org/2000/svg" xmlns:xlink="http://www.w3.org/1999/xlink" width="216.000000" height="230.000000" fill="none">
	<rect id="1-3" width="216.000000" height="230.000000" x="0.000000" y="0.000000" />
	<path id="矢量 458" d="M98.1949 2.55918L94.4206 6.4762L91.7757 14.8741L90.3343 23.7615L86.4857 24.5479L83.1275 28.8062L77.8376 43.2131L73.7512 62.6498L72.295 75.0537L72.295 80.5732L54.7461 84.1044L37.1972 89.0601L15.9631 98.6597L9.95993 101.078L6.02219 102.577L3.30293 107.71L3.30293 112.34L5.9479 114.966L2.97602 118.72L1.22262 123.631L0.331055 134.358L3.06518 169.403L5.4724 177.89L17.9691 183.959L20.6141 182.861L21.1788 187.965L96.7387 223.174L100.676 221.408L115.982 228.352L118.939 227.58L121.91 229.331L124.704 227.58L125.596 223.812L143.546 213.5L161.02 201.244L178.495 186.362L179.535 189.641L181.378 190.042L184.171 187.193L186.504 179.241L196.995 167.727L200.68 130.678L199.566 120.752L195.316 116.909L198.6 116.405L201.809 116.909L204.217 109.951L215.198 40.2457L213.028 37.842L200.843 36.0022L194.513 33.3612L190.264 34.1624L185.791 33.2128L185.791 22.4855L183.131 13.7613L178.807 9.68103L168.792 6.40201L103.559 0.229736L98.1949 2.55918Z" fill="rgb(255,255,255)" fill-rule="nonzero" />
	<path id="矢量 459" d="M99.012 1.93601L94.0193 7.35159L90.1707 22.8861L86.8868 51.7742L86.2479 64.5787L86.1587 66.0624L90.988 65.8102L109.25 66.5965L133.293 71.8489L155.626 79.9203L163.769 81.4485L172.477 80.7364L176.325 64.2522L184.26 43.6879L185.152 36.4918L185.791 22.3223L182.685 12.9749L173.666 7.35159L155.73 4.63638L106.145 0.229736L99.012 1.93601Z" fill="rgb(1,89,188)" fill-rule="nonzero" />
	<g id="组合 91">
		<path id="矢量 460" d="M102.585 230.273C102.095 230.155 101.382 229.962 101.01 229.843C100.624 229.724 100.208 229.635 100.074 229.635C99.9404 229.635 99.3609 229.353 98.7665 229.012C97.0874 228.018 94.2196 224.962 93.8332 223.745C93.7738 223.552 93.6698 223.404 93.5955 223.404C93.5212 223.404 93.4172 223.255 93.3726 223.077C93.3132 222.884 93.1943 222.543 93.0754 222.291C92.9714 222.054 92.8079 221.683 92.7188 221.475C92.3919 220.733 91.6638 218.315 91.5152 217.424C91.426 216.92 91.2923 216.312 91.218 216.059C91.1437 215.822 90.9802 215.08 90.8465 214.427C90.7128 213.774 90.5345 212.973 90.4602 212.647C90.267 211.935 90.1184 211 89.8212 208.715C89.7023 207.78 89.5983 206.994 89.5983 206.979C89.5835 206.949 89.316 206.934 88.9891 206.934C88.0975 206.934 86.9682 206.653 86.5967 206.326C86.4184 206.178 86.2104 206.044 86.1361 206.044C85.72 206.044 84.4718 204.709 83.8329 203.596C83.1791 202.454 82.1538 200.154 82.1538 199.827C82.1538 199.694 82.0498 199.456 81.9309 199.308C81.812 199.145 81.708 198.922 81.708 198.789C81.708 198.67 81.6188 198.462 81.5 198.344C81.3959 198.21 81.0542 197.409 80.7421 196.548C79.8208 193.922 79.3602 192.646 79.0184 191.8C78.855 191.355 78.647 190.747 78.5875 190.465C78.5281 190.183 78.3646 189.619 78.2309 189.204C77.8743 188.151 77.3393 186.4 77.0421 185.346C76.8936 184.857 76.6409 184.026 76.4775 183.521C76.2992 183.002 76.0763 182.156 75.9574 181.667C75.6008 180.124 75.3482 179.13 75.1996 178.67C75.1104 178.432 74.9321 177.69 74.7984 177.037C74.6646 176.385 74.4715 175.524 74.3526 175.109C73.8622 173.284 73.3124 169.871 73.1936 169.411C73.0598 168.951 72.8815 167.987 72.7924 167.245C72.7032 166.518 72.5695 165.628 72.4952 165.272C72.406 164.93 72.3466 164.263 72.3466 163.788C72.3466 163.328 72.2426 162.616 72.1237 162.215C72.0048 161.814 71.9008 160.939 71.9008 160.286C71.9008 159.619 71.6957 158.576 71.6779 157.927C71.6408 156.512 71.6021 150.771 71.6036 150.479C71.6051 150.044 71.5442 149.96 70.9349 149.96C70.4743 149.96 64.5454 148.787 64.2779 148.802C64.0105 148.817 63.6538 148.743 63.4755 148.654C63.2972 148.55 57.1752 147.289 56.8928 147.289C56.6105 147.289 56.2093 147.185 56.0013 147.066C55.7932 146.948 51.8555 145.954 51.5435 145.954C51.2314 145.954 47.4125 144.93 46.9073 144.767C45.1836 144.203 41.8254 143.179 41.6768 143.06C41.5134 142.942 41.2608 142.838 41.1122 142.838C40.9636 142.838 40.7258 142.778 40.5772 142.704C40.4435 142.615 39.5519 142.318 38.6158 142.007C37.6797 141.71 36.7138 141.384 36.4612 141.28C36.2234 141.176 35.7182 140.983 35.3467 140.835C34.9753 140.701 34.574 140.523 34.4552 140.464C34.3214 140.404 34.0094 140.301 33.7568 140.256C33.5042 140.197 31.8994 139.514 31.4239 139.277C30.9484 139.025 29.3733 138.446 28.8829 138.253C28.3925 138.06 27.6496 137.749 27.2187 137.556C26.7877 137.363 26.2974 137.125 26.1042 137.051C25.911 136.977 25.6584 136.843 25.5396 136.769C25.4207 136.695 25.0195 136.517 24.648 136.369C24.2765 136.22 23.8902 136.042 23.7713 135.953C23.5781 135.805 22.85 135.508 22.1962 135.315C22.0327 135.256 21.5721 135.033 21.1858 134.796C20.7994 134.573 18.8826 133.713 18.1099 133.416C17.3372 133.105 16.5942 132.808 16.4753 132.748C16.3565 132.689 14.1424 131.71 14.0533 131.71C13.9492 131.71 13.6818 131.606 13.4292 131.472C12.9834 131.235 12.493 131.057 11.646 130.82C6.02919 129.262 2.92358 125.968 2.41836 121.027C2.21033 118.965 3.48824 115.7 4.70671 115.226C5.21193 115.033 5.10791 114.706 4.24607 113.712C3.32478 112.614 2.80471 111.902 2.80471 111.694C2.80471 111.605 2.61154 111.205 2.35893 110.819C2.12118 110.418 1.91314 109.988 1.91314 109.884C1.91314 109.766 1.82399 109.543 1.71997 109.38C1.6011 109.217 1.43764 108.757 1.33363 108.341C1.22961 107.941 1.06616 107.436 0.991863 107.228C0.694676 106.546 0.471785 104.854 0.144879 100.7C-0.048293 98.2816 -0.048293 87.0944 0.144879 85.1952C0.219176 84.3792 0.35291 82.6432 0.442066 81.3375C0.516363 80.0319 0.650098 78.192 0.724395 77.2573C0.798691 76.3226 0.917566 74.8537 0.991863 73.9931C1.06616 73.1326 1.19989 72.2423 1.28905 72.0198C1.39307 71.7824 1.46736 71.0702 1.46736 70.4174C1.46736 69.7645 1.54166 69.082 1.64568 68.904C1.74969 68.7259 1.86857 67.984 1.94286 67.2422C2.09146 65.343 2.34407 63.4735 2.44808 63.2807C2.50752 63.1916 2.61154 62.6575 2.68583 62.064C2.76013 61.4854 2.879 60.5803 2.96816 60.0461C3.04246 59.512 3.16133 58.7108 3.22077 58.2657C3.28021 57.8206 3.41394 57.3013 3.51796 57.1232C3.62197 56.9452 3.69627 56.5149 3.69627 56.1588C3.71113 55.8027 3.80029 55.3576 3.91916 55.1499C4.03803 54.9422 4.12719 54.5712 4.14205 54.3041C4.14205 54.0519 4.21635 53.7848 4.29064 53.7403C4.3798 53.6958 4.43924 53.4288 4.43924 53.1617C4.43924 52.1379 5.46453 51.0696 7.634 49.853C9.56572 48.7699 14.0533 46.5443 14.3207 46.5443C14.3653 46.5443 14.6476 46.3811 14.9597 46.203C15.2569 46.0102 15.9553 45.6986 16.5051 45.5205C17.3818 45.2238 17.6046 45.209 18.5111 45.3425C19.0609 45.4315 19.6552 45.5205 19.8187 45.5354C20.0862 45.5799 20.1307 45.476 20.205 44.3187C20.2496 43.6214 20.3685 42.9092 20.4576 42.7311C20.5617 42.5531 20.636 42.3009 20.636 42.1525C20.636 41.9151 21.4829 40.7578 21.9733 40.3423C22.0922 40.2385 22.6271 39.9417 23.1621 39.7043C23.697 39.4669 24.6034 39.0367 25.1681 38.7548C25.7476 38.4877 27.0849 37.8497 28.1399 37.3452C29.2098 36.8408 30.1757 36.366 30.2945 36.2918C30.4134 36.2176 30.6215 36.1137 30.7403 36.0692C30.8592 36.0247 31.1713 35.906 31.409 35.7873C31.6616 35.6835 32.152 35.4461 32.5235 35.2829C32.8949 35.1197 33.2961 34.9119 33.415 34.8377C33.7419 34.63 36.4909 33.3392 36.6246 33.3392C36.6841 33.3392 37.5756 32.9237 38.6009 32.4341C40.5327 31.4994 42.0929 30.7575 44.5596 29.6002C45.3322 29.2441 46.625 28.6358 47.4274 28.25C48.2298 27.8643 48.9133 27.5527 48.9431 27.5527C48.9876 27.5527 49.8643 27.1521 50.9194 26.6476C51.9595 26.158 53.1037 25.609 53.4752 25.4458C55.1691 24.6743 56.6848 23.9472 56.8928 23.8285C57.0117 23.7544 57.2643 23.6208 57.4575 23.5466C57.6507 23.4725 58.1856 23.2202 58.6462 23.0125C59.1069 22.8048 59.7013 22.5377 59.939 22.4338C60.1916 22.3151 61.2318 21.8255 62.2868 21.3359C63.3269 20.8314 64.2185 20.4308 64.2482 20.4308C64.2928 20.4308 64.8426 20.1934 65.4667 19.8967C66.1056 19.5999 66.9972 19.1993 67.443 18.9916C68.6317 18.4723 70.1623 17.7453 70.4149 17.5969C70.5337 17.5227 70.7418 17.4189 70.8606 17.3744C71.8414 16.9886 72.7478 16.6028 73.8028 16.1132C74.4715 15.7868 75.0658 15.5345 75.0956 15.5345C75.1401 15.5345 75.6305 15.3268 76.1803 15.0746C77.2056 14.585 77.6217 14.4069 78.7064 13.9618C79.0482 13.8283 79.4048 13.6205 79.4939 13.5019C79.5831 13.398 79.7911 13.309 79.9397 13.309C80.0883 13.309 80.6381 13.1012 81.1433 12.849C81.6634 12.5968 82.2875 12.3 82.5253 12.1962C82.7779 12.0923 83.3574 11.8252 83.8329 11.6175C84.3232 11.395 84.9771 11.1131 85.304 10.9944C85.6309 10.8905 86.1361 10.6679 86.4333 10.5047C87.2505 10.0893 88.8256 9.36227 89.5835 9.06553C89.9549 8.93199 90.5939 8.65009 91.0248 8.4572C91.4409 8.27916 91.8272 8.11595 91.8867 8.11595C91.9312 8.11595 92.481 7.87855 93.0903 7.59665C93.6995 7.31474 94.279 7.07734 94.3979 7.07734C94.5019 7.07734 94.7694 6.94381 94.9774 6.7806C95.1854 6.61739 95.4678 6.48386 95.6312 6.48386C95.7798 6.48386 96.2256 6.38 96.6119 6.2613C97.9641 5.86069 99.4352 6.30581 100.297 7.38893C100.55 7.70051 100.817 7.96758 100.891 7.96758C100.981 7.96758 101.397 7.70051 101.828 7.37409C102.258 7.04767 102.66 6.7806 102.719 6.7806C102.897 6.7806 106.226 5.11883 106.315 4.9853C106.36 4.91111 106.538 4.85176 106.731 4.85176C106.909 4.85176 107.118 4.79242 107.207 4.71823C107.281 4.64404 107.756 4.40665 108.277 4.18409C108.797 3.97637 109.762 3.54609 110.431 3.23451C113.373 1.85465 114.963 1.1573 115.513 1.00893C116.345 0.786372 116.999 0.801209 117.222 1.06828C117.326 1.18698 117.564 1.29084 117.742 1.29084C117.92 1.29084 118.247 1.42437 118.455 1.58758C118.99 2.01786 119.317 1.95851 119.793 1.36502C120.015 1.08312 120.268 0.84572 120.342 0.84572C120.417 0.84572 120.892 0.652837 121.383 0.415442L122.304 0L123.195 0.296744C123.923 0.548976 124.176 0.727023 124.726 1.42437C125.097 1.88432 125.395 2.32944 125.395 2.4333C125.395 2.53716 125.558 2.92293 125.766 3.29386C125.959 3.67963 126.167 4.2286 126.212 4.52535C126.375 5.56395 126.435 5.742 126.628 5.742C126.821 5.742 129.689 7.1812 129.912 7.38893C130.001 7.46311 130.15 7.52246 130.254 7.52246C130.343 7.52246 130.67 7.68567 130.967 7.87855C131.264 8.08627 131.754 8.32367 132.052 8.42753C132.349 8.51655 132.795 8.73911 133.047 8.91716C133.285 9.08037 133.746 9.36227 134.087 9.52548C134.414 9.68869 135.157 10.1041 135.752 10.4602C136.331 10.8015 136.851 11.0834 136.911 11.0834C136.955 11.0834 137.223 11.2466 137.475 11.4395C137.743 11.6472 138.114 11.8846 138.322 11.9736C138.53 12.0626 138.827 12.211 138.991 12.3149C139.154 12.4187 139.853 12.8342 140.521 13.2348C141.205 13.6502 141.918 14.0805 142.111 14.1992C143.003 14.763 145.38 16.2319 145.796 16.4693C146.064 16.6325 146.406 16.8699 146.569 17.0183C146.733 17.1666 147.104 17.404 147.386 17.5376C147.669 17.6859 148.1 17.9975 148.337 18.2201C148.59 18.4575 148.857 18.6504 148.947 18.6504C149.036 18.6504 149.274 18.7839 149.467 18.9323C149.927 19.3032 150.893 19.9709 152.81 21.2765C153.627 21.8255 154.37 22.3448 154.474 22.4338C154.564 22.508 154.994 22.8196 155.41 23.1015C155.827 23.3834 156.555 23.9176 157.03 24.2885C157.506 24.6594 158.873 25.7277 160.091 26.6624C162.186 28.2945 165.114 30.6685 166.748 32.078C167.179 32.4341 168.1 33.2205 168.799 33.814C169.497 34.4075 170.641 35.3867 171.325 35.995C172.008 36.6034 173.078 37.5381 173.688 38.0723C174.297 38.6064 175.56 39.8082 176.481 40.7281C177.551 41.7816 178.249 42.3899 178.383 42.3305C178.517 42.286 178.591 42.0338 178.591 41.6777C178.591 40.6391 179.2 40.0456 180.924 39.3483C181.533 39.096 181.563 39.096 182.395 39.4373C183.242 39.7934 183.926 40.461 184.416 41.4255C184.951 42.4344 186.021 45.1941 186.021 45.5354C186.021 45.7282 186.125 46.025 186.244 46.1882C186.363 46.3366 187.358 49.7343 187.358 50.0904C187.358 50.6839 187.432 50.8026 188.369 51.7225C195.65 58.8147 197.373 60.6693 197.893 62.0492C198.399 63.3845 198.651 64.4231 198.651 65.2392C198.651 65.6398 198.726 66.1442 198.8 66.3668C198.889 66.5894 198.993 67.3609 199.023 68.0731C199.052 68.7853 199.142 69.4974 199.231 69.6755C199.32 69.8387 199.394 70.5657 199.394 71.2927C199.394 72.094 199.483 72.8655 199.617 73.2513C199.766 73.6519 199.84 74.4234 199.84 75.3878C199.84 76.2187 199.914 77.1238 200.003 77.4057C200.167 77.9101 200.271 79.0823 200.568 83.4147C200.642 84.5572 200.776 86.2635 200.865 87.1982C201.133 90.0915 201.549 99.5724 201.549 102.851C201.534 106.145 201.445 107.273 201.088 108.519C200.836 109.365 199.617 111.086 198.978 111.487C198.755 111.635 198.547 111.783 198.503 111.828C198.458 111.872 198.116 112.065 197.715 112.273C197.002 112.644 196.838 113.03 197.344 113.134C197.626 113.193 198.978 112.614 199.127 112.362C199.186 112.273 199.781 112.169 200.479 112.154C201.475 112.11 201.757 112.14 201.905 112.332C202.009 112.466 202.188 112.57 202.277 112.57C202.589 112.57 203.837 114.143 204.06 114.825C204.417 115.879 215.517 186.34 215.665 186.548C215.814 186.756 215.873 187.26 215.888 188.462C215.888 190.124 215.829 190.391 215.145 191.474C214.833 191.949 213.08 193.047 212.545 193.076C212.307 193.091 211.728 193.18 211.282 193.269C210.836 193.358 210.034 193.477 209.499 193.536C208.964 193.581 208.399 193.714 208.236 193.818C208.072 193.937 207.611 194.026 207.195 194.026C206.794 194.041 206.289 194.13 206.081 194.249C205.813 194.397 205.175 194.456 203.778 194.471C201.935 194.471 201.831 194.486 201.4 194.842C200.806 195.347 200.063 195.688 197.611 196.578C197.165 196.741 196.72 196.934 196.616 197.023C196.512 197.097 196.363 197.127 196.289 197.083C196.214 197.023 195.694 197.097 195.159 197.231C194.312 197.439 194.015 197.453 193.109 197.305C192.514 197.201 191.846 197.023 191.623 196.904C191.088 196.637 190.657 196.637 189.988 196.919C189.691 197.038 189.156 197.142 188.814 197.142C188.042 197.142 187.061 197.468 186.897 197.765C186.838 197.884 186.853 198.64 186.942 199.456C187.106 201.103 186.987 207.038 186.764 207.305C186.689 207.394 186.585 207.929 186.526 208.492C186.467 209.071 186.333 209.709 186.229 209.932C186.11 210.154 186.021 210.481 186.021 210.644C186.021 210.94 185.694 212.113 185.426 212.795C185.367 212.958 185.159 213.492 184.981 213.982C183.346 218.255 181.578 220.021 176.793 222.113C176.332 222.321 175.738 222.528 175.486 222.588C175.233 222.632 174.639 222.959 174.371 222.959C174.118 222.959 173.301 223.344 172.989 223.404C172.677 223.478 171.89 223.671 171.236 223.849C169.988 224.19 169.111 224.368 165.812 224.887C164.712 225.051 163.271 225.288 162.617 225.407C161.963 225.525 157.922 226.015 157.268 226.074C156.614 226.149 155.515 226.267 154.816 226.356C153.196 226.564 150.953 226.801 149.17 226.979C148.397 227.054 126.509 229.116 125.246 229.19C123.983 229.264 122.348 229.398 121.605 229.487C120.327 229.635 118.351 229.784 113.358 230.08C112.095 230.155 110.654 230.288 110.164 230.362C108.811 230.6 103.67 230.54 102.585 230.273ZM112.318 228.597C113.091 228.508 114.607 228.374 115.662 228.3C116.732 228.226 118.262 228.092 119.079 228.018C119.897 227.929 121.264 227.855 122.125 227.855C122.987 227.855 124.325 227.751 125.097 227.632C125.87 227.514 127.148 227.41 127.921 227.41C128.693 227.395 148.441 225.481 148.56 225.422C148.679 225.347 149.422 225.229 150.195 225.169C150.982 225.11 152.498 224.962 153.553 224.843C154.623 224.709 156.153 224.531 156.971 224.442C157.788 224.353 158.798 224.205 159.2 224.116C159.616 224.027 160.344 223.908 160.834 223.834C163.88 223.448 168.843 222.306 169.854 221.757C170.002 221.683 170.73 221.534 170.968 221.416C171.726 221.045 172.751 220.585 172.841 220.585C172.9 220.585 173.375 220.318 173.91 219.991C174.445 219.665 174.906 219.398 174.951 219.398C174.98 219.398 175.337 219.19 175.723 218.923C176.734 218.255 177.818 217.202 178.249 216.46C178.68 215.718 179.156 215.406 179.349 215.703C179.928 216.653 177.447 218.997 174.133 220.644C173.524 220.956 172.826 221.297 172.603 221.416C172.365 221.534 171.488 221.742 171.295 221.905C171.102 222.054 170.835 222.217 170.716 222.261C170.597 222.306 170.775 222.35 171.102 222.35C171.711 222.365 173.569 221.816 174.386 221.401C174.624 221.282 174.921 221.178 175.055 221.178C175.292 221.178 176.303 220.689 178.725 219.383C179.824 218.789 181.429 217.38 181.979 216.519C183.257 214.531 184.639 210.406 185.233 206.86C185.664 204.279 185.204 195.183 184.401 190.168C184.312 189.634 184.238 188.922 184.238 188.581C184.238 188.195 184.059 187.557 183.777 186.949C182.826 184.842 182.455 183.966 182.455 183.729C182.455 183.61 182.351 183.447 182.232 183.343C182.113 183.239 182.009 183.032 182.009 182.868C182.009 182.705 181.92 182.394 181.816 182.186C181.697 181.963 181.504 181.548 181.385 181.266C181.266 180.984 181.043 180.495 180.909 180.183C180.775 179.871 180.671 179.515 180.671 179.367C180.671 179.233 180.567 178.981 180.449 178.833C180.33 178.67 180.226 178.417 180.226 178.284C180.226 178.135 180.136 177.839 180.018 177.601C179.542 176.652 178.74 174.604 178.16 172.853C177.997 172.364 177.774 171.755 177.685 171.518C177.298 170.583 176.808 169.011 176.362 167.393C176.184 166.74 175.946 165.969 175.842 165.687C175.485 164.678 175.322 164.099 175.322 163.773C175.322 163.595 175.248 163.298 175.159 163.12C174.965 162.764 174.609 161.592 174.43 160.717C174.371 160.39 174.163 159.589 173.985 158.936C173.806 158.283 173.613 157.452 173.554 157.081C173.494 156.711 173.361 156.265 173.271 156.087C173.167 155.909 173.093 155.479 173.093 155.123C173.078 154.767 172.989 154.322 172.87 154.114C172.751 153.906 172.662 153.55 172.647 153.328C172.647 153.09 172.573 152.764 172.469 152.586C172.365 152.408 172.231 151.888 172.172 151.443C171.934 149.707 171.786 148.832 171.637 148.476C171.563 148.268 171.533 147.897 171.563 147.645C171.607 147.378 171.548 147.022 171.444 146.829C171.251 146.443 171.072 145.271 170.894 143.134C170.82 142.363 170.701 141.577 170.597 141.399C170.493 141.22 170.418 140.627 170.418 140.063C170.418 139.514 170.314 138.772 170.196 138.416C170.062 138.045 170.002 137.556 170.047 137.229C170.106 136.933 170.062 136.354 169.958 135.938C169.779 135.182 169.735 134.633 169.616 131.71L169.542 130.004L167.863 129.929C166.941 129.885 166.08 129.796 165.961 129.707C165.842 129.633 165.203 129.514 164.549 129.455C163.895 129.395 162.9 129.277 162.32 129.188C161.755 129.098 160.849 128.965 160.314 128.891C158.813 128.683 147 125.671 146.346 125.33C146.213 125.27 145.9 125.167 145.618 125.107C145.351 125.048 144.964 124.914 144.741 124.796C144.519 124.677 144.251 124.588 144.132 124.588C144.028 124.588 143.315 124.38 142.572 124.128C141.16 123.638 140.521 123.401 136.093 121.621C135.321 121.309 134.221 120.834 133.196 120.359C132.185 119.899 126.583 117.125 125.707 116.65C125.187 116.368 124.711 116.131 124.652 116.131C124.577 116.131 124.176 115.893 123.745 115.597C122.883 115.018 122.646 115.003 121.383 115.433C121.011 115.567 120.313 115.775 119.822 115.908C119.332 116.042 118.738 116.249 118.485 116.353C117.935 116.591 116.107 117.14 114.993 117.407C113.225 117.822 110.951 118.505 110.758 118.683C110.684 118.742 110.476 118.801 110.283 118.801C110.104 118.801 109.703 118.905 109.391 119.039C108.44 119.454 108.262 119.514 107.34 119.736C106.85 119.855 105.884 120.166 105.186 120.434C104.487 120.686 103.7 120.953 103.418 121.027C103.15 121.101 102.853 121.22 102.764 121.309C102.675 121.398 102.481 121.472 102.348 121.472C102.065 121.472 98.8111 122.897 98.5734 123.119C98.4991 123.193 98.291 123.253 98.1127 123.253C97.9344 123.253 97.7115 123.356 97.6075 123.475C97.5035 123.594 97.3252 123.698 97.2212 123.698C97.1172 123.698 96.7754 123.816 96.4633 123.98C96.1513 124.128 95.4975 124.44 95.0071 124.662C94.5168 124.885 93.8184 125.226 93.4469 125.419C90.7276 126.814 89.7023 127.259 89.2268 127.259C89.0485 127.259 88.8256 127.333 88.7216 127.437C88.5136 127.644 87.4586 127.956 86.2995 128.134C85.2891 128.297 84.8285 128.52 84.8285 128.846C84.8285 128.98 85.1256 129.469 85.4674 129.915C85.824 130.374 86.1658 130.909 86.2104 131.116C86.255 131.324 86.4333 131.873 86.5967 132.333C86.8493 133.001 86.9236 133.594 86.9385 135.078C86.9533 136.324 86.9088 137.096 86.7899 137.303C86.6859 137.481 86.6116 137.852 86.6116 138.134C86.6116 138.416 86.5076 138.728 86.3887 138.832C86.2698 138.936 86.1658 139.232 86.1658 139.499C86.1658 139.766 86.0618 140.063 85.9429 140.167C85.824 140.271 85.72 140.464 85.72 140.597C85.72 140.731 85.512 141.131 85.2742 141.502C85.0365 141.873 84.8285 142.244 84.8285 142.348C84.8285 142.452 84.6947 142.793 84.5164 143.12C84.3232 143.505 84.2044 144.01 84.2044 144.499C84.1895 146.235 84.4273 149.307 84.5907 149.663C84.6947 149.871 84.7839 150.568 84.8136 151.221C84.8433 152.69 85.4971 156.725 85.928 158.268C86.463 160.123 86.6562 160.761 86.8493 161.206C86.9682 161.473 87.0574 161.785 87.0574 161.904C87.0574 162.022 87.1911 162.334 87.3545 162.601C87.6072 163.016 87.6369 163.239 87.5626 164.055C87.5031 164.589 87.3694 165.153 87.2654 165.316C87.0128 165.657 86.9979 169.649 87.2208 172.364C87.518 176.132 87.622 177.052 87.7855 177.453C87.8746 177.69 87.9489 178.299 87.9489 178.818C87.9489 179.337 88.0232 179.946 88.1124 180.183C88.2164 180.406 88.3353 181.266 88.3947 182.082C88.4541 182.898 88.5879 184.204 88.677 184.975C88.8999 186.83 89.108 188.818 89.2863 190.91C89.3754 191.845 89.5092 193.225 89.5983 193.952C89.6726 194.694 89.8064 195.955 89.8806 196.771C90.2076 200.376 90.3116 201.252 90.4602 201.638C90.5493 201.875 90.6236 202.498 90.6236 203.047C90.6236 203.596 90.6979 204.338 90.7871 204.694C90.8614 205.065 90.9951 205.866 91.0694 206.474C91.1288 207.098 91.2626 207.899 91.3369 208.27C91.426 208.641 91.6043 209.739 91.7381 210.718C91.8718 211.697 92.0798 212.84 92.1838 213.24C92.2879 213.656 92.4216 214.279 92.4662 214.65C92.5256 215.021 92.6296 215.525 92.6891 215.763C92.8228 216.223 93.1348 217.335 93.4618 218.507C94.1007 220.867 94.8288 222.543 95.8987 224.131C96.5525 225.08 98.3059 226.965 98.5437 226.965C98.618 226.965 98.9746 227.172 99.3461 227.41C99.7027 227.662 100.074 227.855 100.178 227.855C100.267 227.855 100.683 227.988 101.099 228.137C102.868 228.819 103.566 228.893 107.34 228.819C109.302 228.775 111.546 228.671 112.318 228.597ZM89.1971 204.56C89.1823 204.026 89.0337 202.632 88.8553 201.445C88.677 200.258 88.469 198.492 88.3798 197.513C88.3055 196.534 88.1718 195.495 88.0975 195.213C88.0084 194.931 87.9489 194.249 87.9489 193.714C87.9489 193.18 87.8895 192.379 87.8003 191.934C87.726 191.489 87.5923 190.406 87.518 189.501C86.9979 183.937 86.7007 181.266 86.4481 179.931C86.255 178.981 86.0766 177.453 85.8686 174.96C85.7943 173.981 85.6606 172.646 85.5714 171.993C85.1256 168.373 85.2445 165.42 85.8983 164.114L86.1955 163.506L85.7795 162.705C85.5566 162.26 85.2297 161.369 85.0365 160.717C84.8433 160.064 84.6353 159.292 84.5461 159.01C84.2787 158.105 83.9518 156.443 83.8477 155.524C83.8032 155.034 83.6991 154.515 83.6248 154.381C83.3722 153.891 82.8819 150.019 82.9265 148.847C82.971 147.675 82.971 147.66 82.5995 147.615C82.3618 147.586 82.0646 147.719 81.7823 147.957C81.2473 148.417 78.5429 149.514 77.9188 149.514C77.6811 149.529 77.3096 149.618 77.1016 149.737C76.8341 149.885 76.1952 149.945 74.843 149.96C73.8028 149.96 72.9261 150.004 72.8964 150.078C72.8518 150.138 72.8815 150.523 72.9558 150.924C73.0301 151.339 73.1638 153.342 73.253 155.375C73.3422 157.423 73.4759 159.485 73.565 159.975C73.7136 160.85 73.892 162.378 74.1 164.723C74.1594 165.375 74.2634 165.999 74.3377 166.117C74.412 166.236 74.5309 166.829 74.5903 167.453C74.7538 168.892 75.2293 171.696 75.5413 173.031C75.6751 173.61 75.8385 174.367 75.9128 174.738C76.2397 176.548 76.3586 177.097 76.5815 177.854C76.7004 178.299 76.849 178.922 76.9084 179.233C76.953 179.545 77.057 179.827 77.1164 179.871C77.1907 179.916 77.7554 182.587 77.8297 182.779C77.904 182.972 78.0377 183.388 78.112 183.714C78.3349 184.53 79.4642 188.195 79.702 188.833C79.806 189.115 79.9992 189.753 80.1478 190.243C80.2815 190.732 80.4895 191.355 80.6084 191.622C80.7273 191.89 80.8164 192.186 80.8164 192.29C80.8164 192.438 81.1433 193.329 81.6337 194.545C81.7377 194.798 81.9012 195.243 82.0052 195.554C82.1092 195.881 82.2726 196.311 82.3915 196.519C82.5104 196.741 82.5995 197.023 82.5995 197.157C82.5995 197.275 82.7036 197.513 82.8224 197.676C82.9413 197.824 83.0453 198.077 83.0453 198.225C83.0453 198.388 83.1345 198.685 83.2534 198.893C83.6397 199.62 84.8285 202.127 84.8285 202.246C84.8285 202.439 86.3144 204.308 86.775 204.694C87.2951 205.124 88.469 205.599 88.9148 205.555C89.1823 205.525 89.212 205.421 89.1971 204.56ZM187.982 195.762C189.171 195.45 189.171 195.332 188.101 194.278C187.566 193.774 187.002 193.121 186.838 192.839C186.675 192.557 186.407 192.305 186.259 192.275C186.021 192.231 185.991 192.275 186.08 192.646C186.392 193.952 186.452 194.323 186.467 195.02C186.467 195.999 186.675 196.103 187.982 195.762ZM195.427 195.495C196.021 195.406 196.63 195.272 196.794 195.213C196.957 195.139 197.254 195.035 197.463 194.99C197.893 194.872 198.785 194.516 199.097 194.323C199.216 194.249 199.662 194.011 200.063 193.789C201.326 193.136 201.519 193.017 201.905 192.646C202.128 192.453 202.678 192.008 203.169 191.652C203.674 191.266 204.313 190.599 204.684 190.02C205.056 189.486 205.487 188.863 205.665 188.64C206.111 188.091 206.17 186.696 205.858 184.753C205.724 183.937 205.591 183.002 205.561 182.676C205.546 182.349 205.442 181.815 205.368 181.489C205.279 181.162 205.13 180.495 205.041 180.005C204.952 179.515 192.128 123.98 191.742 122.362C191.638 121.917 191.415 121.012 191.251 120.359C191.088 119.707 190.91 118.742 190.85 118.208C190.791 117.674 190.672 117.155 190.597 117.066C190.271 116.665 190.077 116.873 189.988 117.733C189.914 118.638 189.23 120.107 188.532 120.894C187.314 122.259 186.155 123.356 185.293 123.95C184.758 124.321 184.282 124.677 184.238 124.722C184.134 124.855 183.302 125.404 183.049 125.523C182.93 125.582 182.633 125.76 182.38 125.923C182.143 126.087 181.429 126.457 180.82 126.754C180.211 127.036 179.587 127.348 179.438 127.422C179.304 127.496 178.799 127.704 178.324 127.867C177.863 128.03 177.358 128.238 177.209 128.312C176.763 128.549 174.46 129.188 174.014 129.188C173.792 129.188 173.539 129.247 173.45 129.336C173.375 129.41 172.811 129.484 172.202 129.514C171.176 129.558 171.087 129.588 171.147 129.855C171.176 130.018 171.236 130.953 171.295 131.932C171.355 132.912 171.488 133.935 171.592 134.202C171.726 134.514 171.756 135.033 171.711 135.612C171.667 136.146 171.726 136.992 171.86 137.645C171.979 138.253 172.053 139.025 172.008 139.336C171.964 139.663 171.994 140.063 172.083 140.226C172.172 140.375 172.276 141.072 172.306 141.769C172.335 142.467 172.439 143.194 172.514 143.387C172.588 143.58 172.647 144.129 172.647 144.589C172.647 145.078 172.737 145.568 172.855 145.746C172.974 145.909 173.093 146.473 173.138 146.992C173.227 148.149 173.375 148.951 174.059 151.963C174.193 152.541 174.356 153.417 174.43 153.936C174.52 154.455 174.653 155.004 174.728 155.153C174.817 155.301 174.876 155.598 174.876 155.791C174.876 156.132 175.144 157.2 175.486 158.194C175.679 158.743 175.887 159.544 176.139 160.717C176.466 162.2 176.674 162.927 176.897 163.358C177.016 163.595 177.105 163.966 177.105 164.203C177.105 164.426 177.209 164.693 177.328 164.797C177.447 164.901 177.551 165.227 177.551 165.524C177.566 165.821 177.655 166.221 177.774 166.429C177.893 166.637 177.982 166.978 177.997 167.186C177.997 167.408 178.101 167.66 178.22 167.764C178.339 167.868 178.443 168.15 178.443 168.387C178.443 168.625 178.561 169.129 178.725 169.515C178.873 169.901 179.096 170.509 179.2 170.88C179.304 171.251 179.483 171.681 179.587 171.844C179.691 172.008 179.78 172.304 179.78 172.512C179.78 172.72 179.884 173.017 180.003 173.165C180.122 173.328 180.226 173.566 180.226 173.684C180.226 173.936 180.865 175.569 181.028 175.732C181.073 175.776 181.117 175.999 181.117 176.221C181.117 176.429 181.191 176.681 181.296 176.785C181.474 176.963 181.801 177.794 182.009 178.581C182.083 178.848 182.202 179.144 182.291 179.233C182.38 179.322 182.455 179.515 182.455 179.649C182.455 179.797 182.559 180.094 182.663 180.331C182.781 180.554 182.915 180.851 182.96 180.969C183.004 181.088 183.108 181.296 183.183 181.414C183.257 181.533 183.524 182.201 183.792 182.898C184.059 183.596 184.475 184.56 184.698 185.064C184.936 185.569 185.129 186.014 185.129 186.073C185.129 186.118 185.337 186.622 185.59 187.171C185.857 187.72 186.14 188.373 186.244 188.61C187.002 190.48 188.101 192.394 188.889 193.24C189.914 194.323 191.385 195.361 191.95 195.376C192.158 195.376 192.47 195.436 192.633 195.51C193.049 195.688 194.179 195.688 195.427 195.495ZM205.442 192.706C205.873 192.617 206.348 192.483 206.512 192.409C206.675 192.32 207.106 192.246 207.478 192.246C207.834 192.246 208.325 192.171 208.562 192.082C208.785 191.993 209.513 191.875 210.167 191.8C212.426 191.548 213.734 191.162 213.734 190.732C213.734 190.599 213.347 190.51 212.396 190.435C211.014 190.317 210.271 190.139 209.647 189.753C208.934 189.308 207.983 188.314 207.626 187.602C207.255 186.904 206.973 186.8 206.973 187.379C206.973 187.972 206.482 189.367 206.096 189.872C205.888 190.154 205.561 190.658 205.397 190.984C205.115 191.519 204.773 191.83 203.911 192.335C203.481 192.587 203.748 193.047 204.268 192.928C204.491 192.884 205.011 192.78 205.442 192.706ZM213.778 189.708C214.506 189.456 214.655 188.878 214.268 187.75C214.105 187.231 213.956 186.429 213.956 185.969C213.956 185.51 202.96 117.54 202.96 117.169C202.96 116.798 202.856 116.338 202.738 116.131C202.619 115.923 202.53 115.641 202.515 115.493C202.515 115.062 201.787 114.054 201.385 113.905C200.969 113.742 200.375 113.861 199.052 114.35C198.443 114.573 198.012 114.647 197.641 114.588C197.344 114.543 196.764 114.454 196.348 114.395C195.947 114.35 195.427 114.172 195.189 113.994C194.743 113.668 193.792 113.623 191.994 113.831C190.791 113.979 190.583 114.276 191.132 115.062C191.578 115.73 191.816 116.324 191.816 116.828C191.816 117.036 191.905 117.407 192.024 117.659C192.143 117.926 192.306 118.505 192.395 118.95C192.604 120.122 192.841 121.161 192.99 121.68C193.064 121.932 193.242 122.54 193.376 123.03C193.51 123.52 193.718 124.187 193.837 124.514C193.956 124.855 206.319 179.797 206.452 180.45C206.72 181.696 206.868 182.631 207.091 184.248C207.285 185.628 208.028 187.097 208.993 188.017C209.588 188.581 211.549 189.575 212.114 189.59C212.456 189.605 213.213 189.768 213.303 189.857C213.317 189.872 213.525 189.797 213.778 189.708ZM76.7301 148.179C76.9827 148.075 77.3542 148.001 77.5771 148.001C77.8 148.001 78.0229 147.942 78.0674 147.868C78.1269 147.793 78.2755 147.734 78.4389 147.734C79.1076 147.734 81.916 146.176 82.3915 145.538C82.5104 145.39 82.5847 144.856 82.5995 144.218C82.5995 143.298 82.6739 142.971 83.1196 142.037C83.402 141.428 83.6991 140.879 83.7883 140.835C83.8626 140.79 83.9369 140.582 83.9369 140.39C83.9369 140.197 83.9963 140.004 84.0706 139.959C84.2341 139.855 84.8285 138.283 85.1999 137.007C85.512 135.953 85.408 135.449 84.8582 135.345C84.6353 135.3 84.1301 135.152 83.7289 135.033C83.3425 134.929 82.8224 134.826 82.5995 134.826C82.3618 134.826 80.4895 134.143 79.9992 134.01C79.5088 133.861 78.8698 133.728 78.5875 133.683C78.3052 133.653 77.8743 133.535 77.6217 133.416C77.3839 133.297 76.2695 132.971 75.1699 132.674C74.0703 132.378 45.5403 123.564 45.3768 123.46C45.2134 123.342 44.8865 123.253 44.6338 123.253C44.3812 123.253 42.9399 122.659 41.8106 122.288C40.6664 121.917 39.5965 121.517 39.4033 121.398C39.225 121.279 38.8238 121.116 38.5118 121.042C38.0066 120.923 36.2086 120.315 35.421 120.003C35.2576 119.944 34.6929 119.736 34.158 119.543C33.623 119.365 32.7612 119.054 32.2263 118.846C31.6913 118.638 31.0672 118.431 30.8146 118.356C30.5769 118.282 29.9974 118.089 29.5516 117.911C29.1058 117.733 28.5411 117.54 28.2885 117.466C28.0508 117.392 27.6496 117.273 27.397 117.184C26.1339 116.739 24.009 116.146 22.0773 115.7C21.0223 115.463 17.6789 115.493 17.2183 115.76C17.0103 115.879 16.6834 115.968 16.4753 115.982C16.2673 115.982 15.9701 116.071 15.8067 116.19C15.6432 116.294 15.242 116.472 14.9151 116.561C14.5882 116.665 14.1276 116.843 13.8749 116.947C13.6372 117.066 12.8348 117.362 12.0918 117.629C11.3637 117.882 10.6207 118.149 10.4573 118.208C10.2938 118.267 9.29825 118.594 8.22838 118.935C7.17336 119.276 5.79144 119.81 5.18221 120.122L4.06775 120.671L4.11233 121.339C4.20149 122.629 5.06333 124.722 5.92518 125.686C7.21794 127.14 8.42155 127.956 10.1601 128.579C10.9031 128.846 11.7203 129.158 11.9878 129.277C12.2553 129.395 12.597 129.484 12.7456 129.484C12.8942 129.484 13.1023 129.588 13.2063 129.707C13.3103 129.826 16.1484 130.79 16.5496 130.968C16.9657 131.131 17.4709 131.369 17.6938 131.487C17.9018 131.606 19.1352 132.155 19.254 132.155C19.3878 132.155 20.309 132.556 21.3046 133.045C22.3002 133.535 24.544 134.603 27.397 135.79C28.7046 136.339 29.8488 136.844 29.9231 136.903C30.0122 136.962 30.6066 137.2 31.2604 137.407C31.9142 137.63 32.6721 137.941 32.9395 138.09C33.207 138.253 33.5488 138.387 33.6825 138.387C33.8162 138.387 34.0688 138.49 34.2174 138.609C34.3809 138.728 38.274 140.078 39.656 140.627C40.1017 140.805 42.5387 141.591 42.8061 141.71C43.0736 141.829 43.6977 142.037 44.1881 142.155C44.6784 142.289 45.2877 142.467 45.5254 142.556C45.778 142.645 46.2089 142.764 46.4913 142.823C46.7736 142.882 48.631 143.387 48.7796 143.505C48.9431 143.624 49.2848 143.728 49.5374 143.728C49.7901 143.728 51.8704 144.321 52.5242 144.485C53.1631 144.663 54.129 144.87 54.6639 144.945C55.1989 145.034 55.7338 145.197 55.8675 145.301C55.9864 145.419 58.0519 145.954 58.4531 145.998C58.8691 146.043 59.5378 146.146 59.939 146.235C60.7711 146.413 64.0996 147.007 64.2036 147.111C64.3077 147.215 64.7832 147.289 65.2735 147.289C65.8382 147.304 68.6317 147.808 68.7952 147.882C68.9586 147.971 69.5679 148.075 70.1623 148.12C70.7418 148.149 71.6036 148.238 72.0494 148.313C73.1193 148.491 76.1654 148.402 76.7301 148.179ZM85.4228 134.128C85.4228 133.743 84.8136 132.14 84.457 131.561C83.9815 130.834 83.5357 130.449 82.5995 130.004C82.1538 129.796 81.5297 129.499 81.2325 129.336C80.9353 129.173 80.4895 129.039 80.2518 129.039C80.014 129.039 79.7317 128.935 79.6277 128.817C79.5088 128.683 79.1819 128.594 78.751 128.594C78.3795 128.594 77.8743 128.49 77.6365 128.371C77.4136 128.253 73.6245 127.6 73.3422 127.481C73.045 127.363 67.4727 126.012 67.2201 125.968C66.9823 125.923 66.6406 125.79 66.4771 125.686C66.3137 125.567 66.0165 125.478 65.8085 125.478C65.6004 125.463 65.2735 125.374 65.0655 125.256C64.8575 125.137 64.5305 125.033 64.3225 125.033C64.1145 125.033 63.8173 124.929 63.6687 124.811C63.5053 124.692 63.2675 124.588 63.1189 124.588C62.792 124.588 59.6715 123.564 59.5081 123.386C59.4189 123.312 59.196 123.253 59.0029 123.253C58.8097 123.253 58.1707 123.06 57.5912 122.837C56.2093 122.288 55.7041 122.11 54.5153 121.754C53.9804 121.591 53.3563 121.353 53.1334 121.235C52.8957 121.116 52.5242 121.027 52.3013 121.027C52.0933 121.027 51.7812 120.938 51.6178 120.819C51.3206 120.626 47.2937 119.588 47.0856 119.469C46.8776 119.35 43.9206 118.431 43.6531 118.356C43.2073 118.238 41.662 117.748 40.3246 117.288C40.0869 117.214 39.3439 116.947 38.6901 116.695C38.0363 116.457 36.7732 116.027 35.8668 115.73C34.1728 115.196 33.4002 114.914 32.5532 114.558C32.2857 114.439 31.9588 114.35 31.8251 114.35C31.6913 114.35 31.3198 114.217 30.9781 114.068C30.6363 113.905 29.9676 113.668 29.4773 113.534C28.9869 113.401 28.452 113.238 28.2885 113.163C27.9616 113.03 26.9809 112.763 26.0151 112.57C25.6733 112.496 25.2572 112.362 25.1086 112.273C24.9452 112.199 24.5886 112.125 24.3211 112.125C24.0388 112.125 23.6821 112.021 23.5187 111.902C23.3701 111.783 22.9392 111.68 22.5677 111.68C22.1813 111.68 21.8098 111.605 21.7207 111.516C21.5127 111.309 17.0548 111.338 16.5051 111.561C15.8215 111.828 15.0786 112.169 14.8408 112.288C12.6565 113.519 12.6119 113.549 12.4187 113.742C12.3296 113.831 12.1215 113.905 11.9432 113.905C11.7798 113.905 11.5123 114.009 11.3637 114.128C11.2003 114.246 10.9476 114.35 10.7991 114.35C10.6505 114.35 10.4127 114.41 10.2641 114.484C10.1304 114.558 9.50628 114.766 8.89705 114.944C6.87618 115.537 6.46011 115.73 5.74686 116.398C5.12277 116.976 4.39466 118.208 4.06775 119.232C3.88944 119.796 4.36494 119.736 5.41996 119.054C5.98461 118.698 6.74244 118.342 7.11393 118.238C7.66372 118.104 8.98621 117.659 10.383 117.125C10.5019 117.08 11.0814 116.902 11.646 116.724C12.2256 116.546 12.8199 116.353 12.9834 116.279C13.1468 116.205 13.5183 116.057 13.8006 115.938C14.083 115.819 14.7368 115.552 15.2271 115.33C15.7324 115.122 16.2376 114.944 16.3416 114.944C16.4605 114.929 16.8171 114.81 17.144 114.647C17.6344 114.41 18.0801 114.365 19.7444 114.35C21.0223 114.35 21.8247 114.41 21.9287 114.514C22.0179 114.603 22.4785 114.736 22.954 114.795C24.3211 115.003 28.0062 116.131 28.2142 116.131C28.4371 116.131 30.4283 117.051 31.7062 117.392C32.1223 117.496 32.8206 117.733 33.2664 117.911C33.7122 118.089 34.2917 118.282 34.5295 118.342C34.7821 118.401 35.109 118.52 35.2724 118.609C35.5993 118.772 36.0748 118.95 37.5756 119.425C38.1106 119.588 38.7495 119.81 38.9873 119.914C39.4331 120.107 40.1463 120.374 41.1419 120.715C41.4242 120.819 42.1969 121.086 42.8507 121.324C43.5045 121.546 44.515 121.888 45.0796 122.051C46.0603 122.348 46.6844 122.585 47.7543 123.03C48.0069 123.134 73.9514 131.042 74.7241 131.205C74.9321 131.25 75.3036 131.383 75.5413 131.487C75.794 131.591 76.3883 131.799 76.8787 131.932C77.369 132.066 78.0674 132.274 78.4389 132.392C78.8104 132.511 79.2265 132.6 79.3602 132.6C79.5088 132.6 79.8357 132.689 80.1032 132.808C80.3706 132.926 80.9947 133.134 81.4851 133.283C82.8076 133.653 84.1301 134.099 84.3827 134.247C84.7839 134.47 85.4228 134.41 85.4228 134.128ZM83.4614 128.564C83.4911 128.268 83.4317 128.149 83.1791 128.075C82.7036 127.926 82.3618 128.312 82.5995 128.728C82.8373 129.202 83.402 129.084 83.4614 128.564ZM172.35 127.926C172.558 127.808 173.034 127.719 173.405 127.704C173.836 127.704 174.163 127.615 174.282 127.481C174.386 127.363 174.639 127.259 174.832 127.259C175.545 127.259 178.695 126.101 180.449 125.211C180.894 124.989 181.741 124.454 183.495 123.312C185.605 121.932 187.373 120.152 188.057 118.698C188.25 118.267 188.473 117.911 188.547 117.911C188.695 117.911 188.844 117.347 188.755 117.095C188.71 116.991 188.458 116.813 188.205 116.724C187.938 116.62 187.477 116.413 187.15 116.249C186.511 115.908 185.664 115.656 185.189 115.671C185.01 115.671 184.787 115.582 184.683 115.463C184.579 115.344 184.342 115.241 184.163 115.241C183.97 115.241 183.628 115.152 183.391 115.033C182.841 114.766 182.053 114.499 181.414 114.365C181.132 114.306 158.085 105.389 157.194 104.929C156.822 104.736 156.228 104.469 155.856 104.335C155.084 104.038 154.653 103.86 153.33 103.252C152.795 103.015 151.993 102.659 151.547 102.481C150.789 102.184 148.753 101.234 147.802 100.759C147.594 100.641 147.312 100.552 147.193 100.552C147.074 100.552 146.896 100.448 146.792 100.329C146.688 100.21 146.495 100.107 146.346 100.107C146.198 100.107 146.005 100.003 145.9 99.884C145.796 99.7653 145.588 99.6615 145.44 99.6615C145.291 99.6615 144.831 99.4686 144.415 99.2164C143.998 98.979 143.612 98.7712 143.553 98.7712C143.374 98.7712 137.951 96.0412 137.758 95.8483C137.654 95.7445 137.475 95.6554 137.386 95.6554C137.282 95.6554 136.703 95.3884 136.093 95.0768C135.484 94.7504 134.444 94.2162 133.79 93.875C133.136 93.5485 132.497 93.2073 132.378 93.1331C132.26 93.0589 131.858 92.866 131.487 92.688C131.115 92.5248 130.714 92.3171 130.595 92.2429C130.476 92.1687 130.075 91.961 129.704 91.7829C129.332 91.6049 128.515 91.1894 127.891 90.8482C125.365 89.498 122.408 88.1033 121.457 87.7917C121.13 87.6879 120.729 87.5543 120.565 87.495C119.154 86.9608 118.455 86.857 116.33 86.857C114.666 86.857 114.057 86.9608 110.981 87.7175C110.446 87.8362 109.718 88.0143 109.346 88.0885C108.99 88.1775 108.618 88.311 108.544 88.3852C108.455 88.4742 108.202 88.5336 107.965 88.5336C107.742 88.5336 107.4 88.6078 107.222 88.7116C107.043 88.8006 106.389 88.9639 105.78 89.0677C105.171 89.1716 104.369 89.3348 103.997 89.4238C103.224 89.6315 102.14 89.8986 100.579 90.2695C99.9702 90.4179 99.0043 90.7146 98.4248 90.9372L97.3846 91.323L97.1766 92.1538C96.9983 92.8364 96.9834 93.1183 97.132 93.6524C97.236 94.0233 97.3103 94.513 97.3103 94.7652C97.3103 95.0026 97.3698 95.2252 97.4441 95.2697C97.5184 95.3142 97.7412 95.6999 97.9493 96.1302C98.4099 97.0501 100.371 99.1422 101.783 100.24C102.333 100.656 102.823 100.997 102.868 100.997C102.927 100.997 103.432 101.294 103.997 101.664C104.562 102.035 105.067 102.332 105.126 102.332C105.171 102.332 105.795 102.718 106.508 103.208C107.207 103.682 108.024 104.187 108.306 104.335C108.589 104.484 109.867 105.285 111.13 106.116C113.284 107.525 114.963 108.593 115.558 108.935C115.706 109.024 116.048 109.246 116.33 109.454C116.984 109.929 117.148 110.018 118.203 110.582C118.678 110.849 119.436 111.294 119.882 111.591C120.313 111.887 120.758 112.125 120.862 112.125C120.952 112.125 121.338 112.332 121.695 112.6C122.051 112.852 122.779 113.282 123.314 113.564C123.849 113.831 124.384 114.113 124.503 114.187C124.8 114.365 126.004 114.973 126.286 115.092C126.405 115.152 126.747 115.315 127.029 115.463C130.105 117.051 133.746 118.801 133.968 118.801C134.058 118.801 134.206 118.905 134.31 119.024C134.414 119.143 134.607 119.247 134.756 119.247C134.905 119.247 135.098 119.35 135.202 119.469C135.306 119.588 135.499 119.692 135.648 119.692C135.796 119.692 136.108 119.796 136.331 119.914C136.569 120.033 136.866 120.137 137 120.137C137.119 120.137 137.297 120.211 137.401 120.315C137.579 120.493 138.456 120.849 139.065 120.983C139.273 121.027 139.526 121.146 139.645 121.235C139.868 121.413 140.596 121.695 141.591 121.991C142.721 122.318 144.177 122.837 144.593 123.045C144.801 123.164 145.128 123.253 145.306 123.253C145.484 123.253 145.99 123.416 146.435 123.624C146.881 123.831 147.49 124.024 147.758 124.069C148.04 124.098 148.382 124.187 148.531 124.262C148.679 124.336 159.66 126.917 159.868 127.036C160.076 127.155 160.567 127.244 160.953 127.259C161.339 127.259 161.845 127.348 162.067 127.466C162.439 127.644 163.033 127.733 166.035 128.001C168.323 128.193 171.949 128.164 172.35 127.926ZM85.5863 126.68C86.359 126.517 87.2357 126.279 87.5329 126.161C87.8449 126.027 88.2164 125.923 88.365 125.923C88.5284 125.923 88.7365 125.819 88.8405 125.701C88.9445 125.582 89.1377 125.478 89.2863 125.478C89.5092 125.478 91.9164 124.395 92.5553 123.994C93.016 123.713 95.4826 122.54 95.8244 122.451C96.0324 122.392 96.5971 122.14 97.0874 121.917C99.6135 120.701 100.981 120.107 102.808 119.484C103.908 119.098 105.007 118.683 105.23 118.564C105.468 118.445 105.765 118.356 105.884 118.356C106.137 118.356 107.489 117.941 107.89 117.748C108.039 117.674 108.291 117.614 108.455 117.614C108.618 117.614 109.272 117.422 109.911 117.184C110.535 116.932 111.263 116.695 111.501 116.65C111.754 116.591 112.185 116.472 112.467 116.368C113.403 116.012 114.042 115.834 114.339 115.834C114.488 115.834 114.8 115.745 115.023 115.626C115.231 115.508 115.706 115.374 116.048 115.315C116.39 115.255 117.118 115.048 117.653 114.855C118.188 114.662 118.975 114.454 119.391 114.41C120.194 114.306 120.892 113.905 120.729 113.623C120.669 113.534 120.506 113.46 120.357 113.46C120.015 113.46 116.999 111.902 116.464 111.442C116.345 111.324 116.182 111.234 116.122 111.234C116.063 111.234 115.662 111.012 115.246 110.73C114.815 110.463 113.879 109.855 113.136 109.41C112.407 108.95 111.323 108.237 110.728 107.822C110.149 107.406 109.48 106.976 109.242 106.843C109.02 106.724 108.648 106.501 108.44 106.368C108.217 106.234 107.4 105.715 106.597 105.225C105.81 104.736 105.007 104.231 104.814 104.113C104.621 103.994 103.878 103.534 103.15 103.089C100.624 101.546 98.3951 99.6763 97.2509 98.1184C96.4188 96.9759 96.2702 96.6792 95.8095 95.3142C95.2895 93.8008 95.5272 89.8244 96.2107 88.5039C96.3296 88.2962 96.4188 87.9846 96.4188 87.8065C96.4188 87.4208 97.4886 85.848 98.2762 85.0468C99.0637 84.2605 99.985 83.6373 100.386 83.6373C100.921 83.6373 100.951 83.3257 100.461 82.8806C99.9107 82.391 98.6477 80.5957 98.6477 80.3138C98.6477 80.1951 98.5437 80.0319 98.4248 79.928C98.3059 79.8241 98.2019 79.6758 98.2019 79.6016C98.2019 79.5274 98.0384 79.0971 97.8304 78.652C97.6224 78.2069 97.4589 77.8063 97.4589 77.7618C97.4589 77.7173 97.3698 77.465 97.2658 77.2128C96.7457 75.9961 96.5525 75.1949 96.3296 73.1029C96.2702 72.6578 96.1662 72.1978 96.077 72.094C95.9878 71.9901 95.9284 71.5005 95.9433 71.0108C95.9581 70.5064 95.869 69.8832 95.7501 69.5865C95.6015 69.2452 95.5272 68.5627 95.5272 67.6725C95.5272 66.9158 95.4529 66.1146 95.3489 65.8772C95.2449 65.6398 95.1111 64.0522 95.0368 62.0492C94.8883 58.3547 94.814 46.5443 94.9328 45.5799C95.0071 45.0161 94.9774 44.9864 94.5911 44.9419C94.3533 44.9122 94.0858 44.9567 93.9967 45.0309C93.8927 45.1051 93.5509 45.2089 93.224 45.2683C92.8971 45.3276 92.3324 45.4612 91.961 45.565C91.5895 45.6837 90.8911 45.847 90.4007 45.9508C89.9104 46.0547 89.316 46.203 89.0634 46.2772C88.8256 46.3662 88.3501 46.4849 88.0232 46.5443C87.6963 46.6185 86.9236 46.8114 86.3144 46.9746C85.7052 47.1526 84.873 47.39 84.457 47.4939C84.0558 47.6126 83.5208 47.7758 83.2682 47.85C81.5594 48.4435 78.5429 49.3634 78.32 49.3634C78.1715 49.3634 77.9337 49.4524 77.7702 49.5711C77.6068 49.6749 77.2799 49.8085 77.0273 49.853C76.418 49.9569 74.4269 50.6394 69.9691 52.2269C68.9438 52.583 67.651 53.043 67.0715 53.221C66.5068 53.4139 65.9719 53.6216 65.8976 53.681C65.8085 53.7552 65.6153 53.8145 65.437 53.8145C65.2587 53.8145 64.9912 53.9184 64.8277 54.0371C64.6791 54.1558 64.4265 54.2596 64.2928 54.2596C64.1591 54.2596 63.8619 54.3487 63.6241 54.4674C62.9406 54.8235 61.4844 55.4021 60.4739 55.7434C59.939 55.9214 59.3743 56.1588 59.2109 56.2775C59.0474 56.3962 58.8246 56.4852 58.7205 56.4852C58.6165 56.4852 58.0964 56.6781 57.5912 56.9303C57.0711 57.1826 56.5659 57.3755 56.4768 57.3755C56.2985 57.3755 55.7784 57.5832 54.4113 58.2063C53.9953 58.3992 53.594 58.5624 53.5198 58.5624C53.4603 58.5624 53.2077 58.6663 52.97 58.785C52.1973 59.1856 50.1615 60.0461 49.9684 60.0461C49.8792 60.0461 49.7158 60.15 49.6117 60.2687C49.5077 60.3874 49.2997 60.4913 49.1362 60.4913C48.9728 60.4913 48.6607 60.5803 48.4527 60.699C47.7989 61.0254 46.3724 61.6782 46.2684 61.6782C46.2238 61.6782 45.4808 62.0195 44.6338 62.4201C43.7869 62.8355 43.029 63.162 42.9547 63.162C42.8804 63.162 42.182 63.4735 41.4242 63.8741C40.6515 64.2599 39.5965 64.7644 39.0616 65.0018C38.5266 65.2243 37.5013 65.714 36.7584 66.0701C36.0303 66.4261 35.317 66.7526 35.1981 66.7971C35.0793 66.8267 34.8712 66.9306 34.7524 67.0048C34.6335 67.079 34.4255 67.1828 34.3066 67.2274C34.1877 67.2719 33.9648 67.3757 33.8311 67.4647C33.2367 67.806 32.999 67.9247 32.0034 68.3847C30.4431 69.1265 25.6138 71.5895 25.0195 71.9604C24.0388 72.5687 23.4741 72.8952 22.9837 73.1474C22.2111 73.5332 20.8588 74.8982 20.4874 75.64C20.3239 75.9961 20.1902 76.56 20.1902 76.9012C20.1902 77.2573 20.1159 77.7173 20.0119 77.9547C19.9227 78.1772 19.789 79.0674 19.7295 79.928C19.6701 80.7886 19.5512 82.0497 19.4621 82.7471C19.2243 84.7946 19.2689 90.8037 19.5215 92.0203C19.6404 92.5841 19.7444 93.7414 19.7444 94.5575C19.7444 95.5219 19.8187 96.2934 19.9673 96.694C20.0862 97.0353 20.1902 97.6139 20.1902 97.9552C20.1902 98.3261 20.2793 98.6674 20.3982 98.7712C20.5171 98.8603 20.5914 99.0235 20.5468 99.1422C20.3833 99.5428 21.6167 102.481 22.6717 104.231C23.4147 105.463 24.4697 106.872 25.3167 107.748C25.5693 108 26.0596 108.534 26.4163 108.935C27.3078 109.929 28.6749 111.101 29.2841 111.413C29.9231 111.739 32.256 112.644 33.8608 113.193C34.5592 113.43 35.2576 113.683 35.421 113.742C35.5845 113.816 35.852 113.92 36.0154 113.95C36.1789 113.994 36.9813 114.276 37.7985 114.573C38.6158 114.87 40.0869 115.374 41.0676 115.7C42.0483 116.027 42.9102 116.353 42.9845 116.442C43.0736 116.517 43.2668 116.576 43.4154 116.576C43.6828 116.576 44.5893 116.828 45.7483 117.244C46.0306 117.347 46.6993 117.555 47.2342 117.689C47.7692 117.822 48.423 118.03 48.6905 118.149C48.9579 118.267 50.1467 118.46 50.3547 118.579C50.8451 118.861 52.3459 118.876 52.5688 118.594C52.6579 118.49 52.9551 118.356 53.2226 118.312C53.4752 118.267 54.0844 118.06 54.545 117.852C55.0057 117.644 55.4663 117.466 55.5555 117.466C55.6892 117.466 58.6908 116.027 59.7904 115.419C59.9539 115.33 60.3699 115.122 60.7117 114.959C61.5141 114.573 61.4844 114.588 64.1591 113.015C65.4072 112.258 66.8783 111.413 67.4281 111.131C67.9631 110.849 68.6169 110.448 68.8843 110.255C69.137 110.062 69.449 109.899 69.553 109.899C69.6719 109.899 69.9096 109.795 70.1028 109.662C70.5783 109.32 73.8622 107.674 74.0554 107.674C74.1446 107.674 74.5012 107.51 74.8727 107.317C76.0911 106.679 82.0349 104.899 85.3485 104.187C86.0023 104.038 86.6859 103.875 86.8642 103.801C87.0425 103.742 87.5477 103.638 87.9786 103.593C88.4096 103.534 89.0188 103.4 89.3308 103.282C89.628 103.163 90.1184 103.074 90.4007 103.074C90.6682 103.074 90.9357 103.015 90.9802 102.94C91.0248 102.881 91.5152 102.777 92.065 102.718C92.6148 102.659 93.2389 102.57 93.432 102.525C93.7441 102.451 93.7589 102.481 93.6698 102.792C93.5212 103.267 93.536 103.252 92.8228 103.386C91.218 103.697 90.3413 103.905 90.2373 104.009C90.1778 104.068 89.9549 104.113 89.7469 104.113C89.5389 104.113 89.1674 104.216 88.9296 104.335C88.7067 104.454 88.3204 104.558 88.0827 104.558C87.83 104.558 87.3991 104.662 87.1019 104.78C86.8196 104.899 86.4333 105.003 86.255 105.003C86.0766 105.003 85.5268 105.107 85.0513 105.24C84.561 105.374 83.922 105.537 83.6397 105.596C83.0602 105.73 82.2132 106.012 81.8269 106.205C81.6783 106.279 81.4405 106.338 81.3068 106.338C81.1582 106.338 80.2666 106.62 79.3305 106.947C78.3943 107.273 77.4879 107.585 77.3245 107.614C76.7152 107.777 73.1193 109.439 72.7775 109.706C72.6586 109.81 72.4357 109.899 72.302 109.899C72.1683 109.899 72.0197 109.958 71.9751 110.048C71.9305 110.122 71.6036 110.329 71.2618 110.493C70.5189 110.864 69.9691 111.175 69.1221 111.724C68.7655 111.947 68.4237 112.125 68.3494 112.125C68.2751 112.125 67.9779 112.258 67.7105 112.436C67.443 112.6 66.804 113 66.2988 113.327C65.8085 113.638 65.0952 114.039 64.7386 114.217C64.3968 114.395 63.9956 114.632 63.8767 114.721C63.5201 115.003 57.8141 117.911 57.6209 117.911C57.5169 117.911 57.3237 118 57.2049 118.104C56.878 118.371 54.9314 119.098 54.3519 119.172C54.0844 119.217 53.8021 119.306 53.7278 119.38C53.5049 119.603 53.8615 119.959 54.4113 120.063C55.2583 120.226 57.829 121.042 58.884 121.487C59.4486 121.724 59.9984 121.917 60.1025 121.917C60.2065 121.917 60.5185 122.006 60.786 122.125C61.0535 122.229 61.6775 122.437 62.1679 122.585C62.6583 122.718 63.2972 122.926 63.5795 123.03C64.59 123.401 67.0715 124.143 67.2944 124.143C67.4133 124.143 67.9928 124.321 68.5574 124.529C69.137 124.736 69.8948 124.959 70.2663 125.018C70.6377 125.078 71.039 125.181 71.1578 125.256C71.2767 125.33 71.7225 125.449 72.1237 125.493C72.5397 125.552 73.3719 125.716 73.9811 125.849C75.6899 126.205 76.4329 126.339 78.2755 126.576C79.1967 126.695 79.9992 126.843 80.0437 126.888C80.2518 127.095 84.2638 126.947 85.5863 126.68ZM189.097 115.656C188.948 114.647 188.562 113.623 188.116 112.97C187.596 112.199 186.526 111.234 185.828 110.878C185.575 110.73 185.055 110.463 184.698 110.27C184.342 110.062 183.926 109.899 183.792 109.899C183.643 109.899 183.45 109.795 183.346 109.677C183.242 109.558 183.064 109.454 182.96 109.454C182.856 109.454 182.514 109.32 182.202 109.172C181.281 108.697 179.899 108.119 179.706 108.119C179.602 108.119 179.438 108.015 179.334 107.896C179.23 107.777 179.067 107.674 178.948 107.674C178.844 107.674 178.339 107.481 177.818 107.258C177.298 107.021 176.11 106.516 175.173 106.13C174.237 105.73 173.049 105.225 172.543 104.988C172.023 104.751 171.577 104.558 171.518 104.558C171.473 104.558 170.775 104.261 169.988 103.905C169.2 103.549 167.863 102.97 167.001 102.629C166.139 102.288 164.98 101.783 164.4 101.516C163.553 101.116 160.76 99.9434 159.348 99.3796C159.185 99.3202 158.62 99.0531 158.085 98.8009C156.941 98.2668 156.629 98.1332 154.281 97.154C153.286 96.7534 151.993 96.1747 151.413 95.8928C150.819 95.6109 150.195 95.329 150.017 95.2697C149.838 95.2252 149.303 94.9878 148.813 94.7504C148.337 94.513 147.892 94.3201 147.817 94.3201C147.743 94.3201 147.268 94.1272 146.747 93.8898C145.38 93.237 143.419 92.3912 143.315 92.3912C143.256 92.3912 142.765 92.1835 142.215 91.9313C141.666 91.6791 140.848 91.3081 140.403 91.1004C138.411 90.225 137.906 89.9876 136.673 89.4238C136.123 89.1864 135.633 88.9787 135.573 88.9787C135.499 88.9787 135.023 88.7858 134.503 88.5336C133.998 88.2962 133.478 88.0885 133.359 88.0885C133.255 88.0885 133.077 87.9846 132.973 87.8659C132.869 87.7472 132.676 87.6433 132.542 87.6433C132.423 87.6433 131.903 87.4505 131.413 87.2131C130.922 86.9905 130.224 86.6789 129.852 86.5305C129.481 86.3822 128.782 86.0854 128.292 85.8629C127.415 85.4623 125.588 84.6611 124.726 84.305C123.819 83.934 122.482 83.3702 121.903 83.118C121.576 82.9696 121.115 82.8064 120.862 82.7322C120.625 82.6729 120.179 82.5542 119.897 82.4652C119.614 82.391 118.99 82.2278 118.515 82.0942C117.489 81.8123 114.012 81.7381 113.76 81.9904C113.671 82.0794 113.403 82.1536 113.165 82.1536C112.705 82.1536 111.115 82.7471 109.762 83.4444C109.554 83.5483 109.183 83.6373 108.93 83.6373C108.693 83.6373 108.41 83.7263 108.321 83.845C108.232 83.9489 107.831 84.0824 107.444 84.1418C107.058 84.1863 106.107 84.3346 105.334 84.4682C104.562 84.6017 103.551 84.6907 103.105 84.6907C101.902 84.6759 100.401 85.2991 99.4947 86.2041C99.1083 86.6047 98.722 87.0647 98.6328 87.2427C98.5437 87.4208 98.3208 87.8362 98.1276 88.1626C97.9344 88.4891 97.771 88.86 97.771 88.9787C97.7561 89.0974 97.6521 89.3941 97.5332 89.6315C97.0577 90.5366 97.3846 90.9075 98.083 90.2695C98.291 90.0766 98.8854 89.7651 99.4055 89.5722C99.9256 89.3793 100.416 89.1716 100.505 89.0974C100.579 89.038 100.832 88.9787 101.055 88.9787C101.456 88.9787 101.753 88.9193 103.774 88.4445C104.918 88.1775 106.375 87.8511 107.415 87.6433C107.786 87.5543 108.217 87.4356 108.381 87.3763C108.544 87.3021 109.153 87.124 109.718 86.9757C110.297 86.8273 111.501 86.5157 112.393 86.2635C113.864 85.848 114.235 85.8035 116.256 85.8035C117.564 85.7887 118.738 85.8629 119.079 85.9667C119.406 86.0558 120.075 86.219 120.55 86.308C121.457 86.486 124.25 87.5543 124.652 87.8659C124.77 87.9549 125.246 88.1923 125.692 88.3704C126.375 88.6523 128.396 89.676 129.258 90.1657C129.377 90.2399 129.778 90.4327 130.15 90.6108C130.521 90.7888 131.427 91.2488 132.156 91.6345C132.899 92.0203 134.37 92.7918 135.425 93.326C136.494 93.875 137.49 94.4239 137.654 94.5426C137.802 94.6613 138.084 94.7652 138.263 94.7652C138.441 94.7652 138.664 94.8691 138.768 94.9878C138.872 95.1065 139.08 95.2103 139.229 95.2103C139.377 95.2103 139.541 95.2845 139.6 95.3735C139.704 95.5516 146.257 98.7564 147.832 99.3944C148.04 99.4834 148.308 99.6021 148.427 99.6763C148.545 99.7505 148.813 99.884 149.021 99.9731C149.229 100.062 149.571 100.225 149.794 100.344C150.002 100.463 150.314 100.552 150.477 100.552C150.641 100.552 150.804 100.656 150.864 100.774C150.908 100.893 151.101 100.997 151.294 100.997C151.502 100.997 151.74 101.101 151.844 101.219C151.948 101.338 152.171 101.442 152.335 101.442C152.498 101.442 152.751 101.531 152.87 101.635C153.003 101.739 153.404 101.961 153.776 102.11C154.147 102.258 154.861 102.57 155.381 102.807C155.886 103.03 156.391 103.222 156.495 103.222C156.599 103.222 156.807 103.311 156.971 103.415C157.134 103.519 157.639 103.771 158.085 103.964C158.531 104.142 159.408 104.528 160.017 104.825C160.626 105.107 161.874 105.626 162.766 105.967C165.455 106.991 173.108 109.988 173.346 110.107C173.777 110.329 181.934 113.297 183.049 113.668C183.658 113.876 184.535 114.187 184.981 114.35C185.426 114.528 185.961 114.721 186.169 114.781C186.853 115.003 188.22 115.686 188.398 115.908C188.502 116.027 188.71 116.131 188.874 116.131C189.126 116.131 189.156 116.057 189.097 115.656ZM6.90589 113.772C6.98019 113.697 7.57457 113.49 8.22838 113.312C9.77375 112.881 11.9284 112.051 12.7605 111.531C12.8794 111.457 13.6521 111.056 14.4545 110.656C15.6135 110.062 16.089 109.899 16.6388 109.899C17.0251 109.899 17.3818 109.84 17.4263 109.766C17.4709 109.691 17.3075 109.41 17.0548 109.142C15.9404 107.955 14.8408 106.294 14.8408 105.819C14.8408 105.715 14.7368 105.552 14.6179 105.448C14.499 105.344 14.395 105.151 14.395 105.018C14.395 104.884 14.291 104.587 14.1721 104.35C14.0533 104.127 13.9492 103.786 13.9492 103.608C13.9492 103.445 13.8452 103.104 13.7263 102.866C13.6075 102.644 13.5035 102.169 13.5035 101.828C13.5035 101.501 13.3994 101.086 13.2806 100.937C13.1171 100.73 13.0577 100.255 13.0577 99.3054C13.0577 98.5635 12.9834 97.3617 12.8942 96.6198C12.6713 94.6613 12.5673 82.2129 12.7605 79.4829C12.8496 78.2217 12.9834 75.7291 13.0577 73.9486C13.132 72.1681 13.2508 70.6399 13.2954 70.5509C13.3549 70.447 13.4589 69.4381 13.5332 68.2956C13.5926 67.1383 13.7263 65.5062 13.8006 64.6457C13.8749 63.7851 14.0087 62.4201 14.083 61.6041C14.1573 60.788 14.291 59.8533 14.3802 59.5268C14.4693 59.2004 14.5436 58.6663 14.5436 58.3399C14.5436 58.0135 14.6476 57.42 14.7665 57.0194C14.8854 56.6188 14.9894 55.9659 14.9894 55.5653C14.9894 55.1647 15.0934 54.6009 15.2123 54.3041C15.3312 54.0222 15.4203 53.5029 15.4055 53.1617C15.4055 52.8204 15.4649 52.405 15.5541 52.2269C15.6581 52.0489 15.7324 51.6483 15.7324 51.3367C15.7472 51.0251 15.8364 50.6097 15.9553 50.402C16.0741 50.1942 16.1633 49.8678 16.1781 49.6601C16.1781 49.304 16.4605 48.6363 16.9211 47.939C17.0251 47.7609 17.0697 47.5087 17.0251 47.3752C16.936 47.1675 16.8171 47.1971 16.0741 47.5977C15.5986 47.85 15.1528 48.117 15.0637 48.1764C14.8259 48.3693 11.0665 50.2536 10.9179 50.2536C10.8585 50.2536 10.5019 50.4613 10.1304 50.6987C9.77375 50.9509 9.41713 51.1438 9.34283 51.1438C9.26853 51.1438 8.86733 51.3515 8.48099 51.5889C8.07979 51.8412 7.66372 52.0341 7.57457 52.0341C7.47055 52.0341 7.05449 52.316 6.65329 52.6572C6.05891 53.1469 5.92518 53.3546 5.92518 53.7403C5.92518 53.9926 5.82116 54.3338 5.70228 54.497C5.58341 54.6454 5.47939 55.0905 5.47939 55.4763C5.47939 55.8621 5.41996 56.2033 5.34566 56.2478C5.28622 56.2923 5.16735 56.6781 5.10791 57.1084C5.04847 57.5387 4.94446 58.2954 4.87016 58.785C4.79586 59.2746 4.67699 60.0758 4.61755 60.5654C4.55811 61.0551 4.42438 61.6041 4.32036 61.7821C4.21635 61.9601 4.14205 62.5536 4.14205 63.1174C4.12719 63.7703 4.05289 64.2302 3.91916 64.4083C3.77057 64.6012 3.69627 65.0611 3.69627 65.7585C3.69627 66.3965 3.62197 66.8861 3.51796 66.99C3.41394 67.0938 3.28021 67.8208 3.22077 68.622C3.08703 70.5212 2.86414 72.6874 2.68583 73.6964C2.61154 74.1415 2.56696 74.7201 2.61154 74.9872C2.65611 75.2394 2.61154 75.6697 2.52238 75.9516C2.44808 76.2187 2.32921 77.198 2.28463 78.1327C2.24005 79.0526 2.15089 79.8983 2.10632 79.9873C2.04688 80.0764 1.94286 81.4266 1.88343 82.9696C1.83885 84.5275 1.71997 86.397 1.63082 87.124C1.39307 89.1271 1.42279 96.5012 1.69025 99.2905C1.80913 100.596 1.91314 102.169 1.91314 102.792C1.91314 103.489 2.0023 104.142 2.15089 104.484C2.26977 104.795 2.34407 105.196 2.29949 105.389C2.16575 105.908 2.68583 107.748 3.47338 109.528C3.57739 109.78 3.71113 110.077 3.75571 110.196C3.84486 110.433 4.64727 111.665 5.4051 112.748C5.65771 113.089 5.91032 113.505 5.96975 113.653C6.07377 113.92 6.65329 113.994 6.90589 113.772ZM190.389 112.347C190.583 112.214 191.028 112.125 191.578 112.125C192.083 112.125 193.094 112.021 193.822 111.902C194.565 111.783 195.442 111.68 195.769 111.68C196.14 111.68 196.467 111.591 196.571 111.457C196.675 111.338 196.824 111.234 196.898 111.234C197.24 111.234 198.8 109.691 199.097 109.068C199.721 107.792 199.751 107.466 199.795 101.219C199.84 96.2192 199.81 94.9432 199.617 94.0382C199.483 93.3705 199.394 92.1538 199.394 90.8482C199.394 89.7057 199.32 88.5187 199.231 88.2368C199.156 87.9549 199.082 87.0944 199.082 86.3228C199.082 85.5513 199.008 84.4237 198.934 83.8005C198.785 82.6877 198.636 80.8924 198.384 77.2425C198.309 76.2187 198.205 75.2988 198.146 75.1949C198.027 75.002 197.819 72.8803 197.641 69.9129C197.581 69.0227 197.448 68.1324 197.359 67.9544C197.254 67.7763 197.165 67.1235 197.165 66.4707C197.15 65.7436 197.076 65.1798 196.942 64.9424C196.824 64.7347 196.734 64.2599 196.72 63.889C196.72 63.4884 196.63 63.1323 196.512 63.0284C196.408 62.9394 196.274 62.6723 196.229 62.4498C196.125 61.9601 194.505 60.2242 189.646 55.4318C186.006 51.856 184.52 50.4168 182.306 48.3989C181.697 47.8351 180.865 47.0636 180.449 46.6927C180.047 46.3069 179.171 45.5057 178.502 44.8974C177.833 44.289 176.541 43.0872 175.604 42.2267C173.509 40.283 172.573 39.4521 171.904 38.918C171.622 38.6806 170.968 38.1168 170.478 37.6568C169.304 36.5885 166.837 34.4817 163.524 31.7368C161.755 30.2679 159.809 28.7545 159.2 28.3539C158.873 28.1462 158.546 27.8791 158.457 27.7901C158.234 27.523 153.627 24.1105 151.532 22.6564C150.537 21.9591 149.645 21.3211 149.556 21.232C149.467 21.143 149.214 20.9798 148.991 20.8611C148.768 20.7424 148.025 20.2528 147.312 19.7631C146.614 19.2735 145.915 18.7987 145.782 18.7245C145.648 18.6355 145.128 18.3091 144.637 17.9827C143.597 17.3002 143.27 17.0925 142.854 16.8699C142.364 16.6028 141.829 16.2764 140.254 15.2526C139.258 14.5998 138.04 13.9173 137.698 13.7986C137.55 13.7541 137.431 13.6651 137.431 13.5909C137.431 13.5167 137.208 13.3683 136.955 13.2496C136.688 13.1309 136.138 12.8342 135.722 12.5819C135.321 12.3446 134.652 11.9588 134.236 11.7362C133.835 11.5285 133.315 11.2169 133.092 11.0686C132.884 10.9053 132.616 10.7866 132.497 10.7866C132.378 10.7866 132.215 10.7125 132.141 10.6383C131.977 10.4751 130.997 9.9706 124.874 6.85479C123.002 5.90521 121.353 5.05948 121.234 5.00014C120.001 4.3473 116.969 3.0713 116.657 3.0713C116.568 3.0713 116.434 3.45707 116.345 3.93186C116.256 4.39181 116.107 4.9853 116.018 5.22269C115.929 5.47493 115.795 5.99423 115.721 6.40967C115.647 6.81027 115.528 7.31474 115.454 7.52246C115.379 7.73018 115.275 8.36818 115.216 8.93199C115.171 9.51064 115.067 10.5344 114.978 11.2318C114.904 11.9291 114.77 13.5019 114.696 14.7185C114.622 15.95 114.488 17.3447 114.413 17.8343C114.339 18.3239 114.265 19.956 114.265 21.4694C114.25 22.9828 114.146 24.9117 114.027 25.7722C113.73 27.983 113.73 40.5797 114.027 44.0962C114.146 45.4909 114.25 47.9538 114.25 49.5859C114.25 51.6483 114.324 52.9095 114.488 53.7403C114.622 54.497 114.681 55.2686 114.621 55.8917C114.577 56.4259 114.607 57.3606 114.696 57.9689C114.785 58.5773 114.919 59.8533 114.993 60.788C115.067 61.7227 115.201 62.8059 115.275 63.1916C115.364 63.5774 115.394 63.978 115.35 64.1115C115.305 64.2302 115.35 64.5715 115.454 64.8979C115.543 65.2095 115.677 65.8623 115.751 66.352C116.078 68.7556 116.969 72.0643 117.653 73.3699C117.727 73.5035 118.039 74.1563 118.351 74.8092C118.856 75.8923 120.417 78.3701 120.907 78.8746C121.026 78.9933 121.279 79.3642 121.487 79.6906C122.378 81.115 123.418 81.9607 124.949 82.5245C125.32 82.658 125.811 82.8658 126.034 82.9845C126.271 83.1032 126.568 83.1922 126.717 83.1922C126.851 83.1922 127.029 83.2515 127.103 83.3257C127.193 83.3851 128.322 83.8895 129.629 84.4385C130.937 84.9875 132.185 85.5365 132.408 85.6552C132.616 85.7738 132.899 85.8629 133.017 85.8629C133.136 85.8629 133.315 85.9667 133.419 86.0854C133.523 86.2041 133.716 86.308 133.85 86.308C133.998 86.308 134.474 86.486 134.919 86.6938C135.811 87.1092 136.286 87.3318 137.282 87.762C138.337 88.2072 140.403 89.1271 141.22 89.498C141.636 89.676 142.26 89.9579 142.631 90.0915C143.003 90.2398 143.716 90.5514 144.236 90.7888C144.741 91.0114 145.232 91.2043 145.306 91.2043C145.395 91.2043 145.574 91.2636 145.722 91.3378C145.856 91.4268 146.51 91.7236 147.164 92.0203C147.817 92.3171 148.753 92.7622 149.259 92.9996C149.749 93.237 150.254 93.4298 150.388 93.4298C150.507 93.4298 150.7 93.5337 150.804 93.6524C150.908 93.7711 151.101 93.875 151.235 93.875C151.354 93.875 151.904 94.0827 152.439 94.3349C153.672 94.9136 154.103 95.1065 155.113 95.4922C155.559 95.6703 156.064 95.878 156.228 95.9522C157.223 96.3825 158.382 96.9017 158.873 97.154C159.185 97.3024 159.527 97.4359 159.631 97.4359C159.735 97.4359 159.913 97.5397 160.017 97.6584C160.121 97.7771 160.329 97.881 160.478 97.881C160.73 97.881 161.934 98.3855 163.182 99.0086C163.42 99.1273 163.687 99.2164 163.806 99.2164C163.91 99.2164 164.074 99.3202 164.178 99.4389C164.282 99.5576 164.519 99.6615 164.698 99.6615C164.876 99.6615 165.114 99.7653 165.218 99.884C165.322 100.003 165.559 100.107 165.738 100.107C165.916 100.107 166.154 100.21 166.258 100.329C166.362 100.448 166.6 100.552 166.778 100.552C166.956 100.552 167.194 100.656 167.298 100.774C167.402 100.893 167.61 100.997 167.744 100.997C167.892 100.997 168.204 101.086 168.442 101.205C168.665 101.323 169.155 101.546 169.527 101.709C171.325 102.525 171.964 102.777 172.127 102.777C172.231 102.777 172.395 102.881 172.499 103C172.603 103.119 172.841 103.222 173.019 103.222C173.197 103.222 173.435 103.326 173.539 103.445C173.643 103.564 173.836 103.668 173.985 103.668C174.118 103.668 174.609 103.875 175.069 104.113C175.53 104.365 176.035 104.558 176.199 104.558C176.347 104.558 176.555 104.662 176.659 104.78C176.763 104.899 177.001 105.003 177.179 105.003C177.373 105.003 177.551 105.107 177.61 105.225C177.655 105.344 177.848 105.448 178.041 105.448C178.234 105.448 178.443 105.507 178.532 105.582C178.606 105.656 179.498 106.071 180.523 106.501C181.548 106.932 182.484 107.377 182.618 107.481C182.737 107.585 182.96 107.674 183.094 107.674C183.227 107.674 183.777 107.911 184.342 108.193C184.891 108.475 185.426 108.712 185.516 108.712C185.798 108.712 188.057 110.27 188.547 110.804C188.799 111.086 189.186 111.591 189.394 111.947C189.795 112.614 189.944 112.674 190.389 112.347ZM26.1785 110.864C26.1636 110.7 25.9705 110.433 25.7476 110.27C24.4548 109.35 22.4191 107.08 21.4978 105.552C20.4428 103.801 19.4769 101.65 18.9717 99.9582C18.8974 99.6763 18.7488 99.3499 18.6745 99.2609C18.5854 99.157 18.5556 98.9344 18.6002 98.7564C18.6448 98.5784 18.6151 98.2668 18.5259 98.0442C17.9315 96.5012 17.6195 82.5393 18.1396 79.928C18.2287 79.4829 18.2882 78.8745 18.2733 78.5926C18.2436 77.9695 18.5111 76.189 18.734 75.4768C18.8826 74.9872 19.2838 74.3195 19.6998 73.8893C19.893 73.6667 19.8038 73.1919 19.5066 72.9397C19.3878 72.8507 19.2986 72.5984 19.2986 72.3759C19.2986 72.1533 19.2243 71.9011 19.1352 71.812C18.8826 71.5598 18.8083 69.5271 18.8231 63.0878C18.8528 55.0015 19.1352 49.1705 19.5661 48.3693C19.8484 47.8648 19.789 47.7461 19.0757 47.4049C18.5705 47.1526 18.3328 47.1081 18.1544 47.2268C17.8721 47.4049 17.5155 48.488 17.5155 49.1556C17.5155 49.4079 17.4115 49.7046 17.2926 49.8085C17.144 49.9272 17.0697 50.2684 17.0697 50.7581C17.0697 51.1883 16.9657 51.6335 16.8468 51.7967C16.7131 51.9747 16.6239 52.4347 16.6239 52.9836C16.6091 53.4881 16.5199 54.0519 16.401 54.2596C16.2822 54.4674 16.193 55.0015 16.1781 55.4615C16.1781 55.9214 16.1187 56.4852 16.0296 56.7226C15.8661 57.2122 15.6432 58.8443 15.45 61.0402C15.3757 61.8711 15.242 62.9097 15.1528 63.34C15.0786 63.7703 14.93 65.2243 14.8408 66.5745C14.7516 67.9247 14.6179 69.5568 14.5436 70.2096C14.4693 70.8625 14.3653 72.272 14.3207 73.3254C14.2761 74.3937 14.1721 75.8181 14.0978 76.5154C13.9195 78.2662 13.9195 97.7475 14.1127 98.6971C14.2018 99.1125 14.3059 99.9434 14.3504 100.552C14.395 101.16 14.5288 101.798 14.6328 101.961C14.7516 102.124 14.8408 102.466 14.8408 102.748C14.8408 103.015 14.9745 103.549 15.1528 103.935C15.3163 104.32 15.5095 104.765 15.5689 104.929C16.0444 106.071 17.0548 107.763 17.9316 108.89C18.5408 109.677 18.6299 109.736 19.2095 109.721C20.5914 109.706 22.8054 109.944 23.1175 110.137C23.2958 110.255 23.6078 110.344 23.7861 110.344C23.9793 110.359 24.4994 110.552 24.9452 110.789C25.8516 111.279 26.2231 111.294 26.1785 110.864ZM105.112 82.5839C107.89 82.1833 109.168 81.842 110.907 80.9963C112.422 80.2693 115.26 79.7351 116.553 79.9428C116.969 80.0022 117.593 80.106 117.965 80.1654C118.336 80.2247 118.767 80.3583 118.931 80.4621C119.094 80.5808 119.347 80.6699 119.481 80.6699C119.748 80.6699 119.852 80.7144 120.758 81.1595C121.293 81.4266 121.828 81.4859 121.828 81.293C121.828 81.2188 121.338 80.6699 120.744 80.0615C118.856 78.1772 116.613 74.3195 115.959 71.9159C115.899 71.7082 115.706 71.1147 115.513 70.5806C115.052 69.3342 114.547 67.1087 114.547 66.3816C114.547 66.07 114.473 65.6843 114.384 65.5211C114.22 65.2095 114.012 63.3548 113.819 60.4764C113.76 59.5268 113.641 58.6663 113.566 58.5476C113.492 58.4289 113.388 57.509 113.344 56.4852C113.284 55.4615 113.106 52.0637 112.942 48.9182C112.586 42.5531 112.497 30.4904 112.764 26.3509C112.838 25.0897 112.987 22.6267 113.076 20.8759C113.388 14.8669 114.146 9.42162 114.161 8.8133C114.176 8.14562 114.265 7.59665 114.384 7.46311C114.488 7.32958 114.547 7.04767 114.503 6.83995C114.413 6.35032 115.082 4.30279 115.454 3.87251C115.944 3.33837 115.691 2.65586 115.171 3.11581C115.038 3.23451 114.755 3.38288 114.547 3.44223C114.339 3.50158 113.938 3.7093 113.641 3.88735C113.165 4.19893 112.095 4.71823 110.461 5.43042C110.134 5.57879 109.183 6.00907 108.336 6.39483C107.504 6.76576 106.731 7.07734 106.612 7.07734C106.508 7.07734 106.33 7.1812 106.226 7.2999C106.122 7.4186 105.929 7.52246 105.81 7.52246C105.676 7.52246 105.171 7.71534 104.666 7.96758C104.175 8.20497 103.314 8.62041 102.764 8.87265C102.214 9.13972 101.724 9.40678 101.679 9.46613C101.634 9.54032 101.367 9.70353 101.085 9.83706C99.8067 10.4454 98.7071 12.122 98.5882 13.6651C98.5585 13.9766 98.4694 14.2882 98.3653 14.3921C98.2762 14.4811 98.2019 15.0152 98.2019 15.5791C98.2019 16.128 98.1127 16.7364 98.0236 16.9144C97.9196 17.0925 97.7858 17.9382 97.7115 18.7987C97.6521 19.6593 97.5332 20.965 97.4589 21.692C97.3846 22.4338 97.2658 24.155 97.1766 25.5497C97.0874 26.9295 96.9389 28.4281 96.8348 28.888C96.7308 29.3331 96.6565 30.2085 96.6565 30.8169C96.6565 31.4252 96.5971 33.1611 96.5376 34.6745C96.3742 38.1761 96.3742 53.4733 96.5376 57.0787C96.6119 58.5921 96.6565 60.2539 96.6565 60.788C96.6565 61.3221 96.7754 62.5388 96.924 63.5181C97.0577 64.4825 97.1469 65.3727 97.1023 65.4766C97.0577 65.5804 97.0874 66.1888 97.1766 66.8268C97.2509 67.4648 97.3846 68.6517 97.4589 69.4678C97.7561 72.3907 97.8453 73.0287 98.0236 73.3551C98.1276 73.5332 98.2019 73.9041 98.2019 74.1712C98.2168 75.6549 99.6433 79.3048 100.981 81.2485C101.337 81.7678 101.664 82.3613 101.709 82.5542C101.798 82.8954 101.828 82.8954 102.942 82.8213C103.566 82.7767 104.547 82.6729 105.112 82.5839ZM22.5231 71.5005C23.0729 71.0999 24.1428 70.4619 24.8709 70.0761C25.6138 69.6755 26.2825 69.3046 26.3717 69.2304C26.6837 68.9781 32.5383 66.1294 32.7463 66.1294C32.7909 66.1294 33.0733 65.9662 33.3853 65.7733C33.6825 65.5656 34.1134 65.3579 34.3363 65.3134C34.5443 65.254 34.8415 65.0908 34.9901 64.9276C35.1238 64.7792 35.317 64.6457 35.3913 64.6457C35.4656 64.6457 35.8074 64.5121 36.1491 64.3638C37.5905 63.6813 38.7793 63.162 38.8684 63.162C38.913 63.162 39.0764 63.0729 39.1953 62.9691C39.3291 62.8652 39.968 62.5536 40.6218 62.2717C41.2756 62.0047 42.3752 61.515 43.0736 61.1886C43.772 60.877 44.6041 60.4913 44.931 60.3429C45.2579 60.1945 46.1792 59.7642 46.9668 59.3933C47.7543 59.0224 48.4824 58.7108 48.5716 58.7108C48.6756 58.7108 48.9282 58.6218 49.1362 58.5031C49.3591 58.3992 50.0427 58.0876 50.6519 57.8206C51.2611 57.5387 52.1675 57.1381 52.6728 56.9007C53.1631 56.6781 53.6386 56.4852 53.7278 56.4852C53.8169 56.4852 54.0844 56.3962 54.3222 56.2775C54.545 56.1588 54.976 55.9659 55.2583 55.8472C56.982 55.1202 58.0221 54.7048 58.1262 54.7048C58.1856 54.7048 58.5274 54.5861 58.8691 54.4228C59.2109 54.2745 60.251 53.859 61.1872 53.5178C62.1085 53.1765 63.0446 52.7908 63.2675 52.6869C63.4755 52.5682 63.7579 52.4792 63.8767 52.4792C63.9956 52.4792 64.2334 52.3753 64.382 52.2566C64.5454 52.1379 64.8277 52.0341 65.0061 52.0341C65.1992 52.0341 65.5707 51.9005 65.8382 51.7522C66.1056 51.5889 66.7149 51.3515 67.1904 51.2328C67.651 51.1142 68.1117 50.9658 68.2008 50.9064C68.394 50.7877 71.9008 49.5562 72.5695 49.3634C73.045 49.2298 73.5799 49.0518 74.4269 48.7699C74.7092 48.666 75.3185 48.4583 75.7642 48.3099C76.21 48.1467 76.7598 47.9242 76.9827 47.8055C77.1907 47.6868 77.4879 47.5829 77.6365 47.5829C77.7851 47.5829 78.1715 47.4939 78.5132 47.3752C78.8401 47.2565 79.7168 46.9894 80.4449 46.7669C81.1879 46.5591 82.0646 46.2772 82.4212 46.1437C82.763 46.025 83.2088 45.9063 83.4168 45.8766C83.6248 45.8618 83.8774 45.7728 83.9815 45.6837C84.0855 45.5947 84.4718 45.476 84.8285 45.4167C85.1999 45.3722 85.8983 45.1793 86.3887 45.0161C87.2357 44.7342 87.6963 44.6155 89.0634 44.3187C89.3903 44.2594 90.1778 44.0516 90.8316 43.8884C91.4706 43.7104 92.1393 43.5769 92.3176 43.5769C92.481 43.5769 92.9268 43.473 93.2834 43.3395C93.6401 43.2208 94.0413 43.1614 94.1601 43.2059C94.279 43.2504 94.487 43.2504 94.6208 43.2059C94.8288 43.1466 94.8585 42.6718 94.814 38.6509C94.7842 35.8318 94.814 33.6804 94.9328 32.8941C95.022 32.1967 95.0963 30.535 95.1111 29.1848C95.126 27.5378 95.1854 26.5438 95.3192 26.158C95.4529 25.8019 95.5272 24.9413 95.5272 23.9027C95.5272 22.9383 95.6015 22.0629 95.7055 21.8107C95.8095 21.5881 95.9284 20.6979 95.9878 19.8373C96.1364 17.8046 96.3742 15.7126 96.5079 15.5197C96.5525 15.4307 96.6565 14.9559 96.7308 14.4514C96.9537 12.8787 97.1023 12.211 97.2806 11.8698C97.3846 11.6917 97.4589 11.3653 97.4589 11.1576C97.4589 10.8757 97.6967 10.5344 98.2762 9.9706C98.7368 9.51064 99.0935 9.03585 99.0935 8.85781C99.0935 8.48688 98.291 7.96758 97.6967 7.96758C97.0131 7.96758 94.383 8.93199 93.2983 9.58483C93.1794 9.65902 92.7782 9.83706 92.4067 9.9706C92.0353 10.1041 91.5449 10.3119 91.322 10.4306C91.0843 10.5492 90.7722 10.6383 90.6236 10.6383C90.4899 10.6383 90.2818 10.7421 90.1778 10.8608C90.0738 10.9795 89.9104 11.0834 89.8212 11.0834C89.7172 11.0834 89.2417 11.2763 88.7662 11.5285C88.2907 11.7807 87.8449 11.9736 87.7706 11.9736C87.7112 11.9736 87.0276 12.2704 86.2698 12.6413C85.4971 13.0122 84.8136 13.309 84.7542 13.309C84.6353 13.309 84.3827 13.4277 81.8269 14.6295C81.1136 14.9707 80.5044 15.2378 80.4598 15.2378C80.3855 15.2378 79.5237 15.6087 77.9188 16.3506C77.5176 16.5286 76.849 16.8402 76.4329 17.0034C75.4968 17.4189 75.1401 17.5821 73.3422 18.413C72.5397 18.7839 71.8562 19.0955 71.8116 19.0955C71.7225 19.0955 68.706 20.4753 67.3984 21.1133C67.1607 21.232 66.8486 21.3211 66.7 21.3211C66.5514 21.3211 66.3731 21.3952 66.3137 21.4843C66.2691 21.5733 65.9422 21.7662 65.6004 21.9145C65.2735 22.0629 64.4117 22.4487 63.6984 22.7899C62.9852 23.1164 62.3611 23.3983 62.2868 23.3983C62.2273 23.3983 61.7964 23.5911 61.3358 23.8434C60.8751 24.0808 60.147 24.422 59.7161 24.5852C59.2852 24.7633 58.1113 25.2826 57.1306 25.7574C56.135 26.2322 55.0205 26.7663 54.6342 26.9444C54.233 27.1372 53.8912 27.345 53.8318 27.4191C53.7872 27.4933 53.6386 27.5527 53.49 27.5527C53.3563 27.5527 52.643 27.8494 51.9298 28.2204C51.2017 28.5913 50.5033 28.888 50.3547 28.888C50.2061 28.888 50.0129 28.9919 49.9089 29.1106C49.8049 29.2293 49.6117 29.3331 49.4631 29.3331C49.3145 29.3331 49.1214 29.437 49.0174 29.5557C48.9133 29.6744 48.7499 29.7783 48.6459 29.7783C48.5419 29.7783 47.7989 30.1047 46.9965 30.5053C46.1792 30.8911 45.0796 31.4252 44.5298 31.6923C43.98 31.9445 43.5045 32.2116 43.4451 32.3006C43.4005 32.3748 43.2519 32.449 43.1182 32.449C42.9993 32.449 42.4495 32.6567 41.8997 32.9089C39.4479 34.081 38.4523 34.541 37.2785 35.0603C36.5801 35.3719 35.9114 35.7131 35.7777 35.817C35.6588 35.9209 35.4359 36.0099 35.317 36.0099C35.1833 36.0099 35.005 36.1137 34.901 36.2324C34.7969 36.3511 34.6335 36.455 34.5295 36.455C34.4255 36.455 33.6825 36.7814 32.8801 37.1672C32.0628 37.5678 31.1713 37.9684 30.8889 38.0871C30.6066 38.191 30.2648 38.369 30.1311 38.4877C30.0122 38.5916 29.8488 38.6806 29.8042 38.6806C29.7448 38.6806 29.0612 38.9773 28.2737 39.3483C27.501 39.7192 26.7877 40.0159 26.6986 40.0159C26.6243 40.0159 26.3717 40.1198 26.1636 40.2385C25.9408 40.3572 25.1681 40.7281 24.4548 41.0694C23.0878 41.7074 21.899 42.7163 22.0476 43.1021C22.0922 43.2208 22.0327 43.5175 21.9139 43.7697C21.795 44.0368 21.6315 44.8529 21.5424 45.5799C21.4384 46.3217 21.2898 47.212 21.2006 47.5829C21.0074 48.3841 20.844 50.2536 20.636 54.1113C20.4725 57.1529 20.5022 70.996 20.6805 71.6043C20.8143 72.0791 21.0966 72.3907 21.3195 72.3017C21.4235 72.2572 21.9584 71.9011 22.5231 71.5005ZM185.724 48.9924C185.724 48.6957 185.129 47.1378 184.891 46.7669C184.773 46.6036 184.683 46.3662 184.683 46.2327C184.683 46.0992 184.49 45.5799 184.238 45.0903C184 44.5858 183.792 44.111 183.792 44.0368C183.792 43.7104 182.9 42.0041 182.455 41.47C182.053 40.9803 181.905 40.9062 181.355 40.9062C180.909 40.9062 180.642 40.9952 180.463 41.1881C180.107 41.5738 179.795 42.4937 179.78 43.1466C179.78 43.6065 179.869 43.7549 180.345 44.111C181.013 44.6303 184.535 48.1467 184.535 48.3099C184.535 48.3841 184.669 48.6067 184.847 48.8292C185.174 49.2447 185.724 49.3485 185.724 48.9924ZM124.949 4.7479C124.949 4.59953 124.057 3.04163 123.73 2.62618C123.076 1.7953 122.185 1.51339 121.591 1.95851C121.442 2.07721 121.16 2.18107 120.996 2.18107C120.595 2.18107 120.283 2.552 120.402 2.84874C120.446 2.96744 120.625 3.0713 120.803 3.0713C121.234 3.0713 123.909 4.39181 124.013 4.64404C124.087 4.85176 124.949 4.94079 124.949 4.7479Z" fill="rgb(0,0,0)" fill-rule="nonzero" transform="matrix(1,0,0,-1,-0.244629,230.103)" />
		<path id="矢量 461" d="M12.8479 59.8143C12.4021 59.384 11.882 58.7312 11.7037 58.3603C11.5105 57.9893 11.243 57.5145 11.0944 57.292C10.931 57.0843 10.8121 56.8172 10.8121 56.6985C10.8121 56.5946 10.6189 56.1347 10.3961 55.6896C10.1732 55.2444 9.86112 54.5471 9.71253 54.1317C9.56393 53.731 9.37076 53.1969 9.25189 52.9447C8.9547 52.2325 8.58322 51.001 8.58322 50.6894C8.58322 50.541 8.52378 50.3482 8.43462 50.2591C8.22659 50.0514 7.08242 45.3777 6.80009 43.5231C6.71094 42.9889 6.60692 42.4696 6.5772 42.3509C6.44347 42.0097 5.50733 37.4992 5.23986 35.9561C5.10612 35.1846 4.89809 34.1163 4.77922 33.5821C4.66034 33.048 4.57119 32.3803 4.57119 32.0836C4.57119 31.7868 4.48203 31.2824 4.36315 30.9708C4.25914 30.6444 4.1254 29.9619 4.06597 29.4277C4.00653 28.8936 3.85794 28.0627 3.75392 27.5731C3.63505 27.0834 3.44187 25.8816 3.30814 24.9024C3.18926 23.9231 3.01095 22.8252 2.9218 22.4542C2.8475 22.0833 2.71376 21.2524 2.62461 20.5996C2.55031 19.9467 2.41658 18.8785 2.32742 18.2256C2.25312 17.5728 2.11939 16.9793 2.04509 16.9051C1.95594 16.8161 1.8965 16.46 1.8965 16.0891C1.8965 15.7033 1.80734 14.9466 1.68847 14.368C1.45072 13.2255 1.21297 11.4005 1.0198 9.30847C0.9455 8.56661 0.826625 7.82475 0.722609 7.64671C0.633453 7.4835 0.559156 6.94936 0.559156 6.45973C0.559156 5.9701 0.499719 5.25792 0.425422 4.85731C0.351125 4.45671 0.202531 3.26973 0.0985159 2.23113C-0.0352184 0.732572 -0.0352184 0.302293 0.113375 0.124247C0.365985 -0.172497 0.70775 0.0945727 0.70775 0.5842C0.70775 0.777084 0.811766 1.31122 0.930641 1.78601C1.04952 2.24597 1.15353 2.98783 1.15353 3.43294C1.15353 3.86322 1.22783 4.35285 1.30212 4.50122C1.45072 4.76829 1.58445 5.64369 1.88164 8.35889C2.05995 9.93164 2.32742 11.5489 2.58003 12.6172C2.69891 13.1216 2.78806 13.7893 2.78806 14.1009C2.78806 14.4125 2.89208 15.1395 3.01095 15.7033C3.14469 16.282 3.30814 17.2464 3.38244 17.8547C3.45673 18.463 3.62019 19.6352 3.75392 20.4512C3.88765 21.2673 4.05111 22.4542 4.1254 23.0922C4.1997 23.7154 4.33344 24.3682 4.42259 24.5314C4.49689 24.6798 4.57119 25.1101 4.57119 25.4662C4.57119 25.8371 4.6752 26.4158 4.79408 26.757C4.91295 27.0983 5.01697 27.6621 5.01697 27.9885C5.01697 28.3149 5.0764 28.8194 5.1507 29.1161C5.34387 29.858 6.11656 34.4872 6.35431 36.2528C6.41375 36.787 6.54748 37.425 6.62178 37.6624C6.82981 38.241 7.08242 39.517 7.21615 40.5556C7.27559 41.0007 7.39447 41.4755 7.46876 41.5942C7.54306 41.7129 7.64708 42.1135 7.70651 42.4845C7.82539 43.2857 8.078 44.532 8.30089 45.4519C8.37518 45.8228 8.50892 46.3866 8.56836 46.7131C8.62779 47.0395 8.76153 47.5439 8.85068 47.8258C9.26675 49.087 9.62337 50.4224 9.62337 50.7043C9.62337 50.8823 9.72739 51.1494 9.84626 51.2977C9.96514 51.461 10.0692 51.7132 10.0692 51.8616C10.0692 52.3809 11.8077 56.565 12.5655 57.841C12.8479 58.3306 13.3828 59.0428 13.7543 59.4285C14.1852 59.8736 14.3932 60.2001 14.3338 60.3484C14.1703 60.7787 13.6948 60.6007 12.8479 59.8143Z" fill="rgb(0,0,0)" fill-rule="nonzero" transform="matrix(1,0,0,-1,166.494,75.2966)" />
		<path id="矢量 462" d="M2.14336 16.4396C1.16264 16.3654 0.271075 16.2319 0.181918 16.1429C-0.0855502 15.9203 -0.0558315 15.6087 0.256215 15.5197C0.38995 15.4752 2.24737 15.4455 4.37226 15.4455C7.90879 15.4604 13.1244 15.1488 13.4959 14.9262C13.5702 14.8817 14.4321 14.7779 15.3979 14.6888C17.4039 14.5256 20.0489 14.1992 21.2376 13.9766C21.6834 13.8876 22.8276 13.6947 23.7637 13.5612C24.6999 13.4277 25.7698 13.2199 26.1264 13.1161C26.4979 12.9974 27.0179 12.9084 27.2854 12.9084C27.5677 12.9084 27.9392 12.8342 28.1027 12.7452C28.2661 12.6561 28.7565 12.5226 29.1726 12.4633C30.1681 12.3149 31.5352 12.033 32.4565 11.7956C32.8725 11.6917 33.5412 11.5285 33.9424 11.4246C34.3585 11.3208 34.9529 11.1873 35.2798 11.1131C37.1966 10.7125 37.5532 10.6383 38.0287 10.4602C38.3111 10.3564 38.9797 10.1486 39.5147 10.0151C40.0496 9.86674 40.7777 9.65902 41.1492 9.55516C41.5207 9.43646 42.6351 9.11004 43.6307 8.82814C44.6412 8.56107 45.5327 8.27916 45.6367 8.21981C45.7259 8.16046 46.0528 8.0566 46.3351 7.99725C46.6323 7.95274 47.3753 7.73018 47.9845 7.52246C48.5938 7.31474 49.5002 7.018 49.9905 6.88446C50.9267 6.63223 51.7588 6.33549 52.5166 6.00907C53.1407 5.742 55.2359 5.04465 55.86 4.89628C56.5287 4.73307 57.6431 4.3473 57.97 4.15442C58.1186 4.06539 58.3861 4.00605 58.5644 4.00605C58.7576 3.99121 59.0696 3.90218 59.2776 3.78349C59.4857 3.66479 59.768 3.57577 59.9166 3.56093C60.08 3.56093 60.407 3.47191 60.6596 3.36805C61.358 3.0713 62.0861 2.81907 62.9925 2.58167C63.4383 2.44814 64.3744 2.19591 65.0728 2.00302C66.2615 1.6766 66.6627 1.57274 68.2378 1.17214C68.5796 1.09795 69.2631 0.919907 69.7535 0.801209C70.2439 0.667674 71.0463 0.504465 71.5366 0.430279C72.027 0.341256 72.7105 0.222558 73.0671 0.148372C73.4089 0.0593488 73.9884 0 74.3599 0C74.9691 0 75.0286 0.0296744 75.0286 0.356093C75.0286 0.786372 74.8503 0.860558 73.4386 1.0386C72.027 1.21665 70.8234 1.48372 70.6451 1.64693C70.5708 1.72112 70.3924 1.78046 70.229 1.78046C70.0804 1.78046 69.3077 1.98819 68.5202 2.22558C65.6523 3.11581 62.7547 4.05056 62.2495 4.24344C61.9672 4.3473 61.1351 4.64404 60.3921 4.89628C59.664 5.14851 58.8913 5.43042 58.6833 5.51944C58.4752 5.60846 58.1186 5.72716 57.866 5.80135C57.6283 5.8607 56.8556 6.12777 56.1572 6.38C55.4588 6.64707 54.3295 7.04767 53.6311 7.27023C52.9327 7.50763 51.9965 7.84888 51.5508 8.01209C51.105 8.19014 50.1688 8.50172 49.4705 8.6946C48.7721 8.90232 48.0737 9.12488 47.9102 9.19907C47.1821 9.52549 43.4078 10.6234 38.9203 11.7956C38.3854 11.9291 37.687 12.1368 37.3601 12.2407C37.0332 12.3446 36.4536 12.4781 36.0673 12.5374C35.681 12.5819 35.3243 12.6858 35.2798 12.7748C35.2203 12.849 35.0123 12.9084 34.8043 12.9084C34.5814 12.9084 34.0761 12.9974 33.6601 13.1161C32.3673 13.4722 31.446 13.6799 30.6436 13.7986C30.2276 13.8728 29.7966 13.9618 29.7075 14.0212C29.6183 14.0805 29.1874 14.1844 28.7713 14.2586C28.3404 14.3327 27.5677 14.4514 27.0328 14.5405C26.4979 14.6295 25.7252 14.8075 25.3091 14.9262C24.8931 15.0449 24.3135 15.1339 24.0164 15.1339C23.7192 15.1339 23.3031 15.2081 23.0654 15.2972C22.6196 15.4604 19.722 15.8165 17.0027 16.0242C16.1112 16.0984 15.0116 16.2171 14.5658 16.3061C13.4811 16.5286 4.32768 16.6325 2.14336 16.4396Z" fill="rgb(0,0,0)" fill-rule="nonzero" transform="matrix(1,0,0,-1,88.9038,81.4783)" />
	</g>
</svg>
