<svg viewBox="0 0 216 230" xmlns="http://www.w3.org/2000/svg" xmlns:xlink="http://www.w3.org/1999/xlink" width="216.000000" height="230.000000" fill="none">
	<rect id="1-4" width="216.000000" height="230.000000" x="0.000000" y="0.000000" />
	<path id="矢量 463" d="M168.747 7.08497L101.672 1.31958L95.9364 3.49269L90.379 13.1017L88.6256 25.2681L86.2035 24.9872L79.3088 39.3416L72.6666 64.6945L72.102 80.9706L63.0823 82.8777L49.4414 86.2925L32.7395 91.1857L13.7343 99.6269L5.56169 103.589L3.15447 108.896L3.89744 113.907L5.53197 115.681L3.82314 119.14L1.22275 124.137L0.390625 139.512L1.90628 159.055L5.14563 177.888L17.5235 184.467L20.2576 183.639L21.5504 188.724L28.5194 192.124L96.8726 223.154L99.8741 221.543L102.519 221.779L116.219 228.358L118.686 227.175L121.331 229.259L123.976 228.358L125.952 223.464L145.73 213.057L165.865 197.269L178.911 186.389L179.535 189.67L181.378 190.04L183.532 187.823L187.381 178.007L197.367 167.851L200.487 135.313L199.566 120.855L195.985 117.958L196.876 116.805L200.487 117.958L203.31 115.282L207.159 90.3579L214.93 40.3764L211.75 38.425L202.255 36.8285L194.84 34.3153L189.224 34.5814L185.538 34.0788L185.197 22.8437L181.14 13.2347L168.747 7.08497Z" fill="rgb(255,255,255)" fill-rule="nonzero" />
	<path id="矢量 464" d="M98.3139 2.14759L92.9051 6.7599L88.8782 23.8639L86.4858 55.13L86.4858 65.2564L86.9613 66.4539L88.6256 66.7052L104.362 67.1782L123.59 70.6818L144.11 76.8907L161.734 81.843L164.156 82.523L171.437 82.0204L176.4 66.3799L184.469 42.0914L185.197 24.1152L181.779 14.1514L173.473 8.11994L146.83 4.49809L102.118 0.417969L98.3139 2.14759Z" fill="rgb(1,89,188)" fill-rule="nonzero" />
	<g id="组合 92">
		<path id="矢量 465" d="M102.354 229.558C101.819 229.499 101.121 229.366 100.794 229.277C100.467 229.188 100.006 229.114 99.7536 229.114C99.5158 229.099 98.8026 228.833 98.1933 228.523C97.5841 228.212 96.856 227.828 96.5737 227.695C95.905 227.34 94.3002 225.744 93.2749 224.384C92.1753 222.92 91.4175 221.397 91.0608 219.963C90.9865 219.697 90.8677 219.402 90.7785 219.313C90.6893 219.224 90.6151 219.032 90.6151 218.87C90.6151 218.722 90.5259 218.293 90.407 217.909C90.095 216.844 89.7532 215.292 89.5006 213.74C89.3669 212.971 89.2034 211.966 89.1143 211.522C88.8171 209.852 88.5347 207.664 88.5347 206.999C88.5347 206.038 88.3267 205.713 87.7769 205.831C87.3311 205.934 87.0042 205.787 85.6669 204.9C84.6564 204.234 83.4677 202.372 82.4424 199.844C82.2641 199.4 81.0308 196.562 80.7336 195.704C80.4215 194.847 79.946 193.517 79.6637 192.748C79.3814 191.979 78.9207 190.619 78.6384 189.717C78.3412 188.83 77.94 187.589 77.732 186.982C77.5388 186.376 77.2713 185.549 77.1673 185.135C77.0633 184.735 76.8701 184.026 76.7364 183.582C76.5878 183.139 76.2609 181.868 75.9786 180.774C75.6962 179.68 75.3693 178.453 75.2356 178.039C75.1167 177.64 74.9087 176.767 74.775 176.117C74.6412 175.467 74.4481 174.639 74.344 174.269C74.0171 173.146 73.7794 172.155 73.6754 171.386C73.6159 170.987 73.5119 170.485 73.4228 170.278C73.3336 170.071 73.3039 169.819 73.3485 169.701C73.3782 169.598 73.3039 169.125 73.185 168.666C73.0513 168.208 72.873 167.247 72.7838 166.508C72.6946 165.784 72.5312 164.749 72.4272 164.217C72.3083 163.684 72.2637 162.975 72.2934 162.62C72.338 162.236 72.2786 161.777 72.13 161.408C71.9814 161.023 71.8922 160.358 71.8922 159.516C71.8922 158.806 71.7184 157.767 71.6693 157.195C71.5594 155.916 71.6218 150.128 71.6099 149.774C71.598 149.408 71.5951 149.286 70.8669 149.286C70.4657 149.286 69.8565 149.182 69.5147 149.064C69.173 148.946 68.5935 148.842 68.2517 148.842C67.8951 148.842 62.7834 147.807 62.3971 147.807C62.0108 147.807 61.6244 147.734 61.5353 147.645C61.4461 147.556 60.9409 147.423 60.4357 147.349C58.2513 147.024 57.9839 146.965 57.6718 146.802C57.4935 146.699 48.4441 144.407 48.1618 144.407C47.8795 144.407 47.4337 144.304 47.1811 144.186C46.9136 144.067 46.4084 143.905 46.0369 143.816C45.6654 143.727 45.1305 143.594 44.8482 143.52C44.1052 143.343 39.5434 141.672 38.6072 141.377C37.6711 141.066 36.7052 140.741 36.4526 140.638C36.2149 140.534 35.7097 140.342 35.3382 140.194C34.9667 140.061 34.5655 139.884 34.4466 139.825C34.3129 139.765 34.0008 139.662 33.7482 139.618C33.4956 139.558 30.4049 138.198 30.3157 138.198C30.2117 138.198 29.6619 137.991 29.0675 137.74C28.4731 137.474 27.7153 137.149 27.3884 137.016C26.6454 136.691 25.8282 136.306 25.531 136.144C25.4121 136.07 25.0109 135.892 24.6394 135.744C24.2679 135.597 23.8816 135.419 23.7627 135.331C23.5696 135.183 22.8414 134.887 22.1876 134.695C22.0242 134.636 18.978 133.157 18.3242 132.891C17.6704 132.625 16.8977 132.315 16.6154 132.182C15.9318 131.871 15.382 131.635 14.3865 131.25C13.9407 131.088 13.4355 130.881 13.272 130.807C12.7965 130.585 12.113 130.334 11.6375 130.216C6.46641 128.841 3.27165 125.707 2.49896 121.242C2.30579 120.193 2.36522 119.291 2.67727 117.946C2.811 117.354 3.0339 116.866 3.59855 115.802C3.88088 115.299 4.34152 114.812 4.69815 114.679C5.1885 114.486 5.09935 114.102 4.3861 113.363C3.21221 112.165 1.77085 109.49 1.25077 107.598C1.1319 107.154 0.968442 106.592 0.879286 106.341C0.730692 105.883 0.567239 104.877 0.270052 102.423C0.00258297 100.309 -0.101433 87.3891 0.121458 84.9499C0.225474 83.8707 0.329489 82.1263 0.359208 81.0619C0.403786 80.0123 0.463224 79.0367 0.507802 78.9184C0.596958 78.7114 0.700974 77.5288 0.983302 73.3748C1.04274 72.5617 1.17647 71.7486 1.28049 71.5712C1.3845 71.3791 1.4588 70.7286 1.4588 69.9747C1.4588 69.2355 1.5331 68.5703 1.63711 68.3781C1.74113 68.2007 1.87486 67.4911 1.9343 66.7963C2.0829 64.978 2.3355 63.1005 2.43952 62.9231C2.49896 62.8344 2.60297 62.3023 2.67727 61.7109C2.75157 61.1344 2.87044 60.2326 2.9596 59.7004C3.0339 59.1682 3.15277 58.37 3.21221 57.9265C3.27165 57.483 3.40538 56.9656 3.5094 56.7882C3.61341 56.6108 3.68771 56.1821 3.68771 55.8273C3.70257 55.4725 3.79172 55.029 3.9106 54.822C4.02947 54.6151 4.11863 54.2455 4.13349 53.9794C4.13349 53.7281 4.20779 53.462 4.28208 53.4176C4.37124 53.3733 4.43068 53.1072 4.43068 52.8411C4.43068 52.0576 5.15879 51.1115 6.34754 50.3428C6.92705 49.9584 7.55115 49.574 7.74432 49.5001C7.92263 49.4114 8.47243 49.1306 8.96279 48.8645C9.45315 48.5984 10.3596 48.1253 10.9688 47.8149C11.578 47.5044 12.1873 47.1792 12.3061 47.1201C12.425 47.0461 12.6331 46.9427 12.7519 46.8983C12.8708 46.854 13.2571 46.6766 13.5989 46.5287C13.9555 46.3809 14.2676 46.2479 14.3122 46.2479C14.3567 46.2479 14.6391 46.1 14.9511 45.9078C15.2483 45.7157 15.9318 45.4052 16.4519 45.2278C17.3138 44.9174 17.4921 44.9026 18.4579 45.0504C19.0374 45.1391 19.6467 45.2278 19.8101 45.2574C20.0776 45.287 20.1222 45.1835 20.1965 44.1043C20.2856 42.7295 20.6125 41.6947 21.2069 40.8964C21.8756 39.9946 21.9499 39.9503 25.3081 38.3981C25.7985 38.1763 27.0764 37.585 28.1314 37.0824C29.2013 36.5797 30.4643 35.9884 30.9547 35.7667C31.445 35.5449 32.6783 34.9536 33.7036 34.4658C34.7289 33.9631 35.9028 33.4162 36.304 33.2388C36.7201 33.0614 37.79 32.5588 38.6815 32.13C39.588 31.7013 40.955 31.0509 41.7277 30.6813C42.5004 30.3265 43.7783 29.7204 44.551 29.3656C45.3237 28.996 46.3341 28.523 46.7799 28.316C47.8795 27.8282 49.4992 27.0742 51.3863 26.1873C52.2481 25.7733 53.7787 25.0637 54.804 24.6055C55.8293 24.1472 56.7654 23.7037 56.8843 23.6298C57.0031 23.5411 57.2558 23.408 57.4489 23.3341C58.6525 22.8167 59.9304 22.2402 62.2782 21.1315C63.3184 20.6288 64.2099 20.2297 64.2397 20.2297C64.314 20.2297 65.0272 19.9045 67.2858 18.8696C67.8208 18.6183 68.6826 18.2192 69.2176 17.9827C69.7525 17.7314 70.2874 17.48 70.4063 17.4061C70.5252 17.3322 70.7332 17.2287 70.8521 17.1844C71.8328 16.8 72.7392 16.4157 73.7942 15.9278C74.4629 15.6026 75.0573 15.3513 75.087 15.3513C75.1316 15.3513 75.6219 15.1443 76.1717 14.893C77.197 14.4052 77.6131 14.2278 78.6978 13.7843C79.0396 13.6512 79.3962 13.4443 79.4854 13.326C79.5745 13.2225 79.7826 13.1338 79.9312 13.1338C80.0798 13.1338 80.6295 12.9269 81.1348 12.6756C81.6548 12.4095 82.2789 12.1138 82.5167 12.0103C82.7693 11.9068 83.334 11.6555 83.7797 11.4486C84.2255 11.2564 85.0428 10.9164 85.6074 10.6946C86.1572 10.4729 86.6476 10.2363 86.6922 10.1624C86.7368 10.0885 86.8854 10.0294 87.0339 10.0294C87.1825 10.0294 87.3906 9.9259 87.4946 9.80764C87.5986 9.68938 87.7918 9.58589 87.9404 9.58589C88.089 9.58589 88.2821 9.48241 88.3861 9.36415C88.4902 9.24588 88.6982 9.1424 88.8468 9.1424C89.1143 9.1424 89.3223 9.06849 90.942 8.34412C91.4026 8.13716 91.8187 7.95976 91.8781 7.95976C91.9227 7.95976 92.4725 7.72323 93.0817 7.44235C93.6909 7.16147 94.2705 6.92495 94.3893 6.92495C94.4933 6.92495 94.7608 6.7919 94.9688 6.62928C95.1769 6.46667 95.4443 6.33362 95.5781 6.33362C95.697 6.33362 96.1873 6.23014 96.6628 6.11188C98.0893 5.72752 99.4861 6.18579 100.348 7.29452C100.556 7.5754 100.809 7.81193 100.898 7.81193C100.972 7.81193 101.299 7.61975 101.611 7.36844C101.908 7.13191 102.592 6.73277 103.112 6.46667C103.632 6.21536 104.271 5.90492 104.509 5.77187C105.222 5.40229 105.37 5.32838 106.069 5.01793C108.669 3.87964 109.694 3.42136 110.75 2.91874C111.24 2.69699 111.998 2.37177 112.429 2.19437C112.86 2.03176 113.365 1.79523 113.558 1.67696C114.093 1.32217 115.965 0.716065 116.53 0.716065C116.797 0.716065 117.109 0.819546 117.213 0.937811C117.317 1.05607 117.555 1.15956 117.733 1.15956C117.912 1.15956 118.239 1.2926 118.447 1.45522C118.982 1.88393 119.309 1.82479 119.784 1.23347C120.007 0.952594 120.26 0.716065 120.334 0.716065C120.423 0.716065 120.824 0.553451 121.255 0.346489C122.162 -0.0822199 122.34 -0.097003 123.321 0.213441C123.9 0.405621 124.182 0.627366 124.717 1.2926C125.089 1.75088 125.386 2.26829 125.386 2.4309C125.386 2.6083 125.49 2.83004 125.594 2.93352C125.847 3.1257 126.233 4.24921 126.307 4.92923C126.352 5.32838 126.5 5.44664 127.689 6.06753C128.432 6.43711 129.324 6.89538 129.695 7.07278C130.067 7.25017 130.468 7.45714 130.587 7.53105C130.943 7.7528 132.34 8.40325 132.459 8.40325C132.518 8.40325 132.771 8.55108 133.024 8.74326C133.276 8.93544 133.826 9.24588 134.227 9.43806C134.643 9.63024 135.074 9.86677 135.208 9.98504C135.342 10.0885 135.802 10.3694 136.248 10.5911C136.694 10.8129 137.318 11.1677 137.645 11.3746C137.972 11.5668 138.373 11.8181 138.537 11.9216C138.7 12.0251 139.012 12.1729 139.25 12.2616C139.473 12.3503 139.651 12.4686 139.651 12.5277C139.651 12.5721 139.904 12.7495 140.216 12.9121C140.513 13.0747 141.033 13.3704 141.36 13.5773C141.687 13.7695 142.073 14.006 142.207 14.0947C142.341 14.1686 143.098 14.6417 143.886 15.1295C144.673 15.6174 145.431 16.0904 145.565 16.1644C145.714 16.253 146.234 16.5931 146.739 16.9479C147.244 17.2879 147.72 17.5687 147.794 17.5687C147.853 17.5687 148.106 17.7609 148.344 18.0122C148.581 18.2488 148.864 18.4557 148.983 18.4557C149.102 18.4557 149.443 18.6479 149.755 18.8992C150.067 19.1505 150.394 19.3427 150.469 19.3427C150.558 19.3427 150.692 19.4314 150.751 19.5349C150.855 19.7123 151.984 20.5697 152.965 21.2349C153.128 21.3384 153.649 21.6784 154.139 22.0037C155.328 22.8019 156.249 23.482 158.017 24.842C158.82 25.4777 160.157 26.5125 160.989 27.1334C161.806 27.769 163.441 29.0847 164.6 30.0604C165.774 31.0361 167.007 32.0561 167.334 32.3222C167.676 32.5883 168.092 32.9283 168.255 33.0614C169.132 33.8153 171.524 35.9145 172.55 36.8458C173.189 37.4224 173.961 38.0876 174.258 38.3241C174.556 38.5607 175.551 39.5216 176.473 40.4529C178.256 42.2269 178.583 42.3895 178.583 41.4434C178.583 40.3938 179.177 39.7285 180.663 39.152L181.465 38.8415L182.327 39.1668C182.951 39.4033 183.338 39.6546 183.694 40.0981C184.199 40.719 184.823 41.7686 184.823 42.0199C184.823 42.0938 184.942 42.419 185.106 42.7591C185.893 44.4739 186.012 44.7991 186.012 45.1096C186.027 45.287 186.116 45.5974 186.235 45.8044C186.354 46.0113 186.443 46.3809 186.458 46.6322C186.458 46.8835 186.562 47.1792 186.681 47.2827C186.8 47.3862 186.904 47.7114 186.904 48.007C186.904 48.3175 187.008 48.6871 187.127 48.8497C187.246 48.9975 187.35 49.4262 187.35 49.781C187.35 50.4019 187.409 50.5054 188.434 51.4811C195.567 58.3552 197.365 60.3065 197.929 61.844C198.539 63.4997 198.702 64.1649 198.658 64.8302C198.643 65.1702 198.687 65.6728 198.776 65.9389C198.866 66.205 198.955 67.0033 198.984 67.6981C199.029 68.3929 199.118 69.1025 199.222 69.2799C199.311 69.4425 199.386 70.1816 199.386 70.906C199.386 71.7043 199.475 72.473 199.609 72.8574C199.742 73.2565 199.831 74.0252 199.831 74.9418C199.831 75.7401 199.906 76.5679 199.995 76.8044C200.158 77.1888 200.233 78.0019 200.56 82.9837C200.634 84.0481 200.753 85.6003 200.842 86.4578C200.931 87.3152 201.08 89.7396 201.169 91.8536C201.258 93.9675 201.392 97.0276 201.481 98.6538C201.719 102.956 201.525 106.858 200.99 108.278C200.723 109.031 199.549 110.569 198.895 111.027C198.643 111.219 198.093 111.515 197.707 111.692C197.186 111.944 196.993 112.106 197.038 112.284C197.127 112.698 198.019 112.594 198.791 112.092C199.326 111.752 199.668 111.663 200.515 111.619C201.867 111.545 202.372 111.84 203.65 113.466C204.007 113.925 204.884 116.926 204.884 117.694C204.884 117.872 204.988 118.315 205.107 118.67C205.24 119.025 205.3 119.424 205.255 119.572C205.211 119.72 205.27 120.119 205.404 120.474C205.523 120.828 215.434 183.494 215.434 184.248C215.449 185.046 215.88 186.436 215.88 187.677C215.88 189.392 215.746 189.895 215.018 190.767C214.691 191.166 212.923 192.334 212.774 192.245C212.715 192.201 212.135 192.275 211.481 192.393C210.842 192.511 209.936 192.659 209.49 192.689C209.044 192.733 207.439 193.191 207.083 193.191C206.741 193.206 206.28 193.295 206.072 193.413C205.805 193.561 205.166 193.62 203.799 193.635C202.031 193.635 201.852 193.664 201.421 193.99C200.456 194.699 197.127 196.133 196.265 196.207C196.057 196.237 195.448 196.34 194.898 196.444C194.111 196.606 193.784 196.606 193.323 196.473C192.996 196.37 192.58 196.296 192.387 196.296C192.194 196.296 191.837 196.192 191.599 196.074C191.064 195.793 190.5 195.793 189.831 196.074C189.534 196.192 189.044 196.296 188.732 196.296C188.419 196.311 188.003 196.399 187.795 196.518C187.587 196.636 187.201 196.725 186.948 196.739C186.666 196.739 186.443 196.813 186.443 196.931C186.428 197.02 186.428 198.572 186.443 200.361C186.473 204.234 186.265 206.289 185.596 208.64C185.448 209.216 185.225 210.014 185.121 210.414C184.913 211.241 184.318 212.853 183.991 213.489C183.872 213.725 183.783 214.035 183.783 214.183C183.783 214.331 183.724 214.509 183.635 214.553C183.56 214.597 183.367 214.922 183.204 215.262C182.595 216.578 181.138 218.056 179.103 219.417C178.211 220.023 175.447 221.205 175.358 221.294C175.269 221.383 174.972 221.501 174.704 221.575C174.006 221.737 173.233 222.018 172.743 222.255C172.505 222.373 172.134 222.462 171.896 222.462C171.658 222.462 169.385 223.199 167.809 223.482C167.319 223.571 166.22 223.778 165.373 223.94C164.526 224.103 163.589 224.236 163.292 224.236C162.98 224.236 162.401 224.339 161.999 224.458C161.598 224.576 160.87 224.679 160.38 224.679C159.889 224.679 159.087 224.783 158.597 224.901C158.106 225.019 157.408 225.108 157.051 225.123C156.68 225.123 156.011 225.182 155.565 225.271C154.793 225.404 151.33 225.729 147.749 226.01C146.932 226.069 145.758 226.202 145.149 226.276C144.54 226.365 143.41 226.483 142.638 226.527C141.865 226.572 141.167 226.66 141.077 226.719C140.988 226.764 140.112 226.867 139.131 226.926C136.412 227.074 133.544 227.325 133.247 227.414C133.098 227.458 132.088 227.562 131.003 227.651C126.218 228.005 120.378 228.464 118.031 228.671C117.213 228.745 115.549 228.878 114.316 228.966C113.097 229.055 111.047 229.218 109.784 229.336C106.841 229.617 103.587 229.706 102.354 229.558ZM105.757 227.932C107.005 227.784 109.041 227.606 112.414 227.34C113.335 227.266 114.464 227.133 114.94 227.059C115.4 226.971 116.693 226.897 117.793 226.897C118.907 226.897 120.616 226.793 121.597 226.675C122.578 226.557 123.885 226.453 124.494 226.453C125.104 226.453 125.891 226.379 126.233 226.305C126.59 226.217 127.957 226.084 129.279 226.01C130.616 225.936 132.667 225.758 133.856 225.64C135.045 225.522 136.798 225.359 137.779 225.271C138.745 225.182 140.112 225.019 140.795 224.901C141.494 224.783 142.549 224.679 143.158 224.679C143.752 224.679 144.421 224.605 144.659 224.517C144.881 224.428 145.61 224.295 146.263 224.236C150.097 223.851 150.81 223.778 151.613 223.63C152.103 223.556 153.515 223.378 154.733 223.275C155.967 223.157 157.334 222.994 157.779 222.905C158.225 222.817 159.161 222.684 159.86 222.595C160.558 222.506 161.329 222.37 161.569 222.284C161.82 222.193 162.416 222.076 162.906 222.018C163.411 221.958 164.63 221.575 164.838 221.575C165.046 221.575 166.086 221.219 166.428 221.146C166.784 221.071 167.276 220.944 167.512 220.865C167.766 220.781 168.359 220.598 168.85 220.451C169.606 220.227 170.588 219.757 173.902 218.056C174.273 217.879 177.022 215.203 177.765 214.302C178.107 213.888 178.434 213.976 178.434 214.449C178.434 214.745 178.122 215.218 177.23 216.223C176.577 216.963 175.982 217.583 175.908 217.583C175.848 217.583 175.447 217.85 175.016 218.19C174.244 218.796 171.509 220.244 171.123 220.244C171.004 220.244 170.857 220.305 170.781 220.377C170.591 220.559 168.396 221.211 168.018 221.279C167.872 221.306 167.275 221.556 166.918 221.634C166.566 221.712 165.814 221.978 165.536 222.033C165.245 222.091 164.864 222.129 164.689 222.166C161.268 222.893 162.762 222.806 163.362 222.87C163.491 222.883 165.591 222.472 165.806 222.426C166.041 222.376 166.618 222.247 167.081 222.107C168.298 221.737 169.712 221.604 172.564 220.644C175.209 219.757 175.715 219.55 176.74 218.884C177.067 218.677 177.706 218.308 178.152 218.086C179.251 217.509 181.376 215.381 181.956 214.257C182.595 213.045 183.947 208.921 184.452 206.688C184.794 205.18 184.794 196.813 184.452 194.891C184.333 194.182 184.229 192.984 184.229 192.23C184.229 191.477 184.125 190.323 184.006 189.688C183.887 189.052 183.783 188.136 183.783 187.648C183.783 186.716 183.471 185.297 183.13 184.632C182.773 183.937 182.446 183.139 182.446 182.932C182.446 182.814 182.342 182.651 182.223 182.548C182.104 182.444 182 182.237 182 182.075C182 181.912 180.128 177.019 180.024 176.856C179.92 176.693 179.742 176.324 179.623 176.043C179.519 175.762 179.34 175.333 179.236 175.082C179.147 174.846 178.984 174.402 178.88 174.121C178.776 173.84 178.464 172.968 178.196 172.199C177.914 171.431 175.848 164.985 175.655 164.379C175.477 163.788 175.313 163.167 175.313 163.004C175.313 162.842 175.239 162.576 175.15 162.398C174.957 162.043 174.6 160.876 174.422 160.003C174.362 159.678 174.154 158.88 173.976 158.229C173.798 157.579 173.605 156.751 173.545 156.382C173.486 156.012 173.352 155.569 173.263 155.391C173.159 155.214 173.085 154.785 173.085 154.43C173.085 154.075 172.981 153.647 172.862 153.484C172.743 153.336 172.639 152.981 172.639 152.715C172.639 152.449 172.564 152.08 172.46 151.902C172.297 151.592 172.193 151.06 171.911 149.049C171.851 148.547 171.732 148.059 171.673 147.955C171.614 147.852 171.569 147.482 171.569 147.113C171.584 146.743 171.509 146.3 171.42 146.122C171.242 145.797 171.064 144.555 170.885 142.412C170.811 141.687 170.692 140.933 170.588 140.756C170.484 140.579 170.41 139.987 170.41 139.425C170.41 138.878 170.306 138.125 170.172 137.755C170.053 137.4 169.979 136.898 170.024 136.646C170.068 136.41 170.038 135.804 169.949 135.316C169.771 134.37 169.726 133.778 169.607 131.103L169.533 129.403L167.928 129.329C167.052 129.284 166.22 129.196 166.101 129.107C165.982 129.033 165.313 128.915 164.615 128.856C162.014 128.649 153.47 126.668 153.114 126.668C152.787 126.653 152.341 126.564 152.133 126.446C151.925 126.328 151.598 126.239 151.405 126.224C151.197 126.224 150.84 126.165 150.587 126.091C147.764 125.234 146.486 124.835 146.07 124.657C145.803 124.539 145.461 124.45 145.327 124.45C145.179 124.45 145 124.391 144.926 124.317C144.837 124.243 144.376 124.081 143.886 123.933C142.534 123.563 140.201 122.735 138.462 122.011C137.6 121.671 136.531 121.227 136.085 121.05C135.639 120.873 135.208 120.666 135.119 120.592C135.045 120.518 134.896 120.459 134.792 120.459C134.48 120.459 128.358 117.517 125.698 116.098C125.178 115.817 124.702 115.58 124.643 115.58C124.569 115.58 124.182 115.344 123.751 115.063C122.919 114.516 122.37 114.413 121.879 114.753C121.716 114.871 121.196 115.033 120.705 115.122C120.23 115.211 119.754 115.359 119.68 115.433C119.591 115.521 119.368 115.58 119.175 115.58C118.982 115.58 118.64 115.669 118.432 115.787C118.209 115.906 117.258 116.216 116.322 116.467C115.386 116.733 114.316 117.029 113.959 117.147C113.588 117.266 113.172 117.354 113.038 117.354C112.889 117.354 112.547 117.443 112.28 117.561C112.013 117.665 111.388 117.872 110.898 118.02C110.408 118.167 109.576 118.433 109.041 118.626C108.506 118.818 107.703 119.069 107.258 119.187C106.292 119.439 105.712 119.646 104.509 120.104C104.018 120.296 103.543 120.459 103.439 120.459C103.335 120.459 103.008 120.562 102.696 120.695C102.384 120.828 101.997 120.991 101.834 121.065C101.017 121.375 98.6985 122.44 98.5648 122.543C98.4905 122.617 98.3271 122.676 98.2082 122.676C97.9704 122.676 96.7223 123.238 94.9986 124.11C92.5319 125.352 89.6343 126.668 89.3371 126.668C89.2034 126.668 88.9211 126.756 88.7131 126.875C87.9701 127.244 86.7962 127.555 86.1275 127.555C85.4143 127.555 84.8199 127.88 84.8199 128.249C84.8199 128.382 85.1171 128.87 85.4588 129.314C85.8155 129.772 86.1572 130.304 86.2018 130.511C86.2464 130.718 86.4396 131.28 86.6179 131.768C86.8853 132.492 86.9448 132.995 86.9745 134.503C86.9894 135.759 86.9299 136.484 86.7962 136.75C86.6922 136.971 86.499 138.243 86.3801 138.346C86.2613 138.45 86.1572 138.671 86.1572 138.834C86.1572 139.189 84.6862 142.293 84.5227 142.604C84.2404 143.106 84.2255 143.313 84.2998 145.59C84.3593 147.127 84.4781 148.236 84.6119 148.591C84.7307 148.887 84.8199 149.567 84.8199 150.099C84.8199 151.385 85.3697 154.962 85.8749 156.899C85.9641 157.224 86.0829 157.727 86.1424 158.008C86.2167 158.289 86.3355 158.688 86.4247 158.895C86.499 159.102 86.6922 159.663 86.8259 160.151C86.9596 160.639 87.1974 161.304 87.346 161.63C87.8066 162.576 87.8363 163.729 87.4203 164.438C87.1825 164.867 87.0637 165.384 86.9894 166.375C86.8705 167.794 87.0934 173.101 87.346 175.082C87.5837 177.048 87.8066 179.281 87.9404 181.069C88.0147 182.001 88.1335 183.242 88.2227 183.804C88.3118 184.381 88.3861 185.475 88.3861 186.243C88.3861 187.012 88.4604 188.313 88.5496 189.126C88.6388 189.939 88.7576 191.565 88.8319 192.748C89.2034 199.179 89.3223 200.746 89.5898 203.17C90.0653 207.487 90.303 209.349 90.4665 209.97C90.5407 210.295 90.6151 210.828 90.6151 211.138C90.6151 211.463 90.7042 212.099 90.8231 212.542C90.942 213.001 91.1203 213.799 91.2094 214.331C91.5215 216.076 92.4576 219.742 92.6656 220.008C92.7399 220.097 92.9183 220.51 93.0668 220.91C93.2154 221.324 93.6315 222.077 94.003 222.61C94.3745 223.142 94.8203 223.778 94.9837 224.014C96.0684 225.596 97.911 226.882 99.9022 227.444C102.131 228.094 103.439 228.198 105.757 227.932ZM88.0295 204.205C88.089 204.086 88.0444 203.273 87.9552 202.401C87.6878 199.859 87.5094 197.892 87.346 195.113C87.2568 193.694 87.1082 191.432 87.0191 190.087C86.9299 188.742 86.8408 187.071 86.8259 186.362C86.7962 185.652 86.7368 184.883 86.6773 184.662C86.6179 184.425 86.5139 183.39 86.4247 182.326C86.3504 181.276 86.2315 179.739 86.1572 178.926C86.0978 178.113 85.9641 176.457 85.8749 175.23C85.7709 174.018 85.6223 172.451 85.5331 171.771C85.1468 168.932 85.3697 164.379 85.9343 163.566C86.2613 163.108 86.2018 162.561 85.7115 161.585C85.4737 161.083 85.2657 160.61 85.2657 160.506C85.2657 160.403 85.1022 159.782 84.909 159.131C84.3593 157.342 84.0621 156.027 83.8392 154.46C83.7352 153.691 83.5866 152.789 83.4974 152.464C83.1705 151.074 82.9922 149.729 82.9773 148.34C82.9625 146.654 82.8287 146.477 82.0561 147.098C81.1348 147.837 76.0677 149.241 74.8641 149.286C72.9621 149.36 72.8581 149.374 72.9027 149.655C72.9324 149.818 73.0661 152.05 73.2147 154.637C73.3633 157.209 73.5416 159.383 73.5862 159.471C73.6754 159.619 73.7645 160.314 74.0914 164.069C74.1509 164.764 74.2697 165.429 74.344 165.547C74.4183 165.665 74.5372 166.198 74.5966 166.73C74.6858 167.587 74.983 169.391 75.4585 172.111C75.5476 172.599 75.6665 173.057 75.7111 173.146C75.7705 173.234 75.8745 173.604 75.934 173.973C75.9934 174.343 76.0974 174.934 76.1866 175.304C76.2609 175.673 76.3946 176.309 76.4838 176.708C76.6918 177.773 76.9593 178.734 77.1079 179.029C77.1822 179.177 77.2416 179.517 77.2416 179.798C77.2416 180.064 77.3456 180.374 77.4645 180.478C77.5982 180.581 77.6874 180.907 77.6874 181.232C77.6874 181.542 77.7468 181.823 77.8211 181.868C77.8954 181.912 77.9846 182.163 78.0292 182.429C78.0737 182.695 78.1777 183.183 78.2818 183.508C78.3709 183.834 78.5047 184.336 78.579 184.617C78.6978 185.09 79.2179 186.672 79.6934 188.017C79.7826 188.298 80.0946 189.23 80.3472 190.087C80.6147 190.944 80.9267 191.861 81.0456 192.127C81.1645 192.393 81.2536 192.674 81.2536 192.763C81.2536 192.851 81.3428 193.132 81.4617 193.384C81.5657 193.65 81.7737 194.152 81.9223 194.522C82.0709 194.891 82.2789 195.394 82.383 195.66C82.5018 195.911 83.1705 197.892 83.334 198.188C83.4825 198.484 83.8986 199.341 84.2255 200.065C85.0131 201.78 85.2508 202.209 85.652 202.653C85.8303 202.859 86.2612 203.333 86.6179 203.732C87.2568 204.441 87.8661 204.648 88.0295 204.205ZM187.127 195.113C187.602 194.951 188.137 194.818 188.315 194.818C188.509 194.818 188.731 194.714 188.836 194.596C188.984 194.404 188.85 194.211 187.959 193.339C187.379 192.777 186.904 192.26 186.904 192.171C186.904 191.876 185.819 190.235 185.626 190.235C185.358 190.235 185.358 190.442 185.656 191.669C185.849 192.511 185.997 193.945 186.012 195.158C186.012 195.483 186.072 195.468 187.127 195.113ZM195.567 194.655C196.161 194.551 196.711 194.433 196.785 194.374C196.874 194.315 197.157 194.211 197.424 194.152C197.885 194.064 198.643 193.753 199.088 193.487C199.207 193.413 199.609 193.191 199.98 192.999C200.782 192.6 201.912 191.89 202.179 191.624C202.283 191.506 202.759 191.122 203.249 190.752C203.725 190.383 204.274 189.836 204.453 189.54C204.646 189.23 205.062 188.623 205.389 188.18C205.389 188.18 205.68 187.572 205.743 187.357C205.854 186.963 205.983 185.741 205.983 185.741C205.983 184.839 205.879 183.701 205.775 183.213C205.656 182.725 205.567 182.134 205.552 181.882C205.537 181.646 205.448 181.143 205.359 180.774C205.27 180.404 193.576 129.269 193.531 128.841C193.501 128.619 193.412 128.353 193.323 128.264C193.219 128.161 193.145 127.776 193.145 127.407C193.145 127.037 193.07 126.653 192.966 126.549C192.877 126.461 192.758 126.106 192.699 125.751C192.64 125.396 192.417 124.45 192.209 123.637C191.54 121.035 190.946 118.478 190.842 117.739C190.574 115.832 189.876 115.832 189.876 117.739C189.876 118.005 189.816 118.271 189.727 118.315C189.653 118.36 189.578 118.507 189.578 118.626C189.578 119.247 186.339 122.78 184.987 123.637C184.615 123.859 184.199 124.169 184.036 124.317C183.872 124.465 183.531 124.687 183.278 124.805C183.025 124.923 182.58 125.175 182.297 125.367C181.584 125.84 179.638 126.771 178.137 127.333C177.765 127.481 177.275 127.673 177.022 127.776C176.205 128.131 174.467 128.589 174.006 128.589C173.753 128.589 173.501 128.663 173.456 128.737C173.411 128.826 172.877 128.885 172.267 128.885C171.079 128.885 170.9 129.018 171.153 129.713C171.242 129.92 171.301 130.703 171.301 131.457C171.301 132.389 171.376 133.024 171.539 133.409C171.703 133.808 171.762 134.251 171.703 134.872C171.673 135.36 171.732 136.291 171.851 136.942C171.97 137.592 172.044 138.405 172 138.731C171.97 139.071 172 139.455 172.074 139.588C172.148 139.721 172.252 140.445 172.282 141.185C172.327 141.924 172.416 142.648 172.49 142.796C172.579 142.944 172.639 143.446 172.639 143.919C172.639 144.466 172.728 144.91 172.862 145.087C172.995 145.265 173.07 145.708 173.085 146.27C173.085 146.758 173.144 147.216 173.218 147.305C173.293 147.379 173.382 147.733 173.411 148.103C173.456 148.473 173.62 149.434 173.798 150.247C174.288 152.479 174.392 152.996 174.496 153.632C174.556 153.942 174.645 154.312 174.719 154.445C174.823 154.667 174.957 155.229 175.299 156.899C175.358 157.224 175.536 157.83 175.67 158.229C175.819 158.643 176.027 159.397 176.131 159.93C176.443 161.408 176.666 162.177 176.889 162.62C177.007 162.827 177.097 163.167 177.097 163.374C177.097 163.581 177.201 163.936 177.32 164.157C177.438 164.394 177.542 164.749 177.542 164.956C177.557 165.163 179.712 171.372 179.771 171.638C179.994 172.495 181.584 176.413 181.629 176.649C181.688 176.886 183.352 180.995 183.516 181.468C183.679 181.941 184.006 182.74 184.244 183.257C184.482 183.76 184.675 184.262 184.675 184.381C184.675 184.484 184.779 184.662 184.898 184.765C185.017 184.869 185.121 185.031 185.121 185.149C185.121 185.312 185.462 186.125 186.22 187.796C186.562 188.535 187.498 190.412 187.899 191.166C188.36 192.024 190.173 193.738 191.079 194.182C192.372 194.803 193.695 194.951 195.567 194.655ZM205.374 191.876C205.835 191.787 206.355 191.654 206.503 191.565C206.667 191.491 207.098 191.417 207.469 191.417C207.826 191.417 208.316 191.343 208.524 191.27C208.747 191.181 209.431 191.063 210.055 190.974C211.823 190.752 213.398 190.397 213.636 190.176C213.963 189.836 213.68 189.643 212.848 189.643C211.764 189.643 210.575 189.407 209.862 189.037C209.059 188.623 207.945 187.515 207.618 186.82C207.365 186.243 207.142 186.096 207.053 186.436C207.023 186.524 206.875 187.042 206.726 187.574C206.488 188.402 205.909 189.451 204.943 190.811C204.809 190.989 204.468 191.24 204.2 191.358C203.918 191.477 203.695 191.624 203.695 191.684C203.695 191.905 204.052 192.157 204.289 192.097C204.408 192.053 204.898 191.964 205.374 191.876ZM213.77 188.963C213.948 188.904 214.2 188.683 214.334 188.446C214.557 188.003 214.527 187.722 214.156 186.569C214.037 186.229 213.948 185.578 213.948 185.135C213.948 184.706 203.739 120.074 203.621 119.867C203.502 119.66 203.398 119.128 203.398 118.685C203.398 118.241 203.294 117.709 203.175 117.502C203.056 117.295 202.967 116.896 202.952 116.6C202.952 115.95 202.194 114.013 201.778 113.614C201.466 113.289 200.352 113.23 199.846 113.496C198.925 113.984 198.286 114.087 196.934 113.91C196.102 113.792 195.433 113.614 195.166 113.437C194.705 113.141 193.873 113.097 191.986 113.289C191.302 113.363 191.02 113.466 190.916 113.659C190.767 113.939 190.856 114.398 191.05 114.398C191.302 114.398 191.867 116.098 192.327 118.241C192.431 118.774 192.64 119.631 192.773 120.163C192.892 120.695 193.07 121.42 193.145 121.789C193.234 122.144 193.368 122.514 193.442 122.588C193.531 122.676 193.591 122.883 193.591 123.061C193.591 123.238 193.695 123.622 193.813 123.903C193.932 124.199 194.036 124.642 194.036 124.879C194.036 125.115 194.111 125.367 194.185 125.411C194.274 125.47 194.333 125.618 194.319 125.751C194.274 126.062 194.616 127.688 194.794 128.028C194.868 128.176 194.928 128.545 194.928 128.856C194.928 129.166 195.032 129.55 195.151 129.713C195.27 129.861 195.374 130.275 195.374 130.6C195.374 130.955 206.607 180.241 207.113 183.494C207.335 184.942 208.034 186.317 209.029 187.234C209.668 187.825 211.541 188.756 212.105 188.771C212.343 188.771 212.67 188.83 212.833 188.904C213.205 189.067 213.339 189.067 213.77 188.963ZM76.7661 147.453C77.0484 147.305 80.585 146.24 81.2685 145.708C81.5657 145.486 81.8777 145.294 81.9669 145.294C82.2938 145.294 82.5613 144.57 82.6059 143.52C82.6653 142.589 82.7693 142.205 83.2745 141.155C83.6163 140.46 84.0918 139.47 84.3295 138.938C84.7753 137.977 85.2508 136.454 85.3697 135.611C85.4737 134.828 85.4143 134.798 83.0368 134.31C82.591 134.222 82.1749 134.089 82.1303 134.015C82.0709 133.941 81.7737 133.823 81.4617 133.764C80.481 133.571 77.9251 132.936 77.6577 132.817C77.3902 132.699 64.3288 129.003 63.4224 128.663C62.828 128.442 59.4995 127.451 58.5931 127.215C58.0284 127.082 57.8055 126.993 56.5425 126.461C56.2305 126.328 55.8738 126.224 55.755 126.224C55.4578 126.224 47.3594 123.637 46.661 123.327C46.3936 123.208 46.0518 123.12 45.918 123.12C45.7695 123.12 45.5168 123.016 45.3534 122.898C45.2048 122.78 44.863 122.676 44.6253 122.676C44.3727 122.676 44.1052 122.617 44.0161 122.528C43.9418 122.454 42.9313 122.085 41.802 121.715C40.6578 121.346 39.588 120.947 39.3948 120.828C39.2165 120.71 38.8153 120.547 38.5032 120.474C37.9683 120.341 36.0811 119.705 35.4125 119.439C35.249 119.365 34.7141 119.173 34.2237 119.01C33.7334 118.847 32.8715 118.537 32.292 118.315C31.7273 118.093 31.0587 117.872 30.8061 117.798C30.5683 117.724 29.9888 117.532 29.543 117.354C29.0972 117.177 28.5326 116.985 28.28 116.911C28.0422 116.852 27.6707 116.733 27.4627 116.66C26.4968 116.275 24.2234 115.639 22.0688 115.152C21.0137 114.915 17.6704 114.945 17.2097 115.211C17.0017 115.329 16.6748 115.418 16.4668 115.433C16.2587 115.433 15.9616 115.521 15.7981 115.639C15.6346 115.743 15.2334 115.92 14.9065 116.009C14.5796 116.113 14.1784 116.246 14.015 116.32C13.1383 116.689 12.5885 116.911 11.7118 117.207C11.1768 117.384 10.6122 117.576 10.4487 117.65C10.2853 117.709 9.20054 118.064 8.05636 118.433C6.89733 118.818 5.53027 119.35 5.01019 119.631L4.05919 120.134L4.10377 120.769C4.14835 121.494 4.57927 122.794 5.14393 123.977C5.60457 124.923 7.07565 126.387 8.27925 127.126C9.12624 127.629 14.2527 129.388 14.2973 129.462C14.3419 129.536 14.5648 129.639 14.7877 129.683C15.0254 129.743 15.4118 129.876 15.6495 129.994C15.9021 130.097 16.3628 130.304 16.6897 130.437C17.0166 130.57 17.4623 130.777 17.6852 130.896C17.8933 130.999 18.2053 131.103 18.3688 131.103C18.5322 131.103 18.7403 131.206 18.8443 131.324C18.9483 131.443 19.1266 131.546 19.2455 131.546C19.3792 131.546 20.3005 131.945 21.2961 132.433C22.2916 132.921 23.2278 133.32 23.3467 133.32C23.4804 133.32 23.6141 133.379 23.6587 133.453C23.7776 133.63 24.6394 134.044 26.3483 134.724C27.0912 135.02 28.0274 135.419 28.4286 135.597C29.6916 136.173 30.0334 136.306 31.237 136.735C31.8759 136.971 32.6338 137.297 32.9161 137.459C33.1984 137.622 33.5402 137.755 33.6739 137.755C33.8077 137.755 34.0603 137.858 34.2089 137.977C34.3723 138.095 34.6546 138.198 34.833 138.198C35.0113 138.198 35.2342 138.287 35.3233 138.405C35.4125 138.524 35.6799 138.642 35.9028 138.686C36.2743 138.745 36.9727 138.982 37.6414 139.248C38.0574 139.425 39.1868 139.825 39.7514 139.987C40.0189 140.061 42.753 141.066 43.4811 141.303C44.2241 141.554 50.2421 143.18 50.3461 143.299C50.4502 143.417 50.7325 143.52 50.9851 143.52C51.3863 143.52 52.0104 143.668 53.5409 144.112C53.7935 144.186 54.373 144.289 54.8337 144.348C55.3092 144.407 57.2409 144.939 57.4043 145.058C57.5678 145.161 58.073 145.294 58.5188 145.339C58.9646 145.383 59.6333 145.501 60.0047 145.59C60.6586 145.738 61.7284 145.93 63.1995 146.152C63.6156 146.226 64.0911 146.344 64.2694 146.447C64.4477 146.551 69.5296 147.408 70.0794 147.453C70.6292 147.482 71.4762 147.571 71.9665 147.645C73.3485 147.852 76.2163 147.734 76.7661 147.453ZM85.4143 133.468C85.4143 132.699 84.4484 130.733 83.7649 130.127C83.1111 129.565 80.7336 128.442 80.1689 128.442C79.9609 128.442 79.7231 128.338 79.6191 128.22C79.5002 128.087 79.1733 127.998 78.7424 127.998C78.3709 127.983 77.8954 127.895 77.6874 127.776C77.4794 127.658 76.9444 127.569 76.4838 127.555C75.9191 127.555 75.5774 127.481 75.4585 127.333C75.3396 127.2 75.0127 127.111 74.5669 127.111C74.1806 127.111 73.6159 127.008 73.3336 126.889C73.0364 126.771 72.5312 126.668 72.2191 126.668C71.9071 126.668 71.5951 126.623 71.5356 126.564C71.4316 126.461 69.9902 126.062 68.6529 125.781C68.3111 125.707 67.8951 125.574 67.7465 125.485C67.583 125.411 67.3007 125.337 67.1075 125.337C66.9144 125.337 66.632 125.234 66.4834 125.115C66.32 124.997 66.0228 124.894 65.8148 124.894C65.6067 124.879 65.265 124.79 65.0569 124.672C64.8489 124.554 64.5368 124.465 64.3585 124.45C64.1802 124.45 63.8533 124.361 63.6156 124.243C63.3927 124.125 62.7983 123.918 62.3079 123.785C61.8176 123.637 60.9557 123.371 60.3762 123.164C59.8116 122.957 59.0835 122.735 58.7565 122.661C58.4445 122.588 57.9393 122.395 57.6421 122.248C57.3301 122.1 56.4831 121.804 55.755 121.568C55.0268 121.346 54.373 121.109 54.2987 121.035C54.2096 120.961 53.9718 120.902 53.7638 120.902C53.5558 120.902 53.2437 120.799 53.0803 120.681C52.9317 120.562 52.5899 120.459 52.3522 120.459C52.0996 120.459 51.7726 120.37 51.6092 120.252C51.4457 120.148 50.9851 119.971 50.569 119.882C49.0237 119.513 48.771 119.454 48.2658 119.276C47.9835 119.173 47.5526 119.04 47.3 118.951C47.0622 118.862 46.661 118.759 46.4084 118.714C46.1707 118.685 45.8289 118.552 45.6654 118.448C45.502 118.33 45.2048 118.241 44.9968 118.241C44.7887 118.241 44.4916 118.153 44.3281 118.034C44.1646 117.931 43.8377 117.798 43.5851 117.753C43.1988 117.694 42.1141 117.354 40.3161 116.733C40.0783 116.66 39.3353 116.393 38.6815 116.157C37.5522 115.743 35.3233 114.989 33.555 114.442C33.1093 114.294 32.604 114.102 32.4406 113.999C32.2771 113.895 32.0097 113.806 31.8462 113.806C31.6828 113.806 31.3707 113.718 31.1627 113.599C30.6426 113.333 27.1952 112.372 26.9575 112.254C26.7346 112.136 26.3334 112.032 26.0659 112.032C25.8133 112.018 23.6736 111.485 23.5101 111.367C23.3615 111.249 21.8013 111.072 21.7121 110.983C21.4892 110.761 17.3138 110.805 16.5411 111.042C15.9467 111.205 13.6138 112.358 13.1977 112.683C12.9748 112.86 12.217 113.23 11.3403 113.599C10.6865 113.866 7.95235 114.693 7.69974 114.693C7.10536 114.693 4.87646 116.379 4.87646 116.807C4.87646 116.881 4.713 117.266 4.50497 117.68C4.13349 118.433 4.01461 119.128 4.28208 119.128C4.35638 119.128 4.87646 118.833 5.42625 118.478C6.02063 118.108 6.71902 117.783 7.10536 117.724C7.47685 117.665 7.90777 117.517 8.07122 117.413C8.23468 117.295 8.47243 117.207 8.62102 117.207C8.84391 117.207 9.5423 116.955 10.2258 116.615C10.3596 116.556 10.6865 116.453 10.9688 116.393C11.4592 116.29 13.9407 115.359 14.9808 114.886C16.764 114.087 17.5664 113.91 19.4981 113.851C20.7463 113.806 21.5635 113.851 21.8756 113.969C22.1282 114.058 22.678 114.191 23.0792 114.25C24.9663 114.546 28.5177 115.551 28.8743 115.891C28.9486 115.965 29.1418 116.024 29.3201 116.024C29.4836 116.024 29.7511 116.113 29.9145 116.216C30.078 116.334 30.6129 116.526 31.1033 116.674C31.5936 116.807 32.2028 116.985 32.4406 117.073C32.6932 117.162 33.2876 117.369 33.7779 117.532C34.2683 117.694 34.8775 117.916 35.1153 118.02C35.6651 118.241 36.3338 118.463 37.5671 118.862C38.5924 119.187 38.7261 119.232 39.8554 119.705C40.2566 119.882 40.7173 120.015 40.8807 120.015C41.0442 120.015 41.2968 120.104 41.4157 120.207C41.5494 120.326 42.4558 120.651 43.4365 120.961C45.3237 121.553 47.1068 122.159 47.5972 122.395C47.7606 122.469 48.2361 122.617 48.6373 122.735C49.5289 122.972 58.3999 125.84 59.2618 126.091C60.1236 126.342 61.1638 126.638 61.565 126.771C61.981 126.889 62.516 127.022 62.7537 127.067C63.0063 127.111 63.2738 127.2 63.3481 127.274C63.5858 127.451 65.8593 128.146 67.8802 128.663C68.4151 128.796 80.9862 132.522 81.4765 132.67C81.9669 132.803 82.903 133.098 83.5568 133.335C85.0279 133.837 85.4143 133.867 85.4143 133.468ZM83.4528 127.969C83.4825 127.673 83.4231 127.555 83.1705 127.481C82.695 127.333 82.3532 127.717 82.591 128.131C82.8287 128.604 83.3934 128.486 83.4528 127.969ZM172.342 127.333C172.683 127.215 173.218 127.111 173.53 127.111C173.842 127.111 174.169 127.022 174.258 126.904C174.362 126.786 174.675 126.668 174.987 126.623C176.116 126.475 177.141 126.121 179.474 125.086C180.811 124.48 182.06 123.741 184.378 122.129C185.418 121.405 187.171 119.66 187.647 118.847C187.855 118.507 188.167 117.99 188.345 117.709C188.94 116.807 188.925 116.571 188.286 116.275C187.974 116.127 187.468 115.861 187.156 115.699C186.413 115.329 185.299 114.989 185.061 115.078C184.957 115.122 184.779 115.048 184.675 114.915C184.571 114.797 184.333 114.693 184.155 114.693C183.962 114.693 183.62 114.605 183.382 114.486C182.832 114.22 182.06 113.954 181.406 113.806C181.123 113.747 180.618 113.585 180.291 113.437C179.593 113.126 179.4 113.052 178.211 112.668C177.721 112.505 176.458 112.062 175.388 111.663C172.906 110.761 172.966 110.791 172.297 110.495C171.985 110.362 171.628 110.258 171.509 110.258C171.376 110.258 171.079 110.155 170.841 110.037C170.603 109.918 170.217 109.711 169.979 109.593C169.741 109.475 169.459 109.371 169.355 109.371C169.266 109.371 168.835 109.209 168.404 109.017C167.587 108.618 166.858 108.351 165.358 107.849C164.823 107.671 164.332 107.45 164.273 107.346C164.214 107.243 164.035 107.154 163.872 107.154C163.723 107.154 163.411 107.051 163.173 106.947C162.95 106.829 162.118 106.489 161.346 106.193C160.573 105.897 159.875 105.587 159.8 105.513C159.711 105.439 159.563 105.38 159.459 105.38C159.355 105.38 158.805 105.173 158.255 104.922C157.259 104.449 156.606 104.168 155.773 103.813C155.253 103.591 153.797 102.956 152.95 102.571C152.623 102.423 152.029 102.172 151.613 102.01C150.825 101.684 147.586 100.206 146.887 99.8364C146.65 99.7182 146.382 99.6147 146.263 99.6147C146.159 99.6147 145.996 99.5112 145.892 99.3929C145.788 99.2747 145.58 99.1712 145.431 99.1712C145.283 99.1712 144.822 98.979 144.406 98.7277C143.99 98.4912 143.559 98.2842 143.455 98.2842C143.336 98.2842 143.173 98.1807 143.069 98.0625C142.965 97.9442 142.801 97.8407 142.712 97.8407C142.534 97.8407 137.987 95.6085 137.868 95.4606C137.823 95.4015 137.422 95.2093 136.976 95.0319C136.531 94.8398 136.055 94.6032 135.921 94.485C135.802 94.3815 135.58 94.2928 135.446 94.2928C135.312 94.2928 135.163 94.2336 135.119 94.1449C135.074 94.071 134.48 93.731 133.811 93.4058C133.143 93.0806 132.489 92.7406 132.37 92.6666C132.251 92.5927 131.85 92.4005 131.478 92.2231C131.107 92.0605 130.706 91.8536 130.587 91.7944C130.245 91.6023 129.443 91.1883 127.986 90.4196C125.535 89.1335 122.31 87.6256 121.448 87.3595C121.121 87.256 120.72 87.123 120.557 87.0491C120.111 86.8717 118.967 86.5465 118.625 86.5169C116.827 86.3099 115.906 86.2951 114.806 86.4578C113.647 86.6352 113.201 86.7239 110.898 87.2856C110.408 87.4039 109.709 87.5665 109.338 87.6552C108.981 87.7291 108.61 87.8622 108.535 87.9361C108.446 88.0248 108.194 88.0839 107.971 88.0839C107.733 88.0839 107.362 88.1726 107.139 88.2909C106.916 88.3943 106.307 88.5422 105.772 88.5865C105.252 88.6457 104.583 88.7935 104.315 88.9117C104.033 89.03 103.558 89.1187 103.26 89.1187C102.963 89.1335 102.562 89.2222 102.354 89.3405C102.146 89.4587 101.804 89.5474 101.596 89.5622C101.388 89.5622 100.883 89.6657 100.482 89.7839C98.6985 90.3457 98.2528 90.4935 98.119 90.6118C98.0447 90.6857 97.8664 90.7448 97.7178 90.7448C97.3761 90.7448 97.2275 91.144 97.0937 92.3266C97.0343 92.9032 97.0492 93.2727 97.1532 93.3319C97.2275 93.3762 97.3018 93.6867 97.3018 93.9971C97.3018 95.2241 99.3375 97.8703 101.641 99.6295C102.265 100.103 102.829 100.502 102.874 100.502C102.933 100.502 103.275 100.694 103.632 100.945C104.003 101.182 104.672 101.596 105.148 101.847C105.608 102.113 106.232 102.497 106.515 102.719C106.797 102.941 107.436 103.34 107.926 103.606C108.417 103.872 109.858 104.774 111.121 105.602C112.384 106.415 113.959 107.42 114.613 107.819C115.267 108.218 116.218 108.825 116.708 109.165C117.213 109.505 118.045 109.992 118.551 110.244C119.056 110.495 119.725 110.909 120.037 111.145C120.349 111.397 120.676 111.589 120.78 111.589C120.884 111.589 121.27 111.796 121.656 112.047C122.815 112.831 132.637 117.798 133.024 117.798C133.128 117.798 133.306 117.901 133.41 118.02C133.514 118.138 133.707 118.241 133.856 118.241C134.004 118.241 134.198 118.345 134.302 118.463C134.406 118.581 134.599 118.685 134.747 118.685C134.896 118.685 135.089 118.788 135.193 118.907C135.297 119.025 135.49 119.128 135.639 119.128C135.788 119.128 136.1 119.232 136.322 119.35C136.56 119.468 136.857 119.572 136.991 119.572C137.125 119.572 137.318 119.675 137.422 119.794C137.526 119.912 137.734 120.015 137.883 120.015C138.046 120.015 138.284 120.074 138.433 120.148C139.116 120.518 140.067 120.902 140.29 120.902C140.424 120.902 140.557 120.961 140.602 121.035C140.647 121.109 141.271 121.331 141.984 121.553C142.712 121.774 143.41 122.011 143.544 122.085C143.693 122.174 143.916 122.233 144.035 122.233C144.168 122.233 144.421 122.321 144.599 122.44C144.777 122.558 145.164 122.691 145.461 122.735C145.773 122.794 146.219 122.942 146.486 123.061C146.739 123.194 147.304 123.386 147.72 123.489C148.151 123.593 149.027 123.829 149.681 124.007C150.335 124.184 151.033 124.361 151.241 124.406C151.449 124.45 151.687 124.539 151.761 124.598C151.851 124.657 152.148 124.761 152.43 124.82C152.712 124.879 153.024 124.982 153.099 125.042C153.188 125.101 161.955 126.756 162.133 126.875C162.43 127.067 162.891 127.126 166.026 127.407C168.374 127.599 171.658 127.569 172.342 127.333ZM85.3548 126.135C86.499 125.914 88.0147 125.485 88.9062 125.115C89.6343 124.82 90.5259 124.421 90.7636 124.302C91.6255 123.829 94.6122 122.395 95.5929 121.981C96.2468 121.701 97.0492 121.346 97.3761 121.198C98.3716 120.74 100.333 119.838 100.645 119.705C101.076 119.513 102.844 118.877 104.078 118.463C104.672 118.271 105.266 118.049 105.415 117.975C105.578 117.887 106.128 117.709 106.663 117.561C108.194 117.162 109.041 116.911 110.081 116.541C110.928 116.246 112.131 115.876 113.721 115.418C113.974 115.344 114.598 115.166 115.133 115.004C117.585 114.279 119.398 113.806 119.754 113.806C120.215 113.806 120.869 113.333 120.72 113.097C120.676 113.008 120.408 112.905 120.141 112.846C119.888 112.786 119.294 112.535 118.848 112.299C118.402 112.047 117.733 111.678 117.362 111.471C116.99 111.279 116.589 111.012 116.456 110.909C116.337 110.791 116.158 110.702 116.084 110.702C116.01 110.702 115.623 110.48 115.207 110.199C113.855 109.298 112.384 108.381 112.013 108.189C111.805 108.085 111.27 107.716 110.824 107.391C109.917 106.725 109.561 106.489 109.115 106.267C108.952 106.178 108.639 106.001 108.431 105.853C108.223 105.72 107.391 105.203 106.589 104.715C105.801 104.227 104.984 103.724 104.806 103.606C104.613 103.488 103.87 103.03 103.142 102.586C99.7387 100.516 96.9897 97.8998 96.2467 95.9928C96.113 95.6676 95.9198 95.165 95.801 94.8841C95.697 94.6032 95.5781 93.7015 95.5484 92.8736C95.5038 91.5579 95.5632 90.937 95.9198 88.823C95.9644 88.5422 96.0982 88.1726 96.2022 88.01C96.321 87.8474 96.4102 87.5813 96.4102 87.3891C96.4102 87.0639 96.9451 86.1621 97.807 85.0682C98.3716 84.3438 99.9319 83.2055 100.363 83.2055C100.957 83.2055 100.913 82.895 100.244 82.2002C99.4564 81.3576 98.6391 80.2045 98.6391 79.9089C98.6391 79.7906 98.5351 79.6132 98.4162 79.5097C98.2973 79.4062 98.1933 79.2584 98.1933 79.1845C98.1933 79.0958 98.1042 78.8297 97.9853 78.5784C97.0046 76.4496 96.2616 73.8182 96.2616 72.4582C96.2616 72.2069 96.1725 71.793 96.0536 71.5269C95.9496 71.2608 95.8901 70.7729 95.9198 70.4329C95.9644 70.0486 95.905 69.6051 95.7564 69.2503C95.5929 68.8659 95.5186 68.2303 95.5186 67.2989C95.5186 66.545 95.4444 65.7467 95.3403 65.5102C95.2363 65.2737 95.1026 63.6919 95.0283 61.6961C94.8797 58.0447 94.8054 46.2626 94.9243 45.287C95.0134 44.5774 94.7905 44.4887 93.6761 44.8139C92.7845 45.08 91.15 45.4791 89.664 45.8044C89.248 45.8783 88.713 46.0113 88.4753 46.0852C88.0444 46.2183 87.6878 46.3218 85.4886 46.9131C83.75 47.3862 80.1689 48.4801 77.9103 49.234C77.6725 49.3079 77.2713 49.4262 77.0187 49.5001C76.781 49.574 76.2015 49.7662 75.7557 49.9436C75.3099 50.121 74.6115 50.3575 74.1954 50.4758C73.7942 50.5793 72.5906 50.9784 71.5208 51.3628C70.4657 51.7324 69.1878 52.1759 68.6975 52.3385C66.1417 53.1959 65.2352 53.5211 64.8638 53.7133C64.626 53.8316 64.3437 53.935 64.2397 53.935C64.1356 53.935 63.8533 54.0237 63.6156 54.142C62.932 54.4968 61.4758 55.0733 60.4654 55.4133C59.9304 55.5907 59.3658 55.8273 59.2023 55.9455C59.0389 56.0638 58.7863 56.1525 58.6525 56.1525C58.5188 56.1525 58.0433 56.3595 57.5827 56.596C57.122 56.8473 56.6465 57.0395 56.5276 57.0395C56.3048 57.0395 55.8441 57.2169 54.4028 57.8673C53.9867 58.0595 53.6003 58.2221 53.5409 58.2221C53.4963 58.2221 52.9465 58.4587 52.3373 58.7395C51.7281 59.0204 51.1783 59.2569 51.1188 59.2569C51.0445 59.2569 50.5988 59.4639 50.1233 59.7004C49.6478 59.9517 49.1574 60.1439 49.0385 60.1439C48.9196 60.1439 48.6522 60.2326 48.4441 60.3509C47.7606 60.7057 46.0518 61.4744 45.9478 61.4744C45.8883 61.4744 45.2345 61.7701 44.4618 62.1396C43.704 62.5092 43.0205 62.8049 42.9462 62.8049C42.8719 62.8049 42.1735 63.1153 41.4157 63.5145C40.643 63.8988 39.588 64.4015 39.053 64.638C38.0723 65.0519 35.4571 66.2937 35.041 66.5154C34.9221 66.5746 34.5209 66.7815 34.1494 66.9441C33.7779 67.1215 33.3767 67.3137 33.2579 67.3876C32.6338 67.7572 30.8358 68.5703 30.6575 68.5703C30.5386 68.5703 30.4197 68.6294 30.3603 68.7181C30.3157 68.792 29.3201 69.3242 28.1611 69.9155C27.0021 70.4921 25.8579 71.0982 25.6053 71.246C25.3675 71.3938 25.0555 71.5712 24.9366 71.6304C24.8177 71.6747 24.4463 71.8965 24.1193 72.1034C23.7924 72.3104 23.2872 72.5913 23.0049 72.7391C22.2322 73.1235 20.8354 74.5131 20.4937 75.2374C20.3153 75.607 20.1816 76.1688 20.1816 76.5679C20.1816 76.9375 20.0776 77.4992 19.9587 77.7801C19.8398 78.0906 19.7358 78.7706 19.7358 79.3323C19.7358 79.8941 19.6318 81.0028 19.5129 81.8159C19.2009 83.8412 19.2009 90.1092 19.5129 91.5579C19.6318 92.1197 19.7358 93.2727 19.7358 94.1006C19.7358 95.1502 20.1816 96.9833 20.137 97.1903C20.0033 97.9294 21.519 101.906 22.6483 103.71C24.684 106.977 28.7852 111.145 29.9591 111.145C30.1225 111.145 30.3306 111.249 30.4346 111.367C30.5386 111.485 31.5639 111.796 32.188 112.047C33.8077 112.698 35.0856 113.156 35.8583 113.363C36.1109 113.437 36.9727 113.732 37.79 114.028C38.6072 114.324 40.0783 114.826 41.059 115.152C42.0398 115.477 42.9016 115.802 42.9759 115.891C43.0651 115.965 43.2582 116.024 43.4068 116.024C43.6743 116.024 44.5807 116.275 45.7397 116.689C46.0221 116.793 46.6907 117 47.2257 117.133C47.7606 117.266 48.4144 117.473 48.6819 117.591C48.9494 117.709 49.3506 117.798 49.5735 117.798C49.7963 117.813 50.1381 117.901 50.3461 118.02C50.7622 118.256 52.2927 118.315 52.5156 118.108C52.5899 118.034 53.0208 117.842 53.4666 117.68C55.6212 116.911 56.5425 116.512 58.8457 115.359C61.8324 113.866 61.4461 114.072 63.7493 112.712C64.7895 112.092 65.681 111.589 65.7405 111.589C65.7999 111.589 65.9633 111.5 66.0822 111.382C66.216 111.264 66.7955 110.924 67.3601 110.628C67.9396 110.318 68.6083 109.918 68.8758 109.726C69.1284 109.534 69.4404 109.371 69.5445 109.371C69.6485 109.357 70.0051 109.194 70.332 109.002C71.075 108.558 73.928 107.154 74.0766 107.154C74.1509 107.154 74.5075 106.991 74.879 106.799C75.726 106.341 76.9593 105.897 78.579 105.454C79.2773 105.277 80.1838 105.025 80.585 104.907C81.2685 104.7 83.334 104.153 85.2657 103.68C86.9299 103.251 88.0444 103.015 88.3267 103.015C88.4753 103.015 88.8765 102.911 89.2034 102.793C89.5303 102.675 90.0355 102.586 90.3327 102.571C90.6299 102.571 90.9122 102.527 90.9717 102.468C91.1797 102.261 93.4978 102.01 93.6166 102.187C93.8395 102.527 93.4383 102.867 92.7697 102.867C92.413 102.867 92.0861 102.926 92.0415 103C91.997 103.074 91.5958 103.177 91.1351 103.237C90.6893 103.281 90.2881 103.399 90.2436 103.473C90.1841 103.547 89.9315 103.606 89.664 103.606C89.3966 103.606 89.0548 103.71 88.8914 103.828C88.7428 103.946 88.3564 104.05 88.0592 104.05C87.7472 104.05 87.2866 104.138 87.0191 104.257C86.7516 104.36 85.9938 104.567 85.34 104.7C83.4677 105.084 82.5018 105.35 81.8183 105.691C81.6697 105.764 81.4617 105.824 81.3428 105.824C81.0753 105.824 77.9846 106.814 77.6577 107.006C77.5091 107.08 77.2862 107.154 77.1525 107.154C76.885 107.154 73.1256 108.884 72.7689 109.179C72.6501 109.283 72.4272 109.371 72.3083 109.371C72.1746 109.371 71.9963 109.475 71.8922 109.593C71.7882 109.711 71.6099 109.815 71.5059 109.815C71.387 109.815 71.0155 110.022 70.6738 110.258C70.3469 110.51 70.0051 110.702 69.9159 110.702C69.8416 110.702 69.485 110.909 69.1135 111.145C68.7569 111.397 68.4151 111.589 68.3706 111.589C68.326 111.589 67.583 112.018 66.7063 112.535C65.1312 113.481 64.834 113.644 62.5903 114.856C61.2678 115.58 57.8204 117.295 57.4786 117.428C57.3598 117.458 57.1517 117.561 57.0329 117.635C56.4979 117.96 54.8634 118.552 54.3136 118.626C53.5855 118.714 53.5112 118.774 53.7044 119.099C53.853 119.32 54.9228 119.675 56.4831 120C56.7951 120.074 57.1369 120.207 57.226 120.296C57.3152 120.385 57.5232 120.459 57.7015 120.459C57.8798 120.459 58.073 120.518 58.1473 120.592C58.2365 120.666 58.816 120.902 59.4549 121.109C60.0939 121.331 60.7626 121.567 60.9409 121.627C61.1192 121.701 61.669 121.863 62.1593 122.011C62.6497 122.144 63.2887 122.351 63.571 122.454C64.5666 122.809 68.8461 124.081 69.8862 124.332C70.2131 124.406 70.6886 124.539 70.9264 124.628C71.179 124.716 71.6693 124.82 72.0408 124.849C72.4123 124.879 72.8135 124.953 72.9324 124.997C73.1553 125.101 74.5223 125.396 75.83 125.633C76.246 125.707 77.3754 125.869 78.3412 126.002C79.3219 126.121 80.1541 126.254 80.1838 126.298C80.3621 126.475 84.2701 126.357 85.3548 126.135ZM189.133 115.255C189.118 114.753 188.583 113.245 188.152 112.505C187.751 111.84 187.112 111.19 186.25 110.613C185.477 110.081 184.051 109.371 183.783 109.371C183.635 109.371 183.442 109.268 183.338 109.15C183.234 109.031 183.04 108.928 182.907 108.928C182.773 108.928 182.595 108.869 182.52 108.795C182.431 108.721 181.703 108.381 180.886 108.041C180.068 107.701 179.34 107.361 179.266 107.287C179.177 107.213 179.028 107.154 178.924 107.154C178.82 107.154 178.389 106.991 177.958 106.799C177.528 106.592 176.502 106.164 175.685 105.824C174.868 105.484 174.14 105.144 174.05 105.07C173.976 104.996 173.798 104.937 173.664 104.937C173.53 104.937 173.01 104.744 172.52 104.493C172.015 104.257 171.569 104.05 171.524 104.05C171.48 104.05 170.752 103.754 169.92 103.384C168.3 102.66 168.092 102.557 166.457 101.847C165.878 101.596 165.298 101.389 165.165 101.389C165.031 101.389 164.897 101.33 164.852 101.256C164.808 101.182 164.347 100.96 163.842 100.753C163.322 100.546 162.52 100.206 162.059 99.999C161.598 99.7921 161.123 99.6147 160.989 99.6147C160.87 99.6147 160.736 99.5555 160.677 99.4816C160.632 99.4077 160.35 99.2599 160.038 99.1712C159.741 99.0677 158.849 98.6981 158.077 98.3285C157.304 97.959 156.531 97.6042 156.368 97.545C156.204 97.4711 155.372 97.1163 154.51 96.7468C153.649 96.3772 152.906 96.0667 152.846 96.0667C152.787 96.0667 152.192 95.8007 151.538 95.4902C150.87 95.165 150.186 94.8545 150.008 94.7954C149.83 94.751 149.295 94.5145 148.804 94.278C148.329 94.0415 147.883 93.8493 147.809 93.8493C147.734 93.8493 147.259 93.6571 146.739 93.4206C144.881 92.5632 144.02 92.1788 143.143 91.8536C142.653 91.6614 142.058 91.4101 141.806 91.2918C141.568 91.1736 140.959 90.8927 140.468 90.6709C139.978 90.4492 139.339 90.1683 139.057 90.0353C138.774 89.917 138.299 89.71 138.016 89.5918C137.734 89.4587 137.259 89.2518 136.976 89.1187C136.694 88.9709 136.293 88.8083 136.085 88.7491C135.877 88.69 135.223 88.4091 134.629 88.143C134.019 87.8622 133.455 87.6404 133.336 87.6404C133.232 87.6404 133.068 87.5369 132.964 87.4187C132.86 87.3004 132.667 87.1969 132.533 87.1969C132.325 87.1969 131.166 86.6943 129.948 86.0734C129.71 85.9551 129.428 85.8664 129.309 85.8664C129.19 85.8664 128.729 85.6743 128.284 85.4229C127.838 85.1864 127.422 84.9795 127.333 84.9795C127.243 84.9795 126.723 84.7725 126.174 84.5212C125.624 84.2699 124.97 83.989 124.717 83.8855C121.315 82.4368 121.136 82.3776 119.294 81.8898C118.922 81.7863 118.432 81.6533 118.179 81.5794C117.466 81.3576 113.974 81.3428 113.766 81.5498C113.662 81.6533 113.365 81.7272 113.097 81.7272C112.83 81.7272 112.295 81.875 111.909 82.0524C111.507 82.215 110.958 82.4663 110.675 82.5846C110.393 82.7029 109.977 82.895 109.754 83.0133C109.546 83.1168 109.174 83.2055 108.937 83.2055C108.699 83.2055 108.431 83.2794 108.327 83.3829C108.149 83.5603 107.48 83.6933 105.623 83.9446C105.014 84.0333 104.301 84.1664 104.048 84.2551C103.795 84.329 103.305 84.3586 102.978 84.2994C102.488 84.2255 102.131 84.2994 101.18 84.6838C99.6793 85.2751 99.07 85.9108 98.0745 87.8621C97.8961 88.1874 97.7178 88.6309 97.6733 88.8674C97.6138 89.0891 97.5098 89.2665 97.4355 89.2665C97.3612 89.2665 97.3018 89.4735 97.3018 89.71C97.3018 90.257 97.5692 90.2866 98.0745 89.8135C98.2825 89.6213 98.8769 89.3109 99.3969 89.1187C99.917 88.9265 100.407 88.7196 100.497 88.6457C100.571 88.5865 100.794 88.5274 101.017 88.5274C101.373 88.5274 102.666 88.2613 105.474 87.6108C106.173 87.4482 107.035 87.256 107.406 87.1821C107.778 87.1082 108.209 86.99 108.372 86.9308C108.535 86.8569 109.07 86.6943 109.561 86.576C111.255 86.1473 112.978 85.7038 113.573 85.5264C114.345 85.2899 118.283 85.2899 119.071 85.5264C119.398 85.6151 120.096 85.7777 120.631 85.8812C121.166 85.9847 121.76 86.1621 121.968 86.2656C122.176 86.3691 122.384 86.4578 122.444 86.4578C122.637 86.4578 128.358 89.1926 129.249 89.71C129.368 89.7692 129.77 89.9761 130.141 90.1535C130.512 90.3309 131.047 90.597 131.315 90.7596C131.597 90.9075 131.998 91.0996 132.206 91.1883C132.429 91.2622 133.024 91.5727 133.559 91.8684C134.094 92.1492 134.955 92.6223 135.49 92.9032C136.025 93.184 136.56 93.4797 136.679 93.5536C136.798 93.6275 137.437 93.9232 138.091 94.2189C138.745 94.5145 139.384 94.825 139.502 94.8989C139.755 95.0467 143.826 97.0424 146.041 98.092C146.813 98.4616 147.571 98.8164 147.705 98.8903C147.853 98.9642 148.061 99.0234 148.165 99.0234C148.284 99.0234 148.492 99.1564 148.641 99.319C148.789 99.4816 149.057 99.6147 149.22 99.6147C149.399 99.6147 149.666 99.7182 149.815 99.8364C149.978 99.9547 150.261 100.058 150.439 100.058C150.617 100.058 150.796 100.162 150.855 100.28C150.9 100.398 151.093 100.502 151.286 100.502C151.494 100.502 151.732 100.605 151.836 100.723C151.94 100.842 152.177 100.945 152.356 100.945C152.534 100.945 152.772 101.049 152.876 101.167C152.98 101.285 153.128 101.389 153.203 101.389C153.366 101.389 153.857 101.596 155.328 102.29C155.818 102.512 157.051 103.044 158.077 103.473C159.102 103.887 160.008 104.286 160.083 104.345C160.172 104.404 161.034 104.759 162.014 105.144C162.995 105.528 163.931 105.897 164.095 105.971C164.258 106.045 164.659 106.208 164.986 106.326C165.818 106.607 167.141 107.154 167.616 107.391C167.824 107.509 168.107 107.598 168.226 107.598C168.359 107.598 168.642 107.686 168.879 107.804C169.102 107.923 169.563 108.13 169.89 108.278C170.217 108.411 170.663 108.618 170.885 108.736C171.093 108.839 171.405 108.928 171.569 108.928C171.732 108.928 171.94 109.031 172.044 109.15C172.148 109.268 172.401 109.371 172.624 109.371C172.847 109.371 173.085 109.431 173.159 109.505C173.293 109.638 174.318 110.037 174.868 110.185C175.15 110.258 176.502 110.746 177.542 111.145C177.988 111.323 178.493 111.5 178.657 111.545C178.82 111.589 179.162 111.707 179.4 111.811C179.652 111.914 180.113 112.077 180.44 112.18C180.767 112.284 181.242 112.446 181.48 112.565C181.733 112.668 182.431 112.919 183.04 113.126C183.65 113.333 184.526 113.644 184.972 113.806C185.418 113.984 185.953 114.176 186.161 114.25C186.889 114.486 187.706 114.871 188.226 115.226C188.88 115.669 189.133 115.669 189.133 115.255ZM6.89733 113.23C6.97163 113.156 7.566 112.949 8.21982 112.772C9.83949 112.328 11.2214 111.796 12.4547 111.145C15.1146 109.741 15.9616 109.371 16.6451 109.371C17.0314 109.371 17.3732 109.312 17.4178 109.253C17.4623 109.179 17.2989 108.928 17.076 108.677C15.8575 107.346 14.8322 105.809 14.8322 105.291C14.8322 105.203 14.7282 105.04 14.6093 104.937C14.4905 104.833 14.3865 104.641 14.3865 104.508C14.3865 104.375 14.2824 104.079 14.1636 103.843C14.0447 103.621 13.9407 103.281 13.9407 103.103C13.9407 102.941 13.0491 99.7477 13.0491 98.7425C13.0491 97.959 12.9748 96.732 12.8857 95.9928C12.6776 94.0415 12.5736 81.4611 12.7519 78.9923C12.8411 77.854 12.9748 75.474 13.0491 73.7C13.1383 71.9112 13.2423 70.3886 13.2869 70.3147C13.3463 70.226 13.4503 69.2207 13.5098 68.0676C13.7178 64.7415 13.911 62.6275 14.0596 62.0362C14.1338 61.7405 14.1636 61.1935 14.1338 60.8535C14.0893 60.4544 14.1487 59.9222 14.2973 59.5083C14.431 59.1239 14.5351 58.4734 14.5351 58.0595C14.5351 57.6456 14.6093 57.1873 14.6985 57.0247C14.7728 56.8621 14.8917 56.256 14.9214 55.6647C14.966 55.0733 15.0997 54.3046 15.2334 53.9646C15.3523 53.6098 15.4266 53.1072 15.382 52.8411C15.3375 52.575 15.3969 52.2202 15.5158 52.0132C15.6198 51.8063 15.7238 51.3776 15.7238 51.0523C15.7238 50.7271 15.8278 50.2984 15.9467 50.0914C16.0656 49.8845 16.1547 49.5297 16.1696 49.3079C16.1696 48.8349 16.4816 48.1697 16.8234 47.8888C17.1354 47.6227 17.1354 46.987 16.8234 46.987C16.7045 46.987 16.1399 47.2383 15.6049 47.5635C15.0551 47.874 13.5395 48.6723 12.2318 49.3375C10.9242 50.0028 9.75033 50.6089 9.63146 50.6828C9.51258 50.7567 8.91821 51.0376 8.33869 51.3332C6.77846 52.0724 5.91661 52.8115 5.91661 53.4029C5.91661 53.6542 5.82746 53.9942 5.70858 54.1568C5.60457 54.3194 5.47083 54.7481 5.42625 55.1177C5.38168 55.4873 5.2628 56.1525 5.17365 56.596C4.9359 57.7934 4.713 59.1978 4.59413 60.3213C4.54955 60.8683 4.41582 61.4005 4.3118 61.504C4.20779 61.6075 4.13349 62.0805 4.13349 62.657C4.11863 63.204 4.02947 63.7806 3.9106 63.9875C3.79172 64.1945 3.70257 64.7562 3.68771 65.2884C3.68771 65.8058 3.61341 66.3676 3.5094 66.545C3.40538 66.7224 3.27165 67.5355 3.21221 68.3485C3.13791 69.1616 3.01904 70.3886 2.94474 71.0834C2.87044 71.7782 2.76643 73.0052 2.72185 73.8183C2.66241 74.6313 2.5584 75.4592 2.4841 75.6661C2.4098 75.8731 2.32065 76.7601 2.27607 77.6471C2.23149 78.5193 2.15719 79.3175 2.09775 79.4062C2.03832 79.4949 1.94916 80.8402 1.88972 82.3924C1.81543 83.9299 1.69655 85.8369 1.62225 86.6056C1.3845 88.7344 1.42908 96.2146 1.68169 98.8016C1.80057 100.029 1.90458 101.566 1.90458 102.246C1.90458 102.926 1.97888 103.621 2.0829 103.798C2.18691 103.976 2.27607 104.493 2.29093 104.937C2.30579 105.38 2.39494 106.045 2.4841 106.4C2.70699 107.228 3.49454 109.209 3.85116 109.815C3.92546 109.933 4.14835 110.347 4.35638 110.732C4.54955 111.116 4.7873 111.456 4.8616 111.515C5.03991 111.619 5.82746 112.757 5.96119 113.112C6.06521 113.378 6.64472 113.452 6.89733 113.23ZM190.529 111.811C190.708 111.678 191.154 111.589 191.644 111.589C192.105 111.589 193.041 111.485 193.739 111.367C194.438 111.249 195.255 111.145 195.567 111.145C195.923 111.145 196.399 110.998 196.83 110.746C198.39 109.83 199.103 108.943 199.579 107.331C199.831 106.518 199.891 94.8841 199.668 93.9232C199.564 93.5241 199.43 91.9866 199.371 90.5231C199.193 86.103 198.97 82.895 198.776 82.1411C198.687 81.742 198.643 81.2098 198.687 80.9437C198.717 80.6776 198.658 79.8349 198.554 79.0662C198.45 78.2975 198.346 77.1888 198.346 76.627C198.346 76.0505 198.271 75.3557 198.197 75.0748C198.033 74.5426 197.781 72.1182 197.617 69.4573C197.573 68.5998 197.439 67.7572 197.35 67.5798C197.246 67.4024 197.157 66.752 197.157 66.1015C197.142 65.3771 197.068 64.8154 196.934 64.5788C196.815 64.3719 196.726 63.8988 196.711 63.5292C196.711 63.1301 196.622 62.7753 196.503 62.6718C196.399 62.5831 196.265 62.317 196.221 62.0953C196.117 61.637 195.626 61.09 192.699 58.1482C188.241 53.6542 183.263 48.8792 180.217 46.1739C179.236 45.287 177.646 43.853 175.744 42.0938C174.808 41.2216 173.486 40.039 172.787 39.4329C172.089 38.8415 171.079 37.9546 170.544 37.4667C169.474 36.4763 167.171 34.5249 163.456 31.4352C162.386 30.5483 160.172 28.8186 158.76 27.769C158.166 27.3256 156.739 26.2612 155.61 25.4038C154.466 24.5463 153.396 23.7481 153.218 23.6298C153.054 23.5115 152.281 22.9793 151.509 22.4619C150.751 21.9445 149.993 21.3976 149.83 21.2645C149.666 21.1167 149.324 20.8801 149.057 20.7175C148.804 20.5697 148.002 20.0523 147.304 19.5645C146.59 19.0766 145.907 18.6036 145.773 18.5296C145.639 18.4409 145.119 18.1157 144.629 17.7905C143.44 17.007 143.202 16.8592 142.846 16.6818C142.682 16.5931 142.355 16.4009 142.103 16.2383C141.865 16.0757 141.404 15.8243 141.107 15.6469C140.81 15.4843 140.513 15.2774 140.468 15.2035C140.409 15.1148 140.216 14.9669 140.052 14.893C139.874 14.8191 139.324 14.5234 138.834 14.2278C138.343 13.9469 137.823 13.666 137.69 13.6217C137.541 13.5773 137.422 13.4886 137.422 13.4147C137.422 13.3408 137.199 13.193 136.947 13.0747C136.679 12.9564 136.129 12.6608 135.713 12.4095C135.312 12.1729 134.569 11.759 134.079 11.4929C133.588 11.2416 133.113 10.9755 133.039 10.9016C132.89 10.7833 130.156 9.37893 126.099 7.32409C124.896 6.7032 123.469 5.97883 122.904 5.69795C122.355 5.41707 121.79 5.1362 121.671 5.09185C121.552 5.0475 121.344 4.94402 121.225 4.8701C120.453 4.41183 116.931 2.93352 116.634 2.93352C116.5 2.93352 116.188 3.98312 116.114 4.72227C116.099 4.92923 116.01 5.19533 115.935 5.31359C115.564 5.89013 114.94 10.4433 114.687 14.4643C114.613 15.6469 114.494 17.0366 114.405 17.5687C114.316 18.1009 114.241 19.7566 114.241 21.2645C114.241 22.7724 114.137 24.6942 114.019 25.5516C113.707 27.7838 113.707 40.512 114.019 43.8087C114.137 45.1096 114.241 47.5783 114.241 49.2784C114.241 50.9932 114.316 52.6489 114.405 52.9741C114.494 53.2994 114.583 54.4968 114.598 55.6351C114.613 56.7734 114.717 58.1334 114.806 58.6656C115.014 59.8926 115.326 63.0118 115.311 63.7214C115.296 64.0171 115.386 64.5493 115.505 64.8893C115.623 65.2293 115.727 65.7911 115.727 66.1459C115.727 66.4859 115.802 66.8259 115.876 66.8702C115.965 66.9146 116.025 67.225 116.025 67.565C116.025 67.8902 116.129 68.4668 116.247 68.8511C116.366 69.2207 116.604 70.019 116.782 70.5955C116.946 71.1869 117.154 71.7043 117.228 71.7486C117.302 71.8078 117.362 71.9408 117.362 72.0739C117.362 72.5469 118.684 75.2374 119.591 76.5975C119.962 77.1592 120.334 77.721 120.408 77.8688C120.497 78.0166 120.676 78.2532 120.824 78.3862C120.973 78.534 121.315 78.9923 121.582 79.421C122.206 80.3819 123.588 81.6828 124.138 81.8159C124.361 81.875 124.717 82.0081 124.925 82.1115C125.133 82.2298 125.416 82.3185 125.549 82.3185C125.668 82.3185 125.906 82.422 126.07 82.5403C126.218 82.6585 126.471 82.762 126.604 82.762C126.738 82.762 127.035 82.8655 127.273 82.9837C127.838 83.2646 129.041 83.7968 130.661 84.462C131.404 84.7577 132.177 85.0977 132.4 85.216C132.608 85.3342 132.89 85.4229 133.009 85.4229C133.128 85.4229 133.306 85.5264 133.41 85.6447C133.514 85.763 133.707 85.8664 133.841 85.8664C133.99 85.8664 134.524 86.0734 135.059 86.3099C136.248 86.8717 136.917 87.1821 137.496 87.4187C138.284 87.7439 140.141 88.557 141.063 88.9709C141.553 89.1926 142.251 89.4883 142.623 89.6361C142.994 89.7839 143.708 90.0944 144.228 90.3309C144.733 90.5527 145.208 90.7448 145.283 90.7448C145.357 90.7448 146.085 91.0553 146.887 91.4249C147.69 91.7944 148.76 92.2971 149.265 92.5336C149.785 92.7701 150.29 92.9623 150.409 92.9623C150.513 92.9623 150.691 93.0658 150.796 93.184C150.9 93.3023 151.108 93.4058 151.241 93.4058C151.39 93.4058 151.702 93.5093 151.94 93.6128C152.163 93.731 152.46 93.8641 152.579 93.9084C152.698 93.9528 152.906 94.0562 153.024 94.1154C153.723 94.5145 154.273 94.7363 154.495 94.7363C154.629 94.7363 154.808 94.7954 154.897 94.8693C154.971 94.9432 155.461 95.1798 155.996 95.4015C157.2 95.8893 157.809 96.1554 158.716 96.5989C159.117 96.7911 159.518 96.9537 159.637 96.9537C159.741 96.9537 159.904 97.0572 160.008 97.1755C160.112 97.2937 160.32 97.3972 160.469 97.3972C160.722 97.3972 161.925 97.8998 163.173 98.5207C163.411 98.639 163.679 98.7277 163.797 98.7277C163.901 98.7277 164.065 98.8312 164.169 98.9494C164.273 99.0677 164.511 99.1712 164.689 99.1712C164.867 99.1712 165.105 99.2747 165.209 99.3929C165.313 99.5112 165.551 99.6147 165.729 99.6147C165.908 99.6147 166.145 99.7182 166.249 99.8364C166.353 99.9547 166.591 100.058 166.769 100.058C166.948 100.058 167.185 100.162 167.289 100.28C167.393 100.398 167.601 100.502 167.735 100.502C167.884 100.502 168.196 100.59 168.434 100.709C169.414 101.196 171.287 102.024 172.416 102.497C172.698 102.616 173.159 102.808 173.426 102.926C173.679 103.03 174.392 103.34 175.001 103.591C175.596 103.843 176.175 104.05 176.279 104.05C176.383 104.05 176.547 104.153 176.651 104.271C176.755 104.39 176.993 104.493 177.171 104.493C177.364 104.493 177.542 104.597 177.602 104.715C177.646 104.833 177.84 104.937 178.033 104.937C178.226 104.937 178.434 104.996 178.523 105.07C178.597 105.144 179.4 105.513 180.291 105.897C181.198 106.282 182.149 106.711 182.416 106.873C182.684 107.021 182.996 107.154 183.1 107.154C183.204 107.154 183.62 107.331 184.021 107.538C184.422 107.745 185.091 108.056 185.492 108.204C186.339 108.514 187.959 109.623 188.583 110.318C188.806 110.569 189.177 111.057 189.385 111.412C189.772 112.062 190.054 112.165 190.529 111.811ZM26.2442 110.436C26.274 110.332 26.0808 110.066 25.8133 109.845C24.8326 109.046 23.1089 107.361 22.7969 106.917C21.6973 105.336 20.7611 103.843 20.3599 103.015C19.7061 101.655 18.666 98.7573 18.6065 98.1364C18.4728 96.6285 18.2202 94.6032 18.1013 94.2189C17.7744 93.051 17.819 82.3185 18.1756 78.6967C18.5025 75.3557 18.7551 74.4983 19.6913 73.493C19.8844 73.2713 19.7953 72.7982 19.4981 72.5469C19.3792 72.4582 19.2901 72.2069 19.2901 71.9852C19.2901 71.7634 19.2158 71.5121 19.1117 71.4086C18.874 71.1721 18.8294 69.9155 18.8294 62.9527C18.8294 54.7038 19.1117 48.894 19.5575 48.0662C19.8398 47.5488 19.7656 47.3566 19.1712 47.0905C18.4876 46.7948 18.1905 46.78 17.9973 47.0314C17.8041 47.2827 17.5069 48.347 17.5069 48.7905C17.5069 48.9827 17.4029 49.2784 17.284 49.441C17.1652 49.5888 17.0611 50.0471 17.0611 50.461C17.0611 50.875 16.9571 51.3332 16.8383 51.4811C16.7045 51.6585 16.6154 52.1167 16.6154 52.6637C16.6005 53.1663 16.5113 53.7281 16.3925 53.935C16.2736 54.142 16.1844 54.7038 16.1696 55.2064C16.1696 55.709 16.1101 56.3003 16.021 56.5369C15.8427 57.0395 15.6198 58.7248 15.4266 60.7944C15.3672 61.5927 15.2334 62.657 15.1443 63.1597C15.0551 63.6475 14.9214 65.0667 14.8322 66.2789C14.7431 67.5059 14.6391 68.7625 14.6093 69.0877C14.5648 69.4129 14.4756 70.8173 14.4013 72.1921C14.3122 73.5817 14.1933 75.3705 14.1041 76.1835C13.911 78.061 13.911 97.0276 14.1041 98.1364C14.1784 98.5799 15.1443 103.443 15.3523 103.857C15.5603 104.286 15.7238 104.7 15.7238 104.759C15.7238 105.07 17.076 107.302 17.923 108.366C18.5322 109.15 18.6214 109.209 19.2009 109.194C20.5531 109.179 23.5398 109.815 23.7479 109.83C23.9559 109.83 24.4611 110.022 24.8623 110.258C25.635 110.702 26.1254 110.761 26.2442 110.436ZM105.103 82.1855C105.356 82.1115 105.95 82.0081 106.44 81.9637C107.525 81.875 109.056 81.4167 110.452 80.7811C113.573 79.3323 116.366 79.1254 119.145 80.1158C120.081 80.4411 120.408 80.5741 120.824 80.7811C121.285 81.0028 121.82 81.062 121.82 80.8846C121.82 80.8106 121.329 80.2637 120.72 79.6428C119.026 77.8836 117.362 75.2079 116.188 72.3104C116.01 71.8965 115.876 71.4382 115.876 71.3199C115.876 71.1869 115.713 70.6695 115.519 70.1668C115.029 68.9251 114.509 66.7076 114.524 66.0276C114.539 65.7171 114.479 65.3328 114.39 65.1554C114.212 64.8449 114.063 63.4997 113.811 60.1883C113.736 59.1978 113.617 58.296 113.543 58.1926C113.484 58.0891 113.38 57.1725 113.335 56.1525C113.276 55.1325 113.097 51.7767 112.934 48.6871C112.577 42.4782 112.488 29.6761 112.756 26.276C112.83 25.2707 112.934 23.1124 112.978 21.4862C113.023 19.8601 113.112 18.234 113.201 17.8644C113.276 17.4948 114.152 7.97454 114.301 7.60497C114.435 7.29452 115.088 4.13095 115.445 3.73181C115.891 3.24397 115.713 2.5196 115.237 2.90396C114.91 3.17005 109.947 5.59447 109.724 5.59447C109.65 5.59447 108.981 5.89013 108.209 6.25971C107.451 6.62928 106.737 6.92495 106.619 6.92495C106.5 6.92495 106.321 7.02843 106.217 7.14669C106.113 7.26496 105.92 7.36844 105.786 7.36844C105.653 7.36844 105.415 7.45714 105.252 7.56062C105.088 7.6641 104.286 8.03367 103.468 8.40325C102.651 8.75804 101.849 9.15719 101.685 9.29023C101.522 9.42328 101.195 9.61546 100.957 9.73373C100.08 10.1772 99.174 11.2416 98.862 12.2321C98.7134 12.7495 98.5945 13.2964 98.5945 13.4738C98.6094 13.6365 98.5202 13.9617 98.4014 14.1834C98.2973 14.4052 98.1933 14.9965 98.1933 15.4695C98.1933 15.9574 98.0893 16.5931 97.9556 16.9035C97.8367 17.2139 97.7624 17.5983 97.807 17.7757C97.8367 17.9531 97.807 18.5149 97.7327 19.047C97.5395 20.3184 97.3612 22.2698 97.168 25.3298C97.0789 26.7194 96.9303 28.2125 96.8263 28.656C96.7223 29.0995 96.648 30.0013 96.648 30.6517C96.648 31.3022 96.5885 33.1944 96.5291 34.8649C96.3508 38.7233 96.3656 52.6046 96.5291 56.3299C96.6034 57.8969 96.648 59.6856 96.648 60.2918C96.648 60.8979 96.7668 62.1988 96.9154 63.1745C97.0492 64.1501 97.1383 65.1258 97.0937 65.3328C97.0492 65.5397 97.0789 66.1458 97.168 66.6633C97.2423 67.1807 97.3761 68.2746 97.4504 69.0877C97.7476 72.0739 97.8367 72.6356 98.015 72.9608C98.119 73.1382 98.1933 73.493 98.1933 73.7591C98.1933 74.0252 98.2528 74.4391 98.3271 74.6905C99.1146 77.4401 100.066 79.6428 100.957 80.8254C101.24 81.1802 101.537 81.6828 101.641 81.9637L101.819 82.4516L103.231 82.3776C104.018 82.3481 104.865 82.2594 105.103 82.1855ZM21.8607 71.5712C22.2025 71.3643 22.7226 71.0095 23.0049 70.7877C23.2872 70.566 24.1936 70.0338 25.0109 69.6051C25.8282 69.1764 26.7346 68.6885 27.0169 68.5111C27.2993 68.3337 27.9679 67.9937 28.5029 67.7276C29.0378 67.4763 30.5832 66.7372 31.9354 66.0719C33.2876 65.4067 34.4615 64.8745 34.5506 64.8745C34.6249 64.8745 34.8181 64.7415 34.9667 64.5788C35.1153 64.4162 35.3085 64.2832 35.3828 64.2832C35.4571 64.2832 35.7988 64.1501 36.1406 64.0023C36.839 63.6771 38.2803 63.0266 38.7855 62.8049C38.9787 62.731 39.2313 62.5979 39.3502 62.524C39.4691 62.4353 40.1378 62.1249 40.8361 61.8292C41.5345 61.5335 42.649 61.0309 43.3325 60.7205C44.0161 60.3952 44.655 60.1439 44.759 60.1439C44.8779 60.1439 45.0413 60.0404 45.1454 59.9222C45.2494 59.8039 45.398 59.7004 45.4723 59.7004C45.5614 59.7004 46.245 59.4048 47.0176 59.0352C47.7755 58.6656 48.4739 58.37 48.563 58.37C48.667 58.37 48.9196 58.2813 49.1277 58.163C49.3506 58.0595 50.0044 57.7639 50.569 57.5125C51.1486 57.2612 51.9807 56.8917 52.4265 56.6995C52.8722 56.4925 53.6152 56.1821 54.061 56.0047C54.5068 55.8273 55.012 55.6203 55.1754 55.5612C56.1413 55.1473 57.4786 54.6151 57.9987 54.4377C58.3256 54.3194 58.8011 54.1272 59.0389 54.0237C59.2915 53.9055 60.1533 53.5655 60.9706 53.2698C61.7879 52.9741 62.7389 52.5898 63.0806 52.442C63.4224 52.2941 63.7939 52.1611 63.9128 52.1611C64.0316 52.1611 64.2099 52.0576 64.314 51.9393C64.418 51.8211 64.7003 51.7176 64.938 51.7176C65.1758 51.7176 65.5176 51.6289 65.6959 51.5106C65.8742 51.4071 66.3943 51.2002 66.84 51.0523C67.2858 50.9045 67.9991 50.668 68.4003 50.5202C69.1581 50.2393 70.6738 49.6923 71.595 49.3671C71.8774 49.2636 72.3232 49.1306 72.5609 49.0566C73.0364 48.9236 73.5565 48.761 74.4183 48.4653C74.7007 48.3618 75.3099 48.1549 75.7557 48.007C76.2015 47.8444 76.7513 47.6227 76.9741 47.5044C77.1822 47.3862 77.4794 47.2827 77.628 47.2827C77.7765 47.2827 78.1629 47.194 78.5047 47.0757C79.1733 46.854 80.154 46.5435 81.4765 46.1739C81.9669 46.0261 82.4424 45.8635 82.5167 45.7896C82.6059 45.7305 82.9773 45.627 83.334 45.5678C83.6906 45.5087 84.1512 45.3757 84.3593 45.2574C84.5673 45.1539 84.909 45.0652 85.1171 45.0652C85.444 45.0652 86.2761 44.8139 87.1231 44.4739C87.2865 44.4 87.6283 44.3113 87.8661 44.2669C88.6833 44.1339 89.6343 43.9121 90.8231 43.6017C91.462 43.4243 92.1456 43.2912 92.3239 43.2912C92.5022 43.2912 92.9034 43.1878 93.2154 43.0547C93.5275 42.9365 93.9287 42.8625 94.1219 42.9069C94.8648 43.0991 94.85 43.1582 94.8054 38.4424C94.7757 35.7667 94.8203 33.5344 94.9243 32.7214C95.0134 31.9822 95.0877 30.2822 95.1026 28.9517C95.1026 27.296 95.1769 26.3351 95.3106 25.9359C95.4444 25.5812 95.5186 24.709 95.5186 23.5707C95.5335 22.2993 96.3953 17.0661 96.3359 16.8444C96.2913 16.6226 96.321 16.1348 96.4251 15.78C96.5142 15.4252 96.6034 14.8339 96.6331 14.4643C96.6628 14.0947 96.752 13.6069 96.8411 13.3851C96.9303 13.1486 97.0046 12.779 97.0046 12.5573C97.0046 12.3355 97.1086 12.0251 97.2275 11.8625C97.3463 11.7147 97.4504 11.3599 97.4504 11.0938C97.4504 10.7094 97.6138 10.4433 98.2676 9.77807C98.7134 9.3198 99.0849 8.81718 99.0849 8.68413C99.0849 8.25542 98.2973 7.81193 97.5544 7.81193C97.1829 7.81193 96.8411 7.87106 96.7817 7.94498C96.7371 8.01889 96.4845 8.13716 96.217 8.19629C95.9644 8.24064 95.5484 8.37368 95.2958 8.49195C94.5825 8.78761 93.5275 9.27545 93.2897 9.42328C93.1709 9.4972 92.7697 9.67459 92.3982 9.80764C92.0267 9.94069 91.5363 10.1477 91.3134 10.2659C91.0757 10.3842 90.7636 10.4729 90.6151 10.4729C90.4813 10.4729 90.2733 10.5764 90.1693 10.6946C90.0652 10.8129 89.8869 10.9164 89.7829 10.9164C89.664 10.9164 89.1885 11.1233 88.7279 11.3599C88.2673 11.6112 87.8363 11.8034 87.7769 11.8034C87.7026 11.8034 87.0339 12.099 86.2761 12.4538C85.5183 12.8086 84.389 13.3112 83.7797 13.5773C83.1705 13.8434 82.1898 14.2869 81.6251 14.5678C81.0456 14.8339 80.5255 15.0556 80.4661 15.0556C80.3472 15.0556 79.8123 15.2922 77.5685 16.3417C76.7958 16.6818 76.142 16.9774 76.0974 16.9774C76.0083 16.9774 75.7705 17.0809 73.3336 18.2192C72.5312 18.5888 71.8477 18.8992 71.8031 18.8992C71.7585 18.8992 71.2087 19.1357 70.5846 19.4314C69.9605 19.7271 69.069 20.1262 68.6232 20.3184C68.1774 20.5254 67.6127 20.7767 67.3898 20.8949C67.1521 21.0132 66.8549 21.1167 66.7212 21.1167C66.6023 21.1167 66.3794 21.2054 66.2605 21.3236C66.1268 21.4419 65.5919 21.708 65.0569 21.9297C64.522 22.1515 63.9425 22.4176 63.7642 22.5358C63.5858 22.6541 63.0806 22.8759 62.6497 23.0385C62.2188 23.2159 61.565 23.4967 61.1935 23.6889C60.822 23.8811 60.3614 24.0881 60.1533 24.1472C59.9453 24.2063 58.5485 24.8568 57.0329 25.5812C55.5172 26.3055 54.0907 26.9855 53.8381 27.1038C53.6003 27.2073 52.7534 27.6064 51.9807 27.976C51.208 28.3604 50.5096 28.656 50.4353 28.656C50.361 28.656 49.3357 29.1291 48.1321 29.7056C46.9433 30.2969 45.4128 31.0213 44.7442 31.3318C44.0755 31.657 43.4811 31.9822 43.4365 32.0561C43.392 32.1448 43.2285 32.204 43.0799 32.204C42.9313 32.204 42.4112 32.3961 41.9357 32.6327C40.539 33.3275 37.1807 34.8797 36.2 35.3084C36.0068 35.3823 35.7542 35.5154 35.6354 35.5893C35.5165 35.6632 35.3085 35.7667 35.1896 35.811C35.0707 35.8554 34.8627 35.9589 34.7438 36.018C34.6249 36.0919 34.2832 36.2545 34.0008 36.3876C32.084 37.2598 30.4792 37.9989 30.286 38.1172C30.1671 38.2059 29.9145 38.3389 29.7213 38.4128C29.5282 38.4868 28.8149 38.8268 28.1165 39.152C27.4181 39.4772 26.7792 39.7433 26.69 39.7433C26.6157 39.7433 26.3631 39.832 26.1551 39.9503C25.9322 40.0685 25.2487 40.4086 24.6394 40.7042C24.0302 40.9851 23.3912 41.3103 23.2426 41.4138C22.5145 41.8721 21.9647 42.6112 21.9647 43.1434C21.9647 43.3504 21.8904 43.6017 21.8013 43.6904C21.7121 43.7791 21.623 44.1043 21.5933 44.4148C21.4744 46.0557 21.3109 47.2383 21.1772 47.5044C21.088 47.667 20.9692 48.4949 20.8949 49.3523C20.5382 53.935 20.4639 56.6108 20.5085 63.544C20.5531 70.5512 20.568 71.2017 20.8206 71.5712C20.9543 71.793 21.1178 71.9704 21.1475 71.9704C21.1921 71.9704 21.5041 71.793 21.8607 71.5712ZM185.641 48.3618C185.581 48.0514 185.344 47.4157 185.106 46.9427C184.868 46.4548 184.675 45.9818 184.675 45.8783C184.675 45.7748 184.482 45.287 184.229 44.7991C183.991 44.2965 183.783 43.8234 183.783 43.7495C183.783 43.4243 182.892 41.7242 182.446 41.1921C182.045 40.719 181.896 40.6303 181.391 40.6303C180.663 40.6303 180.173 41.0738 179.935 41.9016C179.638 42.966 179.712 43.3652 180.336 43.8234C181.168 44.4443 184.363 47.7114 184.615 48.1844C184.838 48.6131 185.195 48.894 185.552 48.9088C185.7 48.9088 185.73 48.7758 185.641 48.3618ZM124.94 4.60401C124.94 4.45618 124.049 2.90396 123.722 2.49003C123.068 1.66218 122.176 1.3813 121.582 1.82479C121.433 1.94306 121.151 2.04654 120.988 2.04654C120.601 2.04654 120.274 2.40133 120.378 2.68221C120.423 2.80047 120.676 2.93352 120.958 2.99265C121.627 3.1257 123.9 4.264 124.004 4.50053C124.078 4.70749 124.94 4.79619 124.94 4.60401Z" fill="rgb(0,0,0)" fill-rule="nonzero" transform="matrix(1,0,0,-1,-0.236328,229.975)" />
		<path id="矢量 466" d="M12.0851 60.034C11.0747 59.2505 10.6735 58.807 10.3169 58.1565C9.36587 56.3826 8.66748 54.993 8.66748 54.8599C8.66748 54.7712 8.57832 54.5199 8.45945 54.2982C8.34058 54.0764 8.20684 53.6773 8.1474 53.4112C8.10282 53.1451 7.92451 52.5981 7.77592 52.1842C7.43415 51.2824 7.01809 49.7154 6.58717 47.7493C6.42372 46.9362 6.21568 46.1527 6.12653 46.0196C6.05223 45.8718 5.99279 45.5466 5.99279 45.2805C5.99279 45.0144 5.9185 44.5561 5.82934 44.2752C5.74019 43.9944 5.60645 43.4326 5.54701 43.0187C5.42814 42.3387 5.35384 41.9543 4.95264 39.9882C4.87834 39.6186 4.74461 38.7612 4.65545 38.0664C4.5663 37.3716 4.4177 36.5437 4.3434 36.2185C4.17995 35.5532 3.95706 34.0158 3.77875 32.2123C3.70445 31.547 3.60044 30.9261 3.541 30.8227C3.48156 30.734 3.37755 30.2461 3.31811 29.7435C3.19923 28.9157 3.05064 27.8217 2.56028 24.0964C2.47112 23.4459 2.33739 22.4111 2.27795 21.805C2.20366 21.1989 2.08478 20.0754 1.99562 19.3067C1.90647 18.5379 1.77273 17.6953 1.69844 17.4588C1.62414 17.2075 1.52012 16.2466 1.46069 15.3152C1.40125 14.3839 1.29723 13.4526 1.20808 13.2456C1.13378 13.0387 1.04463 12.3291 1.02977 11.6638C1.00005 10.9986 0.92575 10.3629 0.851453 10.2594C0.732578 10.0673 0.494829 7.62806 0.479969 6.50454C0.479969 6.26801 0.390813 5.39581 0.271938 4.58275C0.153063 3.76968 0.0341882 2.40964 0.0193288 1.55222C-0.0252493 0.103481 -0.01039 0 0.257079 0C0.509688 0 0.583985 0.19218 0.806875 1.40439C0.94061 2.17311 1.0892 3.41489 1.14864 4.13925C1.20808 4.87841 1.32695 5.67669 1.40125 5.928C1.47555 6.17932 1.60928 7.03673 1.68358 7.8498C1.81731 9.31332 2.20366 12.6839 2.33739 13.6743C2.38197 13.9552 2.5157 15.0196 2.64944 16.0396C3.00606 18.8632 3.30325 21.0363 3.48156 22.1746C3.57072 22.7511 3.65987 23.5494 3.70445 23.9485C3.73417 24.3625 3.8679 25.2938 3.98678 26.0182C4.23939 27.6591 4.50686 29.5218 4.65545 30.9261C4.72975 31.5175 4.8189 32.0497 4.86348 32.1236C4.90806 32.1827 5.01208 32.8775 5.10123 33.6462C5.24983 34.9471 5.30926 35.3758 5.69561 37.7707C5.78476 38.3029 5.90364 39.2047 5.97793 39.7664C6.03737 40.3429 6.17111 40.9491 6.26026 41.1265C6.36428 41.3038 6.43858 41.6734 6.43858 41.9395C6.43858 42.2056 6.60203 43.0926 6.7952 43.9057C7.00323 44.7187 7.30042 46.0196 7.47873 46.7884C7.98395 49.0649 8.40001 50.6763 8.54861 51.0754C8.63776 51.2824 8.83093 51.8737 8.97953 52.4059C9.39559 53.8842 9.70764 54.7416 10.3317 55.9982C10.6438 56.6339 10.8964 57.1808 10.8964 57.2252C10.8964 57.4322 11.8474 58.6592 12.5458 59.3392C13.2442 60.034 13.4373 60.507 13.051 60.6401C12.9767 60.6549 12.5309 60.3888 12.0851 60.034Z" fill="rgb(0,0,0)" fill-rule="nonzero" transform="matrix(1,0,0,-1,166.855,76.1809)" />
		<path id="矢量 467" d="M2.30478 16.4663C0.00158167 16.3924 -0.384762 16.2594 0.313629 15.8159C0.566238 15.668 1.66583 15.535 4.29594 15.3724C9.30355 15.0472 11.7553 14.855 14.0288 14.6037C15.0987 14.4854 16.6589 14.3228 17.5208 14.2489C19.8686 14.0419 23.3011 13.5097 24.8167 13.1254C25.2625 13.0071 25.8272 12.9184 26.0798 12.9184C26.3175 12.9184 27.4468 12.7114 28.591 12.4749C29.7352 12.2236 31.0428 11.9575 31.4886 11.8688C31.9344 11.7801 32.7071 11.6175 33.1974 11.4844C33.6878 11.3662 34.3713 11.2184 34.7131 11.1592C35.0548 11.1001 35.4263 10.9818 35.5303 10.8931C35.6344 10.8044 36.0207 10.7009 36.3922 10.6714C37.2837 10.5679 40.107 9.84353 43.5247 8.83828C44.2231 8.63132 45.1592 8.35044 45.605 8.23218C46.0508 8.09913 46.6897 7.90695 47.0166 7.80347C47.3584 7.6852 47.7596 7.59651 47.9379 7.59651C48.1162 7.59651 48.2945 7.53737 48.354 7.46346C48.3986 7.38954 48.9186 7.18258 49.513 7.01997C50.0925 6.84257 50.7909 6.63561 51.0287 6.54691C51.6379 6.33995 54.2383 5.49731 55.4122 5.11296C56.4821 4.77294 57.1656 4.53642 57.9383 4.25554C59.8551 3.57552 63.4957 2.46679 64.4764 2.28939C64.8479 2.21548 65.3531 2.08243 65.5909 2.00852C65.8435 1.91982 66.4378 1.7572 66.9282 1.62416C68.1467 1.3285 70.0487 0.870222 70.9402 0.648476C72.3816 0.2789 75.933 -0.135025 76.1113 0.0423713C76.1856 0.116287 76.2153 0.323249 76.1856 0.515429C76.141 0.855439 76.0518 0.885005 74.6551 1.03284C72.5896 1.26936 70.5242 1.69807 69.4543 2.14156C69.2908 2.2007 68.7856 2.36331 68.3398 2.49636C66.1704 3.10246 64.0306 3.7677 63.2877 4.04858C62.8419 4.22597 62.2772 4.41815 62.0246 4.49207C61.5342 4.62511 60.7467 4.89121 60.1672 5.12774C59.9592 5.20165 59.6025 5.31992 59.3499 5.37905C59.1122 5.45296 58.0423 5.80776 56.9724 6.19212C55.9174 6.56169 53.9114 7.24171 52.5146 7.6852C51.1327 8.1287 49.5576 8.66088 49.0227 8.85306C48.1905 9.14873 46.0954 9.79918 43.8219 10.4792C43.4504 10.5827 42.9897 10.7009 42.7817 10.7453C42.5737 10.7896 42.2171 10.8931 41.9645 10.967C41.3404 11.1888 40.0773 11.4992 38.6954 11.8097C38.0416 11.9427 37.2392 12.1645 36.9123 12.2679C36.5705 12.3862 36.1396 12.4749 35.9464 12.4749C35.7384 12.4749 35.2777 12.5636 34.9062 12.6819C33.4946 13.1254 32.5585 13.3619 32.2018 13.3619C31.9938 13.3619 31.4886 13.4506 31.1022 13.5689C30.701 13.6871 29.2003 13.9828 27.7738 14.2341C26.3472 14.5002 24.8762 14.7811 24.5047 14.8698C24.1332 14.9585 23.3605 15.0767 22.781 15.1359C22.2163 15.1802 21.6517 15.2837 21.5328 15.3576C21.4288 15.4167 20.7304 15.535 19.9874 15.5941C19.2445 15.6533 17.7288 15.8011 16.6292 15.9194C11.7256 16.4663 7.22324 16.6289 2.30478 16.4663Z" fill="rgb(0,0,0)" fill-rule="nonzero" transform="matrix(1,0,0,-1,88.3115,82.521)" />
	</g>
</svg>
