<svg viewBox="0 0 216 230" xmlns="http://www.w3.org/2000/svg" xmlns:xlink="http://www.w3.org/1999/xlink" width="216.000000" height="230.000000" fill="none">
	<rect id="1-5" width="216.000000" height="230.000000" x="0.000000" y="0.000000" />
	<path id="矢量 468" d="M95.1783 2.91612L91.2703 8.94761L89.1306 12.8799L87.5258 25.4751L86.0101 25.4751L82.0724 32.7335L74.6278 54.7307L72.3395 70.3268L71.864 81.6211L65.3704 82.6411L51.789 85.3907L31.1047 92.0875L14.4028 99.7451L6.34901 103.263L2.97593 109.014L5.38315 115.652L4.29842 117.854L1.23739 122.703L0.509277 134.663L1.23739 155.714L5.02653 178.199L17.1964 183.816L19.8413 183.107L21.4907 188.236L28.0437 192.243L96.9317 223.464L100.349 221.247L115.625 228.121L119.042 227.825L122.044 229.259L124.704 227.145L126.249 223.464L150.366 209.879L172.061 192.183L178.614 186.566L180.115 189.966L182.878 189.73L187.143 178.494L197.366 167.304L200.769 127.685L198.837 119.954L196.103 117.825L197.708 116.524L201.274 117.618L203.325 113.656L209.581 77.1418L214.945 41.4999L213.295 38.6911L200.992 36.5032L193.027 33.9014L190.204 34.8327L184.587 33.4283L184.26 22.755L181.14 14.4765L172.09 8.5189L158.346 5.91708L105.535 0.92041L95.1783 2.91612Z" fill="rgb(255,255,255)" fill-rule="nonzero" />
	<path id="矢量 468" d="M91.2703 8.94761L89.1306 12.8799L87.5258 25.4751L86.0101 25.4751L82.0724 32.7335L74.6278 54.7307L72.3395 70.3268L71.864 81.6211L65.3704 82.6411L51.789 85.3907L31.1047 92.0875L14.4028 99.7451L6.34901 103.263L2.97593 109.014L5.38315 115.652L4.29842 117.854L1.23739 122.703L0.509277 134.663L1.23739 155.714L5.02653 178.199L17.1964 183.816L19.8413 183.107L21.4907 188.236L28.0437 192.243L96.9317 223.464L100.349 221.247L115.625 228.121L119.042 227.825L122.044 229.259L124.704 227.145L126.249 223.464L150.366 209.879L172.061 192.183L178.614 186.566L180.115 189.966L182.878 189.73L187.143 178.494L197.366 167.304L200.769 127.685L198.837 119.954L196.103 117.825L197.708 116.524L201.274 117.618L203.325 113.656L209.581 77.1418L214.945 41.4999L213.295 38.6911L200.992 36.5032L193.027 33.9014L190.204 34.8327L184.587 33.4283L184.26 22.755L181.14 14.4765L172.09 8.5189L158.346 5.91708L105.535 0.92041L95.1783 2.91612L91.2703 8.94761Z" fill-rule="nonzero" stroke="rgb(0,0,0)" stroke-width="1.000000" />
	<path id="矢量 469" d="M94.8215 2.99028L89.4127 11.3575L87.2432 35.173L86.1733 58.2345L86.1733 65.1826L88.8332 66.8383L96.0697 67.607L112.668 69.5436L123.738 71.5097L137.617 74.9837L148.731 79.6108L160.158 82.2126L165.195 82.7448L172.358 81.5622L176.147 66.247L182.031 48.4925L184.438 43.1115L184.438 32.2312L184.141 21.883L179.936 12.9097L168.687 7.64694L151.748 5.26687L99.9926 0.920654L94.8215 2.99028Z" fill="rgb(1,89,188)" fill-rule="nonzero" />
	<g id="组合 93">
		<path id="矢量 470" d="M99.6878 229.429C99.569 229.355 99.1083 229.266 98.6774 229.207C98.2316 229.148 97.4589 228.911 96.9686 228.689C96.4633 228.453 95.9433 228.231 95.8244 228.172C95.0666 227.832 93.7441 226.856 93.0754 226.132C91.9758 224.979 91.2477 223.9 90.4304 222.318C90.2076 221.874 89.9698 221.401 89.8955 221.283C89.7766 221.076 89.5686 220.426 89.0634 218.622C88.9594 218.253 88.7662 217.617 88.6325 217.203C88.4987 216.774 88.3947 216.213 88.3947 215.946C88.3947 215.666 88.3055 215.015 88.1867 214.483C87.9341 213.315 87.5477 210.669 87.414 209.161C87.1465 205.924 87.1168 205.791 86.7453 205.48C86.5522 205.317 86.2995 205.184 86.1955 205.17C85.6309 205.155 84.1003 203.44 83.5506 202.213C83.4911 202.095 83.2979 201.666 83.1196 201.252C82.9265 200.853 82.6441 200.203 82.4658 199.818C82.3024 199.434 82.1538 199.064 82.1538 198.976C82.1538 198.902 82.0646 198.65 81.9457 198.414C81.4702 197.453 81.0988 196.581 80.5192 194.969C80.1923 194.038 79.8209 193.033 79.7168 192.752C79.5237 192.264 79.3751 191.88 78.8401 190.461C78.7213 190.135 78.4687 189.337 78.2903 188.687C78.0972 188.036 77.8 187.075 77.6068 186.543C77.4136 186.011 77.1907 185.316 77.1164 184.991C76.7895 183.69 76.6855 183.32 76.6112 183.187C76.5072 183.039 75.3036 178.457 74.9173 176.786C74.5755 175.293 74.3377 174.303 73.996 173.031C73.8177 172.396 73.6839 171.612 73.6839 171.302C73.6839 170.991 73.6245 170.696 73.5353 170.651C73.461 170.607 73.3867 170.267 73.3867 169.912C73.3867 169.557 73.3124 169.084 73.2233 168.848C73.0598 168.434 72.8815 167.369 72.6438 165.477C72.5843 164.915 72.4655 164.191 72.3763 163.895C72.302 163.6 72.2723 163.053 72.302 162.683C72.3615 162.254 72.302 161.796 72.1385 161.412C71.99 161.027 71.9008 160.377 71.9008 159.534C71.9008 158.84 71.7968 157.746 71.6631 157.125C71.4847 156.223 71.4402 155.233 71.4847 152.631L71.5293 149.29C71.5293 149.29 70.9944 149.29 70.8161 149.29C70.4297 149.29 69.8636 149.189 69.5679 149.068C69.2841 148.953 68.8071 148.879 68.4237 148.846C68.0983 148.82 67.5277 148.707 67.1607 148.624C66.492 148.475 64.9392 148.209 64.382 148.166C64.2557 148.157 62.792 147.811 62.4057 147.811C62.0193 147.811 60.9494 147.427 60.4442 147.353C59.9241 147.279 59.1366 147.161 58.7057 147.102C58.2896 147.028 56.2093 146.525 56.0013 146.407C55.7932 146.289 55.3861 146.246 55.0948 146.185C54.7605 146.116 54.3043 146.021 54.025 145.964C53.7114 145.9 53.2359 145.74 52.9878 145.677C52.6936 145.603 50.9223 145.134 50.7411 145.077C50.4988 145 50.1883 144.93 49.8346 144.855C49.5003 144.784 47.4423 144.323 47.1897 144.204C46.7142 143.997 45.8687 143.756 44.8567 143.539C44.5744 143.479 44.1881 143.347 44.0098 143.258C43.8314 143.155 40.7258 142.135 40.5772 142.046C40.4435 141.972 39.5519 141.662 38.6158 141.366C37.6797 141.07 36.7138 140.745 36.4612 140.642C35.956 140.435 34.8267 139.991 34.3809 139.829C34.2174 139.769 33.7716 139.577 33.3704 139.4C32.9841 139.237 32.5978 139.089 32.5086 139.089C32.4343 139.089 31.9588 138.882 31.4536 138.646C30.9632 138.409 30.4729 138.202 30.3688 138.202C30.146 138.202 28.5411 137.537 26.654 136.65C25.9259 136.31 25.0195 135.911 24.648 135.763C24.2765 135.615 23.8753 135.408 23.7564 135.32C23.6376 135.216 23.3998 135.098 23.2363 135.054C22.4637 134.832 21.6167 134.477 21.0817 134.137C20.7548 133.93 20.3833 133.768 20.2348 133.768C20.101 133.768 19.8781 133.679 19.7593 133.575C19.6255 133.472 19.2243 133.25 18.8528 133.102C18.4813 132.954 17.7235 132.644 17.144 132.393C16.5793 132.156 15.9107 131.875 15.6581 131.772C15.4203 131.668 14.9745 131.491 14.6922 131.373C13.7263 130.959 10.9922 129.953 10.4573 129.82C10.1601 129.747 9.49143 129.48 8.74846 129.14C6.50469 128.135 4.54325 126.376 3.68141 124.602C2.53724 122.266 2.21033 120.818 2.49266 119.191C2.59668 118.63 2.71555 117.95 2.76013 117.669C2.80471 117.388 3.04246 116.841 3.26535 116.442C3.5031 116.043 3.69627 115.673 3.69627 115.599C3.69627 115.437 4.46896 114.757 4.781 114.653C5.21193 114.505 5.06333 114.047 4.35008 113.278C3.96374 112.879 3.48824 112.288 3.28021 111.963C2.59668 110.913 1.61596 108.799 1.31877 107.749C1.22961 107.38 1.0513 106.848 0.947285 106.567C0.664957 105.842 0.575801 105.133 0.144879 100.432C-0.048293 98.3769 -0.048293 86.3583 0.144879 84.6878C0.219176 83.993 0.35291 82.3077 0.427207 80.9181C0.516363 79.5433 0.650098 77.6067 0.739254 76.631C0.813551 75.6553 0.932426 74.177 0.991863 73.3492C1.0513 72.4918 1.18504 71.7526 1.28905 71.6491C1.40793 71.5309 1.46736 70.9839 1.46736 70.0821C1.46736 69.2543 1.54166 68.5743 1.64568 68.3821C1.74969 68.2047 1.88343 67.4951 1.94286 66.8003C2.09146 64.982 2.34407 63.1045 2.44808 62.9271C2.50752 62.8384 2.61154 62.3063 2.68583 61.7149C2.76013 61.1384 2.879 60.2366 2.96816 59.7044C3.04246 59.1723 3.16133 58.374 3.22077 57.9305C3.28021 57.487 4.12719 54.2791 4.14205 54.0573C4.14205 53.8356 4.20149 53.5103 4.27579 53.3182C4.36494 53.126 4.4541 52.7416 4.49868 52.446C4.63241 51.6329 6.2818 50.1546 7.76774 49.4894C7.94605 49.4154 8.48099 49.1346 8.97135 48.8685C9.46171 48.6024 10.3681 48.1293 10.9774 47.8189C11.5866 47.5084 12.1958 47.1832 12.3147 47.1241C12.4336 47.0502 12.6416 46.9467 12.7605 46.9023C12.8794 46.858 13.5926 46.518 14.3504 46.1632C16.5942 45.084 17.352 44.877 18.5259 45.0544C19.0757 45.1431 19.6552 45.2318 19.8187 45.2466C20.0862 45.291 20.1307 45.1875 20.205 44.0344C20.3091 42.6596 20.5914 41.7283 21.1858 40.93C21.8693 40.0134 21.9139 39.9839 25.6138 38.269C25.9408 38.1212 27.0849 37.5742 28.1399 37.0864C29.2098 36.5838 30.4729 35.9924 30.9632 35.7707C32.2114 35.1941 33.1476 34.7507 33.415 34.588C33.6231 34.455 34.5295 34.0411 36.3126 33.2428C36.7287 33.0654 37.7985 32.5628 38.6901 32.1341C40.5921 31.2175 41.7066 30.7001 46.5656 28.4383C46.8182 28.32 48.0664 27.7287 49.3591 27.1226C50.6519 26.5017 51.7515 25.9991 51.7812 25.9991C51.8109 25.9991 52.7471 25.5704 53.8615 25.0382C54.976 24.506 55.9121 24.0773 55.9567 24.0773C55.9864 24.0773 56.8037 23.7077 57.7547 23.2494C58.7057 22.7912 59.7013 22.3329 59.939 22.2294C60.1916 22.1111 61.1575 21.6677 62.0936 21.2242C63.0298 20.7807 64.2334 20.2337 64.7683 20.012C65.3032 19.7902 66.2988 19.3467 66.9972 19.0215C67.6956 18.6963 68.6912 18.238 69.2261 17.9867C69.761 17.7354 70.296 17.4841 70.4149 17.4101C70.5337 17.3362 70.7418 17.2327 70.8606 17.1884C71.8265 16.8188 73.3422 16.1684 73.461 16.0797C73.5502 16.0205 73.9514 15.8284 74.3823 15.6657C74.8132 15.5031 75.6156 15.1483 76.1654 14.897C77.2056 14.4092 77.6217 14.2318 78.7064 13.7883C79.0482 13.6552 79.4048 13.4483 79.4939 13.33C79.5831 13.2265 79.7911 13.1378 79.9397 13.1378C80.0883 13.1378 80.6381 12.9309 81.1433 12.6796C81.6634 12.4135 82.2875 12.1178 82.5253 12.0143C82.7779 11.9108 83.3425 11.6595 83.8032 11.4526C84.2489 11.2456 84.9919 10.9499 85.4228 10.7725C85.8686 10.5951 86.4036 10.3734 86.6116 10.2551C87.2357 9.92991 88.8702 9.19076 89.5835 8.90988C89.9549 8.77684 90.5939 8.49596 91.0248 8.30378C91.4409 8.12638 91.8421 7.96377 91.9164 7.96377C91.9758 7.96377 92.4959 7.72724 93.0606 7.44636C93.6401 7.16548 94.2047 6.92895 94.3236 6.92895C94.4573 6.92895 94.7248 6.79591 94.9328 6.63329C95.1409 6.47068 95.4232 6.33763 95.5569 6.33763C95.6907 6.33763 96.1959 6.23415 96.6565 6.11589C97.6372 5.86457 98.4694 5.95327 99.2421 6.38198C99.9702 6.79591 100.297 7.09157 100.446 7.47593C100.624 7.94898 100.921 7.90463 101.828 7.22461C102.259 6.89939 102.66 6.63329 102.734 6.63329C102.927 6.63329 106.493 4.7115 106.627 4.7115C106.761 4.7115 107.236 4.5341 107.697 4.32714C108.158 4.12017 108.811 3.82451 109.168 3.6619C110.609 3.01145 111.13 2.77492 112.541 2.12446C115.409 0.793988 116.657 0.483544 117.281 0.941819C117.445 1.06008 117.683 1.16356 117.831 1.16356C117.965 1.16356 118.247 1.29661 118.455 1.45923C118.99 1.88793 119.317 1.8288 119.793 1.23748C120.015 0.956602 120.833 0.555981 121.264 0.350497C122.169 -0.0811678 122.35 -0.100387 123.329 0.217449C123.91 0.405193 124.189 0.632852 124.726 1.29661C125.096 1.75489 125.395 2.19838 125.395 2.30186C125.395 2.39056 125.573 2.80448 125.781 3.21841C126.004 3.63233 126.212 4.31235 126.256 4.72628C126.301 5.24369 126.405 5.495 126.568 5.55413C126.88 5.64283 129.912 7.1507 130.566 7.52028C130.699 7.60897 131.353 7.9342 132.007 8.27421C133.463 8.99858 134.711 9.66382 134.949 9.856C135.053 9.92991 135.558 10.2108 136.093 10.4917C136.628 10.7578 137.327 11.1717 137.639 11.3934C137.951 11.63 138.278 11.8074 138.337 11.8074C138.441 11.8074 139.838 12.6204 140.685 13.1674C140.893 13.3152 141.205 13.4926 141.368 13.5813C141.532 13.67 141.844 13.8474 142.067 13.9953C142.29 14.1283 143.107 14.6457 143.894 15.1335C145.826 16.3162 145.663 16.2127 147.134 17.2032C147.847 17.691 148.62 18.1936 148.843 18.3119C149.066 18.4302 149.482 18.711 149.779 18.9476C150.076 19.1693 150.373 19.3467 150.462 19.3467C150.537 19.3467 150.76 19.5093 150.953 19.7163C151.131 19.9085 151.963 20.5294 152.795 21.0763C153.613 21.6233 154.326 22.1111 154.37 22.1555C154.415 22.1998 154.608 22.3477 154.816 22.4807C155.604 23.0129 156.614 23.7521 158.026 24.846C158.828 25.4817 160.032 26.3982 160.686 26.9009C162.023 27.9357 163.984 29.5027 164.326 29.8427C164.46 29.9609 164.965 30.3749 165.455 30.7592C167.149 32.1193 168.531 33.3019 171.904 36.2585C176.214 40.0578 176.763 40.5752 177.744 41.7283C178.22 42.3048 178.347 42.2545 178.591 41.4178C178.885 40.4096 179.275 39.6586 180.85 39.0821C181.548 38.8308 181.578 38.8308 182.336 39.156C182.767 39.3334 183.242 39.5847 183.391 39.7178C183.792 40.0726 184.624 41.3882 184.817 41.9796C184.906 42.2752 185.114 42.7631 185.278 43.0735C185.441 43.3987 186.125 45.5866 186.244 45.7492C186.363 45.8971 186.912 47.7154 186.912 48.0111C186.912 48.3215 187.358 49.4302 187.358 49.7998C187.358 50.4207 187.418 50.5094 188.443 51.4703C191.281 54.1756 194.966 57.8566 196.17 59.2314C197.537 60.7836 198.131 61.8184 198.339 63.0306C198.399 63.3559 198.518 63.7402 198.607 63.9028C198.681 64.0507 198.726 64.4646 198.681 64.8046C198.651 65.1446 198.696 65.6916 198.8 66.002C198.904 66.2977 199.008 67.1107 199.038 67.776C199.067 68.456 199.156 69.136 199.231 69.2986C199.32 69.4613 199.394 70.1708 199.394 70.8952C199.409 71.6344 199.498 72.4474 199.617 72.7874C199.751 73.1422 199.84 73.9553 199.84 74.8571C199.84 75.6701 199.944 76.7345 200.063 77.2224C200.182 77.7102 200.286 78.6415 200.286 79.292C200.286 79.9424 200.345 80.7112 200.434 80.992C200.509 81.2729 200.598 82.3816 200.642 83.4312C200.672 84.4956 200.776 86.0183 200.865 86.8313C200.954 87.6444 201.088 89.9358 201.177 91.9315C201.267 93.9272 201.4 96.8838 201.489 98.5099C201.727 102.915 201.534 106.833 201.014 108.267C200.717 109.065 199.706 110.41 198.993 110.942C198.681 111.179 198.101 111.534 197.715 111.726C197.225 111.963 197.017 112.14 197.046 112.303C197.121 112.716 197.656 112.657 198.726 112.11C199.587 111.682 199.914 111.593 200.687 111.593C201.742 111.593 202.143 111.8 203.094 112.835C203.926 113.736 204.09 114.062 204.521 115.954C204.744 116.93 205.011 118.097 205.13 118.556C205.249 119.014 205.308 119.487 205.264 119.605C205.219 119.724 205.279 120.123 205.397 120.478C205.531 120.832 205.635 121.424 205.635 121.793C205.635 122.163 205.739 122.621 205.858 122.828C205.977 123.035 215.977 189.13 215.621 189.795C215.026 190.934 214.967 190.993 213.436 191.954C213.199 192.101 212.827 192.234 212.619 192.249C212.411 192.264 211.742 192.353 211.133 192.456C210.524 192.545 209.647 192.678 209.201 192.737C208.756 192.796 208.236 192.914 208.057 193.018C207.879 193.121 207.448 193.195 207.091 193.195C206.735 193.21 206.289 193.299 206.081 193.417C205.813 193.565 205.175 193.624 203.793 193.639C201.95 193.639 201.876 193.654 201.341 194.053C200.687 194.541 200.167 194.792 198.354 195.487C197.581 195.797 196.883 196.093 196.809 196.167C196.72 196.241 196.408 196.3 196.095 196.3C195.783 196.3 195.234 196.374 194.877 196.477C194.164 196.669 192.425 196.433 191.638 196.049C191.162 195.812 190.419 195.797 190.018 196.019C189.855 196.093 189.275 196.255 188.725 196.374C186.808 196.773 185.857 197.009 185.753 197.098C185.694 197.157 185.649 198.813 185.634 200.779C185.62 202.745 185.53 204.889 185.426 205.539C185.337 206.19 185.204 207.091 185.144 207.535C185.085 207.978 184.966 208.496 184.862 208.673C184.758 208.851 183.599 212.724 183.331 213.374C182.143 216.227 181.073 217.44 177.982 219.45C177.298 219.894 176.689 220.248 176.63 220.248C176.57 220.248 175.976 220.514 175.292 220.825C174.252 221.313 172.098 222.067 168.635 223.146C168.264 223.264 167.714 223.353 167.402 223.353C167.09 223.353 165.827 223.722 165.262 223.796C162.32 224.255 159.943 224.565 158.665 224.668C157.892 224.728 157.149 224.846 157.03 224.92C156.911 224.994 156.183 225.097 155.41 225.142C154.638 225.201 153.226 225.319 152.29 225.408C147.58 225.851 145.707 226.029 144.415 226.176C143.642 226.265 142.305 226.398 141.443 226.457C140.581 226.531 139.645 226.649 139.362 226.738C139.08 226.827 138.278 226.901 137.594 226.901C136.911 226.901 135.946 226.966 135.439 227.049C134.951 227.128 133.627 227.256 132.527 227.344C131.427 227.448 129.927 227.581 129.184 227.655C127.267 227.876 124.815 228.054 121.903 228.216C120.506 228.305 119.064 228.438 118.708 228.512C118.336 228.601 117.4 228.675 116.628 228.675C115.855 228.675 114.651 228.778 113.953 228.896C113.254 229.015 111.828 229.118 110.758 229.118C109.703 229.118 108.158 229.222 107.355 229.34C105.75 229.576 100.074 229.65 99.6878 229.429ZM104.146 227.625C104.755 227.551 105.988 227.418 106.865 227.344C107.756 227.27 108.544 227.152 108.633 227.108C108.722 227.049 109.792 226.96 111.04 226.886C112.274 226.827 113.522 226.694 113.804 226.605C114.087 226.531 114.963 226.457 115.766 226.457C116.553 226.457 117.727 226.383 118.366 226.295C119.005 226.206 120.729 226.073 122.2 226.014C123.671 225.94 125.647 225.807 126.583 225.718C127.519 225.629 129.436 225.467 130.818 225.334C132.215 225.201 133.864 225.009 134.518 224.89C135.157 224.772 136.064 224.683 136.524 224.683C136.985 224.683 137.728 224.595 138.174 224.476C138.619 224.373 140.165 224.166 141.591 224.018C143.018 223.885 144.831 223.678 145.603 223.545C146.376 223.427 147.847 223.279 148.872 223.205C149.898 223.131 150.864 223.042 151.027 222.998C151.19 222.954 152.335 222.821 153.553 222.688C155.886 222.436 157.075 222.274 159.051 221.934C159.705 221.83 160.7 221.668 161.25 221.579C161.815 221.505 162.394 221.357 162.543 221.283C162.692 221.194 163.018 221.135 163.256 221.135C163.479 221.135 163.969 221.047 164.341 220.928C164.698 220.825 165.5 220.588 166.109 220.396C166.718 220.219 167.427 219.973 167.699 219.864C167.919 219.775 168.196 219.691 168.294 219.657C168.363 219.632 168.766 219.489 169.185 219.287C169.598 219.089 170.12 218.925 170.329 218.829C170.522 218.74 170.906 218.532 171.035 218.455C171.494 218.18 172.543 217.587 173.063 217.114C173.375 216.848 173.91 216.405 174.297 216.139C174.668 215.873 175.381 215.163 175.902 214.557C176.704 213.596 176.867 213.478 177.12 213.596C177.492 213.803 177.477 213.877 176.971 214.646C176.139 215.887 173.153 218.282 171.325 219.199C170.24 219.746 168.115 220.544 166.778 220.914C166.288 221.061 165.619 221.254 165.292 221.357C164.965 221.461 164.103 221.668 163.36 221.801C162.632 221.934 161.696 222.141 161.28 222.244C160.492 222.451 158.784 222.717 156.822 222.924C156.168 222.983 155.366 223.116 155.039 223.19C154.712 223.279 138.159 225.127 137.594 225.142C137.059 225.156 136.459 225.233 136.242 225.275C135.007 225.511 135.101 225.663 137.312 225.526C137.833 225.493 148.367 224.491 148.456 224.447C148.545 224.388 157.283 223.486 158.011 223.427C159.229 223.338 160.284 223.175 162.276 222.747C162.662 222.658 163.331 222.54 163.761 222.466C166.525 222.008 170.493 221.017 171.86 220.441C172.112 220.337 172.38 220.248 172.454 220.248C172.722 220.248 174.995 219.228 176.02 218.637C176.615 218.312 177.135 218.031 177.179 218.031C177.224 218.031 177.714 217.706 178.264 217.292C180.018 216.02 181.073 214.705 181.712 213.079C181.89 212.591 182.128 212.029 182.217 211.822C182.41 211.452 182.499 211.127 183.019 209.235C183.97 205.791 184.163 203.869 184.045 198.872C183.926 194.112 183.688 189.81 183.495 188.834C183.42 188.435 183.331 187.43 183.316 186.617C183.287 185.39 183.212 184.961 182.871 184.104C182.648 183.542 181.92 181.724 181.816 181.517C181.712 181.31 179.602 175.973 179.349 175.234C179.081 174.51 178.799 173.785 178.725 173.637C178.636 173.49 178.443 172.913 178.279 172.381C178.116 171.834 177.922 171.272 177.833 171.124C177.685 170.858 176.897 168.434 176.332 166.512C176.169 165.95 175.946 165.241 175.827 164.96C175.723 164.679 175.56 164.073 175.456 163.629C175.367 163.186 175.203 162.58 175.084 162.299C174.832 161.634 174.579 160.761 174.43 160.007C174.371 159.682 174.148 158.766 173.925 157.967C173.717 157.184 173.539 156.341 173.539 156.119C173.539 155.883 173.435 155.573 173.316 155.41C173.197 155.262 173.093 154.833 173.093 154.464C173.093 154.094 172.989 153.636 172.87 153.429C172.751 153.222 172.662 152.823 172.647 152.542C172.647 152.246 172.558 151.877 172.439 151.729C172.32 151.566 172.202 151.064 172.157 150.62C172.112 150.177 171.994 149.408 171.919 148.92C171.83 148.432 171.696 147.634 171.622 147.146C171.414 145.904 171.176 144.604 171.013 143.85C170.924 143.51 170.864 142.83 170.864 142.342C170.864 141.839 170.76 141.203 170.641 140.908C170.508 140.597 170.418 139.932 170.418 139.282C170.418 138.675 170.344 138.04 170.24 137.862C170.151 137.685 170.077 137.108 170.092 136.576C170.092 136.044 170.002 135.187 169.884 134.654C169.765 134.122 169.675 133.428 169.69 133.102C169.69 132.777 169.661 131.816 169.631 130.959L169.542 129.407L167.937 129.333C167.06 129.288 166.228 129.2 166.109 129.111C165.99 129.037 165.322 128.919 164.623 128.86C163.925 128.8 162.9 128.682 162.32 128.593C161.755 128.505 160.849 128.372 160.314 128.298C158.323 128.017 157.773 127.899 157.61 127.736C157.506 127.633 157.164 127.559 156.822 127.559C156.495 127.544 156.064 127.455 155.856 127.337C155.648 127.219 155.188 127.115 154.816 127.115C154.445 127.115 154.014 127.012 153.865 126.893C153.702 126.775 153.33 126.672 153.048 126.672C152.751 126.657 152.349 126.568 152.141 126.45C151.933 126.332 151.606 126.243 151.413 126.228C151.205 126.228 150.849 126.169 150.596 126.095C148.56 125.474 146.525 124.853 146.272 124.75C146.109 124.691 145.514 124.484 144.935 124.306C144.37 124.144 143.761 123.937 143.597 123.878C143.434 123.804 142.973 123.656 142.557 123.523C141.443 123.168 139.689 122.547 139.392 122.399C139.258 122.325 138.634 122.059 138.025 121.823C135.335 120.758 135.127 120.67 132.973 119.694C132.156 119.324 126.494 116.516 125.484 115.969C125.083 115.762 124.711 115.584 124.652 115.584C124.577 115.584 124.191 115.348 123.76 115.067C122.913 114.49 122.616 114.446 121.932 114.757C121.665 114.875 121.085 115.067 120.64 115.185C119.703 115.437 119.05 115.629 116.479 116.383C115.454 116.693 114.25 117.033 113.804 117.151C113.358 117.284 112.794 117.447 112.541 117.521C112.14 117.654 111.456 117.861 110.164 118.245C109.926 118.304 109.124 118.585 108.381 118.837C107.652 119.103 106.939 119.31 106.82 119.31C106.701 119.31 106.464 119.369 106.3 119.443C105.854 119.635 103.967 120.33 103.626 120.404C103.031 120.566 99.9256 121.867 98.7517 122.473C98.5139 122.592 98.2465 122.68 98.1573 122.68C98.0533 122.68 97.2509 123.035 96.3445 123.479C95.4529 123.922 94.5316 124.336 94.2939 124.38C94.071 124.439 93.863 124.543 93.8184 124.602C93.7144 124.765 90.4899 126.317 89.8064 126.524C89.4794 126.627 89.0188 126.79 88.7662 126.893C87.9192 127.248 86.6562 127.559 86.0766 127.559C85.4228 127.559 84.8285 127.899 84.8285 128.253C84.8285 128.386 85.1256 128.889 85.4971 129.347C85.8686 129.82 86.1658 130.323 86.1658 130.471C86.1658 130.619 86.2698 130.885 86.3887 131.047C86.775 131.609 86.9533 132.629 87.0128 134.625C87.0574 136.222 87.0276 136.635 86.8493 136.902C86.7156 137.079 86.6116 137.449 86.6116 137.7C86.6116 137.951 86.5076 138.247 86.3887 138.35C86.2698 138.454 86.1658 138.705 86.1658 138.897C86.1658 139.104 86.0767 139.444 85.9726 139.651C85.8538 139.873 85.6606 140.287 85.512 140.568C85.3634 140.849 85.1702 141.248 85.0662 141.455C84.9622 141.662 84.769 142.046 84.6353 142.312C84.2935 142.977 84.2787 146.703 84.6056 147.59C84.7244 147.915 84.8136 148.58 84.8285 149.068C84.8285 150.251 85.3634 154.227 85.5714 154.597C85.6457 154.759 85.72 155.07 85.72 155.306C85.72 155.853 86.1361 157.672 86.4036 158.233C86.5224 158.485 86.7305 159.18 86.8939 159.786C87.0425 160.392 87.2951 161.116 87.4288 161.382C87.5626 161.648 87.7112 162.136 87.7558 162.461C87.8598 163.186 88.0232 163.26 88.7365 162.964C90.0738 162.417 93.536 161.914 97.0131 161.781C98.2762 161.722 99.6135 161.634 99.985 161.56C100.357 161.486 101.828 161.323 103.254 161.19C106.315 160.924 107.712 160.747 108.529 160.54C108.856 160.451 109.51 160.377 109.971 160.377C110.431 160.377 110.996 160.303 111.234 160.214C111.456 160.126 112.021 159.993 112.467 159.934C114.116 159.712 118.782 158.869 118.931 158.78C119.005 158.736 119.377 158.647 119.748 158.588C120.119 158.544 120.714 158.426 121.085 158.337C121.457 158.248 122.23 158.086 122.794 157.953C125.127 157.465 125.513 157.376 126.583 157.095C127.193 156.933 128.069 156.696 128.515 156.578C129.986 156.193 132.185 155.602 133.27 155.277C133.642 155.173 134.37 154.981 134.905 154.833C135.439 154.7 136.108 154.493 136.39 154.39C137.728 153.917 137.98 153.843 138.471 153.725C138.753 153.666 139.362 153.459 139.808 153.281C140.759 152.912 141.844 152.586 142.78 152.379C143.137 152.305 143.508 152.172 143.582 152.098C143.672 152.01 143.865 151.951 144.028 151.951C144.207 151.951 144.533 151.847 144.771 151.729C144.994 151.611 145.276 151.507 145.395 151.507C145.499 151.507 145.811 151.418 146.079 151.3C146.346 151.182 147.268 150.886 148.129 150.62C148.991 150.369 149.898 150.088 150.135 149.999C150.581 149.866 151.681 149.541 152.513 149.305C152.766 149.231 153.36 149.053 153.85 148.92C154.712 148.669 156.272 148.314 158.234 147.9C158.769 147.782 159.497 147.634 159.868 147.545C161.8 147.087 165.247 146.895 165.441 147.235C165.5 147.309 165.426 147.516 165.277 147.678C165.084 147.9 164.816 147.959 164.044 147.974C163.509 147.974 162.766 148.033 162.394 148.107C162.023 148.166 161.339 148.299 160.864 148.388C160.388 148.462 159.779 148.61 159.527 148.684C159.259 148.758 158.516 148.964 157.862 149.142C157.208 149.319 156.51 149.511 156.302 149.585C156.094 149.659 155.425 149.851 154.816 150.029C154.207 150.206 153.033 150.591 152.216 150.872C151.398 151.152 150.492 151.448 150.21 151.507C149.927 151.581 149.318 151.788 148.872 151.951C147.639 152.424 144.964 153.281 144.741 153.281C144.623 153.281 144.355 153.37 144.147 153.488C143.924 153.592 143.018 153.932 142.111 154.212C139.689 154.996 138.159 155.513 137.609 155.735C137.341 155.853 137 155.942 136.836 155.942C136.673 155.942 136.331 156.031 136.064 156.149C135.796 156.267 134.711 156.607 133.642 156.903C132.586 157.199 131.175 157.598 130.506 157.79C129.852 157.997 129.228 158.16 129.124 158.16C129.02 158.16 128.619 158.263 128.233 158.381C127.371 158.647 124.726 159.268 123.537 159.49C122.601 159.653 121.828 159.83 120.491 160.155C119.347 160.436 118.054 160.673 114.399 161.264C113.953 161.338 113.344 161.471 113.061 161.56C112.779 161.634 112.185 161.707 111.754 161.707C111.323 161.707 110.728 161.811 110.431 161.929C110.149 162.048 109.495 162.151 108.99 162.151C108.485 162.151 107.846 162.225 107.563 162.299C107.281 162.387 106.315 162.491 105.409 162.535C104.517 162.58 103.64 162.683 103.477 162.757C103.314 162.831 102.184 162.949 100.951 163.038C95.6461 163.378 93.9818 163.467 91.8867 163.541C88.365 163.674 87.7112 163.866 87.2505 164.945C86.8196 165.95 86.8493 169.72 87.3546 177.451C87.7706 183.882 87.9489 187.74 88.0232 191.732C88.0678 194.141 88.1718 196.876 88.2461 197.793C88.3204 198.724 88.3947 200.587 88.3947 201.947C88.3947 203.514 88.469 204.83 88.6176 205.569C88.7365 206.204 88.8405 207.151 88.8405 207.683C88.8405 208.215 88.9148 208.939 89.0039 209.309C89.0782 209.664 89.212 210.536 89.2863 211.231C89.5537 213.729 90.1778 217.188 90.475 217.75C90.5642 217.898 90.6236 218.223 90.6236 218.474C90.6236 218.74 90.7128 219.125 90.8316 219.332C91.1883 220.027 91.5152 220.84 91.5152 221.032C91.5152 221.239 92.6742 223.101 93.3726 224.018C94.2642 225.186 96.3296 226.886 96.8794 226.901C96.9983 226.901 97.1617 226.96 97.2509 227.034C97.3252 227.108 97.7561 227.3 98.2019 227.462C98.8557 227.699 99.4055 227.758 101.025 227.773C102.125 227.773 103.536 227.714 104.146 227.625ZM134.132 225.762C133.983 225.733 133.716 225.733 133.537 225.762C133.344 225.792 133.463 225.822 133.79 225.822C134.117 225.836 134.266 225.807 134.132 225.762ZM87.0574 203.499C87.0574 203.307 86.9682 202.494 86.8493 201.681C86.7305 200.883 86.5819 198.222 86.5224 195.782C86.463 193.343 86.4036 191.022 86.3887 190.608C86.359 190.209 86.2698 187.637 86.1807 184.917C86.0915 182.182 85.9281 178.9 85.8092 177.599C85.3337 172.351 85.2148 166.778 85.5268 165.182C85.616 164.694 85.8389 164.028 86.0023 163.703C86.3887 162.979 86.3887 162.58 86.0321 161.796C85.4377 160.48 85.2742 160.067 85.2742 159.771C85.2742 159.608 85.1851 159.298 85.0662 159.076C84.9622 158.854 84.7542 158.145 84.6204 157.494C84.4867 156.844 84.2787 155.986 84.1598 155.573C84.0558 155.173 83.8923 154.301 83.8032 153.651C83.714 153 83.5357 151.906 83.402 151.212C83.2534 150.517 83.1345 149.231 83.1196 148.329C83.0899 146.392 83.0156 146.318 81.8566 147.191C80.9947 147.841 78.6024 148.846 77.904 148.846C77.6514 148.846 77.3245 148.95 77.161 149.068C76.953 149.231 76.4032 149.275 74.9173 149.29C73.8474 149.29 72.9261 149.334 72.8815 149.408C72.8518 149.467 72.8815 149.778 72.941 150.103C73.0153 150.428 73.149 152.394 73.2381 154.464C73.3422 156.533 73.4759 158.633 73.5502 159.12C73.6988 160.007 73.9068 161.781 74.1149 163.999C74.1743 164.649 74.2634 165.27 74.3377 165.374C74.3972 165.477 74.5161 166.068 74.5903 166.704C74.6646 167.325 74.8578 168.641 75.0213 169.616C75.1847 170.592 75.3928 171.73 75.4522 172.144C75.5265 172.558 75.6602 173.046 75.7494 173.209C75.8385 173.371 75.9128 173.697 75.9128 173.918C75.9128 174.14 75.9723 174.554 76.0466 174.85C76.1209 175.145 76.2546 175.751 76.3586 176.195C76.5072 176.934 76.745 177.821 77.1164 179.092C77.1907 179.344 77.2502 179.713 77.2502 179.92C77.2502 180.127 77.3393 180.378 77.4582 180.467C77.5771 180.571 77.696 180.925 77.7405 181.265C77.7851 181.605 77.8743 182.123 77.9634 182.404C78.0526 182.685 78.2309 183.35 78.3646 183.882C78.4984 184.414 78.6767 184.976 78.751 185.139C78.8253 185.301 79.0482 185.966 79.2413 186.617C79.4494 187.267 79.6723 188.007 79.7614 188.243C79.8506 188.494 80.1329 189.352 80.3707 190.165C80.6233 190.978 80.9204 191.85 81.0245 192.087C81.2176 192.515 82.1686 195.014 82.4955 195.93C82.6887 196.492 82.9413 197.083 83.3277 197.941C83.506 198.31 83.6397 198.665 83.6397 198.724C83.6397 198.813 84.561 200.823 85.0662 201.843C85.2742 202.257 85.8389 202.997 86.4184 203.588C86.7602 203.943 87.0574 203.898 87.0574 203.499ZM186.689 195.191C187.016 195.073 187.67 194.91 188.146 194.822C189.201 194.615 189.29 194.275 188.428 193.728C188.116 193.535 187.67 193.166 187.462 192.9C186.942 192.294 186.021 190.727 186.021 190.461C186.021 190.091 185.53 189.204 185.322 189.204C184.966 189.204 184.936 189.633 185.189 191.096C185.322 191.894 185.426 193.151 185.426 193.875C185.426 194.615 185.471 195.265 185.53 195.309C185.679 195.472 186.036 195.428 186.689 195.191ZM195.516 194.659C196.051 194.57 196.705 194.393 196.972 194.289C197.225 194.171 197.537 194.082 197.671 194.082C197.804 194.082 198.027 194.023 198.176 193.935C198.31 193.861 198.592 193.713 198.8 193.639C199.008 193.55 199.379 193.358 199.617 193.195C199.87 193.048 200.42 192.737 200.865 192.501C201.311 192.279 201.98 191.821 202.351 191.481C202.723 191.155 203.258 190.741 203.525 190.549C203.986 190.239 205.234 188.583 205.813 187.533C206.155 186.927 206.155 185.582 205.843 183.808C205.709 183.084 205.605 182.271 205.62 182.019C205.62 181.753 205.531 181.31 205.412 181.014C205.293 180.733 192.47 124.691 192.173 123.538C191.89 122.37 191.489 120.788 191.296 120.019C191.103 119.251 190.895 118.216 190.835 117.728C190.731 116.723 190.568 116.324 190.271 116.324C190.048 116.324 189.884 116.944 189.884 117.743C189.884 118.009 189.825 118.275 189.736 118.319C189.661 118.364 189.587 118.497 189.587 118.615C189.587 119.265 186.764 122.399 185.322 123.36C184.891 123.641 184.461 123.952 184.357 124.055C184.089 124.292 183.331 124.824 183.049 124.942C182.93 125.001 182.633 125.179 182.38 125.341C181.637 125.814 179.438 126.849 178.145 127.337C177.774 127.485 177.313 127.677 177.105 127.78C176.897 127.884 176.466 128.032 176.139 128.091C175.812 128.15 175.337 128.283 175.069 128.401C174.802 128.505 174.356 128.593 174.074 128.593C173.792 128.593 173.509 128.667 173.465 128.741C173.42 128.83 172.885 128.889 172.276 128.889C171.132 128.889 170.953 128.993 171.176 129.554C171.236 129.717 171.295 130.5 171.295 131.284C171.31 132.067 171.384 132.895 171.488 133.132C171.637 133.501 171.786 135.113 171.979 138.409C172.008 138.971 172.083 139.533 172.142 139.666C172.231 139.888 172.291 140.464 172.618 143.85C172.677 144.47 172.811 145.077 172.915 145.18C173.019 145.284 173.093 145.727 173.093 146.2C173.093 146.673 173.167 147.102 173.242 147.146C173.331 147.191 173.39 147.457 173.39 147.708C173.39 148.166 173.792 150.28 173.91 150.472C173.94 150.531 174.044 150.96 174.118 151.448C174.297 152.424 174.579 153.739 174.951 155.277C175.084 155.853 175.248 156.578 175.322 156.903C175.381 157.228 175.575 157.938 175.753 158.47C175.931 159.002 176.139 159.771 176.214 160.17C176.407 161.249 176.674 162.181 176.897 162.624C177.016 162.831 177.105 163.201 177.105 163.452C177.105 163.688 177.209 163.969 177.328 164.073C177.447 164.176 177.551 164.428 177.551 164.649C177.551 165.078 177.908 166.275 178.234 166.926C178.353 167.162 178.443 167.517 178.443 167.724C178.443 167.931 178.532 168.301 178.651 168.552C178.769 168.818 178.977 169.38 179.111 169.823C179.26 170.252 179.468 170.784 179.572 171.006C179.691 171.213 179.78 171.523 179.78 171.686C179.78 171.849 179.869 172.115 179.988 172.277C180.092 172.44 180.226 172.736 180.27 172.943C180.374 173.445 180.79 174.584 180.969 174.894C181.058 175.042 181.117 175.234 181.117 175.337C181.117 175.5 183.658 181.842 184.015 182.699C184.386 183.557 185.159 185.257 185.263 185.582C185.382 185.907 185.694 186.646 185.961 187.208C186.229 187.785 186.481 188.347 186.526 188.465C186.571 188.583 186.675 188.79 186.734 188.908C186.883 189.16 187.21 189.81 187.774 190.904C188.547 192.427 191.028 194.526 192.054 194.526C192.291 194.526 192.589 194.6 192.708 194.674C193.005 194.866 194.312 194.851 195.516 194.659ZM205.085 191.939C205.724 191.821 206.378 191.658 206.527 191.569C206.675 191.495 207.106 191.421 207.478 191.421C207.834 191.421 208.325 191.347 208.533 191.274C208.756 191.185 209.439 191.067 210.063 190.993C211.713 190.786 213.407 190.401 213.644 190.165C213.971 189.854 213.689 189.647 212.946 189.647C211.861 189.647 210.554 189.396 209.9 189.056C209.068 188.627 207.953 187.519 207.641 186.839C207.359 186.203 206.973 186.055 206.973 186.573C206.973 187.711 205.234 190.815 204.357 191.274C203.837 191.54 203.703 191.702 203.807 191.968C203.852 192.072 203.897 192.161 203.911 192.161C203.911 192.161 204.446 192.057 205.085 191.939ZM214.402 188.302C214.566 187.933 214.551 187.755 214.343 187.238C214.194 186.898 214.046 186.1 214.001 185.464C213.956 184.828 213.852 184.281 213.793 184.237C213.719 184.193 213.659 183.719 213.659 183.172C213.644 182.596 213.555 182.034 213.436 181.812C213.317 181.605 213.228 181.044 213.213 180.512C213.213 179.994 213.139 179.447 213.065 179.299C212.976 179.137 212.887 178.605 212.842 178.087C212.797 177.57 204.134 123.05 203.882 120.951C203.822 120.448 203.689 119.945 203.585 119.842C203.481 119.738 203.406 119.28 203.406 118.763C203.391 118.275 203.302 117.713 203.183 117.506C203.064 117.299 202.975 116.9 202.96 116.604C202.96 115.954 202.203 114.017 201.787 113.618C201.475 113.293 200.36 113.234 199.855 113.5C199.216 113.84 198.235 114.091 197.745 114.032C197.477 114.003 196.868 113.929 196.422 113.87C195.977 113.81 195.427 113.633 195.204 113.47C194.758 113.145 193.614 113.086 191.965 113.308C191.058 113.426 190.999 113.47 190.954 113.84C190.924 114.076 191.028 114.417 191.222 114.668C191.534 115.082 191.935 116.383 192.336 118.245C192.633 119.635 192.93 120.862 193.213 121.793C193.51 122.739 193.659 123.316 193.956 124.528C194.075 125.016 207.002 182.374 207.27 184.03C207.448 185.198 208.369 186.765 209.261 187.43C210.108 188.066 211.445 188.657 212.396 188.82C213.659 189.027 214.164 188.908 214.402 188.302ZM76.7301 147.56C76.9827 147.471 77.5474 147.324 77.9931 147.22C79.1225 146.954 80.7273 146.171 81.708 145.402L82.5253 144.766L82.6887 143.436C82.8373 142.268 83.2385 141.1 83.7734 140.272C84.3084 139.444 85.4228 136.222 85.4228 135.527C85.4228 134.98 85.1999 134.773 84.5164 134.64C83.1939 134.388 82.2281 134.137 82.1389 134.034C82.0943 133.974 81.7674 133.856 81.3959 133.782C80.3409 133.546 79.4196 133.294 79.1522 133.161C79.0036 133.087 78.7064 133.028 78.4687 133.028C78.2458 133.028 77.9188 132.925 77.7554 132.807C77.6068 132.688 77.3542 132.585 77.2056 132.585C76.9381 132.585 74.308 131.861 71.5293 131.033C69.3896 130.397 65.3775 129.259 64.3968 128.963C63.4161 128.667 62.4502 128.372 62.2422 128.298C62.0342 128.239 61.3655 128.032 60.7563 127.854C60.147 127.677 52.1973 125.238 51.8852 125.105C51.0234 124.735 50.8153 124.661 49.6117 124.306C49.0025 124.114 48.0366 123.804 47.4571 123.612C46.8925 123.405 46.1941 123.198 45.9118 123.124C45.6443 123.05 39.5965 120.951 39.3291 120.818C39.0616 120.685 38.6455 120.507 38.3929 120.448C37.962 120.345 36.0006 119.679 35.421 119.443C35.2576 119.369 34.8564 119.236 34.5295 119.147C34.2026 119.044 33.8014 118.911 33.6379 118.851C32.8058 118.511 32.0777 118.245 31.3347 118.024C30.8889 117.876 30.3391 117.669 30.1162 117.565C29.9082 117.447 29.611 117.358 29.4476 117.358C29.299 117.358 29.0464 117.255 28.8978 117.137C28.7343 117.018 28.4817 116.915 28.3331 116.915C28.1994 116.915 27.8576 116.826 27.5901 116.708C26.6689 116.324 23.6524 115.481 22.003 115.156C20.8143 114.919 17.6789 114.949 17.2183 115.215C17.0103 115.333 16.6834 115.422 16.4902 115.437C16.297 115.437 15.9255 115.57 15.6729 115.717C15.4203 115.865 14.9745 116.043 14.6922 116.102C14.4099 116.161 14.083 116.264 13.9492 116.338C13.5332 116.56 12.7011 116.885 11.7203 117.211C11.1854 117.388 10.6207 117.58 10.4573 117.639C10.2938 117.713 9.35769 118.009 8.37697 118.319C7.39625 118.63 6.02919 119.162 5.3308 119.502L4.06775 120.123L4.09747 120.729C4.11233 121.054 4.23121 121.616 4.35008 121.971C4.46896 122.311 4.67699 122.887 4.81072 123.242C5.13763 124.159 5.67257 124.927 6.54927 125.785C7.67858 126.864 8.62958 127.455 10.1601 128.002C12.2998 128.756 12.6565 128.904 13.1023 129.126C13.34 129.244 13.6818 129.333 13.8749 129.333C14.0681 129.333 14.2761 129.407 14.3207 129.48C14.3653 129.569 14.5436 129.628 14.7071 129.628C14.8705 129.628 15.2569 129.761 15.5541 129.909C15.8512 130.072 16.3416 130.293 16.6239 130.412C16.9063 130.53 17.3818 130.737 17.6641 130.855C17.9464 130.974 18.4813 131.195 18.8528 131.343C19.2243 131.476 20.2942 131.964 21.2303 132.407C24.2171 133.812 24.9898 134.152 26.3568 134.714C27.0998 135.024 28.0656 135.438 28.5114 135.645C29.715 136.207 30.1162 136.369 31.2604 136.754C31.8399 136.931 32.5532 137.242 32.8504 137.419C33.1624 137.611 33.5339 137.759 33.6676 137.759C33.8162 137.759 34.0688 137.862 34.2174 137.981C34.3809 138.099 34.6632 138.202 34.8415 138.202C35.0198 138.202 35.2427 138.306 35.3467 138.424C35.4508 138.542 35.6439 138.646 35.7777 138.646C36.0005 138.646 37.2339 139.06 37.9471 139.37C38.1106 139.444 38.3781 139.548 38.5415 139.577C38.705 139.622 39.2102 139.799 39.656 139.976C40.1017 140.154 40.6813 140.346 40.919 140.376C41.1716 140.42 41.974 140.863 42.1821 140.908C42.8804 141.07 45.2297 141.775 45.7186 141.987C45.9875 142.102 47.0262 142.297 47.2342 142.416C47.4423 142.534 47.8138 142.637 48.0515 142.637C48.3041 142.637 50.0709 143.156 50.2358 143.243C50.6355 143.455 52.8065 143.968 54.6936 144.308C55.236 144.481 55.6476 144.601 55.8824 144.677C56.0028 144.716 57.2049 144.929 57.3832 145.032C57.5615 145.136 58.0816 145.254 58.5274 145.328C58.9731 145.387 59.6418 145.505 60.0133 145.594C60.7117 145.757 64.0996 146.348 64.2036 146.451C64.3077 146.555 67.0418 147.043 67.6362 147.102C69.553 147.294 71.0687 147.501 71.5293 147.634C72.1237 147.811 76.1654 147.752 76.7301 147.56ZM85.4228 133.413C85.4228 132.999 84.9028 131.683 84.4421 130.944C84.0409 130.294 83.2831 129.658 82.5996 129.377C82.3172 129.259 81.7377 128.993 81.3068 128.8C80.8907 128.608 80.3706 128.446 80.1775 128.446C79.9694 128.446 79.7317 128.342 79.6277 128.224C79.5088 128.091 79.1819 128.002 78.751 128.002C78.3646 128.002 77.9188 127.899 77.7554 127.78C77.5919 127.662 77.1313 127.573 76.6409 127.559C76.1506 127.559 75.7048 127.47 75.5265 127.337C75.3779 127.219 74.9321 127.115 74.5606 127.115C74.1743 127.115 73.6245 127.012 73.3422 126.893C73.045 126.775 72.5398 126.672 72.2277 126.672C71.9157 126.672 71.6036 126.627 71.5442 126.568C71.4402 126.465 69.9988 126.066 68.6615 125.785C68.3197 125.711 67.9036 125.578 67.755 125.489C67.5916 125.415 67.3092 125.341 67.1161 125.341C66.9229 125.341 66.6406 125.238 66.492 125.119C66.3285 125.001 66.0313 124.898 65.8233 124.898C65.6153 124.883 65.2735 124.794 65.0655 124.676C64.8575 124.558 64.5454 124.469 64.3671 124.454C64.1888 124.454 63.8619 124.365 63.6241 124.247C63.4012 124.129 62.7029 123.878 62.0936 123.7C61.4844 123.538 60.6077 123.257 60.1619 123.094C59.7161 122.932 59.1069 122.739 58.8097 122.665C58.5125 122.606 57.9478 122.399 57.5466 122.222C57.1454 122.059 56.3876 121.778 55.8527 121.616C55.3177 121.453 54.6788 121.231 54.4262 121.113C54.1736 120.98 53.7426 120.832 53.4603 120.758C52.7025 120.566 52.0041 120.359 51.172 120.093C50.7708 119.96 50.1615 119.783 49.8346 119.709C49.5077 119.62 49.0471 119.487 48.7945 119.398C48.5567 119.324 48.0961 119.206 47.784 119.132C47.472 119.073 47.1302 118.94 47.0411 118.851C46.9519 118.763 46.6993 118.689 46.4913 118.689C46.2832 118.689 45.9712 118.585 45.8077 118.467C45.6591 118.349 45.3174 118.245 45.0648 118.245C44.827 118.245 44.4853 118.142 44.3218 118.024C44.1732 117.905 43.9206 117.802 43.7869 117.802C43.6383 117.802 43.3114 117.713 43.0439 117.595C42.7764 117.491 42.1523 117.284 41.662 117.151C40.6218 116.856 40.2801 116.737 38.6901 116.146C38.0363 115.91 36.4612 115.377 35.1981 114.978C33.9351 114.579 32.7018 114.15 32.4789 114.032C32.2411 113.914 31.9439 113.81 31.8102 113.81C31.6765 113.81 31.2307 113.633 30.8146 113.441C30.4134 113.234 29.9825 113.071 29.8933 113.071C29.7893 113.071 29.2544 112.938 28.7046 112.761C28.1399 112.598 27.3673 112.376 26.9512 112.258C26.55 112.14 25.8665 111.948 25.4355 111.829C25.0195 111.696 22.0773 111.002 19.4472 110.913C16.7279 110.824 16.1336 110.972 13.6521 112.45C13.3697 112.628 12.8348 112.909 12.4633 113.086C12.0918 113.263 11.6163 113.5 11.3934 113.603C11.1854 113.722 10.9031 113.81 10.7693 113.81C10.6356 113.81 10.4127 113.87 10.2641 113.943C10.1304 114.017 9.50629 114.224 8.89705 114.402C6.89104 114.978 6.46011 115.185 5.67257 115.924C5.24164 116.338 4.88502 116.723 4.88502 116.782C4.88502 116.856 4.72157 117.255 4.51354 117.684C4.11233 118.497 4.03804 119.132 4.32036 119.132C4.40952 119.132 4.69185 118.984 4.94446 118.792C5.77658 118.171 6.47497 117.831 7.12879 117.728C7.48541 117.669 9.49143 116.944 9.93721 116.767C10.383 116.59 10.9625 116.397 11.2003 116.368C11.4529 116.324 11.7203 116.235 11.7946 116.176C11.8838 116.117 12.3741 115.924 12.9091 115.732C13.444 115.54 13.9344 115.333 14.0235 115.259C14.0978 115.2 14.2613 115.141 14.395 115.141C14.5139 115.141 14.8259 115.037 15.0637 114.904C16.4605 114.15 17.5452 113.914 19.6404 113.855C21.0669 113.81 21.7653 113.855 21.9139 113.973C22.0179 114.062 22.5082 114.195 22.9689 114.254C23.9199 114.387 25.1978 114.668 25.5396 114.816C25.6584 114.86 25.8665 114.904 25.9853 114.919C26.3865 114.934 28.8086 115.747 28.8978 115.895C28.9423 115.969 29.1207 116.028 29.299 116.028C29.4921 116.028 29.7596 116.117 29.9231 116.22C30.0865 116.338 30.6215 116.53 31.1118 116.678C31.6022 116.826 32.4789 117.107 33.0435 117.314C33.6231 117.506 34.3066 117.728 34.5741 117.802C34.8415 117.861 35.1387 117.979 35.2427 118.068C35.3467 118.142 35.5845 118.245 35.7925 118.275C36.2086 118.364 38.2889 119.073 38.9873 119.354C39.2399 119.458 39.6857 119.65 39.9977 119.783C40.3098 119.916 40.6664 120.019 40.7853 120.019C40.919 120.019 41.2013 120.108 41.4094 120.226C41.8106 120.448 46.9073 122.089 47.6057 122.399C47.7692 122.473 48.2447 122.621 48.6459 122.739C49.5523 122.991 51.6029 123.626 53.2523 124.188C53.5049 124.277 53.9061 124.38 54.1438 124.425C54.3965 124.454 54.7234 124.587 54.8868 124.691C55.0503 124.809 55.3772 124.898 55.6298 124.898C55.8675 124.898 56.2093 125.001 56.3579 125.119C56.5213 125.238 62.5543 127.041 62.8366 127.115C63.3864 127.248 64.2928 127.573 64.5454 127.721C64.694 127.81 71.7522 129.747 72.0643 129.924C72.198 129.998 72.5695 130.101 72.8815 130.146C73.4165 130.234 74.2783 130.471 75.3928 130.826C75.6454 130.914 76.2695 131.107 76.8044 131.269C77.3393 131.447 78.0674 131.668 78.4389 131.787C78.8104 131.905 79.2265 131.994 79.3602 131.994C79.5088 131.994 79.8357 132.082 80.1032 132.201C80.3707 132.304 80.965 132.511 81.4108 132.644C82.8076 133.043 84.1449 133.487 84.3827 133.634C84.5015 133.694 84.7839 133.768 85.0216 133.768C85.3485 133.768 85.4228 133.708 85.4228 133.413ZM83.4614 127.987C83.506 127.559 83.1939 127.337 82.7333 127.485C82.3915 127.603 82.3767 127.899 82.6887 128.224C83.0305 128.564 83.402 128.446 83.4614 127.987ZM172.35 127.337C172.692 127.219 173.227 127.115 173.524 127.115C173.821 127.115 174.148 127.041 174.237 126.953C174.326 126.864 174.668 126.731 174.98 126.657C176.124 126.406 177.209 126.08 178.071 125.696C178.561 125.474 179.2 125.193 179.483 125.075C180.404 124.676 180.865 124.425 182.157 123.582C182.856 123.124 183.495 122.725 183.569 122.695C183.851 122.577 185.367 121.379 186.11 120.67C187.091 119.724 187.64 118.984 188.309 117.728L188.844 116.693L188.473 116.368C188.25 116.176 187.997 116.028 187.878 116.028C187.774 116.028 187.284 115.836 186.793 115.584C186.303 115.348 185.664 115.126 185.382 115.082C185.1 115.052 184.743 114.963 184.594 114.875C184.267 114.712 183.45 114.431 182.826 114.254C182.41 114.136 182.128 114.047 180.939 113.648C180.33 113.441 178.918 112.938 178.517 112.79C178.353 112.716 177.982 112.598 177.7 112.495C177.239 112.332 173.91 111.135 173.167 110.854C173.004 110.795 172.618 110.632 172.306 110.499C171.994 110.366 171.637 110.262 171.518 110.262C171.384 110.262 171.087 110.159 170.849 110.041C170.612 109.922 170.225 109.715 169.988 109.597C169.75 109.479 169.378 109.375 169.185 109.375C168.977 109.375 168.754 109.302 168.71 109.228C168.62 109.08 167.907 108.74 167.149 108.474C165.01 107.749 164.252 107.454 164.207 107.321C164.178 107.232 163.999 107.158 163.806 107.158C163.613 107.158 163.42 107.099 163.36 107.025C163.316 106.951 162.929 106.774 162.498 106.626C161.325 106.241 157.149 104.482 156.882 104.261C156.763 104.142 156.54 104.054 156.421 104.054C156.287 104.054 155.99 103.95 155.752 103.832C155.529 103.728 155.039 103.492 154.668 103.329C154.296 103.181 153.627 102.886 153.182 102.679C152.736 102.487 152.097 102.22 151.77 102.087C151.176 101.866 147.669 100.24 146.896 99.8404C146.658 99.7222 146.391 99.6187 146.272 99.6187C146.168 99.6187 146.005 99.5152 145.9 99.3969C145.796 99.2787 145.588 99.1752 145.44 99.1752C145.291 99.1752 144.831 98.983 144.444 98.7317C144.043 98.4952 143.657 98.2882 143.582 98.2882C143.419 98.2882 137.98 95.5977 137.876 95.4646C137.832 95.4055 137.431 95.2133 136.985 95.0359C136.539 94.8438 136.064 94.6072 135.93 94.489C135.811 94.3855 135.588 94.2968 135.454 94.2968C135.321 94.2968 135.172 94.2376 135.127 94.1489C135.083 94.075 134.488 93.735 133.82 93.4098C133.151 93.0698 132.497 92.7446 132.378 92.6706C132.26 92.5967 131.858 92.4045 131.487 92.2271C131.115 92.0645 130.714 91.8576 130.595 91.7837C130.476 91.7097 130.268 91.621 130.15 91.5767C130.031 91.5176 129.629 91.3106 129.258 91.1036C128.352 90.5862 124.845 88.827 123.389 88.1618C122.735 87.8514 121.412 87.3487 120.432 87.0383C117.475 86.0626 115.587 86.1218 110.981 87.2748C110.446 87.4079 109.718 87.5705 109.346 87.6592C108.99 87.7331 107.355 88.1766 107.088 88.2949C106.82 88.4131 106.092 88.5757 105.483 88.6644C104.874 88.7679 104.175 88.901 103.923 88.9601C103.061 89.2114 102.14 89.4332 101.397 89.5662C99.8067 89.8471 97.4441 90.7636 97.2955 91.1628C97.0429 91.8576 97.1915 94.4742 97.5184 94.8881C97.6224 95.0064 97.8156 95.3759 97.9493 95.6864C98.0979 95.9968 98.3951 96.4551 98.618 96.7064C99.8661 98.0812 101.412 99.5152 102.303 100.092C104.681 101.629 105.022 101.836 105.29 101.925C105.438 101.984 105.899 102.28 106.3 102.575C106.716 102.871 107.578 103.418 108.232 103.802C108.886 104.172 110.372 105.088 111.531 105.857C115.379 108.385 116.85 109.302 117.118 109.346C117.252 109.375 117.37 109.449 117.37 109.523C117.37 109.597 117.787 109.849 118.307 110.1C118.812 110.351 119.57 110.765 119.971 111.031C120.387 111.297 120.966 111.623 121.293 111.77C121.605 111.918 122.111 112.229 122.423 112.48C122.735 112.716 123.076 112.923 123.195 112.923C123.314 112.923 123.463 112.983 123.552 113.056C123.879 113.382 132.705 117.802 133.032 117.802C133.136 117.802 133.315 117.905 133.419 118.024C133.523 118.142 133.686 118.245 133.775 118.245C133.968 118.245 134.949 118.718 135.246 118.955C135.35 119.029 135.588 119.132 135.796 119.177C136.405 119.31 137.282 119.664 137.46 119.842C137.564 119.945 137.772 120.019 137.936 120.019C138.114 120.019 138.382 120.123 138.53 120.241C138.694 120.359 138.976 120.463 139.154 120.463C139.333 120.463 139.556 120.566 139.66 120.685C139.764 120.803 139.986 120.906 140.165 120.906C140.343 120.906 140.566 120.98 140.655 121.069C140.729 121.143 141.131 121.305 141.532 121.409C142.572 121.705 144.117 122.237 144.593 122.473C144.801 122.592 145.128 122.68 145.306 122.68C145.484 122.68 145.99 122.843 146.435 123.05C146.881 123.257 147.372 123.419 147.535 123.419C147.698 123.419 148.04 123.508 148.308 123.626C148.575 123.745 149.17 123.907 149.615 124.011C150.581 124.218 151.384 124.439 151.696 124.602C151.829 124.661 152.156 124.765 152.439 124.824C152.721 124.883 153.033 124.986 153.107 125.046C153.196 125.105 153.553 125.193 153.925 125.252C155.381 125.445 157.625 125.918 157.966 126.095C158.115 126.169 158.516 126.228 158.858 126.228C159.214 126.243 159.66 126.332 159.868 126.45C160.076 126.568 160.567 126.657 160.953 126.672C161.354 126.672 161.815 126.746 161.993 126.849C162.305 127.026 162.974 127.115 165.961 127.396C168.279 127.618 171.652 127.588 172.35 127.337ZM85.3485 126.154C86.5224 125.888 88.2461 125.386 88.9148 125.105C89.1674 125.016 89.6578 124.809 90.0292 124.661C90.4007 124.513 90.8019 124.306 90.9357 124.203C91.0545 124.099 91.218 124.011 91.2774 124.011C91.3963 124.011 92.4959 123.493 92.8525 123.272C93.2389 123.035 95.9284 121.793 96.0621 121.793C96.1364 121.793 96.6268 121.586 97.1617 121.32C99.4352 120.226 101.322 119.428 103.105 118.837C103.64 118.659 104.19 118.452 104.324 118.378C104.473 118.304 104.681 118.245 104.799 118.245C104.918 118.245 105.201 118.157 105.438 118.038C105.84 117.831 106.627 117.58 108.009 117.211C108.381 117.107 109.213 116.841 109.867 116.619C110.52 116.383 111.798 115.998 112.69 115.732C113.596 115.481 114.726 115.141 115.216 114.993C116.301 114.653 119.302 113.87 120.119 113.707C121.011 113.53 120.937 113.101 119.971 112.776C119.57 112.643 118.871 112.317 118.44 112.066C118.009 111.8 117.623 111.593 117.593 111.593C117.504 111.593 115.677 110.514 115.587 110.41C115.513 110.322 113.403 109.006 112.259 108.341C111.917 108.134 111.263 107.705 110.832 107.38C110.03 106.788 109.629 106.537 109.198 106.315C109.079 106.256 108.559 105.931 108.039 105.576C107.519 105.221 107.073 104.941 107.043 104.941C106.984 104.941 105.097 103.802 103.18 102.62C99.7324 100.491 96.9834 97.8743 96.2553 95.9968C96.1216 95.6716 95.9284 95.169 95.8095 94.8881C95.5272 94.1785 95.4975 90.4384 95.765 89.6549C95.8838 89.3445 97.4441 85.4417 98.2762 84.6139C99.0489 83.8304 100.01 83.347 100.386 83.2095C100.957 82.9996 100.921 82.8991 100.223 82.219C99.8513 81.8347 99.3461 81.0068 99.0935 80.6964C98.8557 80.3859 98.4545 79.4842 98.2168 78.9963C97.6224 77.7841 97.0131 76.2615 97.0131 75.9658C97.0131 75.8327 96.4931 74.4875 96.3296 72.7874C96.2702 72.2996 95.973 71.1465 95.973 70.57C95.9581 69.9491 95.5421 68.323 95.5272 67.3621C95.5272 66.5786 95.4529 65.7507 95.3489 65.5142C95.2597 65.2777 95.1111 63.5628 95.0368 61.4784C94.8734 57.6053 94.814 46.858 94.9328 45.5127C95.022 44.5518 94.8883 44.4779 93.6846 44.8179C92.5108 45.1579 91.218 45.4832 90.3264 45.6753C89.8807 45.764 89.316 45.9119 89.0634 45.9858C88.8256 46.0745 88.3501 46.1927 88.0232 46.2667C87.6963 46.3258 87.0574 46.4884 86.6116 46.6067C84.9028 47.0649 83.6992 47.4197 83.2682 47.5528C82.5847 47.7893 78.5578 49.0311 78.216 49.1198C78.0526 49.1493 77.2502 49.4302 76.4329 49.7259C75.6156 50.0215 74.5755 50.3468 74.1149 50.465C73.3422 50.6572 71.5888 51.2633 69.449 52.0912C68.9586 52.2686 67.9631 52.6086 67.2498 52.8303C66.5366 53.0669 65.9125 53.3034 65.8679 53.3773C65.8233 53.4364 65.6747 53.4956 65.541 53.4956C65.4073 53.4956 65.0952 53.599 64.8575 53.7173C64.6346 53.8356 64.3522 53.9391 64.2482 53.9391C64.1293 53.9391 63.8619 54.0278 63.6241 54.146C62.6583 54.6339 61.0832 55.2695 60.8603 55.2695C60.7266 55.2695 60.1916 55.4617 59.6864 55.6835C59.1663 55.92 58.4531 56.2304 58.0816 56.3783C57.7101 56.5261 57.3089 56.7478 57.1752 56.8513C57.0563 56.9548 56.8483 57.0435 56.7294 57.0435C56.4768 57.0435 54.8125 57.6053 54.5896 57.7679C54.5153 57.827 54.2033 57.9748 53.921 58.0783C53.6386 58.1818 52.9105 58.4922 52.3161 58.7731C51.7218 59.0392 51.1868 59.261 51.1125 59.261C51.0382 59.261 50.5776 59.4531 50.0872 59.7044C49.582 59.941 49.0917 60.1479 48.9876 60.1479C48.8688 60.1479 48.6607 60.2366 48.4973 60.3401C48.3338 60.4436 47.6057 60.7984 46.8628 61.0941C46.1346 61.4045 44.9756 61.9219 44.3069 62.2323C43.6383 62.5576 43.0439 62.8089 42.9696 62.8089C42.9102 62.8089 42.4495 63.0011 41.9592 63.2376C41.4688 63.4741 40.2652 64.0507 39.2845 64.5237C35.6439 66.2386 33.4745 67.2734 33.207 67.4212C32.1371 67.9977 30.8741 68.5743 30.6809 68.5743C30.562 68.5743 30.4283 68.6334 30.3688 68.7073C30.3243 68.796 29.8339 69.0769 29.2841 69.3578C27.6942 70.1561 25.3464 71.3683 25.0195 71.5752C24.856 71.6639 24.4548 71.9152 24.1279 72.1222C23.801 72.3292 23.2809 72.6248 22.954 72.7874C22.1962 73.1718 20.8291 74.5466 20.4725 75.2858C20.3091 75.6258 20.1902 76.1875 20.1902 76.6015C20.1902 76.9858 20.1159 77.4589 20.0119 77.6363C19.9078 77.8137 19.789 78.7007 19.7295 79.5876C19.6701 80.4894 19.5512 81.6868 19.4621 82.2486C19.2243 83.8895 19.254 90.2019 19.5215 91.5915C19.6404 92.2272 19.7444 93.4246 19.7444 94.2672C19.7444 95.3759 19.8038 95.9081 19.9821 96.2481C20.1159 96.4995 20.1902 96.8986 20.1456 97.1647C20.0862 97.6378 21.0223 100.565 21.691 101.94C23.0135 104.66 25.495 107.794 28.0954 110.041C29.0464 110.869 29.6556 111.149 33.8608 112.687C34.7821 113.027 35.4062 113.249 35.8668 113.367C36.1194 113.441 36.9813 113.736 37.7985 114.032C38.6158 114.328 40.0274 114.801 40.919 115.097C41.8254 115.377 42.7616 115.703 42.9993 115.806C43.2519 115.91 43.8463 116.102 44.3367 116.25C44.827 116.383 45.466 116.59 45.7483 116.693C46.6696 117.033 48.9282 117.684 49.582 117.787C49.9386 117.861 50.2953 117.979 50.3844 118.068C50.6073 118.29 52.4647 118.304 52.6876 118.083C52.7768 117.994 53.282 117.772 53.8021 117.58C54.3073 117.403 55.0354 117.137 55.4069 117.004C55.9567 116.797 60.8157 114.431 61.6478 113.943C63.3864 112.968 65.2289 111.844 65.2884 111.741C65.3478 111.652 65.4816 111.593 65.6153 111.593C65.749 111.593 65.9719 111.504 66.0908 111.386C66.2245 111.268 66.9675 110.839 67.7402 110.41C68.5129 109.982 69.1815 109.582 69.1964 109.509C69.2261 109.435 69.3599 109.375 69.5084 109.375C69.6422 109.375 69.9097 109.272 70.1028 109.139C70.5189 108.843 73.9068 107.158 74.0851 107.158C74.1446 107.158 74.5309 106.981 74.9321 106.774C75.7345 106.345 78.6024 105.384 79.063 105.384C79.2265 105.384 79.4939 105.31 79.6723 105.207C79.8506 105.118 80.3409 104.955 80.7421 104.852C81.1582 104.748 82.0943 104.497 82.8224 104.305C85.2742 103.64 88.0232 103.019 88.4096 103.019C88.6325 103.019 89.0039 102.915 89.2268 102.797C89.4646 102.679 89.9401 102.575 90.2819 102.575C90.6236 102.575 90.9357 102.516 90.9802 102.442C91.0248 102.383 91.5152 102.28 92.065 102.22C92.6148 102.161 93.224 102.087 93.4172 102.028C93.6401 101.984 93.7441 102.014 93.7441 102.147C93.7441 102.546 93.4618 102.767 92.8377 102.886C92.481 102.945 91.7826 103.078 91.2923 103.167C90.8019 103.255 90.3413 103.388 90.267 103.477C90.1778 103.551 89.9104 103.61 89.6578 103.61C89.4052 103.61 89.0634 103.714 88.8999 103.832C88.7513 103.95 88.3501 104.054 88.0232 104.054C87.6963 104.054 87.2357 104.157 86.9979 104.275C86.775 104.394 86.4333 104.497 86.255 104.497C86.0766 104.497 85.5269 104.601 85.0514 104.734C84.561 104.867 83.922 105.029 83.6397 105.088C83.0602 105.221 82.2132 105.502 81.8269 105.695C81.6783 105.768 81.4405 105.828 81.3068 105.828C81.1582 105.828 80.2666 106.108 79.3305 106.434C78.3943 106.759 77.4136 107.084 77.1759 107.143C76.9233 107.202 76.5964 107.321 76.4329 107.409C76.2695 107.498 75.4373 107.882 74.5755 108.282C73.7136 108.681 72.9112 109.08 72.7775 109.183C72.6586 109.287 72.4803 109.375 72.406 109.375C72.2129 109.375 71.3956 109.804 70.608 110.307C70.2514 110.529 69.9394 110.706 69.8948 110.706C69.8502 110.706 69.5382 110.883 69.1815 111.105C68.8398 111.327 68.2603 111.667 67.8888 111.859C66.8486 112.436 66.6852 112.524 65.7787 113.116C65.3032 113.426 64.7534 113.736 64.5306 113.81C64.3077 113.899 63.9659 114.091 63.743 114.239C63.1189 114.668 57.829 117.358 57.5912 117.358C57.4724 117.358 57.294 117.462 57.19 117.58C57.086 117.698 56.9077 117.802 56.8037 117.802C56.6848 117.802 56.2687 117.964 55.8675 118.157C55.4663 118.349 54.8274 118.556 54.4559 118.6C54.0844 118.659 53.7278 118.778 53.6832 118.866C53.5643 119.058 54.0101 119.413 54.5153 119.517C55.2732 119.679 56.5362 120.049 56.9671 120.226C57.5764 120.478 58.0667 120.655 60.7563 121.527C62.0193 121.926 63.2972 122.355 63.5796 122.458C64.1145 122.651 66.0313 123.227 68.4089 123.937C69.1518 124.159 70.0137 124.38 70.3406 124.439C70.6675 124.499 71.0835 124.632 71.2618 124.72C71.4402 124.824 71.8711 124.898 72.2426 124.898C72.5992 124.898 72.941 124.942 73.0004 125.001C73.1638 125.164 75.7048 125.637 78.4241 126.006C79.3602 126.139 80.1626 126.273 80.2072 126.302C80.3855 126.479 84.3827 126.361 85.3485 126.154ZM189.097 115.111C188.8 113.19 187.774 111.563 186.318 110.632C185.352 110.026 184.045 109.375 183.792 109.375C183.643 109.375 183.45 109.272 183.346 109.154C183.242 109.035 183.049 108.932 182.915 108.932C182.781 108.932 182.603 108.873 182.529 108.799C182.44 108.725 181.712 108.385 180.894 108.045C180.077 107.705 179.349 107.365 179.275 107.291C179.186 107.217 179.037 107.158 178.918 107.158C178.814 107.158 178.324 106.966 177.818 106.715C177.328 106.478 176.867 106.271 176.793 106.271C176.659 106.271 175.188 105.621 174.237 105.148C174 105.029 173.747 104.941 173.658 104.941C173.569 104.941 173.123 104.763 172.662 104.556C172.202 104.349 171.592 104.068 171.31 103.95C171.028 103.832 170.255 103.507 169.601 103.211C168.947 102.93 168.219 102.605 167.967 102.501C167.729 102.413 167.135 102.147 166.659 101.94C166.198 101.718 165.738 101.54 165.663 101.54C165.589 101.54 165.025 101.304 164.415 101.023C163.806 100.742 163.256 100.506 163.212 100.506C163.167 100.506 162.706 100.313 162.201 100.077C161.696 99.8404 160.671 99.4265 159.928 99.1308C159.2 98.8352 158.278 98.436 157.892 98.2439C157.521 98.0369 156.361 97.5343 155.336 97.1203C154.296 96.6916 153.345 96.2925 153.211 96.2334C152.112 95.6864 150.566 94.9916 149.719 94.6811C149.17 94.4742 148.56 94.2081 148.382 94.075C148.204 93.9568 147.981 93.8533 147.877 93.8533C147.773 93.8533 147.268 93.6611 146.762 93.4246C145.455 92.8333 144.637 92.4785 143.523 92.0054C142.988 91.7837 142.29 91.488 141.963 91.3402C139.719 90.3349 139.125 90.0836 138.174 89.6697C137.891 89.5514 137.208 89.241 136.658 88.9897C136.108 88.7383 135.618 88.5314 135.573 88.5314C135.529 88.5314 135.053 88.3244 134.503 88.0731C132.601 87.2305 131.888 86.92 130.744 86.4618C130.298 86.2844 129.867 86.0774 129.778 86.0035C129.704 85.9296 129.54 85.8704 129.407 85.8704C129.288 85.8704 128.782 85.6783 128.292 85.4417C127.549 85.0722 126.063 84.4217 124.577 83.8008C124.414 83.7269 123.953 83.5199 123.537 83.3425C123.136 83.1651 122.467 82.899 122.051 82.7364C121.338 82.4556 121.07 82.3669 119.897 82.0416C119.614 81.9677 118.975 81.7903 118.485 81.6573C117.385 81.3616 114.042 81.2877 113.775 81.5538C113.671 81.6573 112.303 81.879 111.917 82.0564C111.516 82.219 110.966 82.4703 110.684 82.5886C110.401 82.7069 109.985 82.899 109.762 83.0173C109.554 83.1208 107.965 83.6086 107.534 83.6678C107.103 83.7269 106.077 83.9043 105.26 84.0373C104.443 84.1852 103.447 84.2887 103.031 84.2739C102.511 84.2591 101.961 84.3774 101.144 84.7026C100.223 85.0722 99.8959 85.2939 99.3609 85.9148C98.6477 86.7574 98.4991 86.9792 98.0384 87.9401C97.875 88.3096 97.6372 88.7975 97.5184 89.0192C97.2658 89.5514 97.2509 90.1575 97.5035 90.1575C97.6075 90.1575 97.9047 89.9506 98.1722 89.714C98.4397 89.4627 98.8111 89.2705 99.0043 89.2705C99.1826 89.2705 99.3906 89.2114 99.4649 89.1375C99.673 88.9601 100.936 88.5757 101.991 88.3836C103.224 88.147 106.063 87.5114 106.612 87.334C106.865 87.26 107.222 87.2009 107.4 87.2009C107.593 87.2009 109.079 86.6983 109.569 86.58C111.977 85.9739 113.032 85.693 113.433 85.56C114.116 85.3382 117.192 85.2348 118.188 85.4122C120.996 85.8852 121.472 86.0183 123.24 86.787C124.548 87.3635 126.821 88.4427 127.995 89.034C128.485 89.2853 129.317 89.714 129.852 89.9801C130.387 90.2462 130.922 90.5271 131.041 90.601C131.16 90.6897 131.561 90.8819 131.933 91.0445C132.304 91.2219 133.211 91.6802 133.939 92.0793C134.682 92.4785 136.182 93.2472 137.282 93.7794C138.382 94.3263 139.392 94.829 139.511 94.8881C140.254 95.3168 147.149 98.6578 147.832 98.9239C148.04 98.9978 148.308 99.1161 148.427 99.19C148.545 99.2639 148.813 99.3969 149.021 99.4856C149.229 99.5743 149.571 99.7369 149.794 99.8552C150.002 99.9735 150.314 100.062 150.477 100.062C150.641 100.062 150.804 100.166 150.864 100.284C150.908 100.402 151.101 100.506 151.294 100.506C151.502 100.506 151.74 100.609 151.844 100.727C151.948 100.846 152.127 100.949 152.245 100.949C152.364 100.949 152.647 101.038 152.855 101.141C153.078 101.26 153.494 101.452 153.776 101.585C154.058 101.703 154.727 102.014 155.262 102.25C155.797 102.487 157 103.004 157.937 103.403C158.873 103.787 159.72 104.157 159.794 104.216C159.883 104.275 160.819 104.66 161.874 105.088C162.944 105.502 163.94 105.901 164.103 105.975C164.267 106.049 164.668 106.212 164.995 106.33C165.322 106.434 166.154 106.774 166.852 107.069C167.536 107.365 168.175 107.602 168.264 107.602C168.353 107.602 168.784 107.764 169.2 107.971C169.631 108.178 170.017 108.341 170.062 108.341C170.166 108.341 171.176 108.784 171.949 109.169C172.187 109.287 172.528 109.375 172.722 109.375C172.915 109.375 173.108 109.435 173.167 109.523C173.212 109.597 173.465 109.73 173.732 109.804C174.505 110.041 176.674 110.809 177.551 111.149C177.997 111.327 178.502 111.504 178.665 111.549C178.829 111.593 179.171 111.711 179.408 111.815C179.661 111.918 180.226 112.125 180.671 112.258C181.117 112.406 181.548 112.583 181.622 112.643C181.712 112.716 181.905 112.776 182.083 112.776C182.261 112.776 182.455 112.835 182.544 112.909C182.618 112.983 183.019 113.145 183.42 113.263C185.59 113.929 188.071 114.978 188.398 115.363C188.502 115.481 188.71 115.584 188.874 115.584C189.126 115.584 189.156 115.51 189.097 115.111ZM6.90589 113.234C6.98019 113.16 7.57457 112.953 8.22838 112.79C8.88219 112.613 9.6846 112.376 10.0115 112.243C10.9328 111.874 12.5079 111.149 12.7605 111.002C12.8794 110.928 13.6521 110.529 14.4693 110.115C15.6135 109.538 16.1038 109.375 16.6536 109.375C17.04 109.375 17.3818 109.316 17.4412 109.242C17.4858 109.154 17.2629 108.843 16.9657 108.533C16.1336 107.675 15.6283 106.966 15.1677 106.02C14.9448 105.547 14.6922 105.059 14.6179 104.941C14.4247 104.645 13.9641 103.3 13.9492 103.019C13.9492 102.901 13.8452 102.605 13.7263 102.368C13.6075 102.147 13.5035 101.674 13.5035 101.334C13.5035 101.008 13.0577 99.7517 13.0577 98.7465C13.0577 97.963 12.9834 96.736 12.9091 95.9968C12.6713 93.942 12.5673 81.7164 12.7605 79.2181C12.8496 78.0354 12.9834 75.5814 13.0577 73.7631C13.1468 71.9596 13.2508 70.3926 13.2954 70.3187C13.3549 70.23 13.4589 69.2247 13.5183 68.0716C13.7412 64.4941 13.9195 62.7498 14.0681 62.2471C14.1573 61.981 14.1573 60.074 14.3059 59.5714C14.4396 59.1279 14.5436 58.4922 14.5436 58.167C14.5436 57.827 14.6476 57.1913 14.7665 56.7478C14.8854 56.3043 14.9894 55.6687 14.9894 55.3287C14.9894 55.0034 15.0934 54.3973 15.2123 53.9982C15.3312 53.599 15.4352 52.9634 15.4352 52.579C15.4352 52.1947 16.1633 49.5337 16.1781 49.312C16.1781 48.8389 16.4902 48.1737 16.832 47.8928C16.9657 47.7745 17.0697 47.5232 17.0697 47.331C17.0697 47.0058 17.0251 46.9762 16.6982 47.0502C16.5051 47.0945 15.985 47.3458 15.5541 47.5971C15.1231 47.8484 13.0577 48.9276 10.9774 49.9772C6.72758 52.1207 5.92518 52.6677 5.92518 53.3921C5.92518 53.6582 5.47939 54.7965 5.43482 55.1956C5.36052 55.9643 4.98904 57.9748 4.73643 59.0836C4.64727 59.4236 4.03804 63.9176 3.91916 64.1394C3.80029 64.3463 3.71113 64.9229 3.69627 65.4846C3.69627 66.0316 3.28021 67.4508 3.22077 68.249C3.16133 69.0325 3.04246 70.3187 2.9533 71.0874C2.86414 71.8561 2.73041 73.1866 2.65611 74.044C2.58182 74.9014 2.46294 76.1284 2.37379 76.7789C2.29949 77.4293 2.26977 78.0946 2.31435 78.272C2.34407 78.4346 2.26977 78.9815 2.15089 79.4694C2.0023 80.0311 1.91314 81.0216 1.91314 82.1155C1.91314 83.0912 1.80913 84.8356 1.69025 86.0183C1.40793 88.8862 1.40793 96.056 1.69025 98.8056C1.80913 99.9439 1.91314 101.452 1.91314 102.161C1.91314 102.871 1.98744 103.625 2.09146 103.861C2.18061 104.083 2.26977 104.615 2.28463 105.014C2.32921 106.079 2.65611 107.188 3.47338 109.006C3.57739 109.257 3.71113 109.553 3.75571 109.671C3.84486 109.908 4.64727 111.135 5.4051 112.214C5.65771 112.554 5.91032 112.968 5.96975 113.116C6.07377 113.382 6.66814 113.456 6.90589 113.234ZM190.479 111.815C190.687 111.696 191.266 111.593 191.816 111.593C192.351 111.593 193.213 111.489 193.748 111.371C194.283 111.253 195.085 111.164 195.546 111.149C196.11 111.149 196.452 111.076 196.571 110.928C196.675 110.809 196.824 110.706 196.898 110.706C197.061 110.706 197.864 110.085 198.458 109.523C198.815 109.169 199.454 107.912 199.632 107.232C199.691 106.995 199.766 104.024 199.795 100.653C199.84 95.5977 199.81 94.3263 199.617 93.4246C199.483 92.7593 199.394 91.5471 199.394 90.2314C199.394 89.0488 199.32 87.9253 199.231 87.6888C199.142 87.467 199.052 86.2844 199.023 85.0574C198.993 83.8452 198.889 82.5147 198.8 82.1303C198.696 81.746 198.651 81.199 198.696 80.9181C198.74 80.6372 198.681 79.7946 198.562 79.0407C198.458 78.2867 198.354 77.1484 198.354 76.5276C198.354 75.9067 198.28 75.2119 198.191 74.9753C198.027 74.5466 197.804 72.4031 197.641 69.5352C197.581 68.6482 197.448 67.7612 197.359 67.5838C197.254 67.4064 197.165 66.7707 197.165 66.1351C197.165 65.4403 197.076 64.8489 196.942 64.5976C196.824 64.3611 196.749 63.9176 196.764 63.5776C196.764 63.2524 196.69 62.868 196.571 62.735C196.452 62.5871 196.289 62.2767 196.199 62.0549C196.125 61.8184 195.575 61.1236 194.996 60.4879C193.792 59.187 186.689 52.1799 184.535 50.1546C181.296 47.1241 180.181 46.0893 178.383 44.4779C177.343 43.5466 176.11 42.4083 175.649 41.9648C175.173 41.5213 174.029 40.4865 173.093 39.6734C172.157 38.8751 171.057 37.8994 170.641 37.5151C170.24 37.1307 169.705 36.6577 169.453 36.4803C169.215 36.2881 168.665 35.8446 168.264 35.475C167.432 34.7211 167.239 34.5733 165.738 33.3758C165.173 32.9176 164.534 32.3854 164.326 32.1784C164.118 31.9862 163.657 31.6019 163.286 31.321C162.929 31.0401 162.513 30.7001 162.394 30.5818C162.157 30.3453 160.567 29.1183 158.769 27.7731C158.159 27.3296 156.748 26.2652 155.619 25.4078C154.474 24.5504 153.167 23.5895 152.691 23.2642C150.878 22.0077 149.972 21.372 149.615 21.1059C149.407 20.9433 149.095 20.7363 148.917 20.6328C148.605 20.4554 147.966 20.0267 145.158 18.1049C144.385 17.5728 143.701 17.1293 143.642 17.1293C143.582 17.1293 143.241 16.9371 142.884 16.6858C142.513 16.4492 142.186 16.2423 142.141 16.2423C142.096 16.2423 141.636 15.9614 141.116 15.6214C140.046 14.897 139.957 14.8379 138.887 14.2613C137.564 13.537 137.52 13.5074 136.866 13.0935C136.524 12.8717 135.989 12.5465 135.677 12.3839C135.38 12.2213 135.023 12.0291 134.905 11.9552C134.295 11.5708 132.943 10.8169 132.081 10.3734C131.546 10.0925 131.011 9.81165 130.893 9.73773C130.774 9.6786 130.239 9.39772 129.704 9.14641C128.129 8.36291 124.146 6.32285 123.983 6.21937C123.909 6.16024 123.329 5.87936 122.72 5.59848C122.111 5.3176 121.501 5.02194 121.383 4.93324C121.264 4.84454 120.862 4.63758 120.491 4.48975C120.119 4.34192 119.555 4.10539 119.228 3.97234C117.177 3.10014 116.628 2.8784 116.568 2.95231C116.449 3.10014 116.033 4.57845 116.033 4.85933C116.033 5.03672 115.959 5.3176 115.855 5.495C115.677 5.82023 115.558 6.47068 115.29 8.48117C114.993 10.7725 114.83 12.4282 114.696 14.4683C114.622 15.651 114.488 16.9519 114.413 17.351C114.339 17.7649 114.265 19.4206 114.25 21.0468C114.25 22.7173 114.146 24.6834 114.027 25.5556C113.715 27.7878 113.715 40.516 114.027 43.8127C114.146 45.1136 114.25 47.5084 114.25 49.1346C114.25 51.1155 114.324 52.5051 114.473 53.3477C114.607 54.1165 114.666 54.9887 114.622 55.5652C114.577 56.0974 114.607 56.9991 114.681 57.5609C114.77 58.1374 114.904 59.4088 114.993 60.3992C115.067 61.4045 115.201 62.4984 115.29 62.8532C115.364 63.208 115.335 64.3611 115.439 64.6568C115.602 65.1594 115.706 65.6916 116.033 67.6873C116.182 68.6482 116.925 70.8065 116.925 70.9543C116.925 71.1022 117.029 71.4717 117.162 71.7822C117.296 72.0926 117.489 72.5509 117.593 72.7874C118.336 74.5614 120.149 77.6806 120.907 78.4641C121.026 78.5824 121.279 78.9372 121.472 79.2476C122.051 80.1642 123.641 81.6721 124.132 81.7903C124.548 81.879 125.068 82.1008 126.034 82.559C126.271 82.6773 126.539 82.766 126.643 82.766C126.747 82.766 127.148 82.9286 127.564 83.1208C127.965 83.313 128.634 83.6086 129.035 83.786C129.451 83.9634 129.912 84.1704 130.075 84.2443C130.239 84.3182 131.071 84.6582 131.918 84.9835C132.78 85.3087 133.537 85.6339 133.627 85.7078C133.716 85.7817 133.983 85.8704 134.221 85.9296C134.474 85.9887 134.83 86.1513 135.038 86.2991C135.246 86.447 135.588 86.6244 135.796 86.6835C136.004 86.7426 136.599 86.994 137.133 87.2305C137.668 87.4818 138.456 87.8366 138.887 88.0288C139.318 88.2209 139.704 88.3836 139.749 88.3836C139.793 88.3836 140.313 88.6053 140.893 88.8714C141.487 89.1523 142.26 89.4923 142.631 89.6401C143.33 89.9062 144.177 90.2758 144.578 90.468C144.712 90.5271 145.484 90.8523 146.287 91.1923C147.669 91.7837 148.59 92.1976 150.447 93.055C150.864 93.2472 151.28 93.4098 151.369 93.4098C151.458 93.4098 151.711 93.5133 151.948 93.6168C152.171 93.735 152.468 93.8681 152.587 93.9124C152.706 93.9568 152.914 94.0603 153.033 94.1342C153.152 94.2081 153.865 94.5185 154.593 94.8142C155.336 95.1098 156.064 95.4055 156.228 95.4794C157.194 95.8933 158.382 96.4255 158.873 96.6768C159.185 96.8247 159.527 96.9577 159.631 96.9577C159.735 96.9577 159.913 97.0612 160.017 97.1795C160.121 97.2977 160.329 97.4012 160.478 97.4012C160.73 97.4012 162.082 97.9778 163.167 98.5247C163.375 98.643 163.657 98.7317 163.776 98.7317C163.895 98.7317 164.074 98.8352 164.178 98.9534C164.282 99.0717 164.504 99.1752 164.683 99.1752C164.846 99.1752 165.129 99.2787 165.277 99.3969C165.441 99.5152 165.678 99.6187 165.827 99.6187C165.961 99.6187 166.154 99.7222 166.258 99.8404C166.362 99.9587 166.6 100.062 166.778 100.062C166.956 100.062 167.194 100.166 167.298 100.284C167.402 100.402 167.61 100.506 167.773 100.506C167.937 100.506 168.249 100.594 168.457 100.698C169.586 101.274 171.919 102.28 172.112 102.28C172.231 102.28 172.395 102.383 172.499 102.501C172.603 102.62 172.841 102.723 173.019 102.723C173.197 102.723 173.435 102.827 173.539 102.945C173.643 103.063 173.851 103.167 174 103.167C174.163 103.167 174.668 103.374 175.129 103.61C175.59 103.861 176.08 104.054 176.214 104.054C176.362 104.054 176.555 104.157 176.659 104.275C176.763 104.394 177.001 104.497 177.179 104.497C177.373 104.497 177.551 104.601 177.61 104.719C177.655 104.837 177.848 104.941 178.041 104.941C178.234 104.941 178.443 105 178.532 105.074C178.606 105.148 179.498 105.561 180.523 105.99C181.548 106.419 182.484 106.862 182.618 106.966C182.737 107.069 182.945 107.158 183.079 107.158C183.198 107.158 183.628 107.335 184.03 107.542C184.431 107.749 185.129 108.06 185.575 108.237C186.021 108.4 186.422 108.577 186.467 108.622C186.511 108.681 186.987 109.035 187.536 109.42C188.235 109.908 188.725 110.41 189.171 111.076C189.513 111.608 189.869 112.036 189.959 112.036C190.033 112.022 190.271 111.933 190.479 111.815ZM26.1934 110.588C26.3018 110.413 26.1324 109.965 25.9556 109.819C25.6688 109.584 23.8753 108.208 22.7757 106.833C21.5572 105.31 20.205 102.96 19.7295 101.54C19.5809 101.097 19.2986 100.269 19.0906 99.7222C18.8826 99.1752 18.7042 98.5395 18.7042 98.3178C18.7042 98.096 18.6002 97.6525 18.4962 97.3273C18.3625 96.9725 18.3179 96.4699 18.3625 96.056C18.4071 95.6273 18.3476 95.0507 18.2139 94.5777C17.6492 92.6854 17.8275 80.5042 18.4813 76.1136C18.6299 75.0788 19.2243 73.8075 19.6404 73.6301C19.8336 73.5414 19.7444 72.7579 19.5215 72.5657C19.4026 72.4622 19.2986 72.2109 19.2986 71.9892C19.2986 71.7674 19.2243 71.5161 19.1352 71.4274C18.8083 71.1022 18.6597 64.0507 18.8528 57.9305C19.0757 50.7163 19.2243 48.7206 19.5809 48.0702C19.8484 47.538 19.7741 47.3606 19.15 47.0797C18.4813 46.7841 18.1247 46.8136 17.9613 47.1389C17.7235 47.6119 17.5155 48.4398 17.5155 48.8685C17.5155 49.1198 17.4115 49.4007 17.2926 49.5041C17.144 49.6224 16.6239 52.1503 16.6239 52.7564C16.6239 53.3625 16.5348 53.8208 16.401 53.9982C16.2524 54.1904 16.1781 54.6339 16.1781 55.2104C16.1781 55.7278 15.6581 58.4183 15.4352 60.8132C15.3609 61.6262 15.2271 62.6906 15.1528 63.1785C15.0637 63.6663 14.93 65.0707 14.8408 66.2829C14.7516 67.5099 14.6476 68.7665 14.6179 69.0917C14.5733 69.4169 14.4842 70.8509 14.4099 72.27C14.3207 73.6892 14.187 75.4632 14.1127 76.1875C13.9047 77.9172 13.9195 97.1943 14.1127 98.2143C14.187 98.6282 14.3059 99.4561 14.3653 100.062C14.4247 100.668 14.5585 101.304 14.6328 101.467C14.7219 101.629 14.8408 102.058 14.8854 102.427C15.0488 103.654 16.5793 106.626 17.9316 108.37C18.5556 109.169 18.6299 109.228 19.2095 109.213C20.5468 109.183 22.7861 109.482 23.1175 109.612C23.3166 109.69 23.5707 109.772 23.7118 109.819C23.8679 109.871 24.3508 110.011 24.7966 110.248C25.6584 110.691 26.0641 110.798 26.1934 110.588ZM105.929 82.0268C107.103 82.0268 109.124 81.4503 110.832 80.6225C112.393 79.8537 115.26 79.3068 116.553 79.5137C118.203 79.7798 118.5 79.839 118.96 80.0459C119.213 80.1642 119.495 80.2529 119.585 80.2529C119.748 80.2529 119.882 80.312 120.758 80.7407C121.293 81.0068 121.828 81.0659 121.828 80.8738C121.828 80.7999 121.279 80.179 120.61 79.4989C119.822 78.7007 119.05 77.725 118.47 76.7789C117.475 75.1232 116.479 73.2457 116.479 72.9944C116.479 72.9057 116.39 72.6248 116.271 72.3735C115.974 71.6787 115.454 70.1265 115.127 68.8699C114.963 68.2638 114.755 67.4951 114.666 67.1699C114.562 66.8447 114.012 63.0454 113.819 60.1332C113.76 59.187 113.641 58.3296 113.566 58.2114C113.492 58.0931 113.388 57.1026 113.329 56.0087C113.284 54.9147 113.121 52.2834 112.987 50.1694C112.66 45.0544 112.511 30.0349 112.749 26.4426C112.853 25.0234 112.957 22.6286 112.987 21.1207C113.032 19.6128 113.121 18.0902 113.195 17.7206C113.284 17.351 113.344 16.4049 113.358 15.6214C113.358 14.8379 113.462 13.8031 113.581 13.33C113.7 12.8717 114.547 6.84026 114.547 6.54459C114.547 5.86457 115.097 4.17931 115.468 3.69147C115.617 3.49929 115.736 3.24797 115.736 3.14449C115.736 2.86362 115.454 2.74535 115.246 2.92275C114.934 3.17406 109.971 5.59848 109.748 5.59848C109.703 5.59848 109.02 5.89414 108.247 6.26372C107.459 6.63329 101.887 9.11685 101.724 9.39772C101.664 9.5012 101.501 9.5899 101.367 9.5899C101.025 9.5899 99.6135 10.7725 99.3461 11.29C98.826 12.2804 98.6477 12.8126 98.5882 13.3744C98.5734 13.6996 98.2019 14.9857 98.2019 15.4736C98.2019 15.9614 97.8453 18.3415 97.7413 18.9919C97.5332 20.4259 97.3846 22.1851 97.1766 25.526C97.0874 26.9452 96.5525 30.3601 96.6119 31.0105C96.6565 31.528 96.6268 33.3019 96.5525 34.9281C96.3593 38.949 96.3742 53.1112 96.5674 56.2304C96.6565 57.62 96.716 59.3053 96.7011 60.0001C96.7011 60.6949 96.7605 61.7297 96.8497 62.321C96.9389 62.8976 97.0429 64.1541 97.0874 65.1298C97.132 66.0907 97.2063 67.0368 97.2509 67.2438C97.2955 67.4508 97.3995 68.2786 97.4738 69.0917C97.7561 71.93 98.3059 74.5614 98.4397 75.0345C98.5734 75.5075 98.722 76.0988 98.7814 76.3354C99.034 77.3111 100.357 80.0311 100.966 80.8146C101.233 81.1694 101.545 81.6868 101.649 81.9677L101.828 82.4556L103.224 82.3816C103.997 82.3373 105.617 82.0268 105.929 82.0268ZM21.8544 71.5752C22.2111 71.3387 22.7311 70.9839 23.0135 70.7769C23.2958 70.57 24.2022 70.0378 25.0195 69.6091C25.8367 69.1804 26.7432 68.6925 27.0255 68.5151C27.3078 68.3377 27.9765 67.9977 28.5114 67.7316C29.0464 67.4803 30.5769 66.7264 31.9439 66.0759C33.2961 65.4107 34.47 64.8785 34.5443 64.8785C34.6335 64.8785 34.8267 64.7455 34.9753 64.5828C35.1238 64.4202 35.317 64.2872 35.3913 64.2872C35.5399 64.2872 35.7479 64.1985 37.754 63.2672C38.3038 63.0158 38.809 62.8089 38.8684 62.8089C38.913 62.8089 39.0764 62.7202 39.1953 62.6167C39.3291 62.4984 40.0423 62.1584 40.7704 61.8628C41.5134 61.5523 42.6724 61.0349 43.3708 60.7245C44.0692 60.3993 44.8419 60.0445 45.0796 59.941C45.3322 59.8227 46.0009 59.527 46.5656 59.261C47.1451 59.0096 47.8286 58.6992 48.0961 58.5957C49.4186 58.0192 51.5732 57.0731 52.6579 56.5852C52.9848 56.4374 53.6238 56.1861 54.0696 56.0087C54.5153 55.8461 55.0206 55.6391 55.184 55.5652C55.7487 55.3139 58.3639 54.2643 59.4189 53.8799C61.3506 53.1703 62.8663 52.579 63.2229 52.3868C63.4607 52.2686 63.7579 52.1651 63.8916 52.1651C64.0253 52.1651 64.2185 52.0616 64.3225 51.9433C64.4265 51.8251 64.7089 51.7216 64.9466 51.7216C65.1844 51.7216 65.5261 51.6329 65.7044 51.5146C65.8828 51.4112 66.4028 51.2042 66.8486 51.0564C67.2944 50.9085 67.7996 50.7311 67.9631 50.672C68.4831 50.4503 70.7715 49.6372 71.2321 49.5041C71.8116 49.3415 72.5992 49.0754 73.2084 48.8241C73.4759 48.7059 73.8325 48.6172 73.996 48.6172C74.1594 48.6172 74.5012 48.5137 74.7538 48.3806C75.3928 48.0554 76.4775 47.6858 79.0333 46.9023C79.4048 46.7988 80.3706 46.5032 81.1879 46.2519C82.0052 46.0006 82.9413 45.7197 83.2682 45.631C83.5951 45.5571 84.0706 45.3945 84.3381 45.2762C84.5907 45.1579 84.9771 45.0692 85.1999 45.0692C85.408 45.0692 85.7052 45.0101 85.8538 44.9362C86.1509 44.7736 88.1718 44.2118 89.0634 44.0344C89.3903 43.9753 90.1927 43.7831 90.8316 43.6057C91.4855 43.4431 92.1541 43.2953 92.3324 43.2953C92.5256 43.2953 92.912 43.1918 93.224 43.0587C93.5361 42.9405 93.9373 42.8666 94.1304 42.9109C94.8734 43.1031 94.8585 43.1622 94.814 38.4464C94.7842 35.8003 94.8288 33.5237 94.9328 32.7254C95.022 32.001 95.0963 30.2714 95.0963 28.9113C95.0963 27.1374 95.5272 24.639 95.5272 23.6338C95.5272 22.5546 95.973 20.4998 95.973 19.6719C95.973 18.7997 96.4634 15.2518 96.8646 13.4631C96.9537 13.1231 97.6224 10.4473 98.2762 9.79687C98.722 9.33859 99.0935 8.85075 99.0935 8.70292C99.0935 8.30378 98.3951 7.81594 97.8007 7.81594C97.1617 7.81594 94.7545 8.629 94.0116 9.10206C93.4766 9.42729 92.7039 9.73773 91.7084 10.0482C91.4409 10.1221 91.1883 10.2551 91.1437 10.3291C91.0843 10.4178 90.8911 10.4769 90.7128 10.4769C90.5196 10.4769 90.2819 10.5804 90.1778 10.6986C90.0738 10.8169 89.8955 10.9204 89.7915 10.9204C89.6726 10.9204 89.1971 11.1273 88.7365 11.3639C88.2758 11.6152 87.8449 11.8074 87.7706 11.8074C87.6963 11.8074 87.0871 12.0587 86.4184 12.3839C83.4614 13.7587 82.8819 14.0248 82.763 14.0248C82.7036 14.0248 82.2875 14.217 81.8417 14.4535C81.396 14.6753 80.8759 14.9266 80.6678 14.9857C80.3112 15.0892 79.5237 15.4292 77.9189 16.1684C77.5177 16.3458 76.849 16.6562 76.4329 16.8336C75.6454 17.1736 75.3036 17.3362 73.1936 18.2971C72.4655 18.6371 71.8414 18.9032 71.8116 18.9032C71.7671 18.9032 71.2916 19.1102 70.7418 19.3615C68.4683 20.3963 67.7996 20.7068 67.3984 20.9137C67.1607 21.032 66.8486 21.1207 66.7 21.1207C66.5514 21.1207 66.3731 21.1946 66.3137 21.2833C66.2691 21.372 65.9422 21.5642 65.6004 21.712C64.9763 21.9781 63.8916 22.4659 61.529 23.5747C60.7711 23.9295 60.1173 24.2251 60.0727 24.2251C59.9984 24.2251 58.8988 24.7277 56.2985 25.9547C55.3623 26.3982 54.2924 26.9009 53.921 27.0783C53.5495 27.2409 52.6579 27.6696 51.9149 28.0244C51.1868 28.3792 49.1214 29.2218 45.1539 31.1436C43.8909 31.7497 42.4495 32.4297 41.9592 32.6515C41.4688 32.888 40.4286 33.361 39.656 33.7306C38.1403 34.4402 36.7584 35.0759 36.2086 35.3124C36.0154 35.3863 35.7628 35.5194 35.6439 35.5933C35.3913 35.7559 34.1134 36.3472 32.0034 37.3081C31.1861 37.6777 30.4134 38.0473 30.2946 38.1212C30.1757 38.2099 29.9231 38.3429 29.7299 38.4169C29.5367 38.4908 28.8235 38.8308 28.1251 39.156C27.4267 39.4812 26.8026 39.7473 26.7283 39.7473C26.654 39.7473 26.4163 39.836 26.1785 39.9543C25.9556 40.0726 25.2572 40.4126 24.648 40.7082C23.0878 41.4622 22.9243 41.5509 22.4339 42.1274C22.1368 42.4526 21.6315 44.1083 21.6167 44.4188C21.5127 45.8527 21.3195 47.2423 21.1858 47.5084C21.0966 47.671 20.9777 48.4989 20.9183 49.3563C20.5319 54.5304 20.4725 56.6887 20.5171 63.7107C20.5617 70.9839 20.5765 71.3683 20.844 71.6639C21.0074 71.8413 21.1412 71.9744 21.1709 71.9744C21.2006 71.9744 21.5127 71.797 21.8544 71.5752ZM185.664 48.7059C185.709 48.5876 185.501 47.9224 185.218 47.2276C184.921 46.5327 184.193 44.7588 183.48 42.97C183.302 42.5118 182.9 41.8022 182.618 41.4178C182.128 40.7821 182.009 40.7082 181.4 40.6639C180.879 40.6343 180.671 40.6934 180.463 40.9152C180.107 41.2995 179.795 42.2161 179.78 42.8666C179.78 43.3396 179.869 43.4874 180.493 43.9753C181.281 44.6109 184.535 47.8632 184.535 48.0258C184.535 48.085 184.669 48.3067 184.847 48.5285C185.174 48.9424 185.545 49.0311 185.664 48.7059ZM124.949 4.63758C124.949 4.46018 124.184 3.13858 123.715 2.49404C123.13 1.68836 122.102 1.51836 121.531 1.81402C121.316 1.92637 120.417 2.18359 120.417 2.47926C120.417 2.77492 120.521 2.86362 120.937 2.9671C121.605 3.14449 123.834 4.22366 124.072 4.50453C124.236 4.69671 124.949 4.80019 124.949 4.63758Z" fill="rgb(0,0,0)" fill-rule="nonzero" transform="matrix(1,0,0,-1,-0.245117,229.979)" />
		<path id="矢量 471" d="M11.1297 60.4627C10.2381 59.7679 8.93049 58.2009 8.58872 57.4174C7.81603 55.7173 6.61242 52.3468 6.61242 51.9329C6.61242 51.785 6.50841 51.5337 6.38953 51.3711C6.27066 51.2233 6.16664 50.898 6.16664 50.6615C6.16664 50.425 6.07749 49.8928 5.95861 49.4789C5.52769 47.9267 4.8293 44.8518 4.66585 43.7726C4.60641 43.3291 4.50239 42.723 4.45781 42.4421C4.05661 40.0177 3.90802 39.1603 3.77428 38.4507C3.68513 38.0072 3.55139 37.0315 3.49195 36.2924C3.41766 35.5532 3.3285 34.7993 3.28392 34.5923C3.15019 34.0454 2.43694 27.9548 2.15461 25.0721C2.08031 24.3477 1.94658 23.0468 1.85742 22.1894C1.61967 19.9719 1.44136 17.991 1.27791 15.537C1.18875 14.3543 1.08473 13.2308 1.04016 13.0239C0.995579 12.8169 0.891563 11.9299 0.817266 11.0282C0.683532 9.4168 0.564656 8.13068 0.193172 4.37578C0.0891563 3.32619 0.0148594 1.9218 0 1.27134C0 0.103481 0 0.0886983 0.386344 0.0443492L0.772688 0L0.936141 2.04006C1.04016 3.16357 1.14417 4.34622 1.18875 4.67144C1.41164 6.40106 1.81284 10.0968 2.15461 13.6891C2.24377 14.5909 2.3775 15.877 2.46666 16.5718C2.54095 17.2666 2.67469 18.6562 2.74899 19.6762C3.0016 23.0468 3.19477 24.7764 3.34336 25.1164C3.41766 25.3086 3.49195 25.8999 3.49195 26.4321C3.49195 26.9791 3.55139 27.8217 3.62569 28.3095C3.81886 29.4922 4.60641 35.908 4.76986 37.5637C4.79958 37.9333 4.93331 38.7612 5.05219 39.4116C5.17106 40.0621 5.33452 41.0969 5.42367 41.703C5.61685 42.9595 6.34496 46.6553 6.67186 47.9858C6.79074 48.4736 7.02849 49.405 7.17708 50.0554C7.74174 52.3764 8.49957 54.6677 9.1831 56.1904C9.34655 56.56 9.59916 57.1513 9.76261 57.5061C9.94093 57.92 10.461 58.5704 11.1445 59.2209C12.259 60.2705 12.467 60.6549 12.0212 60.8323C11.7092 60.9505 11.7835 60.9801 11.1297 60.4627Z" fill="rgb(0,0,0)" fill-rule="nonzero" transform="matrix(1,0,0,-1,167.127,76.5654)" />
	</g>
</svg>
