<svg viewBox="0 0 216 230" xmlns="http://www.w3.org/2000/svg" xmlns:xlink="http://www.w3.org/1999/xlink" width="216.000000" height="230.000000" fill="none">
	<rect id="1-6" width="216.000000" height="230.000000" x="0.000000" y="0.000000" />
	<path id="矢量 472" d="M99.3788 1.48218L92.0964 4.58662L89.0621 9.52416L86.8567 26.0368L84.9917 26.909L80.9213 36.4737L74.7786 58.0865L72.6176 80.9706L60.2435 83.4985L35.6581 90.2987L16.0904 100.07L8.67487 102.036L4.64884 105.599L3.56833 110.699L6.52864 116.199L2.45821 121.949L1.02246 142.912L5.80336 177.755L18.0443 184.289L21.0194 183.122L21.4486 188.68L97.129 223.287L101.362 221.365L116.371 228.358L119.42 227.441L122.632 229.378L124.571 227.855L126.036 223.553L143.665 213.988L178.449 186.389L179.633 189.079L181.69 190.158L183.911 187.335L186.782 179.204L197.069 168.442L200.015 142.498L200.015 122.585L196.27 117.618L198.238 116.82L200.399 117.618L203.478 115.253L215.157 41.899L213.543 38.8094L201.199 37.0798L194.834 33.8127L189.92 35.0397L183.97 33.6057L183.215 23.4941L180.166 14.8313L170.915 8.72587L154.441 5.7397L99.3788 1.48218Z" fill="rgb(255,255,255)" fill-rule="nonzero" />
	<path id="矢量 473" d="M97.3654 1.92567L93.1322 3.5518L88.1885 10.9581L86.9155 25.7116L86.9155 65.3302L89.6982 67.5033L100.385 68.8485L120.678 71.6425L139.683 76.3435L158.303 82.5229L166.104 83.3064L172.513 80.3054L178.522 58.2343L183.91 44.7226L183.91 31.817L182.622 19.0592L178.789 13.1608L170.618 8.77022L158.91 6.33102L105.166 1.48218L97.3654 1.92567Z" fill="rgb(1,89,188)" fill-rule="nonzero" />
	<g id="组合 94">
		<path id="矢量 474" d="M97.9678 229.471C97.6866 229.397 97.1389 229.279 96.7689 229.205C96.0288 229.072 94.4598 228.48 93.3497 227.933C92.4764 227.49 90.4042 225.465 89.5013 224.178C88.8204 223.203 87.8287 221.34 87.4143 220.261C86.8518 218.768 86.2746 216.314 86.2746 215.397C86.2746 215.028 86.2006 214.555 86.1118 214.318C86.023 214.096 85.8897 212.973 85.8157 211.835C85.7417 210.696 85.6085 209.454 85.5345 209.055C85.4605 208.671 85.3865 207.577 85.3717 206.631L85.3569 204.901L84.4836 204.059C83.9803 203.586 83.6103 203.098 83.6103 202.92C83.6103 202.758 83.5067 202.595 83.3883 202.536C83.2699 202.492 83.1663 202.329 83.1663 202.196C83.1663 202.048 83.0774 201.797 82.9738 201.634C82.8702 201.472 82.5594 200.806 82.293 200.156C81.6713 198.648 81.5085 198.234 81.1236 197.421C80.9608 197.051 80.4132 195.632 79.8951 194.243C79.3919 192.868 78.9182 191.67 78.859 191.597C78.785 191.508 78.7258 191.33 78.7258 191.183C78.7258 191.05 78.637 190.71 78.5186 190.443C78.415 190.177 78.2521 189.719 78.1633 189.438C78.0893 189.157 77.7341 188.019 77.3936 186.925C77.0532 185.831 76.7128 184.663 76.624 184.338C76.5352 184.013 76.3131 183.244 76.1355 182.638C75.7359 181.322 74.907 178.1 74.7294 177.168C74.6554 176.799 74.4629 175.971 74.2853 175.32C73.7821 173.473 73.5452 172.423 73.4564 171.699C73.412 171.329 73.2936 170.841 73.2048 170.605C73.116 170.353 73.0568 169.999 73.0716 169.792C73.0864 169.585 73.042 169.215 72.9532 168.964C72.7164 168.239 72.3019 165.371 72.0799 162.903C72.0207 162.178 71.8875 161.38 71.7987 161.158C71.695 160.922 71.621 160.197 71.621 159.547C71.621 158.882 71.5174 157.832 71.3842 157.196C71.2066 156.295 71.1622 155.319 71.2066 152.702L71.251 149.376L70.5701 149.376C70.1853 149.376 69.5932 149.273 69.2528 149.154C68.9123 149.036 68.3351 148.933 67.9947 148.933C67.6542 148.933 67.1214 148.829 66.8105 148.711C66.5145 148.578 66.1593 148.519 66.026 148.563C65.878 148.593 65.5376 148.563 65.2564 148.474C64.7531 148.327 64.0278 148.193 62.1628 147.913C61.6892 147.839 61.2007 147.735 61.0823 147.661C60.9787 147.587 60.5347 147.484 60.1202 147.425C59.691 147.366 54.096 146.168 53.8148 146.05C53.5187 145.932 50.1588 144.941 49.6407 144.941C49.1227 144.941 42.2992 142.724 42.1215 142.724C41.9439 142.724 41.6627 142.62 41.5147 142.502C41.3518 142.384 41.1002 142.28 40.9522 142.28C40.8042 142.28 40.5674 142.221 40.4194 142.132C40.2861 142.059 39.4721 141.763 38.6136 141.482C37.7551 141.201 36.6005 140.802 36.0233 140.58C35.4608 140.373 34.5875 140.063 34.0991 139.885C33.6106 139.723 33.1074 139.486 32.9742 139.383C32.8558 139.265 32.6189 139.176 32.4561 139.176C32.3081 139.176 31.7752 138.969 31.3016 138.732C30.8279 138.481 30.3395 138.289 30.2211 138.289C30.1175 138.289 29.9102 138.23 29.7622 138.141C29.4218 137.949 28.1341 137.402 28.0452 137.402C27.9268 137.402 26.0174 136.53 25.7362 136.352C25.6178 136.278 25.4106 136.175 25.2922 136.131C24.3153 135.761 23.8564 135.554 23.664 135.406C23.5456 135.303 23.3088 135.184 23.1459 135.14C22.3763 134.918 21.5326 134.564 20.9997 134.224C20.6741 134.017 20.304 133.854 20.156 133.854C20.0228 133.854 19.8008 133.765 19.6824 133.662C19.5492 133.558 19.1495 133.337 18.7795 133.189C18.1282 132.923 16.5444 132.257 15.5231 131.814C14.0578 131.193 11.1271 130.084 10.4166 129.907C10.2538 129.863 9.88374 129.729 9.60251 129.611C6.6126 128.369 4.62919 126.699 3.63748 124.615C3.32665 123.964 3.00102 123.314 2.92701 123.151C2.67538 122.708 2.42375 121.141 2.42375 120.106C2.43856 117.829 3.54867 115.198 4.68839 114.769C5.08804 114.606 5.13244 114.045 4.7476 113.793C4.48117 113.646 2.79379 111.502 2.79379 111.325C2.79379 111.295 2.49776 110.63 2.14253 109.876C1.78729 109.122 1.41725 108.205 1.32844 107.836C1.22483 107.466 1.04721 106.978 0.928798 106.757C0.810385 106.52 0.721576 106.106 0.721576 105.84C0.721576 105.559 0.647568 105.16 0.558759 104.938C0.484751 104.702 0.38114 104.022 0.351537 103.401C0.321934 102.795 0.233125 101.464 0.144315 100.444C-0.0481051 98.1529 -0.0481051 86.4743 0.144315 84.7742C0.218323 84.0794 0.351537 82.3941 0.425545 81.0045C0.514354 79.6297 0.647568 77.6931 0.736377 76.7174C0.810385 75.7418 0.928798 74.2782 0.988004 73.4652C1.04721 72.6521 1.18042 71.839 1.28404 71.6616C1.38765 71.4842 1.46165 70.7747 1.46165 70.0355C1.46165 69.1781 1.52086 68.6607 1.65407 68.5424C1.74288 68.4389 1.8761 67.7737 1.9353 67.0641C2.09812 65.0684 2.32014 63.2057 2.43856 63.0283C2.49776 62.9396 2.60137 62.3927 2.67538 61.8013C2.74939 61.2248 2.8678 60.323 2.95661 59.7909C3.03062 59.2587 3.14903 58.4604 3.20824 58.0169C3.26744 57.5734 3.40066 57.056 3.50427 56.8786C3.60788 56.7012 3.68189 56.2725 3.68189 55.9177C3.69669 55.5629 3.7855 55.1194 3.90391 54.9124C4.02232 54.7055 4.11113 54.3359 4.12593 54.0698C4.12593 53.8185 4.18514 53.5672 4.25915 53.5228C4.31835 53.4785 4.42197 53.1533 4.45157 52.7837C4.49597 52.3993 4.68839 51.9263 4.94002 51.601C5.31006 51.1132 6.96783 49.9158 7.72271 49.5905C7.90033 49.5019 8.5812 49.1471 9.23247 48.7923C11.4527 47.5653 15.5379 45.6139 16.6629 45.2443C17.3141 45.0226 17.5954 45.0078 18.5575 45.1409C20.23 45.3774 20.1116 45.4513 20.1116 44.2243C20.1116 42.9677 20.4224 41.9477 21.0885 41.0459C21.725 40.1737 22.1098 39.9224 23.886 39.1094C24.7593 38.7102 25.5438 38.3111 25.6326 38.2224C25.7214 38.1337 25.8842 38.0598 26.0026 38.0598C26.121 38.0598 26.3875 37.9563 26.5947 37.838C26.9499 37.6458 27.7344 37.2911 30.9168 35.8127C31.4496 35.5614 32.8114 34.911 33.9659 34.3492C35.1056 33.7875 36.0825 33.3292 36.1417 33.3292C36.2305 33.3292 37.5034 32.7379 41.4259 30.8604C43.7497 29.7517 45.7479 28.8056 48.3086 27.6377C48.9599 27.3273 50.1588 26.7803 50.9729 26.3812C51.7869 25.9968 52.7935 25.5385 53.1931 25.3463C53.6075 25.169 54.3624 24.7994 54.8953 24.5333C55.4281 24.2672 56.1238 23.9715 56.4198 23.8828C56.7159 23.7793 56.9675 23.6315 56.9675 23.5576C56.9675 23.4837 57.0415 23.4246 57.1155 23.4246C57.2043 23.4246 57.7224 23.2176 58.27 22.9663C58.8177 22.715 59.469 22.4193 59.7058 22.3158C59.9574 22.1976 60.8159 21.7984 61.63 21.4141C62.4441 21.0445 63.5394 20.5271 64.0722 20.2905C65.0047 19.8618 65.2712 19.7436 67.1066 18.9157C68.5423 18.2653 69.9041 17.6444 70.1409 17.4965C70.2593 17.4226 70.4665 17.3192 70.5849 17.2748C70.7033 17.2305 71.0142 17.1122 71.251 16.9939C71.5026 16.8904 72.0651 16.6539 72.5091 16.4765C72.9532 16.2843 73.8857 15.8852 74.5813 15.56C76.6684 14.5991 77.1864 14.3773 78.4001 13.8747C78.7406 13.7417 79.0958 13.5347 79.1846 13.4164C79.2734 13.3129 79.4807 13.2242 79.6287 13.2242C79.7767 13.2242 80.3244 13.0173 80.8276 12.766C81.3457 12.4999 81.9673 12.219 82.2041 12.1155C82.4558 12.012 83.0182 11.7607 83.4771 11.5538C83.9211 11.3468 84.6612 11.0216 85.0905 10.859C85.8305 10.5633 86.4522 10.2676 87.0147 9.95719C87.1331 9.88328 87.3403 9.7798 87.4587 9.73545C87.5771 9.6911 87.8879 9.55805 88.1248 9.45457C88.3764 9.35109 88.8648 9.14413 89.2349 8.9963C89.6049 8.86325 90.2414 8.58237 90.6706 8.39019C91.0851 8.21279 91.4847 8.05018 91.5291 8.05018C91.5883 8.05018 92.1064 7.81365 92.6836 7.53277C93.2609 7.2519 93.8382 7.01537 93.9862 7.01537C94.1194 7.01537 94.3858 6.8971 94.5782 6.73449C94.7707 6.58666 95.1407 6.42405 95.3775 6.3797C95.6292 6.33535 96.1472 6.21708 96.5617 6.14317C96.9613 6.05447 97.5238 6.0249 97.8198 6.06925C98.5895 6.21708 99.596 6.85275 99.9216 7.41451C100.084 7.6806 100.306 7.90235 100.425 7.90235C100.543 7.90235 101.032 7.60669 101.535 7.23711C102.038 6.86754 102.497 6.57188 102.571 6.57188C102.764 6.57188 105.694 5.12314 105.872 4.94574C105.961 4.85704 106.153 4.79791 106.331 4.79791C106.508 4.79791 106.701 4.73878 106.79 4.66486C106.864 4.59095 107.352 4.35442 107.885 4.13267C108.418 3.91093 109.454 3.43787 110.209 3.08308C110.949 2.72828 111.6 2.43262 111.659 2.43262C111.718 2.43262 112.177 2.22566 112.681 1.97435C114.782 0.895185 116.351 0.540392 116.766 1.02823C116.869 1.1465 117.106 1.24998 117.284 1.24998C117.461 1.24998 117.787 1.38303 117.994 1.54564C118.527 1.97435 118.853 1.91522 119.326 1.32389C119.548 1.04302 119.815 0.806486 119.904 0.806486C119.993 0.806486 120.496 0.599524 121.014 0.362995C121.917 -0.0657135 121.991 -0.0804965 122.42 0.141249C122.672 0.259514 122.997 0.362995 123.145 0.362995C123.486 0.362995 124.907 2.10739 124.907 2.52132C124.907 2.69872 124.995 2.92046 125.114 3.00916C125.38 3.23091 125.795 4.50225 125.795 5.09357C125.795 5.38923 125.884 5.56663 126.061 5.62576C126.283 5.69968 128.015 6.52753 128.607 6.86754C128.725 6.92667 129.169 7.14842 129.569 7.35538C131.804 8.47889 134.143 9.72067 134.424 9.94241C134.528 10.0163 135.031 10.312 135.564 10.5929C136.097 10.8737 136.792 11.2581 137.118 11.4651C138.213 12.1451 138.302 12.1894 138.672 12.352C138.879 12.4407 139.249 12.6625 139.516 12.8695C139.767 13.0616 140.034 13.2242 140.078 13.2242C140.137 13.2242 140.448 13.4016 140.789 13.6382C141.129 13.8599 141.544 14.1112 141.706 14.2147C141.869 14.3182 142.624 14.7765 143.394 15.2495C144.149 15.7226 144.889 16.1809 145.022 16.2548C145.155 16.3435 145.673 16.6835 146.176 17.0383C146.68 17.3783 147.153 17.6592 147.227 17.6592C147.287 17.6592 147.538 17.8513 147.775 18.1027C148.012 18.3392 148.293 18.5461 148.412 18.5461C148.53 18.5461 148.856 18.7531 149.137 18.9896C149.403 19.2409 149.714 19.4331 149.818 19.4331C149.921 19.4331 150.143 19.581 150.306 19.7731C150.484 19.9505 151.313 20.5714 152.156 21.1332C153 21.7097 153.725 22.1976 153.77 22.2419C153.814 22.2863 154.007 22.4341 154.214 22.5671C154.998 23.0993 156.005 23.8385 157.411 24.9324C158.21 25.5681 159.409 26.4846 160.06 26.9873C161.496 28.096 163.435 29.663 163.539 29.796C163.583 29.8404 164.131 30.3135 164.767 30.8309C165.404 31.3483 166.247 32.0283 166.617 32.3387C167.002 32.6492 167.476 33.0483 167.683 33.2257C167.89 33.4179 168.482 33.9205 169.015 34.364C169.533 34.8075 170.066 35.2806 170.199 35.4136C170.318 35.5467 171.058 36.2119 171.828 36.8919C172.597 37.5719 173.308 38.1928 173.397 38.2815C173.485 38.3554 174.122 38.932 174.803 39.5381C176.002 40.6025 176.268 40.8833 177.053 41.8147C177.526 42.406 177.896 42.2582 177.896 41.4894C177.896 40.6764 178.399 39.9964 179.376 39.5085C181.197 38.592 182.677 39.2572 183.876 41.519C184.083 41.9181 184.261 42.3321 184.261 42.4503C184.261 42.5538 184.394 42.8938 184.557 43.1895C184.72 43.4999 184.853 43.8547 184.853 43.973C184.853 44.0913 184.957 44.3278 185.075 44.4756C185.193 44.6382 185.297 44.9782 185.297 45.2295C185.297 45.4809 185.401 45.8209 185.519 45.9835C185.637 46.1313 185.741 46.4713 185.741 46.7226C185.741 46.9739 185.845 47.2696 185.963 47.3731C186.081 47.4766 186.185 47.8018 186.185 48.0975C186.185 48.4079 186.289 48.7775 186.407 48.9401C186.526 49.0879 186.629 49.5166 186.629 49.8862C186.629 50.5367 186.674 50.5958 188.065 51.9263C191.869 55.5333 195.155 58.9039 196.147 60.2048C196.324 60.4265 196.517 60.6483 196.605 60.6926C196.739 60.7961 196.887 61.1509 197.331 62.4518C197.79 63.7971 197.878 64.1814 197.878 64.9058C197.878 65.3049 197.967 65.9258 198.086 66.2954C198.189 66.665 198.293 67.4337 198.293 68.025C198.308 68.6163 198.382 69.2224 198.456 69.3851C198.544 69.5477 198.618 70.272 198.618 70.9964C198.618 71.7947 198.707 72.5634 198.84 72.9478C198.974 73.3321 200.617 96.9702 200.705 98.5964C200.942 102.824 200.765 106.727 200.261 108.294C200.173 108.575 199.832 109.166 199.506 109.595C199.196 110.038 198.914 110.423 198.885 110.482C198.781 110.704 197.597 111.517 196.946 111.798C196.413 112.034 196.235 112.182 196.28 112.374C196.354 112.818 196.916 112.759 197.952 112.212C198.781 111.753 199.062 111.679 199.891 111.679C200.957 111.679 201.357 111.857 202.141 112.699C202.985 113.601 203.325 114.222 203.562 115.331C203.695 115.907 214.323 182.86 214.426 182.963C214.53 183.067 214.604 183.584 214.604 184.338C214.619 185.136 214.678 185.609 214.826 185.802C214.989 186.023 215.048 186.526 215.048 187.738C215.048 189.394 214.989 189.66 214.308 190.739C214.027 191.183 212.31 192.262 211.807 192.321C211.599 192.35 204.376 193.71 203 193.725C201.149 193.725 201.09 193.74 200.557 194.139C200.261 194.376 199.255 194.878 198.322 195.263C197.39 195.632 196.428 196.046 196.206 196.164C195.969 196.283 195.584 196.386 195.362 196.386C195.125 196.386 194.578 196.46 194.163 196.549C193.319 196.726 191.676 196.519 190.892 196.135C190.374 195.884 189.752 195.884 189.131 196.15C188.849 196.253 188.302 196.401 187.887 196.46C187.488 196.519 187.073 196.623 186.984 196.697C186.896 196.771 186.304 196.904 185.652 196.992C185.016 197.096 184.439 197.244 184.379 197.332C184.32 197.421 184.261 198.367 184.261 199.417C184.261 203.615 183.624 207.799 182.499 211.095C180.723 216.24 179.095 217.955 173.308 220.69C172.849 220.897 172.286 221.133 172.05 221.207C171.798 221.281 171.236 221.488 170.791 221.665C170.347 221.828 169.548 222.109 169.015 222.271C168.482 222.434 167.742 222.656 167.372 222.774C166.987 222.892 166.529 222.996 166.366 222.996C166.188 222.996 165.907 223.07 165.744 223.144C165.078 223.513 156.671 224.77 154.939 224.77C154.406 224.77 153.607 224.829 153.163 224.918C152.719 224.991 151.505 225.124 150.439 225.213C149.388 225.302 147.879 225.435 147.109 225.509C146.339 225.583 144.533 225.745 143.113 225.878C141.692 226.011 139.989 226.174 139.338 226.263C138.687 226.366 137.429 226.47 136.526 226.499C135.49 226.558 130.96 227.046 130.576 227.135C129.702 227.312 127.068 227.549 121.058 228.007C119.963 228.096 117.891 228.273 116.47 228.392C115.049 228.525 112.947 228.687 111.807 228.761C110.668 228.82 109.498 228.953 109.217 229.042C108.936 229.131 107.826 229.205 106.76 229.205C105.694 229.205 104.17 229.307 103.356 229.426C101.772 229.66 98.7967 229.692 97.9678 229.471ZM105.813 227.948C106.747 227.837 108.418 227.667 109.513 227.578C110.608 227.49 111.852 227.342 112.251 227.268C112.666 227.194 114.057 227.061 115.36 226.987C120.437 226.677 122.509 226.529 123.649 226.396C124.3 226.322 125.602 226.189 126.535 226.1C132.796 225.538 137.769 225.051 138.08 224.991C138.287 224.947 139.146 224.858 140.004 224.77C141.869 224.592 145.333 224.252 148.367 223.942C149.596 223.824 151.253 223.661 152.068 223.587C154.895 223.321 158.491 222.877 158.639 222.774C158.728 222.73 159.379 222.626 160.105 222.552C160.815 222.493 161.659 222.36 161.985 222.271C162.31 222.197 163.213 222.005 163.983 221.872C165.848 221.547 168.897 220.778 169.4 220.512C170.007 220.202 170.806 219.891 171.013 219.891C171.117 219.891 171.428 219.773 171.709 219.64C172.642 219.182 172.76 219.123 173.367 218.916C174.492 218.516 176.89 216.89 178.133 215.678C179.421 214.422 180.013 213.416 180.886 210.948C181.774 208.449 181.952 207.621 182.485 203.186C182.692 201.368 182.662 194.08 182.411 189.956C182.292 188.004 182.189 185.861 182.189 185.181C182.189 184.131 182.129 183.821 181.73 182.963C180.679 180.687 179.968 178.957 179.968 178.647C179.968 178.528 179.865 178.292 179.746 178.144C179.628 177.981 179.524 177.7 179.524 177.523C179.524 177.331 179.465 177.153 179.391 177.109C179.332 177.065 179.021 176.34 178.725 175.513C178.414 174.67 178.103 173.872 178.015 173.709C177.941 173.561 177.719 172.97 177.526 172.379C177.334 171.802 176.949 170.664 176.668 169.851C176.386 169.038 175.972 167.707 175.75 166.894C175.528 166.081 175.291 165.283 175.217 165.12C174.936 164.47 174.64 163.479 174.64 163.154C174.64 162.962 174.551 162.637 174.433 162.415C174.329 162.193 174.122 161.513 173.974 160.907C173.841 160.301 173.604 159.369 173.456 158.837C173.308 158.305 173.115 157.477 173.027 156.989C172.923 156.502 172.775 155.91 172.686 155.659C172.597 155.422 172.479 154.831 172.42 154.343C172.346 153.87 171.532 151.194 171.532 150.751C171.532 150.337 171.472 149.953 171.398 149.908C171.324 149.864 171.236 149.435 171.176 148.977C170.984 147.129 170.732 145.621 170.347 143.936C170.259 143.596 170.199 142.872 170.199 142.339C170.199 141.807 170.111 141.231 170.022 141.053C169.918 140.876 169.785 140.137 169.726 139.398C169.489 136.397 169.341 135.081 169.178 134.401C169.089 134.002 169.015 133.44 169.03 133.144C169.045 132.095 168.897 129.552 168.808 129.463C168.749 129.404 168.083 129.375 167.328 129.404C166.41 129.434 165.818 129.375 165.581 129.256C165.389 129.153 164.708 129.02 164.057 128.961C161.94 128.754 158.832 128.31 158.713 128.207C158.654 128.133 158.373 128.089 158.077 128.089C157.781 128.074 157.381 127.985 157.174 127.867C156.967 127.749 156.538 127.645 156.212 127.645C155.886 127.645 155.457 127.542 155.25 127.423C155.043 127.305 154.569 127.216 154.199 127.202C153.77 127.202 153.444 127.113 153.326 126.98C153.222 126.862 152.896 126.758 152.615 126.758C152.319 126.758 151.816 126.669 151.475 126.551C151.15 126.448 150.558 126.27 150.143 126.182C149.255 125.975 146.088 125.014 145.777 124.851C145.644 124.777 145.333 124.674 145.052 124.615C144.785 124.555 144.4 124.422 144.178 124.304C143.956 124.186 143.69 124.097 143.571 124.097C143.127 124.097 139.027 122.604 136.822 121.658C136.585 121.554 135.845 121.244 135.194 120.993C133.506 120.313 132.5 119.84 128.947 118.051C124.403 115.774 123.856 115.493 123.101 115.05C122.316 114.577 121.946 114.547 121.384 114.858C121.162 114.976 120.614 115.168 120.17 115.286C119.297 115.508 118.882 115.626 116.1 116.469C113.139 117.356 112.829 117.445 112.577 117.445C112.444 117.445 112.118 117.533 111.852 117.652C111.585 117.755 110.964 117.962 110.475 118.11C109.987 118.243 109.483 118.406 109.365 118.465C109.247 118.524 108.551 118.76 107.811 118.982C103.652 120.268 102.009 120.874 98.4118 122.501C98.0418 122.678 97.5238 122.9 97.2721 123.003C96.2656 123.417 95.7476 123.668 92.6096 125.191C90.8483 126.048 89.2645 126.758 89.0869 126.758C88.9093 126.758 88.5836 126.862 88.3764 126.98C87.7991 127.29 86.393 127.645 85.7269 127.645C85.1053 127.645 84.4984 127.985 84.4984 128.325C84.4984 128.458 84.7944 128.946 85.1645 129.419C85.5493 129.922 85.8305 130.439 85.8305 130.661C85.8305 130.868 85.9193 131.09 86.0229 131.149C86.4226 131.415 86.6298 132.583 86.6298 134.741C86.6298 136.973 86.4966 137.86 86.0822 138.451C85.9341 138.644 85.8305 138.939 85.8305 139.117C85.8305 139.294 85.7269 139.649 85.6085 139.9C85.4901 140.152 85.2977 140.536 85.1941 140.772C85.0905 140.994 84.9276 141.305 84.824 141.467C83.9803 142.99 83.8915 143.759 84.2764 146.346C84.3948 147.159 84.4984 148.267 84.4984 148.814C84.4984 149.361 85.12 153.604 85.4605 154.994C85.5937 155.526 85.7269 156.221 85.7713 156.546C85.8601 157.152 86.7186 159.31 86.7186 159.576C86.7186 159.828 86.7926 160.183 86.8962 160.36C86.985 160.537 87.1775 161.114 87.3107 161.646C87.6215 162.799 87.8287 162.888 88.9833 162.326C89.7973 161.927 90.5966 161.72 92.2692 161.498C95.2295 161.099 97.1093 160.907 97.9974 160.907C98.5451 160.907 99.1667 160.833 99.4036 160.744C99.6256 160.641 100.484 160.523 101.298 160.463C104.584 160.212 106.197 160.005 110.327 159.355C111.067 159.236 112.325 159.029 113.139 158.911C113.953 158.778 115.034 158.571 115.552 158.453C116.07 158.335 116.692 158.246 116.943 158.246C117.195 158.246 117.743 158.157 118.157 158.039C118.927 157.817 122.168 157.137 123.5 156.915C123.915 156.856 124.773 156.649 125.425 156.472C126.076 156.28 126.875 156.088 127.201 156.029C127.527 155.969 128.163 155.822 128.607 155.688C132.352 154.654 133.98 154.181 135.194 153.811C136.585 153.382 137.192 153.205 137.784 153.042C138.154 152.954 139.22 152.614 140.152 152.288C141.085 151.978 142.091 151.668 142.372 151.594C142.654 151.534 143.098 151.401 143.335 151.313C144.534 150.869 146.058 150.367 146.591 150.248C146.917 150.16 147.657 149.953 148.219 149.76C149.196 149.45 149.551 149.332 151.845 148.667C153.37 148.208 153.947 148.06 154.584 147.972C154.909 147.913 155.709 147.75 156.36 147.573C160.105 146.626 165.034 146.301 166.011 146.952C166.736 147.41 166.351 147.528 163.953 147.543C162.399 147.558 161.378 147.647 160.741 147.809C160.238 147.942 159.646 148.046 159.439 148.046C159.231 148.046 158.758 148.134 158.373 148.253C158.003 148.371 157.322 148.563 156.878 148.696C156.434 148.814 155.723 149.021 155.294 149.14C154.88 149.273 154.391 149.376 154.229 149.376C154.066 149.376 153.71 149.465 153.444 149.583C152.822 149.834 152.112 150.086 151.179 150.352C150.78 150.47 150.143 150.662 149.773 150.766C149.048 151.002 146.102 152.037 145.436 152.318C145.2 152.407 144.963 152.481 144.874 152.481C144.8 152.481 143.823 152.776 142.713 153.146C141.588 153.515 140.345 153.915 139.93 154.048C139.531 154.166 138.953 154.373 138.672 154.476C138.391 154.58 137.621 154.816 136.97 154.994C136.319 155.171 135.416 155.452 134.942 155.6C134.039 155.91 133.255 156.147 131.197 156.694C130.472 156.886 129.273 157.211 128.533 157.403C126.328 158.009 125.898 158.113 125.129 158.246C124.729 158.32 124.196 158.438 123.945 158.512C123.708 158.601 122.997 158.763 122.39 158.882C121.784 159 120.91 159.192 120.466 159.296C120.022 159.384 119.282 159.517 118.838 159.591C117.003 159.843 115.123 160.183 114.768 160.316C114.546 160.404 114.087 160.463 113.731 160.463C113.376 160.463 112.903 160.537 112.666 160.626C112.444 160.715 111.748 160.848 111.141 160.922C110.534 160.996 109.572 161.129 108.995 161.203C106.257 161.557 105.176 161.676 103.74 161.794C102.882 161.853 101.727 161.986 101.15 162.075C99.596 162.311 97.1389 162.533 94.5338 162.681C93.2461 162.755 91.9584 162.888 91.6475 162.962C91.3367 163.05 90.8187 163.124 90.4782 163.124C90.1526 163.124 89.4273 163.257 88.8945 163.435C87.7547 163.79 87.1331 164.381 86.8518 165.371C86.7038 165.859 86.6742 169.747 86.7038 181.825C86.7334 199.52 86.8222 206.38 87.0147 207.252C87.0887 207.577 87.1627 208.449 87.1627 209.188C87.1627 209.928 87.2219 210.888 87.2959 211.332C87.3847 211.775 87.5771 213.135 87.7547 214.348C87.9324 215.575 88.1396 216.935 88.2136 217.378C88.3912 218.324 89.0573 220.35 89.2497 220.542C89.3237 220.63 89.3829 220.778 89.3829 220.897C89.3829 221 89.6937 221.562 90.0638 222.153C90.4486 222.744 90.8483 223.38 90.9815 223.587C91.6179 224.607 93.8086 226.544 94.3266 226.544C94.445 226.544 94.6079 226.647 94.7115 226.765C94.8151 226.884 96.6061 227.519 97.0353 227.652C97.731 227.874 97.8642 227.874 98.5747 227.667C99.0039 227.534 99.6552 227.431 100.025 227.431C100.395 227.431 100.973 227.357 101.298 227.268C101.624 227.194 102.704 227.061 103.696 226.987C104.688 226.913 105.601 226.749 105.768 226.706C106.196 226.595 111.763 225.938 116.692 225.657C118.246 225.583 119.904 225.435 120.407 225.361C120.895 225.272 121.902 225.213 122.627 225.198C123.352 225.198 124.448 225.139 125.055 225.051C125.662 224.977 127.068 224.858 128.163 224.784C129.258 224.711 130.368 224.578 130.605 224.489C131.034 224.356 132.663 224.149 135.697 223.883C136.467 223.809 137.236 223.72 137.414 223.676C137.577 223.631 138.82 223.498 140.152 223.365C141.499 223.232 143.423 223.04 144.445 222.922C145.466 222.804 147.065 222.641 147.997 222.552C148.93 222.478 150.04 222.345 150.439 222.271C150.854 222.197 151.786 222.05 152.512 221.961C153.873 221.784 156.005 221.488 157.811 221.237C158.358 221.148 159.054 221.015 159.365 220.941C159.661 220.852 160.445 220.69 161.096 220.542C162.517 220.261 164.264 219.773 164.604 219.581C164.752 219.507 164.945 219.448 165.048 219.448C165.152 219.448 165.448 219.344 165.685 219.211C165.937 219.078 166.499 218.827 166.943 218.65C167.624 218.383 169.015 217.659 170.273 216.89C171.102 216.388 173.041 214.791 173.885 213.919C174.817 212.943 175.247 212.751 175.35 213.268C175.424 213.623 172.612 216.402 171.384 217.201C170.851 217.541 170.347 217.881 170.273 217.94C170.081 218.103 167.328 219.448 166.721 219.699C166.469 219.788 166.025 219.98 165.7 220.098C165.389 220.231 164.368 220.423 164.16 220.542C163.198 221.059 157.204 222.227 154.14 222.493C153.74 222.537 152.704 222.656 151.845 222.774C149.64 223.07 147.731 223.291 145.851 223.439C144.963 223.513 143.867 223.646 143.423 223.735C142.994 223.809 142.121 223.883 141.499 223.883C140.878 223.883 140.108 223.957 139.782 224.031C139.457 224.119 138.465 224.238 137.562 224.326C136.674 224.4 135.608 224.533 135.194 224.607C134.794 224.696 133.95 224.755 133.344 224.755C132.737 224.77 131.997 224.844 131.715 224.918C131.434 225.006 130.561 225.11 129.791 225.154C129.021 225.198 127.926 225.331 127.349 225.45C126.786 225.568 125.721 225.657 124.981 225.657C124.255 225.657 123.145 225.731 122.538 225.819C121.932 225.893 120.2 226.026 118.69 226.1C116.115 226.218 114.856 226.322 111.141 226.706C110.283 226.795 108.921 226.906 108.092 226.972C107.263 227.039 106.523 227.191 106.405 227.209C106.221 227.237 105.632 227.329 104.984 227.445C104.316 227.565 103.703 227.655 103.563 227.682C103.36 227.72 102.932 227.842 102.589 227.926L102.038 228.14C102.038 228.14 102.815 228.137 103.074 228.14C103.652 228.148 104.882 228.059 105.813 227.948ZM85.3125 201.087C85.2533 200.407 85.1793 196.504 85.1645 192.395C85.1497 188.285 85.1053 180.746 85.0757 175.616C85.0164 165.49 85.0312 165.357 85.8305 163.775C86.319 162.843 86.3634 162.533 86.097 162.267C85.8897 162.06 85.7861 161.794 85.0609 159.562C84.7648 158.63 84.4096 157.344 84.2764 156.694C84.1432 156.043 83.9359 155.171 83.8175 154.757C83.7139 154.343 83.6103 153.781 83.6103 153.501C83.6103 153.22 83.5363 152.732 83.4623 152.407C83.2107 151.387 82.8702 148.607 82.8702 147.573C82.8702 146.715 82.8258 146.567 82.6186 146.567C82.4706 146.567 82.1597 146.774 81.9081 147.026C81.2569 147.691 78.489 148.933 77.6305 148.933C77.3788 148.933 77.0384 149.036 76.8904 149.154C76.6684 149.332 76.1355 149.376 74.6405 149.376C73.56 149.376 72.6423 149.435 72.5979 149.509C72.5535 149.583 72.5683 149.834 72.6423 150.056C72.7163 150.293 72.8496 152.244 72.9532 154.402C73.042 156.561 73.19 158.719 73.2788 159.207C73.4268 160.035 73.5452 161.099 73.8117 164.085C73.8709 164.736 73.9745 165.357 74.0337 165.445C74.0929 165.549 74.2113 166.111 74.2853 166.702C74.5221 168.535 74.9958 171.285 75.2474 172.364C75.3806 172.94 75.5138 173.606 75.5583 173.842C75.6027 174.093 75.6915 174.522 75.7655 174.803C75.8395 175.084 75.9727 175.72 76.0615 176.207C76.2095 177.02 76.4611 177.981 76.8164 179.179C76.8904 179.43 76.9496 179.755 76.9496 179.918C76.9496 180.081 77.0532 180.347 77.1716 180.509C77.29 180.657 77.3936 181.027 77.3936 181.308C77.3936 181.603 77.4529 181.899 77.5121 181.973C77.5861 182.061 77.7193 182.49 77.8229 182.934C77.9857 183.717 79.007 187.043 79.3919 188.108C79.4955 188.389 79.7767 189.261 80.0283 190.03C80.6648 192.01 81.5973 194.583 81.9673 195.411C82.1301 195.81 82.2782 196.238 82.2782 196.371C82.2782 196.504 82.3818 196.741 82.5002 196.889C82.6186 197.051 82.7222 197.332 82.7222 197.51C82.7222 197.687 82.8258 197.909 82.9294 198.012C83.0478 198.101 83.2551 198.53 83.4031 198.944C83.5363 199.372 83.8027 200.052 83.9951 200.481C84.1876 200.895 84.3504 201.339 84.3504 201.442C84.3504 201.797 84.8092 202.299 85.1201 202.299C85.4161 202.299 85.4309 202.255 85.3125 201.087ZM185.534 195.366C186.022 195.218 186.703 195.041 187.073 194.997C188.539 194.76 188.613 194.538 187.473 193.637C186.363 192.779 185.149 190.843 184.838 189.468C184.764 189.083 184.587 188.61 184.453 188.418C184.246 188.108 184.216 188.093 183.994 188.315C183.772 188.522 183.772 188.758 184.024 191.064C184.187 192.528 184.261 193.977 184.216 194.524C184.098 195.795 184.128 195.824 185.534 195.366ZM194.992 194.701C195.954 194.509 196.62 194.317 197.36 194.006C197.523 193.932 197.819 193.814 198.026 193.725C198.234 193.637 198.604 193.444 198.84 193.282C199.092 193.119 199.432 192.927 199.625 192.838C200.217 192.587 201.49 191.715 201.949 191.271C202.2 191.035 202.57 190.724 202.792 190.576C203.014 190.443 203.503 189.867 203.873 189.32C204.243 188.773 204.702 188.137 204.879 187.916C205.175 187.531 205.205 187.339 205.175 185.698C205.161 184.648 205.057 183.555 204.939 183.096C204.82 182.653 204.746 182.209 204.791 182.091C204.835 181.988 204.776 181.692 204.687 181.426C204.583 181.16 204.45 180.568 204.376 180.125C204.11 178.292 191.277 122.988 191.158 122.634C191.025 122.279 190.951 121.939 190.996 121.88C191.025 121.821 190.966 121.481 190.862 121.126C190.744 120.771 190.581 120.076 190.478 119.588C190.374 119.1 190.196 118.391 190.078 117.992C189.959 117.607 189.885 117.208 189.93 117.105C190.019 116.853 189.767 116.41 189.515 116.41C189.382 116.41 189.279 116.646 189.219 117.12C189.012 118.775 188.465 119.766 186.851 121.421C186.289 122.013 185.785 122.53 185.741 122.604C185.697 122.663 185.208 123.033 184.631 123.432C184.068 123.816 183.55 124.201 183.506 124.275C183.417 124.408 183.092 124.615 182.411 124.984C182.248 125.073 181.922 125.265 181.671 125.428C181.227 125.708 179.465 126.581 178.488 127.009C178.207 127.142 177.778 127.335 177.556 127.438C177.319 127.556 177.023 127.645 176.875 127.645C176.742 127.645 176.564 127.704 176.475 127.793C176.327 127.941 174.137 128.591 173.234 128.754C172.908 128.798 172.168 128.887 171.576 128.931L170.51 129.005L170.584 130.868C170.629 131.903 170.747 132.952 170.836 133.189C170.925 133.44 171.043 134.401 171.102 135.332C171.221 136.914 171.324 138.082 171.694 141.467C171.768 142.206 171.872 143.256 171.916 143.832C171.961 144.394 172.094 144.986 172.212 145.148C172.331 145.326 172.775 148.755 172.878 148.947C172.982 149.14 173.115 149.598 173.175 149.967C173.234 150.337 173.352 151.002 173.441 151.446C173.53 151.889 173.663 152.688 173.752 153.22C173.841 153.737 173.974 154.24 174.048 154.314C174.137 154.402 174.196 154.683 174.196 154.949C174.196 155.23 174.299 155.689 174.418 155.984C174.536 156.265 174.64 156.709 174.64 156.945C174.64 157.182 174.729 157.551 174.832 157.773C174.951 157.995 175.158 158.704 175.306 159.355C175.439 160.005 175.646 160.818 175.765 161.173C175.883 161.513 175.972 161.957 175.972 162.134C175.972 162.311 176.86 164.558 176.86 164.81C176.875 165.061 176.964 165.431 177.082 165.637C177.201 165.844 177.837 168.387 177.955 168.638C178.074 168.905 178.281 169.481 178.414 169.925C178.562 170.368 178.74 170.826 178.829 170.93C178.903 171.033 179.021 171.359 179.08 171.669C179.154 171.965 179.347 172.586 179.524 173.029C179.702 173.473 179.909 174.079 179.998 174.359C180.072 174.64 180.205 174.936 180.279 175.025C180.353 175.099 180.412 175.276 180.412 175.424C180.412 175.646 180.694 176.326 181.167 177.198C181.241 177.346 181.301 177.597 181.301 177.774C181.301 177.937 181.389 178.262 181.508 178.469C181.626 178.691 181.833 179.164 181.967 179.534C182.115 179.903 182.307 180.406 182.425 180.642C182.677 181.234 183.521 183.229 183.669 183.599C183.743 183.762 183.92 184.19 184.083 184.56C184.231 184.929 184.483 185.535 184.616 185.92C184.749 186.289 184.971 186.689 185.09 186.777C185.193 186.881 185.297 187.043 185.297 187.147C185.297 187.265 185.386 187.531 185.504 187.768C185.608 187.989 185.815 188.448 185.963 188.773C186.096 189.098 186.274 189.483 186.363 189.63C186.437 189.778 186.703 190.31 186.955 190.813C187.769 192.41 190.211 194.597 191.247 194.627C191.425 194.627 191.721 194.686 191.884 194.76C192.343 194.952 193.852 194.923 194.992 194.701ZM204.287 192.025C204.924 191.907 212.576 190.488 212.813 190.266C213.139 189.926 212.857 189.734 212.029 189.734C210.948 189.734 209.764 189.497 209.053 189.128C208.239 188.699 207.233 187.709 206.878 186.969C206.567 186.304 206.167 186.127 206.167 186.644C206.167 187.236 205.679 188.625 205.279 189.216C205.042 189.542 204.687 190.089 204.48 190.429C204.243 190.798 203.858 191.183 203.503 191.36C202.955 191.641 202.778 191.922 203.014 192.143C203.059 192.203 203.118 192.247 203.118 192.247C203.133 192.247 203.651 192.144 204.287 192.025ZM213.464 188.433C213.746 187.96 213.746 187.916 213.494 187.28C213.257 186.659 213.154 185.949 212.857 183.155C212.798 182.594 201.431 114.089 200.957 113.646C200.631 113.35 199.432 113.453 198.248 113.882C197.479 114.163 197.257 114.192 196.561 114.059C196.117 113.971 195.569 113.897 195.332 113.897C195.096 113.897 194.711 113.749 194.459 113.572C193.971 113.202 192.979 113.158 191.232 113.394C190.078 113.557 189.856 113.882 190.389 114.621C190.581 114.887 190.818 115.405 190.907 115.789C191.01 116.173 191.158 116.691 191.232 116.927C191.41 117.415 191.736 118.849 191.973 120.106C192.047 120.549 192.18 120.978 192.269 121.067C192.343 121.141 192.402 121.318 192.402 121.451C192.402 121.702 192.727 122.9 193.023 123.728C193.112 123.979 205.664 180.11 205.782 180.613C206.064 181.781 206.315 183.081 206.463 184.116C206.878 186.807 209.675 189.039 212.532 188.95C213.109 188.921 213.213 188.862 213.464 188.433ZM76.4315 147.647C76.6832 147.558 77.2456 147.41 77.6897 147.307C78.7998 147.04 80.502 146.242 80.9312 145.769C81.1384 145.562 81.3605 145.385 81.4493 145.385C81.5381 145.37 81.7749 145.252 81.9525 145.089C82.2337 144.853 82.3226 144.616 82.367 143.877C82.4558 142.724 82.7962 141.541 83.2255 140.92C83.6251 140.314 84.4096 138.466 84.7204 137.402C84.8536 136.958 85.0164 136.367 85.1053 136.116C85.3421 135.377 85.0164 134.844 84.2764 134.711C83.107 134.519 82.1893 134.283 81.8045 134.076C81.5973 133.957 81.3013 133.854 81.1532 133.854C80.8424 133.854 79.4067 133.455 78.7554 133.174C78.489 133.056 78.1041 132.967 77.9117 132.967C77.7193 132.967 77.4084 132.908 77.216 132.834C77.0236 132.76 75.9727 132.45 74.8774 132.154C73.7821 131.858 72.1539 131.385 71.251 131.104C70.3629 130.823 69.4748 130.602 69.2972 130.602C69.1196 130.602 68.9271 130.543 68.8827 130.454C68.8383 130.38 68.6163 130.306 68.3943 130.306C68.1723 130.306 67.8614 130.217 67.6986 130.099C67.5358 129.996 67.1658 129.863 66.8845 129.818C66.6033 129.774 66.0704 129.641 65.7004 129.508C65.3304 129.389 64.4423 129.109 63.7022 128.902C60.9639 128.103 59.839 127.763 59.1877 127.556C58.8177 127.423 58.3292 127.29 58.0776 127.246C57.8408 127.202 57.5744 127.113 57.4855 127.054C57.3079 126.906 44.697 122.767 44.4306 122.767C44.1789 122.767 43.9273 122.708 43.8829 122.634C43.8237 122.56 42.8616 122.19 41.7219 121.821C40.5674 121.451 39.4277 121.037 39.1612 120.889C38.8948 120.756 38.4951 120.594 38.2435 120.534C37.7847 120.416 33.9215 119.071 31.2868 118.11C30.4727 117.814 29.6734 117.533 29.5106 117.489C29.3478 117.445 29.0074 117.326 28.7409 117.208C28.4893 117.09 28.2081 117.001 28.1193 117.001C28.0304 117.001 27.7492 116.913 27.4828 116.794C26.5207 116.395 24.3005 115.774 21.9914 115.242C20.9405 115.006 17.6102 115.035 17.1513 115.301C16.9441 115.419 16.574 115.508 16.3224 115.523C16.0708 115.523 15.7748 115.612 15.686 115.715C15.5971 115.833 15.2419 115.996 14.9015 116.099C14.5462 116.188 14.1318 116.336 13.969 116.41C13.2141 116.735 12.5628 116.986 11.6747 117.297C11.1419 117.474 10.5794 117.666 10.4166 117.74C10.2538 117.8 9.32128 118.11 8.34438 118.406C7.36747 118.716 6.00573 119.248 5.31006 119.588L4.05193 120.209L4.08153 120.815C4.09633 121.141 4.21474 121.702 4.33316 122.057C4.45157 122.397 4.65879 122.974 4.792 123.328C5.13244 124.26 5.63569 124.984 6.56819 125.886C7.75232 127.009 8.5812 127.527 10.1206 128.089C12.2372 128.842 12.6072 128.99 13.0513 129.212C13.2881 129.33 13.6285 129.419 13.821 129.419C14.0134 129.419 14.2206 129.493 14.265 129.567C14.3094 129.656 14.487 129.715 14.6498 129.715C14.8127 129.715 15.1975 129.848 15.4935 129.996C16.278 130.395 17.3585 130.868 18.7795 131.43C19.1495 131.563 20.2152 132.05 21.1477 132.494C24.108 133.883 24.8925 134.238 26.2543 134.815C27.5272 135.332 28.0749 135.569 29.481 136.204C29.8214 136.367 30.5763 136.663 31.1536 136.855C31.7308 137.047 32.4561 137.343 32.7521 137.52C33.0482 137.698 35.5496 138.732 35.7717 138.777C35.9937 138.821 36.5413 138.998 36.9854 139.176C37.4294 139.353 38.0067 139.56 38.2435 139.619C39.028 139.841 40.0197 140.225 40.1529 140.373C40.2417 140.447 44.401 141.674 45.3483 141.999C45.5999 142.088 46.0291 142.206 46.3104 142.265C46.5916 142.325 46.9764 142.458 47.1541 142.546C47.3317 142.65 47.6573 142.724 47.8941 142.724C48.1162 142.724 52.4086 144.025 54.4808 144.394C55.0285 144.498 55.5613 144.66 55.665 144.764C55.7538 144.853 59.3061 145.592 59.7058 145.68C60.5495 145.858 61.8668 146.08 63.0065 146.242C63.421 146.316 65.9076 146.804 66.0853 146.937C66.2629 147.07 66.7217 147.144 67.3582 147.159C67.9058 147.159 70.6293 147.558 70.955 147.661C71.6802 147.883 75.7803 147.868 76.4315 147.647ZM85.2385 133.706C85.2385 133.455 84.454 131.592 84.0987 131.03C83.7583 130.469 82.589 129.419 82.3078 129.419C82.219 129.419 81.7157 129.227 81.1976 128.976C80.6648 128.739 80.0727 128.532 79.8655 128.532C79.6731 128.532 79.4215 128.429 79.3178 128.31C79.1994 128.177 78.8738 128.089 78.4445 128.089C78.0597 128.089 77.6157 127.985 77.4529 127.867C77.29 127.749 73.338 127.098 73.0568 126.98C72.7608 126.862 72.2575 126.758 71.9467 126.758C71.6358 126.758 70.4369 126.359 69.6228 126.182C68.8087 125.989 67.9206 125.753 67.6542 125.635C67.3878 125.516 67.0474 125.428 66.8845 125.428C66.7217 125.428 66.3813 125.339 66.1149 125.221C65.36 124.91 64.6347 124.659 64.2203 124.585C64.013 124.555 63.6578 124.422 63.4062 124.319C63.1693 124.215 62.4589 123.979 61.852 123.801C61.2451 123.624 60.3718 123.343 59.9278 123.181C59.4838 123.018 58.8621 122.826 58.5661 122.752C58.2552 122.678 57.6336 122.456 57.1747 122.249C56.7159 122.042 56.2274 121.88 56.0942 121.88C55.9462 121.88 55.7094 121.776 55.5465 121.658C55.3985 121.54 55.1025 121.436 54.8953 121.436C54.6881 121.436 54.3328 121.303 54.0812 121.141C53.8444 120.978 53.5187 120.889 53.3707 120.934C53.2227 120.978 52.9415 120.919 52.7491 120.786C52.5566 120.653 52.2754 120.549 52.1274 120.549C51.9794 120.549 51.5353 120.416 51.1209 120.268C50.7212 120.106 50.0848 119.914 49.7147 119.81C49.3447 119.721 48.8562 119.574 48.6046 119.485C48.3678 119.411 47.9237 119.278 47.6425 119.219C46.9764 119.071 46.2068 118.805 45.6739 118.539C45.4371 118.42 45.0818 118.332 44.8746 118.332C44.6674 118.332 44.327 118.243 44.1197 118.125C43.8977 118.007 43.0244 117.711 42.1659 117.445C41.3074 117.193 40.1677 116.809 39.6349 116.617C39.102 116.425 38.4655 116.188 38.2287 116.114C37.9919 116.04 36.5413 115.538 34.9872 115.006C33.4478 114.473 31.9825 113.971 31.7308 113.897C31.494 113.823 30.4579 113.483 29.4366 113.158C28.4153 112.818 27.2608 112.463 26.8463 112.345C26.4467 112.226 25.7658 112.034 25.3366 111.916C24.9221 111.783 24.3449 111.679 24.0636 111.679C23.7824 111.679 23.4716 111.576 23.368 111.458C23.2495 111.325 22.9239 111.236 22.5243 111.236C22.169 111.236 21.7398 111.162 21.577 111.073C21.1773 110.866 17.1217 110.896 16.3964 111.118C16.0708 111.206 15.7452 111.369 15.6563 111.487C15.5675 111.591 15.3307 111.679 15.1531 111.679C14.9755 111.679 14.7387 111.783 14.635 111.901C14.5314 112.019 14.3834 112.123 14.3094 112.123C14.2206 112.123 13.8802 112.3 13.5397 112.537C13.2141 112.759 12.6664 113.069 12.3408 113.217C12.0152 113.365 11.5711 113.586 11.3491 113.705C11.1419 113.808 10.8606 113.897 10.7274 113.897C10.5942 113.897 10.3722 113.956 10.2242 114.03C10.091 114.104 9.4693 114.311 8.86243 114.488C6.87902 115.079 6.56819 115.227 5.7245 115.966C5.10284 116.528 4.82161 116.898 4.64399 117.445C4.51077 117.844 4.33316 118.213 4.25915 118.258C4.09633 118.376 4.08153 119.219 4.25915 119.219C4.31835 119.219 4.62919 119.056 4.92522 118.849C5.78371 118.273 6.37577 117.977 7.08625 117.8C7.45628 117.696 7.98914 117.548 8.27037 117.445C8.96604 117.193 9.91334 116.839 10.2686 116.706C10.4314 116.632 10.9347 116.469 11.3787 116.336C11.8227 116.218 12.6664 115.907 13.2289 115.671C13.8062 115.434 15.0495 114.946 15.9968 114.577L17.7286 113.897L19.712 113.897C20.9405 113.897 21.7398 113.956 21.8434 114.059C21.9322 114.148 22.3911 114.281 22.8647 114.34C24.2857 114.547 25.2774 114.754 25.4698 114.887C25.5734 114.946 25.7658 115.006 25.8842 115.006C26.1507 115.006 28.1193 115.626 28.8445 115.937C30.4727 116.632 30.9316 116.794 31.7308 116.986C32.0565 117.06 32.6929 117.267 33.137 117.445C33.581 117.622 34.1583 117.814 34.3951 117.873C34.6467 117.933 34.9724 118.051 35.1352 118.14C35.4608 118.317 37.5627 119.027 38.2435 119.219C38.4951 119.278 39.0724 119.5 39.5609 119.721C40.0345 119.928 40.5674 120.106 40.745 120.106C40.9226 120.106 41.1298 120.165 41.2186 120.239C41.3666 120.387 42.9356 120.948 44.7562 121.525C45.4075 121.732 46.118 121.983 46.34 122.101C46.5472 122.22 46.8284 122.323 46.9616 122.323C47.0801 122.323 47.4057 122.412 47.6721 122.53C47.9385 122.648 57.5744 125.768 57.9592 125.856C58.6993 126.034 61.7336 126.965 63.5542 127.571C64.8419 127.985 66.3665 128.429 67.6246 128.754C68.1575 128.887 68.6903 129.064 68.8235 129.123C68.9568 129.197 69.3268 129.301 69.6376 129.36C69.9633 129.404 70.2889 129.508 70.3629 129.567C70.4517 129.626 70.7625 129.729 71.0882 129.774C71.399 129.833 71.7691 129.936 71.9023 130.01C72.0355 130.084 72.5683 130.247 73.1012 130.38C73.634 130.498 74.3001 130.676 74.5813 130.735C74.8626 130.809 75.4694 131.016 75.9135 131.193C76.3575 131.356 77.0236 131.563 77.3936 131.636C77.7637 131.696 78.2669 131.829 78.5038 131.917C79.6435 132.316 81.8341 132.967 82.0413 132.967C82.2634 132.967 82.6186 133.1 83.7583 133.603C84.3504 133.869 85.2385 133.928 85.2385 133.706ZM83.1366 128.059C83.107 127.689 83.0182 127.556 82.7814 127.527C82.6186 127.497 82.3966 127.571 82.3078 127.689C82.0857 127.955 82.4706 128.532 82.885 128.532C83.1366 128.532 83.181 128.443 83.1366 128.059ZM171.68 127.423C172.02 127.305 172.553 127.202 172.849 127.202C173.16 127.202 173.53 127.098 173.693 126.98C173.841 126.862 174.092 126.758 174.24 126.758C175.336 126.743 179.584 124.955 181.227 123.831C181.641 123.55 182.115 123.269 182.307 123.195C182.485 123.121 182.633 123.003 182.633 122.914C182.633 122.841 182.707 122.767 182.81 122.767C183.417 122.767 186.659 119.662 187.118 118.627C187.177 118.509 187.354 118.213 187.517 117.962C188.139 117.016 188.168 116.809 187.71 116.454C187.488 116.262 187.147 116.114 186.984 116.114C186.807 116.114 186.585 116.011 186.481 115.893C186.378 115.774 185.623 115.464 184.794 115.213C183.98 114.946 182.84 114.577 182.263 114.385C181.7 114.178 180.99 113.971 180.709 113.912C180.427 113.838 179.924 113.675 179.598 113.527C178.903 113.217 178.71 113.143 177.526 112.759C175.928 112.226 172.568 110.999 171.635 110.585C171.324 110.452 170.969 110.349 170.851 110.349C170.717 110.349 170.421 110.245 170.185 110.127C169.948 110.009 169.563 109.802 169.326 109.684C169.089 109.565 168.719 109.462 168.527 109.462C168.32 109.462 168.098 109.388 168.053 109.314C167.905 109.092 166.099 108.368 164.456 107.88C164.012 107.747 163.628 107.555 163.583 107.437C163.539 107.333 163.391 107.244 163.243 107.244C163.095 107.244 162.784 107.141 162.547 107.037C162.325 106.919 161.496 106.579 160.726 106.284C159.957 105.988 159.261 105.677 159.187 105.604C159.098 105.53 158.95 105.47 158.832 105.47C158.713 105.47 158.018 105.175 157.263 104.82C156.523 104.465 155.62 104.066 155.25 103.918C154.584 103.652 154.125 103.445 151.905 102.455C151.239 102.159 150.661 101.923 150.602 101.923C150.528 101.923 149.255 101.331 146.28 99.912C145.555 99.5573 144.859 99.2616 144.77 99.2616C144.667 99.2616 144.341 99.099 144.03 98.9068C143.734 98.7294 142.95 98.3303 142.298 98.0346C141.647 97.7389 139.619 96.7485 137.784 95.8024C135.949 94.871 133.921 93.8362 133.27 93.4962C132.618 93.171 131.982 92.831 131.863 92.7571C131.745 92.6831 131.345 92.491 130.975 92.3136C130.605 92.1509 130.206 91.944 130.087 91.8701C129.969 91.7962 129.569 91.604 129.199 91.4266C128.829 91.2492 128 90.8057 127.349 90.4509C124.847 89.0761 121.784 87.6865 120.229 87.2134C119.504 86.9917 118.808 86.7847 118.69 86.7256C118.261 86.563 117.269 86.489 115.656 86.5038C114.102 86.5334 113.495 86.6369 110.475 87.376C109.987 87.4943 109.35 87.6569 109.054 87.716C108.773 87.7752 108.433 87.8934 108.329 87.9526C108.21 88.0265 107.855 88.13 107.515 88.1891C107.189 88.2482 106.73 88.3665 106.479 88.4404C106.005 88.6178 104.155 89.0022 102.926 89.1796C102.527 89.2535 102.038 89.3717 101.861 89.4752C101.683 89.5787 101.357 89.6526 101.15 89.6526C100.706 89.6526 99.6404 89.9631 98.3378 90.4657C97.8494 90.6579 97.3461 90.8353 97.1981 90.8796C96.8577 90.9979 96.7245 91.9588 96.8577 93.4519C96.9465 94.5162 97.0353 94.8562 97.4794 95.6102C98.0862 96.6302 98.2786 96.8667 99.596 98.2268C100.469 99.1285 102.245 100.592 102.482 100.592C102.527 100.592 103.015 100.888 103.563 101.243C104.11 101.597 104.791 101.996 105.073 102.144C105.354 102.292 105.827 102.588 106.109 102.81C106.582 103.179 107.308 103.623 108.403 104.229C108.655 104.362 109.794 105.101 110.949 105.855C112.088 106.624 113.08 107.244 113.125 107.244C113.184 107.244 113.406 107.377 113.628 107.525C114.975 108.471 117.254 109.905 117.891 110.201C118.29 110.393 118.927 110.763 119.297 111.029C119.667 111.295 120.155 111.591 120.377 111.665C120.585 111.753 121.177 112.093 121.665 112.419C122.154 112.744 122.642 113.01 122.746 113.01C122.834 113.01 122.982 113.069 123.071 113.143C123.308 113.379 130.28 116.927 132.589 117.977C134.439 118.834 134.676 118.953 134.764 119.086C134.809 119.16 134.972 119.219 135.12 119.219C135.283 119.219 135.653 119.322 135.963 119.455C136.274 119.588 136.733 119.78 136.97 119.884C137.222 119.987 137.784 120.224 138.228 120.401C138.672 120.579 139.101 120.786 139.175 120.86C139.264 120.934 139.457 120.993 139.634 120.993C139.812 120.993 140.004 121.052 140.093 121.126C140.167 121.2 140.759 121.421 141.41 121.628C142.062 121.835 142.965 122.146 143.409 122.323C143.853 122.501 144.489 122.708 144.815 122.767C145.14 122.841 145.688 123.033 146.014 123.195C146.354 123.358 146.857 123.535 147.124 123.58C147.597 123.668 147.893 123.742 149.729 124.304C150.143 124.437 150.632 124.541 150.795 124.541C150.957 124.541 151.12 124.6 151.165 124.674C151.209 124.748 151.505 124.851 151.801 124.91C152.112 124.969 152.438 125.058 152.512 125.132C152.6 125.191 152.956 125.28 153.326 125.339C154.673 125.516 155.487 125.679 155.886 125.856C156.123 125.945 156.523 126.019 156.804 126.019C157.085 126.019 157.352 126.093 157.396 126.167C157.44 126.255 157.796 126.315 158.181 126.315C158.565 126.329 159.039 126.418 159.246 126.536C159.453 126.655 159.986 126.758 160.43 126.758C160.889 126.758 161.363 126.862 161.526 126.98C161.703 127.113 162.133 127.187 162.665 127.187C163.139 127.172 163.598 127.216 163.702 127.29C163.968 127.453 166.188 127.601 168.808 127.615C170.466 127.645 171.206 127.586 171.68 127.423ZM85.4457 126.137C86.2598 125.975 87.1035 125.753 87.3255 125.635C87.5475 125.516 87.8287 125.428 87.9472 125.428C88.258 125.428 89.2349 124.984 92.58 123.343C94.223 122.545 95.644 121.88 95.7476 121.88C95.8512 121.88 96.31 121.687 96.7689 121.451C98.5303 120.549 101.565 119.219 101.846 119.219C102.023 119.219 102.689 118.982 104.554 118.243C105.043 118.051 105.576 117.888 105.753 117.888C105.916 117.888 106.109 117.829 106.197 117.755C106.271 117.666 106.597 117.548 106.923 117.46C107.752 117.253 108.817 116.942 110.105 116.499C113.509 115.36 118.66 113.897 119.297 113.897C119.771 113.897 120.333 113.498 120.229 113.246C120.185 113.128 119.874 112.965 119.534 112.877C119.193 112.803 118.542 112.492 118.098 112.212C117.654 111.916 117.225 111.679 117.151 111.679C117.091 111.679 116.736 111.487 116.366 111.236C116.011 110.999 115.67 110.792 115.626 110.792C115.567 110.792 115.197 110.571 114.782 110.29C113.273 109.285 111.452 108.131 111.378 108.131C111.334 108.131 110.786 107.762 110.164 107.304C109.528 106.86 108.803 106.387 108.551 106.269C108.314 106.15 107.826 105.884 107.5 105.648C107.16 105.426 106.257 104.864 105.502 104.391C104.732 103.918 103.504 103.15 102.778 102.691C99.9068 100.888 98.2194 99.4833 96.9465 97.7833C96.1176 96.6746 95.8808 96.2163 95.3923 94.7084C95.0815 93.7327 95.0815 90.4657 95.4071 89.6674C95.5107 89.4013 95.5996 88.9874 95.5996 88.7656C95.5996 88.5439 95.7032 88.2778 95.8216 88.1743C95.94 88.0708 96.0436 87.8047 96.0436 87.5682C96.0436 87.1099 97.0797 85.4838 97.879 84.6855C98.5895 83.9611 99.6108 83.2959 99.9808 83.2959C100.573 83.2959 100.528 82.9855 99.8328 82.3054C99.4628 81.9211 99.1519 81.5663 99.1519 81.4776C99.1519 81.4037 98.9595 81.0932 98.7079 80.7828C98.4711 80.4723 98.2638 80.1175 98.2638 79.9993C98.2638 79.881 98.1602 79.7036 98.0418 79.6001C97.9234 79.4967 97.8198 79.3193 97.8198 79.201C97.8198 79.0827 97.731 78.8019 97.6126 78.5949C97.3757 78.1514 97.0945 77.427 96.4876 75.7565C96.2804 75.18 96.1028 74.2487 95.9104 72.7999C95.8512 72.2677 95.7328 71.6764 95.644 71.4695C95.57 71.2625 95.5256 70.8338 95.57 70.4938C95.5996 70.139 95.5256 69.6659 95.3923 69.3407C95.2295 68.9563 95.1555 68.3207 95.1555 67.3893C95.1555 66.6354 95.0815 65.8371 94.9779 65.6006C94.8743 65.3641 94.7411 63.6788 94.6671 61.5648C94.5042 57.6473 94.445 46.9296 94.5634 45.5991L94.6375 44.7861L94.1194 44.8008C93.8382 44.8156 92.9353 44.993 92.1212 45.2148C91.3071 45.4365 90.4042 45.673 90.123 45.747C89.8418 45.8061 89.3089 45.9539 88.9389 46.0574C88.5688 46.1461 88.036 46.2939 87.7547 46.3531C86.0822 46.7374 83.7879 47.3583 82.9442 47.654C82.7074 47.7427 81.9969 47.9496 81.3901 48.1122C80.7832 48.2896 79.8211 48.5853 79.2438 48.7923C78.6814 48.9844 78.0893 49.1471 77.9561 49.1471C77.8229 49.1471 77.5269 49.2358 77.29 49.354C77.068 49.4723 76.3871 49.7236 75.7951 49.901C75.203 50.0784 74.685 50.2854 74.6405 50.3445C74.5961 50.4184 74.4333 50.4775 74.2705 50.4775C73.9597 50.4775 71.7542 51.1871 69.9189 51.8819C69.3564 52.1037 68.5867 52.3845 68.2167 52.5028C65.73 53.3454 64.9899 53.6115 64.6199 53.8037C64.3831 53.922 64.1018 54.0255 63.9982 54.0255C63.8946 54.0255 63.6134 54.1142 63.3766 54.2324C62.3997 54.7203 61.408 55.1194 60.3867 55.4446C59.7946 55.6516 59.1581 55.9029 58.9953 56.0212C58.8177 56.1394 58.5661 56.2429 58.4328 56.2429C58.2996 56.2429 57.826 56.4499 57.3671 56.6864C56.9083 56.9377 56.4346 57.1299 56.3162 57.1299C56.1238 57.1299 55.4133 57.4108 54.0516 58.0317C53.6964 58.1795 53.3855 58.3125 53.3411 58.3125C53.2967 58.3125 52.7491 58.5491 52.1422 58.83C51.5353 59.1108 51.0025 59.3474 50.9433 59.3474C50.8989 59.3474 50.4252 59.5543 49.9072 59.7909C49.4039 60.0274 48.9006 60.2343 48.8118 60.2343C48.723 60.2343 48.4714 60.323 48.2642 60.4413C47.6277 60.7665 46.5028 61.2692 46.414 61.2692C46.3696 61.2692 45.5555 61.6387 44.623 62.0822C43.6905 62.5257 42.8764 62.8953 42.8024 62.8953C42.7432 62.8953 42.2844 63.0875 41.7959 63.324C37.459 65.4232 35.5496 66.325 35.0612 66.5024C34.9428 66.5467 34.7356 66.6502 34.6171 66.7241C34.3063 66.9163 33.0926 67.5224 31.9529 68.0694C31.05 68.5128 30.1027 68.9859 26.6243 70.7599C25.8546 71.159 25.0849 71.5582 24.9221 71.6616C24.0044 72.2382 23.3828 72.593 22.8943 72.8443C22.1246 73.2286 20.7777 74.5887 20.4076 75.3426C20.2448 75.6826 20.1116 76.2444 20.1116 76.5844C20.1116 76.9244 20.008 77.4862 19.8896 77.8262C19.7712 78.1662 19.6676 78.9053 19.6676 79.4523C19.6676 79.9993 19.564 81.0932 19.4455 81.9063C19.1347 83.9316 19.1347 90.4952 19.4455 91.944C19.564 92.5057 19.6676 93.644 19.6676 94.4571C19.6824 95.4624 19.7416 96.0537 19.8896 96.305C20.008 96.5119 20.0968 96.985 20.1116 97.3841C20.1116 97.7685 20.1708 98.1972 20.2448 98.345C20.3336 98.4781 20.5409 99.099 20.7037 99.7051C21.2661 101.642 22.6723 104.214 24.2857 106.254C26.047 108.501 29.0518 111.236 29.7326 111.236C29.8362 111.236 30.0879 111.339 30.2951 111.458C30.5171 111.576 31.0648 111.798 31.5088 111.96C31.9529 112.123 32.6929 112.389 33.137 112.566C33.581 112.744 34.1879 112.951 34.4691 113.039C34.7504 113.113 35.0464 113.246 35.1204 113.32C35.2092 113.394 35.3868 113.453 35.5348 113.453C35.6681 113.453 36.0085 113.542 36.2749 113.66C36.5413 113.779 37.1926 114 37.7255 114.178C38.2583 114.34 39.0576 114.621 39.5017 114.784C39.9457 114.961 40.6562 115.198 41.0558 115.301C42.2547 115.626 42.5212 115.715 42.684 115.819C42.7728 115.878 43.3353 116.07 43.9421 116.247C44.549 116.425 45.1855 116.646 45.3335 116.735C45.5703 116.868 46.34 117.075 48.9747 117.755C49.3447 117.844 49.8627 118.021 50.1292 118.125C50.7508 118.391 51.9942 118.391 52.4974 118.125C52.7194 118.007 53.6964 117.607 54.6881 117.223C56.2126 116.646 57.9148 115.833 61.408 114.045C61.778 113.852 62.2813 113.557 62.5181 113.379C62.7697 113.202 63.0657 113.01 63.1841 112.965C63.3026 112.906 63.7466 112.655 64.1462 112.419C64.5607 112.182 65.0491 111.901 65.2564 111.798C65.4636 111.709 65.73 111.546 65.8484 111.443C65.9668 111.339 66.5441 111.014 67.1066 110.718C67.6838 110.408 68.3499 110.024 68.5867 109.846C68.8383 109.669 70.0965 109.004 71.399 108.368C72.7015 107.732 73.9745 107.111 74.2113 106.993C74.9218 106.638 76.9348 105.914 78.0597 105.604C79.3771 105.264 80.3095 104.997 81.6121 104.613C82.1893 104.436 83.1218 104.199 83.6843 104.066C84.2616 103.933 85.1201 103.726 85.6085 103.608C86.097 103.475 86.9702 103.297 87.5327 103.209C88.11 103.105 88.6428 102.987 88.7464 102.913C88.8352 102.854 89.2349 102.765 89.6345 102.721C90.0194 102.676 90.4486 102.603 90.567 102.543C90.9371 102.41 93.1425 102.085 93.2609 102.159C93.631 102.396 93.1869 102.839 92.4764 102.972C90.4782 103.342 90.0342 103.445 89.9158 103.563C89.827 103.637 89.5605 103.697 89.3089 103.697C89.0573 103.697 88.7168 103.8 88.554 103.918C88.406 104.037 88.0212 104.14 87.7251 104.14C87.4143 104.14 86.9554 104.229 86.689 104.347C86.4226 104.465 85.7417 104.643 85.1645 104.731C84.602 104.835 84.0247 104.968 83.8915 105.042C83.7731 105.101 83.1663 105.293 82.5594 105.456C80.5168 106.003 79.2438 106.387 79.0958 106.505C79.0218 106.564 78.5926 106.697 78.1633 106.801C77.7489 106.89 77.3492 107.037 77.3048 107.111C77.2604 107.185 77.0976 107.244 76.92 107.244C76.7572 107.244 76.4463 107.333 76.2391 107.451C76.0171 107.555 75.6767 107.717 75.4694 107.806C74.4481 108.205 70.807 110.053 69.7708 110.674C68.6459 111.354 68.4239 111.487 67.817 111.812C67.669 111.901 66.9141 112.345 66.1445 112.803C65.3748 113.276 64.5015 113.779 64.2203 113.926C63.939 114.074 63.5098 114.326 63.2582 114.473C62.222 115.094 57.5596 117.445 57.3671 117.445C57.2487 117.445 57.0711 117.548 56.9675 117.666C56.8639 117.785 56.6863 117.888 56.5827 117.888C56.479 117.888 56.0202 118.051 55.591 118.258C54.8657 118.598 54.4808 118.701 53.6815 118.76C53.3559 118.775 53.3411 119.115 53.6519 119.367C53.7704 119.485 54.2884 119.647 54.7917 119.751C56.4494 120.106 56.5975 120.135 56.8195 120.327C56.9379 120.431 57.2043 120.549 57.4115 120.594C57.6188 120.638 58.4476 120.919 59.2617 121.214C60.6087 121.687 61.3636 121.939 62.6661 122.323C62.9177 122.382 63.3174 122.515 63.5542 122.604C65.0195 123.121 67.9354 123.994 69.6228 124.422C69.9485 124.496 70.4221 124.629 70.6589 124.718C70.9106 124.807 71.399 124.91 71.7691 124.94C72.1391 124.969 72.5683 125.058 72.7311 125.132C72.894 125.206 73.4564 125.339 73.9893 125.428C74.5221 125.516 75.2918 125.649 75.6915 125.723C76.1059 125.797 77.1568 125.96 78.0597 126.093C78.9478 126.211 79.7471 126.344 79.8359 126.374C80.2503 126.566 84.0839 126.403 85.4457 126.137ZM188.361 115.198C188.035 113.099 186.881 111.369 185.253 110.511C184.912 110.334 184.335 110.024 183.98 109.817C183.624 109.625 183.21 109.462 183.077 109.462C182.929 109.462 182.736 109.358 182.633 109.24C182.529 109.122 182.337 109.018 182.203 109.018C182.07 109.018 181.833 108.93 181.671 108.826C181.508 108.723 181.005 108.471 180.561 108.294C180.116 108.102 179.376 107.791 178.932 107.584C178.163 107.244 177.704 107.037 176.86 106.683C176.653 106.594 175.898 106.269 175.158 105.973C174.433 105.663 173.693 105.323 173.53 105.219C173.367 105.116 173.145 105.027 173.027 105.027C172.908 105.027 172.449 104.85 171.99 104.643C171.532 104.436 170.925 104.155 170.643 104.037C170.362 103.918 169.622 103.608 169.015 103.327C166.514 102.233 165.093 101.627 164.974 101.627C164.915 101.627 164.16 101.302 163.302 100.888C162.443 100.489 161.674 100.149 161.6 100.149C161.526 100.149 161.348 100.089 161.2 100.001C161.067 99.9268 160.519 99.6903 159.986 99.4833C158.684 98.9659 158.625 98.9364 157.13 98.2416C156.419 97.9016 155.324 97.4285 154.687 97.1772C153.577 96.7337 153.148 96.5563 151.327 95.7137C150.839 95.4919 149.906 95.0928 149.255 94.8119C148.604 94.5458 147.938 94.2354 147.775 94.1319C147.612 94.0284 147.405 93.9397 147.301 93.9397C147.198 93.9397 146.695 93.7475 146.191 93.511C144.297 92.6388 143.453 92.2692 142.565 91.9292C142.047 91.737 141.514 91.5153 141.381 91.4414C141.233 91.3674 140.685 91.1013 140.152 90.8648C139.619 90.6283 138.746 90.2144 138.184 89.9631C137.636 89.7117 137.133 89.5048 137.044 89.5048C136.97 89.5048 136.659 89.3717 136.348 89.2239C135.653 88.8691 134.409 88.3221 133.344 87.8786C132.899 87.7012 132.47 87.4943 132.381 87.4204C132.307 87.3465 132.1 87.2873 131.923 87.2873C131.745 87.2873 131.523 87.1838 131.419 87.0656C131.316 86.9473 131.138 86.8438 131.02 86.8438C130.901 86.8438 130.62 86.7551 130.413 86.6517C130.191 86.5334 129.791 86.3412 129.525 86.2082C129.243 86.0751 128.933 85.9569 128.814 85.9569C128.696 85.9569 128.222 85.7647 127.749 85.5281C127.053 85.1734 125.543 84.4933 124.093 83.8872C123.93 83.8133 123.471 83.6211 123.056 83.4437C121.31 82.7046 119.622 82.1133 119.238 82.1133C119.09 82.1133 118.868 82.0541 118.72 81.9802C117.994 81.6106 117.165 81.4924 115.404 81.4776C114.146 81.4776 113.435 81.5367 113.332 81.6402C113.228 81.7437 112.932 81.8176 112.666 81.8176C112.399 81.8176 111.866 81.9654 111.482 82.1428C111.082 82.3054 110.534 82.5568 110.253 82.675C109.972 82.7933 109.557 82.9855 109.335 83.1037C109.128 83.2072 108.803 83.2959 108.64 83.2959C108.462 83.2959 108.166 83.3846 107.988 83.5029C107.811 83.6064 107.1 83.769 106.405 83.8724C105.709 83.9759 104.688 84.1237 104.11 84.2272C103.548 84.3159 102.823 84.3751 102.512 84.3455C101.624 84.2864 99.9956 84.9959 99.1371 85.8386C98.7227 86.2377 98.3378 86.7108 98.249 86.8882C98.175 87.0656 97.953 87.4943 97.7606 87.8491C97.5534 88.1891 97.3609 88.6769 97.3017 88.9135C97.2425 89.1648 97.1389 89.357 97.0649 89.357C96.9909 89.357 96.9317 89.5639 96.9317 89.8004C96.9317 90.3622 97.1389 90.3622 97.879 89.8004C98.2046 89.5491 98.5747 89.357 98.7079 89.357C98.8411 89.357 99.0039 89.2978 99.0779 89.2239C99.3148 89.0169 100.632 88.6474 102.023 88.3813C102.734 88.2482 103.533 88.0856 103.8 87.9969C104.214 87.8786 104.969 87.7013 106.997 87.2725C107.367 87.1986 107.766 87.0952 107.885 87.036C108.003 86.9917 108.447 86.8586 108.847 86.7699C109.261 86.6664 110.12 86.4447 110.771 86.2525C113.495 85.4838 114.575 85.3212 116.633 85.4247C117.565 85.4542 118.498 85.5577 118.705 85.6316C118.897 85.7055 119.474 85.8534 119.993 85.9421C121.473 86.2229 125.721 88.1595 132.085 91.4857C133.062 91.9883 134.957 92.964 136.304 93.6293C137.651 94.3093 138.85 94.9154 138.968 94.9893C139.545 95.3293 144.948 97.9459 146.739 98.7442C147.227 98.9659 147.731 99.2025 147.849 99.2764C147.967 99.3503 148.234 99.4686 148.441 99.5573C148.648 99.6312 149.004 99.7938 149.226 99.9268C149.462 100.045 149.773 100.149 149.921 100.149C150.069 100.149 150.217 100.252 150.277 100.37C150.321 100.489 150.469 100.592 150.602 100.592C150.75 100.592 151.401 100.843 152.053 101.169C152.719 101.479 154.081 102.085 155.102 102.514C156.123 102.943 157.218 103.416 157.544 103.549C157.87 103.697 158.536 103.992 159.024 104.214C159.513 104.421 160.016 104.657 160.164 104.731C160.297 104.805 160.963 105.071 161.644 105.337C162.31 105.589 163.154 105.929 163.494 106.077C163.835 106.239 164.175 106.357 164.249 106.357C164.323 106.357 164.782 106.564 165.285 106.801C165.789 107.052 166.321 107.244 166.469 107.244C166.603 107.244 166.854 107.348 167.002 107.466C167.165 107.584 167.417 107.688 167.55 107.688C167.698 107.688 167.994 107.777 168.231 107.895C168.453 108.013 168.912 108.22 169.237 108.368C169.563 108.501 170.007 108.708 170.229 108.826C170.436 108.93 170.747 109.018 170.91 109.018C171.073 109.018 171.28 109.122 171.384 109.24C171.487 109.358 171.724 109.462 171.902 109.462C172.094 109.462 172.434 109.551 172.671 109.669C173.16 109.92 173.796 110.171 175.602 110.792C176.342 111.058 177.156 111.354 177.423 111.472C177.689 111.591 178.015 111.679 178.163 111.679C178.296 111.679 178.547 111.783 178.695 111.901C178.858 112.019 179.11 112.123 179.258 112.123C179.391 112.123 179.761 112.226 180.072 112.359C180.931 112.729 181.138 112.818 182.337 113.217C182.944 113.424 183.817 113.734 184.261 113.897C184.705 114.074 185.238 114.266 185.445 114.326C186.126 114.547 187.488 115.227 187.665 115.449C187.769 115.567 187.976 115.671 188.139 115.671C188.391 115.671 188.42 115.597 188.361 115.198ZM6.87902 113.32C7.02704 113.172 8.95124 112.566 9.24727 112.566C9.35088 112.566 9.69132 112.463 10.0022 112.33C11.3787 111.738 12.5036 111.221 12.7108 111.088C12.8292 111.014 13.5989 110.615 14.413 110.201C15.6267 109.595 16.0264 109.462 16.6629 109.462C17.0921 109.462 17.4473 109.403 17.4473 109.329C17.4473 109.27 17.0329 108.752 16.5444 108.191C16.0264 107.614 15.4047 106.697 15.1087 106.091C14.8275 105.5 14.5462 104.983 14.4722 104.938C14.3982 104.894 14.339 104.746 14.339 104.613C14.339 104.48 14.2354 104.17 14.117 103.933C13.9986 103.711 13.895 103.371 13.895 103.194C13.8802 103.031 13.7914 102.721 13.6729 102.514C13.5545 102.307 13.4509 101.849 13.4509 101.479C13.4509 101.109 13.3473 100.681 13.2289 100.533C13.0661 100.326 13.0069 99.8381 13.0069 98.8329C13.0069 98.0494 12.9329 96.778 12.8589 96.0093C12.622 93.7475 12.5184 81.4628 12.7108 79.0827C12.7996 77.9444 12.9329 75.5644 13.0069 73.7904C13.0809 72.0164 13.1845 70.4938 13.2437 70.4051C13.3029 70.3164 13.4065 69.2816 13.4657 68.0841C13.6877 64.4919 13.8358 62.8214 13.969 62.6144C14.0282 62.4962 14.0726 61.9196 14.0726 61.3283C14.0578 60.737 14.117 60.0569 14.2058 59.8352C14.2946 59.6135 14.413 58.963 14.487 58.3865C14.6202 57.2334 14.8571 55.6959 15.1087 54.469C15.2567 53.6707 15.4491 52.4732 15.6119 51.2906C15.6563 50.9654 15.7896 50.4923 15.908 50.2262C16.0264 49.9749 16.1152 49.6349 16.1152 49.4575C16.1152 48.9992 16.5592 47.994 16.7961 47.9053C17.0181 47.8166 17.0921 47.0774 16.8701 47.0774C16.6481 47.0774 16.13 47.3287 15.1531 47.8905C14.6646 48.1714 13.2733 48.8957 12.0448 49.5166C10.831 50.1227 9.72092 50.6845 9.60251 50.7584C9.4841 50.8471 8.89204 51.128 8.31477 51.4236C6.76061 52.1628 5.90212 52.902 5.90212 53.4933C5.90212 53.7446 5.81331 54.0846 5.6949 54.2472C5.59129 54.4098 5.45807 54.8385 5.41367 55.2081C5.36927 55.5777 5.19165 56.6421 5.02883 57.5734C4.85121 58.5047 4.65879 59.7613 4.58478 60.3526C4.51077 60.9587 4.37756 61.5205 4.28875 61.6092C4.19994 61.6979 4.12593 62.2448 4.12593 62.8214C4.11113 63.4423 4.03712 64.004 3.90391 64.2258C3.7855 64.4327 3.69669 64.9945 3.68189 65.5267C3.68189 66.0441 3.60788 66.6058 3.50427 66.7832C3.40066 66.9606 3.26744 67.7441 3.20824 68.5129C3.14903 69.2816 3.01582 70.5233 2.94181 71.2477C2.853 71.9869 2.71979 73.273 2.64578 74.1304C2.57177 74.9878 2.45336 76.2148 2.36455 76.8653C2.29054 77.5157 2.26094 78.1958 2.30534 78.3584C2.33495 78.5358 2.29054 78.9349 2.20173 79.2453C2.09812 79.5706 1.96491 81.0489 1.8909 82.5567C1.83169 84.0646 1.69848 85.9273 1.62447 86.696C1.38765 88.8839 1.43205 96.7633 1.68368 99.1877C1.80209 100.326 1.9057 101.775 1.9057 102.396C1.9057 103.016 1.97971 103.711 2.08332 103.948C2.17213 104.17 2.27574 104.657 2.29054 105.027C2.34975 106.21 2.64578 107.244 3.45986 109.092C3.57828 109.344 3.69669 109.639 3.74109 109.758C3.8299 109.994 4.61439 111.177 5.38407 112.3C5.63569 112.64 5.88732 113.054 5.94653 113.202C6.05014 113.468 6.6274 113.542 6.87902 113.32ZM191.41 111.679C192.209 111.605 193.112 111.472 193.408 111.384C193.704 111.31 194.267 111.236 194.652 111.236C195.081 111.236 195.599 111.103 196.058 110.866C196.753 110.512 198.174 109.314 198.174 109.063C198.174 109.004 198.278 108.752 198.411 108.501C198.914 107.584 198.974 106.86 199.018 100.74C199.062 95.6841 197.197 73.3765 197.242 73.0808C197.286 72.7704 197.212 72.1938 197.079 71.7208C196.946 71.2477 196.842 70.346 196.842 69.5181C196.827 68.6016 196.753 68.025 196.62 67.7737C196.487 67.5372 196.398 66.9606 196.398 66.2215C196.398 65.4823 196.309 64.9058 196.176 64.6693C196.058 64.4623 195.969 63.9892 195.954 63.6197C195.954 63.2205 195.865 62.8657 195.747 62.7622C195.643 62.6735 195.51 62.4075 195.466 62.1857C195.406 61.964 194.785 61.1509 193.986 60.3083C192.431 58.6673 185.993 52.2958 183.817 50.241C183.047 49.5166 181.922 48.4523 181.301 47.8757C180.694 47.2844 179.894 46.56 179.524 46.2496C179.169 45.9244 178.429 45.2591 177.896 44.7713C177.363 44.2687 176.712 43.6625 176.431 43.4408C176.15 43.2043 175.484 42.5834 174.936 42.0512C174.107 41.2529 172.42 39.745 170.703 38.2519C170.525 38.1041 169.933 37.5867 169.385 37.0989C167.55 35.4875 166.854 34.8814 166.188 34.3492C165.833 34.0536 165.108 33.4475 164.59 33.0187C162.073 30.89 160.297 29.456 158.151 27.8595C157.544 27.416 156.271 26.4403 155.309 25.7011C154.332 24.962 153.178 24.1046 152.734 23.7941C152.29 23.4837 151.253 22.7593 150.439 22.1828C149.625 21.621 148.87 21.0593 148.767 20.9558C148.663 20.8523 148.5 20.7636 148.412 20.7636C148.323 20.7636 148.041 20.5862 147.775 20.3645C147.375 20.0097 146.206 19.2409 145.2 18.6201C145.066 18.5461 144.726 18.2948 144.445 18.0879C144.163 17.8809 143.823 17.6592 143.705 17.6C143.453 17.4818 143.142 17.3044 142.269 16.7278C141.914 16.5061 141.603 16.3287 141.558 16.3287C141.514 16.3287 141.292 16.2104 141.07 16.0626C139.93 15.2791 138.805 14.5547 138.746 14.5547C138.702 14.5547 137.858 14.0669 136.852 13.4756C135.86 12.8842 134.942 12.352 134.824 12.2929C134.705 12.2338 134.498 12.1303 134.38 12.0416C133.788 11.6572 132.322 10.859 130.309 9.82415C129.095 9.18848 127.097 8.16845 125.869 7.54756C124.655 6.92667 123.589 6.36491 123.5 6.30578C123.426 6.24665 122.849 5.96577 122.242 5.68489C121.635 5.40402 121.029 5.10835 120.91 5.00487C120.792 4.91617 120.363 4.72399 119.948 4.57616C119.548 4.42833 119.104 4.22137 118.986 4.11789C118.868 4.02919 118.601 3.89614 118.394 3.85179C117.965 3.73353 117.447 3.52657 116.869 3.23091C116.248 2.93525 116.041 2.97959 115.937 3.43787C115.892 3.65962 115.789 3.98484 115.715 4.17702C115.641 4.3692 115.582 4.67965 115.582 4.88661C115.582 5.09357 115.508 5.40402 115.404 5.58141C115.152 6.05447 115.049 6.71971 114.546 11.0068C114.457 11.7755 114.324 13.4164 114.25 14.6286C114.176 15.8556 114.042 17.1861 113.968 17.5852C113.894 17.9992 113.82 19.6253 113.805 21.2071C113.805 22.8184 113.702 24.7846 113.583 25.642C113.317 27.549 113.273 41.0903 113.524 43.086C113.598 43.7808 113.731 46.3087 113.805 48.7036C113.879 51.0984 114.013 53.4341 114.087 53.8776C114.176 54.3211 114.205 55.1194 114.161 55.6516C114.116 56.1838 114.161 57.0856 114.235 57.6473C114.324 58.2239 114.457 59.4952 114.546 60.4857C114.62 61.4909 114.753 62.5849 114.842 62.9396C114.916 63.2944 114.945 63.7231 114.901 63.8858C114.856 64.0632 114.886 64.4475 114.99 64.7432C115.152 65.2458 115.256 65.778 115.582 67.7737C115.7 68.4981 116.1 69.9912 116.381 70.8042C117.58 74.1748 119.178 77.1905 120.57 78.7575C120.836 79.0532 121.058 79.3636 121.058 79.4375C121.058 79.7332 123.234 81.7732 123.649 81.8767C124.063 81.9654 124.581 82.1872 125.543 82.6454C125.78 82.7637 126.061 82.8524 126.165 82.8524C126.268 82.8524 126.55 82.9411 126.786 83.0594C127.719 83.5324 128.933 84.0646 130.901 84.8481C132.041 85.3064 133.033 85.7499 133.122 85.8238C133.196 85.8977 133.344 85.9569 133.447 85.9569C133.551 85.9569 134.217 86.2229 134.927 86.563C135.653 86.903 136.496 87.2873 136.822 87.4352C137.148 87.5682 137.725 87.8343 138.11 88.0117C138.494 88.1743 138.85 88.3221 138.894 88.3221C138.939 88.3221 139.516 88.5735 140.197 88.8987C140.863 89.2091 141.706 89.5787 142.076 89.7265C142.446 89.8744 143.157 90.1848 143.675 90.4213C144.178 90.6431 144.682 90.8353 144.785 90.8353C144.889 90.8353 145.037 90.8944 145.126 90.9683C145.2 91.0422 145.925 91.3822 146.739 91.7222C147.553 92.0623 148.293 92.3875 148.367 92.4466C148.456 92.5057 149.048 92.7718 149.699 93.0379C150.351 93.304 151.091 93.6145 151.327 93.7327C151.579 93.8362 151.875 93.9545 151.993 93.9988C152.112 94.0432 152.319 94.1467 152.438 94.2206C152.556 94.2945 153.266 94.6049 153.992 94.9006C154.732 95.1963 155.457 95.4919 155.62 95.5658C156.582 95.9798 157.766 96.5119 158.255 96.7633C158.565 96.9111 158.906 97.0441 159.024 97.0441C159.128 97.0441 159.32 97.1328 159.424 97.2363C159.527 97.3546 159.809 97.4876 160.06 97.5468C160.46 97.6502 161.57 98.1233 162.547 98.6111C162.784 98.7294 163.05 98.8181 163.169 98.8181C163.272 98.8181 163.435 98.9216 163.539 99.0398C163.642 99.1581 163.864 99.2616 164.042 99.2616C164.205 99.2616 164.486 99.3651 164.634 99.4833C164.797 99.6016 165.034 99.7051 165.182 99.7051C165.315 99.7051 165.507 99.8086 165.611 99.9268C165.715 100.045 165.951 100.149 166.129 100.149C166.307 100.149 166.543 100.252 166.647 100.37C166.751 100.489 166.958 100.592 167.121 100.592C167.283 100.592 167.594 100.681 167.802 100.784C168.926 101.361 171.25 102.366 171.443 102.366C171.561 102.366 171.724 102.47 171.828 102.588C171.931 102.706 172.168 102.81 172.346 102.81C172.523 102.81 172.76 102.913 172.864 103.031C172.967 103.15 173.175 103.253 173.323 103.253C173.559 103.253 174.107 103.49 175.868 104.377C176.105 104.495 176.416 104.583 176.564 104.583C176.697 104.583 176.905 104.687 177.008 104.805C177.112 104.924 177.304 105.027 177.437 105.027C177.571 105.027 177.748 105.086 177.837 105.16C177.911 105.234 178.636 105.574 179.45 105.914C180.264 106.254 180.99 106.594 181.064 106.668C181.153 106.742 181.33 106.801 181.463 106.801C181.597 106.801 181.789 106.904 181.893 107.023C181.996 107.141 182.263 107.244 182.499 107.244C182.722 107.244 182.944 107.304 183.003 107.377C183.077 107.525 184.142 108.043 185.149 108.442C186.081 108.811 187.754 110.171 188.405 111.103C188.997 111.945 189.057 111.99 189.501 111.901C189.752 111.857 190.611 111.753 191.41 111.679ZM26.1803 110.63C26.1803 110.319 25.8694 109.905 25.4698 109.698C24.5373 109.196 21.8286 106.15 21.503 105.234C21.4438 105.086 21.3105 104.85 21.2217 104.731C20.8961 104.332 19.934 102.455 19.6676 101.701C19.5196 101.302 19.2087 100.415 18.9719 99.7494C18.7203 99.0694 18.5575 98.3746 18.5871 98.1676C18.6315 97.9755 18.5871 97.665 18.4834 97.4876C18.3798 97.2955 18.291 96.5859 18.2762 95.8763C18.2614 95.1667 18.1578 94.4423 18.0394 94.2501C17.7878 93.7623 17.7582 81.8472 18.0098 79.7184C18.1134 78.9201 18.2614 77.6192 18.365 76.8357C18.4538 76.0374 18.6167 75.1948 18.7351 74.9435C19.0311 74.3078 19.3123 73.8347 19.5048 73.6426C19.7416 73.406 19.712 72.8739 19.4455 72.6521C19.3271 72.5486 19.2235 72.3121 19.2235 72.1051C19.2235 71.913 19.1495 71.6173 19.0755 71.4547C18.9867 71.2921 18.8831 70.5234 18.8535 69.7251C18.8239 68.9416 18.7499 67.3302 18.7055 66.1476C18.6315 64.3884 18.8091 56.6421 19.0163 52.0298C19.0903 50.2558 19.3123 48.4966 19.49 48.1566C19.7712 47.6392 19.6972 47.447 19.1495 47.1809C18.5278 46.8853 18.1282 46.8557 17.9358 47.1218C17.7286 47.3879 17.4473 48.4523 17.4473 48.9549C17.4473 49.2062 17.3437 49.4871 17.2253 49.5905C17.0773 49.7088 17.0033 50.034 17.0033 50.5367C17.0033 50.9802 16.9145 51.4236 16.7813 51.601C16.6481 51.7637 16.574 52.2219 16.5592 52.7393C16.5592 53.2124 16.4704 53.7446 16.3816 53.922C16.278 54.0994 16.1596 54.7203 16.1004 55.282C16.0412 55.8586 15.9228 56.7899 15.834 57.3517C15.4491 59.6578 15.1235 62.304 14.9311 64.7432C14.8571 65.6449 14.7238 67.1676 14.635 68.1433C14.5462 69.119 14.413 71.0555 14.339 72.4304C14.2798 73.82 14.1466 75.6087 14.0578 76.4218C13.8358 78.3584 13.8358 96.9259 14.0578 98.1529C14.1318 98.6407 14.2502 99.5425 14.2946 100.149C14.339 100.755 14.4722 101.39 14.5758 101.553C14.6942 101.716 14.7831 102.07 14.7831 102.336C14.7831 102.617 14.8719 103.046 14.9903 103.297C15.1087 103.563 15.4047 104.229 15.6563 104.776C16.2188 106.047 17.0181 107.363 17.8618 108.457C18.4686 109.24 18.5575 109.299 19.1347 109.285C20.1856 109.27 22.8203 109.565 23.368 109.758C23.6492 109.846 24.2561 110.127 24.7001 110.349C25.5586 110.778 26.1803 110.896 26.1803 110.63ZM104.48 82.2611C104.762 82.1872 105.443 82.0985 105.975 82.0541C106.997 81.9802 109.099 81.3445 110.327 80.7384C111.422 80.2062 112.37 79.9402 114.027 79.6888C115.004 79.5558 115.73 79.5114 116.174 79.6001C116.544 79.6593 117.106 79.7627 117.432 79.8219C117.757 79.881 118.231 80.0141 118.498 80.1323C118.749 80.2506 119.03 80.3393 119.119 80.3393C119.282 80.3393 119.415 80.3984 120.289 80.8271C120.807 81.0932 121.354 81.1524 121.354 80.9602C121.354 80.901 120.807 80.2802 120.141 79.5854C119.4 78.8314 118.557 77.7375 118.009 76.8505C117.017 75.2539 116.026 73.2878 116.026 72.9478C116.026 72.8295 115.922 72.6078 115.804 72.4599C115.7 72.2973 115.552 71.8982 115.508 71.5729C115.448 71.2329 115.286 70.7155 115.138 70.4346C114.99 70.1538 114.768 69.459 114.634 68.8824C114.501 68.3207 114.309 67.5815 114.22 67.2563C114.131 66.9311 114.072 66.4137 114.087 66.118C114.102 65.8075 114.042 65.4232 113.953 65.2458C113.776 64.9353 113.628 63.5901 113.376 60.2787C113.302 59.2882 113.184 58.3865 113.11 58.283C113.051 58.1795 112.947 57.2334 112.903 56.169C112.814 54.2768 112.562 50.1819 112.399 47.5948C112.207 44.6826 112.148 29.116 112.311 26.529C112.414 25.1098 112.518 22.7445 112.547 21.281C112.577 19.8175 112.681 18.354 112.755 18.0287C112.843 17.7035 112.917 16.6687 112.917 15.7374C112.917 14.673 113.006 13.7712 113.139 13.3129C113.258 12.9138 113.361 12.0712 113.361 11.4503C113.361 10.7111 113.435 10.1494 113.583 9.88328C113.731 9.58762 113.776 9.24761 113.717 8.75977C113.643 8.27193 113.687 7.93192 113.865 7.59191C113.998 7.34059 114.102 6.88232 114.102 6.60144C114.102 5.95099 114.649 4.25094 115.019 3.77788C115.167 3.5857 115.286 3.33439 115.286 3.23091C115.286 2.96481 115.004 2.83176 114.797 2.99438C114.398 3.3196 109.883 5.49271 108.743 5.90664C108.344 6.05447 108.033 6.21708 108.033 6.291C108.033 6.35013 107.811 6.46839 107.559 6.55709C106.627 6.83797 105.946 7.11885 105.783 7.28146C105.679 7.38494 105.517 7.45886 105.413 7.45886C105.028 7.45886 101.491 9.20326 101.328 9.48414C101.269 9.58762 101.106 9.67632 100.973 9.67632C100.44 9.67632 98.7227 11.2877 98.7079 11.8199C98.7079 11.9825 98.6043 12.2781 98.4859 12.4851C98.3674 12.6921 98.2786 13.0616 98.2638 13.2982C98.2638 13.5495 98.1602 13.9338 98.0418 14.1704C97.9086 14.4069 97.8198 14.9834 97.8198 15.5156C97.8198 16.0182 97.7162 16.6835 97.5978 16.9939C97.4646 17.2896 97.4053 17.6444 97.4498 17.7922C97.4942 17.9253 97.4497 18.5314 97.3609 19.1375C97.1685 20.4384 97.0057 22.168 96.7985 25.4646C96.7245 26.7803 96.5765 28.2438 96.4728 28.7169C96.3692 29.1752 96.2804 30.89 96.2508 32.5161C96.236 34.1423 96.1768 36.0049 96.1176 36.6406C95.9696 38.4441 96.014 52.1628 96.1916 56.4647C96.3396 60.3083 96.5765 63.7823 97.0205 68.365C97.1537 69.7103 97.2869 71.2034 97.3313 71.6912C97.3757 72.179 97.4794 72.6669 97.5682 72.7852C97.6718 72.9034 97.7902 73.3913 97.8346 73.8939C97.9382 74.9583 98.3822 76.5696 98.8411 77.6044C99.7292 79.5706 99.966 80.0141 100.425 80.6645C100.691 81.0341 101.047 81.6106 101.209 81.9506L101.52 82.542L102.749 82.4681C103.415 82.4237 104.199 82.335 104.48 82.2611ZM21.5622 71.8095C21.7842 71.6616 22.3022 71.3069 22.7019 71.0112C23.1163 70.7155 24.108 70.1242 24.9221 69.6955C25.7362 69.2668 26.4763 68.8677 26.5503 68.8085C26.8907 68.5424 34.2323 64.9649 34.4395 64.9649C34.5135 64.9649 34.6912 64.8319 34.8392 64.6693C34.9872 64.5066 35.1796 64.3736 35.2536 64.3736C35.4016 64.3736 35.6088 64.2849 37.6071 63.3536C38.1547 63.1023 38.658 62.8953 38.7172 62.8953C38.7616 62.8953 38.9244 62.8066 39.0428 62.7031C39.176 62.5849 39.6497 62.3483 40.0937 62.1709C41.0558 61.7718 42.1955 61.2544 43.4241 60.6926C44.3122 60.2787 44.9338 59.9978 46.5028 59.2882C46.9616 59.0813 47.7017 58.7413 48.1458 58.5343C48.5898 58.3273 49.0043 58.1647 49.0635 58.1647C49.1819 58.1647 51.3577 57.2038 52.6158 56.5977C53.0303 56.4055 53.4447 56.2429 53.5335 56.2429C53.6223 56.2429 53.874 56.1542 54.1108 56.036C54.3328 55.9177 54.6881 55.7551 54.8953 55.6664C56.2422 55.1194 57.2635 54.7055 57.7816 54.5281C58.1072 54.4098 58.5069 54.262 58.6697 54.1881C59.5282 53.8037 60.6383 53.3898 61.1711 53.2272C61.5116 53.1237 62.074 52.902 62.4441 52.7246C62.8141 52.5619 63.3618 52.355 63.6578 52.2515C63.9686 52.1628 64.2499 52.015 64.2943 51.9411C64.3535 51.8671 64.5459 51.808 64.7531 51.808C64.9603 51.808 65.2712 51.7193 65.4488 51.601C65.6264 51.4976 66.1445 51.2906 66.5885 51.1428C67.6246 50.8028 69.6228 50.0636 70.2593 49.7975C70.5257 49.6792 70.8958 49.5905 71.0734 49.5905C71.251 49.5905 71.5322 49.4871 71.6802 49.3688C71.8431 49.2505 72.0947 49.1471 72.2427 49.1471C72.3759 49.1471 72.7164 49.0584 72.9828 48.9401C73.2492 48.8218 73.7673 48.6297 74.1373 48.5114C75.7951 47.9644 76.2983 47.787 76.5796 47.6688C76.7424 47.5948 77.4084 47.3879 78.0597 47.2105C78.711 47.0331 80.0135 46.6339 80.946 46.3235C81.8785 46.0278 82.8702 45.7322 83.1366 45.673C83.4031 45.6139 83.8027 45.4809 84.0247 45.3626C84.2468 45.2443 84.6168 45.1556 84.8388 45.1556C85.0757 45.1556 85.3717 45.0965 85.5197 45.0226C85.8157 44.86 87.8287 44.2982 88.7168 44.1208C89.0425 44.0617 89.8418 43.8695 90.4782 43.6921C91.1295 43.5295 91.7956 43.3817 91.9732 43.3817C92.1656 43.3817 92.5504 43.2782 92.8613 43.1451C93.1721 43.0269 93.5717 42.953 93.7642 42.9973C94.5042 43.1895 94.4894 43.2338 94.445 38.6067C94.4154 36.0788 94.4598 33.7136 94.5634 32.8857C94.6523 32.117 94.7263 30.3578 94.7263 28.9978C94.7263 27.2238 94.7855 26.3368 94.9483 25.9081C95.0815 25.5237 95.1555 24.7255 95.1555 23.7202C95.1555 22.6411 95.2295 21.961 95.3775 21.6062C95.5256 21.2662 95.5996 20.5862 95.5996 19.7584C95.5996 18.9157 95.6736 18.2357 95.8216 17.9105C95.9548 17.6 95.9992 17.2009 95.9548 16.9348C95.8956 16.6687 95.9548 16.1661 96.1028 15.7374C96.236 15.3234 96.31 14.9243 96.2508 14.8356C96.1472 14.6582 96.5617 12.8103 96.8725 12.0712C96.9909 11.8051 97.0797 11.3912 97.0797 11.1398C97.0797 10.7998 97.2721 10.5042 97.8938 9.88328C98.3378 9.425 98.7079 8.93716 98.7079 8.78933C98.7079 8.39019 98.0122 7.90235 97.4202 7.90235C96.7689 7.90235 95.4811 8.34584 93.5421 9.21804C92.6837 9.61718 91.7215 10.0163 91.4255 10.105C91.1147 10.2085 90.8335 10.3563 90.7891 10.4303C90.7299 10.5042 90.5374 10.5633 90.3598 10.5633C90.1674 10.5633 89.9306 10.6668 89.827 10.785C89.7233 10.9033 89.5309 11.0068 89.3977 11.0068C89.2645 11.0068 89.0869 11.0659 89.0129 11.1398C88.9241 11.2138 88.1988 11.5538 87.3847 11.8938C86.5706 12.2338 85.6677 12.6329 85.3865 12.7808C84.528 13.2242 82.5742 14.1112 82.441 14.1112C82.3818 14.1112 81.9969 14.2886 81.5973 14.4956C81.1976 14.7173 80.6204 14.9686 80.3095 15.0869C79.6879 15.3087 79.4215 15.4269 77.3492 16.3878C76.5499 16.7574 75.8543 17.0678 75.8099 17.0678C75.7655 17.0678 75.4546 17.2009 75.1142 17.3487C72.5387 18.5609 71.6062 18.9896 71.5322 18.9896C71.4582 18.9896 70.7774 19.3001 68.5127 20.3349C67.9799 20.5862 67.3582 20.8671 67.1066 20.9853C66.6181 21.1923 65.1824 21.8428 63.7466 22.5228C63.2285 22.7593 62.0148 23.3211 61.0379 23.7646C60.061 24.2081 58.9657 24.7107 58.5957 24.8733C56.183 25.9672 53.8 27.1203 53.6667 27.2534C53.5779 27.3421 53.3707 27.416 53.2079 27.416C53.0599 27.416 52.6454 27.5786 52.3198 27.7708C51.9794 27.9629 51.2837 28.303 50.7508 28.5247C50.218 28.7465 48.8562 29.3673 47.7165 29.9291C45.7923 30.8456 43.1872 32.0874 41.7959 32.7379C41.4703 32.8857 40.5082 33.344 39.6497 33.7431C38.0067 34.5118 36.6302 35.1475 36.0677 35.3988C35.8753 35.4727 35.6236 35.6058 35.5052 35.6797C35.3868 35.7684 34.8836 36.0049 34.3951 36.2267C32.7966 36.9363 30.3987 38.0746 30.1767 38.2076C30.0583 38.2963 29.8066 38.4293 29.6142 38.5033C29.4218 38.5772 28.7113 38.9172 28.0156 39.2424C27.32 39.5676 26.6983 39.8337 26.6243 39.8337C26.5503 39.8337 26.3135 39.9224 26.0766 40.0407C25.8546 40.159 25.1589 40.499 24.5521 40.7946C23.9452 41.0903 23.2939 41.4155 23.1163 41.519C22.6279 41.7999 21.8878 42.6869 21.9618 42.9086C21.9914 43.0121 21.9026 43.4112 21.7546 43.7956C21.6066 44.18 21.429 45.1261 21.3697 45.8948C21.3105 46.6635 21.1921 47.4322 21.1033 47.5948C20.9553 47.8757 20.8665 48.8218 20.5705 53.2124C20.3632 56.1247 20.378 69.9616 20.5705 70.9077C20.7185 71.6173 20.9257 72.0608 21.1033 72.0608C21.1329 72.0608 21.3401 71.9425 21.5622 71.8095ZM184.942 48.807C185.045 48.541 184.483 47.0479 183.506 44.9043C183.269 44.3869 183.077 43.9139 183.077 43.8252C183.077 43.5295 182.144 41.7703 181.715 41.2381C181.301 40.7503 181.212 40.7059 180.59 40.7503C179.998 40.7946 179.85 40.8685 179.569 41.2825C179.391 41.5486 179.199 42.1399 179.14 42.5982L179.036 43.4112L179.761 44.0173C180.605 44.7121 183.817 47.9644 183.817 48.1122C183.817 48.1714 183.95 48.3931 184.128 48.6149C184.453 49.0288 184.823 49.1175 184.942 48.807ZM124.463 4.69443C124.463 4.5466 123.575 2.99438 123.249 2.58045C122.598 1.7526 121.71 1.47172 121.117 1.91522C120.969 2.03348 120.703 2.13696 120.54 2.13696C119.711 2.15174 119.682 2.92046 120.511 3.08308C121.103 3.20134 123.338 4.29529 123.589 4.59095C123.752 4.79791 124.463 4.88661 124.463 4.69443Z" fill="rgb(0,0,0)" fill-rule="nonzero" transform="matrix(1,0,0,-1,0.59668,230.066)" />
		<path id="矢量 475" d="M8.80047 60.1522C7.63114 58.8218 6.95027 57.6391 6.2842 55.806C6.15099 55.4069 5.92896 54.8599 5.82535 54.5938C5.70694 54.3425 5.61813 54.0468 5.61813 53.9286C5.61813 53.8103 5.57373 53.6625 5.51452 53.6033C5.45531 53.5442 5.3221 53.1451 5.23329 52.7311C5.12968 52.3024 4.95206 51.5633 4.83365 51.0754C4.28599 48.8875 4.09357 48.0597 3.97516 47.3058C3.91595 46.8623 3.70873 45.6353 3.54591 44.5709C3.36829 43.5213 3.17587 42.1169 3.10187 41.4665C3.02786 40.816 2.89464 39.9586 2.82064 39.5447C2.73183 39.1455 2.62822 38.362 2.59861 37.8003C2.55421 37.2533 2.4506 36.4254 2.37659 35.9524C2.28778 35.4941 2.15457 33.9862 2.06576 32.5966C1.76973 27.94 1.63651 26.3877 1.4885 25.5008C1.39969 25.0129 1.32568 24.1112 1.32568 23.4903C1.32568 22.8842 1.26647 22.012 1.17766 21.5685C1.10366 21.125 0.970442 18.8927 0.881632 16.6014C0.807625 14.31 0.674411 12.1517 0.585601 11.7969C0.467189 11.2499 0.28957 7.98285 0.0379435 1.7444C-0.0360643 0.0591322 -0.0212628 0 0.259967 0C0.437586 0 0.615204 0.0591322 0.659609 0.147831C0.704014 0.221746 0.837228 1.4783 0.940839 2.92704C1.04445 4.37578 1.16286 5.63234 1.22207 5.72104C1.28127 5.80974 1.32568 6.69672 1.34048 7.70197C1.34048 8.70722 1.44409 9.96378 1.5477 10.496C1.65131 11.0282 1.78453 12.4917 1.82893 13.7482C1.97695 17.3405 2.52461 25.1755 2.95385 29.64C3.04266 30.5418 3.14627 32.0201 3.19068 32.9514C3.23508 33.868 3.32389 34.7845 3.4127 34.9915C3.48671 35.1837 3.54591 35.8341 3.54591 36.4402C3.54591 37.0463 3.60512 37.6968 3.69393 37.9185C3.76794 38.1255 3.91595 38.9681 4.00476 39.8108C4.36 43.063 4.56722 44.5413 5.3221 48.8432C5.41091 49.331 5.52932 49.7893 5.57373 49.8632C5.61813 49.9519 5.75135 50.3806 5.85496 50.8389C6.21019 52.4207 6.37301 52.9825 6.49142 53.1451C6.56543 53.219 6.65424 53.4999 6.69865 53.7364C6.78746 54.2538 7.1871 55.3921 7.39432 55.7617C7.48313 55.9095 7.54233 56.1017 7.54233 56.2052C7.54233 56.5304 8.47483 58.3191 9.05209 59.0731C9.36293 59.487 9.88098 60.034 10.2066 60.3001C10.9467 60.8914 11.0355 61.4975 10.399 61.4975C10.0734 61.4827 9.74777 61.2166 8.80047 60.1522Z" fill="rgb(0,0,0)" fill-rule="nonzero" transform="matrix(1,0,0,-1,167.694,77.4375)" />
	</g>
</svg>
