<svg viewBox="0 0 216 230" xmlns="http://www.w3.org/2000/svg" xmlns:xlink="http://www.w3.org/1999/xlink" width="216.000000" height="230.000000" fill="none">
	<rect id="1-7" width="216.000000" height="230.000000" x="0.000000" y="0.000000" />
	<path id="矢量 476" d="M131.617 3.19717L97.7654 0.556152L90.187 4.63638L86.9307 10.4822L85.5541 27.278L83.4819 29.4442L76.0515 51.9374L73.2244 68.5699L72.5436 80.8996L53.7012 84.9056L35.4213 90.0245L13.6334 99.4609L6.43982 103.141L3.80514 108.986L4.66363 113.794L6.54343 116.45L2.76904 121.301L1.25928 135.233L2.4582 157.741L6.67664 178.276L18.9027 183.81L21.8334 182.876L22.4107 188.44L97.2918 223.337L101.125 221.096L116.771 228.352L119.316 227.491L122.795 229.331L124.349 227.981L126.022 223.411L142.066 215.013L170.337 194.122L179.041 186.051L179.692 189.196L182.06 190.131L184.547 186.288L187.093 177.965L196.832 167.964L200.666 130.753L199.63 120.752L195.87 117.073L197.794 116.405L201.539 116.909L203.626 113.63L215.112 40.8095L213.543 37.9607L201.791 36.0022L194.035 33.5986L189.727 34.4592L183.348 32.2484L182.697 23.1977L179.041 13.6871L169.701 8.31601L131.617 3.19717Z" fill="rgb(255,255,255)" fill-rule="nonzero" />
	<path id="矢量 476" d="M97.7654 0.556152L90.187 4.63638L86.9307 10.4822L85.5541 27.278L83.4819 29.4442L76.0515 51.9374L73.2244 68.5699L72.5436 80.8996L53.7012 84.9056L35.4213 90.0245L13.6334 99.4609L6.43982 103.141L3.80514 108.986L4.66363 113.794L6.54343 116.45L2.76904 121.301L1.25928 135.233L2.4582 157.741L6.67664 178.276L18.9027 183.81L21.8334 182.876L22.4107 188.44L97.2918 223.337L101.125 221.096L116.771 228.352L119.316 227.491L122.795 229.331L124.349 227.981L126.022 223.411L142.066 215.013L170.337 194.122L179.041 186.051L179.692 189.196L182.06 190.131L184.547 186.288L187.093 177.965L196.832 167.964L200.666 130.753L199.63 120.752L195.87 117.073L197.794 116.405L201.539 116.909L203.626 113.63L215.112 40.8095L213.543 37.9607L201.791 36.0022L194.035 33.5986L189.727 34.4592L183.348 32.2484L182.697 23.1977L179.041 13.6871L169.701 8.31601L131.617 3.19717L97.7654 0.556152Z" fill-rule="nonzero" stroke="rgb(0,0,0)" stroke-width="1.000000" />
	<path id="矢量 477" d="M183.422 46.0916L175.444 68.6589L172.409 80.8254L167.91 82.7691L159.399 82.5762L146.862 78.9708L126.11 72.576L102.117 68.8222L88.2624 66.7301L85.835 61.9377L86.427 45.5278L85.835 28.1682L85.835 14.1619L90.1866 4.63643L96.2553 0.5562L104.648 0.111084L161.797 6.00145L174.718 10.3933L180.876 16.0017L183.422 23.45L183.422 46.0916Z" fill="rgb(1,89,188)" fill-rule="nonzero" />
	<g id="组合 95">
		<path id="矢量 478" d="M97.3056 230.059C94.6117 229.852 92.0067 228.769 90.3045 227.196C89.2388 226.187 87.2258 223.576 86.9149 222.804C86.8113 222.522 86.6337 222.092 86.5153 221.84C85.8196 220.282 85.4644 219.095 85.1832 217.24C84.7095 214.169 84.5023 211.78 84.4135 208.145L84.3099 204.391L83.8658 203.842C83.629 203.545 83.2442 202.863 82.9925 202.329C82.7409 201.795 82.3857 201.023 82.1932 200.608C82.0008 200.192 81.838 199.792 81.838 199.703C81.838 199.628 81.6456 199.168 81.394 198.694C80.9795 197.878 80.0322 195.415 79.3069 193.278C79.1293 192.744 78.9369 192.254 78.8925 192.165C78.8333 192.091 78.6557 191.616 78.5077 191.127C78.3596 190.637 78.182 190.103 78.1228 189.94C78.0488 189.776 77.9008 189.272 77.7824 188.827C77.664 188.382 77.3975 187.506 77.2051 186.898C76.9979 186.29 76.7463 185.488 76.6575 185.118C76.5539 184.747 76.3466 184.064 76.1838 183.574C76.0358 183.1 75.8138 182.269 75.6954 181.72C75.5769 181.186 75.3401 180.281 75.1773 179.702C75.0145 179.138 74.7777 178.159 74.6444 177.551C74.5112 176.942 74.3484 176.171 74.2892 175.844C74.2152 175.518 74.0524 174.999 73.9192 174.687C73.8008 174.375 73.7268 174.064 73.7712 174.004C73.8156 173.93 73.7416 173.589 73.6231 173.248C73.5047 172.907 73.4011 172.372 73.4011 172.076C73.4011 171.779 73.3271 171.452 73.2383 171.363C73.1495 171.274 73.0755 170.918 73.0755 170.577C73.0903 170.236 73.0163 169.791 72.9423 169.583C72.7202 168.975 72.3058 166.022 72.0986 163.529C72.0394 162.802 71.921 162.09 71.847 161.972C71.7729 161.853 71.6545 160.977 71.6101 160.043C71.5509 159.108 71.4325 157.906 71.3437 157.372C71.1809 156.437 71.1661 150.725 71.3289 150.25C71.3881 150.087 71.1661 150.013 70.3076 149.924C69.7007 149.864 69.1383 149.746 69.0495 149.657C68.9755 149.582 68.5462 149.508 68.1022 149.508C67.6729 149.508 67.1697 149.434 66.992 149.345C66.8144 149.241 55.9945 147.179 55.7873 147.06C55.58 146.941 55.1508 146.838 54.8252 146.838C54.4995 146.838 52.1757 146.289 52.0277 146.17C51.8648 146.051 51.5244 145.947 51.258 145.947C51.0064 145.947 46.4031 144.612 46.1218 144.567C45.8554 144.538 43.724 143.915 42.8655 143.484C42.6287 143.366 42.303 143.277 42.1254 143.277C41.9478 143.277 41.6666 143.173 41.5186 143.054C41.3557 142.935 41.1041 142.832 40.9561 142.832C40.8081 142.832 40.5713 142.772 40.4232 142.698C40.29 142.624 39.8016 142.446 39.3575 142.312C38.1438 141.941 33.0965 140.057 32.9929 139.938C32.8893 139.82 32.6968 139.716 32.5488 139.716C32.2232 139.716 27.6643 137.742 27.2203 137.535C26.0213 137.001 25.3109 136.674 24.556 136.377C24.1859 136.229 23.7863 136.021 23.6679 135.932C23.5495 135.828 23.3126 135.71 23.1498 135.665C22.3802 135.443 21.5365 135.087 21.0036 134.745C20.678 134.538 20.3079 134.374 20.1599 134.374C20.0267 134.374 19.8047 134.285 19.6863 134.167C19.5531 134.063 18.9906 133.781 18.4133 133.558C17.0368 133.024 16.1339 132.624 15.6454 132.371C15.4382 132.253 11.8562 130.873 11.6046 130.799C11.1162 130.68 10.4057 130.428 9.60641 130.116C7.83022 129.404 6.39447 128.484 5.23995 127.327C4.42586 126.511 4.04102 125.976 3.49337 124.834C2.8273 123.499 2.64968 122.89 2.41285 121.021C2.19083 119.27 3.30095 116.154 4.44067 115.323C4.7663 115.101 5.01793 114.834 5.01793 114.745C5.01793 114.641 4.7663 114.3 4.45547 113.973C3.8042 113.291 2.79769 111.896 2.79769 111.673C2.79769 111.599 2.60527 111.199 2.35365 110.813C2.11682 110.412 1.9096 109.997 1.9096 109.893C1.9096 109.804 1.82079 109.537 1.70238 109.329C1.58397 109.107 1.42115 108.632 1.31754 108.261C1.21393 107.89 1.05111 107.371 0.932697 107.104C0.814284 106.836 0.725475 106.421 0.725475 106.184C0.725475 105.946 0.651467 105.575 0.562658 105.338C0.473849 105.115 0.385039 104.418 0.370238 103.81C0.340635 103.201 0.251825 101.866 0.163016 100.842C-0.0442059 98.5276 -0.0590075 87.192 0.148214 85.189C0.237024 84.373 0.325833 82.7705 0.370238 81.6281C0.399841 80.4856 0.473849 79.447 0.518253 79.3283C0.577459 79.2096 0.666269 78.2452 0.755078 77.1769C1.06591 72.7406 1.11032 72.2658 1.28793 71.9542C1.39155 71.7762 2.32404 63.6306 2.42765 63.4377C2.50166 63.3486 2.60527 62.7848 2.66448 62.2062C2.73849 61.6275 2.8569 60.6928 2.94571 60.1141C3.03452 59.5503 3.15293 58.7046 3.21214 58.2595C3.27134 57.8144 4.12983 54.5057 4.08543 54.3128C4.05583 54.1199 4.11503 53.838 4.21864 53.7045C4.32225 53.5561 4.42586 53.2742 4.42586 53.0516C4.42586 52.3691 5.21035 51.3899 6.33526 50.648C6.91253 50.2622 7.53419 49.8765 7.72661 49.8023C7.90423 49.7133 8.15586 49.5946 8.27427 49.5204C8.86633 49.1494 10.6573 48.2147 11.3974 47.8734C11.8562 47.6657 12.3299 47.4283 12.4335 47.3393C12.5519 47.2503 13.0404 47.0277 13.5288 46.8348C14.0173 46.642 14.6537 46.3452 14.935 46.1672C15.7639 45.6775 17.6289 45.0692 17.8953 45.2027C18.0137 45.2621 18.5613 45.366 19.1238 45.4253L20.1155 45.5292L20.1155 44.357C20.1155 43.6152 20.2043 43.0513 20.3375 42.7694C20.4559 42.5469 20.5596 42.2501 20.5596 42.1314C20.5596 41.5083 22.3802 39.802 23.3719 39.4904C23.7419 39.3717 27.7235 37.5022 28.434 37.1165C28.6412 36.9978 28.9224 36.8939 29.0557 36.8939C29.1889 36.8939 29.3369 36.7901 29.3813 36.6714C29.4405 36.5527 29.6477 36.4488 29.8845 36.4488C30.1214 36.4488 30.3286 36.3449 30.3878 36.2262C30.4322 36.1075 30.5802 36.0037 30.7134 36.0037C30.8466 36.0037 31.1279 35.9147 31.3351 35.796C32.4008 35.2618 35.5387 33.7484 36.3232 33.3923C37.3741 32.9324 39.0911 32.1312 41.4298 31.0035C45.3966 29.0895 48.6825 27.5465 48.7861 27.5465C48.8305 27.5465 49.6002 27.1904 50.5031 26.7453C51.4208 26.315 52.5605 25.766 53.049 25.5435C53.5374 25.3209 54.4699 24.8758 55.1212 24.5642C55.7873 24.2378 56.3793 23.9855 56.4533 23.9855C56.5125 23.9855 56.6902 23.8965 56.8086 23.7927C56.9418 23.6888 57.3414 23.4662 57.7115 23.3179C58.0815 23.1695 58.4811 22.9469 58.6144 22.8431C58.7328 22.7392 58.9696 22.6502 59.1028 22.6502C59.2508 22.6502 59.5469 22.5463 59.7541 22.4276C60.1389 22.2348 61.9595 21.3594 64.0761 20.3949C65.0086 19.9647 65.2751 19.846 67.1105 19.0151C68.5462 18.3622 69.908 17.7391 70.1448 17.5907C70.2632 17.5165 70.4704 17.4127 70.5888 17.3682C70.7072 17.3236 71.3733 17.0417 72.069 16.7598C73.1939 16.285 73.934 15.9586 76.2134 14.9052C76.9091 14.5788 77.3383 14.4007 78.404 13.9556C78.7445 13.8221 79.0997 13.6143 79.1885 13.4956C79.2773 13.3918 79.4698 13.3028 79.603 13.3028C79.7214 13.3028 80.269 13.095 80.8019 12.8428C81.3348 12.5906 81.9712 12.2938 82.208 12.1751C82.4597 12.0713 83.0221 11.819 83.481 11.6113C83.925 11.4036 84.6651 11.1069 85.0944 10.9288C85.5384 10.7508 86.0713 10.5282 86.2785 10.4095C86.9001 10.0831 88.5283 9.34123 89.2388 9.05932C89.6088 8.92579 90.2453 8.64388 90.6745 8.451C91.089 8.27295 91.4886 8.10974 91.533 8.10974C91.5922 8.10974 92.1103 7.87235 92.6875 7.59044C93.2648 7.30854 93.8421 7.07114 93.9901 7.07114C94.1233 7.07114 94.3897 6.95244 94.5821 6.78923C94.7746 6.64086 95.1446 6.47765 95.3814 6.43314C95.6331 6.38863 96.1511 6.26993 96.5656 6.19574C96.9652 6.10672 97.5129 6.07705 97.7941 6.12156C98.5786 6.26993 99.5999 6.92277 99.9255 7.47174C100.088 7.73881 100.31 7.96137 100.429 7.96137C100.547 7.96137 101.006 7.6943 101.435 7.36788C101.865 7.04147 102.264 6.7744 102.323 6.7744C102.501 6.7744 105.817 5.11263 105.905 4.97909C105.95 4.90491 106.113 4.84556 106.261 4.84556C106.409 4.84556 106.719 4.7417 106.956 4.623C107.178 4.51914 107.667 4.28175 108.037 4.11854C108.688 3.83663 112.092 2.27872 113.291 1.71491C115.038 0.898864 116.414 0.646632 116.77 1.06207C116.873 1.18077 117.11 1.28463 117.288 1.28463C117.465 1.28463 117.791 1.41817 117.998 1.58138C118.531 2.01165 118.857 1.95231 119.33 1.35882C119.552 1.07691 119.834 0.839515 119.937 0.839515C120.056 0.839515 120.559 0.631795 121.077 0.379562C121.98 -0.0803911 122.024 -0.0803911 122.439 0.157004C122.675 0.290539 122.986 0.394399 123.134 0.394399C123.49 0.394399 124.911 2.10068 124.911 2.54579C124.911 2.72384 124.999 2.96124 125.118 3.05026C125.399 3.28765 125.799 4.47463 125.799 5.09779C125.799 5.43905 125.873 5.61709 126.065 5.67644C126.835 5.92868 133.673 9.50444 135.434 10.5727C135.893 10.8546 136.323 11.0772 136.367 11.0772C136.426 11.0772 136.693 11.2404 136.944 11.4333C137.211 11.641 137.581 11.8636 137.788 11.9526C138.202 12.1306 138.321 12.2048 139.712 13.095C140.245 13.4363 140.955 13.8666 141.296 14.0595C141.918 14.4156 144.493 16.0031 145.115 16.4186C145.307 16.5373 145.825 16.8934 146.269 17.1901C146.728 17.5017 147.142 17.7539 147.216 17.7539C147.29 17.7539 147.542 17.9616 147.779 18.199C148.016 18.4513 148.327 18.6442 148.46 18.6442C148.608 18.6442 148.785 18.7332 148.845 18.837C148.904 18.9557 149.2 19.1635 149.481 19.3267C149.762 19.475 150.236 19.8163 150.517 20.0537C150.798 20.3059 151.642 20.8994 152.367 21.389C153.107 21.8787 153.729 22.3089 153.774 22.3535C153.818 22.398 154.01 22.5463 154.218 22.6799C155.269 23.3921 158.673 25.9589 159.117 26.3892C159.235 26.493 159.472 26.6859 159.65 26.8046C160.375 27.3091 161.974 28.5999 163.957 30.2765C165.126 31.2706 166.355 32.2944 166.695 32.5615C167.406 33.1253 168.753 34.2974 169.833 35.2618C170.233 35.6328 170.869 36.1966 171.239 36.5081C171.609 36.8346 172.32 37.4577 172.808 37.9177C173.312 38.3776 174.244 39.2234 174.881 39.7872C176.006 40.7813 176.272 41.0483 177.056 41.9979C177.53 42.5766 177.9 42.443 177.9 41.716C177.9 40.6477 178.566 39.9207 180.017 39.4162C180.801 39.1343 180.816 39.1343 181.674 39.4459C182.37 39.713 182.651 39.9207 183.169 40.5735C183.51 41.0187 183.91 41.7012 184.043 42.0721C184.176 42.443 184.413 43.0217 184.576 43.3629C184.724 43.7042 184.857 44.0751 184.857 44.1938C184.857 44.3125 184.96 44.5351 185.079 44.6983C185.197 44.8467 185.301 45.1879 185.301 45.4253C185.301 45.6775 185.404 46.004 185.523 46.1523C185.641 46.3155 185.745 46.6568 185.745 46.9239C185.745 47.1761 185.849 47.4728 185.967 47.5767C186.085 47.6806 186.189 48.007 186.189 48.3037C186.189 48.6153 186.293 48.9862 186.411 49.1494C186.529 49.2978 186.633 49.7281 186.633 50.0842C186.633 50.7073 186.692 50.7964 188.01 52.0872C188.75 52.8291 189.978 54.016 190.703 54.7134C192.302 56.2416 194.522 58.5414 195.81 60.0103C196.757 61.0934 197.379 62.2804 197.571 63.3783C197.631 63.7047 197.749 64.0905 197.838 64.2537C197.912 64.4021 197.956 64.8175 197.912 65.1588C197.882 65.5 197.927 66.049 198.045 66.3606C198.149 66.687 198.237 67.4882 198.267 68.1411C198.282 68.8087 198.371 69.4912 198.459 69.6545C198.548 69.8177 198.622 70.5595 198.622 71.2865C198.622 72.0878 198.711 72.8593 198.844 73.2451C198.978 73.6308 199.066 74.432 199.066 75.3074C199.081 76.0938 199.17 77.1324 199.288 77.622C199.407 78.1117 199.51 79.0464 199.51 79.6992C199.51 80.3521 199.584 81.1236 199.658 81.4055C199.747 81.6874 199.821 82.3996 199.821 82.9634C199.806 83.5421 199.91 85.011 200.028 86.2276C200.147 87.4591 200.31 90.1595 200.398 92.2367C200.487 94.3139 200.62 97.3555 200.709 98.9876C200.931 103.127 200.754 107.207 200.28 108.676C200.073 109.299 198.918 110.932 198.311 111.436C198.06 111.644 197.527 111.97 197.142 112.133C196.446 112.43 196.165 112.742 196.343 113.024C196.387 113.098 196.55 113.157 196.713 113.157C197.024 113.157 198.178 112.593 198.356 112.356C198.4 112.282 198.992 112.193 199.658 112.148C200.843 112.074 200.857 112.089 201.479 112.578C202.189 113.142 202.915 113.943 203.152 114.403C203.255 114.567 203.492 115.457 203.714 116.347C203.921 117.252 204.158 118.261 204.247 118.617C204.321 118.958 204.395 119.522 204.395 119.878C204.41 120.22 204.499 120.769 204.617 121.095C204.735 121.421 214.682 186.349 214.83 186.542C214.978 186.75 215.037 187.254 215.052 188.456C215.052 189.94 215.022 190.162 214.652 190.874C214.43 191.32 214.031 191.824 213.72 192.032C212.728 192.744 212.166 193.041 211.796 193.07C211.588 193.085 210.967 193.174 210.39 193.263C209.827 193.367 208.939 193.486 208.436 193.545C207.932 193.604 201.168 194.51 200.828 194.717C200.591 194.866 200.398 195.014 200.398 195.058C200.398 195.162 199.584 195.533 197.808 196.245C197.157 196.498 196.432 196.809 196.21 196.928C195.973 197.047 195.603 197.136 195.366 197.136C195.129 197.136 194.611 197.21 194.197 197.314C193.383 197.492 191.68 197.284 190.896 196.883C190.378 196.631 189.682 196.631 189.179 196.898C188.957 197.002 188.439 197.136 188.01 197.195C187.595 197.254 187.003 197.388 186.722 197.507C186.441 197.625 185.745 197.774 185.182 197.818C184.605 197.878 184.058 197.967 183.954 198.041C183.806 198.13 183.702 199.065 183.584 201.691C183.48 203.634 183.332 205.489 183.243 205.815C183.155 206.142 183.081 206.721 183.081 207.091C183.081 207.462 183.036 207.818 182.977 207.863C182.918 207.922 182.696 208.694 182.489 209.569C182.267 210.459 182.015 211.32 181.911 211.483C181.823 211.661 181.749 211.914 181.749 212.062C181.749 212.492 180.18 215.578 179.558 216.365C178.862 217.255 176.938 218.872 175.65 219.659C175.147 219.97 174.126 220.475 173.386 220.786C172.66 221.098 171.994 221.409 171.905 221.469C171.831 221.528 171.624 221.617 171.461 221.662C171.299 221.706 170.795 221.884 170.351 222.062C169.907 222.225 169.108 222.507 168.575 222.671C168.042 222.849 167.391 223.071 167.125 223.19C166.858 223.309 166.488 223.398 166.31 223.398C166.133 223.398 165.689 223.487 165.319 223.605C162.625 224.466 156.66 225.297 150.961 225.623C149.614 225.712 148.149 225.831 147.705 225.905C147.261 225.979 145.529 226.157 143.857 226.291C142.184 226.409 140.156 226.617 139.342 226.736C138.528 226.855 137.196 226.988 136.382 227.033C135.568 227.077 134.443 227.181 133.865 227.255C132.4 227.463 130.032 227.7 127.871 227.864C126.85 227.938 125.162 228.101 124.096 228.234C121.699 228.516 117.865 228.843 112.699 229.169C111.56 229.243 110.361 229.377 110.035 229.466C109.709 229.555 108.762 229.629 107.918 229.629C107.075 229.629 105.95 229.718 105.402 229.837C104.292 230.074 99.2298 230.223 97.3056 230.059ZM104.262 228.502C105.328 228.383 106.749 228.22 107.445 228.131C108.14 228.042 109.532 227.908 110.553 227.834C111.574 227.775 113.632 227.611 115.142 227.493C116.651 227.374 118.842 227.196 120.026 227.122C121.21 227.033 122.601 226.899 123.134 226.825C123.667 226.736 125.029 226.602 126.169 226.513C128.448 226.35 130.52 226.142 132.489 225.905C133.199 225.816 134.398 225.697 135.153 225.623C135.908 225.564 137.803 225.371 139.342 225.208C140.896 225.044 143.753 224.763 145.707 224.599C147.661 224.421 150.132 224.184 151.183 224.065C152.249 223.932 153.478 223.843 153.922 223.843C154.366 223.843 154.972 223.768 155.254 223.694C155.535 223.605 156.467 223.472 157.326 223.398C158.851 223.249 160.049 223.071 162.432 222.581C163.084 222.463 164.09 222.255 164.653 222.151C165.23 222.033 165.896 221.869 166.133 221.78C166.385 221.706 167.051 221.484 167.613 221.32C168.649 220.994 170.159 220.445 171.062 220.059C171.328 219.94 171.772 219.748 172.053 219.629C174.185 218.709 174.333 218.62 176.109 217.285C177.856 215.979 178.64 215.044 179.513 213.234C180.416 211.394 181.29 208.694 181.304 207.744C181.304 207.507 181.408 206.988 181.512 206.617C181.926 205.281 182.089 201.913 182.104 195.133C182.119 187.566 181.941 183.797 181.556 183.367C181.408 183.218 181.304 182.996 181.304 182.862C181.304 182.744 181.008 181.957 180.638 181.112C180.268 180.266 179.972 179.479 179.972 179.346C179.972 179.212 179.869 178.975 179.75 178.827C179.632 178.663 179.528 178.411 179.528 178.278C179.528 178.129 179.439 177.832 179.321 177.595C179.203 177.373 178.995 176.883 178.847 176.512C178.714 176.141 178.507 175.637 178.403 175.37C178.285 175.117 178.196 174.835 178.196 174.761C178.196 174.672 178.107 174.42 177.989 174.183C177.871 173.96 177.648 173.366 177.515 172.877C177.367 172.387 177.16 171.853 177.056 171.69C176.968 171.527 176.834 171.126 176.775 170.8C176.731 170.473 176.583 170.013 176.464 169.776C176.346 169.553 176.02 168.544 175.724 167.55C175.443 166.571 175.103 165.429 174.984 165.013C174.866 164.613 174.703 163.989 174.629 163.648C174.57 163.307 174.451 162.906 174.377 162.758C174.17 162.357 173.83 161.081 173.312 158.782C173.06 157.639 172.779 156.511 172.69 156.259C172.601 156.022 172.498 155.517 172.453 155.146C172.424 154.775 172.29 154.345 172.187 154.182C172.068 154.019 171.979 153.633 171.979 153.321C171.979 153.01 171.905 152.609 171.802 152.431C171.698 152.253 171.565 151.734 171.506 151.289C171.432 150.844 171.313 150.057 171.239 149.553C171.151 149.033 171.032 148.203 170.943 147.698C170.662 145.873 170.47 144.835 170.337 144.375C170.263 144.122 170.203 143.514 170.203 143.01C170.203 142.52 170.129 141.926 170.026 141.689C169.863 141.288 169.789 140.636 169.478 137.015C169.404 136.155 169.3 135.354 169.241 135.265C169.138 135.087 169.093 134.508 168.96 131.362C168.93 130.65 168.871 130.012 168.812 129.968C168.753 129.908 168.101 129.879 167.347 129.908C166.37 129.938 165.822 129.879 165.437 129.715C165.126 129.582 164.49 129.478 164.016 129.478C163.528 129.478 162.936 129.404 162.699 129.315C162.447 129.241 161.426 129.063 160.419 128.944C157.74 128.632 157.43 128.573 157.104 128.35C156.941 128.232 156.541 128.143 156.216 128.143C155.89 128.128 155.461 128.039 155.254 127.92C155.047 127.801 154.588 127.712 154.218 127.698C153.833 127.698 153.463 127.623 153.359 127.52C153.27 127.431 152.871 127.297 152.486 127.238C152.086 127.178 151.583 127.074 151.331 126.985C151.094 126.896 150.562 126.763 150.147 126.674C149.378 126.496 146.225 125.546 145.707 125.324C145.544 125.249 145.248 125.146 145.041 125.101C144.833 125.057 144.434 124.923 144.153 124.804C143.871 124.7 143.102 124.433 142.45 124.226C140.659 123.647 139.15 123.113 138.854 122.965C138.72 122.89 138.099 122.623 137.492 122.386C135.005 121.392 134.754 121.288 134.606 121.154C134.532 121.08 134.384 121.021 134.28 121.021C133.836 121.021 123.889 116.08 122.809 115.323C122.394 115.027 121.817 115.027 121.417 115.294C121.255 115.412 120.855 115.546 120.529 115.605C120.218 115.65 119.715 115.783 119.434 115.887C118.723 116.154 114.697 117.386 113.513 117.682C112.98 117.816 112.329 118.024 112.063 118.142C111.796 118.261 111.426 118.35 111.249 118.35C111.071 118.365 110.76 118.454 110.553 118.573C110.346 118.691 110.02 118.795 109.813 118.795C109.606 118.795 109.31 118.899 109.162 119.018C108.999 119.137 108.732 119.24 108.555 119.24C108.377 119.24 108.185 119.3 108.111 119.359C108.022 119.433 107.534 119.611 107.001 119.745C105.461 120.175 104.144 120.62 103.818 120.828C103.656 120.932 103.419 121.021 103.271 121.021C103.019 121.021 102.264 121.318 101.494 121.703C101.287 121.822 101.036 121.911 100.947 121.911C100.858 121.911 100.162 122.208 99.4075 122.579C98.6378 122.95 97.9421 123.246 97.8385 123.246C97.7349 123.246 97.4685 123.335 97.2612 123.454C97.0392 123.573 96.4619 123.855 95.9735 124.077C95.485 124.3 93.8717 125.071 92.3915 125.784C90.9262 126.511 89.4904 127.149 89.2092 127.208C88.9428 127.252 88.5875 127.386 88.4247 127.49C88.0251 127.742 86.3673 128.143 85.7456 128.143C85.1832 128.143 84.5023 128.514 84.5023 128.81C84.5023 128.914 84.7983 129.404 85.1684 129.908C85.5384 130.413 85.8344 130.888 85.8344 130.977C85.8344 131.08 85.9528 131.362 86.1009 131.615C86.5893 132.416 86.7521 133.573 86.6781 135.635C86.6189 137.713 86.4709 138.588 86.0861 139.137C85.938 139.33 85.8344 139.627 85.8344 139.805C85.8344 140.161 85.1832 141.719 84.9759 141.852C84.9167 141.897 84.6651 142.401 84.4283 142.98L84.0138 144.033L84.2507 146.066C84.5171 148.247 84.7391 150.206 84.9463 152.105C85.0055 152.758 85.2276 153.989 85.4348 154.85C85.642 155.71 85.8492 156.704 85.9084 157.075C85.9676 157.431 86.0713 157.832 86.1305 157.965C86.2933 158.307 86.5745 159.152 86.7965 159.968C87.285 161.793 87.5514 162.654 87.655 162.832C87.7438 162.966 87.9214 162.921 88.3951 162.654C89.15 162.209 91.7699 161.526 92.7023 161.526C93.0576 161.526 93.546 161.452 93.7681 161.378C93.9753 161.289 94.9966 161.155 96.0327 161.081C97.054 160.992 98.3269 160.874 98.8598 160.785C99.3927 160.71 100.754 160.547 101.894 160.414C105.387 160.013 107.608 159.746 108.999 159.523C109.739 159.405 110.997 159.212 111.811 159.078C112.625 158.945 113.632 158.782 114.031 158.693C114.446 158.618 115.142 158.485 115.586 158.411C116.03 158.336 117.14 158.144 118.028 157.965C118.931 157.802 119.996 157.595 120.426 157.52C120.855 157.446 121.329 157.313 121.491 157.238C121.654 157.149 121.995 157.075 122.261 157.075C122.527 157.075 123.075 156.986 123.49 156.868C124.215 156.66 125.369 156.408 126.317 156.244C126.568 156.2 126.894 156.111 127.057 156.022C127.353 155.888 127.841 155.77 129.617 155.369C130.121 155.25 130.609 155.117 130.683 155.072C130.772 155.013 131.556 154.79 132.43 154.553C134.665 153.959 137.521 153.129 138.824 152.683C139.431 152.476 140.171 152.253 140.452 152.194C140.733 152.134 141.37 151.942 141.858 151.778C142.806 151.452 145.766 150.532 147.113 150.146C147.557 150.013 148.134 149.82 148.371 149.731C149.052 149.434 150.192 149.108 151.405 148.841C152.012 148.707 152.678 148.529 152.885 148.44C153.093 148.351 153.522 148.232 153.848 148.173C154.173 148.114 154.736 147.995 155.106 147.906C155.476 147.817 156.305 147.639 156.956 147.505C157.607 147.372 158.451 147.179 158.821 147.075C159.206 146.956 160.197 146.867 161.041 146.852C161.885 146.838 163.128 146.793 163.779 146.749C164.742 146.674 165.097 146.704 165.467 146.897C165.733 147.03 166.177 147.134 166.459 147.134C167.169 147.134 167.613 147.387 167.391 147.654C167.258 147.817 166.695 147.847 164.46 147.772C161.826 147.698 161.441 147.728 159.62 148.143C159.073 148.277 158.688 148.366 156.926 148.781C156.527 148.87 155.89 149.019 155.476 149.093C155.076 149.167 154.676 149.301 154.602 149.375C154.514 149.449 154.321 149.508 154.144 149.508C153.981 149.508 153.433 149.657 152.959 149.82C152.471 149.998 151.035 150.458 149.777 150.844C147.661 151.496 146.343 151.942 145.041 152.416C144.759 152.52 143.22 153.01 141.636 153.514C140.053 154.004 138.558 154.479 138.306 154.568C138.069 154.657 137.403 154.865 136.826 155.028C136.263 155.191 135.153 155.517 134.384 155.755C133.051 156.17 132.681 156.274 130.683 156.838C129.469 157.179 126.628 157.891 125.281 158.188C124.629 158.336 123.845 158.544 123.534 158.648C123.238 158.767 122.764 158.856 122.513 158.856C122.261 158.856 121.713 158.945 121.299 159.063C120.337 159.331 119.034 159.583 117.806 159.746C117.273 159.805 116.74 159.894 116.622 159.954C116.326 160.072 113.706 160.488 112.329 160.636C111.722 160.696 111.027 160.829 110.805 160.918C110.568 161.007 110.065 161.081 109.665 161.081C109.265 161.081 108.762 161.155 108.54 161.23C108.318 161.319 107.534 161.423 106.793 161.467C106.053 161.512 104.988 161.645 104.44 161.764C103.878 161.882 102.975 161.972 102.397 161.972C101.835 161.972 101.095 162.031 100.754 162.12C100.192 162.239 96.3139 162.624 93.7533 162.802C93.2648 162.847 92.732 162.936 92.5691 163.01C92.4063 163.084 91.607 163.218 90.7929 163.292C88.8391 163.485 88.2767 163.722 87.5218 164.731C87.0482 165.354 86.8705 165.74 86.7521 166.452C86.6633 166.972 86.5597 169.998 86.5153 173.174C86.3821 182.195 86.1453 191.379 85.9824 193.501C85.7456 196.676 85.8048 208.813 86.0564 210.489C86.1749 211.261 86.2785 212.403 86.2785 213.011C86.2785 213.62 86.3525 214.421 86.4413 214.792C86.5301 215.163 86.6485 215.934 86.7225 216.498C87.0037 218.768 87.2998 219.777 88.2471 221.765C88.9427 223.234 89.7716 224.406 91.0002 225.623C92.1399 226.751 93.5312 227.596 94.5969 227.804C94.8634 227.849 95.263 227.982 95.485 228.086C96.0327 228.368 97.3056 227.849 97.9717 227.849C98.475 227.849 99.289 227.76 99.7923 227.641C100.296 227.522 101.317 227.359 102.042 227.27C102.782 227.181 104.07 227.003 104.928 226.884C107.77 226.469 108.954 226.365 116.326 225.92C120.781 225.638 122.291 225.519 123.208 225.341C124.111 225.178 125.547 225.044 129.943 224.674C131.29 224.555 132.548 224.421 132.755 224.377C132.963 224.332 133.791 224.214 134.606 224.125C135.42 224.05 136.885 223.872 137.862 223.754C138.839 223.635 140.334 223.472 141.192 223.398C142.051 223.309 142.983 223.19 143.279 223.101C143.575 223.027 144.108 222.952 144.463 222.952C144.819 222.952 145.884 222.863 146.817 222.745C147.749 222.626 149.185 222.448 149.999 222.359C155.846 221.676 157.43 221.424 159.99 220.742C161.84 220.237 162.551 220.029 163.247 219.777C163.617 219.629 164.135 219.451 164.401 219.377C164.89 219.228 166.621 218.472 167.139 218.19C167.287 218.115 167.761 217.848 168.205 217.611C168.96 217.196 170.485 216.187 170.647 215.994C170.692 215.934 171.151 215.534 171.669 215.089C172.202 214.644 172.853 214.02 173.134 213.724C173.667 213.13 174.007 213.011 174.141 213.368C174.259 213.694 174.007 214.065 172.897 215.148C171.609 216.394 169.478 218.012 168.412 218.531C165.926 219.748 164.357 220.4 162.877 220.816C161.263 221.276 158.066 222.047 156.808 222.285C155.298 222.567 150.917 223.086 147.409 223.398C146.476 223.472 145.248 223.605 144.671 223.694C144.108 223.768 142.672 223.947 141.488 224.065C137.773 224.466 135.538 224.733 133.999 224.955C133.17 225.074 132.163 225.178 131.778 225.178C131.379 225.178 130.387 225.282 129.573 225.401C128.759 225.519 127.516 225.623 126.805 225.623C126.095 225.623 124.985 225.712 124.363 225.831C123.06 226.068 120.411 226.335 117.658 226.513C111.323 226.914 105.669 227.404 104.677 227.641C104.174 227.745 103.389 227.849 102.93 227.849C102.471 227.849 101.657 227.938 101.11 228.056C100.562 228.175 99.4667 228.323 98.6674 228.368C97.8681 228.427 97.2464 228.502 97.2908 228.546C97.4389 228.709 99.5999 228.843 100.932 228.783C101.702 228.754 103.211 228.62 104.262 228.502ZM84.4283 200.593C84.3543 200.192 84.3099 199.421 84.3247 198.842C84.3839 195.741 84.6799 186.512 84.7983 183.485C84.8871 181.571 84.9463 177.194 84.9463 173.767C84.9463 168.53 84.9907 167.357 85.198 166.348C85.3312 165.696 85.5236 165.058 85.642 164.924C85.7456 164.805 85.8344 164.598 85.8344 164.494C85.8344 164.39 85.9528 164.167 86.0861 164.019C86.3969 163.678 86.4117 162.832 86.1305 162.491C86.012 162.342 85.8344 161.986 85.716 161.69C85.1387 160.072 84.6355 158.381 84.5023 157.535C84.4135 157.016 84.2803 156.467 84.2063 156.319C84.1174 156.17 84.0582 155.814 84.0582 155.517C84.0582 155.235 83.9546 154.746 83.8362 154.449C83.7178 154.167 83.6142 153.633 83.6142 153.277C83.6142 152.936 83.5254 152.223 83.407 151.704C83.1998 150.799 82.9777 148.781 82.9629 147.728C82.9481 147.342 82.8741 147.194 82.6669 147.164C82.5041 147.134 82.3117 147.194 82.2228 147.312C81.6752 148.01 78.5521 149.508 77.6344 149.508C77.3679 149.508 77.0719 149.597 76.9831 149.701C76.8499 149.82 76.0802 149.909 74.6889 149.953C72.6907 150.028 72.587 150.042 72.6314 150.324C72.661 150.488 72.8091 152.728 72.9571 155.295C73.1051 157.862 73.2679 160.072 73.3123 160.191C73.4011 160.414 73.6083 162.194 73.8156 164.642C73.8748 165.34 73.9784 165.992 74.0376 166.081C74.0968 166.185 74.2152 166.749 74.2892 167.343C74.4224 168.396 74.8517 171.067 75.1773 172.862C75.2661 173.352 75.3845 173.812 75.4289 173.901C75.4881 173.99 75.5918 174.361 75.651 174.732C75.7102 175.102 75.8138 175.696 75.9026 176.067C75.9766 176.438 76.1098 177.076 76.1986 177.476C76.4798 178.827 76.9831 180.741 77.1755 181.186C77.2939 181.438 77.4123 181.868 77.4567 182.15C77.5308 182.729 78.3152 185.696 78.4484 185.934C78.4929 186.023 78.6853 186.586 78.8629 187.195C79.0553 187.803 79.5438 189.272 79.9434 190.459C80.3578 191.646 80.9499 193.382 81.2756 194.317C81.5864 195.251 81.9564 196.231 82.0748 196.498C82.1784 196.75 82.2821 197.017 82.2821 197.091C82.2821 197.165 82.5485 197.833 82.8593 198.575C83.185 199.317 83.4958 200.177 83.555 200.504C83.6586 201.112 83.8214 201.29 84.2655 201.29C84.5171 201.29 84.5319 201.216 84.4283 200.593ZM185.227 196.142C185.641 196.023 186.396 195.86 186.929 195.771C188.468 195.518 188.616 195.251 187.595 194.495C186.441 193.649 185.36 191.928 184.635 189.791C183.998 187.892 183.658 187.402 183.48 188.07C183.436 188.233 183.51 189.45 183.628 190.785C183.747 192.121 183.821 193.916 183.776 194.791C183.702 196.409 183.762 196.616 184.265 196.438C184.383 196.394 184.827 196.26 185.227 196.142ZM194.833 195.489C195.336 195.385 195.943 195.222 196.21 195.118C196.461 194.999 196.772 194.91 196.891 194.91C197.379 194.91 200.295 193.352 201.361 192.521C202.663 191.512 203.374 190.8 204.114 189.762C205.268 188.144 205.327 187.951 205.239 186.156C205.179 185.296 205.046 184.242 204.928 183.797C204.809 183.352 191.37 123.825 191.207 123.335C191.059 122.861 190.97 122.416 190.999 122.356C191.044 122.297 190.97 121.956 190.866 121.599C190.585 120.709 190.2 118.973 190.097 118.098C189.978 117.252 189.801 116.866 189.519 116.866C189.386 116.866 189.283 117.104 189.223 117.579C189.105 118.588 188.883 119.211 188.32 120.116C187.684 121.154 185.567 123.306 184.457 124.062C183.984 124.389 183.554 124.715 183.51 124.775C183.421 124.893 183.066 125.116 182.415 125.472C182.252 125.561 181.926 125.754 181.674 125.917C181.23 126.199 179.469 127.074 178.492 127.505C178.211 127.638 177.782 127.831 177.56 127.935C177.323 128.054 177.027 128.143 176.879 128.143C176.746 128.143 176.568 128.202 176.479 128.291C176.287 128.484 174.318 129.048 173.534 129.137C173.208 129.166 172.808 129.255 172.646 129.33C172.483 129.404 171.95 129.493 171.461 129.508L170.573 129.552L170.603 130.146C170.633 130.472 170.647 131.318 170.647 132.015C170.647 132.727 170.721 133.499 170.825 133.721C170.914 133.959 171.047 134.923 171.121 135.858C171.225 137.52 171.373 139.048 171.683 141.941C171.772 142.713 171.876 143.811 171.92 144.389C171.965 144.953 172.098 145.547 172.216 145.71C172.335 145.888 172.424 146.378 172.424 146.838C172.438 147.327 172.527 147.772 172.66 147.95C172.794 148.128 172.838 148.395 172.794 148.633C172.749 148.841 172.808 149.286 172.927 149.597C173.045 149.909 173.178 150.473 173.238 150.844C173.297 151.215 173.386 151.808 173.46 152.179C173.534 152.55 173.652 153.218 173.741 153.692C173.815 154.152 173.948 154.746 174.022 155.028C174.348 156.066 174.644 157.387 174.644 157.787C174.644 158.01 174.733 158.336 174.851 158.485C174.969 158.648 175.206 159.42 175.384 160.191C175.561 160.963 175.783 161.942 175.872 162.342C175.976 162.758 176.109 163.173 176.183 163.292C176.257 163.411 176.376 163.752 176.435 164.034C176.538 164.538 176.612 164.776 177.027 166.022C177.116 166.274 177.234 166.705 177.278 166.942C177.308 167.194 177.441 167.521 177.545 167.684C177.663 167.847 177.752 168.159 177.752 168.396C177.752 168.633 177.841 169.034 177.959 169.286C178.181 169.776 178.847 171.645 179.084 172.432C179.143 172.684 179.351 173.248 179.528 173.693C179.706 174.138 179.913 174.746 180.002 175.028C180.076 175.31 180.209 175.607 180.283 175.696C180.357 175.77 180.416 175.948 180.416 176.082C180.416 176.215 180.624 176.735 180.86 177.224C181.112 177.729 181.304 178.233 181.304 178.352C181.304 178.47 181.408 178.827 181.541 179.138C182.104 180.459 182.237 180.755 182.355 181.008C182.429 181.141 182.637 181.646 182.799 182.12C182.962 182.58 183.184 183.129 183.288 183.337C183.391 183.545 183.599 184.079 183.747 184.524C183.895 184.969 184.072 185.429 184.161 185.533C184.25 185.652 184.442 186.082 184.59 186.483C184.738 186.898 184.946 187.343 185.049 187.477C185.153 187.61 185.36 188.011 185.508 188.382C185.834 189.198 186.174 189.999 186.367 190.355C186.441 190.503 186.707 191.038 186.959 191.542C187.773 193.144 190.215 195.34 191.251 195.37C191.429 195.37 191.725 195.429 191.888 195.504C192.317 195.682 193.797 195.682 194.833 195.489ZM204.291 192.759C204.943 192.64 205.535 192.492 205.623 192.432C205.727 192.373 206.23 192.269 206.763 192.21C209.235 191.943 212.521 191.275 212.817 190.978C213.143 190.652 212.861 190.459 212.033 190.459C210.952 190.459 209.768 190.222 209.087 189.851C208.258 189.42 207.148 188.322 206.837 187.625C206.689 187.299 206.497 187.061 206.423 187.091C206.334 187.121 206.141 187.684 205.964 188.337C205.786 189.005 205.505 189.702 205.342 189.895C205.165 190.088 204.854 190.533 204.647 190.904C204.41 191.305 203.98 191.75 203.581 192.002C203.211 192.239 202.915 192.447 202.915 192.477C202.915 192.536 203.092 192.981 203.122 192.981C203.122 192.981 203.655 192.877 204.291 192.759ZM212.832 189.776C213.557 189.628 213.809 188.931 213.483 187.981C213.261 187.328 203.359 123.692 203.092 121.54C203.033 121.051 202.9 120.502 202.796 120.323C202.693 120.145 202.619 119.641 202.619 119.211C202.604 118.78 202.515 118.261 202.397 118.053C202.278 117.846 202.175 117.445 202.175 117.163C202.16 116.05 201.257 114.136 200.65 113.914C200.25 113.765 199.555 113.884 198.193 114.359C197.364 114.641 197.157 114.656 196.52 114.507C196.121 114.418 195.588 114.344 195.351 114.344C195.114 114.344 194.715 114.196 194.463 114.018C193.975 113.647 192.983 113.602 191.222 113.84C190.304 113.973 190.259 114.003 190.215 114.403C190.185 114.671 190.274 114.938 190.467 115.145C190.629 115.323 190.866 115.858 190.985 116.347C191.118 116.837 191.31 117.638 191.444 118.128C191.858 119.775 191.962 120.279 191.962 120.591C191.962 120.769 192.05 121.11 192.169 121.362C192.391 121.852 206.127 183.293 206.245 183.634C206.363 183.975 206.467 184.494 206.467 184.776C206.467 185.251 207.044 186.705 207.414 187.165C208.317 188.263 210.345 189.554 211.218 189.584C211.411 189.584 211.707 189.643 211.87 189.717C212.255 189.88 212.269 189.88 212.832 189.776ZM75.5473 148.321C78.3152 147.832 79.3069 147.461 80.9943 146.318C82.4153 145.354 82.3857 145.413 82.5781 143.707C82.6817 142.802 82.8593 142.283 83.4662 141.066C83.8806 140.235 84.3247 139.271 84.4431 138.929C84.6799 138.277 85.2424 136.199 85.2424 135.977C85.2424 135.665 84.6207 135.265 84.147 135.265C83.8658 135.265 83.5994 135.205 83.555 135.131C83.4958 135.057 83.1109 134.953 82.6817 134.894C82.2673 134.834 81.8676 134.716 81.8232 134.627C81.764 134.552 81.4236 134.434 81.0831 134.359C80.1802 134.196 79.1885 133.929 78.6261 133.692C78.3744 133.573 78.034 133.484 77.8564 133.484C77.6936 133.484 77.4123 133.425 77.2199 133.351C77.0275 133.276 75.9766 132.965 74.8813 132.668C73.786 132.371 49.171 124.775 48.7565 124.656C47.9424 124.448 47.232 124.211 46.4919 123.899C46.2255 123.781 43.7684 123.083 43.3244 122.89C42.8803 122.697 23.8751 116.11 22.1877 115.739C20.8852 115.457 17.6585 115.472 17.1552 115.754C16.948 115.872 16.6223 115.961 16.4151 115.976C16.2079 115.976 15.9119 116.065 15.7491 116.184C15.5862 116.288 15.1866 116.466 14.861 116.555C14.2689 116.733 13.9137 116.881 13.0848 117.237C12.8479 117.356 12.2115 117.579 11.6786 117.757C11.1458 117.935 10.5833 118.142 10.4205 118.202C10.1097 118.32 7.41578 119.151 6.83852 119.315C6.6609 119.359 5.95042 119.686 5.28435 120.027L4.05583 120.665L4.08543 121.273C4.10023 121.614 4.21864 122.178 4.33705 122.534C4.45547 122.875 4.66269 123.454 4.7959 123.81C5.13634 124.745 5.63959 125.472 6.57209 126.377C7.75621 127.505 8.5851 128.024 10.1245 128.588C12.2411 129.345 12.6111 129.493 13.0552 129.715C13.292 129.834 15.7639 130.68 15.9711 130.739C16.1783 130.799 16.6816 131.006 17.0812 131.184C17.4956 131.377 18.1913 131.674 18.6354 131.867C19.0794 132.045 20.2191 132.549 21.1516 133.009C24.0231 134.374 24.8816 134.76 26.2582 135.339C27.4423 135.828 28.0343 136.081 29.6625 136.822C29.9141 136.941 30.5802 137.193 31.1427 137.386C32.1492 137.742 33.2593 138.217 34.0586 138.618C34.2658 138.736 34.5766 138.825 34.7395 138.825C34.9023 138.825 35.1095 138.915 35.1983 139.033C35.2871 139.152 35.5535 139.271 35.7756 139.315C35.9976 139.36 36.4416 139.493 36.7673 139.612C38.2918 140.205 40.364 140.932 40.7637 141.036C41.0153 141.096 41.3409 141.214 41.5038 141.303C41.859 141.481 42.6583 141.763 43.2799 141.941C44.8341 142.357 45.6038 142.594 46.8323 143.01C47.0839 143.099 47.5132 143.202 47.7944 143.247C48.0757 143.277 48.4457 143.41 48.6085 143.514C48.7713 143.633 49.097 143.722 49.3486 143.722C49.5854 143.737 49.9555 143.826 50.1627 143.944C50.3699 144.063 50.7251 144.152 50.9472 144.167C51.184 144.167 51.4948 144.241 51.6576 144.33C51.8204 144.419 52.2645 144.538 52.6493 144.612C53.0342 144.686 53.8335 144.835 54.4255 144.953C55.0176 145.072 57.1342 145.576 57.2378 145.68C57.3266 145.769 57.8003 145.903 58.2591 145.977C58.7328 146.036 59.4136 146.155 59.7837 146.244C60.6422 146.437 62.0187 146.689 63.0104 146.823C63.4249 146.882 63.8541 147.001 63.9577 147.105C64.0613 147.209 64.4906 147.283 64.9346 147.283C65.3639 147.283 65.8671 147.372 66.0447 147.461C66.2224 147.565 66.844 147.698 67.4065 147.757C67.9837 147.817 69.0051 147.936 69.7007 148.025C72.9719 148.455 74.3632 148.529 75.5473 148.321ZM85.1832 134.33C85.272 134.063 84.6355 132.356 84.1618 131.585C83.777 130.991 82.6077 129.923 82.3117 129.923C82.2228 129.923 81.7196 129.73 81.2015 129.478C80.6687 129.241 80.0766 129.033 79.8694 129.033C79.677 129.033 79.4253 128.929 79.3217 128.81C79.2033 128.677 78.8777 128.588 78.4484 128.588C78.0636 128.588 77.6196 128.484 77.4567 128.365C77.2939 128.247 76.8351 128.158 76.3466 128.143C75.8582 128.143 70.1596 126.837 69.6563 126.674C68.6942 126.392 67.7617 126.14 66.8884 125.917C66.3112 125.784 65.5711 125.531 64.8458 125.235C64.5794 125.116 62.2703 124.404 61.4119 124.137C60.5534 123.87 59.6949 123.603 59.4877 123.513C59.2804 123.439 58.6588 123.217 58.0815 123.024C55.5356 122.163 54.3663 121.748 54.1295 121.614C53.9815 121.525 53.7002 121.466 53.4782 121.466C53.271 121.466 52.9158 121.377 52.7085 121.258C52.0277 120.917 50.8139 120.531 49.1266 120.131C48.6233 120.012 48.2533 119.893 47.2024 119.537C46.9211 119.433 46.4771 119.315 46.2107 119.285C45.9442 119.24 45.6482 119.122 45.5594 119.003C45.4706 118.884 45.1894 118.795 44.9525 118.795C44.7009 118.795 44.3309 118.706 44.1236 118.588C43.9016 118.484 43.0283 118.172 42.1698 117.905C40.6749 117.445 38.6767 116.763 37.5813 116.332C37.3001 116.228 36.6933 116.021 36.2492 115.902C35.8052 115.768 35.1983 115.561 34.9171 115.457C32.9929 114.745 31.8235 114.344 31.6903 114.344C31.6015 114.344 31.2315 114.211 30.891 114.062C29.9585 113.662 27.8715 113.009 27.4719 113.009C27.2795 113.009 26.9982 112.905 26.8354 112.786C26.6874 112.668 26.3618 112.564 26.1397 112.564C25.9177 112.564 25.4885 112.46 25.1924 112.341C24.9112 112.222 24.4524 112.119 24.2007 112.119C23.9343 112.119 23.5939 112.015 23.4311 111.896C23.283 111.777 22.8538 111.673 22.4838 111.673C22.0989 111.673 21.7289 111.599 21.6401 111.51C21.5365 111.406 20.6188 111.377 18.9906 111.406C16.4299 111.451 16.0747 111.525 14.787 112.282C14.6685 112.356 14.4317 112.475 14.2689 112.549C14.1061 112.623 13.736 112.846 13.4548 113.038C12.4335 113.721 11.353 114.181 9.31038 114.789C6.74971 115.561 6.52769 115.665 5.62479 116.54C5.01793 117.133 4.69229 117.564 4.58868 117.979C4.49987 118.306 4.32225 118.691 4.21864 118.84C4.10023 118.988 4.04102 119.24 4.08543 119.389C4.17424 119.7 4.49987 119.789 4.64789 119.537C4.84031 119.226 6.49808 118.38 7.10495 118.276C7.46018 118.217 7.88943 118.068 8.05225 117.964C8.21506 117.846 8.45189 117.757 8.5999 117.757C8.73312 117.757 9.07355 117.668 9.33998 117.549C9.60641 117.43 10.0653 117.237 10.3761 117.104C10.6721 116.97 11.0126 116.866 11.1458 116.866C11.2642 116.866 11.5158 116.807 11.7082 116.733C11.9007 116.659 12.4187 116.451 12.8628 116.273C13.9877 115.843 14.1801 115.754 14.861 115.457C16.8296 114.596 17.466 114.448 19.5679 114.389C20.9888 114.344 21.6845 114.389 21.8325 114.507C21.9361 114.596 22.4246 114.73 22.8834 114.789C24.7336 115.056 43.428 121.54 44.3161 121.837C45.9442 122.386 46.4623 122.564 47.5724 122.994C47.898 123.113 48.6677 123.365 49.2746 123.558C49.8814 123.736 50.7547 124.018 51.1988 124.181C51.6428 124.33 52.1757 124.493 52.3829 124.537C52.5901 124.582 52.9602 124.7 53.2266 124.819C53.4782 124.938 53.8483 125.027 54.0407 125.027C54.2183 125.027 62.0927 127.549 63.4101 128.009C64.7274 128.469 73.3123 130.932 74.5852 131.244C74.8665 131.318 75.4733 131.526 75.9174 131.689C76.3614 131.867 76.9979 132.075 77.3235 132.149C78.2856 132.371 79.2181 132.624 79.7658 132.816C80.047 132.92 80.6539 133.113 81.0979 133.232C82.5781 133.677 84.2211 134.211 84.4727 134.359C84.8279 134.567 85.0944 134.552 85.1832 134.33ZM83.0961 128.514C83.0961 128.172 83.0221 128.054 82.7853 128.024C82.3117 127.95 82.0896 128.321 82.3709 128.721C82.6965 129.181 83.0961 129.063 83.0961 128.514ZM171.787 127.92C172.068 127.801 172.557 127.698 172.853 127.698C173.149 127.698 173.474 127.623 173.563 127.534C173.652 127.445 173.992 127.312 174.303 127.252C175.813 126.926 177.456 126.347 178.67 125.68C178.877 125.561 179.129 125.472 179.217 125.472C179.425 125.472 182.267 123.736 182.489 123.469C182.592 123.35 182.77 123.246 182.873 123.246C183.081 123.246 184.901 121.763 185.671 120.961C186.293 120.323 187.077 119.3 187.077 119.137C187.077 119.048 187.269 118.721 187.506 118.395C188.158 117.504 188.187 117.252 187.728 116.881C187.506 116.703 187.255 116.57 187.166 116.57C187.077 116.57 186.677 116.406 186.263 116.214C185.863 116.006 185.227 115.768 184.857 115.679C184.487 115.576 184.058 115.442 183.895 115.383C183.125 115.086 181.171 114.463 180.712 114.359C180.239 114.255 179.454 113.944 178.759 113.587C178.611 113.513 178.359 113.454 178.211 113.454C178.048 113.454 177.87 113.395 177.826 113.306C177.782 113.231 177.634 113.157 177.5 113.157C177.382 113.157 177.071 113.068 176.82 112.949C176.553 112.831 175.547 112.46 174.57 112.119C172.557 111.421 172.424 111.362 171.639 111.021C171.328 110.887 170.973 110.783 170.855 110.783C170.736 110.783 170.233 110.59 169.73 110.338C169.241 110.101 168.768 109.893 168.679 109.893C168.605 109.893 168.161 109.715 167.702 109.507C167.258 109.285 166.71 109.062 166.503 108.988C164.86 108.454 163.617 107.964 163.572 107.831C163.543 107.742 163.365 107.667 163.173 107.667C162.98 107.667 162.788 107.608 162.743 107.534C162.699 107.474 162.151 107.222 161.515 107C160.878 106.777 159.99 106.436 159.546 106.228C159.102 106.035 158.54 105.783 158.288 105.679C158.051 105.575 157.415 105.279 156.882 105.026C156.349 104.774 154.617 104.032 153.033 103.35C150.266 102.192 149.229 101.718 146.284 100.308C145.559 99.952 144.863 99.6553 144.774 99.6553C144.671 99.6553 144.345 99.4921 144.034 99.2992C143.738 99.1211 142.954 98.7205 142.302 98.4238C141.651 98.127 140.215 97.4297 139.12 96.851C138.025 96.2724 136.885 95.7086 136.589 95.575C136.308 95.4415 135.701 95.1448 135.257 94.9074C134.813 94.67 133.525 93.9875 132.385 93.4088C131.246 92.8302 130.209 92.3109 130.091 92.2367C129.973 92.1625 129.765 92.0735 129.647 92.029C129.529 91.9844 129.307 91.8806 129.173 91.7916C128.581 91.4503 128.344 91.3316 127.205 90.7381C125.606 89.8924 124.585 89.4028 123.356 88.839C122.794 88.5719 122.157 88.2751 121.95 88.1713C121.743 88.0674 121.314 87.8894 120.988 87.8004C120.662 87.6965 120.263 87.563 120.1 87.5036C119.937 87.4294 119.404 87.2514 118.916 87.103C117.288 86.5837 112.862 86.8211 111.589 87.4888C111.456 87.5481 111.012 87.652 110.583 87.7113C110.153 87.7707 109.783 87.8745 109.724 87.9487C109.68 88.0229 109.443 88.0823 109.206 88.0823C108.954 88.0823 108.614 88.1564 108.436 88.2603C108.259 88.3493 107.844 88.4829 107.519 88.5422C107.193 88.6016 106.734 88.7203 106.483 88.7944C105.994 88.9725 104.011 89.3879 103.078 89.5066C102.753 89.5511 102.279 89.6847 102.013 89.8034C101.761 89.9221 101.332 90.0111 101.05 90.0111C100.784 90.0111 99.9995 90.2188 99.3038 90.471C98.6082 90.7233 97.8237 91.0052 97.5425 91.0942C96.98 91.2871 96.8172 91.6135 96.7876 92.6373C96.7136 94.8035 97.2908 96.1685 99.0818 98.127C99.9995 99.1211 101.953 100.768 102.56 101.035C102.679 101.094 102.96 101.258 103.167 101.406C103.389 101.54 104.011 101.925 104.573 102.237C105.136 102.563 105.831 103.008 106.113 103.231C106.394 103.454 106.927 103.78 107.297 103.973C107.667 104.151 109.102 105.071 110.494 105.991C111.9 106.911 113.084 107.667 113.143 107.667C113.202 107.667 113.513 107.86 113.854 108.098C115.571 109.285 117.51 110.501 118.028 110.724C118.353 110.857 118.96 111.228 119.39 111.54C119.819 111.851 120.233 112.119 120.322 112.119C120.411 112.119 120.751 112.297 121.107 112.519C122.009 113.113 122.024 113.113 124.644 114.478C129.529 116.985 132.297 118.35 132.504 118.35C132.622 118.35 132.8 118.454 132.903 118.573C133.007 118.691 133.199 118.795 133.347 118.795C133.495 118.795 133.688 118.899 133.791 119.018C133.895 119.137 134.088 119.24 134.236 119.24C134.384 119.24 134.576 119.344 134.68 119.463C134.783 119.582 134.99 119.685 135.138 119.685C135.286 119.685 135.656 119.789 135.967 119.923C136.278 120.056 136.737 120.264 136.974 120.368C137.225 120.472 137.655 120.665 137.966 120.783C138.262 120.917 138.602 121.021 138.72 121.021C138.839 121.021 139.016 121.125 139.12 121.243C139.224 121.362 139.446 121.466 139.623 121.466C139.801 121.466 140.008 121.525 140.097 121.599C140.171 121.674 140.571 121.837 140.97 121.956C141.385 122.074 142.273 122.401 142.968 122.653C143.664 122.905 144.493 123.187 144.819 123.246C145.144 123.321 145.633 123.499 145.914 123.632C146.195 123.781 146.669 123.944 146.95 124.003C148.46 124.344 151.953 125.368 152.53 125.65C152.708 125.724 153.078 125.813 153.344 125.843C153.996 125.902 155.209 126.14 156.438 126.436C156.971 126.57 157.77 126.718 158.214 126.793C158.658 126.852 159.176 126.971 159.354 127.074C159.531 127.178 159.99 127.252 160.39 127.252C160.775 127.252 161.219 127.356 161.382 127.475C161.544 127.594 162.018 127.683 162.595 127.683C163.113 127.683 163.617 127.727 163.72 127.787C163.972 127.95 166.251 128.098 168.916 128.113C170.692 128.143 171.373 128.083 171.787 127.92ZM85.3312 126.674C86.5745 126.407 87.9066 126.006 88.8983 125.606C89.1204 125.517 90.7189 124.745 92.4359 123.899C94.1677 123.054 95.6331 122.356 95.6923 122.356C95.7663 122.356 96.7284 121.956 97.8237 121.451C98.919 120.947 100.088 120.427 100.414 120.279C100.74 120.131 101.376 119.893 101.82 119.745C102.264 119.596 102.797 119.389 103.004 119.285C103.211 119.181 103.493 119.092 103.641 119.092C103.774 119.092 104.011 119.033 104.159 118.958C104.766 118.647 105.55 118.35 105.743 118.35C105.861 118.35 106.172 118.261 106.438 118.142C106.705 118.024 107.223 117.846 107.593 117.757C107.963 117.653 108.925 117.356 109.739 117.089C113.528 115.843 114.061 115.679 114.357 115.679C114.535 115.679 114.712 115.62 114.757 115.546C114.801 115.472 115.097 115.368 115.393 115.323C116.089 115.19 117.51 114.789 117.821 114.641C117.954 114.567 118.427 114.478 118.901 114.418C119.76 114.3 120.44 113.929 120.263 113.632C120.218 113.543 119.967 113.424 119.7 113.38C119.449 113.32 118.99 113.142 118.709 112.964C118.413 112.801 117.747 112.445 117.214 112.148C116.681 111.866 116.148 111.54 116.015 111.436C115.896 111.317 115.719 111.228 115.645 111.228C115.571 111.228 115.186 111.006 114.771 110.724C113.173 109.656 111.456 108.558 111.367 108.558C111.308 108.558 110.893 108.276 110.435 107.92C109.976 107.563 109.487 107.222 109.369 107.178C109.25 107.118 108.969 106.955 108.747 106.807C108.525 106.673 107.4 105.961 106.231 105.249C100.932 101.97 100.547 101.703 98.7266 100.115C97.6461 99.1656 96.2251 97.3407 95.8699 96.4653C95.2186 94.7887 95.1446 94.3732 95.1742 92.4444C95.189 91.2426 95.2778 90.3524 95.411 90.0556C95.5146 89.7885 95.6035 89.3879 95.6035 89.1654C95.6035 88.9428 95.7071 88.6164 95.8255 88.468C95.9439 88.3048 96.0475 87.9932 96.0475 87.7707C96.0475 87.563 96.1511 87.2959 96.2695 87.192C96.3879 87.0882 96.4915 86.9398 96.4915 86.8656C96.4915 86.6431 97.3648 85.5748 98.1789 84.7884C98.919 84.0762 99.6591 83.6311 100.088 83.6311C100.562 83.6311 100.488 83.3195 99.8367 82.6222C99.4519 82.2216 99.1558 81.8506 99.1558 81.7765C99.1558 81.7171 98.9634 81.4204 98.7118 81.1088C98.475 80.7972 98.2677 80.4856 98.2677 80.4263C98.2677 80.3521 98.0309 79.8328 97.7497 79.2541C97.4685 78.6903 97.2316 78.1265 97.2316 78.0226C97.2316 77.9188 97.1132 77.5627 96.9652 77.2066C96.3287 75.7525 96.1659 75.1145 95.9291 73.0967C95.8699 72.5625 95.7367 71.9987 95.6479 71.8355C95.5591 71.6723 95.5146 71.242 95.5591 70.8711C95.6035 70.426 95.5443 69.9957 95.3962 69.6248C95.2334 69.239 95.1594 68.601 95.1594 67.6663C95.1594 66.8651 95.0706 66.0193 94.9522 65.6484C94.8042 65.2181 94.7006 63.9125 94.6413 61.672C94.5081 57.5621 94.4637 46.731 94.5673 45.722C94.6265 45.0544 94.6117 44.9802 94.3305 44.9357C94.1677 44.906 93.3388 45.084 92.4803 45.3214C91.6366 45.5588 90.5413 45.8407 90.0529 45.9446C89.5644 46.0485 88.8688 46.2117 88.4987 46.3155C88.1287 46.4194 87.4034 46.6123 86.8705 46.7607C84.9315 47.2651 84.2655 47.458 83.6142 47.6657C83.2442 47.7844 82.6965 47.9476 82.3857 48.0367C82.0896 48.1108 81.1571 48.4076 80.3134 48.7043C79.4846 48.9862 78.5373 49.283 78.2116 49.3423C77.886 49.4017 77.4715 49.5352 77.2939 49.6242C77.1163 49.7281 76.8203 49.8023 76.6279 49.8023C76.4354 49.8023 76.1542 49.9061 76.0062 50.0248C75.8434 50.1435 75.577 50.2474 75.4141 50.2474C75.2365 50.2474 74.9701 50.3513 74.8221 50.47C74.6592 50.5886 74.4224 50.6925 74.2744 50.6925C73.9488 50.6925 72.217 51.2563 70.2188 52.0279C69.3307 52.3691 68.2946 52.74 67.9245 52.8439C66.7552 53.1852 64.5942 53.9715 64.461 54.1199C64.3722 54.1941 64.1946 54.2534 64.0613 54.2534C63.9133 54.2534 63.6173 54.3425 63.3805 54.4612C62.3888 54.9508 61.4119 55.3514 60.3757 55.6926C59.7689 55.8855 59.1176 56.1526 58.94 56.2713C58.7624 56.39 58.5256 56.479 58.4367 56.479C58.1851 56.479 57.001 57.0577 56.8826 57.2357C56.8382 57.3099 56.6458 57.3693 56.4533 57.3693C56.1129 57.3693 55.8317 57.4731 54.3811 58.1111C54.0555 58.2595 53.123 58.6601 52.3089 59.0013C51.4948 59.3426 50.4143 59.8174 49.8962 60.0548C49.3782 60.2922 48.8897 60.4851 48.8157 60.4851C48.7269 60.4851 48.4753 60.5741 48.2681 60.6928C47.676 61.0044 46.5363 61.5237 46.4179 61.5237C46.3587 61.5237 45.5446 61.8946 44.6121 62.3397C43.6944 62.7848 42.8507 63.1558 42.7619 63.1558C42.6879 63.1558 42.229 63.3486 41.7554 63.586C41.2965 63.8383 40.142 64.3873 39.2095 64.8324C35.1983 66.7464 34.3842 67.1321 34.177 67.2212C34.0586 67.2657 33.8366 67.3695 33.7033 67.4585C33.1113 67.7998 32.8745 67.9185 31.8828 68.3785C31.3203 68.6455 30.2102 69.1945 29.4405 69.5951C24.9408 71.9245 25.1776 71.791 24.0379 72.5032C23.7123 72.7109 23.1794 73.0077 22.8686 73.1709C21.3736 73.9424 20.1155 75.6635 20.1155 76.9395C20.1155 77.3401 20.0119 77.9039 19.8935 78.1858C19.7751 78.4974 19.6715 79.1799 19.6715 79.7438C19.6715 80.3076 19.5679 81.4204 19.4494 82.2364C19.1386 84.2691 19.1386 90.7084 19.4494 92.1625C19.5679 92.7263 19.6715 93.8539 19.6715 94.6551C19.6715 95.6047 19.7455 96.2872 19.8935 96.6433C20.0119 96.9252 20.1155 97.4594 20.1155 97.8155C20.1155 98.1864 20.1747 98.587 20.2487 98.7354C20.3227 98.8689 20.5596 99.5514 20.7816 100.249C21.1664 101.48 22.3061 103.958 22.7058 104.403C22.8242 104.522 23.0018 104.819 23.135 105.056C23.3719 105.531 24.5412 107.029 25.222 107.742C25.4737 107.994 25.9621 108.528 26.3174 108.929C27.1018 109.804 28.508 111.05 28.9224 111.243C29.0853 111.317 29.3221 111.436 29.4405 111.51C29.7217 111.673 30.3286 111.94 31.4387 112.356C31.9272 112.534 32.6968 112.831 33.1409 113.009C33.5849 113.172 34.3842 113.454 34.9171 113.617C35.4499 113.795 36.042 113.988 36.2492 114.077C36.4416 114.151 37.0041 114.344 37.5073 114.507C37.9958 114.671 38.499 114.863 38.6175 114.923C38.7359 114.982 39.4463 115.219 40.1716 115.442C41.6814 115.902 42.1994 116.08 42.8359 116.347C43.5316 116.644 44.7749 117.015 45.0561 117.015C45.1894 117.015 45.4854 117.104 45.6926 117.223C45.9146 117.341 46.5215 117.549 47.0543 117.682C48.1941 117.994 49.2894 118.32 50.0591 118.588C50.8139 118.869 52.1461 118.855 52.4421 118.573C52.5605 118.454 52.7825 118.35 52.9454 118.35C53.2562 118.35 54.7364 117.786 54.9584 117.579C55.0472 117.519 55.21 117.46 55.3284 117.46C55.4616 117.46 56.2017 117.133 56.9714 116.733C57.7411 116.347 58.7476 115.843 59.1916 115.62C59.6357 115.398 60.2129 115.116 60.4498 114.982C62.1223 114.122 64.905 112.475 65.0382 112.267C65.0826 112.178 65.2307 112.119 65.3639 112.119C65.4971 112.119 65.7191 112.03 65.8375 111.911C65.9707 111.792 66.548 111.451 67.1105 111.154C67.6877 110.843 68.3538 110.457 68.5906 110.279C69.0051 109.982 72.439 108.261 74.5852 107.267C75.1181 107.015 76.243 106.599 77.1015 106.347C77.96 106.08 78.9517 105.783 79.3217 105.664C80.6095 105.279 83.851 104.418 84.9463 104.181C85.5532 104.047 86.2637 103.884 86.5005 103.81C86.7521 103.736 87.3146 103.632 87.7586 103.572C88.2027 103.513 88.6467 103.409 88.7355 103.35C88.8243 103.276 89.2832 103.157 89.7716 103.083C90.2453 102.994 91.2074 102.83 91.8883 102.712C92.5839 102.593 93.1908 102.519 93.2648 102.563C93.6348 102.801 93.0724 103.365 92.4803 103.365C92.2287 103.365 91.9031 103.424 91.7551 103.513C91.607 103.587 91.163 103.691 90.7633 103.736C90.3785 103.795 89.9937 103.884 89.9197 103.973C89.8308 104.047 89.5644 104.106 89.3128 104.106C89.0612 104.106 88.7207 104.21 88.5579 104.329C88.4099 104.448 88.0547 104.552 87.7882 104.552C87.5218 104.552 87.0778 104.641 86.8113 104.759C86.5449 104.863 85.9676 105.012 85.5236 105.071C85.0796 105.13 84.1322 105.368 83.4218 105.605C82.6965 105.842 81.986 106.035 81.838 106.035C81.69 106.035 81.5124 106.109 81.468 106.184C81.4236 106.273 81.2607 106.332 81.1127 106.332C80.8019 106.332 77.738 107.296 77.3679 107.519C77.2199 107.593 76.9831 107.667 76.8351 107.667C76.6871 107.667 76.4354 107.771 76.2726 107.89C76.1246 108.009 75.9026 108.112 75.7842 108.112C75.2513 108.127 68.6794 111.584 68.4278 111.985C68.3834 112.059 68.265 112.119 68.1466 112.119C68.0282 112.119 67.6581 112.311 67.3029 112.549C66.9476 112.786 66.4296 113.098 66.1484 113.261C65.8671 113.409 65.3491 113.721 65.0086 113.943C64.6534 114.166 64.3426 114.344 64.2834 114.344C64.2242 114.344 63.8097 114.567 63.3509 114.849C62.0779 115.62 57.5931 117.905 57.3562 117.905C57.2526 117.905 57.075 118.009 56.9714 118.128C56.8678 118.246 56.705 118.35 56.5865 118.35C56.4829 118.35 55.9649 118.558 55.4468 118.795C54.914 119.048 54.2775 119.24 54.0259 119.24C53.7891 119.24 53.5374 119.315 53.493 119.389C53.3154 119.686 53.7298 119.967 54.5735 120.131C55.58 120.338 56.2905 120.546 56.8974 120.798C57.149 120.902 57.4746 121.021 57.6375 121.065C57.8003 121.11 58.3035 121.288 58.7476 121.466C59.1916 121.644 60.3017 122.015 61.1898 122.312C62.0927 122.594 63.0548 122.92 63.3361 123.024C63.6173 123.128 64.5202 123.424 65.3343 123.662C66.1484 123.899 67.4213 124.285 68.1466 124.508C68.8866 124.73 69.7747 124.953 70.1448 125.012C70.5148 125.071 70.9589 125.205 71.1365 125.294C71.3141 125.398 71.6397 125.472 71.8618 125.472C72.0838 125.472 72.4686 125.531 72.7202 125.606C73.6379 125.887 75.8138 126.273 78.1376 126.6C79.0701 126.718 79.8546 126.852 79.899 126.896C79.9286 126.926 80.8759 126.956 81.986 126.956C83.407 126.956 84.3987 126.867 85.3312 126.674ZM188.409 115.798C188.394 115.294 187.876 113.795 187.462 113.098C186.811 111.985 184.724 110.338 183.984 110.338C183.836 110.338 183.628 110.234 183.525 110.116C183.421 109.997 183.229 109.893 183.081 109.893C182.933 109.893 182.74 109.789 182.637 109.67C182.533 109.552 182.355 109.448 182.237 109.448C182.119 109.448 181.837 109.359 181.63 109.24C180.831 108.81 179.232 108.112 179.025 108.112C178.921 108.112 178.744 108.009 178.64 107.89C178.537 107.771 178.359 107.667 178.241 107.667C178.122 107.667 177.634 107.474 177.13 107.222C176.642 106.985 176.183 106.777 176.109 106.777C175.976 106.777 174.511 106.124 173.563 105.65C173.326 105.531 173.075 105.442 172.986 105.442C172.897 105.442 172.453 105.264 171.994 105.056C171.535 104.848 170.929 104.566 170.647 104.448C170.366 104.329 169.626 104.003 169.019 103.736C168.412 103.468 167.539 103.098 167.095 102.905C166.651 102.727 165.94 102.43 165.511 102.237C165.097 102.044 164.697 101.881 164.653 101.881C164.608 101.881 163.927 101.584 163.158 101.213C162.403 100.842 161.707 100.546 161.633 100.546C161.559 100.546 161.308 100.456 161.071 100.338C160.849 100.219 160.286 99.9817 159.842 99.8036C158.747 99.3882 158.628 99.3289 157.178 98.6463C156.482 98.3199 155.461 97.8748 154.884 97.6523C154.321 97.4297 153.492 97.0884 153.078 96.8956C152.649 96.7027 151.938 96.3763 151.524 96.1834C151.094 95.9905 150.147 95.5751 149.407 95.2635C148.682 94.9667 147.942 94.6106 147.779 94.5068C147.616 94.4029 147.409 94.3139 147.305 94.3139C147.202 94.3139 146.639 94.0913 146.047 93.8094C145.455 93.5424 144.301 93.0379 143.486 92.6966C142.672 92.3554 141.814 91.9844 141.562 91.8657C140.304 91.3019 139.016 90.7233 138.809 90.6046C138.691 90.5452 137.225 89.9072 135.553 89.1951C133.895 88.4829 132.474 87.8449 132.385 87.7707C132.311 87.6965 132.104 87.6371 131.926 87.6371C131.749 87.6371 131.527 87.5333 131.423 87.4146C131.32 87.2959 131.142 87.192 131.024 87.192C130.905 87.192 130.624 87.103 130.417 86.9843C130.195 86.8656 129.647 86.6282 129.203 86.4502C128.759 86.287 128.063 85.9754 127.649 85.7825C126.628 85.2929 125.429 84.7587 124.511 84.3878C122.661 83.6459 122.128 83.4234 121.403 83.097C120.988 82.9041 120.5 82.7409 120.337 82.7409C120.174 82.7409 120.011 82.6815 119.967 82.6073C119.922 82.5331 119.671 82.4441 119.404 82.3996C119.138 82.3699 118.531 82.2216 118.057 82.088C117.081 81.821 113.454 81.7468 113.291 81.999C113.247 82.088 112.995 82.1474 112.758 82.1474C112.27 82.1474 110.716 82.7409 109.339 83.4382C109.132 83.5421 108.792 83.6311 108.599 83.6311C108.407 83.6311 108.17 83.7053 108.066 83.8091C107.904 83.9724 107.489 84.0614 105.076 84.3878C104.381 84.4768 103.7 84.6104 103.567 84.6845C103.433 84.7587 103.019 84.7736 102.664 84.729C101.628 84.5807 100.059 85.2632 99.0522 86.2721C98.623 86.7024 98.2677 87.1178 98.2677 87.192C98.2677 87.2662 98.1049 87.5778 97.8977 87.8745C97.6905 88.1861 97.4388 88.7203 97.35 89.0764C97.2612 89.4324 97.1428 89.7589 97.0688 89.8034C96.8764 89.9221 96.906 90.6046 97.1132 90.6046C97.202 90.6046 97.4833 90.4414 97.7349 90.2485C98.6082 89.5808 99.7331 89.1951 102.264 88.6609C104.751 88.1564 107.311 87.5481 108.777 87.1475C109.221 87.014 110.257 86.7469 111.071 86.5244C111.885 86.3166 112.758 86.0644 112.995 85.9902C113.691 85.7528 116.74 85.6638 117.806 85.8567C118.339 85.9457 119.108 86.0792 119.508 86.1386C120.44 86.3018 121.358 86.6282 123.046 87.3701C124.392 87.9636 130.121 90.7826 130.535 91.0497C130.654 91.1387 131.053 91.3316 131.423 91.5097C131.793 91.6729 132.519 92.0438 133.051 92.3257C133.584 92.6224 134.443 93.0824 134.976 93.3643C135.508 93.6462 136.041 93.9281 136.16 94.0023C136.278 94.0765 136.545 94.21 136.752 94.299C136.959 94.3881 137.225 94.5216 137.344 94.581C137.462 94.6551 137.832 94.8332 138.158 94.9816C138.484 95.1151 138.854 95.2931 138.972 95.3673C139.475 95.6789 145.055 98.3793 146.743 99.136C147.231 99.3585 147.735 99.5959 147.853 99.6701C147.971 99.7443 148.238 99.8778 148.445 99.952C148.652 100.041 148.993 100.204 149.215 100.323C149.422 100.442 149.733 100.546 149.896 100.546C150.058 100.546 150.221 100.649 150.28 100.768C150.325 100.887 150.517 100.991 150.695 100.991C150.887 100.991 151.169 101.094 151.317 101.213C151.479 101.332 151.701 101.436 151.835 101.436C151.953 101.436 152.16 101.525 152.279 101.629C152.412 101.732 152.811 101.94 153.182 102.089C153.552 102.237 153.951 102.415 154.084 102.474C154.203 102.534 155.209 102.979 156.305 103.439C157.4 103.914 158.688 104.477 159.176 104.7C160.242 105.19 165.052 107.148 166.207 107.549C166.651 107.712 167.08 107.905 167.169 107.979C167.243 108.053 167.421 108.112 167.554 108.112C167.702 108.112 168.027 108.231 168.309 108.365C168.575 108.498 168.975 108.691 169.197 108.81C169.404 108.914 169.656 109.003 169.744 109.003C169.833 109.003 170.337 109.21 170.84 109.448C171.358 109.7 171.891 109.893 172.024 109.893C172.142 109.893 172.438 109.997 172.675 110.116C172.897 110.234 173.963 110.635 175.014 111.006C176.08 111.377 177.16 111.777 177.426 111.896C177.693 112.015 178.004 112.119 178.107 112.119C178.226 112.119 178.507 112.222 178.729 112.341C178.966 112.46 179.277 112.564 179.41 112.564C179.543 112.564 179.706 112.638 179.75 112.712C179.795 112.801 179.987 112.86 180.165 112.86C180.357 112.86 180.624 112.949 180.786 113.053C180.949 113.172 181.615 113.424 182.267 113.647C182.918 113.854 183.821 114.181 184.265 114.344C184.709 114.522 185.242 114.715 185.449 114.789C186.189 115.027 186.87 115.368 187.358 115.739C188.01 116.228 188.409 116.243 188.409 115.798ZM7.06054 113.691C7.29737 113.573 7.90423 113.365 8.42228 113.246C8.95514 113.113 9.65081 112.89 9.97645 112.771C10.8645 112.415 12.4631 111.688 12.7147 111.525C12.8331 111.436 13.4844 111.095 14.1505 110.768C14.8314 110.442 15.4086 110.101 15.4678 110.026C15.5122 109.952 15.9711 109.893 16.5039 109.893C17.096 109.893 17.4512 109.834 17.4512 109.73C17.4512 109.641 17.0516 109.121 16.5631 108.587C16.0599 108.038 15.4234 107.133 15.1274 106.525C14.8314 105.917 14.5353 105.397 14.4613 105.353C14.4021 105.308 14.3429 105.16 14.3429 105.026C14.3429 104.893 14.2393 104.581 14.1209 104.344C14.0025 104.121 13.8989 103.78 13.8989 103.602C13.8989 103.439 13.7952 103.098 13.6768 102.86C13.5584 102.638 13.4548 102.178 13.4548 101.851C13.4548 101.54 13.366 101.094 13.2476 100.872C13.1292 100.62 13.0108 99.7295 12.9664 98.5425C12.922 97.489 12.8035 95.219 12.7147 93.4978C12.5519 90.0111 12.6259 79.7883 12.8479 77.3995C12.9368 76.5389 13.0108 75.1145 13.0108 74.2095C13.0256 73.3193 13.0996 72.0433 13.1736 71.3904C13.2624 70.7376 13.3808 69.2984 13.4696 68.2004C13.662 65.3665 13.8693 63.2003 14.0321 62.3397C14.1061 61.9391 14.1357 61.3901 14.0913 61.1527C14.0469 60.9005 14.1209 60.3367 14.2541 59.8916C14.3873 59.4613 14.4909 58.8233 14.4909 58.4969C14.4909 58.1556 14.5945 57.5176 14.7129 57.0725C14.8314 56.6274 14.935 55.9597 14.935 55.5888C14.935 55.2179 15.0386 54.5947 15.157 54.1941C15.2754 53.7935 15.379 53.1852 15.379 52.8291C15.379 52.473 16.0599 50.0397 16.1783 49.5055C16.2967 48.9862 16.5335 48.3779 16.7112 48.1405C17.022 47.7251 17.096 47.3541 16.8888 47.2206C16.8148 47.1761 16.0895 47.547 15.2606 48.0367C14.4317 48.5114 13.6768 48.912 13.5584 48.912C13.4548 48.912 13.3068 48.9714 13.218 49.0456C13.144 49.1346 12.3595 49.5649 11.4566 50.0248C10.5685 50.47 9.72482 50.9002 9.60641 50.9744C9.488 51.0486 9.07355 51.2563 8.68871 51.4344C8.28907 51.6124 7.94863 51.8201 7.88943 51.8943C7.84502 51.9685 7.71181 52.0279 7.5934 52.0279C7.46018 52.0279 7.04574 52.3098 6.6313 52.6659C6.05404 53.1555 5.90602 53.378 5.90602 53.7341C5.90602 53.9864 5.81721 54.3128 5.6988 54.476C5.59519 54.6392 5.46197 55.0695 5.41757 55.4404C5.37316 55.8113 5.25475 56.479 5.16594 56.9241C4.97352 57.8292 3.03452 70.7672 2.94571 71.4646C2.8717 72.1619 2.76809 73.3638 2.72369 74.1353C2.66448 74.9068 2.56087 75.708 2.50166 75.9158C2.42765 76.1235 2.32404 77.0582 2.29444 77.993C2.25004 78.9277 2.14642 79.9366 2.05762 80.2185C1.98361 80.5005 1.9096 81.5094 1.9096 82.4441C1.9096 83.3789 1.80599 85.1148 1.68758 86.3018C1.43595 88.7944 1.40635 96.2724 1.61357 98.5425C1.70238 99.3585 1.80599 100.902 1.85039 101.955C1.8948 103.083 2.02801 104.136 2.16123 104.507C2.27964 104.833 2.33884 105.249 2.29444 105.412C2.19083 105.724 2.66448 107.697 3.04932 108.558C3.8338 110.323 4.57388 111.659 5.25475 112.578C5.58039 113.024 5.89122 113.498 5.95042 113.647C6.06884 113.958 6.51288 113.973 7.06054 113.691ZM191.296 112.119C192.036 112.059 192.983 111.926 193.427 111.837C193.856 111.748 194.478 111.673 194.789 111.673C196.358 111.673 198.356 109.745 198.859 107.742C198.918 107.504 198.992 104.522 199.022 101.139C199.066 96.0647 199.037 94.7887 198.844 93.8836C198.711 93.2159 198.622 91.9993 198.622 90.753C198.622 89.3583 198.548 88.4087 198.385 87.7855C198.237 87.1624 198.178 86.5837 198.252 86.0199C198.297 85.5599 198.267 84.551 198.163 83.7795C198.075 83.0079 197.971 81.8061 197.956 81.1088C197.941 80.4114 197.853 79.447 197.749 78.9722C197.66 78.4826 197.586 77.6814 197.586 77.1918C197.586 76.6873 197.483 75.7525 197.364 75.0997C197.246 74.4469 197.201 73.6753 197.246 73.3786C197.29 73.067 197.216 72.4884 197.083 72.0136C196.95 71.5388 196.846 70.6337 196.846 69.8028C196.831 68.8829 196.757 68.3043 196.624 68.052C196.491 67.8146 196.417 67.236 196.402 66.4793C196.402 65.6632 196.328 65.2033 196.18 64.9956C196.062 64.8324 195.958 64.3873 195.958 63.957C195.958 63.497 195.884 63.1261 195.751 63.0222C195.647 62.9332 195.514 62.6661 195.47 62.4436C195.41 62.221 195.07 61.7166 194.685 61.3011C192.85 59.3129 185.094 51.5827 183.303 49.9506C182.74 49.4313 181.704 48.4669 181.008 47.8141C180.313 47.1464 179.484 46.3749 179.158 46.1078C178.566 45.6034 177.426 44.5499 174.718 42.0127C173.193 40.5884 169.863 37.6209 167.687 35.7811C167.021 35.2173 166.399 34.6683 166.31 34.5941C166.207 34.5051 165.763 34.149 165.319 33.7781C164.875 33.422 164.194 32.8582 163.824 32.5169C163.217 31.9828 162.299 31.2261 159.768 29.2082C158.91 28.5109 153.107 24.1636 152.219 23.5404C151.983 23.3624 151.139 22.7837 150.369 22.2496C149.6 21.7006 148.933 21.211 148.889 21.1665C148.845 21.1071 148.637 20.9736 148.415 20.8549C148.193 20.7362 147.498 20.2911 146.861 19.846C144.996 18.5403 143.146 17.3088 143.057 17.3088C143.013 17.3088 142.702 17.1308 142.347 16.9082C141.992 16.6708 141.577 16.4186 141.414 16.3147C141.148 16.1663 139.594 15.1871 138.972 14.7865C138.498 14.4897 135.035 12.4719 134.828 12.368C134.709 12.3087 134.502 12.2048 134.384 12.1158C133.525 11.552 132.326 10.914 125.887 7.60528C124.674 6.98212 123.608 6.4183 123.519 6.35895C123.43 6.29961 122.853 6.0177 122.246 5.73579C121.639 5.45389 121.033 5.15714 120.914 5.06812C120.722 4.91975 120.233 4.69719 119.286 4.34109C119.168 4.29658 118.96 4.19272 118.842 4.11854C118.723 4.04435 118.25 3.83663 117.806 3.65858C117.362 3.49537 116.844 3.27282 116.666 3.18379C116.237 2.97607 115.882 3.12444 115.882 3.52505C115.882 3.85147 115.689 4.68235 115.408 5.58742C115.008 6.81891 114.49 10.9733 114.253 14.7123C114.179 15.9438 114.046 17.2791 113.972 17.6797C113.898 18.0952 113.824 19.7273 113.809 21.3149C113.809 22.9321 113.706 24.9055 113.587 25.766C113.336 27.6207 113.291 41.4341 113.528 43.2739C113.602 43.8822 113.706 46.1523 113.735 48.3186C113.78 50.4848 113.883 52.7252 113.957 53.289C114.046 53.8677 114.135 55.2624 114.179 56.4048C114.209 57.5473 114.313 58.7194 114.401 59.0013C114.475 59.2832 114.549 59.8767 114.549 60.3219C114.549 61.7166 115.127 66.0193 115.452 67.1025C115.526 67.3547 115.586 67.7553 115.586 67.9927C115.586 68.2301 115.674 68.7197 115.793 69.0906C115.911 69.4616 116.133 70.1886 116.311 70.7227C116.784 72.2213 117.081 73.0077 117.229 73.156C117.303 73.2451 117.362 73.4083 117.362 73.527C117.362 73.7198 118.561 76.1086 119.064 76.9395C119.567 77.7556 120.1 78.5271 120.248 78.6606C120.337 78.7497 120.677 79.1799 120.988 79.6251C121.861 80.8714 122.779 81.7765 123.475 82.0732C123.815 82.2216 124.304 82.4145 124.54 82.5183C124.792 82.6222 125.281 82.8299 125.651 82.9634C126.45 83.275 126.953 83.4827 128.019 83.9872C128.463 84.1949 129.203 84.5065 129.647 84.6697C130.091 84.8329 130.698 85.0851 130.979 85.2187C131.542 85.4857 132.252 85.7825 132.607 85.916C132.726 85.9605 132.933 86.0644 133.051 86.1386C133.17 86.2128 133.54 86.3463 133.865 86.4502C134.191 86.554 134.561 86.7172 134.68 86.8211C134.798 86.925 135.064 87.0585 135.272 87.1178C135.479 87.1624 136.041 87.3997 136.53 87.6223C137.018 87.8597 137.921 88.2603 138.528 88.5125C139.135 88.7796 140.038 89.1802 140.526 89.4176C141.015 89.6402 141.71 89.9369 142.08 90.0853C142.746 90.3523 143.575 90.6936 144.019 90.9013C144.138 90.9755 145.144 91.4058 146.24 91.8657C147.335 92.3405 148.297 92.756 148.371 92.8153C148.46 92.8747 149.052 93.1417 149.703 93.4088C150.354 93.6759 151.065 93.9875 151.287 94.1062C151.494 94.2249 151.775 94.3139 151.894 94.3139C152.012 94.3139 152.19 94.4177 152.293 94.5364C152.397 94.6551 152.634 94.759 152.811 94.759C152.989 94.759 153.226 94.8629 153.33 94.9816C153.433 95.1003 153.626 95.2041 153.759 95.2041C153.892 95.2041 154.129 95.308 154.277 95.4267C154.44 95.5454 154.691 95.6492 154.854 95.6492C155.002 95.6492 155.313 95.7383 155.52 95.8421C155.742 95.9608 156.157 96.1537 156.438 96.2872C156.719 96.4208 157.385 96.7175 157.903 96.9697C158.406 97.222 158.925 97.4297 159.028 97.4297C159.132 97.4297 159.295 97.5336 159.398 97.6523C159.502 97.771 159.709 97.8748 159.857 97.8748C160.109 97.8748 161.308 98.3793 162.551 99.0024C162.788 99.1211 163.054 99.2102 163.173 99.2102C163.276 99.2102 163.439 99.314 163.543 99.4327C163.646 99.5514 163.868 99.6553 164.046 99.6553C164.209 99.6553 164.49 99.7591 164.638 99.8778C164.801 99.9965 165.038 100.1 165.186 100.1C165.319 100.1 165.511 100.204 165.615 100.323C165.718 100.442 165.955 100.546 166.133 100.546C166.31 100.546 166.547 100.649 166.651 100.768C166.755 100.887 166.962 100.991 167.125 100.991C167.287 100.991 167.598 101.08 167.805 101.184C168.027 101.302 168.442 101.495 168.723 101.629C169.004 101.747 169.685 102.059 170.248 102.311C170.795 102.563 171.328 102.771 171.432 102.771C171.521 102.771 171.743 102.875 171.891 102.994C172.053 103.112 172.29 103.216 172.438 103.216C172.572 103.216 172.764 103.32 172.868 103.439C172.971 103.557 173.178 103.661 173.341 103.661C173.489 103.661 173.978 103.869 174.422 104.106C174.866 104.359 175.354 104.552 175.502 104.552C175.665 104.552 175.872 104.655 175.976 104.774C176.08 104.893 176.316 104.997 176.509 104.997C176.701 104.997 176.864 105.056 176.864 105.145C176.864 105.219 177.042 105.338 177.278 105.382C177.5 105.442 177.752 105.531 177.826 105.59C177.915 105.65 178.64 105.991 179.439 106.332C180.239 106.673 181.008 107 181.142 107.074C181.275 107.133 181.615 107.282 181.897 107.415C182.178 107.534 182.844 107.831 183.377 108.068C183.91 108.32 184.635 108.647 185.005 108.795C186.13 109.255 187.832 110.65 188.409 111.584C188.912 112.386 188.942 112.415 189.445 112.341C189.727 112.297 190.57 112.193 191.296 112.119ZM26.0805 111.05C26.1842 110.709 26.0065 110.353 25.6809 110.249C24.9408 110.012 21.4477 106.124 21.4477 105.531C21.4477 105.412 21.3884 105.279 21.3144 105.234C21.0924 105.086 19.9823 102.934 19.6715 102.044C19.5086 101.584 19.1978 100.694 18.961 100.071C18.7242 99.4476 18.5613 98.765 18.591 98.5722C18.6354 98.3644 18.5762 98.0529 18.4873 97.8748C18.3837 97.6819 18.2949 96.9994 18.2801 96.3317C18.2505 95.6789 18.1765 94.9964 18.0877 94.8332C17.7325 94.1358 17.7473 82.6518 18.1173 79.3283C18.4873 75.9899 18.5465 75.6784 18.961 74.8772C19.1978 74.432 19.4494 74.0018 19.5383 73.9276C19.7455 73.705 19.7011 73.156 19.4494 72.9483C19.331 72.8445 19.2274 72.6071 19.2274 72.3993C19.2274 72.2065 19.1534 71.8949 19.0646 71.7168C18.7982 71.242 18.7686 70.0402 18.7686 63.3041C18.7686 54.9805 19.0646 49.194 19.4938 48.3631C19.7751 47.8438 19.7011 47.6509 19.1534 47.3838C18.2061 46.9239 17.9545 47.0277 17.6881 47.9328C17.5548 48.3779 17.0072 50.2474 17.0072 50.7519C17.0072 51.197 16.1339 54.9953 16.1191 55.4552C16.1191 55.9152 16.0599 56.479 15.9711 56.7164C15.8083 57.1912 15.601 58.7491 15.379 61.0786C15.305 61.9391 15.1718 62.9777 15.0978 63.3783C15.009 63.7938 14.8758 65.2181 14.787 66.5683C14.6981 67.9185 14.5945 69.2835 14.5501 69.6099C14.5205 69.9364 14.4317 71.3756 14.3429 72.7999C14.2689 74.2243 14.1357 75.9009 14.0617 76.5092C13.8693 77.9336 13.8693 97.6671 14.0617 98.6909C14.1357 99.1063 14.2393 99.863 14.2837 100.397C14.3281 100.931 14.4465 101.599 14.5649 101.881C14.6685 102.163 14.8018 102.682 14.8462 103.038C14.9054 103.394 15.009 103.795 15.083 103.928C15.157 104.062 15.4234 104.655 15.675 105.219C16.2079 106.406 16.7704 107.341 17.7917 108.706C18.5021 109.656 18.5169 109.67 19.2718 109.7C21.9657 109.789 24.6004 110.383 25.2961 111.021C25.5625 111.273 25.9917 111.288 26.0805 111.05ZM104.558 82.6073C104.81 82.5331 105.446 82.4293 105.979 82.3848C106.927 82.3106 109.458 81.5687 110.035 81.1978C111.204 80.4411 114.52 79.7586 116.104 79.9515C117.613 80.1295 119.108 80.5598 120.366 81.1978C120.825 81.4204 121.358 81.4797 121.358 81.3017C121.358 81.2275 120.751 80.5598 120.026 79.7883C119.286 79.0167 118.694 78.3342 118.694 78.2897C118.694 78.2304 118.398 77.7259 118.028 77.1621C117.036 75.6487 115.674 72.7703 115.497 71.791C115.438 71.4943 115.275 71.0046 115.142 70.7227C114.993 70.4408 114.771 69.7435 114.638 69.1648C114.505 68.601 114.313 67.8592 114.224 67.5327C114.12 67.2063 114.061 66.7019 114.091 66.4199C114.105 66.1232 114.046 65.6929 113.957 65.4555C113.765 64.9956 113.617 63.6157 113.38 60.6186C113.306 59.669 113.202 58.7936 113.128 58.6898C113.054 58.5711 112.951 57.6215 112.906 56.5532C112.818 54.8024 112.64 51.6866 112.403 47.8734C112.211 44.7576 112.152 29.2528 112.314 26.6562C112.418 25.2319 112.522 22.8579 112.551 21.389C112.581 19.9202 112.684 18.4513 112.758 18.1249C112.847 17.7984 112.921 16.7598 112.921 15.8251C112.921 14.7568 113.01 13.8517 113.143 13.3918C113.262 12.9912 113.365 12.1455 113.365 11.5223C113.365 10.7804 113.439 10.2166 113.587 9.94956C113.735 9.65281 113.78 9.31156 113.721 8.83677C113.661 8.36198 113.706 8.02072 113.869 7.6943C114.002 7.44207 114.105 6.98212 114.105 6.68537C114.105 6.00286 114.653 4.31142 115.023 3.82179C115.171 3.62891 115.29 3.37668 115.29 3.27282C115.29 2.99091 115.008 2.87221 114.801 3.05026C114.446 3.33217 109.487 5.73579 109.236 5.73579C109.132 5.73579 108.229 6.18091 107.741 6.46281C107.622 6.537 107.252 6.70021 106.927 6.81891C106.601 6.9376 106.231 7.08598 106.113 7.13049C105.994 7.175 105.787 7.27886 105.669 7.35305C105.121 7.67946 103.537 8.40649 103.374 8.40649C103.167 8.40649 101.524 9.29672 101.258 9.54895C101.154 9.65281 100.991 9.74184 100.902 9.74184C100.458 9.74184 98.7266 11.4036 98.7118 11.8339C98.7118 11.9674 98.5786 12.3829 98.4009 12.7686C98.2381 13.1544 98.1345 13.5847 98.1789 13.7182C98.2381 13.8666 98.1641 14.1188 98.0457 14.282C97.8977 14.4749 97.8385 14.9349 97.8237 15.7064C97.8237 16.3296 97.7645 16.8785 97.6905 16.923C97.6313 16.9676 97.5277 17.6501 97.4685 18.4364C97.4092 19.2228 97.2908 20.0389 97.202 20.2614C97.128 20.4691 97.0392 21.1813 97.0244 21.8342C96.9356 24.6235 96.61 28.4367 96.3879 29.3121C96.2399 29.9501 96.1955 30.5584 96.2547 31.1222C96.2991 31.597 96.2695 33.3775 96.1807 35.0689C95.9883 39.075 95.9883 53.1406 96.1955 56.5977C96.2843 58.0814 96.3435 59.8767 96.3287 60.5889C96.3139 61.3011 96.3731 62.3694 96.4619 62.9332C96.5508 63.5119 96.6396 64.6395 96.6396 65.4704C96.6396 66.3013 96.7136 67.1618 96.7876 67.3992C96.9208 67.785 97.0984 69.328 97.3352 71.9839C97.3796 72.4735 97.4833 72.9632 97.5721 73.0818C97.6757 73.2005 97.7941 73.6902 97.8385 74.1946C97.8977 74.6991 98.0161 75.3668 98.1197 75.6932C98.2085 76.0196 98.3417 76.4944 98.4009 76.7318C98.5194 77.1621 98.7562 77.7111 99.5555 79.4767C99.7627 79.9218 100.162 80.6043 100.429 81.0049C100.71 81.3907 100.932 81.7319 100.932 81.7616C100.932 81.8061 101.065 82.0732 101.243 82.3551L101.554 82.8892L102.827 82.8151C103.537 82.7705 104.322 82.6667 104.558 82.6073ZM22.3061 71.5536C22.9426 71.1233 23.9195 70.515 24.482 70.2183C25.0592 69.9067 25.8141 69.4912 26.1842 69.2984C27.4127 68.6159 29.3517 67.6366 31.9568 66.3606C33.3777 65.6632 34.7098 64.9956 34.9171 64.8769C35.1243 64.7582 35.5831 64.5208 35.9532 64.3576C36.3232 64.2092 37.4629 63.6602 38.499 63.1706C39.5352 62.6661 40.4233 62.2655 40.4677 62.2655C40.5269 62.2655 41.8294 61.7017 42.9839 61.1527C43.65 60.8412 45.9738 59.758 46.9063 59.3426C48.3569 58.6749 48.6529 58.5562 48.7417 58.5562C48.8009 58.5562 49.5558 58.2298 50.4291 57.8292C52.9454 56.6867 53.2562 56.5532 54.7512 55.9746C55.5208 55.6778 56.5125 55.2624 56.9418 55.0695C57.371 54.8618 57.7855 54.6986 57.8743 54.6986C57.9631 54.6986 58.2443 54.6095 58.4959 54.4908C59.2952 54.1496 60.879 53.5264 61.2638 53.4226C61.4711 53.3632 61.9595 53.1703 62.3592 52.9774C62.7736 52.7846 63.1732 52.6213 63.2621 52.6213C63.3361 52.6213 63.6617 52.4878 63.9725 52.3246C64.2686 52.1614 64.6534 52.0279 64.8162 52.0279C64.9938 52.0279 65.2751 51.9388 65.4527 51.8201C65.6303 51.7163 66.1484 51.5086 66.5924 51.3602C67.4953 51.0634 69.5083 50.3364 70.2632 50.01C70.5296 49.8913 70.87 49.8023 71.0329 49.8023C71.1809 49.8023 71.4917 49.7133 71.7285 49.5946C72.1726 49.372 72.7943 49.1494 73.8452 48.8379C74.2152 48.734 75.0441 48.4373 75.6954 48.1999C76.3466 47.9476 77.3827 47.6064 77.9896 47.4283C78.5965 47.2503 79.3661 47.0129 79.6918 46.909C80.0174 46.8052 80.6835 46.5974 81.1571 46.4491C81.6456 46.3155 82.208 46.1078 82.4153 46.004C82.6225 45.8853 83.0073 45.7962 83.2738 45.7962C83.5254 45.7962 83.777 45.7369 83.8214 45.6627C83.8806 45.5885 84.1915 45.4847 84.5467 45.4253C84.8871 45.3808 85.3016 45.2769 85.4644 45.2027C85.9232 44.995 87.2554 44.6389 88.7207 44.3125C89.0464 44.2532 89.8308 44.0454 90.4821 43.8822C91.1186 43.7042 91.7995 43.5707 91.9771 43.5707C92.1547 43.5707 92.5543 43.4668 92.8652 43.3333C93.176 43.2146 93.5756 43.1404 93.7681 43.1849C94.5081 43.3778 94.4933 43.4223 94.4489 38.7782C94.4193 36.2411 94.4637 33.8671 94.5673 33.0362C94.6562 32.2647 94.7302 30.5584 94.7302 29.2676C94.745 27.6948 94.8042 26.6859 94.9522 26.226C95.0706 25.8254 95.1594 24.8758 95.1594 23.8965C95.1594 22.7689 95.2334 22.0715 95.3814 21.7155C95.5294 21.3742 95.6035 20.6917 95.6035 19.8608C95.6035 18.9854 95.6775 18.3326 95.8403 17.9765C95.9735 17.6352 96.0327 17.2198 95.9883 16.9527C95.9439 16.7005 95.9735 16.2554 96.0623 15.9735C96.1511 15.6916 96.2103 15.1426 96.2103 14.7716C96.1955 14.4007 96.2991 13.8963 96.4175 13.6589C96.536 13.4215 96.6396 13.0654 96.6396 12.8576C96.6544 12.6499 96.7432 12.3235 96.8616 12.1158C96.98 11.9081 97.0688 11.552 97.0836 11.3294C97.0836 10.825 97.7349 9.86053 98.3121 9.51928C98.8894 9.17802 98.8598 8.5697 98.2529 8.22844C97.6609 7.88719 97.128 7.88719 96.0771 8.25812C94.6858 8.73291 94.2565 8.91095 92.8948 9.56379C92.1843 9.90504 91.5182 10.187 91.4146 10.187C91.311 10.187 91.089 10.2908 90.9262 10.4095C90.7781 10.5282 90.4969 10.6321 90.3341 10.6321C90.1565 10.6321 89.9345 10.7359 89.8308 10.8546C89.7272 10.9733 89.5348 11.0772 89.4016 11.0772C89.2536 11.0772 89.0168 11.181 88.8539 11.2997C88.7059 11.4184 88.4691 11.5223 88.3359 11.5223C88.2027 11.5223 88.0103 11.6262 87.9066 11.7449C87.803 11.8636 87.6254 11.9674 87.507 11.9674C87.3886 11.9674 86.7521 12.2196 86.0861 12.5312C85.42 12.8576 84.3099 13.3621 83.6142 13.6737C82.9185 13.9853 81.9564 14.4304 81.468 14.6529C80.9795 14.8755 80.2542 15.2019 79.8398 15.3503C79.4402 15.5135 78.5965 15.8844 77.9896 16.1663C77.3827 16.4482 76.5538 16.8192 76.1394 16.9972C75.1921 17.4127 74.8369 17.5759 73.0607 18.4068C72.2614 18.7777 71.5805 19.0893 71.5361 19.0893C71.4621 19.0893 70.3964 19.5789 68.5166 20.4543C67.9837 20.7065 67.3621 20.9884 67.1105 21.0923C66.6368 21.3 65.5415 21.8045 63.4397 22.7837C62.7292 23.125 62.1075 23.3921 62.0631 23.3921C62.0187 23.3921 61.2786 23.7333 60.4053 24.1488C59.5321 24.5494 58.6292 24.9945 58.3775 25.0983C58.1407 25.217 57.075 25.7067 56.0389 26.2111C55.0028 26.7008 54.0851 27.1014 54.0259 27.1014C53.9519 27.1014 53.8187 27.2052 53.715 27.3239C53.6114 27.4426 53.419 27.5465 53.2858 27.5465C53.1378 27.5465 52.4421 27.8432 51.7316 28.2142C51.0064 28.5851 50.3551 28.8818 50.2663 28.8818C50.1923 28.8818 49.2894 29.2973 48.2533 29.7869C45.1153 31.3151 42.4363 32.606 41.5778 32.9917C39.9792 33.7336 39.7276 33.8523 39.5056 34.0155C39.3871 34.1045 38.9579 34.2974 38.5434 34.4458C37.8774 34.698 36.0864 35.5141 35.5091 35.8553C35.2871 35.974 34.8135 36.1966 31.8828 37.5616C31.0687 37.9325 30.299 38.3034 30.1806 38.3776C30.0622 38.4667 29.8105 38.6002 29.6181 38.6744C29.4257 38.7486 28.7152 39.0898 28.0195 39.4162C27.3239 39.7427 26.7022 40.0097 26.6282 40.0097C26.5542 40.0097 26.3174 40.1136 26.0805 40.2323C25.8585 40.351 25.1628 40.6774 24.556 40.9741C23.9491 41.2709 23.2978 41.5973 23.1202 41.7012C22.6318 41.9831 21.8917 42.8733 21.9657 43.0959C21.9953 43.1997 21.9065 43.6003 21.7585 43.9861C21.6105 44.3719 21.4329 45.3214 21.3736 46.093C21.3144 46.8645 21.196 47.5915 21.122 47.6806C20.974 47.8586 20.8556 49.1791 20.5744 53.4374C20.3523 56.5829 20.3671 70.2331 20.5892 71.1975C20.752 71.9245 20.9444 72.3548 21.1072 72.3548C21.1516 72.3548 21.6845 71.9987 22.3061 71.5536ZM184.946 48.6895C184.886 48.4076 184.65 47.7547 184.413 47.2354C184.161 46.731 183.969 46.2413 183.969 46.1523C183.969 46.0485 183.776 45.5737 183.525 45.084C183.288 44.5796 183.081 44.1048 183.081 44.0306C183.081 43.6894 182.133 41.8792 181.719 41.4044C181.378 41.0187 181.156 40.9 180.757 40.9C179.765 40.9 179.306 41.4489 179.143 42.8585C179.055 43.6597 179.055 43.6597 179.617 44.09C180.298 44.5944 183.821 48.1405 183.821 48.3037C183.821 48.5856 184.457 49.2088 184.738 49.2088C185.005 49.2088 185.02 49.1494 184.946 48.6895ZM124.466 4.72686C124.466 4.59333 123.564 3.02058 123.253 2.61998C122.601 1.7891 121.713 1.50719 121.121 1.95231C120.973 2.071 120.692 2.17486 120.529 2.17486C120.13 2.17486 119.848 2.50128 119.952 2.81286C120.011 2.93156 120.248 3.07993 120.5 3.12444C121.092 3.24314 122.912 4.11854 123.549 4.60816C123.978 4.91975 124.466 4.99393 124.466 4.72686Z" fill="rgb(0,0,0)" fill-rule="nonzero" transform="matrix(1,0,0,-1,0.592773,230.096)" />
		<path id="矢量 479" d="M7.73818 60.9598C7.04251 60.2031 6.42084 59.298 5.9916 58.4672C5.32553 57.1615 3.57895 52.1613 3.57895 51.5679C3.57895 51.3898 3.49014 50.8705 3.37173 50.4254C3.1349 49.5055 2.79447 47.4283 2.54284 45.5143C2.45403 44.8169 2.27641 43.6596 2.158 42.9178C2.03959 42.1907 1.87677 40.7812 1.81757 39.802C1.74356 38.8227 1.63995 37.7841 1.59554 37.5022C1.50674 36.9829 1.22551 32.7395 1.1515 30.6771C1.06269 28.1548 0.78146 23.852 0.633445 22.8876C0.559437 22.3237 0.455826 18.7776 0.39662 15.0238C0.352216 11.27 0.219002 6.49245 0.115391 4.41524C-0.0918302 0.513057 -0.0326241 -0.421687 0.39662 0.156964C0.692651 0.572406 0.899872 2.01161 1.06269 5.00873C1.25511 8.49547 1.56594 17.0417 1.58074 19.1783C1.58074 20.0833 1.66955 21.7154 1.77316 22.8134C1.86197 23.9113 2.02479 26.2556 2.1136 28.0064C2.49844 35.6475 3.01649 41.9979 3.37173 43.5854C3.49014 44.1196 3.65296 45.1879 3.72696 45.9594C3.81577 46.7309 3.93419 47.7102 4.023 48.1108C4.20061 49.09 4.43744 50.366 4.60026 51.3601C4.76307 52.2652 6.06561 56.2713 6.55406 57.3544C6.73168 57.7401 6.9981 58.3188 7.13132 58.6452C7.27933 58.9716 7.901 59.7728 8.52266 60.4257C9.14433 61.0785 9.63278 61.7165 9.60317 61.8352C9.58837 61.9539 9.39595 62.0726 9.18873 62.1023C8.8779 62.1468 8.61147 61.9391 7.73818 60.9598Z" fill="rgb(0,0,0)" fill-rule="nonzero" transform="matrix(1,0,0,-1,168.105,77.5845)" />
	</g>
</svg>
