<svg viewBox="0 0 216 230" xmlns="http://www.w3.org/2000/svg" xmlns:xlink="http://www.w3.org/1999/xlink" width="216.000000" height="230.000000" fill="none">
	<rect id="1-8" width="216.000000" height="230.000000" x="0.000000" y="0.000000" />
	<path id="矢量 480" d="M94.6726 1.25342L89.266 4.56211L86.0962 9.29518L83.6965 20.6456L83.2818 29.7705L78.6751 41.7738L73.1648 64.3264L72.3205 80.3505L53.8049 84.6237L43.6732 87.324L16.8922 98.3629L8.38979 101.85L4.55335 106.227L3.70904 110.9L6.28642 115.767L1.97598 123.334L1.19092 141.035L5.87167 177.89L17.9587 183.885L21.2619 183.35L22.0765 189.389L98.2572 223.188L100.894 220.978L116.24 228.352L119.35 227.001L121.335 229.138L123.972 228.604L126.357 223.737L148.886 210.829L169.565 194.211L178.482 186.526L180.585 190.072L182.985 189.181L187.354 178.187L197.486 167.564L200.552 126.272L199.041 119.728L196.109 116.969L198.197 116.672L201.5 116.969L204.315 110.604L214.861 40.0824L212.906 37.7233L200.597 35.6906L193.487 33.2424L188.895 34.2514L183.059 32.6044L181.059 19.6367L176.186 12.4852L163.61 6.96574L94.6726 1.25342Z" fill="rgb(255,255,255)" fill-rule="nonzero" />
	<path id="矢量 480" d="M89.266 4.56211L86.0962 9.29518L83.6965 20.6456L83.2818 29.7705L78.6751 41.7738L73.1648 64.3264L72.3205 80.3505L53.8049 84.6237L43.6732 87.324L16.8922 98.3629L8.38979 101.85L4.55335 106.227L3.70904 110.9L6.28642 115.767L1.97598 123.334L1.19092 141.035L5.87167 177.89L17.9587 183.885L21.2619 183.35L22.0765 189.389L98.2572 223.188L100.894 220.978L116.24 228.352L119.35 227.001L121.335 229.138L123.972 228.604L126.357 223.737L148.886 210.829L169.565 194.211L178.482 186.526L180.585 190.072L182.985 189.181L187.354 178.187L197.486 167.564L200.552 126.272L199.041 119.728L196.109 116.969L198.197 116.672L201.5 116.969L204.315 110.604L214.861 40.0824L212.906 37.7233L200.597 35.6906L193.487 33.2424L188.895 34.2514L183.059 32.6044L181.059 19.6367L176.186 12.4852L163.61 6.96574L94.6726 1.25342L89.266 4.56211Z" fill-rule="nonzero" stroke="rgb(0,0,0)" stroke-width="1.000000" />
	<path id="矢量 481" d="M183.74 44.6522L172.794 80.2318L169.402 82.6355L161.892 83.5999L140.206 77.6947L121.75 72.9764L92.0362 68.4214L87.237 65.2908L86.3334 60.4984L85.6224 46.1508L83.8745 22.5596L85.4446 9.41388L91.9029 1.9656L106.893 1.25342L151.02 5.60072L165.24 8.00434L177.075 13.1974L182.304 23.1976L183.74 44.6522Z" fill="rgb(1,89,188)" fill-rule="nonzero" />
	<path id="矢量 481" d="M172.794 80.2318L169.402 82.6355L161.892 83.5999L140.206 77.6947L121.75 72.9764L92.0362 68.4214L87.237 65.2908L86.3334 60.4984L85.6224 46.1508L83.8745 22.5596L85.4446 9.41388L91.9029 1.9656L106.893 1.25342L151.02 5.60072L165.24 8.00434L177.075 13.1974L182.304 23.1976L183.74 44.6522L172.794 80.2318Z" fill-rule="nonzero" stroke="rgb(0,0,0)" stroke-width="1.000000" />
	<g id="组合 96">
		<path id="矢量 482" d="M94.7667 229.436C94.6333 229.362 94.1742 229.229 93.7298 229.154C92.7225 228.976 91.5375 228.561 90.4858 228.012C89.4638 227.463 87.2715 225.371 86.4272 224.11C85.5089 222.745 84.1165 219.881 84.1165 219.362C84.1165 219.214 84.0128 219.006 83.8943 218.902C83.761 218.798 83.6721 218.472 83.6721 218.116C83.6721 217.789 83.5832 217.181 83.4647 216.765C83.0796 215.4 82.887 212.374 82.8574 206.81C82.8426 202.017 82.813 201.275 82.5908 200.949C82.4575 200.741 82.2205 200.281 82.0427 199.91C81.8798 199.539 81.6872 199.139 81.6132 199.02C81.2873 198.412 79.8949 194.91 79.3172 193.234C79.1987 192.863 78.9469 192.195 78.784 191.75C78.6062 191.305 78.4285 190.8 78.3988 190.637C78.2655 190.118 77.7175 188.293 77.4064 187.447C77.2583 187.002 77.0805 186.394 77.0213 186.112C76.9176 185.607 76.7547 185.103 76.3251 183.812C76.1474 183.278 75.8955 182.313 75.2882 179.88C75.1845 179.435 75.0216 178.767 74.9179 178.396C74.2662 175.889 74.0588 175.013 73.9107 174.094C73.8514 173.723 73.7477 173.337 73.6885 173.218C73.6144 173.114 73.5107 172.625 73.4367 172.15C73.3626 171.675 73.2441 170.874 73.17 170.399C73.096 169.924 72.9923 169.45 72.933 169.346C72.7849 169.093 72.3257 165.785 72.148 163.485C72.0887 162.758 71.9702 162.046 71.8962 161.927C71.8221 161.808 71.7036 160.933 71.6592 159.998C71.5999 159.063 71.4814 157.862 71.3925 157.328C71.2296 156.393 71.2148 150.695 71.3777 150.206C71.437 150.028 71.2444 149.968 70.4149 149.909C69.8372 149.864 69.2744 149.761 69.1559 149.686C69.0374 149.612 68.5337 149.493 68.0449 149.434C66.771 149.286 65.4824 149.078 64.6677 148.885C63.0235 148.499 58.9797 147.772 58.5649 147.713C58.165 147.639 57.6762 147.52 57.4984 147.416C57.3207 147.312 56.9504 147.238 56.6837 147.238C56.4171 147.223 56.032 147.134 55.8246 147.016C55.6172 146.897 48.2702 145.013 48.0036 145.013C47.7222 145.013 47.2926 144.924 47.0408 144.805C46.5964 144.627 45.9299 144.419 44.7152 144.122C43.9746 143.944 39.4272 142.268 38.494 141.956C36.7461 141.407 36.0499 141.14 35.3537 140.769C35.1464 140.651 34.8649 140.562 34.7316 140.562C34.5983 140.562 34.3761 140.502 34.228 140.428C33.7984 140.191 32.6727 139.716 31.9024 139.434C31.5025 139.285 31.0285 139.078 30.8655 138.974C30.7026 138.87 30.436 138.781 30.2434 138.781C30.0657 138.781 29.8879 138.722 29.8435 138.648C29.799 138.588 29.4435 138.41 29.0584 138.262C28.2289 137.965 27.3698 137.594 26.1255 136.986C25.6367 136.748 25.1924 136.555 25.1183 136.555C25.0146 136.555 23.3556 135.814 22.615 135.428C22.4076 135.309 22.1558 135.22 22.0669 135.22C21.9929 135.22 21.5781 135.027 21.1634 134.775C20.7486 134.538 18.1268 133.38 17.3862 133.069C15.816 132.416 15.342 132.223 14.6459 131.911C14.1719 131.704 12.5721 131.095 11.239 130.635C10.9575 130.532 10.4984 130.383 10.2169 130.324C9.9503 130.25 9.65405 130.131 9.56517 130.042C9.4763 129.953 9.29855 129.879 9.16523 129.879C9.04673 129.879 8.35055 129.537 7.62473 129.107C6.05461 128.202 4.36598 126.585 3.84755 125.502C3.65498 125.086 3.41798 124.656 3.32911 124.537C2.97361 124.077 2.35148 121.511 2.35148 120.561C2.3663 119.656 2.86992 117.519 3.21061 116.97C3.38836 116.688 3.59573 116.318 3.6698 116.154C3.83273 115.798 4.39561 115.264 4.76592 115.145C5.16586 114.997 5.06217 114.552 4.48448 113.988C3.40317 112.949 1.80342 109.997 1.22573 107.964C1.09242 107.489 0.514734 104.804 0.440672 103.988C0.351797 103.172 0.218484 101.673 0.144422 100.649C-0.0481406 98.2458 -0.0481406 87.0586 0.144422 85.1446C0.233297 84.3285 0.322172 82.7558 0.366609 81.6578C0.396234 80.5599 0.470297 79.5509 0.514734 79.4322C0.559172 79.3135 0.662859 78.3046 0.751734 77.2067C1.04798 73.1413 1.12205 72.3697 1.28498 71.9691C1.38867 71.7317 1.46273 70.975 1.46273 70.2628C1.47755 69.4171 1.55161 68.8385 1.68492 68.6011C1.81823 68.3637 1.8923 67.7999 1.90711 67.0877C1.90711 66.4645 1.98117 65.9007 2.05523 65.8562C2.14411 65.8117 2.20336 65.4111 2.20336 64.9956C2.20336 64.5654 2.27742 63.9867 2.3663 63.7048C2.45517 63.4229 2.58848 62.7256 2.66255 62.1469C2.7218 61.5831 2.85511 60.6483 2.94398 60.0697C3.03286 59.5059 3.15136 58.6602 3.21061 58.215C3.26986 57.7699 3.40317 57.2506 3.50686 57.0726C3.61055 56.8945 3.68461 56.4346 3.68461 56.034C3.68461 55.6482 3.7883 55.1883 3.9068 55.0399C4.0253 54.8767 4.12898 54.5354 4.12898 54.2683C4.12898 54.0013 4.18823 53.749 4.2623 53.7045C4.32155 53.66 4.42523 53.3336 4.45486 52.9627C4.4993 52.5769 4.69186 52.1021 4.94367 51.7757C5.31398 51.2861 6.95817 50.0843 7.72842 49.7578C7.90617 49.6688 8.45423 49.3869 8.94305 49.1198C10.8835 48.0516 11.9055 47.5323 12.0389 47.5323C12.1129 47.5323 12.2907 47.4432 12.4092 47.3245C12.5425 47.2207 13.0461 46.9684 13.5349 46.7756C14.0237 46.5827 14.6607 46.2859 14.9421 46.1227C15.7568 45.6331 17.6528 45.0396 17.9787 45.1583C18.4527 45.3364 19.8895 45.5737 20.0228 45.4996C20.082 45.4699 20.1265 44.9654 20.1265 44.4016C20.1265 43.823 20.2302 43.1404 20.3487 42.8289C20.4672 42.547 20.5709 42.2057 20.5709 42.087C20.5709 41.4638 22.3928 39.7576 23.3852 39.446C23.7259 39.3421 27.6068 37.532 28.4659 37.072C28.7029 36.9533 28.9695 36.8495 29.088 36.8495C29.1917 36.8495 29.3547 36.7456 29.4584 36.6269C29.562 36.5082 29.799 36.4044 29.9768 36.4044C30.1694 36.4044 30.3471 36.3153 30.3915 36.2115C30.4212 36.1225 30.7174 35.9444 31.0285 35.8405C31.3544 35.7367 32.4801 35.2174 33.5318 34.6981C34.5983 34.1788 35.7981 33.615 36.198 33.4369C36.6128 33.2589 37.7089 32.7396 38.6421 32.2945C40.864 31.2262 41.7231 30.8256 44.0487 29.7276C46.1817 28.7335 46.389 28.6445 47.974 27.9026C48.5813 27.6207 49.7811 27.0569 50.6402 26.6415C51.4994 26.2409 52.5955 25.7216 53.0843 25.499C55.2469 24.5049 56.506 23.9114 56.7134 23.7779C56.8319 23.7037 57.0837 23.5702 57.2762 23.496C57.4688 23.4218 58.002 23.1696 58.4612 22.9619C58.9204 22.7541 59.5129 22.4871 59.7499 22.3832C60.0017 22.2645 60.8609 21.8639 61.6755 21.4781C63.9419 20.4247 65.038 19.9202 67.1562 18.9707C68.1338 18.5404 69.852 17.7243 70.1927 17.5314C70.3112 17.4721 70.5186 17.3682 70.6371 17.3237C71.9998 16.7896 73.5848 16.0922 76.6362 14.6679C77.2139 14.4156 77.8508 14.1486 78.0582 14.104C78.2655 14.0447 78.6803 13.837 78.9913 13.6293C79.2876 13.4215 79.6283 13.2583 79.7468 13.2583C79.8653 13.2583 80.3837 13.0506 80.8874 12.7984C81.4058 12.5313 82.0279 12.2346 82.2649 12.1307C82.5167 12.0268 83.0796 11.7746 83.5388 11.5669C83.9832 11.3592 84.7238 11.0624 85.1534 10.8844C85.894 10.5876 86.5161 10.2909 87.079 9.97931C87.1975 9.90512 87.4048 9.80126 87.5233 9.75675C87.6418 9.71224 87.9529 9.59354 88.1899 9.48968C88.4417 9.37098 88.9305 9.16326 89.3008 9.02973C89.6712 8.88136 90.3822 8.56977 90.9006 8.33238C91.4042 8.10982 91.8634 7.91694 91.9375 7.91694C91.9967 7.91694 92.4411 7.70922 92.9151 7.47182C93.3891 7.21959 93.9075 7.02671 94.0408 7.02671C94.189 7.02671 94.4704 6.89317 94.6778 6.71512C94.9 6.55192 95.1518 6.43322 95.2555 6.46289C95.3592 6.47773 95.7147 6.40354 96.0257 6.29968C97.0774 5.92875 98.0106 6.01778 98.9734 6.56675C99.4622 6.84866 99.9214 7.24926 100.055 7.48666C100.321 8.0208 100.603 8.0208 101.284 7.48666C101.58 7.2641 102.736 6.61126 103.862 6.06229C104.987 5.51331 105.935 4.99401 105.98 4.93466C106.024 4.86047 106.172 4.80113 106.335 4.80113C106.483 4.80113 107.002 4.60824 107.491 4.35601C107.994 4.11861 108.424 3.91089 108.468 3.91089C108.513 3.91089 109.135 3.62899 109.846 3.30257C110.572 2.96131 111.579 2.48652 112.097 2.24913C112.631 2.01173 113.267 1.72983 113.504 1.61113C115.089 0.85443 116.511 0.617035 116.852 1.01764C116.956 1.13634 117.193 1.2402 117.371 1.2402C117.548 1.2402 117.874 1.37373 118.082 1.53694C118.6 1.95238 118.911 1.90787 119.355 1.37373C119.592 1.10666 120.215 0.720896 120.911 0.409314C122.022 -0.065476 122.111 -0.0803132 122.525 0.127408C122.777 0.246105 123.088 0.349966 123.236 0.349966C123.562 0.349966 124.821 1.86336 124.94 2.3975C124.999 2.62006 125.117 2.90196 125.236 3.02066C125.517 3.34708 125.888 4.50438 125.888 5.0682C125.888 5.39461 125.977 5.57266 126.154 5.63201C126.377 5.70619 129.058 7.02671 129.591 7.32345C129.709 7.39764 129.917 7.48666 130.035 7.53117C130.154 7.59052 130.791 7.91694 131.442 8.25819C132.094 8.61429 133.101 9.14843 133.664 9.46001C134.242 9.77159 135.071 10.2464 135.531 10.5283C135.99 10.8102 136.419 11.0327 136.464 11.0327C136.523 11.0327 136.79 11.196 137.042 11.3888C137.308 11.5966 137.678 11.8191 137.886 11.9081C138.301 12.0862 138.419 12.1604 139.811 13.0506C140.345 13.3919 141.056 13.8221 141.396 14.015C141.737 14.2079 142.655 14.7717 143.441 15.2614C144.226 15.751 144.981 16.2258 145.114 16.3C145.262 16.389 145.781 16.7302 146.285 17.0863C146.788 17.4276 147.247 17.7095 147.307 17.7095C147.351 17.7095 147.632 17.9172 147.914 18.1546C148.181 18.4068 148.492 18.5997 148.566 18.5997C148.655 18.5997 148.98 18.7926 149.291 19.0448C149.603 19.2822 149.914 19.49 149.988 19.49C150.077 19.49 150.254 19.6383 150.417 19.8015C150.565 19.9796 151.128 20.4099 151.661 20.7808C152.195 21.1369 153.187 21.8342 153.883 22.3239C154.58 22.8135 155.379 23.3773 155.661 23.585C155.942 23.7779 156.787 24.4159 157.542 25.0094C158.297 25.6029 159.586 26.6266 160.43 27.2646C161.275 27.9175 162.519 28.9264 163.2 29.4902C163.897 30.0689 164.637 30.6772 164.845 30.8404C165.067 31.0036 165.63 31.4784 166.118 31.9087C166.592 32.339 167.57 33.1698 168.266 33.7633C172.562 37.4281 176.191 40.7665 177.198 41.9683C177.494 42.3392 177.613 42.3838 177.835 42.2502C178.028 42.1315 178.087 41.9386 178.057 41.5825C177.998 40.8852 178.517 40.1433 179.39 39.6982C181.479 38.6151 183.271 39.6092 184.323 42.4134C184.53 42.9772 184.767 43.5114 184.841 43.5856C184.93 43.6746 184.99 43.8675 184.99 44.0455C184.99 44.2236 185.093 44.4906 185.212 44.6538C185.33 44.8022 185.434 45.1435 185.434 45.3957C185.434 45.6479 185.538 45.9447 185.656 46.0485C185.775 46.1524 185.878 46.4788 185.878 46.7904C185.878 47.102 185.982 47.4284 186.101 47.5323C186.219 47.6361 186.323 47.9625 186.323 48.2593C186.338 48.556 186.426 48.9566 186.545 49.1644C186.663 49.3721 186.752 49.7875 186.767 50.1139C186.767 50.6629 186.886 50.7964 189.019 52.8588C192.988 56.672 196.988 60.9154 196.988 61.3012C196.988 61.3754 197.121 61.7463 197.299 62.1321C197.728 63.1113 198.025 64.3428 198.025 65.1589C198.025 65.5446 198.113 66.1529 198.232 66.5239C198.336 66.8948 198.439 67.6663 198.439 68.2598C198.454 68.8533 198.528 69.4616 198.602 69.6248C198.691 69.7881 198.765 70.5151 198.765 71.2421C198.765 72.0433 198.854 72.8148 198.987 73.2006C199.121 73.6012 199.21 74.3728 199.21 75.263C199.21 76.0494 199.284 76.9248 199.373 77.2067C199.535 77.7111 199.595 78.4678 199.935 83.3641C200.024 84.6698 200.143 85.9013 200.187 86.109C200.276 86.4799 200.365 88.1268 200.72 95.7532C200.928 100.219 200.957 105.457 200.78 106.881C200.483 109.285 199.254 111.124 197.314 112.089C196.647 112.415 196.395 112.623 196.425 112.786C196.499 113.217 197.062 113.142 198.069 112.608C198.928 112.148 199.18 112.074 200.069 112.074L201.091 112.074L202.083 112.979C202.631 113.484 203.165 114.062 203.268 114.285C203.387 114.493 203.653 115.442 203.861 116.377C204.083 117.312 204.35 118.499 204.468 119.003C204.587 119.508 204.661 120.012 204.616 120.131C204.572 120.235 204.631 120.635 204.749 120.991C204.883 121.347 204.986 121.941 204.986 122.312C204.986 122.683 205.09 123.143 205.209 123.35C205.327 123.573 205.416 124.137 205.431 124.701C205.431 125.368 205.505 125.739 205.638 125.858C205.757 125.962 205.89 126.422 205.92 126.956C205.964 127.46 206.068 128.306 206.157 128.84C206.557 131.392 206.631 131.956 206.749 132.935C206.808 133.514 206.927 134.078 207.001 134.196C207.075 134.315 207.134 134.82 207.149 135.339C207.149 135.843 207.238 136.348 207.327 136.437C207.431 136.541 207.505 136.941 207.505 137.342C207.505 137.742 207.608 138.469 207.742 138.959C207.86 139.449 207.934 139.938 207.905 140.027C207.86 140.131 207.934 140.576 208.038 141.021C208.156 141.467 208.216 142.075 208.171 142.386C208.112 142.772 208.171 143.054 208.319 143.277C208.453 143.47 208.541 143.93 208.541 144.419C208.556 144.864 208.645 145.398 208.764 145.606C208.882 145.814 208.971 146.363 208.986 146.838C208.986 147.312 209.06 147.847 209.164 148.025C209.252 148.203 209.386 148.855 209.445 149.464C209.564 150.814 209.83 152.594 210.023 153.396C210.097 153.722 210.23 154.657 210.319 155.473C210.408 156.289 210.586 157.342 210.704 157.817C210.823 158.277 210.897 158.722 210.837 158.796C210.793 158.885 210.852 159.227 210.986 159.583C211.104 159.939 211.208 160.607 211.208 161.081C211.208 161.556 211.267 162.061 211.356 162.209C211.43 162.357 211.534 162.877 211.563 163.366C211.608 163.856 211.711 164.435 211.8 164.657C211.874 164.88 211.948 165.414 211.948 165.859C211.948 166.304 212.022 166.838 212.111 167.076C212.304 167.565 212.585 169.776 212.556 170.562C212.541 170.874 212.63 171.364 212.763 171.66C212.882 171.957 212.985 172.595 212.985 173.085C212.985 173.574 213.074 174.108 213.163 174.286C213.267 174.464 213.4 175.117 213.459 175.726C213.518 176.334 213.637 177.343 213.711 177.951C213.8 178.56 213.904 179.554 213.963 180.147C214.022 180.741 214.126 181.26 214.185 181.304C214.259 181.349 214.318 181.794 214.318 182.299C214.333 182.818 214.422 183.382 214.541 183.589C214.674 183.827 214.763 184.405 214.763 185.147C214.763 185.949 214.837 186.423 214.985 186.616C215.34 187.091 215.296 189.851 214.911 190.637C214.526 191.438 213.933 192.091 213.281 192.418C213 192.566 212.674 192.759 212.556 192.848C212.437 192.937 212.141 193.026 211.889 193.041C211.637 193.056 211.03 193.145 210.541 193.234C210.052 193.323 209.252 193.426 208.764 193.471C208.275 193.53 207.742 193.664 207.579 193.768C207.416 193.886 206.957 193.975 206.542 193.975C206.097 193.975 205.668 194.064 205.49 194.198C205.283 194.361 204.749 194.406 203.357 194.421C201.668 194.421 201.446 194.45 200.913 194.777C200.054 195.296 199.284 195.667 197.951 196.201C197.299 196.453 196.573 196.765 196.321 196.869C196.084 196.973 195.581 197.106 195.21 197.151C194.84 197.195 194.262 197.269 193.907 197.329C193.225 197.432 191.937 197.21 191.092 196.854C190.47 196.587 189.893 196.587 189.241 196.869C188.945 196.987 188.456 197.091 188.159 197.091C187.863 197.091 187.419 197.18 187.167 197.299C186.589 197.566 185.182 197.922 184.13 198.056C183.153 198.189 183.108 198.278 183.079 200.266C183.049 202.017 182.323 207.715 182.072 208.115C182.012 208.204 181.923 208.546 181.864 208.887C181.716 209.718 181.049 211.691 180.59 212.67C179.094 215.875 177.243 217.7 173.525 219.629C171.703 220.579 169.851 221.306 166.548 222.374C164.474 223.056 163.63 223.294 162.623 223.501C162.178 223.605 161.512 223.739 161.141 223.828C159.853 224.095 157.942 224.392 155.957 224.614C154.861 224.733 153.424 224.911 152.758 224.985C152.106 225.074 150.936 225.134 150.165 225.134C149.41 225.134 148.506 225.208 148.181 225.297C147.855 225.386 146.551 225.504 145.292 225.579C143.085 225.697 140.893 225.875 137.886 226.172C135.442 226.424 131.368 226.795 129.443 226.929C128.421 227.003 127.399 227.137 127.162 227.211C126.925 227.3 126.199 227.359 125.532 227.359C124.866 227.374 124.036 227.433 123.666 227.522C123.296 227.597 122.066 227.715 120.926 227.789C118.941 227.923 118.244 227.997 113.741 228.487C112.645 228.605 111.238 228.694 110.631 228.694C110.024 228.694 108.853 228.798 108.053 228.917C107.239 229.036 106.217 229.14 105.758 229.14C105.298 229.14 104.202 229.243 103.299 229.362C101.462 229.6 95.1518 229.659 94.7667 229.436ZM102.928 227.878C104.187 227.745 105.758 227.582 106.409 227.507C107.061 227.433 108.098 227.374 108.705 227.359C109.313 227.359 110.423 227.255 111.149 227.137C111.89 227.018 112.927 226.914 113.46 226.914C113.993 226.914 115.756 226.78 117.385 226.632C119 226.469 121.207 226.261 122.259 226.172C123.325 226.083 124.688 225.95 125.295 225.861C125.903 225.786 127.369 225.653 128.539 225.579C129.709 225.49 130.702 225.401 130.761 225.371C130.805 225.341 132.316 225.178 134.109 225C135.901 224.822 138.404 224.585 139.663 224.466C142.715 224.169 145.085 223.961 147.514 223.798C148.61 223.724 149.914 223.59 150.402 223.501C150.891 223.427 151.765 223.353 152.328 223.353C152.906 223.353 153.839 223.279 154.402 223.19C154.979 223.101 155.942 222.982 156.55 222.908C157.868 222.76 160.06 222.403 160.993 222.196C161.364 222.122 162.193 221.929 162.845 221.795C163.497 221.662 164.208 221.454 164.43 221.335C164.637 221.217 164.933 221.128 165.067 221.128C165.2 221.128 165.793 220.964 166.37 220.771C166.963 220.564 167.733 220.326 168.103 220.237C168.474 220.133 169.111 219.911 169.511 219.718C169.925 219.525 170.681 219.199 171.199 218.976C171.732 218.768 172.784 218.205 173.554 217.745C174.325 217.285 175.11 216.81 175.287 216.706C175.48 216.602 176.191 215.979 176.872 215.296C177.865 214.317 178.235 213.828 178.739 212.804C179.494 211.261 179.983 209.866 180.324 208.293C180.457 207.64 180.664 206.735 180.768 206.29C180.961 205.489 181.242 202.789 181.612 198.056C181.879 194.836 181.849 184.02 181.583 183.04C181.479 182.64 181.346 182.269 181.286 182.18C181.079 181.883 180.101 179.524 180.101 179.301C180.101 179.168 179.998 178.931 179.879 178.782C179.761 178.619 179.657 178.367 179.657 178.203C179.657 178.055 179.568 177.744 179.45 177.536C179.331 177.313 179.124 176.838 178.991 176.468C178.842 176.097 178.635 175.592 178.531 175.325C178.413 175.073 178.324 174.791 178.324 174.717C178.324 174.628 178.235 174.375 178.117 174.138C177.998 173.916 177.746 173.233 177.569 172.64C177.391 172.046 177.198 171.527 177.139 171.497C177.065 171.453 176.976 171.141 176.917 170.785C176.858 170.444 176.709 169.969 176.591 169.731C176.472 169.509 176.147 168.53 175.88 167.58C175.613 166.63 175.243 165.354 175.065 164.746C174.902 164.138 174.562 163.025 174.31 162.268C174.073 161.512 173.88 160.755 173.88 160.562C173.88 160.384 173.791 159.969 173.673 159.627C173.554 159.301 173.347 158.5 173.214 157.847C173.08 157.194 172.903 156.467 172.814 156.215C172.725 155.977 172.606 155.384 172.562 154.924C172.503 154.449 172.384 153.989 172.28 153.885C172.177 153.781 172.103 153.44 172.103 153.099C172.103 152.758 172.029 152.416 171.925 152.313C171.821 152.209 171.688 151.749 171.629 151.289C171.555 150.814 171.436 150.013 171.362 149.508C171.273 148.989 171.155 148.158 171.066 147.654C170.992 147.134 170.858 146.244 170.784 145.651C170.71 145.072 170.577 144.449 170.488 144.286C170.399 144.122 170.325 143.47 170.325 142.832C170.31 142.105 170.236 141.541 170.103 141.303C169.985 141.081 169.896 140.502 169.881 139.894C169.881 139.33 169.777 138.588 169.659 138.262C169.54 137.935 169.496 137.431 169.54 137.134C169.585 136.852 169.511 135.977 169.392 135.205C169.274 134.434 169.17 133.618 169.17 133.365C169.14 131.748 169.022 129.997 168.933 129.923C168.874 129.864 168.222 129.834 167.466 129.864C166.489 129.894 165.941 129.834 165.556 129.671C165.245 129.537 164.608 129.434 164.134 129.434C163.66 129.434 162.934 129.345 162.534 129.226C162.134 129.107 161.156 128.959 160.356 128.914C159.571 128.855 158.875 128.751 158.831 128.677C158.786 128.603 158.475 128.543 158.135 128.543C157.794 128.543 157.379 128.44 157.231 128.321C157.068 128.202 156.668 128.098 156.342 128.098C156.002 128.098 155.542 127.994 155.305 127.876C155.083 127.757 154.609 127.653 154.268 127.653C153.928 127.653 153.528 127.564 153.365 127.445C153.202 127.342 152.802 127.208 152.476 127.178C152.15 127.134 151.691 127.03 151.439 126.941C151.202 126.852 150.669 126.718 150.254 126.629C149.44 126.451 146.714 125.606 145.07 125.027C144.507 124.819 143.84 124.612 143.589 124.552C142.73 124.315 140.315 123.454 138.701 122.787C137.812 122.43 136.805 122.03 136.493 121.911C136.168 121.792 135.56 121.54 135.146 121.332C134.716 121.14 134.316 120.976 134.257 120.976C133.916 120.976 124.525 116.273 123.236 115.457C122.496 114.997 121.962 114.938 121.503 115.249C121.34 115.368 120.94 115.516 120.614 115.576C120.303 115.62 119.8 115.754 119.518 115.858C118.082 116.377 114.097 117.564 112.853 117.846C112.571 117.92 112.171 118.039 111.964 118.128C111.757 118.202 111.194 118.395 110.705 118.528C110.216 118.677 109.579 118.87 109.298 118.973C108.794 119.151 107.52 119.567 105.298 120.249C104.691 120.442 104.054 120.68 103.891 120.784C103.728 120.887 103.491 120.976 103.343 120.976C103.21 120.976 102.839 121.08 102.528 121.214C102.217 121.347 101.729 121.57 101.447 121.689C101.166 121.822 100.736 122 100.484 122.104C99.6844 122.445 98.7216 122.876 97.8773 123.261C97.4181 123.469 96.9885 123.647 96.9145 123.647C96.7663 123.647 95.0185 124.493 92.293 125.873C90.6192 126.718 89.449 127.208 89.1083 127.208C88.9453 127.208 88.6935 127.297 88.575 127.401C88.2788 127.653 86.4568 128.098 85.7458 128.098C85.1682 128.098 84.5609 128.44 84.5609 128.766C84.5609 128.87 84.783 129.226 85.0497 129.537C85.3015 129.864 85.657 130.383 85.8051 130.71C85.9532 131.021 86.1606 131.422 86.2347 131.585C86.5754 132.253 86.6938 133.187 86.6938 135.443L86.7087 137.817L86.0569 139.597C85.7014 140.576 85.3163 141.481 85.2126 141.6C85.1089 141.719 84.8571 142.223 84.6349 142.713C84.2794 143.499 84.2498 143.722 84.3239 144.642C84.4868 146.615 84.7386 148.781 85.1534 151.689C85.2274 152.224 85.3459 153.054 85.42 153.544C85.4792 154.034 85.6125 154.583 85.7162 154.761C85.8199 154.939 85.894 155.339 85.894 155.651C85.894 155.963 85.9977 156.348 86.1162 156.497C86.2347 156.66 86.3383 156.942 86.3383 157.12C86.3383 157.313 86.5753 158.277 86.8716 159.286C87.4197 161.17 87.4493 161.274 87.5974 161.972C87.6863 162.446 87.9825 162.476 88.5306 162.075C89.1083 161.66 90.4118 161.17 91.4338 161.022C91.9227 160.948 92.3818 160.829 92.4855 160.74C92.6781 160.577 94.5889 160.325 96.7812 160.147C97.5958 160.087 98.6031 159.969 99.003 159.88C99.4178 159.791 100.573 159.642 101.595 159.553C102.617 159.479 104.113 159.301 104.928 159.182C105.743 159.063 106.972 158.9 107.668 158.826C108.365 158.752 109.12 158.618 109.342 158.529C109.579 158.44 110.083 158.366 110.468 158.366C110.868 158.366 111.475 158.262 111.816 158.144C112.157 158.025 112.764 157.921 113.149 157.921C113.534 157.921 114.141 157.817 114.482 157.698C114.823 157.58 115.326 157.476 115.593 157.476C115.845 157.476 116.897 157.298 117.904 157.09C118.911 156.882 120.111 156.645 120.555 156.586C121.918 156.393 123.488 156.052 125.666 155.473C126.406 155.28 127.413 155.028 128.406 154.79C129.458 154.553 132.361 153.781 133.368 153.47C133.946 153.292 134.642 153.099 134.923 153.025C135.205 152.951 135.916 152.758 136.479 152.58C137.056 152.402 137.782 152.209 138.108 152.135C138.434 152.06 139.1 151.867 139.589 151.689C140.078 151.511 140.715 151.318 140.996 151.244C142.004 150.992 143.1 150.666 144.181 150.28C144.774 150.072 145.396 149.909 145.544 149.909C145.707 149.909 145.885 149.85 145.973 149.79C146.151 149.612 148.832 148.796 150.625 148.351C151.158 148.217 151.795 148.039 152.032 147.95C152.284 147.876 152.743 147.758 153.069 147.683C153.395 147.624 153.928 147.505 154.254 147.416C154.58 147.327 155.409 147.149 156.105 147.016C156.801 146.882 157.705 146.674 158.105 146.571C158.52 146.452 160.119 146.289 161.66 146.2C164.726 146.036 165.422 146.096 167.141 146.734C167.718 146.941 168.326 147.149 168.503 147.194C168.681 147.238 168.977 147.431 169.155 147.639C169.451 147.936 169.466 148.025 169.288 148.143C169.051 148.292 169.022 148.277 167.955 147.921C164.785 146.867 162.489 146.971 155.957 148.44C155.261 148.603 154.402 148.796 154.031 148.885C153.143 149.078 151.824 149.464 151.365 149.642C151.158 149.731 150.802 149.85 150.551 149.909C150.314 149.983 149.914 150.102 149.662 150.191C149.425 150.265 148.521 150.547 147.662 150.799C146.803 151.066 145.87 151.363 145.588 151.467C145.307 151.571 144.7 151.778 144.255 151.927C143.811 152.06 143.204 152.253 142.922 152.372C142.641 152.476 141.707 152.773 140.848 153.025C139.989 153.277 139.1 153.559 138.849 153.648C138.612 153.722 138.138 153.841 137.812 153.9C137.471 153.959 137.116 154.063 136.997 154.138C136.893 154.197 136.553 154.316 136.271 154.375C135.975 154.434 135.545 154.553 135.294 154.627C135.057 154.716 134.449 154.894 133.961 155.043C133.472 155.176 132.835 155.369 132.553 155.473C132.272 155.577 131.531 155.77 130.924 155.918C129.887 156.155 129.25 156.319 127.443 156.808C125.754 157.268 124.851 157.476 121.666 158.144C121.014 158.277 120.066 158.485 119.563 158.604C119.059 158.722 118.363 158.811 118.007 158.811C117.652 158.826 117.104 158.915 116.778 159.034C116.452 159.153 115.993 159.256 115.771 159.256C115.534 159.256 115.075 159.316 114.734 159.39C113.638 159.642 111.209 159.998 109.15 160.221C108.053 160.339 106.35 160.547 105.372 160.681C104.395 160.799 102.958 160.963 102.188 161.037C101.417 161.111 100.514 161.245 100.188 161.319C99.8622 161.408 99.2697 161.482 98.8549 161.482C98.455 161.482 97.818 161.556 97.4625 161.645C97.107 161.719 96.0702 161.853 95.1666 161.927C93.1373 162.105 93.3595 162.075 90.5599 162.713C89.1379 163.055 88.3084 163.515 87.79 164.257C86.9901 165.429 86.7531 166.274 86.7087 168.159C86.679 169.093 86.5902 170.503 86.5013 171.275C86.4124 172.046 86.3383 173.485 86.3383 174.465C86.3383 175.444 86.2643 176.853 86.1754 177.58C86.1013 178.322 85.968 180.058 85.894 181.438C85.8199 182.833 85.657 185.162 85.5385 186.631C85.4052 188.1 85.2719 189.94 85.2126 190.711C85.1682 191.483 85.0645 192.759 84.9904 193.53C84.5757 197.789 84.2942 209.925 84.546 212.744C84.7682 215.282 85.0052 217.151 85.183 217.641C85.257 217.893 85.3755 218.294 85.4496 218.531C85.5829 218.991 86.0273 220.193 86.3235 220.831C86.9012 222.107 88.9157 224.955 89.5378 225.386C89.7452 225.534 90.0859 225.786 90.3081 225.964C91.0487 226.543 92.6337 227.3 93.5224 227.493C94.0112 227.597 94.6778 227.775 95.0037 227.878C95.848 228.145 100.158 228.145 102.928 227.878ZM83.3166 196.498C83.3166 195.4 83.4055 193.975 83.4943 193.337C83.598 192.699 83.6721 191.527 83.6721 190.741C83.6721 189.94 83.7462 189.064 83.835 188.782C83.9239 188.5 84.0572 187.403 84.1313 186.334C84.1905 185.281 84.3831 182.432 84.5609 180.028C84.7238 177.625 84.9312 173.752 85.0052 171.423C85.0941 169.093 85.2274 166.957 85.3015 166.66C85.3904 166.363 85.4496 165.918 85.4496 165.681C85.4496 165.429 85.5533 165.147 85.6718 165.043C85.7903 164.939 85.894 164.731 85.894 164.583C85.894 164.42 86.0865 164.034 86.3235 163.708L86.7383 163.129L86.4124 162.417C85.9977 161.541 85.0052 158.633 85.0052 158.307C85.0052 158.173 84.946 157.951 84.8719 157.802C84.6942 157.476 84.1165 154.79 84.1165 154.316C84.1165 154.108 84.0128 153.707 83.8943 153.425C83.7758 153.129 83.6721 152.52 83.6721 152.075C83.6721 151.63 83.598 151.081 83.524 150.873C83.4351 150.651 83.3314 149.672 83.2722 148.692C83.2129 147.431 83.124 146.897 82.9907 146.838C82.8722 146.793 82.5019 147.06 82.1464 147.416C81.7909 147.758 81.3317 148.143 81.1392 148.232C80.1763 148.722 78.1026 149.464 77.6879 149.464C77.436 149.464 77.0805 149.568 76.9028 149.686C76.6806 149.835 76.0733 149.909 74.6217 149.939C72.7257 149.983 72.6368 149.998 72.6812 150.28C72.7109 150.443 72.859 152.684 73.0071 155.265C73.1552 157.847 73.3182 160.102 73.3774 160.28C73.4663 160.592 73.6589 162.283 73.8662 164.598C73.9255 165.295 74.0292 165.948 74.0884 166.037C74.1477 166.141 74.2662 166.705 74.3402 167.298C74.4143 167.892 74.6217 169.212 74.7846 170.236C74.9623 171.26 75.1401 172.476 75.1993 172.936C75.2586 173.411 75.3919 173.871 75.4956 173.975C75.5993 174.079 75.6733 174.346 75.6733 174.598C75.6733 174.835 75.7326 175.236 75.8067 175.488C75.8955 175.74 76.0289 176.349 76.1177 176.838C76.2659 177.654 76.5177 178.604 76.8732 179.821C76.9472 180.073 77.0065 180.399 77.0065 180.563C77.0065 180.726 77.1102 180.993 77.2287 181.156C77.3472 181.304 77.4509 181.646 77.4509 181.913C77.4509 182.18 77.5101 182.536 77.5842 182.729C77.6582 182.922 77.8952 183.708 78.1026 184.48C78.31 185.251 78.7247 186.586 79.0062 187.447C79.3024 188.308 79.7616 189.702 80.043 190.563C80.3097 191.423 80.7244 192.596 80.9318 193.159C81.154 193.738 81.3613 194.332 81.4058 194.495C81.4502 194.658 81.5687 194.999 81.6872 195.266C81.8057 195.518 81.8946 195.83 81.8946 195.949C81.8946 196.082 81.9538 196.216 82.0279 196.26C82.102 196.305 82.2057 196.587 82.2649 196.898C82.4427 197.848 82.7982 198.59 83.0648 198.545C83.2722 198.501 83.3018 198.219 83.3166 196.498ZM184.93 196.186C185.567 196.008 186.471 195.815 186.915 195.741C188.263 195.518 188.396 195.474 188.396 195.192C188.396 195.044 188.145 194.762 187.819 194.569C186.604 193.797 185.004 190.963 184.205 188.174C184.071 187.729 183.819 187.225 183.656 187.076C183.39 186.824 183.36 186.824 183.271 187.061C183.212 187.21 183.257 188.352 183.36 189.598C183.508 191.438 183.508 192.299 183.36 193.975C183.271 195.118 183.227 196.156 183.271 196.275C183.375 196.572 183.538 196.557 184.93 196.186ZM195.284 195.4C196.114 195.207 196.825 194.984 197.506 194.702C197.669 194.628 197.965 194.51 198.173 194.421C198.38 194.332 198.75 194.153 198.987 194.005C199.239 193.857 199.802 193.53 200.261 193.278C202.291 192.165 205.12 189.109 205.372 187.773C205.49 187.121 205.312 184.257 205.105 183.753C205.031 183.545 204.942 183.07 204.912 182.699C204.883 182.328 204.794 181.764 204.705 181.438C204.631 181.112 204.483 180.474 204.409 180.028C204.335 179.583 204.113 178.515 203.935 177.654C203.757 176.794 203.594 175.933 203.579 175.726C203.564 175.518 203.476 175.206 203.387 175.028C203.283 174.85 203.209 174.42 203.209 174.064C203.209 173.708 203.12 173.292 203.002 173.129C202.898 172.966 202.765 172.461 202.72 172.016C202.676 171.571 202.542 170.77 202.409 170.236C201.787 167.55 201.535 166.378 201.431 165.577C201.372 165.102 201.239 164.642 201.15 164.553C201.061 164.464 200.987 164.138 200.987 163.811C200.987 163.5 200.913 163.099 200.809 162.921C200.72 162.743 200.587 162.298 200.528 161.927C200.469 161.556 200.365 161.067 200.276 160.814C200.187 160.577 199.965 159.538 199.787 158.515C199.61 157.491 199.402 156.601 199.328 156.526C199.269 156.437 199.21 156.155 199.21 155.888C199.21 155.606 199.106 155.146 198.987 154.85C198.869 154.568 198.765 154.108 198.765 153.856C198.765 153.603 198.676 153.262 198.558 153.099C198.454 152.936 198.321 152.505 198.276 152.135C198.158 151.17 197.654 148.692 197.299 147.357C197.121 146.719 196.988 146.022 196.988 145.784C196.988 145.562 196.884 145.235 196.766 145.072C196.647 144.924 196.543 144.612 196.543 144.404C196.543 144.182 196.44 143.766 196.321 143.484C196.203 143.188 196.099 142.757 196.099 142.55C196.099 142.327 196.04 141.941 195.966 141.689C195.64 140.651 195.447 139.879 195.432 139.671C195.432 139.553 195.284 138.989 195.107 138.41C194.929 137.846 194.736 137.104 194.677 136.778C194.633 136.452 194.529 136.125 194.47 136.036C194.41 135.962 194.321 135.621 194.292 135.294C194.218 134.671 193.922 133.425 193.714 132.92C193.655 132.757 193.566 132.357 193.507 132.03C193.299 130.813 193.181 130.235 193.033 129.879C192.707 129.078 192.544 128.425 192.544 127.861C192.544 127.534 192.47 127.193 192.366 127.089C192.277 127 192.144 126.644 192.085 126.288C191.877 125.146 191.418 123.291 191.24 122.861C191.137 122.623 191.063 122.238 191.063 122C191.063 121.763 191.003 121.451 190.929 121.303C190.855 121.169 190.604 120.131 190.367 118.988C189.996 117.163 189.759 116.585 189.493 116.852C189.463 116.896 189.389 117.282 189.344 117.727C189.211 119.107 188.515 120.264 186.767 122.03C185.908 122.89 184.886 123.825 184.471 124.107C184.071 124.389 183.671 124.686 183.582 124.79C183.508 124.879 183.168 125.101 182.842 125.279C182.516 125.457 182.057 125.724 181.805 125.873C181.346 126.155 179.553 127.06 178.62 127.46C178.339 127.594 177.909 127.787 177.687 127.891C177.45 128.009 177.169 128.098 177.065 128.098C176.961 128.098 176.546 128.247 176.147 128.41C174.976 128.929 173.451 129.27 171.732 129.389C171.17 129.434 170.651 129.523 170.607 129.612C170.562 129.686 170.592 130.101 170.696 130.517C170.784 130.947 170.844 131.704 170.799 132.208C170.755 132.772 170.814 133.321 170.933 133.618C171.036 133.885 171.17 134.909 171.229 135.888C171.332 137.55 171.436 138.514 171.806 141.971C171.895 142.713 172.014 143.811 172.073 144.419C172.132 145.027 172.266 145.68 172.369 145.858C172.458 146.036 172.547 146.482 172.547 146.867C172.547 147.238 172.651 147.743 172.769 147.98C172.888 148.217 172.947 148.514 172.903 148.633C172.858 148.766 172.917 149.182 173.036 149.568C173.169 149.968 173.347 150.755 173.436 151.318C173.643 152.594 173.851 153.648 174.043 154.434C174.132 154.761 174.265 155.384 174.339 155.829C174.413 156.259 174.547 156.749 174.621 156.897C174.71 157.046 174.769 157.387 174.769 157.654C174.769 157.936 174.858 158.277 174.976 158.44C175.08 158.604 175.421 159.776 175.717 161.037C176.028 162.298 176.339 163.396 176.413 163.47C176.487 163.559 176.546 163.826 176.546 164.064C176.546 164.316 176.65 164.657 176.769 164.805C176.887 164.969 176.991 165.31 176.991 165.547C177.006 165.8 177.095 166.171 177.213 166.378C177.332 166.586 177.42 166.927 177.435 167.135C177.435 167.357 177.539 167.61 177.657 167.714C177.776 167.817 177.88 168.099 177.88 168.337C177.88 168.589 177.968 168.99 178.087 169.242C178.28 169.687 178.472 170.221 179.005 171.838C179.124 172.224 179.302 172.669 179.39 172.832C179.479 172.996 179.613 173.322 179.672 173.574C179.79 174.049 180.176 175.162 180.383 175.651C181.198 177.565 181.435 178.189 181.435 178.456C181.435 178.619 181.538 178.901 181.657 179.049C181.775 179.212 181.879 179.479 181.879 179.658C181.879 179.836 181.938 180.028 182.012 180.103C182.086 180.192 182.323 180.681 182.546 181.215C182.768 181.75 183.094 182.551 183.286 182.996C184.145 185.029 184.693 186.394 184.693 186.497C184.693 186.557 184.856 186.824 185.064 187.091C185.271 187.358 185.434 187.64 185.434 187.714C185.434 187.937 186.619 190.593 187.182 191.601C188.159 193.367 190.367 195.311 191.403 195.311C191.67 195.311 191.981 195.385 192.1 195.459C192.425 195.667 194.247 195.637 195.284 195.4ZM204.542 192.699C204.912 192.64 205.342 192.536 205.505 192.447C205.668 192.358 206.231 192.239 206.764 192.18C208.453 191.987 210.719 191.616 211.119 191.453C211.341 191.379 211.741 191.305 211.993 191.305C212.541 191.305 213.222 190.83 213.074 190.578C213.015 190.489 212.615 190.414 212.185 190.414C211.104 190.414 209.919 190.177 209.208 189.806C208.408 189.391 207.297 188.278 206.971 187.581C206.838 187.254 206.645 187.017 206.571 187.046C206.483 187.076 206.29 187.625 206.112 188.278C205.934 188.946 205.609 189.732 205.357 190.088C205.12 190.444 204.72 190.993 204.498 191.32C204.275 191.646 203.905 191.987 203.683 192.091C203.194 192.299 203.061 192.477 203.165 192.744C203.224 192.877 203.372 192.922 203.564 192.877C203.727 192.833 204.172 192.759 204.542 192.699ZM213.222 189.673C213.341 189.673 213.548 189.435 213.667 189.153C213.844 188.708 213.844 188.56 213.637 187.937C213.415 187.284 213.296 186.527 213.015 183.812C212.956 183.248 212.822 182.625 212.719 182.447C212.63 182.269 212.541 181.75 212.541 181.29C212.541 180.844 212.452 180.236 212.333 179.969C212.215 179.702 212.126 179.094 212.111 178.634C212.111 178.174 212.052 177.684 211.978 177.551C211.904 177.402 211.8 176.779 211.741 176.171C211.682 175.562 211.578 174.628 211.504 174.094C211.415 173.559 211.297 172.565 211.223 171.868C211.163 171.171 211.03 170.414 210.926 170.191C210.837 169.954 210.763 169.435 210.763 169.034C210.763 168.619 210.689 168.159 210.6 167.995C210.512 167.832 210.408 167.209 210.378 166.63C210.334 166.052 210.245 165.503 210.186 165.414C210.112 165.34 210.023 164.805 209.963 164.227C209.904 163.663 209.801 162.728 209.712 162.15C209.638 161.586 209.519 160.651 209.46 160.072C209.401 159.509 209.282 158.93 209.208 158.811C209.134 158.693 209.015 158.129 208.956 157.55C208.823 156.052 208.601 154.523 208.423 153.678C208.334 153.277 208.186 152.357 208.097 151.615C208.008 150.888 207.875 150.042 207.786 149.746C207.712 149.449 207.653 148.855 207.653 148.44C207.653 148.025 207.549 147.431 207.431 147.134C207.312 146.852 207.208 146.259 207.208 145.844C207.194 145.428 207.105 144.924 206.986 144.716C206.868 144.508 206.779 143.959 206.764 143.484C206.764 143.01 206.66 142.386 206.542 142.075C206.408 141.778 206.349 141.363 206.394 141.17C206.438 140.977 206.379 140.472 206.26 140.057C206.142 139.642 205.964 138.707 205.875 137.965C205.772 137.238 205.638 136.303 205.549 135.888C205.386 135.042 205.179 133.707 204.986 132.178C204.675 129.745 204.557 128.988 204.483 128.87C204.438 128.796 204.379 128.41 204.335 128.009C204.29 127.609 204.187 127.089 204.113 126.867C204.024 126.629 203.95 126.11 203.95 125.709C203.95 125.294 203.876 124.834 203.801 124.671C203.653 124.389 203.461 123.336 203.239 121.496C203.179 121.006 203.046 120.457 202.942 120.279C202.839 120.101 202.765 119.597 202.765 119.166C202.75 118.736 202.661 118.217 202.542 118.009C202.424 117.801 202.335 117.415 202.32 117.134C202.32 115.961 201.343 114.003 200.691 113.855C200.246 113.751 199.535 113.884 198.528 114.27C197.832 114.537 197.639 114.537 196.38 114.389C195.462 114.285 194.84 114.122 194.558 113.929C194.084 113.617 193.033 113.573 191.359 113.795C190.441 113.929 190.396 113.958 190.352 114.359C190.322 114.626 190.411 114.893 190.589 115.101C190.885 115.412 191.285 116.777 192.026 119.864C192.233 120.769 192.514 121.867 192.633 122.312C192.751 122.757 192.914 123.365 192.988 123.647C193.048 123.929 193.181 124.374 193.255 124.612C193.344 124.864 193.477 125.428 193.566 125.873C193.64 126.318 193.818 127.119 193.951 127.653C194.084 128.187 194.247 128.914 194.307 129.285C194.366 129.656 194.499 130.101 194.588 130.279C194.692 130.457 194.766 130.828 194.766 131.095C194.766 131.377 194.87 131.733 194.988 131.897C195.107 132.045 195.21 132.386 195.21 132.653C195.21 132.92 195.299 133.351 195.418 133.618C195.61 134.063 195.758 134.775 196.099 136.986C196.173 137.416 196.292 137.846 196.38 137.935C196.469 138.024 196.543 138.306 196.543 138.558C196.558 138.796 196.647 139.167 196.766 139.375C196.884 139.582 196.973 139.968 196.988 140.235C196.988 140.502 197.062 140.858 197.136 141.021C197.225 141.17 197.358 141.585 197.417 141.927C197.788 143.692 198.188 145.487 198.395 146.348C198.528 146.882 198.691 147.609 198.75 147.98C198.81 148.351 198.913 148.752 198.987 148.87C199.061 148.989 199.165 149.464 199.224 149.909C199.284 150.354 199.461 151.229 199.624 151.838C199.802 152.446 200.039 153.485 200.158 154.138C200.291 154.79 200.498 155.755 200.617 156.289C200.75 156.823 200.913 157.55 200.987 157.921C201.046 158.292 201.239 159.197 201.402 159.924C201.565 160.666 201.787 161.66 201.876 162.15C201.98 162.639 202.113 163.159 202.187 163.292C202.261 163.44 202.32 163.767 202.32 164.034C202.335 164.301 202.424 164.791 202.542 165.117C202.661 165.443 202.765 165.903 202.765 166.141C202.765 166.586 202.898 167.15 203.357 168.752C203.653 169.761 204.35 173.189 204.527 174.465C204.587 174.88 204.705 175.355 204.809 175.533C204.912 175.711 204.986 176.141 204.986 176.497C205.001 176.853 205.09 177.298 205.209 177.506C205.327 177.714 205.416 178.144 205.431 178.456C205.431 178.782 205.49 179.242 205.579 179.494C205.742 180.058 206.349 183.115 206.616 184.776C206.897 186.542 208.067 188.07 209.786 188.916C210.689 189.361 212.437 189.836 212.807 189.732C212.926 189.702 213.104 189.673 213.222 189.673ZM75.6733 148.277C78.3248 147.787 79.8208 147.223 81.1984 146.2C82.3834 145.295 82.65 144.835 82.7537 143.529C82.7982 142.772 82.9611 142.283 83.4943 141.229C84.3979 139.449 84.4868 139.256 84.6794 138.558C84.9015 137.757 85.2422 136.674 85.3607 136.407C85.4052 136.288 85.3163 135.962 85.1534 135.71C84.9015 135.294 84.783 135.22 84.2794 135.22C83.9535 135.22 83.6573 135.161 83.6128 135.087C83.5684 135.027 83.1981 134.923 82.7833 134.879C82.3686 134.834 81.939 134.686 81.8057 134.552C81.6872 134.434 81.4502 134.33 81.2873 134.33C81.1243 134.33 80.6355 134.226 80.2208 134.092C79.4505 133.87 78.4729 133.588 77.3768 133.306C77.0509 133.217 76.1918 132.965 75.4512 132.757C74.7253 132.549 73.7477 132.282 73.3034 132.178C72.859 132.06 72.1924 131.867 71.8221 131.733C71.4518 131.6 70.6964 131.362 70.1187 131.214C69.5558 131.066 43.9746 123.143 43.9005 123.068C43.8117 122.994 42.834 122.623 41.7083 122.252C40.5974 121.881 39.4568 121.466 39.1902 121.332C38.9384 121.184 38.5236 121.021 38.2718 120.962C38.0348 120.902 36.8942 120.516 35.7537 120.116C34.6131 119.7 32.88 119.092 31.9024 118.751C30.9248 118.41 30.0657 118.068 29.9916 117.994C29.9027 117.92 26.9402 116.97 26.7921 116.97C26.644 116.97 26.2737 116.866 25.9774 116.733C25.2812 116.451 23.2075 115.858 22.4224 115.709C21.2078 115.501 17.638 115.457 17.2825 115.65C17.0899 115.754 16.7048 115.887 16.4234 115.947C16.1419 116.006 15.5346 116.199 15.0902 116.377C14.6459 116.57 14.1126 116.777 13.9052 116.852C13.6979 116.941 13.3424 117.089 13.0905 117.193C12.8535 117.312 12.2166 117.534 11.6834 117.712C11.1501 117.89 10.5872 118.098 10.4243 118.157C10.2614 118.217 9.72811 118.38 9.2393 118.513C8.75048 118.647 8.15798 118.855 7.9358 118.973C7.6988 119.092 7.37292 119.196 7.19517 119.196C7.01742 119.196 6.23236 119.522 5.46211 119.908L4.05492 120.635L4.09936 121.362C4.12898 122.089 4.82517 124.077 5.28436 124.819C5.71392 125.502 7.28405 127.06 8.0543 127.564C8.46905 127.831 9.40223 128.276 10.128 128.543C12.1277 129.256 12.6017 129.448 13.0461 129.671C13.2535 129.79 13.5645 129.879 13.7275 129.879C13.9793 129.879 14.6162 130.086 15.4605 130.472C15.6235 130.546 16.0234 130.71 16.3493 130.843C16.6752 130.977 17.2084 131.214 17.5491 131.377C17.8898 131.526 18.2305 131.659 18.3194 131.659C18.4082 131.659 18.66 131.763 18.897 131.882C19.297 132.089 21.6966 133.232 23.9037 134.256C24.4814 134.523 25.5479 134.983 26.2737 135.279C27.0143 135.591 27.8142 135.932 28.0512 136.051C28.9547 136.481 31.2951 137.446 31.4284 137.446C31.5173 137.446 32.0505 137.653 32.6282 137.906C33.2059 138.158 33.9021 138.469 34.1687 138.573C34.4205 138.692 34.8649 138.87 35.1315 138.989C35.3834 139.107 35.7389 139.226 35.9018 139.271C36.2425 139.36 38.331 140.102 39.5309 140.562C39.9752 140.74 40.5529 140.932 40.7899 140.992C41.0417 141.051 41.3676 141.17 41.5305 141.259C41.9897 141.496 42.7452 141.748 44.1227 142.134C45.3225 142.461 45.8706 142.624 46.863 142.965C47.1149 143.054 47.5444 143.158 47.8259 143.203C48.1073 143.232 48.4776 143.366 48.6405 143.47C48.8035 143.588 49.1294 143.677 49.3812 143.677C49.6182 143.692 49.9885 143.781 50.1959 143.9C50.4032 144.019 50.7587 144.108 50.9809 144.122C51.2179 144.122 51.529 144.197 51.6919 144.286C51.8549 144.375 52.2992 144.493 52.6844 144.568C53.0695 144.642 53.8694 144.805 54.4619 144.924C55.0692 145.028 55.632 145.206 55.7209 145.295C55.8098 145.384 56.106 145.458 56.3875 145.458C56.6541 145.458 57.0244 145.532 57.2022 145.636C57.3799 145.74 57.8984 145.858 58.3427 145.933C58.7871 145.992 59.4537 146.111 59.824 146.2C60.6831 146.393 62.0607 146.645 63.0531 146.778C63.4678 146.838 65.9119 147.327 66.0897 147.416C66.2674 147.52 66.8895 147.654 67.4524 147.713C68.0301 147.772 69.0225 147.891 69.6743 147.98C72.696 148.396 74.5624 148.485 75.6733 148.277ZM85.3607 134.36C85.4644 134.196 84.6497 132.238 84.1905 131.496C83.7462 130.799 83.0203 130.205 82.1908 129.849C81.8205 129.701 81.2725 129.434 80.9614 129.27C80.6503 129.122 80.2208 128.988 79.9838 128.988C79.7468 128.988 79.4802 128.885 79.3765 128.766C79.258 128.618 78.9321 128.543 78.4137 128.543C77.8952 128.543 73.3478 127.549 73.0515 127.431C72.7701 127.312 72.2961 127.208 72.0295 127.208C71.748 127.208 67.6894 126.11 67.5413 126.021C67.3783 125.947 67.0969 125.873 66.9044 125.873C66.7118 125.873 66.4304 125.784 66.2674 125.665C66.1045 125.561 65.7786 125.428 65.5268 125.398C65.2898 125.353 64.8454 125.235 64.564 125.131C63.2605 124.656 62.9346 124.552 61.8977 124.241C61.2904 124.063 60.6683 123.855 60.535 123.781C60.3869 123.706 60.1499 123.647 60.0017 123.647C59.8536 123.647 59.6018 123.543 59.4389 123.425C59.2907 123.306 59.0093 123.202 58.8464 123.202C58.5353 123.202 57.6169 122.876 57.1281 122.608C56.98 122.534 56.6245 122.401 56.3134 122.327C56.0024 122.252 55.2914 122.015 54.7137 121.807C54.1508 121.6 53.5435 121.422 53.3657 121.422C53.2028 121.422 52.9362 121.318 52.7732 121.199C52.6251 121.08 52.3289 120.976 52.1215 120.976C51.9141 120.976 51.603 120.873 51.4253 120.754C51.2475 120.62 50.818 120.472 50.4625 120.398C50.107 120.324 49.4552 120.146 49.0109 120.012C48.5665 119.878 47.9592 119.715 47.6777 119.656C47.3963 119.597 47.0112 119.463 46.8334 119.374C46.6557 119.27 46.3446 119.196 46.152 119.196C45.9447 119.196 45.7077 119.092 45.604 118.973C45.5003 118.855 45.2189 118.751 44.9819 118.751C44.73 118.751 44.3597 118.662 44.1524 118.543C43.9302 118.439 43.0562 118.128 42.1971 117.861C40.1382 117.223 40.0937 117.208 38.6421 116.674C37.9459 116.421 36.3165 115.858 35.013 115.412C32.1839 114.463 31.8135 114.344 30.9396 114.003C29.7842 113.558 27.8438 112.964 27.5327 112.964C27.355 112.964 27.0735 112.875 26.8958 112.786C26.5403 112.579 25.2664 112.252 24.348 112.119C24.0222 112.074 21.667 111.525 21.4892 111.392C21.193 111.184 20.8375 111.169 19.1192 111.243C16.9714 111.347 15.9494 111.54 15.6679 111.866C15.579 111.985 15.3717 112.074 15.2087 112.074C15.0606 112.074 14.7495 112.193 14.5274 112.356C13.9349 112.771 13.1794 113.202 12.424 113.558C12.0537 113.736 11.5649 113.973 11.3427 114.092C11.1057 114.211 10.8094 114.3 10.6613 114.3C10.528 114.3 10.3502 114.359 10.2762 114.433C10.1873 114.507 9.8318 114.626 9.46148 114.715C9.09117 114.804 8.55792 114.952 8.27648 115.042C7.99505 115.145 7.47661 115.323 7.12111 115.442C6.2768 115.739 4.94367 116.985 4.70667 117.683C4.6178 117.979 4.41042 118.454 4.23267 118.721C3.98086 119.151 3.96605 119.24 4.15861 119.433C4.33636 119.626 4.44005 119.611 4.88442 119.315C5.81761 118.677 6.5138 118.306 6.76561 118.306C6.89892 118.291 7.28405 118.187 7.60992 118.068C7.9358 117.935 8.4098 117.786 8.6468 117.712C8.89861 117.653 9.46148 117.445 9.90586 117.267C10.3502 117.089 10.8835 116.911 11.0909 116.866C11.2982 116.837 11.5945 116.733 11.7574 116.674C11.9204 116.599 12.424 116.392 12.8684 116.228C13.7719 115.887 14.0089 115.798 14.868 115.412C16.8381 114.552 17.475 114.404 19.5784 114.344C21.0004 114.3 21.6966 114.344 21.8447 114.463C21.9484 114.552 22.4372 114.685 22.8964 114.745C24.9554 115.027 27.8142 115.858 29.8287 116.748C30.4508 117.015 31.221 117.282 31.8284 117.415C32.1098 117.475 32.7171 117.683 33.1615 117.861C33.6059 118.039 34.1984 118.232 34.465 118.306C34.7316 118.365 35.0279 118.484 35.1315 118.573C35.2352 118.647 35.4722 118.751 35.6796 118.78C35.887 118.825 36.5832 119.048 37.2349 119.27C38.5088 119.715 38.6273 119.76 39.7382 120.22C40.1382 120.398 40.5381 120.531 40.627 120.531C40.7603 120.531 41.7675 120.902 42.7155 121.288C42.8785 121.362 43.6784 121.614 44.493 121.867C45.3077 122.119 46.2113 122.416 46.4927 122.519C46.7742 122.638 47.2778 122.831 47.6037 122.95C47.9295 123.068 70.7852 130.116 71.2296 130.25C72.3257 130.576 73.9995 131.051 74.6365 131.214C74.9179 131.288 75.6585 131.511 76.2659 131.719C76.8732 131.926 77.7767 132.193 78.2655 132.327C78.7544 132.46 79.3617 132.638 79.5987 132.727C79.8505 132.802 80.3097 132.935 80.6355 133.009C80.9614 133.084 81.3613 133.202 81.5243 133.276C81.6872 133.351 82.3834 133.588 83.0796 133.811C83.7758 134.048 84.4424 134.285 84.5609 134.345C84.8571 134.508 85.257 134.508 85.3607 134.36ZM83.1981 128.514C83.2277 128.232 83.1685 128.098 82.9315 128.024C82.5463 127.905 82.176 128.187 82.2945 128.514C82.5167 129.107 83.124 129.107 83.1981 128.514ZM171.806 127.876C172.147 127.757 172.68 127.653 172.977 127.653C173.273 127.653 173.643 127.549 173.791 127.431C173.954 127.312 174.206 127.208 174.369 127.208C174.917 127.208 178.354 125.962 178.783 125.62C178.902 125.517 179.124 125.428 179.257 125.428C179.539 125.428 181.805 124.107 182.442 123.573C182.679 123.365 182.96 123.202 183.034 123.202C183.197 123.202 185.819 121.021 186.101 120.65C186.189 120.546 186.471 120.175 186.737 119.849C186.989 119.508 187.211 119.181 187.211 119.122C187.211 119.062 187.404 118.736 187.626 118.395C188.382 117.282 188.382 116.97 187.611 116.674C187.345 116.57 186.812 116.332 186.397 116.139C185.997 115.947 185.153 115.65 184.545 115.472C183.938 115.309 183.197 115.071 182.916 114.967C181.775 114.567 181.346 114.418 180.916 114.3C180.679 114.24 180.072 114.033 179.583 113.825C179.094 113.632 178.398 113.38 178.028 113.276C177.657 113.172 177.169 112.994 176.917 112.875C176.68 112.771 175.673 112.4 174.695 112.074C172.577 111.332 172.488 111.288 171.762 110.976C171.451 110.843 171.095 110.739 170.977 110.739C170.844 110.739 170.562 110.65 170.355 110.531C169.274 109.967 165.748 108.572 164.415 108.187C164.06 108.083 163.734 107.905 163.704 107.816C163.66 107.712 163.511 107.623 163.363 107.623C163.215 107.623 162.904 107.519 162.667 107.4C162.445 107.282 161.453 106.881 160.475 106.495C159.497 106.124 158.105 105.516 157.364 105.175C156.638 104.819 154.728 103.988 153.143 103.32C150.373 102.148 149.351 101.673 146.403 100.249C145.662 99.9076 144.981 99.6108 144.892 99.6108C144.788 99.6108 144.374 99.418 143.959 99.1657C143.544 98.9283 143.174 98.7206 143.129 98.7206C143.041 98.7206 137.516 95.9757 137.145 95.7383C137.027 95.6641 136.612 95.4564 136.227 95.2784C135.575 94.952 130.702 92.4741 130.154 92.1774C130.006 92.1032 129.769 91.9845 129.635 91.9103C129.25 91.7026 127.043 90.5453 125.591 89.8034C123.799 88.8687 120.94 87.5927 120.644 87.5927C120.511 87.5927 120.289 87.5334 120.14 87.4592C119.148 86.9547 118.052 86.7766 116.111 86.7915C114.127 86.8063 113.816 86.8508 110.557 87.6817C110.068 87.8004 109.431 87.9636 109.15 88.023C108.868 88.0823 108.483 88.2159 108.305 88.3049C108.128 88.4087 107.816 88.4829 107.594 88.4829C107.387 88.4829 107.031 88.572 106.809 88.6907C106.587 88.7945 105.98 88.9429 105.446 88.9874C104.928 89.0467 104.261 89.1951 103.995 89.3138C103.713 89.4325 103.284 89.5215 103.047 89.5215C102.81 89.5215 102.38 89.6254 102.084 89.7441C101.803 89.8628 101.299 89.9667 100.988 89.9667C100.677 89.9667 100.395 90.026 100.351 90.1002C100.307 90.1744 100.01 90.2782 99.714 90.3376C99.403 90.3969 98.8994 90.5601 98.5883 90.7085C98.2772 90.8569 97.8328 91.0201 97.5958 91.0794C96.9885 91.213 96.8404 91.4652 96.8256 92.4445C96.7515 94.8333 97.4773 96.3912 99.6252 98.5129C100.381 99.2696 101.447 100.175 101.995 100.531C104.099 101.911 104.647 102.252 105.15 102.504C105.432 102.652 105.906 102.949 106.187 103.172C106.469 103.394 107.002 103.736 107.372 103.928C107.742 104.121 108.409 104.507 108.853 104.789C109.298 105.086 109.787 105.383 109.92 105.472C110.053 105.546 110.838 106.065 111.653 106.629C112.453 107.178 113.179 107.623 113.238 107.623C113.297 107.623 113.993 108.068 114.808 108.632C116.763 109.967 116.911 110.056 118.096 110.665C118.644 110.946 119.355 111.377 119.666 111.629C119.978 111.866 120.318 112.074 120.437 112.074C120.555 112.074 120.926 112.267 121.237 112.49C121.548 112.727 121.918 112.949 122.036 113.009C122.155 113.068 122.955 113.484 123.814 113.944C126.628 115.457 132.39 118.306 132.598 118.306C132.716 118.306 132.894 118.41 132.998 118.528C133.101 118.647 133.25 118.751 133.338 118.751C133.561 118.751 134.76 119.344 134.864 119.508C134.909 119.582 135.116 119.641 135.338 119.641C135.56 119.641 135.871 119.745 136.019 119.864C136.182 119.982 136.419 120.086 136.568 120.086C136.701 120.086 136.893 120.19 136.997 120.309C137.101 120.427 137.308 120.531 137.471 120.531C137.634 120.531 137.945 120.62 138.152 120.724C138.375 120.843 138.775 121.036 139.041 121.169C139.323 121.303 139.634 121.422 139.752 121.422C139.871 121.422 140.078 121.496 140.226 121.57C140.522 121.748 142.967 122.594 143.515 122.727C143.722 122.772 144.018 122.89 144.181 122.979C144.344 123.083 144.744 123.217 145.07 123.276C145.396 123.336 145.736 123.439 145.811 123.499C145.899 123.573 146.433 123.766 146.996 123.914C147.573 124.077 148.773 124.419 149.662 124.686C150.565 124.938 151.573 125.235 151.913 125.339C152.254 125.428 152.58 125.561 152.639 125.62C152.698 125.68 152.935 125.724 153.172 125.724C153.572 125.724 154.387 125.888 155.587 126.214C156.194 126.377 157.083 126.54 158.401 126.733C158.816 126.807 159.29 126.926 159.468 127.03C159.645 127.134 160.105 127.208 160.505 127.208C160.904 127.208 161.349 127.297 161.512 127.416C161.675 127.52 162.371 127.668 163.067 127.712C163.763 127.772 164.859 127.876 165.511 127.935C167.777 128.143 171.125 128.113 171.806 127.876ZM85.4052 126.6C87.6122 126.155 90.0267 125.25 92.1152 124.107C93.0632 123.573 94.1297 123.083 97.818 121.422C98.9586 120.917 100.158 120.383 100.484 120.235C100.81 120.086 101.417 119.864 101.817 119.73C102.232 119.597 102.691 119.418 102.854 119.344C103.21 119.166 105.195 118.484 105.817 118.321C106.069 118.246 106.424 118.128 106.631 118.053C107.254 117.801 108.053 117.564 108.276 117.564C108.394 117.564 109.016 117.356 109.668 117.104C110.32 116.852 111.12 116.599 111.446 116.525C112.068 116.392 112.749 116.169 113.564 115.843C113.83 115.724 114.186 115.635 114.334 115.635C114.497 115.635 114.749 115.576 114.897 115.487C115.03 115.412 115.549 115.249 116.037 115.131C116.526 114.997 117.415 114.76 118.022 114.596C118.63 114.433 119.281 114.3 119.459 114.3C119.859 114.3 120.481 113.81 120.348 113.587C120.303 113.498 120.052 113.395 119.815 113.335C119.563 113.276 119.059 113.068 118.689 112.875C117.311 112.133 116.334 111.584 116.126 111.436C116.023 111.347 115.815 111.199 115.652 111.11C115.03 110.754 113.164 109.596 112.394 109.077C111.934 108.765 111.52 108.513 111.46 108.513C111.416 108.513 110.927 108.187 110.379 107.786C109.816 107.386 109.164 106.94 108.898 106.777C108.468 106.54 106.75 105.472 102.854 103.068C100.277 101.48 98.218 99.7295 97.0182 98.1271C96.1146 96.9401 95.9813 96.6731 95.5073 95.2784C95.2703 94.5513 95.211 94.032 95.2258 92.5186C95.2555 90.7382 95.3295 90.2486 95.848 88.7055C95.9369 88.4681 96.0405 88.0675 96.085 87.8301C96.3072 86.5541 99.0919 83.5867 100.055 83.5867C100.647 83.5867 100.603 83.2751 99.9066 82.5926C99.5363 82.2068 99.2252 81.8507 99.2252 81.7617C99.2252 81.6875 99.0327 81.3759 98.7808 81.0643C98.5438 80.7527 98.3365 80.3967 98.3365 80.278C98.3365 80.1593 98.2476 79.9812 98.1291 79.8922C98.0106 79.7883 97.8625 79.5064 97.818 79.269C97.7588 79.0316 97.6551 78.8091 97.581 78.7646C97.507 78.7052 97.4477 78.542 97.4477 78.3788C97.4477 78.2304 97.2996 77.7853 97.107 77.3847C96.5145 76.1532 95.9665 73.9425 95.9665 72.8C95.9665 72.5478 95.8776 72.1323 95.7591 71.8653C95.6554 71.5982 95.5962 71.1086 95.6258 70.7673C95.6702 70.3815 95.611 69.9364 95.4629 69.5803C95.2999 69.1946 95.2258 68.5566 95.2258 67.6218C95.2258 66.8206 95.137 65.9749 95.0185 65.604C94.8703 65.1737 94.7667 63.8829 94.7074 61.7018C94.5741 57.7106 94.5297 46.5233 94.6333 45.6034L94.7074 44.9357L94.189 44.9506C93.9075 44.9506 93.078 45.1286 92.3374 45.3512C91.6116 45.5589 90.6044 45.8111 90.1155 45.9002C89.6267 46.004 88.9602 46.1672 88.6343 46.2859C88.2936 46.4046 87.8492 46.4937 87.6419 46.4937C87.4197 46.4937 87.2123 46.553 87.1678 46.6272C87.1086 46.7014 86.7975 46.8052 86.442 46.8646C85.7755 46.9833 83.4351 47.6213 83.2129 47.7697C83.1388 47.8142 82.887 47.8884 82.6648 47.918C82.4427 47.9625 81.3762 48.289 80.3097 48.6599C79.2283 49.016 78.1915 49.3127 78.0137 49.3127C77.8212 49.3127 77.5397 49.4166 77.3916 49.5353C77.2287 49.654 76.9324 49.7578 76.725 49.7578C76.5177 49.7578 76.2066 49.8617 76.0585 49.9804C75.8955 50.0991 75.6289 50.203 75.4512 50.203C75.2734 50.203 75.0068 50.3068 74.8438 50.4255C74.6957 50.5442 74.4587 50.6481 74.3254 50.6481C73.9995 50.6481 72.222 51.2416 70.2668 51.9834C69.378 52.3247 68.3412 52.6956 67.9708 52.7995C66.8007 53.1407 64.638 53.9271 64.5047 54.0755C64.4159 54.1497 64.2085 54.209 64.0307 54.209C63.853 54.209 63.6308 54.3129 63.5271 54.4316C63.4234 54.5503 63.216 54.6541 63.0531 54.6541C62.905 54.6541 62.3717 54.8618 61.8681 55.0992C61.3793 55.3515 60.8757 55.5443 60.7275 55.5443C60.5942 55.5443 60.061 55.7521 59.5574 55.9895C59.0389 56.2417 58.5353 56.4346 58.4464 56.4346C58.2242 56.4346 57.0244 57.0281 56.9207 57.1913C56.8763 57.2655 56.6689 57.3248 56.4615 57.3248C56.2542 57.3248 55.8839 57.4138 55.632 57.5325C54.9655 57.8293 54.0619 58.2299 52.3437 58.9569C51.529 59.2982 50.4477 59.7729 49.9292 60.0103C49.4108 60.2477 48.922 60.4406 48.8479 60.4406C48.759 60.4406 48.5072 60.5296 48.2999 60.6483C47.7074 60.9599 46.5668 61.4792 46.4483 61.4792C46.389 61.4792 45.5744 61.8502 44.6412 62.2953C43.7228 62.7404 42.9081 63.1113 42.8489 63.1113C42.7896 63.1113 42.2712 63.3339 41.6935 63.6158C41.1158 63.8977 40.0789 64.3873 39.3827 64.7137C38.6865 65.0253 37.2942 65.693 36.2721 66.1826C35.25 66.6871 34.3169 67.1174 34.1984 67.1767C34.0799 67.2212 33.8577 67.3251 33.7244 67.4141C32.6875 68.0076 30.8063 68.8978 30.5989 68.8978C30.4952 68.8978 30.3471 68.9572 30.2582 69.0314C30.0953 69.2094 28.4363 70.1145 26.5699 71.0492C25.8441 71.4202 25.1035 71.8059 24.9405 71.9098C24.1555 72.3994 23.4 72.8594 22.7927 73.1709C22.0077 73.5864 20.4227 75.2036 20.4227 75.5894C20.4227 75.7378 20.3635 75.901 20.2746 75.9455C20.2005 75.99 20.1265 76.3609 20.1265 76.7467C20.1265 77.1473 20.0228 77.7556 19.9043 78.0969C19.7858 78.4381 19.6821 79.2097 19.6821 79.7883C19.6821 80.367 19.5784 81.4501 19.4599 82.1771C19.1489 84.0466 19.1489 90.664 19.4599 92.118C19.5784 92.6819 19.6821 93.8837 19.6821 94.7887C19.6969 95.9164 19.7562 96.5395 19.9043 96.7918C20.0228 96.9995 20.1117 97.4743 20.1265 97.8452C20.1265 98.2755 21.8299 103.127 22.7335 104.403C23.0149 104.789 23.2371 105.145 23.2371 105.19C23.2371 105.427 25.4886 108.053 27.0291 109.611C27.7253 110.323 28.7177 111.124 29.1917 111.347C30.7026 112.059 33.6651 113.217 34.5687 113.424C34.8797 113.513 35.2204 113.632 35.3093 113.691C35.3834 113.766 35.6204 113.855 35.8277 113.899C36.0351 113.944 36.8646 114.225 37.6793 114.507C38.494 114.804 39.5012 115.16 39.9012 115.294C41.7972 115.887 42.4341 116.11 42.7155 116.228C43.234 116.466 44.8485 116.97 45.0707 116.97C45.1892 116.97 45.4707 117.059 45.7077 117.178C46.0928 117.371 46.4335 117.475 48.685 118.098C49.1442 118.232 49.7367 118.41 49.9737 118.499C50.7587 118.78 52.1955 118.81 52.4029 118.543C52.5214 118.41 52.7436 118.306 52.9214 118.306C53.0843 118.306 53.6324 118.128 54.1212 117.92C54.61 117.712 55.2914 117.445 55.6469 117.326C56.0024 117.208 56.7726 116.852 57.3503 116.54C58.3131 116.021 59.2167 115.561 60.4905 114.938C61.3052 114.522 62.5643 113.825 63.2012 113.395C63.5567 113.157 63.8826 112.964 63.9419 112.964C64.0011 112.964 64.3122 112.786 64.638 112.564C64.9639 112.341 65.4379 112.044 65.6749 111.926C67.3635 111.021 68.2523 110.516 68.6374 110.234C69.1262 109.878 73.0812 107.905 74.7105 107.207C75.9696 106.659 77.1398 106.228 78.0434 106.006C78.4137 105.902 79.0506 105.724 79.4505 105.605C81.4206 105.041 83.4351 104.507 84.709 104.21C85.4792 104.032 86.442 103.795 86.842 103.676C87.2271 103.558 87.8048 103.469 88.101 103.469C88.3973 103.469 88.7232 103.394 88.7972 103.32C88.8861 103.231 89.3157 103.127 89.76 103.068C90.2044 103.023 90.634 102.934 90.708 102.875C90.7969 102.816 91.2265 102.727 91.6857 102.682C92.13 102.623 92.7077 102.534 92.9743 102.489C93.3891 102.4 93.4483 102.43 93.4483 102.697C93.4483 103.083 93.0336 103.32 92.3522 103.32C92.0708 103.32 91.8042 103.379 91.7449 103.454C91.7005 103.528 91.3005 103.647 90.8562 103.691C90.397 103.75 89.997 103.854 89.9526 103.928C89.9082 104.003 89.6712 104.062 89.4342 104.062C89.1823 104.062 88.8417 104.136 88.6639 104.24C88.4862 104.329 88.0714 104.463 87.7455 104.522C86.205 104.789 82.4723 105.768 81.5243 106.139C81.3613 106.213 80.7985 106.377 80.2652 106.51C79.732 106.644 79.2432 106.822 79.1543 106.881C79.0802 106.955 78.7395 107.044 78.4137 107.104C78.0878 107.163 77.673 107.297 77.4953 107.415C77.3175 107.534 77.0657 107.623 76.962 107.623C76.4436 107.623 71.6147 109.967 69.5706 111.214C68.7855 111.688 68.1042 112.074 68.0597 112.074C68.0153 112.074 67.7042 112.267 67.3487 112.504C66.9932 112.742 66.4748 113.053 66.1934 113.217C65.9119 113.365 65.4083 113.662 65.0824 113.869C64.7565 114.062 64.327 114.314 64.1196 114.418C63.9122 114.522 63.5567 114.715 63.3049 114.863C63.0679 115.012 62.431 115.353 61.8977 115.62C61.3645 115.887 60.8312 116.169 60.7127 116.228C60.0462 116.599 57.3799 117.905 56.4912 118.306C55.9283 118.558 55.3358 118.84 55.1729 118.914C55.0247 119.003 54.5952 119.092 54.2249 119.137C53.8545 119.166 53.5139 119.226 53.4694 119.27C53.2472 119.493 53.8101 119.893 54.6544 120.101C55.1729 120.235 56.1653 120.546 56.8615 120.798C57.5577 121.036 59.187 121.585 60.4905 122.015C61.794 122.43 63.0975 122.876 63.379 122.979C64.8602 123.528 69.3336 124.819 70.1927 124.968C70.563 125.027 70.963 125.131 71.0815 125.205C71.2 125.279 71.5999 125.383 71.9702 125.442C72.3405 125.502 73.1404 125.665 73.7477 125.798C75.3178 126.125 76.0881 126.258 78.1174 126.54C79.095 126.674 79.9245 126.807 79.9542 126.852C80.1467 127.045 84.1461 126.867 85.4052 126.6ZM188.545 115.769C188.545 115.383 188.145 114.077 187.834 113.424C187.448 112.638 186.13 111.288 185.375 110.917C185.004 110.724 184.664 110.516 184.619 110.427C184.56 110.353 184.412 110.294 184.264 110.294C184.116 110.294 183.908 110.19 183.805 110.071C183.701 109.952 183.464 109.848 183.286 109.848C183.108 109.848 182.871 109.745 182.768 109.626C182.664 109.507 182.471 109.403 182.338 109.403C182.205 109.403 181.968 109.314 181.805 109.211C181.642 109.107 180.916 108.765 180.176 108.454C179.45 108.142 178.783 107.831 178.709 107.756C178.62 107.682 178.472 107.623 178.368 107.623C178.265 107.623 177.835 107.46 177.406 107.267C176.976 107.059 175.954 106.629 175.139 106.288C174.325 105.946 173.599 105.605 173.51 105.531C173.436 105.457 173.273 105.397 173.154 105.397C173.036 105.397 172.577 105.219 172.118 105.012C171.658 104.804 171.051 104.522 170.77 104.403C170.488 104.285 169.748 103.973 169.14 103.691C167.229 102.845 165.245 102.014 164.4 101.688C163.956 101.51 163.511 101.302 163.423 101.228C163.334 101.154 162.978 100.991 162.623 100.872C162.267 100.753 161.704 100.516 161.378 100.368C161.038 100.204 160.401 99.9372 159.956 99.7592C158.653 99.2547 158.609 99.2399 157.29 98.6019C156.594 98.2755 155.528 97.8007 154.92 97.5633C153.706 97.0885 152.802 96.7027 151.439 96.0499C150.062 95.4119 149.484 95.1597 149.366 95.1597C149.306 95.1597 148.817 94.952 148.269 94.6997C147.736 94.4475 147.099 94.1656 146.847 94.0617C146.61 93.9579 146.107 93.7353 145.736 93.5573C145.366 93.394 144.403 92.9786 143.589 92.6373C142.774 92.2961 141.841 91.8955 141.515 91.7471C139.945 91.0498 139.071 90.6492 138.256 90.2634C137.767 90.0408 136.834 89.6402 136.182 89.3732C135.531 89.1209 134.894 88.8539 134.76 88.7797C134.642 88.7203 133.635 88.2752 132.553 87.8153C130.376 86.8805 130.331 86.8657 129.62 86.5096C129.339 86.376 129.043 86.2573 128.954 86.2573C128.865 86.2573 128.391 86.0645 127.902 85.8271C126.006 84.922 123.947 84.0318 123.77 84.0318C123.666 84.0318 123.444 83.9279 123.281 83.8092C123.133 83.6905 122.91 83.5867 122.807 83.5867C122.718 83.5867 122.273 83.4234 121.844 83.2157C121.429 83.008 120.837 82.7706 120.555 82.6964C120.274 82.6222 119.504 82.4294 118.852 82.2513C116.971 81.732 113.608 81.5688 113.356 81.9694C113.312 82.0436 113.075 82.1029 112.838 82.1029C112.408 82.1029 111.283 82.4887 110.453 82.9338C110.246 83.0525 109.964 83.1415 109.846 83.1415C109.727 83.1415 109.55 83.2454 109.446 83.3641C109.342 83.4828 109.046 83.5867 108.794 83.5867C108.527 83.5867 108.246 83.6608 108.142 83.7647C108.053 83.8537 107.594 83.9873 107.12 84.0614C106.646 84.1356 105.669 84.2988 104.928 84.4175C104.202 84.5362 103.254 84.6253 102.839 84.6253C101.61 84.6104 100.07 85.2633 99.1363 86.2128C98.692 86.6431 98.3365 87.0734 98.3365 87.1476C98.3365 87.2218 98.1439 87.5779 97.8921 87.934C97.6551 88.3049 97.4477 88.7203 97.4477 88.8687C97.4477 89.0319 97.344 89.3435 97.2255 89.5809C96.9589 90.0854 96.9293 90.5601 97.1811 90.5601C97.27 90.5601 97.5514 90.3969 97.8032 90.204C98.055 90.026 98.5587 89.7293 98.929 89.566C99.7881 89.1951 100.099 89.1209 104.336 88.1862C106.439 87.7411 107.476 87.4888 108.927 87.0734C109.342 86.9695 110.335 86.7025 111.149 86.4799C111.964 86.2722 112.897 86.02 113.223 85.9161C114.038 85.6787 118.556 85.6787 118.807 85.9309C118.911 86.0348 119.207 86.109 119.474 86.109C120.822 86.109 123.695 87.4146 133.368 92.4148C136.568 94.0766 137.693 94.6404 138.034 94.7739C138.152 94.8184 138.36 94.9223 138.478 94.9816C139.841 95.7532 144.996 98.2755 145.218 98.2755C145.337 98.2755 145.44 98.32 145.44 98.3942C145.44 98.4832 146.062 98.7948 147.366 99.3438C147.573 99.4328 147.84 99.5515 147.958 99.6257C148.077 99.6999 148.343 99.8334 148.551 99.9224C148.758 100.011 149.114 100.175 149.336 100.293C149.573 100.412 149.884 100.501 150.032 100.501C150.18 100.501 150.328 100.605 150.388 100.724C150.432 100.842 150.625 100.946 150.802 100.946C150.995 100.946 151.276 101.05 151.424 101.169C151.587 101.287 151.81 101.391 151.943 101.391C152.061 101.391 152.269 101.48 152.387 101.584C152.521 101.688 152.921 101.896 153.291 102.044C153.661 102.192 154.061 102.371 154.194 102.43C154.328 102.504 155.098 102.831 155.898 103.172C157.527 103.869 158.209 104.166 159.764 104.893C160.356 105.175 161.023 105.442 161.245 105.486C161.482 105.546 161.793 105.679 161.956 105.783C162.119 105.872 162.415 106.006 162.623 106.065C162.83 106.124 163.26 106.288 163.586 106.436C163.911 106.569 164.741 106.896 165.437 107.163C166.133 107.43 166.889 107.742 167.111 107.86C167.348 107.979 167.629 108.068 167.733 108.068C167.837 108.068 168.118 108.157 168.355 108.276C168.903 108.543 169.644 108.854 170.473 109.181C170.844 109.314 171.318 109.522 171.54 109.641C171.747 109.759 172.029 109.848 172.147 109.848C172.28 109.848 172.562 109.952 172.799 110.071C173.021 110.19 173.821 110.487 174.547 110.754C176.102 111.288 176.872 111.584 177.554 111.866C177.82 111.985 178.161 112.074 178.294 112.074C178.442 112.074 178.62 112.133 178.709 112.208C178.783 112.282 179.331 112.475 179.909 112.668C180.501 112.846 181.02 113.053 181.064 113.128C181.124 113.202 181.301 113.261 181.494 113.261C181.672 113.261 181.879 113.32 181.968 113.395C182.042 113.469 182.442 113.632 182.842 113.751C183.79 114.047 185.523 114.685 186.13 114.967C186.382 115.086 186.649 115.19 186.723 115.19C186.782 115.205 187.167 115.427 187.582 115.709C188.352 116.243 188.545 116.243 188.545 115.769ZM6.88411 113.721C7.06186 113.558 8.85417 112.964 9.19486 112.964C9.32817 112.964 9.69848 112.86 10.0095 112.727C11.4315 112.104 12.5129 111.614 12.7202 111.481C12.8387 111.392 13.4905 111.05 14.157 110.724C14.8384 110.397 15.4161 110.056 15.4754 109.982C15.5198 109.908 15.979 109.848 16.5122 109.848C17.0751 109.848 17.4602 109.789 17.4602 109.685C17.4602 109.611 17.1936 109.255 16.8825 108.914C15.8457 107.786 15.5346 107.371 15.0754 106.406C14.8384 105.902 14.5718 105.368 14.5125 105.249C14.3348 104.923 14.0534 104.077 13.8904 103.394C13.8015 103.068 13.683 102.741 13.5942 102.667C13.5201 102.578 13.4609 102.237 13.4609 101.896C13.4609 101.555 13.3572 101.08 13.2387 100.857C13.0905 100.56 13.0165 99.9669 13.0165 99.0173C13.0165 98.2458 12.9424 96.9698 12.8684 96.1983C12.661 94.2398 12.5573 82.192 12.735 79.5806C12.8091 78.3936 12.9424 75.901 13.0165 74.0463C13.0905 72.1768 13.209 70.5744 13.2683 70.4854C13.3127 70.3964 13.4164 69.3875 13.4905 68.245C13.683 64.8621 13.8608 62.9184 14.0237 62.414C14.1126 62.1617 14.1422 61.6869 14.0978 61.3754C14.0534 61.0489 14.1274 60.4555 14.2607 59.9955C14.394 59.5652 14.4977 58.9124 14.4977 58.5711C14.4977 58.215 14.6014 57.5474 14.7199 57.0726C14.8384 56.6126 14.9421 55.9153 14.9421 55.5295C14.9421 55.1437 15.0162 54.6393 15.105 54.4019C15.2532 54.0161 15.4161 53.111 15.6383 51.3899C15.6827 51.019 15.7716 50.6481 15.8457 50.559C15.9049 50.4849 16.0679 49.9804 16.1864 49.4611C16.3049 48.9418 16.5567 48.3186 16.7196 48.0961C16.8974 47.8587 16.9862 47.6064 16.9418 47.5323C16.7937 47.2949 16.2012 47.3542 15.816 47.651C15.2976 48.0219 14.9865 48.1851 12.2759 49.565C10.9279 50.2475 9.72811 50.8706 9.60961 50.9448C9.49111 51.019 8.89861 51.3009 8.32092 51.5977C6.79523 52.3247 5.90648 53.0814 5.90648 53.6452C5.90648 53.8826 5.83242 54.2238 5.72873 54.4019C5.63986 54.5799 5.50655 55.025 5.4473 55.396C5.37323 55.7669 5.25473 56.4346 5.16586 56.8797C4.9733 57.7996 4.76592 59.1498 4.58817 60.6335C4.52892 61.1973 4.39561 61.7166 4.29192 61.8205C4.20305 61.9095 4.12898 62.414 4.12898 62.9629C4.11417 63.5119 4.0253 64.0906 3.9068 64.2983C3.7883 64.506 3.69942 65.0698 3.68461 65.604C3.68461 66.1233 3.61055 66.6871 3.50686 66.8651C3.40317 67.0432 3.28467 67.8295 3.22542 68.6011C3.0773 70.5151 2.8403 72.7258 2.7218 73.2748C2.67736 73.527 2.6033 74.1947 2.57367 74.7585C2.3663 77.904 2.23298 79.4322 2.08486 80.0999C1.99598 80.5154 1.8923 82.0436 1.83305 83.5125C1.78861 84.9813 1.68492 86.6876 1.61086 87.296C1.43311 88.7648 1.43311 96.5989 1.61086 98.498C1.69973 99.3141 1.80342 100.813 1.84786 101.836C1.8923 102.86 2.57367 107.133 2.66255 107.445C3.0773 108.84 4.45486 111.54 5.10661 112.237C5.29917 112.445 5.46211 112.653 5.46211 112.697C5.46211 112.757 5.59542 113.038 5.77317 113.32C6.08423 113.855 6.55823 114.018 6.88411 113.721ZM190.1 112.208C190.189 112.148 190.678 112.074 191.211 112.03C195.062 111.777 196.38 111.421 197.521 110.308C198.113 109.745 198.795 108.543 199.002 107.697C199.061 107.46 199.136 104.492 199.165 101.124C199.21 96.0944 199.18 94.7739 198.987 93.7946C198.854 93.1121 198.765 91.7768 198.765 90.6492C198.765 89.5809 198.706 88.4681 198.617 88.1862C198.543 87.9043 198.454 86.6728 198.41 85.4413C198.38 84.2247 198.276 82.8893 198.188 82.5035C198.084 82.1029 198.054 81.5688 198.099 81.3017C198.158 81.0495 198.084 80.1889 197.965 79.4026C197.832 78.6014 197.728 77.5628 197.728 77.1028C197.728 76.628 197.625 75.7081 197.506 75.0553C197.388 74.4024 197.343 73.6309 197.388 73.3342C197.432 73.0226 197.358 72.4439 197.225 71.9691C197.091 71.4943 196.988 70.5893 196.988 69.7584C196.973 68.8385 196.899 68.2598 196.766 68.0076C196.632 67.7702 196.543 67.1916 196.543 66.4497C196.543 65.7078 196.454 65.1292 196.321 64.8918C196.203 64.6841 196.114 64.2093 196.099 63.8383C196.099 63.4377 196.01 63.0816 195.892 62.9778C195.788 62.8888 195.655 62.6217 195.61 62.3991C195.551 62.1766 195.181 61.6276 194.766 61.1825C192.722 58.9866 183.923 50.2326 182.916 49.4017C182.634 49.1792 181.864 48.467 181.212 47.8438C180.561 47.2207 179.716 46.4491 179.361 46.1376C178.991 45.8111 178.191 45.0841 177.569 44.5055C174.132 41.3155 173.288 40.5143 172.473 39.8169C171.984 39.3866 171.081 38.5854 170.473 38.0364C169.851 37.4875 169.125 36.8495 168.844 36.6121C168.563 36.3895 168.029 35.9296 167.659 35.5883C167.289 35.2619 166.652 34.7278 166.252 34.4013C165.852 34.0749 165.008 33.3776 164.385 32.8434C162.045 30.8552 160.89 29.9205 160.105 29.3567C159.66 29.0303 159.26 28.7335 159.216 28.6742C159.142 28.5703 153.365 24.2082 152.698 23.7631C152.491 23.6147 152.002 23.2586 151.587 22.9767C151.187 22.68 150.506 22.22 150.106 21.9529C149.691 21.6859 149.262 21.3743 149.143 21.2407C149.025 21.122 148.743 20.9292 148.521 20.8105C148.299 20.6918 147.558 20.2021 146.847 19.7125C146.151 19.2229 145.455 18.7629 145.322 18.6739C145.174 18.5997 144.833 18.3623 144.551 18.1546C144.003 17.7688 143.589 17.4869 143.218 17.3089C143.1 17.2495 142.73 17.027 142.418 16.7896C142.107 16.567 141.782 16.3741 141.707 16.3741C141.633 16.3741 141.396 16.2554 141.174 16.1071C140.034 15.3207 138.908 14.5937 138.849 14.5937C138.804 14.5937 137.96 14.104 136.953 13.5106C135.96 12.9171 135.042 12.3829 134.923 12.3236C134.805 12.2642 134.597 12.1604 134.479 12.0714C133.886 11.6856 132.435 10.8844 130.48 9.87545C122.303 5.66168 120.896 4.93466 120.703 4.86047C120.585 4.81596 120.303 4.68243 120.081 4.56373C119.874 4.44503 119.592 4.35601 119.474 4.35601C119.355 4.35601 119.178 4.26699 119.089 4.14829C118.985 4.02959 118.57 3.82187 118.141 3.68834C117.711 3.5548 117.148 3.33224 116.897 3.21355C116.082 2.84262 115.949 3.0355 115.756 4.75661C115.726 5.00885 115.637 5.30559 115.578 5.42429C115.208 5.9881 114.586 10.6321 114.334 14.5937C114.275 15.7807 114.141 17.1457 114.053 17.6353C113.964 18.1249 113.89 19.8312 113.89 21.4336C113.89 23.2438 113.801 24.8907 113.667 25.8106C113.401 27.6059 113.342 41.3155 113.608 43.3778C113.682 44.0752 113.816 46.5382 113.89 48.8676C114.067 54.2387 114.29 58.3041 114.408 58.5118C114.467 58.6008 114.571 59.4465 114.63 60.4109C114.808 62.7256 115.06 64.8473 115.223 65.4853C115.312 65.7672 115.371 66.2568 115.371 66.5536C115.371 66.8503 115.445 67.147 115.519 67.1916C115.608 67.2361 115.667 67.518 115.667 67.785C115.667 68.0669 115.845 68.883 116.052 69.5952C116.26 70.3222 116.482 71.1086 116.556 71.346C116.615 71.5982 116.837 72.1768 117.059 72.6665C117.267 73.1413 117.445 73.6606 117.445 73.8089C117.445 73.9573 117.504 74.1057 117.593 74.165C117.667 74.2095 117.933 74.6695 118.185 75.174C118.615 75.99 118.97 76.5983 120.022 78.2008C120.185 78.4678 120.377 78.6904 120.437 78.6904C120.481 78.6904 120.718 79.002 120.97 79.4026C121.637 80.4857 122.881 81.7468 123.562 82.0287C123.903 82.1623 124.362 82.37 124.584 82.4887C124.792 82.6074 125.103 82.6964 125.251 82.6964C125.399 82.6964 125.591 82.7558 125.666 82.83C125.754 82.9041 126.243 83.1415 126.776 83.3641C127.31 83.5867 128.006 83.8834 128.332 84.0318C128.658 84.1801 129.532 84.5511 130.257 84.8478C130.998 85.1446 131.798 85.4858 132.035 85.5897C132.287 85.7084 132.583 85.8271 132.701 85.8716C132.82 85.9161 133.027 86.02 133.146 86.0941C133.264 86.1683 133.635 86.3019 133.961 86.4057C134.286 86.5096 134.657 86.6728 134.775 86.7766C134.894 86.8805 135.16 87.014 135.368 87.0734C135.575 87.1327 136.138 87.3701 136.627 87.5927C137.753 88.0972 139.16 88.7203 141.219 89.5957C142.122 89.9815 142.952 90.3524 143.085 90.4118C143.204 90.4711 144.211 90.9162 145.292 91.3762C146.373 91.8361 147.381 92.2812 147.499 92.3406C148.492 92.8451 149.736 93.3792 149.928 93.3792C150.047 93.3792 150.225 93.4831 150.328 93.6018C150.432 93.7205 150.654 93.8243 150.832 93.8243C150.995 93.8243 151.276 93.9282 151.424 94.0469C151.587 94.1656 151.824 94.2694 151.973 94.2694C152.106 94.2694 152.298 94.3733 152.402 94.492C152.506 94.6107 152.743 94.7146 152.921 94.7146C153.098 94.7146 153.335 94.8184 153.439 94.9371C153.543 95.0558 153.735 95.1597 153.869 95.1597C154.017 95.1597 154.254 95.2635 154.417 95.3822C154.565 95.5009 154.817 95.6048 154.965 95.6048C155.128 95.6048 155.424 95.6938 155.631 95.8125C156.105 96.0499 157.883 96.8808 158.623 97.2072C158.905 97.3259 159.32 97.5188 159.542 97.6375C159.749 97.7413 160.001 97.8304 160.09 97.8304C160.238 97.8304 161.645 98.4387 162.667 98.958C162.904 99.0767 163.171 99.1657 163.289 99.1657C163.393 99.1657 163.556 99.2696 163.66 99.3883C163.763 99.507 163.985 99.6108 164.163 99.6108C164.326 99.6108 164.608 99.7147 164.756 99.8334C164.919 99.9521 165.156 100.056 165.304 100.056C165.437 100.056 165.63 100.16 165.733 100.279C165.837 100.397 166.074 100.501 166.252 100.501C166.43 100.501 166.667 100.605 166.77 100.724C166.874 100.842 167.081 100.946 167.215 100.946C167.363 100.946 167.674 101.035 167.911 101.154C168.577 101.495 169.881 102.074 170.77 102.43C171.214 102.608 171.762 102.845 171.984 102.964C172.192 103.083 172.473 103.172 172.592 103.172C172.71 103.172 172.888 103.276 172.991 103.394C173.095 103.513 173.303 103.617 173.451 103.617C173.614 103.617 174.117 103.825 174.576 104.062C175.036 104.314 175.524 104.507 175.658 104.507C175.806 104.507 175.998 104.611 176.102 104.73C176.206 104.848 176.443 104.952 176.621 104.952C176.798 104.952 177.035 105.056 177.139 105.175C177.243 105.293 177.435 105.397 177.569 105.397C177.702 105.397 177.939 105.486 178.102 105.59C178.265 105.694 179.005 106.05 179.731 106.347C181.005 106.881 181.523 107.118 183.582 108.053C184.071 108.276 184.782 108.602 185.167 108.78C186.367 109.329 187.848 110.516 188.515 111.466C189.256 112.519 189.522 112.653 190.1 112.208ZM26.0515 110.739C26.0515 110.397 25.9774 110.279 25.696 110.205C25.0887 110.056 21.4596 106.065 21.4596 105.546C21.4596 105.427 21.3559 105.234 21.2374 105.101C20.482 104.27 18.4675 99.2102 18.6156 98.498C18.6452 98.2903 18.6008 98.0233 18.4971 97.8897C18.3786 97.7562 18.2749 97.1182 18.2453 96.3021C18.2157 95.5454 18.1268 94.7739 18.0527 94.5662C17.8305 93.943 17.7417 86.8508 17.9046 83.2157C18.1564 77.6666 18.3786 75.9307 18.9711 74.8772C19.2081 74.4469 19.4599 74.0612 19.5488 74.0167C19.7414 73.898 19.7117 73.2896 19.5192 73.0968C19.3266 72.9039 19.134 72.1175 18.9267 70.6041C18.7341 69.2688 18.7341 58.0963 18.9415 53.9123C19.1044 50.292 19.2525 48.7934 19.5044 48.3186C19.7858 47.7993 19.7117 47.6064 19.1637 47.3394C18.5415 47.0426 18.112 47.013 17.949 47.28C17.6972 47.6658 17.4602 48.5115 17.4602 49.0308C17.4602 49.3276 17.3565 49.654 17.238 49.7578C17.0899 49.8765 17.0159 50.203 17.0159 50.7074C17.0159 51.1525 16.927 51.5977 16.7937 51.7757C16.6604 51.9389 16.5715 52.4137 16.5715 52.9478C16.5715 53.4375 16.4678 54.0013 16.3493 54.209C16.2308 54.4167 16.1419 54.9657 16.1271 55.4405C16.1271 55.9153 16.0679 56.4197 15.9938 56.5681C15.9049 56.7165 15.816 57.3248 15.7716 57.9331C15.7272 58.5415 15.6235 59.2685 15.5346 59.5504C15.4605 59.8323 15.3865 60.4258 15.3865 60.8561C15.3865 61.2863 15.2976 62.1172 15.1791 62.7107C15.0606 63.3042 14.8977 64.9511 14.8088 66.3755C14.7199 67.7999 14.5718 69.5061 14.4977 70.159C14.4237 70.8118 14.32 72.2214 14.2755 73.2748C14.2311 74.3431 14.1422 75.7378 14.0682 76.3906C13.8608 78.0524 13.8756 97.3407 14.0682 98.5722C14.157 99.1064 14.2755 100.011 14.3348 100.575C14.394 101.154 14.5125 101.762 14.6162 101.94C14.7199 102.118 14.794 102.445 14.794 102.652C14.794 103.617 16.5419 107.133 17.8602 108.81C18.4675 109.581 18.5267 109.626 19.1933 109.641C20.8967 109.7 22.7483 109.893 23.0149 110.071C23.1779 110.16 23.5482 110.294 23.8296 110.353C24.111 110.397 24.6147 110.605 24.9405 110.798C25.7849 111.303 26.0515 111.288 26.0515 110.739ZM104.587 82.6074C104.676 82.548 105.269 82.459 105.92 82.3848C107.091 82.2661 109.772 81.4798 110.186 81.1385C111.238 80.2631 115.519 79.5955 117.208 80.0406C118.674 80.4115 119.652 80.7527 120.452 81.1534C120.911 81.3759 121.444 81.4353 121.444 81.2572C121.444 81.183 120.881 80.545 120.185 79.818C117.889 77.3995 115.993 73.7348 114.793 69.3429C114.23 67.2806 114.156 66.88 114.171 66.2716C114.186 65.9156 114.127 65.4853 114.023 65.3072C113.845 64.9808 113.712 63.8829 113.46 60.589C113.386 59.6543 113.253 58.6898 113.164 58.4673C113.075 58.2299 113.001 57.2951 113.001 56.3901C112.986 55.4702 112.927 54.4316 112.853 54.0606C112.764 53.6897 112.675 52.0873 112.631 50.4997C112.586 48.9121 112.482 46.7756 112.408 45.7666C112.216 43.3482 112.216 28.4961 112.408 26.3299C112.497 25.41 112.586 23.3031 112.631 21.6562C112.66 20.0241 112.764 18.3772 112.838 18.0062C112.927 17.6353 112.986 16.6115 113.001 15.7065C113.001 14.7124 113.09 13.7925 113.223 13.3474C113.342 12.9467 113.445 12.101 113.445 11.4779C113.445 10.736 113.519 10.1722 113.667 9.90512C113.816 9.60838 113.86 9.26712 113.801 8.80717C113.741 8.34722 113.786 7.94661 113.949 7.56084C114.082 7.24926 114.171 6.81898 114.156 6.59643C114.127 6.1068 114.749 4.23731 115.104 3.77736C115.252 3.58448 115.371 3.33224 115.371 3.22838C115.371 2.96131 115.089 2.82778 114.882 2.99099C114.615 3.21355 111.001 5.00885 110.038 5.39461C108.735 5.92875 107.979 6.29968 107.876 6.44805C107.831 6.52224 107.654 6.58159 107.476 6.58159C107.298 6.58159 107.017 6.68545 106.868 6.80415C106.706 6.92285 106.469 7.02671 106.32 7.02671C106.187 7.02671 105.995 7.13057 105.891 7.24926C105.787 7.36796 105.55 7.47182 105.358 7.47182C105.18 7.47182 104.987 7.53117 104.943 7.60536C104.824 7.79824 103.699 8.36205 103.447 8.36205C103.328 8.36205 102.988 8.51043 102.677 8.68847C102.04 9.07424 101.462 9.40066 100.721 9.78642C99.9807 10.1722 98.7808 11.4334 98.7808 11.8191C98.7808 12.012 98.6772 12.3087 98.5438 12.4868C98.4253 12.6648 98.292 13.11 98.2772 13.4512C98.2476 13.8073 98.1587 14.2376 98.055 14.4008C97.9662 14.5788 97.8921 15.113 97.8921 15.6026C97.8921 16.0922 97.7884 16.7302 97.6699 17.0121C97.5366 17.3237 97.4477 18.0062 97.4477 18.6591C97.4477 19.2674 97.3737 19.9499 97.2848 20.1873C97.1811 20.4099 97.0922 21.1369 97.0774 21.7897C97.0033 24.4901 96.6775 28.3774 96.4553 29.2677C96.2923 29.9205 96.2479 30.5288 96.322 31.1965C96.3664 31.7306 96.3368 33.4814 96.2479 35.069C96.0553 38.8525 96.0554 53.8677 96.2627 56.7462C96.3516 57.9925 96.4109 59.6691 96.396 60.5C96.396 61.3309 96.4553 62.3991 96.5442 62.8888C96.633 63.3784 96.7071 64.4467 96.7071 65.2627C96.7071 66.0788 96.7812 66.9838 96.8552 67.2657C96.9441 67.5476 97.0478 68.4082 97.0922 69.1649C97.1367 69.9216 97.2255 70.7228 97.3144 70.9157C97.3885 71.1234 97.4477 71.5982 97.4477 71.9543C97.4477 72.3252 97.5218 72.7703 97.6255 72.9484C97.7143 73.1264 97.8328 73.6606 97.9069 74.165C98.0402 75.2778 98.5142 76.9693 98.9142 77.815C99.0919 78.1562 99.2252 78.5568 99.2252 78.7052C99.2252 78.8388 99.3289 79.0316 99.4474 79.1355C99.5659 79.2394 99.6696 79.4026 99.6696 79.5064C99.6696 79.6251 99.9658 80.1593 100.336 80.7082C100.706 81.2424 101.003 81.7172 101.003 81.7468C101.003 81.7617 101.136 82.0287 101.314 82.3107L101.61 82.8151L103.017 82.7558C103.802 82.7261 104.498 82.6519 104.587 82.6074ZM22.0077 71.7614C22.4669 71.4498 23.0445 71.0641 23.2964 70.886C23.7111 70.6189 24.3629 70.248 26.7921 68.9275C27.7105 68.4379 28.9399 67.8147 31.9765 66.3162C33.3985 65.6188 34.7316 64.9511 34.939 64.8324C35.1464 64.7137 35.65 64.4615 36.0499 64.2835C36.4647 64.1202 37.1905 63.779 37.6793 63.5416C38.1681 63.3042 38.6273 63.1113 38.7014 63.1113C38.7754 63.1113 38.9532 63.0223 39.0717 62.9184C39.205 62.8146 39.8419 62.503 40.4937 62.2211C41.649 61.7315 42.6415 61.2863 44.9819 60.2032C47.574 59.0014 48.6554 58.5118 48.7739 58.5118C48.8775 58.5118 51.4549 57.3693 52.6547 56.7907C53.0695 56.5978 53.4842 56.4346 53.5731 56.4346C53.662 56.4346 53.9138 56.3456 54.1508 56.2269C54.373 56.1082 54.7285 55.945 54.9359 55.8559C56.2838 55.3069 57.3059 54.8915 57.8243 54.7135C58.1502 54.5948 58.5501 54.4464 58.713 54.3722C59.424 54.0606 60.5646 53.6155 61.5274 53.2743C62.1051 53.0665 62.7717 52.7995 63.0087 52.6659C63.2605 52.5324 63.5567 52.4285 63.6752 52.4285C63.7937 52.4285 64.0307 52.3247 64.1789 52.206C64.3418 52.0873 64.6232 51.9834 64.8158 51.9834C65.0084 51.9834 65.3194 51.8944 65.4972 51.7757C65.6749 51.6718 66.1934 51.4641 66.6377 51.3157C67.5413 51.019 69.5558 50.292 70.3112 49.9656C70.5779 49.8469 70.9185 49.7578 71.0815 49.7578C71.2296 49.7578 71.5407 49.6688 71.7777 49.5501C72.2961 49.2979 73.0515 49.0308 73.7922 48.8528C74.118 48.7786 74.6068 48.5857 74.9031 48.4373C75.2142 48.289 75.6734 48.1109 75.94 48.0516C76.2066 47.9922 76.6065 47.8587 76.8287 47.74C77.0509 47.6213 77.3323 47.5323 77.4657 47.5323C77.5842 47.5323 78.3248 47.3245 79.095 47.0871C79.8653 46.8349 81.154 46.4343 81.9687 46.1821C82.7834 45.9298 83.6573 45.6628 83.8943 45.5737C84.1461 45.4847 84.546 45.3957 84.783 45.3512C85.0349 45.3215 85.3311 45.2473 85.4496 45.2028C86.0717 44.9506 87.6863 44.5055 88.7824 44.2829C89.1083 44.2087 89.7748 44.0455 90.2637 43.8971C90.7525 43.7488 91.4931 43.5856 91.893 43.5262C92.3078 43.4669 92.841 43.3482 93.0928 43.2591C93.3447 43.185 93.715 43.1404 93.9223 43.185C94.1297 43.2295 94.3519 43.185 94.4112 43.0959C94.4556 42.9921 94.5 40.9 94.4852 38.4371C94.4852 35.9444 94.5445 33.4666 94.6333 32.8434C94.7222 32.2351 94.7963 30.603 94.7963 29.2232C94.8111 27.5317 94.8852 26.4783 95.0185 26.0332C95.137 25.6326 95.2258 24.683 95.2258 23.7482C95.2258 22.6651 95.2999 21.9826 95.448 21.6117C95.5814 21.2853 95.6702 20.6027 95.6702 19.7719C95.6702 19.0597 95.7443 18.2881 95.848 18.0507C95.9369 17.8282 96.0257 17.3089 96.0405 16.8934C96.0998 15.4839 96.2924 14.0744 96.4997 13.5996C96.6182 13.3474 96.7071 12.9764 96.7071 12.7687C96.7071 12.561 96.8108 12.2049 96.9293 11.9823C97.0478 11.7449 97.1515 11.3888 97.1515 11.2108C97.1515 10.7805 97.818 9.83094 98.3661 9.44517C98.9734 9.04457 98.929 8.48075 98.2624 8.16917C97.5514 7.82791 97.1218 7.85759 95.8924 8.3027C95.3295 8.51043 94.6926 8.73298 94.4852 8.80717C94.2778 8.86652 93.5668 9.19294 92.9151 9.53419C92.2485 9.87545 91.6116 10.1425 91.4931 10.1425C91.3746 10.1425 91.1524 10.2464 90.9895 10.3651C90.8413 10.4838 90.5599 10.5876 90.397 10.5876C90.2192 10.5876 89.997 10.6915 89.8933 10.8102C89.7897 10.9289 89.6119 11.0327 89.5082 11.0327C89.3305 11.0327 88.6787 11.3147 85.8199 12.6648C85.3311 12.8874 84.3683 13.3325 83.6721 13.6293C82.9759 13.9408 82.0131 14.3711 81.5243 14.6085C81.0355 14.8311 80.2652 15.1575 79.8209 15.3355C79.3765 15.5284 78.547 15.8845 77.9693 16.1516C77.4064 16.4187 76.6065 16.7896 76.1918 16.9676C75.7918 17.1457 75.1697 17.4127 74.829 17.576C74.4735 17.7243 73.9107 17.9914 73.57 18.1398C73.2145 18.303 72.5331 18.5997 72.0443 18.8223C71.5555 19.0448 70.8593 19.3564 70.489 19.5196C70.1187 19.6977 69.3188 20.0538 68.7115 20.3357C68.1042 20.6176 67.408 20.944 67.1562 21.0479C66.9192 21.1517 66.2082 21.4781 65.6009 21.76C64.9935 22.042 64.0307 22.4871 63.453 22.7541C62.8902 23.0212 61.8681 23.496 61.1867 23.8076C60.5202 24.1192 59.9425 24.3862 59.9129 24.3862C59.824 24.3862 58.165 25.1429 56.0024 26.1815C54.9951 26.6712 54.1212 27.0569 54.0471 27.0569C53.9879 27.0569 53.8545 27.1608 53.7509 27.2795C53.6472 27.3982 53.4546 27.502 53.3065 27.502C53.1732 27.502 52.6251 27.7246 52.1067 27.9917C51.5882 28.2439 50.7291 28.6593 50.1959 28.8819C48.8183 29.4902 48.2258 29.7573 47.974 29.8908C47.8555 29.965 47.6185 30.0837 47.4407 30.1579C47.263 30.2321 46.1372 30.7811 44.9226 31.3597C42.6711 32.4577 41.9453 32.7989 39.6049 33.882C38.8791 34.2233 37.7978 34.7278 37.2201 35.0097C36.6424 35.2916 36.1092 35.5141 36.0203 35.5141C35.9314 35.5141 35.7833 35.618 35.6796 35.7367C35.5759 35.8554 35.3834 35.9592 35.2352 35.9592C35.0871 35.9592 34.8945 36.0631 34.7909 36.1818C34.6872 36.3005 34.4502 36.4044 34.2724 36.4044C34.0947 36.4044 33.8577 36.5082 33.754 36.6269C33.6503 36.7456 33.4725 36.8495 33.354 36.8495C33.2355 36.8495 32.9689 36.983 32.7764 37.1314C32.569 37.2946 31.932 37.6062 31.3395 37.8287C30.747 38.0513 30.1694 38.3184 30.036 38.4222C29.9175 38.5409 29.7546 38.6299 29.7102 38.6299C29.6509 38.6299 28.9695 38.9267 28.1845 39.2976C27.4142 39.6685 26.718 39.9653 26.644 39.9653C26.5699 39.9653 26.3329 40.0691 26.0959 40.1878C25.8737 40.3065 25.1775 40.633 24.5702 40.9297C23.9629 41.2116 23.326 41.538 23.1779 41.6271C22.6446 41.9683 22.0373 42.7102 21.9632 43.0811C21.9336 43.2888 21.8299 43.6597 21.7262 43.8971C21.6374 44.1494 21.5485 44.55 21.5337 44.7874C21.3559 46.7904 21.2522 47.5026 21.1189 47.7548C21.03 47.918 20.9115 48.7934 20.8523 49.6837C20.7782 50.5887 20.6597 52.1911 20.5857 53.2446C20.3783 55.9746 20.3783 70.159 20.5857 71.1531C20.7338 71.8653 20.9412 72.3104 21.1189 72.3104C21.1485 72.3104 21.5485 72.0582 22.0077 71.7614ZM185.108 48.8379C185.138 48.7044 184.96 48.1406 184.708 47.6064C184.456 47.0723 184.205 46.4491 184.145 46.2266C184.101 46.004 183.864 45.455 183.627 44.9803C183.405 44.5203 183.212 44.0604 183.212 43.9713C183.212 43.6894 182.205 41.8051 181.79 41.3155C181.435 40.8852 181.331 40.8407 180.724 40.8852C180.131 40.9297 179.983 41.0039 179.702 41.4193C179.524 41.6864 179.331 42.2799 179.272 42.7398L179.168 43.5559L179.894 44.1642C180.724 44.8616 183.953 48.1406 183.953 48.289C183.953 48.3335 184.101 48.556 184.264 48.7786C184.604 49.2089 185.034 49.2385 185.108 48.8379ZM124.555 4.69727C124.555 4.54889 123.666 2.99099 123.34 2.57555C122.688 1.74466 121.814 1.47759 121.237 1.90787C121.074 2.02657 120.763 2.13043 120.54 2.13043C120.259 2.13043 120.096 2.21945 120.037 2.42717C119.903 2.82778 120.022 2.96131 120.585 3.08001C121.177 3.19871 123.429 4.29666 123.681 4.5934C123.844 4.80113 124.555 4.89015 124.555 4.69727Z" fill="rgb(0,0,0)" fill-rule="nonzero" transform="matrix(1,0,0,-1,0.498535,230.052)" />
		<path id="矢量 483" d="M0 15.0746C0 14.852 0.192562 14.8075 1.85156 14.6294C4.3845 14.3772 7.25812 14.0508 9.03562 13.8134C9.96881 13.6799 11.7759 13.5166 13.035 13.4425C14.2941 13.3683 15.6716 13.2793 16.0716 13.2199C16.8122 13.1309 20.7079 12.8193 24.3666 12.5522C25.4331 12.478 26.7958 12.3445 27.4031 12.2703C28.0104 12.1813 29.2547 12.0478 30.1434 11.9587C31.047 11.8697 32.6764 11.7065 33.7725 11.573C34.8686 11.4394 36.4684 11.2911 37.3423 11.2169C38.2014 11.1575 39.0309 11.0388 39.1939 10.9498C39.5494 10.7421 42.1416 10.4157 47.4741 9.89637C48.2887 9.80735 49.4589 9.67381 50.0662 9.59963C51.1327 9.43642 52.7917 9.25837 55.6654 8.9913C56.4208 8.91711 57.0874 8.82809 57.1614 8.78358C57.2355 8.73907 58.0206 8.5907 58.8945 8.45716C59.7832 8.33846 60.8053 8.17525 61.1756 8.10107C62.3014 7.89335 65.6786 7.04763 65.9452 6.89926C66.0934 6.82507 66.3156 6.76572 66.4341 6.76572C66.5526 6.76572 67.4709 6.42446 68.4782 6.00902C71.174 4.89623 71.3962 4.79237 71.3962 4.67368C71.3962 4.61433 71.5592 4.5253 71.7517 4.48079C72.4627 4.30275 74.8031 2.59647 76.2103 1.21661C77.4249 0.0444682 77.7064 -0.148415 77.9878 0.0889797C78.2396 0.311538 78.1359 0.534096 77.4397 1.27596C75.203 3.6054 72.2405 5.56391 69.3225 6.61735C68.7892 6.81023 68.3004 7.01795 68.2115 7.0773C68.0782 7.16632 66.36 7.70046 64.2122 8.30879C63.1012 8.63521 62.0051 8.84293 60.3609 9.08032C59.5462 9.19902 58.2427 9.39191 57.4725 9.5106C53.7842 10.0744 49.0738 10.6086 42.2897 11.2317C41.4009 11.3059 40.5566 11.4098 40.4381 11.4543C40.1715 11.5581 37.7867 11.8994 35.9203 12.1071C35.1945 12.1813 34.1576 12.3148 33.6244 12.389C33.0911 12.478 32.0987 12.5819 31.4025 12.6264C30.7063 12.6709 29.6842 12.7748 29.1066 12.849C28.5437 12.9232 26.8106 13.0864 25.2553 13.2199C23.7148 13.3386 21.6114 13.5166 20.5894 13.6057C19.5673 13.6799 17.5676 13.8134 16.1456 13.8876C13.7608 14.0063 12.5017 14.125 9.70219 14.4959C9.13931 14.5701 8.07281 14.7036 7.33219 14.7778C6.60637 14.852 5.36212 14.9855 4.59187 15.0597C2.7255 15.2674 0 15.2674 0 15.0746Z" fill="rgb(0,0,0)" fill-rule="nonzero" transform="matrix(1,0,0,-1,95.4282,17.9158)" />
		<path id="矢量 484" d="M7.31894 61.7045C7.20044 61.66 6.94863 61.4226 6.77088 61.1555C6.59313 60.8884 6.04507 60.2504 5.54145 59.7163C3.95651 57.9952 2.74189 54.9239 1.98645 50.6656C1.88276 50.1314 1.71982 49.167 1.58651 48.5142C1.30508 46.9414 1.29026 46.9118 1.02364 44.5081C0.223764 37.2824 0.00157672 32.0597 0.00157672 19.4333C-0.0132358 6.19849 0.0756391 0.100397 0.297826 0.0113742C0.386701 -0.0183002 0.549639 0.0113742 0.668139 0.0855602C0.979201 0.263607 1.06808 3.58714 0.979201 12.3856C0.905138 21.2879 1.30508 39.33 1.58651 39.9828C1.64576 40.1015 1.76426 40.9027 1.83832 41.7633C2.1642 45.1016 2.26789 46.0215 2.41601 46.6595C2.50489 47.0305 2.57895 47.5943 2.57895 47.9059C2.57895 48.2323 2.66782 48.8703 2.78632 49.3154C2.90482 49.7754 3.14182 50.9178 3.31957 51.8526C3.63064 53.5885 3.95651 54.8348 4.22313 55.2948C4.2972 55.4432 4.35645 55.6509 4.35645 55.7547C4.35645 55.8586 4.59345 56.4373 4.8897 57.0456C5.45257 58.2326 6.77088 59.9537 7.57076 60.5768C8.32619 61.1406 8.14844 61.927 7.31894 61.7045Z" fill="rgb(0,0,0)" fill-rule="nonzero" transform="matrix(1,0,0,-1,168.689,77.6914)" />
	</g>
</svg>
