<svg viewBox="0 0 216 230" xmlns="http://www.w3.org/2000/svg" xmlns:xlink="http://www.w3.org/1999/xlink" width="216.000000" height="230.000000" fill="none">
	<rect id="1-9" width="216.000000" height="230.000000" x="0.000000" y="0.000000" />
	<path id="矢量 485" d="M172.596 10.643L156.369 5.7883L121.509 3.01844L93.7964 0.963379L87.1988 3.18225L82.845 12.847L82.2061 23.7626L82.2061 31.3574L78.5953 39.8755L72.6069 63.5534L71.5668 80.4258L55.5186 83.1956L34.3589 90.2245L14.2839 98.8915L5.2048 102.644L2.79758 108.288L5.50198 115.034L1.83172 120.589L0.271484 130.581L1.22248 155.272L5.26423 177.565C5.26423 177.565 17.4043 184.072 17.5827 184.072C17.761 184.072 20.3465 182.747 20.3465 182.747L21.6095 188.704L96.6642 223.223L100.587 221.212L116.13 228.375L119.102 227.139L122.401 229.492L124.674 227.646L125.922 223.476L146.28 211.831L166.31 197.46L179.208 185.74L179.208 188.629L181.288 189.999L183.859 188.153L186.742 178.428L197.247 167.423L200.695 122.852L198.213 118.519L195.568 116.836L197.738 116.002L200.71 116.434L203.592 114.185L215.049 39.7117L212.642 37.2397L201.586 35.6314L194.929 32.7126L188.748 33.1445L182.67 31.7L179.461 16.6742L172.596 10.643Z" fill="rgb(255,255,255)" fill-rule="nonzero" />
	<path id="矢量 485" d="M156.369 5.7883L121.509 3.01844L93.7964 0.963379L87.1988 3.18225L82.845 12.847L82.2061 23.7626L82.2061 31.3574L78.5953 39.8755L72.6069 63.5534L71.5668 80.4258L55.5186 83.1956L34.3589 90.2245L14.2839 98.8915L5.2048 102.644L2.79758 108.288L5.50198 115.034L1.83172 120.589L0.271484 130.581L1.22248 155.272L5.26423 177.565C5.26423 177.565 17.4043 184.072 17.5827 184.072C17.761 184.072 20.3465 182.747 20.3465 182.747L21.6095 188.704L96.6642 223.223L100.587 221.212L116.13 228.375L119.102 227.139L122.401 229.492L124.674 227.646L125.922 223.476L146.28 211.831L166.31 197.46L179.208 185.74L179.208 188.629L181.288 189.999L183.859 188.153L186.742 178.428L197.247 167.423L200.695 122.852L198.213 118.519L195.568 116.836L197.738 116.002L200.71 116.434L203.592 114.185L215.049 39.7117L212.642 37.2397L201.586 35.6314L194.929 32.7126L188.748 33.1445L182.67 31.7L179.461 16.6742L172.596 10.643L156.369 5.7883Z" fill-rule="nonzero" stroke="rgb(0,0,0)" stroke-width="1.000000" />
	<path id="矢量 486" d="M88.8929 3.00381L84.0784 9.43704L82.4736 16.3319L83.2463 34.0829L85.6833 62.0347L89.0563 68.0063L95.1487 69.1083L119.503 72.3249L161.986 83.5682L169.772 82.213L172.625 79.9048L178.97 55.6164L183.072 44.6114L180.813 21.4845L179.431 15.5576L170.872 9.58596L156.607 5.98216L106.204 1.58909L93.7965 1.24658L88.8929 3.00381Z" fill="rgb(1,89,188)" fill-rule="nonzero" />
	<g id="组合 97">
		<path id="矢量 487" d="M93.8927 229.68C93.6104 229.576 93.1349 229.486 92.8525 229.471C92.5702 229.471 92.169 229.367 91.961 229.248C91.7529 229.129 91.4112 229.039 91.2031 229.025C90.9802 229.025 90.7276 228.92 90.6236 228.801C90.5196 228.682 90.3413 228.578 90.2224 228.578C89.9401 228.578 89.2714 228.206 88.3204 227.52C87.6518 227.044 87.3991 226.806 86.6116 225.912C84.9919 224.095 82.7779 219.792 82.5401 218.005C82.4955 217.632 82.3767 216.962 82.3024 216.515C82.0349 215.101 81.9458 207.968 82.1538 203.977L82.3321 200.269L81.9309 199.688C81.708 199.375 81.4405 198.854 81.3365 198.541C81.2325 198.228 80.7719 197.067 80.3261 195.965C79.8803 194.863 79.4048 193.582 79.2562 193.135C79.1076 192.689 78.9144 192.078 78.8104 191.795C78.7064 191.512 78.4687 190.738 78.2903 190.083C78.112 189.427 77.9189 188.787 77.8594 188.668C77.8 188.549 77.6365 188.042 77.4879 187.551C77.0124 185.868 76.8044 185.168 76.4329 184.022C76.2398 183.381 76.0317 182.622 75.9871 182.309C75.8831 181.743 75.5859 180.552 75.2887 179.599C75.0956 178.988 74.7538 177.529 74.5755 176.606C74.5161 176.233 74.3526 175.653 74.2189 175.295C74.0851 174.938 74.0108 174.595 74.0554 174.521C74.1 174.461 74.0257 174.119 73.9068 173.776C73.788 173.434 73.6839 172.942 73.6839 172.689C73.6839 172.436 73.6245 172.034 73.5502 171.781C73.3273 171.051 72.9112 168.698 72.6586 166.703C72.5843 166.137 72.4506 165.407 72.3763 165.079C72.2872 164.767 72.2574 164.305 72.302 164.037C72.3317 163.784 72.2872 163.277 72.198 162.905C72.094 162.533 71.9603 161.461 71.9008 160.522C71.8414 159.584 71.7076 158.333 71.6185 157.738C71.455 156.725 71.4402 151.17 71.6036 150.694C71.6631 150.515 71.4699 150.456 70.6378 150.396C70.0583 150.351 69.4936 150.247 69.3747 150.173C69.2558 150.098 68.7506 149.979 68.2603 149.92C66.6257 149.726 65.5559 149.547 65.0209 149.369C64.7237 149.264 59.1663 148.252 58.7503 148.192C58.3491 148.118 57.8587 147.999 57.6804 147.894C57.5021 147.79 57.1306 147.716 56.8631 147.716C56.5957 147.701 56.2093 147.611 56.0013 147.492C55.7932 147.373 55.392 147.284 55.0949 147.269C54.7977 147.269 54.3073 147.165 54.025 147.045C53.7278 146.926 51.7218 146.375 51.484 146.375C51.2314 146.375 50.8897 146.271 50.7411 146.152C50.5776 146.033 50.1764 145.929 49.8346 145.929C49.5077 145.929 43.8909 144.335 43.029 143.903C42.7913 143.784 42.4644 143.695 42.2861 143.695C42.1078 143.695 41.8254 143.591 41.6768 143.471C41.5134 143.352 41.2608 143.248 41.1122 143.248C40.9636 143.248 40.7258 143.189 40.5772 143.114C40.4435 143.025 39.4628 142.682 38.3929 142.34C37.3379 141.997 36.1492 141.565 35.7628 141.372C35.3765 141.178 34.9604 141.014 34.8267 141.014C34.7078 141.014 34.1729 140.806 33.6676 140.568C33.1476 140.314 23.0135 135.981 22.5677 135.802C22.1219 135.624 21.4384 135.326 21.0669 135.117C20.6805 134.924 20.2942 134.76 20.1753 134.76C20.0713 134.76 19.8781 134.67 19.7593 134.551C19.6255 134.447 18.8826 134.09 18.1099 133.792C17.3372 133.479 16.5942 133.181 16.4753 133.122C16.3565 133.062 16.0147 132.898 15.7324 132.779C15.45 132.66 14.8408 132.392 14.395 132.184C13.9492 131.99 13.3103 131.737 12.9834 131.647C12.6565 131.543 12.2553 131.409 12.0918 131.35C11.5569 131.141 10.7545 130.858 10.4573 130.784C10.2938 130.739 9.92235 130.605 9.64002 130.486C7.75288 129.697 6.41554 128.833 5.2565 127.686C4.43924 126.867 4.0529 126.331 3.47338 125.155C3.07218 124.336 2.68583 123.338 2.62639 122.921C2.58182 122.519 2.4778 121.864 2.41836 121.476C2.28463 120.523 2.71555 118.379 3.28021 117.262C3.80029 116.22 4.06775 115.877 4.61755 115.505C5.16735 115.162 5.13763 114.939 4.4541 114.254C4.14205 113.941 3.66655 113.36 3.38422 112.943C2.81957 112.124 1.91314 110.308 1.91314 109.995C1.91314 109.891 1.80913 109.667 1.69025 109.488C1.57138 109.325 1.37821 108.803 1.25933 108.342C1.14046 107.88 0.991863 107.419 0.917567 107.314C0.709535 106.972 0.456926 104.946 0.144879 100.956C-0.048293 98.5282 -0.048293 87.136 0.144879 85.3192C0.219176 84.5448 0.35291 82.8025 0.442066 81.4473C0.516363 80.0922 0.650098 78.2903 0.724395 77.4265C0.798692 76.5628 0.917567 75.0885 0.991863 74.1504C1.06616 73.2122 1.19989 72.2889 1.28905 72.1102C1.39307 71.9315 1.46736 71.2018 1.46736 70.5019C1.46736 69.7573 1.54166 69.0872 1.64568 68.8936C1.74969 68.7149 1.88343 68.0001 1.94286 67.3001C2.12118 65.0962 2.31435 63.6219 2.4778 63.3389C2.5521 63.19 2.65611 62.6241 2.71555 62.088C2.77499 61.5519 2.879 60.7031 2.9533 60.1968C3.04246 59.6756 3.16133 58.8714 3.22077 58.4098C3.28021 57.9332 3.41394 57.3971 3.51796 57.2184C3.62197 57.0397 3.69627 56.6228 3.69627 56.2803C3.69627 55.9526 3.80029 55.4612 3.93402 55.2081C4.06775 54.9549 4.12719 54.6124 4.08261 54.4486C4.03804 54.2699 4.09747 54.0316 4.20149 53.8976C4.3055 53.7784 4.43924 53.3913 4.48382 53.0339C4.5284 52.6913 4.73643 52.1701 4.94446 51.9021C5.28622 51.4404 6.95047 50.2342 7.75288 49.8619C7.93119 49.7726 8.61472 49.4152 9.26854 49.0578C10.3978 48.4472 11.8689 47.7026 14.4693 46.4368C15.7472 45.8263 17.3075 45.2306 17.6641 45.2157C17.783 45.2157 18.3625 45.3199 18.9271 45.454C19.5066 45.5731 20.0119 45.6475 20.0862 45.6029C20.1456 45.5731 20.1902 45.0668 20.1902 44.5009C20.1902 43.9201 20.2942 43.2351 20.4131 42.9224C20.5319 42.6394 20.636 42.2969 20.636 42.1778C20.636 41.9097 21.5275 40.7333 22.0179 40.3312C22.2259 40.1823 22.8203 39.8547 23.3404 39.6164C23.8456 39.393 25.0789 38.8122 26.0596 38.3506C28.9424 36.9657 29.0464 36.921 29.2098 36.921C29.299 36.921 29.4476 36.8167 29.5516 36.6976C29.6556 36.5785 29.8934 36.4742 30.0717 36.4742C30.2648 36.4742 30.4431 36.3849 30.4877 36.2806C30.5174 36.1913 30.8146 36.0126 31.1267 35.9083C31.4536 35.8041 32.6126 35.268 33.7122 34.7319C34.8118 34.1809 35.9263 33.6597 36.164 33.5554C36.4166 33.4512 37.5162 32.93 38.6158 32.4088C42.2712 30.6516 43.2222 30.2197 43.4451 30.2197C43.5491 30.2197 43.6829 30.1601 43.7274 30.1006C43.8463 29.907 47.3383 28.2093 49.478 27.3158C49.9832 27.0924 50.8302 26.7052 51.38 26.4223C51.915 26.1542 52.7619 25.7522 53.2523 25.5288C55.392 24.5459 56.7591 23.9056 58.0073 23.295C59.8201 22.4164 61.3209 21.7314 61.4249 21.7314C61.4695 21.7314 62.1828 21.3889 63.0298 20.9719C63.8619 20.555 64.7832 20.1231 65.0655 20.0188C65.3478 19.9146 66.1948 19.5423 66.9229 19.1998C67.6659 18.8573 68.6615 18.3956 69.1518 18.1574C69.6422 17.934 70.4743 17.5319 71.0092 17.2788C71.5442 17.0256 72.0345 16.8171 72.094 16.8171C72.1534 16.8171 73.0598 16.415 74.0851 15.9236C75.1104 15.4322 76.002 15.0301 76.0614 15.0301C76.1357 15.0301 76.3735 14.9408 76.6112 14.8216C76.8341 14.7025 77.2651 14.5089 77.5474 14.3898C78.7361 13.8834 79.4791 13.5112 79.5534 13.3771C79.6128 13.3027 79.7614 13.2431 79.8952 13.2431C80.0289 13.2431 80.5787 13.0346 81.1136 12.7815C81.6486 12.5283 82.2875 12.2305 82.5253 12.1113C82.7779 12.0071 83.402 11.7241 83.9369 11.4859C84.4718 11.2476 85.0662 10.9944 85.2743 10.9349C85.616 10.8306 86.8642 10.2499 87.3546 9.95203C87.4734 9.87757 87.6815 9.77332 87.8003 9.72865C87.9192 9.68398 88.2313 9.56484 88.469 9.4606C88.7216 9.34146 89.212 9.13298 89.5835 8.99895C89.955 8.85004 90.6682 8.53731 91.1883 8.29904C91.6935 8.07567 92.1541 7.88207 92.2284 7.88207C92.2879 7.88207 92.7337 7.67359 93.2092 7.43532C93.6847 7.18216 94.1899 6.98857 94.3236 6.98857C94.4574 6.98857 94.7248 6.88433 94.9031 6.7503C95.4232 6.3929 97.4441 5.93125 98.0533 6.0355C98.7517 6.16952 99.7324 6.7503 100.267 7.37575C100.52 7.6587 100.802 7.88207 100.891 7.88207C100.981 7.88207 101.308 7.68848 101.605 7.45021C101.902 7.22684 103.046 6.58649 104.146 6.0355C105.245 5.4845 106.211 4.97818 106.285 4.90372C106.375 4.81437 106.553 4.75481 106.687 4.75481C106.835 4.75481 107.132 4.66545 107.37 4.54632C107.593 4.44208 108.024 4.23359 108.306 4.11446C109.124 3.74217 112.913 1.99983 113.656 1.64243C115.469 0.7936 116.865 0.525549 117.222 0.957409C117.326 1.07654 117.564 1.18079 117.742 1.18079C117.92 1.18079 118.247 1.31481 118.455 1.47862C118.975 1.89559 119.273 1.85091 119.807 1.27014C120.565 0.45109 122.809 -0.323281 123.091 0.138363C123.136 0.227714 123.344 0.287281 123.537 0.287281C123.953 0.287281 125.187 1.702 125.335 2.34234C125.395 2.56572 125.528 2.84866 125.632 2.9678C125.93 3.3252 126.286 4.42719 126.286 5.00797C126.286 5.35048 126.36 5.52918 126.554 5.58874C126.687 5.63342 127.683 6.10995 128.738 6.64606C130.536 7.53956 131.13 7.85229 134.162 9.47549C134.771 9.78822 135.618 10.2796 136.034 10.5328C136.45 10.8009 136.836 11.0093 136.896 11.0093C136.955 11.0093 137.223 11.1731 137.475 11.3667C137.743 11.5752 138.114 11.7986 138.322 11.888C138.53 11.9773 138.827 12.1411 138.991 12.2305C139.244 12.4092 139.541 12.5879 140.774 13.3473C140.937 13.4516 141.205 13.6005 141.368 13.6899C141.532 13.7792 141.844 13.9579 142.067 14.1068C142.29 14.2408 143.226 14.8216 144.147 15.3875C145.068 15.9534 146.213 16.7129 146.673 17.0703C147.134 17.4128 147.565 17.7106 147.639 17.7106C147.713 17.7106 147.996 17.9042 148.278 18.1425C148.56 18.3659 148.947 18.6041 149.14 18.6637C149.318 18.7233 149.467 18.8275 149.467 18.8722C149.467 18.9317 149.719 19.1105 150.031 19.2743C150.329 19.4381 150.819 19.7806 151.116 20.0337C151.413 20.2869 152.245 20.8975 152.974 21.374C153.702 21.8654 154.37 22.2973 154.445 22.3717C154.534 22.4313 155.604 23.2206 156.822 24.129C158.055 25.0374 159.125 25.8564 159.2 25.9607C159.289 26.05 160.047 26.6606 160.908 27.3009C162.305 28.3731 163.375 29.222 164.475 30.175C164.683 30.3537 165.114 30.7111 165.455 30.9941C165.797 31.2621 166.555 31.9025 167.164 32.4237C167.774 32.9449 168.591 33.6448 168.992 33.9873C172.826 37.2337 176.882 40.9715 177.64 41.9097C178.22 42.6543 178.591 42.565 178.591 41.6715C178.591 40.8375 179.111 40.1823 180.137 39.6908C181.088 39.2441 181.548 39.2143 182.514 39.5419C183.064 39.7355 183.376 39.9738 183.881 40.629C184.238 41.0907 184.609 41.7012 184.698 41.9842C184.802 42.2671 184.996 42.7734 185.144 43.1011C185.486 43.8456 185.857 44.8881 186.021 45.5433C186.095 45.8114 186.214 46.1092 186.303 46.1985C186.392 46.2879 186.467 46.6155 186.467 46.9133C186.467 47.2112 186.571 47.5388 186.689 47.643C186.808 47.7473 186.912 48.0749 186.912 48.3727C186.912 48.6706 187.016 49.0578 187.135 49.2365C187.254 49.4152 187.343 49.8321 187.328 50.1895C187.314 50.815 187.343 50.8597 188.785 52.2148C192.782 55.9824 197.611 61.0456 197.611 61.4775C197.611 61.5817 197.76 61.9391 197.938 62.2816C198.295 62.9964 198.473 63.7559 198.636 65.3642C198.696 65.9897 198.8 66.5705 198.859 66.6747C198.919 66.7789 198.993 67.4491 199.023 68.1937C199.053 68.9234 199.142 69.653 199.231 69.8169C199.32 69.9807 199.394 70.7104 199.394 71.4401C199.394 72.2442 199.483 73.0186 199.617 73.4058C199.751 73.793 199.84 74.5822 199.84 75.4757C199.84 76.265 199.944 77.2776 200.063 77.7244C200.182 78.1711 200.286 79.0497 200.286 79.6603C200.286 80.2709 200.39 81.3133 200.494 81.9536C200.613 82.594 200.672 83.3386 200.628 83.6066C200.583 83.8747 200.628 84.7831 200.732 85.6319C201.267 90.293 201.727 104.649 201.415 107.21C201.118 109.622 199.914 111.439 197.953 112.452C197.329 112.765 197.017 113.018 197.046 113.167C197.121 113.569 197.715 113.494 198.726 112.958C199.528 112.511 199.855 112.422 200.598 112.422C201.192 112.422 201.668 112.511 201.95 112.675C202.47 112.973 203.689 114.224 203.941 114.701C204.134 115.058 204.907 118.051 204.981 118.736C205.011 118.975 205.1 119.406 205.189 119.719C205.279 120.032 205.308 120.374 205.264 120.493C205.219 120.613 205.279 121.015 205.397 121.372C205.531 121.729 205.635 122.325 205.635 122.697C205.635 123.07 214.878 182.101 214.967 183.039C215.026 183.59 215.16 184.126 215.264 184.23C215.368 184.334 215.442 184.856 215.442 185.615C215.442 186.449 215.517 186.911 215.665 187.119C215.814 187.328 215.873 187.834 215.888 189.025C215.888 190.872 215.68 191.527 214.774 192.465C214.105 193.15 213.347 193.493 212.025 193.731C211.415 193.835 210.673 193.969 210.39 194.044C210.108 194.118 205.412 195.056 204.075 195.071C202.5 195.071 202.203 195.116 201.653 195.414C200.375 196.099 199.736 196.397 198.577 196.858C197.923 197.112 197.195 197.424 196.942 197.528C195.679 198.094 192.069 198.065 191.474 197.469C191.251 197.246 190.018 197.26 189.661 197.514C189.498 197.618 188.993 197.782 188.547 197.871C188.101 197.945 187.269 198.154 186.689 198.318C186.125 198.482 185.159 198.66 184.565 198.72C183.643 198.809 183.45 198.869 183.346 199.152C183.287 199.316 183.153 200.403 183.064 201.549C182.96 202.696 182.811 204.066 182.737 204.602C182.648 205.138 182.529 205.913 182.469 206.315C182.41 206.732 182.291 207.208 182.187 207.387C182.083 207.566 182.009 207.848 182.009 208.027C182.009 208.325 181.726 209.367 181.4 210.335C181.31 210.589 181.177 211.035 181.102 211.348C180.954 211.929 180.909 212.048 180.389 213.016C180.211 213.344 179.899 213.984 179.676 214.431C179.156 215.518 176.763 217.9 175.382 218.719C174.222 219.39 170.968 220.983 170.745 220.983C170.656 220.983 170.404 221.072 170.166 221.191C169.066 221.728 167.848 222.189 166.704 222.517C165.084 222.964 164.088 223.261 163.509 223.44C161.518 224.066 160.374 224.304 158.382 224.557C157.847 224.631 157.223 224.751 157 224.84C156.763 224.929 149.125 225.659 147.743 225.748C146.361 225.838 144.459 225.972 143.523 226.046C142.587 226.136 140.7 226.255 139.348 226.344C137.995 226.418 136.599 226.553 136.227 226.627C135.87 226.716 135.068 226.791 134.429 226.791C133.805 226.791 132.765 226.895 132.126 227.014C131.487 227.133 130.462 227.238 129.852 227.238C129.243 227.252 128.441 227.312 128.069 227.401C127.698 227.476 126.435 227.61 125.246 227.684C124.057 227.759 122.289 227.893 121.308 227.982C118.009 228.295 116.865 228.399 114.622 228.578C113.403 228.667 112.066 228.816 111.65 228.891C111.248 228.965 109.867 229.099 108.603 229.188C107.34 229.278 105.528 229.412 104.591 229.471C103.655 229.546 102.348 229.665 101.694 229.754C99.9405 229.978 94.5465 229.933 93.8927 229.68ZM101.04 228.295C101.397 228.205 102.793 228.071 104.146 227.967C108.797 227.654 109.867 227.565 111.471 227.401C115.067 227.029 116.36 226.91 118.366 226.791C119.525 226.731 120.55 226.627 120.625 226.567C120.714 226.523 121.709 226.418 122.824 226.344C123.953 226.284 126.212 226.076 127.846 225.912C129.481 225.748 131.561 225.54 132.453 225.451C133.359 225.361 134.697 225.227 135.425 225.153C138.233 224.84 140.239 224.661 142.037 224.572C143.062 224.512 143.969 224.423 144.058 224.363C144.162 224.304 145.499 224.2 147.03 224.11C148.575 224.021 150.774 223.857 151.919 223.738C153.063 223.634 154.742 223.455 155.633 223.366C157.208 223.217 157.61 223.157 160.017 222.666C160.626 222.547 161.399 222.398 161.726 222.338C162.053 222.279 162.469 222.145 162.647 222.055C162.825 221.951 163.108 221.877 163.271 221.877C163.435 221.877 163.791 221.787 164.059 221.668C164.326 221.549 165.054 221.311 165.663 221.132C171.711 219.39 176.689 216.426 178.324 213.612C179.156 212.167 180.166 209.189 180.805 206.315C181.013 205.421 181.4 201.907 181.563 199.539C181.622 198.601 181.756 197.186 181.845 196.412C182.039 194.639 182.083 183.054 181.89 182.815C181.667 182.533 180.671 180.15 180.671 179.897C180.671 179.763 180.567 179.524 180.449 179.375C180.33 179.212 180.226 178.958 180.226 178.824C180.226 178.676 180.122 178.378 180.003 178.139C179.884 177.916 179.572 177.157 179.319 176.457C179.052 175.757 178.755 174.997 178.651 174.744C178.547 174.506 178.324 173.836 178.145 173.27C177.982 172.719 177.714 171.989 177.551 171.662C177.388 171.319 177.298 171.006 177.328 170.932C177.373 170.872 177.284 170.53 177.12 170.172C176.957 169.815 176.689 168.996 176.511 168.341C176.318 167.685 175.991 166.569 175.753 165.839C175.515 165.124 175.322 164.394 175.322 164.201C175.322 164.022 175.218 163.68 175.099 163.441C174.98 163.218 174.876 162.875 174.876 162.697C174.861 162.533 174.772 162.22 174.653 162.012C174.535 161.803 174.445 161.461 174.431 161.252C174.431 161.044 174.312 160.508 174.163 160.061C174.014 159.614 173.806 158.75 173.702 158.14C173.598 157.529 173.42 156.8 173.301 156.532C173.182 156.263 173.093 155.757 173.093 155.415C173.093 155.072 172.989 154.655 172.87 154.506C172.751 154.342 172.647 153.94 172.647 153.598C172.647 153.255 172.573 152.913 172.469 152.809C172.365 152.704 172.231 152.243 172.172 151.781C172.098 151.305 171.979 150.5 171.904 149.994C171.518 147.567 171.444 146.971 171.325 146.003C171.265 145.437 171.132 144.812 171.043 144.633C170.939 144.454 170.864 143.784 170.864 143.144C170.849 142.355 170.79 141.893 170.641 141.699C170.493 141.491 170.418 141.029 170.418 140.225C170.418 139.585 170.344 138.929 170.27 138.781C170.181 138.617 170.092 137.976 170.062 137.336C170.032 136.696 169.913 135.37 169.824 134.387C169.72 133.405 169.631 132.124 169.616 131.528C169.601 130.933 169.542 130.411 169.482 130.352C169.423 130.277 168.739 130.248 167.982 130.277C166.941 130.307 166.466 130.262 166.139 130.084C165.857 129.935 165.307 129.845 164.742 129.845C164.222 129.845 163.568 129.771 163.286 129.682C163.004 129.592 162.573 129.503 162.32 129.473C159.972 129.265 159.408 129.19 159.333 129.086C159.289 129.012 158.977 128.952 158.635 128.952C158.293 128.937 157.847 128.848 157.639 128.729C157.431 128.609 157.045 128.52 156.778 128.505C156.51 128.505 156.049 128.401 155.752 128.282C155.47 128.163 154.98 128.058 154.668 128.058C154.355 128.058 154.029 127.969 153.939 127.85C153.835 127.731 153.449 127.612 153.063 127.567C152.127 127.463 147.446 126.167 146.272 125.676C146.109 125.601 145.811 125.497 145.603 125.452C145.395 125.408 144.994 125.274 144.712 125.155C144.429 125.05 143.657 124.797 143.003 124.589C141.502 124.112 139.689 123.442 138.04 122.757C137.342 122.459 136.524 122.117 136.242 122.012C135.96 121.893 135.529 121.7 135.306 121.581C135.068 121.461 134.83 121.357 134.756 121.357C134.37 121.357 125.959 117.173 123.359 115.683L122.735 115.326L121.799 115.654C121.279 115.832 120.61 116.026 120.298 116.086C120.001 116.13 119.703 116.234 119.659 116.309C119.614 116.383 119.421 116.443 119.228 116.443C119.035 116.443 118.693 116.532 118.455 116.651C117.816 116.964 113.581 118.23 113.15 118.23C113.032 118.23 112.705 118.319 112.437 118.438C112.17 118.558 111.278 118.855 110.461 119.123C103.759 121.223 102.452 121.7 99.2272 123.204C98.7666 123.412 98.2911 123.591 98.1722 123.591C98.0385 123.591 97.8601 123.695 97.7561 123.814C97.6521 123.933 97.4738 124.038 97.3549 124.038C97.2361 124.038 96.9537 124.127 96.7457 124.246C94.9774 125.199 89.7915 127.612 89.5092 127.612C89.4052 127.612 88.9445 127.776 88.4987 127.999C87.9638 128.237 87.2654 128.401 86.5819 128.461C85.5269 128.55 84.8433 128.833 84.8285 129.205C84.8285 129.295 85.0662 129.667 85.3783 130.024C85.9578 130.709 86.567 131.93 86.8048 132.898C86.8939 133.226 86.9831 134.432 87.0128 135.579C87.0574 137.217 87.0277 137.872 86.8196 138.632C86.6859 139.168 86.5224 139.674 86.463 139.749C86.4036 139.838 86.2996 140.121 86.2401 140.374C86.1955 140.642 85.7795 141.58 85.3337 142.459C84.4124 144.276 84.4273 144.082 84.9028 147.492C85.0365 148.401 85.2 149.562 85.2594 150.098C85.4823 151.751 85.8389 153.896 86.151 155.534C86.2253 155.951 86.3887 156.546 86.5224 156.874C86.6413 157.202 86.7453 157.574 86.7602 157.708C86.7602 157.827 86.9979 158.765 87.2803 159.778C87.5626 160.791 87.8003 161.833 87.8003 162.101C87.8003 162.801 88.1124 162.995 88.5582 162.518C88.9742 162.071 90.8762 161.118 91.3517 161.118C91.5301 161.118 91.8718 161.014 92.1096 160.895C92.3473 160.776 92.8971 160.627 93.3429 160.597C93.7738 160.552 94.3533 160.448 94.6357 160.374C94.918 160.284 95.5718 160.225 96.077 160.225C96.5822 160.225 97.3252 160.165 97.7115 160.076C98.7071 159.867 101.828 159.48 103.848 159.316C104.785 159.242 105.706 159.108 105.899 159.033C106.092 158.944 106.523 158.884 106.865 158.884C107.207 158.884 107.861 158.78 108.306 158.661C108.752 158.542 109.406 158.438 109.748 158.438C110.089 158.438 110.55 158.363 110.788 158.274C111.011 158.184 111.635 158.05 112.17 157.976C113.938 157.753 115.662 157.455 115.84 157.351C115.929 157.291 116.628 157.187 117.385 157.097C118.158 157.023 119.689 156.755 120.788 156.517C121.888 156.263 123.136 155.995 123.537 155.906C125.692 155.43 126.464 155.251 127.475 154.983C128.084 154.819 128.857 154.625 129.184 154.536C129.511 154.447 130.12 154.298 130.521 154.194C130.937 154.074 131.665 153.911 132.156 153.806C132.646 153.717 133.419 153.523 133.864 153.374C134.31 153.226 135.113 153.002 135.648 152.868C137.163 152.466 138.01 152.228 139.288 151.841C139.942 151.632 140.863 151.394 141.324 151.29C141.799 151.2 142.215 151.051 142.26 150.977C142.319 150.902 142.513 150.843 142.706 150.843C142.899 150.843 143.285 150.754 143.553 150.634C144.281 150.337 145.009 150.083 145.648 149.934C145.96 149.86 146.317 149.741 146.465 149.666C146.599 149.592 147.119 149.413 147.609 149.279C148.1 149.145 148.724 148.937 148.991 148.818C149.259 148.698 149.645 148.609 149.853 148.609C150.046 148.609 150.462 148.505 150.76 148.386C151.042 148.267 151.443 148.162 151.636 148.162C151.829 148.162 152.201 148.073 152.468 147.954C152.736 147.835 153.731 147.596 154.668 147.418C156.332 147.12 156.599 147.06 158.16 146.673C158.576 146.569 159.2 146.435 159.571 146.36C159.943 146.301 160.537 146.182 160.908 146.092C162.885 145.646 166.481 146.122 168.561 147.12C169.215 147.433 169.869 147.716 170.017 147.775C170.166 147.82 170.27 147.999 170.27 148.237C170.27 148.52 170.196 148.609 169.928 148.609C169.735 148.609 169.527 148.55 169.453 148.475C169.304 148.341 167.684 147.879 165.961 147.477C164.653 147.165 161.458 147.418 159.051 147.999C158.16 148.222 156.778 148.475 155.827 148.609C155.366 148.669 154.905 148.773 154.801 148.847C154.697 148.907 154.341 149.011 153.999 149.071C153.211 149.205 152.037 149.503 151.398 149.726C151.116 149.83 150.18 150.128 149.318 150.396C146.643 151.215 143.612 152.198 143.107 152.421C142.839 152.541 142.513 152.63 142.394 152.63C142.26 152.63 141.948 152.719 141.695 152.838C141.428 152.943 140.819 153.151 140.328 153.3C139.838 153.449 139.273 153.613 139.065 153.687C138.857 153.747 138.456 153.851 138.174 153.896C137.683 153.985 136.673 154.268 135.722 154.596C135.484 154.67 135.009 154.804 134.682 154.879C134.355 154.953 133.627 155.147 133.047 155.31C131.992 155.623 130.997 155.891 129.451 156.263C128.976 156.383 128.084 156.606 127.475 156.77C126.197 157.127 125.127 157.38 124.28 157.559C123.953 157.619 123.225 157.782 122.646 157.916C122.081 158.036 121.1 158.229 120.491 158.348C119.882 158.467 118.47 158.721 117.371 158.929C116.271 159.152 114.83 159.391 114.176 159.48C113.522 159.569 112.393 159.748 111.65 159.852C109.48 160.21 106.716 160.537 104.889 160.671C103.952 160.746 102.511 160.91 101.694 161.029C97.7413 161.624 94.7843 162.012 94.1156 162.012C93.6995 162.012 93.2389 162.101 93.0754 162.22C92.912 162.324 92.4662 162.458 92.0947 162.518C91.2626 162.637 90.0441 163.099 89.1971 163.59C88.6028 163.933 87.5032 165.333 87.5032 165.72C87.5032 165.824 87.3694 166.256 87.2208 166.688C87.0128 167.283 86.9534 167.745 87.0128 168.445C87.0574 168.996 86.9979 169.889 86.8493 170.634C86.7156 171.319 86.6116 172.466 86.6116 173.18C86.6116 173.91 86.5373 174.685 86.4481 174.923C86.359 175.146 86.2698 176.01 86.2401 176.829C86.2253 177.648 86.151 178.482 86.1064 178.69C86.0469 178.899 85.9875 179.539 85.9578 180.105C85.9281 180.686 85.8389 181.654 85.7498 182.264C85.4377 184.439 85.2743 185.943 85.2743 186.747C85.2743 187.179 85.1702 187.879 85.0514 188.281C84.9325 188.683 84.8285 189.487 84.8285 190.053C84.8285 190.634 84.7542 191.482 84.665 191.929C84.5164 192.778 84.1747 196.709 83.9369 200.507C83.8626 201.654 83.7437 203.396 83.6546 204.379C83.4465 206.895 83.4465 214.163 83.6546 214.684C83.7437 214.907 83.8626 215.741 83.9369 216.515C83.9963 217.29 84.1301 218.168 84.2341 218.451C84.9176 220.268 85.3634 221.296 85.7349 221.891C85.9726 222.264 86.1658 222.621 86.1658 222.666C86.1658 222.964 88.157 225.495 88.7513 225.942C90.1481 227.014 92.5702 227.937 95.0071 228.325C95.7947 228.444 100.475 228.429 101.04 228.295ZM82.9116 197.722C82.9265 197.618 82.9265 196.59 82.9116 195.444C82.8968 194.297 82.9562 192.823 83.0453 192.167C83.1345 191.512 83.2682 190.306 83.3574 189.487C83.4465 188.668 83.5803 187.491 83.6546 186.881C83.7289 186.27 83.8478 185.094 83.9221 184.275C84.0112 183.456 84.1449 182.547 84.2192 182.264C84.3084 181.982 84.3827 181.296 84.3827 180.745C84.3827 180.195 84.457 179.569 84.561 179.331C84.665 179.107 84.7839 178.11 84.8433 177.127C84.9028 176.144 85.0216 174.536 85.1108 173.553C85.2148 172.57 85.3485 170.768 85.4228 169.532C85.6012 166.658 85.7052 165.854 85.9429 165.586C86.0469 165.467 86.1807 165.199 86.2401 164.99C86.2996 164.782 86.5224 164.365 86.7305 164.067L87.102 163.501L86.7008 162.592C86.4927 162.086 86.2401 161.431 86.1658 161.133C86.0915 160.835 85.8686 160.091 85.6755 159.48C85.2594 158.184 85.0216 157.276 84.7393 155.832C84.6204 155.266 84.457 154.491 84.3827 154.119C84.0112 152.317 83.6249 149.294 83.5803 147.909C83.5506 146.971 83.3128 146.837 82.8076 147.477C82.5698 147.775 82.1389 148.177 81.8566 148.386C81.1285 148.892 78.4835 149.949 77.9337 149.949C77.6811 149.949 77.3393 150.054 77.1908 150.173C76.9679 150.351 76.4329 150.396 74.9321 150.396C73.8474 150.396 72.9261 150.456 72.8815 150.53C72.8221 150.605 72.8518 150.828 72.9261 151.022C73.0004 151.2 73.1341 153.136 73.2382 155.31C73.3273 157.485 73.4759 159.689 73.5651 160.225C73.7137 161.163 73.8771 162.726 74.1149 165.213C74.1743 165.869 74.2783 166.509 74.3526 166.613C74.412 166.732 74.5309 167.268 74.5904 167.805C74.8281 169.979 75.1847 172.227 75.3185 172.555C75.4076 172.749 75.4671 173.18 75.4671 173.538C75.4671 173.88 75.5711 174.297 75.69 174.461C75.8088 174.61 75.9128 174.953 75.9128 175.221C75.9128 175.489 75.9723 175.846 76.0466 176.04C76.1209 176.233 76.2546 176.859 76.3586 177.425C76.4626 178.005 76.641 178.81 76.7598 179.212C77.2056 180.701 77.2502 180.88 77.2502 181.237C77.2502 181.445 77.3245 181.684 77.4285 181.788C77.5177 181.877 77.6365 182.235 77.696 182.592C77.7703 182.949 77.9189 183.605 78.0526 184.051C78.1863 184.498 78.3944 185.273 78.5281 185.749C78.647 186.241 79.0036 187.387 79.3156 188.281C79.6277 189.189 80.1032 190.634 80.3707 191.497C81.2028 194.223 81.2919 194.535 81.4851 195.071C81.5891 195.354 81.7972 195.995 81.9309 196.486C82.0795 196.977 82.2578 197.499 82.3321 197.648C82.4807 197.945 82.8819 197.99 82.9116 197.722ZM184.357 197.097C184.579 196.992 185.114 196.858 185.56 196.814C185.991 196.754 186.422 196.665 186.526 196.59C186.615 196.516 187.106 196.412 187.626 196.352C189.26 196.173 189.32 196.054 188.294 195.071C187.12 193.969 186.14 192.48 185.441 190.753C185.367 190.544 185.174 190.083 185.025 189.71C184.788 189.144 184.312 187.715 184.149 187.074C184.119 186.97 183.97 186.881 183.807 186.881C183.435 186.881 183.361 187.119 183.539 187.849C183.688 188.474 183.554 194.342 183.361 195.846C183.198 197.216 183.465 197.558 184.357 197.097ZM195.902 196.054C196.393 195.95 196.942 195.786 197.121 195.697C197.299 195.593 197.537 195.518 197.656 195.518C197.893 195.518 198.919 195.056 199.617 194.639C199.87 194.505 200.464 194.163 200.954 193.895C202.247 193.18 204.03 191.602 204.729 190.559C205.071 190.053 205.487 189.442 205.68 189.219C205.977 188.832 206.007 188.638 205.992 187.134C205.992 186.211 205.888 185.064 205.784 184.573C205.665 184.081 205.591 183.5 205.605 183.277C205.635 183.054 205.576 182.741 205.501 182.577C205.412 182.413 205.264 181.862 205.175 181.341C204.848 179.301 192.113 124.38 192.113 123.993C192.113 123.874 192.009 123.576 191.875 123.323C191.757 123.055 191.682 122.787 191.727 122.712C191.786 122.638 191.727 122.28 191.608 121.923C191.489 121.566 191.281 120.747 191.147 120.091C190.999 119.436 190.835 118.766 190.761 118.602C190.687 118.438 190.612 118.066 190.598 117.783C190.568 117.441 190.464 117.247 190.3 117.217C190.107 117.173 190.033 117.336 189.959 118.036C189.765 119.585 189.141 120.642 187.373 122.415C186.511 123.278 185.53 124.157 185.189 124.365C184.862 124.589 184.49 124.842 184.371 124.961C184.089 125.214 183.331 125.735 183.049 125.869C182.93 125.929 182.633 126.108 182.38 126.271C181.949 126.54 180.196 127.418 179.26 127.82C179.022 127.924 178.651 128.088 178.443 128.178C176.511 129.041 174.237 129.637 172.202 129.816C171.117 129.92 171.087 129.935 171.132 130.292C171.161 130.501 171.221 131.409 171.28 132.303C171.34 133.211 171.459 134.045 171.533 134.164C171.607 134.283 171.726 135.221 171.786 136.249C171.845 137.276 171.964 138.751 172.053 139.525C172.246 141.178 172.454 143.129 172.618 144.812C172.677 145.467 172.811 146.152 172.915 146.331C173.004 146.509 173.093 146.956 173.093 147.343C173.093 147.716 173.197 148.222 173.316 148.46C173.435 148.698 173.494 148.996 173.45 149.115C173.405 149.235 173.465 149.666 173.584 150.054C173.702 150.441 173.881 151.245 173.97 151.811C174.208 153.166 174.416 154.194 174.594 154.938C174.683 155.266 174.802 155.876 174.876 156.293C174.936 156.71 175.069 157.202 175.159 157.365C175.248 157.529 175.322 157.887 175.322 158.14C175.322 158.393 175.411 158.75 175.53 158.929C175.634 159.108 175.812 159.659 175.902 160.15C176.006 160.642 176.184 161.342 176.288 161.714C176.392 162.086 176.555 162.741 176.659 163.173C176.763 163.59 176.897 163.992 176.971 164.037C177.046 164.082 177.105 164.335 177.105 164.588C177.105 164.856 177.209 165.199 177.328 165.347C177.447 165.511 177.551 165.884 177.551 166.166C177.551 166.464 177.655 166.837 177.774 166.986C177.893 167.149 177.997 167.417 177.997 167.596C177.997 167.775 178.101 168.043 178.22 168.207C178.339 168.356 178.443 168.698 178.443 168.936C178.443 169.189 178.576 169.681 178.74 170.038C178.903 170.396 179.037 170.783 179.037 170.902C179.037 171.006 179.171 171.379 179.319 171.706C179.483 172.034 179.661 172.51 179.706 172.778C179.765 173.046 179.884 173.329 179.958 173.434C180.047 173.538 180.166 173.836 180.226 174.104C180.404 174.774 180.79 175.876 180.969 176.189C181.058 176.338 181.117 176.546 181.117 176.65C181.117 176.755 181.325 177.246 181.563 177.722C181.816 178.199 182.009 178.78 182.009 179.003C182.009 179.227 182.068 179.45 182.157 179.509C182.232 179.554 182.365 179.807 182.44 180.075C182.514 180.343 182.886 181.296 183.272 182.19C183.658 183.098 184.074 184.096 184.193 184.409C184.505 185.273 185.486 187.432 185.843 188.072C185.917 188.191 186.08 188.534 186.199 188.817C187.536 191.989 188.086 192.942 189.29 194.163C190.85 195.741 191.905 196.218 193.971 196.233C194.55 196.248 195.412 196.158 195.902 196.054ZM205.071 193.374C205.62 193.255 206.155 193.106 206.259 193.046C206.363 192.972 206.883 192.867 207.418 192.823C208.756 192.674 211.103 192.301 211.802 192.108C212.129 192.033 212.634 191.914 212.931 191.87C213.511 191.78 213.897 191.468 213.734 191.2C213.689 191.125 213.288 191.051 212.857 191.051C211.861 191.051 210.658 190.827 210.004 190.514C209.32 190.187 207.834 188.713 207.582 188.117C207.374 187.611 207.151 187.477 207.062 187.819C207.032 187.908 206.869 188.474 206.705 189.055C206.334 190.38 205.041 192.361 204.328 192.689C204.016 192.838 203.852 193.016 203.852 193.255C203.852 193.642 203.808 193.642 205.071 193.374ZM214.164 190.068C214.536 189.695 214.581 189.249 214.328 188.519C214.09 187.849 213.897 186.643 213.689 184.498C213.63 183.888 213.496 183.232 213.392 183.054C213.303 182.875 213.213 182.324 213.213 181.818C213.213 181.311 204.194 123.338 204.075 123.04C203.956 122.757 203.852 122.206 203.852 121.819C203.837 121.447 203.748 120.97 203.629 120.762C203.51 120.553 203.406 120.017 203.406 119.57C203.406 119.123 203.302 118.587 203.183 118.379C203.065 118.17 202.975 117.813 202.961 117.575C202.961 116.949 202.515 115.579 202.114 114.909C201.549 113.986 201.029 113.926 199.32 114.581C198.488 114.894 198.339 114.909 197.017 114.745C196.081 114.641 195.457 114.477 195.174 114.284C194.699 113.971 193.644 113.926 191.965 114.15C191.058 114.269 190.999 114.313 190.954 114.686C190.924 114.924 191.028 115.266 191.207 115.505C191.519 115.922 192.009 117.59 192.485 119.794C192.618 120.449 192.826 121.283 192.93 121.655C193.034 122.027 193.242 122.727 193.376 123.219C193.51 123.71 193.688 124.321 193.777 124.559C193.867 124.812 206.735 182.562 206.809 183.009C207.121 184.96 207.418 186.241 207.671 186.732C208.414 188.132 209.038 188.772 210.435 189.532C211.787 190.261 213.704 190.544 214.164 190.068ZM77.5474 148.401C79.7169 147.85 80.965 147.209 82.2875 145.958C82.7036 145.556 83.0453 144.663 83.0453 143.948C83.0453 143.397 83.1791 142.95 83.6249 142.087C84.5313 140.3 85.2743 138.468 85.2743 138.006C85.2743 137.768 85.3783 137.381 85.4971 137.142C85.7052 136.74 85.7052 136.651 85.512 136.264C85.2594 135.787 85.0068 135.653 84.3827 135.653C84.1449 135.653 83.9221 135.594 83.8775 135.519C83.8329 135.46 83.4465 135.355 83.0305 135.311C82.5996 135.251 79.3454 134.239 79.2413 134.119C79.1819 134.06 78.8847 134.015 78.5727 134.015C78.2755 134.015 77.8297 133.911 77.592 133.792C77.2353 133.613 73.4908 132.496 70.2663 131.618C69.7313 131.484 69.1221 131.29 68.8992 131.201C68.6763 131.111 66.3434 130.516 65.437 130.233C64.5454 129.95 63.3715 129.592 62.8366 129.429C60.043 128.609 59.5972 128.461 59.0772 128.267C58.78 128.148 42.1969 122.742 41.5877 122.563C40.9784 122.37 40.1017 122.057 39.656 121.849C39.2102 121.64 38.6455 121.417 38.3929 121.342C37.9769 121.238 36.0749 120.583 35.421 120.33C35.2576 120.27 34.6929 120.062 34.158 119.868C31.0672 118.781 29.9974 118.394 29.403 118.17C29.0315 118.021 28.5709 117.873 28.3628 117.828C28.1548 117.798 27.7982 117.664 27.5456 117.56C27.3078 117.456 26.5946 117.217 25.9853 117.024C25.3761 116.845 24.5737 116.592 24.2022 116.473C23.1175 116.115 22.0179 115.981 19.789 115.892C18.2733 115.847 17.5898 115.877 17.3372 116.011C17.144 116.115 16.7577 116.249 16.4753 116.309C16.193 116.368 15.5838 116.562 15.138 116.741C14.6922 116.934 14.1573 117.143 13.9492 117.217C13.7412 117.307 13.3846 117.456 13.132 117.56C12.8942 117.679 12.2553 117.902 11.7203 118.081C11.1854 118.26 10.6207 118.468 10.4573 118.528C10.2938 118.587 9.7589 118.751 9.26854 118.885C8.77818 119.019 8.1838 119.228 7.96091 119.347C7.72316 119.466 7.3814 119.57 7.20308 119.57C7.02477 119.57 6.25208 119.898 5.4794 120.285C4.08261 120.985 4.06775 121 4.08261 121.536C4.09747 122.221 4.81072 124.365 5.28622 125.184C5.71715 125.929 7.15851 127.359 8.12436 127.999C8.51071 128.252 9.43199 128.684 10.1601 128.952C12.1513 129.667 12.6416 129.86 13.0874 130.084C13.2954 130.203 13.6075 130.292 13.7858 130.292C13.9492 130.292 14.3059 130.382 14.5733 130.501C14.8408 130.62 15.3312 130.828 15.6581 130.962C15.985 131.096 16.3713 131.26 16.5051 131.335C16.6536 131.424 16.8914 131.484 17.0548 131.484C17.2034 131.484 17.4115 131.573 17.5006 131.692C17.6046 131.811 17.8573 131.945 18.0801 131.99C18.303 132.049 18.7191 132.198 19.0014 132.332C19.2838 132.466 19.7593 132.69 20.0416 132.809C20.3239 132.943 20.8737 133.226 21.2749 133.464C21.6613 133.688 22.0476 133.866 22.1368 133.866C22.2259 133.866 22.9094 134.164 23.6524 134.521C24.4102 134.879 25.8516 135.519 26.8769 135.951C27.9022 136.383 28.7938 136.785 28.8681 136.86C28.9572 136.934 29.1504 136.994 29.3138 136.994C29.4773 136.994 29.715 137.083 29.8339 137.187C29.9676 137.291 30.3391 137.47 30.666 137.574C31.2158 137.753 33.0881 138.498 34.2769 139.019C34.5295 139.138 34.9753 139.317 35.2427 139.436C35.4953 139.555 35.852 139.674 36.0154 139.719C36.3572 139.808 38.4524 140.553 39.656 141.014C40.1017 141.193 40.6813 141.387 40.919 141.446C41.1716 141.506 41.4985 141.625 41.662 141.714C42.1226 141.952 42.8804 142.206 44.2921 142.578C45.0053 142.772 45.7186 142.995 45.882 143.084C46.0455 143.174 46.3278 143.248 46.521 143.248C46.7142 143.248 46.9965 143.352 47.1451 143.471C47.3085 143.591 49.27 144.142 49.5077 144.142C49.7306 144.142 50.0724 144.216 50.2358 144.305C50.4142 144.41 50.9639 144.573 51.4543 144.693C51.9595 144.797 52.6282 144.961 52.9551 145.035C53.282 145.11 54.0398 145.273 54.6342 145.392C55.2435 145.497 55.8081 145.675 55.8973 145.765C55.9864 145.854 56.2836 145.929 56.5659 145.929C56.8334 145.929 57.2049 146.003 57.3832 146.107C57.5615 146.212 58.0816 146.331 58.5274 146.405C58.9732 146.465 59.6418 146.584 60.0133 146.673C60.8752 146.867 62.2571 147.12 63.2527 147.254C63.6687 147.314 64.0996 147.433 64.2037 147.537C64.3077 147.641 64.7386 147.716 65.1844 147.716C65.6153 147.716 66.1205 147.805 66.2988 147.894C66.4771 147.999 67.1012 148.133 67.6659 148.192C68.2454 148.252 69.241 148.371 69.8948 148.46C73.6096 148.966 75.3779 148.967 77.5474 148.401ZM85.6309 134.79C85.7349 134.611 85.2 133.211 84.665 132.273C84.1301 131.35 83.3871 130.665 82.4658 130.277C82.0943 130.114 81.5297 129.845 81.2176 129.682C80.9056 129.533 80.4747 129.399 80.2369 129.399C79.9992 129.399 79.7317 129.295 79.6277 129.175C79.5237 129.041 74.9173 128.058 74.5309 128.058C74.1446 128.058 73.5799 127.954 73.2827 127.835C73.0004 127.716 72.5249 127.612 72.2574 127.612C71.9751 127.612 62.5097 124.738 61.6478 124.484C60.786 124.231 59.8944 123.933 59.6418 123.829C59.4041 123.71 58.8989 123.546 58.5274 123.442C58.1559 123.338 57.5764 123.129 57.2346 122.98C56.8928 122.831 56.4916 122.697 56.343 122.697C56.1945 122.697 55.927 122.593 55.7487 122.474C55.5852 122.355 55.1692 122.221 54.8274 122.161C54.4856 122.102 54.1736 121.998 54.129 121.938C54.0844 121.864 53.8764 121.804 53.6684 121.804C53.4752 121.804 53.1186 121.715 52.9105 121.595C52.4945 121.402 51.068 120.925 49.9089 120.628C49.5375 120.523 49.0471 120.374 48.7945 120.3C48.5567 120.211 48.0812 120.077 47.7543 120.002C47.4274 119.913 47.1005 119.794 47.0262 119.704C46.9371 119.63 46.6696 119.57 46.4021 119.57C46.1495 119.57 45.8523 119.466 45.7483 119.347C45.6443 119.228 45.3768 119.123 45.1539 119.123C44.9162 119.123 44.5447 119.034 44.3069 118.915C44.0841 118.796 43.4897 118.587 42.9993 118.453C42.509 118.319 41.87 118.111 41.5877 117.992C41.3054 117.887 40.8299 117.739 40.5475 117.649C40.2652 117.575 39.4628 117.292 38.7644 117.039C36.8475 116.339 36.2086 116.115 35.7182 115.981C35.4805 115.922 34.6038 115.624 33.7865 115.326C32.9692 115.028 32.1668 114.745 32.0034 114.701C31.8399 114.671 31.305 114.477 30.8146 114.284C29.5367 113.792 27.9616 113.316 27.605 113.316C27.4267 113.316 27.1146 113.226 26.9066 113.107C26.3865 112.854 25.3761 112.571 24.3805 112.437C23.9645 112.377 23.5335 112.258 23.4295 112.154C23.3255 112.05 22.9392 111.975 22.5677 111.975C22.1962 111.975 21.7504 111.886 21.587 111.767C21.3492 111.603 20.8291 111.558 19.15 111.618C16.8914 111.678 16.7428 111.707 15.8067 112.124C15.4798 112.273 15.1083 112.437 14.9894 112.497C14.8705 112.541 14.395 112.809 13.9492 113.092C13.5035 113.36 12.8348 113.733 12.4633 113.911C12.0918 114.105 11.6163 114.343 11.3934 114.447C11.1854 114.567 10.8733 114.656 10.7248 114.656C10.5762 114.656 10.383 114.715 10.2938 114.805C10.2195 114.879 9.84805 115.013 9.49143 115.088C9.11994 115.162 8.58501 115.311 8.30268 115.4C8.02035 115.505 7.51513 115.683 7.18822 115.788C6.32638 116.086 5.25651 117.009 4.87016 117.783C4.69185 118.155 4.42438 118.706 4.27579 119.004C4.12719 119.302 4.03804 119.66 4.08261 119.779C4.18663 120.047 4.5284 120.091 4.66213 119.868C4.79586 119.66 6.50469 118.677 6.72758 118.677C6.84646 118.677 7.42597 118.513 8.02035 118.319C9.09022 117.977 9.49143 117.813 10.487 117.396C10.7396 117.277 11.1111 117.188 11.3191 117.188C11.5272 117.188 11.7501 117.128 11.7946 117.039C11.8392 116.964 11.9878 116.89 12.1067 116.89C12.2256 116.89 12.6416 116.756 13.028 116.577C13.4143 116.413 13.8601 116.22 14.0235 116.16C14.187 116.1 14.7071 115.862 15.1826 115.654C15.6432 115.43 16.1336 115.252 16.2376 115.252C16.3565 115.252 16.7279 115.118 17.0846 114.954C17.6195 114.715 18.0653 114.656 19.6255 114.656C20.7103 114.656 21.691 114.73 21.9287 114.835C22.1516 114.924 22.6866 115.043 23.0878 115.118C23.5038 115.177 24.2617 115.326 24.7966 115.46C25.3315 115.594 25.8665 115.713 25.9853 115.743C26.2974 115.788 28.348 116.443 28.8829 116.666C29.1355 116.771 29.5664 116.949 29.8488 117.083C30.6215 117.411 31.1861 117.604 31.8548 117.768C32.1817 117.843 32.8206 118.051 33.2664 118.23C33.7122 118.409 34.2917 118.602 34.5295 118.662C34.7821 118.721 35.109 118.855 35.2724 118.93C35.4359 119.019 36.2383 119.302 37.0556 119.57C37.8728 119.823 38.7495 120.121 38.9873 120.225C40.2206 120.776 40.5772 120.91 40.8893 120.91C41.0676 120.91 41.3499 121.015 41.4985 121.134C41.662 121.253 41.8849 121.357 42.0037 121.357C42.1226 121.357 42.4198 121.447 42.6724 121.566C42.9399 121.685 43.8166 121.998 44.6339 122.251C46.0901 122.712 46.5507 122.876 47.7543 123.338C48.0812 123.457 49.0471 123.77 49.9089 124.038C50.7708 124.291 77.9783 132.615 78.216 132.705C78.4687 132.779 78.8996 132.898 79.1819 132.973C79.8654 133.122 81.4108 133.554 81.7823 133.702C81.9457 133.777 82.6441 134.015 83.3425 134.239C84.0409 134.477 84.7096 134.715 84.8285 134.775C85.1257 134.938 85.5269 134.938 85.6309 134.79ZM83.4911 129.116C83.5951 128.892 83.5803 128.773 83.402 128.595C82.9265 128.118 82.2875 128.52 82.5996 129.086C82.8076 129.473 83.2831 129.488 83.4911 129.116ZM172.38 128.267C172.707 128.148 173.197 128.058 173.45 128.058C173.717 128.058 174.059 127.954 174.222 127.835C174.371 127.716 174.683 127.612 174.891 127.612C175.114 127.612 175.486 127.507 175.708 127.388C175.946 127.269 176.288 127.165 176.451 127.165C177.135 127.165 180.523 125.616 182.053 124.604C182.529 124.291 182.99 124.038 183.064 124.038C183.138 124.038 183.198 123.963 183.198 123.889C183.198 123.799 183.376 123.665 183.584 123.591C184.475 123.248 187.804 120.017 187.804 119.481C187.804 119.436 187.997 119.109 188.22 118.766C188.859 117.828 188.889 117.545 188.398 117.188C188.175 117.024 187.923 116.89 187.863 116.89C187.789 116.89 187.403 116.726 186.987 116.532C186.125 116.115 184.401 115.549 183.985 115.549C183.837 115.549 183.628 115.475 183.539 115.386C183.45 115.296 183.153 115.177 182.885 115.103C182.306 114.969 181.801 114.79 180.226 114.179C179.616 113.956 178.992 113.762 178.859 113.762C178.725 113.762 178.561 113.703 178.517 113.613C178.472 113.539 178.279 113.465 178.101 113.465C177.908 113.465 177.64 113.375 177.477 113.256C177.313 113.152 177.016 113.033 176.808 112.988C176.6 112.943 175.471 112.526 174.282 112.05C173.093 111.588 171.934 111.156 171.682 111.097C171.444 111.037 170.864 110.799 170.404 110.59C169.943 110.367 169.482 110.188 169.393 110.188C169.289 110.188 169.022 110.099 168.814 109.98C168.338 109.742 167.744 109.503 165.738 108.774C164.921 108.461 164.237 108.163 164.207 108.089C164.178 108.014 164.029 107.955 163.88 107.955C163.732 107.955 163.42 107.85 163.182 107.731C162.959 107.612 161.963 107.21 160.983 106.823C160.002 106.451 158.605 105.84 157.862 105.497C157.134 105.155 156.228 104.753 155.856 104.604C155.069 104.291 154.623 104.098 153.33 103.517C152.795 103.279 152.037 102.936 151.621 102.772C150.893 102.474 148.219 101.224 146.421 100.345C145.93 100.107 145.44 99.9131 145.336 99.9131C145.232 99.9131 144.905 99.7642 144.593 99.5706C144.296 99.377 143.642 99.0345 143.152 98.8111C142.096 98.3197 137.906 96.2348 137.579 96.0263C137.46 95.9519 137.044 95.7434 136.658 95.5647C136.019 95.252 133.107 93.7479 132.438 93.3905C132.289 93.3011 131.858 93.0927 131.487 92.914C131.115 92.7501 130.714 92.5417 130.595 92.4672C130.476 92.3927 130.268 92.3034 130.15 92.2587C130.031 92.214 129.823 92.1098 129.704 92.0353C129.585 91.9609 129.377 91.8566 129.258 91.812C129.139 91.7524 128.827 91.5886 128.574 91.4397C126.94 90.4419 122.096 88.1486 120.862 87.7912C120.372 87.6423 119.778 87.4487 119.525 87.3742C118.158 86.9126 115.067 86.9275 113.136 87.404C112.407 87.5827 111.471 87.7763 111.07 87.8508C110.669 87.9252 110.268 88.0592 110.179 88.1486C110.104 88.2231 109.837 88.2975 109.599 88.2975C109.361 88.2975 108.96 88.3869 108.707 88.506C108.024 88.7889 107.058 89.0272 105.691 89.2506C105.037 89.3548 104.354 89.5186 104.19 89.6229C104.012 89.7122 103.626 89.7867 103.328 89.7867C103.031 89.7867 102.645 89.8612 102.467 89.9654C102.288 90.0547 101.842 90.1888 101.471 90.2483C100.505 90.4121 99.5541 90.6802 98.8706 90.9929C98.5437 91.1269 98.0979 91.3056 97.8601 91.3503C97.6373 91.4099 97.3846 91.5886 97.3103 91.7375C97.1172 92.0949 97.0875 93.7032 97.2658 94.6265C97.3995 95.3264 98.1425 96.8901 98.5437 97.307C98.6477 97.4113 99.034 97.858 99.4204 98.3048C100.594 99.6748 102.303 100.97 105.037 102.549C105.572 102.847 106.3 103.308 106.672 103.576C107.043 103.844 107.682 104.232 108.083 104.455C108.499 104.693 109.881 105.557 111.159 106.406C112.437 107.255 113.522 107.955 113.567 107.955C113.641 107.955 114.072 108.238 115.781 109.384C117.252 110.367 117.415 110.471 118.307 110.918C118.782 111.156 119.495 111.603 119.897 111.886C120.313 112.184 120.714 112.422 120.803 112.422C120.892 112.422 121.249 112.616 121.591 112.839C121.917 113.062 122.304 113.301 122.423 113.36C122.542 113.42 123.552 113.941 124.652 114.522C128.515 116.547 132.795 118.677 133.017 118.677C133.136 118.677 133.315 118.781 133.419 118.9C133.523 119.019 133.686 119.123 133.775 119.123C133.968 119.123 134.949 119.6 135.246 119.838C135.35 119.913 135.588 120.017 135.796 120.062C136.405 120.196 137.282 120.553 137.46 120.732C137.564 120.836 137.772 120.91 137.936 120.91C138.114 120.91 138.382 121.015 138.53 121.134C138.694 121.253 138.976 121.357 139.154 121.357C139.333 121.357 139.556 121.461 139.66 121.581C139.764 121.7 139.986 121.804 140.165 121.804C140.343 121.804 140.551 121.864 140.64 121.938C140.715 122.012 141.309 122.236 141.963 122.444C143.523 122.936 144.117 123.144 144.563 123.368C144.771 123.472 145.202 123.606 145.529 123.665C145.856 123.725 146.198 123.814 146.272 123.874C146.361 123.933 146.822 124.112 147.312 124.246C147.803 124.395 148.367 124.574 148.575 124.648C148.783 124.723 149.348 124.872 149.838 124.991C150.982 125.259 152.736 125.795 153.063 125.989C153.211 126.063 153.509 126.123 153.731 126.123C153.969 126.123 154.445 126.212 154.816 126.331C155.188 126.45 155.886 126.629 156.376 126.718C156.867 126.808 157.55 126.942 157.907 127.016C158.249 127.105 158.754 127.165 159.021 127.165C159.289 127.165 159.645 127.269 159.809 127.388C159.972 127.507 160.418 127.597 160.879 127.612C161.339 127.612 161.815 127.716 162.038 127.85C162.276 128.014 162.573 128.073 162.9 128.014C163.182 127.969 163.657 127.999 163.97 128.088C165.545 128.49 171.399 128.624 172.38 128.267ZM85.4823 127.076C87.2357 126.733 89.8064 125.855 90.9208 125.214C91.0397 125.14 91.4409 124.961 91.8124 124.782C92.1839 124.618 92.5851 124.425 92.7039 124.336C93.2537 123.978 96.0473 122.697 96.285 122.697C96.3593 122.697 96.6863 122.563 96.9834 122.4C98.4099 121.655 102.11 120.017 102.407 120.017C102.496 120.017 102.764 119.928 102.972 119.808C103.18 119.704 103.744 119.496 104.235 119.362C104.71 119.213 105.245 119.019 105.409 118.93C105.572 118.84 105.944 118.721 106.226 118.662C106.508 118.602 107.177 118.409 107.712 118.23C109.153 117.753 114.309 116.13 115.216 115.862C115.469 115.788 116.197 115.579 116.85 115.4C117.504 115.222 118.173 115.013 118.336 114.954C118.5 114.879 119.064 114.76 119.585 114.671C120.119 114.581 120.61 114.447 120.684 114.373C120.922 114.135 120.684 113.792 120.238 113.703C120.001 113.643 119.377 113.375 118.856 113.092C118.322 112.809 117.757 112.511 117.593 112.437C117.43 112.363 117.044 112.124 116.732 111.916C116.42 111.707 116.137 111.529 116.093 111.529C116.048 111.529 115.736 111.335 115.394 111.097C115.052 110.873 114.532 110.546 114.25 110.382C113.968 110.233 112.942 109.563 111.977 108.923C110.996 108.267 109.733 107.433 109.153 107.076C108.559 106.719 107.385 105.989 106.523 105.453C105.661 104.917 104.621 104.261 104.19 103.993C103.774 103.71 103.358 103.487 103.269 103.487C103.18 103.487 103.106 103.428 103.106 103.368C103.106 103.294 102.957 103.174 102.779 103.085C102.244 102.832 100.104 101.253 99.0935 100.36C98.1425 99.511 96.6268 97.6346 96.2999 96.8901C95.6312 95.3562 95.5124 94.6563 95.5421 92.8097C95.5718 90.9929 95.8244 89.4889 96.2108 88.7145C96.3296 88.506 96.4188 88.1635 96.4188 87.955C96.4188 87.7614 96.5228 87.5082 96.6417 87.404C96.7606 87.2998 96.8646 87.136 96.8646 87.0466C96.8646 86.9573 97.2212 86.4509 97.6521 85.9148C98.514 84.8575 99.8513 83.83 100.371 83.83C100.966 83.83 100.921 83.5173 100.223 82.8025C99.8513 82.4153 99.5393 82.0579 99.5393 81.9834C99.5393 81.9238 99.3609 81.6111 99.1381 81.3133C98.3059 80.2262 96.7754 76.4735 96.5525 75.0439C96.4931 74.5971 96.3742 73.793 96.2999 73.2569C96.2256 72.7207 96.1067 72.1251 96.0176 71.9166C95.9433 71.7081 95.8987 71.2762 95.9433 70.9337C95.973 70.5763 95.8987 70.0998 95.765 69.7722C95.6015 69.385 95.5272 68.7446 95.5272 67.8065C95.5272 67.0023 95.4381 66.1535 95.3192 65.7812C95.1706 65.3493 95.0666 64.024 95.0071 61.7902C94.8734 57.7545 94.8288 46.6453 94.9328 45.7071C95.022 44.903 94.8437 44.8136 93.6104 45.1859C91.9015 45.6773 91.2774 45.8411 90.4007 46.0198C89.9104 46.1092 89.316 46.2581 89.0634 46.3326C88.8256 46.4219 88.3799 46.5411 88.0975 46.6155C85.4971 47.2261 85.4823 47.2261 82.6739 48.0749C82.1092 48.2536 81.069 48.5961 80.3707 48.8493C79.6723 49.1024 78.8401 49.3556 78.5132 49.4301C77.8891 49.5492 77.2205 49.7726 76.3883 50.1151C76.1209 50.2342 75.8088 50.3236 75.69 50.3236C75.5859 50.3236 75.3036 50.4129 75.0659 50.532C74.843 50.6512 74.2189 50.8746 73.6839 51.0086C73.149 51.1575 71.8562 51.6042 70.7864 52.0063C69.7313 52.4084 68.5574 52.8254 68.186 52.9296C67.0715 53.2572 64.8575 54.0763 64.7089 54.2103C64.6197 54.2848 64.4414 54.3443 64.3077 54.3443C64.1591 54.3443 63.8619 54.4337 63.6241 54.5528C62.6434 55.0442 61.6478 55.4463 60.6225 55.7739C60.0282 55.9824 59.3892 56.2356 59.2258 56.3547C59.0475 56.4739 58.7651 56.5781 58.6017 56.5781C58.4382 56.5781 58.1707 56.6823 58.0222 56.8015C57.8587 56.9206 57.621 57.0248 57.4724 57.0248C57.3386 57.0248 57.1455 57.1291 57.0414 57.2482C56.9374 57.3674 56.7294 57.4716 56.5659 57.4716C56.4025 57.4716 56.0607 57.5609 55.8081 57.6801C55.1394 57.9779 54.233 58.38 52.5093 59.1097C51.6921 59.4522 50.6073 59.9287 50.0872 60.167C49.5672 60.4053 49.0768 60.5989 49.0025 60.5989C48.9134 60.5989 48.6607 60.6882 48.4527 60.8074C47.8583 61.1201 46.7142 61.6413 46.5953 61.6413C46.5359 61.6413 45.7186 62.0136 44.7824 62.4603C43.8612 62.9071 43.0439 63.2794 42.9845 63.2794C42.925 63.2794 42.4049 63.5028 41.8254 63.7857C40.4435 64.4558 37.7837 65.7067 36.3869 66.362C35.7777 66.6449 35.1684 66.9279 35.0496 67.0023C34.8118 67.1512 33.7716 67.6575 33.415 67.8065C33.2962 67.8511 32.9692 68.0447 32.6869 68.2085C32.4046 68.3724 31.7954 68.6553 31.3496 68.8191C30.8889 68.9829 30.4134 69.2063 30.2946 69.2956C30.1757 69.3999 29.7002 69.6679 29.2544 69.9062C28.8086 70.1296 27.7387 70.6806 26.8769 71.1273C24.9006 72.14 24.0536 72.6165 23.7713 72.8548C23.6376 72.959 23.2066 73.2122 22.8203 73.4207C21.9733 73.8525 20.4874 75.3417 20.4874 75.7736C20.4874 75.9374 20.4279 76.1161 20.3388 76.1607C20.2645 76.2054 20.1902 76.5926 20.1902 76.9947C20.1902 77.3968 20.0862 77.9775 19.9673 78.2754C19.8336 78.5732 19.7444 79.2582 19.7444 79.8837C19.7444 80.4645 19.6404 81.6111 19.5215 82.4302C19.2689 84.1427 19.2243 90.8887 19.4621 92.0949C19.5512 92.5119 19.6552 93.7479 19.7147 94.8499C19.789 96.0263 19.9079 97.0092 20.0267 97.2177C20.1307 97.4113 20.1902 97.7389 20.1456 97.9623C20.101 98.1707 20.1456 98.5579 20.2645 98.7962C20.3685 99.0494 20.5319 99.5408 20.6211 99.9131C20.844 100.717 21.6464 102.757 21.8396 102.951C21.9139 103.04 21.9733 103.189 21.9733 103.308C21.9733 103.576 23.1472 105.363 24.1874 106.689C25.7327 108.64 28.1697 111.097 28.9126 111.454C29.1801 111.588 29.4327 111.752 29.4773 111.826C29.5219 111.916 29.7002 111.975 29.8488 111.975C29.9974 111.975 30.3094 112.08 30.5472 112.199C30.7701 112.318 31.7359 112.72 32.6721 113.062C34.9753 113.941 35.3467 114.06 35.8668 114.209C36.1194 114.284 36.9813 114.581 37.7985 114.864C38.6158 115.162 40.0274 115.654 40.919 115.937C41.8254 116.234 42.6873 116.532 42.8507 116.607C43.4154 116.845 44.4853 117.217 45.0053 117.322C45.2877 117.396 45.6889 117.515 45.8969 117.59C46.1049 117.679 46.6696 117.858 47.16 117.992C48.8242 118.453 49.686 118.706 50.1318 118.87C50.9194 119.153 52.3607 119.183 52.5688 118.915C52.6876 118.781 52.9105 118.677 53.0888 118.677C53.2523 118.677 53.8021 118.498 54.2924 118.289C54.7828 118.081 55.4663 117.813 55.823 117.694C56.1796 117.575 56.9523 117.217 57.5318 116.905C58.1262 116.592 58.9732 116.145 59.4189 115.922C59.8647 115.698 60.4442 115.415 60.682 115.296C61.529 114.864 62.7623 114.179 62.9852 114.001C63.1041 113.911 63.4458 113.703 63.7282 113.554C64.0105 113.39 64.5157 113.092 64.8426 112.884C65.5113 112.467 65.8976 112.243 67.3687 111.454C67.9482 111.156 68.4832 110.844 68.5723 110.769C68.9141 110.486 73.8474 107.955 74.0406 107.955C74.1446 107.955 75.1699 107.493 76.3883 106.897C76.5369 106.823 76.7896 106.763 76.9381 106.763C77.1016 106.763 77.265 106.704 77.3096 106.644C77.3542 106.57 77.7703 106.436 78.2458 106.331C78.7213 106.227 79.4048 106.048 79.7763 105.929C81.7972 105.319 82.6887 105.081 84.4421 104.664C85.512 104.425 86.7156 104.113 87.1168 103.993C87.5032 103.889 88.0827 103.785 88.3799 103.785C88.677 103.785 88.9891 103.725 89.0783 103.636C89.1525 103.562 89.628 103.428 90.1035 103.353C90.5939 103.264 91.5152 103.1 92.1541 102.981C93.3578 102.743 93.7441 102.787 93.7441 103.13C93.7441 103.413 93.2537 103.636 92.6445 103.636C92.3622 103.636 92.0947 103.696 92.0501 103.77C91.9907 103.844 91.6786 103.949 91.322 104.008C90.9803 104.068 90.5048 104.157 90.2521 104.232C87.8301 104.902 86.9385 105.11 85.6457 105.349C85.0811 105.453 84.4421 105.617 84.2341 105.691C84.0261 105.78 83.4317 105.959 82.8968 106.108C82.3618 106.242 81.8715 106.421 81.7972 106.495C81.708 106.555 81.5148 106.614 81.3514 106.614C81.0245 106.614 78.4092 107.448 77.8 107.746C77.5622 107.865 77.2799 107.955 77.1759 107.955C76.6707 107.955 71.7076 110.397 69.449 111.752C68.4683 112.348 67.3687 112.988 67.0121 113.182C66.3285 113.554 66.2542 113.599 65.2587 114.254C64.902 114.477 64.5751 114.656 64.5157 114.656C64.4414 114.656 64.1591 114.82 63.8767 115.013C63.2972 115.4 58.2599 117.962 56.7442 118.647C56.2093 118.885 55.5258 119.198 55.2286 119.332C54.9165 119.466 54.5748 119.57 54.4856 119.555C53.9953 119.496 53.6238 119.585 53.6238 119.779C53.6238 120.106 53.9655 120.3 54.8274 120.464C55.2732 120.538 55.7635 120.672 55.927 120.762C56.2836 120.925 57.6358 121.402 60.7563 122.415C62.0193 122.831 63.2972 123.263 63.5796 123.368C65.0209 123.874 66.5812 124.35 67.5024 124.559C68.0522 124.693 68.8546 124.931 69.2856 125.08C69.7016 125.244 70.2514 125.378 70.4892 125.378C70.7418 125.393 71.0984 125.482 71.3064 125.601C71.5145 125.72 71.8711 125.81 72.1088 125.825C72.3466 125.825 72.7478 125.884 73.0004 125.959C73.996 126.257 76.0466 126.644 78.2755 126.927C79.1968 127.046 79.9992 127.195 80.0438 127.239C80.2369 127.418 84.3381 127.299 85.4823 127.076ZM189.141 115.937C189.141 115.654 189.082 115.386 189.008 115.341C188.933 115.296 188.829 114.998 188.77 114.701C188.577 113.569 187.284 111.99 186.006 111.29C185.694 111.112 185.352 110.903 185.248 110.829C185.144 110.739 184.877 110.635 184.654 110.576C184.416 110.531 184.238 110.412 184.238 110.337C184.238 110.248 184.074 110.188 183.881 110.188C183.688 110.188 183.45 110.084 183.346 109.965C183.242 109.846 183.049 109.742 182.915 109.742C182.781 109.742 182.544 109.652 182.38 109.548C182.217 109.444 181.489 109.101 180.746 108.789C180.018 108.476 179.349 108.163 179.275 108.089C179.186 108.014 179.037 107.955 178.933 107.955C178.829 107.955 178.398 107.791 177.967 107.597C176.63 106.987 174.832 106.212 174.133 105.944C173.762 105.795 173.093 105.512 172.647 105.304C172.202 105.11 171.592 104.842 171.31 104.723C171.028 104.604 170.285 104.291 169.676 104.008C167.343 102.981 165.396 102.147 165.292 102.147C165.247 102.147 164.653 101.894 163.984 101.566C163.316 101.253 162.602 100.941 162.394 100.881C162.186 100.821 161.889 100.673 161.726 100.568C161.562 100.449 161.31 100.36 161.161 100.36C161.012 100.36 160.7 100.256 160.492 100.151C160.27 100.032 159.824 99.8237 159.497 99.6897C159.17 99.5408 158.368 99.1834 157.714 98.8707C157.06 98.5579 155.99 98.0814 155.336 97.8282C154.682 97.5751 153.865 97.2326 153.523 97.0688C153.167 96.9198 152.602 96.6518 152.26 96.5029C151.904 96.3391 151.235 96.0412 150.774 95.8327C150.314 95.6243 149.883 95.4456 149.838 95.4456C149.794 95.4456 149.348 95.252 148.843 94.9988C148.352 94.7605 147.892 94.552 147.817 94.552C147.684 94.552 146.391 93.9862 144.935 93.2862C144.533 93.0927 143.82 92.7799 143.374 92.6161C142.542 92.2885 142.409 92.2289 140.625 91.4248C137.416 89.9654 136.985 89.7718 134.533 88.7592C133.315 88.238 132.2 87.7614 132.081 87.687C131.962 87.6125 131.695 87.4785 131.487 87.404C131.279 87.3147 130.982 87.1955 130.818 87.1211C130.655 87.0466 130.15 86.8381 129.704 86.6743C129.258 86.4956 128.56 86.1829 128.144 85.9893C126.464 85.2 124.34 84.2767 124.206 84.2767C124.132 84.2767 123.715 84.1129 123.285 83.9193C121.754 83.2194 121.041 82.9365 120.773 82.9365C120.625 82.9365 120.461 82.8769 120.417 82.7876C120.372 82.7131 120.179 82.6386 120.015 82.6386C119.837 82.6386 119.466 82.5791 119.198 82.4897C118.931 82.4153 118.485 82.2663 118.203 82.1919C117.46 81.9685 113.983 81.9536 113.775 82.1621C113.671 82.2664 113.403 82.3408 113.165 82.3408C112.705 82.3408 111.115 82.9365 109.763 83.6364C109.554 83.7406 109.213 83.83 109.02 83.83C108.826 83.83 108.589 83.9044 108.485 84.0087C108.395 84.098 107.935 84.2321 107.459 84.3065C106.984 84.381 106.003 84.5448 105.26 84.6639C104.532 84.7831 103.522 84.8724 103.046 84.8724C102.556 84.8575 102.021 84.9171 101.857 84.9915C101.679 85.066 101.248 85.2596 100.877 85.3936C100.267 85.6468 98.6477 87.1062 98.6477 87.4189C98.6477 87.4785 98.4545 87.8359 98.2019 88.1933C97.9642 88.5656 97.7561 88.9825 97.7561 89.1166C97.7561 89.2506 97.6521 89.5931 97.5184 89.876C97.3846 90.159 97.3103 90.4866 97.3698 90.6057C97.4441 90.8142 97.5035 90.8142 97.8899 90.6206C98.1276 90.4866 98.3505 90.3377 98.3802 90.2781C98.3951 90.2037 98.826 90.0101 99.3164 89.8165C99.8067 89.6229 100.327 89.3995 100.461 89.325C100.609 89.2506 100.891 89.191 101.099 89.191C101.516 89.191 102.348 89.0123 103.952 88.5805C104.547 88.4315 105.156 88.2975 105.29 88.2975C105.542 88.2975 107.771 87.7614 109.272 87.3296C109.688 87.2104 110.684 86.9424 111.501 86.7339C112.318 86.5254 113.195 86.2722 113.433 86.1978C114.146 85.9595 117.044 85.8702 118.188 86.0489C120.61 86.436 121.1 86.5552 122.794 87.2551C124.221 87.8359 129.436 90.3824 131.19 91.3652C131.398 91.4844 131.814 91.6928 132.111 91.8269C132.423 91.9758 133.523 92.5417 134.563 93.0778C135.603 93.6288 137.104 94.3882 137.876 94.7754C138.649 95.1626 139.392 95.5349 139.511 95.6094C139.63 95.6689 140.031 95.8625 140.403 96.0412C140.774 96.205 141.175 96.3986 141.294 96.4731C141.77 96.7709 146.614 99.1238 147.832 99.645C148.04 99.7344 148.308 99.8535 148.427 99.928C148.545 100.002 148.813 100.122 149.021 100.211C149.229 100.285 149.586 100.449 149.809 100.583C150.046 100.702 150.358 100.807 150.507 100.807C150.656 100.807 150.804 100.911 150.864 101.03C150.908 101.149 151.101 101.253 151.28 101.253C151.473 101.253 151.755 101.358 151.904 101.477C152.067 101.596 152.29 101.7 152.424 101.7C152.543 101.7 152.751 101.789 152.87 101.894C153.003 101.998 153.404 102.206 153.776 102.355C154.147 102.504 154.549 102.683 154.682 102.743C154.801 102.802 156.035 103.338 157.417 103.934C158.798 104.53 160.032 105.066 160.151 105.125C160.537 105.319 161.354 105.676 162.617 106.168C163.271 106.421 164.519 106.927 165.396 107.299C166.273 107.657 167.075 107.955 167.194 107.955C167.298 107.955 167.521 108.059 167.684 108.178C167.833 108.297 168.1 108.401 168.264 108.401C168.442 108.401 168.635 108.461 168.71 108.521C168.799 108.58 169.259 108.789 169.75 108.982C170.24 109.161 170.82 109.414 171.043 109.533C171.251 109.652 171.533 109.742 171.652 109.742C171.771 109.742 171.949 109.846 172.053 109.965C172.157 110.084 172.41 110.188 172.633 110.188C172.841 110.188 173.153 110.293 173.301 110.412C173.465 110.531 173.747 110.635 173.925 110.635C174.118 110.635 174.297 110.695 174.341 110.769C174.386 110.844 174.951 111.067 175.575 111.275C176.214 111.484 177.105 111.812 177.551 111.975C177.997 112.154 178.502 112.333 178.665 112.377C178.829 112.407 179.096 112.512 179.26 112.586C179.423 112.66 179.988 112.854 180.508 113.018C181.028 113.182 181.533 113.375 181.622 113.435C181.712 113.494 182.261 113.703 182.826 113.896C183.406 114.075 184.104 114.328 184.386 114.433C186.749 115.326 187.507 115.654 188.086 116.011C188.963 116.577 189.141 116.562 189.141 115.937ZM6.9059 114.09C7.11393 113.896 8.30268 113.494 8.97135 113.375C9.29825 113.331 9.71432 113.197 9.89263 113.077C10.0709 112.958 10.3236 112.869 10.4424 112.869C10.6653 112.869 11.4529 112.511 12.4633 111.961C12.7456 111.797 13.5332 111.41 14.2018 111.082C14.8705 110.754 15.4649 110.412 15.5095 110.337C15.5541 110.248 15.9998 110.188 16.4753 110.188C16.9508 110.188 17.3818 110.129 17.4263 110.069C17.4561 110.01 17.0994 109.488 16.6091 108.923C15.6284 107.776 13.9492 104.559 13.9492 103.815C13.9492 103.681 13.8452 103.368 13.7263 103.13C13.6075 102.906 13.5035 102.489 13.5035 102.221C13.5035 101.953 13.3994 101.492 13.2806 101.209C13.132 100.866 13.0577 100.166 13.0577 99.2876C13.0577 98.5282 12.9834 97.2623 12.8942 96.488C12.7011 94.7456 12.6268 82.0281 12.7902 79.5858C12.8496 78.603 12.9685 76.265 13.0577 74.4035C13.132 72.542 13.236 70.9337 13.2954 70.8593C13.34 70.7699 13.444 69.7126 13.5332 68.5213C13.6075 67.315 13.7263 65.6621 13.8006 64.843C13.8749 64.024 14.0087 62.6539 14.083 61.7902C14.1573 60.9265 14.291 59.9883 14.3802 59.7054C14.4693 59.4224 14.5436 58.931 14.5436 58.6332C14.5436 58.3353 14.6476 57.695 14.7665 57.2184C14.8854 56.7568 14.9894 56.0569 14.9894 55.6697C14.9894 55.2825 15.0637 54.7762 15.1529 54.5379C15.3014 54.1656 15.4203 53.5253 15.6729 51.5894C15.7175 51.2617 15.8512 50.7852 15.9701 50.5172C16.089 50.264 16.1781 49.8768 16.1781 49.6683C16.1781 49.2514 16.6685 48.1791 16.9211 48.0153C16.9954 47.9707 17.0697 47.8217 17.0697 47.7026C17.0697 47.3154 16.3119 47.4792 15.2271 48.1345C14.6476 48.477 13.444 49.1173 12.5376 49.5492C11.646 49.981 10.7693 50.4129 10.6059 50.5172C10.4424 50.6065 9.6103 51.0384 8.74846 51.4851C6.71272 52.5275 5.92518 53.1679 5.92518 53.7636C5.92518 54.0167 5.85088 54.3592 5.74686 54.5379C5.65771 54.7166 5.52397 55.1634 5.46454 55.5357C5.39024 55.908 5.27136 56.5781 5.18221 57.0248C4.95932 58.097 4.76615 59.3777 4.60269 60.718C4.5284 61.3286 4.39466 61.8944 4.3055 61.9838C4.21635 62.0731 4.14205 62.5795 4.14205 63.1305C4.12719 63.6815 4.03804 64.2622 3.91916 64.4707C3.80029 64.6792 3.71113 65.2451 3.69627 65.7812C3.69627 66.3024 3.62197 66.8683 3.51796 67.047C3.4288 67.2257 3.29507 68.0447 3.22077 68.8638C3.05732 70.8742 2.879 72.5123 2.67097 73.8376C2.58182 74.4482 2.53724 75.0587 2.59668 75.2226C2.64125 75.3715 2.59668 75.7289 2.50752 76.0267C2.4035 76.3245 2.31435 77.2329 2.28463 78.0669C2.26977 78.9008 2.18061 79.9284 2.09146 80.3304C2.0023 80.7474 1.89829 82.311 1.83885 83.83C1.79427 85.3489 1.69025 87.0615 1.61596 87.6274C1.39307 89.2804 1.43764 97.0092 1.69025 99.5408C1.80913 100.777 1.91314 102.326 1.91314 102.996C1.91314 103.77 2.0023 104.44 2.15089 104.827C2.28463 105.155 2.34407 105.542 2.29949 105.676C2.24005 105.81 2.26977 106.272 2.37379 106.674C2.52238 107.344 2.64125 107.731 3.1019 108.923C3.16133 109.086 3.38422 109.563 3.59225 109.965C3.80029 110.382 4.14205 111.052 4.33522 111.454C4.54325 111.871 4.88502 112.392 5.09305 112.616C5.30108 112.839 5.4794 113.062 5.4794 113.092C5.4794 113.122 5.61313 113.39 5.79144 113.673C6.10349 114.194 6.56413 114.373 6.9059 114.09ZM191.965 112.422C192.663 112.348 193.629 112.229 194.119 112.139C194.61 112.05 195.323 111.975 195.709 111.975C196.095 111.975 196.452 111.901 196.497 111.826C196.556 111.737 196.838 111.544 197.136 111.395C198.265 110.814 199.171 109.637 199.573 108.208C199.84 107.299 199.914 95.4753 199.677 94.552C199.573 94.1798 199.439 92.6757 199.379 91.2014C199.171 86.3318 198.963 83.2045 198.8 82.6982C198.696 82.4153 198.666 81.9239 198.726 81.6111C198.77 81.2984 198.711 80.4645 198.592 79.7199C198.458 78.9902 198.354 77.9329 198.354 77.3521C198.354 76.7862 198.28 76.0416 198.191 75.714C198.116 75.3864 198.027 74.4333 197.983 73.5994C197.953 72.7654 197.864 71.9464 197.775 71.7826C197.685 71.6188 197.611 70.8295 197.611 70.0253C197.596 69.0425 197.537 68.4468 197.388 68.1937C197.255 67.9554 197.165 67.3746 197.165 66.63C197.165 65.8854 197.076 65.3046 196.942 65.0664C196.824 64.8579 196.734 64.3814 196.72 64.0091C196.72 63.607 196.63 63.2496 196.512 63.1454C196.408 63.056 196.274 62.7879 196.229 62.5646C196.185 62.3412 195.798 61.7902 195.382 61.3434C193.242 59.065 186.021 51.8723 184.015 50.0406C183.45 49.5045 182.365 48.5068 181.622 47.8069C180.107 46.3921 178.131 44.5753 177.105 43.6669C176.734 43.3393 175.916 42.5798 175.292 41.9693C174.326 41.0311 172.945 39.7951 171.31 38.4102C171.102 38.2315 170.612 37.7698 170.196 37.3975C169.571 36.8018 168.843 36.1913 167.075 34.717C166.912 34.5681 166.406 34.166 165.961 33.7937C165.515 33.4214 164.831 32.8555 164.46 32.5279C163.479 31.6493 161.547 30.0708 160.76 29.4751C160.374 29.1922 158.561 27.8221 156.733 26.4521C154.905 25.0672 153.271 23.846 153.107 23.7269C152.706 23.4291 149.125 20.9421 148.843 20.7634C148.724 20.689 148.025 20.2124 147.312 19.721C146.599 19.2296 145.915 18.7679 145.782 18.6786C145.648 18.6041 145.113 18.2467 144.593 17.8893C144.073 17.5468 143.627 17.2639 143.597 17.2639C143.568 17.2639 143.256 17.0852 142.899 16.8618C142.542 16.6235 142.126 16.3704 141.963 16.2661C141.799 16.1619 141.205 15.8045 140.655 15.4471C139.407 14.6578 139.006 14.4196 138.159 13.9579C137.802 13.7643 137.223 13.4218 136.866 13.1984C136.524 12.9751 135.989 12.6474 135.677 12.4836C135.38 12.3198 135.023 12.1262 134.905 12.0518C133.76 11.337 132.512 10.6668 126.435 7.55445C125.172 6.89922 124.028 6.30355 123.909 6.24398C123.79 6.16952 123.181 5.87169 122.571 5.57385C121.962 5.27602 121.353 4.97818 121.234 4.90372C121.011 4.7697 119.362 4.01022 118.485 3.63792C117.504 3.22096 116.628 2.9529 116.509 3.02736C116.375 3.10182 116.241 3.75706 116.107 4.7697C116.093 4.97818 115.974 5.32069 115.87 5.51428C115.558 6.09506 115.26 8.20969 114.711 13.8834C114.622 14.777 114.577 15.5513 114.622 15.6258C114.666 15.7002 114.607 16.3406 114.473 17.0554C114.324 17.9042 114.25 19.3338 114.25 21.2698C114.25 22.9823 114.161 24.8587 114.027 25.8266C113.715 28.12 113.715 41.046 114.012 44.4413C114.131 45.7518 114.235 48.0749 114.25 49.5939C114.25 51.1128 114.324 52.7509 114.399 53.2423C114.488 53.7189 114.547 54.8209 114.562 55.6846C114.562 56.5483 114.636 57.6205 114.696 58.0673C114.77 58.514 114.904 59.6607 114.978 60.5989C115.186 63.0411 115.647 66.4513 115.899 67.2406C115.974 67.4937 116.033 67.8809 116.033 68.1192C116.033 68.5659 116.256 69.3701 116.954 71.5443C117.445 73.0781 117.534 73.2717 118.5 75.1928C119.258 76.7117 120.328 78.4541 120.773 78.871C120.922 79.02 121.234 79.4369 121.457 79.8092C122.081 80.807 123.285 81.9834 123.968 82.2664C124.31 82.4153 124.756 82.6089 124.979 82.728C125.187 82.8471 125.469 82.9365 125.588 82.9365C125.721 82.9365 126.004 83.0407 126.242 83.1599C126.464 83.279 127.029 83.5322 127.475 83.7257C127.921 83.9342 128.678 84.2619 129.154 84.4852C129.629 84.6937 130.075 84.8724 130.15 84.8724C130.224 84.8724 130.685 85.0511 131.145 85.2745C132.066 85.6915 132.75 85.9893 133.121 86.1233C133.24 86.168 133.448 86.2722 133.567 86.3467C133.686 86.4212 134.058 86.5552 134.384 86.6594C134.711 86.7637 135.083 86.9275 135.202 87.0317C135.321 87.136 135.588 87.27 135.796 87.3296C136.004 87.3891 136.599 87.6423 137.133 87.8805C137.668 88.1337 138.307 88.4166 138.545 88.5209C139.645 88.9825 143.374 90.6057 144.073 90.9334C144.489 91.1121 144.89 91.2759 144.95 91.2759C145.054 91.2759 146.079 91.7375 148.694 92.9437C150.537 93.7926 152.349 94.552 152.528 94.552C152.617 94.552 152.78 94.6563 152.884 94.7754C152.988 94.8946 153.226 94.9988 153.404 94.9988C153.583 94.9988 153.821 95.103 153.925 95.2222C154.029 95.3413 154.222 95.4456 154.355 95.4456C154.504 95.4456 154.742 95.5498 154.905 95.6689C155.054 95.7881 155.307 95.8923 155.455 95.8923C155.619 95.8923 155.916 95.9817 156.124 96.1008C156.347 96.205 156.822 96.4433 157.194 96.6071C157.565 96.7709 158.264 97.0836 158.754 97.307C159.244 97.5304 159.839 97.7985 160.061 97.9176C160.299 98.0367 160.552 98.1261 160.626 98.1261C160.76 98.1261 162.231 98.7664 163.182 99.2578C163.42 99.377 163.687 99.4663 163.806 99.4663C163.91 99.4663 164.074 99.5706 164.178 99.6897C164.282 99.8088 164.504 99.9131 164.683 99.9131C164.846 99.9131 165.129 100.017 165.277 100.136C165.441 100.256 165.678 100.36 165.827 100.36C165.961 100.36 166.154 100.464 166.258 100.583C166.362 100.702 166.6 100.807 166.778 100.807C166.956 100.807 167.194 100.911 167.298 101.03C167.402 101.149 167.61 101.253 167.744 101.253C167.892 101.253 168.204 101.343 168.442 101.462C168.873 101.67 169.735 102.057 170.121 102.206C170.24 102.251 170.448 102.355 170.567 102.43C170.686 102.504 171.087 102.683 171.459 102.817C171.83 102.951 172.306 103.159 172.529 103.279C172.737 103.398 173.019 103.487 173.138 103.487C173.257 103.487 173.435 103.591 173.539 103.71C173.643 103.83 173.851 103.934 174 103.934C174.163 103.934 174.668 104.142 175.129 104.381C175.59 104.634 176.08 104.827 176.214 104.827C176.362 104.827 176.555 104.932 176.659 105.051C176.763 105.17 177.001 105.274 177.18 105.274C177.358 105.274 177.596 105.378 177.7 105.497C177.804 105.617 177.997 105.721 178.131 105.721C178.264 105.721 178.502 105.81 178.665 105.914C178.829 106.019 179.735 106.436 180.671 106.838C181.608 107.24 182.484 107.642 182.618 107.761C182.737 107.865 182.96 107.955 183.108 107.955C183.242 107.955 183.792 108.193 184.327 108.476C184.847 108.759 185.382 108.997 185.486 108.997C185.605 108.997 186.303 109.414 187.046 109.905C188.086 110.605 188.577 111.052 189.097 111.782C189.736 112.69 189.81 112.735 190.241 112.646C190.493 112.601 191.266 112.497 191.965 112.422ZM26.1042 111.127C26.1339 110.903 25.9705 110.68 25.5098 110.367C24.3657 109.563 21.5275 106.331 21.5275 105.825C21.5275 105.691 21.4681 105.557 21.3938 105.512C20.844 105.17 18.4368 99.3323 18.6448 98.8111C18.6894 98.692 18.6151 98.275 18.4813 97.9176C18.303 97.4708 18.2585 97.0688 18.3179 96.7114C18.3773 96.4135 18.3328 95.803 18.199 95.252C17.6641 92.9586 17.9018 77.918 18.4962 76.9649C18.5556 76.8607 18.6002 76.5777 18.5854 76.3245C18.5705 75.8927 19.2838 74.4184 19.6107 74.2248C19.8187 74.0908 19.7741 73.3164 19.5364 73.1228C19.0163 72.691 18.838 70.0551 18.838 63.5028C18.8528 55.0145 19.1203 49.2662 19.5661 48.4323C19.8484 47.9111 19.7741 47.7175 19.1797 47.4495C18.2287 47.0325 18.0207 47.092 17.7532 47.926C17.6195 48.343 17.5155 48.8642 17.5155 49.0875C17.5155 49.3258 17.4115 49.6534 17.2926 49.8172C17.1737 49.9662 17.0697 50.4278 17.0697 50.8448C17.0697 51.2617 16.9657 51.7234 16.8468 51.8723C16.6982 52.0659 16.6239 52.5126 16.6239 53.153C16.6239 53.7338 16.5496 54.2103 16.4456 54.3145C16.3416 54.4188 16.2079 55.0294 16.1484 55.6548C16.0296 57.0546 15.8067 58.7672 15.5986 59.8543C15.4203 60.8074 15.1677 63.0113 14.9745 65.1408C14.6031 69.5488 14.5288 70.5763 14.395 72.959C14.3207 74.3886 14.187 76.131 14.0978 76.8309C13.9047 78.4392 13.9195 97.7389 14.1127 98.8707C14.187 99.3174 14.3059 100.211 14.3653 100.836C14.4247 101.477 14.5585 102.072 14.6625 102.177C14.7516 102.266 14.8408 102.579 14.8408 102.862C14.8408 103.904 16.6091 107.508 17.9613 109.22C18.5111 109.92 18.5854 109.965 19.254 109.98C21.1115 110.039 22.954 110.248 23.1621 110.412C23.2809 110.516 23.6227 110.635 23.905 110.695C24.1874 110.754 24.7223 110.948 25.0938 111.141C25.8813 111.544 26.0448 111.544 26.1042 111.127ZM103.759 82.9216C106.612 82.6386 107.459 82.5046 108.871 82.043C109.658 81.7749 110.416 81.4771 110.535 81.3728C111.352 80.7027 115.35 79.8688 116.628 80.1071C116.999 80.1815 117.564 80.2709 117.891 80.3304C118.217 80.39 118.693 80.524 118.96 80.6432C119.213 80.7623 119.495 80.8516 119.585 80.8516C119.748 80.8516 119.882 80.9112 120.758 81.3431C121.279 81.6111 121.828 81.6707 121.828 81.492C121.828 81.4175 121.293 80.807 120.625 80.1219C119.51 78.9455 118.738 77.918 118.069 76.682C117.029 74.7758 116.702 74.1057 116.315 73.0633C116.078 72.4229 115.885 71.7975 115.885 71.6783C115.885 71.5592 115.766 71.1869 115.602 70.8295C115.454 70.487 115.231 69.802 115.097 69.3105C114.963 68.8191 114.785 68.1192 114.681 67.7469C114.577 67.3746 114.503 66.7938 114.532 66.4513C114.547 66.1088 114.488 65.6769 114.384 65.4982C114.205 65.1557 114.072 63.9793 113.819 60.7329C113.745 59.7798 113.641 58.9012 113.567 58.797C113.492 58.6778 113.388 57.7248 113.344 56.6525C113.195 53.4806 112.928 48.611 112.764 46.1539C112.571 43.116 112.571 28.8645 112.764 26.4223C112.853 25.365 112.942 23.2653 112.987 21.7463C113.017 20.2273 113.106 18.5446 113.195 18.0085C113.284 17.4724 113.358 16.3406 113.358 15.4769C113.358 14.5387 113.448 13.6303 113.581 13.1835C113.7 12.7815 113.804 11.9326 113.804 11.3072C113.804 10.6668 113.879 10.1009 113.968 10.0116C114.072 9.90735 114.131 9.43081 114.116 8.92449C114.101 8.41818 114.191 7.79272 114.324 7.48C114.443 7.19705 114.532 6.78008 114.518 6.55671C114.488 6.06528 115.112 4.18892 115.469 3.72727C115.914 3.1316 115.691 2.56572 115.171 2.99758C114.726 3.35498 109.941 5.64831 109.629 5.64831C109.554 5.64831 109.168 5.8419 108.782 6.09506C108.381 6.33333 107.92 6.54182 107.771 6.54182C107.623 6.54182 107.355 6.64606 107.207 6.76519C107.043 6.88433 106.805 6.98857 106.657 6.98857C106.523 6.98857 106.33 7.09281 106.226 7.21194C106.122 7.33108 105.929 7.43532 105.81 7.43532C105.513 7.43532 103.566 8.35861 102.14 9.17766C101.813 9.35636 101.441 9.56484 101.322 9.62441C100.713 9.90735 99.5838 10.8902 99.3758 11.337C98.6328 12.841 98.3505 13.9281 98.2465 15.6258C98.2019 16.2363 98.1128 16.8171 98.0385 16.9065C97.979 16.9809 97.875 17.6511 97.8304 18.3956C97.7859 19.1253 97.6521 20.0486 97.5332 20.4507C97.3995 20.8677 97.3549 21.4187 97.3995 21.7314C97.4441 22.0441 97.4144 22.7589 97.3252 23.3099C97.2361 23.8758 97.1172 25.2756 97.0875 26.4223C97.0429 27.569 96.9389 28.7752 96.8348 29.1028C96.7457 29.4304 96.6714 30.1303 96.6565 30.6664C96.6565 31.2026 96.5971 33.1385 96.5228 34.9851C96.3445 39.6908 96.3742 53.5104 96.5822 56.9951C96.6714 58.6034 96.7011 60.2266 96.6565 60.6138C96.5971 61.0158 96.6565 61.8647 96.7903 62.6092C96.9091 63.3241 97.0132 64.5899 97.0132 65.4238C97.0132 66.2577 97.0875 67.1661 97.1618 67.4491C97.2509 67.732 97.3549 68.5957 97.3995 69.3552C97.4441 70.1147 97.5332 70.9188 97.6224 71.1124C97.6967 71.3209 97.7561 71.8421 97.7561 72.2591C97.7561 72.7059 97.8601 73.1526 97.979 73.3164C98.0979 73.4802 98.2019 73.8823 98.2019 74.2099C98.2019 74.5375 98.2613 74.9992 98.3505 75.2523C98.4248 75.5055 98.6328 76.2203 98.826 76.8309C99.0043 77.4414 99.2272 78.0818 99.3461 78.2456C99.4501 78.4094 99.5393 78.6774 99.5393 78.871C99.5393 79.0497 99.5987 79.2433 99.6879 79.288C99.7621 79.3327 99.9553 79.6603 100.104 80.0028C100.267 80.3453 100.698 81.075 101.085 81.6409C101.456 82.1919 101.768 82.7429 101.768 82.8471C101.768 83.0854 102.065 83.2343 102.273 83.1152C102.333 83.0854 103.001 82.996 103.759 82.9216ZM21.8693 72.1102C22.2111 71.9017 22.7311 71.5443 23.0135 71.3209C23.2958 71.0975 24.1874 70.5614 24.9749 70.1445C25.7773 69.7275 26.6391 69.251 26.9066 69.0872C27.1741 68.9233 27.8279 68.5957 28.3628 68.3277C31.2604 66.9427 32.7909 66.1982 33.1178 66.0195C33.9351 65.5727 40.4881 62.3859 40.607 62.3859C40.6813 62.3859 41.9443 61.8349 43.1479 61.269C43.8463 60.9414 46.1941 59.8543 47.0114 59.482C48.8985 58.6332 49.166 58.514 49.27 58.514C49.3889 58.514 51.2463 57.695 52.6728 57.01C53.178 56.7717 53.6832 56.5781 53.8021 56.5781C53.9061 56.5781 54.0696 56.5185 54.1587 56.4441C54.2924 56.3249 56.8631 55.2527 58.0073 54.8507C58.3342 54.7315 58.7354 54.5677 58.8989 54.5081C59.7756 54.1061 61.4992 53.4508 61.633 53.4508C61.7221 53.4508 62.1382 53.287 62.5691 53.0785C62.9852 52.87 63.4161 52.7062 63.5053 52.7062C63.5796 52.7062 63.9065 52.5722 64.2185 52.4084C64.5157 52.2446 64.902 52.1106 65.0655 52.1106C65.2438 52.1106 65.5261 52.0212 65.7045 51.9021C65.8828 51.7978 66.4028 51.5894 66.8486 51.4404C67.7551 51.1426 69.7759 50.4129 70.5338 50.0853C70.8012 49.9662 71.143 49.8768 71.3064 49.8768C71.455 49.8768 71.7671 49.7875 72.0048 49.6683C72.4358 49.4598 73.0004 49.2514 74.1297 48.9088C74.6795 48.745 75.9574 48.2834 76.953 47.8962C77.0719 47.8515 77.6811 47.6579 78.2903 47.4792C78.8996 47.3005 79.6425 47.0772 79.9249 46.9729C80.2072 46.8687 81.1433 46.5708 82.0052 46.3028C82.867 46.0496 83.8032 45.7518 84.0855 45.6624C84.3678 45.588 84.8433 45.454 85.1257 45.3944C85.408 45.3348 86.0172 45.171 86.463 45.037C87.3546 44.7689 88.1421 44.5605 89.0634 44.3818C89.5835 44.2626 90.8317 43.9648 93.0011 43.4436C93.3726 43.3542 93.8778 43.2649 94.1453 43.2649C94.3979 43.25 94.6505 43.2053 94.71 43.1457C94.7694 43.1011 94.7991 40.9418 94.7843 38.3655C94.7843 35.6999 94.8437 33.2576 94.9328 32.6917C95.022 32.1556 95.0963 30.6218 95.0963 29.2964C95.1112 27.6881 95.1855 26.6159 95.3192 26.1394C95.4381 25.7075 95.5272 24.7246 95.5272 23.8014C95.5272 22.7738 95.6015 21.9995 95.7501 21.5825C95.8839 21.2102 95.973 20.4358 95.973 19.7061C95.973 18.9169 96.0622 18.2467 96.2108 17.8595C96.3445 17.517 96.4039 17.1001 96.3593 16.8916C96.2999 16.6831 97.0132 12.9751 97.0132 12.7219C97.0132 12.4836 97.1172 12.1411 97.2361 11.9922C97.3549 11.8284 97.4589 11.5008 97.4589 11.2625C97.4589 10.7562 98.1128 9.78822 98.6923 9.44571C99.2421 9.11809 99.2272 8.59688 98.6626 8.1948C98.4248 8.0161 98.0236 7.88207 97.7561 7.88207C97.1172 7.88207 95.3192 8.50753 93.4915 9.38614C92.6445 9.78822 91.8718 10.1158 91.7678 10.1158C91.6638 10.1158 91.4409 10.2201 91.2774 10.3392C91.1289 10.4583 90.8465 10.5626 90.6831 10.5626C90.5048 10.5626 90.2819 10.6668 90.1778 10.786C90.0738 10.9051 89.9104 11.0093 89.7915 11.0093C89.6132 11.0093 88.3204 11.5752 86.0915 12.6474C84.1449 13.5856 82.8819 14.1366 82.7036 14.1366C82.5996 14.1366 82.451 14.1962 82.3767 14.2706C82.2875 14.3451 81.3217 14.7918 80.2221 15.2535C79.1225 15.7151 78.1566 16.1619 78.0823 16.2363C77.9932 16.3108 77.8594 16.3704 77.7554 16.3704C77.6514 16.3704 76.8787 16.698 76.0169 17.115C75.155 17.517 74.4269 17.8595 74.3823 17.8595C74.3378 17.8595 73.6394 18.1723 72.837 18.5446C72.0345 18.9169 71.0835 19.3636 70.7121 19.5274C70.3406 19.7061 69.5382 20.0635 68.9289 20.3465C68.3197 20.6294 67.6213 20.9421 67.3687 21.0464C66.6555 21.3591 65.6896 21.8059 64.0996 22.5504C63.2824 22.9376 62.2868 23.3993 61.8707 23.5929C61.4695 23.7716 60.7266 24.1141 60.2362 24.3375C59.7458 24.5608 59.0772 24.8587 58.7503 25.0076C58.4234 25.1565 57.4575 25.6033 56.5957 26.0202C53.8764 27.3158 53.3712 27.5392 53.2374 27.5392C53.1631 27.5392 52.5093 27.837 51.7664 28.2093C51.0382 28.5667 49.7603 29.1773 48.9431 29.5645C48.1258 29.9368 46.417 30.7558 45.1539 31.3813C42.9547 32.4535 41.9294 32.93 40.3692 33.6448C39.968 33.8235 39.6262 34.032 39.5668 34.1064C39.5222 34.1809 39.3885 34.2405 39.2696 34.2405C39.1359 34.2405 38.4226 34.5383 37.6648 34.9106C36.8921 35.2829 36.2086 35.5807 36.1194 35.5807C36.0451 35.5807 35.8965 35.685 35.7925 35.8041C35.6885 35.9232 35.4953 36.0275 35.3467 36.0275C35.1982 36.0275 35.005 36.1317 34.901 36.2509C34.7969 36.37 34.5592 36.4742 34.3809 36.4742C34.2026 36.4742 33.9648 36.5785 33.8608 36.6976C33.7568 36.8167 33.5785 36.921 33.4596 36.921C33.3407 36.921 33.0733 37.055 32.8801 37.2039C32.6721 37.3677 32.0331 37.6805 31.4387 37.9038C30.8444 38.1272 30.2648 38.3953 30.1311 38.4995C30.0122 38.6186 29.8191 38.708 29.715 38.708C29.611 38.708 29.1058 38.9165 28.6006 39.1696C28.1102 39.4228 27.4713 39.7206 27.2038 39.8398C26.1339 40.2865 25.599 40.5248 25.1978 40.7333C24.96 40.8524 24.7074 40.9418 24.6183 40.9418C24.544 40.9418 24.1725 41.1502 23.801 41.3885C23.4444 41.6417 23.1175 41.8353 23.0729 41.8353C22.9837 41.8353 22.5082 42.3267 22.2259 42.7288C22.0922 42.9373 21.9733 43.2649 21.9733 43.4734C21.9733 43.6818 21.9139 43.9201 21.8247 44.0095C21.7504 44.0839 21.6018 44.8881 21.5127 45.7816C21.4235 46.69 21.2898 47.5537 21.2006 47.7026C21.1115 47.8664 20.9926 48.8046 20.9183 49.7875C20.844 50.7852 20.7251 52.1255 20.6508 52.7807C20.4725 54.4337 20.4576 70.1296 20.6211 71.306C20.74 72.0953 20.9331 72.4974 21.2006 72.5123C21.2155 72.5123 21.5127 72.3336 21.8693 72.1102ZM185.694 48.9535C185.738 48.7301 185.352 47.6877 184.981 47.0176C184.892 46.8687 184.832 46.6751 184.832 46.5857C184.832 46.4964 184.594 45.9454 184.312 45.3497C184.03 44.754 183.792 44.1882 183.792 44.0839C183.792 43.7712 182.871 42.0289 182.425 41.4779C182.053 41.0162 181.905 40.9418 181.355 40.9418C180.404 40.9418 180.033 41.5076 179.824 43.2798C179.765 43.8159 179.795 43.9052 180.077 43.9946C180.419 44.0988 184.535 48.1345 184.535 48.3727C184.535 48.4323 184.683 48.6706 184.847 48.894C185.189 49.3258 185.62 49.3556 185.694 48.9535ZM124.726 4.11446C123.433 1.85091 122.497 1.18079 121.62 1.85091C121.457 1.97005 121.175 2.07429 120.996 2.07429C120.61 2.07429 120.283 2.43169 120.387 2.71464C120.432 2.83377 120.684 2.9678 120.952 3.02736C121.546 3.1465 123.225 3.93576 123.834 4.38251C124.756 5.05264 125.201 4.91861 124.726 4.11446Z" fill="rgb(0,0,0)" fill-rule="nonzero" transform="matrix(1,0,0,-1,-0.244629,229.988)" />
		<path id="矢量 488" d="M0.341766 15.5188C0.148594 15.4741 0 15.3847 0 15.3103C0 15.0125 1.01044 14.7593 2.65983 14.6699C3.58111 14.6253 4.72528 14.521 5.18592 14.4317C5.64656 14.3572 6.52326 14.2232 7.1325 14.1338C7.74173 14.0445 8.67787 13.9105 9.21281 13.836C9.74775 13.7615 10.7879 13.6722 11.516 13.6424C13.8044 13.5233 17.9798 13.2403 19.4658 13.0914C20.2385 13.0021 22.4525 12.8085 24.3694 12.6447C26.2862 12.466 28.0694 12.2724 28.3071 12.1979C28.5597 12.1235 29.4959 11.9894 30.3874 11.9001C32.6758 11.6767 35.1424 11.364 36.0934 11.1704C36.5243 11.081 37.2376 11.0066 37.6685 11.0066C38.0994 11.0066 38.6344 10.947 38.8721 10.8725C39.1099 10.7832 39.9123 10.6938 40.6404 10.6343C41.3834 10.5896 42.3195 10.4854 42.7207 10.4109C43.1368 10.3364 43.7906 10.2769 44.2066 10.2769C44.6078 10.262 45.44 10.1577 46.0641 10.0386C46.6733 9.91947 48.0106 9.75566 49.0359 9.66631C50.7893 9.53229 51.9484 9.39826 56.2427 8.86216C59.705 8.4303 64.6086 7.50701 64.876 7.23896C64.9355 7.17939 65.1286 7.13472 65.2921 7.13472C65.4704 7.13472 65.7379 7.04537 65.9013 6.92623C66.0648 6.82199 66.466 6.68796 66.7929 6.6284C67.6399 6.46459 69.4081 5.83914 70.4334 5.33282C70.9089 5.09455 71.3547 4.90096 71.4141 4.90096C71.4587 4.90096 72.0085 4.60312 72.6178 4.23083C73.2121 3.85853 73.7471 3.5607 73.7916 3.5607C73.97 3.5607 76.7932 1.29715 77.4173 0.671699C78.1009 -0.0431046 78.3683 -0.162239 78.5021 0.195163C78.6358 0.522782 77.9374 1.40139 76.7189 2.44382C75.1587 3.76918 73.8214 4.6329 71.6222 5.72C69.6756 6.68796 69.1407 6.89645 67.313 7.43255C66.7037 7.61125 65.6933 7.90909 65.0841 8.10268C64.4748 8.29627 63.6427 8.51965 63.2266 8.609C62.8254 8.68346 62.2162 8.81748 61.8893 8.89194C61.5624 8.9664 60.7005 9.11532 59.9576 9.20467C59.2295 9.29402 58.1893 9.44294 57.6544 9.53229C57.1194 9.62164 55.7226 9.78545 54.5339 9.90458C53.3451 10.0088 52.1861 10.1428 51.9335 10.1726C51.6958 10.2173 50.2841 10.396 48.813 10.5598C47.342 10.7236 45.7074 10.9321 45.1725 11.0215C44.6376 11.1108 43.538 11.2299 42.7207 11.3044C40.1054 11.5427 36.9701 11.8852 35.2167 12.1235C34.2806 12.2426 32.9432 12.4213 32.2448 12.4957C31.5464 12.5851 30.6846 12.7042 30.3131 12.7787C29.9416 12.868 29.0798 12.9723 28.3814 13.017C27.683 13.0616 26.9252 13.1659 26.6726 13.2403C26.4348 13.3148 25.2609 13.4488 24.0722 13.5382C22.8834 13.6275 20.6545 13.8062 19.0943 13.9254C17.5489 14.0445 15.0377 14.1934 13.522 14.2679C12.0064 14.3423 10.3718 14.4763 9.88148 14.5508C9.39112 14.6402 8.52928 14.7444 7.94976 14.804C7.38511 14.8635 6.64214 14.9529 6.31523 15.0273C5.98833 15.1018 4.81444 15.2358 3.71484 15.3252C2.61525 15.4145 1.47108 15.5039 1.18875 15.5337C0.906422 15.5634 0.520078 15.5486 0.341766 15.5188Z" fill="rgb(0,0,0)" fill-rule="nonzero" transform="matrix(1,0,0,-1,93.7964,17.9268)" />
		<path id="矢量 489" d="M5.90324 61.1157C5.41288 60.5647 4.7442 59.8053 4.40244 59.433C3.30284 58.2416 2.57474 56.4546 1.81691 53.1635C1.38599 51.2425 1.26711 50.5277 0.955063 47.6387C0.865907 46.9388 0.732173 46.1942 0.657876 45.9559C0.568719 45.7326 0.494423 45.0624 0.494423 44.4817C0.494423 43.886 0.375548 42.9776 0.241813 42.4415C0.00406311 41.5629 -0.0107963 40.1482 0.00406311 26.8051C0.00406311 14.3854 0.0486412 11.8687 0.241813 10.4242C0.375548 9.48604 0.479563 7.95219 0.479563 7.0289C0.479563 6.10562 0.55386 5.07809 0.643016 4.75047C0.747032 4.37817 0.776751 3.33575 0.732173 2.06995C0.672735 0.148918 0.687594 0 0.940204 0C1.5643 0 1.57916 0.178701 1.47514 5.85246C1.4157 8.81591 1.29683 12.3899 1.22253 13.7749C0.999641 17.4978 0.910485 35.6211 1.0888 38.5696C1.40084 43.3648 1.71289 46.6558 1.95064 47.5791C2.0398 47.9067 2.18839 48.8747 2.27755 49.7384C2.3667 50.6022 2.54502 51.6595 2.66389 52.0764C2.79763 52.5083 2.85706 52.9253 2.81249 52.9997C2.75305 53.0742 2.79763 53.3273 2.88678 53.5656C2.97594 53.789 3.16911 54.4144 3.3177 54.9505C4.01609 57.4226 4.52131 58.3459 6.23014 60.118C7.07713 61.0115 7.32974 61.3689 7.30002 61.6518C7.22572 62.322 6.80966 62.1582 5.90324 61.1157Z" fill="rgb(0,0,0)" fill-rule="nonzero" transform="matrix(1,0,0,-1,168.342,77.6558)" />
	</g>
</svg>
