<svg viewBox="0 0 268 230" xmlns="http://www.w3.org/2000/svg" xmlns:xlink="http://www.w3.org/1999/xlink" width="268.000000" height="230.000000" fill="none">
	<defs>
		<clipPath id="clipPath_1">
			<rect width="216.000000" height="230.000000" x="26.000000" y="0.000000" fill="rgb(255,255,255)" />
		</clipPath>
	</defs>
	<rect id="1" width="268.000000" height="230.000000" x="0.000000" y="0.000000" />
	<g id="1" customFrame="url(#clipPath_1)">
		<rect id="1" width="216.000000" height="230.000000" x="26.000000" y="0.000000" />
		<path id="矢量 358" d="M47.9013 183.044L32.4773 176.219L28.68 150.326L26.9946 130.703L29.384 117.395L33.1813 111.719L29.5546 106.659L30.984 100.281L36.424 95.9658L55.944 88.0573L74.248 81.8709L101.939 75.8545L102.984 61.3982L105.821 47.2183L112.989 26.0653L118.088 19.7938L126.195 21.3245L131.059 8.48392L134.557 3.61555L140.595 1.89355L153.288 1.89355L173.704 4.10452L194.909 5.97533L206.941 9.63192L212.509 11.9279L215.56 17.7742L216.776 30.2747L224.029 30.9762L229.619 33.251L235.869 33.1447L240.648 34.399L241.16 40.2027L230.6 110.571L228.531 112.399L224.819 111.953L223.965 113.398L227.699 115.928L228.275 118.564L228.531 125.644L225.608 165.122L214.984 177.41L214.387 180.237L211.613 187.381L208.264 188.635L206.707 185.382L187.891 201.497L161.395 219.546L152.264 224.095L151.389 227.794L149.427 229.431L146.035 227.114L142.685 228.368L126.877 220.758L123.699 223.372L48.4986 186.7L47.9013 183.044Z" fill="rgb(255,255,255)" fill-rule="nonzero" />
		<path id="矢量 358" d="M32.4773 176.219L28.68 150.326L26.9946 130.703L29.384 117.395L33.1813 111.719L29.5546 106.659L30.984 100.281L36.424 95.9658L55.944 88.0573L74.248 81.8709L101.939 75.8545L102.984 61.3982L105.821 47.2183L112.989 26.0653L118.088 19.7938L126.195 21.3245L131.059 8.48392L134.557 3.61555L140.595 1.89355L153.288 1.89355L173.704 4.10452L194.909 5.97533L206.941 9.63192L212.509 11.9279L215.56 17.7742L216.776 30.2747L224.029 30.9762L229.619 33.251L235.869 33.1447L240.648 34.399L241.16 40.2027L230.6 110.571L228.531 112.399L224.819 111.953L223.965 113.398L227.699 115.928L228.275 118.564L228.531 125.644L225.608 165.122L214.984 177.41L214.387 180.237L211.613 187.381L208.264 188.635L206.707 185.382L187.891 201.497L161.395 219.546L152.264 224.095L151.389 227.794L149.427 229.431L146.035 227.114L142.685 228.368L126.877 220.758L123.699 223.372L48.4986 186.7L47.9013 183.044L32.4773 176.219Z" fill-rule="nonzero" stroke="rgb(0,0,0)" stroke-width="1.000000" />
		<path id="矢量 359" d="M126.664 221.055L123.507 222.99L49.352 187.338L47.3893 182.066L47.1546 154.599L48.0293 153.451L45.6187 150.028L45.96 128.493L50.0133 119.5L54.9413 114.058L80.264 104.427L86.152 103.3L113.416 97.7091L113.416 95.9021L116.104 92.1605L112.584 81.0206L111.987 79.1286L106.184 75.9397L101.491 75.9397L102.515 61.4196L107.827 37.8643L114.717 21.601L120.605 19.4538L125.896 21.2396L130.44 8.18641L136.819 2.59523L147.016 1.21338L194.333 5.35894L209.821 9.48323L214.984 15.3508L216.776 30.2748L224.499 30.7425L230.28 32.8684L235.869 33.1448L240.648 34.3991L240.989 38.9698L230.109 110.869L227.443 112.102L223.944 111.698L218.035 112.591L216.883 110.869L216.477 106.681L212.04 101.855L200.2 96.795L194.44 96.306L174.216 100.005L150.493 110.04L130.696 122.327L124.573 127.153L122.269 132.532L123.08 138.718L126.899 143.438L122.269 155.024L121.16 191.739L123.571 215.422L126.664 221.055Z" fill="rgb(1,89,188)" fill-rule="nonzero" />
		<g id="组合 73">
			<path id="矢量 360" d="M122.434 0C122.645 0 122.779 0 122.973 0.0659032C123.519 0.248732 124.915 1.40524 125.341 2.40442C125.597 2.97842 125.849 3.444 125.949 3.5673C125.962 3.6821 126.116 3.88194 126.216 4.14768C126.474 4.82373 126.975 5.66772 127.56 5.95472C127.946 6.14393 128.127 6.2566 128.377 6.40116C128.467 6.47344 128.861 6.65627 129.48 6.97516C130.077 7.27279 130.931 7.71924 131.336 7.97435C131.741 8.2082 132.701 8.73968 133.469 9.16487C134.579 9.76013 138.504 12.0774 141.896 14.1608C143.347 15.0537 145.459 16.3718 146.269 16.9245C150.621 19.8583 151.88 20.6874 152.029 20.6874C152.115 20.6874 152.328 20.8362 152.477 21.0275C152.819 21.4315 156.019 23.8763 156.211 23.8763C156.296 23.8763 156.659 24.1314 157.064 24.4503C157.448 24.7904 158.152 25.3432 158.621 25.6833C159.112 26.0447 159.795 26.5762 160.179 26.8951C160.563 27.1927 161.437 27.873 162.099 28.3832C163.4 29.3612 166.941 32.2312 167.816 32.9965C168.115 33.2729 169.16 34.1658 170.141 34.9949C172.915 37.3546 176.541 40.6498 177.843 41.9892C178.504 42.6695 179.144 43.2222 179.251 43.2222C179.379 43.2222 179.592 42.8821 179.741 42.4781C179.891 42.0742 180.253 41.4364 180.552 41.0963C181.043 40.501 181.192 40.4585 182.451 40.4585C183.752 40.4585 183.859 40.501 184.627 41.2663C185.437 42.0742 186.15 43.6368 186.376 44.1576C186.444 44.3128 186.574 44.7635 186.675 45.0718C187.078 46.3197 187.765 48.7645 188.317 50.8755C188.652 52.1553 188.595 52.3212 190.088 53.8518C195.997 59.9745 198.003 62.2067 198.621 63.5248C199.368 65.0555 199.816 66.6499 199.816 67.7554C199.816 68.2869 199.901 69.1372 200.029 69.6262C200.221 70.4553 200.755 75.7914 201.331 82.3392C202.12 91.7784 202.611 104.236 202.355 109.126C202.184 112.74 201.885 113.654 200.413 115.121C199.731 115.801 199.048 116.354 198.899 116.354C198.536 116.354 197.789 117.162 197.96 117.353C198.045 117.417 198.749 117.289 199.539 117.077C200.499 116.8 201.224 116.694 201.715 116.8C202.547 116.971 204.253 118.544 204.445 119.33C204.509 119.628 204.637 119.968 204.723 120.074C204.808 120.202 204.936 120.67 205 121.137C205.32 123.455 205.619 125.474 205.811 126.346C206.173 128.089 206.664 131.321 206.856 133.361C206.963 134.467 207.133 135.721 207.261 136.125C207.368 136.529 207.581 137.783 207.709 138.889C208.52 145.373 208.883 148.115 209.544 152.601C209.715 153.898 209.971 155.556 210.056 156.321C210.163 157.087 210.397 158.766 210.589 160.042C210.76 161.339 211.016 163.337 211.144 164.506C211.272 165.676 211.464 166.972 211.571 167.376C211.677 167.78 211.848 168.928 211.976 169.927C212.317 173.18 212.808 176.752 212.936 176.943C213 177.049 213.192 178.261 213.384 179.643C213.555 181.025 213.853 183.151 214.024 184.384C214.195 185.617 214.429 187.488 214.536 188.529C214.664 189.592 214.856 190.719 214.963 191.059C215.539 192.76 214.92 195.417 213.725 196.246C212.744 196.948 211.229 197.331 209.373 197.352C208.392 197.373 207.005 197.522 206.259 197.713C205.192 197.968 204.595 197.99 203.485 197.82C202.056 197.628 202.056 197.628 200.541 198.436C199.709 198.904 198.856 199.265 198.621 199.265C198.408 199.265 197.96 199.414 197.619 199.563C196.552 200.137 194.461 200.541 192.648 200.541L190.856 200.541L190.856 204.006C190.856 207.407 190.813 207.705 189.96 210.214C189.853 210.575 189.661 211.192 189.576 211.596C189.363 212.531 189.043 213.403 188.211 215.422C187.677 216.719 187.251 217.314 185.949 218.632C183.816 220.78 181.896 221.651 176.029 223.139C175.325 223.331 174.323 223.586 173.789 223.735C170.376 224.649 165.235 225.393 157.789 226.052C156.445 226.158 154.995 226.349 154.589 226.456C154.184 226.583 152.925 226.732 151.816 226.796C150.707 226.86 149.213 227.008 148.509 227.115C146.077 227.497 142.301 227.816 138.483 227.965C133.085 228.178 124.04 228.773 122.312 229.028C120.584 229.283 115.187 229.283 114.568 229.028C114.333 228.943 113.459 228.794 112.648 228.709C111.837 228.624 110.984 228.412 110.749 228.263C110.515 228.093 110.088 227.965 109.768 227.965C109.448 227.965 109.085 227.816 108.936 227.646C108.787 227.476 108.509 227.327 108.296 227.327C107.763 227.327 105.053 224.755 104.093 223.331C103.645 222.672 102.813 221.162 102.259 219.993C101.683 218.824 101.085 217.591 100.915 217.272C100.744 216.932 100.616 216.528 100.616 216.379C100.616 216.23 100.339 215.337 99.9973 214.423C99.6559 213.509 99.2719 212.084 99.1226 211.234C98.7599 209.172 98.6533 209.044 97.7999 209.555C96.3066 210.405 94.8559 210.745 92.8079 210.745C91.1013 210.745 90.6533 210.66 89.6293 210.192C88.5413 209.661 86.5359 207.79 86.5359 207.259C86.5359 207.152 86.1733 206.302 85.7039 205.345C84.6373 203.092 83.1226 199.563 83.1226 199.265C83.1226 199.159 83.0159 198.882 82.9093 198.67C82.6533 198.245 81.6719 195.63 81.4159 194.694C81.3306 194.354 81.0319 193.483 80.7973 192.781C80.5413 192.08 80.1359 190.889 79.9013 190.124C79.6666 189.358 79.3253 188.423 79.1546 188.04C78.9839 187.658 78.8559 187.169 78.8559 186.956C78.8559 186.595 78.5573 185.468 77.9599 183.555C77.8319 183.151 77.5973 182.236 77.4266 181.535C77.2773 180.812 77.0426 179.898 76.9573 179.494C76.4666 177.602 76.0186 175.412 75.7626 173.754C75.0373 168.886 74.7599 167.249 74.6319 166.951C74.4399 166.483 73.9279 160.956 73.7786 157.597L73.6293 154.727L72.4559 154.578C68.4453 154.089 65.3946 153.6 63.4959 153.111C63.0906 153.026 62.0239 152.792 61.1493 152.601C60.2746 152.41 59.1653 152.176 58.6959 152.07C58.2266 151.963 57.1599 151.729 56.3279 151.581C55.4959 151.411 54.6853 151.198 54.5146 151.113C54.3653 151.007 53.8533 150.858 53.3626 150.773C52.1679 150.539 50.6533 150.135 50.2266 149.922C50.0133 149.816 49.7359 149.731 49.5866 149.731C49.1813 149.731 44.3173 148.307 41.5226 147.35C40.1786 146.882 38.7919 146.436 38.4293 146.33C38.0879 146.245 37.2559 145.947 36.6159 145.692C35.9759 145.437 35.2506 145.182 35.0159 145.118C34.7813 145.075 34.3973 144.926 34.1626 144.841C33.9279 144.735 33.2026 144.438 32.5626 144.204C31.9226 143.949 31.1333 143.608 30.8133 143.438C30.5146 143.268 30.1519 143.141 30.0239 143.141C29.8959 143.141 29.1919 142.864 28.4453 142.524C27.7199 142.184 26.2693 141.546 25.2026 141.121C24.1573 140.696 22.5146 139.973 21.5759 139.527C18.6319 138.124 16.7973 137.337 14.3226 136.402C13.8533 136.231 13.2133 135.955 12.8933 135.785C12.5946 135.615 12.1679 135.487 11.9333 135.487C11.7199 135.487 11.3573 135.339 11.1439 135.169C10.9093 134.998 10.5893 134.85 10.4399 134.85C9.94925 134.85 7.02658 133.361 6.15192 132.66C3.25058 130.343 1.79992 126.835 2.46125 123.774C3.01592 121.286 3.42125 120.33 4.33858 119.437L5.25592 118.586L4.65858 117.949C4.33858 117.608 3.99725 117.162 3.86925 116.971C3.76258 116.758 3.35725 116.099 2.97325 115.461C1.97058 113.782 1.15992 111.358 0.754583 108.913C0.626583 108.148 0.434583 107.255 0.34925 106.894C0.02925 105.873 -0.120083 93.7129 0.114583 88.717C0.34925 83.4447 0.839917 77.152 1.18125 75.0048C1.41592 73.5379 1.71458 70.838 2.05592 67.1601C2.16258 66.1184 2.35458 64.8216 2.46125 64.2901C2.58925 63.7586 2.84525 62.3981 3.01592 61.2926C3.20792 60.1871 3.44258 58.9966 3.54925 58.6352C3.65592 58.295 3.80525 57.6147 3.86925 57.147C4.33858 54.2983 5.91725 52.2149 8.56258 51.0243C9.03192 50.8118 9.60792 50.5141 9.84258 50.3866C10.0773 50.259 11.8053 49.4086 13.6826 48.4732C17.0106 46.7938 17.1173 46.7725 18.6959 46.7512L20.2959 46.73L20.4666 45.3481C20.5519 44.5828 20.7866 43.6261 20.9999 43.2222C21.7253 41.7766 22.3653 41.3726 27.7626 38.8641C28.9359 38.3113 30.2799 37.6735 30.7493 37.4184C31.2186 37.1846 31.7519 36.9082 31.9226 36.8444C34.0559 35.8452 36.6373 34.6122 37.1493 34.3571C37.5119 34.1658 40.9679 32.4438 44.8293 30.5304C51.3999 27.2778 52.2746 26.8526 53.6826 26.1085C54.4506 25.7046 59.4213 23.3448 61.7893 22.2393C62.8986 21.7291 63.9653 21.2189 64.1359 21.1126C64.3066 20.985 64.6906 20.7937 64.9893 20.6661C65.4799 20.4748 69.8106 18.3276 70.8559 17.7749C71.0906 17.6473 71.9013 17.2646 72.6693 16.9032C73.4373 16.5418 75.4426 15.5852 77.1493 14.7773C78.8559 13.9695 81.0106 12.949 81.9493 12.5238C82.8879 12.0986 83.8053 11.6522 83.9759 11.5246C84.1466 11.4183 84.4453 11.2695 84.6159 11.2058C84.7866 11.142 85.8959 10.6318 87.0693 10.0578C88.2426 9.50501 89.7786 8.7822 90.4826 8.46331C91.1866 8.14442 92.2746 7.65546 92.9146 7.35783C95.6666 6.08227 97.5226 5.69961 98.0559 6.33738C98.2053 6.50746 98.5039 6.65627 98.7173 6.65627C98.9306 6.65627 99.3146 6.9539 99.5919 7.29405C100.125 8.03813 100.531 8.1019 101.128 7.5279C101.853 6.86887 104.392 5.52953 108.829 3.46738C109.533 3.1485 111.197 2.34064 112.541 1.68161C114.995 0.469829 116.253 0.214718 117.213 0.682422C118.557 1.34146 119.005 1.36272 119.987 0.703681C120.52 0.342274 121.122 0.106296 121.309 0.0659032C121.516 0.0212593 121.657 0 121.922 0M124.723 227.327C126.195 227.221 129.16 226.987 131.336 226.817C133.512 226.626 136.008 226.541 136.883 226.605C138.035 226.711 138.867 226.647 139.827 226.392C140.573 226.201 142.024 226.052 143.027 226.031C145.565 226.009 151.987 225.414 154.056 225.01C154.653 224.904 156.467 224.649 158.109 224.457C159.752 224.266 162.099 223.968 163.336 223.82C164.573 223.65 165.96 223.458 166.429 223.394C168.669 223.118 173.704 222.076 174.216 221.8C174.429 221.694 174.877 221.587 175.197 221.587C175.752 221.587 177.16 221.226 179.123 220.588C184.093 218.951 185.907 217.314 187.229 213.19C187.485 212.382 187.784 211.425 187.912 211.064C188.915 207.96 189.064 207.004 189.043 203.751L189.043 200.477L187.848 199.818C185.885 198.734 184.989 197.586 183.197 193.844C182.472 192.335 181.725 190.804 181.555 190.485C181.405 190.145 181.256 189.784 181.256 189.656C181.256 189.55 181.128 189.146 180.957 188.784C180.275 187.19 179.357 184.83 178.995 183.64C178.781 182.938 178.483 182.173 178.333 181.939C178.184 181.705 178.056 181.28 178.056 180.982C178.056 180.685 177.907 180.259 177.736 180.047C177.565 179.813 177.416 179.452 177.416 179.239C177.416 179.048 177.288 178.559 177.117 178.176C176.84 177.517 175.923 174.562 175.155 171.841C174.984 171.203 174.728 170.395 174.6 170.034C174.493 169.694 174.301 168.949 174.216 168.397C174.109 167.844 173.939 167.206 173.811 166.972C173.683 166.738 173.576 166.25 173.576 165.888C173.576 165.527 173.469 165.016 173.32 164.761C173.192 164.506 172.957 163.677 172.787 162.912C172.637 162.146 172.36 160.871 172.168 160.042C171.997 159.234 171.805 158.277 171.741 157.916C171.677 157.576 171.507 156.662 171.336 155.896C170.419 151.644 169.352 142.631 169.16 137.656C169.053 134.446 169.117 134.531 165.704 134.339C163.549 134.233 160.136 133.617 158.963 133.149C158.728 133.043 158.301 132.915 158.003 132.851C157.085 132.66 153.672 131.873 152.883 131.661C152.477 131.554 151.133 131.236 149.896 130.917C147.635 130.364 145.693 129.769 145.309 129.514C145.203 129.428 144.755 129.301 144.349 129.237C143.944 129.152 143.219 128.94 142.749 128.748C142.28 128.578 141.512 128.281 141.043 128.11C140.573 127.919 139.912 127.664 139.549 127.515C139.208 127.366 138.675 127.132 138.376 127.026C138.077 126.899 137.501 126.665 137.096 126.473C136.691 126.303 135.731 125.899 134.963 125.602C131.528 124.177 124.616 120.776 122.952 119.671C122.355 119.267 122.333 119.267 121.245 119.692C120.627 119.947 118.259 120.733 115.976 121.456C112.093 122.689 111.133 123.008 108.104 124.029C107.464 124.262 106.44 124.666 105.821 124.964C105.181 125.262 104.115 125.751 103.453 126.048C101.491 126.899 99.5066 127.877 98.6959 128.387C95.3253 130.449 90.7813 132.298 89.1386 132.298C88.1999 132.298 87.3893 132.787 87.3893 133.361C87.3893 133.574 87.6026 134.02 87.8799 134.361C89.4799 136.359 90.1199 139.675 89.4159 142.397C89.0533 143.864 88.9679 144.097 87.8159 146.627C87.1759 148.009 87.1333 148.243 87.2399 149.922C87.3679 152.282 87.7306 154.536 88.6693 158.766C88.7973 159.362 88.9679 160.127 89.0319 160.467C89.1599 161.232 90.4826 164.676 90.8879 165.314C91.1013 165.654 91.1866 166.568 91.1653 168.652C91.1653 170.225 91.2506 172.011 91.3999 172.585C91.5279 173.18 91.7839 174.604 91.9759 175.774C92.3813 178.176 92.6586 179.643 92.9359 180.876C93.6399 183.725 93.8106 184.469 94.2799 186.297C94.5786 187.402 94.8773 188.742 94.9626 189.273C95.0479 189.784 95.1973 190.358 95.2826 190.549C95.4959 190.974 95.9013 192.547 96.1359 193.738C96.2213 194.269 96.3919 194.992 96.5199 195.332C96.6479 195.694 96.8613 196.544 96.9893 197.246C97.4799 199.967 97.6079 200.519 97.8213 200.945C97.9493 201.178 98.0559 201.625 98.0559 201.944C98.0559 202.241 98.2053 202.943 98.3759 203.496C98.5466 204.027 98.8453 205.048 99.0373 205.749C99.2293 206.451 99.5066 207.259 99.6559 207.556C99.8053 207.854 99.9973 208.47 100.061 208.938C100.253 210.001 101.341 213.424 102.024 215.103C102.301 215.805 102.536 216.506 102.536 216.655C102.536 216.825 102.664 217.208 102.835 217.506C103.005 217.824 103.581 218.994 104.115 220.099C105.245 222.395 106.803 224.372 108.275 225.308C109.875 226.371 113.203 227.476 114.013 227.242C114.227 227.179 114.717 227.221 115.123 227.306C116.083 227.54 121.288 227.561 124.723 227.327ZM94.8559 208.853C95.3893 208.747 96.2639 208.492 96.8399 208.3C97.8639 207.918 98.0559 207.556 97.6506 206.748C97.3519 206.153 96.9679 204.963 96.7973 204.155C96.7119 203.751 96.5199 203.198 96.3919 202.943C96.2426 202.688 96.1359 202.241 96.1359 201.965C96.1359 201.667 96.0079 200.966 95.8373 200.413C95.5386 199.35 95.1546 197.586 94.8559 195.864C94.6853 194.864 93.7893 191.229 93.2559 189.38C93.0853 188.806 92.8933 187.934 92.8293 187.466C92.7653 186.999 92.6159 186.34 92.5093 185.978C91.8053 183.512 91.6559 182.896 91.6559 182.343C91.6559 182.024 91.5279 181.365 91.3573 180.876C91.1866 180.408 90.8453 178.984 90.5893 177.687C90.3333 176.411 90.0346 175.008 89.9279 174.604C89.8213 174.2 89.6719 172.181 89.6079 170.14C89.5226 167.525 89.3946 166.165 89.1599 165.569C87.4106 161.062 87.3679 160.913 86.3013 155.577C86.1946 155.003 86.0453 153.834 85.9599 152.984C85.8319 151.326 85.6186 151.113 84.9146 151.878C84.3813 152.474 82.9946 153.154 80.6693 153.962C79.2186 154.472 78.4079 154.621 77.2133 154.621C76.1039 154.621 75.6133 154.706 75.5279 154.897C75.3999 155.237 75.7839 162.104 76.0826 164.506C76.5946 168.843 76.9786 171.649 77.2773 173.116C77.4693 173.988 77.7466 175.434 77.9386 176.305C78.1093 177.177 78.3866 178.389 78.5359 178.963C78.7066 179.558 78.8986 180.366 78.9626 180.77C79.0479 181.174 79.1759 181.748 79.2613 182.045C79.5173 182.853 80.0719 184.766 80.4559 186.297C80.9039 187.955 82.6319 193.376 83.0159 194.269C83.5066 195.438 83.9546 196.587 84.6159 198.521C84.9786 199.584 85.4053 200.711 85.5759 201.03C85.7466 201.37 85.8959 201.752 85.8959 201.901C85.8959 202.05 86.0026 202.263 86.1306 202.39C86.2586 202.518 86.5786 203.241 86.8346 203.963C87.7306 206.472 89.6079 208.832 90.7173 208.832C90.9519 208.832 91.2719 208.938 91.4426 209.066C91.7839 209.278 93.2346 209.193 94.8559 208.853ZM195.016 198.67C196.125 198.436 197.875 197.777 200.243 196.65C201.757 195.927 203.656 194.29 203.656 193.695C203.656 193.504 203.741 193.291 203.848 193.206C204.147 193.036 204.701 191.867 204.829 191.102C204.893 190.74 204.851 189.677 204.723 188.742C204.595 187.806 204.403 186.382 204.317 185.553C204.211 184.745 204.019 183.788 203.891 183.47C203.763 183.129 203.656 182.555 203.656 182.194C203.656 181.811 203.507 180.897 203.336 180.132C203.165 179.366 202.888 177.985 202.696 177.049C202.525 176.114 202.184 174.498 201.971 173.435C201.736 172.393 201.48 171.139 201.416 170.671C201.331 170.204 201.139 169.098 200.968 168.227C200.797 167.355 200.52 165.867 200.349 164.931C200.179 163.996 199.88 162.508 199.709 161.636C199.517 160.765 199.283 159.553 199.197 158.958C199.091 158.341 198.941 157.618 198.835 157.363C198.685 156.895 198.237 154.706 197.981 153.239C197.917 152.899 197.747 151.985 197.576 151.219C197.405 150.454 197.171 149.263 197.043 148.562C196.915 147.86 196.723 146.861 196.637 146.33C196.531 145.798 196.36 144.948 196.232 144.416C195.656 142.142 195.293 140.441 195.229 139.846C195.187 139.505 194.952 138.294 194.696 137.188C194.44 136.083 194.163 134.616 194.056 133.957C193.949 133.276 193.8 132.617 193.715 132.49C193.629 132.362 193.437 131.554 193.267 130.725C193.096 129.896 192.819 128.599 192.648 127.834C192.477 127.069 192.243 125.984 192.157 125.389C191.859 123.688 191.283 120.967 191.155 120.776C191.091 120.691 190.899 120.606 190.707 120.606C190.429 120.606 190.387 120.776 190.515 121.605C190.621 122.434 190.557 122.732 190.067 123.561C188.616 126.07 185.843 128.769 183.261 130.173C182.792 130.428 182.045 130.853 181.576 131.129C181.107 131.406 180.531 131.639 180.296 131.661C180.04 131.661 179.763 131.746 179.635 131.873C179.187 132.32 173.427 134.063 171.976 134.191C170.824 134.297 170.504 134.382 170.525 134.637C170.568 134.807 170.675 135.487 170.803 136.125C170.909 136.763 171.101 138.634 171.229 140.271C171.571 145.16 171.848 148.115 171.976 148.562C172.061 148.796 172.189 149.561 172.275 150.263C172.723 153.409 173.171 156.045 173.363 156.492C173.491 156.768 173.576 157.236 173.576 157.555C173.576 158.171 174.067 160.68 174.557 162.38C174.707 162.976 175.005 164.209 175.197 165.144C175.389 166.079 175.837 167.674 176.157 168.694C176.499 169.715 176.776 170.714 176.776 170.905C176.776 171.118 177.053 172.16 177.395 173.223C177.736 174.264 178.333 176.135 178.717 177.368C179.101 178.601 179.528 179.898 179.677 180.238C179.805 180.6 180.296 181.833 180.744 183.002C181.192 184.171 181.619 185.213 181.725 185.34C181.811 185.447 181.896 185.744 181.896 185.999C181.896 186.276 181.981 186.531 182.088 186.595C182.195 186.658 182.344 186.977 182.408 187.296C182.664 188.317 184.477 192.717 185.267 194.163C186.611 196.672 187.72 197.926 189.043 198.479C190.323 199.031 192.861 199.116 195.016 198.67ZM209.309 195.885C211.848 195.694 213.149 195.353 212.616 195.013C212.445 194.886 211.784 194.801 211.165 194.801C209.416 194.801 207.283 193.695 206.856 192.547C206.749 192.271 206.579 192.037 206.472 192.037C206.365 192.037 206.024 192.611 205.704 193.313C205.384 194.014 204.829 194.843 204.488 195.162C203.613 195.991 203.976 196.289 205.64 196.161C206.365 196.098 208.029 195.97 209.309 195.885ZM213.128 193.823C213.491 193.461 213.469 192.335 213 189.167C212.893 188.359 212.744 187.339 212.701 186.935C212.488 185.128 211.933 181.429 211.741 180.451C211.635 179.877 211.443 178.58 211.336 177.581C211.229 176.582 211.037 175.306 210.909 174.711C210.803 174.137 210.461 171.841 210.163 169.609C209.864 167.398 209.48 164.57 209.288 163.337C209.117 162.104 208.84 160.063 208.669 158.766C208.157 154.897 207.731 151.878 207.389 149.518C206.835 145.798 206.259 141.504 205.789 137.72C205.661 136.678 205.469 135.381 205.363 134.85C205.256 134.318 205.064 132.851 204.936 131.576C204.808 130.3 204.637 129.152 204.573 129.046C204.445 128.833 204.253 127.579 203.869 124.433C203.528 121.69 203.08 120.032 202.461 119.203C201.779 118.31 201.117 118.119 200.371 118.586C199.645 119.054 197.341 118.926 195.805 118.31C194.952 117.97 194.525 117.906 194.141 118.076C193.843 118.182 193.224 118.267 192.755 118.267C191.773 118.267 191.709 118.544 192.328 120.117C192.541 120.67 192.925 122.094 193.203 123.263C193.459 124.433 193.736 125.581 193.843 125.814C193.949 126.048 194.077 126.707 194.141 127.303C194.227 127.877 194.355 128.642 194.461 129.003C194.845 130.236 195.123 131.406 195.464 133.17C195.635 134.148 195.933 135.636 196.104 136.444C196.275 137.273 196.509 138.442 196.637 139.08C196.744 139.697 196.936 140.398 197.043 140.611C197.171 140.823 197.256 141.249 197.256 141.546C197.256 142.057 197.768 144.459 198.301 146.542C198.408 146.946 198.621 147.903 198.749 148.668C199.048 150.263 199.475 152.452 199.923 154.791C200.115 155.684 200.349 156.917 200.456 157.491C200.563 158.086 200.755 159.043 200.883 159.617C201.011 160.212 201.267 161.381 201.437 162.232C201.949 164.783 202.397 166.994 202.632 168.014C202.76 168.546 202.931 169.545 203.016 170.246C203.101 170.948 203.379 172.393 203.635 173.435C204.061 175.157 204.403 176.922 204.915 180.047C205.021 180.642 205.213 181.641 205.32 182.279C205.448 182.917 205.704 184.235 205.875 185.234C206.963 191.399 206.813 190.868 208.008 192.143C208.605 192.781 209.181 193.313 209.288 193.313C209.373 193.313 209.757 193.461 210.12 193.631C210.504 193.802 211.144 193.972 211.549 194.014C211.955 194.057 212.403 194.12 212.552 194.12C212.68 194.142 212.957 194.014 213.128 193.823ZM79.4319 152.686C81.7786 151.942 83.7839 151.028 84.6799 150.284C85.1493 149.901 85.3199 149.54 85.4693 148.519C85.5759 147.733 86.0239 146.436 86.5999 145.224C87.4746 143.375 88.1999 140.611 87.9226 140.186C87.8799 140.079 87.5599 139.952 87.2399 139.888C86.2373 139.697 84.7439 139.293 84.2959 139.08C84.0613 138.974 83.4426 138.804 82.9093 138.698C82.3759 138.57 80.8399 138.187 79.4959 137.826C78.1519 137.443 75.9973 136.869 74.6959 136.55C73.4159 136.21 71.9226 135.828 71.3893 135.679C70.8559 135.551 70.3439 135.339 70.2373 135.254C70.1093 135.147 69.8746 135.062 69.6826 135.062C69.4906 135.062 68.6586 134.871 67.8479 134.637C67.0373 134.382 65.8426 134.042 65.2026 133.85C64.5626 133.659 63.7946 133.447 63.4959 133.34C63.1973 133.255 61.8106 132.83 60.4026 132.405C58.9946 131.98 57.6079 131.554 57.3093 131.448C57.0106 131.342 56.2426 131.129 55.6026 130.938C54.4079 130.598 52.4879 130.024 50.5893 129.428C50.0133 129.237 48.9893 128.918 48.3493 128.727C47.7093 128.536 47.0693 128.302 46.9413 128.217C46.8133 128.132 46.2799 127.962 45.7679 127.855C45.2559 127.749 44.0186 127.366 43.0159 126.984C42.0133 126.601 40.8186 126.176 40.3493 126.048C39.8799 125.899 39.3466 125.729 39.1759 125.644C39.0053 125.581 38.2373 125.304 37.4693 125.07C36.7013 124.815 35.8906 124.539 35.6559 124.433C35.4213 124.348 34.6106 124.05 33.8426 123.774C33.0746 123.497 32.2213 123.157 31.9226 123.008C31.6239 122.859 31.2399 122.732 31.0479 122.732C30.7279 122.732 29.9813 122.477 28.6159 121.903C27.7839 121.541 26.2693 121.052 25.3093 120.818C24.7759 120.691 23.7733 120.436 23.0693 120.244C21.5759 119.841 17.0959 119.628 16.4773 119.926C16.2213 120.053 15.3679 120.351 14.5359 120.606C13.7253 120.84 12.8506 121.137 12.6159 121.222C10.2479 122.179 8.73325 122.732 8.49858 122.732C8.34925 122.732 7.81592 122.902 7.32525 123.115C6.83458 123.327 6.02392 123.688 5.53325 123.901C4.16792 124.475 3.91192 124.858 4.03992 126.176C4.14658 127.43 4.65858 128.94 5.02125 129.067C5.14925 129.11 5.25592 129.258 5.25592 129.407C5.25592 129.832 7.49592 131.852 8.32792 132.192C8.73325 132.362 9.11725 132.596 9.20258 132.724C9.26658 132.83 9.52258 132.936 9.75725 132.936C9.97058 132.936 10.3333 133.021 10.5466 133.149C11.1226 133.468 12.3599 133.957 12.9359 134.106C13.4479 134.233 15.9866 135.232 17.3093 135.806C17.6719 135.955 18.6746 136.402 19.5493 136.784C20.4239 137.167 21.2986 137.613 21.4906 137.762C21.6613 137.911 21.9173 138.038 22.0453 138.038C22.1733 138.038 22.5573 138.187 22.8773 138.357C23.2186 138.527 23.6453 138.676 23.8373 138.676C24.0293 138.676 24.3066 138.825 24.4559 138.995C24.6053 139.165 24.8613 139.314 25.0106 139.314C25.1813 139.314 25.4799 139.399 25.6933 139.505C26.3973 139.888 28.9999 141.015 30.3226 141.504C30.7919 141.674 31.9439 142.12 32.8826 142.503C34.6959 143.226 35.1013 143.375 37.7893 144.352C40.4986 145.352 40.9039 145.479 42.3759 145.926C43.1439 146.16 44.1893 146.478 44.7226 146.648C45.2559 146.819 45.8746 146.967 46.1093 146.967C46.3653 146.967 46.6426 147.052 46.7493 147.159C46.8773 147.265 47.7306 147.541 48.6693 147.818C52.7226 148.902 54.0453 149.263 55.2826 149.518C55.7519 149.604 56.4346 149.795 56.7759 149.901C58.0773 150.348 59.8053 150.794 60.2746 150.794C60.5306 150.794 60.9146 150.879 61.1279 151.007C61.3413 151.113 62.1733 151.304 62.9839 151.411C63.7946 151.538 65.2666 151.793 66.2693 151.963C67.2719 152.155 69.0426 152.431 70.2373 152.601C71.4106 152.771 72.6053 153.005 72.9039 153.111C73.1813 153.218 74.2906 153.324 75.3786 153.324C77.0213 153.345 77.6826 153.239 79.4319 152.686ZM87.8586 138.145C87.8159 137.677 87.6666 137.146 87.4959 136.976C87.3466 136.805 87.1759 136.465 87.0906 136.21C86.8559 135.424 85.7893 134.637 83.9119 133.872C82.8879 133.468 81.4586 133.021 80.7333 132.915C80.0293 132.809 79.2826 132.617 79.0906 132.532C78.8986 132.426 78.1733 132.299 77.4693 132.235C76.0186 132.086 75.6986 132.022 73.6293 131.554C72.8186 131.363 71.7946 131.15 71.3893 131.087C70.9839 131.023 70.5573 130.895 70.4293 130.81C70.3226 130.725 69.7466 130.555 69.1493 130.428C68.5733 130.3 67.5066 129.981 66.8026 129.747C66.0986 129.492 65.1813 129.216 64.7759 129.11C64.3706 129.025 63.0266 128.599 61.7893 128.174C60.5519 127.728 59.2719 127.303 58.9093 127.218C58.5679 127.132 57.6293 126.792 56.8613 126.473C56.0933 126.176 55.3253 125.921 55.1546 125.921C54.9839 125.921 54.7279 125.814 54.5999 125.687C54.4719 125.559 53.9813 125.368 53.5333 125.262C52.4453 125.028 49.5013 124.305 48.5626 124.05C48.1573 123.944 47.0479 123.625 46.1093 123.37C45.1706 123.115 44.1253 122.817 43.7626 122.732C43.0586 122.541 41.8853 122.137 41.2026 121.86C40.9679 121.754 40.0506 121.435 39.1759 121.159C38.3013 120.861 37.0426 120.415 36.4026 120.181C35.7626 119.926 34.5679 119.479 33.7359 119.182C32.9253 118.905 32.1573 118.565 32.0506 118.459C31.9226 118.352 31.6453 118.267 31.3893 118.267C31.1333 118.267 30.8346 118.161 30.7066 118.034C30.5786 117.906 30.0879 117.715 29.6399 117.63C29.1919 117.523 28.0613 117.247 27.1226 116.992C24.0079 116.141 22.8773 115.908 21.0426 115.674C18.9946 115.44 15.9866 115.546 15.3679 115.886C13.6826 116.822 9.86392 118.501 8.98925 118.714C7.26125 119.118 6.34392 119.564 5.61858 120.393C4.82925 121.244 3.84792 123.093 4.06125 123.306C4.14658 123.391 4.80792 123.157 5.53325 122.774C6.25858 122.413 7.38925 121.903 8.02925 121.669C8.66925 121.414 9.50125 121.095 9.84258 120.946C12.6159 119.713 17.5653 118.267 18.9306 118.267C20.6586 118.267 26.2906 119.522 28.4026 120.393C28.8506 120.563 30.9626 121.286 32.5626 121.818C33.0959 121.988 33.6933 122.222 33.8853 122.307C34.3546 122.562 37.0639 123.54 38.3226 123.901C38.8559 124.071 40.0933 124.496 41.0959 124.879C42.0986 125.24 43.2933 125.666 43.7626 125.793C44.2319 125.921 44.7226 126.091 44.8293 126.176C44.9573 126.24 45.4266 126.388 45.8959 126.473C46.3653 126.559 47.4319 126.899 48.2426 127.218C49.0746 127.558 49.9279 127.834 50.1839 127.834C50.4186 127.834 50.6959 127.919 50.8239 128.025C50.9306 128.11 51.3999 128.302 51.8693 128.429C52.3386 128.536 53.0213 128.748 53.3626 128.876C53.7253 128.982 54.5786 129.237 55.2826 129.428C55.9866 129.62 56.9466 129.917 57.4159 130.066C57.8853 130.215 58.8453 130.513 59.5493 130.704C60.2533 130.917 61.2133 131.214 61.6826 131.342C62.1519 131.491 63.1119 131.788 63.8159 131.98C64.5199 132.192 65.3306 132.426 65.6293 132.532C65.9279 132.617 66.8879 132.894 67.7626 133.149C68.6373 133.383 69.7893 133.723 70.3226 133.872C71.2186 134.148 72.0293 134.382 75.0159 135.19C75.6559 135.36 76.6799 135.636 77.2559 135.806C77.8533 135.976 78.8986 136.253 79.6026 136.444C80.3066 136.635 81.1813 136.869 81.5226 136.954C81.8853 137.061 82.8879 137.358 83.7626 137.613C84.6373 137.868 85.7893 138.294 86.3226 138.57C87.6453 139.272 87.9439 139.186 87.8586 138.145ZM85.8319 132.851C85.7466 132.66 85.5973 132.511 85.4693 132.511C85.2346 132.511 85.1706 133.213 85.4053 133.425C85.6399 133.659 85.9599 133.213 85.8319 132.851ZM171.443 132.617C171.741 132.447 172.381 132.32 172.872 132.298C173.363 132.298 174.024 132.15 174.365 131.98C174.685 131.81 175.539 131.512 176.243 131.321C176.947 131.129 177.821 130.853 178.163 130.704C178.525 130.555 179.229 130.258 179.763 130.045C180.296 129.832 180.872 129.535 181.064 129.386C181.235 129.237 181.533 129.11 181.683 129.11C182.131 129.11 184.861 127.239 186.013 126.155C187.144 125.092 188.659 123.2 189.128 122.264C189.405 121.733 189.384 121.626 189.043 121.244C188.829 121.01 188.488 120.818 188.296 120.818C187.933 120.818 187.016 120.478 185.629 119.862C185.288 119.713 184.456 119.415 183.816 119.224C182.643 118.863 179.741 117.863 178.227 117.289C177.779 117.119 177.053 116.864 176.627 116.694C175.837 116.418 174.365 115.823 170.867 114.419C169.949 114.058 168.733 113.527 168.179 113.25C167.603 112.974 167.048 112.74 166.941 112.74C166.813 112.74 166.28 112.549 165.725 112.294C165.171 112.06 164.531 111.783 164.296 111.677C164.061 111.592 163.251 111.209 162.483 110.869C161.715 110.508 159.901 109.721 158.429 109.126C156.957 108.509 155.485 107.893 155.123 107.744C154.781 107.574 154.333 107.404 154.163 107.34C153.992 107.276 153.693 107.128 153.523 107.021C153.352 106.915 152.733 106.596 152.136 106.341C151.56 106.086 150.024 105.384 148.723 104.768C147.443 104.151 145.757 103.386 144.989 103.046C144.243 102.706 138.717 99.9844 132.723 97.0081C121.523 91.4382 120.264 90.8429 119.688 90.8429C119.517 90.8429 119.112 90.7154 118.792 90.5666C117.683 90.0138 115.187 89.6737 114.099 89.9501C113.544 90.0776 112.627 90.2477 112.029 90.3327C111.453 90.3965 110.685 90.5453 110.323 90.6303C107.997 91.3106 106.376 91.7571 105.736 91.9059C105.331 92.0122 104.328 92.2886 103.517 92.5437C102.707 92.7775 101.725 92.9689 101.341 92.9689C100.957 92.9689 100.573 93.0752 100.509 93.1815C100.445 93.309 100.061 93.3941 99.6986 93.3941C99.3146 93.3941 98.7386 93.5429 98.3973 93.7129C98.0773 93.883 97.6293 94.0318 97.4373 94.0318C97.2239 94.0318 96.8399 94.2657 96.5839 94.5421C96.1359 95.0098 96.0933 95.2224 96.1786 96.8381C96.2426 98.2837 96.3919 98.8577 96.9466 99.9844C97.7999 101.728 98.0133 101.983 100.083 103.62C101.512 104.768 102.963 105.682 107.827 108.594C108.019 108.722 109 109.339 110.003 109.998C111.005 110.635 111.965 111.231 112.136 111.316C112.307 111.401 112.712 111.634 113.011 111.847C113.48 112.145 116.659 114.122 118.003 114.93C118.216 115.078 118.792 115.419 119.283 115.716C119.752 115.993 120.328 116.354 120.563 116.503C120.797 116.652 121.181 116.864 121.416 116.992C121.651 117.098 122.333 117.481 122.909 117.842C123.507 118.182 124.509 118.714 125.149 119.011C125.789 119.33 126.472 119.649 126.643 119.756C127.624 120.33 132.531 122.732 132.701 122.732C132.808 122.732 133.064 122.859 133.235 123.008C133.427 123.157 134.003 123.455 134.536 123.667C135.069 123.88 135.795 124.177 136.136 124.326C136.499 124.496 137.544 124.922 138.483 125.283C139.421 125.644 140.467 126.091 140.787 126.261C141.128 126.431 141.555 126.559 141.747 126.559C141.939 126.559 142.301 126.707 142.515 126.877C142.749 127.047 143.091 127.196 143.304 127.196C143.496 127.196 143.944 127.345 144.264 127.515C144.605 127.685 145.117 127.834 145.416 127.834C145.736 127.834 146.056 127.919 146.163 128.004C146.419 128.238 148.808 128.961 150.856 129.428C151.688 129.62 152.691 129.875 153.096 130.003C153.501 130.151 154.269 130.321 154.803 130.385C155.912 130.555 157.619 130.959 158.536 131.278C162.269 132.532 170.141 133.361 171.443 132.617ZM89.6293 130.683C91.2079 130.151 93.1919 129.428 94.2159 129.025C94.3866 128.94 94.9626 128.642 95.4959 128.323C96.0293 128.025 96.7546 127.621 97.0959 127.43C97.4586 127.239 98.1199 126.835 98.5893 126.559C99.3999 126.048 100.104 125.708 101.747 124.985C102.109 124.837 103.048 124.411 103.816 124.05C104.584 123.71 105.629 123.263 106.163 123.051C106.696 122.859 107.421 122.583 107.763 122.434C108.637 122.073 109.704 121.69 110.92 121.35C113.096 120.712 114.013 120.415 115.784 119.798C116.787 119.437 118.195 119.033 118.92 118.905C120.883 118.522 120.733 118.097 118.28 116.864C117.192 116.333 116.147 115.759 115.976 115.631C115.699 115.397 115.037 114.972 112.243 113.314C112.008 113.165 111.517 112.846 111.133 112.591C110.771 112.315 110.387 112.102 110.301 112.102C110.216 112.102 109.469 111.656 108.637 111.103C107.805 110.55 106.781 109.912 106.376 109.679C105.971 109.466 104.947 108.85 104.093 108.297C103.261 107.765 101.832 106.851 100.957 106.298C97.6933 104.236 95.3679 101.558 94.6639 99.0278C94.0453 96.8381 94.5146 92.0122 95.4533 90.6729C95.7093 90.3327 95.9226 89.9501 95.9226 89.8225C95.9226 89.3123 97.4799 87.6541 98.3759 87.2289C99.5279 86.6761 99.5919 86.2509 98.7386 85.1242C97.7573 83.8486 97.0106 82.2755 96.1573 79.6393C95.0479 76.1953 94.9626 75.7489 94.1946 67.2452C93.9173 64.1413 93.8533 62.3981 93.7039 53.7455L93.5759 46.73L92.5519 46.7725C91.5493 46.815 90.6533 47.0276 86.9626 48.1331C85.8533 48.4732 84.4026 48.8984 83.7626 49.0898C83.1226 49.2811 82.3119 49.5149 81.9493 49.6425C81.6079 49.7488 81.0319 49.9189 80.6693 50.0252C80.3279 50.1315 79.4959 50.4078 78.8559 50.6629C78.2159 50.9181 77.3199 51.1944 76.8719 51.3007C76.4239 51.3858 75.9333 51.5771 75.8053 51.7046C75.6773 51.8322 75.3786 51.9385 75.1226 51.9385C74.8666 51.9385 74.4826 52.0873 74.2479 52.2574C74.0346 52.4275 73.6933 52.5763 73.4799 52.5763C73.2879 52.5763 72.4986 52.8526 71.7093 53.2141C70.9199 53.5755 70.1733 53.8518 70.0453 53.8518C69.7466 53.8518 65.1386 55.6376 64.2853 56.0841C63.9439 56.2541 63.5813 56.4029 63.4533 56.4029C63.2399 56.4029 58.0133 58.5289 56.3493 59.2942C54.6213 60.0595 52.7866 60.8674 52.7013 60.8674C52.6373 60.8674 51.8479 61.2075 48.8826 62.5681C48.4133 62.7807 47.1119 63.3547 46.0026 63.8649C44.8933 64.3539 43.8266 64.9066 43.6346 65.0555C43.4639 65.2043 43.1866 65.3318 43.0373 65.3318C42.8879 65.3318 41.5866 65.9058 40.1786 66.5861C38.7493 67.2664 37.4266 67.9042 37.2559 67.968C36.3386 68.3506 25.5866 74.0269 23.9866 74.9623C21.7679 76.3016 20.6159 77.4709 20.6159 78.4275C20.6159 78.8102 20.5306 79.1716 20.4239 79.2354C20.2533 79.3417 20.1893 80.0007 19.8053 84.6778C19.4213 89.3548 19.7626 100.856 20.2959 101.919C20.4666 102.238 20.6159 102.663 20.6159 102.833C20.6159 103.024 20.7439 103.471 20.9146 103.854C21.0853 104.236 21.3839 104.98 21.5973 105.512C22.4506 107.638 25.0533 111.252 27.3999 113.548C28.8933 115.015 29.6399 115.482 32.4986 116.715C33.2666 117.034 34.0133 117.353 35.7626 118.119C36.4026 118.395 37.5546 118.841 38.3226 119.096C39.0906 119.352 40.0079 119.671 40.3493 119.777C40.7119 119.904 41.2879 120.074 41.6293 120.181C41.9919 120.266 42.9946 120.585 43.8693 120.882C44.7439 121.18 46.0453 121.584 46.7493 121.775C47.4533 121.966 48.2426 122.222 48.5199 122.328C48.7973 122.434 49.7146 122.668 50.5893 122.838C52.4026 123.221 53.4053 123.051 55.4319 122.052C56.0933 121.733 56.7119 121.456 56.7759 121.456C57.1599 121.456 64.6479 117.608 65.7786 116.843C66.0986 116.609 66.5253 116.354 66.6959 116.29C66.8666 116.205 67.3146 115.95 67.6559 115.738C68.0186 115.504 68.6373 115.142 69.0426 114.93C69.4479 114.696 70.7066 113.994 71.8373 113.335C72.9679 112.676 74.6106 111.826 75.4639 111.464C76.3386 111.082 77.4053 110.593 77.8533 110.38C78.3013 110.189 78.9626 109.934 79.3466 109.87C79.7306 109.785 80.1359 109.636 80.2426 109.551C80.5839 109.296 83.0799 108.488 83.5066 108.488C83.7199 108.488 83.9759 108.403 84.1039 108.297C84.2106 108.169 84.8293 107.999 85.4693 107.872C86.9199 107.617 88.4133 107.234 89.0319 106.936C89.2666 106.83 89.6079 106.809 89.7359 106.894C90.1199 107.128 88.9039 108.042 88.1999 108.063C87.8799 108.063 87.4959 108.19 87.3466 108.361C87.1759 108.509 86.6213 108.722 86.0879 108.807C85.5759 108.892 85.0639 109.041 84.9359 109.105C84.8293 109.19 84.0613 109.487 83.2293 109.742C82.4186 109.998 81.5439 110.295 81.3093 110.423C81.0746 110.529 80.2639 110.848 79.4959 111.124C78.7279 111.401 77.7253 111.826 77.2559 112.081C76.7866 112.315 75.9333 112.697 75.3359 112.953C74.7599 113.186 74.1199 113.484 73.9493 113.59C73.7786 113.718 73.4373 113.888 73.2026 113.994C72.9679 114.101 72.4133 114.441 71.9653 114.738C71.5173 115.036 71.1119 115.291 71.0693 115.291C71.0266 115.291 70.1093 115.823 69.0426 116.46C67.9759 117.098 67.0159 117.63 66.9093 117.63C66.8026 117.63 66.5892 117.757 66.4399 117.906C65.9492 118.352 63.9013 119.543 63.6026 119.543C63.4533 119.543 63.1546 119.692 62.9839 119.883C62.7919 120.053 61.8106 120.627 60.7866 121.116C58.2053 122.392 57.6079 122.647 56.1786 123.115C54.8773 123.54 54.6639 123.752 55.1759 124.029C55.7093 124.326 58.2906 125.283 58.5466 125.283C58.6746 125.283 59.1013 125.41 59.4853 125.581C59.8693 125.729 60.7226 126.027 61.3626 126.24C62.0026 126.431 62.8346 126.729 63.2186 126.899C63.5813 127.069 64.0719 127.196 64.3279 127.196C64.5626 127.196 65.0746 127.324 65.4586 127.494C67.5493 128.366 75.7626 130.385 77.2133 130.385C77.6399 130.385 78.2373 130.491 78.5786 130.619C78.8986 130.747 79.8373 130.895 80.6693 130.959C81.4799 131.023 82.2053 131.108 82.2693 131.172C82.5253 131.448 88.6053 131.044 89.6293 130.683ZM189.405 119.118C189.363 118.586 189.149 117.821 188.893 117.417C188.467 116.673 187.123 115.419 186.291 114.93C185.416 114.462 182.728 113.165 182.579 113.165C182.493 113.165 182.045 112.953 181.576 112.719C181.107 112.464 179.955 111.932 179.016 111.528C178.077 111.124 176.925 110.614 176.456 110.401C175.987 110.189 175.453 109.955 175.283 109.891C175.112 109.827 174.813 109.679 174.643 109.572C174.472 109.466 173.789 109.168 173.149 108.913C172.509 108.658 171.293 108.127 170.44 107.723C169.587 107.34 168.307 106.766 167.56 106.447C166.813 106.15 165.747 105.682 165.149 105.406C161.736 103.854 161.16 103.598 160.989 103.598C160.904 103.598 160.541 103.45 160.2 103.301C159.88 103.131 159.453 102.939 159.283 102.876C159.112 102.812 158.813 102.663 158.643 102.557C158.472 102.451 157.981 102.217 157.576 102.047C157.171 101.876 156.232 101.43 155.485 101.069C154.76 100.707 153.992 100.41 153.8 100.41C153.608 100.41 153.288 100.282 153.117 100.133C152.925 99.9632 151.347 99.2403 149.576 98.4963C146.333 97.1569 144.093 96.1578 143.005 95.605C142.664 95.4349 142.301 95.3074 142.195 95.3074C142.088 95.3074 141.405 95.031 140.659 94.6909C139.933 94.3507 138.568 93.7767 137.629 93.3941C134.835 92.2673 134.707 92.2035 133.256 91.5232C130.504 90.2264 128.989 89.5674 128.712 89.5674C128.563 89.5674 128.349 89.4823 128.221 89.3761C128.115 89.2698 127.069 88.7808 125.917 88.2918C124.765 87.8029 123.656 87.3352 123.464 87.2289C123.016 87.0163 121.395 86.3998 118.963 85.5281C117.448 84.9967 116.04 84.8478 113.779 84.9754C112.456 85.0392 111.219 85.2305 110.899 85.4006C110.579 85.5494 109.896 85.8683 109.363 86.0596C108.829 86.2509 108.083 86.5486 107.699 86.7187C107.315 86.8887 106.781 87.0163 106.483 87.0163C106.205 87.0163 105.715 87.1226 105.373 87.2501C105.053 87.3777 104.008 87.5478 103.069 87.6541C100.253 87.9517 99.4426 88.2281 98.4186 89.2272C97.8639 89.8012 97.3733 90.5666 97.1173 91.2894C96.9039 91.9272 96.6266 92.5224 96.5413 92.6287C96.3279 92.8626 96.2853 93.6066 96.4773 93.6066C96.5626 93.6066 97.0106 93.3941 97.5013 93.1602C97.9706 92.9051 98.6106 92.5862 98.9093 92.4374C99.2079 92.2886 99.8906 92.0972 100.467 92.0122C101.021 91.9272 101.533 91.7784 101.597 91.6721C101.661 91.5658 101.939 91.4807 102.237 91.4807C102.749 91.4807 105.011 90.9067 107.016 90.2902C107.549 90.1414 108.744 89.8012 109.683 89.5461C110.621 89.3123 111.731 89.0359 112.136 88.9296C113.331 88.6107 117.832 88.6745 118.493 89.0146C118.813 89.1635 119.389 89.3548 119.773 89.4186C120.157 89.5036 120.968 89.78 121.587 90.0776C122.184 90.354 123.571 90.9492 124.616 91.3957C125.683 91.8209 126.685 92.2886 126.856 92.4161C127.027 92.5649 127.901 92.9901 128.776 93.3941C129.651 93.798 131.059 94.5421 131.891 95.031C132.723 95.5412 133.491 95.9452 133.576 95.9452C133.661 95.9452 136.243 97.1782 139.315 98.6876C146.141 102.047 152.115 104.874 152.349 104.874C152.413 104.874 153.245 105.257 154.227 105.703C155.187 106.171 157.171 107.042 158.643 107.638C160.115 108.254 161.736 108.956 162.269 109.232C162.803 109.509 164.104 110.061 165.149 110.508C166.216 110.933 167.368 111.401 167.709 111.571C168.221 111.805 171.592 113.165 173.683 113.994C173.917 114.101 174.557 114.377 175.091 114.632C175.624 114.866 176.179 115.078 176.307 115.078C176.435 115.078 176.904 115.227 177.352 115.419C178.973 116.12 178.995 116.141 182.216 117.226C182.92 117.46 183.795 117.8 184.179 117.97C184.541 118.119 184.925 118.267 185.053 118.267C185.309 118.267 188.104 119.692 188.381 119.968C188.509 120.096 188.808 120.159 189.043 120.138C189.405 120.074 189.469 119.947 189.405 119.118ZM7.60258 117.417C8.07192 117.183 8.58392 116.992 8.75458 116.992C8.92525 116.992 9.33058 116.864 9.67192 116.694C12.4453 115.334 15.4533 114.101 16.5199 113.909C17.2879 113.76 17.3946 113.399 16.7759 113.016C16.3706 112.74 14.8559 110.55 14.8559 110.21C14.8559 110.104 14.5999 109.53 14.2799 108.913C13.2346 106.894 12.9359 104.449 12.5093 94.5633C12.2319 87.8029 12.2319 85.4431 12.5093 82.9132C12.6159 81.829 12.8079 79.0015 12.9359 76.5992C13.0426 74.1969 13.2559 71.3907 13.3626 70.3278C13.4693 69.2861 13.6826 67.3727 13.7893 66.0759C13.9173 64.8003 14.1093 63.1634 14.2373 62.4618C14.3439 61.7603 14.5786 60.0808 14.7493 58.7415C15.0479 56.4029 15.4319 54.0432 15.9013 51.9172C16.0079 51.3858 16.3279 50.5354 16.5839 50.0464C16.9253 49.3874 16.9893 49.0898 16.8186 48.9197C16.6266 48.7284 16.4773 48.7709 16.1786 49.026C15.9653 49.2173 15.7306 49.3874 15.6453 49.3874C15.5813 49.3874 15.1759 49.6212 14.7706 49.8976C14.3653 50.174 13.2346 50.7905 12.2533 51.2795C11.2719 51.7684 10.3333 52.2574 10.1626 52.3424C9.99192 52.4275 9.37325 52.7463 8.79725 53.0227C8.24258 53.2991 7.38925 53.8731 6.91992 54.277C6.02392 55.0636 5.76792 55.8077 5.25592 59.1454C5.12792 59.8895 4.97858 60.591 4.91458 60.6973C4.70125 61.0375 3.86925 66.82 3.52792 70.3278C3.39992 71.6246 3.18658 73.1978 3.01592 73.8355C2.73858 74.9623 2.39725 78.4488 2.01325 83.9337C1.92792 85.3368 1.79992 89.5887 1.73592 93.3941C1.58658 102.451 2.11992 109.53 3.12258 111.996C4.38125 114.993 6.10925 117.842 6.68525 117.842C6.72792 117.842 7.13325 117.651 7.60258 117.417ZM194.376 116.205C197.085 116.014 198.216 115.461 199.688 113.548C200.819 112.06 200.925 109.657 200.456 97.5396C200.2 90.6304 199.709 82.7644 199.368 80.0007C199.24 78.8952 199.112 77.3646 199.091 76.5992C199.069 75.8339 198.941 74.8772 198.813 74.4733C198.685 74.0694 198.515 72.6875 198.429 71.412C198.365 70.1364 198.216 68.9246 198.109 68.7121C197.981 68.4995 197.896 67.9255 197.896 67.4152C197.896 65.8633 197.128 64.0988 195.805 62.5681C195.144 61.8028 194.547 61.1438 194.483 61.08C194.397 61.0162 193.8 60.3572 193.096 59.5918C189.469 55.5526 178.973 45.2631 174.003 40.8837C172.765 39.7782 171.72 38.8428 171.656 38.779C171.592 38.694 170.931 38.12 170.163 37.4822C169.395 36.8444 168.541 36.0791 168.243 35.7815C167.56 35.1224 163.677 31.9123 161.309 30.0415C160.349 29.2761 159.133 28.2982 158.6 27.873C158.067 27.4266 157.533 27.0652 157.427 27.0652C157.299 27.0652 157.064 26.9163 156.915 26.725C156.765 26.5337 156.083 26.0235 155.421 25.5558C154.76 25.1093 154.077 24.6203 153.907 24.4715C153.523 24.0889 150.237 21.7929 148.509 20.6874C148.232 20.5173 146.739 19.4969 145.16 18.4552C142.301 16.4993 138.76 14.3096 138.504 14.3096C138.419 14.3096 137.565 13.7994 136.584 13.1616C134.237 11.6522 132.787 10.8231 128.456 8.56961C127.517 8.08064 125.896 7.20901 124.829 6.65627C123.784 6.10353 121.949 5.16813 120.776 4.57287C116.509 2.4682 116.168 2.40442 115.827 3.63746C115.443 4.97679 114.909 8.16568 114.781 9.95146C114.717 10.8869 114.589 12.0774 114.483 12.6089C114.291 13.4805 114.099 16.7757 113.928 21.7503C113.907 22.7495 113.779 25.5132 113.672 27.9155C113.117 39.3318 113.544 56.5092 114.589 65.4381C114.632 65.7995 114.717 66.7137 114.781 67.5003C114.845 68.3081 114.973 69.116 115.08 69.3073C115.208 69.5199 115.357 70.2215 115.443 70.8592C115.677 72.8151 117.512 77.4496 118.771 79.3204C119.112 79.8307 119.389 80.2984 119.389 80.3621C119.389 80.4472 119.923 81.1912 120.563 82.0203C121.203 82.8707 121.736 83.6573 121.736 83.7849C121.736 84.0612 123.144 85.2943 123.741 85.5281C125.299 86.1234 126.259 86.5061 127.453 87.0588C128.179 87.3777 128.861 87.6541 128.968 87.6541C129.053 87.6541 129.672 87.9517 130.333 88.2918C130.995 88.6532 131.635 88.9296 131.741 88.9296C131.976 88.9296 134.515 90.0351 135.432 90.5453C135.731 90.6941 136.136 90.8429 136.307 90.8429C136.605 90.8429 137.608 91.2681 140.189 92.4374C142.301 93.4153 143.731 94.0318 143.816 94.0318C143.88 94.0318 144.563 94.3295 145.352 94.6909C146.163 95.0523 147.101 95.4775 147.443 95.6263C147.805 95.7751 148.723 96.2003 149.512 96.5617C150.301 96.9231 151.069 97.2207 151.197 97.2207C151.325 97.2207 151.688 97.3483 151.987 97.5183C152.307 97.6884 152.989 98.0073 153.523 98.2412C154.056 98.475 155.059 98.9215 155.763 99.2403C156.467 99.5592 157.341 99.9419 157.683 100.091C158.045 100.24 159.005 100.686 159.816 101.047C160.648 101.43 161.608 101.855 161.949 102.004C162.312 102.153 163.699 102.748 165.043 103.301C166.387 103.875 168.008 104.598 168.648 104.917C169.288 105.257 169.907 105.512 169.992 105.512C170.099 105.512 171.123 105.958 172.253 106.49C173.384 107.043 174.621 107.595 174.963 107.744C176.349 108.339 177.139 108.679 178.269 109.19C183.027 111.316 187.891 113.76 188.339 114.228C188.552 114.441 188.872 114.738 189.107 114.908C189.32 115.057 189.704 115.504 189.981 115.908C190.472 116.588 190.536 116.609 191.475 116.482C192.008 116.397 193.331 116.29 194.376 116.205ZM26.8879 115.015C26.7813 114.845 26.0133 114.122 25.1813 113.42C23.8586 112.272 22.5359 110.848 22.5359 110.529C22.5359 110.486 22.1519 109.849 21.6826 109.147C21.2133 108.446 20.7226 107.638 20.6159 107.383C20.4879 107.106 20.3173 106.745 20.2319 106.575C19.7199 105.661 19.3359 104.81 19.3359 104.598C19.3359 104.449 19.2079 104.087 19.0373 103.79C18.8879 103.471 18.5893 102.132 18.3759 100.814C18.0773 98.7089 18.0346 97.1782 18.1199 89.4611C18.2479 79.2354 18.3546 78.4063 19.8266 76.3441C20.0186 76.0465 20.0186 75.8764 19.8053 75.5363C19.2506 74.6434 19.0586 72.9639 18.9733 67.8829C18.8453 62.1004 19.2506 51.981 19.6773 50.3653C19.8053 49.7913 19.8906 49.1961 19.8266 49.0472C19.6986 48.7284 18.5893 48.452 18.2479 48.6433C17.8426 48.8984 17.4586 50.0464 17.2239 51.8322C17.0746 52.7676 16.7973 54.5321 16.5626 55.7652C16.3493 56.9982 16.0506 58.9541 15.9226 60.1233C15.7946 61.2926 15.5813 62.8658 15.4746 63.6311C15.3679 64.3964 15.1759 66.2672 15.0693 67.7766C14.9413 69.3073 14.7493 71.1569 14.6426 71.9222C13.7679 77.7685 13.6399 99.5167 14.4293 104.236C14.9839 107.531 14.9413 107.383 16.4133 110.295C16.9466 111.337 18.0346 113.123 18.4186 113.59C18.4826 113.633 19.1013 113.76 19.8266 113.845C22.6639 114.164 25.8213 114.972 26.4826 115.546C26.7599 115.801 27.1013 115.397 26.8879 115.015ZM104.029 85.6132C104.904 85.4644 106.056 85.2518 106.589 85.1455C107.528 84.9754 110.131 84.0187 110.941 83.5723C111.603 83.2321 115.571 82.9558 116.808 83.1896C117.405 83.2959 118.536 83.6361 119.283 83.9337C120.605 84.4652 121.544 84.4864 120.861 83.9549C119.667 83.0408 117.085 79.3629 116.211 77.3433C115.955 76.7481 115.656 76.1103 115.549 75.9189C115.421 75.7064 115.336 75.43 115.336 75.3024C115.336 75.1749 115.208 74.7709 115.037 74.4095C114.611 73.4741 114.099 71.6033 113.949 70.3278C113.864 69.7538 113.715 68.9672 113.608 68.5845C113.373 67.8192 113.075 64.7366 112.776 59.6981C112.648 57.8273 112.456 55.3825 112.328 54.277C112.051 51.981 111.944 33.6555 112.179 27.3841C112.413 20.2197 113.288 8.54835 113.629 7.93183C113.757 7.71924 113.843 7.29405 113.843 6.99642C113.843 6.44368 114.547 4.0839 114.931 3.40361C115.165 2.95716 114.632 2.65953 114.205 2.99968C113.864 3.27605 108.829 5.74213 107.869 6.10353C107.699 6.16731 107.4 6.31613 107.229 6.42242C107.059 6.52872 106.248 6.93264 105.416 7.29405C104.605 7.65546 103.773 8.05938 103.603 8.16568C103.432 8.27198 102.749 8.61213 102.109 8.93101C98.8879 10.4829 97.4159 12.3963 97.4159 15.0324C97.4159 15.5001 97.3306 16.2229 97.2026 16.6056C97.0959 17.0095 96.9466 18.1575 96.8826 19.1567C96.8186 20.1772 96.6693 21.6228 96.5413 22.3881C96.4346 23.1535 96.2426 25.6408 96.1146 27.9155C95.9866 30.1903 95.8159 33.4004 95.7093 35.0374C95.4746 39.1829 95.4959 58.5714 95.7306 62.5681C96.2213 70.2002 96.5626 73.708 97.0959 76.1741C97.2666 76.9394 97.4373 77.7898 97.4799 78.0874C97.6933 79.2354 99.1653 82.8707 100.019 84.3164C100.339 84.8691 100.616 85.4218 100.616 85.5281C100.616 85.6344 100.829 85.8683 101.085 86.0384C101.427 86.2935 101.64 86.3147 101.981 86.1234C102.237 85.9746 103.155 85.762 104.029 85.6132ZM24.4559 72.7513C26.5039 71.4758 38.4293 65.3318 40.8826 64.2901C41.5226 64.0138 42.8239 63.4185 43.7626 62.9933C48.2426 60.8886 48.6266 60.7186 51.9333 59.2517C52.2959 59.0816 52.9359 58.8265 53.3199 58.6777C54.3226 58.2525 55.3039 57.8273 56.9039 57.0832C57.6933 56.7218 58.5679 56.3604 58.8879 56.2754C59.1866 56.2116 59.5066 56.0628 59.5706 55.9565C59.6346 55.8502 59.8266 55.7652 59.9973 55.7652C60.1893 55.7652 60.9573 55.4888 61.7253 55.1274C62.4719 54.7872 63.1973 54.4896 63.3039 54.4896C63.4106 54.4896 64.1146 54.192 64.8399 53.8518C65.5866 53.4904 66.2693 53.2141 66.3546 53.2141C66.4613 53.2141 66.8239 53.0865 67.1866 52.9164C67.5706 52.7463 68.0613 52.5763 68.2959 52.5125C68.7226 52.3849 69.3413 52.1723 71.6026 51.3007C72.2426 51.0456 73.0746 50.748 73.4159 50.6417C73.7786 50.5354 74.2479 50.3653 74.4826 50.259C74.9306 50.0677 76.2106 49.5787 77.5333 49.0898C78.3226 48.8134 81.8426 47.7079 83.8693 47.1126C84.4666 46.9426 85.2346 46.7087 85.5759 46.5812C86.4293 46.3048 88.3493 45.7946 89.4799 45.5607C89.9919 45.4544 90.5253 45.2844 90.6533 45.1993C90.8026 45.1143 91.5066 44.9867 92.2533 44.9017C92.9999 44.8166 93.6399 44.7104 93.7039 44.6466C93.7679 44.5828 93.8533 41.9679 93.8746 38.8428C93.9386 33.6981 94.1946 28.6171 94.5359 26.0022C94.5999 25.4707 94.7493 23.8125 94.8559 22.2818C95.1119 18.9016 95.5813 15.16 95.9226 13.8844C96.0719 13.3529 96.2639 12.5663 96.3706 12.1199C96.4986 11.6947 97.0106 10.8018 97.5226 10.1641C98.0559 9.52627 98.4826 8.93102 98.4826 8.84598C98.4826 8.7822 98.3333 8.52709 98.1199 8.3145C97.6079 7.7405 96.3919 7.82553 94.8986 8.56961C94.1733 8.90975 93.5333 9.20739 93.4693 9.20739C93.3839 9.20739 92.5733 9.59005 91.6346 10.0578C90.6959 10.5255 89.3519 11.1632 88.6053 11.4609C87.8799 11.7585 85.7893 12.7364 83.9759 13.6081C80.5413 15.2663 73.6933 18.5615 72.5626 19.0929C70.7919 19.9221 67.6133 21.474 67.2293 21.7078C66.8453 21.9204 64.3279 23.1322 58.2693 26.0022C54.7066 27.6817 43.0159 33.4217 42.1626 33.8894C41.7573 34.1232 40.6053 34.6972 39.6026 35.1649C38.5999 35.6326 37.6399 36.1003 37.4693 36.2066C36.4453 36.7594 30.0879 39.8845 28.8293 40.4372C28.0186 40.7986 27.1866 41.2026 27.0159 41.3089C26.8453 41.4152 26.3333 41.6703 25.8853 41.8616C25.4373 42.0529 24.5839 42.4569 23.9653 42.7758C22.0453 43.7324 21.7679 44.7316 21.0426 53.4266C20.6799 57.9336 20.5306 70.0726 20.8079 72.2198C21.1919 75.0686 21.2346 75.0898 22.7066 73.9844C23.3679 73.4954 24.1573 72.9214 24.4559 72.7513ZM187.016 50.3015C187.016 50.0889 186.901 49.7807 186.747 49.5107C186.643 49.2641 186.517 48.8772 186.434 48.6348C186.352 48.3946 186.224 47.9885 186.131 47.7419C186.041 47.5059 185.913 47.2041 185.855 46.9893C185.796 46.764 185.616 46.2878 185.499 45.9795C185.382 45.6713 185.113 44.8358 184.744 44.1406C184.068 42.8672 183.406 42.1571 182.596 42.1571C181.764 42.1571 181.407 42.5398 181.166 43.3264C181.036 43.7537 180.953 44.2405 180.91 44.3893C180.846 44.5594 181.529 45.4098 182.574 46.4515C183.556 47.4294 184.814 48.7687 185.39 49.449C186.44 50.6629 187.016 50.9818 187.016 50.3015ZM124.403 4.31776C124.531 4.10516 123.827 2.61701 123.251 1.93672C122.867 1.44775 121.373 1.4265 120.84 1.91546C120.285 2.40442 120.349 2.55324 121.373 3.02094C121.864 3.23353 122.611 3.65872 123.016 3.97761C123.827 4.55161 124.189 4.6579 124.403 4.31776Z" fill="rgb(0,0,0)" fill-rule="nonzero" transform="matrix(1,0,0,-1,26.7307,229.689)" />
			<path id="矢量 361" d="M16.3732 55.1253C16.0532 54.445 15.6052 53.5521 15.3706 53.1481C14.7092 52.0001 13.1306 48.5136 12.5972 46.983C12.0212 45.3885 11.5732 44.2618 11.2959 43.7516C11.1679 43.539 11.0826 43.2201 11.0826 43.0287C11.0826 42.8374 10.9546 42.391 10.7839 42.0296C10.4852 41.3705 9.14124 37.0761 8.69324 35.3967C8.58657 34.929 8.3519 34.1636 8.20257 33.6959C8.0319 33.2282 7.8399 32.4629 7.75457 31.9952C7.66924 31.5275 7.54123 31.0598 7.4559 30.9322C7.37057 30.8259 7.22123 30.3795 7.1359 29.9756C7.05057 29.5716 6.7519 28.5512 6.47457 27.7008C6.19723 26.8717 5.96257 26.0001 5.96257 25.7875C5.94123 25.5749 5.7919 25.0221 5.62123 24.5544C5.45057 24.0867 5.2159 23.3214 5.10923 22.8537C4.78923 21.3868 4.3199 19.4947 3.9359 18.1767C3.7439 17.4751 3.4879 16.3696 3.38123 15.7319C3.27456 15.0941 3.08256 14.4776 2.99723 14.35C2.89056 14.2437 2.74123 13.6059 2.6559 12.9681C2.57056 12.3304 2.42123 11.6713 2.3359 11.48C2.1439 11.1186 1.7599 9.6517 1.3759 7.75963C1.20523 7.05807 0.991897 6.14393 0.863896 5.74C0.735896 5.33607 0.62923 4.67704 0.62923 4.29437C0.62923 3.9117 0.543896 3.42274 0.415896 3.21015C0.309229 2.99756 0.159896 2.1897 0.0745626 1.40311C-0.0534375 0.085037 -0.0534376 0 0.373229 0C0.714563 0 0.863896 0.170074 0.970563 0.807852C1.0559 1.23304 1.1839 1.70074 1.26923 1.80704C1.35456 1.93459 1.48256 2.44481 1.5679 2.9763C1.65323 3.50778 1.80256 4.23059 1.90923 4.57074C2.03723 4.93215 2.37856 6.2077 2.67723 7.44074C3.63723 11.3524 3.8079 11.9902 4.14923 13.287C4.34123 13.9886 4.59723 15.0941 4.7039 15.7319C4.81057 16.3696 5.00257 16.9861 5.0879 17.1137C5.19457 17.22 5.32257 17.6664 5.36523 18.0704C5.42923 18.4743 5.68523 19.5798 5.94123 20.5152C6.21857 21.4506 6.5599 22.7474 6.70923 23.3852C6.85857 24.023 7.15724 25.0859 7.34924 25.7237C7.54123 26.3615 7.81857 27.4244 7.98924 28.0622C8.26657 29.2527 9.2479 32.4629 9.61057 33.3345C9.71724 33.6109 9.80257 34.0148 9.80257 34.2274C9.80257 34.44 10.1012 35.5667 10.4639 36.7147C10.8266 37.8627 11.3172 39.4147 11.5306 40.18C11.7652 40.9453 12.0426 41.7532 12.1279 41.987C12.5972 43.135 13.2372 44.857 13.5572 45.8775C13.7492 46.494 13.9839 47.0467 14.0906 47.1105C14.1972 47.1743 14.2826 47.3656 14.2826 47.557C14.2826 47.7483 15.0079 49.3853 15.9039 51.2136C17.6532 54.7639 18.1652 56.0181 17.9732 56.2095C17.8879 56.2733 17.6319 56.337 17.3759 56.337C17.0346 56.337 16.7999 56.0394 16.3732 55.1253Z" fill="rgb(0,0,0)" fill-rule="nonzero" transform="matrix(1,0,0,-1,193.704,71.4541)" />
			<path id="矢量 362" d="M1.45979 16.4546C-0.161542 16.0294 -0.332208 15.8806 0.457125 15.5617C0.862459 15.4128 1.88646 15.3703 3.46513 15.4766C4.93713 15.5617 6.32379 15.5191 6.98513 15.3916C7.60379 15.264 9.2678 15.0514 10.6758 14.9451C14.7718 14.5837 17.2891 14.2011 23.2625 13.0318C23.8598 12.9255 24.6705 12.7342 25.0758 12.6279C26.3131 12.2877 28.3185 11.7988 29.3425 11.5862C30.6011 11.3098 34.1851 10.3531 34.9958 10.0768C36.5531 9.56655 39.7531 8.58862 40.4358 8.46107C40.8411 8.37603 41.3105 8.22721 41.5025 8.14218C41.6731 8.05714 42.5051 7.75951 43.3158 7.5044C44.1478 7.24929 45.1078 6.90914 45.4491 6.76032C46.4305 6.33514 49.3318 5.37847 49.6091 5.37847C49.7585 5.37847 50.1638 5.25092 50.5265 5.08084C54.7931 3.25254 64.9691 0.127431 67.1025 0.0211347C67.9558 -0.0426431 68.0625 0.0211347 68.1265 0.44632C68.1905 0.828987 68.1051 0.914024 67.6358 0.914024C67.0598 0.914024 62.9211 2.18958 61.6198 2.74232C61.2571 2.9124 60.8305 3.03995 60.6598 3.03995C60.4891 3.03995 60.2758 3.10373 60.1905 3.18877C60.1051 3.2738 59.6358 3.44388 59.1451 3.59269C58.6545 3.72025 57.4385 4.14543 56.4358 4.50684C55.4331 4.88951 54.2811 5.29343 53.8758 5.42099C53.4705 5.52729 53.0438 5.69736 52.9158 5.80366C52.8091 5.88869 51.6571 6.31388 50.3558 6.76032C49.0758 7.18551 47.9238 7.63195 47.8171 7.73825C47.6891 7.84455 47.4331 7.92958 47.2198 7.92958C47.0278 7.92958 46.5371 8.05714 46.1531 8.22721C45.3638 8.5461 42.2491 9.54529 39.7958 10.2681C38.9211 10.5232 37.5131 10.9697 36.6598 11.246C35.8278 11.5224 34.9958 11.7563 34.8038 11.7563C34.6331 11.7563 34.0571 11.8838 33.5665 12.0539C29.7265 13.2869 23.5825 14.6475 16.1158 15.9018C14.4518 16.1994 8.15846 16.6884 5.55579 16.7522C3.48646 16.7947 2.44113 16.7309 1.45979 16.4546Z" fill="rgb(0,0,0)" fill-rule="nonzero" transform="matrix(1,0,0,-1,123.604,77.2578)" />
		</g>
	</g>
</svg>
