<svg viewBox="0 0 268 230" xmlns="http://www.w3.org/2000/svg" xmlns:xlink="http://www.w3.org/1999/xlink" width="268.000000" height="230.000000" fill="none">
	<defs>
		<clipPath id="clipPath_10">
			<rect width="246.000000" height="229.000000" x="11.000000" y="0.000000" fill="rgb(255,255,255)" />
		</clipPath>
	</defs>
	<rect id="10" width="268.000000" height="230.000000" x="0.000000" y="0.000000" />
	<g id="10" clip-path="url(#clipPath_10)" customFrame="url(#clipPath_10)">
		<rect id="10" width="246.000000" height="229.000000" x="11.000000" y="0.000000" />
		<path id="矢量 406" d="M44.6438 105.744L40.8776 111.824L39.7286 120.158L39.2818 130.49L38.5584 133.254L37.8775 134.529L35.1114 133.828L18.1955 150.686L11.9824 158.297L12.4718 164.356L15.4933 168.587L30.8984 175.964L91.1783 204.345L93.8167 203.622L98.583 198.456L114.988 179.748L133.223 189.378L134.053 205.897L136.585 217.929L147.075 223.265L154.054 225.774L162.182 222.16L193.141 203.197L208.164 190.314L227.228 173.901L234.697 166.078L237.633 139.313L238.484 117.479L237.633 115.29L236.271 112.824L239.059 113.079L241.953 110.081L256.464 38.9051L254.783 37.2894L246.059 35.206L239.74 31.3581L233.505 30.8904L233.59 25.5756L231.867 16.5404L227.909 10.8642L216.973 7.16507L192.524 3.38092L167.991 1.40381L157.161 1.93529L151.309 5.80447L143.798 21.3025L139.224 19.4529L133.585 21.3663L130.478 26.1708L120.903 47.7915L115.584 72.6861L106.711 73.2176L70.1346 82.2315L45.4098 92.1383L42.0054 99.3239L44.6438 105.744Z" fill="rgb(255,255,255)" fill-rule="nonzero" />
		<path id="矢量 407" d="M154.607 225.54L156.118 228.283L158.82 228.283L161.927 223.032L161.459 222.521L154.607 225.54Z" fill="rgb(255,255,255)" fill-rule="nonzero" />
		<path id="矢量 408" d="M224.228 176.899L223.377 181.576L220.398 186.87L217.398 186.615L216.568 183.298L224.228 176.899Z" fill="rgb(255,255,255)" fill-rule="nonzero" />
		<path id="矢量 409" d="M97.4127 200.709L91.9443 204.345L13.0889 167.609L11.9824 159.977L15.9826 152.685L34.3666 134.019L38.1328 134.019L39.5797 129.81L57.5169 108.529L67.5174 101.684L81.5395 98.4311L95.0509 98.7712L102.583 96.4114L126.989 94.3493L127.925 89.3959L128.883 82.6354L125.563 75.8963L115.584 72.6861L116.988 63.6934L121.903 45.7931L131.627 23.4497L137.138 18.6026L143.798 21.3025L149.884 7.10129L157.161 1.93529L164.331 1.40381L206.844 4.86907L228.654 11.3106L233.016 19.9206L233.505 30.8904L240.506 31.4219L246.953 35.4186L255.294 36.9493L256.081 41.3287L240.889 111.208L237.506 112.93L228.101 110.379L227.101 102.874L220.058 95.4973L205.823 93.6052L179.502 98.5586L144.032 117.607L135.5 124.559L136.457 133.381L139.287 137.846L114.584 178.408L97.4127 200.709Z" fill="rgb(1,89,188)" fill-rule="nonzero" />
		<g id="组合 82">
			<path id="矢量 410" d="M118.386 32.6143C119.216 32.9332 120.194 33.3797 120.599 33.5923C121.769 34.2725 121.833 34.1237 121.875 31.0837C121.875 29.5743 122.003 27.5971 122.131 26.6617C122.258 25.7263 122.45 23.813 122.535 22.4099C122.833 17.8391 123.258 15.3943 124.195 12.7369C124.705 11.2488 125.344 10.5685 126.918 9.78188C127.727 9.39921 128.812 8.84647 129.344 8.59136C129.876 8.31499 130.918 7.84729 131.684 7.5284C133.302 6.86936 136.536 5.35995 137.004 5.06233C137.174 4.95603 137.472 4.80721 137.642 4.74344C137.812 4.67966 138.536 4.36077 139.238 4.02062C141.664 2.9364 142.132 2.74507 142.494 2.74507C142.706 2.74507 143.047 2.40492 143.281 1.97973C143.919 0.767954 144.877 0.172695 146.345 0.0451396C147.43 -0.0611567 147.728 0.00262105 148.409 0.427806C148.856 0.704177 149.388 1.08684 149.579 1.27818C150.111 1.80966 151.047 3.89307 151.281 5.14736C151.579 6.57173 151.749 6.80558 153.175 7.48588C154.707 8.25121 157.814 9.97321 160.388 11.5039C160.92 11.844 161.558 12.1842 161.793 12.3117C162.027 12.4393 162.516 12.7157 162.856 12.9495C163.218 13.1834 163.644 13.4385 163.814 13.5235C163.984 13.5873 164.516 13.9062 164.984 14.2038C165.452 14.5014 166.006 14.8416 166.197 14.9691C169.857 17.1588 175.623 20.943 179.155 23.4728C179.964 24.0681 181.368 25.0673 182.283 25.7051C183.177 26.3428 184.645 27.4483 185.517 28.1711C186.39 28.8727 187.645 29.8294 188.305 30.2971C189.347 31.0199 192.113 33.1671 193.284 34.1663C193.518 34.3576 194.135 34.8465 194.667 35.2505C195.199 35.6544 195.858 36.1859 196.156 36.4622C196.454 36.7174 197.56 37.674 198.603 38.5669C201.837 41.3306 203.242 42.5637 203.965 43.3503C204.54 43.9455 204.731 44.0518 205.029 43.8605C205.22 43.7329 205.455 43.3715 205.54 43.0526C205.625 42.7337 205.965 42.2235 206.284 41.9259C206.816 41.4369 207.008 41.3944 208.306 41.4794C209.668 41.5432 209.795 41.607 210.455 42.3511C210.859 42.7763 211.348 43.4991 211.561 43.9243C211.774 44.3707 212.072 45.0085 212.242 45.3274C212.412 45.6675 212.54 46.0289 212.54 46.1565C212.54 46.2628 212.668 46.6667 212.838 47.0281C213.221 47.9635 213.753 49.7705 214.072 51.365L214.327 52.6831L218.583 56.9987C220.923 59.3797 223.221 61.8458 223.69 62.4836C224.881 64.0993 225.583 66.5441 225.945 70.2432C226.222 73.092 226.583 76.7273 226.817 78.8532C226.945 79.9587 227.137 82.0634 227.222 83.5303C227.69 90.5245 227.86 93.0331 228.094 96.0732C228.222 97.8802 228.371 102.153 228.435 105.555C228.541 111.529 228.541 111.784 228.094 112.974C227.839 113.655 227.434 114.484 227.222 114.803C226.541 115.717 226.668 115.908 227.775 115.738C228.754 115.589 228.775 115.61 229.86 116.737C231.009 117.928 231.328 118.672 232.009 121.797C232.201 122.669 232.499 123.923 232.648 124.561C232.796 125.198 233.094 126.495 233.286 127.431C233.477 128.366 233.775 129.705 233.924 130.407C234.073 131.108 234.371 132.448 234.563 133.383C234.754 134.319 235.009 135.467 235.137 135.934C235.243 136.402 235.414 137.274 235.52 137.848C235.605 138.443 235.797 139.187 235.924 139.506C236.052 139.846 236.158 140.399 236.158 140.76C236.158 141.334 236.286 141.972 237.052 145.182C237.18 145.714 237.35 146.67 237.435 147.308C237.52 147.946 237.69 148.86 237.818 149.328C237.946 149.795 238.201 150.986 238.393 151.985C238.584 152.984 238.818 154.175 238.946 154.642C239.052 155.11 239.244 156.109 239.371 156.875C239.478 157.64 239.669 158.554 239.776 158.894C239.882 159.256 240.116 160.404 240.329 161.445C240.52 162.508 240.797 163.848 240.946 164.422C241.244 165.527 241.669 167.504 242.201 170.268C242.371 171.14 242.627 172.351 242.754 172.925C242.882 173.521 243.201 175.051 243.478 176.327C243.755 177.624 244.095 179.091 244.223 179.622C244.35 180.154 244.606 181.344 244.776 182.28C244.967 183.215 245.265 184.469 245.435 185.064C245.584 185.66 245.733 186.425 245.733 186.765C245.733 187.127 245.882 187.934 246.053 188.594C246.329 189.678 246.329 189.89 246.01 190.826C245.627 191.974 245.116 192.548 244.031 193.058C243.052 193.504 239.669 194.248 237.541 194.482C235.967 194.652 235.754 194.737 234.988 195.439C234.18 196.183 232.073 197.48 230.733 198.075C228.818 198.926 227.605 199.223 225.626 199.329L223.498 199.457L223.498 203.305C223.498 206.749 223.434 207.323 222.987 208.747C222.711 209.619 222.37 210.873 222.2 211.511C221.243 215.529 219.413 217.995 216.2 219.568C213.115 221.099 209.774 222.183 205.306 223.076C204.433 223.246 203.008 223.544 202.135 223.735C201.284 223.905 200.199 224.054 199.731 224.054C199.263 224.054 198.709 224.139 198.497 224.267C198.029 224.522 194.858 225.053 191.475 225.436C190.135 225.606 188.645 225.797 188.177 225.861C187.709 225.925 186.028 226.116 184.453 226.307C182.879 226.478 180.879 226.711 180.028 226.839C179.176 226.966 177.453 227.137 176.198 227.243C173.58 227.455 169.474 227.796 165.942 228.114C159.558 228.667 150.579 228.88 147.856 228.518C146.302 228.306 144.089 227.455 142.6 226.456C139.706 224.543 138.11 222.226 134.685 214.87C134.323 214.083 134.025 213.318 134.025 213.148C134.025 212.999 133.897 212.702 133.748 212.468C133.599 212.234 133.28 211.447 133.068 210.724C132.727 209.513 132.621 209.385 132.11 209.385C131.812 209.385 131.472 209.47 131.344 209.598C130.833 210.108 128.578 210.661 126.982 210.661C125.535 210.661 125.173 210.576 124.067 209.98C122.28 209.066 121.514 208.28 120.237 206.154C119.216 204.474 115.769 197.671 114.194 194.291C113.854 193.526 113.428 192.633 113.258 192.314C113.088 191.974 112.96 191.612 112.96 191.506C112.96 191.293 112.237 189.571 111.896 188.934C111.768 188.721 111.683 188.402 111.683 188.211C111.683 188.02 111.534 187.616 111.364 187.318C111.066 186.744 110.13 184.172 109.768 182.917C109.662 182.577 109.364 181.62 109.066 180.791C107.577 176.497 106.066 170.821 105.194 166.335C105.045 165.527 104.747 164.082 104.555 163.146C104.364 162.211 104.13 160.638 104.002 159.66C103.896 158.66 103.747 157.81 103.683 157.746C103.619 157.683 102.832 157.555 101.938 157.47C96.0016 156.917 90.7673 156.152 88.0437 155.472C87.4054 155.301 86.5968 155.174 86.2777 155.174C85.9585 155.174 85.1074 155.046 84.384 154.876C82.2562 154.387 80.1497 153.941 79.2347 153.792C78.7666 153.728 78.107 153.579 77.7453 153.473C77.1282 153.282 73.4472 152.346 71.8939 151.964C70.3406 151.602 69.2129 151.284 68.5533 151.007C68.1916 150.837 67.7873 150.71 67.6383 150.71C67.383 150.71 65.8297 150.242 64.4467 149.732C64.0424 149.583 62.9998 149.264 62.1487 149.009C61.2976 148.732 60.5528 148.435 60.489 148.35C60.4252 148.243 60.2124 148.158 59.9996 148.158C59.7868 148.158 59.3187 148.01 58.9996 147.84C58.6591 147.669 58.2123 147.521 58.0208 147.521C57.808 147.521 57.3399 147.393 56.9569 147.223C56.5739 147.053 55.8292 146.755 55.2972 146.564C54.7653 146.351 54.0418 146.054 53.6588 145.905C53.2971 145.735 52.8928 145.607 52.7865 145.607C52.6588 145.607 51.7651 145.246 50.7863 144.778C49.8076 144.332 48.5522 143.758 47.9564 143.503C47.3819 143.248 46.701 142.95 46.467 142.822C46.2329 142.716 45.7648 142.546 45.4031 142.44C45.0626 142.333 44.2328 142.036 43.5945 141.781C42.9561 141.526 42.1476 141.228 41.7858 141.143C41.4454 141.037 40.6156 140.781 39.9772 140.59C39.3389 140.399 38.3814 140.122 37.8495 139.974C35.9132 139.421 34.8918 138.826 33.4662 137.38C32.1045 136.041 31.1044 134.467 30.7001 133.064C30.615 132.767 30.5512 131.47 30.5725 130.194C30.5937 127.133 31.1682 125.326 32.4662 124.284C32.9556 123.88 33.1258 123.285 32.7641 123.285C32.4236 123.285 30.7214 120.904 30.0405 119.458C28.9979 117.311 28.317 114.845 28.0617 112.337C27.9553 111.401 27.7851 109.913 27.6574 109.041C27.5297 108.17 27.4233 105.385 27.4233 102.855C27.4233 99.1771 27.3595 98.1991 27.1042 97.859C26.934 97.6464 26.785 97.1574 26.785 96.7748C26.785 95.9031 26.5297 95.7756 25.636 96.0945C24.6998 96.4346 23.4444 96.1157 22.1039 95.1591C19.3378 93.2245 8.3159 81.9146 5.40085 78.0028C4.37951 76.6635 3.46457 75.5368 3.35818 75.4943C3.25179 75.4517 3.16668 75.3242 3.16668 75.1966C3.16668 75.0903 2.99646 74.7289 2.7624 74.4313C1.93257 73.2408 0.655902 70.6259 0.29418 69.3503C-0.259042 67.4157 -0.0888202 66.4165 1.29424 63.334C2.40068 60.8679 2.91135 60.5277 9.23085 57.6577C10.4011 57.1263 11.4437 56.5948 11.5714 56.5097C11.6778 56.4034 11.8906 56.3184 12.0395 56.3184C12.1672 56.3184 13.6141 55.6806 15.2312 54.9153C16.8483 54.15 18.9761 53.1295 19.9761 52.6618C23.1678 51.1524 31.2746 47.2832 35.6791 45.136C37.4877 44.2644 39.041 43.5628 39.1474 43.5628C39.2751 43.5628 39.9134 43.2652 40.573 42.9038C41.871 42.181 42.2965 41.9684 43.8072 41.2456C44.3392 40.9905 44.9137 40.7141 45.0839 40.6078C45.2541 40.5228 45.7435 40.2889 46.1478 40.0976C47.9564 39.2897 62.787 32.1041 64.5531 31.1687C64.9148 30.9774 66.1489 30.3821 67.3192 29.8506C68.4895 29.2979 69.681 28.7239 69.9789 28.5751C71.1705 27.9373 71.9365 27.5759 75.1068 26.024C78.4262 24.4295 78.4262 24.4295 80.1922 24.4295C82.4902 24.4295 83.4265 24.876 85.4053 26.8531C87.1075 28.5751 87.4692 29.0003 89.98 32.3167C90.9801 33.6135 92.5972 35.7182 93.576 36.9512C94.5547 38.1842 95.6399 39.6511 95.9803 40.2251C96.3421 40.7779 96.7464 41.2243 96.8953 41.2243C97.0655 41.2243 98.172 40.2464 99.3848 39.0346C100.598 37.8441 102.342 36.1859 103.279 35.378C104.215 34.5489 105.279 33.5923 105.64 33.2521C108.024 30.9561 109.726 29.7443 110.556 29.7443C110.811 29.7443 111.577 29.9782 112.237 30.2758M158.92 226.924C159.324 226.86 161.686 226.733 164.133 226.605C166.601 226.499 169.41 226.307 170.41 226.18C172.963 225.882 176.261 225.563 179.24 225.33C180.645 225.223 182.219 225.032 182.751 224.926C183.283 224.798 185.049 224.564 186.688 224.373C188.326 224.182 190.475 223.905 191.475 223.735C192.475 223.565 194.241 223.267 195.411 223.097C196.582 222.906 198.305 222.63 199.241 222.46C200.178 222.289 201.369 222.098 201.901 222.034C202.433 221.971 203.157 221.822 203.497 221.715C203.859 221.63 204.901 221.375 205.838 221.184C208.731 220.567 211.434 219.823 212.646 219.292C217.625 217.102 219.349 215.465 220.221 212.128C221.498 207.132 221.732 205.962 221.817 204.389C221.86 203.581 221.775 202.072 221.647 201.051C221.455 199.436 221.349 199.181 221.009 199.181C220.796 199.181 220.221 198.926 219.711 198.607C218.817 198.054 217.008 196.289 217.008 195.97C217.008 195.885 216.753 195.396 216.434 194.886C215.519 193.462 215.434 193.313 213.774 190.082C212.923 188.402 212.157 186.978 212.072 186.935C211.966 186.872 211.902 186.68 211.902 186.51C211.902 186.34 211.625 185.617 211.285 184.873C210.944 184.15 210.37 182.79 209.987 181.854C209.625 180.919 209.178 179.877 209.008 179.558C208.838 179.218 208.71 178.857 208.71 178.729C208.71 178.623 208.433 177.9 208.072 177.135C207.731 176.391 207.433 175.625 207.433 175.455C207.433 175.264 207.327 174.945 207.199 174.711C206.71 173.776 204.242 166.611 204.242 166.101C204.242 165.91 204.114 165.463 203.944 165.102C203.774 164.719 203.476 163.848 203.284 163.146C203.093 162.445 202.816 161.594 202.71 161.233C202.603 160.893 202.369 160.064 202.22 159.426C202.071 158.788 201.773 157.683 201.582 156.981C201.39 156.279 201.156 155.323 201.071 154.855C200.986 154.387 200.795 153.622 200.667 153.154C200.539 152.687 200.284 151.539 200.093 150.603C199.901 149.668 199.603 148.307 199.433 147.584C199.263 146.862 199.135 146.032 199.135 145.735C199.135 145.416 199.007 144.629 198.837 143.949C198.433 142.397 197.88 138.974 197.795 137.763L197.752 136.806L195.305 136.785C193.965 136.763 192.092 136.572 191.156 136.381C189.603 136.062 187.071 135.552 185.73 135.318C185.432 135.275 184.773 135.126 184.241 134.978C183.709 134.85 182.623 134.616 181.794 134.425C179.772 133.978 177.879 133.511 177.113 133.234C176.772 133.128 176.134 132.937 175.729 132.852C172.857 132.15 165.537 129.727 162.644 128.494C160.346 127.516 156.75 125.836 153.452 124.199L149.771 122.392L148.132 122.945C147.217 123.264 146.281 123.583 146.047 123.689C145.813 123.795 144.196 124.327 142.43 124.88C140.685 125.411 138.961 126.006 138.642 126.176C138.302 126.346 137.855 126.474 137.642 126.474C137.281 126.474 135.855 127.027 132.004 128.706C131.663 128.855 129.557 129.854 127.323 130.938C125.11 132.001 122.939 133.022 122.535 133.213C122.131 133.383 121.62 133.617 121.429 133.723C121.024 133.936 119.769 134.276 118.173 134.595C117.599 134.723 116.982 134.85 116.811 134.893C116.364 135.02 116.641 136.466 117.386 138.018C118.705 140.718 118.811 141.1 118.811 143.375C118.79 145.714 118.471 146.968 117.386 149.094C116.811 150.178 116.769 150.391 117.003 150.901C117.152 151.198 117.343 151.985 117.45 152.623C118.024 156.152 120.173 164.018 120.939 165.421C121.109 165.719 121.258 166.08 121.258 166.208C121.258 166.335 121.663 167.1 122.131 167.887C123.024 169.311 123.024 169.311 123.067 171.692C123.11 173.01 123.28 174.584 123.45 175.2C123.982 177.05 124.259 178.198 124.45 179.197C124.535 179.728 124.705 180.387 124.833 180.685C124.939 180.983 125.195 181.748 125.365 182.386C126.131 185.022 126.62 186.553 126.812 186.893C126.918 187.105 127.003 187.424 127.003 187.616C127.003 187.807 127.131 188.253 127.301 188.615C127.471 188.997 127.663 189.529 127.706 189.827C127.769 190.124 128.174 191.357 128.599 192.59C129.046 193.823 129.472 195.12 129.557 195.46C129.727 196.056 130.557 198.5 131.067 199.925C131.195 200.286 131.387 200.86 131.472 201.2C131.578 201.562 132.11 203.092 132.642 204.602C133.195 206.132 133.77 207.769 133.897 208.258C134.046 208.769 134.259 209.279 134.408 209.428C134.557 209.576 134.663 209.81 134.663 209.959C134.663 210.214 134.961 210.958 135.749 212.702C135.983 213.19 136.153 213.637 136.153 213.722C136.153 213.807 136.408 214.424 136.706 215.083C139.472 221.248 141.77 224.352 144.451 225.585C144.983 225.818 145.643 226.137 145.941 226.286C146.238 226.435 147.387 226.669 148.494 226.796C149.6 226.945 150.664 227.094 150.834 227.137C151.281 227.222 158.005 227.051 158.92 226.924ZM128.429 208.854C129.11 208.684 129.897 208.45 130.195 208.343C130.493 208.237 130.982 208.088 131.323 208.024C132.025 207.854 132.046 207.557 131.408 206.132C130.855 204.899 130.578 204.155 129.961 202.157C129.706 201.392 129.386 200.435 129.238 200.031C128.833 198.883 128.514 197.926 128.025 196.417C127.791 195.652 127.365 194.376 127.067 193.547C126.599 192.208 126.322 191.315 125.727 189.295C125.642 188.955 125.344 188.126 125.11 187.488C124.854 186.85 124.556 185.894 124.45 185.362C124.322 184.831 124.152 184.214 124.046 183.98C123.684 183.13 122.62 179.197 121.663 175.264C121.535 174.69 121.365 173.096 121.28 171.756C121.173 169.673 121.088 169.205 120.684 168.716C120.024 167.866 119.492 166.654 118.492 163.678C117.407 160.404 116.237 155.663 116.109 153.92C116.067 153.516 115.939 153.154 115.811 153.112C115.684 153.069 115.088 153.494 114.513 154.047C112.726 155.748 109.747 157.024 107.066 157.236C105.3 157.385 105.087 157.598 105.619 158.852C105.789 159.277 105.938 159.979 105.938 160.425C105.938 161.339 106.47 164.315 106.917 165.931C107.087 166.526 107.215 167.27 107.215 167.589C107.215 167.908 107.364 168.504 107.534 168.929C107.704 169.333 107.853 169.885 107.853 170.119C107.853 170.353 108.002 171.076 108.194 171.735C108.364 172.394 108.662 173.457 108.853 174.095C109.024 174.732 109.3 175.647 109.47 176.114C109.641 176.603 109.768 177.177 109.768 177.39C109.768 177.624 109.917 178.006 110.088 178.219C110.258 178.453 110.407 178.857 110.407 179.091C110.407 179.346 110.662 180.217 110.96 181.025C111.258 181.833 111.577 182.79 111.683 183.13C111.79 183.491 112.066 184.299 112.322 184.937C112.577 185.575 112.854 186.34 112.96 186.638C113.896 189.38 116.152 194.525 118.322 198.862C119.684 201.604 119.641 201.498 120.599 203.177C120.96 203.794 121.258 204.389 121.258 204.495C121.258 204.751 122.471 206.6 123.152 207.323C123.769 208.024 124.599 208.492 125.833 208.875C126.94 209.236 126.982 209.236 128.429 208.854ZM227.434 197.395C231.967 195.928 234.584 194.057 235.52 191.634C236.18 189.89 236.286 188.572 235.882 186.999C235.69 186.276 235.392 184.958 235.201 184.087C234.988 183.215 234.69 182.046 234.541 181.493C234.371 180.94 234.243 180.324 234.243 180.132C234.243 179.771 233.86 178.283 233.265 176.412C233.094 175.859 232.967 175.243 232.967 175.03C232.967 174.796 232.839 174.201 232.669 173.67C232.499 173.138 232.222 172.224 232.03 171.629C231.839 171.012 231.69 170.311 231.69 170.034C231.669 169.758 231.541 169.29 231.371 168.992C231.201 168.695 231.073 168.248 231.052 167.993C231.052 167.738 230.903 167.058 230.733 166.505C230.392 165.463 230.052 164.252 229.435 162.041C229.264 161.36 228.966 160.382 228.796 159.851C228.626 159.32 228.498 158.745 228.498 158.554C228.498 158.363 228.349 157.725 228.179 157.172C227.307 154.324 226.711 152.198 226.456 151.135C226.307 150.497 226.094 149.625 225.966 149.221C225.86 148.817 225.647 148.052 225.498 147.521C225.371 146.989 225.136 146.224 224.988 145.82C224.839 145.416 224.605 144.651 224.477 144.119C224.349 143.588 224.094 142.695 223.902 142.1C223.732 141.525 223.498 140.654 223.413 140.186C223.307 139.718 222.987 138.57 222.668 137.635C222.158 136.019 221.817 134.914 221.115 132.533C220.945 131.959 220.668 131.045 220.519 130.513C220.37 129.982 220.072 128.983 219.881 128.281C219.689 127.579 219.434 126.772 219.328 126.474C219.221 126.176 219.051 125.475 218.945 124.88C218.711 123.625 218.136 122.222 217.881 122.222C217.774 122.222 217.647 123.009 217.604 123.987C217.519 125.624 217.328 126.24 216.476 127.728C215.859 128.812 213.349 131.193 211.668 132.278C209.455 133.702 208.54 134.17 206.157 135.084C205.625 135.275 204.88 135.573 204.497 135.743C204.114 135.913 203.582 136.041 203.305 136.041C203.029 136.041 202.391 136.189 201.901 136.36C201.412 136.53 200.688 136.678 200.284 136.678C199.901 136.678 199.539 136.763 199.475 136.87C199.348 137.061 199.603 138.698 200.114 140.93C200.284 141.696 200.412 142.546 200.412 142.844C200.412 143.141 200.561 143.843 200.731 144.417C200.901 144.991 201.05 145.841 201.05 146.288C201.05 146.734 201.199 147.457 201.369 147.882C201.539 148.286 201.688 148.902 201.688 149.243C201.688 149.88 202.114 151.815 202.646 153.494C202.816 154.047 202.965 154.664 202.965 154.855C202.965 155.068 203.093 155.727 203.263 156.322C203.433 156.917 203.731 158.023 203.923 158.788C204.114 159.553 204.54 161.042 204.859 162.083C205.199 163.146 205.667 164.719 205.944 165.591C206.199 166.463 206.604 167.717 206.838 168.355C207.072 168.992 207.327 169.843 207.433 170.247C207.54 170.629 207.71 171.055 207.838 171.182C207.965 171.31 208.072 171.607 208.072 171.862C208.072 172.118 208.221 172.5 208.391 172.734C208.561 172.947 208.71 173.308 208.71 173.499C208.71 173.712 208.838 174.18 209.008 174.562C209.178 174.945 209.476 175.689 209.668 176.221C209.859 176.752 210.157 177.432 210.327 177.751C210.497 178.049 210.625 178.41 210.625 178.538C210.625 178.772 211.625 181.068 212.221 182.237C212.391 182.577 212.54 182.939 212.54 183.045C212.54 183.789 217.008 192.484 218.625 194.95C219.711 196.566 220.37 197.118 221.817 197.565C223.051 197.969 225.945 197.884 227.434 197.395ZM239.137 192.803C239.903 192.675 241.137 192.42 241.903 192.229L243.286 191.867L242.435 191.697C241.967 191.612 241.137 191.549 240.584 191.549C239.733 191.527 239.435 191.4 238.712 190.762C237.797 189.933 237.435 189.954 237.435 190.847C237.435 191.166 237.286 191.655 237.095 191.91C236.69 192.484 236.839 193.015 237.371 193.015C237.584 193.015 238.371 192.909 239.137 192.803ZM243.776 190.422C244.393 190.23 244.457 190.145 244.457 189.338C244.457 188.849 244.35 188.062 244.223 187.594C244.031 186.829 243.691 185.298 243.201 182.917C243.116 182.45 242.925 181.684 242.797 181.217C242.669 180.749 242.414 179.601 242.223 178.665C242.031 177.73 241.754 176.391 241.584 175.689C241.435 174.988 241.137 173.648 240.946 172.713C240.754 171.777 240.456 170.459 240.286 169.8C240.116 169.12 239.988 168.376 239.988 168.121C239.988 167.866 239.861 167.164 239.69 166.569C239.52 165.974 239.244 164.762 239.052 163.89C238.371 160.574 238.052 159.064 237.733 157.512C237.095 154.324 236.797 152.92 236.563 151.879C236.435 151.305 236.265 150.221 236.158 149.498C236.052 148.754 235.86 147.967 235.733 147.754C235.626 147.521 235.52 147.074 235.52 146.755C235.52 146.436 235.392 145.629 235.222 144.991C235.052 144.332 234.754 142.992 234.563 141.993C233.86 138.443 233.562 136.976 233.265 135.892C233.094 135.297 232.967 134.51 232.967 134.17C232.967 133.808 232.86 133.256 232.733 132.916C232.584 132.597 232.413 131.895 232.328 131.364C232.243 130.832 232.052 129.939 231.924 129.344C231.307 126.772 231.201 126.325 231.052 125.411C230.967 124.88 230.775 123.987 230.626 123.391C229.605 119.203 229.477 118.821 228.881 118.077C228.307 117.354 227.392 117.375 226.392 118.162C225.2 119.097 224.2 119.373 223.136 119.097C222.455 118.906 222.072 118.927 221.413 119.161C220.945 119.331 220.2 119.458 219.732 119.458C218.689 119.458 218.54 119.799 219.072 120.989C220.03 123.115 220.2 123.54 220.2 123.88C220.2 124.072 220.349 124.518 220.519 124.858C220.689 125.177 220.838 125.666 220.838 125.921C220.86 126.155 220.987 126.602 221.158 126.899C221.328 127.197 221.455 127.643 221.477 127.898C221.477 128.153 221.604 128.685 221.775 129.068C221.924 129.45 222.221 130.343 222.434 131.045C222.647 131.746 222.945 132.745 223.094 133.277C224.158 136.721 224.711 138.613 224.988 139.548C225.647 141.844 225.966 142.992 226.243 144.013C226.541 145.076 227.03 146.777 227.562 148.584C227.711 149.115 227.988 150.157 228.179 150.922C228.626 152.644 228.988 153.898 229.435 155.301C229.626 155.918 229.775 156.556 229.775 156.726C229.775 156.917 229.924 157.534 230.094 158.086C230.52 159.426 230.967 160.935 231.371 162.508C231.562 163.21 231.903 164.4 232.116 165.166C232.35 165.931 232.626 166.973 232.754 167.504C232.882 168.036 233.116 168.95 233.286 169.524C233.456 170.119 233.733 171.161 233.924 171.862C234.116 172.564 234.392 173.627 234.563 174.201C234.946 175.562 235.648 178.389 236.158 180.685C236.414 181.876 236.818 183.47 237.116 184.512C237.265 185.043 237.456 186.106 237.541 186.872C237.69 188.211 237.754 188.36 238.69 189.253C240.222 190.762 241.627 191.081 243.776 190.422ZM107.321 155.578C107.79 155.45 108.513 155.28 108.917 155.195C110.13 154.94 112.364 153.728 113.662 152.665C114.662 151.836 114.875 151.56 114.875 150.986C114.875 150.603 115.067 149.944 115.279 149.498C116.003 148.073 116.79 146.203 116.79 145.841C116.811 145.65 116.939 145.118 117.109 144.672C117.513 143.545 117.258 143.12 116.109 142.992C115.067 142.886 113.066 142.482 109.556 141.674C108.215 141.377 105.811 140.845 104.236 140.484C102.662 140.122 100.896 139.718 100.3 139.548C99.7252 139.4 98.3847 139.059 97.3208 138.804C96.2782 138.549 94.8313 138.188 94.1292 138.018C93.427 137.848 92.3206 137.571 91.6822 137.422C91.0439 137.252 89.98 136.976 89.3417 136.785C88.7033 136.593 87.7458 136.338 87.2139 136.211C86.2139 135.998 84.3627 135.53 82.7456 135.063C82.2136 134.935 81.2136 134.637 80.5114 134.446C78.256 133.83 76.9155 133.447 76.1495 133.149C75.7452 133.001 75.0217 132.809 74.5536 132.745C74.0855 132.66 73.6174 132.533 73.4897 132.427C73.3833 132.342 73.0004 132.214 72.6386 132.15C72.2982 132.086 71.6173 131.938 71.1492 131.81C70.6811 131.682 69.298 131.449 68.0639 131.257C63.5956 130.577 59.5102 129.663 57.4888 128.919C55.3823 128.132 52.8716 126.92 51.4672 126.006C51.1693 125.836 50.5523 125.602 50.0842 125.517C48.999 125.305 44.4456 125.368 44.1477 125.602C44.02 125.687 43.0625 126.07 41.9986 126.474C40.956 126.857 39.6793 127.346 39.19 127.558C38.7006 127.792 38.1899 127.962 38.0622 127.962C37.9558 127.962 37.6792 128.047 37.4665 128.175C37.0835 128.366 36.2749 128.706 34.7216 129.323C34.211 129.514 33.4237 129.833 32.9343 130.024L32.0832 130.364L32.2108 131.555C32.4875 133.915 34.2322 136.487 36.1685 137.444C37.7005 138.188 38.7006 138.592 39.041 138.592C39.2325 138.592 39.8283 138.741 40.3815 138.911C42.9561 139.74 43.9987 140.101 45.0839 140.505C45.7222 140.76 46.5095 141.037 46.8074 141.143C47.1053 141.228 47.5308 141.398 47.7649 141.526C47.9777 141.632 48.5096 141.887 48.9139 142.057C49.3182 142.227 50.3395 142.652 51.1481 143.014C51.9779 143.354 53.0205 143.8 53.4886 143.97C53.9567 144.14 55.0632 144.566 55.9356 144.906C58.0421 145.735 58.9145 146.054 59.5528 146.181C59.8507 146.245 60.2762 146.436 60.5103 146.585C60.7443 146.755 61.0848 146.883 61.2763 146.883C61.4678 146.883 61.9146 147.032 62.2338 147.202C62.5742 147.372 62.9998 147.521 63.1913 147.521C63.3828 147.521 63.8296 147.669 64.1488 147.84C64.4892 148.01 64.9573 148.158 65.2127 148.158C65.4467 148.158 65.7233 148.243 65.851 148.35C65.9574 148.456 66.617 148.69 67.3192 148.881C68.0213 149.073 68.9363 149.328 69.3406 149.455C69.7448 149.583 70.6172 149.817 71.2981 149.965C71.9577 150.114 72.5961 150.306 72.7025 150.369C72.8301 150.454 73.3408 150.603 73.8515 150.71C74.3621 150.816 75.3835 151.071 76.1495 151.262C76.9155 151.454 78.1496 151.73 78.9156 151.879C79.6816 152.028 80.9157 152.304 81.6817 152.474C84.5329 153.133 87.7458 153.771 90.512 154.217C91.6822 154.409 93.0653 154.642 93.5972 154.749C94.1292 154.876 95.6186 155.068 96.8953 155.195C98.1932 155.323 99.6614 155.493 100.193 155.578C101.619 155.833 106.343 155.833 107.321 155.578ZM116.854 141.27C116.833 140.845 116.535 140.059 116.237 139.527C115.662 138.57 114.237 137.316 113.683 137.316C113.535 137.316 113.088 137.189 112.705 137.019C110.619 136.126 107.024 135.445 103.917 135.318C102.513 135.275 100.704 135.126 99.8742 134.999C99.0656 134.85 97.4698 134.595 96.3633 134.425C93.8313 134.021 91.4269 133.511 90.2141 133.149C89.6821 132.979 89.0438 132.852 88.7672 132.852C88.5118 132.852 87.9161 132.724 87.4905 132.554C87.0437 132.405 86.1075 132.108 85.4053 131.874C84.7031 131.661 83.9797 131.406 83.7669 131.279C83.5328 131.151 83.1498 131.151 82.5753 131.321C82.1072 131.47 80.4688 131.576 78.8305 131.576C77.2346 131.576 75.9367 131.661 75.9367 131.768C75.9367 131.959 78.6177 132.852 79.1922 132.852C79.4688 132.852 85.6606 134.404 89.5545 135.445C90.4268 135.679 91.5333 135.956 92.0014 136.062C92.4695 136.147 93.427 136.381 94.1292 136.572C94.8313 136.763 95.9803 137.061 96.6825 137.21C98.3847 137.571 102.47 138.549 103.279 138.804C103.64 138.911 104.3 139.059 104.768 139.123C105.236 139.208 106.109 139.4 106.683 139.548C107.279 139.697 108.236 139.91 108.811 140.037C113.215 140.994 116.13 141.781 116.279 142.036C116.556 142.461 116.896 141.993 116.854 141.27ZM114.981 135.722C114.981 135.403 114.811 135.275 114.301 135.233C113.726 135.169 113.598 135.233 113.598 135.594C113.598 136.041 113.918 136.253 114.556 136.189C114.832 136.168 114.981 135.998 114.981 135.722ZM199.348 134.893C201.922 134.552 204.412 134 204.752 133.681C204.88 133.575 205.157 133.49 205.391 133.49C206.072 133.49 209.88 131.491 211.519 130.279C212.306 129.684 213.455 128.664 214.029 128.005C215.2 126.708 216.413 124.497 216.242 124.05C216.115 123.732 215.072 123.285 214.434 123.285C214.008 123.285 210.242 122.137 209.178 121.669C208.795 121.499 208.306 121.372 208.072 121.372C207.859 121.372 207.625 121.287 207.561 121.18C207.497 121.074 207.114 120.925 206.71 120.862C206.284 120.776 205.689 120.585 205.369 120.415C205.05 120.245 204.646 120.096 204.497 120.096C204.348 120.096 204.071 120.011 203.859 119.905C203.667 119.799 202.774 119.48 201.901 119.182C199.965 118.523 199.029 118.204 198.178 117.864C197.837 117.715 197.071 117.439 196.475 117.226C195.497 116.886 195.092 116.737 193.603 116.078C192.262 115.504 187.73 113.718 187.602 113.718C187.517 113.718 186.836 113.442 186.092 113.081C185.326 112.74 184.602 112.443 184.475 112.443C184.347 112.443 184.07 112.358 183.858 112.23C183.666 112.124 183.028 111.826 182.432 111.592C181.857 111.337 181.091 111.018 180.73 110.848C180.389 110.678 178.666 109.956 176.9 109.233C175.155 108.51 173.623 107.851 173.495 107.766C173.389 107.681 173.048 107.532 172.751 107.447C172.176 107.256 170.495 106.512 167.474 105.087C166.389 104.577 165.452 104.152 165.41 104.152C165.346 104.152 164.176 103.62 162.793 102.961C161.431 102.323 159.92 101.601 159.452 101.388C158.984 101.175 157.601 100.516 156.367 99.9424C148.792 96.3708 147.196 95.8606 143.685 95.8606C142.302 95.8606 140.898 95.9882 140.281 96.1582C139.706 96.3283 138.813 96.5409 138.281 96.6047C137.77 96.6897 137.195 96.8385 137.004 96.9448C136.663 97.1149 135.663 97.3913 133.493 97.8802C132.791 98.0503 131.642 98.3267 130.94 98.518C130.238 98.7094 129.259 98.9645 128.748 99.0708C127.408 99.3471 125.854 99.8999 125.705 100.155C125.45 100.559 125.769 103.174 126.216 104.577C126.578 105.682 126.94 106.235 128.11 107.468C129.578 108.999 130.599 109.722 133.599 111.231C134.472 111.678 135.536 112.252 135.94 112.485C136.344 112.719 137.302 113.272 138.068 113.676C138.834 114.08 139.834 114.675 140.302 114.973C141.6 115.802 141.77 115.908 142.898 116.482C143.451 116.758 144.323 117.269 144.813 117.588C145.302 117.906 145.749 118.183 145.813 118.183C145.877 118.183 146.877 118.736 148.005 119.416C149.898 120.521 150.92 121.032 153.856 122.413C154.409 122.669 154.92 122.966 154.984 123.094C155.069 123.2 155.345 123.285 155.601 123.285C155.877 123.285 156.218 123.413 156.345 123.561C156.473 123.732 156.984 124.029 157.473 124.242C157.984 124.454 159.154 124.986 160.09 125.432C161.027 125.857 162.324 126.431 162.963 126.687C163.601 126.942 164.303 127.239 164.495 127.346C164.708 127.452 165.474 127.728 166.197 127.983C166.942 128.217 167.729 128.494 167.963 128.6C168.665 128.919 170.261 129.472 171.048 129.663C172.282 129.982 173.836 130.449 175.517 131.023C176.389 131.321 177.283 131.576 177.517 131.576C177.73 131.576 178.347 131.725 178.9 131.895C180.049 132.256 181.751 132.66 184.134 133.171C185.07 133.383 186.134 133.617 186.475 133.723C186.836 133.808 187.602 133.957 188.177 134.021C188.773 134.085 189.624 134.255 190.113 134.361C191.22 134.659 194.709 135.126 195.943 135.169C196.475 135.169 198.007 135.063 199.348 134.893ZM113.705 133.702C115.811 133.468 118.407 132.958 119.556 132.533C121.216 131.916 123.769 130.811 124.663 130.301C126.599 129.216 132.025 126.623 132.855 126.41C133.089 126.346 134.217 125.9 135.366 125.432C136.515 124.943 137.621 124.561 137.812 124.561C138.025 124.561 138.451 124.412 138.791 124.242C139.11 124.072 139.557 123.923 139.749 123.923C139.94 123.923 140.366 123.774 140.706 123.604C141.025 123.434 141.43 123.285 141.6 123.285C141.749 123.285 142.621 123.051 143.536 122.732C144.451 122.435 145.643 122.095 146.196 121.988C147.175 121.776 147.834 121.287 147.558 121.01C147.473 120.925 146.962 120.67 146.409 120.415C145.196 119.905 142.834 118.587 141.323 117.609C140.728 117.226 140.174 116.907 140.11 116.907C140.025 116.907 139.579 116.652 139.068 116.333C137.812 115.504 137.366 115.249 137.004 115.079C136.834 114.994 136.28 114.654 135.791 114.314C134.812 113.655 134.068 113.57 132.833 114.016C131.174 114.59 128.599 114.973 122.322 115.525C121.556 115.61 120.024 115.908 118.918 116.206C117.811 116.503 116.513 116.822 116.045 116.929C115.577 117.035 115.003 117.205 114.769 117.311C114.535 117.396 113.811 117.63 113.173 117.821C110.705 118.544 107.321 119.714 107.13 119.905C107.002 120.011 106.726 120.096 106.513 120.096C106.279 120.096 105.555 120.373 104.896 120.713C104.236 121.053 102.662 121.818 101.364 122.435C100.087 123.051 98.789 123.732 98.4911 123.923C97.7251 124.454 89.2353 128.706 87.8948 129.216C87.2777 129.472 86.5968 129.663 86.3628 129.663C86.15 129.663 85.8947 129.769 85.8308 129.875C85.5755 130.279 86.1713 130.705 87.1713 130.832C87.7246 130.896 88.7033 131.087 89.3417 131.257C89.98 131.406 91.3205 131.704 92.3206 131.895C93.3206 132.086 94.5122 132.342 94.959 132.469C95.8952 132.703 97.8528 132.958 101.364 133.298C102.662 133.404 104.513 133.596 105.513 133.681C108.173 133.936 111.534 133.936 113.705 133.702ZM81.8945 129.663C82.8094 129.493 83.3839 129.323 85.1925 128.642C87.1713 127.898 93.2781 124.986 95.1505 123.88C95.7037 123.561 96.257 123.285 96.3633 123.285C96.4697 123.285 96.9166 123.03 97.3634 122.732C97.8102 122.435 99.555 121.521 101.257 120.713C104.491 119.14 104.619 119.097 106.151 118.502C106.683 118.31 107.343 118.055 107.598 117.949C108.662 117.524 110.619 116.907 110.854 116.907C110.981 116.907 111.385 116.78 111.747 116.631C112.386 116.355 113.3 116.078 115.939 115.313C116.577 115.143 117.599 114.845 118.173 114.675C120.471 113.995 122.131 113.74 124.876 113.633C126.45 113.57 128.089 113.421 128.493 113.293C128.897 113.187 129.982 113.081 130.876 113.081C131.77 113.081 132.557 112.996 132.642 112.889C132.77 112.677 131.663 111.805 131.259 111.805C131.11 111.805 130.578 111.529 130.046 111.167C129.535 110.827 129.025 110.53 128.94 110.53C128.557 110.53 126.152 108.021 125.408 106.852C124.28 105.066 123.918 103.62 123.939 100.963C123.982 96.9448 125.216 93.6071 127.11 92.4804C127.94 91.9914 128.046 91.63 127.471 91.1198C127.28 90.9285 126.769 90.1419 126.386 89.3765C125.982 88.6112 125.471 87.8671 125.216 87.7396C124.173 87.1868 121.769 84.6783 119.918 82.1909C118.279 80.0012 116.79 77.8753 116.79 77.7052C116.79 77.6414 116.364 76.9824 115.833 76.2171C115.301 75.4305 114.875 74.7502 114.875 74.6864C114.875 74.6226 114.598 74.1974 114.237 73.751C113.896 73.3046 113.598 72.8368 113.598 72.7093C113.598 72.5605 113.449 72.4117 113.279 72.3479C113.109 72.2628 112.96 72.114 112.96 72.0077C112.96 71.8802 112.683 71.4337 112.322 70.9873C111.981 70.5408 111.683 70.0944 111.662 70.0094C111.662 69.9031 111.151 69.0952 110.513 68.2236C109.875 67.352 109.002 66.0977 108.556 65.4599C107.534 63.9717 106.087 62.4836 105.662 62.4836C105.3 62.4836 105.13 62.6324 104.364 63.6954C103.832 64.4394 102.151 65.8851 101.789 65.8851C101.683 65.8851 101.342 66.0126 101.044 66.1614C100.747 66.3102 99.9806 66.6079 99.3422 66.8205C98.7039 67.0331 97.9805 67.3094 97.7464 67.437C97.5123 67.5645 97.0442 67.7346 96.6825 67.8197C96.3421 67.9047 95.5122 68.1811 94.8739 68.4362C94.2356 68.6913 93.5121 68.9464 93.2781 69.0102C93.044 69.074 92.5759 69.244 92.2142 69.3928C90.363 70.2007 89.9375 70.3495 89.6609 70.3495C89.4906 70.3495 89.0438 70.4771 88.6608 70.6471C86.5117 71.54 81.554 73.4534 79.6603 74.1124C79.1922 74.2612 78.6177 74.4738 78.3836 74.5801C77.8942 74.7927 76.4048 75.3667 75.2558 75.7919C71.7024 77.11 69.8512 77.8328 68.8512 78.343C68.5107 78.5131 68.0852 78.6406 67.8724 78.6406C67.6809 78.6406 67.3192 78.7894 67.0851 78.9595C66.8723 79.1296 66.5532 79.2784 66.383 79.2784C66.234 79.2784 65.0637 79.7036 63.7871 80.2351C61.638 81.128 58.957 82.2334 55.0845 83.7854C54.2121 84.1468 53.1695 84.572 52.8077 84.7208C52.4247 84.8908 51.7651 85.1672 51.3608 85.3373C50.3821 85.7412 49.2969 86.2089 48.4245 86.5916C48.0628 86.7617 46.2116 87.527 44.3392 88.3136C42.4667 89.1002 40.8496 89.823 40.722 89.9293C40.6156 90.0356 40.4028 90.1206 40.2751 90.1206C40.1262 90.1206 39.1687 90.5033 38.1261 90.9922C37.1047 91.46 35.8706 92.034 35.4025 92.2253C30.1895 94.5425 28.3808 95.478 28.317 95.9669C28.2106 96.6685 28.7851 97.7739 30.5086 100.304C31.1044 101.154 31.6789 102.005 31.7853 102.196C31.913 102.387 32.3811 103.089 32.8492 103.727C33.3173 104.364 33.8492 105.108 34.0195 105.342C34.6578 106.278 37.7218 110.232 38.041 110.551C38.2325 110.742 38.7644 111.359 39.2325 111.933C43.1051 116.631 46.9989 120.564 50.0842 122.902C51.8715 124.242 55.6802 126.474 56.1909 126.474C56.3824 126.474 56.5952 126.559 56.659 126.665C56.8505 126.963 60.3826 128.026 63.3828 128.664C68.8086 129.854 77.9793 130.343 81.8945 129.663ZM33.2535 128.834C33.4237 128.557 34.6791 127.983 38.3814 126.474C44.0838 124.135 44.2541 124.072 46.6372 124.242C48.8501 124.391 49.148 124.263 48.233 123.498C47.9564 123.285 47.084 122.562 46.2755 121.882C44.6158 120.5 44.2115 120.436 42.6795 121.202C42.1263 121.478 40.9986 122.031 40.1475 122.456C39.2963 122.881 38.2112 123.391 37.7431 123.561C34.3599 124.837 33.5513 125.305 33.062 126.261C32.5938 127.176 32.1257 128.664 32.2321 128.855C32.3811 129.089 33.1045 129.068 33.2535 128.834ZM35.8706 122.413C36.4451 122.158 37.1898 121.839 37.5303 121.691C37.892 121.563 38.7857 121.138 39.5517 120.798C41.9348 119.692 42.488 119.458 42.8285 119.458C43.4668 119.458 43.1689 118.969 41.6369 117.332C40.1262 115.759 38.1686 113.527 36.892 111.911C36.5515 111.486 35.7642 110.53 35.1897 109.807C34.594 109.105 33.3598 107.468 32.4449 106.171C30.0831 102.876 29.9767 102.706 29.9767 102.494C29.9767 102.387 29.7426 102.09 29.4447 101.813C28.9766 101.367 28.9128 101.367 28.7851 101.707C28.7 101.898 28.7851 103.174 28.9979 104.556C29.1894 105.916 29.3383 107.638 29.3383 108.404C29.3596 109.658 29.466 110.615 29.9554 113.825C30.232 115.568 30.8065 117.439 31.4236 118.651C32.4449 120.649 34.062 122.86 34.4663 122.86C34.6791 122.86 35.3174 122.647 35.8706 122.413ZM216.37 122.031C216.37 121.691 216.221 121.074 216.03 120.628C214.966 118.098 213.434 117.099 205.199 113.718C203.454 112.996 201.688 112.273 201.327 112.103C200.944 111.933 200.305 111.678 199.944 111.507C199.561 111.359 199.007 111.125 198.709 110.997C198.071 110.721 194.965 109.445 192.752 108.574C191.879 108.234 190.986 107.851 190.794 107.745C190.581 107.638 190.049 107.426 189.624 107.256C188.751 106.937 182.049 104.237 179.006 102.982C177.964 102.557 176.73 102.047 176.261 101.877C175.793 101.686 175.112 101.409 174.729 101.26C174.368 101.09 173.963 100.963 173.836 100.963C173.708 100.963 173.006 100.686 172.282 100.346C171.048 99.7723 170.453 99.5385 168.282 98.7306C167.878 98.5818 166.474 98.0078 165.176 97.4763C163.856 96.9448 162.686 96.4984 162.58 96.4984C162.452 96.4984 161.984 96.3496 161.537 96.1582C160.133 95.5417 159.473 95.2654 158.601 94.9465C157.282 94.4575 155.899 93.926 155.154 93.6071C154.792 93.4371 154.367 93.3095 154.196 93.3095C154.026 93.3095 153.813 93.2245 153.686 93.1182C153.579 93.0331 152.835 92.7142 152.005 92.4379C151.196 92.1615 150.324 91.8214 150.09 91.6725C149.856 91.5237 149.409 91.3962 149.068 91.3962C148.728 91.3962 148.281 91.2899 148.047 91.1623C147.813 91.056 146.877 90.7584 145.983 90.5033C143.877 89.9505 141.472 90.0781 139.515 90.8222C138.77 91.1198 137.94 91.3962 137.642 91.4812C137.344 91.545 136.387 91.7788 135.514 92.034C134.642 92.2678 133.302 92.5229 132.536 92.5867C130.578 92.7568 128.663 93.4158 127.812 94.2237C126.663 95.2866 125.195 98.8369 125.876 98.8369C126.067 98.8369 126.791 98.5818 128.174 98.0078C128.833 97.7314 131.365 97.0086 133.493 96.4984C134.557 96.2433 135.897 95.9031 136.472 95.7543C141.047 94.4788 142.068 94.3087 144.77 94.4362C147.366 94.5638 149.558 95.2441 154.026 97.285C154.664 97.5826 155.686 98.0503 156.26 98.3054C156.856 98.5818 158.388 99.3046 159.665 99.8999C162.112 101.069 164.048 101.962 165.303 102.515C165.708 102.685 166.899 103.238 167.921 103.705C168.963 104.194 169.836 104.577 169.878 104.577C169.921 104.577 170.687 104.917 171.623 105.342C172.538 105.746 173.474 106.171 173.708 106.278C173.942 106.384 174.878 106.809 175.793 107.213C176.687 107.638 177.538 107.978 177.666 107.978C177.793 107.978 178.155 108.106 178.453 108.276C179.006 108.552 179.857 108.935 181.049 109.424C181.347 109.552 181.921 109.785 182.326 109.977C182.73 110.147 183.943 110.636 184.985 111.061C186.049 111.486 187.092 111.911 187.326 112.018C187.56 112.124 188.134 112.358 188.603 112.528C189.432 112.826 191.071 113.485 192.539 114.101C193.326 114.441 194.56 114.93 196.794 115.759C197.56 116.057 198.475 116.418 198.858 116.588C199.22 116.758 199.688 116.907 199.88 116.907C200.071 116.907 200.412 117.014 200.646 117.141C201.071 117.354 203.646 118.31 205.838 119.054C206.54 119.288 207.306 119.565 207.54 119.671C207.774 119.777 208.306 119.947 208.71 120.075C210.136 120.458 214.966 122.222 215.178 122.435C215.306 122.562 215.604 122.647 215.881 122.647C216.285 122.647 216.37 122.541 216.37 122.031ZM223.009 116.907C223.966 116.907 225.519 115.228 226.158 113.506C226.69 112.145 226.69 112.06 226.647 105.64C226.605 99.666 226.243 92.3316 225.732 87.3569C225.605 86.2514 225.413 83.9129 225.307 82.1484C225.179 80.4051 224.988 78.4918 224.881 77.9391C224.753 77.3863 224.668 76.4509 224.668 75.8769C224.668 74.5801 223.924 68.6488 223.477 66.5441C223.073 64.567 222.881 64.1843 221.243 62.3985C218.732 59.6561 211.285 52.3854 207.625 49.069C207.306 48.7926 206.199 47.7722 205.178 46.8368C200.135 42.2235 188.603 32.6781 185.836 30.8073C185.56 30.6372 184.538 29.8506 183.538 29.064C182.538 28.2562 181.666 27.6184 181.602 27.6184C181.538 27.6184 180.921 27.1932 180.262 26.683C177.623 24.7059 170.516 19.8588 169.559 19.4123C169.389 19.3273 168.899 18.9871 168.474 18.647C168.048 18.3281 167.644 18.0517 167.58 18.0517C167.516 18.0517 167.048 17.7754 166.537 17.4352C166.027 17.1163 165.048 16.5211 164.346 16.1384C163.644 15.7557 162.942 15.3305 162.771 15.2243C162.473 14.9691 161.899 14.629 161.154 14.2251C160.92 14.0975 160.452 13.8211 160.09 13.5873C159.75 13.3534 159.303 13.0983 159.133 13.0133C158.963 12.9495 158.473 12.6731 158.069 12.418C157.665 12.1629 156.665 11.5889 155.835 11.1425C155.026 10.696 153.813 10.0583 153.175 9.69684C150.196 8.03862 149.281 7.54966 147.004 6.44418C145.558 5.72136 144.26 5.2324 143.813 5.21114C142.983 5.18988 143.047 4.99855 142.451 9.05907C142.281 10.122 142.111 11.0787 142.047 11.2063C141.855 11.5039 141.238 19.6674 141.025 24.6421C140.345 40.9905 140.642 53.1295 142.153 68.5425C142.387 71.0085 142.621 73.0707 142.664 73.1557C142.706 73.2195 142.898 74.0486 143.068 74.9628C143.621 77.9178 143.813 78.7469 144.004 79.1721C144.132 79.406 144.409 80.0863 144.664 80.6602C145.579 82.8287 146.77 84.9759 147.473 85.7412C147.685 85.9751 148.09 86.5066 148.409 86.953C149.409 88.3986 151.132 90.0356 152.005 90.3757C152.473 90.5671 153.281 90.8647 153.813 91.0773C154.345 91.2686 155.09 91.5662 155.473 91.7363C155.856 91.9064 156.324 92.034 156.494 92.034C156.686 92.034 157.09 92.1615 157.388 92.3316C158.388 92.8631 159.516 93.3095 159.814 93.3095C159.984 93.3095 160.197 93.3945 160.324 93.4796C160.431 93.5646 161.09 93.8623 161.793 94.1386C162.495 94.3937 163.452 94.7764 163.92 94.9465C164.388 95.1165 165.154 95.4142 165.623 95.5842C168.048 96.4984 169.112 96.9236 170.304 97.4551C170.665 97.6039 171.325 97.8802 171.793 98.0503C172.261 98.2204 173.41 98.6668 174.346 99.0495C175.283 99.4322 176.432 99.8786 176.9 100.049C177.964 100.453 179.049 100.92 179.836 101.303C180.177 101.473 180.581 101.601 180.73 101.601C180.879 101.601 181.283 101.728 181.623 101.898C181.943 102.068 182.645 102.366 183.177 102.557C183.709 102.77 184.73 103.195 185.453 103.535C186.198 103.875 186.858 104.152 186.964 104.152C187.071 104.152 188.007 104.513 189.049 104.981C190.092 105.427 191.858 106.15 192.964 106.575C197.412 108.297 198.05 108.574 198.752 108.956C199.05 109.105 199.412 109.254 199.539 109.254C199.667 109.254 200.433 109.552 201.22 109.913C203.029 110.742 203.412 110.912 206.369 112.124C207.71 112.677 208.965 113.208 209.136 113.314C209.306 113.421 209.604 113.57 209.774 113.633C210.221 113.803 211.604 114.42 213.051 115.122C213.753 115.462 214.881 116.27 215.561 116.95C216.732 118.098 216.796 118.14 217.583 117.97C218.03 117.864 219.2 117.673 220.179 117.566M27.4021 93.9685C28.6362 93.352 31.913 91.7788 33.5939 91.0135C34.1258 90.7797 35.3174 90.2269 36.2536 89.8017C37.1898 89.3765 38.5303 88.7813 39.2325 88.5049C39.9347 88.2073 40.9986 87.7608 41.5731 87.4845C42.1688 87.2081 43.5093 86.6341 44.552 86.1877C45.6158 85.7625 46.5521 85.316 46.6797 85.2097C46.7861 85.1034 46.9989 85.0184 47.1691 85.0184C47.3181 85.0184 47.8926 84.8271 48.4458 84.572C50.0203 83.8917 50.4672 83.7003 51.2119 83.4027C52.9567 82.6586 53.5312 82.4035 54.0844 82.1271C54.4248 81.9571 54.8291 81.8295 55.0206 81.8295C55.1908 81.8295 55.5951 81.702 55.893 81.5531C56.2122 81.3831 56.8505 81.0854 57.3186 80.8941C57.7867 80.6815 58.4463 80.3839 58.7655 80.2138C59.106 80.0437 59.489 79.9162 59.6379 79.9162C59.7868 79.9162 60.7018 79.576 61.7018 79.1508C63.9573 78.2154 64.1488 78.1304 65.1914 77.7265C67.7235 76.7911 68.9576 76.2808 70.0427 75.7494C70.3832 75.5793 70.7875 75.4517 70.9364 75.4517C71.1066 75.4517 71.5535 75.3029 71.9365 75.1328C72.3195 74.9628 73.7876 74.3888 75.192 73.8573C76.5963 73.3258 78.0432 72.7731 78.3836 72.603C78.7453 72.4542 79.3624 72.2203 79.7667 72.0715C80.8093 71.6888 83.7669 70.6046 84.6606 70.2645C85.9372 69.7542 89.0012 68.6275 89.5545 68.4362C89.8523 68.3299 90.6183 68.0535 91.2567 67.7984C91.895 67.5433 92.7674 67.2457 93.1717 67.1181C93.576 67.0118 94.0228 66.8417 94.1292 66.7567C94.2569 66.6717 94.9165 66.4378 95.6186 66.2252C96.3208 66.0126 97.1719 65.715 97.4911 65.5449C97.8315 65.3748 98.2358 65.2473 98.3847 65.2473C99.0231 65.2473 101.619 63.993 102.491 63.2702C103.577 62.356 103.981 61.8246 104.087 61.1443C104.236 60.2088 104.087 59.9537 101.044 56.2121C100.108 55.0216 99.1507 53.8311 96.6612 50.6634C95.7463 49.4942 94.5122 47.921 93.9164 47.1769C92.278 45.0935 89.0863 40.948 86.1713 37.1425C83.1711 33.2308 81.3412 31.2112 80.0646 30.4671C79.5752 30.1908 79.022 29.7656 78.7879 29.5105C78.4475 29.1491 78.4475 29.0428 78.7028 28.8727C79.1709 28.5751 80.5327 28.8302 81.4263 29.4042C82.7668 30.2545 85.5968 33.5072 89.6609 38.8858C90.2354 39.6511 90.8099 40.4165 90.9801 40.5865C91.6184 41.3519 92.5546 42.5424 94.0866 44.5195C95.8101 46.773 97.8953 49.4517 101.385 53.8948C102.555 55.4043 103.789 57.0412 104.108 57.5514C104.747 58.5719 104.96 58.6357 105.662 57.9766C106.513 57.1688 106.343 56.1908 105.045 54.5326C104.428 53.746 103.683 52.7894 103.385 52.4067C102.47 51.1949 99.9593 47.9635 98.0656 45.6037C97.0655 44.3494 95.7888 42.7337 95.1931 41.9897C94.6186 41.2456 93.5547 39.9488 92.8525 39.0771C92.1504 38.2268 91.0439 36.7811 90.3843 35.8883C89.746 34.9741 88.9374 33.9324 88.6182 33.5285C88.2991 33.1458 87.3416 31.9765 86.4905 30.9136C84.5967 28.5751 83.1286 27.0869 82.2349 26.6192C81.8093 26.3854 81.0859 26.2578 80.1922 26.2791C78.873 26.2791 78.639 26.3641 74.3408 28.5113C67.532 31.934 49.9352 40.4803 48.4883 41.0968C48.3181 41.1605 48.0202 41.3094 47.85 41.4157C47.6798 41.5007 46.5733 42.0534 45.4031 42.6062C42.8923 43.7754 42.871 43.7967 41.7858 44.3494C41.3177 44.6045 39.9772 45.2423 38.807 45.7951C36.3387 46.9431 36.2962 46.9643 35.1897 47.5383C34.7216 47.7934 33.3811 48.4312 32.2108 48.984C28.9979 50.4721 27.7212 51.0886 25.5083 52.1516C20.5293 54.5326 16.7632 56.3184 16.6781 56.3184C16.6355 56.3184 15.5503 56.8074 14.295 57.4026C13.0396 57.9979 11.5288 58.6994 10.9331 58.9758C10.3586 59.2522 8.82657 59.9537 7.57118 60.549C6.29451 61.1443 5.18807 61.6332 5.10296 61.6332C4.82635 61.6332 3.16668 63.1426 3.16668 63.3765C3.16668 63.504 2.89007 64.2268 2.52835 64.9709C1.6134 66.8842 1.63468 68.4574 2.59218 70.4558C3.80501 72.9431 6.06046 76.1745 9.01807 79.576C10.9543 81.8295 18.6995 89.6529 21.2528 91.9489C24.3806 94.7764 25.253 95.074 27.4021 93.9685ZM130.833 91.0773C131.131 90.9072 131.663 90.7796 132.004 90.7584C132.706 90.7584 136.515 89.9718 136.855 89.7592C136.961 89.6954 137.344 89.5679 137.727 89.4616C138.089 89.3765 139.068 89.1002 139.876 88.8663C141.877 88.2923 144.494 88.2923 146.473 88.8663C149.451 89.7379 149.792 89.6317 148.175 88.3136C146.409 86.868 144.451 83.8917 143.302 80.8728C142.494 78.832 142.408 78.5343 142.025 76.8336C141.025 72.3266 140.728 70.2857 140.408 65.5662C140.302 64.0568 140.132 62.0371 140.004 61.1017C139.898 60.1663 139.749 57.7215 139.664 55.6806C139.6 53.6397 139.493 51.2374 139.451 50.3658C139.132 44.0305 139.089 38.163 139.323 31.764C139.685 21.7934 140.323 12.3543 140.813 9.86692C141.089 8.37877 141.706 6.29536 141.919 6.04025C142.025 5.93395 142.111 5.67884 142.111 5.46625C142.111 4.99855 141.579 4.97729 140.834 5.40247C140.089 5.82766 138.727 6.4867 133.068 9.1441C132.365 9.46299 130.748 10.2071 129.45 10.8023C126.663 12.0354 125.939 12.6944 125.535 14.2463C124.876 16.84 124.173 22.2611 123.812 27.6184C123.705 29.0853 123.493 31.2325 123.344 32.4017C122.982 35.293 123.003 61.3356 123.365 65.5662C123.514 67.2031 123.663 69.6054 123.727 70.881C123.769 72.1778 123.918 73.6022 124.024 74.0699C124.152 74.5376 124.322 75.8769 124.429 77.0462C124.79 80.9579 126.088 85.3373 127.642 87.9947C127.94 88.5262 128.259 89.1214 128.344 89.3128C128.663 90.1844 129.599 91.3962 129.94 91.3962C130.131 91.3749 130.535 91.2474 130.833 91.0773ZM212.54 50.7272C212.54 50.4508 212.455 50.1532 212.37 50.0469C212.285 49.9194 211.987 49.2603 211.71 48.5588C210.604 45.6888 209.774 44.0305 209.157 43.5416C208.136 42.7125 206.923 43.244 206.689 44.6045L206.561 45.4337L209.391 48.3037C210.944 49.8981 212.285 51.1949 212.391 51.1949C212.476 51.2162 212.54 51.0036 212.54 50.7272ZM119.343 39.4598C119.343 39.2897 118.748 39.0134 118.024 38.8008C117.279 38.5882 116.407 38.2905 116.045 38.1417C114.513 37.504 113.62 37.1851 112.471 36.8449L111.258 36.4835L107.045 40.7354C104.747 43.0739 102.619 45.1148 102.342 45.2848C101.917 45.54 101.853 45.71 101.981 46.199C102.066 46.5179 102.193 46.7517 102.279 46.7092C102.364 46.6667 103.768 45.9864 105.406 45.1785M149.771 5.38121C149.771 5.04107 148.792 3.23403 148.217 2.51121C147.451 1.51203 146.111 1.42699 145.089 2.29862C144.175 3.06395 144.302 3.23403 146.43 4.10566C147.217 4.44581 147.919 4.80721 147.983 4.91351C148.111 5.1261 149.281 5.7001 149.622 5.72136C149.707 5.72136 149.771 5.57255 149.771 5.38121Z" fill="rgb(0,0,0)" fill-rule="nonzero" transform="matrix(1,0,0,-1,10.8372,229.242)" />
			<path id="矢量 411" d="M17.4583 50.0979C16.7562 48.8861 15.9476 47.4405 15.671 46.8452C15.3944 46.2712 14.8199 45.0169 14.3518 44.0815C13.4581 42.232 12.2453 39.2982 12.2453 39.0218C12.2453 38.9155 11.99 38.299 11.6921 37.64C11.3942 36.9809 11.0112 36.0455 10.8622 35.5778C10.5218 34.5361 9.52175 31.6874 9.28769 31.1134C9.20258 30.8795 8.90469 30.0292 8.64936 29.2C8.37275 28.3922 8.09614 27.5206 7.98975 27.2867C7.88336 27.0529 7.60675 26.2025 7.35142 25.3734C7.09609 24.5655 6.7982 23.6514 6.67053 23.3537C6.4152 22.716 6.13859 21.8656 5.22364 18.8893C4.84064 17.6563 4.41509 16.3169 4.26615 15.913C4.09592 15.5091 3.81931 14.5949 3.62781 13.8934C3.41504 13.1918 3.13843 12.1926 2.9682 11.6612C2.81926 11.1297 2.47882 9.98168 2.22348 9.11005C1.58515 6.85657 1.18087 5.47471 0.946818 4.8582C0.861707 4.56057 0.712763 3.94405 0.627652 3.47634C0.542541 3.00864 0.414874 2.54094 0.329763 2.41338C0.0531528 2.05197 -0.117069 0.521308 0.0957083 0.20242C0.542541 -0.477876 1.11704 0.542567 1.92559 3.47634C2.11709 4.1779 2.37243 4.96449 2.47882 5.24086C2.5852 5.51723 2.67031 5.8999 2.67031 6.09123C2.67031 6.28257 2.81926 6.72901 2.98948 7.06916C3.1597 7.38805 3.30865 7.77071 3.30865 7.89827C3.30865 8.02582 3.60654 9.11005 3.96826 10.2793C4.32998 11.4486 4.75553 12.8942 4.92576 13.4682C5.62792 15.8917 6.13859 17.5287 6.30881 17.9326C6.47903 18.3791 8.64936 24.9269 9.45791 27.5631C9.73452 28.4134 10.0324 29.1575 10.1388 29.2213C10.2452 29.2851 10.3303 29.5189 10.3303 29.774C10.3303 30.0079 10.458 30.4969 10.6282 30.8583C10.7984 31.2409 11.1601 32.2189 11.4155 33.0267C11.6708 33.8558 11.9687 34.6211 12.0538 34.7274C12.1176 34.855 12.2666 35.2589 12.3517 35.6416C12.4794 36.2794 12.8624 37.1935 13.3305 38.0651C13.4369 38.2777 13.522 38.5541 13.522 38.6604C13.522 38.873 13.7773 39.532 14.5858 41.3178C14.6922 41.5517 14.9901 42.232 15.2455 42.806C15.671 43.8264 17.5647 47.6531 18.0754 48.546C18.2031 48.7798 18.5861 49.4388 18.9052 49.9916C19.267 50.6081 19.4797 51.2246 19.4372 51.586C19.3095 52.734 18.7563 52.3088 17.4583 50.0979Z" fill="rgb(0,0,0)" fill-rule="nonzero" transform="matrix(1,0,0,-1,209.217,68.084)" />
			<path id="矢量 412" d="M3.62572 16.9204C2.45544 16.8141 0.00849864 16.0488 0.00849864 15.7724C0.00849864 15.5385 -0.48089 15.5598 5.96628 15.496C10.1367 15.4535 11.7538 15.3472 14.0518 14.9645C15.6264 14.7094 17.4988 14.4118 18.201 14.3268C19.4351 14.1567 20.3501 13.9654 23.5204 13.3276C26.0099 12.7961 30.2229 11.8182 31.4996 11.4355C32.0316 11.2867 33.0316 10.9891 33.7338 10.7977C34.4359 10.6064 35.3934 10.3088 35.8615 10.16C36.3297 10.0111 37.2446 9.73477 37.8829 9.54344C39.6916 9.01196 43.6918 7.7364 44.1599 7.52381C44.3939 7.41751 45.2025 7.14114 45.9685 6.90729C47.6069 6.37581 48.2878 6.14195 50.5432 5.31284C51.4794 4.9727 52.8625 4.46247 53.6285 4.16484C54.3945 3.88847 55.5009 3.48455 56.0754 3.25069C56.6712 3.01684 57.2244 2.82551 57.3308 2.82551C57.4159 2.82551 57.7989 2.69795 58.1607 2.52788C59.2245 2.03892 63.395 0.699583 63.7993 0.699583C64.012 0.699583 64.2674 0.614546 64.3951 0.50825C64.7568 0.146843 66.4377 -0.150787 66.8633 0.0830648C67.6293 0.486991 67.0122 0.912176 64.6929 1.57121C64.2887 1.69877 63.6716 1.91136 63.3099 2.08144C62.9694 2.23025 62.246 2.50662 61.7141 2.67669C61.1821 2.86803 60.0331 3.29321 59.1607 3.67588C58.2883 4.03729 57.3734 4.41995 57.1393 4.50499C56.4797 4.78136 55.1818 5.29158 52.9902 6.1207C51.8837 6.54588 50.7773 6.97107 50.5432 7.07736C50.3092 7.1624 49.9262 7.31121 49.6921 7.35373C49.458 7.41751 48.7346 7.67262 48.0963 7.92773C47.4579 8.18284 46.6494 8.45921 46.2877 8.56551C45.6706 8.73559 44.9684 8.96944 43.4152 9.54344C42.7768 9.75603 38.7128 11.0316 35.3296 12.0733C33.1805 12.7323 30.2655 13.5189 29.3293 13.689C28.7548 13.774 28.2228 13.9016 28.1377 13.9654C27.7547 14.1992 22.9247 15.1771 20.3288 15.5598C19.6266 15.6661 18.4776 15.8574 17.7754 15.985C13.6901 16.7078 6.45566 17.1968 3.62572 16.9204Z" fill="rgb(0,0,0)" fill-rule="nonzero" transform="matrix(1,0,0,-1,138.258,73.7046)" />
		</g>
	</g>
</svg>
