<svg viewBox="0 0 268 230" xmlns="http://www.w3.org/2000/svg" xmlns:xlink="http://www.w3.org/1999/xlink" width="268.000000" height="230.000000" fill="none">
	<defs>
		<clipPath id="clipPath_11">
			<rect width="252.000000" height="230.000000" x="8.000000" y="0.000000" fill="rgb(255,255,255)" />
		</clipPath>
	</defs>
	<rect id="11" width="268.000000" height="230.000000" x="0.000000" y="0.000000" />
	<g id="11" clip-path="url(#clipPath_11)" customFrame="url(#clipPath_11)">
		<rect id="11" width="252.000000" height="230.000000" x="8.000000" y="0.000000" />
		<path id="矢量 413" d="M117.077 71.5595L120.875 55.53L128.235 36.7155L136 22.5994L140.843 19.8569L147.328 21.4727L150.443 14.2445L156.651 4.95421L162.155 2.10547L176.96 3.06214L189.803 3.10465L206.699 5.76206L222.165 8.39821L228.885 10.5879L234.859 15.6901L236.843 24.045L236.843 31.2732L242.219 31.8259L249.664 37.3321L256.427 38.5651L258.496 42.0516L242.453 110.443L240.619 113.079L237.824 113.079L239.616 119.605L237.653 145.117L235.989 164.271L224.704 176.134L201.643 195.862L174.955 214.422L161.835 221.416L161.429 224.456L159.659 227.879L156.309 228.92L153.771 225.562L152.704 224.158L136.683 216.526L133.952 192.588L133.589 177.112L116.16 173.413L103.637 185.36L92.0747 197.924L86.9973 198.52L11.392 161.975L8.896 154.917L20.2453 140.737L34.3253 129.533L37.888 130.214L40.384 124.729L39.872 121.306L40.8533 113.419L42.5387 107.53L45.632 103.767L43.072 100.515L44.0533 91.7132L49.6 87.8228L54.8267 87.0787L77.76 78.1286L98.816 73.494L117.077 71.5595Z" fill="rgb(255,255,255)" fill-rule="nonzero" />
		<path id="矢量 414" d="M58.8801 184.808L59.8188 187.975L62.0801 188.124L63.5735 186.763L58.8801 184.808Z" fill="rgb(255,255,255)" fill-rule="nonzero" />
		<path id="矢量 415" d="M224.277 176.984L217.152 183.213L217.92 186.785L221.077 186.785L224.107 180.684L224.277 176.984Z" fill="rgb(255,255,255)" fill-rule="nonzero" />
		<path id="矢量 416" d="M147.328 21.4727L140.224 20.0058L135.403 23.0884L123.499 47.6003L117.077 71.5595L123.755 73.409L128.768 79.5104L130.731 86.1858L127.445 94.3069L111.488 94.3069L96.2986 96.8792L84.3093 96.4753L70.848 98.2824L58.944 104.277L44.352 119.499L36.5866 129.98L32.192 130.852L14.08 147.264L9.2373 154.662L9.96264 160.253L17.4293 165.504L88.192 198.265L93.632 196.373L117.717 169.373L141.525 135.231L137.301 130.852L138.261 121.604L146.197 115.524L157.931 109.125L179.243 99.0264L205.291 92.755L211.584 92.4998L224.277 97.5383L229.035 103.767L229.035 110.124L240.619 113.079L244.267 103.406L258.859 40.2446L255.168 38.1824L249.664 36.7793L242.859 32.2936L236.843 31.2732L235.989 20.5372L232.043 11.7784L203.136 4.61406L164.736 2.10547L156.459 4.61406L147.328 21.4727Z" fill="rgb(1,89,188)" fill-rule="nonzero" />
		<g id="组合 83">
			<path id="矢量 417" d="M123.234 36.9407C124.322 37.3659 124.813 37.4509 124.941 37.2808C125.026 37.1533 125.261 34.1345 125.453 30.5629C125.858 23.5899 126.242 19.5506 126.775 16.8507C127.629 12.6413 128.183 11.6422 130.21 10.643C130.679 10.4091 131.639 9.94142 132.343 9.58001C133.047 9.2186 133.858 8.8572 134.157 8.77216C134.69 8.60209 135.842 8.09186 139.234 6.51868C140.215 6.05097 141.09 5.68957 141.197 5.68957C141.282 5.68957 141.837 5.45572 142.413 5.17934C142.989 4.88171 143.714 4.56283 144.013 4.43527C144.397 4.28646 144.781 3.84001 145.143 3.15971C145.975 1.50149 146.765 0.736159 148.109 0.289715C149.239 -0.0929522 149.325 -0.0929522 150.285 0.268455C151.415 0.69364 152.866 2.07549 153.079 2.9046C153.143 3.20223 153.335 3.64868 153.485 3.88253C153.634 4.11638 153.911 4.98801 154.103 5.83838L154.466 7.34779L156.087 8.13438C156.962 8.58083 158.882 9.64379 160.333 10.4942C161.805 11.3658 163.042 12.0673 163.085 12.0673C163.149 12.0673 163.575 12.3225 164.087 12.6413C165.367 13.4705 165.773 13.7256 166.263 13.9594C166.498 14.0657 167.373 14.5972 168.183 15.1074C169.015 15.6389 170.487 16.5743 171.49 17.2121C174.413 19.0404 180.237 22.9096 181.559 23.9088C182.221 24.419 182.818 24.8229 182.882 24.8229C183.095 24.8229 194.807 33.6455 195.149 34.0282C195.298 34.2408 195.533 34.3896 195.618 34.3896C195.917 34.3896 207.074 43.7011 207.394 44.1901C207.778 44.8279 208.162 44.6791 208.589 43.7224C209.143 42.4893 209.911 42.0429 211.469 42.0429C212.706 42.0429 212.77 42.0642 213.623 42.9996C214.114 43.5098 214.69 44.3389 214.903 44.8491C215.095 45.3593 215.394 46.0609 215.543 46.4011C216.141 47.7829 216.482 48.7821 216.631 49.4836C216.695 49.8876 216.845 50.334 216.93 50.4403C217.037 50.5679 217.165 51.1844 217.25 51.8434L217.399 53.0127L221.922 57.4133C226.85 62.1754 227.767 63.3659 228.322 65.6407C229.047 68.7233 229.09 68.9571 229.73 75.8451C229.858 77.1845 230.093 79.5442 230.263 81.0536C230.434 82.5843 230.626 85.0291 230.69 86.5173C230.754 88.0054 230.903 89.77 231.01 90.4502C231.138 91.1305 231.223 92.5549 231.223 93.5966C231.223 94.6596 231.373 97.3382 231.543 99.5492C231.714 101.781 231.863 105.566 231.863 107.968C231.863 112.496 231.799 112.964 230.882 114.601C230.391 115.472 230.605 115.791 231.586 115.664C232.354 115.557 232.503 115.621 233.357 116.535C234.573 117.79 235.49 120.256 236.322 124.423C236.429 124.89 236.706 126.038 236.983 126.974C237.239 127.909 237.538 129.078 237.645 129.589C237.751 130.099 237.879 130.609 237.943 130.715C238.029 130.822 238.157 131.353 238.242 131.927C238.349 132.48 238.669 133.883 238.967 135.052C239.245 136.221 239.799 138.517 240.162 140.154C240.546 141.791 240.994 143.62 241.165 144.215C241.335 144.81 241.463 145.49 241.463 145.724C241.463 145.958 241.591 146.553 241.762 147.085C241.911 147.595 242.21 148.786 242.402 149.721C242.594 150.656 242.871 151.804 242.978 152.272C243.106 152.74 243.277 153.505 243.362 153.973C243.469 154.441 243.661 155.312 243.81 155.886C243.959 156.482 244.194 157.438 244.343 158.012C244.493 158.607 244.919 160.414 245.303 162.051C245.687 163.688 246.114 165.517 246.263 166.091C246.946 168.684 247.223 169.811 247.565 171.299C247.949 173.021 248.354 174.594 248.845 176.316C249.015 176.912 249.143 177.549 249.143 177.741C249.143 177.932 249.271 178.506 249.442 178.995C249.591 179.505 249.89 180.675 250.082 181.61C250.274 182.545 250.573 183.885 250.743 184.586C251.575 188.264 251.575 188.2 251.149 189.391C250.466 191.283 249.399 191.857 245.09 192.686C244.215 192.856 243.234 192.984 242.914 192.984C242.509 192.984 241.975 193.345 240.951 194.366C239.543 195.726 236.834 197.661 236.279 197.661C236.13 197.661 235.81 197.81 235.575 197.98C235.362 198.15 234.957 198.298 234.679 198.298C234.402 198.298 233.975 198.426 233.719 198.575C233.463 198.702 232.333 198.872 231.223 198.936L229.197 199.043L229.303 200.106C229.538 202.529 229.41 206.483 229.005 208.078C227.639 213.669 226.999 215.093 224.909 217.177C224.034 218.006 223.223 218.707 223.074 218.707C222.946 218.707 222.669 218.835 222.498 218.984C221.453 219.855 213.175 222.534 211.533 222.534C211.298 222.534 210.615 222.662 210.018 222.832C208.802 223.172 207.01 223.533 205.09 223.81C204.386 223.916 202.701 224.214 201.357 224.469C200.013 224.724 198.327 225 197.623 225.064C196.919 225.149 195.767 225.34 195.063 225.468C193.037 225.85 188.301 226.403 178.85 227.317C173.602 227.828 161.314 228.742 160.887 228.657C160.802 228.635 159.287 228.572 157.517 228.487C154.573 228.359 152.61 228.019 151.33 227.424C151.095 227.317 150.669 227.126 150.37 226.998C148.215 226.127 145.186 222.832 143.245 219.239C142.925 218.644 142.583 218.027 142.477 217.857C142.114 217.219 140.343 213.435 140.343 213.308C140.343 213.222 140.13 212.712 139.874 212.16C139.639 211.607 139.298 210.778 139.17 210.31C138.935 209.566 138.829 209.46 138.295 209.502C137.506 209.545 135.522 210.055 135.309 210.267C135.074 210.48 131.447 210.459 130.999 210.204C130.807 210.097 130.253 209.842 129.783 209.63C128.546 209.077 127.351 207.801 125.986 205.527C125.303 204.421 124.685 203.358 124.578 203.188C123.469 201.402 121.783 198.341 120.717 196.173C118.989 192.707 116.663 187.733 116.663 187.541C116.663 187.478 116.535 187.116 116.365 186.755C115.298 184.246 112.162 175.424 111.415 172.681C110.05 167.834 109.325 164.879 108.962 162.753C108.855 162.073 108.663 161.286 108.557 160.967C108.429 160.67 108.343 160.053 108.343 159.607L108.343 158.799L105.847 158.692C102.263 158.544 97.7621 157.991 93.0901 157.141C92.1514 156.992 91.1274 156.843 90.8074 156.843C90.4874 156.843 89.8048 156.758 89.3141 156.63C86.7968 156.078 85.1114 155.716 84.1514 155.546C82.4234 155.27 79.9487 154.738 79.7354 154.589C79.6074 154.526 79.0101 154.377 78.4128 154.271C76.9408 154.037 74.8714 153.526 71.9701 152.697C71.3941 152.527 70.3274 152.23 69.6234 152.038C68.0874 151.613 64.8447 150.55 61.9434 149.508C60.7701 149.083 59.6181 148.679 59.3834 148.616C59.1487 148.552 58.6581 148.382 58.2741 148.212C57.9114 148.042 57.5274 147.914 57.3994 147.914C57.2927 147.914 56.2261 147.489 55.0101 146.957C53.7941 146.426 52.6847 146.001 52.5354 146.001C52.3861 146.001 52.0021 145.852 51.6607 145.682C50.5941 145.15 46.3274 143.45 46.0074 143.45C45.8367 143.45 45.6021 143.343 45.4741 143.216C45.3461 143.088 44.6847 142.897 44.0021 142.812C42.0394 142.535 39.5221 141.728 38.4981 141.069C37.6234 140.473 36.1727 139.049 35.5114 138.135C34.3381 136.477 33.9967 135.18 34.0181 132.352C34.0394 129.312 34.5514 127.654 35.7247 126.761C36.5994 126.102 36.6207 125.889 35.9167 125.337C35.4261 124.954 33.9114 122.828 33.2927 121.638C32.6101 120.341 31.5434 116.557 31.5434 115.409C31.5434 114.983 31.3941 114.176 31.2234 113.602C30.9887 112.836 30.9034 111.476 30.9034 108.606C30.9034 104.949 30.8607 104.609 30.4554 104.12C29.5594 103.014 29.0047 102.015 28.8767 101.271C28.7914 100.846 28.6421 100.442 28.5141 100.378C28.4074 100.315 27.8741 100.378 27.2981 100.527C26.4234 100.74 26.1461 100.74 25.2287 100.4C24.6527 100.187 24.0341 99.8894 23.8421 99.7193C23.6714 99.5705 23.4367 99.4429 23.3514 99.4429C23.2447 99.4429 22.5407 98.8902 21.7514 98.2099C20.9834 97.5296 19.6821 96.4454 18.8501 95.7863C12.8981 90.9817 5.13273 83.2859 2.72206 79.7781C0.503396 76.5892 0.183396 75.8451 0.0553958 73.8893C-0.0726042 72.2736 -0.00860417 71.9759 0.567396 70.4665C1.29273 68.617 2.08206 67.1926 2.65806 66.6611C3.21273 66.1934 5.6874 64.9604 9.25006 63.4085C9.61273 63.2596 10.8927 62.6644 12.1301 62.0691C13.3674 61.4739 14.9461 60.7511 15.6501 60.4322C16.3541 60.1345 17.0794 59.7944 17.2501 59.6668C17.4207 59.5605 17.7834 59.3905 18.0394 59.2629C18.2954 59.1566 19.1487 58.7739 19.9594 58.3913C20.7487 58.0299 21.9434 57.4984 22.5834 57.2008C24.5034 56.3504 25.2927 55.989 29.1967 54.0969C31.2447 53.119 33.6554 51.971 34.5301 51.5671C35.4047 51.1419 36.9407 50.4191 37.9434 49.9513C38.9461 49.4836 40.7167 48.6545 41.8901 48.1231C43.0634 47.5703 44.1727 47.0388 44.3434 46.9325C44.5141 46.805 44.8767 46.6136 45.1541 46.5073C46.0927 46.1034 48.0767 45.2105 48.6101 44.9554C49.0581 44.7428 49.6981 43.7649 50.6581 41.8941C50.7221 41.7453 51.1061 41.4476 51.5114 41.1925C52.4501 40.661 55.0101 40.576 55.4367 41.0862C55.5861 41.2563 55.8634 41.4051 56.0767 41.4051C56.2901 41.4051 56.5674 41.2563 56.7167 41.0862C56.8661 40.9162 57.0581 40.7673 57.1647 40.7673C57.3567 40.7673 60.8981 39.0879 68.1301 35.5588C70.3701 34.4746 72.8661 33.2628 73.6768 32.9014C74.5088 32.5188 75.9807 31.8172 76.9834 31.3282C78.6687 30.5204 78.9248 30.4566 80.6314 30.4566C83.3408 30.4566 84.0661 30.8605 87.0741 34.0494C91.0421 38.2162 92.5141 39.8532 96.7168 44.7003C97.0154 45.0617 97.4634 45.657 97.7408 46.0184C97.9967 46.4011 98.3168 46.7199 98.4234 46.7199C98.5514 46.6987 98.9141 46.3585 99.2341 45.9121C99.9381 44.9554 104.205 40.491 108.066 36.6005C111.373 33.2841 111.757 33.0928 113.655 33.7731C114.317 34.0069 115.234 34.2833 115.703 34.4108M168.717 226.573C178.573 225.744 184.29 225.213 186.743 224.873C187.575 224.745 188.855 224.596 189.623 224.554C190.391 224.49 191.693 224.299 192.503 224.128C193.335 223.958 194.765 223.725 195.703 223.576C198.455 223.193 199.607 223.002 202.423 222.534C203.895 222.279 205.581 222.003 206.157 221.896C206.754 221.811 207.607 221.641 208.077 221.514C208.546 221.386 209.698 221.131 210.637 220.94C219.639 219.048 223.65 217.113 225.378 213.839C225.783 213.095 226.103 212.287 226.103 212.074C226.103 211.841 226.21 211.458 226.338 211.224C226.466 210.99 226.658 210.289 226.743 209.693C226.85 209.098 227.021 208.227 227.127 207.759C227.853 204.889 227.874 204.549 227.575 201.679L227.277 198.872L226.274 198.532C224.653 197.98 223.842 197.15 221.581 193.664C221.367 193.345 221.111 192.899 220.983 192.665C220.855 192.431 220.514 191.814 220.215 191.283C219.405 189.901 216.418 183.948 215.757 182.46C215.458 181.759 215.074 180.908 214.903 180.547C213.901 178.315 213.517 177.443 213.09 176.401C212.855 175.764 212.493 174.956 212.322 174.637C212.151 174.297 212.023 173.893 212.023 173.702C212.023 173.531 211.874 173.085 211.682 172.724C210.85 171.15 210.743 170.895 210.743 170.555C210.743 170.364 210.615 169.896 210.466 169.535C210.082 168.642 209.677 167.515 209.463 166.728C209.271 166.048 208.311 163.199 207.863 161.945C207.714 161.541 207.437 160.627 207.223 159.926C206.583 157.757 206.242 156.545 206.007 155.801C205.879 155.397 205.666 154.526 205.517 153.888C205.367 153.229 205.09 152.123 204.877 151.422C204.685 150.72 204.386 149.53 204.237 148.764C204.087 147.999 203.789 146.724 203.597 145.894C203.405 145.087 203.149 143.917 203.063 143.301C202.957 142.706 202.829 142.11 202.765 141.983C202.679 141.855 202.53 140.92 202.402 139.899C202.295 138.879 202.103 137.986 201.975 137.901C201.847 137.837 200.546 137.752 199.074 137.752C197.623 137.731 196.109 137.625 195.746 137.518C195.021 137.306 191.885 136.689 190.157 136.434C189.581 136.349 188.621 136.179 188.023 136.03C187.447 135.903 186.295 135.647 185.463 135.456C181.218 134.521 179.341 134.032 178.167 133.522C177.805 133.373 177.314 133.245 177.101 133.245C176.695 133.245 171.255 131.502 169.143 130.694C168.503 130.439 167.735 130.163 167.437 130.056C166.882 129.886 162.402 127.973 160.93 127.293C160.461 127.08 159.927 126.846 159.757 126.782C159.586 126.719 159.287 126.57 159.117 126.463C158.946 126.357 157.773 125.762 156.514 125.167C155.255 124.571 154.167 123.976 154.103 123.87C153.911 123.593 153.271 123.636 152.461 123.976C151.309 124.465 150.135 124.869 148.77 125.273C148.066 125.464 147.213 125.741 146.85 125.889C146.509 126.038 145.634 126.336 144.93 126.548C141.431 127.569 137.314 129.142 134.05 130.694C133.346 131.034 131.277 132.012 129.463 132.884C125.453 134.797 122.978 135.69 121.25 135.839C120.482 135.924 120.333 136.392 120.802 137.391C120.994 137.773 121.143 138.199 121.143 138.326C121.143 138.454 121.421 139.113 121.762 139.772C123.447 143.046 123.469 146.235 121.805 149.934C121.421 150.763 121.378 151.082 121.549 151.486C121.677 151.741 121.783 152.23 121.783 152.527C121.783 152.825 121.911 153.505 122.082 154.058C122.423 155.121 122.829 156.588 123.383 158.756C124.279 162.136 124.877 164.156 125.431 165.453C126.029 166.941 127.053 168.918 127.693 169.896C128.269 170.789 128.354 171.065 128.247 171.916C128.162 172.83 128.759 176.529 129.229 177.89C129.335 178.187 129.741 179.42 130.103 180.653C131.405 184.905 133.154 189.944 133.645 190.9C133.815 191.219 133.943 191.623 133.943 191.814C133.943 192.027 134.071 192.473 134.242 192.835C134.391 193.218 134.882 194.514 135.33 195.747C135.757 196.98 136.205 198.171 136.29 198.405C136.375 198.639 136.589 199.213 136.781 199.68C137.207 200.807 137.975 202.763 138.189 203.294C138.295 203.528 138.509 204.102 138.701 204.57C139.533 206.781 139.767 207.376 140.045 207.908C140.215 208.205 140.343 208.609 140.343 208.779C140.343 208.949 140.642 209.672 140.983 210.374C141.346 211.097 141.623 211.734 141.623 211.841C141.623 212.032 144.119 217.24 144.61 218.07C147.127 222.385 149.026 224.49 151.287 225.51C152.525 226.042 154.786 226.637 156.557 226.871C157.709 227.02 165.73 226.828 168.717 226.573ZM134.306 208.694C136.205 208.248 137.677 207.801 137.89 207.631C138.018 207.504 137.933 207.1 137.634 206.526C137.378 206.037 136.866 204.868 136.503 203.932C136.119 202.997 135.693 201.913 135.522 201.53C135.351 201.147 135.223 200.743 135.223 200.616C135.223 200.488 135.074 200.042 134.882 199.617C134.69 199.17 134.413 198.511 134.242 198.128C134.071 197.746 133.943 197.278 133.943 197.108C133.943 196.917 133.815 196.47 133.645 196.109C133.047 194.727 132.834 194.11 132.343 192.665C132.066 191.857 131.639 190.645 131.383 190.007C131.127 189.37 130.829 188.477 130.722 188.03C130.615 187.584 130.423 187.074 130.317 186.861C130.21 186.67 129.762 185.394 129.357 184.055C128.93 182.715 128.482 181.44 128.375 181.249C128.269 181.036 128.183 180.675 128.183 180.419C128.183 180.186 128.077 179.782 127.949 179.548C127.458 178.612 126.498 173.957 126.498 172.362C126.477 171.639 126.349 171.002 126.135 170.683C125.623 169.96 124.514 167.876 124.322 167.26C124.237 166.962 123.959 166.197 123.703 165.559C123.085 163.965 122.551 162.307 122.125 160.67C121.911 159.904 121.655 158.948 121.527 158.544C121.399 158.14 121.143 156.885 120.951 155.78C120.546 153.399 120.311 153.25 119.223 154.589C117.751 156.396 113.293 158.501 110.903 158.544C110.135 158.544 109.837 158.905 110.05 159.585C110.135 159.883 110.37 160.903 110.562 161.839C110.775 162.774 111.031 163.922 111.138 164.39C111.266 164.858 111.437 165.729 111.543 166.303C111.629 166.899 111.799 167.6 111.927 167.898C112.034 168.195 112.311 169.046 112.503 169.811C113.357 173.021 114.359 176.274 114.551 176.508C114.658 176.614 114.743 176.912 114.743 177.188C114.743 177.443 114.871 177.975 115.042 178.357C115.213 178.74 115.49 179.442 115.661 179.909C115.831 180.377 116.13 181.142 116.301 181.61C116.471 182.078 116.919 183.268 117.282 184.267C117.666 185.267 118.093 186.372 118.263 186.712C118.434 187.074 118.754 187.839 118.989 188.413C119.202 189.008 120.077 190.879 120.909 192.601C121.741 194.302 122.423 195.747 122.423 195.832C122.423 195.896 122.658 196.321 122.914 196.768C123.191 197.193 123.81 198.277 124.279 199.149C124.749 200.02 125.346 201.083 125.602 201.487C125.837 201.891 126.157 202.487 126.285 202.827C126.413 203.146 126.605 203.401 126.69 203.401C126.775 203.401 127.031 203.762 127.266 204.209C128.653 206.93 129.741 208.014 131.703 208.63C132.791 208.971 133.069 208.971 134.306 208.694ZM231.757 197.129C233.143 196.938 234.999 196.321 236.642 195.492C238.263 194.663 240.61 192.346 241.015 191.177C241.442 189.944 241.549 187.733 241.25 186.712C241.101 186.244 240.866 185.288 240.717 184.586C240.567 183.885 240.29 182.779 240.077 182.141C239.885 181.504 239.65 180.59 239.543 180.122C239.437 179.654 239.159 178.612 238.903 177.783C238.349 175.955 237.858 174.19 237.645 173.213C237.559 172.809 237.218 171.661 236.898 170.661C236.578 169.662 236.194 168.429 236.023 167.898C235.17 165.028 233.719 160.287 233.399 159.288C233.271 158.948 233.037 158.182 232.866 157.587C232.333 155.716 231.821 154.015 231.223 152.166C230.925 151.167 230.477 149.785 230.285 149.083C230.071 148.382 229.751 147.34 229.581 146.745C229.389 146.171 229.111 145.363 228.962 144.98C228.791 144.598 228.663 144.151 228.663 143.981C228.663 143.811 228.535 143.365 228.365 142.982C228.215 142.599 227.767 141.281 227.383 140.048C226.167 136.136 225.421 133.798 225.25 133.309C224.695 131.885 223.33 127.611 222.477 124.593C222.135 123.423 221.943 123.041 221.666 123.041C221.325 123.041 221.303 123.232 221.367 124.55C221.453 126.081 221.175 127.526 220.621 128.164C220.471 128.334 220.343 128.568 220.343 128.674C220.343 128.759 220.023 129.248 219.618 129.737C216.589 133.415 212.023 136.03 206.242 137.391C205.474 137.561 204.642 137.71 204.386 137.71C203.81 137.71 203.597 138.156 203.895 138.73C204.023 138.964 204.237 139.857 204.343 140.728C204.471 141.579 204.663 142.578 204.749 142.918C204.855 143.28 205.09 144.279 205.303 145.15C205.495 146.022 205.794 147.425 205.965 148.233C206.306 149.764 206.626 150.997 207.202 153.038C207.394 153.697 207.543 154.419 207.543 154.674C207.543 154.93 207.671 155.44 207.842 155.822C207.991 156.205 208.29 157.098 208.503 157.8C209.314 160.606 209.485 161.116 210.317 163.433C210.445 163.837 210.658 164.518 210.743 164.921C210.829 165.325 211.127 166.197 211.383 166.835C211.639 167.473 211.917 168.302 212.023 168.642C212.13 169.003 212.407 169.811 212.663 170.449C212.919 171.087 213.175 171.809 213.239 172.043C213.325 172.277 213.495 172.66 213.666 172.894C213.815 173.128 213.943 173.446 213.943 173.595C213.943 173.765 214.221 174.488 214.562 175.19C214.882 175.912 215.223 176.72 215.309 176.975C215.394 177.231 215.842 178.208 216.311 179.165C216.759 180.101 217.143 180.972 217.143 181.1C217.143 181.227 217.293 181.631 217.485 181.993C217.677 182.375 217.933 182.843 218.039 183.056C218.146 183.268 218.509 183.991 218.85 184.65C219.191 185.309 219.554 186.096 219.682 186.393C219.81 186.691 220.002 187.074 220.087 187.244C220.194 187.414 220.386 187.754 220.493 188.009C221.005 189.008 221.901 190.581 222.285 191.177C222.498 191.538 222.775 192.006 222.903 192.24C223.863 194.047 225.079 195.641 225.954 196.279C226.829 196.895 229.218 197.491 230.263 197.321C230.498 197.299 231.181 197.193 231.757 197.129ZM246.797 190.794L248.183 190.326L246.434 190.177C245.133 190.071 244.535 189.922 244.045 189.561C243.703 189.306 243.277 189.157 243.106 189.221C242.807 189.327 242.487 190.985 242.701 191.347C242.85 191.623 245.261 191.304 246.797 190.794ZM248.951 188.923C249.911 188.455 249.911 188.37 249.399 186.287C249.271 185.819 248.866 184.14 248.503 182.567C248.141 180.993 247.714 179.144 247.543 178.485C247.373 177.805 247.095 176.699 246.925 176.04C246.754 175.36 246.498 174.339 246.37 173.744C246.221 173.17 246.029 172.298 245.943 171.831C245.858 171.363 245.581 170.215 245.303 169.28C245.047 168.344 244.749 167.154 244.642 166.643C244.535 166.112 244.365 165.389 244.258 165.049C244.13 164.688 243.895 163.731 243.703 162.902C243.511 162.094 243.255 161.031 243.127 160.563C242.999 160.096 242.765 159.139 242.615 158.437C242.466 157.736 242.189 156.503 241.997 155.674C241.805 154.866 241.57 153.803 241.463 153.335C241.378 152.867 241.186 152.017 241.037 151.422C240.909 150.848 240.631 149.785 240.461 149.083C240.29 148.382 240.013 147.319 239.842 146.724C239.671 146.128 239.543 145.384 239.543 145.087C239.543 144.768 239.415 144.151 239.245 143.726C239.095 143.28 238.797 142.153 238.605 141.217C238.413 140.282 238.114 138.985 237.943 138.347C237.666 137.221 237.367 135.924 236.642 132.884C236.471 132.076 236.194 130.97 236.045 130.375C235.682 129.078 235.277 127.441 235.063 126.442C234.722 124.848 233.826 121.404 233.549 120.596C233.421 120.256 233.25 119.66 233.143 119.278C233.058 118.916 232.781 118.321 232.525 117.96C231.885 117.067 231.138 117.088 230.093 118.045C228.919 119.129 228.087 119.49 226.53 119.682C223.095 120.064 222.69 120.128 222.434 120.426C222.242 120.66 222.242 120.83 222.434 121.085C222.861 121.723 223.479 123.126 223.97 124.529C224.247 125.294 224.93 127.25 225.506 128.887C226.082 130.524 226.637 132.161 226.743 132.501C226.85 132.862 227.149 133.819 227.447 134.627C227.725 135.456 228.279 137.114 228.663 138.347C229.026 139.58 229.474 140.92 229.623 141.324C229.773 141.728 230.199 143.067 230.583 144.3C230.967 145.533 231.394 146.872 231.543 147.276C231.693 147.68 231.97 148.594 232.183 149.296C232.781 151.486 233.805 154.781 234.103 155.567C234.253 155.971 234.594 157.077 234.85 158.012C235.106 158.948 235.533 160.393 235.789 161.201C236.343 162.881 237.495 166.622 237.943 168.217C238.114 168.812 238.541 170.194 238.882 171.299C239.223 172.405 239.821 174.424 240.183 175.764C240.546 177.103 240.994 178.74 241.165 179.378C241.357 180.016 241.634 181.078 241.826 181.716C241.997 182.354 242.274 183.374 242.423 183.948C242.594 184.544 242.765 185.543 242.829 186.181C242.914 187.18 243.042 187.435 243.639 187.945C245.367 189.433 247.287 189.774 248.951 188.923ZM110.071 156.97C113.57 156.46 115.725 155.546 117.815 153.633C118.775 152.761 119.223 152.187 119.223 151.847C119.223 151.571 119.522 150.784 119.863 150.082C120.226 149.36 120.503 148.701 120.503 148.594C120.503 148.488 120.631 148.127 120.802 147.786C121.293 146.787 121.442 145.065 121.079 144.746C120.909 144.619 119.97 144.364 118.989 144.194C118.007 144.024 116.535 143.726 115.703 143.556C114.893 143.365 113.485 143.088 112.61 142.918C111.735 142.748 110.391 142.472 109.623 142.28C108.855 142.089 107.511 141.813 106.637 141.643C105.762 141.494 104.759 141.26 104.397 141.154C104.055 141.047 103.181 140.835 102.477 140.686C101.773 140.537 100.621 140.282 99.9168 140.112C99.2128 139.921 98.2527 139.708 97.7834 139.602C97.3141 139.517 96.3541 139.283 95.6501 139.113C94.9461 138.943 93.9434 138.688 93.4101 138.581C92.8768 138.454 91.9167 138.22 91.2767 138.028C89.5488 137.582 85.7301 136.625 84.8767 136.434C84.0021 136.243 82.3808 135.796 80.2901 135.158C79.4794 134.903 78.4127 134.627 77.9434 134.542C77.4527 134.457 76.9408 134.308 76.7701 134.181C76.5994 134.074 75.2981 133.925 73.8901 133.84C68.0234 133.521 60.6421 131.927 57.6127 130.354C57.2927 130.184 56.9727 130.056 56.8874 130.056C56.6741 130.056 53.5167 128.164 53.0474 127.76C52.7487 127.505 52.1514 127.463 50.1034 127.548C48.5247 127.59 47.4367 127.739 47.2874 127.888C47.1381 128.037 46.9034 128.143 46.7327 128.143C46.5834 128.143 46.0074 128.334 45.4527 128.589C44.8981 128.823 44.2154 129.121 43.9167 129.227C43.6181 129.355 43.1061 129.589 42.7861 129.759C42.4447 129.929 42.0394 130.056 41.8901 130.056C41.7407 130.056 41.0581 130.333 40.3754 130.673C39.6714 130.992 38.4767 131.502 37.6874 131.778C36.8981 132.055 36.0447 132.437 35.8314 132.607C35.4047 132.926 35.4047 132.948 35.7887 134.563C36.5354 137.731 38.9674 139.984 42.4234 140.707C43.9167 141.005 46.9034 141.898 48.2901 142.429C51.3834 143.641 52.5994 144.151 52.9194 144.321C53.1327 144.428 53.8794 144.704 54.6047 144.959C55.3301 145.214 56.1621 145.554 56.4821 145.703C56.7807 145.873 57.1861 146.001 57.3781 146.001C57.5487 146.001 57.8901 146.15 58.1247 146.32C58.3381 146.49 58.7221 146.638 58.9781 146.638C59.2127 146.638 59.4901 146.724 59.6181 146.809C59.7247 146.915 60.4927 147.212 61.3034 147.468C62.1354 147.723 63.1381 148.063 63.5434 148.212C63.9487 148.382 64.6741 148.658 65.1434 148.828C66.4234 149.317 70.4767 150.508 73.8901 151.422C74.5941 151.613 75.6394 151.911 76.2154 152.081C76.7701 152.23 77.4741 152.378 77.7514 152.378C78.0288 152.378 78.6687 152.506 79.1594 152.676C79.6714 152.825 80.8447 153.123 81.7834 153.335C82.7221 153.526 83.8314 153.782 84.2367 153.888C84.6634 153.973 85.6234 154.164 86.3701 154.292C87.1381 154.398 88.8234 154.696 90.1034 154.951C91.4047 155.206 93.1754 155.461 94.0501 155.567C94.9248 155.652 96.3327 155.844 97.1434 155.971C100.621 156.567 101.346 156.652 104.162 156.843C105.805 156.97 107.191 157.119 107.255 157.162C107.405 157.311 107.81 157.289 110.071 156.97ZM121.143 142.918C121.143 141.664 119.479 139.41 118.178 138.858C116.599 138.199 113.186 137.242 111.01 136.88C110.306 136.753 108.194 136.604 106.317 136.54C103.074 136.434 100.514 136.136 97.1434 135.477C96.3327 135.329 94.8394 135.031 93.8368 134.84C92.8341 134.648 91.7247 134.414 91.3621 134.287C91.0208 134.181 90.2954 134.01 89.7621 133.904C89.2501 133.798 88.4394 133.564 87.9488 133.373C87.1808 133.096 86.9248 133.096 85.9221 133.351C85.2821 133.522 83.8741 133.67 82.8074 133.67C81.2074 133.67 80.8234 133.734 80.8234 133.989C80.8234 134.181 81.1221 134.351 81.6341 134.436C82.0608 134.499 82.9567 134.691 83.5967 134.84C84.2367 134.988 86.1141 135.414 87.7568 135.775C89.3994 136.158 91.2768 136.604 91.9168 136.753C92.5568 136.923 93.7728 137.199 94.5834 137.391C95.4154 137.582 96.6101 137.88 97.2501 138.028C97.8901 138.199 99.1061 138.475 99.9168 138.666C100.749 138.858 101.986 139.134 102.69 139.304C103.394 139.453 104.738 139.75 105.677 139.942C108.663 140.558 110.349 140.941 111.053 141.154C111.437 141.26 112.205 141.43 112.759 141.536C113.335 141.621 114.466 141.855 115.277 142.046C116.109 142.238 117.41 142.535 118.178 142.684C118.946 142.833 119.757 143.067 119.991 143.194C120.695 143.62 121.143 143.513 121.143 142.918ZM119.181 137.029C119.117 136.349 119.074 136.328 118.199 136.349C116.813 136.37 116.621 136.753 117.751 137.263C119.095 137.858 119.266 137.837 119.181 137.029ZM204.386 135.881C206.306 135.562 209.442 134.648 210.957 133.947C214.071 132.544 215.053 131.906 217.079 129.907C218.893 128.143 219.703 126.846 219.767 125.634C219.81 124.912 219.767 124.869 218.957 124.699C217.421 124.38 212.109 122.786 208.717 121.616C207.543 121.212 205.858 120.638 204.983 120.362C204.109 120.064 203.191 119.746 202.957 119.639C202.722 119.533 202.146 119.299 201.677 119.15C199.223 118.3 198.05 117.853 197.538 117.598C197.239 117.428 196.877 117.301 196.727 117.301C196.578 117.301 196.151 117.173 195.767 117.003C194.509 116.472 193.613 116.11 190.903 115.068C188.237 114.048 188.023 113.963 186.637 113.41C186.231 113.24 185.506 112.964 185.037 112.772C182.413 111.731 180.194 110.795 179.042 110.264C178.317 109.924 177.591 109.647 177.421 109.647C177.25 109.647 177.037 109.562 176.93 109.456C176.802 109.35 175.863 108.903 174.797 108.478C173.751 108.053 172.599 107.564 172.237 107.394C171.895 107.245 170.061 106.416 168.183 105.587C166.306 104.758 164.151 103.78 163.383 103.44C156.941 100.463 155.17 99.698 152.823 98.9114L150.477 98.1248L147.383 98.2311C145.677 98.2949 144.013 98.4437 143.65 98.5713C143.309 98.6988 142.007 99.0602 140.77 99.3579C139.533 99.6555 137.421 100.187 136.077 100.548C134.733 100.889 133.047 101.292 132.343 101.463C130.85 101.781 129.975 102.1 129.805 102.398C129.719 102.526 129.783 103.248 129.911 104.035C130.658 108.351 132.343 110.306 137.421 112.836C139.085 113.665 140.599 114.431 140.77 114.537C142.562 115.621 145.463 117.301 145.549 117.301C145.613 117.301 146.615 117.875 147.767 118.576C148.941 119.278 149.943 119.852 150.007 119.852C150.093 119.852 150.605 120.128 151.181 120.468C153.143 121.616 163.917 126.867 164.322 126.867C164.407 126.867 165.047 127.165 165.773 127.505C166.477 127.867 167.223 128.143 167.437 128.143C167.671 128.143 167.885 128.228 167.97 128.356C168.034 128.462 168.397 128.653 168.781 128.759C169.165 128.866 170.189 129.206 171.063 129.504C171.938 129.822 173.154 130.205 173.73 130.396C174.327 130.588 175.138 130.843 175.543 130.992C176.269 131.268 177.506 131.629 179.981 132.31C180.642 132.48 181.645 132.777 182.178 132.948C182.733 133.118 183.351 133.245 183.543 133.245C183.757 133.245 184.418 133.373 185.015 133.543C186.103 133.862 187.853 134.223 190.903 134.818C191.778 134.988 193.079 135.222 193.783 135.371C194.487 135.499 195.874 135.711 196.855 135.818C197.858 135.924 198.711 136.051 198.754 136.115C198.989 136.349 202.53 136.2 204.386 135.881ZM117.943 134.733C121.783 134.244 123.682 133.67 127.223 131.97C134.199 128.611 138.594 126.719 141.197 125.911C141.837 125.698 142.711 125.422 143.117 125.273C143.522 125.103 144.397 124.826 145.037 124.635C145.677 124.465 146.551 124.167 146.957 124.019C147.362 123.849 148.471 123.551 149.41 123.338C150.349 123.147 151.181 122.934 151.287 122.892C151.65 122.701 150.946 122.02 150.007 121.659C149.453 121.446 148.514 121 147.917 120.681C147.341 120.341 146.423 119.831 145.89 119.533C145.357 119.235 144.781 118.916 144.61 118.789C143.522 118.13 141.026 116.705 140.727 116.599C140.514 116.535 140.343 116.387 140.343 116.28C140.343 115.876 139.085 115.536 138.487 115.77C138.146 115.898 137.549 116.068 137.143 116.131C136.738 116.216 136.119 116.344 135.757 116.45C134.007 116.939 131.618 117.301 128.717 117.513C125.709 117.747 124.493 117.917 122.957 118.364C122.615 118.449 121.741 118.704 121.037 118.895C120.333 119.086 119.373 119.384 118.903 119.533C118.434 119.66 117.474 119.958 116.77 120.149C116.066 120.362 114.765 120.766 113.89 121.064C113.015 121.361 111.97 121.68 111.565 121.765C111.181 121.871 110.754 122.042 110.626 122.169C110.498 122.297 110.285 122.403 110.135 122.403C109.879 122.403 105.975 124.146 105.357 124.529C105.186 124.635 104.503 124.975 103.863 125.273C103.223 125.571 102.498 125.932 102.263 126.06C101.623 126.421 99.9808 127.229 99.3834 127.484C99.0848 127.611 98.7008 127.803 98.5301 127.888C96.6528 128.951 93.3461 130.545 91.8741 131.077C91.0208 131.396 90.1247 131.757 89.9114 131.885C89.3994 132.203 89.6554 132.607 90.3594 132.607C90.6581 132.607 91.6394 132.735 92.5354 132.905C93.4314 133.075 95.1168 133.373 96.2901 133.564C97.4634 133.755 98.8288 134.01 99.3194 134.117C100.237 134.308 103.565 134.627 107.703 134.925C110.797 135.137 115.511 135.052 117.943 134.733ZM86.2634 131.587C87.0954 131.353 88.3114 130.907 88.9727 130.609C89.6341 130.311 90.2314 130.056 90.3167 130.056C90.5514 130.056 94.9674 127.93 101.623 124.593C107.341 121.723 108.941 121 111.437 120.171C112.269 119.916 113.165 119.597 113.463 119.469C113.762 119.363 114.573 119.108 115.277 118.895C115.981 118.704 116.941 118.406 117.41 118.257C118.199 118.002 118.946 117.79 121.89 116.982C122.487 116.833 123.49 116.557 124.151 116.365C124.813 116.174 126.093 116.025 127.031 116.004C127.949 116.004 129.485 115.919 130.423 115.813C131.362 115.706 133.282 115.515 134.69 115.387C136.098 115.26 137.293 115.111 137.335 115.047C137.57 114.813 136.951 114.218 136.311 114.069C134.775 113.665 131.895 111.688 130.679 110.221C128.866 107.989 128.183 105.948 128.183 102.781C128.183 98.9965 129.101 96.4666 131.063 94.8509L132.002 94.0643L131.362 93.2565C131.021 92.8313 130.743 92.3848 130.743 92.2573C130.743 92.151 130.039 91.6408 129.207 91.1305C127.437 90.0676 123.533 86.2834 122.338 84.4977C121.911 83.8599 121.207 82.9245 120.759 82.4142C119.757 81.2662 114.743 74.6334 114.743 74.4633C114.743 74.3782 114.381 73.8893 113.933 73.3365C113.463 72.7838 112.375 71.4232 111.479 70.2965C109.41 67.7028 108.343 66.6824 107.831 66.7462C107.597 66.7887 107.213 67.2139 106.914 67.7454C106.658 68.2556 106.253 68.8083 106.061 68.9571C105.143 69.6587 103.501 70.6791 103.117 70.8067C102.882 70.8705 102.157 71.1256 101.517 71.3807C100.877 71.6358 100.109 71.8909 99.8101 71.9547C99.5114 71.9972 98.9994 72.1673 98.6368 72.3373C98.2954 72.4862 97.6554 72.72 97.2501 72.8688C96.1834 73.2302 93.9221 74.0593 92.5568 74.5696C91.9168 74.8247 90.8074 75.2286 90.1034 75.4625C88.7168 75.9514 87.6074 76.3554 86.2634 76.8443C85.7941 77.0356 85.0687 77.2908 84.6634 77.4396C84.2581 77.5884 83.2127 78.0136 82.3381 78.375C81.4847 78.7364 80.6314 79.034 80.4607 79.034C80.2901 79.034 79.8848 79.1616 79.5861 79.3316C79.2661 79.5017 78.6261 79.7781 78.1567 79.9482C77.6874 80.1182 76.9194 80.4159 76.4501 80.5859C75.9808 80.756 74.8927 81.2025 74.0181 81.5639C73.1647 81.9253 72.3327 82.2229 72.1834 82.2229C72.0341 82.2229 71.2021 82.5205 70.3487 82.8819C69.4741 83.2433 68.3861 83.6898 67.9167 83.8599C66.8714 84.2638 65.7621 84.7315 64.9727 85.1142C64.6314 85.2842 64.2474 85.4118 64.0767 85.4118C63.8421 85.4118 62.9034 85.7945 60.0234 87.0062C59.6821 87.1551 58.9567 87.4527 58.4234 87.644C57.8901 87.8566 57.2074 88.133 56.8874 88.3031C56.5887 88.4731 56.2261 88.6007 56.0981 88.6007C55.9701 88.6007 55.2661 88.8771 54.5407 89.196C53.7941 89.5361 52.7701 89.9825 52.2367 90.1951C51.7034 90.3865 50.6794 90.8329 49.9541 91.1731C49.2074 91.5132 48.5461 91.7896 48.4607 91.7896C48.2687 91.7896 44.3221 93.4265 42.2527 94.362C41.5274 94.7021 40.8234 94.9785 40.6954 94.9785C40.5674 94.9785 40.2047 95.106 39.9061 95.2761C39.5861 95.4249 38.7114 95.8501 37.9434 96.1902C37.1754 96.5304 35.8954 97.1469 35.0634 97.5296C31.6074 99.1453 30.9887 99.4217 30.6474 99.528C30.0287 99.7193 30.1781 100.825 30.9674 101.888C31.3301 102.398 32.0341 103.355 32.5034 104.035C33.2927 105.14 34.0394 106.118 35.3407 107.67C35.5967 108.01 36.5994 109.222 37.5594 110.391C38.5194 111.561 39.9274 113.198 40.7167 114.006C41.5061 114.835 42.7647 116.174 43.5114 116.982C44.8127 118.406 49.2287 122.701 49.8901 123.211C50.0607 123.338 50.5941 123.764 51.0634 124.167C52.4074 125.294 54.6474 126.867 54.9247 126.867C55.0527 126.867 55.2874 127.016 55.4367 127.186C55.6714 127.463 59.0634 129.206 59.4261 129.206C59.5114 129.227 59.9807 129.397 60.4501 129.631C60.9194 129.865 61.4954 130.035 61.7301 130.056C61.9434 130.056 62.5194 130.184 63.0101 130.354C64.3114 130.8 65.8047 131.098 67.7674 131.332C68.7274 131.438 69.6447 131.587 69.7727 131.672C70.2634 131.991 73.8474 132.14 79.2234 132.076C84.0234 132.033 84.9621 131.97 86.2634 131.587ZM36.5354 131.14C36.6847 130.928 38.3914 130.056 38.6687 130.056C38.7754 130.056 39.4367 129.78 40.1621 129.44C42.0394 128.526 46.0074 126.931 47.0101 126.676C47.4794 126.548 48.3541 126.442 48.9727 126.442C50.9567 126.442 51.2127 126.102 49.8474 125.294C49.3354 124.997 48.5461 124.38 48.0767 123.912C47.6287 123.423 47.0741 123.041 46.8821 123.041C46.6901 123.041 45.8794 123.381 45.0687 123.827C42.7647 125.039 41.7194 125.528 41.0794 125.677C39.7354 125.996 37.3034 127.314 36.7914 127.994C36.2154 128.738 35.5967 130.269 35.5967 130.928C35.5967 131.353 36.3221 131.502 36.5354 131.14ZM39.5861 124.316C40.3114 123.976 41.0367 123.678 41.1647 123.678C41.2927 123.678 41.6767 123.53 42.0181 123.36C42.3594 123.19 42.9141 122.892 43.2554 122.722C43.5967 122.552 43.9807 122.403 44.1301 122.403C44.2794 122.403 44.6634 122.212 44.9834 121.978L45.5807 121.553L42.9781 118.938C40.3327 116.259 36.2794 111.667 34.4234 109.222C33.8474 108.457 33.2927 107.798 33.1861 107.755C33.1007 107.713 32.9087 107.436 32.8021 107.118C32.5887 106.607 32.5461 106.586 32.3114 106.926C32.1194 107.203 32.0767 107.585 32.2047 108.308C32.3114 108.882 32.5034 110.243 32.6101 111.348C32.9087 113.942 33.6341 118.109 33.9114 118.789C34.0394 119.086 34.2741 119.597 34.4447 119.916C34.6154 120.256 34.7434 120.638 34.7434 120.766C34.7434 121 35.3621 121.978 36.8767 124.167C37.1754 124.614 37.5807 124.954 37.8154 124.954C38.0287 124.954 38.8394 124.678 39.5861 124.316ZM219.959 122.828C219.895 121.935 219.234 120.596 218.466 119.788C217.975 119.278 214.967 117.301 214.669 117.301C214.626 117.301 213.986 117.024 213.239 116.684C212.514 116.344 211.533 115.94 211.063 115.749C209.506 115.175 206.818 114.091 205.41 113.474C204.642 113.155 203.597 112.709 203.063 112.517C202.53 112.305 201.719 111.965 201.25 111.773C200.503 111.433 199.501 111.05 196.621 109.945C194.615 109.201 193.911 108.903 192.653 108.329C191.927 108.01 191.245 107.734 191.138 107.734C191.031 107.734 190.242 107.436 189.389 107.075C188.514 106.714 187.447 106.288 187.021 106.118C184.994 105.374 184.354 105.119 183.821 104.843C183.522 104.673 183.117 104.545 182.925 104.545C182.754 104.545 182.242 104.396 181.794 104.205C180.621 103.695 178.743 102.951 176.994 102.292C176.546 102.122 175.778 101.845 175.287 101.654C174.775 101.463 174.093 101.186 173.73 101.037C173.389 100.889 172.706 100.633 172.237 100.442C171.767 100.272 170.999 99.9744 170.53 99.8043C170.061 99.613 168.823 99.1665 167.757 98.7839C166.711 98.4225 165.069 97.8272 164.13 97.4658C163.191 97.1257 162.082 96.7217 161.677 96.5517C159.33 95.7013 157.218 94.8934 156.599 94.6383C156.215 94.4682 155.767 94.3407 155.597 94.3407C155.405 94.3407 155.106 94.2557 154.893 94.1281C154.125 93.6817 152.482 93.1927 150.114 92.64C148.749 92.3423 145.378 92.3848 144.461 92.725C142.178 93.5328 139.49 94.1706 136.077 94.6808C133.602 95.0422 132.855 95.4037 131.746 96.7005C130.957 97.6146 129.826 100.336 130.039 100.825C130.167 101.186 130.445 101.229 130.637 100.952C130.701 100.846 131.405 100.548 132.194 100.293C132.983 100.038 133.815 99.7618 134.05 99.6555C134.285 99.5492 134.903 99.3791 135.437 99.2516C135.97 99.1453 136.973 98.8902 137.677 98.6988C138.381 98.5075 139.533 98.2311 140.237 98.0823C140.941 97.9122 142.242 97.5721 143.117 97.2957C144.461 96.8918 145.229 96.8068 147.81 96.8068C150.925 96.7855 152.354 97.0406 153.975 97.8697C154.274 98.0398 154.637 98.1674 154.765 98.1674C155.021 98.1674 157.303 99.1028 159.33 100.017C159.97 100.315 160.802 100.676 161.143 100.825C162.658 101.484 164.407 102.292 165.41 102.738C166.647 103.312 167.863 103.865 171.383 105.396C172.791 106.012 174.477 106.756 175.117 107.032C175.757 107.33 176.674 107.713 177.143 107.883C177.613 108.074 178.701 108.542 179.554 108.925C180.429 109.328 181.218 109.647 181.303 109.647C181.41 109.647 181.751 109.775 182.093 109.945C183.053 110.434 184.226 110.923 184.461 110.923C184.589 110.923 184.951 111.05 185.293 111.221C186.253 111.71 187.426 112.198 187.661 112.198C187.789 112.198 188.151 112.326 188.493 112.496C188.813 112.666 189.517 112.964 190.05 113.176C190.583 113.368 191.309 113.665 191.693 113.814C192.055 113.984 192.503 114.112 192.674 114.112C192.866 114.112 193.058 114.197 193.122 114.303C193.186 114.388 193.89 114.686 194.679 114.962C195.469 115.217 196.237 115.515 196.343 115.6C196.471 115.685 197.175 115.961 197.943 116.238C198.711 116.514 199.437 116.79 199.543 116.876C199.671 116.961 200.055 117.088 200.397 117.173C200.973 117.301 203.917 118.385 204.77 118.768C204.941 118.853 207.543 119.703 210.53 120.681C213.517 121.638 216.653 122.701 217.463 123.041C218.295 123.36 219.191 123.615 219.49 123.615C219.959 123.572 220.023 123.487 219.959 122.828ZM223.33 118.321C225.335 118.002 227.191 117.322 227.874 116.684C228.983 115.664 229.815 113.687 230.029 111.539C230.135 110.37 229.837 98.38 229.645 96.254C229.602 95.8501 229.453 93.7879 229.325 91.6833C229.197 89.5786 229.005 87.2401 228.877 86.4748C228.77 85.7094 228.663 84.5614 228.663 83.9236C228.663 83.2859 228.535 81.5639 228.343 80.097C228.173 78.6301 227.938 76.2916 227.81 74.8885C227.319 69.8713 226.786 66.321 226.317 65.1092C226.189 64.7691 225.719 64.0462 225.293 63.5148C224.205 62.1967 219.511 57.5196 216.183 54.4796C214.669 53.0977 212.941 51.5033 212.343 50.9505C210.679 49.3773 209.421 48.2506 208.738 47.7191C208.013 47.1664 207.309 46.5499 206.157 45.4869C205.687 45.0405 204.877 44.3602 204.343 43.9562C203.81 43.5523 203.341 43.1696 203.277 43.0846C203.213 42.9996 202.167 42.1067 200.93 41.1075C199.693 40.0871 198.498 39.0879 198.263 38.8965C197.005 37.8336 194.381 35.7289 193.975 35.4525C193.719 35.2825 191.01 33.2416 187.938 30.9243C184.887 28.6283 182.285 26.7362 182.178 26.7362C182.071 26.7362 181.943 26.5874 181.858 26.4173C181.794 26.2473 181.645 26.0985 181.495 26.0985C181.367 26.0985 180.898 25.8221 180.45 25.4607C180.002 25.0993 179.575 24.8229 179.511 24.8229C179.447 24.8229 178.829 24.3977 178.125 23.8662C177.442 23.3348 176.802 22.9096 176.717 22.9096C176.631 22.9096 176.205 22.6332 175.757 22.2718C175.309 21.9316 174.903 21.634 174.839 21.634C174.775 21.634 174.093 21.2088 173.325 20.6773C172.535 20.1459 171.874 19.7207 171.831 19.7207C171.746 19.7207 169.655 18.3813 169.25 18.0625C168.951 17.8286 166.967 16.6381 166.583 16.468C166.413 16.383 165.986 16.1279 165.623 15.894C165.282 15.6602 164.834 15.405 164.663 15.32C164.493 15.2562 163.959 14.9373 163.49 14.6397C163.021 14.3421 162.317 13.9169 161.911 13.7043C161.506 13.4917 160.802 13.0665 160.311 12.7476C159.458 12.1949 158.242 11.5359 156.343 10.5367C155.81 10.2816 154.722 9.66505 153.89 9.17609C153.079 8.70838 151.821 8.04935 151.117 7.7092C150.413 7.39031 149.197 6.79505 148.407 6.41238L146.957 5.68957L146.658 6.17853C146.487 6.43364 146.253 7.32653 146.125 8.13438C145.762 10.7705 145.463 12.9815 145.25 14.6185C144.717 18.5302 144.311 29.4787 144.29 39.4918C144.29 49.5262 144.503 55.4575 145.143 63.7273C145.655 70.1051 145.698 70.5303 145.997 72.7625C146.573 76.8443 146.786 77.886 147.426 79.9907C148.087 82.1166 148.258 82.5205 148.983 83.9236C149.197 84.3276 149.581 85.1142 149.879 85.6669C150.157 86.2197 150.477 86.7299 150.583 86.7936C150.69 86.8574 151.117 87.4102 151.543 88.0267C151.949 88.6432 152.759 89.6637 153.357 90.3014C153.933 90.9392 154.423 91.5345 154.423 91.5982C154.423 91.7258 155.319 92.1722 156.13 92.4274C156.429 92.5337 157.197 92.81 157.837 93.0651C158.477 93.3203 159.245 93.5966 159.543 93.7029C159.842 93.8092 160.61 94.0856 161.25 94.3407C161.89 94.5958 162.658 94.8722 162.957 94.9785C163.255 95.0848 164.023 95.3611 164.663 95.6162C165.303 95.8501 166.413 96.254 167.117 96.4879C167.821 96.743 168.695 97.0619 169.079 97.2319C169.442 97.402 169.869 97.5296 170.039 97.5296C170.21 97.5296 170.53 97.6784 170.765 97.8485C170.978 98.0185 171.319 98.1674 171.511 98.1674C171.81 98.1674 172.962 98.6138 175.693 99.7831C176.055 99.9531 176.461 100.081 176.567 100.081C176.695 100.081 177.421 100.378 178.21 100.718C178.999 101.08 179.767 101.356 179.917 101.356C180.066 101.356 180.834 101.654 181.623 101.994C182.413 102.355 183.181 102.632 183.33 102.632C183.479 102.632 183.885 102.759 184.226 102.929C185.335 103.482 187.959 104.545 188.237 104.545C188.407 104.545 188.791 104.673 189.133 104.843C190.157 105.353 191.117 105.757 193.89 106.777C195.362 107.33 196.727 107.862 196.919 107.968C197.133 108.074 197.666 108.287 198.093 108.436C199.117 108.818 204.215 110.859 205.197 111.306C205.602 111.476 206.285 111.773 206.69 111.943C207.095 112.135 207.735 112.39 208.077 112.539C208.439 112.687 209.634 113.176 210.743 113.602C211.853 114.027 213.261 114.601 213.879 114.877C214.477 115.154 215.031 115.387 215.095 115.387C215.458 115.387 218.829 117.577 219.319 118.109C219.938 118.81 220.301 118.831 223.33 118.321ZM28.4927 98.5075C28.8127 98.3374 29.5167 98.0185 30.0501 97.7847C32.6527 96.6154 34.9141 95.5737 35.4261 95.2974C35.7247 95.1273 36.0874 94.9785 36.1941 94.9785C36.3221 94.9785 37.3247 94.5533 38.4127 94.0431C40.7381 92.9588 48.0127 89.8762 48.2261 89.8762C48.3327 89.8762 48.9941 89.5999 49.7194 89.2597C50.4661 88.9408 51.5967 88.4519 52.2367 88.1968C53.4314 87.7291 53.9434 87.4952 55.1167 87.0062C55.4794 86.8574 56.2901 86.5173 56.9301 86.2834C57.5701 86.0283 58.2954 85.7307 58.5301 85.6244C58.7647 85.5181 59.8741 85.0929 60.9834 84.6465C62.0927 84.2213 63.0954 83.7961 63.2021 83.6898C63.3301 83.5835 63.5861 83.4985 63.7781 83.4985C63.9701 83.4985 64.5888 83.3071 65.1647 83.052C65.7407 82.8182 66.5088 82.4993 66.8501 82.3505C67.4047 82.0954 70.4341 80.9261 73.0368 79.9482C73.5061 79.7568 74.1888 79.5017 74.5301 79.3529C74.8927 79.2041 75.9807 78.7789 76.9834 78.3962C77.9861 78.0348 79.1808 77.5884 79.6501 77.3971C80.1194 77.227 80.8874 76.9294 81.3568 76.7593C83.0208 76.1215 83.7247 75.8664 85.1967 75.2924C86.0287 74.9735 86.9248 74.6546 87.2234 74.5483C87.5221 74.4633 88.5674 74.0806 89.5701 73.7192C91.2767 73.0814 94.7754 71.8059 95.9701 71.3807C96.2688 71.2744 97.4634 70.8492 98.6368 70.424C99.8101 69.9988 101.069 69.5736 101.41 69.4886C102.562 69.191 104.461 68.1493 105.143 67.4477C105.506 67.0651 105.933 66.3848 106.103 65.9383C106.423 65.0242 106.231 64.5139 105.143 63.3659C104.845 63.0471 103.949 62.0053 103.117 61.0699C100.855 58.4551 98.6368 55.9677 96.7381 53.8631C94.6261 51.5458 94.9034 51.8647 92.9834 49.6962C92.1088 48.6971 91.2981 47.7829 91.1701 47.6553C89.4421 45.7633 87.8848 43.9775 87.5221 43.5098C86.6048 42.2768 82.4447 37.9824 81.4847 37.2808C80.9514 36.8982 80.1834 36.4942 79.7994 36.4092C79.3514 36.3242 79.0314 36.0903 78.9248 35.8139C78.6688 35.1549 78.8181 35.0273 79.7354 35.0273C81.5914 35.0273 83.3621 36.3242 87.1168 40.5122C88.5247 42.0642 90.2101 43.935 90.8714 44.6578C92.3434 46.2735 94.7328 48.9734 96.7594 51.3332C97.6128 52.3111 98.4234 53.2253 98.5728 53.3953C98.7221 53.5442 99.5328 54.4158 100.343 55.3512C101.175 56.2653 102.285 57.4984 102.818 58.0936C104.674 60.1345 106.423 62.2605 106.423 62.4731C106.423 62.6006 106.722 62.6644 107.106 62.6219C107.682 62.5581 107.81 62.4305 108.109 61.6652L108.429 60.7723L107.703 59.8582C107.106 59.0928 104.034 55.6063 103.65 55.2236C103.479 55.0748 96.9514 47.8042 95.3514 46.0184C82.9781 32.0936 83.2981 32.3912 80.6314 32.3699C79.0314 32.3699 78.9461 32.4125 75.7034 33.9856C73.8901 34.8785 71.0954 36.2391 69.5167 37.0045C67.9381 37.7698 64.9301 39.2154 62.8607 40.2146C60.7914 41.2138 58.9994 42.0429 58.8927 42.0429C58.7861 42.0429 58.5727 42.1917 58.4234 42.3618C58.2741 42.5319 58.0394 42.6807 57.8687 42.6807C57.5274 42.6807 49.5274 46.4011 47.7567 47.379C47.5861 47.4853 47.0527 47.7404 46.5834 47.953C44.1301 49.1222 40.7167 50.7592 38.1567 51.9922C36.5781 52.7363 34.5514 53.693 33.6767 54.0969C31.2447 55.2236 29.8367 55.8827 26.1034 57.6685C24.2261 58.5613 22.3701 59.433 22.0074 59.6031C21.6234 59.7731 20.9834 60.0282 20.6207 60.1983C20.2367 60.3684 18.4021 61.24 16.5461 62.1116C14.6901 63.0045 13.1327 63.7273 13.0901 63.7273C12.9834 63.7273 11.0634 64.599 7.24473 66.406C5.92206 67.0438 4.70606 67.554 4.57806 67.554C4.1514 67.554 3.4474 68.4256 2.78606 69.7862C1.16473 73.1239 1.3354 74.6334 3.7674 78.1836C5.21806 80.3096 5.77273 80.9261 9.7834 84.9654C13.5807 88.7708 15.1807 90.2802 17.2287 92.0022C17.8474 92.5337 18.6581 93.2352 19.0207 93.5754C19.4047 93.8942 20.1301 94.5108 20.6634 94.936C21.1967 95.3611 22.1994 96.2115 22.9034 96.8068C23.6074 97.402 24.5674 98.1036 25.0367 98.3374C26.0394 98.8689 27.6181 98.9327 28.4927 98.5075ZM135.863 92.7888C136.866 92.5974 137.975 92.4061 138.317 92.3636C139.362 92.2148 142.071 91.5132 144.375 90.8117C145.847 90.3439 148.855 90.429 150.647 90.9605C151.501 91.2156 152.311 91.5132 152.461 91.6408C152.653 91.7896 152.802 91.7896 152.973 91.6195C153.143 91.4494 152.823 91.0242 151.757 90.0463C149.794 88.2393 147.213 84.1788 146.637 82.0103C146.573 81.7127 146.423 81.2875 146.317 81.0536C146.039 80.4159 145.527 78.4175 145.357 77.3333C145.271 76.8018 145.143 76.0365 145.037 75.6325C144.525 73.5279 143.799 66.6399 143.543 61.4951C143.437 59.2842 143.245 56.3079 143.117 54.9048C142.775 50.823 142.626 36.9194 142.882 30.6692C143.202 22.6119 143.671 14.7673 143.97 13.024C144.546 9.3249 144.909 7.66668 145.165 7.24149C145.335 6.98638 145.463 6.58246 145.463 6.3486C145.463 5.85964 145.122 5.58327 144.93 5.90216C144.781 6.13601 142.306 7.34779 137.037 9.72883C136.567 9.94142 135.799 10.2816 135.33 10.4729C132.023 11.8973 130.487 12.6626 129.954 13.0878C129.463 13.513 128.823 15.1712 128.823 16.0216C128.823 16.3192 128.674 17.0633 128.503 17.6585C128.141 18.9979 127.778 21.8891 127.543 25.3544C127.095 32.1786 126.882 35.1124 126.669 37.1533C126.306 40.9799 126.199 50.5466 126.477 56.7118C126.626 59.9219 126.775 64.2801 126.839 66.3848C126.882 68.4894 127.01 70.4028 127.117 70.6366C127.223 70.8705 127.394 72.5499 127.522 74.357C127.735 77.4396 127.906 78.6088 128.695 82.6481C129.229 85.348 129.847 87.1125 131.021 89.3448C132.749 92.6612 133.431 93.6179 133.815 93.299C133.943 93.1927 134.861 92.9588 135.863 92.7888ZM215.65 51.2482C215.629 50.6954 213.751 46.2097 212.983 44.8916C211.895 43.0208 209.677 43.5311 209.677 45.6357C209.677 46.0822 209.89 46.4011 210.487 46.8475C210.914 47.1664 212.151 48.3144 213.239 49.4199C215.031 51.2056 215.65 51.6946 215.65 51.2482ZM53.4314 42.9571C54.1354 42.5106 54.0927 42.0429 53.3461 42.0429C52.6847 42.0429 51.8101 42.7232 51.8101 43.2334C51.8101 43.6373 52.6207 43.5098 53.4314 42.9571ZM152.503 5.83838C152.503 5.56201 152.226 4.90297 151.863 4.35023C151.522 3.79749 151.223 3.24475 151.223 3.15971C151.223 3.05342 150.903 2.73453 150.498 2.41564C149.474 1.65031 148.557 1.69283 147.533 2.52194C146.359 3.4786 146.509 3.96757 148.13 4.41401C148.834 4.60534 149.986 5.09431 150.69 5.51949C152.205 6.43364 152.503 6.49742 152.503 5.83838Z" fill="rgb(0,0,0)" fill-rule="nonzero" transform="matrix(1,0,0,-1,8.24316,229.636)" />
			<path id="矢量 418" d="M18.0222 48.0455C16.4435 45.3881 14.0328 40.5623 12.7528 37.4584C12.2622 36.2892 11.7715 35.1624 11.6648 34.9711C11.5368 34.7585 11.4515 34.4821 11.4515 34.3758C11.4515 34.2483 11.2595 33.6955 11.0035 33.1428C10.7688 32.5901 10.4915 31.9523 10.3848 31.7184C10.2782 31.4846 10.0008 30.698 9.76617 29.9539C9.51017 29.2311 9.23284 28.4658 9.12617 28.2532C9.0195 28.0618 8.6355 27.0839 8.29417 26.0847C7.95284 25.0856 7.2275 23.0659 6.67283 21.599C6.1395 20.1321 5.6915 18.7928 5.6915 18.6227C5.67017 18.4527 5.4995 17.9424 5.26483 17.4747C5.03017 17.007 4.8595 16.4543 4.83817 16.2417C4.83817 16.0504 4.75283 15.7102 4.62483 15.4976C4.36883 15.0299 2.8115 10.3529 2.4915 9.07733C2.3635 8.54585 2.1715 7.92933 2.06483 7.69548C1.76617 7.01518 0.998167 4.35777 0.998167 3.99637C0.998167 3.82629 0.870167 3.29481 0.6995 2.80585C-0.0258333 0.658663 -0.111167 0.318515 0.102167 0.105923C0.4435 -0.234226 1.19017 0.297256 1.31817 0.956293C1.4035 1.27518 1.5315 1.67911 1.63817 1.87044C1.74483 2.06177 1.89417 2.59326 1.9795 3.0397C2.0435 3.5074 2.19283 3.97511 2.27817 4.0814C2.3635 4.20896 2.51283 4.63414 2.59817 5.03807C2.6835 5.442 2.83283 5.9097 2.9395 6.10103C3.17417 6.54748 3.98483 9.28992 3.98483 9.65133C3.98483 9.80014 4.07017 10.0978 4.17683 10.3104C4.30483 10.5017 4.58217 11.2883 4.83817 12.0536C5.07283 12.819 5.3715 13.6268 5.47817 13.8607C5.58483 14.0945 6.05417 15.4338 6.5235 16.837C7.8675 20.9187 9.87284 26.4887 10.0435 26.6587C10.1075 26.7438 10.1715 26.9351 10.1715 27.0839C10.1715 27.254 10.3422 27.7855 10.5768 28.2744C10.7902 28.7634 11.2808 30.039 11.6648 31.0807C12.4542 33.2491 12.8808 34.3121 13.1582 34.8435C13.2862 35.0561 13.3715 35.3113 13.3715 35.4388C13.3715 35.6301 13.6275 36.2467 14.9715 39.1592C15.1208 39.5206 15.6115 40.5623 16.0382 41.4977C16.4648 42.4331 16.9128 43.3898 17.0408 43.6236C17.1688 43.8575 17.5102 44.474 17.7875 45.0055C18.0648 45.537 18.3848 46.111 18.4915 46.281C20.4542 49.3849 20.7102 50.1502 19.8568 50.2778C19.4942 50.3203 19.1528 49.9164 18.0222 48.0455Z" fill="rgb(0,0,0)" fill-rule="nonzero" transform="matrix(1,0,0,-1,212.015,67.2012)" />
			<path id="矢量 419" d="M4.72488 17.2394C4.66088 17.1757 3.89288 17.0268 3.03954 16.8993C1.31154 16.6654 -0.523125 15.7938 0.138208 15.5387C0.330208 15.4749 0.948875 15.4749 1.50354 15.5387C4.61821 15.9639 10.2929 15.8151 14.0475 15.1986C14.7515 15.0923 16.0742 14.9222 16.9702 14.8159C17.8875 14.7096 18.9329 14.5395 19.3169 14.412C19.7009 14.3057 21.2795 13.9655 22.7942 13.6679C26.5915 12.9238 30.8582 11.8821 35.8075 10.479C36.9169 10.1601 37.1515 10.0751 39.7542 9.16093C40.6289 8.8633 41.7595 8.52315 42.2715 8.41685C42.7622 8.33182 43.3382 8.16174 43.5515 8.05545C43.7435 7.94915 44.4902 7.65152 45.1942 7.41767C45.8982 7.16256 47.4342 6.63108 48.6075 6.20589C49.7809 5.78071 51.0822 5.33426 51.4875 5.20671C51.8929 5.07915 52.3409 4.93034 52.4475 4.82404C52.5755 4.73901 52.9169 4.61145 53.2369 4.52641C53.5355 4.46264 54.2609 4.18626 54.8369 3.95241C55.9889 3.42093 58.8689 2.35797 60.0209 2.03908C60.4262 1.91153 61.0662 1.67767 61.4502 1.5076C61.8129 1.33753 62.2609 1.20997 62.4315 1.20997C62.6235 1.20997 62.8155 1.12493 62.8795 1.01864C62.9435 0.912341 63.3489 0.763527 63.7755 0.67849C64.2022 0.614712 64.7782 0.402119 65.0555 0.210786C65.6529 -0.17188 66.6342 -0.0018062 66.6342 0.465897C66.6342 0.784786 65.1835 1.63516 64.6502 1.63516C64.4795 1.63516 64.0529 1.78397 63.7329 1.95404C63.3915 2.12412 62.9649 2.27293 62.7729 2.27293C62.6022 2.27293 62.3675 2.35797 62.2395 2.46427C62.1329 2.59182 61.1729 3.01701 60.0849 3.42093C58.9969 3.82486 57.6102 4.39886 56.9915 4.67523C55.2209 5.48308 52.7889 6.461 51.2742 6.97123C49.2262 7.65152 48.3302 7.99167 47.9035 8.20426C47.4982 8.39559 46.6875 8.69322 44.6609 9.30974C43.8929 9.56485 42.9329 9.88374 42.5275 10.0326C41.4395 10.4365 35.8075 12.201 34.3142 12.5837C33.6102 12.775 32.5649 13.0514 31.9675 13.2214C31.3915 13.3703 30.4742 13.6254 29.9409 13.7742C28.1489 14.2419 26.1649 14.6883 21.6849 15.5812C15.6689 16.793 5.27954 17.8134 4.72488 17.2394Z" fill="rgb(0,0,0)" fill-rule="nonzero" transform="matrix(1,0,0,-1,140.833,72.9395)" />
		</g>
		<path id="矢量 420" d="M114.133 178.281L121.536 186.976L132.715 183.553L132.715 180.067L116.672 174.986L114.133 178.281Z" fill="rgb(255,255,255)" fill-rule="nonzero" />
	</g>
</svg>
