<svg viewBox="0 0 268 230" xmlns="http://www.w3.org/2000/svg" xmlns:xlink="http://www.w3.org/1999/xlink" width="268.000000" height="230.000000" fill="none">
	<defs>
		<clipPath id="clipPath_12">
			<rect width="255.000000" height="228.000000" x="6.000122" y="1.000000" fill="rgb(255,255,255)" />
		</clipPath>
	</defs>
	<rect id="12" width="268.000000" height="230.000000" x="0.000000" y="0.000000" />
	<g id="12" clip-path="url(#clipPath_12)" customFrame="url(#clipPath_12)">
		<rect id="12" width="255.000000" height="228.000000" x="6.000122" y="1.000000" />
		<path id="矢量 421" d="M223.888 175.07L223.292 179.641L219.59 185.572L215.717 182.808L206.589 190.632L177.503 211.019L160.97 220.82L159.438 225.731L156.778 228.218L152.969 225.646L151.416 222.308L136.968 215.845L134.67 202.516L133.521 186.252L104.775 176.537L89.0295 191.333L84.5612 191.759L65.2623 182.213L64.1558 185.912L61.3046 187.294L56.8362 183.446L56.8362 180.321L44.5377 175.07L43.2397 172.243L9.36552 155.235L6.91858 153.067L6.91858 147.731L12.4295 141.119L25.0685 129.767L33.1754 125.026L37.4735 126.004L37.4735 123.134L41.2609 118.584L40.1332 118.584L40.6864 109.506L45.9846 100.599L43.6653 98.2815L43.6653 91.84L46.6867 87.0992L55.0276 84.9945L76.9012 76.4483L107.797 70.3469L118.286 69.9004L120.691 60.4401L129.479 36.9698L139.883 20.9829L145.139 19.516L149.969 20.8978L157.459 6.3565L162.778 2.52983L173.204 1.38184L205.036 4.37939L227.08 9.46035L234.74 13.4146L237.782 18.9207L238.527 31.2936L244.123 32.3566L249.719 35.8644L251.783 38.5218L254.869 38.6068L259.869 42.2209L258.486 48.7475L241.272 111.313L239.634 112.738L237.463 112.483L238.527 121.667L234.57 164.674L223.888 175.07Z" fill="rgb(255,255,255)" fill-rule="nonzero" />
		<path id="矢量 422" d="M116.648 165.886L89.8806 191.695L84.5612 191.759L8.81232 156.235L6.49304 149.793L8.38676 145.329L25.0685 129.767L33.686 125.026L36.2607 126.004L37.4735 123.134L54.3468 104.66L66.7304 96.4747L79.646 94.0937L92.0084 94.0937L96.6895 95.0079L101.073 93.3071L116.648 91.904L128.521 92.2654L131.287 83.4853L128.627 75.1942L120.691 69.9857L118.286 69.9007L124.478 49.3642L133.394 29.4018L141.266 19.7714L149.969 20.8981L158.48 5.59143L163.48 2.23247L171.055 1.63721L198.504 3.86943L222.867 8.33387L233.782 12.118L238.357 22.0886L238.527 31.2939L242.996 31.8891L249.719 35.8646L251.783 38.522L256.252 39.096L259.869 42.2211L240.527 111.973L238.868 112.738L235.591 110.676L227.08 108.784L228.888 102.045L225.441 96.6873L214.164 91.2237L200.397 91.904L174.141 99.2597L145.65 113.673L140.586 117.5L138.075 122.539L138.968 130.277L141.011 132.934L116.648 165.886Z" fill="rgb(1,89,188)" fill-rule="nonzero" />
		<g id="组合 84">
			<path id="矢量 423" d="M161.073 227.729C158.136 227.517 155.009 226.156 152.817 224.158C151.455 222.903 149.37 220.288 149.37 219.821C149.37 219.714 149.242 219.544 149.093 219.459C148.966 219.374 148.476 218.566 148.029 217.695C147.583 216.823 147.136 215.952 147.029 215.781C146.71 215.314 144.348 210.233 144.178 209.68C143.944 208.936 143.476 208.66 142.923 208.936C141.689 209.553 139.625 209.978 138.093 209.935C134.773 209.829 133.475 208.723 129.326 202.409C128.879 201.75 128.454 201.07 128.369 200.9C128.284 200.73 127.986 200.241 127.709 199.837C127.433 199.433 127.113 198.902 127.007 198.668C126.901 198.434 126.73 198.094 126.603 197.924C125.581 196.372 122.454 190.398 121.624 188.4C121.305 187.655 120.73 186.38 120.347 185.53C119.049 182.745 117.092 177.919 116.794 176.771C116.709 176.431 116.432 175.601 116.177 174.964C115.921 174.326 115.581 173.327 115.411 172.731C115.24 172.157 115.006 171.392 114.9 171.031C114.794 170.691 114.474 169.67 114.198 168.799C113.24 165.865 112.474 162.931 112.24 161.251C111.985 159.402 112.049 159.444 108.985 159.444C107.495 159.444 105.431 159.338 104.367 159.211C103.325 159.104 101.644 158.913 100.644 158.807C98.0906 158.552 94.1542 158.02 92.7711 157.765C92.1328 157.659 90.6433 157.404 89.473 157.212C88.3028 157 86.9623 156.745 86.4942 156.638C86.026 156.511 85.1749 156.341 84.5792 156.234C81.8769 155.767 79.2384 155.171 77.4724 154.64C76.9404 154.47 76.2808 154.342 75.9829 154.342C75.6851 154.321 75.1957 154.193 74.8978 154.023C74.5999 153.853 74.1318 153.726 73.8339 153.704C73.5573 153.704 72.9402 153.577 72.4508 153.407C71.9827 153.237 71.0252 152.939 70.3231 152.769C68.4719 152.259 63.195 150.537 62.4077 150.175C62.046 150.005 61.6204 149.878 61.4502 149.878C61.28 149.878 60.9608 149.729 60.7268 149.559C60.514 149.389 60.1523 149.24 59.9608 149.24C59.5352 149.24 56.5563 148.113 55.7052 147.646C55.4073 147.475 55.0031 147.327 54.8328 147.327C54.6626 147.327 53.9604 147.072 53.2796 146.774C51.9391 146.179 51.2582 145.924 49.1517 145.222C46.8962 144.478 46.5345 144.372 45.5344 144.223C43.4067 143.925 41.2363 142.947 39.9809 141.735C38.8532 140.63 37.6617 139.142 37.6617 138.823C37.6617 138.695 37.4914 138.334 37.2999 138.036C36.9808 137.547 36.9169 136.952 36.9169 134.146C36.9169 130.426 37.0872 129.809 38.4702 128.47C39.2575 127.726 39.2575 127.662 38.1511 126.493C35.5764 123.729 34.0232 119.094 33.704 113.206C33.6402 111.93 33.5763 110.527 33.5551 110.123C33.5125 109.57 33.1508 108.932 32.1082 107.572C31.3422 106.573 30.5762 105.403 30.4485 104.978C30.1932 104.192 29.5761 103.873 29.2569 104.383C29.0867 104.638 26.6611 104.659 26.5121 104.404C26.4483 104.298 26.1504 104.149 25.8525 104.085C24.8312 103.83 15.5328 97.0485 13.0646 94.7738C12.5964 94.3273 11.8517 93.6896 11.4474 93.3707C9.14944 91.6061 4.979 87.5031 2.95761 85.037C0.702167 82.2521 0 80.7427 0 78.5742C0 75.5341 1.65967 72.1752 3.6385 71.176C4.80878 70.602 7.23444 69.5178 7.34083 69.5178C7.40467 69.5178 8.36217 69.0926 9.48989 68.5611C10.5963 68.0296 11.5538 67.6044 11.5964 67.6044C11.6602 67.6044 12.8943 67.0304 14.3625 66.3289C15.8307 65.6273 17.0861 65.0533 17.1712 65.0533C17.2988 65.0533 23.9375 61.9495 24.4694 61.6306C24.6397 61.5243 24.9376 61.3755 25.1078 61.3117C25.278 61.2479 26.044 60.9078 26.81 60.5464C27.576 60.2062 28.4909 59.781 28.8314 59.6322C29.1931 59.4834 30.4272 58.8881 31.5975 58.3567C34.0444 57.2087 34.5977 56.9536 36.0658 56.3796C37.0233 55.9969 37.1723 55.8481 37.4914 54.9127C37.7255 54.2324 38.1298 53.6371 38.7681 53.1056C39.2575 52.6592 39.7682 52.2978 39.8746 52.2978C39.9809 52.2978 40.6831 52.0001 41.4278 51.66C42.1513 51.2986 42.8534 51.0222 42.9598 51.0222C43.0662 51.0222 43.2577 50.8734 43.4067 50.7033C43.5556 50.5333 43.8109 50.3844 44.0024 50.3844C44.1939 50.3844 45.1514 49.9805 46.1515 49.4916C47.1516 49.0238 48.5559 48.4073 49.2581 48.1735L50.5347 47.7058L50.8113 46.4515C51.3858 43.9216 52.3433 42.1571 53.62 41.3493C54.3009 40.9241 54.7264 40.8178 55.8542 40.8178C57.2372 40.8178 57.2585 40.8178 58.2586 41.817C58.9607 42.5398 59.3437 43.135 59.5139 43.8366C59.8118 44.9421 60.131 45.0909 61.0672 44.5381C61.3651 44.3681 61.7481 44.1767 61.9183 44.0917C62.3652 43.9004 66.6845 41.8382 69.4719 40.4989C78.6427 36.077 78.6852 36.077 81.2385 36.2045C82.6642 36.2683 83.3025 36.3959 83.5791 36.651C83.7919 36.8423 84.0685 36.9911 84.1749 36.9911C84.6004 36.9911 88.4092 40.5414 93.5797 45.7924C96.5373 48.79 99.048 51.2348 99.1544 51.2348C99.431 51.2348 100.835 50.2994 100.857 50.1081C100.857 50.0018 101.261 49.449 101.772 48.8538C105.155 44.8145 106.176 43.6453 108.495 41.1367C109.049 40.5627 109.942 39.521 110.517 38.8407C112.24 36.7998 112.751 36.6935 116.709 37.6289C117.772 37.8627 119.028 38.1604 119.539 38.2667C120.028 38.373 120.624 38.5643 120.836 38.6919C121.071 38.7981 121.475 38.9044 121.751 38.9044C122.028 38.9044 122.666 39.032 123.198 39.2021C124.986 39.7761 125.837 39.8824 126.603 39.6698C127.007 39.5635 127.39 39.4359 127.433 39.4147C127.475 39.3721 127.539 37.3525 127.603 34.929C127.645 32.5054 127.773 29.933 127.901 29.2315C128.007 28.5299 128.156 26.5741 128.22 24.8733C128.284 23.1726 128.475 21.323 128.645 20.749C128.816 20.175 128.943 19.3034 128.943 18.8357C128.943 17.7302 129.518 15.0728 130.05 13.7122C130.539 12.4792 131.199 11.7351 132.178 11.2461C134.454 10.1194 137.029 8.92889 137.135 8.92889C137.22 8.92889 137.901 8.65252 138.667 8.29111C139.412 7.95096 140.072 7.65333 140.135 7.65333C140.263 7.65333 142.965 6.4203 143.668 6.03763C143.965 5.86756 144.455 5.74 144.753 5.74C145.348 5.74 146.178 4.86837 146.178 4.25185C146.178 3.74163 146.923 2.10467 147.476 1.40311C148.157 0.531481 149.391 0 150.753 0C151.753 0 152.072 0.106296 152.86 0.680296C154.434 1.87081 155.03 3.08259 155.924 6.888C156.03 7.29193 156.349 7.63207 156.924 7.95096C157.839 8.43993 160.52 9.94933 161.115 10.3107C161.307 10.417 161.732 10.6721 162.073 10.8635C162.732 11.2249 170.797 16.072 171.605 16.5822C171.882 16.7523 172.924 17.4326 173.946 18.0704C174.946 18.7081 176.925 20.005 178.329 20.9404C179.755 21.8758 181.138 22.7899 181.414 22.96C182.223 23.4702 185.202 25.6174 189.032 28.4661C191.011 29.933 192.798 31.2511 193.011 31.3574C193.202 31.485 193.883 31.9739 194.5 32.4629C195.138 32.9519 196.458 33.9723 197.458 34.7376C198.458 35.503 199.458 36.3108 199.692 36.5234C199.926 36.736 200.735 37.3738 201.501 37.9478C202.267 38.5218 202.99 39.0958 203.096 39.2233C203.224 39.3722 203.735 39.7973 204.267 40.2013C205.437 41.0941 207.458 42.7949 208.735 43.9641C209.778 44.9421 209.735 44.9421 210.48 43.6027C211.203 42.2847 213.012 41.7107 214.331 42.4122C215.331 42.9224 215.969 43.7941 217.374 46.6216C217.544 46.9617 217.672 47.3869 217.672 47.5995C217.672 47.7908 217.821 48.1522 217.991 48.3861C218.161 48.5987 218.31 49.0451 218.31 49.3427C218.31 49.6616 218.438 50.2356 218.608 50.6183C218.778 51.0222 218.97 51.7663 219.055 52.2765C219.182 53.0631 219.416 53.4033 220.395 54.2962C223.012 56.6772 228.523 62.1196 228.523 62.3321C228.523 62.4172 228.8 62.8849 229.119 63.3951C229.672 64.2455 229.928 65.0746 230.672 68.7737C230.821 69.4753 230.992 71.1122 231.077 72.3878C231.162 73.6846 231.332 75.1515 231.46 75.683C231.694 76.5759 231.885 78.8081 232.353 86.2063C232.46 87.8433 232.651 90.118 232.779 91.266C232.885 92.414 232.992 94.221 232.992 95.3053C232.992 96.3895 233.141 98.9831 233.311 101.088C233.481 103.192 233.63 106.594 233.63 108.656C233.63 111.994 233.587 112.525 233.183 113.503C232.672 114.736 232.843 115.246 233.715 115.076C234.077 114.991 234.46 115.183 235.098 115.757C236.034 116.607 236.566 117.585 237.141 119.583C237.971 122.453 238.141 123.006 238.332 123.623C238.46 123.984 238.779 125.132 239.035 126.195C239.311 127.237 239.63 128.448 239.758 128.852C239.864 129.256 240.141 130.149 240.332 130.851C240.524 131.552 240.779 132.424 240.907 132.764C241.013 133.125 241.205 133.848 241.29 134.401C241.396 134.954 241.567 135.592 241.694 135.825C241.822 136.059 241.928 136.421 241.928 136.655C241.928 137.058 242.247 138.291 242.886 140.332C243.056 140.885 243.205 141.459 243.205 141.65C243.205 141.821 243.333 142.437 243.503 142.99C243.673 143.564 243.971 144.648 244.162 145.413C244.354 146.179 244.609 147.135 244.716 147.539C244.843 147.943 245.226 149.389 245.567 150.728C245.929 152.067 246.503 154.236 246.843 155.511C247.205 156.808 247.567 158.233 247.652 158.7C247.737 159.168 247.929 159.891 248.056 160.295C248.333 161.145 248.737 162.57 249.269 164.547C249.844 166.715 250.248 168.182 250.546 169.224C250.993 170.754 251.461 172.413 251.822 173.794C252.014 174.496 252.291 175.559 252.461 176.133C252.61 176.728 252.801 177.557 252.886 178.025C252.95 178.471 253.099 179.003 253.206 179.194C253.397 179.598 253.844 181.32 254.035 182.511C254.12 182.978 254.312 183.595 254.461 183.871C254.61 184.148 254.738 184.998 254.759 185.785C254.759 187.294 254.397 188.187 253.397 188.952C252.631 189.548 249.716 190.696 248.993 190.696C248.652 190.696 247.95 190.759 247.439 190.823C246.609 190.929 246.439 191.057 246.099 191.759C245.716 192.566 243.631 194.777 242.822 195.224C242.588 195.373 241.822 195.819 241.141 196.223C239.311 197.307 238.013 197.711 235.715 197.86C234.439 197.945 233.609 198.073 233.545 198.243C233.502 198.37 233.545 198.923 233.63 199.433C233.885 200.794 233.949 203.77 233.779 205.258C233.545 207.044 232.587 210.764 232.013 212.125C231.843 212.508 231.715 212.911 231.715 213.018C231.715 213.145 231.332 213.783 230.885 214.463C228.97 217.27 225.651 219.119 219.799 220.692C216.374 221.607 214.161 222.095 211.118 222.584C210.373 222.712 209.352 222.882 208.884 222.988C208.395 223.095 207.139 223.35 206.075 223.52C205.033 223.711 203.501 224.009 202.671 224.179C201.245 224.455 199.096 224.795 196.287 225.136C195.585 225.221 194.479 225.391 193.841 225.539C192.585 225.773 189.713 226.092 185.649 226.411C184.244 226.539 182.627 226.709 182.031 226.815C181.457 226.943 179.435 227.091 177.563 227.155C175.691 227.219 173.69 227.368 173.095 227.495C172.116 227.687 162.796 227.878 161.073 227.729ZM170.861 225.986C173.733 225.858 177.372 225.625 178.946 225.454C182.521 225.072 185.904 224.732 188.521 224.498C189.628 224.391 191.074 224.221 191.713 224.094C192.351 223.988 194.032 223.732 195.436 223.541C196.841 223.35 198.713 223.052 199.607 222.882C200.5 222.712 201.437 222.584 201.713 222.584C201.969 222.584 202.82 222.436 203.607 222.287C204.373 222.117 205.884 221.819 206.926 221.628C207.99 221.436 209.458 221.16 210.224 220.99C210.99 220.841 212.565 220.544 213.735 220.352C214.906 220.161 216.161 219.885 216.501 219.778C216.863 219.672 217.672 219.438 218.31 219.289C225.693 217.525 229.396 214.995 230.609 210.913C232.034 206.194 232.353 203.239 231.864 199.624L231.609 197.817L230.8 197.754C230.14 197.69 229.757 197.456 228.651 196.372C227.928 195.649 226.885 194.395 226.374 193.566C223.906 189.76 223.927 189.803 223.395 188.846C222.31 186.911 221.076 184.552 220.033 182.404C219.948 182.234 219.672 181.703 219.438 181.235C218.714 179.832 217.033 176.282 217.033 176.133C217.033 176.069 216.757 175.431 216.395 174.709C216.055 174.007 215.757 173.263 215.757 173.072C215.757 172.88 215.672 172.625 215.565 172.519C215.31 172.243 213.927 168.884 212.905 166.099C212.437 164.802 212.182 163.973 211.033 160.507C210.458 158.7 209.841 156.872 209.692 156.468C209.416 155.66 208.948 154.13 208.395 152.11C208.203 151.408 207.926 150.516 207.756 150.133C207.586 149.75 207.458 149.261 207.458 149.049C207.458 148.836 207.331 148.177 207.16 147.624C206.884 146.668 206.692 145.924 205.969 142.969C205.714 141.948 205.543 141.225 205.182 139.354L205.011 138.504L202.181 138.462C200.628 138.44 199.054 138.334 198.671 138.206C198.288 138.079 197.458 137.93 196.819 137.866C195.692 137.739 194.245 137.462 191.713 136.91C191.074 136.761 190.011 136.569 189.372 136.484C188.734 136.399 187.734 136.208 187.138 136.081C186.564 135.932 185.5 135.655 184.797 135.485C184.095 135.315 183.053 135.06 182.457 134.89C181.882 134.741 180.819 134.444 180.116 134.252C179.414 134.061 178.521 133.763 178.138 133.593C177.755 133.423 177.286 133.296 177.074 133.296C176.882 133.296 176.052 133.04 175.222 132.743C174.414 132.445 173.456 132.126 173.095 132.02C172.754 131.914 171.924 131.637 171.286 131.382C170.648 131.127 169.882 130.851 169.584 130.744C168.903 130.532 166.541 129.511 162.349 127.619C161.711 127.343 160.52 126.769 159.711 126.365C158.924 125.961 158.179 125.642 158.073 125.642C157.966 125.642 157.498 125.408 157.03 125.111C156.2 124.579 156.136 124.579 155.158 124.877C153.774 125.302 152.774 125.642 152.03 125.961C151.689 126.11 150.817 126.386 150.115 126.599C146.838 127.556 146.732 127.598 144.051 128.597C140.731 129.852 137.837 130.978 137.518 131.148C137.305 131.255 136.412 131.68 135.539 132.084C134.667 132.488 133.114 133.211 132.114 133.699C131.092 134.167 130.199 134.571 130.114 134.571C130.007 134.571 129.773 134.699 129.603 134.847C129.411 134.996 128.731 135.273 128.092 135.464C126.369 135.995 124.645 136.463 124.156 136.548C123.794 136.591 123.752 136.74 123.794 137.441C123.837 137.909 123.943 138.377 124.028 138.504C124.135 138.61 124.262 138.908 124.326 139.142C124.39 139.376 124.73 140.269 125.092 141.14C125.454 142.012 125.901 143.5 126.071 144.435C126.326 146.009 126.326 146.306 125.986 147.794C125.773 148.709 125.475 149.601 125.326 149.771C124.773 150.431 125.007 151.664 126.73 157.744C126.922 158.381 127.199 159.296 127.347 159.763C127.496 160.231 127.794 161.188 127.986 161.889C128.901 165.078 130.348 168.416 131.731 170.499C132.433 171.562 132.518 171.839 132.646 173.688C132.773 175.474 133.518 178.578 134.305 180.491C134.412 180.789 134.731 181.703 135.007 182.532C135.284 183.382 135.603 184.233 135.71 184.445C135.816 184.679 136.22 185.657 136.582 186.656C137.986 190.355 138.518 191.759 138.859 192.503C139.008 192.864 139.433 193.906 139.795 194.841C140.157 195.777 140.582 196.797 140.752 197.116C140.923 197.413 141.072 197.775 141.072 197.924C141.072 198.2 141.561 199.369 142.05 200.305C142.221 200.602 142.348 200.964 142.348 201.113C142.348 201.24 142.646 201.984 142.987 202.75C143.348 203.494 143.625 204.238 143.625 204.365C143.625 204.514 143.774 204.812 143.944 205.024C144.114 205.258 144.263 205.556 144.263 205.705C144.263 205.981 145.2 208.022 147.455 212.699C148.115 214.102 148.732 215.399 148.817 215.569C148.881 215.739 149.03 216.037 149.157 216.207C149.264 216.377 149.71 217.142 150.157 217.907C150.583 218.673 150.987 219.332 151.051 219.396C151.115 219.459 151.54 220.033 151.966 220.671C153.604 223.095 156.2 224.965 158.732 225.539C161.669 226.22 163.584 226.305 170.861 225.986ZM139.497 208.149C139.838 208.043 140.646 207.852 141.284 207.724C143.114 207.342 143.136 207.299 142.455 205.875C141.157 203.047 138.646 197.052 137.518 193.991C137.199 193.119 136.922 192.46 136.305 191.057C136.114 190.611 135.965 190.143 135.965 189.994C135.965 189.845 135.837 189.484 135.667 189.186C135.518 188.867 135.156 188.017 134.901 187.273C133.986 184.722 133.795 184.211 133.327 182.936C133.05 182.234 132.624 180.938 132.369 180.066C132.092 179.194 131.816 178.28 131.709 178.046C131.433 177.345 130.88 174.517 130.752 173.178C130.667 172.349 130.475 171.669 130.156 171.265C129.731 170.669 128.731 168.713 127.986 166.991C127.582 166.035 126.496 162.91 126.071 161.464C125.475 159.381 125.071 158.105 124.773 157.255C124.603 156.83 124.475 156.128 124.475 155.703C124.475 154.852 123.964 153.492 123.645 153.492C123.517 153.492 123.283 153.768 123.092 154.13C121.964 156.319 118.581 158.467 115.347 159.041C114.496 159.211 113.73 159.466 113.687 159.593C113.581 159.848 114.219 162.718 114.666 164.121C114.772 164.419 114.985 165.184 115.177 165.822C115.879 168.352 116.24 169.564 116.496 170.287C117.092 172.009 117.283 172.561 117.453 173.157C117.687 173.943 118.751 176.983 119.368 178.578C119.624 179.216 119.9 179.981 120.007 180.279C120.219 180.916 120.709 182.107 121.39 183.574C121.666 184.169 122.134 185.211 122.454 185.912C123.666 188.676 124.56 190.611 124.73 190.823C124.837 190.972 125.347 191.929 125.858 192.949C126.39 193.991 127.092 195.33 127.454 195.904C127.794 196.499 128.156 197.116 128.241 197.286C128.305 197.456 128.645 198.009 128.986 198.498C129.305 198.987 129.582 199.476 129.582 199.603C129.582 199.709 129.709 199.943 129.858 200.092C130.092 200.347 130.454 200.9 132.901 204.62C133.348 205.301 134.135 206.279 134.624 206.768C135.901 208.043 137.965 208.617 139.497 208.149ZM237.12 195.925C238.12 195.649 240.226 194.735 241.503 193.991C242.694 193.31 244.375 191.418 244.758 190.377C245.205 189.08 245.226 186.784 244.822 185.296C244.652 184.7 244.162 182.978 243.737 181.448C242.567 177.323 242.609 177.472 241.716 174.964C241.588 174.56 241.396 173.879 241.29 173.476C241.12 172.689 240.035 169.351 238.162 163.803C237.524 161.932 236.928 160.082 236.822 159.678C236.715 159.296 236.545 158.87 236.417 158.743C236.29 158.615 236.183 158.318 236.183 158.105C236.183 157.893 236.056 157.404 235.885 157.042C235.715 156.659 235.119 154.98 234.566 153.279C234.034 151.579 233.375 149.665 233.141 149.027C232.183 146.391 231.906 145.605 231.715 144.882C231.502 144.117 230.928 142.501 230.672 141.906C230.566 141.672 230.417 141.289 230.374 141.055C230.311 140.821 230.055 140.099 229.8 139.461C229.14 137.739 228.779 136.761 228.204 135.103C227.928 134.295 227.502 133.083 227.247 132.445C227.013 131.807 226.566 130.553 226.268 129.681C225.991 128.81 225.672 127.896 225.566 127.662C225.459 127.428 225.204 126.663 225.012 125.961C224.8 125.26 224.523 124.452 224.374 124.154C224.225 123.856 224.055 123.346 223.97 123.027C223.885 122.687 223.715 122.453 223.566 122.517C223.395 122.56 223.353 122.985 223.417 123.856C223.672 126.79 223.523 127.832 222.714 129.278C221.863 130.808 219.416 133.338 217.714 134.465C217.076 134.869 216.523 135.209 216.438 135.209C216.374 135.209 216.161 135.336 215.991 135.485C215.65 135.762 213.203 136.825 211.714 137.335C211.31 137.484 210.054 137.76 208.948 137.951C206.628 138.377 206.565 138.44 207.097 140.184C207.522 141.544 207.905 143.075 208.735 146.583C209.097 148.113 209.501 149.771 209.671 150.303C210.458 152.982 210.714 153.832 211.629 156.681C212.161 158.381 212.884 160.529 213.225 161.485C213.565 162.421 213.842 163.335 213.842 163.505C213.842 163.675 213.991 164.015 214.161 164.249C214.331 164.462 214.48 164.823 214.48 165.014C214.48 165.227 214.608 165.695 214.778 166.077C214.948 166.46 215.246 167.204 215.437 167.736C215.884 168.926 216.331 169.989 216.735 170.776C216.906 171.116 217.033 171.477 217.033 171.583C217.033 171.69 217.459 172.689 217.991 173.816C218.523 174.921 218.948 175.878 218.948 175.942C218.948 176.048 220.14 178.663 220.438 179.216C220.544 179.386 220.97 180.257 221.395 181.129C221.821 182.001 222.268 182.915 222.395 183.149C222.523 183.382 223.161 184.573 223.8 185.806C224.97 188.038 226.161 190.037 227.289 191.652C227.63 192.12 228.225 192.992 228.63 193.566C230.226 195.925 231.332 196.478 234.141 196.308C235.183 196.244 236.524 196.074 237.12 195.925ZM249.439 189.165C250.014 188.867 249.546 188.421 248.503 188.251C248.056 188.166 247.631 188.017 247.546 187.911C247.184 187.315 246.482 188.463 246.737 189.25C246.843 189.611 246.992 189.654 247.95 189.526C248.567 189.441 249.227 189.271 249.439 189.165ZM251.993 187.145C252.865 186.699 253.227 186.231 253.12 185.7C252.844 184.424 252.333 182.447 251.737 180.279C251.354 178.939 250.929 177.302 250.78 176.664C250.61 176.027 250.333 174.964 250.142 174.326C249.929 173.688 249.695 172.774 249.61 172.306C249.524 171.839 249.333 171.116 249.205 170.712C248.907 169.798 248.482 168.267 248.014 166.46C247.801 165.695 247.439 164.419 247.205 163.59C246.971 162.782 246.695 161.825 246.609 161.464C246.524 161.124 246.29 160.337 246.099 159.742C245.907 159.126 245.758 158.488 245.758 158.275C245.758 158.063 245.609 157.467 245.46 156.915C245.099 155.83 244.694 154.3 244.141 152.216C243.354 149.07 242.758 146.816 242.013 144.138C241.716 143.032 241.418 141.842 241.354 141.48C241.29 141.14 241.013 140.035 240.715 139.036C240.439 138.036 240.013 136.463 239.779 135.528C239.056 132.53 238.694 131.255 237.588 127.556C237.29 126.556 236.992 125.472 236.907 125.111C236.822 124.771 236.524 123.665 236.247 122.666C235.949 121.667 235.63 120.583 235.545 120.221C234.949 117.968 234.141 116.713 233.311 116.713C233.055 116.713 232.417 117.181 231.758 117.904C230.545 119.201 229.247 119.881 228.076 119.902C227.651 119.902 226.949 120.051 226.523 120.221C226.098 120.412 225.651 120.497 225.523 120.412C225.225 120.242 224.268 120.497 224.268 120.774C224.268 120.901 224.438 121.263 224.672 121.56C224.885 121.879 225.417 123.006 225.864 124.048C226.289 125.111 226.779 126.28 226.949 126.663C227.119 127.045 227.247 127.471 227.247 127.619C227.247 127.768 227.374 128.13 227.545 128.427C227.693 128.746 228.034 129.554 228.268 130.234C228.523 130.936 228.928 132.02 229.162 132.658C229.417 133.296 229.715 134.125 229.821 134.465C229.928 134.826 230.098 135.294 230.204 135.528C230.311 135.762 230.63 136.569 230.885 137.335C231.396 138.865 231.651 139.546 233.098 143.606C233.63 145.137 234.162 146.689 234.268 147.093C234.375 147.475 234.545 147.901 234.673 148.028C234.8 148.156 234.907 148.453 234.907 148.666C234.907 148.879 235.056 149.41 235.247 149.835C235.439 150.282 235.715 150.941 235.885 151.323C236.056 151.706 236.183 152.131 236.183 152.28C236.183 152.429 236.439 153.258 236.737 154.13C237.034 155.001 237.354 156.022 237.46 156.362C237.545 156.723 237.843 157.531 238.098 158.169C238.332 158.807 238.737 159.955 238.971 160.72C239.226 161.485 239.545 162.442 239.694 162.846C239.864 163.25 240.205 164.27 240.46 165.078C240.715 165.907 241.013 166.651 241.12 166.779C241.205 166.885 241.29 167.183 241.29 167.459C241.29 167.714 241.418 168.246 241.588 168.628C242.035 169.713 242.375 170.733 242.567 171.562C242.652 171.966 242.865 172.646 242.992 173.05C243.673 174.921 243.801 175.346 244.12 176.452C244.29 177.09 244.737 178.578 245.077 179.747C245.716 181.894 246.226 183.723 246.609 185.296C246.843 186.231 247.184 186.635 248.205 187.167C249.056 187.613 251.12 187.613 251.993 187.145ZM113.028 157.722C117.815 157.021 121.049 155.129 122.475 152.195C123.581 149.942 124.475 147.327 124.475 146.349C124.475 145.732 124.198 145.562 122.773 145.371C120.985 145.137 116.304 144.265 113.304 143.585C112.496 143.415 111.091 143.139 110.219 142.99C108.793 142.735 106.474 142.224 102.346 141.289C101.58 141.098 100.24 140.8 99.3672 140.609C98.4948 140.417 97.3671 140.12 96.8564 139.971C96.3671 139.801 95.7713 139.673 95.5372 139.673C95.3032 139.673 94.1967 139.439 93.0477 139.142C91.8987 138.865 90.1114 138.419 89.0475 138.185C87.0474 137.717 85.5367 137.335 83.7281 136.803C81.2173 136.102 79.5789 135.889 76.4936 135.868C72.2168 135.847 65.8547 134.784 62.1311 133.487C60.0033 132.743 57.3011 131.425 55.7691 130.362L54.4073 129.426L52.471 129.448C51.2582 129.469 50.3219 129.596 49.9177 129.788C49.5772 129.958 49.1942 130.107 49.0666 130.107C48.9389 130.107 48.258 130.404 47.5558 130.744C46.8537 131.085 46.1728 131.382 46.0451 131.382C45.7898 131.382 44.5557 131.892 42.5981 132.785C41.9811 133.062 41.4278 133.296 41.364 133.296C41.3002 133.296 40.9384 133.423 40.5767 133.593C40.1937 133.763 39.5341 134.061 39.1086 134.231C38.1511 134.614 38.1085 134.954 38.7256 136.888C38.9809 137.696 39.5128 138.632 40.1512 139.418C41.6193 141.225 42.9173 141.948 45.6621 142.522C47.2579 142.862 50.8964 143.946 51.8114 144.35C52.0454 144.457 53.1519 144.882 54.2583 145.307C55.3648 145.732 56.6627 146.221 57.1308 146.413C57.5989 146.583 58.3224 146.859 58.7267 147.008C59.8331 147.412 61.0672 147.879 62.0247 148.241C62.4928 148.432 63.4078 148.751 64.0461 148.942C64.6844 149.134 65.4079 149.389 65.6419 149.474C66.4718 149.814 69.9826 150.898 72.1317 151.472C72.8977 151.685 73.919 151.982 74.4297 152.131C74.919 152.301 75.5361 152.429 75.7914 152.429C76.0255 152.429 76.7064 152.578 77.3234 152.769C79.6427 153.492 79.9193 153.577 80.8555 153.726C81.3875 153.811 82.3024 154.002 82.8769 154.13C87.2176 155.086 91.154 155.809 94.4733 156.256C95.1117 156.341 96.4096 156.511 97.3458 156.638C100.431 157.063 107.963 157.765 110.9 157.935C111.219 157.935 112.176 157.85 113.028 157.722ZM124.39 144.329C124.454 144.202 124.347 143.755 124.135 143.33C123.943 142.883 123.603 142.224 123.432 141.842C123.049 141.034 121.794 139.95 120.922 139.673C120.602 139.567 119.666 139.248 118.858 138.951C118.049 138.653 117.134 138.398 116.815 138.398C116.496 138.398 115.815 138.249 115.326 138.079C114.708 137.866 113.559 137.76 111.623 137.76C108.751 137.76 100.92 137.058 99.6013 136.697C99.1757 136.591 98.5587 136.484 98.1969 136.484C97.5586 136.484 95.4947 136.059 93.4945 135.507C92.8988 135.336 92.2179 135.209 91.9625 135.209C91.7072 135.209 91.1753 135.039 90.7497 134.847C90.0476 134.507 89.9624 134.507 89.2603 134.847C88.7496 135.081 87.9623 135.209 86.8559 135.209C84.6855 135.209 84.2813 135.464 85.5367 136.038C86.0686 136.272 86.7282 136.484 87.0261 136.484C87.5155 136.484 90.2603 137.037 92.2392 137.526C92.7073 137.632 93.8137 137.888 94.6861 138.079C95.5585 138.27 96.6224 138.504 97.0267 138.61C97.4309 138.717 98.6863 138.993 99.7928 139.248C100.899 139.482 102.197 139.801 102.644 139.907C103.091 140.035 103.921 140.226 104.453 140.332C104.985 140.439 106.112 140.651 106.921 140.821C107.751 141.013 108.942 141.247 109.581 141.374C110.219 141.502 111.134 141.672 111.602 141.778C113.049 142.118 116.411 142.82 118.198 143.181C121.071 143.755 123.071 144.202 123.411 144.393C123.858 144.627 124.22 144.605 124.39 144.329ZM122.347 138.419C122.347 138.185 122.262 137.76 122.134 137.462C121.964 136.995 121.794 136.91 121.134 136.91C119.304 136.91 118.73 137.569 120.177 137.973C120.602 138.1 121.198 138.334 121.496 138.504C122.198 138.908 122.347 138.908 122.347 138.419ZM207.522 136.506C208.437 136.378 209.288 136.208 209.416 136.144C209.544 136.059 209.927 135.932 210.31 135.847C211.522 135.528 214.352 134.422 215.118 133.976C215.523 133.721 216.012 133.444 216.182 133.381C217.65 132.722 220.693 129.554 221.502 127.832C222.523 125.685 222.502 125.663 220.119 125.217C219.416 125.089 218.416 124.856 217.884 124.686C217.352 124.537 216.352 124.26 215.65 124.069C213.288 123.41 210.118 122.432 209.416 122.113C209.033 121.943 208.543 121.816 208.309 121.816C208.097 121.816 207.863 121.731 207.777 121.624C207.714 121.518 207.373 121.369 207.011 121.284C206.65 121.199 206.118 121.008 205.799 120.838C205.479 120.668 205.011 120.54 204.756 120.54C204.501 120.54 204.245 120.455 204.182 120.349C204.118 120.242 203.799 120.094 203.479 120.03C202.394 119.753 194.862 116.968 192.245 115.842C191.777 115.65 188.159 114.269 187.138 113.907C186.5 113.673 186.159 113.524 184.18 112.695C183.606 112.44 183.074 112.249 182.968 112.249C182.882 112.249 182.18 111.973 181.436 111.611C180.67 111.271 179.946 110.973 179.818 110.973C179.691 110.973 179.414 110.888 179.201 110.782C179.01 110.654 178.372 110.357 177.776 110.102C177.201 109.847 176.457 109.506 176.137 109.358C175.84 109.188 175.478 109.06 175.35 109.06C175.222 109.06 174.52 108.784 173.776 108.443C171.478 107.359 169.584 106.509 169.477 106.509C169.435 106.509 168.456 106.084 167.328 105.552C166.201 105.021 165.243 104.596 165.179 104.596C165.094 104.596 164.52 104.34 163.86 104.043C161.179 102.81 160.754 102.618 158.732 101.811C158.094 101.577 157.009 101.13 156.328 100.854C155.562 100.535 154.221 100.259 152.774 100.089C150.753 99.876 150.115 99.876 148.242 100.174C147.051 100.365 145.497 100.684 144.795 100.875C144.093 101.067 143.114 101.3 142.625 101.407C142.136 101.513 141.284 101.747 140.71 101.917C140.157 102.066 138.369 102.533 136.752 102.916C135.135 103.299 133.624 103.745 133.412 103.937C132.773 104.489 133.22 106.87 134.433 109.485C134.901 110.463 137.157 112.653 138.327 113.269C138.837 113.524 139.412 113.843 139.582 113.95C139.752 114.035 140.901 114.609 142.136 115.204C143.37 115.799 144.944 116.607 145.646 117.011C146.349 117.415 147.37 117.989 147.902 118.265C148.434 118.563 149.242 119.009 149.71 119.264C150.157 119.541 151.221 120.115 152.051 120.561C152.881 121.008 154.157 121.709 154.923 122.113C156.179 122.815 157.179 123.325 158.839 124.069C159.2 124.218 160.541 124.834 161.817 125.451C164.754 126.811 168.563 128.491 169.797 128.937C174.797 130.766 177.903 131.829 179.691 132.318C180.393 132.509 181.457 132.807 182.031 132.977C184.478 133.657 187.542 134.38 190.117 134.869C191.053 135.039 192.394 135.294 193.096 135.421C193.798 135.549 194.947 135.74 195.649 135.847C196.351 135.932 197.075 136.081 197.288 136.166C197.926 136.421 202.65 136.846 204.267 136.782C205.139 136.761 206.607 136.633 207.522 136.506ZM120.219 135.528C121.56 135.336 123.049 135.081 123.517 134.975C123.986 134.847 124.752 134.677 125.22 134.571C125.688 134.486 126.603 134.188 127.241 133.933C127.879 133.678 128.603 133.423 128.837 133.338C129.071 133.274 129.731 132.955 130.284 132.615C130.837 132.296 131.369 132.02 131.454 132.02C131.56 132.02 132.475 131.595 133.539 131.085C134.582 130.574 135.816 130 136.284 129.788C136.752 129.596 137.476 129.299 137.88 129.107C139.242 128.512 139.901 128.257 140.859 127.874C141.391 127.683 142.05 127.407 142.348 127.3C142.646 127.173 143.178 127.003 143.519 126.918C143.88 126.811 144.689 126.535 145.327 126.28C145.966 126.025 146.795 125.749 147.136 125.642C147.498 125.536 148.072 125.366 148.412 125.26C150.264 124.643 152.54 123.963 153.157 123.835C153.945 123.665 154.072 123.197 153.37 122.964C152.753 122.772 150.115 121.454 148.306 120.455C147.54 120.03 146.646 119.541 146.285 119.349C145.604 119.009 144.37 118.329 143.263 117.67C142.646 117.309 142.476 117.287 141.667 117.521C140.582 117.84 137.688 118.542 135.752 118.946C134.986 119.116 133.518 119.286 132.454 119.371C129.645 119.541 126.794 119.902 126.071 120.136C125.73 120.264 124.709 120.54 123.837 120.774C121.964 121.263 117.858 122.517 116.177 123.134C115.538 123.367 114.708 123.623 114.368 123.708C114.006 123.793 113.538 123.984 113.304 124.09C113.07 124.218 112.453 124.494 111.921 124.686C110.304 125.323 109.24 125.812 103.091 128.831C99.814 130.447 96.6011 131.977 95.9628 132.233C95.3244 132.488 94.601 132.785 94.3669 132.892C94.1329 132.998 93.6861 133.168 93.3669 133.296C93.0264 133.402 92.7711 133.593 92.7711 133.699C92.7711 133.955 93.1541 134.061 95.218 134.359C96.1543 134.486 97.665 134.741 98.5799 134.911C99.4736 135.081 100.623 135.209 101.091 135.209C101.559 135.209 102.623 135.315 103.431 135.443C107.155 136.017 116.283 136.059 120.219 135.528ZM83.8344 134.061C87.2389 133.827 90.1965 133.083 93.5158 131.595C95.1329 130.851 100.772 128.151 105.24 125.94C107.708 124.728 109.836 123.729 109.964 123.729C110.091 123.729 110.453 123.601 110.793 123.431C111.836 122.9 114.517 121.901 116.815 121.199C118.049 120.816 119.432 120.37 119.9 120.242C120.368 120.094 121.326 119.796 122.028 119.583C122.73 119.392 123.73 119.094 124.262 118.924C126.518 118.265 127.922 118.031 130.22 117.904C131.56 117.819 133.284 117.67 134.05 117.564C134.816 117.457 136.518 117.266 137.816 117.139C139.135 117.011 140.369 116.862 140.54 116.798C140.944 116.628 140.965 116.076 140.561 116.076C140.284 116.076 138.157 115.098 136.561 114.247C136.242 114.077 135.327 113.227 134.518 112.334C133.348 111.08 132.88 110.357 132.326 108.996C131.688 107.423 131.603 106.998 131.539 104.723C131.433 101.152 132.092 98.8768 133.816 97.1123L134.773 96.0919L134.135 95.4328C133.795 95.0714 133.092 94.5824 132.561 94.3486C132.029 94.1147 131.092 93.5833 130.454 93.1581C129.837 92.7329 129.092 92.2227 128.816 92.0313C128.092 91.5424 123.539 86.6953 123.113 85.9512C123.028 85.7811 122.773 85.4622 122.581 85.2709C122.39 85.0583 121.9 84.4843 121.496 83.9741C120.56 82.8048 119.39 81.423 118.113 79.9561C117.581 79.3396 117.049 78.6805 116.943 78.4892C116.836 78.3191 115.985 77.2561 115.049 76.1294C113.049 73.7484 113.283 74.0247 111.41 72.0901C109.687 70.3044 109.283 70.2406 108.623 71.5587C108.155 72.5153 106.58 73.9822 105.368 74.5987C104.921 74.8113 103.857 75.194 102.984 75.4704C102.112 75.7255 100.814 76.1719 100.112 76.427C98.1331 77.1924 96.9841 77.6176 96.2819 77.8089C95.9415 77.8939 95.1117 78.1916 94.4733 78.4467C93.835 78.7018 93.0264 78.9994 92.6647 79.1057C92.3243 79.212 91.8349 79.3821 91.6008 79.4671C89.9624 80.1899 89.5369 80.36 89.3454 80.36C89.2177 80.36 88.8134 80.4876 88.4517 80.6576C88.0687 80.8064 87.3453 81.1041 86.8133 81.3167C86.2814 81.508 85.5367 81.8056 85.1537 81.9757C84.7707 82.1458 84.3025 82.2733 84.1323 82.2733C83.9408 82.2733 83.5366 82.4009 83.2387 82.571C82.9195 82.741 82.2599 83.0174 81.7705 83.2087C81.2598 83.4001 80.4938 83.6764 80.0683 83.8465C79.1533 84.2079 76.6 85.1646 74.0041 86.1213C73.0253 86.4827 71.9614 86.9079 71.5997 87.0567C69.4507 87.9921 67.791 88.6511 67.5995 88.6511C67.4718 88.6511 66.3016 89.0976 65.0036 89.629C62.6418 90.6282 60.1735 91.6061 58.6203 92.2014C58.1522 92.3927 57.4925 92.6479 57.1308 92.7967C56.7904 92.9455 55.8329 93.3282 55.0031 93.647C54.1945 93.9659 52.3646 94.71 50.9603 95.284C49.5559 95.8793 47.5984 96.6871 46.5983 97.091C45.5983 97.495 44.7046 97.9202 44.5769 98.0264C44.4706 98.1327 44.2152 98.2178 44.0237 98.2178C43.8322 98.2178 43.0875 98.5154 42.3853 98.8556C41.6619 99.217 41.0023 99.4933 40.8746 99.4933C40.7682 99.4933 40.4065 99.6209 40.0661 99.791C39.4703 100.089 38.3638 100.599 37.1297 101.109C36.3637 101.428 35.1083 101.981 33.1295 102.874C31.8103 103.448 31.6826 103.575 31.8103 104C31.8954 104.277 32.1082 104.638 32.2571 104.829C32.4273 104.999 32.555 105.233 32.555 105.34C32.555 105.425 32.8529 105.85 33.1933 106.275C33.555 106.7 34.4487 107.763 35.1934 108.677C38.9809 113.269 46.8749 121.348 50.7475 124.579C52.854 126.344 55.2371 128.193 55.3861 128.193C55.4499 128.193 56.1521 128.619 56.9606 129.15C57.7479 129.681 58.5139 130.107 58.6203 130.107C58.7479 130.107 59.4076 130.383 60.1097 130.723C61.9822 131.637 62.8971 132.02 63.2163 132.02C63.3652 132.02 63.8759 132.148 64.3653 132.318C65.8973 132.87 67.5357 133.232 69.3655 133.487C74.8765 134.252 78.4299 134.401 83.8344 134.061ZM39.7682 132.7C40.6831 132.148 41.1938 131.914 43.6194 130.915C44.1514 130.702 44.7472 130.426 44.9387 130.319C45.1514 130.192 45.4281 130.107 45.5344 130.107C45.6621 130.107 46.2153 129.915 46.7686 129.66C47.3218 129.426 47.9601 129.15 48.1942 129.044C49.1517 128.64 50.1092 128.406 50.8539 128.406C51.2794 128.406 51.7901 128.278 52.0029 128.13C52.3646 127.853 52.3433 127.811 51.5773 127.322C51.1092 127.045 50.2794 126.386 49.7262 125.876C48.8963 125.089 48.641 124.962 48.3431 125.153C47.2792 125.812 44.3854 127.173 42.3428 127.981C41.0874 128.491 39.8745 129.299 39.3639 129.979C38.9596 130.532 38.3426 132.19 38.3213 132.828C38.3 133.444 38.5766 133.423 39.7682 132.7ZM41.5555 126.408C42.0449 126.131 42.9811 125.685 43.6194 125.43C44.7472 124.983 45.9387 124.473 46.5983 124.154C47.2154 123.856 47.0239 123.367 46.0238 122.538C43.7046 120.646 37.3425 114.013 35.6616 111.717C35.4275 111.399 35.2786 111.356 35.1083 111.526C34.9168 111.717 34.9594 112.27 35.2147 113.758C35.4062 114.864 35.6616 116.373 35.7679 117.139C36.002 118.754 36.2148 119.456 37.0872 121.56C37.8744 123.453 40.1299 126.918 40.5767 126.918C40.6406 126.918 41.0661 126.684 41.5555 126.408ZM222.097 124.005C222.225 123.219 221.289 121.22 220.416 120.391C219.523 119.541 217.565 118.35 215.969 117.691C215.437 117.479 214.671 117.16 214.267 116.968C212.905 116.373 212.395 116.161 209.48 115.076C209.012 114.885 208.437 114.672 208.203 114.566C206.501 113.865 203.82 112.802 203.203 112.568C202.798 112.419 201.756 111.994 200.883 111.632C200.032 111.271 199.203 110.973 199.054 110.973C198.883 110.973 198.5 110.846 198.16 110.676C197.841 110.506 197.181 110.229 196.713 110.059C195.458 109.591 194.032 109.039 193.266 108.72C192.904 108.55 192.479 108.422 192.309 108.422C192.16 108.422 191.84 108.273 191.628 108.103C191.394 107.933 191.032 107.784 190.819 107.784C190.628 107.784 190.096 107.636 189.649 107.444C188.436 106.913 188.159 106.807 185.968 105.977C184.861 105.552 183.648 105.063 183.265 104.893C182.904 104.723 182.478 104.596 182.329 104.596C182.18 104.596 180.967 104.17 179.606 103.639C176.18 102.278 174.031 101.47 173.52 101.343C173.095 101.215 172.371 100.96 170.222 100.131C169.584 99.876 168.86 99.6209 168.626 99.5571C168.392 99.4933 167.903 99.3233 167.52 99.1532C167.158 98.9831 166.711 98.8556 166.541 98.8556C166.35 98.8556 166.158 98.7705 166.073 98.6642C166.009 98.5579 165.647 98.3879 165.264 98.3028C164.903 98.239 164.307 98.0477 163.945 97.8776C163.222 97.58 163.222 97.58 160.434 96.5808C159.328 96.1982 157.796 95.6667 157.03 95.4328C156.264 95.199 155.37 94.9013 155.009 94.7738C153.094 94.1147 148.944 93.9659 146.923 94.5187C144.944 95.0501 143.327 95.4116 140.433 95.9643C137.391 96.5383 136.795 96.7509 135.582 97.8139C134.688 98.5792 133.582 100.514 133.305 101.789C133.135 102.64 133.561 102.874 134.327 102.363C134.944 101.981 135.773 101.683 137.561 101.3C138.263 101.152 139.412 100.854 140.114 100.663C140.816 100.471 141.965 100.174 142.667 100.004C144.412 99.5571 146.114 99.1319 147.115 98.8768C148.647 98.4941 151.413 98.3666 153.008 98.643C154.689 98.8981 156.647 99.387 157.349 99.7059C157.583 99.8122 158.647 100.237 159.69 100.663C162.094 101.641 162.179 101.683 163.732 102.385C164.435 102.682 165.435 103.129 165.967 103.363C166.499 103.596 167.307 103.937 167.775 104.149C168.243 104.362 169.307 104.829 170.116 105.191C170.946 105.552 172.137 106.084 172.776 106.36C173.414 106.658 175.137 107.381 176.606 107.997C180.095 109.443 179.84 109.336 182.031 110.229C183.095 110.654 184.138 111.101 184.372 111.186C184.606 111.292 185.712 111.717 186.819 112.143C187.925 112.568 189.521 113.184 190.33 113.524C191.16 113.865 192.968 114.587 194.372 115.119C195.777 115.65 197.649 116.373 198.522 116.713C199.394 117.053 200.99 117.627 202.032 117.989C203.096 118.372 204.267 118.797 204.65 118.967C205.033 119.137 205.522 119.264 205.756 119.264C205.969 119.264 206.203 119.349 206.288 119.456C206.352 119.562 206.692 119.711 207.054 119.796C207.416 119.881 207.948 120.072 208.267 120.242C208.586 120.412 209.033 120.54 209.288 120.54C209.522 120.54 209.799 120.625 209.927 120.731C210.033 120.838 210.841 121.135 211.714 121.39C212.586 121.645 213.693 121.986 214.161 122.134C214.629 122.283 215.586 122.581 216.289 122.772C216.991 122.964 217.927 123.261 218.374 123.431C218.799 123.601 219.331 123.729 219.544 123.729C219.757 123.729 220.289 123.92 220.757 124.154C221.714 124.643 222.012 124.622 222.097 124.005ZM224.268 118.839C228.842 118.074 230.311 117.075 231.396 113.971C231.736 112.929 231.779 112.206 231.736 107.168C231.715 104.064 231.609 100.322 231.502 98.8556C231.396 97.3887 231.226 94.5187 231.098 92.4778C230.97 90.4369 230.779 88.1409 230.672 87.3756C230.545 86.6102 230.353 84.6118 230.226 82.9111C229.8 77.405 229.63 75.3853 229.396 73.557C228.374 65.7974 228.183 65.0108 227.076 63.5652C226.289 62.5873 221.119 57.4 219.246 55.7205C217.267 53.956 214.395 51.3411 213.948 50.9159C213.714 50.6608 212.608 49.7254 211.501 48.79C210.395 47.8759 209.395 47.0255 209.267 46.8979C208.969 46.579 207.522 45.346 206.394 44.4319C205.884 44.0279 205.118 43.3901 204.713 43.0287C203.884 42.3272 201.288 40.2225 200.032 39.2659C199.607 38.947 199.075 38.5005 198.841 38.3092C198.288 37.8415 194.841 35.1203 193.926 34.44C193.543 34.1424 192.564 33.4408 191.777 32.8668C190.989 32.2716 190.245 31.6763 190.159 31.5275C190.074 31.3787 189.904 31.2511 189.776 31.2511C189.67 31.2511 188.627 30.5496 187.5 29.6992C186.372 28.8276 184.585 27.552 183.521 26.8292C182.478 26.1064 180.946 25.0434 180.116 24.4694C179.308 23.8741 177.967 23.0025 177.18 22.4923C176.393 21.9821 174.669 20.8766 173.35 20.005C171.137 18.5806 160.945 12.3729 160.222 12.054C160.051 11.969 159.562 11.6926 159.158 11.4587C158.328 10.9485 156.711 10.0556 154.796 9.03518C154.094 8.67378 153.328 8.26985 153.094 8.1423C152.86 7.99348 152.2 7.69585 151.604 7.44074C151.03 7.18563 150.285 6.84548 149.966 6.67541C149.072 6.18644 148.795 6.29274 148.668 7.16437C148.264 10.1832 148.051 11.5013 147.859 12.3304C147.753 12.8619 147.561 14.7327 147.455 16.4759C147.349 18.2404 147.136 21.153 147.008 22.96C146.689 27.2756 146.689 52.3403 147.008 56.7622C147.157 58.5693 147.349 61.6306 147.434 63.5652C147.646 67.5407 148.221 73.5145 148.498 74.62C148.604 75.0239 148.753 76.0444 148.838 76.8522C148.944 78.2128 149.37 80.0411 149.774 81.1041C149.859 81.3379 150.115 82.0607 150.327 82.6985C151.242 85.5473 152.668 87.9708 155.115 90.777C155.775 91.5424 156.498 92.4778 156.732 92.8604C156.945 93.2431 157.37 93.6045 157.668 93.6896C158.37 93.8384 160.264 94.4762 161.711 95.0289C162.349 95.284 163.179 95.5604 163.52 95.6667C163.881 95.773 164.69 96.0493 165.328 96.3044C165.967 96.5596 166.733 96.8147 167.031 96.8784C167.328 96.9422 167.669 97.091 167.818 97.1973C167.967 97.3249 168.392 97.495 168.775 97.58C169.158 97.6863 170.009 97.9627 170.648 98.2178C171.286 98.4729 172.052 98.7493 172.35 98.8556C172.648 98.9618 173.414 99.2382 174.052 99.4933C174.691 99.7272 175.797 100.131 176.499 100.365C177.201 100.599 178.074 100.918 178.414 101.088C178.776 101.237 179.925 101.683 180.967 102.044C183.585 102.98 184.117 103.171 186.074 103.958C187.01 104.34 188.159 104.787 188.627 104.957C190.223 105.552 191.181 105.914 191.926 106.19C192.33 106.339 193.075 106.615 193.585 106.807C194.075 106.998 194.862 107.295 195.33 107.466C196.947 108.061 197.99 108.486 198.671 108.762C199.032 108.932 199.415 109.06 199.522 109.06C199.692 109.06 202.16 110.038 203.522 110.654C203.884 110.803 204.586 111.101 205.118 111.292C205.65 111.505 206.373 111.781 206.714 111.93C207.309 112.206 208.203 112.547 210.118 113.248C210.586 113.418 211.224 113.695 211.544 113.865C211.842 114.035 212.246 114.162 212.437 114.162C212.629 114.162 213.437 114.46 214.225 114.821C218.821 116.99 220.14 117.691 220.842 118.478C221.438 119.094 221.736 119.264 222.14 119.201C222.438 119.137 223.395 118.988 224.268 118.839ZM30.3421 102.129C31.0443 101.832 32.0231 101.385 32.555 101.152C33.0869 100.918 33.8104 100.599 34.1508 100.45C34.5126 100.28 35.3637 99.8973 36.0658 99.5996C36.768 99.2807 37.7255 98.8556 38.2149 98.6217C38.683 98.4091 39.2149 98.2178 39.3852 98.2178C39.5554 98.2178 39.8746 98.0902 40.1086 97.9414C40.3427 97.7926 41.4066 97.3036 42.4492 96.8572C43.5131 96.432 44.5982 95.9643 44.8961 95.8367C45.194 95.7304 45.7472 95.4966 46.1302 95.3265C47.5133 94.7525 48.4282 94.3486 49.0027 94.051C49.3432 93.8809 49.7474 93.7533 49.9389 93.7533C50.1092 93.7533 50.5134 93.6045 50.8113 93.4557C51.8752 92.8817 54.2796 91.84 54.5775 91.84C54.7264 91.84 55.3222 91.6061 55.8967 91.3298C56.4499 91.0322 57.5351 90.607 58.3011 90.3306C59.0671 90.0755 60.3012 89.5865 61.0247 89.2464C61.7694 88.9275 62.4715 88.6511 62.5992 88.6511C62.7056 88.6511 63.4291 88.3747 64.1951 88.0133C64.9398 87.6732 65.7271 87.3756 65.9185 87.3756C66.11 87.3756 66.4718 87.2267 66.6845 87.0567C66.9186 86.8866 67.2378 86.7378 67.408 86.7378C67.5569 86.7378 68.3229 86.4614 69.0889 86.1C69.8337 85.7598 70.5997 85.4622 70.7912 85.4622C70.9614 85.4622 71.3657 85.3347 71.6636 85.1646C72.2168 84.8882 73.2168 84.4843 74.8978 83.8678C75.302 83.719 76.0468 83.4426 76.5574 83.2513C77.0468 83.0599 77.8128 82.7836 78.2597 82.6135C79.2597 82.2308 82.2386 81.0403 83.1535 80.6576C83.5366 80.4876 83.9408 80.36 84.0685 80.36C84.1962 80.36 84.643 80.2112 85.0686 80.0199C85.5154 79.8285 86.175 79.5521 86.558 79.3821C86.941 79.212 87.3878 79.0844 87.5368 79.0844C87.7921 79.0844 88.2602 78.9144 90.3242 78.0215C90.5582 77.9364 90.9412 77.7876 91.1753 77.7451C91.4093 77.6813 92.1328 77.4262 92.7711 77.1711C93.4094 76.916 94.1754 76.6396 94.4733 76.5333C94.7712 76.427 95.9628 76.0019 97.133 75.5767C98.3033 75.1515 100.261 74.4712 101.495 74.046C104.495 73.0468 105.708 72.4516 106.644 71.5799C107.325 70.9421 107.878 69.7729 107.878 68.9438C107.878 68.7312 103.559 64.3943 86.5367 47.4932C83.5153 44.5169 81.3662 42.7311 80.7704 42.7311C80.6002 42.7311 80.3874 42.6461 80.3236 42.5185C80.2598 42.4122 80.0257 42.3059 79.8129 42.3059C79.3023 42.3059 78.898 41.817 79.0682 41.3705C79.3448 40.669 81.2385 41.0729 83.1535 42.1996C84.0047 42.7099 87.9623 46.5153 96.2607 54.7426C105.368 63.799 108.261 66.5415 108.602 66.499C109.112 66.4352 109.517 65.2234 109.304 64.373C109.219 64.0754 104.325 59.0795 97.2182 52.0639C90.6433 45.5799 85.026 40.0737 84.7494 39.7973C83.1323 38.3092 81.43 37.7777 79.5789 38.1816C78.0256 38.5005 77.1532 38.8832 69.8975 42.4122C66.5143 44.0492 62.2375 46.0901 60.6417 46.8341C60.1097 47.068 58.833 47.6845 57.8117 48.1947C56.7691 48.705 55.7478 49.1089 55.535 49.1089C55.3222 49.1089 55.0882 49.1939 55.0243 49.3002C54.9392 49.4065 54.4498 49.7041 53.8753 49.9593C52.4284 50.6608 49.79 51.8939 47.3431 53.0419C46.1728 53.5946 44.5557 54.3599 43.7258 54.7426C41.8321 55.6142 40.4065 56.3158 40.0022 56.5284C39.832 56.6347 39.2575 56.911 38.7256 57.1449C37.8532 57.5488 34.6828 59.0157 31.2783 60.6101C30.5123 60.9716 29.6187 61.3967 29.2569 61.5456C28.9165 61.7156 27.7675 62.2471 26.7036 62.7361C25.661 63.2038 24.2567 63.8416 23.6183 64.1392C22.98 64.4368 21.6821 65.0321 20.7458 65.4785C19.8096 65.9037 18.1287 66.669 17.0222 67.1793C15.9158 67.6682 14.3412 68.4123 13.5114 68.795C12.7028 69.1776 11.2134 69.8579 10.2133 70.3256C9.21328 70.7933 7.44722 71.5799 6.27694 72.0689C3.95767 73.0468 3.46828 73.387 2.95761 74.4499C2.00011 76.3633 1.82989 77.0223 1.85117 78.6593C1.85117 80.1687 1.915 80.4238 2.61717 81.5718C4.72367 85.0158 10.7027 90.7983 17.8521 96.3044C21.2565 98.9406 21.8523 99.3658 24.6822 101.3C26.5759 102.597 26.7462 102.682 27.8952 102.682C28.725 102.682 29.4697 102.512 30.3421 102.129ZM140.433 94.051C141.433 93.8596 143.157 93.477 144.263 93.1793C145.37 92.903 146.817 92.5628 147.455 92.4565C149.072 92.1376 153.051 92.3502 154.434 92.8179C155.264 93.0943 155.626 93.1156 155.796 92.9455C155.966 92.7754 155.945 92.6691 155.647 92.5628C154.902 92.2652 152.604 89.9054 151.583 88.3747C151.03 87.5456 150.242 86.1 149.838 85.1646C149.455 84.2079 149.051 83.2513 148.944 83.0174C148.093 80.9553 147.412 77.6176 146.689 71.75C145.625 62.9912 144.944 45.7712 145.2 34.2274C145.561 19.5373 146.2 11.48 147.285 8.24859C147.54 7.462 147.689 6.76044 147.604 6.67541C147.455 6.52659 146.263 6.93052 145.774 7.31319C145.625 7.44074 145.2 7.65333 144.817 7.78089C144.072 8.05726 135.007 11.969 133.837 12.5004C132.752 13.0107 131.497 14.2437 131.497 14.7964C131.497 15.0728 131.39 15.5405 131.284 15.8594C130.752 17.1987 129.901 24.8308 129.582 30.6133C129.475 32.6542 129.305 35.7156 129.177 37.4163C128.901 41.2217 128.901 61.1204 129.156 64.3093C129.284 65.6061 129.411 68.1359 129.475 69.943C129.539 71.75 129.688 73.7696 129.816 74.4074C129.922 75.0452 130.114 76.4483 130.22 77.49C130.518 80.5088 131.412 85.2496 132.007 86.9504C132.731 89.0763 132.986 89.7141 134.05 91.7975C134.646 92.988 135.369 94.2423 135.667 94.5824L136.178 95.199L137.412 94.8163C138.071 94.5825 139.433 94.2423 140.433 94.051ZM40.4278 54.53C40.5767 54.3599 40.8746 54.2111 41.1087 54.2111C41.3214 54.2111 41.5555 54.0623 41.6193 53.8922C41.7044 53.7009 42.0236 53.5733 42.4492 53.5733C42.8534 53.5733 43.2152 53.4883 43.3003 53.382C43.3641 53.2757 43.6833 53.1269 44.0237 53.0419C44.3642 52.9781 44.7684 52.7655 44.9174 52.5954C45.0451 52.4253 45.3004 52.2978 45.4706 52.2978C45.6408 52.2978 46.1515 52.0214 46.5983 51.66C47.0452 51.3199 47.5984 51.0222 47.8324 51.0222C48.0665 51.0222 48.5772 50.8521 48.9814 50.6608C49.3644 50.4695 49.8326 50.2569 50.0028 50.1719C50.4283 49.9805 50.5347 49.3215 50.1517 49.3215C49.9815 49.3215 49.4921 49.5553 49.0666 49.853C48.641 50.1506 48.1091 50.3844 47.875 50.3844C47.6622 50.3844 47.4282 50.4695 47.3643 50.5758C47.2154 50.7884 45.5132 51.66 45.194 51.66C45.0876 51.66 44.428 51.9576 43.7258 52.2978C43.0237 52.6379 42.3215 52.9356 42.1726 52.9356C42.0236 52.9356 41.8534 53.0844 41.7896 53.2544C41.7044 53.4245 41.4066 53.5733 41.0661 53.5733C40.4916 53.5733 39.3639 54.2749 39.3639 54.6576C39.3639 54.9764 40.1299 54.8701 40.4278 54.53ZM217.161 50.7033C217.076 50.2994 216.735 49.4065 216.395 48.705C216.033 48.0034 215.757 47.3444 215.757 47.2593C215.757 46.9404 214.969 45.5161 214.374 44.7507C213.905 44.1342 213.693 44.0067 212.991 44.0067C212.331 44.0067 212.076 44.1342 211.735 44.6232C210.99 45.6649 211.139 46.2176 212.416 47.1743C213.012 47.6207 214.267 48.7687 215.203 49.7254C216.118 50.6608 216.969 51.4474 217.076 51.4474C217.204 51.4474 217.246 51.1498 217.161 50.7033ZM56.1733 46.8767C56.3436 46.7279 56.8542 46.4727 57.3011 46.3239C58.4288 45.92 58.6203 45.6436 58.3011 44.857C57.8968 43.9004 56.3223 42.3059 55.7691 42.3059C54.7052 42.3059 53.9817 43.0075 52.9817 44.9633C51.9603 46.983 52.0242 47.0893 54.1094 47.1318C55.2584 47.1318 55.9606 47.068 56.1733 46.8767ZM154.264 6.25022C154.264 5.29356 152.136 2.04089 151.391 1.8283C150.306 1.53067 149.732 1.70074 148.795 2.63615C147.71 3.74163 147.583 4.592 148.519 4.52822C148.817 4.50696 149.54 4.63452 150.115 4.82585C151.434 5.20852 151.391 5.18726 152.668 5.93133C153.902 6.65415 154.264 6.71793 154.264 6.25022Z" fill="rgb(0,0,0)" fill-rule="nonzero" transform="matrix(1,0,0,-1,5.70569,228.686)" />
			<path id="矢量 424" d="M18.365 46.2653C16.833 43.9906 15.3649 41.2694 13.2371 36.7199C12.6839 35.5932 12.2583 34.594 12.2583 34.5302C12.2583 34.3814 11.471 32.5531 11.1944 32.0429C11.0668 31.8303 10.9817 31.5752 10.9817 31.4476C10.9817 31.3201 10.705 30.5972 10.3433 29.8532C10.0029 29.1091 9.70499 28.365 9.70499 28.2162C9.70499 28.0674 9.57733 27.706 9.42838 27.4083C9.27944 27.1107 8.98155 26.4092 8.76877 25.8139C8.55599 25.2399 8.23683 24.4746 8.08788 24.1132C7.81127 23.4966 5.34305 17.0338 4.78983 15.5032C4.64088 15.0992 4.27916 14.1426 4.00255 13.3772C3.70466 12.6119 3.38549 11.6552 3.2791 11.2513C3.17272 10.8474 3.00249 10.3159 2.8961 10.0821C2.53438 9.31672 1.57688 6.48924 1.38538 5.61761C1.27899 5.14991 1.04494 4.42709 0.895994 4.02317C0.300216 2.51376 -0.104062 0.83428 0.023605 0.409095C0.342772 -0.56883 1.00238 0.260281 1.59816 2.32243C1.81094 3.0665 2.78972 5.97902 3.04505 6.57428C3.4706 7.63724 4.44938 10.4222 4.6196 11.145C4.74727 11.5915 4.91749 12.0804 5.0026 12.208C5.10899 12.3143 5.49199 13.3347 5.87499 14.4402C6.23672 15.5457 6.83249 17.1189 7.17294 17.9267C7.51338 18.7133 7.78999 19.4786 7.78999 19.6275C7.78999 19.755 7.91766 20.0952 8.0666 20.3928C8.21555 20.6904 8.51344 21.4132 8.72622 21.9872C8.93899 22.5825 9.23688 23.3478 9.38583 23.688C9.51349 24.0494 9.93905 25.1336 10.322 26.1328C11.2583 28.5776 12.4498 31.4689 12.6839 31.9153C12.8115 32.1279 12.8967 32.383 12.8967 32.5106C12.8967 32.6169 13.1945 33.3184 13.535 34.0412C13.8967 34.7641 14.1733 35.4231 14.1733 35.5294C14.1733 35.6995 15.2159 37.8679 15.8117 38.9946C15.9394 39.2285 16.4075 40.1852 16.8543 41.1206C17.3012 42.056 17.7267 42.8638 17.7905 42.9276C17.8544 42.9914 18.5565 44.0969 19.3438 45.3724C20.3864 47.0944 20.7269 47.8385 20.6418 48.1999C20.5567 48.455 20.3864 48.6676 20.2375 48.6676C20.0885 48.6676 19.2374 47.5834 18.365 46.2653Z" fill="rgb(0,0,0)" fill-rule="nonzero" transform="matrix(1,0,0,-1,213.672,65.6113)" />
			<path id="矢量 425" d="M3.9723 16.6726C3.90846 16.5875 3.2063 16.46 2.41902 16.3537C1.39768 16.2261 0.844462 16.0348 0.48274 15.6947C-0.219427 15.0356 -0.155594 14.7805 0.67424 14.9506C3.29141 15.5033 7.37674 15.6309 10.1854 15.2907C11.0578 15.1844 12.6962 14.9931 13.8026 14.8655C15.9517 14.653 17.6752 14.3766 20.0583 13.8876C20.8669 13.7175 21.7392 13.59 21.9946 13.59C22.2712 13.59 22.9521 13.4624 23.5053 13.2924C24.0798 13.1223 25.2714 12.8247 26.1437 12.6333C27.0161 12.4632 28.3141 12.1656 29.0163 11.9743C29.7184 11.783 30.8674 11.5066 31.5696 11.3152C32.2718 11.1452 33.2292 10.8688 33.6974 10.72C34.1655 10.5712 35.6549 10.146 36.9954 9.76332C38.3359 9.38065 39.7828 8.95547 40.1871 8.80665C41.7404 8.25391 42.4425 8.02006 43.166 7.80747C43.5703 7.70117 43.9958 7.50984 44.1022 7.40354C44.2299 7.29724 44.5065 7.21221 44.7405 7.21221C44.9959 7.21221 45.464 7.06339 45.8044 6.89332C46.1236 6.72324 46.5066 6.57443 46.613 6.57443C46.7406 6.57443 47.1236 6.44687 47.4854 6.2768C47.8684 6.12799 48.5918 5.83035 49.1238 5.61776C49.6557 5.42643 50.4004 5.1288 50.7834 4.95872C51.1664 4.78865 51.5707 4.6611 51.6984 4.6611C51.826 4.6611 52.2303 4.53354 52.592 4.38472C52.975 4.21465 54.0815 3.78946 55.0815 3.4068C56.0816 3.02413 57.2093 2.57769 57.5923 2.40761C57.9753 2.23754 58.4009 2.10998 58.5498 2.10998C58.6988 2.08872 59.1881 1.91865 59.6563 1.6848C60.1244 1.45095 60.6138 1.28087 60.7414 1.25961C60.8904 1.25961 61.2734 1.1108 61.5925 0.940723C61.933 0.770649 62.4011 0.621834 62.6352 0.621834C62.8692 0.621834 63.2522 0.473019 63.465 0.302945C63.9969 -0.100982 64.9544 -0.100982 65.2949 0.302945C65.5077 0.558056 65.4438 0.643093 64.9544 0.834426C64.614 0.961982 64.0608 1.19583 63.699 1.36591C63.3586 1.51472 62.6777 1.81235 62.2096 2.00369C60.8904 2.55643 60.5925 2.66272 59.1243 3.34302C58.3583 3.68317 56.9753 4.27843 56.039 4.63984C55.1028 5.0225 54.0602 5.44769 53.6985 5.61776C53.358 5.76658 52.6559 6.04295 52.1665 6.23428C51.6558 6.42561 50.8898 6.70199 50.4643 6.87206C46.6981 8.31769 44.1235 9.23184 41.6765 10.0184C40.9105 10.2523 39.4849 10.72 38.4849 11.0389C37.4848 11.3578 36.0592 11.783 35.2932 11.9955C34.5272 12.1869 33.4846 12.4845 32.9526 12.6333C30.7397 13.2498 28.6758 13.7601 25.1862 14.5254C24.3777 14.7167 23.2287 14.9718 22.6329 15.0994C22.0584 15.227 20.6541 15.4608 19.5476 15.6309C18.4412 15.801 16.5687 16.0986 15.3985 16.2687C13.1856 16.6088 4.22763 16.9277 3.9723 16.6726Z" fill="rgb(0,0,0)" fill-rule="nonzero" transform="matrix(1,0,0,-1,142.337,70.7139)" />
		</g>
	</g>
</svg>
