<svg viewBox="0 0 268 230" xmlns="http://www.w3.org/2000/svg" xmlns:xlink="http://www.w3.org/1999/xlink" width="268.000000" height="230.000000" fill="none">
	<defs>
		<clipPath id="clipPath_13">
			<rect width="258.822998" height="227.157227" x="4.000000" y="1.000000" fill="rgb(255,255,255)" />
		</clipPath>
	</defs>
	<rect id="13" width="268.000000" height="230.000000" x="0.000000" y="0.000000" />
	<g id="13" clip-path="url(#clipPath_13)" customFrame="url(#clipPath_13)">
		<rect id="13" width="258.822998" height="227.157227" x="4.000000" y="1.000000" />
		<path id="矢量 426" d="M224.416 175.036L222.795 183.115L219.872 184.731L216.885 182.371L205.664 190.449L174.624 212.24L161.163 220.064L161.163 223.082L158.837 226.526L155.573 228.057L151.669 220.999L137.696 215.174L133.984 183.859L100.512 174.441L88.5012 184.391L84.3625 186.091L66.3359 177.843L65.2265 182.222L63.8185 185.687L59.8505 185.687L57.2692 179.543L44.6825 173.485L43.2959 167.532L7.30653 150.503L4.9812 143.7L9.05587 136.43L31.5625 120.655L36.0425 121.548L37.9412 117.573L41.2265 113.427L41.7812 105.774L47.1145 98.3969L44.4052 96.845L44.3199 89.8719L47.6052 84.4508L57.7599 81.2832L80.3092 73.885L108.875 69.2079L120.011 68.804L124.661 53.2422L133.045 35.8734L143.904 20.3329L148.576 19.6101L152.971 21.162L160.907 7.15217L168.587 2.15625L178.421 2.15625L208.459 4.91995L233.483 10.8513L239.776 16.1874L242.187 26.4981L241.248 31.9192L247.925 32.0042L252.896 37.3403L254.539 39.3174L258.507 40.8694L261.515 42.7614L261.024 48.0762L243.467 108.58L241.269 112.322L238.667 113.045L239.051 117.339L237.792 142.063L235.637 163.216L224.416 175.036Z" fill="rgb(255,255,255)" fill-rule="nonzero" />
		<path id="矢量 427" d="M120.245 67.8899L129.589 42.23L144.075 20.1416L153.269 20.1416L154.272 18.8448L160.224 8.00259L167.456 2.49644L176.437 1.56104L207.947 4.83496L230.197 9.72459L237.557 13.8489L240.864 18.5897L241.248 31.9193L246.112 31.983L252.64 35.9585L255.115 39.5301L261.963 42.3788L261.515 45.759L241.504 111.939L238.667 113.045L235.808 109.282L228.128 107.751L230.112 101.48L227.467 95.1868L214.411 89.5318L196.64 92.0617L181.536 95.8884L159.776 104.924L150.197 110.345L141.92 114.575L139.509 121.081L142.176 130.626L114.933 160.899L87.7332 185.687L81.8665 185.156L5.91987 149.802L4.9812 141.468L23.7972 125.991L33.2905 120.655L36.0425 121.548L42.5065 112.917L59.1679 98.3119L71.8612 92.0617L87.7972 91.1476L97.8239 92.8058L105.163 91.1476L122.848 90.4035L129.611 91.8279L132.256 84.4509L131.488 76.6275L127.264 71.0363L121.909 69.293L119.669 67.4222" fill="rgb(1,89,188)" fill-rule="nonzero" />
		<g id="组合 85">
			<path id="矢量 428" d="M117.312 40.6204C117.973 40.7905 119.275 41.0243 120.213 41.1731C123.264 41.5983 123.84 41.7259 124.288 42.0022C124.672 42.2574 124.864 42.2148 125.888 41.6621C126.528 41.3007 127.36 40.9393 127.723 40.8542C128.107 40.7905 128.469 40.6204 128.533 40.5141C128.619 40.4078 128.896 40.3228 129.173 40.3228C129.451 40.3228 129.749 40.2165 129.813 40.1102C129.899 39.9826 129.984 38.7071 130.027 37.2827C130.048 35.8583 130.155 34.2214 130.219 33.6261C130.304 33.0521 130.453 30.9474 130.56 28.9491C130.688 26.972 130.901 24.1019 131.072 22.5713C131.883 15.3006 132.608 12.792 134.187 11.9204C134.933 11.5165 138.155 10.0496 139.776 9.39054C140.523 9.09291 141.632 8.60395 142.251 8.30632C142.869 8.02995 143.424 7.7961 143.488 7.7961C143.552 7.7961 144.235 7.49847 145.003 7.15832C145.749 6.79691 146.496 6.52054 146.645 6.52054C147.093 6.52054 147.563 5.84025 147.733 4.94736C147.968 3.60802 149.12 1.43958 149.973 0.780541C150.507 0.355356 151.083 0.142763 151.936 0.0364667C154.645 -0.303681 156.608 1.73721 157.76 6.09536C157.973 6.86069 158.165 7.5835 158.187 7.71106C158.229 7.83862 158.869 8.24254 159.616 8.62521C160.341 9.00787 161.259 9.49684 161.6 9.70943C161.963 9.92202 162.603 10.3047 163.029 10.5385C163.477 10.7724 164.245 11.2401 164.736 11.559C165.248 11.8779 165.845 12.2605 166.101 12.3881C166.357 12.5157 168.171 13.5999 170.155 14.7904C172.139 15.9809 173.952 17.0864 174.187 17.2139C174.421 17.3628 174.955 17.7242 175.381 18.0643C175.808 18.3832 176.235 18.6383 176.32 18.6383C176.405 18.6383 176.832 18.9147 177.259 19.2548C177.685 19.5737 178.133 19.8926 178.24 19.9351C178.368 19.9777 180.032 21.0831 181.952 22.3587C183.872 23.6555 185.579 24.8035 185.771 24.9098C185.941 25.0374 186.24 25.25 186.432 25.3988C187.221 26.0365 190.315 28.205 190.421 28.205C190.507 28.205 190.848 28.4601 191.232 28.7577C191.595 29.0554 193.92 30.7986 196.373 32.6057C198.848 34.434 200.896 35.9859 200.96 36.0497C201.216 36.3473 203.072 37.7717 203.2 37.7717C203.285 37.7717 203.989 38.3244 204.779 39.0047C205.547 39.685 206.613 40.5566 207.147 40.9605C208.107 41.6834 210.731 43.9156 211.456 44.6171C212.011 45.1486 212.224 45.0848 212.544 44.2982C212.949 43.3841 213.461 42.9589 214.549 42.6825C216 42.2786 217.152 42.6825 218.069 43.8943C218.475 44.4471 219.008 45.3825 219.285 45.9565C219.541 46.5517 219.84 47.1682 219.925 47.3383C220.032 47.5297 220.181 47.9761 220.245 48.3588C220.331 48.7202 220.501 49.0816 220.608 49.1454C220.715 49.2304 220.8 49.5493 220.8 49.8682C220.8 50.1871 220.885 50.5272 220.992 50.6548C221.12 50.7611 221.291 51.3988 221.397 52.0579C221.568 53.1634 221.675 53.3547 222.848 54.3964C223.531 55.0129 224.853 56.246 225.792 57.1176C230.677 61.7521 231.915 63.2828 232.469 65.3449C233.088 67.726 233.749 73.0408 234.219 79.6524C234.347 81.3531 234.496 83.0326 234.56 83.3728C234.731 84.2231 235.243 91.1749 235.499 96.022C235.627 98.1905 235.819 101.252 235.947 102.825C236.288 107.374 236.224 112.222 235.819 113.242C235.371 114.348 235.541 114.73 236.437 114.73C236.971 114.73 237.312 114.922 237.888 115.538C238.997 116.686 239.232 117.154 240 119.62C240.384 120.853 241.109 123.149 241.6 124.722C242.688 128.102 243.52 130.908 244.48 134.289C244.864 135.628 245.291 137.116 245.419 137.584C245.909 139.093 246.549 141.326 247.339 144.068C247.509 144.706 247.808 145.769 248 146.406C248.192 147.044 248.469 148.065 248.64 148.639C249.323 151.041 250.283 154.294 250.88 156.292C251.243 157.461 251.691 158.949 251.861 159.587C252.48 161.649 252.843 162.861 253.12 163.626C253.653 165.093 254.72 168.622 254.72 168.92C254.72 169.069 254.869 169.643 255.04 170.196C255.573 171.896 256.619 175.383 256.981 176.701C257.173 177.402 257.451 178.402 257.6 178.933C258.923 183.313 259.115 184.886 258.453 185.885C258.005 186.544 256.832 187.649 256.576 187.649C256.469 187.649 256.085 187.777 255.723 187.947C254.443 188.5 252.928 188.925 252.16 188.925C251.328 188.925 250.88 189.223 250.88 189.818C250.88 191.178 248.043 194.134 245.461 195.43C242.752 196.791 241.152 197.259 239.787 197.11C238.443 196.94 238.165 197.174 238.507 198.173C238.656 198.64 238.784 200.171 238.784 201.766C238.805 204.551 238.464 206.847 237.739 208.76C237.568 209.185 237.44 209.738 237.44 209.972C237.44 210.716 236.096 213.182 235.115 214.287C234.581 214.861 233.664 215.69 233.088 216.116C231.979 216.923 228.117 218.901 227.627 218.901C227.499 218.901 227.072 219.028 226.709 219.198C226.325 219.368 225.6 219.602 225.067 219.73C222.827 220.304 220.587 220.814 219.093 221.112C218.219 221.282 216.917 221.537 216.213 221.664C215.509 221.813 214.507 221.983 213.973 222.089C213.44 222.174 212.395 222.345 211.627 222.493C205.461 223.663 204.053 223.918 201.6 224.3C200.491 224.492 199.189 224.662 198.72 224.704C198.251 224.768 197.333 224.896 196.693 225.023C196.053 225.151 194.219 225.385 192.64 225.576C189.952 225.874 188.139 226.044 177.28 226.873C172.352 227.255 167.125 227.255 165.76 226.852C165.227 226.703 164.501 226.575 164.117 226.575C163.755 226.554 163.392 226.469 163.307 226.363C163.243 226.256 162.88 226.086 162.496 226.022C160.256 225.533 157.099 222.897 154.987 219.751C154.197 218.582 153.877 218.029 153.685 217.625C153.6 217.455 153.301 216.966 153.045 216.541C152.661 215.903 151.424 213.671 150.123 211.141C149.931 210.801 149.568 210.057 149.333 209.504C149.035 208.866 148.736 208.484 148.523 208.484C148.309 208.484 147.392 208.739 146.453 209.036C144.469 209.674 142.507 209.653 140.693 208.951C139.349 208.42 137.472 206.74 136.427 205.146C135.979 204.466 135.509 203.806 135.381 203.7C135.253 203.573 135.061 203.318 134.933 203.126C134.827 202.935 134.059 201.787 133.248 200.575C130.795 196.918 128.981 194.048 128.576 193.177C128.491 193.007 127.936 192.008 127.36 190.945C126.144 188.734 125.867 188.202 124.309 184.886C122.944 181.994 122.432 180.868 121.92 179.571C121.707 179.039 121.429 178.338 121.28 177.976C121.109 177.636 120.789 176.765 120.533 176.063C120.277 175.362 119.872 174.32 119.637 173.725C118.912 171.833 118.613 170.982 118.165 169.579C117.909 168.814 117.589 167.857 117.44 167.453C116.693 165.412 115.84 162.372 115.84 161.713C115.84 161.309 115.755 160.863 115.669 160.735C115.584 160.565 114.091 160.438 111.467 160.353C107.776 160.225 106.176 160.076 100.16 159.375C99.1147 159.247 97.3013 159.056 96.1493 158.949C94.976 158.822 93.9307 158.673 93.8027 158.588C93.6747 158.524 92.9493 158.375 92.1814 158.29C90.56 158.12 87.5947 157.61 86.1867 157.291C85.6534 157.185 84.4587 156.909 83.52 156.717C82.5813 156.505 81.5787 156.271 81.28 156.164C80.9813 156.079 80.3627 155.931 79.8933 155.867C79.424 155.782 78.6133 155.59 78.08 155.442C77.5467 155.293 76.5013 155.016 75.7333 154.804C71.7867 153.783 68.3733 152.784 66.0267 151.998C65.216 151.7 64.256 151.402 63.8933 151.296C63.552 151.19 62.72 150.913 62.08 150.658C61.44 150.403 60.7147 150.148 60.48 150.063C60.2453 149.999 59.8187 149.829 59.52 149.659C59.2213 149.51 58.88 149.383 58.7307 149.383C58.5813 149.383 58.1547 149.255 57.7707 149.085C55.0613 147.916 50.7733 146.555 47.68 145.875C44.736 145.237 42.56 143.94 41.1947 142.048C39.5307 139.731 39.0187 137.988 39.2533 135.224C39.552 131.844 39.8507 130.951 41.024 130.037C41.7707 129.442 41.7493 129.186 40.9387 128.421C39.4667 127.061 37.7813 123.872 36.9707 121.002C36.6933 120.002 36.416 118.089 36.0747 115.049C35.9467 113.837 35.8613 113.646 34.496 112.094C32.896 110.287 32 108.969 32 108.459C32 107.948 31.4667 107.842 30.08 108.119C27.6907 108.586 26.304 107.948 19.5627 103.314C18.4107 102.527 17.3013 101.783 17.1093 101.656C16.9173 101.549 16.6613 101.337 16.5333 101.209C16.4267 101.082 15.9787 100.763 15.5733 100.486C15.168 100.21 14.2933 99.5723 13.6533 99.0621C13.0133 98.5731 11.9467 97.744 11.3067 97.2551C10.6667 96.7448 10.048 96.2771 9.92 96.1921C8.72534 95.3417 3.94667 90.7497 2.56 89.1128C1.06667 87.3483 0 84.9034 0 83.224C0 82.7775 0.149333 82.0547 0.32 81.6295C0.490667 81.2256 0.64 80.6941 0.64 80.5028C0.64 79.78 1.70667 78.0154 2.64533 77.1438C3.392 76.4423 6.464 74.7628 6.95467 74.7628C6.99733 74.7628 7.70133 74.4651 8.49067 74.1037C9.28 73.7211 10.2613 73.2959 10.6667 73.1045C11.072 72.9345 11.5627 72.7006 11.7333 72.5943C11.904 72.5093 12.2027 72.3605 12.3733 72.2967C12.544 72.2329 13.0773 71.9991 13.5467 71.7865C15.168 71.0424 17.8133 69.8519 19.52 69.0865C20.4587 68.6826 21.8027 68.0661 22.5067 67.7472C23.2107 67.4071 24.1707 66.9819 24.64 66.7906C25.1093 66.578 26.176 66.1103 26.9867 65.7276C27.8187 65.3449 29.2053 64.6859 30.08 64.3032C33.6427 62.6875 34.944 62.071 36.5867 61.2631C38.2293 60.4553 38.2933 60.3703 38.4213 59.5624C38.976 56.1184 39.5947 54.4177 40.64 53.4823C41.2587 52.9082 45.6747 50.5485 46.1227 50.5272C46.208 50.5272 47.0613 50.1658 48.0427 49.6981C49.7493 48.8902 51.5627 48.1462 52.3307 47.8911C52.5227 47.8273 52.6933 47.5934 52.6933 47.3383C52.6933 45.34 54.3787 42.0235 55.7867 41.3007C56.4907 40.9393 56.8107 40.8968 58.2827 40.9393C59.136 40.9605 59.392 41.0668 60.224 41.896C60.7573 42.4062 61.2907 43.1502 61.3973 43.5329C61.5253 43.9368 61.824 44.7872 62.08 45.425C62.3147 46.0628 62.5707 47.0832 62.592 47.6572C62.6347 48.2525 62.6773 48.784 62.6987 48.8902C62.7413 49.2091 63.5307 49.0178 64.2987 48.5076C64.7253 48.21 65.1307 47.9761 65.1733 47.9761C65.2374 47.9761 65.9627 47.6572 66.816 47.2533C68.2667 46.573 69.12 46.1903 72.704 44.5534C73.4933 44.192 74.9013 43.5329 75.84 43.0865C79.5093 41.3645 79.7013 41.322 81.664 41.4708C83.136 41.5983 83.6267 41.7471 84.544 42.2999C85.5893 42.9377 88.0854 44.7234 88.32 44.9998C88.384 45.0848 89.536 46.1265 90.88 47.3383C93.632 49.7831 95.2533 51.3138 96.4053 52.4831C96.832 52.9295 97.3014 53.2909 97.4294 53.2909C97.5787 53.2909 98.4107 52.972 99.2427 52.5681C100.096 52.1642 101.333 51.6327 101.973 51.3776C102.613 51.1437 103.339 50.8461 103.573 50.7398C103.808 50.6335 104.448 50.3997 104.981 50.2083C105.557 49.9957 106.091 49.6343 106.304 49.2942C106.496 48.9753 107.093 48.2525 107.627 47.6572M179.307 225.066C184.832 224.662 187.371 224.449 189.291 224.215C193.216 223.748 196.416 223.322 198.251 223.025C199.275 222.855 200.405 222.727 200.768 222.727C201.131 222.727 202.005 222.578 202.731 222.408C203.456 222.238 205.013 221.941 206.187 221.749C207.36 221.558 208.747 221.303 209.28 221.197C209.813 221.069 210.965 220.856 211.84 220.708C215.403 220.134 220.395 219.092 223.253 218.327C224.32 218.05 225.515 217.731 225.941 217.625C227.2 217.306 230.208 215.946 231.467 215.138C232.811 214.266 234.517 212.587 235.008 211.63C235.392 210.886 235.733 209.674 236.416 206.676C236.821 204.912 236.885 203.955 236.864 201.064C236.864 197.705 236.843 197.535 236.373 197.174C236.117 196.961 235.691 196.791 235.413 196.791C234.688 196.791 233.088 195.452 231.893 193.857C231.317 193.071 230.763 192.326 230.677 192.22C229.909 191.2 226.56 185.821 226.56 185.609C226.56 185.545 226.389 185.226 226.155 184.928C225.472 183.95 223.808 180.761 221.973 176.914C219.2 171.088 219.051 170.748 217.557 167.028C217.216 166.156 216.811 165.157 216.64 164.796C216.363 164.115 215.872 162.882 215.381 161.564C215.232 161.118 214.805 159.991 214.443 159.056C214.101 158.12 213.653 156.781 213.44 156.079C213.248 155.378 212.949 154.528 212.8 154.166C212.651 153.826 212.459 153.337 212.395 153.103C212.331 152.869 212.096 152.061 211.861 151.296C211.648 150.531 211.2 149.064 210.88 148.001C210.56 146.959 210.112 145.471 209.877 144.706C209.664 143.94 209.387 142.941 209.28 142.474C209.173 142.006 208.981 141.198 208.832 140.666C208.704 140.135 208.555 139.582 208.512 139.455C208.469 139.242 207.723 139.178 205.824 139.178C204.373 139.157 202.581 139.03 201.813 138.859C201.045 138.689 200.107 138.562 199.701 138.541C199.317 138.541 198.357 138.413 197.568 138.243C196.288 137.967 195.328 137.775 192.427 137.265C190.848 136.989 188.971 136.606 187.84 136.308C185.387 135.692 184.597 135.5 183.893 135.352C183.488 135.245 182.869 135.075 182.507 134.948C182.165 134.841 181.248 134.544 180.48 134.31C179.051 133.864 178.155 133.566 176.853 133.119C176.448 132.971 175.531 132.673 174.827 132.46C174.123 132.248 173.355 131.95 173.12 131.801C172.885 131.653 172.544 131.525 172.331 131.525C172.139 131.525 171.371 131.249 170.624 130.93C169.877 130.59 168.512 129.994 167.573 129.612C165.568 128.804 162.411 127.337 160.384 126.295C158.784 125.487 158.507 125.487 156.16 126.423C155.52 126.678 154.645 126.954 154.24 127.061C153.835 127.146 153.259 127.316 152.96 127.422C152.661 127.55 151.851 127.805 151.147 128.017C150.443 128.209 149.504 128.506 149.077 128.676C147.264 129.335 146.411 129.675 145.749 129.952C145.365 130.122 144.896 130.249 144.725 130.249C144.533 130.249 144.128 130.377 143.829 130.547C143.509 130.717 142.827 131.015 142.293 131.206C140.907 131.759 139.776 132.269 136.427 133.864C132.821 135.586 130.581 136.457 128.384 136.946C127.467 137.159 126.72 137.414 126.72 137.52C126.72 137.882 127.381 139.922 128 141.411C129.28 144.578 129.579 147.129 128.939 149.149C128.32 151.062 128.427 151.976 129.6 155.335C130.581 158.099 131.691 161.522 131.819 162.202C131.925 162.649 132.117 163.138 132.245 163.265C132.373 163.393 132.48 163.626 132.48 163.797C132.48 164.286 133.931 167.836 134.507 168.729C134.805 169.196 135.04 169.643 135.04 169.728C135.04 169.813 135.467 170.514 135.979 171.28C136.832 172.555 136.939 172.81 137.024 174.256C137.109 175.723 137.323 176.616 138.048 178.721C139.029 181.612 139.691 183.376 140.48 185.311C140.992 186.544 141.611 188.075 141.867 188.712C142.123 189.35 142.656 190.562 143.04 191.37C143.424 192.199 144.128 193.815 144.64 194.984C145.131 196.153 145.621 197.195 145.728 197.322C145.835 197.429 145.92 197.641 145.92 197.811C145.92 197.96 146.347 198.981 146.88 200.065C147.413 201.17 147.84 202.106 147.84 202.191C147.84 202.361 148.907 204.721 150.059 207.102C150.571 208.165 151.04 209.164 151.125 209.334C151.189 209.504 151.829 210.716 152.533 211.991C153.237 213.288 153.963 214.67 154.155 215.074C154.347 215.478 154.709 216.094 154.965 216.456C155.456 217.157 155.861 217.774 156.075 218.263C156.459 219.049 158.187 221.09 159.403 222.174C161.131 223.748 162.795 224.534 165.44 225.066C166.656 225.3 176 225.3 179.307 225.066ZM145.109 207.633C145.621 207.527 146.411 207.357 146.88 207.25C148.011 207.038 148.053 206.634 147.136 204.784C146.176 202.871 144.64 199.555 144.64 199.427C144.64 199.321 144.149 198.215 143.04 195.834C142.656 195.026 142.144 193.815 141.867 193.177C141.611 192.539 141.12 191.412 140.779 190.69C140.437 189.945 140.16 189.244 140.16 189.116C140.16 188.989 140.032 188.627 139.861 188.33C139.413 187.458 138.24 184.652 138.24 184.418C138.24 184.29 138.112 183.908 137.941 183.546C137.429 182.356 137.003 181.187 136.64 179.996C136.427 179.358 136.192 178.614 136.085 178.338C135.659 177.254 135.04 174.447 135.04 173.661C135.04 173.044 134.805 172.492 134.144 171.45C132.992 169.728 130.944 165.285 130.539 163.733C130.453 163.393 130.027 162.138 129.6 160.969C128.789 158.779 128.725 158.567 128.043 155.654C127.595 153.762 127.125 153.337 126.656 154.421C126.187 155.505 124.949 156.845 123.52 157.78C121.792 158.907 119.104 160.012 118.037 160.012C117.312 160.012 117.056 160.501 117.44 161.203C117.611 161.543 117.76 162.032 117.76 162.287C117.76 162.542 117.867 163.01 117.995 163.35C118.123 163.669 118.315 164.286 118.421 164.689C118.656 165.731 119.595 168.516 120.661 171.344C120.853 171.833 121.131 172.577 121.28 172.981C121.771 174.32 122.283 175.617 122.56 176.276C122.709 176.637 122.965 177.296 123.157 177.764C123.819 179.486 124.437 180.974 124.971 182.122C126.037 184.418 128.256 188.84 128.981 190.094C129.387 190.796 129.792 191.561 129.899 191.816C130.069 192.178 130.987 193.772 132.053 195.515C133.44 197.79 134.677 199.682 135.701 201.064C136.405 201.999 136.96 202.807 136.96 202.871C136.96 203.147 138.944 205.528 139.904 206.4C141.376 207.697 143.061 208.101 145.109 207.633ZM242.069 194.963C243.328 194.559 245.717 193.389 246.016 193.028C246.144 192.879 246.357 192.752 246.485 192.752C246.912 192.752 248.832 190.201 249.216 189.18C249.408 188.627 249.579 187.713 249.579 187.118C249.579 186.14 249.088 183.844 248.576 182.547C248.469 182.25 248.064 181.017 247.68 179.784C247.317 178.55 246.869 177.232 246.699 176.85C246.528 176.467 246.4 176.021 246.4 175.851C246.4 175.68 246.272 175.234 246.101 174.851C245.952 174.469 245.653 173.618 245.44 172.981C245.248 172.343 244.949 171.535 244.8 171.174C244.651 170.833 244.48 170.344 244.416 170.111C244.16 169.175 242.944 165.859 242.795 165.646C242.688 165.54 242.56 165.2 242.496 164.902C242.432 164.604 242.091 163.605 241.749 162.67C241.387 161.734 240.981 160.629 240.832 160.225C240.704 159.821 240.299 158.822 239.979 158.014C239.637 157.206 239.36 156.398 239.36 156.207C239.36 155.994 239.211 155.654 239.04 155.42C238.869 155.208 238.72 154.846 238.72 154.655C238.72 154.442 238.592 153.975 238.421 153.592C238.251 153.209 237.973 152.508 237.803 152.04C237.611 151.572 237.035 150.084 236.501 148.724C235.968 147.363 235.52 146.194 235.52 146.109C235.52 146.003 235.371 145.599 235.179 145.173C234.987 144.727 234.709 144.068 234.539 143.685C234.368 143.303 234.24 142.835 234.24 142.665C234.24 142.474 234.112 142.07 233.941 141.772C233.771 141.453 233.493 140.773 233.28 140.241C233.088 139.71 232.789 139.008 232.619 138.689C232.448 138.349 232.32 137.988 232.32 137.86C232.32 137.754 232.192 137.35 232.021 136.989C231.872 136.606 231.595 135.926 231.403 135.458C230.955 134.289 229.76 131.334 229.483 130.675C229.035 129.633 228.672 128.655 228.48 128.017C228.267 127.231 227.861 126.104 227.477 125.211C227.328 124.85 227.2 124.467 227.2 124.339C227.2 124.233 227.051 124.02 226.88 123.872C226.709 123.723 226.56 123.383 226.56 123.106C226.56 122.851 226.453 122.554 226.325 122.49C226.219 122.405 226.005 122.107 225.899 121.788C225.749 121.384 225.621 121.321 225.451 121.491C225.301 121.639 225.28 121.81 225.429 122.001C225.536 122.15 225.856 123.106 226.112 124.106C226.645 126.104 226.645 127.847 226.112 129.208C225.749 130.101 223.893 132.63 222.997 133.46C220.139 136.053 215.509 138.307 212.267 138.668C211.499 138.732 210.752 138.902 210.603 139.03C210.283 139.285 210.368 140.071 210.859 141.623C211.008 142.091 211.307 143.09 211.499 143.855C211.904 145.386 212.992 149.021 213.461 150.339C213.632 150.828 213.76 151.339 213.76 151.487C213.76 151.636 213.888 152.061 214.037 152.423C214.421 153.337 214.805 154.4 215.125 155.548C215.296 156.079 215.723 157.312 216.085 158.312C216.469 159.311 216.853 160.416 216.981 160.756C217.088 161.118 217.259 161.586 217.365 161.819C217.472 162.053 217.685 162.627 217.877 163.095C218.432 164.562 219.541 167.326 219.84 167.985C220.011 168.346 220.395 169.196 220.693 169.898C221.013 170.6 221.568 171.854 221.931 172.662C222.784 174.532 226.56 181.973 227.157 182.972C227.413 183.376 227.712 183.908 227.819 184.142C228.139 184.864 231.339 190.094 231.851 190.753C232.128 191.093 232.875 192.071 233.515 192.922C235.136 195.048 235.669 195.282 238.656 195.303C240.277 195.303 241.387 195.196 242.069 194.963ZM252.651 187.628C253.077 187.522 253.44 187.288 253.44 187.118C253.44 186.778 251.861 186.268 251.392 186.459C251.029 186.608 251.008 187.267 251.349 187.607C251.648 187.905 251.648 187.905 252.651 187.628ZM256 185.311C256.555 185.035 256.896 184.694 256.981 184.333C257.131 183.78 256.832 182.08 256.32 180.528C256.171 180.06 255.872 179.103 255.68 178.402C255.147 176.467 254.507 174.32 253.952 172.598C253.675 171.748 253.44 170.897 253.44 170.685C253.44 170.472 253.163 169.494 252.843 168.516C252.501 167.517 252.053 166.135 251.861 165.434C251.029 162.712 250.816 162.011 250.539 161.182C250.368 160.693 250.24 160.161 250.24 159.97C250.24 159.757 250.112 159.29 249.941 158.907C249.771 158.524 249.472 157.631 249.259 156.93C249.067 156.228 248.619 154.74 248.277 153.635C247.509 151.147 247.189 150.084 246.72 148.32C246.528 147.554 246.272 146.704 246.144 146.428C246.037 146.13 245.867 145.514 245.76 145.046C245.675 144.557 245.483 143.898 245.376 143.536C245.248 143.196 244.992 142.325 244.8 141.623C244.459 140.433 244.203 139.604 243.52 137.265C243.371 136.734 243.072 135.734 242.88 135.033C242.667 134.331 242.389 133.375 242.24 132.907C242.091 132.439 241.813 131.482 241.6 130.781C241.408 130.079 241.109 129.123 240.96 128.655C240.811 128.187 240.384 126.805 240.021 125.572C239.659 124.339 239.253 123.064 239.125 122.702C238.997 122.362 238.805 121.724 238.72 121.321C238.4 119.96 237.44 117.643 236.885 116.92C236.096 115.878 235.541 115.984 234.645 117.324C234.261 117.94 233.685 118.663 233.387 118.918C232.405 119.769 229.717 120.683 228.181 120.683C227.285 120.683 227.2 120.725 227.2 121.193C227.2 121.469 227.349 121.81 227.52 121.958C227.691 122.107 227.84 122.384 227.84 122.596C227.84 122.809 227.989 123.085 228.16 123.234C228.331 123.383 228.48 123.617 228.48 123.765C228.48 123.914 228.779 124.616 229.12 125.317C229.483 126.04 229.76 126.699 229.76 126.784C229.76 126.869 230.336 128.336 231.061 130.037C232.576 133.608 233.344 135.5 234.133 137.584C235.691 141.644 236.203 142.962 236.459 143.536C236.629 143.898 236.821 144.366 236.864 144.599C237.013 145.11 237.589 146.768 237.845 147.363C238.251 148.299 239.552 151.721 241.28 156.398C241.643 157.398 242.091 158.503 242.24 158.843C242.389 159.205 242.56 159.672 242.624 159.906C242.688 160.14 242.944 160.863 243.2 161.501C243.456 162.138 243.776 163.052 243.947 163.52C244.416 164.945 245.483 167.878 246.187 169.792C246.549 170.791 246.933 171.896 247.019 172.236C247.104 172.598 247.275 173.066 247.403 173.299C247.637 173.767 247.893 174.447 248.576 176.595C248.811 177.36 249.28 178.784 249.6 179.784C250.283 181.846 250.773 183.461 250.965 184.312C251.285 185.672 254.165 186.246 256 185.311ZM117.056 158.439C120.32 157.844 123.307 156.313 124.8 154.464C125.376 153.741 125.696 153.146 126.507 151.19C126.677 150.743 127.253 148.617 127.445 147.661C127.616 146.895 127.253 146.64 125.611 146.385C121.515 145.726 119.957 145.471 117.547 144.982C116.075 144.706 114.411 144.387 113.813 144.281C113.237 144.174 112.085 143.94 111.253 143.77C109.739 143.451 108.651 143.218 105.813 142.665C104.939 142.495 103.787 142.261 103.253 142.112C102.72 141.985 102.016 141.836 101.653 141.793C101.312 141.751 100.672 141.623 100.267 141.517C99.5627 141.326 97.8134 140.922 94.1867 140.114C92.7573 139.795 91.6267 139.518 88.8533 138.838C88.1493 138.647 87.104 138.37 86.528 138.179C85.696 137.903 84.5227 137.839 80.448 137.882C75.8827 137.903 74.1547 137.796 70.6133 137.286C68.0533 136.904 65.2373 136.202 63.68 135.564C63.3387 135.415 62.6987 135.16 62.2933 134.99C61.888 134.82 61.3547 134.586 61.12 134.459C60.8853 134.331 60.0747 133.906 59.3067 133.502C58.56 133.098 57.792 132.652 57.6 132.482C57.408 132.312 57.1733 132.163 57.088 132.163C57.0027 132.163 56.6613 131.95 56.32 131.695C55.7653 131.291 55.5307 131.27 53.9307 131.376C52.544 131.482 51.7547 131.674 50.3467 132.29C49.344 132.716 48.448 133.141 48.3413 133.247C48.2133 133.353 47.9787 133.438 47.808 133.438C47.616 133.46 47.0827 133.63 46.6133 133.864C46.144 134.097 45.6747 134.267 45.5893 134.289C45.4827 134.289 44.864 134.544 44.2027 134.841C43.5413 135.139 42.5387 135.586 41.984 135.841C40.9813 136.287 40.96 136.33 40.96 137.244C40.96 138.498 42.0053 140.581 43.264 141.857C44.2453 142.835 46.4 143.983 47.6373 144.196C49.4933 144.493 52.8 145.407 53.9093 145.896C54.272 146.066 54.72 146.194 54.912 146.194C55.0827 146.194 55.552 146.321 55.936 146.492C56.5973 146.789 58.1973 147.384 61.8667 148.724C64.4693 149.68 64.8533 149.808 67.3067 150.573C68.608 150.977 70.4213 151.572 71.36 151.87C72.2987 152.168 73.4507 152.487 73.92 152.572C74.3893 152.657 75.3067 152.891 75.9467 153.082C76.5867 153.252 77.5467 153.528 78.08 153.656C78.6133 153.783 79.5307 154.017 80.1067 154.166C81.6213 154.549 84.0533 155.08 84.8 155.208C85.1627 155.272 85.8667 155.399 86.4 155.527C88.192 155.931 92.1173 156.632 94.2934 156.93C94.592 156.972 96.128 157.164 97.7067 157.334C99.2853 157.525 101.461 157.759 102.507 157.886C103.573 158.014 105.771 158.205 107.413 158.333C109.056 158.439 111.125 158.631 112 158.716C113.835 158.949 114.603 158.907 117.056 158.439ZM127.403 144.855C127.296 143.77 125.483 141.113 124.843 141.092C124.693 141.092 124.352 140.964 124.096 140.794C123.499 140.433 121.941 139.944 119.893 139.497C119.019 139.306 117.909 139.072 117.44 138.966C116.971 138.859 114.432 138.732 111.787 138.647C105.941 138.498 100.16 137.882 96.2133 136.946C95.5733 136.797 94.592 136.563 94.0587 136.457C93.44 136.308 92.8 136.287 92.352 136.415C91.9467 136.521 90.9227 136.712 90.0907 136.84C88.3413 137.116 87.9787 137.584 89.344 137.796C90.8373 138.009 93.9734 138.583 94.6133 138.753C94.976 138.838 96.2133 139.136 97.3867 139.391C98.56 139.646 99.8614 139.944 100.267 140.029C100.672 140.135 102.016 140.411 103.253 140.666C106.005 141.198 107.669 141.538 112.96 142.686C113.664 142.835 115.2 143.111 116.373 143.324C117.547 143.515 118.848 143.77 119.253 143.877C119.659 143.983 120.619 144.174 121.387 144.281C124.011 144.684 125.781 145.067 126.208 145.301C126.421 145.45 126.805 145.535 127.04 145.492C127.36 145.471 127.445 145.322 127.403 144.855ZM125.547 138.923C125.461 138.413 125.312 137.924 125.227 137.839C125.141 137.733 124.373 137.733 123.541 137.818C121.685 137.988 121.536 138.434 123.2 138.902C123.797 139.072 124.416 139.348 124.587 139.518C124.757 139.689 125.077 139.816 125.291 139.816C125.632 139.816 125.675 139.71 125.547 138.923ZM212.608 136.861C216.896 135.692 219.136 134.523 221.696 132.184C223.787 130.271 225.387 127.294 224.683 126.593C224.576 126.487 223.616 126.21 222.592 125.998C221.547 125.764 220.16 125.445 219.52 125.275C217.195 124.637 215.979 124.318 215.04 124.063C214.507 123.935 213.888 123.744 213.653 123.638C213.419 123.532 212.181 123.106 210.88 122.702C209.6 122.277 208.341 121.852 208.107 121.767C206.208 121.002 205.269 120.683 204.885 120.683C204.651 120.683 204.373 120.598 204.267 120.491C204.139 120.385 203.328 120.066 202.453 119.769C200.107 118.961 199.403 118.727 198.933 118.536C198.699 118.429 197.973 118.153 197.333 117.919C196.693 117.685 195.968 117.409 195.733 117.303C194.773 116.899 192.277 115.942 191.68 115.729C190.997 115.496 189.568 114.943 185.6 113.37C184.235 112.838 183.083 112.392 182.997 112.392C182.912 112.392 182.208 112.094 181.397 111.733C177.941 110.202 177.109 109.841 176.853 109.841C176.747 109.841 176.469 109.756 176.256 109.649C176.064 109.522 175.424 109.224 174.827 108.969C174.251 108.714 173.504 108.374 173.184 108.225C172.885 108.055 172.501 107.927 172.352 107.927C172.181 107.927 171.52 107.672 170.88 107.374C170.24 107.077 169.429 106.694 169.067 106.545C167.168 105.716 166.229 105.291 165.717 105.036C165.419 104.866 165.056 104.738 164.949 104.738C164.821 104.738 164.096 104.462 163.349 104.101C162.581 103.76 161.835 103.463 161.664 103.463C161.493 103.463 161.28 103.378 161.152 103.271C161.045 103.186 160.427 102.931 159.787 102.719C155.435 101.337 152.747 101.316 148.053 102.612C147.648 102.719 146.453 103.016 145.387 103.25C144.341 103.505 143.232 103.782 142.933 103.867C142.635 103.973 141.632 104.207 140.693 104.419C138.261 104.93 136.725 105.419 136.597 105.738C136.448 106.12 136.96 108.99 137.301 109.713C137.472 110.053 137.6 110.415 137.6 110.5C137.6 110.818 138.859 112.498 139.669 113.263C140.523 114.071 142.4 115.219 143.979 115.921C145.152 116.431 149.781 118.748 150.933 119.407C151.872 119.939 153.387 120.768 155.52 121.916C156.288 122.32 157.291 122.851 157.76 123.106C158.549 123.553 162.304 125.317 165.547 126.805C166.315 127.146 168.128 127.932 169.6 128.549C171.072 129.165 172.459 129.739 172.693 129.846C173.291 130.101 174.933 130.675 175.68 130.887C176.043 130.972 176.853 131.27 177.493 131.525C178.133 131.78 178.965 132.056 179.307 132.142C179.669 132.248 180.821 132.567 181.867 132.907C185.6 134.034 187.968 134.586 193.6 135.649C194.539 135.841 195.605 136.032 195.947 136.096C196.309 136.16 197.12 136.308 197.76 136.436C198.4 136.542 199.744 136.776 200.747 136.946C203.2 137.393 204.181 137.435 207.893 137.35C210.261 137.308 211.477 137.18 212.608 136.861ZM119.168 136.734C121.387 136.563 123.499 136.33 123.819 136.202C124.139 136.096 124.651 135.989 124.949 135.989C125.269 135.989 125.995 135.841 126.592 135.671C127.189 135.5 128.405 135.16 129.28 134.926C131.157 134.395 130.901 134.523 134.891 132.609C138.496 130.866 140.48 129.994 142.251 129.314C145.493 128.081 146.005 127.89 150.187 126.529C153.685 125.36 154.283 125.19 155.243 125.041C155.733 124.956 156.181 124.765 156.245 124.573C156.395 124.212 156.224 123.872 155.904 123.872C155.648 123.872 151.488 121.81 151.104 121.491C150.955 121.363 150.165 120.917 149.376 120.491C148.565 120.066 147.52 119.514 147.029 119.237C146.176 118.791 146.091 118.769 145.344 119.11C142.827 120.151 139.307 120.853 134.101 121.321C132.928 121.427 131.883 121.448 131.776 121.384C131.669 121.321 130.987 121.427 130.261 121.618C129.557 121.831 128.448 122.128 127.829 122.277C123.989 123.319 119.168 124.828 116.693 125.785C116.053 126.04 115.285 126.316 114.987 126.423C113.579 126.912 112.597 127.294 112.256 127.486C111.936 127.656 108.416 129.357 102.08 132.375C101.141 132.822 99.84 133.396 99.2 133.651C98.56 133.906 97.6 134.289 97.0667 134.501C96.5333 134.714 96.1067 135.033 96.1067 135.182C96.1067 135.458 96.6827 135.586 100.053 135.968C109.696 137.116 112.704 137.222 119.168 136.734ZM87.04 135.756C88.0427 135.649 89.472 135.394 90.24 135.224C91.008 135.054 91.9254 134.863 92.2667 134.799C92.8854 134.693 93.6534 134.374 94.9974 133.736C95.3387 133.566 95.7013 133.438 95.808 133.438C96.0427 133.438 98.8373 132.163 100.587 131.27C101.291 130.908 102.016 130.526 102.187 130.462C102.357 130.377 103.701 129.718 105.173 129.016C108.715 127.294 111.211 126.146 112.64 125.594C113.28 125.317 114.112 124.998 114.453 124.85C116.459 123.978 120.384 122.681 124.117 121.661C125.205 121.363 126.187 121.065 126.315 120.98C126.571 120.832 128.704 120.321 130.24 120.066C130.837 119.96 132.651 119.769 134.293 119.641C135.936 119.492 138.347 119.258 139.627 119.088C140.928 118.897 142.549 118.748 143.253 118.706C144.363 118.663 144.533 118.599 144.533 118.238C144.533 117.94 144.256 117.728 143.509 117.473C139.307 115.963 136.917 113.667 135.36 109.628C135.061 108.863 134.997 108.055 135.019 105.546C135.04 102.081 135.296 101.06 136.555 99.3172C137.408 98.148 137.301 97.744 136.107 97.3401C132.971 96.3409 129.813 93.7898 125.12 88.475C124.096 87.3057 122.752 85.8388 122.155 85.2011C120.555 83.5428 120.533 83.5003 119.04 81.7783C118.272 80.9067 117.376 79.9075 117.013 79.5248C113.045 75.358 111.701 74.125 111.125 74.125C110.848 74.125 110.677 74.3588 110.507 74.9328C110.315 75.6557 109.312 76.91 108.331 77.6753C107.733 78.1217 105.536 79.2272 105.237 79.2272C105.067 79.2272 104.619 79.3548 104.256 79.5248C103.872 79.6949 102.571 80.1626 101.333 80.5878C100.096 80.9917 98.56 81.5445 97.92 81.7783C97.28 82.0334 96.4693 82.3311 96.1067 82.4161C95.232 82.6712 93.6107 83.2665 93.3547 83.4365C93.0773 83.6066 92.2667 83.9043 90.1333 84.6483C89.3227 84.9247 88.1067 85.3499 87.4667 85.605C85.2693 86.4554 82.88 87.327 82.24 87.5396C81.8987 87.6459 81.408 87.816 81.1733 87.901C79.5307 88.6238 79.104 88.7939 78.8907 88.7939C78.6987 88.7939 75.712 89.8994 74.3467 90.4734C73.3227 90.9198 70.528 92.004 68.0533 92.9394C66.5813 93.4709 65.1093 94.0449 64.7467 94.1937C64.4053 94.3638 63.7227 94.6189 63.2533 94.8103C62.784 94.9803 61.632 95.4268 60.6933 95.8094C59.7547 96.1921 58.6027 96.6385 58.1333 96.8086C57.3013 97.1275 56.8533 97.3188 55.1893 98.0204C54.7413 98.2117 54.2933 98.3605 54.1653 98.3605C54.0373 98.3605 53.632 98.4881 53.2693 98.6582C52.8853 98.807 51.7333 99.296 50.6667 99.7211C47.8507 100.869 47.744 100.933 47.0827 101.252C46.7413 101.422 46.3787 101.549 46.2507 101.549C46.144 101.549 45.4187 101.847 44.6507 102.187C43.904 102.549 43.1573 102.825 43.008 102.825C42.8587 102.825 42.56 102.974 42.3253 103.144C42.112 103.314 41.792 103.463 41.664 103.463C41.5147 103.463 40.64 103.803 39.744 104.228C35.9893 105.929 34.5387 106.567 33.8773 106.737C32.96 106.949 33.1947 107.927 34.4533 109.309C34.5813 109.458 35.2427 110.223 35.9467 111.031C37.568 112.902 44.864 120.194 47.7867 122.851C49.9627 124.828 50.368 125.19 53.056 127.294C54.2507 128.251 57.1307 130.249 57.28 130.249C57.3227 130.249 57.8347 130.568 58.432 130.972C59.328 131.546 61.2693 132.567 63.616 133.672C64.4053 134.055 66.4747 134.714 66.8587 134.714C67.072 134.714 67.7547 134.841 68.352 135.012C70.1227 135.522 72.256 135.841 74.88 136.011C77.7813 136.202 84.48 136.053 87.04 135.756ZM42.6453 134.204C43.328 133.8 44.1173 133.417 44.3947 133.332C44.672 133.247 45.3973 132.949 45.9733 132.694C49.6853 131.015 51.392 130.398 52.544 130.292C53.2907 130.228 53.76 130.101 53.76 129.931C53.76 129.803 53.2053 129.314 52.544 128.868C51.8613 128.421 51.0507 127.826 50.752 127.55L50.1973 127.039L48.512 127.932C47.5947 128.421 46.2507 129.038 45.5467 129.293C42.944 130.292 42.048 130.972 41.3653 132.482C40.9387 133.417 40.832 134.926 41.1947 134.926C41.3227 134.926 41.984 134.608 42.6453 134.204ZM43.8613 128.145C43.968 128.017 45.0133 127.55 46.1867 127.082C48.5547 126.125 48.96 125.657 47.8507 125.062C47.5307 124.892 46.592 124.106 45.76 123.34C44.9493 122.575 43.7333 121.469 43.072 120.874C42.4107 120.3 41.0453 118.876 40 117.706C38.976 116.537 38.0373 115.644 37.952 115.708C37.6747 115.878 37.7173 116.92 38.1013 118.621C38.784 121.767 39.616 123.914 40.8107 125.679C41.3013 126.38 41.8773 127.252 42.112 127.635C42.56 128.336 43.4133 128.57 43.8613 128.145ZM224.747 124.361C224.405 122.043 222.869 120.364 219.84 118.982C217.152 117.77 216.661 117.558 214.827 116.877C211.84 115.751 211.328 115.538 210.731 115.24C210.432 115.07 210.027 114.943 209.856 114.943C209.664 114.943 209.259 114.815 208.917 114.645C208.363 114.369 207.723 114.114 205.611 113.327C205.163 113.157 204.416 112.881 203.947 112.711C203.477 112.54 202.688 112.243 202.197 112.052C201.685 111.881 201.003 111.584 200.683 111.414C200.341 111.244 199.957 111.116 199.787 111.116C199.637 111.116 199.232 110.967 198.912 110.797C198.571 110.627 198.123 110.478 197.931 110.478C197.739 110.478 197.525 110.393 197.44 110.287C197.376 110.181 197.035 110.011 196.651 109.947C195.861 109.756 193.003 108.671 192.171 108.225C191.872 108.055 191.467 107.927 191.296 107.927C191.125 107.927 190.229 107.63 189.312 107.268C187.029 106.397 186.411 106.163 184.427 105.44C181.547 104.398 181.248 104.292 180.587 104.101C179.968 103.93 179.477 103.739 177.067 102.825C176.427 102.57 175.083 102.102 174.08 101.762C173.077 101.422 171.456 100.848 170.453 100.486C169.451 100.104 168.363 99.7424 168 99.6361C167.424 99.4873 167.061 99.3597 165.653 98.7645C165.077 98.5306 163.157 97.9141 160.427 97.085C159.189 96.7023 157.952 96.3197 157.653 96.2134C156.672 95.8732 153.643 95.5756 152.491 95.7031C151.872 95.7882 150.784 95.9583 150.08 96.1283C147.307 96.7661 145.728 97.085 143.595 97.4251C140.885 97.8503 139.819 98.2968 138.816 99.4023C137.941 100.38 137.493 101.167 136.939 102.761C136.597 103.76 136.597 103.93 136.875 104.037C137.045 104.101 137.557 104.016 137.984 103.824C139.051 103.378 140.907 102.825 141.312 102.825C141.483 102.825 142.059 102.697 142.549 102.527C143.061 102.357 144.235 102.081 145.173 101.868C146.112 101.677 147.371 101.379 147.947 101.231C148.544 101.06 149.589 100.784 150.315 100.614C152.811 99.955 157.269 100.295 160.213 101.358C161.856 101.932 166.144 103.654 167.296 104.186C167.957 104.483 168.555 104.738 168.619 104.738C168.661 104.738 169.323 105.015 170.069 105.334C170.816 105.674 172.181 106.269 173.12 106.652C174.848 107.353 175.168 107.481 177.323 108.437C177.984 108.756 178.603 108.99 178.667 108.99C178.752 108.99 179.115 109.118 179.477 109.288C181.483 110.181 183.787 111.116 184.021 111.116C184.171 111.116 184.555 111.244 184.896 111.414C185.835 111.903 187.029 112.392 187.264 112.392C187.371 112.392 188.437 112.817 189.653 113.348C190.869 113.88 191.979 114.305 192.149 114.305C192.299 114.305 192.597 114.39 192.811 114.518C193.557 114.922 195.179 115.581 195.456 115.581C195.627 115.581 195.84 115.666 195.947 115.751C196.075 115.857 196.651 116.112 197.227 116.325C197.824 116.516 198.592 116.814 198.933 116.984C199.296 117.132 199.915 117.345 200.32 117.473C201.216 117.706 202.325 118.11 203.243 118.493C203.605 118.642 204.011 118.769 204.139 118.769C204.267 118.769 204.544 118.854 204.757 118.982C205.163 119.216 207.765 120.151 209.28 120.598C209.813 120.768 211.669 121.363 213.419 121.958C216.213 122.915 218.923 123.702 221.461 124.318C221.867 124.403 222.635 124.68 223.168 124.913C223.68 125.147 224.277 125.339 224.512 125.339C224.853 125.36 224.896 125.254 224.747 124.361ZM227.52 119.152C227.989 119.046 228.715 118.876 229.12 118.791C231.211 118.323 233.003 116.856 233.728 115.049C234.453 113.178 234.261 99.6786 233.344 89.3254C233.237 87.9222 233.045 85.8176 232.96 84.6483C232.469 78.5682 232.277 76.6761 232.085 75.5068C231.979 74.8053 231.787 73.3171 231.68 72.2117C231.253 68.1299 230.827 65.9827 230.101 64.3457C229.845 63.7505 223.979 57.8617 221.227 55.4168C220.224 54.5452 218.901 53.3547 218.24 52.7594C216.704 51.3563 216.917 51.5477 214.293 49.358C210.304 46.0415 208.747 44.7022 208.576 44.4258C208.491 44.277 208.299 44.1494 208.149 44.1494C208 44.1494 207.616 43.8731 207.253 43.5542C206.912 43.2353 205.952 42.4487 205.12 41.8109C204.309 41.1731 203.435 40.4716 203.2 40.2802C201.067 38.4945 187.563 28.4388 187.008 28.2262C186.88 28.1837 186.581 27.9924 186.347 27.7798C186.112 27.5672 184.725 26.5893 183.253 25.6114C181.781 24.6334 179.925 23.3579 179.136 22.8264C178.325 22.2737 177.643 21.8272 177.6 21.8272C177.557 21.8272 176.469 21.1257 175.211 20.2753C173.952 19.4462 172.736 18.6596 172.544 18.532C172.267 18.3619 167.979 15.7896 166.165 14.7054C165.973 14.5991 165.355 14.2377 164.779 13.8975C164.203 13.5786 163.456 13.1322 163.093 12.8983C162.517 12.5369 160.555 11.3889 158.4 10.1984C157.931 9.92202 157.013 9.45432 156.373 9.15669C155.733 8.85906 154.539 8.28506 153.749 7.88113C152.939 7.47721 152.107 7.15832 151.872 7.15832C151.403 7.15832 151.04 7.90239 151.04 8.90158C151.04 9.26299 150.912 10.2834 150.741 11.1763C150.08 14.7054 149.845 18.0005 149.333 31.075C149.141 36.0922 149.205 48.3162 149.461 51.8028C149.504 52.6744 149.653 55.6082 149.76 58.2868C149.995 63.878 150.507 71.0849 150.827 72.9557C150.933 73.6573 151.125 75.0391 151.232 76.0383C151.509 78.5682 152.427 82.7775 152.768 83.1389C152.875 83.2665 152.96 83.5003 152.96 83.6917C152.96 84.1806 154.389 87.4333 155.072 88.475C155.84 89.6655 158.208 92.5355 158.869 93.0457C159.211 93.3008 159.36 93.5772 159.275 93.8111C159.104 94.2575 158.4 94.0237 157.44 93.1945C157.035 92.8331 156.523 92.3867 156.309 92.1954C156.096 92.0253 155.456 91.26 154.901 90.4946C151.531 85.9664 149.995 80.3752 149.013 69.1291C148.075 58.6057 147.84 52.6957 147.84 40.1102C147.84 33.2647 147.947 26.4405 148.053 24.9098C148.16 23.4004 148.352 20.7217 148.48 18.9572C148.885 12.6857 149.376 9.39054 150.123 8.32758C150.528 7.73232 150.464 7.15832 150.016 7.15832C149.781 7.15832 149.184 7.39217 148.672 7.6898C148.16 7.98743 147.584 8.2638 147.413 8.32758C147.243 8.39136 146.816 8.60395 146.496 8.77402C146.155 8.92284 145.771 9.07165 145.643 9.07165C145.515 9.07165 144.832 9.34802 144.128 9.68817C143.403 10.0283 141.717 10.7511 140.373 11.3039C134.72 13.5999 134.336 13.855 133.995 15.5132C133.333 18.6383 133.12 19.9777 133.12 20.7005C133.12 21.1469 132.992 22.5075 132.821 23.7405C132.224 27.9499 131.861 33.9875 131.499 45.5313C131.221 54.0775 131.797 68.8102 132.715 76.6761C132.843 77.7816 133.013 79.4185 133.056 80.2902C133.12 81.1618 133.248 82.0334 133.333 82.2035C133.419 82.3736 133.568 83.0114 133.632 83.5854C133.824 85.0948 134.784 88.7088 135.424 90.3883C135.808 91.3875 137.173 94.2363 137.941 95.5968C138.816 97.1488 138.859 97.17 140.053 96.511C140.629 96.2134 141.483 95.8732 141.952 95.8094C145.173 95.278 148.629 94.5551 149.653 94.1937C150.827 93.7898 155.541 93.8111 156.693 94.215C157.163 94.3851 157.824 94.5339 158.165 94.5339C158.485 94.5339 159.211 94.6827 159.765 94.8528C162.581 95.7669 164.224 96.2771 164.8 96.4472C165.44 96.6173 166.187 96.8724 167.744 97.4251C168.171 97.5952 168.896 97.8503 169.344 98.0204C170.261 98.3393 170.816 98.5519 173.76 99.5511C174.933 99.955 176.149 100.423 176.469 100.593C176.768 100.763 177.216 100.912 177.429 100.912C177.643 100.912 177.941 101.018 178.069 101.146C178.197 101.273 178.624 101.443 179.008 101.549C179.669 101.72 181.952 102.506 187.307 104.462C188.416 104.866 189.525 105.249 189.76 105.312C189.995 105.376 190.379 105.567 190.613 105.738C190.848 105.886 191.232 106.014 191.467 106.014C191.723 106.014 192 106.099 192.107 106.205C192.235 106.312 192.661 106.503 193.067 106.609C193.472 106.737 194.347 107.034 194.987 107.289C195.627 107.545 196.352 107.8 196.587 107.863C196.821 107.927 197.312 108.097 197.653 108.246C198.016 108.395 198.699 108.671 199.211 108.863C200.107 109.203 201.173 109.607 202.773 110.202C203.243 110.393 203.925 110.67 204.309 110.818C204.672 110.989 205.077 111.116 205.184 111.116C205.312 111.116 205.675 111.244 206.016 111.414C206.656 111.733 207.36 112.009 209.92 112.944C210.795 113.263 211.925 113.688 212.416 113.901C212.907 114.135 213.397 114.305 213.504 114.305C213.611 114.305 214.165 114.496 214.741 114.751C215.317 114.985 215.979 115.262 216.213 115.368C216.448 115.453 216.981 115.687 217.429 115.878C217.856 116.07 218.261 116.218 218.325 116.218C218.795 116.218 222.549 118.259 223.253 118.876C224.085 119.62 224.128 119.641 225.387 119.514C226.091 119.428 227.051 119.28 227.52 119.152ZM30.4427 106.312C30.8907 106.12 31.744 105.738 32.32 105.482C32.9173 105.206 34.3467 104.59 35.4987 104.101C36.6507 103.612 37.76 103.144 37.952 103.059C38.592 102.74 39.7867 102.251 40.7467 101.868C41.28 101.677 42.304 101.231 43.0293 100.89C43.776 100.55 44.48 100.274 44.608 100.274C44.736 100.274 45.0987 100.125 45.3973 99.955C45.7173 99.7849 46.848 99.3172 47.8933 98.892C48.96 98.4668 50.0053 98.0417 50.24 97.9566C50.4747 97.8503 51.0933 97.6165 51.6267 97.4039C52.16 97.2126 52.8427 96.9149 53.1627 96.7448C53.4613 96.5748 53.824 96.4472 53.9733 96.4472C54.1227 96.4472 54.528 96.3197 54.8907 96.1496C55.2747 96.0008 55.9573 95.7244 56.4267 95.5331C56.896 95.363 58.048 94.9165 58.9867 94.5339C59.9253 94.1512 61.0347 93.726 61.44 93.5772C62.592 93.152 64.0427 92.5993 64.7467 92.3017C65.1093 92.1528 65.8133 91.8552 66.3467 91.6639C66.88 91.4513 67.4987 91.2174 67.7333 91.1111C68.3733 90.856 70.4 90.0694 71.36 89.708C71.8293 89.538 72.512 89.2828 72.8533 89.134C73.216 88.9852 73.8347 88.7514 74.24 88.6025C76.2453 87.901 80.7893 86.2003 81.1733 85.9877C81.408 85.8601 81.8773 85.6688 82.24 85.5837C82.8587 85.4349 83.328 85.2648 85.76 84.3294C86.4 84.0743 87.168 83.798 87.4667 83.6917C87.7654 83.5854 88.5333 83.309 89.1733 83.0539C89.8133 82.7988 90.5387 82.5437 90.7733 82.4799C91.008 82.4374 91.8827 82.1185 92.6934 81.7996C93.5254 81.4594 94.528 81.0768 94.9333 80.9492C95.3387 80.8004 96.448 80.3965 97.3867 80.0563C98.3253 79.6949 99.392 79.3335 99.7334 79.2272C102.08 78.5469 106.133 77.0375 106.965 76.506C107.52 76.1446 108.288 75.5068 108.693 75.0817C109.312 74.4439 109.44 74.1463 109.44 73.3809C109.44 72.5093 109.376 72.403 107.797 70.9786C106.88 70.1708 104.981 68.47 103.573 67.1945C102.165 65.9189 100.672 64.6008 100.267 64.2182C97.664 61.9009 96.768 61.0931 95.2533 59.775C94.336 58.9671 92.9067 57.6703 92.0747 56.905C91.2427 56.1397 90.1333 55.1405 89.6213 54.6728C89.088 54.2051 88.0854 53.2909 87.3813 52.6531C86.656 52.0154 85.6107 51.1012 85.0133 50.6335C84.4373 50.1658 83.904 49.7406 83.84 49.6768C83.4773 49.2942 81.2587 47.9761 80.96 47.9761C80.32 47.9761 79.3387 47.3383 79.4027 46.9557C79.5093 46.3817 81.2374 46.3604 82.432 46.8919C82.9653 47.147 83.456 47.3383 83.52 47.3383C83.584 47.3383 84.2453 47.8273 84.9707 48.4225C85.696 49.0178 86.72 49.8682 87.232 50.2934C87.7654 50.7185 88.8747 51.6752 89.7067 52.4405C90.5387 53.2059 91.456 54.0137 91.7333 54.2476C92.032 54.4814 93.376 55.672 94.72 56.8837C96.064 58.0955 97.9413 59.775 98.88 60.6041C99.8187 61.4332 101.205 62.6875 101.973 63.3891C102.741 64.0906 104.277 65.4725 105.387 66.4717C106.496 67.4708 107.712 68.5551 108.075 68.9165C108.459 69.2566 108.992 69.7881 109.312 70.0645L109.867 70.5747L110.4 70.0857C110.784 69.7243 110.933 69.3629 110.933 68.8314C110.933 67.9598 110.037 66.8968 107.008 64.2394C106.069 63.4103 105.216 62.645 105.088 62.5387C104.768 62.2198 102.592 60.2852 100.672 58.5632C99.7974 57.7979 98.368 56.5648 97.4933 55.842C96.6187 55.1192 95.296 53.95 94.5707 53.2697C93.1627 51.9516 87.7867 47.1895 86.016 45.7014C83.6907 43.7455 81.856 43.044 80.1067 43.4691C78.848 43.788 78.0373 44.1069 75.2 45.4462C73.792 46.1053 71.7227 47.0832 70.6133 47.5934C69.504 48.1249 68.0107 48.8052 67.3067 49.1241C66.6027 49.443 65.6427 49.8894 65.152 50.1233C64.6827 50.3359 64.2347 50.5272 64.1493 50.5272C64.0853 50.5272 62.272 51.3776 60.1173 52.4193C55.7867 54.5027 53.3973 55.6294 53.2267 55.6294C53.1627 55.6294 51.6053 56.3523 49.7493 57.2451C47.9147 58.138 45.7813 59.1585 45.0133 59.4986C44.2453 59.8388 43.2427 60.3065 42.752 60.5403C42.2613 60.7529 41.792 60.9443 41.7067 60.9443C41.6213 60.9443 40.192 61.6033 38.528 62.3899C33.1947 64.9622 31.36 65.8339 31.232 65.8339C31.1253 65.8339 28.6293 67.0031 25.024 68.7251C23.9573 69.2354 22.9973 69.6605 22.912 69.6605C22.8267 69.6605 22.1653 69.9369 21.4613 70.2771C20.736 70.6172 19.7333 71.0849 19.2 71.3188C17.8987 71.8928 15.8293 72.8282 15.04 73.1896C14.6987 73.3384 13.5467 73.8699 12.48 74.3376C11.4347 74.8265 10.1333 75.4218 9.6 75.6557C9.06667 75.8895 8.36267 76.2084 8 76.3785C7.65867 76.5273 6.592 76.995 5.67467 77.4202C3.904 78.2068 2.83733 79.1422 2.64533 80.0776C2.58133 80.3752 2.38933 80.928 2.21867 81.3106C2.048 81.6933 1.92 82.65 1.92 83.4365C1.92 84.7759 1.984 84.9672 2.85867 86.3065C3.392 87.1144 3.84 87.8372 3.88267 87.9435C3.98933 88.2624 6.31467 90.5797 8.14933 92.2379C9.10933 93.0883 10.048 93.9386 10.2187 94.1087C10.4107 94.2788 11.1787 94.9165 11.9467 95.4905C12.7147 96.0858 13.376 96.596 13.44 96.6598C13.824 97.0425 15.5733 98.3605 15.68 98.3605C15.7653 98.3605 16.1493 98.6157 16.5333 98.9558C17.536 99.7849 20.0107 101.549 20.16 101.549C20.2453 101.549 20.672 101.847 21.12 102.187C21.568 102.549 21.9947 102.825 22.08 102.825C22.1653 102.825 22.8053 103.25 23.488 103.782C24.192 104.313 24.8107 104.738 24.8747 104.738C24.96 104.738 25.5787 105.078 26.2827 105.504C28.2667 106.715 29.12 106.864 30.4427 106.312ZM43.9467 57.9467C47.3813 56.2672 49.0667 55.4806 50.368 54.9279C50.9867 54.6728 51.1787 54.4389 51.4773 53.5035C51.6693 52.887 51.84 52.2492 51.84 52.0791C51.84 51.9303 52.032 51.3988 52.288 50.9099C52.8213 49.8894 52.5653 49.3792 51.776 49.8894C51.072 50.3359 47.6373 51.9941 44.5013 53.4185C41.6853 54.694 41.28 55.0342 40.96 56.3097C40.8533 56.6924 40.6187 57.4577 40.4053 58.0105C40.0853 58.9671 40.1067 59.7962 40.4907 59.6262C40.576 59.5837 42.1333 58.8396 43.9467 57.9467ZM53.8667 53.5035C54.016 53.2484 56.576 52.0366 58.1333 51.4839C58.7307 51.2713 59.4347 50.8886 59.712 50.6122L60.224 50.1233L59.712 49.932C59.4347 49.8044 58.6667 49.6131 58.0267 49.4855C57.3867 49.3367 56.512 49.1241 56.064 48.9965C55.0827 48.6989 54.2293 48.9115 53.9733 49.528C53.248 51.3351 52.544 53.4185 52.6293 53.5673C52.7573 53.8011 53.7173 53.7586 53.8667 53.5035ZM219.627 51.165C219.691 51.0587 219.499 50.4209 219.179 49.7406C216.896 44.7872 216.683 44.4683 215.531 44.2345C214.635 44.0644 213.696 44.8722 213.696 45.8289C213.696 46.2116 213.803 46.5942 213.931 46.6793C214.635 47.1045 216.981 49.1879 217.92 50.2083C218.965 51.3563 219.371 51.5902 219.627 51.165ZM61.2267 48.4651C61.2053 47.4234 59.328 43.2778 58.6453 42.8101C57.4507 41.9597 56.128 42.7251 55.0613 44.8297C54.1867 46.6155 54.1653 47.5934 55.04 47.1257C55.5093 46.8706 57.6427 47.232 58.496 47.6785C58.7947 47.8485 59.2 47.9761 59.3707 47.9761C59.5413 47.9761 59.7973 48.1249 59.9467 48.295C60.224 48.6139 61.2267 48.7414 61.2267 48.4651ZM156.224 6.6481C156.352 6.32921 155.157 3.86313 154.325 2.80017C153.813 2.11987 152.875 1.63091 152.085 1.63091C151.445 1.63091 150.208 2.88521 149.632 4.11824C149.013 5.3938 149.141 5.90402 149.931 5.47884C150.976 4.9261 152.597 5.22373 154.88 6.4355C156.011 7.03076 156.075 7.03076 156.224 6.6481Z" fill="rgb(0,0,0)" fill-rule="nonzero" transform="matrix(1,0,0,-1,4,228.157)" />
			<path id="矢量 429" d="M20.2667 46.2951C19.9467 46.04 17.4933 42.511 17.216 41.8945C17.1307 41.7244 16.7253 41.0016 16.32 40.3C15.36 38.6205 13.6747 35.2191 12.6933 32.9656C11.776 30.8184 10.9653 29.0326 10.5387 28.2248C10.368 27.8846 10.24 27.5232 10.24 27.4382C10.24 27.2681 9.70667 26.0563 8.64 23.7178C8.46933 23.3776 8.128 22.5485 7.89333 21.9108C7.65867 21.273 7.38133 20.5502 7.27467 20.3163C7.168 20.0825 6.86933 19.3596 6.61333 18.7219C6.37867 18.0841 6.08 17.3613 5.99467 17.1274C5.888 16.8936 5.632 16.2771 5.41867 15.7456C5.22667 15.2141 4.88533 14.4062 4.672 13.9385C4.48 13.4708 4.13867 12.5567 3.92533 11.9189C3.712 11.2811 3.41333 10.5158 3.264 10.2182C3.11467 9.92054 2.98667 9.51661 2.98667 9.32528C2.98667 9.13394 2.90133 8.90009 2.77333 8.83632C2.66667 8.77254 2.56 8.55995 2.56 8.36861C2.56 8.19854 2.41067 7.75209 2.26133 7.39069C1.728 6.26395 0 0.927871 0 0.460167C0 -0.0500547 0.725333 -0.17761 1.00267 0.290093C1.19467 0.587723 2.28267 3.58528 2.60267 4.69076C2.70933 5.09469 2.90133 5.54113 2.98667 5.64743C3.072 5.77498 3.37067 6.54032 3.648 7.34817C3.92533 8.17728 4.26667 9.07017 4.416 9.3678C4.56533 9.66543 4.69333 10.0694 4.69333 10.2607C4.69333 10.452 4.8 10.6859 4.90667 10.7496C5.03467 10.8134 5.12 11.0473 5.12 11.2386C5.14133 11.4299 5.312 11.9827 5.54667 12.4504C5.78133 12.9181 5.952 13.4708 5.97333 13.6622C5.97333 13.8535 6.05867 14.0661 6.16533 14.1299C6.25067 14.1936 6.57067 14.8527 6.82667 15.5755C7.104 16.3196 7.40267 16.9999 7.50933 17.1274C7.59467 17.2337 7.68 17.4463 7.68 17.6164C7.68 17.7652 7.872 18.3392 8.128 18.8919C8.704 20.2525 8.81067 20.4651 9.70667 22.6548C10.5387 24.7382 10.56 24.7595 11.4987 26.8642C11.8613 27.672 12.16 28.3736 12.16 28.4374C12.16 28.4799 12.4587 29.1602 12.8 29.9255C13.1627 30.6696 13.44 31.3499 13.44 31.3924C13.44 31.4987 14.3573 33.4971 15.872 36.5797C16.3413 37.5788 17.1307 39.067 17.6 39.8748C18.0693 40.7039 18.6027 41.6181 18.7733 41.9582C18.944 42.2771 19.5627 43.2125 20.1173 44.0204C20.7573 44.9345 21.12 45.6999 21.0773 45.9762C20.992 46.529 20.6933 46.6565 20.2667 46.2951Z" fill="rgb(0,0,0)" fill-rule="nonzero" transform="matrix(1,0,0,-1,216.48,64.1191)" />
			<path id="矢量 430" d="M4.52071 16.5543C4.05137 16.448 3.04871 16.2567 2.28071 16.1291C1.29937 15.9803 0.744708 15.7677 0.382042 15.4063C-0.0872916 14.9386 -0.108625 14.8748 0.232708 14.7473C0.446042 14.6622 0.979375 14.7048 1.40604 14.8536C2.66471 15.215 7.67804 15.3638 10.2807 15.1087C11.582 14.9811 13.5447 14.7898 14.654 14.6622C15.7634 14.5559 17.214 14.3646 17.854 14.2583C22.91 13.3654 24.382 13.0678 26.6007 12.5363C27.134 12.4088 27.902 12.2174 28.3074 12.1111C28.7127 12.0261 29.822 11.7285 30.7607 11.4734C31.6994 11.2395 33.0007 10.8994 33.6407 10.7505C34.2807 10.6017 35.39 10.2616 36.094 10.0277C36.798 9.77261 38.0994 9.36869 38.974 9.13484C39.8487 8.87973 40.766 8.5821 41.0007 8.49706C41.2354 8.39076 41.6194 8.26321 41.854 8.19943C42.3874 8.07187 44.0727 7.47661 44.6274 7.24276C44.862 7.13647 45.246 6.98765 45.4807 6.92387C46.0567 6.79632 47.7207 6.20106 48.254 5.94595C48.7447 5.73336 51.326 4.73417 53.1607 4.05387C53.8647 3.79876 54.6114 3.47987 54.8034 3.37358C55.0167 3.26728 55.294 3.18224 55.4007 3.18224C55.6354 3.18224 57.342 2.48069 58.0034 2.11928C58.2167 1.99173 58.494 1.90669 58.6434 1.90669C58.7927 1.90669 59.1767 1.77913 59.4967 1.60906C59.8167 1.43899 60.3714 1.24765 60.7554 1.16262C61.1394 1.07758 61.8647 0.779949 62.398 0.503579C63.3794 -0.0279028 64.0407 -0.134199 64.2327 0.163431C64.382 0.418542 63.7634 1.26891 63.4434 1.26891C63.294 1.26891 62.2914 1.6941 61.2034 2.22558C60.094 2.75706 59.1554 3.18224 59.0914 3.18224C59.0274 3.18224 58.4087 3.45862 57.6834 3.7775C55.934 4.58536 52.158 6.15854 49.6407 7.11521C48.5314 7.51913 47.422 7.96558 47.1874 8.05061C45.694 8.68839 40.9154 10.2828 37.9074 11.1757C37.2674 11.3671 36.414 11.6434 36.03 11.8135C35.646 11.9836 35.0914 12.1111 34.814 12.1111C34.5367 12.1111 33.982 12.2387 33.598 12.4088C33.214 12.5576 32.1687 12.8552 31.294 13.0678C30.4194 13.2591 29.2674 13.5355 28.734 13.6843C27.262 14.1095 22.2487 15.1512 19.454 15.5977C13.8647 16.5118 6.31271 17.0008 4.52071 16.5543Z" fill="rgb(0,0,0)" fill-rule="nonzero" transform="matrix(1,0,0,-1,144.866,69.2012)" />
		</g>
	</g>
</svg>
