<svg viewBox="0 0 268 230" xmlns="http://www.w3.org/2000/svg" xmlns:xlink="http://www.w3.org/1999/xlink" width="268.000000" height="230.000000" fill="none">
	<defs>
		<clipPath id="clipPath_14">
			<rect width="262.000000" height="226.000000" x="3.000000" y="2.000000" fill="rgb(255,255,255)" />
		</clipPath>
	</defs>
	<rect id="14" width="268.000000" height="230.000000" x="0.000000" y="0.000000" />
	<g id="14" clip-path="url(#clipPath_14)" customFrame="url(#clipPath_14)">
		<rect id="14" width="262.000000" height="226.000000" x="3.000000" y="2.000000" />
		<path id="矢量 431" d="M224.462 174.368L223.739 179.449L220.973 184.189L218.313 184.189L216.334 181.383L202.546 193.48L179.013 208.999L161.416 219.31L161.82 222.18L159.054 225.241L156.331 227.091L153.586 225.581L151.692 219.905L138.734 214.314L137.67 209.126L135.734 185.422L96.987 171.413L85.114 179.576L77.1136 177.089L72.1133 174.772L69.8792 177.089L66.4534 178.152L66.4534 181.808L63.2618 186.124L59.9424 185.38L57.3253 179.427L45.3672 173.687L42.8564 160.996L6.36498 144.583L3.87549 138.036L6.96077 133.231L18.1529 124.111L32.792 116.117L36.4943 116.5L42.6861 108.294L43.133 103.213L47.8354 97.1965L45.5374 94.2414L46.2183 86.4606L49.7078 82.1449L59.1339 79.6576L76.7731 73.8113L93.1145 69.9421L118.69 67.4548L122.563 67.4548L128.755 51.5103L138.819 32.3557L148.203 21.0245L153.969 20.0679L156.82 21.96L164.31 8.97055L170.161 3.84707L178.758 2.86914L199.588 4.59114L229.292 10.0123L237.633 12.4996L243.74 18.9199L244.953 33.2274L249.421 33.8439L254.421 37.0965L256.996 41.7311L262.89 44.2609L263.273 49.5545L254.506 76.1286L242.016 112.291L239.442 113.098L238.931 126.003L235.314 163.951L224.462 174.368Z" fill="rgb(255,255,255)" fill-rule="nonzero" />
		<path id="矢量 432" d="M84.8587 179.512L5.68414 144.243L4.13086 137.185L9.89714 130.212L28.7492 117.839L34.0049 115.862L36.5795 117.159L40.5371 111.206L63.0065 93.2422L76.4327 88.6077L89.1569 89.3306L99.4766 90.925L101.902 89.862L115.754 88.6077L131.606 89.862L134.053 79.4025L129.053 69.9421L122.563 67.4548L126.691 55.7409L135.479 37.9469L146.735 21.96L152.692 19.3025L156.48 21.0245L164.906 8.12018L173.162 2.86914L189.865 3.37936L218.526 7.5887L235.059 11.4579L242.102 16.1987L244.868 24.7024L244.527 32.9723L251.059 34.5029L256.23 39.4988L257.379 42.1562L259.741 42.5177L263.273 45.005L264.103 49.3206L242.016 112.291L239.229 113.46L236.293 108.932L228.335 107.252L230.739 99.8326L225.398 91.6265L213.398 88.6502L190.375 92.4982L165.14 101.682L150.607 109.144L144.309 112.801L141.16 121.113L142.862 127.236L109.584 163.121L84.8587 179.512Z" fill="rgb(1,89,188)" fill-rule="nonzero" />
		<g id="组合 86">
			<path id="矢量 433" d="M122.967 43.757C123.776 43.3956 124.563 43.1193 124.691 43.1193C124.84 43.1193 125.223 42.9917 125.563 42.8216C125.882 42.6516 126.585 42.3539 127.117 42.1626C127.649 41.95 128.308 41.6736 128.606 41.5461C128.904 41.3973 129.564 41.1422 130.096 40.9933C130.627 40.8233 131.181 40.6107 131.33 40.5044C131.521 40.3556 131.585 39.3139 131.585 36.5502C131.585 34.488 131.734 31.1928 131.904 29.1944C132.202 25.8993 132.33 24.5599 132.862 19.7341C133.223 16.4814 133.777 14.483 134.691 13.25C135.16 12.6335 135.692 12.3146 137.5 11.5067C137.926 11.3154 138.543 11.039 138.862 10.869C139.16 10.7202 139.522 10.5926 139.649 10.5926C139.777 10.5926 140.5 10.295 141.224 9.95482C141.968 9.59341 142.692 9.31704 142.82 9.31704C142.947 9.31704 143.437 9.12571 143.905 8.8706C144.373 8.63675 145.352 8.21156 146.075 7.95645C146.82 7.70134 147.479 7.33993 147.565 7.16986C147.65 6.99978 148.011 5.91556 148.373 4.7463C149.203 2.11015 150.224 0.622005 151.48 0.260597C153.331 -0.313403 154.65 0.0480046 156.076 1.47238C156.927 2.32275 158.395 5.12897 158.395 5.8943C158.395 6.08563 158.544 6.74467 158.714 7.31867C158.969 8.23282 159.14 8.42415 160.033 8.89186C160.97 9.38082 165.97 12.3359 167.289 13.1862C167.608 13.3988 168.055 13.6539 168.289 13.7602C168.523 13.8665 169.055 14.1854 169.459 14.4618C169.864 14.7382 170.353 15.0358 170.523 15.1208C170.885 15.3122 171.438 15.631 172.225 16.1625C172.523 16.3326 174.375 17.5231 176.332 18.7562C179.864 20.9884 182.439 22.6891 182.652 22.923C182.864 23.1568 184.12 23.9859 184.269 23.9859C184.333 23.9859 184.758 24.2623 185.205 24.6237C185.652 24.9851 186.077 25.2615 186.162 25.2615C186.248 25.2615 186.609 25.5166 186.992 25.8142C187.354 26.1119 188.333 26.8347 189.141 27.3874C193.248 30.2362 199.227 34.6156 202.1 36.8903C202.589 37.273 203.312 37.8257 203.717 38.1021C204.121 38.3784 204.887 38.9524 205.419 39.3989C205.951 39.8453 206.908 40.5894 207.547 41.0571C208.185 41.5248 208.759 41.9713 208.823 42.0563C208.887 42.1201 209.398 42.5665 209.994 43.013C210.568 43.4807 211.355 44.1822 211.76 44.5649C212.653 45.4153 212.951 45.4153 213.292 44.6074C213.76 43.5019 214.675 43.013 216.27 43.0342C217.632 43.0767 217.654 43.098 218.547 44.0547C219.441 45.0539 219.888 45.8617 220.739 48.0089C220.973 48.6467 221.271 49.3695 221.377 49.6033C221.569 50.071 221.93 51.4529 222.207 52.7497C222.335 53.3237 222.654 53.7914 223.313 54.3442C224.548 55.3859 226.526 57.2354 229.186 59.8078C231.356 61.9124 233.08 64.336 233.08 65.2714C233.08 65.5053 233.165 65.8454 233.271 66.058C233.633 66.717 234.25 71.5854 234.761 78.0907C234.91 79.7277 235.101 81.7473 235.208 82.5552C235.335 83.3843 235.463 85.1488 235.527 86.4882C235.612 87.8275 235.74 89.507 235.867 90.2085C236.123 91.8455 236.74 103.453 236.846 108.704C236.91 111.532 236.846 112.871 236.676 113.211C236.314 113.891 236.569 114.338 237.314 114.338C238.123 114.338 239.229 115.273 239.782 116.4C239.995 116.846 240.251 117.378 240.336 117.569C240.591 118.079 241.144 119.61 241.378 120.397C241.485 120.758 241.91 121.991 242.336 123.16C242.783 124.33 243.229 125.669 243.357 126.137C243.463 126.604 243.634 127.093 243.719 127.2C243.783 127.327 244.038 127.986 244.229 128.688C244.442 129.389 244.761 130.303 244.91 130.707C245.059 131.111 245.357 132.025 245.549 132.727C245.74 133.429 246.017 134.3 246.166 134.64C246.506 135.448 246.847 136.469 247.251 137.829C247.421 138.425 247.655 139.19 247.762 139.53C247.974 140.274 248.953 143.229 249.357 144.313C249.506 144.717 249.932 146.057 250.315 147.29C250.698 148.523 251.272 150.287 251.613 151.244C251.953 152.179 252.23 153.051 252.23 153.2C252.23 153.327 252.358 153.752 252.528 154.135C252.698 154.518 253.017 155.453 253.273 156.219C253.507 156.984 253.911 158.132 254.145 158.77C254.4 159.407 254.677 160.237 254.762 160.577C254.953 161.257 255.932 164.361 256.379 165.573C256.847 166.891 257.124 167.762 257.89 170.143C258.315 171.44 258.911 173.29 259.23 174.289C259.571 175.288 260.06 176.819 260.315 177.69C260.592 178.562 260.911 179.412 261.039 179.561C261.145 179.731 261.252 180.497 261.252 181.262C261.273 182.686 260.996 183.367 260.081 184.302C259.23 185.152 256.337 186.449 254.783 186.662C254.336 186.726 254.23 186.874 254.102 187.746C253.932 189.022 253.124 190.403 251.719 191.828C250.592 192.997 248.826 194.273 248.379 194.273C248.23 194.273 247.953 194.4 247.783 194.549C247.059 195.165 245.485 195.612 243.825 195.654L242.123 195.697L242.144 196.569C242.144 197.058 242.293 197.972 242.442 198.588C242.825 200.225 242.549 203.053 241.676 206.05C241.506 206.603 241.378 207.347 241.378 207.687C241.378 208.261 241.251 208.601 240.272 210.77C239.804 211.833 238.229 213.682 237.059 214.575C235.952 215.404 233.995 216.595 233.74 216.595C233.633 216.595 233.08 216.829 232.505 217.105C231.293 217.722 229.441 218.317 225.633 219.38C225.101 219.529 223.952 219.762 223.079 219.911C222.207 220.06 220.718 220.336 219.781 220.507C218.845 220.698 217.462 220.932 216.696 221.059C215.93 221.187 215.036 221.357 214.675 221.463C214.334 221.569 213.568 221.718 212.972 221.782C212.398 221.846 211.632 221.995 211.27 222.101C210.93 222.207 209.674 222.462 208.504 222.654C203.461 223.483 202.674 223.61 200.908 223.929C199.887 224.099 198.652 224.248 198.142 224.248C197.631 224.248 196.801 224.354 196.269 224.482C195.269 224.737 193.503 224.928 189.035 225.29C187.567 225.417 185.375 225.63 184.141 225.758C182.907 225.885 179.524 226.034 176.587 226.055C172.055 226.119 171.013 226.076 169.566 225.758C166.459 225.056 164.417 223.993 162.459 222.101C161.14 220.804 158.395 217.445 158.395 217.126C158.395 217.041 158.118 216.595 157.799 216.106C157.459 215.617 157.118 215.064 157.054 214.894C156.969 214.724 156.693 214.235 156.459 213.831C155.991 213.087 155.097 211.471 153.799 209.048C153.416 208.346 153.033 207.772 152.927 207.772C152.629 207.793 150.863 208.325 150.182 208.623C149.522 208.899 147.416 208.793 145.735 208.389C144.671 208.134 143.032 206.964 141.883 205.625C140.458 203.967 137.628 200.331 136.692 198.971C136.287 198.354 135.777 197.653 135.543 197.398C135.33 197.143 134.372 195.739 133.415 194.273C131.287 190.977 131.244 190.914 130.861 190.127C130.691 189.787 130.266 189.022 129.904 188.426C128.861 186.683 125.436 179.859 124.521 177.712C124.053 176.606 123.585 175.564 123.478 175.373C123.074 174.629 120.989 169.399 120.733 168.443C120.627 168.102 120.35 167.273 120.095 166.636C119.584 165.36 119.052 163.638 118.903 162.809C118.584 161.151 118.669 161.257 117.584 161.427C117.031 161.512 116.201 161.576 115.733 161.576C113.605 161.576 105.647 161.002 98.9236 160.385C97.2001 160.237 94.2212 159.811 93.285 159.599C92.753 159.471 91.604 159.301 90.7316 159.195C88.9017 158.982 87.008 158.621 82.7525 157.728C79.6246 157.069 77.7735 156.601 73.3902 155.347C73.0498 155.262 72.22 155.028 71.5816 154.858C70.9433 154.688 69.7517 154.326 68.9219 154.093C68.1133 153.837 67.1984 153.582 66.9005 153.519C66.6026 153.455 66.2622 153.327 66.1558 153.221C66.0281 153.136 65.5387 152.966 65.0919 152.838C64.6238 152.732 63.2833 152.286 62.113 151.86C60.9427 151.435 59.7512 151.01 59.4533 150.925C58.9426 150.755 58.3468 150.521 56.9638 149.926C56.6021 149.756 56.1765 149.628 56.0063 149.628C55.8573 149.628 55.0701 149.373 54.2402 149.075C53.4317 148.799 51.6443 148.331 50.2826 148.055C46.8781 147.375 45.4738 146.694 43.9205 145.015C42.6439 143.633 41.8566 142.23 41.2821 140.38C41.0267 139.53 41.0055 138.892 41.1544 137.191C41.431 133.981 41.9204 132.536 42.963 131.855C43.6652 131.409 43.6439 131.048 42.8779 130.495C42.197 130.027 40.5586 127.689 40.048 126.456C38.9628 123.947 38.4521 122.14 38.2819 120.29L38.133 118.696L36.1329 116.676C34.3242 114.827 33.1752 113.36 32.7922 112.382C32.622 111.935 32.3029 111.914 31.5794 112.318C31.2602 112.509 30.4304 112.616 29.4729 112.637C28.026 112.637 27.7707 112.573 25.8557 111.595C23.2811 110.299 23.0257 110.15 21.4937 109.151C20.7916 108.704 20.0681 108.279 19.8979 108.215C19.7064 108.151 19.1319 107.79 18.6212 107.429C18.1106 107.088 16.4296 105.962 14.8976 104.941C13.3656 103.942 11.7272 102.815 11.2591 102.454C10.791 102.092 9.64202 101.242 8.7058 100.541C4.93963 97.7556 1.47136 94.1627 0.492578 92.0793C-0.358533 90.2723 -0.0819216 86.8708 1.13091 84.3835C1.66286 83.278 3.00336 82.3001 5.42902 81.2584C6.64186 80.7269 8.02491 80.1316 8.49302 79.8978C8.96113 79.6852 9.87608 79.3025 10.5144 79.0474C11.5783 78.601 12.6847 78.112 16.0254 76.5601C16.6637 76.2625 17.9191 75.7097 18.8127 75.327C19.7064 74.9444 20.9618 74.3916 21.6001 74.094C22.2385 73.7964 23.6002 73.1586 24.6216 72.6909C25.6642 72.2019 26.5579 71.8193 26.6217 71.8193C26.6855 71.8193 27.2813 71.5642 27.9409 71.2665C29.0261 70.7563 29.8346 70.3949 31.6858 69.587C32.0475 69.417 33.537 68.7154 35.0264 68.0139C36.5159 67.291 37.8138 66.717 37.9202 66.717C38.4734 66.717 38.8138 65.8454 39.0053 63.847C39.133 62.6778 39.3671 61.0621 39.5586 60.233C39.7501 59.4251 40.0267 58.2771 40.1331 57.6819C40.7076 54.9607 41.6863 53.515 43.6013 52.6009C46.4313 51.2616 48.1548 50.475 51.772 48.8805L53.5593 48.1152L53.9636 46.4144C54.1977 45.479 54.4956 44.5649 54.6445 44.3948C54.7722 44.2247 55.0701 43.7145 55.3041 43.2681C55.5169 42.8216 56.0701 42.1626 56.4957 41.8224C57.1978 41.2697 57.4319 41.2059 58.8788 41.2059L59.4001 41.2059C60.0831 41.2059 60.7363 41.4951 61.1938 42.0032L61.4534 42.2902C61.9853 42.8854 62.5173 43.672 62.6237 44.0334C62.7513 44.4161 63.028 45.2452 63.262 45.9042C63.4748 46.5845 63.7301 47.6262 63.8152 48.2427L63.9642 49.3907L65.6877 49.986C66.6452 50.3049 67.7303 50.6663 68.1133 50.7513C68.4751 50.8576 69.0921 51.1553 69.4751 51.4316L70.156 51.9206L71.2412 51.3466C72.9221 50.4962 75.9861 49.0931 77.8586 48.3278C79.4331 47.69 79.6672 47.6475 81.1566 47.7963C83.1142 47.9664 84.2632 48.4979 86.5612 50.2411C87.4761 50.9427 88.4762 51.6867 88.7528 51.8781C89.0507 52.0694 89.3698 52.3033 89.4337 52.4096C89.4975 52.5159 89.9869 52.9198 90.5188 53.3237C91.0508 53.7276 91.9445 54.4717 92.4977 54.9819C93.0509 55.4922 93.5828 55.8748 93.668 55.8323C93.7531 55.7898 94.1999 55.5772 94.668 55.3646C95.1361 55.152 96.0085 54.7693 96.583 54.493C97.6682 54.0253 99.7747 53.1536 102.647 52.0056C103.52 51.6655 104.413 51.2828 104.605 51.1765M185.077 223.951C187.588 223.674 188.992 223.525 195.206 222.973C196.206 222.888 197.546 222.717 198.184 222.59C198.823 222.462 200.419 222.207 201.695 222.016C202.993 221.825 204.717 221.527 205.525 221.378C206.355 221.208 207.972 220.91 209.142 220.719C210.313 220.528 211.76 220.251 212.377 220.081C212.972 219.911 213.696 219.784 213.973 219.784C214.228 219.784 215.185 219.635 216.058 219.465C219.547 218.721 220.718 218.487 222.973 218.083C224.271 217.828 225.994 217.445 226.803 217.211C227.633 216.977 228.654 216.701 229.122 216.574C229.867 216.382 230.952 215.936 233.08 214.937C233.484 214.745 234.357 214.235 234.995 213.831C237.889 212.003 238.974 210.366 239.761 206.709C240.825 201.756 240.91 200.225 240.336 197.1C240.059 195.612 239.995 195.548 239.038 195.548C237.676 195.548 236.293 194.188 233.037 189.617C232.186 188.426 231.037 186.683 230.037 185.025C229.888 184.812 229.548 184.238 229.25 183.749C228.378 182.325 228.314 182.24 227.42 180.624C225.633 177.435 224.42 175.118 222.037 170.25C221.952 170.08 221.675 169.548 221.441 169.08C221.207 168.613 220.867 167.89 220.696 167.486C220.526 167.082 220.079 166.125 219.717 165.36C219.335 164.595 219.037 163.872 219.037 163.744C219.037 163.617 218.675 162.66 218.207 161.618C216.994 158.791 215.845 155.878 215.845 155.602C215.845 155.453 215.739 155.134 215.59 154.879C215.27 154.305 214.93 153.434 214.249 151.329C213.951 150.457 213.632 149.543 213.526 149.309C213.419 149.075 213.185 148.416 212.994 147.821C212.823 147.247 212.398 145.908 212.057 144.845C211.121 142.017 210.738 140.678 210.738 140.359C210.738 140.147 210.036 140.083 207.44 140.083C205.61 140.083 204.036 140.019 203.929 139.955C203.823 139.891 202.759 139.7 201.546 139.53C200.333 139.381 198.929 139.147 198.397 139.02C197.865 138.913 196.482 138.658 195.312 138.446C194.142 138.254 192.61 137.978 191.907 137.829C191.205 137.68 189.865 137.383 188.929 137.191C187.992 137 186.801 136.703 186.269 136.554C185.737 136.405 184.694 136.107 183.928 135.916C182.588 135.555 178.736 134.364 177.439 133.918C177.098 133.79 175.949 133.386 174.885 133.025C173.843 132.663 172.779 132.281 172.545 132.196C172.311 132.089 171.311 131.664 170.332 131.26C169.332 130.835 168.459 130.495 168.353 130.495C168.14 130.495 166.055 129.538 162.714 127.901C160.65 126.881 160.055 126.668 159.735 126.838C159.501 126.966 158.182 127.455 156.778 127.922C155.395 128.39 153.969 128.879 153.607 129.007C153.267 129.113 151.543 129.708 149.777 130.282C145.564 131.664 144.713 131.983 144.479 132.217C144.352 132.323 144.096 132.408 143.883 132.408C143.501 132.408 142.352 132.897 138.713 134.64C134.436 136.681 132.713 137.298 129.372 138.042C128.819 138.148 128.776 138.233 128.904 138.892C128.989 139.296 129.181 139.891 129.351 140.21C129.521 140.529 129.67 140.933 129.67 141.103C129.67 141.273 129.947 142.124 130.287 143.017C131.649 146.588 131.883 148.268 131.266 149.777C130.861 150.712 130.862 151.605 131.245 152.456C131.564 153.242 132.606 156.24 132.84 157.175C132.947 157.537 133.266 158.366 133.585 159.067C133.883 159.748 134.138 160.449 134.138 160.598C134.138 160.747 134.266 161.193 134.436 161.576C134.606 161.959 135.053 163.043 135.415 163.978C135.798 164.914 136.266 166.062 136.479 166.529C136.67 166.997 136.968 167.72 137.117 168.124C137.266 168.528 137.479 168.974 137.585 169.102C137.67 169.229 138.011 169.803 138.309 170.377C138.607 170.951 139.224 171.908 139.692 172.524C140.373 173.439 140.522 173.8 140.522 174.629C140.522 177.031 143.181 183.515 149.522 196.611C150.522 198.652 151.778 201.288 152.309 202.457C152.863 203.627 153.395 204.732 153.501 204.902C153.607 205.072 153.948 205.71 154.246 206.284C154.544 206.879 155.012 207.73 155.288 208.197C156.629 210.578 158.076 213.151 158.352 213.725C158.523 214.086 158.884 214.66 159.161 215.043C159.438 215.404 159.672 215.766 159.672 215.851C159.672 216.233 161.906 219.04 163.416 220.549C165.268 222.399 166.544 223.143 169.013 223.823C170.204 224.142 171.332 224.206 176.353 224.227C180.226 224.248 183.247 224.142 185.077 223.951ZM150.309 206.816C152.395 206.348 152.288 206.412 152.118 205.795C152.054 205.497 151.692 204.817 151.352 204.307C151.012 203.818 150.735 203.329 150.735 203.244C150.735 203.159 149.969 201.565 149.054 199.694C147.16 195.867 145.118 191.615 144.266 189.702C143.947 189 143.394 187.831 143.054 187.108C142.713 186.364 142.437 185.663 142.437 185.493C142.437 185.344 142.309 185.046 142.139 184.812C141.99 184.578 141.777 184.153 141.692 183.856C141.607 183.558 141.33 182.899 141.096 182.367C139.99 179.901 138.947 176.606 138.628 174.714C138.543 174.14 138.16 173.29 137.692 172.609C136.968 171.568 134.777 167.273 134.777 166.912C134.777 166.784 134.096 165.19 133.734 164.51C133.628 164.318 133.479 163.872 133.415 163.489C133.33 163.128 133.16 162.766 133.053 162.703C132.947 162.618 132.862 162.405 132.862 162.214C132.862 162.022 132.734 161.618 132.585 161.321C132.436 161.023 132.138 160.258 131.925 159.62C131.713 158.982 131.415 158.111 131.266 157.707C131.117 157.303 130.861 156.389 130.713 155.687C130.415 154.199 130.117 153.54 129.883 153.795C129.798 153.901 129.457 154.454 129.159 155.028C128.84 155.602 128.329 156.389 128.053 156.771C126.84 158.344 123.478 160.343 121.584 160.598C120.308 160.768 119.925 161.129 120.286 161.81C120.521 162.277 121.648 165.466 122.031 166.848C122.138 167.252 122.329 167.784 122.414 168.017C122.521 168.251 122.733 168.825 122.925 169.293C124.776 174.161 127.627 180.412 129.947 184.706C130.287 185.344 130.989 186.641 131.479 187.576C132.628 189.787 136.67 196.186 137.713 197.504C137.841 197.653 138.734 198.843 139.692 200.119C140.649 201.416 141.5 202.5 141.564 202.564C141.628 202.627 142.245 203.35 142.926 204.201C144.969 206.731 147.16 207.496 150.309 206.816ZM244.612 193.89C244.761 193.741 245.059 193.635 245.315 193.635C245.549 193.635 246.017 193.486 246.357 193.316C246.676 193.146 247.038 192.997 247.145 192.997C247.464 192.997 249.357 191.636 250.379 190.68C252.145 189 252.336 188.554 252.336 185.981C252.336 184.408 252.23 183.537 251.996 183.005C251.613 182.134 251.209 181.028 250.953 180.135C250.847 179.795 250.634 179.115 250.443 178.647C250.272 178.179 249.932 177.265 249.677 176.627C249.443 175.99 249.038 174.884 248.804 174.204C248.57 173.502 248.23 172.737 248.059 172.503C247.889 172.269 247.762 171.929 247.762 171.759C247.762 171.589 247.464 170.675 247.102 169.739C246.719 168.783 246.293 167.635 246.123 167.167C245.932 166.699 245.527 165.721 245.187 164.999C244.847 164.255 244.57 163.617 244.57 163.532C244.57 163.468 244.442 163.107 244.272 162.745C244.123 162.362 243.634 161.214 243.187 160.151C242.761 159.11 242.293 157.962 242.144 157.6C241.995 157.26 241.74 156.622 241.591 156.219C241.123 154.879 240.059 152.307 239.761 151.712C239.591 151.414 239.463 151.053 239.463 150.925C239.463 150.797 239.187 150.096 238.846 149.352C237.633 146.779 236.91 145.121 236.91 144.93C236.91 144.824 236.633 144.143 236.314 143.42C235.974 142.676 235.527 141.656 235.314 141.124C235.123 140.593 234.718 139.7 234.463 139.105C234.186 138.531 233.718 137.425 233.399 136.66C233.08 135.895 232.548 134.683 232.186 133.939C231.165 131.707 229.888 128.73 229.888 128.518C229.888 128.411 229.612 127.71 229.25 126.945C228.91 126.2 228.612 125.52 228.612 125.435C228.612 125.35 228.314 124.67 227.952 123.904C227.569 123.139 227.207 122.374 227.122 122.204C227.037 122.034 226.803 121.842 226.59 121.821C226.271 121.757 226.228 121.842 226.356 122.353C226.441 122.671 226.654 123.245 226.846 123.586C227.25 124.393 227.548 125.414 227.76 126.881C227.973 128.39 227.526 130.176 226.548 131.749C225.846 132.855 223.654 135.151 222.335 136.192C220.547 137.595 214.611 139.87 213.334 139.658C213.164 139.636 212.909 139.721 212.738 139.87C212.398 140.147 212.483 140.891 212.972 142.081C213.121 142.421 213.398 143.293 213.611 143.994C213.802 144.696 214.079 145.504 214.185 145.801C214.313 146.099 214.483 146.631 214.568 146.971C214.675 147.332 214.951 148.14 215.207 148.778C215.462 149.416 215.739 150.245 215.845 150.585C215.951 150.946 216.228 151.754 216.483 152.392C216.739 153.03 217.036 153.859 217.143 154.199C217.249 154.56 217.419 155.028 217.526 155.262C217.632 155.496 217.866 156.112 218.079 156.644C218.271 157.175 218.568 157.855 218.739 158.174C218.909 158.472 219.037 158.855 219.037 159.003C219.037 159.131 219.335 159.875 219.675 160.619C220.037 161.342 220.313 162.065 220.313 162.171C220.313 162.49 223.42 169.144 225.186 172.588C228.101 178.328 227.888 177.903 231.654 184.174C232.825 186.13 235.272 189.744 236.186 190.871C237.995 193.125 238.782 193.741 240.421 194.145C241.208 194.336 244.357 194.145 244.612 193.89ZM254.953 185.429C255.592 185.237 255.549 184.791 254.868 184.621C254.209 184.451 253.826 184.727 253.996 185.216C254.145 185.599 254.23 185.62 254.953 185.429ZM257.571 183.558C257.975 183.388 258.549 182.984 258.89 182.686C259.613 182.006 259.635 181.219 259.018 179.242C257.996 175.99 257.251 173.672 256.741 172.269C256.464 171.461 256.145 170.441 256.06 170.037C255.954 169.633 255.528 168.336 255.102 167.167C254.677 165.998 254.251 164.765 254.145 164.403C254.039 164.063 253.592 162.66 253.124 161.321C252.655 159.981 252.06 158.153 251.804 157.281C251.528 156.41 251.23 155.538 251.145 155.368C250.953 154.922 250.102 152.477 249.762 151.329C249.357 149.947 248.421 147.098 248.102 146.227C247.953 145.823 247.528 144.526 247.166 143.357C246.783 142.187 245.825 139.232 244.995 136.766C244.166 134.321 243.357 131.877 243.208 131.345C242.612 129.411 241.804 126.923 241.059 124.861C240.655 123.692 239.931 121.63 239.485 120.29C238.293 116.761 237.804 115.953 236.804 115.783C236.399 115.72 235.782 116.591 235.016 118.292C234.761 118.845 233.229 120.078 232.229 120.524C231.825 120.716 230.824 120.992 230.016 121.162C229.229 121.311 228.526 121.566 228.463 121.715C228.399 121.864 228.675 122.523 229.058 123.203C229.803 124.478 230.293 125.478 231.271 127.625C231.569 128.326 232.122 129.496 232.463 130.218C232.803 130.963 233.08 131.622 233.08 131.728C233.08 131.813 233.505 132.748 234.037 133.79C234.569 134.853 234.995 135.767 234.995 135.852C234.995 135.958 235.293 136.66 235.655 137.447C235.995 138.254 236.421 139.19 236.569 139.53C236.74 139.891 237.655 142.039 238.612 144.313C239.548 146.588 240.421 148.65 240.527 148.884C240.783 149.501 241.229 150.564 242.017 152.498C242.378 153.434 242.825 154.497 242.974 154.837C243.123 155.198 243.549 156.24 243.932 157.175C244.293 158.111 244.74 159.174 244.889 159.514C245.038 159.875 245.506 161.023 245.932 162.065C246.974 164.573 247.123 164.935 247.464 165.615C247.634 165.913 247.762 166.317 247.762 166.508C247.762 166.678 247.911 167.188 248.102 167.635C248.294 168.081 248.57 168.74 248.719 169.08C248.868 169.442 249.123 170.058 249.294 170.462C249.783 171.61 250.911 174.565 251.017 175.033C251.081 175.267 251.443 176.266 251.826 177.265C252.187 178.264 252.847 180.071 253.273 181.304C253.996 183.367 254.102 183.537 254.677 183.664C255.783 183.898 256.847 183.856 257.571 183.558ZM119.35 159.429C121.733 158.918 123.67 158.111 125.244 156.92C126.393 156.048 127.755 154.56 127.755 154.156C127.755 154.05 127.861 153.859 128.01 153.71C128.415 153.306 129.67 149.416 129.67 148.523L129.67 147.715L128.415 147.715C127.351 147.715 123.265 147.12 121.904 146.758C121.67 146.694 120.712 146.546 119.776 146.439C118.137 146.227 116.754 145.993 113.286 145.313C112.414 145.121 110.924 144.824 109.988 144.653C109.052 144.462 107.626 144.165 106.796 143.994C105.988 143.824 104.775 143.569 104.137 143.442C99.6257 142.591 91.7955 140.891 89.9231 140.359C88.4549 139.934 87.3485 139.934 83.2206 140.274C78.2203 140.699 72.5604 140.253 68.0708 139.062C66.0707 138.531 64.2621 137.914 64.0493 137.702C63.9216 137.595 63.6663 137.51 63.4748 137.51C62.7088 137.51 58.432 135.193 56.517 133.726C55.8148 133.195 55.7722 133.195 54.5168 133.45C53.8147 133.599 52.8997 133.875 52.4742 134.109C51.5592 134.555 49.8145 135.363 48.2825 136.022C47.708 136.256 47.0271 136.554 46.793 136.66C46.559 136.766 45.7078 137.149 44.878 137.489C42.7928 138.403 42.7502 138.446 42.7928 139.126C42.9417 141.018 44.5163 143.633 46.1972 144.802C47.0909 145.419 50.0272 146.418 50.9422 146.439C51.2401 146.439 52.2827 146.694 53.2827 146.992C54.2828 147.29 55.3892 147.609 55.7297 147.715C56.7936 148.012 57.7298 148.353 59.5597 149.118C60.0278 149.309 60.7087 149.543 61.0491 149.628C61.4108 149.734 62.645 150.16 63.8152 150.585C64.9855 151.01 66.2409 151.435 66.5813 151.541C66.9431 151.648 67.9857 151.967 68.9006 152.264C69.8156 152.562 70.7518 152.817 70.9858 152.817C71.2199 152.817 71.6029 152.923 71.8582 153.072C72.1136 153.2 72.6668 153.391 73.0711 153.476C73.4753 153.561 74.3477 153.795 74.9861 153.986C76.9011 154.56 81.8162 155.772 83.0716 155.985C83.71 156.091 84.6674 156.282 85.1994 156.41C88.4975 157.133 94.7531 158.089 99.2002 158.557C100.285 158.663 101.264 158.812 101.349 158.855C101.434 158.918 103.222 159.067 105.328 159.216C107.413 159.344 109.903 159.535 110.839 159.62C114.18 159.918 117.35 159.854 119.35 159.429ZM129.627 146.205C129.691 145.823 128.627 143.931 127.883 143.059C127.415 142.528 124.989 141.337 124.372 141.337C124.159 141.337 123.585 141.209 123.053 141.039C120.329 140.189 119.159 140.061 113.69 140.061C110.711 140.061 107.435 139.955 106.371 139.828C105.328 139.7 103.732 139.53 102.86 139.424C101.988 139.317 100.222 139.041 98.9236 138.786C95.7319 138.148 94.7106 138.063 94.1148 138.382C93.8382 138.531 93.136 138.722 92.5402 138.786C91.7742 138.85 91.4551 138.999 91.4125 139.254C91.3487 139.594 91.4976 139.636 94.8808 140.125C95.5617 140.232 97.4554 140.614 100.732 141.337C101.839 141.571 103.285 141.869 103.924 141.975C104.562 142.081 106.009 142.357 107.116 142.613C108.222 142.846 109.711 143.144 110.414 143.25C111.116 143.378 112.371 143.612 113.18 143.782C114.648 144.101 116.159 144.377 119.989 145.036C121.967 145.376 124.648 145.865 127.223 146.333C129.053 146.673 129.542 146.652 129.627 146.205ZM127.755 140.614C127.755 140.338 127.606 139.764 127.436 139.339L127.117 138.573L125.776 138.722C124.287 138.871 123.499 139.105 123.499 139.402C123.499 139.721 124.244 140.061 124.925 140.061C125.265 140.061 125.946 140.295 126.478 140.593C127.67 141.231 127.755 141.231 127.755 140.614ZM84.4547 138.467C85.859 138.297 87.4974 138.148 88.1144 138.148C88.7102 138.148 89.4762 138.042 89.8167 137.914C90.1358 137.787 90.838 137.617 91.3699 137.51C91.9019 137.425 92.6253 137.255 92.9658 137.128C93.3275 137 93.9446 136.809 94.3488 136.66C94.7531 136.532 95.3914 136.341 95.7319 136.256C96.0936 136.171 96.9022 135.831 97.5618 135.533C98.2214 135.214 98.8172 134.959 98.9023 134.959C99.0087 134.959 100.711 134.151 102.711 133.195C104.732 132.217 106.796 131.218 107.328 130.984C107.86 130.75 109.52 129.963 111.009 129.241C112.52 128.539 113.818 127.944 113.924 127.944C114.116 127.944 114.946 127.604 116.371 126.966C117.052 126.668 122.265 124.946 124.031 124.457C124.627 124.287 125.67 123.989 126.372 123.798C127.074 123.586 127.989 123.309 128.393 123.139C128.798 122.99 129.542 122.799 130.032 122.735C130.542 122.65 130.989 122.501 131.074 122.395C131.138 122.289 131.925 122.204 132.819 122.204C134.5 122.204 135.968 122.055 140.415 121.438C145.352 120.779 145.735 120.737 146.628 120.843C149.99 121.311 141.947 123.097 133.5 123.777C131.904 123.904 130.351 124.223 128.415 124.861C127.521 125.137 126.223 125.52 125.521 125.733C123.946 126.158 122.35 126.647 121.372 126.987C120.967 127.136 120.095 127.412 119.457 127.604C117.052 128.369 113.882 129.729 108.967 132.068C107.116 132.961 105.477 133.684 105.328 133.684C105.201 133.684 104.86 133.833 104.605 134.024C104.009 134.428 99.9023 136.235 99.5619 136.235C99.1576 136.235 98.1576 137.085 98.2852 137.319C98.3703 137.425 99.0512 137.51 99.8385 137.51C100.626 137.51 102.328 137.659 103.605 137.829C106.945 138.276 119.606 138.276 121.946 137.829C122.861 137.659 123.882 137.51 124.223 137.51C124.563 137.51 125.329 137.383 125.925 137.213C126.521 137.043 127.627 136.745 128.393 136.532C132.734 135.427 134.628 134.704 138.67 132.706C139.713 132.196 140.649 131.77 140.756 131.77C140.862 131.77 141.543 131.494 142.266 131.175C143.628 130.559 143.99 130.431 146.586 129.517C147.416 129.219 148.267 128.922 148.501 128.815C148.735 128.73 149.884 128.348 151.054 127.986C152.224 127.625 154.076 127.03 155.182 126.668C156.288 126.328 157.374 126.03 157.586 126.03C158.437 126.03 157.884 125.435 156.331 124.691C155.416 124.245 153.948 123.501 153.076 123.033C152.203 122.544 151.118 121.97 150.671 121.736C150.246 121.502 149.82 121.226 149.756 121.119C149.692 121.013 149.224 120.928 148.714 120.928C147.905 120.928 147.735 120.843 147.501 120.354C147.352 120.035 147.033 119.738 146.799 119.695C146.564 119.653 145.394 119.142 144.203 118.568C142.628 117.803 141.713 117.187 140.798 116.294C139.607 115.146 137.968 112.701 137.968 112.127C137.968 111.957 137.819 111.489 137.649 111.085C137.415 110.532 137.33 109.533 137.33 107.535C137.33 105.536 137.415 104.537 137.649 103.985C137.819 103.581 137.968 103.092 137.968 102.922C137.968 102.773 138.181 102.326 138.458 101.986L138.926 101.327L138.415 100.923C138.139 100.711 137.777 100.519 137.607 100.519C136.99 100.519 133.649 98.7335 132.159 97.6067C130.84 96.5863 123.265 89.1456 120.606 86.2543C119.882 85.4677 115.988 81.7473 113.329 79.3238C112.307 78.3884 111.797 78.4734 111.35 79.6639C111.18 80.1742 110.69 80.9182 110.307 81.3222C109.477 82.1725 107.86 83.2993 107.477 83.2993C107.328 83.2993 107.03 83.4268 106.796 83.5756C106.562 83.7457 106.179 83.937 105.945 84.0008C105.711 84.0646 104.562 84.4685 103.392 84.8937C102.222 85.2976 100.605 85.8716 99.7747 86.1693C96.7958 87.1897 92.9445 88.5716 91.7955 89.0393C91.1572 89.2944 90.3912 89.5707 90.0933 89.677C89.7954 89.7833 89.1783 90.0172 88.7102 90.1873C87.3272 90.7187 84.5185 91.7392 83.71 92.0368C82.9652 92.2919 82.029 92.6321 80.5821 93.1636C79.7736 93.4399 76.9011 94.5241 75.3691 95.1194C74.9222 95.2895 74.1988 95.5446 73.7732 95.7147C73.3264 95.8847 72.5391 96.1824 72.0072 96.3737C71.4752 96.565 70.6667 96.8839 70.1986 97.054C69.3687 97.3729 68.9219 97.5642 67.2622 98.2658C66.8154 98.4571 66.326 98.6059 66.1771 98.6059C66.0069 98.6059 65.2408 98.9036 64.4536 99.2437C63.6663 99.6051 62.9216 99.8815 62.7939 99.8815C62.5386 99.8815 58.3256 101.518 56.7936 102.199C56.3255 102.411 55.6658 102.688 55.3041 102.815C54.1126 103.219 49.5591 105.005 48.9208 105.303C48.5803 105.451 47.6228 105.855 46.793 106.153C44.7929 106.918 41.9842 108.066 40.3033 108.81C38.7287 109.512 35.069 110.936 34.8349 110.936C34.7711 110.936 34.5157 111.085 34.303 111.276C33.9412 111.617 33.9838 111.702 35.2392 113.105C37.7712 115.975 43.495 121.523 46.4313 124.011C46.8568 124.372 47.8782 125.223 48.6867 125.945C50.3251 127.348 54.453 130.495 54.6658 130.495C54.7296 130.495 55.2828 130.856 55.8999 131.324C56.517 131.77 57.4745 132.408 58.0277 132.748C58.6022 133.088 59.5171 133.641 60.0491 133.96C62.2194 135.236 65.0919 136.469 67.5388 137.149C69.8581 137.808 70.8795 137.999 73.9222 138.361C77.816 138.85 81.2205 138.871 84.4547 138.467ZM210.845 138.361C214.377 138.042 218.1 136.766 221.207 134.832C223.186 133.577 225.548 130.622 226.08 128.73C226.377 127.646 226.08 127.306 224.867 127.306C224.377 127.306 223.696 127.2 223.356 127.072C223.037 126.945 222.335 126.774 221.803 126.668C221.271 126.562 220.271 126.328 219.569 126.137C218.866 125.945 217.76 125.669 217.122 125.52C216.483 125.35 215.334 125.01 214.568 124.776C213.802 124.521 211.696 123.819 209.887 123.245C208.079 122.65 206.312 122.055 205.951 121.906C205.61 121.736 204.398 121.311 203.291 120.949C202.185 120.567 201.121 120.184 200.951 120.099C200.759 119.993 200.312 119.844 199.908 119.759C199.525 119.674 198.972 119.483 198.652 119.312C198.333 119.142 197.972 119.015 197.844 119.015C197.695 119.015 197.312 118.866 196.993 118.696C196.652 118.526 196.206 118.377 196.014 118.377C195.823 118.377 195.61 118.292 195.525 118.186C195.461 118.079 195.099 117.909 194.716 117.824C194.078 117.697 193.801 117.59 191.971 116.804C191.546 116.613 191.056 116.464 190.886 116.464C190.695 116.464 190.503 116.379 190.418 116.272C190.354 116.166 189.992 115.996 189.609 115.911C188.971 115.783 188.695 115.677 186.865 114.891C186.439 114.699 186.014 114.55 185.907 114.55C185.779 114.55 182.056 113.126 180.417 112.424C179.758 112.148 178.588 111.638 177.545 111.191C177.013 110.958 176.119 110.617 175.524 110.405C174.949 110.192 174.268 109.873 174.034 109.725C173.8 109.576 173.502 109.448 173.353 109.448C173.204 109.448 172.587 109.214 171.97 108.938C171.353 108.64 169.502 107.875 167.885 107.216C166.268 106.557 164.544 105.834 164.055 105.6C163.565 105.366 162.842 105.09 162.438 104.984C162.033 104.877 160.778 104.537 159.672 104.218C157.906 103.729 157.395 103.666 155.522 103.772C154.352 103.836 152.586 104.091 151.586 104.367C150.586 104.622 149.203 104.941 148.501 105.111C147.288 105.366 145.735 105.728 142.969 106.387C142.266 106.557 141.224 106.791 140.628 106.918C139.032 107.258 138.947 107.386 139.181 109.491C139.5 112.191 140.522 113.976 142.777 115.762C143.735 116.527 145.99 117.739 146.437 117.739C146.607 117.739 146.99 117.867 147.288 118.037C147.607 118.207 148.288 118.547 148.82 118.802C149.926 119.334 152.735 120.801 155.629 122.395C157.31 123.33 163.204 126.264 164.353 126.753C164.523 126.817 164.821 126.966 164.991 127.072C165.331 127.263 166.587 127.837 167.651 128.284C168.012 128.411 168.63 128.688 169.034 128.858C171.672 130.006 172.97 130.495 173.268 130.495C173.46 130.495 173.715 130.58 173.821 130.686C174.034 130.899 175.46 131.451 176.587 131.77C176.949 131.877 178.332 132.323 179.673 132.791C181.013 133.237 182.737 133.79 183.503 134.003C184.269 134.194 185.311 134.492 185.843 134.64C187.014 134.959 189.205 135.448 191.588 135.916C192.588 136.107 193.929 136.405 194.588 136.575C195.227 136.745 196.057 136.873 196.44 136.873C196.801 136.873 197.355 136.979 197.674 137.085C198.44 137.383 202.036 137.914 204.887 138.169C206.185 138.276 207.376 138.403 207.547 138.446C208.1 138.595 208.462 138.573 210.845 138.361ZM45.027 136.043C46.1121 135.491 47.2398 134.938 47.5377 134.853C47.9846 134.704 49.857 133.918 51.2613 133.237C51.4954 133.131 52.1976 132.876 52.8146 132.663C53.453 132.451 53.9636 132.196 53.9636 132.089C53.9636 131.962 53.5806 131.643 53.1125 131.345C52.6231 131.048 51.8571 130.537 51.389 130.218L50.5592 129.602L49.7293 130.027C48.8357 130.495 46.7717 131.451 46.0057 131.749C45.1334 132.089 43.6652 133.514 43.2822 134.407C42.6864 135.81 42.5375 137.085 42.9843 137.085C43.0056 137.085 43.9205 136.617 45.027 136.043ZM46.0696 129.751C46.5802 129.453 47.1973 129.219 47.4313 129.219C47.6654 129.219 48.1335 128.985 48.474 128.73L49.091 128.22L48.091 127.54C47.559 127.157 46.942 126.689 46.7292 126.498C46.5377 126.285 45.8993 125.754 45.3036 125.286C44.7291 124.819 43.3035 123.501 42.1332 122.353C39.899 120.12 39.3032 119.908 39.9628 121.566C40.1544 122.034 40.3033 122.565 40.3033 122.756C40.3033 122.948 40.6012 123.713 40.9416 124.478C41.3033 125.223 41.58 125.903 41.58 125.988C41.58 126.073 41.9842 126.753 42.4949 127.519C44.5376 130.622 44.5588 130.622 46.0696 129.751ZM226.016 126.094C226.229 125.733 226.037 124.712 225.675 124.266C225.569 124.117 225.42 123.777 225.356 123.479C225.143 122.629 223.441 121.098 221.867 120.333C221.079 119.95 220.143 119.483 219.824 119.312C219.483 119.142 219.122 119.015 219.015 119.015C218.93 119.015 218.334 118.781 217.717 118.483C216.611 117.973 216.122 117.803 213.185 116.783C210.632 115.89 209.994 115.656 208.738 115.103C208.057 114.805 207.355 114.55 207.206 114.55C207.057 114.55 206.568 114.402 206.121 114.21C204.546 113.53 204.227 113.402 201.695 112.531C201.227 112.382 200.036 111.957 199.035 111.574C198.035 111.213 196.95 110.809 196.589 110.724C195.823 110.49 192.78 109.427 191.163 108.81C190.524 108.555 189.333 108.13 188.503 107.854C187.694 107.577 186.482 107.131 185.843 106.897C185.205 106.642 184.396 106.366 184.035 106.259C183.694 106.153 182.013 105.6 180.311 104.984C177.736 104.091 174.545 103.007 169.672 101.348C169.268 101.221 168.779 101.029 168.608 100.944C168.438 100.881 167.566 100.583 166.693 100.328C165.821 100.052 164.714 99.7327 164.246 99.5626C163.778 99.4138 162.863 99.1587 162.225 98.9673C161.587 98.776 160.672 98.5209 160.204 98.3933C158.161 97.7981 156.225 97.6067 153.969 97.7981C152.735 97.8831 151.416 98.0532 151.054 98.1807C150.203 98.4571 147.182 99.0099 145.309 99.2437C143.203 99.4776 141.756 100.2 140.734 101.476C139.926 102.475 139.351 103.751 139.181 104.92C138.99 106.025 139.224 106.195 140.266 105.77C141.415 105.324 142.522 104.984 142.926 104.984C143.117 104.984 143.692 104.856 144.181 104.686C144.692 104.516 145.862 104.24 146.799 104.027C147.735 103.836 148.926 103.538 149.458 103.389C153.395 102.263 157.012 102.029 159.884 102.73C161.693 103.155 164.097 104.006 165.204 104.601C165.608 104.814 166.034 104.984 166.161 104.984C166.353 104.984 168.651 105.877 169.991 106.472C170.225 106.578 170.906 106.855 171.481 107.11C172.077 107.365 172.736 107.641 172.97 107.747C173.204 107.854 173.928 108.151 174.566 108.385C175.204 108.619 175.928 108.917 176.162 109.023C177.311 109.533 181.183 111.128 182.758 111.723C183.226 111.914 183.801 112.127 184.035 112.233C185.013 112.658 199.482 118.037 200.951 118.526C201.823 118.802 202.738 119.121 202.972 119.249C203.546 119.504 206.844 120.694 207.653 120.928C208.249 121.077 211.185 122.076 212.121 122.438C212.717 122.65 217.505 124.096 218.398 124.33C218.803 124.436 219.632 124.649 220.207 124.84C220.803 125.01 221.611 125.201 222.037 125.286C222.441 125.371 223.399 125.648 224.165 125.924C225.867 126.541 225.782 126.519 226.016 126.094ZM227.101 119.971C227.76 119.801 228.739 119.61 229.292 119.546C229.846 119.483 230.356 119.334 230.42 119.206C230.505 119.1 230.782 119.015 231.059 119.015C231.846 119.015 233.974 116.825 234.463 115.507C234.803 114.593 234.889 113.7 234.952 108.917C234.974 105.877 234.91 101.901 234.782 100.094C234.633 98.287 234.399 94.8856 234.229 92.547C234.08 90.2085 233.846 86.9133 233.718 85.2126C233.612 83.5119 233.42 81.7261 233.293 81.2371C233.186 80.7482 233.08 79.7277 233.08 78.9624C233.08 78.197 232.995 77.1128 232.867 76.5601C232.761 76.0073 232.569 74.4979 232.442 73.2011C231.995 68.2902 231.335 65.1013 230.569 64.0171C230.122 63.4006 226.229 59.5314 224.058 57.5543C223.356 56.9165 222.59 56.215 222.356 55.9811C222.101 55.7473 220.675 54.4717 219.143 53.1749C216.207 50.6238 216.228 50.6663 214.036 48.8593C213.228 48.2215 211.632 46.8822 210.44 45.9042C206.93 43.013 206.844 42.9279 206.015 42.3327C205.589 41.9925 203.929 40.7382 202.334 39.5052C200.738 38.2722 199.206 37.1242 198.95 36.9541C198.674 36.784 197.95 36.2313 197.312 35.721C195.397 34.1904 189.78 30.1511 186.162 27.7063C179.247 23.008 172.566 18.5861 171.8 18.1822C171.63 18.0971 171.204 17.842 170.842 17.6082C170.502 17.3743 170.013 17.0979 169.779 16.9916C169.544 16.8853 168.864 16.4814 168.247 16.0775C167.651 15.6948 166.885 15.2271 166.544 15.0358C166.225 14.8444 165.246 14.2492 164.395 13.6964C163.544 13.165 162.204 12.3784 161.416 11.9319C160.629 11.5067 159.608 10.9327 159.14 10.6776C157.203 9.57215 153.799 7.99897 153.31 7.97771C152.863 7.93519 152.735 8.04149 152.692 8.46667C152.65 8.7643 152.522 9.10445 152.437 9.21075C152.331 9.3383 152.139 10.4225 152.033 11.6343C151.905 12.8248 151.756 13.8878 151.714 13.9728C151.671 14.0366 151.437 16.5452 151.224 19.5215C150.905 24.0285 150.841 27.515 150.841 40.2493C150.841 54.9607 150.969 59.0637 151.607 67.0359C151.735 68.439 151.905 70.7138 152.012 72.0956C152.224 75.0719 152.629 77.9632 153.288 81.2796C154.246 86.2543 156.799 91.2715 159.863 94.2478C160.65 94.9919 161.012 95.8422 160.544 95.8422C160.289 95.8422 158.82 94.843 158.118 94.1627C157.288 93.4187 155.565 91.0802 154.927 89.8896C154.65 89.3582 154.31 88.7204 154.182 88.5078C151.352 83.4268 149.756 70.2673 149.224 47.69C149.054 39.5052 149.054 36.4864 149.352 29.1944C149.905 14.7594 150.352 10.9115 151.756 8.21156C151.948 7.82889 150.629 8.084 149.352 8.67926C148.586 9.04067 147.352 9.59341 146.586 9.95482C145.841 10.295 145.118 10.5926 145.011 10.5926C144.884 10.5926 144.437 10.7414 143.99 10.9327C142.33 11.6343 141.883 11.8256 141.054 12.1445C136.138 13.9941 135.777 14.2917 135.202 16.6302C134.968 17.5444 134.777 18.5436 134.777 18.8624C134.777 19.1601 134.649 20.3719 134.457 21.5411C134.138 23.6883 133.691 29.322 133.245 36.9541C132.819 44.2035 132.777 57.8094 133.16 64.3785C133.351 67.5887 133.628 71.3303 133.755 72.6696C133.883 74.009 134.053 76.0711 134.16 77.2404C134.372 80.0679 134.904 84.0646 135.181 85C135.309 85.4039 135.415 86.0204 135.415 86.3606C135.415 86.6795 135.564 87.4448 135.755 88.0613C135.947 88.6566 136.245 89.6345 136.415 90.2085C136.798 91.5053 137.287 92.7809 137.67 93.5462C137.841 93.8438 137.968 94.2053 137.968 94.3328C137.968 94.4391 138.543 95.5021 139.266 96.6926C140.309 98.4359 140.649 98.8185 141.054 98.8185C141.33 98.8185 141.734 98.6484 141.947 98.4146C142.458 97.9044 143.522 97.543 145.203 97.3304C145.969 97.2241 147.65 96.9264 148.926 96.6926C155.267 95.4383 158.14 95.6296 164.672 97.6493C165.14 97.7981 166.098 98.0744 166.8 98.287C167.502 98.4996 168.31 98.776 168.608 98.9248C168.906 99.0524 169.715 99.35 170.417 99.5626C171.119 99.7752 172.055 100.073 172.502 100.222C175.524 101.327 176.247 101.582 177.013 101.795C177.843 102.029 178.949 102.411 179.843 102.773C180.226 102.943 180.715 103.07 180.907 103.07C181.12 103.07 181.375 103.155 181.503 103.262C181.609 103.368 182.035 103.559 182.439 103.666C182.843 103.793 183.715 104.091 184.354 104.346C184.992 104.601 185.822 104.877 186.162 104.962C186.524 105.069 187.439 105.388 188.205 105.707C188.971 106.004 189.716 106.259 189.844 106.259C189.971 106.259 190.397 106.387 190.78 106.557C192.205 107.173 195.908 108.491 197.014 108.81C197.631 108.98 198.078 109.151 200.525 110.086C201.163 110.341 202.376 110.766 203.185 111.043C204.61 111.51 205.461 111.829 206.376 112.233C206.61 112.339 207.1 112.509 207.44 112.616C207.802 112.722 208.61 113.02 209.249 113.275C209.887 113.53 210.653 113.785 210.951 113.849C211.249 113.913 211.589 114.04 211.696 114.146C211.93 114.317 212.632 114.572 214.994 115.379C215.76 115.656 216.675 115.996 217.015 116.145C217.377 116.294 218.76 116.889 220.1 117.442C222.739 118.547 223.803 119.121 224.441 119.844C224.909 120.375 225.505 120.397 227.101 119.971ZM33.388 109.746C34.8987 109.087 36.2392 108.47 36.3669 108.364C36.4733 108.258 36.7286 108.173 36.9414 108.173C37.1542 108.173 37.8351 107.917 38.4521 107.62C39.0479 107.301 39.7926 106.982 40.0905 106.876C41.2395 106.514 42.5587 106.004 43.5801 105.515C44.1758 105.26 45.5802 104.686 46.6866 104.24C47.7931 103.814 49.2187 103.24 49.8357 102.943C50.4528 102.666 51.0486 102.433 51.155 102.433C51.2613 102.433 51.6656 102.305 52.0486 102.135C52.4316 101.965 53.1763 101.667 53.7083 101.476C54.2402 101.285 54.9637 100.987 55.3041 100.838C56.1765 100.455 60.581 98.7547 61.9002 98.287C62.9216 97.9256 63.6876 97.628 65.1557 96.9902C65.5387 96.8201 66.0281 96.6926 66.2196 96.6926C66.4324 96.6926 66.7728 96.565 67.0069 96.395C67.241 96.2462 68.007 95.906 68.7091 95.6721C69.4113 95.417 70.5177 95.0131 71.1561 94.7793C71.7944 94.5241 72.9647 94.099 73.752 93.8013C74.5392 93.525 75.7095 93.0573 76.3904 92.7596C77.05 92.462 77.7522 92.2281 77.9437 92.2281C78.1565 92.2281 78.4969 92.0793 78.731 91.9093C78.9437 91.7392 79.3055 91.5904 79.5182 91.5904C79.7523 91.5904 80.1778 91.4628 80.4757 91.2927C80.7949 91.1439 81.5822 90.8463 82.2205 90.6337C83.3057 90.2936 83.7951 90.1022 85.5824 89.3369C85.9654 89.1668 86.4122 89.0393 86.5612 89.0393C86.7314 89.0393 87.4761 88.7629 88.2208 88.4227C88.9868 88.0826 89.9018 87.7424 90.2635 87.6574C90.6465 87.5936 90.987 87.4236 91.0508 87.3173C91.1359 87.211 91.3274 87.1259 91.5189 87.1259C91.6891 87.1259 92.1359 86.9984 92.4977 86.8283C92.8807 86.6582 94.1786 86.1905 95.4127 85.7653C96.6468 85.3614 99.0299 84.5323 100.732 83.937C102.434 83.3418 104.158 82.7465 104.562 82.6402C104.966 82.5127 105.413 82.3426 105.52 82.2363C105.647 82.1513 106.009 82.0237 106.35 81.9387C107.839 81.5773 109.967 79.5789 110.222 78.2821C110.414 77.2829 110.094 76.7727 108.733 75.816C108.116 75.3908 106.115 73.8602 104.307 72.4145C102.498 70.9689 100.456 69.3532 99.7534 68.8217C97.1575 66.8021 87.1144 58.7661 86.5186 58.2133C85.5398 57.3204 82.6248 55.237 82.3695 55.237C82.1992 55.237 81.9439 55.0882 81.795 54.9182C81.646 54.7481 81.3694 54.5993 81.1779 54.5993C80.9864 54.5993 80.4545 54.4505 79.9863 54.3016C79.0076 53.9615 78.7097 53.2387 79.4331 53.0048C80.1566 52.7922 82.3907 53.3024 83.5185 53.9827C84.7313 54.6843 88.0081 57.1716 90.0933 58.9362C90.8593 59.5952 91.6253 60.1904 91.7955 60.2755C91.9657 60.3605 92.9871 61.1259 94.0297 61.9762C98.8597 65.8879 99.4768 66.3769 99.9662 66.717C101.115 67.5462 108.541 73.52 109.669 74.5192C110.307 75.0932 110.477 75.1144 110.988 74.6467C111.243 74.4342 111.371 74.009 111.371 73.435C111.371 72.7334 111.222 72.4145 110.669 71.8618C109.648 70.7988 103.924 66.1643 100.562 63.6344C100.243 63.4006 99.4129 62.7203 98.7108 62.125C98.0086 61.5298 96.5192 60.3605 95.4127 59.5102C94.3063 58.6598 92.0508 56.9165 90.4125 55.641C83.9015 50.5387 82.8588 49.8585 81.2205 49.5821C80.1991 49.4333 78.6246 49.901 75.9436 51.1978C75.0073 51.6442 73.2838 52.4733 72.1136 53.0048C70.9433 53.5576 69.3262 54.3229 68.4963 54.7056C67.6878 55.0882 66.1983 55.7898 65.1983 56.2575C64.1982 56.7252 62.4535 57.533 61.3257 58.0858C60.198 58.6173 59.2192 59.0637 59.1341 59.0637C59.0703 59.0637 58.432 59.3401 57.6872 59.6802C55.2616 60.8282 53.4955 61.6148 53.3678 61.6148C53.304 61.6148 52.3678 62.04 51.3039 62.5502C50.2187 63.0817 48.6867 63.8045 47.8569 64.1872C47.0483 64.5486 45.793 65.1439 45.0908 65.4627C44.3886 65.8029 43.7503 66.0793 43.6652 66.0793C43.3886 66.0793 40.3033 67.5887 40.1969 67.8013C40.1118 67.9076 39.899 67.9926 39.7075 67.9926C39.516 67.9926 38.4309 68.439 37.3244 68.9705C34.2178 70.4587 31.4943 71.713 27.643 73.435C25.8982 74.2003 23.6854 75.1995 22.6427 75.6884C22.0044 75.9861 20.8129 76.5176 19.983 76.879C19.1745 77.2404 17.5574 77.9632 16.4084 78.4947C15.2594 79.0262 14.238 79.4726 14.1529 79.4726C14.0465 79.4726 13.5571 79.7065 13.0465 79.9828C12.5358 80.2804 11.4719 80.7482 10.7059 81.0245C9.93991 81.3222 9.11008 81.6623 8.8973 81.7686C8.68452 81.8962 7.96108 82.2363 7.32274 82.5127C6.68441 82.8103 5.70563 83.2355 5.15241 83.4906C4.59919 83.7244 4.06724 83.937 3.96086 83.937C3.32252 83.937 2.34374 85.8716 1.79052 88.2314C1.32241 90.251 2.02458 91.8242 4.79069 94.8643C5.98224 96.1824 11.8124 100.881 13.5359 101.901C13.7274 102.007 14.4508 102.496 15.1317 102.943C18.217 105.047 22.6427 107.875 23.6002 108.385C23.962 108.577 25.0046 109.151 25.9408 109.661C29.0048 111.319 29.707 111.319 33.388 109.746ZM42.729 64.5061C43.7928 63.9959 45.0908 63.3793 45.6227 63.1455C46.8143 62.614 49.6868 61.2959 50.8571 60.7432L51.7507 60.318L51.8571 58.681C52.0061 56.4913 52.7721 53.1749 53.5381 51.4954C53.9636 50.5387 54.0275 49.9222 53.687 49.9222C53.5593 49.9222 52.8785 50.2624 52.1976 50.6663C51.4954 51.0702 50.8783 51.4104 50.8145 51.4104C50.772 51.4104 50.0698 51.708 49.2825 52.0694C48.4952 52.4521 47.2824 53.0048 46.5802 53.3237C45.8781 53.6426 44.8567 54.1103 44.3248 54.3654C43.7929 54.6205 43.1545 55.0244 42.9205 55.3008C42.4523 55.7898 41.8778 57.7031 41.2608 60.7645C41.0693 61.7636 40.7714 63.103 40.5799 63.762C40.282 64.8462 40.3033 65.4415 40.665 65.4415C40.7289 65.4415 41.6651 65.0163 42.729 64.5061ZM56.0063 58.4259C57.4106 57.7244 58.6022 57.1504 58.666 57.1504C58.7298 57.1504 59.6873 56.7252 60.7725 56.215C65.0281 54.2166 67.1133 53.3237 67.4537 53.3237C67.624 53.3237 67.7516 53.1749 67.7516 53.0048C67.7516 52.6647 66.709 52.0482 66.1132 52.0482C65.9217 52.0482 64.9855 51.7718 64.0493 51.4316C60.581 50.1986 56.8361 49.0719 56.1552 49.0719C55.5807 49.0719 55.1552 50.0285 54.3466 53.1111C54.1551 53.8127 53.9636 54.6843 53.1976 58.0007C52.8997 59.3188 52.921 59.7015 53.2615 59.7015C53.3466 59.7015 54.5807 59.1275 56.0063 58.4259ZM220.313 51.2616C220.313 50.7939 218.675 47.3286 217.781 45.8405C216.76 44.1397 214.355 44.4799 214.355 46.3082C214.355 46.5633 214.951 47.1798 215.802 47.8813C216.59 48.4979 217.803 49.6033 218.505 50.3262C219.781 51.6442 220.313 51.9206 220.313 51.2616ZM61.1555 48.5404C61.8832 48.6828 62.113 48.8167 62.0705 48.0302C62.0492 47.6262 61.879 46.9247 61.6662 46.4357C61.4534 45.9467 61.113 45.1602 60.9002 44.6924C60.4746 43.6507 59.4107 42.6941 58.7298 42.6941C58.2405 42.6941 57.3893 43.2043 56.9638 43.757C56.4957 44.3523 55.4105 46.6696 55.4105 47.0735C55.4105 47.4349 55.6212 47.4753 57.317 47.7942M157.118 7.10608C157.118 6.82971 156.118 4.81008 155.225 3.27941C154.735 2.42904 153.969 1.89756 153.054 1.74875C152.437 1.64245 152.182 1.72749 151.607 2.19519C150.629 3.0243 148.969 6.55334 149.565 6.55334C149.756 6.55334 152.033 5.93682 152.182 5.83052C152.501 5.63919 154.714 6.29823 155.544 6.82971C156.48 7.44623 157.118 7.55252 157.118 7.10608Z" fill="rgb(0,0,0)" fill-rule="nonzero" transform="matrix(1,0,0,-1,3.42554,228.074)" />
			<path id="矢量 434" d="M19.3664 42.8435C17.4301 39.8672 16.2386 37.8476 14.7066 34.9351C13.9619 33.4894 13.2384 32.1076 13.1107 31.895C13.0044 31.6824 12.6001 30.8533 12.2384 30.0242C11.8554 29.2163 11.1319 27.6644 10.6212 26.5802C10.1106 25.5172 9.68502 24.5818 9.68502 24.4968C9.68502 24.433 9.42968 23.8165 9.13179 23.1574C8.8339 22.4984 8.40835 21.563 8.19557 21.0953C7.98279 20.6276 7.51468 19.5859 7.15296 18.7993C6.79123 17.9914 6.49335 17.2899 6.49335 17.2261C6.49335 17.1836 6.21673 16.5033 5.85501 15.738C5.51457 14.9939 5.21668 14.3136 5.21668 14.2498C5.21668 14.186 5.06773 13.8459 4.91879 13.4845C4.74857 13.1018 4.25918 11.9538 3.83362 10.8908C2.83356 8.42477 2.47184 7.5744 2.23778 7.12795C2.11012 6.91536 2.02501 6.63899 2.02501 6.49018C2.00373 6.34136 1.83351 5.83114 1.59945 5.36344C1.36539 4.89573 1.19517 4.40677 1.17389 4.27921C1.17389 4.1304 1.02495 3.74773 0.854728 3.42884C0.684505 3.0887 0.535561 2.64225 0.535561 2.42966C0.535561 2.21707 0.386616 1.8344 0.216394 1.55803C-0.03894 1.17536 -0.0602178 0.941511 0.110005 0.473807C0.34406 -0.121452 0.34406 -0.121452 0.727061 0.282474C0.961117 0.495067 1.38667 1.3667 1.70584 2.17455C2.57823 4.42803 3.51445 6.76655 3.83362 7.48936C3.98256 7.85077 4.21662 8.36099 4.32301 8.65862C5.04645 10.3594 5.47201 11.3585 5.64223 11.7412C6.42951 13.4845 6.70612 14.186 6.70612 14.3561C6.70612 14.4624 6.83379 14.8238 7.00401 15.164C7.45085 16.0781 8.2594 17.8851 9.15307 19.926C9.57863 20.9252 10.217 22.3071 10.5574 23.0299C10.8979 23.7314 11.1745 24.3905 11.1745 24.4755C11.1745 24.9857 17.3025 37.1885 18.3451 38.783C18.7919 39.4633 19.2175 40.1861 19.3026 40.3774C19.3877 40.59 19.8345 41.2703 20.2814 41.8656C21.8134 43.9277 22.0474 44.7994 21.1112 44.7994C20.7708 44.7781 20.3239 44.2891 19.3664 42.8435Z" fill="rgb(0,0,0)" fill-rule="nonzero" transform="matrix(1,0,0,-1,219.161,63.7192)" />
			<path id="矢量 435" d="M4.46833 16.2183C4.29811 16.1545 3.42572 16.0057 2.55333 15.8781C0.829833 15.5805 0 15.1978 0 14.6876C0 14.2624 0.638333 14.0498 0.872388 14.4112C1.10644 14.8152 11.4049 14.8364 14.0433 14.4325C20.0862 13.5184 26.0014 12.3491 29.7889 11.3074C30.3208 11.1586 31.3634 10.8822 32.1294 10.6909C35.2785 9.86176 41.1725 8.03347 42.513 7.45947C42.896 7.28939 43.3002 7.16184 43.4279 7.16184C43.5556 7.16184 43.9599 7.03428 44.3216 6.88547C44.7046 6.71539 45.811 6.29021 46.8111 5.90754C47.8111 5.52488 48.9601 5.09969 49.3644 4.92962C49.7687 4.7808 51.173 4.2068 52.4497 3.67532C53.7476 3.14384 55.0456 2.65487 55.386 2.56984C55.7052 2.50606 56.0243 2.35725 56.0882 2.25095C56.152 2.14465 56.3648 2.05962 56.5563 2.05962C56.7478 2.05962 57.1521 1.93206 57.45 1.78325C57.7478 1.63443 58.5989 1.27302 59.3649 0.996652C60.1309 0.720282 60.9608 0.358875 61.2161 0.188801C61.7481 -0.151348 62.8545 -0.00253284 62.7268 0.401393C62.6843 0.528949 61.8757 1.01791 60.9608 1.48562C59.1309 2.39976 58.1734 2.88873 57.6627 3.14384C57.4925 3.25013 56.8755 3.5265 56.2797 3.76036C55.7052 4.01547 54.8753 4.35562 54.4711 4.52569C54.0668 4.71702 53.5348 4.92962 53.3008 5.01465C53.0667 5.12095 52.2369 5.50362 51.4496 5.86502C50.6623 6.22643 49.8751 6.52406 49.7261 6.52406C49.5772 6.52406 48.5346 6.92799 47.4281 7.39569C46.3217 7.88465 45.1514 8.35236 44.7897 8.45865C44.4492 8.54369 43.5769 8.84132 42.8747 9.07517C42.1725 9.33028 41.3214 9.62791 40.9597 9.71295C40.6192 9.81925 39.6617 10.1381 38.8319 10.4358C38.0234 10.7334 37.1935 10.9885 37.0233 10.9885C36.8531 10.9885 36.4275 11.1373 36.0871 11.3074C35.7679 11.4775 35.3424 11.6263 35.1509 11.6263C34.9806 11.6263 34.2997 11.7751 33.6401 11.9664C32.9805 12.1365 31.9805 12.4341 31.3847 12.5829C29.0441 13.242 22.4055 14.7301 20.4266 15.049C19.6607 15.1553 18.4691 15.3467 17.7669 15.4742C14.8306 15.9419 13.0858 16.0907 9.04305 16.1758C6.70249 16.2395 4.63855 16.2608 4.46833 16.2183Z" fill="rgb(0,0,0)" fill-rule="nonzero" transform="matrix(1,0,0,-1,148.203,67.75)" />
		</g>
	</g>
</svg>
