<svg viewBox="0 0 268 230" xmlns="http://www.w3.org/2000/svg" xmlns:xlink="http://www.w3.org/1999/xlink" width="268.000000" height="230.000000" fill="none">
	<defs>
		<clipPath id="clipPath_15">
			<rect width="265.000000" height="226.000000" x="1.000000" y="2.000000" fill="rgb(255,255,255)" />
		</clipPath>
	</defs>
	<rect id="15" width="268.000000" height="230.000000" x="0.000000" y="0.000000" />
	<g id="15" clip-path="url(#clipPath_15)" customFrame="url(#clipPath_15)">
		<rect id="15" width="265.000000" height="226.000000" x="1.000000" y="2.000000" />
		<path id="矢量 436" d="M64.5812 177.152L65.5387 179.214L61.5385 185.294L57.5595 182.084L54.7509 176.408L45.1333 172.666L42.0693 163.61L41.1118 155.127L2.93949 137.822L1.25854 131.614L10.1314 122.579L31.1325 111.099L35.154 112.141L42.4949 103.765L42.9843 99.109L47.6654 94.2406L45.2397 91.158L45.1333 85.1416L49.3676 79.2528L59.7086 76.8293L80.7098 70.2814L100.902 66.4335L122.584 65.9658L133.84 42.1979L143.82 28.2093L151.969 20.3009L158.735 21.1725L166.651 9.18231L173.545 4.18639L181.12 2.97461L199.589 4.18639L229.42 9.75631L239.995 13.6468L245.655 19.6844L246.421 34.0556L250.315 34.0556L255.485 37.0319L257.89 43.5798L262.486 45.0042L264.422 47.9379L260.762 58.4825L241.251 111.886L238.612 113.161L235.059 160.761L232.995 164.885L223.93 173.24L221.633 180.596L219.1 183.104L216.568 182.148L214.973 180.808L190.758 198.709L160.225 217.629L159.416 221.86L155.991 226.452L151.969 224.156L150.011 218.82L136.904 212.825L134.755 182.424L91.2635 168.095L83.795 172.794L78.8799 171.837L64.5812 177.152Z" fill="rgb(255,255,255)" fill-rule="nonzero" />
		<path id="矢量 437" d="M82.0503 172.985L3.38632 137.822L2.08838 130.594L7.51421 124.493L29.8133 111.418L35.154 112.141L41.0054 105.827L60.8789 90.5203L73.0072 85.8858L89.5613 85.8858L100.562 88.2668L104.094 87.544L113.584 86.4385L123.287 87.0763L131.457 88.7983L134.287 77.1057L131.457 71.0893L125.095 66.4336L122.946 65.9659L133.245 43.4523L143.415 28.4433L151.16 20.3435L159.438 21.1726L166.225 9.69261L171.821 4.18646L182.247 3.16602L212.972 6.41868L236.974 11.8398L243.527 16.6656L246.187 23.1922L245.655 33.9494L251.698 34.6085L257.464 39.3493L257.464 44.1751L262.486 45.0042L264.252 48.6396L241.634 111.418L238.612 113.161L235.506 108.059L227.846 105.742L230.271 99.0453L228.207 94.1344L223.292 88.9684L213.994 87.0763L188.524 90.8604L165.544 99.513L150.905 106.55L145.139 109.356L141.692 115.883L142.99 123.536L111.137 153.894L82.0503 172.985Z" fill="rgb(1,89,188)" fill-rule="nonzero" />
		<g id="组合 87">
			<path id="矢量 438" d="M76.6404 53.6877C77.7256 54.1979 78.5129 54.2617 79.3214 53.8365C80.4279 53.2625 82.5131 53.5388 84.3643 54.4955C84.726 54.6868 85.9388 55.4734 87.0878 56.2388C90.471 58.5135 90.0242 58.3434 91.3221 57.7057C93.5563 56.6002 94.5819 56.294 94.8585 56.1346C95.0074 56.0474 95.4117 55.8986 95.6415 55.7753C95.8415 55.669 96.216 55.5117 96.3373 55.4522C96.5096 55.3693 101.772 53.2199 104.836 51.8806C106.134 51.3066 106.921 50.9877 108.517 50.3499C110.325 49.6271 114.687 47.8414 115.645 47.4374C116.006 47.2886 116.666 47.0122 117.134 46.8422C117.602 46.6508 119.134 46.0556 120.539 45.5241C123.964 44.206 124.645 43.9297 125.603 43.5895C127.582 42.8454 128.22 42.5903 130.284 41.7187C130.731 41.5274 131.22 41.3785 131.412 41.3785C131.582 41.3785 131.986 41.251 132.326 41.0809L132.901 40.762L133.178 35.0645C133.327 31.9394 133.539 28.6442 133.646 27.7726C133.752 26.901 133.944 24.9877 134.05 23.5208C134.561 17.1217 135.242 14.3368 136.646 13.0825C136.986 12.7636 139.178 11.7857 141.072 11.0841C141.816 10.8077 144.646 9.68099 145.859 9.17077C146.221 9.02195 146.859 8.76684 147.306 8.61803C148.327 8.25662 148.519 8.02277 148.625 7.00232C148.689 6.15195 149.264 4.28114 149.881 2.87803C150.349 1.77255 151.2 0.815879 152.157 0.348175C153.136 -0.162047 154.46 -0.0344918 155.115 0.241879C155.311 0.32479 155.519 0.418331 155.732 0.560767C156.194 0.866901 158.019 3.12889 158.209 3.46691C158.288 3.60722 158.49 4.11957 158.605 4.34492C159.136 5.3441 159.562 6.5984 159.69 7.51255C159.839 8.46921 160.349 8.95817 162.137 9.87232C162.669 10.1487 163.392 10.5526 163.732 10.7652C164.094 10.9991 164.52 11.2542 164.69 11.3392C164.86 11.4242 165.413 11.7644 165.882 12.0833C166.371 12.4022 166.839 12.6785 166.903 12.6785C166.988 12.6785 167.69 13.1037 168.477 13.5927C169.839 14.4856 173.222 16.5903 174.01 17.0367C174.201 17.1642 174.967 17.6532 175.712 18.1634C176.457 18.6524 177.095 19.0563 177.159 19.0563C177.201 19.0563 179.563 20.6082 182.393 22.5216C187.925 26.242 189.181 27.0923 192.415 29.3883C193.543 30.1962 195.053 31.2379 195.734 31.7268C196.415 32.1945 197.266 32.7898 197.585 33.0449C198.288 33.5764 200.777 35.4685 201.905 36.3188C202.33 36.6377 202.905 37.0629 203.203 37.2755C203.501 37.4668 204.416 38.1897 205.224 38.8274C206.054 39.4865 207.863 40.8896 209.267 41.9525C210.671 43.0155 212.182 44.2273 212.65 44.6525C213.097 45.0777 213.586 45.4178 213.714 45.4178C213.863 45.4178 214.182 45.1202 214.459 44.7588C215.203 43.7596 216.14 43.2919 217.395 43.2919C218.416 43.2919 218.565 43.3557 219.523 44.3123C220.076 44.8651 220.757 45.7579 221.012 46.2682C221.906 48.0752 223.417 52.4546 223.417 53.22C223.417 53.4325 223.97 54.0703 224.651 54.6443C226.544 56.2175 232.992 62.4465 232.992 62.6803C232.992 62.8079 233.268 63.3606 233.609 63.8921C233.928 64.4448 234.268 65.2314 234.332 65.6141C234.396 66.018 234.545 66.7834 234.651 67.3148C235.141 69.5045 235.758 74.8619 236.183 80.4956C236.29 81.9625 236.439 83.4506 236.502 83.7908C236.673 84.6411 237.226 91.9543 237.46 96.7589C237.566 98.8636 237.758 102.159 237.886 104.093C238.013 106.028 238.098 108.898 238.077 110.471C238.034 112.066 238.098 113.469 238.183 113.618C238.269 113.766 238.545 113.873 238.8 113.873C239.609 113.873 240.779 115.191 241.694 117.125C242.184 118.124 242.567 119.06 242.567 119.187C242.567 119.336 242.694 119.74 242.865 120.102C243.12 120.739 243.375 121.335 244.141 123.397C244.311 123.822 244.716 124.842 245.014 125.65C245.333 126.458 245.716 127.521 245.865 127.989C246.163 128.903 246.929 131.05 247.673 133.006C247.929 133.644 248.354 134.898 248.652 135.77C248.929 136.641 249.248 137.555 249.354 137.789C249.439 138.023 249.737 138.831 250.014 139.596C250.269 140.362 250.822 141.892 251.227 142.998C251.631 144.103 252.035 145.358 252.12 145.783C252.205 146.187 252.376 146.676 252.482 146.846C252.695 147.186 252.993 147.972 253.716 150.12C253.993 150.949 254.44 152.097 254.695 152.671C255.248 153.946 255.716 155.201 255.972 156.072C256.078 156.434 256.291 157.093 256.482 157.56C257.036 159.006 258.057 161.77 258.312 162.556C258.461 162.96 258.695 163.577 258.865 163.896C259.036 164.236 259.163 164.597 259.163 164.725C259.163 164.831 259.291 165.235 259.44 165.596C259.61 165.979 259.844 166.617 259.993 167.021C260.142 167.425 260.546 168.53 260.887 169.466C261.249 170.401 261.61 171.464 261.717 171.804C261.887 172.421 262.738 174.908 263.227 176.269C263.93 178.224 264.1 179.224 263.844 180.074C263.376 181.647 261.249 183.284 258.844 183.964L257.376 184.368L257.355 185.75C257.333 187.493 256.61 188.897 254.78 190.704C252.525 192.957 249.078 194.594 246.992 194.403C246.439 194.339 245.907 194.381 245.801 194.488C245.673 194.615 245.758 195.402 246.014 196.507C246.418 198.399 246.397 201.227 245.95 202.779C245.843 203.162 245.758 203.821 245.758 204.224C245.758 205.075 244.673 208.583 244.099 209.624C243.503 210.709 241.481 212.707 240.013 213.664C238.673 214.535 235.524 216.13 235.119 216.13C235.013 216.13 234.609 216.257 234.226 216.427C233.013 216.916 229.8 217.809 227.14 218.341C226.204 218.532 224.821 218.83 224.055 219C223.289 219.148 221.906 219.446 220.97 219.637C220.033 219.808 218.608 220.105 217.778 220.275C215.629 220.722 213.374 221.147 211.182 221.53C210.139 221.721 208.692 221.976 207.99 222.104C205.969 222.486 203.096 222.911 200.437 223.252C194.287 223.996 192.032 224.229 189.053 224.421C187.308 224.527 184.904 224.718 183.734 224.825C180.861 225.122 177.329 225.059 175.01 224.697C172.839 224.336 169.946 223.23 168.52 222.189C167.414 221.381 164.945 218.83 164.094 217.639C163.775 217.193 163.073 216.172 162.52 215.407C161.945 214.62 161.498 213.94 161.498 213.897C161.498 213.855 161.222 213.408 160.881 212.898C160.541 212.388 160.094 211.644 159.86 211.24C159.647 210.836 159.222 210.113 158.924 209.646C158.647 209.178 158.222 208.434 157.987 207.966C157.753 207.52 157.434 207.094 157.264 207.031C157.115 206.967 156.392 207.137 155.647 207.371C153.923 207.966 151.093 208.009 149.859 207.477C147.944 206.606 146.774 205.543 143.54 201.78C140.093 197.74 138.944 196.295 137.157 193.68C135.561 191.363 132.007 185.601 130.56 182.965C129.667 181.371 125.752 173.484 125.752 173.314C125.752 173.25 125.475 172.591 125.135 171.868C124.135 169.636 122.624 165.937 122.028 164.257C121.262 162.025 121.262 162.025 120.432 162.322C120.049 162.45 118.666 162.556 117.368 162.556C114.73 162.556 103.495 161.834 100.665 161.493C93.2392 160.579 86.8984 159.623 84.3664 159.049C83.6642 158.878 82.3663 158.602 81.4939 158.411C79.2384 157.922 77.2809 157.454 76.1744 157.135C75.6425 156.965 74.685 156.71 74.0467 156.519C71.5572 155.838 69.5358 155.243 67.7697 154.69C67.3016 154.542 66.642 154.329 66.2803 154.244C65.9398 154.159 64.6844 153.734 63.5142 153.309C62.3439 152.883 61.1098 152.458 60.7481 152.352C60.4076 152.267 59.7693 152.054 59.365 151.905C58.9607 151.778 58.2798 151.544 57.8755 151.395C57.4713 151.246 56.5563 150.97 55.8542 150.757C55.152 150.566 54.3434 150.311 54.0456 150.183C53.7689 150.077 52.854 149.907 52.0242 149.822C48.4069 149.397 45.4068 147.398 43.9173 144.401C43.2364 143.019 43.1301 142.551 42.9598 140.447C42.7045 137.258 43.1301 135.6 44.7046 133.665L45.3004 132.942L44.4067 132.007C43.4067 130.965 42.0449 128.988 41.747 128.138C41.6406 127.84 41.4278 127.245 41.2789 126.841C41.1299 126.437 40.8746 125.438 40.7257 124.609C40.4491 123.227 40.3427 123.078 39.3001 122.185C37.0021 120.187 35.1934 118.337 34.47 117.189C33.6614 115.914 33.2997 115.786 32.4061 116.381C31.6188 116.87 29.1293 116.87 27.8526 116.339C26.1504 115.658 22.9162 114.043 20.7033 112.767C19.4904 112.087 18.4691 111.534 18.4053 111.534C18.3627 111.534 17.9584 111.279 17.5116 110.981C17.0648 110.684 16.5116 110.344 16.2775 110.237C15.7881 110.025 15.3838 109.77 14.1923 108.94C13.7242 108.6 13.2561 108.345 13.1709 108.345C12.9582 108.345 11.2985 107.24 9.74522 106.07C9.08561 105.56 8.46855 105.156 8.40472 105.156C8.2345 105.156 6.63867 103.945 6.27694 103.562C6.17055 103.434 5.5535 102.945 4.93644 102.478C3.68106 101.564 1.44689 98.9911 0.5745 97.4605C0.0851111 96.6314 0 96.2274 0 94.8456C0 91.9756 1.40433 88.5528 2.82994 87.9363C3.08528 87.8088 3.447 87.6387 3.61722 87.5324C3.78744 87.4261 5.12794 86.8308 6.59611 86.2356C8.06428 85.6191 9.34094 85.0451 9.46861 84.9388C9.575 84.8325 9.78778 84.7474 9.91544 84.7474C10.0644 84.7474 11.107 84.3222 12.2134 83.7908C13.3412 83.2593 14.3412 82.8341 14.4689 82.8341C14.5753 82.8341 15.0221 82.6428 15.4689 82.4302C15.9158 82.1963 16.852 81.7711 17.5542 81.4522C18.2563 81.1334 19.4053 80.6019 20.1075 80.2617C20.8097 79.9216 21.4906 79.6452 21.6395 79.6452C21.7672 79.6452 22.5332 79.3263 23.3204 78.9224C24.129 78.5185 25.3631 77.9232 26.0653 77.6256C26.7674 77.3067 27.6398 76.924 27.9803 76.7752C28.342 76.6051 29.1506 76.2437 29.7889 75.9674C31.4486 75.2233 33.0231 74.5005 35.1083 73.5438C36.1084 73.0761 37.3638 72.5234 37.917 72.2895C39.1511 71.8005 39.2788 71.4817 39.449 68.7392C39.5341 67.5912 39.6831 66.2519 39.7894 65.7629C39.9171 65.274 40.1512 64.0197 40.3427 62.9567C41.0448 58.9174 41.2363 58.1096 41.9811 55.9837C42.4066 54.7719 44.0024 52.8585 44.5982 52.8585C44.7259 52.8585 45.4706 52.5609 46.194 52.1995C46.9388 51.8381 47.8537 51.4342 48.1942 51.2641C48.5559 51.1153 49.7474 50.5625 50.8539 50.0311C51.9603 49.4996 53.1944 49.0106 53.5562 48.9256C54.4073 48.7555 54.8967 48.1177 54.8967 47.1823C54.8967 46.8209 54.9818 46.4595 55.0882 46.3957C55.1945 46.332 55.3435 45.928 55.4286 45.4816C55.6201 44.4611 56.7904 42.6328 57.7266 41.9313C58.3437 41.4636 58.6628 41.3785 59.9182 41.3785C61.1098 41.3998 61.4928 41.4848 61.9396 41.8675C62.6843 42.484 63.8333 44.121 63.8333 44.5462C63.8333 44.7375 63.961 45.1202 64.1099 45.4178C64.3653 45.9068 64.8121 47.8414 64.9398 49.0106C65.0036 49.4358 65.2802 49.6059 66.8122 50.1374M189.689 222.741C190.753 222.614 193.136 222.359 195.009 222.189C198.179 221.87 199.796 221.657 203.839 220.998C204.711 220.87 205.924 220.679 206.499 220.594C207.094 220.509 208.18 220.339 208.946 220.19C209.712 220.041 211.095 219.786 212.031 219.595C212.967 219.425 214.35 219.148 215.116 219C218.436 218.319 220.861 217.852 223.351 217.384C223.968 217.278 224.712 217.086 225.01 216.98C225.33 216.852 225.819 216.767 226.117 216.767C226.436 216.767 227.159 216.64 227.755 216.47C228.351 216.3 229.457 216.002 230.223 215.811C232.117 215.343 234.16 214.684 235.436 214.11C236.032 213.855 236.692 213.579 236.905 213.494C237.713 213.217 240.181 211.431 241.181 210.411C242.671 208.88 243.841 206.265 243.841 204.501C243.841 204.139 243.99 203.098 244.182 202.205C244.522 200.589 244.501 198.166 244.139 195.721C243.969 194.509 243.735 194.233 242.905 194.233C241.288 194.233 238.543 191.448 234.968 186.197C234.202 185.07 233.309 183.794 232.99 183.39C232.692 182.986 232.351 182.498 232.266 182.327C232.117 181.987 231.883 181.583 231.053 180.308C230.755 179.84 230.457 179.309 230.372 179.139C230.287 178.968 230.138 178.671 230.011 178.501C228.564 176.332 223.712 167.127 222.053 163.407C221.712 162.641 221.202 161.557 220.925 160.962C220.648 160.388 220.031 158.985 219.563 157.879C218.712 155.86 218.499 155.349 217.989 154.159C217.84 153.819 217.563 153.096 217.35 152.564C216.946 151.502 216.627 150.694 216.138 149.588C215.967 149.184 215.712 148.504 215.563 148.1C215.414 147.696 215.01 146.591 214.669 145.655C214.308 144.72 213.946 143.678 213.84 143.317C213.733 142.977 213.52 142.296 213.35 141.829L213.031 140.978L210.244 140.936C208.69 140.936 206.52 140.766 205.371 140.574C204.243 140.404 202.541 140.149 201.605 140.021C198.051 139.511 197.477 139.426 196.477 139.214C195.902 139.086 194.668 138.831 193.732 138.64C188.498 137.577 185.391 136.811 183.348 136.067C182.923 135.897 182.327 135.77 182.072 135.77C181.795 135.77 181.497 135.685 181.37 135.578C181.263 135.451 180.795 135.281 180.327 135.153C179.859 135.047 178.944 134.749 178.306 134.494C177.667 134.239 176.944 133.984 176.71 133.92C176.327 133.814 173.646 132.836 172.454 132.347C172.22 132.262 171.497 131.964 170.858 131.709C170.22 131.475 169.412 131.135 169.05 130.965C168.709 130.816 167.837 130.434 167.135 130.136C165.603 129.456 163.284 128.308 162.624 127.904C162.22 127.627 161.986 127.67 160.815 128.095C160.071 128.35 159.198 128.648 158.836 128.754C158.496 128.839 157.687 129.137 157.049 129.371C156.411 129.604 155.028 130.051 153.964 130.37C152.9 130.689 151.942 130.986 151.815 131.071C151.708 131.156 151.028 131.39 150.325 131.603C149.623 131.815 148.772 132.113 148.453 132.283C148.112 132.453 147.729 132.581 147.559 132.581C147.176 132.581 144.665 133.665 138.665 136.386C137.857 136.748 137.154 137.045 137.091 137.045C137.005 137.045 136.239 137.322 135.346 137.662C134.452 138.002 133.112 138.406 132.388 138.555C130.856 138.852 130.643 139.129 131.112 140.107C131.431 140.766 131.835 141.765 132.324 143.21C132.473 143.614 132.835 144.677 133.133 145.549C133.707 147.207 133.878 149.482 133.516 150.715C133.367 151.31 133.601 152.139 134.388 153.691C134.559 154.031 134.686 154.435 134.686 154.627C134.686 154.797 134.814 155.201 134.984 155.498C135.154 155.817 135.452 156.561 135.644 157.135C135.856 157.73 136.282 158.793 136.622 159.538C136.963 160.282 137.24 160.983 137.24 161.089C137.24 161.196 137.516 161.876 137.857 162.599C138.176 163.343 138.92 165.044 139.495 166.383C140.048 167.722 141.133 169.87 141.899 171.124C143.814 174.27 143.985 174.632 144.219 175.843C144.431 176.906 144.708 177.842 145.219 179.032C145.368 179.394 145.708 180.202 145.963 180.839C146.219 181.477 146.517 182.094 146.623 182.2C146.729 182.327 146.815 182.625 146.815 182.88C146.815 183.135 146.963 183.454 147.134 183.603C147.304 183.752 147.453 183.964 147.453 184.071C147.453 184.262 150.219 189.96 151.411 192.213C151.708 192.808 152.049 193.425 152.155 193.616C152.347 194.041 154.772 198.676 156.177 201.354C156.73 202.417 157.39 203.608 157.624 204.012C157.879 204.416 158.156 204.905 158.219 205.075C158.602 205.904 163.198 213.43 164.135 214.748C167.135 218.936 169.475 221.189 171.71 222.04C172.88 222.465 174.305 222.89 175.008 222.996C176.135 223.188 187.71 222.975 189.689 222.741ZM155.815 205.734C156.432 205.5 156.56 204.947 156.092 204.565C155.709 204.267 153.262 199.76 150.325 193.914C149.666 192.638 149.049 191.426 148.942 191.256C148.73 190.937 145.751 184.687 145.24 183.497C145.091 183.157 144.708 182.327 144.41 181.69C143.602 179.904 142.346 176.162 142.346 175.482C142.346 175.121 141.984 174.398 141.389 173.59C140.857 172.867 140.431 172.208 140.431 172.102C140.431 171.995 140.048 171.209 139.559 170.38C139.091 169.551 138.176 167.616 137.516 166.085C136.878 164.576 136.261 163.173 136.176 163.003C135.686 162.046 134.431 158.793 133.835 156.923C132.75 153.457 132.516 153.202 131.899 154.797C131.069 156.965 129.069 159.155 126.813 160.324C125.26 161.132 124.984 161.238 124.111 161.387C123.622 161.451 123.175 161.663 123.111 161.812C123.047 161.982 123.281 162.748 123.643 163.513C123.983 164.278 124.409 165.363 124.601 165.915C125.026 167.148 126.218 170.04 127.133 172.017C127.516 172.846 128.218 174.376 128.707 175.418C129.197 176.481 129.75 177.629 129.941 177.969C131.643 181.222 133.154 183.964 133.835 185.091C133.941 185.261 134.622 186.409 135.346 187.621C136.835 190.172 138.708 192.936 140.006 194.594C140.304 194.955 140.878 195.721 141.282 196.295C143.836 199.824 148.815 205.266 149.496 205.287C149.623 205.287 149.857 205.415 150.006 205.585C150.134 205.755 150.453 205.946 150.708 206.01C151.453 206.18 155.177 205.968 155.815 205.734ZM250.161 191.767C254.182 189.896 256.097 187.047 255.544 183.752C255.374 182.668 254.565 180.308 253.735 178.394C253.565 178.054 253.246 177.161 252.969 176.417C252.714 175.695 252.416 175.036 252.331 174.972C252.225 174.908 252.14 174.695 252.14 174.462C252.14 174.249 251.863 173.505 251.501 172.803C251.161 172.08 250.863 171.379 250.863 171.209C250.863 171.06 250.714 170.741 250.544 170.507C250.373 170.295 250.225 169.976 250.225 169.827C250.225 169.657 249.948 168.913 249.586 168.148C249.246 167.403 248.948 166.638 248.948 166.489C248.948 166.319 248.863 166.149 248.756 166.085C248.65 166.022 248.352 165.405 248.097 164.746C247.841 164.066 247.203 162.62 246.692 161.536C246.182 160.452 245.756 159.516 245.756 159.452C245.756 159.41 245.458 158.73 245.097 157.943C244.756 157.135 244.331 156.179 244.16 155.796C243.99 155.413 243.714 154.775 243.522 154.372C243.352 153.968 243.075 153.309 242.905 152.947C242.182 151.246 240.671 147.994 238.692 143.848C238.011 142.381 237.139 140.574 236.798 139.809C235.394 136.833 234.883 135.748 233.138 132.156C232.138 130.115 231.266 128.201 231.181 127.904C230.777 126.586 228.479 122.164 228.181 122.164C227.691 122.164 227.606 122.716 227.968 123.376C229.308 125.799 229.755 128.116 229.266 130.008C228.904 131.433 228.585 132.219 227.989 133.112C227.33 134.154 224.67 136.684 223.415 137.492C221.457 138.746 218.436 139.936 216.414 140.234C215.669 140.34 214.946 140.532 214.84 140.638C214.669 140.808 214.776 141.233 215.159 142.084C216.201 144.422 216.393 144.932 216.393 145.294C216.393 145.485 216.542 145.847 216.712 146.059C216.882 146.293 217.031 146.633 217.031 146.803C217.031 146.995 217.159 147.398 217.329 147.717C217.499 148.036 217.691 148.568 217.776 148.929C217.861 149.291 218.01 149.631 218.116 149.694C218.223 149.78 218.308 150.035 218.308 150.29C218.308 150.545 218.457 150.949 218.627 151.161C218.797 151.395 218.946 151.714 218.946 151.863C218.946 152.012 219.223 152.735 219.563 153.457C219.882 154.201 220.372 155.328 220.648 155.966C220.904 156.604 221.5 157.922 221.946 158.9C222.414 159.878 222.776 160.707 222.776 160.771C222.776 160.919 224.032 163.662 224.925 165.426C227.564 170.656 228.649 172.74 229.138 173.505C229.436 173.973 229.904 174.78 230.181 175.312C231.053 176.864 231.287 177.31 231.67 177.884C231.862 178.203 232.436 179.096 232.947 179.904C234.734 182.795 235.224 183.518 236.288 184.985C236.883 185.814 237.586 186.834 237.841 187.26C238.117 187.685 238.394 188.067 238.479 188.11C238.564 188.152 239.181 188.875 239.884 189.726C241.416 191.618 242.458 192.468 243.416 192.596C243.82 192.659 245.139 192.659 246.331 192.617C248.288 192.553 248.671 192.468 250.161 191.767ZM259.523 181.881C260.161 181.668 261.651 180.265 262.098 179.415C262.268 179.096 262.204 178.671 261.8 177.523C261.502 176.715 261.183 175.758 261.097 175.397C260.991 175.014 260.842 174.61 260.757 174.462C260.672 174.313 260.523 173.909 260.417 173.526C260.331 173.165 260.055 172.336 259.821 171.698C258.693 168.551 257.672 165.745 257.246 164.682C256.991 164.044 256.714 163.279 256.608 162.982C256.501 162.684 256.225 161.919 255.97 161.281C255.714 160.643 255.395 159.729 255.225 159.261C255.076 158.793 254.65 157.603 254.267 156.604C253.906 155.605 253.523 154.52 253.395 154.159C253.289 153.819 253.118 153.33 253.033 153.096C252.31 151.459 252.14 151.034 252.14 150.842C252.14 150.715 252.012 150.311 251.842 149.95C251.671 149.567 251.352 148.695 251.097 147.994C250.863 147.292 250.373 145.91 250.012 144.911C249.629 143.912 249.203 142.679 249.033 142.147C248.863 141.616 248.65 140.999 248.544 140.766C248.416 140.532 248.118 139.681 247.863 138.852C247.607 138.044 247.309 137.279 247.203 137.173C247.118 137.045 247.033 136.79 247.033 136.577C247.033 136.216 246.65 135.196 246.054 134.005C245.884 133.665 245.756 133.197 245.756 132.963C245.756 132.73 245.629 132.283 245.458 131.986C245.288 131.667 244.926 130.795 244.671 130.03C244.16 128.542 243.905 127.819 243.203 125.99C242.948 125.353 242.692 124.63 242.628 124.396C242.543 123.992 241.586 121.568 240.947 120.08C240.777 119.698 240.65 119.294 240.65 119.166C240.65 119.039 240.522 118.635 240.352 118.273C240.181 117.891 239.99 117.444 239.926 117.274C239.543 116.296 238.628 115.382 238.032 115.361C237.777 115.361 237.543 115.637 237.33 116.169C236.798 117.529 236.096 118.847 235.649 119.315C234.394 120.591 232.075 121.739 230.713 121.739C229.777 121.739 229.691 122.015 230.372 123.057C231.011 124.056 231.734 125.374 232.458 126.841C233.947 129.796 238.352 138.831 238.841 139.915C239.16 140.617 239.82 142.062 240.33 143.104C243.033 148.78 244.48 151.905 244.48 152.097C244.48 152.161 244.777 152.862 245.139 153.627C246.182 155.817 246.522 156.582 247.352 158.517C247.778 159.516 248.288 160.707 248.501 161.174C248.714 161.642 249.139 162.556 249.437 163.194C250.012 164.491 251.693 168.445 253.14 172.017C253.65 173.314 254.203 174.653 254.374 174.993C254.65 175.673 255.161 176.97 255.693 178.394C255.863 178.862 256.14 179.564 256.31 179.946C256.48 180.329 256.608 180.797 256.608 180.988C256.608 181.179 256.821 181.562 257.076 181.838C257.565 182.37 257.927 182.37 259.523 181.881ZM120.217 160.622C121.217 160.515 122.6 160.175 123.324 159.878C124.026 159.601 124.728 159.367 124.877 159.367C125.026 159.367 125.579 159.091 126.111 158.73C126.622 158.39 127.111 158.092 127.175 158.092C127.239 158.092 127.792 157.603 128.409 157.008C129.175 156.285 129.835 155.328 130.409 154.159C131.495 151.99 132.261 149.418 131.92 149.078C131.792 148.95 130.516 148.738 129.09 148.589C126.579 148.334 124.026 147.994 121.388 147.505C120.685 147.377 119.153 147.122 117.983 146.931C114.728 146.421 108.706 145.336 107.876 145.124C107.472 145.017 106.557 144.826 105.855 144.699C105.153 144.592 103.855 144.337 102.982 144.167C102.11 143.997 100.663 143.721 99.7906 143.551C97.8969 143.189 95.7266 142.7 94.684 142.381C94.2797 142.254 93.6839 142.147 93.3435 142.147C93.0243 142.147 92.4498 141.999 92.0881 141.807C91.471 141.488 91.2795 141.488 89.9178 141.786C85.5771 142.743 79.5768 143.04 75.1084 142.488C71.4699 142.062 67.3208 141.191 66.342 140.638C66.1292 140.532 65.8739 140.447 65.7462 140.447C65.6185 140.447 64.7887 140.107 63.9163 139.703C63.0439 139.299 62.2779 138.959 62.2354 138.959C62.1715 138.959 61.7673 138.746 61.3204 138.47C60.8949 138.193 59.8735 137.598 59.0437 137.152C58.2352 136.726 57.1925 136.089 56.7457 135.748L55.9159 135.174L55.0435 135.557C54.5541 135.77 53.6179 136.195 52.9795 136.514C52.3412 136.833 51.5327 137.194 51.1709 137.343C50.8305 137.492 50.1922 137.768 49.7879 137.959C49.3836 138.129 48.7027 138.427 48.2984 138.597C47.8942 138.788 46.8941 139.214 46.0855 139.575L44.6387 140.234L44.7238 141.361C44.9365 143.721 46.7877 146.208 49.1708 147.313C49.8092 147.611 51.4263 148.036 52.7668 148.291C54.9584 148.695 57.4904 149.376 59.5757 150.12C59.9799 150.268 60.6608 150.481 61.0651 150.63C61.4694 150.757 63.1929 151.331 64.8951 151.905C68.1932 152.99 71.7891 154.116 73.5126 154.584C75.4702 155.116 78.5341 155.902 80.5343 156.391C81.5556 156.646 81.9173 156.731 84.4706 157.242C86.5771 157.667 89.1518 158.134 89.8539 158.198C90.2369 158.241 90.8753 158.368 91.2795 158.496C91.6838 158.623 92.5349 158.73 93.152 158.73C93.769 158.73 94.4712 158.836 94.684 158.942C94.918 159.07 95.684 159.219 96.4288 159.261C97.1735 159.325 98.9608 159.516 100.429 159.686C105.387 160.26 108.621 160.494 113.089 160.643C115.557 160.707 117.749 160.792 117.983 160.813C118.217 160.834 119.239 160.749 120.217 160.622ZM131.75 147.25C131.58 145.783 130.26 143.933 128.835 143.189C127.899 142.7 124.218 141.658 122.558 141.403C122.026 141.318 121.43 141.17 121.239 141.063C121.005 140.936 119.43 140.957 117.132 141.127C111.43 141.531 101.876 140.893 98.6842 139.894C97.8756 139.639 97.5778 139.639 97.1948 139.83C96.9182 139.979 96.2373 140.192 95.6415 140.319C93.7903 140.744 94.301 141.51 96.4288 141.51C96.7692 141.51 97.6416 141.637 98.365 141.807C100.131 142.211 102.45 142.679 104.791 143.104C105.855 143.295 107.195 143.529 107.77 143.636C110.578 144.167 116.387 145.188 119.26 145.634C120.43 145.825 122.196 146.123 123.196 146.293C124.856 146.569 126.664 146.867 129.154 147.228C129.686 147.313 130.303 147.484 130.537 147.632C131.239 148.036 131.814 147.866 131.75 147.25ZM130.218 141.765C130.218 141.552 130.111 141.276 129.984 141.148C129.856 141.021 129.686 140.596 129.601 140.192L129.452 139.49L128.005 139.554C126.324 139.639 125.537 139.873 125.537 140.319C125.537 140.659 125.813 140.766 127.133 140.978C127.601 141.042 128.367 141.34 128.835 141.616C129.877 142.232 130.218 142.254 130.218 141.765ZM86.875 140.553C87.5559 140.383 88.5134 140.234 89.0028 140.234C89.4922 140.234 90.2795 140.128 90.7476 140C91.2157 139.873 92.0243 139.681 92.5349 139.575C93.0669 139.469 93.7903 139.277 94.1308 139.171C99.0247 137.577 99.8758 137.237 105.004 134.813C106.068 134.324 107.727 133.516 108.727 133.048C109.727 132.602 111.259 131.858 112.153 131.433C113.025 131.008 113.813 130.667 113.877 130.667C113.94 130.667 114.557 130.412 115.238 130.093C117.536 129.052 125.409 126.416 129.686 125.246C130.388 125.055 131.388 124.757 131.92 124.609C132.452 124.46 133.793 124.268 134.899 124.205C137.133 124.056 139.431 123.801 142.665 123.333C149.41 122.334 149.921 122.291 150.091 122.568C150.602 123.397 141.878 125.331 136.176 125.65C133.92 125.778 132.899 125.99 129.686 126.968C129.111 127.138 128.239 127.372 127.771 127.5C127.303 127.606 126.239 127.946 125.388 128.223C124.558 128.52 123.749 128.754 123.622 128.754C123.473 128.754 123.069 128.882 122.707 129.052C122.324 129.222 121.409 129.562 120.643 129.838C117.494 130.901 116.558 131.284 115.706 131.73C115.494 131.858 115.238 131.943 115.132 131.943C114.919 131.943 113.217 132.73 107.514 135.493C105.727 136.344 104.195 137.045 104.089 137.045C103.706 137.045 100.642 138.448 100.599 138.64C100.557 138.767 101.344 138.916 102.45 138.98C103.514 139.065 105.663 139.235 107.238 139.362C110.791 139.66 115.387 139.66 118.196 139.362C119.366 139.235 121.132 139.065 122.132 138.959C124.218 138.767 126.707 138.321 129.218 137.662C130.175 137.407 131.346 137.13 131.835 137.045C132.303 136.939 133.261 136.62 133.941 136.322C134.601 136.025 135.282 135.77 135.431 135.77C135.665 135.77 136.729 135.344 139.112 134.26C139.601 134.048 140.41 133.665 140.921 133.452C141.41 133.24 142.346 132.815 142.985 132.517C144.559 131.815 146.58 131.029 148.517 130.37C150.113 129.838 150.964 129.562 152.347 129.073C152.751 128.924 153.666 128.648 154.368 128.435C155.07 128.223 156.028 127.946 156.496 127.797C156.964 127.649 157.9 127.372 158.581 127.181C159.922 126.777 160.092 126.522 159.219 126.182C158.07 125.735 150.325 121.866 149.964 121.568C149.772 121.42 149.304 121.186 148.9 121.101C145.559 120.25 142.431 117.891 141.112 115.233C139.857 112.703 139.686 111.896 139.708 108.664C139.708 106.177 139.772 105.603 140.091 105.114C140.623 104.306 140.452 104.03 139.218 103.583C136.559 102.648 132.686 100.118 130.303 97.8219C128.026 95.5684 124.558 92.2945 122.366 90.2748C121.026 89.0418 119.579 87.7025 119.153 87.2985C118.707 86.8946 117.664 85.9805 116.813 85.2789C115.983 84.5774 114.983 83.7482 114.621 83.4081C113.323 82.3026 112.345 82.4727 112.345 83.812C112.345 84.3648 112.11 84.7474 111.238 85.6616C109.812 87.1285 109.068 87.5111 105.323 88.7654C103.238 89.4457 102.323 89.7859 96.067 92.0819C94.8968 92.5071 93.7052 92.9323 93.4073 93.0385C93.1094 93.1448 92.3434 93.4212 91.7051 93.6763C91.0668 93.9314 90.2582 94.2078 89.8965 94.3141C89.556 94.4204 88.7262 94.6968 88.0879 94.9519C87.4495 95.207 86.5771 95.5046 86.1729 95.6322C85.7686 95.7385 85.343 95.9298 85.2154 96.0361C85.109 96.1424 84.8749 96.2274 84.6834 96.2274C84.5132 96.2274 84.0877 96.3762 83.7472 96.5463C83.428 96.7164 82.9812 96.8652 82.7897 96.8652C82.5769 96.8652 82.2365 97.014 82.0024 97.1841C81.7896 97.3542 81.4067 97.503 81.1513 97.503C80.9173 97.503 80.5343 97.6518 80.3002 97.8219C80.0874 97.992 79.7044 98.1408 79.4491 98.1408C79.215 98.1408 78.832 98.2896 78.598 98.4597C78.3852 98.6297 78.0235 98.7785 77.832 98.7785C77.4703 98.7785 76.3638 99.2037 75.2786 99.7565C74.9808 99.9265 74.5552 100.054 74.3637 100.054C74.1722 100.054 73.7467 100.182 73.4488 100.352C72.7891 100.692 72.0444 100.99 68.9379 102.095C67.7038 102.52 66.6186 102.967 66.4909 103.073C66.3845 103.158 66.1079 103.243 65.8951 103.243C65.6824 103.243 65.2355 103.371 64.9377 103.541C64.6185 103.711 63.9376 104.008 63.4057 104.2C62.8737 104.391 62.129 104.689 61.746 104.859C61.363 105.029 60.9587 105.156 60.831 105.156C60.7034 105.156 60.2991 105.284 59.9374 105.454C59.5544 105.603 58.8309 105.9 58.299 106.113C57.767 106.304 57.0649 106.602 56.7032 106.751C56.3627 106.9 55.4478 107.24 54.6818 107.516C53.9158 107.771 53.2136 108.069 53.1072 108.175C52.9795 108.26 52.7455 108.345 52.5753 108.345C52.3838 108.345 51.5752 108.622 50.7454 108.962C49.9368 109.302 48.724 109.791 48.0857 110.046C47.4473 110.28 46.7239 110.577 46.4898 110.662C46.2558 110.769 45.6813 110.981 45.2132 111.173C44.745 111.343 43.5109 111.853 42.447 112.278C39 113.724 36.5105 114.702 35.9148 114.829C34.9573 115.063 34.9998 115.552 36.1063 116.721C36.6595 117.317 37.1914 117.848 37.2553 117.912C37.3404 117.976 38.5745 119.124 40.0214 120.484C42.7024 122.993 44.8727 124.885 46.5962 126.203C47.1282 126.607 47.7452 127.096 47.9793 127.308C48.7665 127.989 51.8093 130.349 52.6604 130.923C53.1285 131.241 54.1924 131.986 55.0009 132.56C58.7884 135.259 64.7249 138.427 67.5548 139.277C68.257 139.49 69.0443 139.724 69.2996 139.83C69.5762 139.936 71.0018 140.17 72.4913 140.362C74.002 140.553 75.2574 140.744 75.2999 140.787C75.3425 140.829 77.7043 140.872 80.5343 140.872C84.4068 140.872 85.9601 140.787 86.875 140.553ZM214.265 138.98C215.755 138.767 218.138 138.129 218.393 137.874C218.521 137.768 218.755 137.683 218.967 137.683C219.457 137.683 222.329 136.174 223.606 135.238C223.755 135.132 224.457 134.452 225.159 133.75C226.415 132.496 227.883 129.902 227.883 128.967C227.883 128.478 227.287 128.116 226.457 128.116C225.861 128.116 224.372 127.819 221.074 127.032C217.946 126.267 217.499 126.139 211.712 124.396C211.18 124.226 208.988 123.482 206.818 122.738C204.648 121.994 201.839 121.016 200.541 120.591C199.264 120.165 198.009 119.719 197.775 119.613C197.243 119.358 195.562 118.762 195.009 118.635C194.775 118.571 194.392 118.422 194.158 118.337C193.924 118.231 192.817 117.806 191.711 117.38C190.604 116.955 189.37 116.488 188.987 116.317C188.604 116.147 188.157 115.999 188.008 115.999C187.838 115.999 187.072 115.722 186.285 115.361C185.498 115.021 184.774 114.723 184.646 114.723C184.412 114.723 179.05 112.618 177.518 111.938C177.029 111.704 176.54 111.534 176.412 111.534C176.306 111.534 175.944 111.407 175.603 111.236C174.646 110.748 173.476 110.259 173.242 110.259C173.114 110.259 172.752 110.131 172.412 109.961C171.667 109.578 170.603 109.132 169.369 108.664C168.837 108.452 168.135 108.175 167.773 108.026C167.433 107.878 166.667 107.601 166.071 107.389C165.496 107.176 164.73 106.9 164.369 106.751C162.688 106.028 160.688 105.709 158.092 105.688C155.517 105.688 154.389 105.858 150.857 106.751C147.793 107.537 144.304 108.345 143.942 108.345C143.346 108.345 141.41 109.111 141.325 109.387C141.197 109.77 141.963 113.107 142.367 113.915C143.793 116.721 145.176 117.869 148.836 119.294C150.432 119.932 152.56 120.973 156.177 122.887C157.411 123.546 158.56 124.141 158.73 124.205C159.241 124.417 160.709 125.14 161.071 125.353C161.241 125.459 162.347 125.99 163.518 126.522C164.688 127.075 166.135 127.734 166.709 128.01C168.688 128.945 172.859 130.667 173.114 130.667C173.263 130.667 173.688 130.838 174.093 131.029C174.476 131.22 175.05 131.497 175.369 131.667C175.667 131.815 176.114 131.943 176.348 131.943C176.603 131.943 176.837 132.028 176.923 132.134C176.986 132.241 177.348 132.411 177.731 132.496C178.093 132.56 178.689 132.751 179.05 132.921C179.987 133.325 185.817 135.132 186.157 135.132C186.327 135.132 186.944 135.259 187.54 135.43C188.136 135.6 189.391 135.897 190.328 136.089C191.264 136.28 192.37 136.535 192.775 136.641C193.179 136.769 194.051 136.939 194.69 137.066C195.328 137.173 196.626 137.407 197.562 137.555C198.498 137.726 199.945 137.981 200.754 138.108C201.584 138.236 203.116 138.47 204.158 138.64C207.137 139.129 212.01 139.299 214.265 138.98ZM45.3195 138.64C45.4685 138.47 45.6813 138.321 45.8089 138.321C45.9366 138.321 46.1919 138.193 46.3622 138.044C46.5537 137.896 47.3197 137.492 48.0857 137.152C48.8517 136.833 49.8517 136.386 50.3198 136.195C50.7879 135.982 51.8944 135.536 52.7668 135.196C53.7455 134.813 54.3839 134.43 54.4264 134.218C54.469 134.005 54.3839 133.856 54.2562 133.856C53.9583 133.856 52.0859 132.581 51.8518 132.219C51.5539 131.73 50.7454 131.922 48.8091 132.9C46.3622 134.133 45.0217 135.515 44.6812 137.194C44.3408 138.767 44.6599 139.447 45.3195 138.64ZM48.0857 131.348C48.7027 131.029 49.2559 130.646 49.2985 130.519C49.3623 130.37 49.1283 130.093 48.7878 129.881C47.809 129.286 44.8727 126.947 43.745 125.905C42.7449 124.97 42.1279 124.672 42.1279 125.14C42.1279 125.48 43.8088 128.797 44.3833 129.604C45.3408 130.944 46.277 131.922 46.5962 131.943C46.7877 131.943 47.4473 131.667 48.0857 131.348ZM227.819 126.926C227.925 126.628 227.479 125.289 227.01 124.502C226.904 124.332 226.734 123.992 226.606 123.758C226.5 123.524 226.244 123.142 226.032 122.887C225.564 122.355 223.946 121.101 223.734 121.101C223.627 121.101 222.946 120.824 222.202 120.463C221.478 120.123 220.712 119.825 220.563 119.825C220.393 119.825 220.202 119.74 220.116 119.634C220.053 119.528 219.712 119.379 219.35 119.294C218.989 119.209 218.457 119.017 218.138 118.847C217.818 118.677 217.414 118.55 217.244 118.55C217.052 118.55 216.797 118.443 216.669 118.316C216.542 118.188 216.116 118.018 215.733 117.912C215.329 117.806 214.478 117.529 213.84 117.274C213.201 117.019 212.393 116.721 212.031 116.636C210.818 116.275 207.584 115.127 207.35 114.957C207.243 114.851 206.903 114.723 206.605 114.659C206.307 114.595 205.116 114.192 203.945 113.766C202.775 113.341 201.541 112.916 201.179 112.81C200.839 112.725 200.009 112.427 199.371 112.172C198.732 111.917 197.924 111.64 197.562 111.534C197.222 111.449 196.69 111.279 196.392 111.173C195.583 110.833 194.434 110.45 193.732 110.259C193.094 110.067 192.413 109.833 190.221 108.983C189.583 108.728 188.71 108.43 188.306 108.345C187.902 108.26 186.604 107.835 185.434 107.389C184.263 106.963 183.029 106.538 182.668 106.432C181.838 106.198 180.731 105.815 179.838 105.454C179.455 105.284 178.965 105.156 178.731 105.156C178.497 105.156 178.008 105.029 177.625 104.859C176.731 104.497 176.008 104.242 173.093 103.307C171.816 102.903 170.412 102.435 170.007 102.286C169.603 102.138 168.263 101.712 167.028 101.33C165.794 100.968 164.496 100.586 164.135 100.479C163.518 100.288 162.709 100.097 160.326 99.6077C158.964 99.31 154.496 99.3313 153.73 99.6289C153.411 99.7565 152.56 99.9478 151.836 100.054C151.134 100.16 149.496 100.394 148.198 100.607C145.453 101.011 144.431 101.436 143.261 102.669C142.453 103.519 142.112 104.242 141.516 106.517C141.197 107.771 141.495 107.984 142.814 107.41C143.623 107.048 145.155 106.623 147.453 106.092C148.325 105.9 149.347 105.645 149.687 105.539C150.049 105.411 151.006 105.199 151.815 105.029C152.645 104.88 153.964 104.604 154.794 104.412C158.113 103.689 162.794 104.348 166.922 106.134C167.284 106.283 168.369 106.708 169.369 107.091C170.369 107.452 171.475 107.878 171.816 108.026C172.178 108.196 173.454 108.728 174.688 109.217C175.923 109.706 177.731 110.429 178.731 110.833C179.731 111.236 180.923 111.725 181.391 111.896C181.859 112.087 182.54 112.363 182.923 112.512C183.285 112.682 183.668 112.81 183.795 112.81C184.008 112.81 186.774 113.873 188.03 114.425C188.391 114.595 188.796 114.723 188.902 114.723C189.03 114.723 189.753 115.021 190.54 115.361C191.328 115.722 192.094 115.999 192.243 115.999C192.392 115.999 192.796 116.147 193.115 116.317C193.455 116.488 193.902 116.636 194.094 116.636C194.285 116.636 194.498 116.721 194.583 116.828C194.647 116.934 195.009 117.104 195.37 117.189C195.753 117.253 196.2 117.402 196.392 117.508C196.753 117.721 198.541 118.337 202.456 119.634C203.86 120.102 205.201 120.569 205.435 120.676C205.669 120.782 206.477 121.08 207.243 121.313C208.009 121.568 208.818 121.845 209.052 121.951C209.988 122.334 215.478 124.098 216.393 124.311C216.797 124.396 217.712 124.63 218.414 124.821C219.116 125.012 220.223 125.31 220.861 125.48C221.5 125.629 222.606 125.905 223.308 126.075C225.415 126.607 226.585 126.947 226.734 127.117C227.01 127.394 227.67 127.266 227.819 126.926ZM230.117 120.102C232.819 119.506 234.713 118.252 235.309 116.636C235.458 116.232 235.671 115.701 235.756 115.467C235.862 115.233 235.99 114.766 236.075 114.404C236.33 113.277 236.181 102.18 235.862 98.3534C235.692 96.3125 235.5 93.8251 235.458 92.826C235.309 89.2119 234.883 84.386 234.585 82.7065C234.415 81.7499 234.266 80.368 234.266 79.6239C234.266 78.8799 234.16 77.6681 234.053 76.9453C233.926 76.2437 233.734 74.6068 233.628 73.3312C233.245 69.1857 232.628 65.9968 231.947 64.6149C231.606 63.9134 229.096 61.2134 227.032 59.3426C226.372 58.7686 225.287 57.7482 224.585 57.1104C223.883 56.4726 222.734 55.4734 222.031 54.8782C221.329 54.3042 220.053 53.1987 219.159 52.4334C218.287 51.6468 216.031 49.7972 214.159 48.2878C212.286 46.7784 210.712 45.4816 210.648 45.4178C210.52 45.269 206.711 42.3565 205.69 41.6337C205.328 41.3573 204.733 40.9108 204.371 40.6132C202.647 39.2101 201.818 38.5723 201.456 38.381C200.818 38.0408 197.796 35.7448 197.477 35.3409C197.328 35.1496 197.094 35.0008 196.988 35.0008C196.881 35.0008 195.839 34.278 194.69 33.4063C193.541 32.5347 192.519 31.8119 192.455 31.8119C192.37 31.8119 191.774 31.408 191.115 30.8977C190.455 30.3875 189.476 29.686 188.945 29.3458C188.051 28.7505 185.71 27.1561 180.582 23.6696C179.433 22.883 178.476 22.2452 178.412 22.2452C178.369 22.2452 177.731 21.8413 176.986 21.3311C176.242 20.8421 174.454 19.6728 172.986 18.7587C171.518 17.8445 169.943 16.8454 169.475 16.5265C169.007 16.2288 168.284 15.8037 167.88 15.5911C167.475 15.3572 166.986 15.0596 166.816 14.9108C166.645 14.7832 166.348 14.5919 166.177 14.5068C165.837 14.358 165.454 14.1242 164.156 13.2951C163.688 12.9974 163.156 12.6785 162.986 12.6148C162.815 12.5297 162.39 12.2959 162.028 12.0833C160.262 10.9991 157.922 9.78729 156.007 8.93692C154.815 8.40543 154.645 8.38418 154.347 8.6818C154.155 8.87314 153.943 9.65973 153.815 10.5314C153.709 11.3817 153.56 12.1683 153.474 12.3171C153.283 12.636 152.836 19.2477 152.347 29.2608C151.964 37.2117 152.155 51.583 152.794 61.0434C152.9 62.8079 153.091 65.9542 153.198 68.0589C153.304 70.1636 153.496 72.6084 153.602 73.48C153.73 74.3517 153.921 75.8823 154.049 76.8815C154.645 81.3885 155.709 86.4907 156.155 86.9371C156.283 87.0647 156.39 87.3198 156.39 87.5111C156.39 88.234 159.156 92.996 160.22 94.1228C162.752 96.7802 163.007 97.1203 162.56 97.3967C162.241 97.588 159.794 95.6747 158.751 94.3779C154.177 88.7654 152.815 83.0679 151.389 63.8071C150.921 57.4505 150.602 45.0139 150.708 37.0842C150.836 28.0915 151.325 17.143 151.687 15.4422C151.815 14.9108 151.9 14.1242 151.921 13.6565C151.921 12.551 152.56 9.89358 152.921 9.4684C153.283 9.02195 153.283 8.42669 152.879 8.42669C152.708 8.42669 151.879 8.74558 151.028 9.14951C149.261 9.95736 142.495 12.6785 142.219 12.6785C141.963 12.6785 139.601 13.6565 139.431 13.8265C139.367 13.8903 139.155 13.9541 139.006 13.9541C138.474 13.9541 137.282 15.0171 137.027 15.7186C136.729 16.5052 136.474 18.0146 136.176 20.5445C136.048 21.5437 135.856 23.1594 135.729 24.1585C135.601 25.1577 135.41 27.6876 135.325 29.7922C135.218 31.8969 135.048 35.0008 134.92 36.7015C134.41 44.61 134.495 62.1063 135.112 69.9722C135.58 76.1799 135.984 80.4531 136.218 81.9837C136.346 82.8554 136.516 84.1947 136.601 84.96C136.686 85.7254 136.857 86.7245 136.984 87.1922C137.112 87.66 137.367 88.7654 137.559 89.6371C137.963 91.4228 138.389 92.826 138.857 93.8251C139.027 94.1865 139.155 94.5692 139.155 94.6968C139.155 94.9944 140.623 97.7156 141.197 98.5022C141.474 98.8636 141.708 99.225 141.708 99.31C141.708 99.5651 142.644 100.692 142.878 100.692C143.006 100.692 143.431 100.437 143.793 100.118C144.623 99.4376 146.41 98.7785 147.41 98.7785C147.815 98.7785 148.772 98.651 149.559 98.4809C153.198 97.6943 154.794 97.503 157.347 97.503C159.645 97.503 160.496 97.6093 162.752 98.1408C165.411 98.7785 172.859 101.075 174.22 101.67C174.603 101.84 175.05 101.967 175.22 101.967C175.391 101.967 175.837 102.095 176.22 102.265C176.603 102.435 177.497 102.733 178.199 102.924C178.901 103.137 179.71 103.392 180.008 103.519C180.306 103.626 180.838 103.796 181.178 103.881C181.923 104.072 183.029 104.476 183.944 104.859C184.646 105.135 187.604 106.134 188.625 106.432C188.987 106.517 189.796 106.815 190.434 107.07C191.072 107.325 191.902 107.601 192.243 107.707C193.072 107.941 194.179 108.324 195.073 108.685C195.456 108.855 195.902 108.983 196.073 108.983C196.264 108.983 196.562 109.068 196.775 109.196C196.966 109.302 197.86 109.642 198.732 109.94C200.371 110.471 203.626 111.619 205.328 112.257C205.86 112.47 206.584 112.703 206.924 112.81C207.946 113.107 213.435 115.063 214.371 115.467C214.84 115.658 215.52 115.914 215.861 115.999C216.925 116.275 217.989 116.679 220.074 117.572C220.521 117.763 220.968 117.912 221.095 117.912C221.5 117.912 225.117 119.783 225.755 120.314C226.415 120.867 226.627 120.867 230.117 120.102ZM56.6393 65.8267C56.0861 66.0605 55.3627 66.422 55.0435 66.5708C54.703 66.7408 54.3413 66.8897 54.2349 66.8897C54.1073 66.8897 52.9583 67.3999 51.639 68.0377C50.3198 68.6542 48.8304 69.3557 48.2984 69.5896C47.7665 69.8234 46.3622 70.4612 45.1493 71.014C43.9578 71.5454 42.9152 71.9919 42.8513 71.9919C42.7875 71.9919 41.5534 72.5659 40.149 73.2462C37.617 74.4579 37.0425 74.7343 34.3615 75.9248C33.6593 76.2225 32.7018 76.6689 32.2337 76.8815C31.7656 77.0941 30.8081 77.5193 30.1059 77.8382C29.4038 78.1358 28.2122 78.6885 27.4462 79.0287C26.6802 79.3901 25.744 79.8153 25.3823 79.9854C23.8715 80.6444 23.2119 80.9208 21.2118 81.8562C20.0628 82.3876 19.084 82.8341 19.0202 82.8341C18.9564 82.8341 18.1904 83.1742 15.4243 84.4285C15.0838 84.5774 14.254 84.9388 13.6157 85.2364C12.0624 85.9167 9.14732 87.2135 7.48766 87.9788C6.76421 88.2977 6.04077 88.5741 5.89182 88.5741C5.74288 88.5741 5.44499 88.7017 5.21094 88.8717C4.97688 89.0205 4.53005 89.2119 4.21088 89.2969C2.82782 89.6158 1.35966 93.4425 1.78521 95.6534C2.18949 97.7794 5.08327 100.734 10.424 104.412C11.424 105.093 12.6582 105.964 13.1901 106.326C13.722 106.687 14.2965 107.048 14.4668 107.133C14.637 107.218 15.0838 107.474 15.4243 107.707C15.786 107.941 16.2115 108.196 16.3818 108.281C16.552 108.366 17.5733 108.94 18.6159 109.578C23.4034 112.491 27.7654 114.638 29.3612 114.914C30.9783 115.169 30.8719 115.169 31.7018 114.872C32.106 114.723 33.021 114.319 33.7232 113.979C34.4253 113.66 35.2977 113.256 35.6382 113.129C35.9999 112.98 36.6169 112.725 37.0212 112.555C37.4255 112.363 38.1489 112.087 38.617 111.896C40.0214 111.364 42.5109 110.365 45.0004 109.323C46.2983 108.792 47.5963 108.303 47.9367 108.218C48.2559 108.154 48.575 108.005 48.6389 107.899C48.7027 107.792 48.8942 107.707 49.0857 107.707C49.2559 107.707 49.7028 107.58 50.0645 107.41C50.7241 107.133 51.3837 106.878 53.4051 106.113C53.937 105.922 54.6392 105.624 54.9584 105.454C55.2988 105.284 55.6605 105.156 55.7669 105.156C55.9797 105.156 57.7032 104.434 58.3415 104.093C58.5543 103.966 58.8522 103.881 59.0224 103.881C59.1714 103.881 59.7672 103.689 60.3417 103.434C60.9162 103.2 61.5758 102.924 61.8098 102.839C62.0439 102.733 62.5971 102.499 63.0439 102.308C63.4908 102.116 63.9802 101.967 64.1291 101.967C64.278 101.967 65.1292 101.67 65.9803 101.308C66.8527 100.947 67.8953 100.522 68.2995 100.373C69.5975 99.9053 70.938 99.3738 71.6614 99.0762C72.0444 98.9061 72.5125 98.7785 72.7253 98.7785C72.9168 98.7785 73.2785 98.6297 73.4913 98.4597C73.7254 98.2896 74.0445 98.1408 74.2148 98.1408C74.385 98.1408 74.8531 97.992 75.2786 97.8006C75.7255 97.6093 76.3851 97.3329 76.7681 97.1628C77.1511 96.9928 77.5979 96.8652 77.7469 96.8652C77.8958 96.8652 78.5554 96.6314 79.1725 96.355C80.3002 95.866 81.6833 95.3558 85.2154 94.1015C86.1516 93.7614 87.5347 93.2511 88.2794 92.9535C89.0454 92.6559 89.7901 92.4008 89.9603 92.4008C90.1305 92.4008 90.5987 92.2519 91.0242 92.0606C91.471 91.8693 92.1306 91.5929 92.5136 91.4228C92.8967 91.2528 93.3009 91.1252 93.4286 91.1252C93.5563 91.1252 93.9605 90.9977 94.3223 90.8276C94.7053 90.6575 95.1946 90.4874 95.4287 90.4237C95.6628 90.3599 96.3862 90.1048 97.0245 89.8497C97.6629 89.5945 98.3863 89.3394 98.6204 89.2757C98.8544 89.2119 99.8119 88.8717 100.748 88.5316C103.493 87.5111 103.876 87.3836 105.216 86.9797C108.472 86.0017 110.834 84.3648 111.238 82.8128C111.536 81.6436 111.302 81.1759 109.94 80.283C109.323 79.8791 107.897 78.8374 106.748 78.0082C105.599 77.1579 104.621 76.4563 104.578 76.4563C104.536 76.4563 103.536 75.7335 102.365 74.8619C101.195 73.9902 100.152 73.2674 100.046 73.2674C99.9609 73.2674 99.5992 72.9911 99.2587 72.6297C98.9183 72.2895 98.5778 71.9919 98.4714 71.9919C98.3863 71.9919 96.8118 70.9077 94.9819 69.6108C93.152 68.2928 91.5136 67.1235 91.3221 66.9959C91.1093 66.8897 90.5348 66.4432 90.0029 66.0393C89.0879 65.3165 87.5772 64.2748 86.7687 63.7858C86.5346 63.6582 86.1516 63.3606 85.8963 63.148C84.6409 62.0425 81.5556 60.5119 80.5981 60.5119C79.7044 60.4906 78.8108 59.8528 79.0235 59.3426C79.1512 59.0025 79.3427 58.9812 80.7258 59.0875C82.9599 59.2788 84.8537 60.2142 88.5134 62.8929C89.2794 63.4457 90.1944 64.1047 90.5348 64.3385C90.8965 64.5724 92.0455 65.4228 93.1307 66.2094C96.0458 68.314 98.365 69.951 98.6204 70.0785C98.748 70.1423 99.4289 70.5888 100.131 71.099C100.812 71.6092 102.578 72.8635 104.046 73.9052C107.6 76.4138 109.025 77.498 109.961 78.3059C111.068 79.2838 111.408 79.3051 111.919 78.476C112.153 78.0933 112.345 77.5831 112.345 77.3492C112.345 76.7114 111.366 75.691 109.493 74.3304C108.6 73.6926 106.536 72.1832 104.897 70.9714C103.259 69.7809 101.876 68.803 101.833 68.803C101.727 68.803 96.216 64.9125 95.8117 64.5724C95.301 64.1047 90.3859 60.7457 89.8965 60.5119C89.7688 60.4481 89.1518 60.0229 88.5134 59.5552C84.5345 56.6214 82.2578 55.4097 80.7683 55.4097C79.5768 55.4097 77.2788 56.09 76.2149 56.7702C75.7255 57.0679 75.2361 57.323 75.1297 57.323C75.0233 57.323 74.0445 57.7694 72.9594 58.3009C71.8529 58.8324 70.3848 59.5552 69.6826 59.8741C68.9804 60.193 67.7889 60.7457 67.0229 61.1071C65.5973 61.7662 64.6185 62.2126 62.4482 63.1693C61.746 63.4882 60.5757 64.0197 59.8523 64.3598M43.8301 69.6108C45.1706 68.9731 47.043 68.1014 47.9793 67.6975C48.9155 67.2723 50.1922 66.7196 50.8092 66.4432C51.4475 66.1668 52.0433 65.7842 52.1497 65.5928C52.2561 65.3802 52.3412 64.5724 52.3412 63.7645C52.3412 61.9788 53.2774 56.6214 53.937 54.5593C54.1285 54.0278 54.2562 53.4325 54.2562 53.22C54.2562 53.0286 54.4903 52.3696 54.7882 51.7531C55.3201 50.6263 55.4478 50.0948 55.1712 50.0948C55.0648 50.0948 53.703 50.7326 52.1284 51.498C49.2134 52.9436 47.4048 53.7727 45.8302 54.453C43.8939 55.2608 43.362 56.3451 42.447 61.256C42.2555 62.3189 41.9577 63.7645 41.7874 64.4874C41.6172 65.2102 41.4895 66.1243 41.4895 66.507C41.4683 66.8897 41.298 67.9526 41.0853 68.8455C40.8299 69.951 40.7661 70.5462 40.915 70.6951C41.0427 70.8226 41.1917 70.8864 41.2555 70.8439C41.3193 70.8226 42.4896 70.2486 43.8301 69.6108ZM59.9374 62.2977C60.8523 61.8725 62.129 61.2772 62.7673 61.0008C63.4057 60.7032 64.5547 60.1717 65.3207 59.8316C66.0867 59.4914 67.0867 59.0237 67.5548 58.8111C68.0229 58.5985 69.2145 58.0458 70.2145 57.5781C72.5551 56.4726 73.5977 56.0474 74.002 56.0474C74.385 56.0474 75.1084 55.4309 75.1084 55.112C75.1084 54.9845 74.4701 54.7081 73.6828 54.4955C72.8743 54.2829 72.0019 54.0065 71.704 53.879C71.4061 53.7514 70.8954 53.5814 70.5337 53.4963C70.1933 53.39 69.3634 53.1137 68.7251 52.8585C68.0868 52.6034 67.2782 52.3271 66.9165 52.2208C66.576 52.1145 65.7462 51.8381 65.1079 51.583C64.4695 51.3279 63.3205 50.9452 62.5545 50.7114C61.7885 50.4775 60.3842 50.0523 59.4054 49.7547C57.7883 49.2445 57.6181 49.2232 57.15 49.5421C56.6606 49.861 56.5329 50.1374 55.8308 52.646C55.1924 54.8994 55.1499 55.0908 55.0009 56.0474C54.9371 56.5789 54.7882 57.1954 54.6818 57.4293C54.5754 57.6631 54.3839 58.6198 54.2775 59.5552C54.1498 60.4906 53.9158 62.0213 53.7243 62.9567C53.2987 65.2527 53.4455 65.4929 54.6818 64.7637M221.5 51.5405C221.5 51.0515 218.925 46.1194 218.414 45.6304C217.691 44.9501 216.286 44.9288 215.733 45.6091C215.52 45.8855 215.329 46.2044 215.329 46.332C215.329 46.4595 215.925 47.0973 216.648 47.7563C217.372 48.3941 218.648 49.5634 219.478 50.3499C220.904 51.7318 221.5 52.072 221.5 51.5405ZM63.3205 48.7555C63.5546 48.1177 61.6183 43.8871 60.7885 43.2494C59.4054 42.1651 57.8096 43.5045 56.5968 46.7997C56.4691 47.1611 56.3414 47.4799 56.3202 47.5437C56.2989 47.6075 57.15 47.65 58.2139 47.6713C59.9161 47.6925 60.2991 47.7776 61.4055 48.3303C62.8524 49.0744 63.1716 49.1382 63.3205 48.7555ZM158.177 7.59758C158.283 7.42751 157.141 4.71908 156.736 4.29389C156.649 4.15146 156.56 3.90698 156.441 3.71777C156.338 3.5562 156.007 3.02472 155.538 2.59953C154.815 1.96175 154.538 1.8342 153.709 1.8342C152.496 1.8342 151.836 2.47198 151.113 4.30027C150.836 4.98057 150.474 5.80968 150.304 6.12857C149.921 6.83012 149.921 7.5742 150.283 7.5742C150.432 7.5742 151.091 7.31909 151.73 7.02146C153.474 6.14983 154.304 6.14983 156.07 7.02146C157.666 7.81017 158.007 7.89521 158.177 7.59758Z" fill="rgb(0,0,0)" fill-rule="nonzero" transform="matrix(1,0,0,-1,1.23926,227.247)" />
			<path id="矢量 439" d="M20.976 42.2236C20.593 41.9047 17.4014 37.7166 17.4014 37.5253C17.4014 37.4615 17.1248 36.9938 16.7843 36.4836C16.4439 35.9734 15.8055 34.9104 15.38 34.0813C14.9332 33.2734 14.3587 32.253 14.1033 31.8491C13.848 31.4451 13.5501 30.8711 13.465 30.5735C13.3799 30.2759 13.2309 29.9357 13.1245 29.8294C12.8479 29.468 9.42221 22.4525 7.82638 18.9872C7.46466 18.1794 6.89016 16.9251 6.54971 16.2235C5.82627 14.7354 5.06027 13.0346 4.29427 11.1638C3.99638 10.441 3.52827 9.37803 3.25166 8.78277C2.99632 8.20877 2.57077 7.2521 2.31543 6.65685C2.0601 6.08285 1.76221 5.40255 1.65582 5.1687C1.54943 4.93485 1.25154 4.21203 1.01749 3.57425C0.762156 2.93648 0.421711 2.08611 0.251489 1.70344C-0.131511 0.874328 -0.0676775 0.0877359 0.379156 0.00269893C0.677045 -0.0398196 0.9111 0.385365 2.40054 3.68055C2.54949 4.04196 2.8261 4.65848 3.0176 5.0624C3.18782 5.46633 3.57082 6.35922 3.86871 7.03951C4.1666 7.69855 4.67727 8.80403 4.97516 9.48433C5.27304 10.1434 5.63477 10.9937 5.80499 11.3339C6.2731 12.4181 7.20932 14.4377 8.29449 16.755C8.86899 17.988 9.42221 19.1785 9.5286 19.4124C9.80521 20.0502 13.7842 28.2775 14.0395 28.7665C14.1672 29.0003 14.6565 29.9145 15.0821 30.7861C15.5289 31.6577 16.1673 32.827 16.4864 33.3797C17.6142 35.2718 19.6143 38.5457 19.7845 38.7583C19.8696 38.8859 20.3803 39.5237 20.9122 40.2039C21.5293 40.9693 21.8697 41.6071 21.8272 41.8834C21.742 42.4362 21.4229 42.5637 20.976 42.2236Z" fill="rgb(0,0,0)" fill-rule="nonzero" transform="matrix(1,0,0,-1,220.657,62.0996)" />
			<path id="矢量 440" d="M4.07488 15.9154C3.60677 15.8091 2.7131 15.6178 2.07477 15.4902C0.904493 15.2776 -0.116841 14.7036 0.0108259 14.3422C0.0746592 14.0871 1.11727 14.1296 2.58544 14.4273C3.92594 14.6824 9.26666 14.7036 11.5221 14.4485C12.4583 14.321 14.1393 14.1509 15.2457 14.0233C16.3522 13.917 17.7565 13.7044 18.331 13.5769C19.6502 13.2793 21.7567 12.8541 23.4377 12.5352C26.1399 12.0037 26.6506 11.8974 27.3741 11.7061C27.7783 11.5998 28.6933 11.3659 29.3954 11.1958C31.2253 10.7281 37.481 8.94236 38.8641 8.47466C42.7153 7.1991 48.8433 4.9031 49.1625 4.62673C49.2902 4.5417 49.5242 4.45666 49.7157 4.45666C49.9923 4.45666 53.5457 3.03229 55.5671 2.11814C55.8012 2.01184 56.5246 1.71421 57.1629 1.48036C58.546 0.948881 59.6737 0.481178 60.1844 0.204807C61.0781 -0.284156 62.0143 0.183548 61.2908 0.757548C60.5461 1.31029 53.4181 4.69051 50.0774 6.0511C49.354 6.34873 48.5667 6.68888 48.3327 6.77392C48.0986 6.88022 47.4816 7.11407 46.9496 7.32666C46.4177 7.51799 45.6729 7.81562 45.2899 7.9857C44.9069 8.15577 44.5027 8.28333 44.375 8.28333C44.2473 8.28333 43.8431 8.41088 43.4813 8.5597C43.0983 8.72977 42.46 8.96362 42.0557 9.11244C38.8215 10.2817 37.5874 10.6856 36.8427 10.8132C36.3746 10.8982 35.5234 11.1533 34.9277 11.3447C33.7999 11.7486 31.5658 12.3438 29.2891 12.8753C28.5231 13.0667 27.3315 13.343 26.6293 13.5131C24.2037 14.0871 19.6077 15.0013 17.9054 15.2138C17.4373 15.2776 16.2032 15.469 15.1393 15.6178C12.6924 16.0004 5.2026 16.1918 4.07488 15.9154Z" fill="rgb(0,0,0)" fill-rule="nonzero" transform="matrix(1,0,0,-1,149.618,65.958)" />
		</g>
	</g>
</svg>
