<svg viewBox="0 0 268 230" xmlns="http://www.w3.org/2000/svg" xmlns:xlink="http://www.w3.org/1999/xlink" width="268.000000" height="230.000000" fill="none">
	<defs>
		<clipPath id="clipPath_16">
			<rect width="268.000000" height="224.000000" x="0.000000" y="3.000000" fill="rgb(255,255,255)" />
		</clipPath>
	</defs>
	<rect id="16" width="268.000000" height="230.000000" x="0.000000" y="0.000000" />
	<g id="16" clip-path="url(#clipPath_16)" customFrame="url(#clipPath_16)">
		<rect id="16" width="268.000000" height="224.000000" x="0.000000" y="3.000000" />
		<path id="矢量 441" d="M160.683 217.373L158.955 223.071L155.605 225.898L152.576 223.751L149.632 216.353L138.581 211.633L137.813 207.169L135.189 181.041L89.8346 166.011L88.0213 168.371L65.6213 176.152L64.9813 181.445L61.8026 183.89L58.8586 182.232L56.448 176.896L45.5253 172.027L42.0266 157.677L40.9173 148.515L2.28262 131.082L1.13062 124.874L5.01328 119.411L22.1013 109.483L32.0213 105.869L35.648 107.229L44.1813 98.5128L45.3973 94.7287L48.3626 91.4973L45.5466 86.4801L47.5733 78.9118L54.144 75.5316L56.32 75.5316L80.4906 68.0271L99.328 64.8382L125.312 64.4342L128.491 57.9714L139.2 38.7105L154.837 21.278L163.392 21.6394L172.416 8.69247L179.947 4.50439L198.016 5.07839L226.603 9.81921L240.064 13.327L248 18.6631L250.688 27.7833L249.579 35.0965L255.253 35.7342L260.437 40.6877L260.437 46.704L262.933 46.0025L266.816 50.4031L242.752 110.843L240.405 112.565L239.083 113.437L235.669 162.206L224.533 173.452L222.464 179.383L219.627 181.955L216.085 178.958L181.312 204.49L160.683 217.373Z" fill="rgb(255,255,255)" fill-rule="nonzero" />
		<path id="矢量 442" d="M239.552 112.353L237.419 108.037L232.427 104.721L228.459 104.721L230.976 98.3428L230.464 93.7082L222.123 86.5651L217.28 86.5651L194.667 87.2879L152.96 103.87L146.581 107.718L143.659 111.949L142.379 122.6L108.565 151.618L81.6 166.011L2.81595 131.082L1.13062 124.874L6.03728 118.582L31.4666 105.741L35.648 107.229L40.9173 101.744L55.4453 90.9658L70.016 83.2699L85.312 82.1219L101.077 85.5872L105.792 84.6943L120.405 84.6943L133.163 86.9478L136 75.1276L132.779 68.2609L125.312 64.4342L133.163 49.2126L140.437 36.946L152.277 23.1913L157.568 21.0654L163.392 21.6394L173.141 7.77832L179.947 4.50439L201.067 5.07839L227.221 10.1594L243.52 14.7939L249.067 20.3851L250.091 34.65L255.765 36.372L261.525 42.5585L260.352 46.3639L265.813 47.2142L266.816 51.6787L242.048 111.949L239.552 112.353Z" fill="rgb(1,89,188)" fill-rule="nonzero" />
		<g id="组合 88">
			<path id="矢量 443" d="M83.2017 55.8299C83.5644 55.9787 84.9937 56.5527 86.4017 57.1054C87.8097 57.6582 89.2817 58.2747 89.6444 58.5086L90.3484 58.9337L91.8844 58.1897C94.3377 56.9992 96.3004 56.1275 96.5137 56.1275C96.6204 56.1275 96.9831 56 97.3244 55.8299C97.6444 55.6598 98.3057 55.3622 98.7751 55.1709C99.2444 54.9795 99.9271 54.6819 100.268 54.5331C102.807 53.3638 103.81 52.9386 103.98 52.9386C104.087 52.9386 104.45 52.8111 104.791 52.641C105.111 52.4709 106.156 52.0245 107.095 51.6418C108.034 51.2804 109.399 50.6852 110.146 50.3663C110.871 50.0261 111.554 49.7497 111.66 49.7497C111.81 49.7497 112.919 49.3033 115.628 48.1553C115.991 48.0065 116.695 47.7089 117.228 47.5175C117.762 47.3049 118.444 47.0286 118.764 46.8585C119.063 46.6884 119.468 46.5609 119.639 46.5609C119.831 46.5609 120.236 46.4333 120.578 46.2632C120.898 46.0932 121.602 45.7955 122.135 45.5829C122.668 45.3916 123.394 45.094 123.778 44.9452C124.14 44.7751 124.546 44.6475 124.674 44.6475C124.802 44.6475 125.207 44.52 125.591 44.3499C125.975 44.1798 126.722 43.8822 127.255 43.6909C127.788 43.4995 128.471 43.2019 128.791 43.0318C129.09 42.8617 129.538 42.7342 129.751 42.7342C129.964 42.7342 130.242 42.6492 130.348 42.5641C130.562 42.3728 131.906 41.8413 133.655 41.246L134.615 40.9272L134.764 37.2068C134.828 35.1659 134.999 32.5723 135.127 31.4668C135.255 30.3613 135.362 28.7243 135.362 27.8527C135.362 25.9606 136.002 20.5395 136.62 16.9042C136.834 15.6924 137.73 13.8641 138.434 13.2051C138.86 12.8224 140.759 11.9933 142.508 11.4618C142.871 11.3555 143.34 11.1854 143.575 11.0792C143.81 10.9729 144.428 10.739 144.962 10.5264C145.495 10.3351 146.199 10.0374 146.519 9.86737C146.86 9.6973 147.308 9.56974 147.543 9.56974C147.778 9.56974 148.119 9.48471 148.332 9.37841C148.524 9.27211 148.844 9.1233 149.036 9.08078C149.25 9.017 149.442 8.61308 149.527 8.03908C149.74 6.57219 150.124 5.04152 150.423 4.36122C151.596 1.68256 151.916 1.23611 153.324 0.364483C154.071 -0.103221 156.098 -0.12448 156.482 0.321964C156.631 0.492038 156.866 0.640853 157.015 0.640853C157.506 0.640853 159.042 2.53293 159.682 3.97856C160.898 6.63596 160.962 6.80604 160.962 7.63515C160.962 8.29419 161.09 8.57056 161.623 9.017C161.986 9.31463 162.37 9.56974 162.476 9.56974C162.583 9.56974 164.439 10.654 166.615 11.972C168.812 13.2689 170.775 14.4594 170.988 14.5657C171.202 14.6932 171.735 15.0334 172.183 15.331C173.847 16.4152 174.935 17.1168 175.148 17.2231C175.276 17.2869 175.788 17.6057 176.322 17.9459C180.119 20.3907 180.994 20.9647 181.719 21.4537C182.167 21.7513 182.7 22.1127 182.892 22.219C183.084 22.3466 183.596 22.6867 184.002 22.9843C184.407 23.3032 186.284 24.5788 188.162 25.8331C190.039 27.0874 191.618 28.1716 191.682 28.2566C191.852 28.4692 193.154 29.3409 193.303 29.3409C193.367 29.3409 194.199 29.9149 195.138 30.6164C196.055 31.318 196.866 31.892 196.93 31.892C196.994 31.892 197.975 32.5935 199.106 33.4439C200.236 34.2943 201.388 35.1234 201.644 35.2934C203.138 36.3139 213.484 44.2223 214.188 44.9026C214.658 45.3491 215.106 45.7105 215.191 45.7105C215.276 45.7105 215.468 45.4979 215.596 45.2215C215.916 44.6475 216.279 44.3499 217.346 43.7759C219.223 42.7767 221.292 43.9672 222.7 46.8372C223.596 48.6655 224.066 49.9623 224.322 51.1954C224.428 51.6843 224.62 52.2796 224.748 52.4922C224.855 52.726 224.962 53.0874 224.962 53.3C224.962 53.5126 225.516 54.1504 226.199 54.7244C231.106 58.8274 234.05 61.8037 234.988 63.5895C235.884 65.3328 236.375 67.4587 236.887 72.072C237.015 73.1775 237.228 74.8995 237.335 75.8986C237.442 76.8978 237.655 79.1513 237.762 80.8946C237.89 82.6591 238.039 84.2535 238.103 84.4449C238.167 84.6574 238.295 86.1881 238.402 87.8463C238.508 89.5258 238.679 92.2257 238.807 93.8627C239.148 98.3272 239.49 104.429 239.66 108.85L239.788 112.783L240.343 112.847C240.663 112.89 241.324 113.336 241.9 113.931C242.732 114.782 243.159 115.547 244.482 118.63C245.356 120.671 246.082 122.414 246.082 122.499C246.082 122.584 246.359 123.264 246.7 123.987C247.02 124.731 247.511 125.858 247.767 126.496C248.023 127.133 248.322 127.856 248.407 128.09C248.514 128.324 248.898 129.281 249.282 130.216C249.644 131.151 250.071 132.214 250.242 132.555C250.391 132.916 250.668 133.618 250.882 134.149C251.074 134.68 251.372 135.403 251.522 135.743C251.671 136.105 251.927 136.764 252.119 137.232C252.29 137.699 252.652 138.635 252.908 139.315C253.164 139.974 253.463 140.591 253.57 140.654C253.676 140.718 253.762 140.952 253.762 141.207C253.762 141.441 253.89 141.887 254.06 142.185C254.231 142.504 254.508 143.184 254.722 143.716C255.127 144.821 255.468 145.65 255.938 146.692C256.13 147.096 256.407 147.819 256.599 148.286C257.068 149.519 258.242 152.432 258.562 153.176C258.711 153.537 258.988 154.239 259.202 154.77C259.394 155.302 259.692 156.025 259.842 156.365C259.991 156.726 260.268 157.428 260.482 157.959C260.674 158.491 260.972 159.214 261.122 159.554C261.271 159.915 261.548 160.617 261.762 161.148C262.167 162.232 262.167 162.232 263.575 165.719C264.13 167.122 264.898 169.078 265.282 170.077C265.644 171.076 266.05 172.054 266.178 172.288C266.54 172.99 267.202 175.222 267.202 175.796C267.202 176.582 266.583 177.688 265.388 179.112C264.194 180.494 263.106 181.132 261.911 181.132L261.058 181.132L261.1 182.896C261.122 184.385 261.036 184.81 260.546 185.809C258.882 189.211 255.042 191.974 251.778 192.102C251.095 192.123 250.476 192.187 250.412 192.272C250.348 192.336 250.455 193.505 250.668 194.865C250.988 197.034 251.01 197.65 250.775 199.606C250.37 203.114 249.559 206.112 248.556 207.664C247.575 209.194 244.759 211.533 242.668 212.596C242.135 212.851 241.559 213.148 241.388 213.255C240.983 213.489 241.068 213.467 238.508 214.254C235.756 215.104 234.37 215.487 232.535 215.87C231.724 216.061 230.615 216.295 230.082 216.444C229.548 216.571 228.652 216.741 228.055 216.848C227.479 216.933 226.604 217.103 226.135 217.23C225.666 217.358 224.556 217.613 223.682 217.804C222.807 217.996 221.548 218.293 220.908 218.442C220.268 218.591 218.967 218.888 218.028 219.08C217.09 219.292 215.767 219.59 215.084 219.739C214.402 219.909 213.591 220.036 213.314 220.036C213.015 220.036 212.183 220.164 211.458 220.334C210.732 220.504 209.132 220.802 207.895 220.972C206.658 221.142 204.93 221.397 204.055 221.525C196.567 222.651 182.572 223.332 179.948 222.715C175.682 221.716 174.039 220.802 171.223 217.847C169.346 215.891 168.428 214.743 166.444 211.83C165.548 210.512 164.396 208.812 163.863 208.025C163.33 207.26 162.882 206.537 162.882 206.452C162.882 206.367 162.69 206.09 162.455 205.835C162.092 205.453 161.922 205.41 161.602 205.58C160.428 206.218 158.316 206.664 157.25 206.537C154.306 206.154 152.962 205.346 149.506 201.817C144.834 197.055 139.756 190.741 136.599 185.724C136.087 184.916 135.532 184.044 135.362 183.768C134.679 182.726 132.61 179.261 132.055 178.262C130.071 174.627 129.431 173.394 128.62 171.778C126.978 168.461 125.762 165.804 125.762 165.549C125.762 165.4 125.634 165.102 125.463 164.869C125.314 164.635 125.1 164.146 125.036 163.763C124.802 162.764 124.439 162.53 123.65 162.934C123.116 163.21 122.028 163.274 116.972 163.274C113.644 163.274 109.975 163.168 108.802 163.04C107.628 162.913 105.239 162.743 103.468 162.636C99.9697 162.445 96.7911 162.105 95.1911 161.765C94.6364 161.637 93.3137 161.467 92.2897 161.382C91.2657 161.297 90.2844 161.148 90.1351 161.042C89.9857 160.936 89.1324 160.787 88.2364 160.702C86.2737 160.489 83.6924 159.979 83.1164 159.681C82.8817 159.554 82.3697 159.448 81.9644 159.448C81.5804 159.448 80.8337 159.32 80.3004 159.15C79.7884 158.98 78.5937 158.703 77.6551 158.512C76.7164 158.321 75.5217 158.023 74.9884 157.874C74.4551 157.704 73.4524 157.428 72.7484 157.215C72.0444 157.003 71.1484 156.705 70.7644 156.556C70.3804 156.386 69.9324 156.259 69.7404 156.259C69.3991 156.259 65.6657 155.068 64.5991 154.622C64.2364 154.473 63.8097 154.345 63.6391 154.345C63.4897 154.345 62.5511 154.048 61.5484 153.708C60.5671 153.346 59.5644 153.07 59.3511 153.07C59.1377 153.07 58.6897 152.942 58.3911 152.772C57.6231 152.389 55.1484 151.794 54.2737 151.794C53.5057 151.794 51.5644 151.263 50.4551 150.752C48.5564 149.881 46.9351 148.478 46.1457 147.032C44.9724 144.885 44.6951 143.694 44.6737 140.888C44.6524 138.677 44.7164 138.316 45.2284 137.168C45.5484 136.466 46.0817 135.701 46.4231 135.446C46.7644 135.191 47.0417 134.893 47.0417 134.766C47.0417 134.659 46.5297 134.043 45.9324 133.405C44.8871 132.363 43.6284 130.237 42.9671 128.452C42.8177 128.005 42.1777 127.304 41.3031 126.602C40.5351 125.985 39.5964 125.22 39.2337 124.88C38.8924 124.54 37.9964 123.711 37.2924 123.052C36.5671 122.393 35.7137 121.457 35.3937 120.99C35.0737 120.501 34.7537 120.118 34.6471 120.118C34.3484 120.118 33.3031 120.607 32.9191 120.926C32.3217 121.415 29.7404 121.16 27.7351 120.394C25.5164 119.565 21.7617 117.843 20.7591 117.205C20.3111 116.95 19.8631 116.716 19.7564 116.716C19.6497 116.716 18.7964 116.291 17.8364 115.76C16.8764 115.228 16.0231 114.803 15.8951 114.803C15.7884 114.803 14.1671 113.868 12.2684 112.741C10.3911 111.593 8.66306 110.551 8.47106 110.445C7.59639 109.913 6.18839 108.978 6.08173 108.872C6.01772 108.808 5.50572 108.362 4.90839 107.915C2.34839 105.917 0.684391 103.748 0.108391 101.622C-0.168943 100.581 0.108391 98.2421 0.684391 97.1154C0.833724 96.7965 0.961724 96.3713 0.961724 96.18C0.961724 95.3721 2.49772 93.9265 4.09772 93.2037C4.97239 92.7998 5.76172 92.4809 5.88972 92.4809C5.99639 92.4809 6.74306 92.1832 7.53239 91.8218C8.32173 91.4604 9.28173 91.0352 9.66573 90.8652C11.1164 90.2486 11.9697 89.8872 12.5457 89.5896C12.8871 89.4195 13.2711 89.292 13.4417 89.292C13.5911 89.292 13.8257 89.1432 13.9751 88.9731C14.1244 88.803 14.3804 88.6542 14.5297 88.6542C14.7857 88.6542 15.8311 88.2077 18.3484 87.0597C19.6284 86.4645 21.4844 85.6566 22.7857 85.1252C24.3431 84.4874 24.9831 84.211 26.5831 83.4669C27.2444 83.1693 27.8844 82.9142 28.0124 82.9142C28.1617 82.9142 28.8231 82.6378 29.4844 82.2977C31.3617 81.3835 33.5804 80.3631 33.7297 80.3631C33.7937 80.3631 34.7324 79.9379 35.8204 79.4277C36.8871 78.9174 38.2524 78.3009 38.8284 78.0671L39.8951 77.6206L39.9591 74.8144C39.9804 73.1987 40.1511 71.498 40.3217 70.7964C40.4924 70.1161 40.6417 69.202 40.6417 68.7555C40.6417 68.2878 40.7911 67.076 40.9617 66.0131C41.1537 64.9714 41.4524 63.1856 41.6444 62.0801C41.8151 60.9746 42.1137 59.6991 42.2631 59.2526C42.4337 58.8274 42.5617 58.2747 42.5617 58.0409C42.5617 57.807 42.6471 57.4456 42.7537 57.233C42.8604 57.0417 43.0524 56.4464 43.2017 55.9362C43.3724 55.2771 43.7777 54.6819 44.5244 53.9803C45.1004 53.4063 45.6977 52.9386 45.8257 52.9386C45.9751 52.9386 46.9777 52.5135 48.0657 51.982C49.1751 51.4505 50.1351 51.0253 50.1991 51.0253C50.3271 51.0253 53.2071 49.7072 53.9111 49.3033C54.1244 49.197 54.4657 49.112 54.7004 49.112C55.2977 49.112 56.0017 48.1128 56.0017 47.3049C56.0017 46.6246 56.2791 45.7955 57.0897 44.0735C57.6017 42.9893 59.2231 41.4586 59.8844 41.4374C62.1457 41.3523 63.0844 41.735 64.1084 43.1806C64.8764 44.2436 65.7724 46.7947 66.0071 48.5592L66.1351 49.6222L67.9484 50.2174C68.9511 50.5576 70.0604 50.919 70.4017 51.004C70.7644 51.0891 71.2337 51.2592 71.4684 51.3867C71.7031 51.5143 72.4711 51.8119 73.1751 52.0457C73.8791 52.2796 74.7964 52.5985 75.2017 52.7473M193.815 220.908C195.287 220.781 197.634 220.525 199.042 220.355C200.45 220.164 201.9 220.036 202.242 220.036C202.604 220.036 203.756 219.888 204.802 219.718C205.868 219.526 207.639 219.229 208.748 219.059C209.858 218.867 211.394 218.591 212.162 218.421C212.93 218.251 213.783 218.123 214.039 218.123C214.508 218.123 215.063 217.996 218.562 217.166C219.202 216.996 220.546 216.72 221.548 216.529C222.551 216.316 223.788 216.04 224.3 215.87C224.834 215.7 225.516 215.572 225.858 215.572C226.199 215.572 226.818 215.423 227.244 215.253C227.65 215.083 228.268 214.934 228.61 214.934C228.93 214.934 229.463 214.828 229.804 214.7C230.124 214.573 230.828 214.403 231.362 214.296C234.412 213.765 240.194 211.979 241.623 211.129C242.028 210.895 242.498 210.619 242.668 210.555C244.076 209.917 246.7 207.472 247.404 206.112C248.044 204.9 248.663 202.157 249.068 198.798C249.218 197.65 249.196 196.821 248.962 195.61C248.791 194.717 248.642 193.739 248.642 193.441C248.642 192.591 248.194 192.166 247.148 192.038C246.338 191.932 244.887 191.103 244.375 190.465C244.311 190.401 243.522 189.529 242.626 188.551C240.428 186.149 239.98 185.639 239.298 184.64C238.978 184.172 238.679 183.747 238.615 183.683C238.018 183.088 234.562 178.283 234.562 178.049C234.562 178.007 234.135 177.348 233.602 176.583C233.068 175.796 232.642 175.137 232.642 175.073C232.642 175.009 232.386 174.563 232.066 174.053C231.148 172.65 231.084 172.543 230.444 171.438C230.124 170.864 229.634 170.013 229.356 169.546C229.079 169.078 228.588 168.228 228.268 167.632C227.948 167.058 227.522 166.293 227.308 165.932C226.754 165.017 223.042 157.662 223.042 157.492C223.042 157.385 222.466 156.11 221.74 154.622C219.799 150.519 218.967 148.69 217.922 146.16C217.538 145.225 217.111 144.183 216.962 143.822C216.791 143.482 216.535 142.802 216.386 142.334C216.13 141.632 216.002 141.483 215.554 141.547C213.015 141.802 206.914 141.377 203.842 140.718C203.308 140.612 202.092 140.42 201.111 140.314C200.151 140.208 199.276 140.059 199.17 140.017C199.063 139.953 198.38 139.804 197.634 139.676C195.586 139.358 190.658 138.295 188.695 137.763C188.162 137.636 187.202 137.38 186.562 137.232C185.922 137.083 185.154 136.87 184.855 136.743C184.556 136.636 183.746 136.36 183.042 136.169C182.338 135.956 181.42 135.68 181.015 135.531C180.61 135.382 179.735 135.106 179.095 134.893C178.455 134.702 177.644 134.404 177.282 134.255C176.94 134.106 176.215 133.809 175.682 133.618C175.148 133.426 174.402 133.129 174.018 132.958C173.634 132.788 173.186 132.661 173.015 132.661C172.866 132.661 172.46 132.533 172.119 132.363C171.586 132.108 171.01 131.853 169.495 131.215C167.49 130.386 165.271 129.344 164.994 129.089C164.546 128.728 163.543 128.685 162.946 129.004C162.711 129.132 161.474 129.578 160.194 130.003C158.914 130.407 157.591 130.854 157.228 130.981C156.887 131.109 155.863 131.428 154.988 131.704C154.114 131.959 153.154 132.278 152.855 132.406C151.98 132.725 150.871 133.107 150.188 133.299C149.079 133.618 147.671 134.149 146.455 134.723C145.815 135.021 145.004 135.382 144.642 135.531C144.3 135.68 143.362 136.084 142.572 136.466C141.783 136.828 141.058 137.125 140.972 137.125C140.866 137.125 140.546 137.253 140.247 137.423C139.351 137.891 135.959 138.996 134.999 139.166C134.487 139.23 133.911 139.421 133.719 139.57C133.378 139.825 133.356 139.932 133.612 140.569C133.783 140.952 134.018 141.696 134.167 142.228C134.316 142.759 134.658 143.609 134.892 144.12C135.148 144.651 135.362 145.161 135.362 145.289C135.362 145.395 135.618 146.118 135.938 146.883C136.407 148.01 136.535 148.648 136.556 150.093C136.578 151.773 136.642 152.092 137.666 154.515C138.284 155.961 139.01 157.64 139.287 158.236C139.564 158.852 140.012 159.83 140.268 160.404C140.524 160.999 140.972 161.999 141.271 162.636C141.762 163.763 142.124 164.486 142.743 165.613C142.892 165.91 143.255 166.676 143.554 167.313C144.279 168.865 145.41 170.885 146.22 172.097C146.583 172.628 146.882 173.139 146.882 173.245C146.882 173.33 147.18 173.67 147.522 174.01C147.948 174.414 148.162 174.839 148.162 175.243C148.162 176.349 150.935 182.386 154.327 188.679C154.839 189.614 155.415 190.677 155.607 191.018C155.799 191.379 156.055 191.804 156.183 191.974C156.311 192.144 156.738 192.91 157.143 193.675C157.548 194.44 158.082 195.397 158.359 195.801C158.636 196.205 158.956 196.736 159.063 196.97C159.17 197.204 159.468 197.735 159.724 198.139C159.959 198.543 160.386 199.266 160.642 199.734C161.068 200.52 161.687 201.541 163.436 204.262C165.292 207.132 165.762 207.812 165.911 207.876C166.018 207.919 166.082 208.046 166.082 208.174C166.082 208.28 166.487 208.918 166.999 209.577C167.49 210.257 168.002 210.959 168.108 211.15C169.175 212.957 172.162 216.529 173.911 218.123C175.426 219.505 177.58 220.525 179.735 220.887C180.61 221.014 181.484 221.163 181.655 221.206C182.274 221.355 191.191 221.142 193.815 220.908ZM160.706 204.326C161.346 203.986 161.303 203.794 160.428 202.583C160.023 202.009 159.682 201.498 159.682 201.456C159.682 201.413 159.255 200.712 158.722 199.904C158.188 199.117 157.762 198.395 157.762 198.309C157.762 198.224 157.484 197.735 157.122 197.225C156.78 196.694 156.482 196.205 156.482 196.141C156.482 196.056 156.247 195.652 155.991 195.206C155.714 194.78 155.095 193.696 154.626 192.825C154.156 191.953 153.41 190.614 152.983 189.848C152.215 188.466 148.887 181.812 147.884 179.644C147.586 179.006 147.074 177.667 146.754 176.668C146.434 175.668 146.05 174.775 145.9 174.648C144.642 173.649 137.73 159.703 136.343 155.323C136.087 154.494 135.767 153.814 135.66 153.771C135.532 153.729 135.084 154.494 134.636 155.472C133.271 158.555 130.007 161.382 127.148 161.977C126.658 162.084 126.487 162.254 126.444 162.658C126.402 162.955 126.53 163.317 126.7 163.487C126.892 163.636 127.042 163.848 127.042 163.954C127.042 164.167 127.49 165.188 129.004 168.376C131.394 173.394 131.756 174.095 131.948 174.223C132.076 174.286 132.162 174.478 132.162 174.648C132.162 174.818 132.418 175.307 132.716 175.753C133.015 176.2 133.506 177.05 133.783 177.624C134.082 178.219 134.487 178.942 134.679 179.261C134.871 179.559 135.746 180.962 136.599 182.344C139.948 187.786 142.06 190.72 145.836 195.163C148.674 198.501 148.759 198.607 151.106 200.967C154.54 204.453 155.095 204.751 158.082 204.666C159.255 204.623 160.428 204.475 160.706 204.326ZM252.802 190.167C254.487 189.721 255.511 189.125 256.876 187.786C259.18 185.49 260.055 182.918 259.202 180.856C259.01 180.367 258.69 179.58 258.498 179.112C258.327 178.645 257.922 177.645 257.602 176.88C257.282 176.115 256.748 174.882 256.428 174.116C256.108 173.351 255.554 172.139 255.234 171.417C254.892 170.672 254.316 169.439 253.954 168.653C253.591 167.845 252.78 166.165 252.162 164.869C251.543 163.593 250.626 161.68 250.135 160.617C247.767 155.536 239.938 140.165 238.487 137.699C238.082 137.019 237.762 136.381 237.762 136.275C237.762 136.169 237.356 135.382 236.844 134.532C236.354 133.681 234.754 130.62 233.303 127.729C230.764 122.712 230.615 122.456 230.039 122.456C229.314 122.456 229.292 122.648 229.975 123.732C230.274 124.2 230.508 124.625 230.508 124.689C230.508 124.774 230.722 125.263 230.978 125.815C231.34 126.623 231.447 127.218 231.447 129.047C231.468 131.151 231.426 131.343 230.764 132.64C230.103 133.936 229.164 135.254 228.268 136.169C226.199 138.273 220.844 140.952 218.711 140.952C218.284 140.952 217.879 141.037 217.815 141.165C217.751 141.271 218.028 142.079 218.455 142.972C218.86 143.843 219.202 144.63 219.202 144.715C219.202 144.842 219.458 145.438 221.186 149.349C221.548 150.178 222.359 151.943 222.999 153.282C223.639 154.622 224.343 156.152 224.578 156.684C225.09 157.789 225.004 157.662 227.266 161.999C229.698 166.739 230.743 168.653 231.063 169.035C231.234 169.206 231.362 169.439 231.362 169.503C231.362 169.588 231.618 170.056 231.938 170.566C232.258 171.055 232.62 171.629 232.748 171.82C233.751 173.479 234.882 175.307 234.988 175.392C235.052 175.456 235.628 176.327 236.247 177.327C236.866 178.347 237.527 179.346 237.719 179.559C237.911 179.793 238.359 180.345 238.722 180.813C239.063 181.281 239.426 181.77 239.532 181.876C239.618 182.004 240.172 182.748 240.748 183.534C242.391 185.809 245.826 189.593 246.679 190.04C247.938 190.72 250.498 190.762 252.802 190.167ZM262.21 179.367C263.042 179.049 263.724 178.475 264.599 177.39C265.132 176.689 265.282 176.306 265.282 175.562C265.282 175.052 265.132 174.435 264.962 174.201C264.791 173.989 264.642 173.627 264.642 173.415C264.642 173.181 264.514 172.713 264.343 172.352C264.194 171.969 263.895 171.246 263.682 170.715C263.49 170.183 263.148 169.376 262.935 168.908C262.722 168.44 262.402 167.611 262.21 167.058C262.018 166.506 261.783 165.868 261.676 165.676C261.57 165.464 261.314 164.869 261.122 164.337C260.93 163.806 260.631 163.104 260.482 162.743C259.266 159.873 258.882 158.937 258.882 158.703C258.882 158.533 258.732 158.151 258.562 157.811C258.114 156.96 257.495 155.472 257.09 154.303C256.898 153.75 256.663 153.112 256.556 152.921C256.172 152.177 255.042 149.392 255.042 149.201C255.042 149.073 254.892 148.648 254.7 148.223C253.932 146.479 253.762 146.097 253.122 144.46C252.738 143.524 252.29 142.419 252.098 142.015C251.927 141.611 251.65 140.931 251.479 140.527C251.308 140.123 251.031 139.506 250.86 139.187C250.69 138.847 250.562 138.465 250.562 138.295C250.562 138.146 250.284 137.38 249.943 136.573C249.602 135.765 249.026 134.34 248.642 133.405C248.279 132.47 247.831 131.428 247.682 131.066C246.999 129.514 245.42 125.603 244.78 123.945C244.418 122.945 243.82 121.542 243.5 120.798C243.159 120.075 242.882 119.374 242.882 119.246C242.882 119.119 242.754 118.757 242.604 118.46C242.434 118.141 242.028 117.312 241.687 116.61C241.111 115.42 240.258 114.378 239.874 114.378C239.468 114.378 239.042 115.101 239.042 115.802C239.042 118.268 235.671 121.819 233.346 121.819C232.471 121.819 232.002 122.01 232.002 122.35C232.002 122.52 232.428 123.243 232.94 124.008C233.452 124.752 234.178 125.922 234.562 126.623C234.946 127.304 235.33 127.984 235.415 128.09C235.586 128.324 236.802 130.599 238.679 134.149C239.383 135.488 240.087 136.828 240.258 137.125C241.708 139.634 251.97 159.936 253.335 162.955C253.591 163.551 254.338 165.124 254.978 166.463C256.492 169.588 256.706 170.056 258.092 173.266C258.732 174.733 259.458 176.391 259.714 176.965C259.948 177.539 260.162 178.177 260.162 178.39C260.162 178.857 260.887 179.644 261.292 179.623C261.42 179.623 261.847 179.495 262.21 179.367ZM125.228 160.957C127.682 160.234 129.367 159.256 131.01 157.64C132.972 155.685 134.018 153.644 134.658 150.476L134.764 149.923L133.1 149.817C132.162 149.775 130.754 149.626 129.922 149.477C129.111 149.349 127.383 149.094 126.082 148.903C124.802 148.733 123.202 148.499 122.562 148.371C121.922 148.265 120.62 148.074 119.682 147.946C116.61 147.542 114.156 147.16 112.962 146.926C112.322 146.82 111.127 146.607 110.295 146.458C108.375 146.161 104.812 145.48 103.554 145.183C103.02 145.076 101.996 144.885 101.314 144.757C98.9671 144.375 97.2817 144.035 97.0684 143.907C96.9617 143.822 96.3217 143.652 95.6604 143.524C94.6791 143.312 94.2524 143.333 93.1004 143.631C88.7484 144.715 85.0577 145.076 79.4471 144.906C75.3724 144.8 72.8764 144.502 70.6151 143.886C70.1457 143.758 69.4204 143.588 69.0151 143.482C66.7964 143.014 61.0791 140.314 57.6444 138.124L56.3857 137.317L55.7244 137.742C54.8284 138.295 51.1804 140.08 50.2417 140.42C48.5777 141.037 46.5937 142.036 46.4871 142.334C46.3164 142.78 46.7644 144.736 47.3191 145.799C48.2364 147.649 51.5431 149.881 53.3351 149.881C54.4871 149.881 56.7057 150.412 61.3351 151.794C64.7484 152.815 65.6444 153.112 66.3484 153.41C66.7111 153.559 67.5644 153.835 68.2684 154.048C68.9724 154.239 69.9324 154.537 70.4017 154.664C70.8711 154.813 71.8311 155.111 72.5351 155.302C73.2391 155.515 74.1777 155.812 74.6257 155.961C75.0524 156.131 75.6711 156.259 75.9697 156.259C76.2684 156.259 76.6951 156.365 76.9297 156.492C77.1644 156.62 77.8044 156.79 78.3591 156.896C80.2791 157.279 82.3697 157.704 84.4817 158.172C85.6551 158.427 87.1057 158.725 87.6817 158.81C93.0364 159.703 94.6151 159.936 96.6417 160.192C97.9431 160.362 99.3297 160.532 99.7351 160.596C100.802 160.766 109.676 161.361 112.215 161.446C113.388 161.488 116.46 161.488 119.042 161.467C123.095 161.425 123.927 161.34 125.228 160.957ZM134.167 148.69C134.636 148.52 134.615 148.393 133.847 146.798C132.887 144.757 131.714 143.95 128.556 143.163C123.692 141.951 122.796 141.802 121.73 142.057C121.09 142.206 118.146 142.291 113.388 142.291C106.796 142.313 105.73 142.249 103.255 141.845L100.482 141.377L98.9244 141.866C98.0711 142.142 97.3457 142.461 97.3457 142.568C97.3031 142.78 100.695 143.482 101.826 143.503C102.21 143.503 103.127 143.631 103.852 143.801C104.578 143.971 106.135 144.268 107.308 144.46C108.482 144.651 109.868 144.885 110.402 144.991C110.935 145.098 112.087 145.289 112.962 145.416C113.836 145.544 115.436 145.778 116.482 145.948C117.548 146.139 119.532 146.416 120.94 146.586C122.327 146.777 123.543 146.968 123.65 147.011C123.735 147.075 124.46 147.202 125.271 147.33C129.644 147.904 131.522 148.201 132.482 148.478C133.804 148.86 133.762 148.839 134.167 148.69ZM86.4871 143.057C89.4524 142.674 96.1724 141.228 97.8791 140.612C99.7991 139.91 100.375 139.676 102.188 138.932C103.255 138.486 105.218 137.614 106.562 136.976C107.906 136.339 109.314 135.701 109.655 135.531C110.018 135.382 111.511 134.659 113.026 133.958C114.519 133.235 115.799 132.661 115.863 132.661C115.927 132.661 116.332 132.512 116.759 132.321C119.938 130.896 119.98 130.896 125.122 129.238C126.935 128.643 128.727 128.069 129.068 127.963C129.431 127.835 130.05 127.644 130.455 127.559C130.86 127.474 131.5 127.282 131.842 127.176C133.826 126.496 135.362 126.241 139.564 125.858C142.124 125.624 144.514 125.39 144.855 125.305C146.647 124.965 149.74 124.54 151.212 124.434C152.514 124.348 152.855 124.391 152.855 124.625C152.855 124.944 151.084 125.56 149.591 125.773C149.1 125.837 148.503 125.964 148.268 126.07C147.82 126.262 145.644 126.751 143.575 127.155C142.871 127.282 140.844 127.474 139.074 127.559C137.303 127.644 135.532 127.814 135.127 127.941C134.722 128.069 133.826 128.345 133.122 128.537C131.479 128.962 127.746 130.089 126.999 130.365C126.7 130.471 126.124 130.641 125.719 130.748C124.994 130.939 122.412 131.811 121.068 132.342C119.404 132.98 116.866 134 116.268 134.277C115.159 134.766 110.999 136.7 109.228 137.55C107.735 138.273 104.834 139.443 103.746 139.761C103.532 139.825 103.362 139.974 103.362 140.08C103.362 140.506 104.3 140.591 109.442 140.697C115.074 140.803 121.047 140.506 123.863 139.974C124.759 139.804 125.762 139.676 126.124 139.676C126.466 139.676 127.234 139.549 127.81 139.379C128.386 139.209 129.815 138.869 130.988 138.592C132.162 138.337 133.271 138.061 133.442 137.976C133.975 137.721 135.212 137.317 136.066 137.104C136.514 136.998 137.026 136.828 137.239 136.721C137.431 136.615 138.028 136.36 138.562 136.169C139.095 135.977 139.82 135.68 140.162 135.531C140.524 135.361 141.186 135.084 141.655 134.872C142.124 134.68 142.935 134.34 143.468 134.106C145.111 133.384 146.988 132.597 147.628 132.342C148.759 131.896 151.532 130.918 152.108 130.769C152.471 130.684 153.474 130.365 154.348 130.067C155.223 129.791 156.524 129.366 157.228 129.174C157.932 128.962 158.935 128.643 159.447 128.494C159.98 128.324 160.62 128.196 160.898 128.196C161.175 128.196 161.452 128.048 161.516 127.878C161.687 127.431 161.218 126.921 160.663 126.921C160.428 126.921 158.188 125.922 155.714 124.689C153.239 123.456 151.106 122.456 150.978 122.456C150.444 122.456 147.436 120.926 146.54 120.182C145.495 119.331 143.959 117.439 143.468 116.398C142.402 114.059 142.338 113.74 142.316 110.126L142.274 106.618L141.506 106.406C141.079 106.299 140.652 106.129 140.567 106.044C140.482 105.938 140.268 105.874 140.119 105.874C139.052 105.874 134.231 102.919 131.948 100.857C131.65 100.602 130.604 99.6878 129.602 98.8374C128.599 98.0083 127.746 97.2429 127.682 97.1792C127.596 97.0516 124.802 94.6706 122.028 92.332C121.687 92.0344 120.748 91.2266 119.98 90.5463C119.191 89.8447 118.487 89.292 118.402 89.292C118.316 89.292 117.762 88.888 117.164 88.3778C114.519 86.2094 114.028 86.1243 113.815 87.74C113.751 88.1865 113.474 88.8668 113.218 89.2282C112.599 90.0998 110.914 91.5667 110.103 91.9494C109.42 92.2683 104.45 94.0328 103.148 94.4155C102.743 94.543 102.316 94.7343 102.188 94.8406C102.082 94.9469 101.826 95.032 101.612 95.032C101.42 95.032 100.93 95.1595 100.546 95.3296C100.162 95.4784 99.5004 95.7335 99.0951 95.8611C98.6897 96.0099 97.5804 96.4138 96.6417 96.754C95.7031 97.1154 94.6577 97.4768 94.2951 97.6043C93.9537 97.7106 93.4631 97.8807 93.2284 98.0083C92.9937 98.1146 92.2257 98.3909 91.5217 98.6248C90.8177 98.8586 89.7084 99.2626 89.0684 99.4964C86.8711 100.326 86.1884 100.581 85.6551 100.772C85.3564 100.878 84.5884 101.155 83.9484 101.41C83.3084 101.665 82.4551 101.941 82.0497 102.048C81.6657 102.154 81.2391 102.324 81.1111 102.451C80.9831 102.579 80.6844 102.685 80.4284 102.685C80.1724 102.685 79.8737 102.792 79.7457 102.919C79.6177 103.047 79.1911 103.217 78.8071 103.323C78.4017 103.429 77.5484 103.706 76.9084 103.961C76.2684 104.216 75.5004 104.492 75.2017 104.599C73.7511 105.088 70.4871 106.299 69.4417 106.725C68.8017 106.98 67.9057 107.32 67.4791 107.49C67.0311 107.66 66.2844 107.936 65.8151 108.106C65.3457 108.276 64.5991 108.553 64.1724 108.723C63.7244 108.893 62.9564 109.169 62.4657 109.361C61.2924 109.786 60.0551 110.254 59.0524 110.636C57.3884 111.232 56.4924 111.593 54.8284 112.252C53.8897 112.635 52.7591 113.06 52.3324 113.23C51.8844 113.4 51.1377 113.676 50.6684 113.846C50.1991 114.016 49.4097 114.314 48.9191 114.505C48.4071 114.697 47.7244 114.973 47.3617 115.122C47.0204 115.271 46.1244 115.611 45.3777 115.845C44.6524 116.1 43.8844 116.376 43.6711 116.483C43.4791 116.589 42.7324 116.908 42.0284 117.163C41.3244 117.439 40.6631 117.737 40.5564 117.822C40.4284 117.907 40.2151 117.992 40.0444 117.992C39.8737 117.992 39.4471 118.12 39.0844 118.29C38.7004 118.46 37.9324 118.757 37.3777 118.97C36.8231 119.161 36.3111 119.395 36.2684 119.501C36.0977 119.756 43.1164 126.049 45.2497 127.559C45.6764 127.856 48.0444 129.621 48.7697 130.174C49.9217 131.066 54.0817 133.936 54.2097 133.936C54.2951 133.936 54.7004 134.192 55.1271 134.532C55.5537 134.851 56.0871 135.212 56.3217 135.361C56.5564 135.51 57.6231 136.147 58.6684 136.785C59.7351 137.402 61.1644 138.231 61.8684 138.613C62.5724 138.975 63.2977 139.358 63.4684 139.464C64.1084 139.825 66.6684 140.952 66.8817 140.952C66.9884 140.952 67.3937 141.08 67.7777 141.25C69.3351 141.93 72.6844 142.695 75.0951 142.95C78.3591 143.312 84.1404 143.354 86.4871 143.057ZM132.716 142.759C132.78 142.589 132.695 142.249 132.503 141.972C132.311 141.717 132.162 141.292 132.162 141.037C132.162 140.144 131.692 140.038 129.858 140.42C128.919 140.633 128.044 140.867 127.895 140.952C127.426 141.25 127.852 141.526 128.962 141.675C130.156 141.845 130.946 142.121 131.714 142.695C132.332 143.163 132.567 143.184 132.716 142.759ZM47.0844 140.569C47.1697 140.378 50.7751 138.528 51.5217 138.295C51.8204 138.21 52.5457 137.912 53.1217 137.636C53.7191 137.38 54.3804 137.125 54.6151 137.083C55.3617 136.955 55.0844 136.424 53.8897 135.722C53.2497 135.361 52.5671 134.851 52.3537 134.595C51.8844 134.021 51.5857 134.021 50.1991 134.723C48.8551 135.403 47.3617 136.743 46.8284 137.763C46.4017 138.613 46.0817 140.187 46.2951 140.527C46.4444 140.782 46.9777 140.824 47.0844 140.569ZM219.948 138.932C221.143 138.55 222.53 137.976 222.999 137.678C223.49 137.38 223.959 137.125 224.066 137.125C224.343 137.125 226.711 135.34 227.394 134.617C228.418 133.511 229.57 131.3 229.783 129.961C229.932 128.94 229.954 128.962 227.735 128.749C226.647 128.643 225.73 128.473 222.188 127.707C220.887 127.41 219.65 127.07 217.175 126.347C216.599 126.177 215.639 125.9 215.042 125.752C213.996 125.475 213.122 125.178 208.108 123.477C206.764 123.009 205.463 122.584 205.228 122.52C204.994 122.478 204.61 122.35 204.375 122.244C204.14 122.138 203.287 121.84 202.455 121.585C201.644 121.33 200.684 120.99 200.322 120.841C199.98 120.692 198.679 120.245 197.442 119.82C196.204 119.416 194.242 118.736 193.068 118.311C191.895 117.886 190.359 117.354 189.655 117.12C188.951 116.865 188.098 116.546 187.735 116.398C187.394 116.249 185.09 115.377 182.615 114.484C180.162 113.57 177.644 112.613 177.068 112.337C176.471 112.082 175.703 111.784 175.362 111.699C174.999 111.614 174.636 111.487 174.508 111.402C174.402 111.317 173.676 111.04 172.908 110.764C172.14 110.487 171.287 110.126 170.988 109.977C170.69 109.828 170.348 109.701 170.199 109.701C170.05 109.701 169.623 109.573 169.239 109.403C168.855 109.233 168.194 108.957 167.746 108.765C167.319 108.574 166.871 108.425 166.722 108.425C166.572 108.425 166.018 108.298 165.463 108.128C164.93 107.958 164.034 107.724 163.458 107.596C162.242 107.32 157.975 107.277 157.292 107.554C157.015 107.66 156.034 107.894 155.095 108.106C154.156 108.298 153.004 108.553 152.535 108.659C152.066 108.787 151.063 109.021 150.295 109.169C149.527 109.339 148.29 109.616 147.522 109.807C146.754 109.998 145.644 110.254 145.026 110.36C143.81 110.615 143.575 110.913 143.874 111.912C145.047 115.93 145.623 117.057 147.223 118.481C148.034 119.204 151.874 121.181 152.45 121.181C152.578 121.181 152.94 121.308 153.239 121.478C153.559 121.649 154.348 122.031 154.988 122.35C155.628 122.648 156.695 123.179 157.335 123.519C159.276 124.519 166.636 128.026 168.748 128.94C169.111 129.111 170.263 129.578 171.308 130.003C172.375 130.429 173.42 130.875 173.655 130.96C173.89 131.066 174.615 131.364 175.255 131.598C175.895 131.853 176.748 132.193 177.132 132.363C177.516 132.533 178.007 132.661 178.242 132.661C178.455 132.661 178.69 132.746 178.754 132.852C178.882 133.044 181.804 134 184.962 134.914C185.666 135.106 186.647 135.403 187.159 135.573C187.65 135.722 188.226 135.85 188.418 135.85C188.61 135.85 189.25 135.977 189.847 136.147C191.682 136.679 193.41 137.083 195.308 137.444C196.311 137.636 197.463 137.869 197.868 137.976C198.274 138.082 199.148 138.231 199.788 138.295C200.428 138.38 201.644 138.571 202.455 138.72C206.615 139.549 210.69 139.889 214.914 139.719C217.388 139.634 218.071 139.528 219.948 138.932ZM49.2817 133.469C50.0284 133.129 49.9431 132.788 49.0257 132.214C48.0657 131.619 45.8897 129.918 45.8044 129.663C45.6764 129.344 45.1217 129.451 45.1217 129.791C45.1217 130.599 47.6817 133.724 48.3217 133.724C48.5564 133.724 48.9831 133.618 49.2817 133.469ZM229.868 127.622C229.847 126.644 229.079 124.944 227.991 123.583C227.308 122.69 225.09 121.181 224.471 121.181C224.3 121.181 223.874 121.053 223.532 120.883C222.359 120.309 220.652 119.65 219.308 119.268C218.967 119.182 218.135 118.885 217.495 118.63C215.191 117.737 214.615 117.546 213.975 117.375C213.634 117.269 213.1 117.099 212.802 116.993C212.503 116.865 211.735 116.61 211.095 116.398C210.455 116.206 209.73 115.951 209.495 115.845C208.919 115.59 207.298 115.037 206.508 114.803C205.954 114.654 204.738 114.229 202.028 113.294C201.687 113.166 201.111 112.996 200.748 112.89C199.895 112.656 198.7 112.231 198.252 112.018C198.039 111.912 197.527 111.742 197.079 111.635C196.631 111.529 195.927 111.317 195.522 111.168C195.116 111.04 194.434 110.806 194.028 110.658C193.623 110.509 192.94 110.275 192.535 110.147C192.13 109.998 191.511 109.807 191.148 109.701C190.316 109.467 189.207 109.084 188.311 108.723C187.927 108.553 187.394 108.425 187.138 108.425C186.86 108.425 186.562 108.34 186.434 108.255C186.327 108.149 185.516 107.851 184.642 107.596C183.767 107.32 182.807 107.022 182.508 106.895C182.21 106.767 181.698 106.597 181.335 106.512C180.994 106.406 180.418 106.236 180.055 106.108C179.714 105.98 178.412 105.577 177.175 105.215C175.938 104.875 174.615 104.429 174.231 104.258C173.847 104.088 173.356 103.961 173.164 103.961C172.951 103.961 172.695 103.876 172.567 103.77C172.46 103.642 171.991 103.472 171.522 103.344C171.052 103.217 170.135 102.962 169.495 102.77C168.855 102.579 167.788 102.303 167.106 102.154C166.444 102.005 165.804 101.814 165.698 101.75C165.314 101.516 160.535 100.772 159.447 100.772C158.871 100.772 157.655 100.9 156.759 101.07C152.258 101.899 151.34 102.048 150.7 102.048C148.93 102.048 146.775 102.962 145.58 104.237C145.047 104.811 144.322 106.236 144.322 106.746C144.322 106.937 144.172 107.447 144.002 107.851C143.404 109.276 143.916 109.573 145.73 108.872C146.306 108.638 147.735 108.255 148.908 108C150.082 107.745 151.276 107.469 151.575 107.362C151.874 107.277 152.876 107.043 153.815 106.831C154.754 106.64 156.076 106.321 156.759 106.172C158.572 105.747 162.434 105.81 164.375 106.299C166.914 106.937 167.98 107.256 170.135 108.106C171.244 108.532 172.738 109.106 173.442 109.361C175.767 110.254 177.132 110.785 178.391 111.317C178.754 111.487 179.159 111.614 179.287 111.614C179.479 111.614 179.906 111.784 181.548 112.507C181.783 112.592 182.274 112.762 182.615 112.868C182.978 112.975 183.788 113.272 184.428 113.528C185.068 113.783 185.836 114.059 186.135 114.165C186.434 114.272 187.479 114.654 188.482 115.016C189.484 115.398 191.212 116.015 192.322 116.419C193.431 116.823 194.732 117.312 195.202 117.482C195.671 117.673 196.354 117.886 196.695 117.992C197.058 118.077 197.868 118.375 198.508 118.63C199.148 118.885 199.874 119.14 200.108 119.204C200.343 119.268 201.644 119.693 202.988 120.182C204.332 120.649 205.74 121.096 206.082 121.202C206.444 121.287 207.532 121.67 208.535 122.052C209.538 122.414 210.732 122.839 211.202 122.988C211.671 123.115 212.204 123.286 212.375 123.349C212.738 123.498 214.551 124.03 217.922 125.008C219.159 125.369 220.46 125.752 220.823 125.858C221.442 126.049 221.826 126.156 224.962 126.815C226.988 127.24 228.823 127.729 228.972 127.856C229.25 128.133 229.868 127.963 229.868 127.622ZM231.042 120.649C232.108 120.458 233.047 120.203 233.175 120.097C233.282 119.99 233.58 119.905 233.858 119.905C234.498 119.905 236.844 117.631 237.036 116.801C237.122 116.461 237.25 116.079 237.356 115.972C237.804 115.398 237.89 112.847 237.74 105.938C237.634 101.856 237.506 98.3059 237.42 98.0083C237.356 97.7106 237.207 96.2863 237.122 94.8194C236.823 89.9723 236.482 85.8055 236.162 83.1268C235.991 81.6599 235.799 79.6615 235.735 78.6623C235.671 77.6632 235.522 76.1963 235.415 75.3672C235.308 74.5593 235.074 72.6885 234.882 71.2216C234.412 67.7563 233.986 65.5454 233.538 64.6312C233.047 63.6108 228.46 59.0826 225.154 56.3401C224.386 55.7023 222.935 54.4693 221.954 53.6189C219.906 51.8332 219.244 51.2804 218.54 50.7702C218.263 50.5576 217.367 49.8348 216.535 49.1545C215.148 48.0277 213.719 46.8797 211.458 45.1365C210.967 44.7538 210.476 44.3712 210.348 44.2649C209.666 43.7334 205.634 40.672 205.25 40.3957C205.015 40.2256 203.287 38.95 201.452 37.5895C199.596 36.2076 198.039 35.0809 197.996 35.0809C197.932 35.0809 197.143 34.5281 196.226 33.8478C195.308 33.1675 194.028 32.2534 193.388 31.8069C192.748 31.3817 191.447 30.4889 190.508 29.8298C189.57 29.1708 187.372 27.6614 185.602 26.4709C183.852 25.2803 181.762 23.8772 180.994 23.3457C180.204 22.8143 179.479 22.3466 179.394 22.304C179.18 22.1977 174.978 19.4978 174.146 18.9026C173.847 18.69 172.738 18.0097 171.714 17.3932C170.69 16.7766 169.602 16.0963 169.303 15.905C169.004 15.6924 168.556 15.4373 168.322 15.3097C168.087 15.1822 167.639 14.9271 167.319 14.7145C164.695 13.0137 160.919 10.8453 159.042 9.97367C158.508 9.71856 157.783 9.37841 157.42 9.20833C156.332 8.69811 155.991 8.88945 155.692 10.2075C154.604 15.0972 153.922 28.7669 154.05 42.6279C154.092 48.134 154.178 52.8536 154.242 53.1512C154.306 53.4489 154.434 56.3614 154.562 59.6353C154.668 62.9092 154.86 66.5446 154.988 67.7138C155.095 68.8831 155.308 71.094 155.436 72.6034C155.778 76.5789 155.97 78.2584 156.354 80.8733C156.716 83.2969 157.804 87.9526 158.167 88.5904C158.295 88.803 158.679 89.6534 159.042 90.4612C160.108 92.8423 161.388 94.6068 163.586 96.7965C164.503 97.7106 165.015 98.3484 164.93 98.5397C164.759 99.0075 164.524 98.9437 163.372 98.1783C158.679 95.032 155.522 87.8251 154.562 78.0246C154.434 76.7915 154.284 75.601 154.22 75.3672C154.007 74.538 153.495 68.0327 153.175 62.2289C153.004 58.9763 152.812 56.2338 152.748 56.1488C152.684 56.0425 152.642 49.282 152.642 41.1185C152.62 25.7906 152.834 19.9868 153.623 14.2468C153.943 11.9083 154.434 9.93115 154.796 9.44219C155.244 8.86819 154.284 8.76189 153.239 9.29337C152.194 9.80359 152.066 9.86737 149.868 10.7177C148.759 11.1429 147.564 11.6319 147.202 11.7807C146.284 12.1634 145.175 12.546 144.343 12.7586C143.959 12.8649 143.532 13.035 143.404 13.1626C143.276 13.2901 143.02 13.3964 142.85 13.3964C142.21 13.3964 139.948 14.4381 139.372 14.9696C139.031 15.2885 138.732 15.8625 138.668 16.3302C138.583 16.7554 138.391 17.7333 138.242 18.4986C137.815 20.497 137.495 23.0906 137.26 26.2583C137.154 27.7889 136.983 30.2125 136.855 31.6794C136.514 35.9737 136.364 57.4669 136.62 63.8872C136.962 72.6247 137.452 78.7474 138.178 83.2331C138.306 84.0622 138.476 85.4015 138.562 86.2094C138.754 88.1014 139.266 90.1849 140.375 93.7564C140.866 95.3296 142.103 98.072 142.892 99.3901C143.575 100.496 144.812 102.09 145.09 102.196C145.26 102.26 145.73 102.005 146.135 101.665C146.903 100.985 147.65 100.708 149.655 100.347C150.295 100.24 151.404 100.028 152.108 99.9003C152.812 99.7728 154.028 99.5815 154.796 99.4964C155.564 99.3901 156.631 99.1988 157.143 99.0712C158.679 98.646 165.058 99.4326 168.428 100.453C168.962 100.602 169.964 100.9 170.668 101.091C171.372 101.303 172.29 101.58 172.695 101.729C173.463 101.984 173.996 102.154 177.815 103.323C179.052 103.706 180.738 104.258 181.548 104.535C182.38 104.832 183.34 105.13 183.682 105.236C184.044 105.321 184.898 105.619 185.602 105.874C186.306 106.108 187.18 106.406 187.543 106.491C187.927 106.597 188.332 106.746 188.503 106.831C188.652 106.937 189.122 107.086 189.527 107.171C190.316 107.32 191.319 107.66 192.471 108.149C192.834 108.298 193.26 108.425 193.431 108.425C193.58 108.447 194.818 108.829 196.162 109.297C197.506 109.743 199.682 110.487 200.962 110.891C202.263 111.317 203.65 111.784 204.055 111.933C204.46 112.082 205.143 112.316 205.548 112.443C205.954 112.592 206.594 112.805 206.935 112.89C207.298 112.996 208.535 113.421 209.708 113.846C210.882 114.272 212.14 114.697 212.482 114.803C212.844 114.888 213.655 115.186 214.295 115.441C214.935 115.696 215.66 115.951 215.895 116.015C216.13 116.057 216.514 116.206 216.748 116.312C216.983 116.398 217.794 116.695 218.562 116.95C219.33 117.184 220.247 117.524 220.631 117.694C220.994 117.864 221.399 117.992 221.527 117.992C221.655 117.992 222.103 118.141 222.551 118.332C222.999 118.523 223.66 118.821 224.002 118.949C226.263 119.905 226.924 120.245 227.351 120.692C227.884 121.266 227.735 121.266 231.042 120.649ZM33.1111 118.97C33.4311 118.8 34.0497 118.523 34.4551 118.353C34.8604 118.183 35.8417 117.737 36.6311 117.375C37.4204 117.014 38.1671 116.716 38.2737 116.716C38.4017 116.716 38.8497 116.568 39.2977 116.376C39.7457 116.185 40.4071 115.909 40.7484 115.76C41.1111 115.611 41.7511 115.335 42.1991 115.143C42.6471 114.952 43.0951 114.803 43.2231 114.803C43.3511 114.803 43.7564 114.676 44.1191 114.505C44.5031 114.357 45.1857 114.08 45.6551 113.889C46.1244 113.719 47.3191 113.23 48.3217 112.826C49.3244 112.422 50.6257 111.933 51.2017 111.742C51.7991 111.55 52.5671 111.253 52.9084 111.104C53.2711 110.934 54.7431 110.36 56.2151 109.807C57.6871 109.254 59.3724 108.617 59.9484 108.383C60.5457 108.149 61.2497 107.894 61.5484 107.788C61.8471 107.681 62.6151 107.405 63.2551 107.15C65.6231 106.236 67.8631 105.406 68.5884 105.194C68.9937 105.088 69.4417 104.896 69.5484 104.811C69.6764 104.726 70.3377 104.45 71.0417 104.216C71.7457 103.961 72.8551 103.557 73.4951 103.323C74.1351 103.068 74.9031 102.792 75.2017 102.685C75.5004 102.6 75.9697 102.43 76.2684 102.303C76.5671 102.175 77.6764 101.771 78.7217 101.388C79.7884 101.027 80.8764 100.623 81.1751 100.496C81.4737 100.389 82.4337 100.028 83.3084 99.709C84.1831 99.3901 85.7191 98.8161 86.7217 98.4547C87.7244 98.072 88.8764 97.6681 89.2817 97.5406C89.6871 97.4343 90.1351 97.2429 90.2417 97.1579C90.3697 97.0729 90.6897 96.9453 90.9884 96.8815C91.2871 96.8177 92.0551 96.5626 92.6951 96.3075C93.3351 96.0524 94.1671 95.776 94.5084 95.6697C94.8711 95.5635 95.6817 95.2871 96.3217 95.032C97.8577 94.4367 102.658 92.7147 103.468 92.4596C103.831 92.3533 104.3 92.1832 104.535 92.0982C104.77 91.9919 105.538 91.7368 106.242 91.5242C109.164 90.6313 111.17 89.462 112.087 88.0802C112.791 87.0385 112.919 86.1881 112.492 85.6354C112.151 85.2315 110.764 84.3173 108.524 82.9992C107.543 82.4252 106.476 81.7874 106.178 81.5961C105.858 81.3835 105.452 81.1497 105.282 81.0646C104.919 80.8733 103.447 79.9166 100.354 77.897C99.2017 77.1529 98.2204 76.5364 98.1351 76.5364C98.0711 76.5364 97.4524 76.175 96.7911 75.7286C96.1297 75.2821 95.1057 74.6443 94.5297 74.2829C93.1431 73.4538 93.0791 73.4113 90.9884 72.0507C89.9857 71.4129 89.0257 70.8177 88.8551 70.7326C88.6844 70.6476 88.3431 70.4563 88.1084 70.3074C87.8737 70.1586 87.2977 69.7972 86.8284 69.5209C86.3377 69.2232 85.7617 68.8618 85.5484 68.7343C84.5244 68.0965 82.0497 66.9697 81.6657 66.9697C80.8337 66.9697 79.0417 66.3107 79.0417 66.0131C79.0417 65.5879 79.7244 65.269 80.5777 65.269C81.9857 65.269 85.1857 66.417 86.9777 67.565C88.2577 68.3729 90.6684 69.861 91.5004 70.35C92.3751 70.8602 94.5724 72.2633 96.2791 73.3688C96.7911 73.7089 97.2391 73.9853 97.3244 73.9853C97.3884 73.9853 97.8577 74.2829 98.3911 74.6231C98.9031 74.9845 99.3724 75.2609 99.4151 75.2609C99.4577 75.2609 99.9271 75.5585 100.439 75.8986C100.972 76.26 101.442 76.5364 101.506 76.5364C101.57 76.5364 102.231 76.9403 102.978 77.4293C103.724 77.9395 104.471 78.4285 104.663 78.556C105.004 78.7686 107.756 80.4694 108.46 80.8946C108.652 81.0221 109.57 81.6174 110.487 82.2339C111.426 82.8292 112.3 83.3394 112.428 83.3394C112.919 83.3394 113.175 82.7866 113.175 81.7449C113.175 80.5119 113.004 80.2993 111.042 79.045C110.402 78.6198 109.292 77.9183 108.588 77.4718C107.884 77.0254 107.138 76.5577 106.946 76.4301C104.791 75.1333 103.447 74.3042 103.362 74.1766C103.298 74.1129 102.85 73.8152 102.359 73.5389C100.738 72.6034 96.2364 69.8823 95.5751 69.4358C95.2337 69.1807 94.7431 68.8831 94.5084 68.7343C92.5884 67.6075 87.7671 64.6525 87.2551 64.2911C86.9137 64.0572 85.9537 63.547 85.1217 63.1643C84.3111 62.7817 83.3511 62.3352 83.0311 62.1652C82.1351 61.7187 79.9164 61.7825 78.5937 62.314C77.3137 62.8029 75.6711 63.5257 73.8151 64.4186C72.4284 65.0777 71.2977 65.5879 68.8017 66.6509C67.2871 67.3099 65.4524 68.139 62.4657 69.5421C61.7191 69.8823 61.0791 70.1586 61.0151 70.1586C60.9511 70.1586 60.3111 70.435 59.5857 70.7752C56.8551 72.0294 55.3191 72.7097 55.2124 72.7097C55.0631 72.7097 54.0177 73.1775 51.5217 74.3467C50.4124 74.8782 49.2177 75.4309 48.8551 75.5798C48.5137 75.7286 47.7457 76.0687 47.1484 76.3238C46.5724 76.5789 45.5911 77.0254 45.0151 77.3018C44.4177 77.5781 43.8631 77.812 43.7564 77.812C43.5644 77.812 39.9591 79.4702 38.5084 80.2355C37.9751 80.5119 36.6951 81.1072 35.6284 81.5536C34.5831 82 33.5164 82.489 33.2817 82.6378C33.0471 82.7866 32.7484 82.9142 32.5991 82.9142C32.3431 82.9142 31.7457 83.1693 28.5884 84.6149C28.1191 84.8275 27.1591 85.2527 26.4551 85.5716C25.7511 85.8692 24.5777 86.422 23.8524 86.7621C23.1057 87.1023 22.4017 87.3786 22.2737 87.3786C22.1457 87.3786 21.7831 87.5062 21.4844 87.6763C20.4391 88.2077 18.0497 89.292 17.8791 89.292C17.7937 89.292 17.0897 89.5896 16.3217 89.951C15.5537 90.3124 14.6577 90.7376 14.2951 90.8864C11.4364 92.1832 10.7324 92.4809 10.6471 92.4809C10.6044 92.4809 9.96439 92.7572 9.21773 93.0974C8.49239 93.4375 6.80706 94.1603 5.48439 94.7131C3.28706 95.6485 3.05239 95.7973 2.75372 96.4989C2.32706 97.498 2.00706 98.9012 1.87906 100.326C1.72972 101.856 2.45506 103.259 4.22572 104.96C5.59106 106.257 8.27906 108.425 8.51373 108.425C8.59906 108.425 9.47373 108.957 10.4764 109.616C11.4791 110.254 12.5031 110.87 12.7591 110.998C13.0151 111.104 13.5271 111.38 13.8684 111.614C14.2311 111.848 15.0417 112.316 15.6817 112.656C16.3217 112.996 17.2817 113.528 17.8151 113.846C18.3484 114.144 19.0097 114.505 19.3084 114.633C20.4817 115.164 21.5697 115.675 21.8684 115.866C22.3164 116.142 26.0497 117.843 27.2017 118.29C27.7351 118.502 28.4604 118.8 28.8017 118.949C29.6764 119.331 32.3431 119.353 33.1111 118.97ZM42.9884 76.2388C43.1591 76.1112 43.6497 75.8561 44.0551 75.6648C44.4604 75.4735 45.4417 75.027 46.2311 74.6443C47.0204 74.2829 47.7244 73.9853 47.7884 73.9853C47.8311 73.9853 48.6417 73.6452 49.5377 73.22C50.4551 72.7948 51.5431 72.3271 51.9484 72.1783L52.6951 71.9232L52.8444 70.0311C53.0364 67.4587 53.5697 63.0155 53.9537 60.6983C54.2737 58.8912 54.4017 58.2322 55.2337 54.448C55.4471 53.5764 55.8311 52.3646 56.1084 51.7694C56.6631 50.6001 56.7697 50.1749 56.4497 50.1749C56.3431 50.1749 55.1271 50.7702 53.7404 51.4717C52.3324 52.1946 50.9671 52.8536 50.6684 52.9386C49.7937 53.215 45.9964 54.9795 45.6337 55.2984C45.1857 55.6598 44.6524 56.7015 44.4604 57.6157C43.7777 60.6345 43.3084 63.1218 42.9031 65.4816C42.2204 69.6697 42.0711 70.7326 41.9004 72.1783C41.8151 73.0074 41.6444 74.2617 41.5164 75.0057C41.3671 75.7498 41.3244 76.4301 41.3884 76.5577C41.5377 76.7915 42.5191 76.6002 42.9884 76.2388ZM59.3937 49.5159C58.8604 49.2395 57.9217 49.771 57.9217 50.345C57.9217 50.5576 57.8364 50.8127 57.7511 50.919C57.4311 51.3017 56.0017 56.9566 56.0017 57.8495C56.0017 58.1472 55.9164 58.466 55.8097 58.5936C55.7031 58.6999 55.5111 59.6991 55.3617 60.8046C54.5084 67.7138 54.1671 70.0523 53.9964 70.3287C53.6551 70.8815 54.3804 71.4767 54.8497 71.0303C55.1057 70.7539 58.9031 68.8831 59.1591 68.8831C59.2871 68.8831 59.6497 68.7555 59.9911 68.5854C60.3111 68.4154 61.0151 68.0965 61.5484 67.8626C63.8951 66.8209 66.6897 65.5879 68.0551 64.9501C68.8871 64.5675 70.1244 63.9935 70.8284 63.6746C73.0471 62.6754 73.3457 62.5478 75.2017 61.6762C79.4044 59.7203 80.9404 59.5077 83.6497 60.4857C85.2924 61.0809 85.9751 61.1235 87.1911 60.762C87.9164 60.5494 88.0231 60.4432 87.9591 59.9754C87.9164 59.529 87.7457 59.4014 87.1484 59.2952C86.7431 59.2101 85.8684 58.9337 85.2284 58.6786C84.5884 58.4235 83.4151 57.9983 82.6257 57.7007C81.8364 57.4243 80.6631 56.9566 79.9804 56.659M76.0551 55.1709C75.1804 54.852 73.5377 54.2567 72.4284 53.8528C71.3191 53.4489 70.1244 53.0449 69.7617 52.9386C68.9297 52.7048 67.9911 52.3859 66.1351 51.6631C65.3244 51.3442 64.0657 50.919 63.3617 50.7064C62.6577 50.5151 61.7617 50.2174 61.3777 50.0474M223.042 51.5568C223.042 51.3867 222.764 50.7702 222.402 50.1749C222.06 49.5797 221.762 49.0057 221.762 48.8994C221.762 48.5167 220.887 47.0286 220.14 46.1782C219.5 45.4341 219.244 45.2853 218.604 45.2853C217.772 45.2853 216.855 45.9656 216.855 46.5821C216.855 46.7947 217.303 47.3262 217.879 47.7514C218.434 48.1978 218.988 48.6655 219.095 48.7718C219.223 48.8994 220.012 49.6434 220.844 50.4513C222.316 51.8332 223.042 52.1946 223.042 51.5568ZM64.3217 48.6443C64.3217 47.7939 62.9564 44.6263 62.2311 43.7759C60.8871 42.224 59.6497 42.8192 58.1777 45.753C57.6871 46.7309 57.2817 47.5813 57.2817 47.6663C57.2817 47.7301 58.1777 47.7726 59.2657 47.7726C60.6311 47.7726 61.4417 47.8577 61.8684 48.0915C62.2311 48.2616 62.8071 48.5592 63.1484 48.7293C64.0444 49.2183 64.3217 49.1757 64.3217 48.6443ZM152.834 7.61389C154.626 6.76352 156.354 6.69974 157.698 7.4013C159.554 8.37922 159.682 7.89026 158.295 5.12656C157.079 2.76678 156.204 1.91641 154.924 1.91641C154.434 1.91641 153.815 2.06522 153.58 2.2353C152.599 2.89433 150.572 8.29419 151.298 8.29419C151.362 8.29419 152.066 7.99656 152.834 7.61389Z" fill="rgb(0,0,0)" fill-rule="nonzero" transform="matrix(1,0,0,-1,0.425049,226.327)" />
			<path id="矢量 444" d="M21.7698 40.1064C21.5352 39.9788 21.1938 39.6812 21.0018 39.4473C20.7885 39.1922 20.3832 38.7245 20.0845 38.3631C19.7645 38.023 19.2525 37.3427 18.9325 36.875C18.6125 36.4073 18.2285 35.897 18.1005 35.7482C17.5885 35.1955 15.3058 31.5176 14.0898 29.2216C12.5965 26.4367 11.9992 25.3737 11.8498 25.1824C11.1885 24.3107 3.65783 9.34423 2.18583 5.94275C2.01517 5.53883 1.63117 4.6672 1.3325 4.02942C0.137833 1.43579 -0.0968333 0.755493 0.0311667 0.372826C0.3085 -0.498804 0.841833 0.117715 2.0365 2.64757C2.52717 3.71053 3.27383 5.28371 3.67917 6.15534C4.5325 7.91986 10.3138 19.5062 10.8685 20.5053C11.0605 20.8668 11.2098 21.2282 11.2098 21.3345C11.2098 21.4408 11.3378 21.6959 11.5085 21.8659C11.6578 22.0573 12.2125 23.0139 12.7458 24.0131C13.9192 26.2028 14.8365 27.9036 15.4338 28.9028C15.6685 29.3067 16.1165 30.1145 16.4152 30.6885C17.4818 32.6656 21.8765 38.8946 22.3458 39.0647C22.5592 39.171 22.5805 40.1064 22.3458 40.2552C22.2605 40.2977 22.0045 40.2339 21.7698 40.1064Z" fill="rgb(0,0,0)" fill-rule="nonzero" transform="matrix(1,0,0,-1,223.99,61.3418)" />
			<path id="矢量 445" d="M5.01375 15.8566C4.84308 15.7716 3.98975 15.6228 3.13642 15.5377C2.19775 15.4527 1.42975 15.2826 1.23775 15.0913C1.06708 14.9212 0.747083 14.7724 0.53375 14.7724C-0.0209166 14.7724 -0.17025 14.4535 0.21375 14.1346C0.46975 13.922 0.768417 13.922 1.66442 14.1346C4.07508 14.7299 9.66442 14.6236 14.9338 13.9008C15.7658 13.7945 17.1098 13.6031 17.9204 13.4968C19.4138 13.2842 20.5231 13.0716 22.2938 12.6252C22.8271 12.4976 23.7871 12.3276 24.4484 12.2213C25.0884 12.1362 25.9631 11.9662 26.3684 11.8386C27.0724 11.626 27.8618 11.4347 30.1871 10.8607C30.8271 10.6906 31.8511 10.4355 32.4271 10.2442C33.0244 10.0741 34.0271 9.77646 34.6884 9.60639C36.1391 9.20246 40.4058 7.77809 42.3471 7.05527C43.1151 6.75765 44.3098 6.33246 45.0138 6.07735C45.7178 5.82224 46.4644 5.52461 46.6564 5.41831C46.8698 5.29076 47.1898 5.20572 47.3604 5.20572C47.5311 5.20572 48.2351 4.92935 48.8964 4.56794C49.5578 4.22779 50.1978 3.93016 50.3258 3.93016C50.4538 3.9089 50.9444 3.73883 51.4138 3.50498C51.8831 3.27113 52.3524 3.10105 52.4378 3.07979C52.5231 3.07979 53.2271 2.80342 53.9738 2.44201C54.7204 2.10187 55.4458 1.80424 55.5738 1.80424C55.7018 1.80424 55.9578 1.7192 56.1711 1.59164C56.3631 1.48535 57.0244 1.18772 57.6004 0.953864C58.1978 0.720012 58.9231 0.379864 59.2431 0.20979C60.1818 -0.321692 60.9284 0.252308 60.1178 0.868827C59.7338 1.16646 54.5498 3.73883 52.4804 4.67424C51.9044 4.92935 50.8804 5.37579 50.2404 5.67342C49.0458 6.22616 47.2964 6.94898 45.9738 7.43794C45.5684 7.58676 44.8004 7.88439 44.2671 8.07572C39.9151 9.73394 34.3471 11.5197 30.6138 12.4339C30.0804 12.5614 29.1204 12.8165 28.4804 12.9654C27.3711 13.263 26.0271 13.5606 22.6138 14.2834C21.8031 14.4535 20.3524 14.6661 19.4138 14.7936C18.4751 14.8999 17.4938 15.0913 17.2164 15.1976C16.9391 15.3251 16.2778 15.4102 15.7231 15.4102C15.1684 15.4102 14.1444 15.4952 13.4404 15.6015C11.5418 15.8991 5.37642 16.0905 5.01375 15.8566Z" fill="rgb(0,0,0)" fill-rule="nonzero" transform="matrix(1,0,0,-1,152.959,64.4316)" />
		</g>
	</g>
</svg>
