<svg viewBox="0 0 268 230" xmlns="http://www.w3.org/2000/svg" xmlns:xlink="http://www.w3.org/1999/xlink" width="268.000000" height="230.000000" fill="none">
	<defs>
		<clipPath id="clipPath_0">
			<rect width="268.000000" height="221.000000" x="0.000000" y="4.000000" fill="rgb(255,255,255)" />
		</clipPath>
	</defs>
	<rect id="17" width="268.000000" height="230.000000" x="0.000000" y="0.000000" />
	<g id="17" clip-path="url(#clipPath_0)" customFrame="url(#clipPath_0)">
		<rect id="17" width="268.000000" height="221.000000" x="0.000000" y="4.000000" />
		<path id="矢量 446" d="M160.012 216.288L158.629 221.348L155.033 224.686L152.075 223.41L150.245 215.395L139.117 211.144L136.67 203.469L135.5 180.19L89.6676 165.394L64.4321 175.152L65.1769 176.257L63.3682 182.635L59.2403 182.89L56.2827 176.257L45.1332 170.645L42.6437 161.78L40.4734 143.475L3.38619 127.042L0.641357 121.451L4.51391 114.669L23.1745 105.124L33.0049 102.636L35.8348 103.742L45.0481 94.5366L48.5802 89.6894L46.2609 84.8211L47.1546 77.2528L53.4741 73.3836L57.0913 73.3836L74.1348 67.9625L100.221 62.9028L126.733 62.9028L136.372 45.1938L149.969 27.8888L158.735 21.2772L165.204 21.8086L173.459 10.605L180.247 5.7579L191.439 4.84375L210.121 6.65079L244.208 15.4309L250.23 20.4268L251.868 35.9035L257.464 37.5405L261.081 41.8349L261.081 47.4048L264.784 48.0213L266.763 51.7204L263.656 60.9257L240.846 111.714L238.442 113.5L234.739 160.228L229.569 165.649L223.718 171.771L221.994 177.873L219.654 180.87L216.93 180.7L215.206 178.553L187.077 199.111L160.012 216.288Z" fill="rgb(255,255,255)" fill-rule="nonzero" />
		<path id="矢量 447" d="M113.861 144.071L81.5184 161.036L3.02463 126.532L0.960693 120.048L4.79069 114.775L29.9623 101.765L35.7286 103.38L54.3041 88.8178L70.7305 80.5905L83.0078 79.5913L95.7319 81.3558L102.966 84.162L104.86 83.0991L118.925 83.2692L133.521 85.7352L137.138 73.6387L132.649 65.5602L126.734 62.9028L135.841 45.7041L147.033 30.5675L158.182 20.937L165.119 22.2338L174.864 8.94679L182.269 4.84375L195.801 4.84375L222.377 9.35072L245.038 15.4309L249.464 20.0654L252.443 30.0572L251.124 35.8398L255.358 36.5626L260.486 41.112L261.613 46.3843L263.975 47.4048L266.763 51.2527L266.146 55.3983L240.783 112.309L238.612 112.479L236.953 106.591L229.867 103.38L227.995 103.21L230.931 96.2798L228.973 90.7099L219.569 84.7361L206.717 84.6723L184.226 89.6044L167.481 94.6854L152.884 102.849L147.714 105.081L143.139 112.416L144.607 118.283L113.861 144.071Z" fill="rgb(1,89,188)" fill-rule="nonzero" />
		<g id="组合 89">
			<path id="矢量 448" d="M181.563 220.905C179.818 220.459 177.648 219.459 176.329 218.503C174.265 217.015 171.435 213.804 168.264 209.361C167.584 208.383 166.86 207.405 166.669 207.171C166.477 206.938 166.03 206.236 165.669 205.62C164.945 204.365 164.626 204.153 163.945 204.45C160.668 205.938 157.987 205.492 154.54 202.898C152.561 201.431 147.051 195.734 143.476 191.525C143.242 191.248 142.412 190.164 141.625 189.101C140.837 188.059 140.029 186.996 139.837 186.763C139.433 186.252 137.922 184.041 136.518 181.915C135.965 181.065 134.454 178.62 133.156 176.452C131.858 174.283 130.709 172.37 130.603 172.2C130.113 171.435 126.347 163.718 126.347 163.505C126.347 163.186 125.581 163.207 124.326 163.611C123.432 163.888 122.475 163.93 118.155 163.803C107.58 163.505 98.1329 162.867 93.1539 162.123C91.9198 161.932 89.9623 161.634 88.792 161.464C86.494 161.145 83.8981 160.656 82.5789 160.316C82.132 160.21 81.0043 159.955 80.0681 159.763C79.1319 159.572 78.0254 159.296 77.6211 159.168C77.2169 159.041 76.4509 158.87 75.9189 158.785C74.7486 158.594 70.7272 157.489 69.0037 156.893C68.3015 156.638 67.4504 156.362 67.0887 156.277C66.7482 156.171 65.0247 155.639 63.2587 155.086C61.5139 154.534 59.684 153.981 59.2159 153.853C58.7478 153.747 58.1733 153.556 57.9392 153.428C57.7264 153.322 56.8966 153.152 56.1306 153.045C52.258 152.578 50.1303 151.706 48.2791 149.857C46.2152 147.794 45.4492 145.541 45.4066 141.608C45.3853 139.057 45.7896 137.739 46.9812 136.591C47.7684 135.825 48.0663 135.209 47.6833 135.209C47.0875 135.188 45.3002 133.019 44.364 131.148C44.1299 130.702 43.4916 130.064 42.7682 129.575C40.2787 127.917 36.9168 125.004 35.9805 123.686C35.5763 123.134 35.172 122.666 35.0869 122.666C34.9805 122.666 34.4698 122.9 33.9166 123.197C32.0229 124.197 29.5972 123.835 24.4267 121.773C22.1713 120.859 21.8521 120.731 18.8945 119.307C17.4263 118.605 16.0858 117.989 15.9156 117.904C15.5752 117.776 12.8729 116.331 10.277 114.928C7.38321 113.333 4.74477 111.441 2.8936 109.634C1.23393 107.976 0.212601 106.275 0.0211012 104.808C-0.106565 103.915 0.361546 101.407 0.978601 99.7484C1.31905 98.7918 3.12766 96.9422 3.72343 96.9422C3.89366 96.9422 4.65966 96.6658 5.42566 96.3044C6.17038 95.9643 6.89382 95.6667 7.00021 95.6667C7.19171 95.6667 9.55354 94.625 10.66 94.0722C11.0004 93.9021 11.3622 93.7533 11.4685 93.7533C11.5749 93.7533 12.2984 93.4557 13.0857 93.0943C15.5326 92.0101 16.256 91.6912 18.1072 90.9046C18.4689 90.7558 19.4052 90.3306 20.1712 89.9692C20.9372 89.629 22.0862 89.1188 22.7245 88.8637C24.0224 88.3322 25.5757 87.6519 27.5545 86.7165C28.2993 86.3764 28.9802 86.1 29.1078 86.1C29.2142 86.1 29.9164 85.8024 30.6398 85.441C31.3845 85.0796 32.2995 84.6544 32.6825 84.4843C34.1507 83.8678 34.8741 83.5489 35.555 83.23C35.9167 83.0599 37.0019 82.5922 37.9381 82.1883L39.6403 81.4867L39.9169 77.7876C40.0446 75.7467 40.3212 73.2594 40.4914 72.2602C40.6617 71.261 40.8106 70.0067 40.8106 69.4965C40.8106 68.9863 40.9383 67.7533 41.1298 66.7541C41.3 65.7549 41.5766 63.9904 41.7681 62.8211C41.9383 61.6519 42.2362 60.2487 42.4064 59.7173C42.5767 59.1645 42.7256 58.548 42.7256 58.3354C42.7469 57.9102 43.2788 56.2945 43.7895 55.1678C44.0874 54.53 45.6407 52.9356 45.9811 52.9356C46.1513 52.9356 47.1726 52.4891 49.2366 51.5324C49.8324 51.2561 50.3856 51.0222 50.492 51.0222C50.5771 51.0222 51.4708 50.6183 52.4708 50.1293C53.4921 49.6404 54.5986 49.1939 54.939 49.1089C55.4923 49.0026 55.6199 48.8325 55.8753 47.9396C56.7689 44.6444 57.2158 43.709 58.4924 42.3697C59.3648 41.4556 59.3648 41.4556 60.8543 41.4556C62.1948 41.4556 62.4288 41.5193 63.1523 42.0933C63.6204 42.4547 64.1736 43.05 64.4077 43.4327C65.1311 44.6019 65.8971 46.9404 66.1099 48.5561L66.2375 49.6191L68.0462 50.2144C69.0462 50.5545 70.1526 50.9159 70.4931 51.0222C71.1314 51.1923 71.6847 51.4049 74.0039 52.2978C74.6423 52.5529 75.4083 52.8293 75.7062 52.9356C76.004 53.0419 76.77 53.3182 77.4084 53.5733C78.0467 53.8284 78.7701 54.0836 79.0042 54.1473C79.2383 54.1899 80.4937 54.6788 81.7703 55.2103C83.0683 55.7418 84.8343 56.4433 85.7067 56.8047C87.7281 57.5913 88.5579 57.974 89.6856 58.5267L90.5793 58.9732L92.1326 58.2079C93.7497 57.4213 95.7285 56.5496 98.4734 55.4016C99.3458 55.019 100.282 54.615 100.537 54.4662C100.793 54.3174 101.091 54.2111 101.218 54.2111C101.431 54.2111 103.963 53.1056 104.899 52.5954C105.197 52.4466 105.559 52.2978 105.687 52.2978C105.814 52.2978 106.538 52.0214 107.261 51.66C108.006 51.3199 108.751 51.0222 108.878 51.0222C109.027 51.0222 109.41 50.8947 109.708 50.7246C110.027 50.5545 110.708 50.2569 111.24 50.0656C111.772 49.853 112.495 49.5766 112.836 49.4065C113.198 49.2577 113.857 48.9813 114.325 48.79C114.793 48.5987 115.474 48.3223 115.815 48.1522C116.176 48.0034 116.879 47.7058 117.411 47.5144C117.943 47.3019 118.666 47.0042 119.049 46.8554C119.411 46.6853 119.858 46.5578 120.028 46.5578C120.219 46.5578 120.411 46.4727 120.496 46.3452C120.56 46.2389 120.921 46.0476 121.304 45.9413C121.687 45.835 122.517 45.5373 123.156 45.2822C123.794 45.0271 124.56 44.7507 124.858 44.6444C125.156 44.5381 125.922 44.2618 126.56 44.0067C127.198 43.7516 128.028 43.4752 128.369 43.3689C128.73 43.2839 129.305 43.0925 129.645 42.9437C130.752 42.4973 131.092 42.3484 132.305 41.8807C132.943 41.6256 133.816 41.2642 134.241 41.0941L135.007 40.7753L135.241 34.0573C135.497 27.2544 135.816 23.2151 136.433 19.1333C136.922 15.8807 137.284 14.839 138.199 13.861C138.348 13.7122 138.476 13.4996 138.476 13.4146C138.476 13.1807 140.327 12.3091 141.348 12.0327C141.816 11.9264 143.455 11.3524 144.114 11.0761C144.582 10.8847 145.306 10.6296 147.306 9.94933C149.157 9.31156 149.221 9.26904 149.285 8.58874C149.412 7.18563 150.093 4.67704 150.71 3.29519C151.2 2.1897 151.668 1.55193 152.434 0.892889C153.37 0.0850371 153.583 0 154.583 0C156.626 0 158.179 1.21178 159.455 3.84793C160.328 5.67622 160.626 6.50533 160.817 7.73837C160.902 8.39741 161.094 8.84385 161.349 9.01393C161.583 9.14148 162.2 9.48163 162.732 9.77926C163.264 10.0769 164.073 10.5659 164.541 10.8635C165.009 11.1611 165.541 11.48 165.711 11.5438C165.881 11.6288 166.286 11.8627 166.605 12.0753C167.158 12.4367 169.69 14.0311 170.477 14.5201C170.711 14.6689 171.711 15.3067 172.712 15.9444C173.712 16.5822 174.648 17.1562 174.754 17.22C174.882 17.2838 175.393 17.6027 175.924 17.9428C179.712 20.3876 180.584 20.9616 181.308 21.4506C181.755 21.7482 182.287 22.1096 182.478 22.2159C182.67 22.3435 183.35 22.8112 184.01 23.2789C186.053 24.7458 189.095 26.7867 189.223 26.7867C189.287 26.7867 190.159 27.3819 191.138 28.126C192.138 28.8488 193.734 29.9968 194.713 30.6771C195.67 31.3574 197.33 32.5267 198.373 33.292C199.436 34.0573 200.628 34.9077 201.032 35.1841C201.437 35.4817 202.203 36.0557 202.734 36.4384C203.266 36.8423 204.309 37.6076 205.075 38.1391C206.352 39.0107 208.479 40.6477 210.075 41.9445C210.437 42.2209 211.203 42.7949 211.799 43.1988C212.395 43.624 213.31 44.3468 213.82 44.8358C214.331 45.3035 214.82 45.7074 214.927 45.7074C215.012 45.7074 215.182 45.4948 215.31 45.2184C215.671 44.4106 216.905 43.7303 218.161 43.624C219.161 43.539 219.438 43.6027 220.246 44.1342C221.14 44.7295 222.416 46.5365 222.778 47.7908C222.863 48.0672 223.012 48.4073 223.097 48.5349C223.204 48.6837 223.459 49.364 223.672 50.0656C223.885 50.7671 224.14 51.6387 224.268 51.9789C224.395 52.3403 224.544 52.8718 224.587 53.1907C224.651 53.5308 225.012 54.0198 225.48 54.3599C225.906 54.6788 226.48 55.1465 226.778 55.4016C235.055 62.8211 235.289 63.1613 236.268 70.0493C236.63 72.5153 236.949 75.3641 237.077 76.9585C237.268 79.4459 237.651 83.6127 237.822 85.1433C237.949 86.0787 238.034 87.5669 238.034 88.4598C238.056 89.3314 238.141 90.5857 238.268 91.2235C238.375 91.8613 238.588 94.5187 238.715 97.1548C238.843 99.791 239.034 103.192 239.119 104.702C239.205 106.233 239.29 108.486 239.311 109.719C239.332 112.1 239.396 112.249 240.375 112.249C240.758 112.249 242.162 113.588 242.652 114.417C242.971 114.97 244.035 117.16 244.673 118.627C244.907 119.158 245.396 120.2 245.758 120.965C246.12 121.731 246.524 122.645 246.673 122.985C246.822 123.346 247.184 124.154 247.482 124.792C247.78 125.43 248.546 127.237 249.226 128.81C249.886 130.383 250.503 131.829 250.609 131.999C250.929 132.722 251.439 133.912 252.418 136.272C252.971 137.611 253.695 139.291 254.035 139.992C254.376 140.694 254.652 141.332 254.652 141.417C254.652 141.523 255.078 142.501 255.61 143.628C256.142 144.733 256.567 145.753 256.567 145.881C256.567 145.987 256.695 146.349 256.865 146.646C257.014 146.965 257.291 147.561 257.461 147.964C258.184 149.644 258.461 150.26 259.099 151.621C259.461 152.408 259.759 153.109 259.759 153.194C259.759 153.258 259.887 153.619 260.057 153.981C260.227 154.363 260.653 155.32 261.014 156.107C261.376 156.915 261.674 157.595 261.674 157.659C261.674 157.701 261.972 158.381 262.334 159.168C263.419 161.613 263.504 161.804 264.866 165.078C266.547 169.16 266.653 169.394 267.036 170.287C267.227 170.691 267.525 171.498 267.717 172.051C268.015 173.008 268.015 173.178 267.674 174.262C267.398 175.176 266.993 175.772 265.823 176.983C264.397 178.471 264.27 178.557 263.27 178.62L262.206 178.684L262.27 180.704C262.334 182.426 262.27 182.872 261.887 183.68C261.185 185.168 260.972 185.487 260.078 186.486C258.099 188.676 255.588 190.079 253.482 190.143L252.205 190.185L252.248 190.929C252.248 191.333 252.397 192.184 252.524 192.821C252.822 194.182 252.695 198.944 252.312 200.581C251.886 202.367 251.375 203.961 251.141 204.301C251.014 204.472 250.716 204.982 250.503 205.428C249.971 206.47 248.716 207.788 247.205 208.936C245.865 209.914 242.949 211.508 241.992 211.763C241.652 211.849 240.694 212.167 239.864 212.444C238.311 212.997 236.928 213.358 234.226 213.974C233.353 214.166 232.162 214.442 231.566 214.612C230.991 214.761 229.736 215.059 228.8 215.25C227.864 215.463 226.629 215.739 226.034 215.888C224.778 216.228 222.821 216.674 220.608 217.163C219.735 217.355 218.735 217.61 218.374 217.716C218.033 217.844 216.969 218.077 216.033 218.248C211.82 219.077 211.033 219.225 209.331 219.523C208.331 219.693 206.841 219.927 205.99 220.012C205.16 220.118 204.266 220.267 204.054 220.331C203.649 220.459 202.607 220.565 195.926 221.096C194.585 221.203 191.138 221.288 188.266 221.288C183.967 221.266 182.797 221.203 181.563 220.905ZM194.968 219.396C199.287 219.14 205.032 218.588 205.352 218.396C205.479 218.311 206.522 218.12 207.628 217.992C208.735 217.844 210.458 217.567 211.458 217.397C212.458 217.206 213.756 216.972 214.373 216.866C214.99 216.759 215.799 216.568 216.182 216.462C216.565 216.355 217.65 216.079 218.586 215.888C219.523 215.675 221.204 215.271 222.31 214.974C223.416 214.676 224.821 214.378 225.395 214.293C225.991 214.208 226.693 214.038 226.991 213.911C227.289 213.804 228.289 213.549 229.225 213.337C230.162 213.145 231.459 212.848 232.098 212.699C232.736 212.529 233.949 212.252 234.758 212.061C239.737 210.913 243.418 209.51 245.375 208.022C245.907 207.618 246.439 207.278 246.524 207.278C246.758 207.278 248.694 205.152 248.929 204.642C249.035 204.387 249.205 204.046 249.29 203.876C249.929 202.75 250.078 202.324 250.375 200.794C250.758 198.71 250.801 192.694 250.418 191.397C250.163 190.462 250.163 190.462 248.524 190.185C247.269 189.973 245.652 188.442 240.8 182.851C240.034 181.958 238.928 180.576 238.332 179.747C237.715 178.939 237.056 178.025 236.821 177.727C236.587 177.43 235.247 175.431 233.8 173.263C232.374 171.095 231.034 169.096 230.842 168.799C230.63 168.501 230.396 168.118 230.31 167.948C230.14 167.587 229.864 167.119 229.076 165.907C228.778 165.44 228.012 164.1 227.395 162.931C226.778 161.783 226.097 160.55 225.906 160.189C225.395 159.338 222.267 153.237 221.055 150.728C220.799 150.197 220.501 149.623 220.395 149.453C220.14 149.027 218.608 145.69 218.033 144.308C217.757 143.691 217.48 143.096 217.416 142.969C217.331 142.862 217.203 142.48 217.118 142.139C216.991 141.608 216.905 141.544 216.288 141.672C213.586 142.161 213.054 142.203 211.799 141.906C211.075 141.735 209.969 141.587 209.309 141.587C208.671 141.587 207.586 141.48 206.926 141.374C206.267 141.247 204.947 141.055 203.969 140.949C201.33 140.651 197.926 140.141 196.245 139.801C195.436 139.631 194.032 139.354 193.159 139.163C192.287 138.993 191.223 138.759 190.819 138.632C190.415 138.504 189.308 138.206 188.372 137.973C185.159 137.186 184.755 137.058 184.01 136.803C182.776 136.357 181.01 135.847 180.627 135.847C180.435 135.847 180.095 135.698 179.882 135.528C179.648 135.358 179.286 135.209 179.074 135.209C178.712 135.209 177.627 134.784 176.52 134.231C176.222 134.061 175.776 133.933 175.541 133.933C175.286 133.933 175.052 133.848 174.988 133.742C174.924 133.636 174.371 133.402 173.754 133.189C172.775 132.87 170.392 131.935 168.371 131.063C168.03 130.915 166.945 130.383 165.988 129.915L164.243 129.044L162.902 129.596C161.37 130.234 160.753 130.468 158.37 131.255C156.838 131.765 156.094 131.999 153.902 132.658C152.774 132.977 151.37 133.508 150.987 133.721C150.774 133.848 150.412 133.933 150.157 133.933C149.923 133.933 149.455 134.061 149.157 134.231C148.242 134.72 145.731 135.847 145.54 135.847C145.433 135.847 144.455 136.229 143.348 136.718C140.008 138.185 137.029 139.206 135.029 139.61C134.305 139.737 134.263 140.141 134.837 141.544C135.05 142.097 135.348 142.926 135.497 143.394C135.624 143.861 136.071 145.052 136.433 146.051C137.348 148.432 137.667 149.835 137.497 150.686C137.412 151.068 137.454 151.6 137.582 151.855C137.688 152.11 137.859 152.471 137.922 152.641C137.986 152.812 138.135 153.109 138.242 153.279C138.348 153.449 138.497 153.747 138.561 153.917C138.625 154.087 138.773 154.385 138.88 154.555C138.986 154.725 139.263 155.299 139.497 155.83C140.029 157.021 141.199 159.444 141.433 159.87C141.54 160.04 142.114 161.188 142.71 162.421C144.05 165.163 145.37 167.608 146.519 169.5C147.008 170.287 147.412 170.967 147.412 171.031C147.412 171.158 148.668 173.029 149.349 173.901C149.646 174.305 149.987 174.985 150.072 175.389C150.2 175.984 151.242 178.28 152.093 179.853C152.2 180.023 152.774 181.171 153.391 182.404C154.285 184.211 155.604 186.571 157.2 189.207C161.179 195.798 162.456 197.86 164.2 200.432C164.626 201.07 165.115 201.793 165.286 202.069C165.456 202.367 166.179 203.409 166.881 204.408C167.584 205.428 168.264 206.406 168.371 206.597C168.988 207.597 173.201 213.103 174.307 214.357C176.797 217.121 179.584 218.822 182.584 219.374C183.84 219.608 191.159 219.629 194.968 219.396ZM163.009 203.196C163.328 203.068 163.583 202.813 163.583 202.622C163.583 202.431 162.966 201.431 162.2 200.39C161.434 199.369 160.817 198.391 160.817 198.221C160.817 198.073 160.69 197.86 160.562 197.775C160.413 197.69 160.179 197.413 160.03 197.18C159.881 196.946 159.392 196.138 158.902 195.373C158.434 194.607 157.945 193.842 157.838 193.672C157.732 193.502 156.923 192.12 156.03 190.589C155.157 189.08 154.328 187.677 154.221 187.507C154.115 187.337 153.625 186.422 153.136 185.487C152.668 184.552 151.838 182.978 151.306 181.979C150.774 180.98 150.072 179.513 149.732 178.684C149.391 177.876 149.008 177.026 148.902 176.835C148.774 176.622 148.689 176.324 148.689 176.154C148.689 175.984 147.987 174.815 147.157 173.539C145.029 170.35 145.093 170.457 144.859 169.883C144.731 169.606 144.455 169.139 144.242 168.82C144.029 168.522 143.476 167.544 142.986 166.651C142.518 165.758 142.029 164.844 141.923 164.632C141.71 164.249 138.752 158.084 138.156 156.787C137.986 156.447 137.667 155.575 137.433 154.874C136.816 152.96 136.71 153.003 135.582 155.83C134.667 158.169 132.284 160.529 129.539 161.825C128.496 162.336 127.624 162.825 127.624 162.931C127.624 163.037 127.773 163.292 127.922 163.462C128.092 163.654 128.943 165.206 129.816 166.885C132.39 171.86 132.539 172.136 134.752 175.772C135.922 177.685 136.986 179.407 137.093 179.598C137.667 180.555 140.242 184.339 140.965 185.317C141.412 185.912 141.923 186.614 142.093 186.869C142.263 187.145 142.731 187.741 143.114 188.229C143.476 188.697 143.859 189.207 143.965 189.314C145.71 191.716 154.242 200.9 154.711 200.9C154.817 200.9 155.349 201.283 155.881 201.772C156.923 202.686 157.349 202.898 158.902 203.345C159.924 203.642 162.03 203.557 163.009 203.196ZM253.908 188.357C256.397 187.719 258.738 185.87 260.057 183.467C260.61 182.468 260.61 179.386 260.078 178.089C259.674 177.153 259.014 175.729 258.716 175.176C258.631 175.006 258.397 174.517 258.206 174.113C255.716 168.522 246.439 150.282 243.822 145.881C243.46 145.265 243.162 144.712 243.162 144.669C243.162 144.605 242.545 143.543 241.822 142.288C241.077 141.013 240.396 139.843 240.332 139.673C240.247 139.503 239.885 138.887 239.545 138.291C239.205 137.717 238.843 137.08 238.758 136.91C238.673 136.74 237.928 135.443 237.098 134.04C236.268 132.637 235.524 131.34 235.438 131.17C235.353 131 235.077 130.511 234.843 130.107C233.438 127.747 232.438 125.961 231.63 124.367C230.906 122.964 230.587 122.538 230.204 122.496C229.502 122.39 229.289 122.687 229.63 123.304C230.013 124.005 230.864 125.77 231.311 126.769C232.119 128.555 231.608 132.084 230.225 134.21C229.438 135.464 227.012 137.803 225.608 138.695C223.842 139.843 221.395 140.779 219.501 141.034C218.693 141.161 218.48 141.268 218.48 141.587C218.48 141.799 218.586 142.054 218.714 142.118C218.842 142.203 219.267 142.99 219.693 143.883C221.821 148.475 224.821 154.597 226.055 156.893C226.587 157.893 227.289 159.189 227.587 159.763C227.885 160.359 228.502 161.422 228.949 162.166C229.396 162.888 229.757 163.526 229.757 163.569C229.757 163.76 232.97 169.096 233.545 169.84C234.162 170.669 234.332 170.924 235.226 172.455C235.566 173.029 235.885 173.476 235.992 173.476C236.077 173.476 236.141 173.582 236.141 173.688C236.141 173.922 240.332 179.619 241.545 181.023C241.949 181.49 242.971 182.681 243.801 183.68C245.95 186.21 247.78 187.932 248.801 188.378C249.929 188.91 251.822 188.889 253.908 188.357ZM263.653 176.771C264.589 176.112 266.142 173.858 266.142 173.135C266.142 172.838 265.972 172.2 265.738 171.711C265.525 171.222 265.036 170.074 264.674 169.181C264.334 168.267 263.78 167.013 263.483 166.396C263.185 165.758 262.951 165.184 262.951 165.121C262.951 165.036 262.674 164.377 262.334 163.654C262.014 162.91 261.227 161.124 260.631 159.657C260.014 158.19 259.333 156.617 259.121 156.149C258.929 155.682 258.333 154.342 257.844 153.194C257.355 152.046 256.886 150.941 256.78 150.749C256.184 149.559 255.291 147.518 255.291 147.327C255.291 147.22 254.993 146.476 254.631 145.69C254.291 144.882 253.865 143.968 253.716 143.606C253.567 143.266 253.142 142.352 252.801 141.587C252.439 140.821 251.801 139.354 251.354 138.291C250.652 136.591 250.184 135.549 249.248 133.402C249.077 133.062 248.588 131.914 248.163 130.851C247.737 129.809 247.29 128.852 247.184 128.746C247.077 128.619 246.992 128.406 246.992 128.257C246.992 128.002 246.737 127.407 245.29 124.26C245.077 123.793 244.652 122.836 244.354 122.134C244.035 121.433 243.652 120.583 243.481 120.264C243.311 119.923 243.162 119.562 243.162 119.456C243.162 119.349 242.694 118.287 242.12 117.096C240.694 114.12 239.119 112.653 239.119 114.269C239.119 115.927 237.843 118.988 236.673 120.115C235.821 120.923 233.672 122.028 232.928 122.028C232.098 122.028 231.757 122.687 232.311 123.197C232.779 123.623 235.183 127.173 235.928 128.512C236.183 128.98 236.566 129.66 236.779 130C237.013 130.362 237.396 130.978 237.63 131.382C237.864 131.786 238.29 132.509 238.566 132.977C239.098 133.827 239.205 134.018 240.268 135.953C240.588 136.548 241.034 137.314 241.247 137.654C241.481 138.015 241.8 138.589 241.971 138.929C242.141 139.291 242.588 140.056 242.928 140.63C243.758 142.012 243.971 142.416 245.056 144.457C245.567 145.392 246.035 146.264 246.141 146.37C246.226 146.498 246.779 147.497 247.375 148.602C247.95 149.708 248.694 151.111 249.014 151.685C249.503 152.599 252.546 158.445 253.163 159.657C253.29 159.891 253.482 160.295 253.631 160.571C254.12 161.507 258.44 170.18 258.567 170.499C258.631 170.669 258.78 170.967 258.887 171.137C259.014 171.307 259.355 172.03 259.653 172.731C260.738 175.155 260.993 175.708 261.333 176.516C261.61 177.153 261.78 177.302 262.27 177.302C262.589 177.302 263.206 177.068 263.653 176.771ZM125.028 161.634C128.581 160.763 129.858 160.082 132.007 157.956C134.007 155.979 135.88 151.77 135.369 150.431C135.263 150.154 134.965 150.09 133.922 150.09C133.22 150.112 131.816 150.005 130.816 149.899C124.645 149.155 119.709 148.517 116.985 148.092C115.879 147.922 113.964 147.646 112.729 147.454C111.495 147.263 110.346 147.05 110.176 146.987C110.006 146.923 109.134 146.795 108.261 146.689C106.729 146.54 102.559 145.753 99.8139 145.094C99.0904 144.924 98.2606 144.776 97.9627 144.776C97.6648 144.776 97.0903 144.627 96.686 144.435C96.0264 144.117 95.92 144.117 95.2817 144.435C94.8987 144.627 94.3668 144.776 94.0901 144.776C93.8348 144.776 93.3454 144.882 93.0475 144.988C92.3454 145.243 89.1112 145.796 86.345 146.115C83.9407 146.391 78.451 146.434 75.9189 146.179C73.9188 145.987 70.3441 145.328 69.9399 145.073C69.7909 144.988 69.3228 144.839 68.9185 144.754C68.493 144.669 67.6206 144.393 66.9823 144.138C66.3439 143.883 65.5779 143.606 65.28 143.521C64.4715 143.245 59.1308 140.439 57.8328 139.588C56.5136 138.717 56.1732 138.674 55.471 139.206C55.1944 139.418 53.6198 140.247 51.9814 141.034C50.343 141.842 48.577 142.671 48.0876 142.926L47.1514 143.372L47.3003 144.542C47.5131 146.157 48.1089 147.348 49.4281 148.666C50.7473 150.027 53.3432 151.153 55.1518 151.153C55.9817 151.153 58.2371 151.642 59.535 152.11C59.9393 152.259 60.8543 152.556 61.5564 152.748C63.1523 153.215 66.6418 154.321 67.6206 154.661C68.6207 155.023 69.5143 155.278 71.6634 155.83C72.6634 156.085 73.7699 156.383 74.1103 156.511C74.472 156.617 75.1317 156.808 75.5998 156.915C77.8765 157.404 79.4085 157.765 79.7277 157.935C79.9192 158.041 80.5575 158.19 81.132 158.254C81.7278 158.339 82.4938 158.488 82.8342 158.594C83.1959 158.7 83.9194 158.828 84.4513 158.87C84.9833 158.913 85.5365 159.019 85.6854 159.104C86.0897 159.359 94.2816 160.571 98.8989 161.06C102.644 161.464 112.112 161.889 118.751 161.953C122.687 161.996 123.9 161.932 125.028 161.634ZM135.284 148.496C135.284 147.943 135.05 147.412 134.433 146.561C133.177 144.882 131.39 143.861 129.007 143.479C128.432 143.394 127.475 143.202 126.879 143.075C126.305 142.947 125.368 142.735 124.815 142.628C124.134 142.48 123.07 142.48 121.411 142.628C116.453 143.117 112.474 143.202 107.942 142.926C105.495 142.777 103.261 142.565 102.984 142.437C102.325 142.139 101.708 142.161 100.58 142.522C100.069 142.692 99.3883 142.883 99.0691 142.947C98.7287 143.032 98.4734 143.16 98.4734 143.266C98.4734 143.564 99.0691 143.734 101.027 144.031C103.729 144.457 106.538 144.924 107.729 145.158C108.325 145.286 109.942 145.541 111.346 145.732C112.751 145.924 114.432 146.157 115.07 146.285C115.708 146.391 117.006 146.583 117.943 146.689C119.602 146.88 120.709 147.05 123.624 147.539C124.411 147.688 125.879 147.879 126.922 147.986C130.199 148.305 133.454 148.772 134.007 148.985C135.029 149.41 135.284 149.304 135.284 148.496ZM85.2812 144.563C89.7282 144.031 90.4304 143.925 90.8134 143.713C91.0261 143.606 91.473 143.5 91.7709 143.5C92.3879 143.5 95.7498 142.65 97.2393 142.118C97.7499 141.927 98.8351 141.544 99.6436 141.268C102.325 140.354 102.857 140.141 103.899 139.588C104.452 139.291 105.048 139.036 105.197 139.036C105.367 139.036 106.325 138.61 107.346 138.1C108.389 137.59 109.836 136.888 110.602 136.548C111.368 136.187 112.9 135.464 114.027 134.911C115.134 134.38 116.134 133.933 116.219 133.933C116.304 133.933 116.815 133.721 117.368 133.487C119.475 132.53 120.347 132.169 121.985 131.659C122.922 131.361 123.773 131.021 123.879 130.936C124.007 130.829 124.305 130.744 124.581 130.744C124.837 130.744 125.368 130.617 125.751 130.447C126.134 130.298 126.986 130 127.624 129.809C128.879 129.448 132.433 128.363 134.007 127.853C134.539 127.704 136.497 127.407 138.369 127.237C140.242 127.045 142.391 126.811 143.157 126.705C143.923 126.578 145.263 126.408 146.136 126.28C147.008 126.174 148.604 125.94 149.646 125.749C152.136 125.323 153.37 125.323 153.37 125.749C153.37 126.11 152.881 126.386 151.881 126.556C151.476 126.641 150.519 126.854 149.753 127.024C146.093 127.917 140.008 128.831 137.731 128.831C137.156 128.831 136.241 128.959 135.709 129.129C135.178 129.299 133.901 129.681 132.837 130C131.794 130.298 130.454 130.702 129.858 130.872C129.284 131.042 128.454 131.276 128.049 131.382C127.645 131.467 126.645 131.786 125.815 132.063C125.007 132.36 123.624 132.807 122.773 133.104C121.9 133.381 121.155 133.678 121.092 133.763C121.049 133.87 120.815 133.933 120.581 133.933C120.347 133.933 119.709 134.146 119.155 134.38C118.602 134.635 117.623 135.06 116.985 135.358C116.347 135.634 114.9 136.314 113.793 136.846C109.985 138.653 108.368 139.376 106.772 139.992C103.495 141.247 103.601 141.459 107.538 141.544C111.602 141.65 122.581 141.013 125.028 140.524C125.624 140.417 126.645 140.205 127.262 140.099C127.858 139.971 128.858 139.78 129.433 139.695C130.901 139.439 133.667 138.568 135.858 137.675C136.603 137.377 137.348 137.122 137.539 137.122C137.731 137.122 138.178 136.995 138.539 136.825C138.922 136.676 139.646 136.378 140.178 136.166C141.093 135.825 141.667 135.592 143.263 134.911C143.689 134.72 144.348 134.444 144.753 134.273C145.178 134.082 145.838 133.806 146.242 133.636C146.668 133.444 147.306 133.168 147.689 132.998C148.051 132.828 148.561 132.637 148.795 132.594C149.285 132.466 150.923 131.892 151.561 131.616C151.795 131.531 152.561 131.276 153.264 131.063C153.966 130.872 154.881 130.574 155.285 130.426C156.2 130.107 158.094 129.533 161.243 128.661C162.243 128.363 161.902 127.789 160.392 127.258C159.264 126.875 155.094 124.919 152.051 123.389C151.753 123.219 151.349 123.091 151.178 123.091C150.881 123.091 150.583 122.964 148.795 122.049C147.902 121.603 147.689 121.433 146.263 120.009C143.987 117.734 143.072 115.225 143.05 111.143C143.05 109.762 142.944 108.55 142.838 108.443C142.71 108.358 142.157 108.103 141.561 107.891C140.986 107.678 140.412 107.423 140.305 107.317C140.178 107.232 139.922 107.147 139.71 107.147C138.773 107.147 133.752 104.022 131.879 102.278C131.667 102.087 131.177 101.704 130.794 101.407C130.411 101.109 129.752 100.578 129.326 100.237C128.922 99.876 128.156 99.2595 127.624 98.8556C127.092 98.4516 125.943 97.5162 125.071 96.7934C123.007 95.0714 122.751 94.8801 119.219 92.2439C114.644 88.7999 114.006 88.5236 114.006 89.8841C114.006 91.755 111.985 93.9021 109.027 95.2202C108.453 95.4541 107.857 95.6667 107.687 95.6667C107.516 95.6667 107.07 95.8155 106.708 95.9856C106.325 96.1556 105.027 96.6233 103.793 97.0273C100.771 98.0477 100.346 98.1965 98.2606 98.9831C97.2605 99.3445 95.6009 99.961 94.537 100.322C92.0049 101.173 91.2177 101.47 90.6644 101.789C90.4091 101.938 90.0474 102.044 89.8772 102.044C89.7069 102.044 89.2388 102.172 88.8558 102.342C87.8345 102.767 86.728 103.192 84.3236 104.064C83.1534 104.468 82.0044 104.914 81.7703 105.021C81.5363 105.127 80.7703 105.403 80.0681 105.637C79.3659 105.871 78.2595 106.275 77.6211 106.509C76.9828 106.764 76.1104 107.062 75.7062 107.189C75.3019 107.295 74.8763 107.466 74.7486 107.572C74.6423 107.657 74.0039 107.891 73.3656 108.082C72.7273 108.295 71.9187 108.592 71.5995 108.762C71.2591 108.932 70.8335 109.06 70.6208 109.06C70.4293 109.06 70.0888 109.188 69.8548 109.336C69.6207 109.506 69.2377 109.677 69.0037 109.762C68.7696 109.825 68.0462 110.08 67.4078 110.336C65.8333 110.931 64.7694 111.335 63.2587 111.845C62.5565 112.079 61.7054 112.398 61.3437 112.547C60.7479 112.802 60.1308 113.057 58.1094 113.822C56.9392 114.269 53.8539 115.417 52.5134 115.884C51.875 116.118 51.1516 116.394 50.9175 116.479C50.6835 116.586 50.109 116.798 49.6409 116.99C47.3854 117.819 46.8322 118.053 46.2364 118.308C45.896 118.457 45.2577 118.712 44.8534 118.839C44.215 119.073 41.4702 120.179 40.0659 120.753C39.8318 120.859 39.4063 121.008 39.1084 121.071C37.9807 121.369 36.7678 121.922 36.7678 122.177C36.7678 122.581 39.619 125.068 43.1299 127.726C46.1726 130.043 47.2578 130.829 50.1303 132.828C52.8964 134.741 56.9179 137.25 59.2159 138.504C59.8117 138.823 60.4287 139.227 60.6202 139.376C60.7904 139.546 61.067 139.673 61.1947 139.673C61.3224 139.673 61.8969 139.95 62.4501 140.269C63.0033 140.587 64.2374 141.183 65.1737 141.565C66.1099 141.948 67.0674 142.352 67.3014 142.458C68.0674 142.798 69.6207 143.245 71.4506 143.67C73.1954 144.095 74.0678 144.244 76.5573 144.563C78.2382 144.776 83.4087 144.776 85.2812 144.563ZM133.965 143.351C133.922 143.245 133.603 142.586 133.263 141.842C132.752 140.673 132.603 140.502 132.22 140.63C131.965 140.715 131.305 140.821 130.709 140.864C128.964 141.034 128.688 141.14 128.688 141.587C128.688 141.884 128.879 142.012 129.496 142.118C130.709 142.309 132.497 142.905 132.752 143.224C133.007 143.5 134.114 143.628 133.965 143.351ZM48.8323 141.098C50.0664 140.417 54.0028 138.547 54.705 138.313C55.2795 138.121 55.1305 137.781 54.2794 137.377C53.8326 137.186 53.0453 136.718 52.5347 136.336C52.024 135.953 51.3857 135.634 51.109 135.634C50.492 135.634 48.5557 137.186 47.811 138.291C47.0024 139.482 46.7258 141.799 47.4067 141.799C47.4918 141.799 48.1302 141.48 48.8323 141.098ZM217.948 139.822C224.523 138.291 229.31 134.571 229.821 130.596C229.949 129.533 229.779 129.363 228.481 129.193C226.672 128.959 224.757 128.619 223.374 128.321C222.608 128.13 221.523 127.896 220.927 127.768C219.438 127.428 217.459 126.918 216.459 126.599C215.991 126.45 215.076 126.174 214.437 125.982C212.884 125.536 210.777 124.856 210.139 124.601C209.884 124.494 208.65 124.112 207.416 123.729C206.181 123.346 205.011 122.964 204.82 122.857C204.607 122.751 204.096 122.581 203.649 122.475C203.203 122.368 201.607 121.816 200.075 121.284C198.564 120.731 196.968 120.2 196.564 120.094C196.16 119.966 195.628 119.796 195.394 119.69C194.84 119.435 192.032 118.457 190.925 118.116C190.457 117.968 189.798 117.734 189.436 117.585C189.095 117.457 188.372 117.181 187.84 117.011C187.308 116.82 186.691 116.586 186.457 116.479C186.223 116.373 185.414 116.097 184.67 115.842C183.925 115.587 183.074 115.246 182.755 115.098C182.457 114.928 182.052 114.8 181.861 114.8C181.521 114.8 180.52 114.439 179.18 113.822C178.818 113.652 178.457 113.524 178.35 113.524C178.265 113.524 177.095 113.078 175.733 112.547C174.371 112.015 172.882 111.441 172.414 111.25C171.946 111.08 171.328 110.825 171.031 110.718C170.733 110.612 169.499 110.187 168.264 109.783C167.03 109.379 165.754 108.954 165.392 108.826C164.434 108.465 159.009 108.337 157.626 108.635C156.987 108.762 156.03 108.954 155.498 109.039C154.966 109.124 154.115 109.315 153.583 109.464C151.242 110.102 148.561 110.718 146.902 110.995C145.391 111.228 144.518 111.632 144.625 112.058C144.667 112.228 144.774 112.78 144.859 113.312C145.199 115.374 146.221 117.606 147.412 118.839C148.285 119.753 150.476 121.178 151.008 121.178C151.136 121.178 151.732 121.412 152.349 121.688C152.966 121.986 154.093 122.475 154.838 122.772C155.583 123.07 156.562 123.559 157.009 123.856C157.455 124.133 157.881 124.367 157.945 124.367C158.009 124.367 158.987 124.813 160.115 125.345C161.264 125.897 162.775 126.599 163.477 126.918C164.179 127.237 165.69 127.959 166.839 128.491C167.988 129.022 168.967 129.469 169.052 129.469C169.116 129.469 169.796 129.767 170.541 130.107C171.265 130.468 172.009 130.744 172.18 130.744C172.35 130.744 172.754 130.872 173.095 131.042C173.414 131.212 174.116 131.51 174.648 131.701C175.584 132.063 176.01 132.233 177.691 132.955C178.137 133.147 178.669 133.296 178.903 133.296C179.116 133.296 179.35 133.381 179.435 133.487C179.499 133.593 179.861 133.742 180.244 133.827C180.606 133.912 181.733 134.231 182.733 134.55C184.797 135.23 186.265 135.655 188.266 136.166C189.032 136.357 190.138 136.655 190.713 136.803C191.308 136.973 192.542 137.25 193.479 137.441C194.415 137.654 195.564 137.888 196.032 137.994C196.862 138.185 200.075 138.695 202.628 139.036C203.33 139.142 204.139 139.269 204.437 139.333C204.735 139.418 205.969 139.546 207.203 139.673C208.437 139.78 209.82 139.971 210.288 140.077C211.565 140.375 216.246 140.226 217.948 139.822ZM49.6834 134.444C49.7685 134.188 47.1939 132.233 46.7684 132.233C46.513 132.233 47.1727 133.274 48.0238 134.21C48.577 134.805 49.5132 134.933 49.6834 134.444ZM229.8 127.449C229.715 126.514 228.481 124.218 227.587 123.325C226.863 122.581 224.331 121.178 223.757 121.178C223.608 121.178 222.821 120.901 221.991 120.561C220.352 119.902 219.352 119.541 218.374 119.264C218.033 119.158 217.203 118.882 216.565 118.627C215.927 118.372 215.118 118.095 214.756 117.989C214.416 117.904 213.544 117.606 212.841 117.351C212.139 117.117 211.288 116.82 210.926 116.713C210.586 116.607 209.331 116.182 208.16 115.757C206.99 115.331 205.756 114.906 205.394 114.8C204.713 114.63 201.777 113.673 200.713 113.291C200.373 113.163 199.351 112.844 198.479 112.568C197.607 112.313 196.649 111.994 196.351 111.866C196.053 111.739 195.202 111.462 194.436 111.207C193.67 110.973 192.776 110.697 192.415 110.569C192.074 110.463 190.776 110.059 189.542 109.677C188.308 109.315 186.968 108.89 186.563 108.741C186.159 108.592 185.351 108.337 184.755 108.146C180.265 106.785 179.18 106.445 178.861 106.275C178.648 106.169 178.137 105.999 177.691 105.892C177.244 105.765 176.35 105.51 175.712 105.318C165.094 102.151 164.541 102.023 160.136 102.023C158.221 102.023 156.094 102.129 155.391 102.257C154.689 102.385 153.54 102.576 152.838 102.661C150.178 103.022 148.434 103.533 147.434 104.234C146.008 105.276 144.944 106.87 144.795 108.252C144.731 108.869 144.646 109.506 144.604 109.677C144.518 110.08 145.221 110.229 145.795 109.932C146.285 109.698 147.561 109.358 149.136 109.06C149.668 108.954 150.498 108.784 150.944 108.677C151.391 108.55 152.391 108.295 153.157 108.125C159.03 106.743 160.477 106.573 163.371 107.019C166.456 107.487 167.796 107.869 172.52 109.698C173.158 109.953 173.924 110.229 174.222 110.314C174.988 110.569 178.903 112.079 180.116 112.589C180.478 112.759 180.925 112.887 181.095 112.887C181.286 112.887 181.478 112.972 181.563 113.078C181.627 113.184 181.989 113.354 182.372 113.439C182.967 113.567 183.436 113.737 184.968 114.417C185.202 114.502 185.691 114.672 186.031 114.779C186.393 114.906 188.01 115.459 189.649 116.033C191.287 116.607 193.245 117.287 194.011 117.542C194.777 117.819 195.585 118.095 195.819 118.201C196.351 118.457 202.905 120.689 204.224 121.071C204.756 121.242 205.862 121.603 206.671 121.879C209.245 122.772 214.905 124.579 217.523 125.323C219.735 125.94 220.033 126.025 221.991 126.493C223.055 126.726 224.246 127.024 224.651 127.13C227.97 127.959 228.864 128.151 229.332 128.13C229.779 128.087 229.864 128.002 229.8 127.449ZM33.7251 121.539C35.4699 120.646 37.1295 119.902 37.3636 119.902C37.5338 119.902 37.9168 119.775 38.2147 119.605C38.7041 119.349 41.1298 118.372 44.6406 117.032C45.0449 116.883 46.1513 116.458 47.0875 116.076C49.0451 115.289 49.5983 115.076 52.0878 114.162C53.0879 113.78 54.2156 113.354 54.5986 113.184C54.9816 113.014 55.3859 112.887 55.5135 112.887C55.6412 112.887 56.088 112.738 56.5136 112.547C56.9604 112.355 57.62 112.079 58.003 111.909C58.386 111.739 58.7903 111.611 58.918 111.611C59.0457 111.611 59.4499 111.484 59.8117 111.313C60.7266 110.931 61.8543 110.484 64.0034 109.698C65.0034 109.315 66.195 108.869 66.6631 108.699C67.1312 108.529 67.8972 108.231 68.3653 108.061C68.8334 107.891 69.5356 107.614 69.9186 107.444C70.3016 107.274 70.7697 107.147 70.9825 107.147C71.174 107.147 71.5357 106.998 71.7485 106.828C71.9825 106.658 72.323 106.509 72.5358 106.509C72.7273 106.509 73.4507 106.254 74.1316 105.956C74.8125 105.659 76.0466 105.191 76.8551 104.914C77.685 104.638 78.7489 104.255 79.217 104.043C80.1958 103.618 83.7491 102.342 84.8556 102.023C85.2599 101.896 85.6854 101.704 85.7918 101.598C85.9195 101.492 86.1535 101.407 86.3238 101.407C86.5153 101.407 86.9408 101.258 87.2813 101.088C87.6004 100.918 87.9834 100.769 88.0898 100.769C88.2175 100.769 88.6005 100.641 88.9622 100.493C89.3452 100.322 89.9835 100.089 90.3878 99.9398C90.7921 99.791 91.8134 99.4296 92.622 99.1319C95.9839 97.8989 98.1968 97.1123 98.7925 96.9422C99.1543 96.8572 100.048 96.517 100.793 96.2194C101.559 95.9218 102.261 95.6667 102.367 95.6667C102.474 95.6667 102.857 95.5391 103.218 95.369C103.601 95.2202 104.835 94.7738 105.984 94.4124C110.219 93.073 112.049 91.8187 112.623 89.8416C112.985 88.6299 112.793 88.1196 111.751 87.5882C111.41 87.4181 110.751 87.0354 110.283 86.759C109.814 86.4614 109.048 86.015 108.58 85.7598C108.112 85.526 107.389 85.1008 106.984 84.867C106.58 84.6119 105.963 84.2717 105.601 84.1016C105.261 83.9316 104.495 83.4851 103.899 83.145C103.325 82.7836 102.644 82.4009 102.41 82.2946C102.176 82.1883 101.644 81.8694 101.239 81.6143C100.835 81.3379 100.069 80.8915 99.5373 80.6151C99.0053 80.3387 98.218 79.9136 97.7925 79.6584C94.1965 77.5538 92.4943 76.5759 91.6645 76.1507C91.1325 75.8743 89.941 75.194 89.0048 74.62C86.1323 72.898 81.6852 70.7508 81.0682 70.8146C80.3022 70.8784 79.834 70.7721 79.3234 70.3894C78.8765 70.028 78.8553 69.943 79.1106 69.6241C79.8766 68.7099 84.7279 70.0493 87.9409 72.0689C88.3026 72.2815 89.0048 72.6854 89.5367 72.9618C90.0686 73.2169 90.6432 73.5358 90.8134 73.6846C90.9836 73.8121 91.707 74.2373 92.4092 74.6413C93.1114 75.0239 94.0689 75.5554 94.537 75.8318C95.0051 76.0869 95.537 76.3633 95.7073 76.4483C95.8775 76.5121 96.1754 76.6609 96.3456 76.7672C98.7074 78.1916 99.8139 78.8293 100.708 79.297C101.303 79.5947 102.154 80.0836 102.623 80.3813C103.091 80.6789 104.048 81.2529 104.75 81.6356C105.452 82.0395 106.41 82.571 106.878 82.8473C107.346 83.1024 108.197 83.5914 108.772 83.9103C109.346 84.2292 109.963 84.6119 110.155 84.7181C111.644 85.6748 112.049 85.8874 112.432 85.8874C112.942 85.8874 113.155 85.3984 113.155 84.1229C113.155 83.2725 112.495 82.4434 111.283 81.8269C110.963 81.6568 109.751 80.9765 108.58 80.275C107.41 79.5947 105.835 78.7018 105.069 78.2979C104.303 77.8939 103.41 77.3837 103.048 77.1498C102.708 76.9373 102.218 76.6609 101.984 76.5546C101.601 76.3845 98.1116 74.3436 97.1967 73.7696C97.0265 73.6633 96.6009 73.4295 96.2392 73.2382C95.8988 73.0681 95.1328 72.6429 94.537 72.3027C93.9625 71.9413 93.005 71.4099 92.4092 71.1122C91.8347 70.8146 91.1964 70.4957 91.0261 70.3681C89.8771 69.6666 86.9195 68.0084 86.0259 67.5407C81.3448 65.1596 80.3447 65.1384 75.4934 67.4131C73.1528 68.5186 72.557 68.7737 71.6634 69.1776C70.6633 69.6028 69.0462 70.3044 67.6206 70.9421C66.9823 71.2185 66.1737 71.5799 65.812 71.7287C65.4715 71.8776 64.7481 72.1964 64.2161 72.4516C63.6842 72.6854 62.3437 73.2807 61.2373 73.7696C57.2158 75.5554 55.6838 76.257 53.0028 77.5113C51.9176 78.0215 50.9388 78.4467 50.7899 78.4467C50.6622 78.4467 50.3005 78.5742 50.0026 78.7443C49.6834 78.9144 48.8962 79.297 48.2578 79.5734C47.6195 79.871 46.4279 80.4025 45.5981 80.7852C44.7895 81.1466 43.3427 81.7844 42.4064 82.2096C41.4702 82.6135 40.3212 83.1237 39.8531 83.3363C37.321 84.463 36.5763 84.8032 35.7039 85.1433C35.172 85.3559 34.5975 85.6748 34.406 85.8236C34.2358 85.9724 33.9166 86.1 33.7251 86.1C33.5336 86.1 33.0229 86.2913 32.5761 86.5039C32.1293 86.7378 31.193 87.163 30.4909 87.4818C29.7887 87.8007 28.6184 88.3322 27.895 88.6724C27.1503 89.0125 26.4481 89.2889 26.3204 89.2889C26.1928 89.2889 25.831 89.4164 25.5332 89.5865C25.214 89.7566 24.5331 90.0755 24.0012 90.3093C21.9798 91.181 21.5117 91.3936 20.3627 91.925C19.703 92.2227 19.086 92.4778 19.0009 92.4778C18.8945 92.4778 18.4264 92.6691 17.9583 92.8817C17.4689 93.1156 16.5114 93.5407 15.8092 93.8596C15.107 94.1785 13.9368 94.71 13.2133 95.0501C12.4686 95.3903 11.7664 95.6667 11.6388 95.6667C11.5111 95.6667 11.1494 95.7942 10.8515 95.9643C10.0004 96.432 8.6386 97.006 5.51077 98.2603C2.93616 99.2807 2.17016 100.45 1.9361 103.724C1.80843 105.446 2.21271 106.424 3.6596 107.955C5.12777 109.506 8.80882 112.27 10.2344 112.908C10.4898 113.014 11.1919 113.397 11.7664 113.758C12.3622 114.098 13.1282 114.545 13.4687 114.715C13.8304 114.885 14.2559 115.098 14.4262 115.225C15.107 115.65 22.6819 119.264 22.8947 119.264C23.0224 119.264 23.3841 119.392 23.7245 119.562C24.9587 120.179 28.1503 121.39 29.6398 121.837C30.5122 122.071 33.0229 121.901 33.7251 121.539ZM231.013 120.753C235.438 119.775 236.907 118.308 237.417 114.375C237.609 112.972 237.29 98.813 237.077 98.2178C236.992 98.0477 236.864 96.7084 236.779 95.2415C236.311 87.8858 236.098 85.3559 235.821 83.1237C235.651 81.7844 235.396 79.4884 235.268 78.0215C234.545 70.2193 233.906 66.0313 233.204 64.6919C232.672 63.6502 230.949 61.7369 228.949 59.9511C226.246 57.5276 226.097 57.3787 224.651 56.1244C221.948 53.7647 220.395 52.4679 219.31 51.66C218.906 51.3624 217.735 50.4057 216.671 49.5341C215.629 48.6624 214.139 47.4507 213.373 46.8767C212.607 46.3027 211.714 45.5586 211.352 45.2397C211.012 44.9208 210.629 44.6444 210.522 44.6444C210.437 44.6444 209.905 44.283 209.352 43.8366C208.82 43.3901 208.16 42.9012 207.926 42.7311C207.671 42.561 206.926 41.987 206.245 41.4556C205.586 40.9241 204.224 39.9249 203.266 39.2233C202.288 38.5218 200.713 37.3738 199.756 36.6722C198.798 35.9707 197.862 35.3116 197.67 35.1841C197.479 35.0778 196.777 34.5676 196.096 34.0786C195.436 33.5684 194.84 33.1644 194.755 33.1644C194.691 33.1644 193.862 32.5904 192.947 31.8889C192.032 31.1873 191.202 30.6133 191.138 30.6133C191.074 30.6133 190.904 30.5283 190.755 30.4007C189.5 29.3803 185.776 26.7867 185.563 26.7867C185.499 26.7867 185.095 26.5316 184.67 26.2127C184.244 25.8725 183.733 25.5324 183.542 25.4048C183.35 25.2985 182.372 24.6182 181.35 23.9167C180.35 23.2151 179.35 22.5561 179.159 22.4285C178.967 22.3222 178.201 21.812 177.456 21.3018C176.712 20.8128 176.073 20.4089 176.031 20.4089C175.988 20.4089 175.35 20.005 174.605 19.516C173.861 19.0058 173.052 18.4956 172.818 18.3467C171.733 17.6664 169.435 16.2208 168.988 15.9444C168.626 15.7106 163.796 12.7768 161.243 11.2674C161.073 11.1611 160.2 10.7359 159.328 10.2895C158.455 9.8643 157.477 9.37533 157.179 9.22652C156.689 8.97141 156.583 8.99267 156.221 9.37533C155.625 10.0344 155.051 14.5839 154.668 21.7907C154.413 26.2764 154.413 52.8293 154.647 57.7189C154.966 63.8416 155.242 68.2847 155.391 69.1989C155.455 69.6666 155.604 71.2398 155.711 72.7067C156.477 82.8686 157.902 89.1401 160.413 93.3281C161.158 94.5612 162.86 96.6021 164.115 97.7501C165.945 99.4508 165.583 100.11 163.52 98.7918C162.477 98.1115 161.392 97.0273 160.179 95.4541C158.838 93.7321 156.774 89.2039 156.328 87.0567C156.221 86.589 156.051 85.6748 155.923 85.037C155.796 84.3993 155.583 83.4851 155.477 83.0174C155.349 82.5497 155.157 81.4017 155.072 80.4663C154.966 79.5309 154.796 78.2979 154.668 77.7026C154.434 76.5121 154.093 72.7492 153.796 67.817C153.689 66.01 153.498 63.5652 153.391 62.3959C152.966 58.3567 152.668 42.0933 152.817 33.4833C153.136 17.879 153.604 12.1178 154.796 9.92807C155.221 9.12022 154.923 8.80133 154.093 9.22652C153.349 9.58793 152.285 10.0556 151.136 10.5021C150.668 10.6721 149.434 11.1399 148.37 11.5438C147.327 11.9477 146.072 12.3941 145.604 12.543C145.136 12.6918 144.412 12.9256 144.008 13.0744C142.093 13.7547 141.731 13.861 141.135 14.0524C140.05 14.3713 139.305 15.1366 138.88 16.3696C138.667 17.0074 138.476 17.794 138.476 18.1341C138.476 18.453 138.39 18.9207 138.263 19.1333C138.029 19.5585 137.71 22.8962 137.39 27.9559C137.284 29.8267 137.071 32.4629 136.944 33.8022C136.518 37.7352 136.582 61.2267 137.029 68.3485C137.22 71.5162 137.476 74.5137 137.603 75.0452C137.731 75.5767 137.837 76.8097 137.837 77.8089C137.859 78.8081 137.965 80.1474 138.071 80.7852C138.178 81.423 138.348 82.8686 138.454 83.9953C138.561 85.1221 138.752 86.4189 138.88 86.8653C138.986 87.333 139.242 88.5023 139.433 89.5015C139.901 91.9463 140.71 94.7525 141.348 96.1982C142.178 98.1115 143.306 100.152 144.029 101.13C144.476 101.747 144.859 102.3 144.859 102.385C144.859 102.703 145.582 103.32 145.923 103.32C146.136 103.32 146.455 103.086 146.625 102.81C147.285 101.832 148.583 101.428 153.434 100.641C154.476 100.493 155.391 100.301 155.498 100.237C155.583 100.174 157.328 100.11 159.37 100.11C163.051 100.089 165.328 100.344 167.945 101.088C168.541 101.258 169.243 101.428 169.541 101.492C169.839 101.534 170.371 101.683 170.711 101.789C171.073 101.917 171.924 102.172 172.626 102.363C173.329 102.576 174.265 102.874 174.712 103.022C175.137 103.192 175.733 103.32 175.988 103.32C176.265 103.32 176.563 103.405 176.69 103.533C176.797 103.639 177.329 103.83 177.839 103.937C178.371 104.043 179.52 104.383 180.393 104.681C181.265 104.978 182.478 105.382 183.053 105.573C183.648 105.765 184.457 106.02 184.861 106.19C185.265 106.339 186.18 106.636 186.883 106.828C187.585 107.04 188.968 107.466 189.968 107.784C190.968 108.082 192.351 108.529 193.053 108.72C193.755 108.932 194.67 109.23 195.074 109.379C195.479 109.528 196.436 109.847 197.202 110.102C197.968 110.336 199.117 110.718 199.756 110.973C200.394 111.207 201.266 111.505 201.671 111.611C202.351 111.781 204.586 112.504 206.245 113.121C206.607 113.248 207.182 113.418 207.522 113.524C208.309 113.737 209.416 114.141 210.331 114.524C210.692 114.672 211.16 114.8 211.352 114.8C211.543 114.8 211.905 114.906 212.161 115.055C212.416 115.183 212.905 115.374 213.267 115.459C213.927 115.608 215.054 115.991 215.82 116.309C216.459 116.586 218.097 117.16 218.586 117.287C218.82 117.351 219.31 117.521 219.693 117.691C220.055 117.861 220.501 117.989 220.693 117.989C220.863 117.989 221.331 118.116 221.714 118.287C222.097 118.457 223.182 118.903 224.119 119.286C225.055 119.668 226.204 120.242 226.672 120.561C227.715 121.284 228.438 121.305 231.013 120.753ZM42.7256 80.1474C43.0022 79.9136 43.3001 79.7222 43.3852 79.7222C43.4916 79.7222 44.3214 79.3821 45.2151 78.9569C46.7045 78.2766 47.811 77.7664 49.8537 76.8735C50.2154 76.7034 50.9175 76.4058 51.4495 76.1932C52.8964 75.6192 52.9815 75.5129 52.8538 74.535C52.7262 73.6421 52.9177 71.2185 53.4709 66.5415C54.2582 59.781 55.2369 54.7001 56.237 52.2127C56.5349 51.4899 56.7689 50.7246 56.7689 50.5333C56.7689 50.1719 56.237 50.023 56.0455 50.3419C55.8965 50.5758 51.0878 52.9356 48.7898 53.8922C47.5344 54.4237 46.2364 55.0615 45.896 55.3379C45.1725 55.8906 44.3002 58.6543 43.6831 62.3959C43.4916 63.5652 43.2363 65.0108 43.1299 65.5848C43.0235 66.1801 42.832 67.6044 42.7256 68.7737C42.5979 69.943 42.4064 71.3036 42.3 71.7925C42.1724 72.2815 42.0873 73.0893 42.0873 73.5783C42.0873 74.0673 42.0022 75.0452 41.8745 75.768C41.4702 78.2553 41.2574 80.2324 41.3638 80.4025C41.5553 80.7001 42.2149 80.5938 42.7256 80.1474ZM84.8343 61.6731C85.7705 61.2054 86.9195 60.7802 87.4089 60.6952C88.0622 60.3678 88.26 60.0574 88.26 60.0574L87.3323 59.4685C87.177 59.3707 87.0068 59.3006 86.8259 59.2644C86.5323 59.2049 86.0599 59.0986 85.7705 58.9732C84.1109 58.2716 83.664 58.0803 82.8342 57.7614C82.3661 57.5913 81.2809 57.1449 80.4085 56.7835C79.5574 56.4221 78.6638 56.1244 78.451 56.1244C78.2382 56.1244 78.0254 56.0394 77.9403 55.9118C77.8765 55.8055 77.5148 55.6142 77.1318 55.5079C76.7488 55.4016 75.9189 55.104 75.2806 54.8489C74.6423 54.5938 73.9188 54.3387 73.6848 54.2749C73.4507 54.2324 73.0677 54.0835 72.8336 53.9772C72.2804 53.7434 70.6633 53.1694 69.8548 52.9355C68.9398 52.6804 67.0461 52.0001 65.812 51.5112C65.2162 51.2773 64.1736 50.9159 63.4714 50.7033C62.7693 50.4907 61.9182 50.2144 61.5564 50.0655C60.5564 49.6404 58.918 49.4703 58.5775 49.7467C58.0456 50.1931 56.5136 55.4654 56.237 57.8252C56.1731 58.463 56.0242 59.2283 55.9178 59.5259C55.7902 59.8235 55.6199 60.929 55.4923 61.9707C55.3646 63.0337 55.1305 65.0321 54.9603 66.4352C54.7901 67.8383 54.556 69.943 54.4497 71.1122C54.3433 72.2815 54.1943 73.4932 54.1092 73.8334C54.0241 74.1735 54.0454 74.535 54.2156 74.7263C54.4709 75.0239 54.8114 74.9389 55.705 74.2798C55.8753 74.1523 56.5562 73.8334 57.1945 73.5783C58.7052 72.9405 60.4713 72.1539 63.5778 70.7295C64.2162 70.4319 65.5567 69.8367 66.5567 69.3902C67.5568 68.965 69.1313 68.2422 70.0888 67.7958C71.025 67.3281 71.8974 66.9667 72.0038 66.9667C72.1102 66.9667 72.6847 66.7115 73.2592 66.4139C73.855 66.1163 75.4295 65.3935 76.7913 64.8195C78.8553 63.9691 79.4936 63.7778 80.5575 63.7778C81.749 63.7778 81.8767 63.7353 82.3023 63.14M222.736 51.6813C222.736 51.5537 222.161 50.3207 221.438 48.9176C220.033 46.1326 219.267 45.2822 218.203 45.2822C217.48 45.2822 216.565 46.005 216.565 46.579C216.565 46.7704 217.288 47.557 218.182 48.301C219.055 49.0239 220.31 50.1506 220.948 50.7671C222.012 51.7876 222.736 52.149 222.736 51.6813ZM64.4289 48.6837C64.4289 48.0884 63.6629 45.8987 63.131 44.9208C61.5352 42.0508 60.067 42.2634 58.3648 45.6436C57.769 46.8129 57.4285 47.727 57.5349 47.8333C57.6413 47.9396 58.0669 47.9396 58.5563 47.8333C59.0244 47.727 59.8755 47.7058 60.4713 47.7696C61.5139 47.8971 61.8756 48.0034 63.2587 48.7262C64.131 49.1939 64.4289 49.1727 64.4289 48.6837ZM152.051 8.20607C153.051 7.69585 155.136 7.01556 155.732 7.01556C156.051 7.01556 156.838 7.24941 157.498 7.54704C159.115 8.26985 159.349 8.24859 159.115 7.44074C158.711 6.03763 157.157 3.18889 156.434 2.57237C155.838 2.04089 155.498 1.91333 154.732 1.91333C153.923 1.91333 153.668 2.01963 153.2 2.55111C152.604 3.23141 151.264 6.22896 151.242 6.93052C151.242 7.16437 151.136 7.462 151.008 7.58956C150.732 7.86593 150.902 8.5037 151.242 8.5037C151.37 8.5037 151.732 8.37615 152.051 8.20607Z" fill="rgb(0,0,0)" fill-rule="nonzero" transform="matrix(1,0,0,-1,0.00317383,225.324)" />
			<path id="矢量 449" d="M20.5897 36.8423C19.8875 36.0344 18.9513 34.8652 18.5045 34.2274C18.0576 33.5896 17.6108 32.9731 17.5257 32.8456C16.9299 32.1227 15.8447 30.5921 15.8447 30.507C15.8447 30.4433 15.483 29.7842 15.0149 29.0614C13.9723 27.4032 12.419 24.7245 12.0786 24.023C11.9296 23.7253 11.6956 23.3001 11.5466 23.0663C10.9934 22.2159 10.3551 21.1104 9.41884 19.3459C8.8869 18.3467 8.16346 17.0712 7.82301 16.4759C7.48257 15.9019 6.75912 14.5626 6.22718 13.4996C3.1419 7.44074 1.2269 3.5503 0.865178 2.74244C0.652401 2.23222 0.333234 1.55193 0.18429 1.23304C-0.134877 0.637778 -0.0284881 0 0.418345 0C0.843901 0 1.26946 0.637778 2.12057 2.55111C2.5674 3.5503 2.99296 4.46444 3.07807 4.57074C3.16318 4.6983 4.2909 6.84548 5.58884 9.35407C6.86551 11.8627 8.16346 14.35 8.44007 14.8815C10.3338 18.3042 11.2275 19.8987 11.3764 20.09C11.4615 20.2176 11.8232 20.8341 12.1637 21.4719C12.7382 22.5348 15.5043 27.3394 16.1213 28.3811C17.2703 30.2732 21.2067 35.8644 21.5685 36.1407C21.6323 36.2045 21.9727 36.5659 22.2919 36.9699C22.76 37.5226 22.8238 37.7352 22.6323 37.969C22.2068 38.4793 21.8876 38.3092 20.5897 36.8423Z" fill="rgb(0,0,0)" fill-rule="nonzero" transform="matrix(1,0,0,-1,225.193,60.5645)" />
			<path id="矢量 450" d="M4.77848 15.8291C4.54443 15.7228 3.67204 15.5739 2.82093 15.4889C1.92726 15.4039 1.18254 15.2125 1.03359 15.0425C0.905926 14.8724 0.608037 14.7448 0.39526 14.7448C-0.0941292 14.7448 -0.136685 14.1496 0.310149 13.9795C0.501648 13.8945 1.24637 14.0008 2.01237 14.1921C3.9912 14.6811 9.58726 14.6385 13.8215 14.0858C15.6301 13.8519 17.843 13.5756 18.7154 13.4693C19.5878 13.363 20.6517 13.1716 21.056 13.0653C21.4603 12.9591 22.5667 12.7039 23.5029 12.5126C24.4391 12.3213 25.5881 12.0662 26.0563 11.9386C26.5244 11.8323 27.3329 11.641 27.8649 11.5347C28.3968 11.4071 29.6309 11.0882 30.631 10.7906C31.631 10.493 32.929 10.1316 33.5035 9.9615C36.1419 9.19616 38.9506 8.28202 40.4188 7.72928C41.2911 7.41039 42.6104 6.92142 43.3551 6.68757C44.0785 6.43246 44.8445 6.15609 45.0573 6.04979C45.2488 5.9435 45.8446 5.68839 46.3765 5.49705C46.9085 5.30572 47.7596 4.94431 48.2703 4.71046C48.7809 4.45535 49.632 4.09394 50.1853 3.90261C50.7172 3.69002 52.079 3.11602 53.1854 2.62705C54.2919 2.13809 55.3983 1.67039 55.6324 1.56409C55.8664 1.4578 56.5048 1.18142 57.058 0.947573C57.6112 0.692462 58.1431 0.501129 58.2495 0.501129C58.3559 0.501129 58.5687 0.373573 58.7176 0.203499C58.9943 -0.136649 59.5688 -0.0303526 59.5688 0.373573C59.5688 0.522388 59.356 0.820018 59.1006 1.05387C58.5687 1.52157 51.2066 5.17816 48.9299 6.13483C48.1639 6.45372 47.4617 6.79387 47.3553 6.90016C47.2276 7.00646 46.9723 7.0915 46.7808 7.0915C46.5893 7.0915 45.7169 7.38913 44.8658 7.75053C41.6954 9.08987 36.6951 10.7693 32.6524 11.8748C31.9502 12.0662 30.9501 12.3638 30.4182 12.4913C27.567 13.2992 24.886 13.9157 22.0135 14.4259C20.9709 14.6173 19.6516 14.8724 19.0984 14.9787C18.0984 15.2125 16.2472 15.4251 12.3321 15.8078C9.84259 16.0416 5.35298 16.0629 4.77848 15.8291Z" fill="rgb(0,0,0)" fill-rule="nonzero" transform="matrix(1,0,0,-1,154.446,63.4043)" />
			<path id="矢量 451" d="M0 0.212601C0 0.0850403 1.17027 0 3.10654 0C5.10664 0 6.14924 0.0850403 6.06413 0.212601C5.97902 0.340161 4.72364 0.425201 2.95759 0.425201C1.12772 0.425201 0 0.340161 0 0.212601Z" fill="rgb(0,0,0)" fill-rule="nonzero" transform="matrix(1,0,0,-1,301.467,252.536)" />
		</g>
	</g>
</svg>
