<svg viewBox="0 0 268 230" xmlns="http://www.w3.org/2000/svg" xmlns:xlink="http://www.w3.org/1999/xlink" width="268.000000" height="230.000000" fill="none">
	<defs>
		<clipPath id="clipPath_2">
			<rect width="216.000000" height="230.000000" x="26.000000" y="0.000000" fill="rgb(255,255,255)" />
		</clipPath>
	</defs>
	<rect id="2" width="268.000000" height="230.000000" x="0.000000" y="0.000000" />
	<g id="2" clip-path="url(#clipPath_2)" customFrame="url(#clipPath_2)">
		<rect id="2" width="216.000000" height="230.000000" x="26.000000" y="0.000000" />
		<path id="矢量 363" d="M142.054 228.135L124.075 219.121L121.649 214.487L120.542 220.843L117.712 223.522L105.648 218.781L41.1763 186.361L39.9848 179.749L32.0694 175.71L28.8778 158.936L26.4734 130.555L29.8353 115.121L32.1546 110.869L29.7502 105.448L30.4523 100.452L35.2611 96.1362L47.9852 90.9915L75.5399 80.6807L101.18 75.5998L102.818 54.787L109.606 31.4018L114.606 21.2611L120.202 19.6242L125.968 21.5162L129.671 7.31504L137.416 1.74512L148.438 1.74512L175.375 3.19075L203.505 7.42134L210.782 11.1205L215.143 17.8171L216.25 29.8499L223.059 29.8499L227.442 32.7836L236.485 33.0387L240.187 34.0167L240.187 40.1819L228.995 111.273L226.633 112.123L223.08 111.719L223.995 113.675L227.676 118.267L226.633 142.737L225.101 164.719L213.633 177.24L212.909 182.066L209.484 188.465L206.1 186.233L205.228 184.936L188.589 200.243L151.693 224.202L149.863 228.496L147.055 228.496L144.522 226.817L142.054 228.135Z" fill="rgb(255,255,255)" fill-rule="nonzero" />
		<path id="矢量 364" d="M112.265 97.1565L112.329 97.0077L114.755 91.948L113.499 82.8915L111.797 78.7034L100.35 75.4933L103.329 52.8097L108.84 33.9952L114.606 21.2609L119.606 19.624L125.372 21.346L129.841 8.10145L135.437 2.19138L147.31 1.12842L178.375 3.55198L207.292 8.78175L211.952 12.3108L215.654 21.0909L215.654 29.9347L229.91 32.3583L239.272 34.0803L240.443 38.9699L230.102 108.87L227.953 112.144L222.612 111.719L222.357 113.143L215.995 111.719L215.505 106.659L207.781 99.3887L194.036 95.6896L173.652 100.026L152.14 109.529L135.096 119.5L124.053 127.366L121.649 130.81L121.649 137.081L127.181 142.928L123.032 149.901L120.202 177.687L120.968 201.412L121.649 215.783L119.861 221.544L116.5 223.436L109.52 220.418L41.1763 186.36L40.3464 176.05L42.4742 155.577L43.8147 152.218L42.921 147.754L44.4956 130.172L48.4107 119.5L54.0919 113.526L75.3484 105.703L79.7529 105.278L98.7752 99.3462L112.265 97.1565Z" fill="rgb(1,89,188)" fill-rule="nonzero" />
		<g id="组合 74">
			<path id="矢量 365" d="M114.02 229.097C113.85 229.012 113.169 228.863 112.531 228.8C111.275 228.651 109.701 228.204 108.488 227.63C107.02 226.929 104.849 224.994 103.956 223.549C103.466 222.783 102.934 221.975 102.785 221.742C102.658 221.508 102.424 221.083 102.317 220.785C102.189 220.487 101.849 219.722 101.551 219.084C100.785 217.49 100.466 216.724 100.338 216.214C100.274 215.98 99.9979 215.13 99.7 214.301C98.934 212.047 98.4872 210.495 98.4872 209.985C98.4872 209.305 98.1467 209.241 97.2531 209.709C95.8062 210.495 94.4869 210.793 92.5294 210.793C90.9123 210.793 90.4442 210.708 89.4441 210.24C87.4653 209.305 86.6567 208.136 84.4438 203.033C82.7842 199.185 82.0607 197.251 80.4011 192.191C79.3797 189.151 79.0818 188.194 78.3371 185.495C78.1669 184.857 77.9116 184.049 77.8052 183.688C77.5711 182.943 77.0604 180.945 76.7838 179.542C76.6774 179.01 76.4434 177.926 76.2306 177.097C75.8902 175.651 75.6987 174.482 74.9752 169.656C74.7837 168.381 74.5709 167.169 74.4858 166.999C74.3156 166.574 73.8049 160.961 73.6347 157.539L73.4858 154.775L71.6772 154.605C70.6771 154.52 69.5919 154.35 69.2515 154.243C68.9111 154.116 68.2727 154.031 67.8259 154.031C67.3791 154.031 66.762 153.925 66.4428 153.818C66.1449 153.691 65.2938 153.499 64.5704 153.393C63.8682 153.287 62.4213 152.989 61.3574 152.755C60.3148 152.5 59.0594 152.245 58.5913 152.181C58.1232 152.117 57.6338 151.969 57.4849 151.862C57.3572 151.756 56.6763 151.607 55.9954 151.543C55.3146 151.48 54.5486 151.288 54.2932 151.14C54.0379 150.969 53.6123 150.842 53.357 150.842C53.1017 150.842 52.4633 150.693 51.9101 150.523C51.3782 150.353 50.3568 150.077 49.6547 149.885C47.7609 149.396 44.3565 148.397 43.1649 147.972C41.7819 147.483 39.0158 146.569 38.3774 146.377C38.037 146.292 37.2072 145.995 36.5688 145.74C35.9305 145.485 35.2071 145.229 34.973 145.166C34.7389 145.102 34.2708 144.932 33.9091 144.783C33.5687 144.634 32.8878 144.358 32.4197 144.188C30.9728 143.656 26.7385 141.892 25.3342 141.254C24.6107 140.914 23.9724 140.637 23.9086 140.637C23.8447 140.637 23.2064 140.361 22.4617 140.021C18.9508 138.363 17.4401 137.682 16.3549 137.236C15.7166 136.981 14.9932 136.683 14.7591 136.598C14.5251 136.492 13.8016 136.194 13.1633 135.96C12.5249 135.705 11.8015 135.408 11.5674 135.301C11.3334 135.195 10.6738 134.961 10.078 134.77C7.95022 134.09 6.75867 133.367 5.31178 131.921C2.84355 129.434 1.88605 126.585 2.54567 123.694C3.09889 121.313 3.50317 120.377 4.26917 119.591C4.716 119.144 5.07772 118.719 5.07772 118.613C5.07772 118.528 4.86494 118.23 4.63089 117.975C4.37555 117.699 4.05639 117.295 3.92872 117.061C3.80105 116.848 3.35422 116.104 2.94994 115.424C2.05628 113.957 0.949833 110.577 0.58811 108.323C0.0136103 104.667 -0.17789 93.8246 0.183833 87.0641C0.545555 80.8139 0.992388 75.4566 1.22644 74.8826C1.35411 74.5424 1.4605 73.7346 1.4605 73.0756C1.4605 72.4165 1.58817 70.9709 1.75839 69.8442C1.92861 68.7387 2.18394 67.0167 2.31161 66.0175C2.43928 65.0183 2.63078 63.7427 2.73717 63.1475C3.65211 58.024 3.77978 57.3862 4.39683 55.2816C4.92878 53.4745 6.248 52.2202 9.35456 50.647C10.6951 49.988 11.8866 49.4353 12.0356 49.4353C12.6101 49.4353 12.9505 48.755 12.9505 47.5857C12.9505 46.055 13.4824 44.2693 14.3336 42.9512C15.0783 41.7819 15.5038 41.3567 16.4613 40.889C17.4614 40.3788 22.9723 37.7214 26.2491 36.1482C27.8875 35.3616 29.7174 34.49 30.2919 34.1924C30.8877 33.8735 32.8878 32.8743 34.7602 31.9602C36.6327 31.0247 41.0372 28.8563 44.548 27.113C48.0588 25.3698 53.6549 22.6273 56.9955 20.9904C64.9321 17.1212 64.3576 17.3976 67.528 15.8031C69.06 15.0378 71.5495 13.8047 73.0602 13.0819C78.1243 10.6584 86.2524 6.70415 86.6354 6.4703C87.9759 5.72623 90.2101 5.36482 91.3378 5.61993C91.4591 5.64757 91.7485 5.80701 92.04 5.96008C92.7443 6.33212 94.3593 7.63956 94.8274 8.61749C95.0189 9.02141 95.2317 10.0419 95.2955 10.8497C95.3806 12.1465 95.4657 12.3379 95.8062 12.3379C96.1041 12.3379 96.2956 12.0827 96.5083 11.445C96.6786 10.9347 97.2105 10.1056 97.6999 9.57415C98.5936 8.59623 99.1468 8.25608 102.211 6.72541C103.147 6.23645 104.339 5.64119 104.87 5.36482C105.402 5.08845 106.785 4.40815 107.956 3.85541C109.126 3.30267 110.233 2.74993 110.403 2.64364C110.573 2.53734 110.913 2.36726 111.147 2.26097C111.382 2.15467 112.318 1.72949 113.211 1.3043C114.85 0.538968 115.85 0.528339 116.892 0.751561C117.014 0.777071 117.269 0.876991 117.531 0.964154C117.848 1.07045 118.048 1.2384 118.161 1.28942C118.752 1.55729 119.02 1.4106 119.51 0.964154C120.19 0.326376 121.616 -0.120069 122.446 0.0287462C123.446 0.22008 124.531 1.21926 125.063 2.4523C125.318 3.0263 125.936 4.00423 125.936 4.32312C125.957 5.13097 126.467 5.66245 127.957 6.40652C129.127 7.00178 130.361 7.66082 133.383 9.31904C134.021 9.65919 134.957 10.2332 135.468 10.5521C135.979 10.8922 136.425 11.1686 136.511 11.1686C136.574 11.1686 137.042 11.4662 137.574 11.8064C138.085 12.1678 138.574 12.4442 138.66 12.4442C138.766 12.4442 139.489 12.8693 140.277 13.4008C141.085 13.9323 141.766 14.3575 141.809 14.3575C141.915 14.3575 146.298 17.2275 148.405 18.6731C149.575 19.4597 150.745 20.2676 151.043 20.4589C151.341 20.6715 152.511 21.5219 153.66 22.3722C154.809 23.2226 155.788 23.9242 155.831 23.9242C156.001 23.9242 159.278 26.4753 159.576 26.8154C159.703 26.9855 159.916 27.113 160.023 27.113C160.129 27.113 161.15 27.8784 162.278 28.835C163.406 29.7705 165.342 31.3649 166.576 32.3853C167.81 33.3845 169.3 34.6601 169.874 35.1916C170.47 35.723 171.342 36.4884 171.789 36.8923C175.662 40.3576 177.577 42.1433 177.832 42.5047C178.534 43.5039 178.96 43.5039 179.321 42.4622C179.47 42.037 179.853 41.4205 180.151 41.0804C180.641 40.5702 180.853 40.5064 182.045 40.5064C183.322 40.5064 183.428 40.5489 184.194 41.3142C184.981 42.1008 186.066 44.8858 186.237 45.2472C186.833 46.629 187.364 48.9676 187.535 49.3077C187.705 49.6266 187.854 50.3707 187.854 50.9234C187.854 52.0076 188.003 52.284 189.577 53.8997C193.833 58.3004 196.386 61.0428 197.28 62.2121C198.28 63.5089 199.344 66.5915 199.344 68.2072C199.344 68.7387 199.429 69.3977 199.557 69.6741C199.663 69.9504 199.854 71.5449 199.982 73.2456C200.089 74.9464 200.301 77.1361 200.408 78.1353C201.216 85.1721 201.706 93.9521 201.833 103.115C201.918 109.875 201.876 110.938 201.557 112.15C201.046 114.106 199.663 115.849 198.131 116.508C197.748 116.678 197.429 116.955 197.429 117.146C197.429 117.529 198.025 117.465 199.663 116.912C200.28 116.7 200.727 116.678 201.301 116.848C202.195 117.082 203.748 118.57 203.961 119.378C204.025 119.676 204.153 120.016 204.238 120.122C204.408 120.335 204.451 120.633 204.876 123.949C205.004 125.012 205.217 126.202 205.323 126.606C205.663 127.882 206.302 132.113 207.004 137.98C207.11 138.915 207.259 139.915 207.323 140.212C207.387 140.51 207.578 141.892 207.77 143.295C208.536 149.29 208.685 150.374 209.132 152.968C209.259 153.606 209.451 155.094 209.578 156.263C209.812 158.474 209.855 158.835 210.174 160.94C210.281 161.642 210.472 163.13 210.6 164.235C210.749 165.341 210.94 166.68 211.068 167.212C211.174 167.743 211.366 168.976 211.472 169.975C211.834 173.185 212.302 176.651 212.451 176.991C212.515 177.161 212.706 178.415 212.876 179.755C213.047 181.094 213.323 183.199 213.494 184.432C213.685 185.665 213.919 187.535 214.025 188.577C214.153 189.64 214.345 190.767 214.451 191.107C214.791 192.127 214.706 193.871 214.238 194.934C213.472 196.613 211.6 197.378 208.174 197.421C207.366 197.421 206.195 197.549 205.6 197.719C204.791 197.952 204.153 197.974 203.046 197.846C201.621 197.676 201.535 197.676 199.982 198.463C196.982 199.972 194.727 200.589 192.216 200.589L190.428 200.589L190.343 204.266C190.28 207.647 190.067 209.156 189.514 210.219C189.407 210.432 189.237 211.006 189.152 211.495C188.662 213.833 187.13 217.086 185.896 218.446C185.088 219.318 183.79 220.275 182.428 220.934C181.002 221.635 177.3 222.911 176.662 222.911C176.449 222.911 175.832 223.038 175.3 223.208C174.768 223.379 173.874 223.634 173.279 223.761C172.704 223.91 171.64 224.165 170.938 224.314C168.725 224.845 162.448 225.675 157.32 226.121C155.916 226.227 154.554 226.419 154.277 226.525C154.001 226.652 153.405 226.738 152.937 226.738C152.469 226.738 150.831 226.886 149.277 227.056C147.724 227.226 145.617 227.482 144.554 227.588C143.511 227.715 140.575 227.907 138.064 228.034C133.319 228.247 129.51 228.481 124.233 228.885C119.893 229.204 114.403 229.331 114.02 229.097ZM124.34 227.375C125.872 227.269 128.787 227.056 130.829 226.886C132.893 226.716 135.34 226.631 136.255 226.695C137.383 226.737 138.447 226.652 139.404 226.44C140.213 226.249 141.681 226.1 142.702 226.078C143.724 226.078 145.362 225.972 146.362 225.887C151.171 225.398 152.533 225.249 153.703 225.058C154.809 224.867 156.597 224.633 159.874 224.271C165.172 223.697 172.236 222.401 176.257 221.316C178.96 220.572 179.917 220.275 180.407 220.02C180.704 219.871 181.364 219.531 181.896 219.297C184.471 218.085 185.598 216.746 186.598 213.642C186.96 212.494 187.513 210.814 187.79 209.943C188.343 208.242 188.684 205.457 188.705 202.481C188.705 200.695 188.535 200.163 187.918 200.163C187.641 200.163 186.364 199.356 185.896 198.867C184.492 197.421 182.471 193.786 181.066 190.172C180.811 189.534 180.513 188.811 180.407 188.577C179.896 187.387 178.534 183.73 178.279 182.837C178.194 182.497 177.896 181.668 177.641 181.03C176.683 178.521 175.194 173.759 174.151 169.763C173.959 168.997 173.683 168.104 173.555 167.743C173.342 167.105 172.938 165.341 172.513 163.279C172.406 162.705 172.236 162.067 172.172 161.897C172.002 161.493 171.534 159.261 171.236 157.454C171.108 156.688 170.917 155.902 170.81 155.71C170.704 155.498 170.619 155.009 170.619 154.626C170.619 154.243 170.491 153.223 170.321 152.33C170.044 150.948 169.683 148.185 169.214 143.826C169.023 141.998 168.959 141.148 168.725 138.129C168.47 134.557 168.427 134.472 166.172 134.451C163.746 134.43 160.278 133.792 156.852 132.75C156.469 132.623 155.703 132.453 155.15 132.368C152.894 131.985 145.192 129.817 142.426 128.796C140.383 128.031 140 127.882 138.383 127.244C137.447 126.883 136.425 126.458 136.106 126.287C135.808 126.117 135.447 125.969 135.319 125.969C134.872 125.969 125.467 121.398 122.616 119.782L121.765 119.293L120.808 119.74C120.297 119.995 119.637 120.25 119.339 120.335C119.041 120.399 118.616 120.547 118.382 120.654C118.148 120.739 116.531 121.27 114.765 121.823C110.764 123.077 109.53 123.503 108.062 124.055C107.424 124.31 106.658 124.587 106.36 124.693C106.062 124.778 105.36 125.097 104.785 125.416C104.211 125.713 103.658 125.969 103.551 125.969C103.296 125.969 98.2531 128.477 97.8701 128.796C97.2318 129.306 92.6358 131.475 91.2527 131.9C90.4867 132.155 89.5718 132.346 89.1888 132.346C88.3164 132.346 87.5078 132.665 87.3589 133.048C87.2951 133.218 87.4227 133.686 87.6355 134.068C88.8909 136.407 89.2526 137.534 89.4867 139.936C89.6356 141.573 88.9334 144.124 87.5291 146.994C87.0184 148.014 86.9759 148.312 87.061 149.864C87.1248 150.821 87.3163 152.5 87.4866 153.606C87.7844 155.519 87.9334 156.348 88.4866 158.814C88.6143 159.409 88.8058 160.26 88.9122 160.727C89.1462 161.812 89.5718 162.938 90.4229 164.66C90.9548 165.766 91.0825 166.255 91.0187 167.105C90.9123 168.763 91.0399 171.697 91.2527 172.739C91.3591 173.27 91.5506 174.418 91.6996 175.29C92.3166 179.287 92.6145 180.796 93.3805 183.581C93.6358 184.453 93.9124 185.643 94.0188 186.239C94.1252 186.813 94.3167 187.535 94.4231 187.833C94.5295 188.131 94.6784 188.79 94.7636 189.3C94.8274 189.81 94.9551 190.342 95.0402 190.469C95.1891 190.703 95.5721 192.255 95.9126 193.892C95.9977 194.36 96.1679 195.082 96.3168 195.486C96.4445 195.89 96.636 196.762 96.7637 197.4C97.2956 200.312 99.0191 206.818 100.104 210.049C100.274 210.538 100.402 211.048 100.402 211.197C100.402 211.346 100.53 211.771 100.7 212.132C100.849 212.515 101.189 213.514 101.466 214.365C101.721 215.215 102.019 215.959 102.126 216.023C102.232 216.087 102.317 216.32 102.317 216.576C102.317 216.809 102.445 217.256 102.594 217.553C102.764 217.872 103.381 219.127 103.998 220.36C104.828 222.082 105.402 222.932 106.488 224.038C107.254 224.824 107.977 225.462 108.083 225.462C108.211 225.462 108.573 225.653 108.892 225.908C109.679 226.482 112.02 227.163 113.914 227.375C115.956 227.588 120.999 227.588 124.34 227.375ZM94.4444 208.901C95.9551 208.646 97.2531 208.157 97.5084 207.753C97.6573 207.54 97.6361 207.243 97.4871 206.924C97.2105 206.371 96.7424 204.84 96.2956 203.14C96.1253 202.502 95.87 201.545 95.7423 201.014C95.5934 200.482 95.3806 199.483 95.2529 198.782C95.1466 198.08 94.9551 197.421 94.8487 197.315C94.7423 197.187 94.6572 196.783 94.6572 196.401C94.6572 196.018 94.5295 195.295 94.3593 194.806C94.2103 194.296 93.9124 193.127 93.6997 192.191C93.4869 191.256 93.2316 190.15 93.1252 189.746C92.9975 189.342 92.8273 188.62 92.7422 188.152C92.3166 186.175 91.9123 184.495 91.6996 183.943C91.5719 183.602 91.4655 183.007 91.4655 182.603C91.4655 182.178 91.3591 181.668 91.2527 181.455C90.9974 180.988 90.4654 178.564 90.1888 176.566C90.0612 175.8 89.8697 174.907 89.742 174.546C89.6143 174.206 89.4654 172.186 89.4016 170.082C89.2952 166.638 89.2313 166.149 88.7845 165.171C88.5079 164.575 88.2738 164.023 88.2738 163.938C88.2738 163.831 88.1462 163.47 87.9759 163.109C87.1887 161.408 86.4652 158.049 85.8907 153.457C85.7418 152.373 85.5503 151.48 85.4439 151.48C85.3375 151.48 84.8907 151.756 84.4651 152.075C82.6352 153.521 79.2946 154.669 77.0179 154.669C75.9966 154.669 75.4646 154.754 75.4008 154.945C75.1242 155.647 75.8689 164.703 76.6562 170.082C77.0817 173.079 77.869 177.14 78.3797 179.01C78.5499 179.606 78.7414 180.499 78.8265 181.03C78.9116 181.54 79.0393 182.114 79.1244 182.306C79.2095 182.476 79.401 183.05 79.5287 183.581C79.7627 184.538 80.1457 185.877 80.7415 187.939C80.9117 188.535 81.1458 189.3 81.2522 189.64C81.4862 190.512 82.1884 192.446 82.8267 194.168C82.9969 194.593 83.4438 195.827 83.8055 196.868C84.1672 197.931 84.7417 199.441 85.1034 200.248C85.4439 201.056 85.7205 201.822 85.7205 201.97C85.7205 202.119 85.8694 202.353 86.0397 202.502C86.2099 202.651 86.3588 202.906 86.3588 203.076C86.3588 203.374 86.8695 204.607 87.5929 206.116C88.1249 207.221 89.7846 208.752 90.7421 209.029C91.6144 209.284 92.4656 209.241 94.4444 208.901ZM194.514 198.718C196.961 198.144 200.769 196.379 202.046 195.21C202.919 194.402 204.067 192.34 204.323 191.107C204.387 190.767 204.344 189.768 204.238 188.896C203.727 185.261 203.642 184.687 203.408 183.369C203.259 182.603 203.004 181.328 202.855 180.499C202.684 179.691 202.408 178.16 202.216 177.097C202.025 176.055 201.727 174.589 201.557 173.866C201.386 173.143 201.259 172.25 201.259 171.91C201.259 171.57 201.152 171.017 201.025 170.677C200.769 170.018 200.28 167.594 199.982 165.511C199.876 164.745 199.684 163.895 199.578 163.597C199.472 163.3 199.323 162.598 199.259 162.003C199.174 161.429 199.046 160.664 198.94 160.302C198.833 159.962 198.62 159.091 198.493 158.389C198.344 157.687 198.11 156.497 197.961 155.732C197.812 154.966 197.62 154.01 197.535 153.606C197.471 153.202 197.28 152.245 197.11 151.48C196.939 150.714 196.705 149.524 196.578 148.822C196.45 148.121 196.259 147.122 196.173 146.59C196.067 146.059 195.897 145.208 195.769 144.677C195.514 143.635 195.11 141.7 194.556 139.043C194.365 138.108 194.067 136.747 193.897 136.024C193.727 135.301 193.599 134.515 193.599 134.302C193.599 134.068 193.471 133.409 193.301 132.857C193.131 132.283 192.833 131.092 192.641 130.22C192.471 129.349 192.173 128.052 192.003 127.35C191.854 126.649 191.556 125.118 191.365 123.949C190.939 121.419 190.748 120.866 190.279 120.866C189.982 120.866 189.96 121.015 190.067 121.717C190.173 122.397 190.109 122.737 189.662 123.417C189.365 123.885 189.13 124.332 189.13 124.417C189.13 124.672 187.237 126.819 186.258 127.691C183.683 130.008 179.577 132.134 175.406 133.324C174.704 133.516 173.725 133.813 173.215 133.962C172.725 134.132 171.832 134.26 171.236 134.26C170.066 134.26 169.789 134.557 170.193 135.344C170.342 135.599 170.534 137.193 170.64 138.915C170.725 140.616 170.917 142.636 171.023 143.401C171.13 144.167 171.342 145.782 171.449 147.015C171.704 149.694 172.491 154.839 172.917 156.795C173.045 157.326 173.3 158.559 173.491 159.558C173.683 160.557 173.938 161.663 174.066 162.003C174.172 162.364 174.364 163.13 174.449 163.704C174.619 164.767 174.874 165.872 175.406 167.637C175.555 168.168 175.853 169.21 176.045 169.975C176.257 170.741 176.683 172.165 177.002 173.164C177.321 174.163 177.662 175.333 177.747 175.8C177.811 176.247 177.96 176.778 178.066 176.97C178.172 177.161 178.449 177.884 178.683 178.585C178.917 179.287 179.449 180.817 179.875 181.987C180.3 183.156 180.726 184.368 180.832 184.665C180.917 184.963 181.087 185.388 181.215 185.622C181.322 185.835 181.577 186.409 181.747 186.876C184.279 193.573 186.45 197.485 188.088 198.271C189.769 199.079 192.173 199.249 194.514 198.718ZM208.259 195.89C208.898 195.784 209.834 195.699 210.344 195.699C211.366 195.699 212.196 195.38 212.004 195.04C211.919 194.934 211.344 194.849 210.727 194.849C208.834 194.849 206.812 193.786 206.344 192.574C206.068 191.809 205.748 192 205.195 193.233C204.919 193.871 204.387 194.721 204.025 195.146C203.663 195.55 203.408 195.997 203.472 196.103C203.621 196.315 206.472 196.188 208.259 195.89ZM212.621 193.743C212.877 193.339 212.898 192.871 212.728 191.022C212.621 189.789 212.43 188.513 212.323 188.173C212.196 187.833 212.111 187.174 212.111 186.685C212.111 186.196 212.004 185.388 211.876 184.878C211.77 184.347 211.579 183.199 211.472 182.327C210.962 178.033 210.791 176.821 210.6 175.928C210.323 174.801 209.834 171.357 209.536 168.381C209.408 167.212 209.217 166.17 209.11 166.042C209.004 165.936 208.919 165.362 208.898 164.767C208.898 164.193 208.791 163.172 208.685 162.535C208.429 161.025 207.876 156.943 207.642 154.775C207.536 153.839 207.387 152.798 207.323 152.436C207.174 151.799 206.855 149.418 206.238 144.677C206.068 143.337 205.834 141.7 205.727 141.063C205.493 139.617 204.982 135.854 204.663 133.303C204.536 132.261 204.323 130.922 204.216 130.327C204.089 129.753 203.919 128.605 203.812 127.776C203.004 121.759 202.748 120.441 202.004 119.208C201.493 118.379 200.769 118.145 199.897 118.549C198.897 118.974 196.684 118.889 195.237 118.358C194.301 118.018 193.875 117.954 193.471 118.103C193.173 118.23 192.62 118.315 192.216 118.315C191.811 118.315 191.45 118.4 191.386 118.507C191.322 118.592 191.492 119.293 191.769 120.037C192.343 121.632 192.726 123.056 193.003 124.693C193.109 125.331 193.28 125.947 193.407 126.054C193.514 126.181 193.599 126.543 193.599 126.883C193.599 127.223 193.748 128.137 193.939 128.902C194.705 132.091 194.854 132.729 195.173 134.26C195.365 135.131 195.663 136.619 195.833 137.555C196.024 138.49 196.322 139.702 196.493 140.234C196.642 140.786 196.79 141.467 196.79 141.743C196.79 142.019 196.918 142.763 197.088 143.401C197.237 144.039 197.514 145.293 197.705 146.165C197.897 147.037 198.152 148.291 198.28 148.929C198.62 150.417 199.11 152.989 199.323 154.35C199.429 154.945 199.62 155.944 199.748 156.582C199.897 157.22 200.152 158.474 200.344 159.346C200.514 160.217 200.748 161.323 200.876 161.79C201.004 162.258 201.174 163.172 201.259 163.81C201.344 164.448 201.514 165.405 201.642 165.936C201.77 166.467 202.025 167.615 202.195 168.487C202.365 169.359 202.77 171.336 203.067 172.845C203.599 175.418 204.004 177.522 204.429 180.073C204.536 180.669 204.685 181.37 204.77 181.668C204.897 182.199 205.557 186.324 206.025 189.534C206.174 190.512 206.536 191.149 207.578 192.276C208.472 193.254 208.791 193.445 210.089 193.786C212.025 194.296 212.259 194.296 212.621 193.743ZM78.4861 152.968C80.0606 152.543 80.55 152.373 81.7416 151.777C82.082 151.607 82.4437 151.48 82.5501 151.48C82.6565 151.48 83.2736 151.14 83.9119 150.714C84.8907 150.055 85.1034 149.8 85.1886 149.162C85.2524 148.737 85.3588 148.121 85.4013 147.802C85.4652 147.483 85.8269 146.526 86.2312 145.676C87.1461 143.72 87.6142 142.274 87.6781 141.063C87.7419 140.255 87.6781 140.106 87.3163 140.042C87.0823 140 86.6993 139.893 86.4652 139.787C86.2312 139.681 85.5716 139.489 84.9758 139.362C82.848 138.873 81.5501 138.533 80.1883 138.086C79.4223 137.853 78.4222 137.555 77.9541 137.47C76.2944 137.087 71.8048 135.875 68.8047 134.983C68.2302 134.812 67.3152 134.557 66.7833 134.43C66.2513 134.302 65.7407 134.132 65.613 134.047C65.5066 133.941 65.0172 133.813 64.5491 133.728C64.081 133.643 62.8469 133.303 61.783 132.963C59.7829 132.304 59.5701 132.24 56.9955 131.496C56.1231 131.262 55.2294 130.965 55.0379 130.837C54.8252 130.731 54.506 130.646 54.3358 130.646C53.9528 130.646 51.5271 129.859 50.9952 129.561C50.7824 129.455 50.4632 129.37 50.293 129.37C49.9313 129.37 47.6333 128.626 46.6332 128.18C46.2715 128.009 45.7608 127.882 45.5268 127.882C45.2714 127.882 44.9097 127.797 44.6969 127.669C44.3352 127.457 41.9734 126.606 40.2924 126.096C39.8243 125.947 39.2924 125.777 39.1222 125.713C38.9519 125.65 38.1859 125.373 37.4199 125.118C36.6539 124.863 35.8454 124.565 35.6113 124.48C35.3773 124.374 34.5687 124.098 33.8027 123.843C33.0367 123.609 32.2282 123.311 31.9941 123.205C31.526 122.992 28.8663 122.036 27.5258 121.632C27.0577 121.483 26.5257 121.313 26.3555 121.228C25.9725 121.079 24.8022 120.739 23.0574 120.292C22.3553 120.101 20.7807 119.91 19.5466 119.867C17.4188 119.782 16.1847 119.973 14.5463 120.654C14.3123 120.739 13.5037 121.036 12.7377 121.292C11.9717 121.547 11.2057 121.823 11.0355 121.929C10.844 122.014 10.3972 122.163 10.0142 122.227C9.65244 122.312 9.29072 122.482 9.22689 122.588C9.14178 122.695 8.90772 122.78 8.65239 122.78C8.41833 122.78 7.92894 122.907 7.56722 123.077C7.18422 123.247 6.41822 123.588 5.82244 123.843C5.24794 124.098 4.58833 124.459 4.39683 124.651C3.82233 125.139 3.90744 126.904 4.54578 128.095C4.82239 128.626 5.14155 129.243 5.26922 129.498C5.60967 130.263 7.99278 132.219 9.05667 132.623C9.60989 132.857 10.2695 133.112 10.5036 133.218C11.0568 133.452 12.7377 134.047 13.2697 134.196C13.5037 134.238 13.9931 134.43 14.3336 134.579C14.6953 134.727 15.2059 134.94 15.5038 135.068C15.8017 135.195 16.7805 135.62 17.6954 136.045C18.6104 136.471 19.4189 136.811 19.5041 136.811C19.5892 136.811 20.3977 137.193 21.2914 137.64C22.1851 138.108 23.1426 138.533 23.4192 138.618C23.6745 138.703 24.4618 139.043 25.1639 139.383C25.8448 139.723 26.4832 140 26.5896 140C26.6959 140 27.3768 140.276 28.1216 140.616C30.1855 141.573 30.9728 141.913 31.2068 141.913C31.3132 141.913 32.1218 142.211 32.9729 142.572C33.8453 142.933 34.8879 143.359 35.2922 143.507C35.6964 143.656 36.8029 144.081 37.7604 144.443C38.6966 144.804 39.6754 145.102 39.8882 145.102C40.1222 145.102 40.3988 145.187 40.5052 145.272C40.6329 145.378 41.4414 145.676 42.3138 145.931C43.1862 146.207 44.2288 146.548 44.6118 146.718C44.9948 146.888 45.4629 147.015 45.6757 147.015C45.8672 147.015 46.7609 147.27 47.6333 147.568C48.5057 147.866 49.6547 148.185 50.1866 148.291C50.7186 148.397 51.8676 148.695 52.7399 148.929C53.6123 149.184 54.5698 149.439 54.8677 149.481C55.1656 149.545 55.8891 149.715 56.4636 149.885C58.6339 150.481 59.4637 150.693 60.2936 150.863C60.7617 150.948 61.6766 151.14 62.3149 151.267C62.9533 151.395 63.9321 151.586 64.4853 151.714C65.7194 151.99 67.3152 152.266 70.0813 152.649C71.2516 152.819 72.507 153.053 72.8474 153.159C73.9752 153.499 76.7838 153.414 78.4861 152.968ZM87.6993 138.852C87.9972 138.065 86.7844 135.705 85.6779 134.897C84.4226 133.983 80.2096 132.729 76.9966 132.346C76.1242 132.219 75.2093 132.091 74.9752 132.006C74.7412 131.942 73.9326 131.751 73.1666 131.602C71.6559 131.283 70.7197 131.05 68.9111 130.561C68.2727 130.391 67.3152 130.135 66.7833 129.987C66.2513 129.859 65.5704 129.604 65.2513 129.455C64.9534 129.285 64.5491 129.157 64.3576 129.157C64.0384 129.157 60.9106 128.201 59.1233 127.563C56.5274 126.606 54.6337 125.884 53.8464 125.543C53.357 125.31 52.6336 125.118 52.2718 125.118C51.4846 125.118 49.527 124.778 47.7397 124.332C45.4204 123.758 43.9309 123.375 43.0586 123.099C42.5904 122.95 41.6329 122.673 40.9308 122.461C40.2286 122.248 39.3562 121.951 38.9732 121.802C38.6115 121.632 38.2285 121.504 38.1221 121.504C38.037 121.504 36.9518 121.121 35.7177 120.633C34.4836 120.165 33.2282 119.697 32.9303 119.612C32.4197 119.442 31.2281 118.911 28.5897 117.677C26.1002 116.508 24.4405 116.104 20.6105 115.743C17.0784 115.424 16.0145 115.594 13.1633 117.04C11.8228 117.699 9.73755 118.57 8.52472 118.953C6.77994 119.506 6.22672 119.782 5.71605 120.377C4.84367 121.355 3.95 123.141 4.24789 123.311C4.35428 123.396 5.24794 123.077 6.20544 122.61C7.88639 121.781 12.4824 119.973 14.0144 119.548C14.4187 119.421 14.8655 119.251 14.9719 119.166C16.1209 118.294 21.8233 118.294 23.9086 119.166C24.1426 119.272 24.7597 119.442 25.2916 119.548C26.2704 119.761 27.2279 120.08 28.4194 120.59C28.7812 120.739 29.2067 120.866 29.3769 120.866C29.5259 120.866 30.6536 121.249 31.8877 121.738C33.1218 122.206 34.4198 122.673 34.7602 122.758C35.1219 122.865 35.7816 123.099 36.2497 123.311C36.7178 123.503 37.5263 123.8 38.0583 123.949C38.5902 124.098 40.1222 124.608 41.4627 125.097C42.8032 125.586 44.1012 125.969 44.3565 125.969C44.5906 125.969 44.8672 126.054 44.9948 126.16C45.1012 126.287 45.5693 126.458 46.0374 126.585C46.5056 126.691 47.4205 126.989 48.0588 127.244C48.6972 127.499 49.527 127.797 49.8674 127.882C51.6973 128.435 52.6974 128.732 53.2719 128.924C53.6336 129.051 54.9103 129.434 56.1444 129.817C57.3785 130.178 59.2509 130.731 60.2936 131.071C61.3574 131.39 62.7831 131.815 63.4852 132.006C65.8471 132.665 67.1024 133.048 67.528 133.218C67.7621 133.303 68.3791 133.473 68.9111 133.579C69.443 133.707 70.1664 133.898 70.5069 134.026C70.8686 134.132 71.6772 134.387 72.3155 134.536C75.4646 135.365 76.2944 135.599 76.6774 135.769C76.9115 135.854 77.5286 136.024 78.0605 136.152C79.0818 136.386 80.7202 136.811 82.4224 137.321C83.0182 137.491 83.997 137.789 84.6141 137.959C85.2098 138.129 86.0397 138.448 86.4227 138.682C87.2525 139.213 87.5504 139.234 87.6993 138.852ZM85.8056 133.431C85.8694 133.346 85.7843 133.069 85.6141 132.857C85.3801 132.538 85.2737 132.516 85.0609 132.708C84.8481 132.92 84.8694 133.027 85.0822 133.303C85.3801 133.664 85.6354 133.707 85.8056 133.431ZM170.981 132.665C171.385 132.495 172.002 132.346 172.321 132.346C172.81 132.346 176.64 131.22 177.96 130.667C180.939 129.455 184.13 127.521 185.641 126.011C186.684 124.948 188.279 122.971 188.662 122.227C188.982 121.632 188.365 121.079 186.896 120.59C186.322 120.399 185.173 119.995 184.343 119.697C183.534 119.399 182.279 118.953 181.577 118.719C180.875 118.485 180.002 118.145 179.619 117.975C179.258 117.826 178.875 117.677 178.79 117.677C178.598 117.677 175.321 116.508 174.342 116.083C174.002 115.934 173.47 115.7 173.172 115.573C172.874 115.445 172.108 115.148 171.47 114.914C170.832 114.68 170.108 114.382 169.874 114.276C168.725 113.766 167.448 113.213 167.342 113.213C167.278 113.213 166.725 112.979 166.108 112.703C165.491 112.405 164.363 111.916 163.597 111.597C162.831 111.3 161.831 110.875 161.363 110.662C160.895 110.449 159.554 109.854 158.384 109.365C157.214 108.876 155.724 108.238 155.086 107.962C154.448 107.664 153.533 107.26 153.065 107.048C152.065 106.601 148.915 105.135 147.107 104.284C146.405 103.944 144.596 103.094 143.064 102.371C140.149 100.989 135.17 98.5016 127.17 94.4624C120.637 91.1459 119.446 90.657 116.595 90.1467C115.233 89.8916 114.531 89.8704 113.722 90.0192C113.126 90.1467 112.105 90.3381 111.467 90.4444C110.828 90.5507 109.743 90.7845 109.083 90.9759C108.403 91.1672 107.317 91.4648 106.679 91.6349C102.998 92.6553 101.296 93.0805 99.3808 93.4207C98.8702 93.5057 98.3595 93.697 98.2318 93.8246C98.0829 93.9734 97.785 94.0797 97.5722 94.0797C97.3594 94.0797 96.8913 94.2498 96.5509 94.4411C95.9551 94.8025 95.9338 94.845 95.9338 96.567C95.9338 98.1402 96.0189 98.5016 96.6786 99.926C97.2105 101.053 97.785 101.839 98.6574 102.668C99.7851 103.753 101.785 105.283 102.53 105.623C102.7 105.709 102.998 105.857 103.168 105.985C103.338 106.091 104.594 106.857 105.934 107.643C107.275 108.451 109.296 109.705 110.403 110.428C111.509 111.151 112.573 111.789 112.743 111.874C112.913 111.937 113.403 112.278 113.828 112.618C114.254 112.937 114.68 113.213 114.743 113.213C114.828 113.213 115.275 113.468 115.786 113.787C117.02 114.595 117.467 114.871 117.85 115.063C118.02 115.148 118.807 115.615 119.595 116.126C120.361 116.636 121.063 117.04 121.148 117.04C121.212 117.04 121.382 117.146 121.531 117.274C122.127 117.784 134.638 124.055 135.085 124.055C135.213 124.055 135.596 124.183 135.893 124.353C136.213 124.523 136.851 124.821 137.319 125.012C137.787 125.203 138.426 125.501 138.745 125.671C139.043 125.82 139.447 125.969 139.617 125.969C139.787 125.969 140.575 126.266 141.362 126.606C142.149 126.968 142.915 127.244 143.085 127.244C143.234 127.244 143.681 127.372 144.064 127.542C144.447 127.712 145.341 128.009 146.043 128.201C146.745 128.413 147.554 128.669 147.852 128.796C148.149 128.902 148.767 129.094 149.235 129.179C150.469 129.434 153.937 130.305 155.597 130.773C156.15 130.943 156.852 131.071 157.15 131.071C157.427 131.071 157.831 131.156 158.044 131.283C158.533 131.539 161.001 132.07 163.469 132.453C164.491 132.623 165.406 132.793 165.47 132.857C165.746 133.133 170.215 132.984 170.981 132.665ZM88.1674 130.986C90.8697 130.454 91.8698 130.072 95.0827 128.413C97.1892 127.329 97.4658 127.18 98.4233 126.543C98.934 126.224 99.3808 125.969 99.4447 125.969C99.5936 125.969 102.338 124.714 102.743 124.459C102.913 124.353 103.211 124.204 103.381 124.14C104.275 123.8 106.977 122.716 107.53 122.482C108.509 122.057 109.488 121.738 111.467 121.143C112.467 120.866 113.573 120.484 113.914 120.335C114.977 119.888 117.807 119.081 119.19 118.847C119.786 118.762 119.978 118.613 119.978 118.294C119.978 118.06 119.807 117.826 119.616 117.763C118.935 117.55 116.275 116.126 115.02 115.296C114.339 114.85 113.722 114.489 113.658 114.489C113.594 114.489 113.254 114.276 112.892 114.021C112.509 113.745 111.254 112.937 110.084 112.214C107.764 110.768 103.743 108.281 102.551 107.537C102.126 107.26 101.636 106.984 101.466 106.899C99.6787 106.112 96.253 102.817 95.3593 101.053C93.955 98.3103 93.8061 96.9922 94.4444 93.2293C94.9125 90.5507 96.5296 88.0633 98.5936 86.9366C99.2106 86.5965 99.2319 86.1075 98.6148 85.2996C97.8276 84.2792 96.6998 82.0682 96.253 80.6864C96.0402 80.0486 95.7636 79.1345 95.5934 78.6667C95.2742 77.6463 94.8487 75.6054 94.721 74.4149C94.6784 73.9472 94.5082 72.2252 94.338 70.5882C93.6784 64.6356 93.6146 63.7427 93.4869 61.0216C93.423 59.5122 93.2528 57.3012 93.1464 56.1319C93.0188 54.9627 92.8486 52.7304 92.7422 51.1785C92.5932 48.7975 92.5081 48.2873 92.1677 48.0322C91.6144 47.5857 90.5293 47.7133 86.1461 48.7762C83.7204 49.3715 79.7414 50.6045 79.018 50.9872C78.7839 51.1147 78.252 51.2848 77.8477 51.3699C77.4435 51.4549 76.5711 51.7313 75.9327 51.9864C75.2944 52.2415 74.4858 52.5179 74.1241 52.6242C73.7837 52.7304 72.9538 53.0068 72.3155 53.2619C71.6772 53.517 70.1452 54.091 68.9111 54.5375C67.6769 54.9839 66.2088 55.5367 65.613 55.7705C65.0385 56.0044 63.9746 56.387 63.2724 56.6422C62.5703 56.9185 61.6553 57.2799 61.2511 57.45C60.2936 57.8752 59.4637 58.2153 58.2722 58.683C57.7402 58.8744 56.8253 59.2783 56.2082 59.5547C55.6124 59.831 55.0379 60.0649 54.9528 60.0649C54.8677 60.0649 54.3571 60.2562 53.8251 60.5113C53.2932 60.7664 52.5272 61.0853 52.1442 61.2554C51.7612 61.4042 51.1441 61.6806 50.7611 61.8294C50.3994 61.9995 49.3568 62.4459 48.4844 62.8073C47.612 63.19 46.6119 63.6152 46.2502 63.764C45.4417 64.1041 43.1862 65.1459 38.4838 67.3568C36.3773 68.3347 32.9303 70.0355 32.5261 70.2693C32.3558 70.3756 31.3558 70.8859 30.2919 71.3961C29.2493 71.9063 27.6109 72.7354 26.6747 73.2456C25.7384 73.7559 24.5043 74.4149 23.9086 74.7125C21.6318 75.8818 19.2062 77.4337 18.3125 78.2841L17.3763 79.177L17.4827 85.4059C17.5678 91.1459 17.6742 92.4427 18.2912 96.7371C18.4189 97.5662 18.5891 98.7142 18.6742 99.2882C18.7381 99.8835 18.887 100.457 18.9721 100.606C19.0572 100.734 19.2062 101.265 19.3338 101.776C19.5679 102.966 20.2701 104.922 20.8658 106.176C21.5467 107.558 23.3979 110.386 24.249 111.385C25.4193 112.745 28.5046 115.764 28.6961 115.764C28.8024 115.764 29.3557 116.041 29.9089 116.359C30.8877 116.912 31.4622 117.189 33.5899 117.996C34.1219 118.209 34.8453 118.485 35.1858 118.634C36.2497 119.102 38.0796 119.74 40.3988 120.484C41.1648 120.718 41.9734 120.994 42.2074 121.1C42.7181 121.313 47.5056 122.588 48.2716 122.716C48.5695 122.758 49.5696 122.95 50.5058 123.12C52.1229 123.439 52.2931 123.439 53.8251 123.035C54.7188 122.801 55.6337 122.503 55.8465 122.376C56.0806 122.269 57.6338 121.504 59.3361 120.675C61.0383 119.846 62.9107 118.889 63.4852 118.528C64.081 118.188 64.6981 117.826 64.8683 117.741C65.3789 117.507 70.6984 114.467 70.9324 114.276C71.2729 114 76.4008 111.406 77.103 111.151C77.4647 111.023 78.5499 110.619 79.5499 110.237C82.082 109.301 83.5714 108.812 84.4438 108.642C84.8481 108.557 85.6141 108.366 86.1461 108.196C87.8908 107.664 89.6782 107.26 90.2527 107.26C90.5506 107.26 90.8484 107.175 90.9123 107.069C91.0825 106.793 93.4018 106.623 93.8486 106.857C94.1891 107.048 94.2103 107.133 93.9976 107.409C93.8061 107.643 93.5082 107.686 92.9337 107.601C92.4017 107.516 92.0826 107.579 91.9123 107.771C91.7847 107.919 91.1676 108.132 90.5718 108.196C89.9548 108.281 89.359 108.43 89.2313 108.515C89.1249 108.621 88.593 108.791 88.0611 108.919C87.5291 109.046 86.5716 109.301 85.9333 109.493C85.2949 109.684 84.38 109.939 83.9119 110.067C83.4438 110.173 82.7842 110.407 82.4224 110.556C82.082 110.704 81.316 110.981 80.7202 111.193C79.1457 111.725 79.0606 111.767 75.8689 113.319C74.2518 114.085 72.2942 115.105 71.5495 115.573C70.8048 116.019 70.1239 116.402 70.0601 116.402C69.9962 116.402 68.9749 116.997 67.7833 117.72C63.5278 120.292 59.2297 122.503 57.1657 123.205C55.6976 123.694 54.7401 124.395 55.3146 124.544C56.6551 124.927 58.2722 125.437 58.8467 125.671C59.2084 125.841 59.6127 125.969 59.7403 125.969C59.9744 125.969 63.1022 126.947 64.8683 127.563C66.5918 128.158 71.0176 129.349 73.273 129.817C76.1455 130.391 79.8904 131.05 81.0394 131.156C83.0182 131.326 86.8269 131.241 88.1674 130.986ZM189.024 119.995C189.109 119.888 189.067 119.527 188.96 119.208C188.833 118.889 188.684 118.358 188.599 118.039C188.365 116.912 186.428 115.318 183.556 113.893C182.088 113.171 180.832 112.575 180.747 112.575C180.683 112.575 179.96 112.278 179.173 111.916C175.47 110.173 173.108 109.11 171.683 108.536C171.044 108.281 169.895 107.771 169.129 107.431C168.363 107.069 167.47 106.665 167.108 106.516C166.768 106.368 165.831 105.964 165.044 105.581C164.257 105.22 163.555 104.922 163.512 104.922C163.427 104.922 161.661 104.157 159.874 103.349C159.533 103.179 158.81 102.86 158.278 102.626C156.49 101.818 152.426 99.9898 151.575 99.6071C151.107 99.3945 150.192 99.0119 149.554 98.7567C148.341 98.2678 146.852 97.6087 144.958 96.7371C144.383 96.4607 143.362 96.0356 142.724 95.7804C142.085 95.5253 140.979 95.0364 140.234 94.6962C139.511 94.3561 138.83 94.0797 138.723 94.0797C138.553 94.0797 137.064 93.4419 134.979 92.5065C132.766 91.4861 131.872 91.1034 131.127 90.827C130.425 90.5507 127.042 89.0838 123.489 87.5106C123.02 87.298 122.212 86.9579 121.68 86.7453C121.148 86.5539 120.531 86.2988 120.297 86.1925C118.041 85.2359 117.063 85.0445 114.339 85.0445C112.169 85.0445 111.403 85.1296 110.828 85.4059C109.488 86.065 106.7 87.0641 106.232 87.0641C105.998 87.0641 105.509 87.1704 105.168 87.2767C104.828 87.4043 103.785 87.5744 102.849 87.6807C100.083 87.9996 99.2319 88.2759 98.2957 89.1901C97.402 90.0617 96.5722 91.4436 96.5722 92.1026C96.5722 92.3152 96.4232 92.6553 96.253 92.8679C96.1041 93.1018 96.0189 93.3994 96.0828 93.5695C96.1679 93.8033 96.2956 93.7821 96.7637 93.4632C97.9552 92.6128 99.0191 92.2514 102.53 91.5286C103.168 91.3798 103.807 91.2097 103.913 91.1034C104.041 91.0184 104.551 90.8696 105.083 90.7845C105.594 90.6995 106.168 90.5507 106.36 90.4444C106.658 90.2956 107.637 90.0192 109.339 89.6153C109.743 89.5302 110.701 89.2751 111.467 89.0838C112.531 88.7861 113.403 88.7436 115.509 88.8287C118.19 88.9137 119.339 89.1901 121.574 90.2318C122.042 90.4656 122.914 90.8483 123.489 91.1034C124.084 91.3585 125.893 92.2302 127.531 93.0593C137.957 98.3103 141.851 100.266 143.809 101.18C145.043 101.754 146.915 102.626 147.958 103.115C149.022 103.625 150.362 104.242 150.937 104.497C151.533 104.752 152.618 105.241 153.384 105.602C154.15 105.964 155.065 106.389 155.405 106.538C155.767 106.686 156.703 107.09 157.49 107.452C158.278 107.813 159.065 108.111 159.193 108.111C159.342 108.111 159.554 108.196 159.661 108.302C159.788 108.408 160.682 108.834 161.682 109.259C162.682 109.705 163.682 110.13 163.916 110.237C164.661 110.556 166.236 111.215 167.214 111.597C167.746 111.81 168.321 112.065 168.512 112.15C168.704 112.256 170.108 112.83 171.598 113.426C173.108 114.021 174.64 114.637 174.981 114.786C175.342 114.935 176.109 115.233 176.683 115.445C177.279 115.637 177.938 115.892 178.172 115.977C179.13 116.338 181.066 117.04 183.066 117.784C185.386 118.634 187.79 119.718 187.96 120.037C188.13 120.292 188.854 120.271 189.024 119.995ZM7.80128 117.486C9.65244 116.572 10.0142 116.402 10.2482 116.402C10.461 116.402 12.5037 115.488 13.6527 114.893C14.1421 114.637 15.6528 114.127 16.5252 113.957C16.8869 113.872 17.2061 113.766 17.2061 113.702C17.2061 113.638 16.8231 113.171 16.3549 112.639C15.9081 112.108 15.3123 111.236 15.0783 110.704C14.8229 110.152 14.5251 109.535 14.3974 109.301C13.9718 108.493 13.1846 105.709 12.9718 104.22C12.8654 103.37 12.6313 99.3095 12.5037 95.1639C12.2909 89.2539 12.2909 86.9153 12.4824 84.2154C12.6313 82.3233 12.8016 79.5596 12.8654 78.029C12.9292 76.5196 13.0569 75.0739 13.1633 74.8401C13.3761 74.3511 13.8654 69.2701 13.8654 67.5056C13.8654 65.975 13.4399 60.4688 13.1633 58.6405C13.0569 57.8327 12.9505 55.8343 12.9505 54.1761C12.9505 52.5179 12.8654 51.1147 12.759 51.051C12.6526 50.9872 11.9504 51.2848 11.2057 51.7313C10.4823 52.1777 9.39711 52.773 8.84389 53.0493C8.26939 53.347 7.43955 53.8997 6.99272 54.2611C6.14161 55.0052 6.248 54.6863 5.05644 60.0649C4.716 61.6381 4.48194 63.1475 4.1415 65.8261C3.99255 67.0804 3.80105 68.1859 3.71594 68.3135C3.65211 68.4198 3.52444 69.5253 3.46061 70.7158C3.3755 71.9276 3.22655 73.1606 3.12017 73.4582C2.86483 74.0747 2.63078 76.392 2.31161 81.1116C2.18394 82.9186 1.99244 85.3209 1.86478 86.4264C1.58817 88.7224 1.73711 103.71 2.05628 106.623C2.37544 109.493 3.09889 112.193 4.12022 114.17C5.14155 116.189 6.31183 117.89 6.67355 117.89C6.86506 117.89 7.37572 117.72 7.80128 117.486ZM193.812 116.274C194.918 116.189 196.067 116.019 196.365 115.892C198.344 115.041 199.706 113.213 200.046 110.981C200.514 108.005 199.727 87.2767 198.918 80.3675C198.578 77.4762 198.301 74.9039 198.067 72.0764C197.939 70.6733 197.748 69.2489 197.642 68.9087C197.514 68.5686 197.429 67.9521 197.429 67.5481C197.429 66.3789 196.769 64.5081 195.982 63.4664C194.876 61.9782 191.046 57.939 184.875 51.7738C177.981 44.907 177.045 44.0142 172.002 39.5497C168.768 36.6797 167.959 35.9569 167.853 35.8506C167.789 35.7656 167.002 35.0853 166.065 34.3412C165.15 33.5759 163.98 32.6192 163.491 32.2153C161.001 30.1319 157.788 27.602 156.98 27.0705C156.682 26.8792 156.299 26.5816 156.129 26.4327C155.958 26.2839 155.448 25.9013 154.98 25.5824C154.512 25.2635 153.873 24.7745 153.554 24.5194C153.001 24.0517 149.064 21.288 148.32 20.8416C148.128 20.7353 147.618 20.3739 147.192 20.055C146.766 19.7148 146.341 19.4597 146.277 19.4597C146.192 19.4597 145.639 19.0983 145.022 18.6519C144.405 18.2054 143.447 17.5676 142.873 17.2275C142.298 16.8661 141.617 16.4409 141.341 16.2708C140.894 15.9945 137.872 14.1449 136.957 13.6134C136.766 13.5071 136.213 13.1882 135.745 12.9331C135.276 12.678 134.468 12.189 133.979 11.8702C133.468 11.5513 132.681 11.0836 132.212 10.8497C131.744 10.5946 130.978 10.1694 130.51 9.89304C129.404 9.27652 125.999 7.44823 124.233 6.55534C123.467 6.15141 122.701 5.74749 122.531 5.64119C122.361 5.53489 121.786 5.25852 121.254 5.00341C120.722 4.7483 119.871 4.32312 119.339 4.06801C116.424 2.57986 115.892 2.53734 115.552 3.68534C115.233 4.7483 114.722 7.76712 114.339 10.8497C114.041 13.2095 113.552 20.629 113.616 22.1171C113.637 22.4785 113.531 24.0517 113.403 25.6249C113.296 27.1981 113.169 32.7467 113.169 37.9553C113.169 49.414 113.573 59.0019 114.36 65.8049C114.424 66.3364 114.509 67.1867 114.552 67.7182C114.701 69.6953 116.212 75.3928 116.765 76.0944C116.871 76.2219 117.02 76.5621 117.105 76.8597C117.19 77.1573 117.85 78.3266 118.573 79.4746C119.276 80.6226 119.978 81.7281 120.084 81.9194C121.169 83.7264 123.233 85.7886 123.978 85.7886C124.127 85.7886 128.021 87.4256 130.617 88.5736C132.468 89.4027 132.851 89.5727 133.702 89.9342C134.17 90.1255 134.851 90.4231 135.191 90.5719C135.553 90.7207 137.277 91.4648 139.021 92.1876C140.787 92.9104 142.404 93.6545 142.639 93.8033C142.873 93.9521 143.171 94.0797 143.319 94.0797C143.468 94.0797 144.234 94.3773 145.022 94.7387C145.83 95.0789 146.766 95.5041 147.107 95.6529C147.469 95.8017 148.384 96.2269 149.171 96.6096C149.958 96.971 150.703 97.2686 150.809 97.2686C150.916 97.2686 151.277 97.4174 151.618 97.5875C151.937 97.7576 152.788 98.1402 153.49 98.4591C155.214 99.2032 156.086 99.6071 158.554 100.755C159.703 101.287 160.831 101.733 161.023 101.733C161.235 101.733 161.533 101.882 161.682 102.052C161.831 102.222 162.065 102.371 162.214 102.371C162.384 102.371 162.767 102.498 163.108 102.668C163.427 102.839 164.044 103.115 164.448 103.306C166.023 103.987 167.789 104.773 168.597 105.135C171.47 106.453 172.342 106.835 172.427 106.835C172.47 106.835 173.215 107.154 174.066 107.558C174.917 107.962 177.257 109.025 179.236 109.918C183.811 112.001 185.152 112.639 186.428 113.383C187.471 114 188.918 115.254 189.62 116.168C189.96 116.593 190.152 116.657 190.897 116.551C191.386 116.487 192.705 116.359 193.812 116.274ZM24.8873 114.552C24.7809 114.34 24.1001 113.574 23.3979 112.852C20.4403 109.833 18.1848 105.283 17.1422 100.245C16.206 95.7379 15.5038 88.3822 15.5038 83.0674C15.5038 79.921 15.5464 79.6234 16.0145 78.6667L16.5464 77.6463L16.0145 76.881C15.7379 76.4558 15.5038 75.903 15.5038 75.6479C15.5038 75.3928 15.4187 75.1377 15.3123 75.0739C15.2059 74.9889 15.057 74.5424 14.9719 74.0322C14.7591 72.8417 14.5251 72.3953 14.3761 72.948C13.9718 74.3511 13.7378 96.8647 14.0569 101.414C14.291 104.348 14.4825 105.772 14.674 105.9C14.7804 105.964 14.8655 106.261 14.8655 106.559C14.8655 106.857 14.9932 107.388 15.1634 107.749C15.3336 108.132 15.6315 108.812 15.823 109.28C16.0145 109.748 16.6528 110.96 17.2699 111.98L18.3763 113.83L19.653 113.851C20.3552 113.851 21.7382 114.085 22.7383 114.361C25.0363 114.999 25.1427 115.02 24.8873 114.552ZM103.913 85.6185C106.594 85.1933 108.764 84.6193 109.445 84.1091C110.084 83.6202 112.19 83.2375 114.339 83.195C116.339 83.1525 116.892 83.2375 118.063 83.6627C118.829 83.939 119.531 84.2367 119.659 84.343C119.893 84.5556 120.616 84.5768 120.616 84.343C120.616 84.2579 120.403 83.9603 120.127 83.6627C119.233 82.706 117.297 80.0699 116.829 79.177C116.573 78.688 116.212 78.0502 116.041 77.7313C115.063 75.9243 113.594 71.1835 113.594 69.7804C113.594 69.4615 113.488 68.9938 113.382 68.7812C112.679 67.4844 111.701 49.9667 111.701 38.9119C111.701 28.1122 112.701 9.40408 113.382 7.55452C113.488 7.25689 113.637 6.68289 113.701 6.27897C113.828 5.55615 114.297 4.19556 114.68 3.45149C114.956 2.94126 114.337 2.72442 113.828 3.17512C113.614 3.36432 112.488 3.81289 111.892 4.15304C111.296 4.49319 110.764 4.79082 110.701 4.79082C110.53 4.79082 103.296 8.2986 101.04 9.46786C99.4447 10.3182 97.8488 11.7213 97.8488 12.2953C97.8276 12.5504 97.6999 12.9969 97.5297 13.2945C97.3594 13.5922 97.2318 14.2087 97.2105 14.6976C97.2105 15.1866 97.1254 15.8456 96.9977 16.1858C96.7637 16.8661 96.4658 20.4376 96.1466 26.1564C96.0189 28.261 95.7636 30.8547 95.5934 31.8964C95.3168 33.4483 95.2317 35.7443 95.2104 44.2267C95.1678 61.3192 96.0189 74.3936 97.4658 78.6667C97.5722 79.0282 97.7424 79.6447 97.8276 80.0486C97.9127 80.4525 98.1042 80.984 98.2318 81.2179C98.3595 81.4517 98.8063 82.3233 99.1893 83.1525C100.189 85.1933 100.445 85.5973 100.934 86.0224C101.296 86.3413 101.424 86.3413 101.892 86.1075C102.189 85.9587 103.104 85.7248 103.913 85.6185ZM18.9296 75.6692C19.4189 75.1377 20.1424 74.7125 23.1638 73.0756C24.0362 72.6079 25.3342 71.9063 26.0363 71.5236C27.6322 70.652 35.9305 66.5277 38.0583 65.5498C38.9307 65.1246 40.8882 64.2104 42.3777 63.4876C43.8884 62.7861 45.1863 62.1908 45.2714 62.1908C45.4417 62.1908 47.4631 61.3192 49.2504 60.4688C49.7185 60.2562 50.1866 60.0649 50.2717 60.0649C50.4207 60.0649 51.0377 59.7885 54.0592 58.3854C54.8464 58.024 55.5912 57.7264 55.6976 57.7264C55.8891 57.7264 56.2721 57.5563 57.8041 56.791C58.2083 56.5996 58.6552 56.4508 58.8041 56.4508C58.9531 56.4508 59.3573 56.302 59.6978 56.1319C60.0169 55.9619 61.1021 55.5367 62.1022 55.1753C63.1022 54.7926 64.2087 54.3674 64.5491 54.1973C65.1236 53.921 67.3791 53.0706 68.6983 52.6242C68.9962 52.5179 69.7622 52.2415 70.4005 51.9864C71.0388 51.7313 71.9112 51.4336 72.3155 51.3273C72.7198 51.1998 73.2517 51.0297 73.4858 50.9447C74.6773 50.4344 82.3373 47.8621 84.6566 47.203C85.2949 47.0117 86.2524 46.7141 86.7844 46.544C87.3163 46.3739 88.0398 46.2464 88.4015 46.2464C88.7632 46.2464 89.4441 46.1188 89.9122 45.9487C90.3803 45.7787 91.1251 45.6511 91.5506 45.6724C92.8911 45.7149 92.8911 45.6724 92.423 40.5064C91.9762 35.3829 91.9336 34.8302 91.6783 30.6208C91.5719 28.5162 91.3591 25.88 91.2527 24.7745C91.1251 23.669 90.9336 20.6502 90.8059 18.0779C90.6995 15.5055 90.4442 12.6142 90.2739 11.6363C89.9335 9.78675 89.9761 9.25527 90.4654 9.25527C90.9123 9.25527 91.3378 9.89304 91.7421 11.1686C92.1251 12.3591 92.4017 15.633 92.7422 22.8612C92.9975 28.5374 93.3805 35.0427 93.5082 35.3829C93.8061 36.297 94.0401 34.7451 94.2742 29.8767C94.6572 22.1384 94.6146 16.6535 94.1891 13.9323C93.5294 9.65919 93.0401 8.57497 91.4442 7.74586C90.0612 7.0443 89.9761 7.06556 85.4013 9.27652C83.997 9.93556 81.0394 11.3812 78.8052 12.4442C76.5923 13.5071 71.8899 15.8031 68.3791 17.5251C61.7617 20.799 53.1017 25.0509 47.4205 27.8359C45.6119 28.7075 43.782 29.6216 43.3777 29.8555C42.7394 30.2169 38.3774 32.3216 37.1008 32.8743C36.8667 32.9806 36.5263 33.1507 36.3561 33.257C35.8667 33.5333 33.8453 34.575 32.9516 34.979C32.7601 35.064 31.9516 35.4679 31.143 35.8931C30.3132 36.297 29.228 36.8498 28.6961 37.1049C28.1641 37.3387 27.5896 37.6364 27.4194 37.7427C27.2492 37.849 25.5682 38.6781 23.6958 39.5497C15.2698 43.5677 16.206 42.9937 15.5251 44.4393C15.0144 45.5448 14.9081 46.0763 14.7804 48.266C14.5676 52.1564 15.0144 60.0649 15.823 67.0804C15.9932 68.5473 16.1847 70.3969 16.2486 71.2047C16.3975 72.8842 16.6954 74.2661 17.1635 75.4353C17.5465 76.392 18.1636 76.477 18.9296 75.6692ZM186.449 50.5195C186.513 50.4132 186.428 50.0518 186.258 49.7329C186.088 49.3927 185.939 48.9676 185.939 48.7975C185.939 48.6274 184.343 44.6732 183.96 43.9079C183.471 42.9087 183.109 42.4835 182.683 42.3347C181.811 42.0158 180.981 42.3984 180.811 43.1638C180.726 43.5252 180.598 44.0142 180.513 44.248C180.385 44.6307 180.641 44.9921 181.79 46.1613C182.577 46.9692 183.854 48.3298 184.62 49.1802C186.024 50.7108 186.237 50.8809 186.449 50.5195ZM124.233 4.1743C124.233 3.96171 123.74 2.99016 123.616 2.77332C123.225 2.09089 122.723 1.60193 121.829 1.60193C121.042 1.60193 120.19 2.04838 120.19 2.47356C120.19 2.5586 120.595 2.83497 121.105 3.06882C121.595 3.28141 122.34 3.7066 122.744 4.02549C123.638 4.66326 124.233 4.72704 124.233 4.1743Z" fill="rgb(0,0,0)" fill-rule="nonzero" transform="matrix(1,0,0,-1,26.4385,229.737)" />
			<path id="矢量 366" d="M16.2167 54.9705C15.7486 54.1414 15.0677 52.7808 14.6847 51.9517C13.9613 50.3998 13.8975 50.2722 13.174 48.5502C12.9187 47.9762 12.6421 47.2959 12.5357 47.0621C12.4506 46.8282 12.1527 46.0204 11.8761 45.255C11.6207 44.4897 11.3229 43.7881 11.2165 43.6818C11.1314 43.5543 11.0462 43.2779 11.0462 43.0653C11.0462 42.8527 10.9186 42.3638 10.7484 42.0024C10.3866 41.1945 9.32274 37.9418 8.70569 35.6884C8.45036 34.8167 8.17375 33.8813 8.04608 33.605C7.93969 33.3286 7.85458 32.9034 7.85458 32.6483C7.85458 32.3932 7.72691 31.9255 7.55669 31.6278C7.40775 31.3302 7.21625 30.7137 7.13114 30.246C7.04603 29.7995 6.79069 28.8429 6.55664 28.1413C5.98214 26.2918 4.8757 22.1462 4.66292 20.977C4.55653 20.403 4.40759 19.8502 4.32248 19.7014C4.23736 19.5738 4.04587 18.8723 3.87564 18.1707C3.70542 17.4479 3.45009 16.2999 3.25859 15.5984C3.08837 14.8968 2.81176 13.7063 2.64154 12.941C2.47131 12.1756 2.1947 10.9851 2.0032 10.2835C1.00315 6.47814 0.0243738 1.77984 0.00309608 0.546803C-0.0181817 0.0790994 0.0669293 -0.0484562 0.364818 0.0153216C0.747817 0.100359 1.13082 1.01451 1.59893 3.0554C1.74787 3.75695 2.02448 4.90495 2.1947 5.60651C2.36492 6.30806 2.68409 7.49858 2.85431 8.26392C3.04581 9.02925 3.3437 10.1772 3.49264 10.815C3.66287 11.4528 3.93948 12.6008 4.13098 13.3661C4.62036 15.3432 5.04592 17.1078 5.40764 18.5747C5.59914 19.2762 5.83319 20.1904 5.91831 20.5943C6.02469 20.9982 6.32258 22.1037 6.57792 23.0391C6.83325 23.9745 7.13114 25.1225 7.2588 25.5902C7.36519 26.0579 7.53541 26.5894 7.62052 26.7595C7.72691 26.9508 7.87586 27.5248 7.96097 28.035C8.04608 28.5665 8.34397 29.672 8.5993 30.4798C8.87591 31.309 9.15252 32.3081 9.23763 32.7121C9.32274 33.116 9.47169 33.5837 9.57808 33.775C9.66319 33.9451 9.83341 34.4766 9.96107 34.9443C10.0675 35.412 10.3228 36.3261 10.5143 36.9639C10.7058 37.6017 10.9611 38.5158 11.0675 38.9835C11.1739 39.4513 11.3441 40.0252 11.4505 40.2591C11.5569 40.493 12.0888 41.9386 12.6421 43.448C14.1315 47.5936 14.323 48.04 16.4082 52.4832C17.8764 55.5658 17.9828 56.0122 17.4508 56.3098C17.0891 56.5012 16.9402 56.3524 16.2167 54.9705Z" fill="rgb(0,0,0)" fill-rule="nonzero" transform="matrix(1,0,0,-1,193.033,71.4268)" />
			<path id="矢量 367" d="M1.74862 16.5406C0.131511 16.0941 -0.187656 15.9028 0.0889552 15.5414C0.301733 15.2863 0.769844 15.265 2.9189 15.3713C4.47218 15.4563 5.87651 15.4351 6.53612 15.2863C7.1319 15.18 8.70646 14.9886 10.047 14.8611C13.494 14.5847 17.3027 14.0745 17.9836 13.8194C18.324 13.6918 18.8772 13.5855 19.239 13.5855C19.856 13.5855 21.7072 13.2241 24.0903 12.6289C24.7286 12.4588 26.0266 12.1824 26.9628 11.9698C27.899 11.7785 29.0906 11.5021 29.6225 11.3533C30.1545 11.1832 31.495 10.8218 32.6014 10.5029C33.7078 10.2053 35.0696 9.82264 35.6441 9.65256C36.1973 9.48249 37.1336 9.20612 37.7081 9.03604C38.3038 8.86597 39.2826 8.56834 39.8997 8.37701C40.4955 8.18567 41.304 7.95182 41.6445 7.84552C42.0062 7.73923 43.2403 7.31404 44.4106 6.88886C45.5808 6.46367 46.8362 6.03849 47.1767 5.93219C47.8788 5.74086 48.6236 5.48574 50.5811 4.74167C51.2833 4.48656 52.5812 4.01885 53.4536 3.72122C54.326 3.42359 55.7304 2.95589 56.5389 2.67952C58.8156 1.89293 62.2201 0.851222 63.0286 0.702407C63.4329 0.638629 64.1563 0.426037 64.6245 0.255963C65.816 -0.169223 67.7948 -0.0416673 67.88 0.468555C67.9438 0.744926 67.8161 0.829963 67.2842 0.829963C66.6884 0.829963 64.3053 1.489 63.4542 1.89293C63.2627 1.97796 62.7946 2.12678 62.3903 2.19056C61.986 2.27559 61.4541 2.42441 61.22 2.55196C60.986 2.65826 59.7518 3.12596 58.4539 3.57241C57.1772 4.01885 55.1558 4.74167 53.9856 5.16686C52.8153 5.6133 51.0067 6.25108 49.9428 6.61249C48.9002 6.95263 47.7512 7.37782 47.3895 7.50538C46.5809 7.84552 46.0277 8.03686 42.07 9.33367C38.0485 10.6305 34.41 11.7147 31.0056 12.6289C30.3034 12.8202 29.2608 13.0966 28.665 13.2666C28.0905 13.4155 26.8351 13.6918 25.8989 13.8832C24.9627 14.0745 23.6009 14.3721 22.8775 14.5422C22.154 14.7123 21.3029 14.8611 20.9412 14.8611C20.6007 14.8611 20.0475 14.9674 19.7071 15.0737C17.0686 15.9878 3.66362 17.0721 1.74862 16.5406Z" fill="rgb(0,0,0)" fill-rule="nonzero" transform="matrix(1,0,0,-1,123.39,77.1738)" />
		</g>
	</g>
</svg>
