<svg viewBox="0 0 268 230" xmlns="http://www.w3.org/2000/svg" xmlns:xlink="http://www.w3.org/1999/xlink" width="268.000000" height="230.000000" fill="none">
	<defs>
		<clipPath id="clipPath_4">
			<rect width="216.000000" height="230.000000" x="41.000000" y="0.000000" fill="rgb(255,255,255)" />
		</clipPath>
	</defs>
	<rect id="3" width="268.000000" height="230.000000" x="0.000000" y="0.000000" />
	<g id="3" clip-path="url(#clipPath_4)" customFrame="url(#clipPath_4)">
		<rect id="3" width="216.000000" height="230.000000" x="41.000000" y="0.000000" />
		<path id="矢量 368" d="M139.576 21.3676L132.899 19.5393L128.184 22.2817L122.957 35.2499L118.691 49.3873L115.469 65.6931L114.787 75.6637L99.704 78.2573L76.3014 85.2942L53.4107 95.0309L46.6694 98.1348L43.6187 102.897L45.752 110.295L46.4347 111.209L43.2134 118.204L41.3147 130.13L43.128 159.957L46.2427 174.583L49.08 177.155L48.9947 181.981L50.808 186.956L124.856 223.522L129.933 222.183L131.32 216.124L134.563 198.925L135.8 200.732L137.891 217.846L144.525 222.905L155.917 227.731L160.888 228.135L163.256 229.113L165.667 226.86L166.563 223.564L187.277 211.595L210.04 194.439L219.917 185.064L222.669 188.487L224.867 187.53L227.789 181.301L228.6 176.9L239.565 165.505L242.147 119.011L238.349 113.144L238.584 111.23L242.147 112.378L245.197 108.594L255.032 35.5475L252.131 33.2728L242.659 32.6137L233.869 29.6374L230.904 29.8925L229.752 19.5393L226.851 12.3962L221.155 8.61201L196.131 3.80742L161.869 1.29883L150.733 2.19172L144.653 7.37898L139.576 21.3676Z" fill="rgb(255,255,255)" fill-rule="nonzero" />
		<path id="矢量 369" d="M210.616 96.0725L220.365 98.5173L230.989 107.765L230.989 112.23L237.027 112.23L243.32 111.677L246.456 99.3465L255.032 35.5474L253.688 33.2939L241.656 32.7412L230.883 29.6799L229.752 18.9439L225.165 10.2914L208.845 5.21045L170.509 1.93652L152.867 2.02156L146.488 5.08289L139.363 21.325L130.509 19.4329L127.373 24.7052L120.141 43.0944L115.64 64.8427L115.299 75.4298L121.976 76.7053L126.733 80.1281L127.928 85.0177L129.443 90.6301L126.989 97.5607L116.216 98.5173L89.0374 105.873L69.7094 112.23L61.2188 120.329L56.8454 133.701L55.0321 150.326L52.7921 154.45L49.0161 181.258L50.5734 186.318L55.1388 189.103L124.408 223.288L128.589 223.054L131.533 215.55L134.563 196.778L136.184 154.982L141.325 142.503L136.867 138.634L136.184 130.215L141.24 124.454L170.147 107.595L194.915 98.5173L210.616 96.0725Z" fill="rgb(1,89,188)" fill-rule="nonzero" />
		<g id="组合 75">
			<path id="矢量 370" d="M114.303 229.101C114.132 229.016 113.449 228.867 112.809 228.782C111.551 228.633 109.311 227.995 108.5 227.549C107.22 226.826 105.044 224.87 104.255 223.701C103.295 222.319 101.289 218.429 101.289 217.961C101.289 217.812 101.161 217.514 100.991 217.281C100.841 217.047 100.649 216.622 100.585 216.324C100.521 216.026 100.244 215.133 99.9452 214.304C99.1132 211.923 98.7292 210.563 98.7292 210.031C98.7292 209.308 98.4092 209.223 97.4919 209.712C96.0199 210.478 94.6546 210.797 92.7132 210.797C91.1346 210.797 90.6652 210.711 89.6626 210.244C87.6786 209.308 86.8679 208.139 84.6492 203.037C82.9852 199.189 82.2599 197.254 80.5959 192.195C79.5719 189.155 79.2732 188.198 78.5266 185.498C78.3559 184.86 78.0786 183.904 77.9079 183.372C77.6092 182.352 77.2252 180.672 76.6492 178.057C76.4572 177.186 76.2226 176.123 76.0946 175.719C75.9879 175.315 75.8172 174.316 75.7106 173.487C75.3266 170.638 74.8146 167.534 74.6226 166.896C74.4092 166.152 73.9826 161.56 73.7906 157.542L73.6626 154.778L71.8492 154.608C70.8466 154.523 69.7586 154.353 69.4172 154.247C69.0759 154.119 68.4359 154.034 67.9879 154.034C67.5399 154.034 66.9212 153.928 66.6012 153.822C66.3026 153.694 65.4492 153.503 64.7239 153.397C64.0199 153.29 62.5692 152.993 61.5026 152.759C60.4572 152.504 59.1986 152.249 58.7292 152.185C58.2599 152.121 57.7692 151.972 57.6199 151.866C57.4919 151.76 56.8092 151.611 56.1266 151.547C55.4439 151.483 54.6972 151.292 54.4626 151.143C54.2279 150.973 53.8652 150.845 53.6306 150.845C53.3959 150.845 52.7346 150.718 52.1372 150.548C51.5399 150.378 50.4732 150.08 49.7692 149.889C47.8066 149.379 44.4359 148.379 43.2626 147.975C41.8759 147.486 39.1026 146.572 38.4626 146.381C38.1212 146.296 37.2892 145.998 36.6492 145.743C36.0092 145.488 35.2839 145.233 35.0492 145.169C34.8146 145.105 34.3452 144.935 33.9826 144.787C33.6412 144.638 32.9159 144.34 32.3826 144.149C31.8492 143.936 31.2306 143.702 30.9959 143.596C30.7612 143.511 29.7159 143.086 28.6492 142.639C27.6039 142.214 26.2599 141.64 25.6626 141.385C25.0866 141.109 24.1266 140.683 23.5292 140.45C22.9532 140.195 22.1852 139.854 21.8226 139.684C21.4812 139.514 20.3506 139.004 19.3266 138.536C18.2812 138.069 16.9372 137.473 16.3399 137.218C15.7212 136.963 14.9106 136.623 14.5266 136.474C14.1639 136.304 13.7586 136.177 13.6519 136.177C13.5239 136.177 13.1612 136.028 12.8199 135.858C12.4999 135.688 11.3692 135.241 10.3026 134.858C7.78522 133.966 6.84655 133.413 5.45989 132.073C3.56122 130.266 2.30255 127.652 2.30255 125.568C2.30255 124.633 2.87855 122.039 3.32655 120.849C3.45455 120.53 3.90255 119.956 4.30789 119.552C4.73455 119.148 5.07589 118.723 5.07589 118.638C5.07589 118.531 4.86255 118.234 4.62789 117.979C4.37189 117.702 4.05189 117.298 3.92389 117.064C3.79589 116.852 3.34789 116.108 2.94255 115.427C2.51589 114.726 1.96122 113.45 1.68389 112.579C1.42789 111.707 1.10789 110.75 1.00122 110.453C-0.385448 106.456 -0.321448 85.8984 1.12922 75.0561C1.76922 70.2941 1.91855 69.061 2.11055 67.1902C2.21722 66.1485 2.38789 64.8517 2.49455 64.3202C2.62255 63.7887 2.81455 62.7045 2.96389 61.8754C3.47589 58.8991 3.56122 58.4527 3.88122 57.1984C4.56389 54.4984 4.75589 54.0307 5.65189 53.1166C6.16389 52.6064 6.80389 52.0961 7.12389 51.9898L7.67855 51.7773L7.55055 49.5875C7.40122 47.4191 7.57189 46.2924 8.31855 44.3153C8.61722 43.5287 9.61989 42.083 10.1959 41.6366C10.4946 41.3815 15.8492 38.7028 21.3959 36.0454C25.7266 33.962 31.3799 31.177 32.1692 30.7518C32.5746 30.5392 34.4519 29.6251 36.3292 28.711C38.2066 27.8181 39.8919 27.0102 40.0626 26.9039C40.6812 26.5425 45.9719 23.9489 49.3426 22.3332C51.2199 21.4403 52.9052 20.6324 53.0759 20.5261C53.3746 20.3561 56.7026 18.6978 59.1559 17.5073C59.7532 17.2097 61.0332 16.5719 62.0146 16.083C63.0172 15.5727 64.0199 15.0838 64.2546 14.9775C64.5106 14.8712 64.8519 14.7011 65.0226 14.5948C65.1932 14.4885 66.8786 13.6594 68.7559 12.7665C70.6332 11.8524 72.5959 10.8957 73.1292 10.6193C73.6626 10.3217 75.3906 9.47132 76.9692 8.70599C78.5479 7.96191 80.0199 7.2391 80.2332 7.11154C80.4466 7.00525 81.4492 6.58006 82.4519 6.17614C85.8866 4.77303 88.4892 5.4108 90.0039 7.98317C90.5799 8.98236 91.6892 13.2555 91.6892 14.4885C91.6892 15.1688 92.1586 18.0601 92.6279 20.4198C92.7986 21.249 93.0972 23.3536 93.2892 25.0969C93.4812 26.8614 93.7159 28.3708 93.8226 28.4558C93.9079 28.5621 94.1852 28.5409 94.4199 28.4133C94.8252 28.2007 94.8466 27.9669 94.8679 24.3741C94.8679 22.2907 94.9746 20.101 95.1026 19.5482C95.2092 18.9742 95.4012 17.6561 95.5079 16.5932C95.7426 14.4672 96.2119 12.2775 96.6812 11.1721C97.2999 9.68392 98.7079 8.59969 102.463 6.72888C103.401 6.23991 104.596 5.64466 105.129 5.34703C105.663 5.07066 107.049 4.39036 108.223 3.83762C109.396 3.28488 110.505 2.7534 110.676 2.6471C110.847 2.5408 111.145 2.39199 111.316 2.32821C111.487 2.24317 112.425 1.81799 113.385 1.37154C115.135 0.542433 116.837 0.631721 117.183 0.755026C117.3 0.797544 117.552 0.905966 117.823 0.967618C118.102 1.0314 118.281 1.12494 118.463 1.18021C118.847 1.29714 119.337 1.41406 119.743 0.967618C120.276 0.393618 121.961 -0.137863 122.793 0.0322107C123.689 0.223544 125.116 1.88389 125.524 2.66836C125.686 2.97874 126.162 4.00982 126.249 4.34784C126.446 5.11105 126.804 5.66591 128.276 6.40999C129.449 7.00525 130.687 7.66429 133.716 9.32251C134.356 9.66266 135.295 10.2367 135.807 10.5555C136.319 10.8957 136.767 11.1721 136.852 11.1721C136.916 11.1721 137.385 11.4697 137.919 11.8098C138.431 12.1712 138.921 12.4476 139.007 12.4476C139.113 12.4476 139.817 12.8728 140.607 13.383C141.375 13.8932 142.164 14.361 142.335 14.4247C142.612 14.531 143.828 15.3389 148.863 18.6978C150.953 20.101 150.783 19.9734 153.94 22.2907C155.241 23.2473 157.055 24.5654 157.951 25.2032C158.847 25.841 159.743 26.5212 159.956 26.6913C160.169 26.8614 160.66 27.2441 161.044 27.5417C162.281 28.4984 167.039 32.3675 167.721 32.9628C167.849 33.0904 169.065 34.1321 170.409 35.3013C171.753 36.4706 173.012 37.5761 173.183 37.7461C173.375 37.9162 174.441 38.8729 175.529 39.8721C178.004 42.1255 178.047 42.1681 178.452 42.7633C178.921 43.4861 179.327 43.4011 179.732 42.4657C179.945 42.0405 180.329 41.424 180.628 41.0838C181.097 40.5736 181.311 40.5098 182.42 40.5098C183.337 40.5098 183.828 40.6161 184.297 40.9563C184.959 41.4027 186.26 43.4649 186.452 44.3365C186.537 44.6341 186.815 45.5058 187.113 46.2711C187.391 47.0364 187.711 48.0569 187.796 48.5458C187.881 49.0348 188.329 50.0978 188.329 50.608C188.329 51.9048 188.543 52.3513 189.951 53.7969C190.612 54.4984 192.041 55.9866 193.129 57.0921C195.156 59.1967 197.119 61.3439 197.78 62.2155C198.783 63.5124 199.849 66.595 199.849 68.2107C199.849 68.7421 199.935 69.4012 200.063 69.6776C200.169 69.9539 200.361 71.6121 200.489 73.3554C200.596 75.1199 200.809 77.3521 200.916 78.3513C201.791 85.6858 202.281 94.806 202.281 103.756C202.303 112.239 202.239 112.77 201.151 114.279C200.468 115.236 199.209 116.405 198.868 116.405C198.548 116.405 197.929 116.979 197.929 117.277C197.929 117.575 198.356 117.511 199.828 117.022C200.916 116.682 201.3 116.639 201.876 116.831C202.708 117.107 204.543 118.978 204.543 119.552C204.543 119.764 204.628 120.019 204.735 120.147C204.841 120.253 204.969 120.721 205.033 121.189C205.481 124.526 205.673 125.845 205.951 127.141C206.42 129.437 206.953 133.073 207.529 138.09C207.636 139.089 207.828 140.237 207.935 140.641C208.041 141.045 208.255 142.384 208.383 143.617C208.639 146.126 209.151 149.931 209.449 151.696C209.556 152.334 209.748 153.737 209.876 154.778C210.004 155.841 210.196 157.266 210.324 157.967C210.537 159.222 210.644 160.093 211.135 164.239C211.284 165.344 211.476 166.684 211.604 167.215C211.711 167.747 211.903 168.98 212.009 169.979C212.372 173.168 212.799 176.271 213.033 177.334C213.161 177.908 213.375 179.333 213.503 180.502C213.652 181.671 213.887 183.542 214.057 184.648C214.228 185.753 214.463 187.581 214.591 188.687C214.697 189.792 214.889 190.983 214.996 191.323C215.359 192.365 215.252 193.917 214.74 194.895C213.844 196.659 212.799 197.169 209.556 197.318C208.276 197.382 206.719 197.573 206.121 197.743C205.332 197.956 204.649 197.977 203.561 197.85C202.132 197.68 202.047 197.68 200.724 198.402C198.079 199.805 195.177 200.592 192.703 200.592L190.911 200.592L190.825 204.27C190.74 207.629 190.527 209.202 189.993 210.223C189.887 210.435 189.716 211.009 189.631 211.498C189.396 212.561 189.119 213.369 188.244 215.452C187.369 217.536 185.065 219.938 182.996 220.916C181.439 221.66 177.727 222.914 177.108 222.914C176.895 222.914 176.276 223.042 175.743 223.212C175.209 223.382 174.313 223.637 173.716 223.765C173.14 223.914 172.073 224.169 171.369 224.317C169.236 224.849 163.135 225.636 157.929 226.103C156.649 226.21 155.241 226.401 154.815 226.528C154.388 226.635 153.641 226.741 153.151 226.741C152.639 226.741 151.124 226.869 149.759 227.039C144.468 227.676 142.847 227.825 138.409 228.017C133.631 228.25 129.812 228.484 124.543 228.888C120.191 229.207 114.687 229.335 114.303 229.101ZM124.649 227.379C126.185 227.272 129.108 227.06 131.156 226.89C133.225 226.72 135.679 226.635 136.596 226.698C137.727 226.741 138.793 226.656 139.753 226.443C140.564 226.252 142.036 226.103 143.06 226.082C144.084 226.082 145.727 225.976 146.729 225.891C151.551 225.402 152.916 225.253 154.089 225.062C154.793 224.934 156.287 224.743 157.396 224.615C164.5 223.828 169.855 222.957 174.569 221.851C177.044 221.277 180.223 220.342 180.863 220.023C181.161 219.874 181.78 219.577 182.249 219.385C183.38 218.875 184.212 218.301 185.001 217.408C186.303 215.984 186.751 214.985 188.009 210.69C188.18 210.116 188.457 209.181 188.649 208.628C189.119 207.14 189.204 200.613 188.756 200.38C188.585 200.294 188.159 200.082 187.796 199.933C186.367 199.274 184.98 197.488 183.401 194.236C181.865 191.11 181.652 190.622 180.948 188.9C180.756 188.368 180.415 187.56 180.201 187.092C180.009 186.625 179.732 185.859 179.583 185.392C179.433 184.924 179.22 184.307 179.092 184.01C178.985 183.712 178.815 183.202 178.729 182.841C178.623 182.5 178.345 181.671 178.089 181.034C177.385 179.163 176.233 175.612 175.209 172.105C175.06 171.573 174.783 170.659 174.591 170.064C174.399 169.447 174.249 168.767 174.249 168.512C174.249 168.278 174.121 167.768 173.951 167.385C173.673 166.726 173.545 166.216 172.948 163.282C172.841 162.708 172.671 162.07 172.607 161.9C172.436 161.518 171.967 159.307 171.689 157.542C171.561 156.841 171.412 156.118 171.327 155.948C171.263 155.778 171.135 155.097 171.049 154.459C170.964 153.822 170.793 152.716 170.665 152.015C170.409 150.527 169.833 146.02 169.663 144.042C169.599 143.277 169.492 142.278 169.449 141.81C169.407 141.343 169.279 139.684 169.151 138.132C168.895 134.625 168.809 134.476 166.804 134.455C164.607 134.455 161.983 134.008 158.036 132.988C157.631 132.881 156.479 132.605 155.476 132.371C151.06 131.351 145.108 129.692 142.783 128.8C142.313 128.629 141.588 128.353 141.183 128.204C139.753 127.673 137.023 126.589 136.383 126.291C136.041 126.142 135.017 125.696 134.143 125.313C133.268 124.952 131.689 124.229 130.623 123.719C129.577 123.23 128.553 122.762 128.383 122.677C128.212 122.613 127.487 122.23 126.783 121.848C126.079 121.444 124.713 120.721 123.775 120.232L122.025 119.318L121.108 119.764C120.596 119.998 119.935 120.253 119.636 120.338C119.337 120.402 118.911 120.551 118.676 120.657C118.441 120.742 116.82 121.274 115.049 121.827C111.039 123.081 109.801 123.506 108.329 124.059C107.689 124.314 106.921 124.59 106.623 124.697C106.324 124.782 105.62 125.1 105.044 125.419C104.468 125.717 103.935 125.972 103.828 125.972C103.615 125.972 99.4759 128.013 98.6226 128.523C95.7212 130.288 90.7719 132.35 89.4279 132.35C88.2332 132.35 87.6359 132.69 87.6359 133.37C87.6359 133.689 87.7852 134.157 87.9559 134.391C89.3639 136.198 90.0679 140.003 89.4492 142.469C89.0866 143.915 88.8946 144.425 87.8066 146.785C87.2306 148.018 87.1879 148.273 87.2732 149.867C87.3372 150.803 87.5292 152.504 87.6999 153.609C87.9986 155.522 88.1266 156.267 88.7026 158.818C88.8306 159.413 89.0226 160.306 89.1292 160.837C89.3639 161.879 89.3639 161.9 90.5159 164.345C91.1772 165.748 91.3052 166.237 91.2412 167.109C91.1346 168.746 91.2412 171.679 91.4759 172.742C91.6679 173.72 91.9666 175.612 92.3292 178.057C92.4359 178.823 92.6279 179.779 92.7559 180.183C92.8626 180.587 93.2039 181.926 93.5026 183.16C93.8226 184.393 94.2066 185.966 94.3772 186.667C94.5479 187.369 94.7826 188.474 94.9106 189.112C95.0172 189.75 95.6572 192.088 95.8279 192.641C96.3826 194.597 96.6172 195.596 96.8306 196.872C96.9372 197.573 97.1079 198.424 97.2359 198.785C97.5986 199.976 97.9399 201.336 98.1106 202.187C98.3666 203.462 99.7106 208.309 100.244 209.84C100.372 210.201 100.543 210.775 100.649 211.115C100.756 211.477 100.927 212.051 101.055 212.391C101.161 212.752 101.567 213.9 101.929 214.942C103.892 220.618 106.324 224.53 108.543 225.529C108.713 225.614 109.161 225.869 109.524 226.082C110.377 226.592 112.489 227.166 114.303 227.379C116.201 227.591 121.3 227.591 124.649 227.379ZM94.6759 208.904C96.1906 208.649 97.4919 208.16 97.7479 207.756C97.8972 207.544 97.8759 207.246 97.7266 206.927C97.4492 206.375 96.9799 204.844 96.5319 203.143C96.3612 202.505 96.1052 201.549 95.9772 201.017C95.8279 200.486 95.6146 199.487 95.4866 198.785C95.3799 198.083 94.7612 195.299 94.5906 194.81C94.4412 194.299 94.1426 193.13 93.9292 192.195C93.7159 191.259 93.4599 190.154 93.3532 189.75C93.2252 189.346 93.0546 188.623 92.9479 188.155C92.5426 186.263 92.1586 184.711 91.9239 184.159C91.7959 183.819 91.6892 183.181 91.6892 182.713C91.6892 182.245 91.5826 181.671 91.4759 181.459C91.2199 180.991 90.6866 178.589 90.4092 176.675C90.3026 175.974 90.1106 175.102 89.9826 174.762C89.8546 174.401 89.6839 172.36 89.6199 170.191C89.5132 166.705 89.4492 166.131 89.0226 165.195C88.7452 164.621 88.4679 163.899 88.3826 163.601C88.2972 163.303 88.1479 162.984 88.0626 162.857C87.9772 162.751 87.8279 162.304 87.7426 161.9C87.6572 161.496 87.5079 161.029 87.4226 160.837C87.1026 160.221 86.5692 157.244 86.1212 153.673C85.9719 152.461 85.7586 151.483 85.6519 151.483C85.5452 151.483 85.0972 151.76 84.6706 152.1C82.9212 153.46 79.4226 154.672 77.2039 154.672C76.1799 154.672 75.6466 154.757 75.5826 154.948C75.2199 155.884 76.4999 168.937 77.3746 173.487C77.9506 176.378 78.2919 178.015 78.5692 179.014C78.7399 179.609 78.9319 180.502 79.0172 181.034C79.1026 181.544 79.2306 182.118 79.3159 182.309C79.4012 182.479 79.5932 183.053 79.7212 183.585C79.8706 184.116 80.0626 184.839 80.1692 185.179C80.2759 185.541 80.5532 186.54 80.8092 187.411C81.6199 190.345 81.9826 191.408 83.0279 194.172C83.1986 194.597 83.6466 195.83 84.0092 196.872C84.3719 197.935 84.9479 199.444 85.3106 200.252C85.6519 201.06 85.9292 201.825 85.9292 201.974C85.9292 202.123 87.0812 204.61 87.8066 206.12C88.3186 207.14 90.1106 208.883 90.6866 208.883C90.9426 208.883 91.3052 208.99 91.4759 209.096C91.7959 209.33 92.5426 209.287 94.6759 208.904ZM195.007 198.721C195.561 198.572 196.713 198.19 197.567 197.871C201.855 196.149 203.028 195.277 204.095 193.024C204.884 191.366 204.991 190.579 204.735 188.793C204.607 187.985 204.436 186.774 204.329 186.136C204.159 184.945 203.903 183.478 203.369 180.608C203.199 179.737 202.9 178.164 202.729 177.101C202.537 176.059 202.239 174.592 202.068 173.869C201.897 173.146 201.769 172.253 201.769 171.892C201.769 171.531 201.641 170.935 201.492 170.553C201.321 170.17 201.129 169.256 201.044 168.491C200.959 167.747 200.809 167.024 200.745 166.896C200.66 166.79 200.489 166.025 200.34 165.195C200.212 164.388 199.935 162.942 199.743 162.007C199.572 161.071 199.359 160.029 199.295 159.668C199.231 159.328 199.06 158.414 198.889 157.648C198.719 156.883 198.42 155.501 198.249 154.566C198.057 153.63 197.759 152.312 197.588 151.653C197.417 150.973 197.289 150.123 197.289 149.761C197.289 149.379 197.161 148.592 196.991 147.997C196.82 147.401 196.543 146.19 196.351 145.318C196.18 144.446 195.881 143.001 195.711 142.129C195.519 141.257 195.177 139.621 194.964 138.515C194.217 134.858 193.876 133.307 193.663 132.562C193.129 130.692 191.892 124.654 191.615 122.571C191.359 120.806 190.335 119.849 190.505 121.571C190.719 123.591 188.201 126.886 184.447 129.437C181.14 131.691 175.273 133.923 171.796 134.242C170.367 134.391 170.452 134.157 170.836 136.602C170.943 137.367 171.135 139.238 171.263 140.747C171.391 142.278 171.583 144.701 171.689 146.168C171.817 147.635 172.009 149.102 172.116 149.442C172.244 149.782 172.329 150.335 172.329 150.654C172.329 151.228 172.607 152.823 173.311 156.479C173.503 157.415 173.801 158.903 173.972 159.774C174.143 160.646 174.377 161.666 174.505 162.007C174.633 162.368 174.804 163.133 174.889 163.707C175.06 164.749 175.252 165.642 175.849 167.747C176.02 168.342 176.297 169.383 176.511 170.085C176.98 171.828 177.449 173.338 177.791 174.231C177.94 174.635 178.132 175.357 178.196 175.825C178.281 176.293 178.409 176.76 178.473 176.888C178.601 177.101 179.071 178.419 180.308 181.99C180.628 182.926 180.969 183.882 181.076 184.116C181.161 184.35 181.524 185.264 181.887 186.136C186.025 196.404 187.092 198.062 190.143 198.849C191.145 199.104 193.577 199.04 195.007 198.721ZM208.596 195.894C209.001 195.788 209.897 195.702 210.58 195.702C211.86 195.702 212.756 195.405 212.543 195.043C212.457 194.937 211.945 194.852 211.369 194.852C209.428 194.852 207.337 193.789 206.868 192.577C206.569 191.791 206.271 192.003 205.631 193.428C205.289 194.151 204.82 194.937 204.564 195.15C204.329 195.384 204.116 195.724 204.116 195.936C204.116 196.276 204.287 196.319 205.993 196.213C207.017 196.149 208.191 196 208.596 195.894ZM213.14 193.768C213.503 193.258 213.46 191.855 212.969 188.793C212.713 187.156 212.457 185.349 211.924 181.459C211.86 181.055 211.711 179.864 211.583 178.801C211.455 177.76 211.241 176.463 211.135 175.931C210.857 174.805 210.367 171.361 210.068 168.384C209.94 167.215 209.748 166.173 209.641 166.046C209.535 165.939 209.449 165.365 209.428 164.77C209.428 164.196 209.321 163.176 209.215 162.538C209.108 161.9 208.873 160.263 208.703 158.924C208.191 155.076 207.807 152.206 207.444 149.676C207.252 148.401 207.039 146.955 206.996 146.487C206.591 143.49 206.207 140.79 206.036 139.791C205.929 139.153 205.78 138.005 205.695 137.239C205.631 136.474 205.481 135.432 205.375 134.901C205.268 134.369 205.076 133.136 204.969 132.137C204.841 131.138 204.628 129.522 204.457 128.523C204.287 127.524 204.052 125.908 203.924 124.909C203.668 123.166 203.391 121.55 203.113 120.445C203.049 120.147 202.708 119.552 202.367 119.127C201.684 118.276 201.065 118.106 200.212 118.574C199.38 119.02 197.673 119.148 196.991 118.808C195.817 118.212 194.495 117.915 193.94 118.127C193.663 118.234 193.108 118.319 192.703 118.319C191.785 118.319 191.679 118.51 192.084 119.488C192.468 120.423 193.172 123.06 193.492 124.697C193.62 125.334 193.791 125.951 193.897 126.057C194.004 126.185 194.089 126.61 194.089 127.014C194.111 127.439 194.239 128.162 194.409 128.629C194.58 129.097 194.729 129.714 194.729 129.969C194.729 130.245 194.857 130.968 195.028 131.563C195.305 132.605 195.625 134.093 196.351 137.558C196.543 138.387 196.777 139.429 196.884 139.897C197.012 140.365 197.204 141.321 197.311 142.023C197.417 142.724 197.588 143.596 197.695 143.936C197.887 144.531 198.228 146.126 198.783 148.932C198.911 149.57 199.167 150.824 199.337 151.696C199.508 152.567 199.743 153.779 199.828 154.353C199.935 154.948 200.105 155.905 200.233 156.479C200.361 157.074 200.617 158.35 200.809 159.349C201.001 160.348 201.3 161.624 201.471 162.198C201.641 162.751 201.769 163.537 201.769 163.92C201.769 164.324 201.855 164.877 201.983 165.195C202.089 165.493 202.281 166.237 202.388 166.854C202.495 167.47 202.943 169.681 203.369 171.786C204.18 175.74 204.607 178.079 204.969 180.29C205.097 180.991 205.247 181.735 205.311 181.948C205.439 182.33 205.844 184.839 206.271 187.73C206.655 190.494 207.231 191.727 208.703 192.981C209.3 193.492 211.135 194.087 212.479 194.193C212.671 194.193 212.969 194.023 213.14 193.768ZM78.5692 152.971C80.4892 152.44 81.9186 151.93 82.1959 151.675C82.3026 151.568 82.5159 151.483 82.6652 151.483C82.8146 151.483 83.4759 151.143 84.1159 150.718C85.0972 150.059 85.3106 149.804 85.3959 149.166C85.4599 148.741 85.5666 148.124 85.6092 147.805C85.6732 147.486 86.0359 146.53 86.4412 145.679C87.3586 143.724 87.8279 142.278 87.8919 141.066C87.9559 140.258 87.8919 140.109 87.5292 140.046C87.2946 140.003 86.9532 139.918 86.7826 139.854C86.6119 139.769 85.9932 139.599 85.3959 139.45C84.8199 139.302 83.7532 139.025 83.0492 138.855C82.3452 138.685 81.2359 138.366 80.5959 138.175C79.9559 137.984 78.9532 137.707 78.3559 137.558C74.1959 136.453 72.2546 135.943 71.4226 135.751C70.8892 135.603 70.2706 135.411 70.0359 135.326C69.8012 135.22 69.0332 134.986 68.3292 134.795C66.8572 134.412 64.9159 133.838 62.0359 132.966C60.9266 132.626 59.0066 132.052 57.7692 131.691C56.5319 131.351 55.2946 130.968 54.9959 130.862C54.6972 130.777 53.4599 130.394 52.2226 130.011C49.3852 129.161 47.5079 128.544 47.1026 128.311C46.9106 128.226 46.4412 128.077 46.0359 128.013C45.6306 127.928 45.0972 127.779 44.8626 127.673C43.5612 127.12 32.5959 123.463 32.0626 123.23C31.8279 123.123 31.2092 122.889 30.6759 122.719C29.1612 122.23 26.9639 121.465 26.6226 121.295C26.4306 121.21 25.9612 121.061 25.5559 120.997C25.1506 120.912 24.6172 120.764 24.3826 120.657C22.6332 119.892 17.4706 119.552 16.2759 120.105C15.8919 120.296 15.4439 120.445 15.2946 120.445C15.1452 120.445 14.2066 120.742 13.2039 121.104C10.8146 121.954 10.6652 122.018 9.70522 122.443C9.25722 122.634 8.78789 122.783 8.61722 122.783C8.21189 122.783 4.88389 124.25 4.41455 124.654C3.81722 125.164 3.88122 126.865 4.54255 128.098C4.81989 128.629 5.13989 129.246 5.26789 129.501C5.86522 130.819 9.21455 133.009 11.5826 133.625C12.3079 133.817 13.4172 134.221 14.3559 134.603C14.7186 134.731 15.2306 134.943 15.5292 135.071C16.0626 135.284 17.6626 135.985 18.8359 136.495C19.1986 136.665 20.3932 137.218 21.5239 137.75C22.6546 138.281 23.6572 138.728 23.7212 138.728C23.8066 138.728 24.4466 139.025 25.1719 139.365C25.8759 139.727 26.5372 140.003 26.6439 140.003C26.7506 140.003 27.4332 140.28 28.1799 140.62C30.2492 141.576 31.0386 141.917 31.2732 141.917C31.3799 141.917 32.0199 142.15 32.7026 142.469C33.3852 142.767 34.5159 143.192 35.2412 143.426C35.9666 143.66 36.7346 143.936 36.9692 144.042C37.6519 144.361 39.2732 144.914 39.8492 145.042C40.1479 145.105 40.4892 145.233 40.5959 145.318C40.7239 145.403 41.5346 145.679 42.4092 145.956C43.2839 146.211 44.3292 146.551 44.7132 146.721C45.0972 146.891 45.5666 147.019 45.7799 147.019C45.9719 147.019 46.8679 147.274 47.7426 147.571C48.6172 147.869 49.7692 148.188 50.3026 148.294C50.8359 148.401 51.9879 148.698 52.8626 148.932C53.7372 149.187 54.6972 149.442 54.9959 149.485C55.2946 149.549 56.0199 149.719 56.5959 149.889C58.7719 150.484 59.6039 150.697 60.4359 150.867C60.9052 150.952 61.8226 151.143 62.4626 151.271C63.1026 151.398 64.0839 151.589 64.6386 151.717C65.9612 152.015 67.6466 152.291 70.2492 152.631C71.4226 152.801 72.6172 153.035 72.9159 153.141C73.8119 153.524 76.9266 153.418 78.5692 152.971ZM87.9132 138.855C88.3612 137.686 85.9292 134.263 84.6492 134.263C84.4572 134.263 84.2012 134.157 84.0946 134.051C83.6892 133.647 79.4226 132.605 76.9906 132.329C76.0092 132.222 75.0279 132.031 74.8146 131.925C74.6012 131.797 74.1319 131.712 73.7692 131.712C73.4066 131.712 72.7666 131.563 72.3399 131.393C71.9346 131.223 71.4012 131.074 71.1666 131.074C70.9319 131.074 70.3132 130.947 69.7586 130.777C69.2039 130.607 68.1372 130.309 67.3692 130.118C66.6012 129.926 65.7479 129.671 65.4706 129.544C65.1719 129.437 64.5532 129.267 64.0839 129.161C63.5932 129.076 62.6759 128.778 62.0359 128.544C61.3959 128.289 60.5212 127.992 60.1159 127.907C59.0066 127.63 57.8972 127.226 55.9772 126.419C55.4012 126.163 54.7826 125.972 54.5906 125.972C54.3772 125.972 54.0359 125.823 53.8012 125.653C53.5666 125.462 52.9052 125.356 52.1372 125.334C51.0066 125.334 49.5772 125.1 46.8892 124.441C46.3559 124.314 45.5879 124.144 45.1826 124.059C44.4359 123.889 43.3052 123.57 40.5959 122.783C39.7852 122.528 38.8252 122.252 38.4626 122.145C37.8652 121.975 37.3319 121.805 35.5826 121.189C31.8919 119.871 28.3079 118.255 27.1772 117.426C26.5799 116.979 25.8972 116.554 25.6626 116.512C25.4279 116.469 24.5319 116.278 23.6786 116.065C22.6546 115.831 21.0759 115.704 18.9852 115.683L15.8492 115.661L13.2892 116.958C10.5372 118.34 10.2599 118.446 7.91322 119.169C6.20655 119.701 5.67322 120.147 4.67055 121.975C4.20122 122.783 4.07322 123.208 4.22255 123.315C4.35055 123.4 5.20389 123.102 6.09989 122.677C7.91322 121.805 8.06255 121.741 9.87589 121.061C10.5799 120.806 11.4546 120.466 11.7959 120.317C12.1586 120.168 12.9692 119.892 13.6092 119.679C14.2492 119.488 14.8892 119.254 14.9959 119.169C16.2332 118.276 21.9292 118.297 23.9559 119.19C24.1906 119.297 24.7666 119.467 25.2359 119.573C26.4519 119.871 27.9239 120.317 28.5426 120.593C28.8412 120.721 29.6519 121.019 30.3559 121.253C31.0599 121.486 32.1692 121.89 32.8092 122.145C33.4492 122.401 34.2812 122.677 34.6226 122.783C34.9852 122.868 36.5212 123.4 38.0359 123.952C39.5719 124.505 41.1932 125.058 41.6626 125.185C42.1319 125.292 42.6226 125.462 42.7292 125.568C42.8572 125.653 43.3266 125.781 43.7959 125.866C44.2652 125.951 44.7559 126.1 44.8626 126.185C44.9906 126.27 45.8439 126.567 46.7826 126.822C47.7212 127.099 48.5959 127.396 48.7026 127.481C48.8306 127.567 49.3212 127.758 49.7692 127.864C50.7719 128.119 52.4999 128.629 53.3959 128.927C53.7586 129.033 54.6119 129.31 55.3159 129.501C56.0199 129.714 56.7026 129.948 56.8092 130.033C56.9372 130.118 57.3639 130.245 57.7692 130.33C58.1746 130.394 59.8599 130.883 61.5026 131.414C63.1452 131.925 64.6172 132.35 64.7666 132.35C64.9159 132.35 65.6412 132.562 66.3666 132.796C67.0919 133.051 68.2226 133.37 68.8626 133.519C69.5026 133.668 70.3346 133.902 70.6759 134.029C71.0386 134.136 71.8492 134.391 72.4892 134.54C75.7106 135.39 76.4786 135.603 76.8626 135.773C77.0972 135.879 77.7159 136.049 78.2492 136.177C79.2306 136.368 80.7666 136.772 82.6226 137.325C83.2199 137.495 84.2012 137.792 84.8199 137.962C85.4172 138.132 86.2492 138.451 86.6332 138.685C87.4652 139.217 87.7639 139.238 87.9132 138.855ZM86.0146 133.434C86.0786 133.349 85.9932 133.073 85.8226 132.86C85.5879 132.541 85.4812 132.52 85.2679 132.711C85.0546 132.924 85.0759 133.03 85.2892 133.307C85.5879 133.668 85.8439 133.71 86.0146 133.434ZM171.327 132.669C171.753 132.499 172.393 132.35 172.735 132.35C173.268 132.35 177.065 131.244 178.409 130.692C181.481 129.416 184.596 127.524 186.111 126.015C187.156 124.952 188.756 122.975 189.14 122.23C189.46 121.635 188.841 121.082 187.263 120.572C186.623 120.36 185.897 120.126 185.663 120.019C185.428 119.913 184.233 119.488 182.996 119.084C181.759 118.659 180.564 118.212 180.329 118.106C180.095 117.979 179.177 117.66 178.303 117.383C176.703 116.873 175.977 116.597 174.783 116.065C174.441 115.916 173.033 115.342 171.689 114.832C169.428 113.961 168.191 113.45 165.78 112.345C165.289 112.132 164.777 111.941 164.649 111.941C164.543 111.941 164.265 111.856 164.052 111.728C163.54 111.452 161.3 110.453 158.783 109.39C156.628 108.476 154.836 107.689 153.663 107.158C153.321 106.988 152.361 106.562 151.529 106.18C150.719 105.818 149.183 105.117 148.116 104.607C147.071 104.096 144.852 103.055 143.209 102.268C140.095 100.78 135.657 98.5901 127.529 94.4871C120.873 91.1281 119.785 90.6817 116.884 90.1502C115.519 89.8951 114.857 89.8526 114.111 90.0227C113.577 90.129 112.66 90.299 112.063 90.3628C111.487 90.4266 110.719 90.5754 110.356 90.6817C110.015 90.7667 109.183 91.0006 108.543 91.1919C107.903 91.362 106.644 91.7234 105.769 91.9573C104.895 92.1911 103.828 92.4887 103.423 92.6163C102.655 92.8289 101.247 93.1265 99.6252 93.4241C99.1132 93.5092 98.6012 93.7005 98.4732 93.8281C98.3239 93.9769 97.9826 94.0832 97.6839 94.0832C97.3639 94.1044 96.9159 94.2745 96.6599 94.4871C96.2332 94.8485 96.1692 95.0824 96.1692 96.613C96.1692 98.1862 96.4039 99.1429 97.0439 100.248C97.1506 100.418 97.3212 100.78 97.4279 101.035C97.8332 101.949 101.268 104.904 102.804 105.627C103.401 105.925 108.116 108.795 110.889 110.559C111.892 111.197 112.852 111.792 113.023 111.877C113.193 111.941 113.684 112.281 114.111 112.621C114.537 112.94 114.964 113.217 115.028 113.217C115.113 113.217 115.561 113.472 116.073 113.791C117.311 114.598 117.759 114.875 118.143 115.066C118.313 115.151 119.103 115.619 119.892 116.129C120.66 116.639 121.407 117.043 121.513 117.043C121.641 117.043 121.769 117.128 121.812 117.213C121.855 117.32 122.879 117.894 124.116 118.531C125.353 119.148 126.505 119.722 126.676 119.828C128.361 120.764 135.167 124.059 135.401 124.059C135.551 124.059 135.935 124.186 136.233 124.356C136.553 124.505 137.193 124.824 137.663 125.015C138.132 125.228 138.772 125.526 139.092 125.696C139.391 125.845 139.796 125.972 139.967 125.972C140.137 125.972 140.927 126.27 141.716 126.61C142.505 126.971 143.273 127.248 143.444 127.248C143.593 127.248 144.041 127.375 144.425 127.545C144.809 127.715 145.705 128.013 146.409 128.204C147.113 128.417 147.924 128.672 148.223 128.8C148.521 128.906 149.14 129.097 149.609 129.182C150.847 129.437 154.324 130.309 155.988 130.777C156.543 130.947 157.332 131.074 157.695 131.074C158.057 131.074 158.548 131.202 158.783 131.372C159.017 131.521 159.551 131.712 159.956 131.776C160.361 131.84 162.004 132.137 163.583 132.414C166.996 133.03 170.217 133.136 171.327 132.669ZM89.7692 130.755C90.4092 130.564 91.2839 130.266 91.6892 130.075C92.0946 129.905 92.7346 129.629 93.0759 129.501C94.3986 128.948 97.3852 127.396 98.6226 126.589C98.9852 126.376 99.4119 126.121 99.5826 126.057C100.585 125.632 102.719 124.633 102.996 124.463C103.167 124.356 103.465 124.208 103.636 124.144C104.532 123.804 107.241 122.719 107.796 122.486C108.777 122.06 109.759 121.741 111.743 121.146C112.745 120.87 113.855 120.487 114.196 120.338C115.263 119.892 118.1 119.084 119.487 118.85C120.809 118.638 120.511 118.127 118.548 117.149C117.588 116.682 116.201 115.895 115.433 115.406C114.665 114.896 114.004 114.492 113.94 114.492C113.876 114.492 113.535 114.279 113.172 114.024C112.511 113.557 110.975 112.6 105.705 109.347C104.319 108.497 102.932 107.625 102.612 107.434C102.292 107.243 101.652 106.86 101.161 106.626C99.7532 105.882 97.1506 103.565 96.3399 102.332C94.2279 99.1216 93.9292 97.591 94.6546 93.3391C95.1026 90.703 96.8946 87.8755 98.6652 87.0251C99.4546 86.6424 99.5186 86.1535 98.8572 85.3031C98.0679 84.2827 96.9372 82.0717 96.4892 80.6898C96.2759 80.0521 95.9772 79.1167 95.8066 78.649C95.4012 77.4584 95.1239 75.8853 94.8892 73.4617C94.7826 72.3562 94.5906 70.9106 94.4839 70.2728C94.3559 69.635 94.0146 67.7642 93.6946 66.1273C93.3959 64.4903 93.0546 62.3644 92.9479 61.3864C92.8626 60.4298 92.6706 59.2818 92.5639 58.8353C92.4359 58.4101 92.3292 57.581 92.3292 57.0283C92.3292 56.4543 92.2226 55.8165 92.1159 55.5827C91.9879 55.3701 91.7959 54.2008 91.6892 52.989C91.5826 51.7985 91.4546 50.6718 91.3906 50.5017C91.3479 50.3316 91.2412 49.9277 91.1772 49.6088C90.9639 48.7159 90.1959 48.2907 89.1932 48.5671C88.7452 48.6734 87.6572 48.9285 86.7826 49.1411C85.9079 49.3324 84.7986 49.6088 84.3292 49.7576C83.8599 49.9064 82.4732 50.3316 81.2359 50.7143C79.9986 51.0757 78.2706 51.6497 77.3959 51.9686C76.5212 52.3087 75.6039 52.6276 75.3692 52.6914C74.4946 52.9465 71.5079 54.0307 71.0599 54.2858C70.8039 54.4347 70.3986 54.541 70.1639 54.541C69.9506 54.541 69.4812 54.6685 69.1399 54.8386C68.8199 55.0087 68.1586 55.285 67.6892 55.4551C67.2199 55.6252 66.0679 56.0504 65.1079 56.433C64.1692 56.7944 63.2519 57.0921 63.0812 57.0921C62.9106 57.0921 62.5692 57.2409 62.3346 57.411C62.1212 57.581 61.8012 57.7298 61.6519 57.7298C61.5026 57.7298 60.7986 58.0062 60.0732 58.3676C59.3692 58.7078 58.6226 59.0054 58.4306 59.0054C58.2386 59.0054 57.8759 59.1542 57.6412 59.3243C57.4279 59.4944 57.1079 59.6432 56.9799 59.6432C56.8306 59.6432 56.0839 59.9408 55.3586 60.281C54.6119 60.6424 53.8652 60.9187 53.7372 60.9187C53.5879 60.9187 53.2039 61.0463 52.9052 61.1951C52.3719 61.4715 51.9026 61.6841 49.9826 62.4919C49.5559 62.6833 48.9159 62.9596 48.5319 63.1297C48.1692 63.2785 47.3159 63.6399 46.6759 63.895C45.3106 64.4478 43.6892 65.1706 41.8759 66.0422C41.1719 66.3824 40.5106 66.6587 40.4039 66.6587C40.2759 66.6587 39.3159 67.0839 38.2706 67.5941C35.0066 69.1886 30.0146 71.5696 29.5452 71.7822C29.2892 71.8885 28.9266 72.0586 28.7559 72.1436C28.1159 72.505 27.3266 72.9302 24.4892 74.3758C20.4572 76.4593 19.3479 77.0333 18.6226 77.501C18.2812 77.7348 17.7906 78.0112 17.5559 78.1175C17.2999 78.2238 16.6386 78.734 16.0626 79.2655C15.0599 80.1584 14.9959 80.2647 14.9959 81.2426C15.0172 82.3906 15.2092 84.5378 15.5079 86.6424C15.6146 87.4078 15.8066 88.8321 15.9559 89.8313C16.0839 90.8305 16.2972 92.0636 16.4252 92.595C16.5319 93.1265 16.7666 94.3596 16.9586 95.3587C17.6199 99.1216 18.9212 103.841 19.8386 105.776C20.2439 106.626 21.9079 109.369 22.6119 110.325C23.7426 111.898 26.3879 114.641 27.6892 115.619C28.8839 116.533 32.2972 118.319 32.8092 118.319C32.9586 118.319 33.6839 118.616 34.4519 118.957C35.1986 119.318 39.1026 120.679 39.4866 120.764C39.8492 120.849 40.5959 121.04 41.1292 121.189C41.6626 121.359 42.6226 121.635 43.2626 121.805C43.9026 121.975 44.9479 122.273 45.5879 122.443C46.2066 122.634 46.9532 122.783 47.2306 122.783C47.5079 122.783 48.2759 122.932 48.9586 123.102C50.6652 123.57 53.8652 123.57 54.7399 123.123C55.1026 122.932 55.5506 122.783 55.7426 122.783C55.9559 122.783 56.3612 122.656 56.6599 122.486C56.9799 122.315 58.1959 121.699 59.3692 121.125C60.5426 120.551 62.0786 119.764 62.7826 119.382C64.1479 118.638 64.4039 118.489 66.4092 117.362C67.1132 116.958 68.0946 116.427 68.5852 116.193C69.0759 115.938 69.5879 115.598 69.7372 115.427C69.8652 115.257 70.0572 115.13 70.1426 115.13C70.2492 115.13 71.0599 114.705 71.9346 114.173C72.8306 113.642 73.6199 113.217 73.6626 113.217C73.7266 113.217 74.6652 112.791 75.7532 112.281C76.8412 111.75 77.9932 111.261 78.3132 111.197C78.6332 111.112 78.9532 110.963 79.0172 110.857C79.0812 110.75 79.2946 110.665 79.4866 110.665C79.6786 110.665 80.1052 110.538 80.4252 110.368C80.7452 110.198 81.3212 110.006 81.7052 109.921C82.0892 109.836 82.5159 109.687 82.6226 109.602C82.7506 109.517 83.7106 109.241 84.7559 108.986C85.8226 108.71 87.0812 108.369 87.5932 108.199C88.0839 108.029 88.8306 107.902 89.2359 107.902C89.6199 107.902 90.0039 107.817 90.0679 107.71C90.1319 107.604 90.7506 107.455 91.4119 107.37C92.0946 107.285 92.7559 107.158 92.8626 107.051C92.9906 106.966 94.0359 106.86 95.2092 106.817C97.0012 106.754 97.3426 106.775 97.3426 107.051C97.3426 107.285 96.9159 107.434 95.7426 107.625C94.8679 107.753 93.5239 108.029 92.7559 108.221C91.9879 108.412 90.8999 108.667 90.3026 108.795C89.7266 108.922 89.0439 109.092 88.8092 109.199C88.4039 109.369 87.8279 109.517 85.5026 110.07C84.9692 110.198 84.4572 110.368 84.3292 110.453C84.2226 110.538 83.7746 110.687 83.3692 110.772C81.1719 111.239 74.4732 114.343 70.2492 116.831C68.7346 117.745 67.1986 118.638 66.8359 118.829C66.4946 119.02 65.7692 119.424 65.2359 119.722C63.0172 120.976 58.0039 123.4 56.9159 123.74C56.2759 123.952 55.6572 124.186 55.5506 124.293C55.3586 124.463 57.1079 125.334 57.6626 125.334C57.8332 125.334 58.2812 125.462 58.6652 125.632C59.0492 125.802 60.3719 126.227 61.6092 126.589C62.8466 126.971 64.1692 127.418 64.5532 127.588C64.9372 127.737 65.5132 127.885 65.8332 127.885C66.1746 127.885 66.5159 127.97 66.6439 128.098C66.7506 128.204 67.2839 128.396 67.7959 128.502C68.3292 128.608 69.2466 128.8 69.8226 128.948C70.4199 129.076 71.4226 129.331 72.0626 129.48C72.7026 129.65 73.6199 129.863 74.0892 129.99C74.8999 130.181 78.0146 130.713 80.5959 131.096C82.6012 131.372 88.4466 131.159 89.7692 130.755ZM189.481 120.062C189.652 119.786 188.991 117.638 188.607 117.171C187.86 116.257 186.601 115.215 185.833 114.832C185.385 114.62 184.873 114.365 184.703 114.258C184.02 113.876 182.804 113.323 179.049 111.622C178.345 111.303 177.257 110.814 176.66 110.538C173.951 109.305 173.225 108.986 172.116 108.539C171.476 108.284 170.324 107.774 169.556 107.434C168.788 107.073 167.892 106.669 167.529 106.52C167.188 106.371 166.249 105.946 165.439 105.584C164.649 105.223 163.967 104.925 163.924 104.925C163.86 104.925 163.199 104.649 162.452 104.288C161.684 103.947 161.001 103.65 160.937 103.65C160.895 103.65 159.913 103.225 158.804 102.693C157.673 102.162 156.713 101.737 156.671 101.737C156.607 101.737 155.625 101.311 154.473 100.78C151.252 99.2704 151.188 99.2492 149.929 98.7602C149.289 98.5051 148.287 98.0587 147.689 97.8036C145.812 96.9319 144.319 96.2729 143.103 95.7839C142.463 95.5076 141.332 95.0186 140.585 94.6997C139.86 94.3596 139.177 94.0832 139.071 94.0832C138.836 94.0832 137.321 93.4241 133.481 91.6809C132.841 91.3833 131.924 91.0006 131.455 90.8305C130.729 90.5541 126.676 88.7896 123.689 87.4503C122.025 86.7062 121.897 86.6637 120.916 86.3236C120.383 86.1322 119.38 85.7708 118.676 85.537C116.969 84.9417 112.276 84.8567 111.103 85.4094C109.503 86.1535 106.964 87.0676 106.495 87.0676C106.239 87.0676 105.748 87.1739 105.407 87.3015C105.087 87.429 104.041 87.5991 103.103 87.7054C100.265 88.003 99.4759 88.2794 98.4519 89.2786C97.9612 89.7888 97.3639 90.6179 97.1506 91.1281C96.9372 91.6384 96.6386 92.3399 96.4679 92.6801C95.9559 93.658 96.3826 93.7643 97.8972 92.9777C98.6439 92.595 99.7959 92.1698 100.436 92.021C102.356 91.6171 105.407 90.8305 107.689 90.1502C108.329 89.9589 109.268 89.7038 109.78 89.6187C110.271 89.5124 110.889 89.2998 111.167 89.151C111.487 88.9597 112.66 88.8747 114.836 88.8747C118.228 88.8747 119.252 89.066 121.663 90.1502C122.26 90.4266 123.22 90.8518 123.796 91.1069C124.393 91.362 126.207 92.2336 127.849 93.0627C133.631 95.9753 142.591 100.418 144.596 101.375C146.559 102.289 150.207 103.99 151.529 104.607C153.428 105.457 155.22 106.286 155.796 106.52C156.159 106.69 156.927 107.009 157.503 107.285C158.1 107.54 159.295 108.051 160.169 108.433C161.641 109.071 163.284 109.773 164.329 110.24C164.564 110.347 165.247 110.623 165.823 110.878C166.42 111.133 167.081 111.409 167.316 111.516C167.551 111.622 168.617 112.047 169.663 112.494C170.729 112.919 171.881 113.387 172.223 113.535C172.585 113.684 173.353 113.982 173.929 114.173C174.527 114.386 175.103 114.62 175.209 114.705C175.337 114.79 176.425 115.215 177.663 115.64C178.9 116.087 180.095 116.533 180.329 116.639C180.564 116.746 181.055 116.916 181.396 117.022C181.759 117.128 182.569 117.426 183.209 117.681C183.849 117.936 184.66 118.212 184.98 118.319C185.855 118.595 188.308 119.807 188.436 120.041C188.585 120.275 189.332 120.296 189.481 120.062ZM7.84922 117.447C8.38255 117.192 9.08655 116.852 9.40655 116.703C9.74789 116.533 10.1532 116.405 10.3239 116.405C10.4946 116.405 11.2199 116.108 11.9666 115.725C12.6919 115.364 13.4599 114.981 13.6732 114.875C14.2066 114.62 15.7426 114.131 16.5532 113.961C16.9159 113.876 17.2359 113.769 17.2359 113.705C17.2359 113.642 16.8519 113.174 16.3826 112.643C15.9346 112.111 15.3372 111.239 15.1026 110.708C14.8466 110.155 14.5479 109.539 14.4412 109.326C14.1852 108.837 13.7159 107.455 13.2892 105.882C12.6492 103.437 12.2439 87.9393 12.7346 84.6866C12.8626 83.9638 12.9692 82.1142 13.0119 80.5835L13.0759 77.8198L12.4146 76.8632C11.9666 76.2254 11.7106 75.5451 11.6252 74.8223C11.5612 74.227 11.2626 72.6964 10.9426 71.4208C9.76922 66.4887 8.55322 59.8558 8.27589 56.7732C8.12655 55.3701 7.97722 54.0945 7.93455 53.967C7.80655 53.5205 7.33722 53.6481 6.71855 54.2858C6.16389 54.8811 5.71589 56.3267 5.26789 59.0692C5.16122 59.7707 5.01189 60.4298 4.94789 60.5361C4.86255 60.6636 4.71322 61.3864 4.60655 62.173C4.49989 62.9384 4.28655 64.5753 4.11589 65.8084C3.92389 67.0414 3.64655 69.2311 3.49722 70.698C3.32655 72.1649 3.09189 73.6956 2.96389 74.0995C2.83589 74.5034 2.72922 75.3538 2.72922 75.9703C2.72922 76.5868 2.64389 77.501 2.51589 77.9899C1.89722 80.541 1.49189 100.206 1.93989 105.457C2.32389 109.985 3.21989 112.876 5.24655 116.299C6.33455 118.106 6.37722 118.127 7.84922 117.447ZM194.303 116.278C195.412 116.193 196.564 116.023 196.863 115.895C198.889 115.024 200.319 113.089 200.596 110.772C200.873 108.476 200.575 96.2516 200.063 88.981C199.935 87.2802 199.828 85.3669 199.828 84.7291C199.828 84.0913 199.721 83.0284 199.615 82.3906C199.423 81.1788 198.911 76.2467 198.548 72.0798C198.441 70.8043 198.271 69.4012 198.143 68.976C198.036 68.5508 197.929 67.8918 197.929 67.5091C197.929 66.2973 197.225 64.469 196.308 63.2573C194.153 60.4085 178.836 45.1018 173.737 40.6799C172.265 39.4044 170.239 37.6186 169.343 36.7895C168.383 35.8966 166.612 34.4084 163.903 32.2187C163.113 31.581 162.345 30.9432 162.217 30.8156C161.172 29.8164 150.42 21.908 148.671 20.845C148.372 20.675 147.305 19.9521 144.383 17.975C142.74 16.8695 140.777 15.6365 140.649 15.6365C140.585 15.6365 140.116 15.3601 139.625 15.02C139.135 14.7011 138.345 14.2121 137.876 13.957C136.745 13.3618 135.316 12.5114 134.249 11.8524C133.78 11.5547 133.012 11.087 132.543 10.8532C132.073 10.5981 131.305 10.1729 130.836 9.89651C130.004 9.4288 127.273 7.98317 124.543 6.5588C123.775 6.15488 123.007 5.75095 122.836 5.64466C122.665 5.53836 122.089 5.26199 121.556 5.00688C121.023 4.77303 120.447 4.4754 120.276 4.3691C119.337 3.81636 117.012 2.88095 116.564 2.88095C115.796 2.88095 115.455 4.19903 114.836 9.62014C114.687 11.0658 114.495 12.4051 114.431 12.6177C114.111 13.6169 113.599 26.3299 113.513 35.9391C113.385 48.9498 113.94 62.7045 114.772 66.4887C114.879 67.0414 114.921 67.5729 114.857 67.6792C114.601 68.1256 116.628 75.8427 117.076 76.1191C117.161 76.1829 117.311 76.4805 117.396 76.7994C117.588 77.586 120.532 82.3055 121.748 83.7724C122.644 84.8779 123.263 85.3456 124.756 85.9621C125.055 86.0897 125.631 86.3236 126.036 86.5149C126.441 86.685 127.401 87.0889 128.169 87.3865C129.705 88.0243 131.604 88.8747 132.479 89.3211C132.777 89.4912 133.14 89.6187 133.268 89.6187C133.396 89.6187 134.1 89.8951 134.825 90.2353C135.572 90.5754 136.361 90.8943 136.596 90.9581C137.108 91.0856 142.121 93.3179 142.932 93.7643C143.231 93.9344 143.593 94.0832 143.721 94.0832C143.849 94.0832 144.596 94.3808 145.385 94.7422C146.196 95.0824 147.135 95.5076 147.476 95.6564C147.839 95.8052 148.756 96.2304 149.545 96.613C150.335 96.9744 151.081 97.2721 151.188 97.2721C151.295 97.2721 151.849 97.5059 152.425 97.7823C152.98 98.0587 153.94 98.5051 154.516 98.7602C155.732 99.2704 156.095 99.4405 158.953 100.759C160.105 101.29 161.236 101.737 161.428 101.737C161.641 101.737 161.94 101.885 162.089 102.055C162.239 102.225 162.495 102.374 162.644 102.374C162.815 102.374 163.113 102.459 163.327 102.566C163.519 102.693 164.116 102.97 164.649 103.203C167.871 104.607 169.321 105.266 171.327 106.18C172.116 106.541 172.799 106.839 172.863 106.839C172.905 106.839 173.652 107.158 174.505 107.562C175.359 107.965 177.791 109.071 179.903 110.028C184.169 111.962 185.513 112.6 186.623 113.259C187.711 113.876 189.609 115.321 189.609 115.513C189.609 115.619 189.823 115.916 190.057 116.172C190.441 116.575 190.676 116.639 191.401 116.554C191.892 116.49 193.193 116.363 194.303 116.278ZM23.8492 114.322C23.8492 114.237 23.3586 113.684 22.7612 113.11C21.2252 111.601 18.6012 107.625 18.0892 105.988C17.9826 105.691 17.7052 104.925 17.4492 104.288C17.1932 103.65 16.8519 102.651 16.6812 102.055C16.2119 100.418 14.8892 94.0407 14.8892 93.4029C14.8892 93.084 14.7399 92.2761 14.5692 91.5958C14.3986 90.9368 14.2492 89.8951 14.2492 89.2999C14.2492 88.0668 13.9506 87.3653 13.6946 88.003C13.5026 88.4707 13.7799 98.9516 14.0572 101.737C14.3132 104.564 14.8466 107.2 15.2946 108.072C15.4012 108.263 15.8492 109.22 16.2972 110.198C16.7239 111.154 17.1506 111.941 17.2146 111.941C17.2999 111.941 17.5772 112.366 17.8759 112.898L18.4092 113.854L19.6892 113.876C20.3932 113.876 21.3106 114.024 21.7159 114.173C22.5479 114.492 23.8492 114.577 23.8492 114.322ZM104.063 85.6645C107.049 85.1543 109.055 84.6015 109.716 84.1126C110.399 83.6024 112.596 83.1772 114.687 83.1772C116.948 83.1559 118.783 83.5599 120.063 84.3464C120.34 84.5378 120.553 84.5378 120.703 84.389C120.852 84.2402 120.639 83.8787 120.02 83.241C118.313 81.4127 116.031 77.501 115.071 74.7373C114.516 73.1215 113.876 70.4429 113.876 69.7413C113.876 69.3799 113.791 68.9973 113.684 68.891C113.471 68.6571 113.151 65.4895 112.809 60.281C112.703 58.4739 112.511 56.2204 112.383 55.285C112.041 52.5001 111.892 34.5147 112.169 28.0732C112.575 18.379 113.279 8.59969 113.599 7.77058C113.684 7.60051 113.855 6.92021 114.004 6.28243C114.153 5.64466 114.431 4.64547 114.623 4.09273C115.028 3.00851 114.921 2.6471 114.345 3.02977C113.94 3.30614 112.148 4.19903 108.543 5.89977C99.3479 10.3004 98.4092 10.917 97.8972 12.8941C97.5346 14.3184 97.3426 15.679 97.0226 18.8254C96.8946 20.1647 96.7026 21.6954 96.5959 22.2269C96.4892 22.7584 96.3399 24.7567 96.2546 26.6913C96.1906 28.6259 95.9986 30.8156 95.8279 31.5597C95.5719 32.6439 95.5079 35.5139 95.4866 46.016C95.4652 60.3235 95.5719 64.7454 95.9346 65.6596C96.0626 65.9997 96.1692 66.9564 96.1906 67.7855C96.1906 68.6358 96.2759 70.0815 96.4039 71.0169C96.5106 71.9523 96.6812 73.4404 96.7879 74.3121C96.9799 75.9278 97.2999 77.501 97.7052 78.6702C97.8119 79.0316 97.9612 79.5418 98.0252 79.8395C98.0892 80.1371 98.3452 80.8599 98.6226 81.4339C98.8999 82.0292 99.2626 82.837 99.4332 83.241C99.9879 84.4527 100.735 85.6645 101.183 86.0259C101.524 86.3023 101.695 86.3448 102.036 86.1535C102.271 86.0259 103.188 85.8133 104.063 85.6645ZM16.7452 76.5656C20.1586 74.3971 31.4866 68.6571 39.6359 65.0005C40.1692 64.7667 41.7692 64.0438 43.2199 63.3848C44.6706 62.7258 45.9079 62.1943 45.9719 62.1943C46.0359 62.1943 46.3772 62.0667 46.7399 61.8967C47.1239 61.7266 48.0839 61.3014 48.8732 60.94C49.6839 60.5786 50.3879 60.281 50.4519 60.281C50.5159 60.281 50.8999 60.1321 51.3266 59.9408C51.7746 59.7495 52.4359 59.4731 52.8199 59.303C53.1826 59.133 53.8226 58.8566 54.2066 58.6865C55.4652 58.1338 61.3319 55.8165 61.5026 55.8165C61.7159 55.8165 65.5132 54.3071 65.7692 54.1158C65.8972 54.0307 66.2172 53.9032 66.5159 53.8394C66.8146 53.7756 67.5826 53.5205 68.2226 53.2654C68.8626 53.0103 69.6946 52.7127 70.0359 52.6064C70.3986 52.5001 70.8679 52.33 71.1026 52.2237C71.7852 51.9261 73.1292 51.4371 74.7292 50.9269C75.5612 50.6505 77.6092 49.9702 79.3159 49.3962C83.8812 47.8443 86.2706 47.1853 88.2759 46.9089C90.0466 46.675 90.4092 46.4199 90.4092 45.3357C90.4092 44.4641 89.9612 41.1901 89.5132 38.7028C89.3852 38.0013 89.2146 36.8958 89.1292 36.258C88.7879 33.473 88.3399 30.3054 87.6146 25.5221C87.4652 24.5867 87.2946 23.1623 87.2092 22.3332C86.9532 20.0372 86.4199 16.1042 86.1639 14.6798C85.7159 12.15 85.5239 11.2571 85.2892 10.343C85.0119 9.21621 85.2252 8.8548 85.9932 9.19495C86.5479 9.45006 87.2092 10.6406 87.2092 11.3847C87.2092 11.6398 87.3372 12.4051 87.5079 13.0641C87.7639 14.1484 88.0626 16.0404 88.7026 20.845C88.8306 21.7804 89.0652 23.6513 89.2572 24.9906C89.4279 26.3299 89.6626 28.0519 89.7692 28.8173C90.2386 32.5376 90.6439 35.4076 90.8359 36.3643C91.3266 38.9367 91.7319 42.0193 91.7746 43.5287C91.7746 44.4215 91.8599 45.2081 91.9239 45.2932C92.1586 45.5058 93.5452 44.8255 93.7799 44.4003C94.0146 43.9326 93.7372 39.7445 93.2892 37.1084C93.1186 36.1092 92.9266 34.8336 92.8626 34.2384C92.7986 33.6644 92.6066 32.325 92.4572 31.2621C92.2866 30.2204 92.0306 28.5409 91.9026 27.5417C91.7746 26.5425 91.5186 25.1181 91.3479 24.3528C91.1772 23.5875 91.0492 22.6733 91.0492 22.3119C91.0492 21.9505 90.9639 21.3765 90.8359 21.0364C90.7292 20.6962 90.5372 19.5695 90.4306 18.5065C90.1106 15.679 89.3852 11.6823 88.8946 10.2154C87.9559 7.45169 86.0359 6.6651 83.2412 7.89814C81.0012 8.87606 70.3559 14.0633 69.0759 14.7861C68.9052 14.8924 66.1746 16.2318 62.9959 17.7624C54.6546 21.8442 43.9026 27.0952 43.1559 27.4779C40.9799 28.6047 39.6146 29.2637 34.8359 31.581C31.9132 32.9841 29.3532 34.2384 29.1826 34.3447C29.0119 34.451 27.8599 35.025 26.6226 35.6202C23.8919 36.9595 21.5026 38.1501 21.0759 38.3839C20.9052 38.469 19.5186 39.1493 17.9826 39.8721C16.4679 40.5949 15.0599 41.2752 14.8892 41.3815C14.7186 41.4878 14.2279 41.7216 13.8226 41.8917C11.0066 43.1247 10.7719 43.3161 9.98255 44.868C9.25722 46.3349 9.23589 46.3987 9.27855 48.801C9.32122 51.3521 9.57722 54.0307 10.0892 57.0921C10.2599 58.0913 10.4946 59.5794 10.6226 60.3873C10.7506 61.2164 10.9426 62.2581 11.0492 62.7258C11.2412 63.6612 12.0092 67.6154 12.3292 69.3161C12.4359 69.9114 12.6066 70.7193 12.7346 71.1232C12.8412 71.5271 13.0972 72.6326 13.2892 73.568C13.5026 74.5034 13.7586 75.5451 13.8866 75.864C14.1426 76.5656 14.8466 77.501 15.1026 77.501C15.2092 77.501 15.9559 77.0758 16.7452 76.5656ZM186.879 50.608C186.985 50.4804 185.769 47.3128 185.769 47.0364C185.769 46.7388 184.809 44.6767 184.425 43.9113C183.657 42.3807 183.017 41.9767 181.993 42.3381C181.545 42.487 181.375 42.7421 181.161 43.5924C180.841 44.783 180.863 44.8042 182.228 46.1435C182.719 46.6113 183.871 47.823 184.788 48.8647C186.431 50.6505 186.644 50.8418 186.879 50.608ZM124.543 4.17777C124.543 3.96517 124.302 3.26149 124.073 2.91072C123.578 2.14751 123.028 1.6054 122.089 1.6054C121.471 1.6054 121.087 1.73295 120.831 2.00932C120.447 2.43451 120.532 2.88095 120.98 2.88095C121.129 2.88095 121.812 3.26362 122.516 3.71006C123.945 4.64547 124.543 4.79429 124.543 4.17777Z" fill="rgb(0,0,0)" fill-rule="nonzero" transform="matrix(1,0,0,-1,40.6975,229.74)" />
			<path id="矢量 371" d="M16.919 56.2734C16.599 55.7632 14.167 50.8523 13.8683 50.1295C13.6977 49.7255 13.399 48.9815 13.1643 48.45C12.951 47.9185 12.6737 47.302 12.567 47.0681C12.4817 46.8343 12.183 46.0264 11.9057 45.2611C11.6497 44.4958 11.351 43.7942 11.2443 43.6879C11.159 43.5604 11.0737 43.284 11.0737 43.0501C11.0737 42.795 10.9457 42.3698 10.7963 42.0722C10.4977 41.5195 9.49501 38.3731 8.72701 35.6944C8.47101 34.8228 8.19368 33.8874 8.06568 33.611C7.95901 33.3347 7.87368 32.9307 7.87368 32.6969C7.87368 32.4418 7.74568 31.9528 7.57501 31.5914C7.40435 31.2087 7.16968 30.4859 7.04168 29.9544C6.82835 28.9553 5.80435 25.1924 5.18568 23.1515C5.01502 22.5137 4.75902 21.5358 4.67368 20.983C4.56702 20.409 4.41768 19.8563 4.33235 19.7075C4.24702 19.5799 4.05502 18.8784 3.88435 18.1768C3.71368 17.454 3.45768 16.306 3.26568 15.6044C3.09502 14.9029 2.86035 13.8612 2.75368 13.2659C2.64702 12.6919 2.45502 11.9691 2.34835 11.6715C2.24169 11.3738 1.94302 10.1833 1.68702 9.01407C1.43102 7.84481 1.13235 6.67555 1.04702 6.42044C0.940353 6.16533 0.79102 5.44252 0.705687 4.826C0.620354 4.20948 0.492354 3.55044 0.40702 3.38037C0.321687 3.21029 0.172354 2.35992 0.0870208 1.50955C-0.0623125 0.0426638 -0.0409791 -0.0636324 0.321687 0.0214046C0.769687 0.106442 1.13235 0.978071 1.60169 3.06148C1.96435 4.67718 2.41235 6.52674 2.86035 8.1637C3.05235 8.86526 3.32968 10.0133 3.50035 10.7148C3.79902 12.0329 4.50302 14.9454 4.88702 16.4548C5.10035 17.2201 5.44168 18.6233 5.93235 20.6004C6.18835 21.5996 6.91368 24.2782 7.34035 25.7026C7.53235 26.3404 7.80968 27.4671 7.98035 28.1899C8.15101 28.9127 8.47101 30.0607 8.70568 30.741C8.94035 31.4213 9.17501 32.3355 9.26035 32.7819C9.34568 33.2071 9.49501 33.6323 9.60168 33.6961C9.70835 33.7598 9.79368 33.9937 9.79368 34.2063C9.79368 34.4401 9.92168 35.0354 10.0923 35.5244C10.263 36.0346 10.5403 37.0125 10.7537 37.7141C11.415 40.0738 11.7563 41.1155 12.0337 41.7533C12.183 42.1147 12.6097 43.2627 12.9937 44.3044C14.1243 47.4721 14.487 48.3437 16.5137 52.5955C17.9217 55.5506 18.0283 56.0183 17.495 56.3159C17.1963 56.4647 17.0257 56.4647 16.919 56.2734Z" fill="rgb(0,0,0)" fill-rule="nonzero" transform="matrix(1,0,0,-1,207.713,71.4326)" />
			<path id="矢量 372" d="M1.75319 16.5401C0.131854 16.0937 -0.188146 15.9024 0.0891875 15.5409C0.302521 15.2858 0.771854 15.2646 2.92652 15.3709C4.48385 15.4559 5.89185 15.4346 6.55319 15.2858C7.15052 15.1795 8.72919 14.9882 10.0732 14.8606C13.5292 14.5843 17.3478 14.0741 18.0305 13.8189C18.3718 13.6914 18.9265 13.5851 19.2892 13.5851C19.9078 13.5851 21.7638 13.2237 24.1532 12.6284C24.7932 12.4584 26.0945 12.182 27.0332 11.9694C27.9718 11.7781 29.0385 11.5442 29.3798 11.4167C29.7425 11.3104 30.5532 11.0765 31.1932 10.9277C31.8332 10.7789 32.8998 10.5025 33.5398 10.3112C34.6492 9.97102 35.1825 9.82221 37.8705 9.01436C38.4678 8.82302 39.3638 8.58917 39.8332 8.46162C40.3025 8.35532 40.8785 8.18525 41.1132 8.07895C41.3478 7.97265 41.7318 7.82384 41.9665 7.78132C42.2012 7.71754 43.3532 7.31362 44.5265 6.88843C45.6998 6.46325 46.9585 6.03806 47.2998 5.93177C48.0038 5.74043 49.1345 5.35777 49.9665 5.01762C50.9905 4.61369 55.8545 2.93421 57.5398 2.40273C58.4785 2.1051 59.9292 1.6374 60.7398 1.36103C61.5718 1.0634 62.6598 0.787028 63.1932 0.701991C63.7265 0.616954 64.2598 0.468139 64.4092 0.361843C64.7505 0.085473 66.8625 -0.10586 67.5452 0.0642137C68.3345 0.255547 68.2705 0.829547 67.4598 0.829547C66.4785 0.829547 61.9345 2.31769 54.1265 5.16643C52.9532 5.61288 51.1398 6.25065 50.0732 6.61206C49.0278 6.95221 47.8758 7.37739 47.5132 7.50495C46.6385 7.86636 45.8918 8.12147 42.0732 9.3545C37.0172 10.9702 34.3932 11.7568 31.0865 12.6284C30.3825 12.8198 29.3372 13.0961 28.7398 13.2662C28.1638 13.415 26.9052 13.6914 25.9665 13.8827C25.0278 14.0741 23.6625 14.3717 22.9372 14.5418C22.2118 14.7118 21.3585 14.8606 20.9958 14.8606C20.6545 14.8606 20.0998 14.9669 19.7585 15.0732C17.1132 15.9874 3.67319 17.0716 1.75319 16.5401Z" fill="rgb(0,0,0)" fill-rule="nonzero" transform="matrix(1,0,0,-1,137.887,77.1733)" />
		</g>
	</g>
</svg>
