<svg viewBox="0 0 268 230" xmlns="http://www.w3.org/2000/svg" xmlns:xlink="http://www.w3.org/1999/xlink" width="268.000000" height="230.000000" fill="none">
	<defs>
		<clipPath id="clipPath_3">
			<rect width="216.000000" height="230.000000" x="41.000000" y="0.000000" fill="rgb(255,255,255)" />
		</clipPath>
	</defs>
	<rect id="4" width="268.000000" height="230.000000" x="0.000000" y="0.000000" />
	<g id="4" clip-path="url(#clipPath_3)" customFrame="url(#clipPath_3)">
		<rect id="4" width="216.000000" height="230.000000" x="41.000000" y="0.000000" />
		<path id="矢量 373" d="M45.6226 171.755L42.4097 139.866L43.1969 119.011L47.7504 110.401L45.0907 107.318L44.2608 101.536L48.793 96.6249L56.4743 93.9037L71.1559 87.3559L94.7956 80.0214L116.265 75.4294L117.201 58.4433L124.521 31.5716L131.074 20.0491L136.309 20.0491L140.181 21.8561L143.798 10.6737L147.756 4.31723L156.118 1.48975L196.652 3.80701L221.015 8.6116L227.463 12.5658L230.569 21.4309L230.569 30.3811L237.867 30.7425L244.506 32.8684L253.464 33.5062L255.443 36.4825L254.294 42.0737L244.932 110.401L242.527 112.314L239.165 111.719L237.357 112.676L240.463 114.738L242.612 117.905L239.974 163.145L236.761 169.076L228.718 177.708L226.207 186.934L223.079 188.55L220.739 185.425L203.717 199.605L182.247 215.081L167.225 223.118L164.927 228.135L162.948 229.113L159.863 227.348L156.65 228.135L138.521 218.696L136.67 198.223L131.649 201.327L128.074 219.567L125.67 222.395L122.691 223.458L47.5163 186.19L46.9418 181.832L46.9418 172.669L45.6226 171.755Z" fill="rgb(255,255,255)" fill-rule="nonzero" />
		<path id="矢量 374" d="M139.926 21.3459L133.904 19.794L129.776 20.5806L125.755 31.4228L118.499 50.9175L115.924 75.2594L122.627 77.194L127.159 79.5537L129.117 84.1245L129.691 91.5227L127.904 98.0493L116.35 98.5383L95.7742 104.937L83.9864 106.914L69.2621 112.229L59.0062 123.412L53.6868 148.009L55.4103 150.772L52.8357 151.474L46.4736 174.753L46.4736 185.255L51.8782 188.763L123.84 223.606L127.116 221.268L135.968 179.749L136.67 156.959L141.734 143.48L138.202 139.824L136.67 133.042L138.564 127.089L156.288 115.291L183.779 101.748L210.504 96.1147L212.313 80.6805L215.589 62.44L225.228 35.5683L231.08 29.2543L229.356 16.52L225.675 10.5037L213.781 6.54945L188.311 3.27552L167.736 1.48975L151.628 2.1913L145.607 6.97463L139.926 21.3459Z" fill="rgb(1,89,188)" fill-rule="nonzero" />
		<path id="矢量 375" d="M232.803 29.5732L243.08 32.8897L247.655 33.0172L254.57 34.1652L254.996 40.6918L244.931 110.401L243.293 111.719L239.718 111.868L231.314 112.357L230.122 106.298L223.845 100.324L210.759 95.7746L213.185 75.0043L221.185 45.6027L228.696 30.7425L232.803 29.5732Z" fill="rgb(1,89,188)" fill-rule="nonzero" />
		<g id="组合 76">
			<path id="矢量 376" d="M202.988 197.719C201.669 197.548 201.501 197.687 200.203 198.367C199.032 199.005 197.926 199.43 194.947 200.365C194.585 200.493 193.415 200.578 192.351 200.578L190.394 200.578L190.394 203.937C190.394 206.212 190.287 207.615 190.096 208.252C189.947 208.763 189.649 209.762 189.436 210.463C189.245 211.165 188.989 212.037 188.862 212.377C188.755 212.738 188.585 213.312 188.479 213.652C188.393 214.014 188.01 214.97 187.606 215.778C186.691 217.734 184.457 219.966 182.521 220.902C180.967 221.646 177.265 222.9 176.648 222.9C176.435 222.9 175.818 223.028 175.286 223.198C174.754 223.368 173.861 223.623 173.265 223.75C172.69 223.899 171.627 224.154 170.924 224.324C168.775 224.835 163.158 225.579 157.626 226.089C156.392 226.195 154.924 226.387 154.328 226.493C153.753 226.62 152.455 226.769 151.455 226.833C150.455 226.897 148.987 227.046 148.157 227.152C144.583 227.641 142.242 227.832 138.093 228.002C133.944 228.194 131.518 228.342 124.22 228.874C119.794 229.193 114.389 229.32 114.006 229.087C113.836 229.002 113.155 228.853 112.517 228.768C111.262 228.619 109.027 227.981 108.219 227.535C106.942 226.812 104.772 224.856 103.984 223.687C103.027 222.305 101.027 218.414 101.027 217.947C101.027 217.798 100.899 217.5 100.729 217.266C100.58 217.033 100.389 216.607 100.325 216.31C100.261 216.012 100.027 215.247 99.7715 214.609C99.2183 213.163 98.4736 210.485 98.4736 209.932C98.4736 209.273 98.1544 209.273 96.6437 209.974C95.367 210.57 94.8989 210.655 92.9413 210.74C90.8561 210.825 90.6221 210.782 89.4943 210.251C87.4517 209.273 86.6431 208.146 84.4302 203.023C83.0472 199.813 81.8769 196.858 81.8769 196.581C81.8769 196.454 81.7492 196.028 81.579 195.646C81.2173 194.774 80.8343 193.647 80.6002 192.818C80.4938 192.478 80.1959 191.521 79.8981 190.692C79.4087 189.268 79.0257 188.014 78.3235 185.484C78.1533 184.846 77.8767 183.889 77.7064 183.358C77.4086 182.337 77.0256 180.658 76.4511 178.043C76.2596 177.171 76.0255 176.108 75.8978 175.705C75.7914 175.301 75.6212 174.301 75.5148 173.472C75.1318 170.602 74.6212 167.52 74.4297 166.882C74.1956 166.138 73.8126 161.737 73.6211 157.634L73.4722 154.764L71.6636 154.594C70.6635 154.509 69.5783 154.339 69.2379 154.233C68.8974 154.105 68.2591 154.02 67.8336 154.02C67.408 154.02 66.7697 153.935 66.4292 153.808C66.0888 153.701 65.2377 153.51 64.5355 153.404C63.8333 153.297 62.4077 153 61.3438 152.745C60.3012 152.511 59.0458 152.234 58.5777 152.171C58.1096 152.107 57.6202 151.958 57.4713 151.852C57.3436 151.745 56.6627 151.597 55.9818 151.533C55.3009 151.469 54.5349 151.278 54.2796 151.129C54.0243 150.959 53.5987 150.831 53.3434 150.831C53.0881 150.831 52.4497 150.682 51.8965 150.512C51.3646 150.364 50.5347 150.108 50.0666 150.002C49.2793 149.811 48.2793 149.513 45.0663 148.578C44.428 148.386 43.5556 148.11 43.1513 147.961C41.8959 147.515 39.0447 146.558 38.3638 146.367C38.0234 146.282 37.1936 145.984 36.5552 145.729C35.9169 145.474 35.1934 145.219 34.9594 145.155C34.7253 145.091 34.2572 144.921 33.8955 144.772C33.5551 144.624 32.8316 144.326 32.2997 144.135C31.7677 143.922 31.0656 143.646 30.7038 143.497C30.3634 143.348 29.2995 142.923 28.3633 142.54C27.4271 142.157 26.1929 141.626 25.5972 141.371C25.0227 141.094 24.0652 140.669 23.4694 140.435C22.3417 139.946 22.1927 139.861 19.3202 138.522C18.3202 138.076 16.9797 137.48 16.3413 137.225C15.703 136.97 14.9796 136.673 14.7455 136.588C13.8518 136.205 12.1283 135.546 10.5963 134.972C7.277 133.781 5.70244 132.718 4.08533 130.529C2.55333 128.488 1.95756 125.894 2.53206 123.747C3.31933 120.707 3.447 120.388 4.25556 119.601C5.19178 118.666 5.21306 118.517 4.63856 117.986C3.95767 117.369 2.21289 114.244 1.78733 112.883C1.57456 112.182 1.27667 111.225 1.10644 110.758C0.361722 108.504 0 103.784 0 96.0886C0 88.3503 0.553222 78.0608 1.12772 75.1908C1.29794 74.3404 1.44689 73.2562 1.44689 72.7672C1.44689 72.2783 1.57456 70.9602 1.74478 69.8334C1.915 68.728 2.17033 67.006 2.298 66.0068C2.42567 65.0076 2.61717 63.732 2.72356 63.1368C2.82994 62.5628 3.064 61.3085 3.23422 60.3731C3.59594 58.3322 4.17044 56.2063 4.44706 55.8874C4.57472 55.7386 4.51089 55.1433 4.29811 54.2929C4.04278 53.3363 3.93639 51.9119 3.91511 49.5308L3.89383 46.1294L4.65983 44.5349C5.48967 42.7917 6.65994 41.5799 8.14939 40.9208C9.42606 40.3681 14.4902 37.9658 14.8519 37.732C15.0221 37.6257 15.703 37.2855 16.3413 36.9666C16.9797 36.669 18.8947 35.7336 20.5969 34.9257C23.5971 33.4801 25.278 32.6723 28.3633 31.1203C29.1931 30.6951 32.8316 28.9094 36.4488 27.1236C40.0873 25.3166 43.1939 23.7859 43.3641 23.6796C43.5343 23.5733 43.8322 23.4245 44.0024 23.3607C44.4918 23.1481 45.9813 22.4253 46.343 22.2127C46.5132 22.1064 51.0667 19.8742 56.4499 17.2168C61.8332 14.5806 66.5356 12.2634 66.8761 12.0933C67.2378 11.902 67.7484 11.6256 68.0463 11.4768C68.3442 11.328 70.5997 10.2012 73.0466 8.96818C80.5789 5.24781 81.6003 4.95018 83.7068 5.86433C84.7919 6.33203 86.3452 7.65011 86.3452 8.09655C86.3452 8.22411 86.4729 8.45796 86.6431 8.58551C86.7921 8.71307 86.9836 9.09574 87.0687 9.41462C87.1325 9.73351 87.4304 10.8603 87.7283 11.902C88.0049 12.9649 88.2602 14.0279 88.2602 14.2617C88.2602 14.5168 88.3879 15.1971 88.5581 15.7499C88.8986 16.8766 89.2816 18.5774 89.5582 20.0868C90.0263 22.7442 90.4093 24.5087 90.6008 25.0614C90.7072 25.4016 90.8136 26.2307 90.8136 26.8897C90.8136 28.718 91.1115 28.8668 92.8988 27.9102L94.3244 27.1661L94.4733 24.1048C94.5584 22.4253 94.7287 20.512 94.8351 19.8742C94.9414 19.2364 95.1117 17.8971 95.1968 16.8979C95.2606 15.8987 95.4734 14.772 95.6223 14.368C95.7926 13.9854 95.9202 13.3901 95.9202 13.05C95.9202 12.1146 96.8352 10.2863 97.7501 9.41462C98.6225 8.58551 99.3885 8.11781 102.197 6.7147C103.133 6.22574 104.325 5.63048 104.857 5.33285C105.389 5.05648 106.729 4.39744 107.836 3.86596C108.942 3.33448 110.964 2.37781 112.304 1.71877C114.219 0.783364 114.964 0.528253 115.751 0.528253C116.304 0.528253 116.815 0.61329 116.879 0.740846C116.943 0.847142 117.241 0.953438 117.517 0.953438C117.794 0.953438 118.092 1.05973 118.156 1.16603C118.368 1.50618 118.836 1.42114 119.475 0.889661C120.326 0.188105 121.794 -0.173302 122.709 0.0818087C123.603 0.358179 125.049 1.84633 125.22 2.67544C125.284 3.01559 125.475 3.39825 125.624 3.52581C125.794 3.65336 125.922 4.01477 125.922 4.33366C125.943 5.12025 126.475 5.65173 127.943 6.39581C129.114 6.99107 130.348 7.65011 133.369 9.30833C134.007 9.64848 134.944 10.2225 135.454 10.5414C135.965 10.8815 136.412 11.1579 136.497 11.1579C136.561 11.1579 137.029 11.4555 137.561 11.7957C138.072 12.1571 138.561 12.4334 138.646 12.4334C138.752 12.4334 139.476 12.8586 140.263 13.3901C141.072 13.9216 141.774 14.3468 141.816 14.3468C141.902 14.3468 144.348 15.8987 145.923 16.9617C146.455 17.3231 147.646 18.1309 148.583 18.7687C150.54 20.0655 150.391 19.9592 153.54 22.2765C154.86 23.2331 156.711 24.5937 157.69 25.2953C159.69 26.7622 159.668 26.7409 160.434 27.3787C160.732 27.6338 161.732 28.4204 162.626 29.122C163.52 29.8235 164.754 30.8227 165.371 31.3542C165.988 31.8857 166.775 32.5447 167.116 32.8211C167.882 33.4589 172.286 37.3068 172.733 37.732C172.924 37.902 173.967 38.8587 175.052 39.8579C177.35 41.9413 177.372 41.9626 177.989 42.7066C178.648 43.472 178.989 43.4082 179.308 42.4515C179.457 42.0263 179.84 41.4098 180.138 41.0697C180.627 40.5594 180.84 40.4957 182.01 40.4957C183.244 40.4957 183.372 40.5382 184.159 41.3035C184.925 42.0689 185.712 43.3869 185.989 44.4286C186.053 44.6625 186.33 45.4916 186.627 46.2569C186.925 47.0223 187.223 48.0427 187.308 48.5317C187.393 49.0206 187.542 49.4671 187.649 49.5521C187.755 49.6159 187.84 50.0836 187.84 50.5938C187.84 51.8906 188.053 52.3371 189.457 53.7827C190.117 54.4843 191.543 55.9724 192.628 57.0779C198.968 63.6683 198.99 63.7533 199.841 72.8097C200.011 74.5105 200.288 77.3167 200.479 79.06C200.671 80.8032 200.756 82.2914 200.713 82.3977C200.649 82.4827 200.735 83.3118 200.905 84.226C201.394 86.8409 201.756 95.1745 201.777 103.955L201.777 112.033L201.224 113.202C200.671 114.393 198.883 116.391 198.394 116.391C198.075 116.391 197.288 117.199 197.458 117.369C197.585 117.497 199.458 117.072 200.032 116.774C201.011 116.264 203.586 117.964 203.947 119.368C204.011 119.665 204.139 120.005 204.224 120.112C204.309 120.239 204.437 120.707 204.501 121.175C204.99 124.852 205.139 125.809 205.416 127.127C205.884 129.423 206.416 133.058 206.99 138.076C207.097 139.075 207.288 140.223 207.395 140.627C207.501 141.031 207.714 142.37 207.841 143.603C208.224 147.175 208.99 152.702 209.203 153.489C209.288 153.722 209.437 154.87 209.565 156.04C209.693 157.209 209.82 158.463 209.884 158.803C210.118 160.228 210.82 165.564 211.246 169.008C211.373 170.071 211.565 171.346 211.671 171.878C211.799 172.409 211.927 173.409 212.012 174.11C212.076 174.812 212.246 176.066 212.416 176.874C212.586 177.703 212.82 179.234 212.948 180.275C213.054 181.338 213.31 183.188 213.48 184.421C213.671 185.654 213.906 187.567 214.012 188.673C214.14 189.778 214.331 190.969 214.437 191.309C215.118 193.328 214.288 195.667 212.544 196.602C211.629 197.113 211.161 197.198 209.075 197.304M124.326 227.365C125.858 227.258 128.816 227.046 130.943 226.876C133.071 226.706 135.454 226.62 136.242 226.684C137.135 226.748 138.412 226.663 139.625 226.45C140.689 226.259 143.093 226.004 144.965 225.898C148.583 225.685 151.328 225.409 153.583 225.047C154.796 224.856 157.179 224.558 160.073 224.261C163.541 223.878 170.584 222.666 174.116 221.837C176.584 221.263 179.755 220.328 180.393 220.009C180.691 219.86 181.308 219.562 181.776 219.371C182.776 218.925 183.627 218.329 184.415 217.564C185.734 216.246 185.904 215.863 187.713 210.145C188.351 208.167 188.755 204.681 188.649 202.087L188.585 200.493L187.351 199.876C186.521 199.451 185.798 198.856 185.159 198.069C184.117 196.794 181.691 191.989 180.499 188.885C180.308 188.354 180.01 187.652 179.84 187.333C179.67 186.993 179.542 186.632 179.542 186.504C179.542 186.398 179.414 185.994 179.265 185.633C178.882 184.718 178.478 183.613 178.265 182.826C178.159 182.486 177.882 181.657 177.648 181.019C176.925 179.149 175.584 175.003 174.754 172.09C174.605 171.559 174.329 170.645 174.137 170.05C173.946 169.433 173.797 168.732 173.797 168.455C173.776 168.179 173.648 167.711 173.478 167.413C173.307 167.116 173.18 166.627 173.159 166.329C173.159 166.01 173.031 165.288 172.861 164.735C172.52 163.544 172.159 162.014 171.882 160.547C171.776 159.994 171.605 159.229 171.478 158.846C171.244 158.123 170.903 156.337 170.605 154.445C170.52 153.808 170.329 152.66 170.222 151.894C169.818 149.471 169.329 145.665 169.222 144.135C169.158 143.327 169.052 142.264 169.009 141.796C168.967 141.328 168.839 139.691 168.712 138.161C168.456 134.504 168.435 134.462 166.243 134.44C163.732 134.419 160.307 133.803 156.839 132.74C156.456 132.612 155.689 132.442 155.136 132.357C152.881 131.974 145.178 129.806 142.412 128.785C141.944 128.594 141.221 128.339 140.816 128.19C139.391 127.659 136.667 126.574 136.029 126.277C135.688 126.128 134.348 125.533 133.05 124.959C130.901 124.023 128.028 122.599 123.518 120.239L121.751 119.325L120.837 119.75C120.347 119.984 119.645 120.26 119.262 120.345C118.9 120.409 118.453 120.558 118.262 120.643C118.092 120.749 116.517 121.26 114.751 121.812C109.602 123.428 106.985 124.363 104.963 125.341C104.261 125.682 103.623 125.958 103.538 125.958C103.346 125.958 99.1332 128.02 98.3672 128.509C98.0267 128.722 96.5798 129.487 95.1755 130.188C92.4732 131.549 90.3029 132.336 89.1752 132.336C88.0049 132.336 87.4091 132.676 87.4091 133.356C87.4091 133.675 87.5581 134.143 87.7283 134.377C88.2602 135.036 88.8986 136.588 89.0262 137.523C89.1113 138.012 89.2603 138.501 89.3667 138.65C89.6007 138.947 89.4731 141.35 89.1539 142.774C88.9198 143.773 88.6858 144.368 87.6006 146.728C87.0899 147.812 86.9836 148.344 86.9836 149.641C86.9836 150.512 87.0687 151.448 87.1963 151.724C87.3027 152 87.4942 153.021 87.6006 154.02C87.8134 155.806 88.09 157.379 88.4943 159.016C88.6219 159.484 88.7922 160.292 88.8986 160.823C89.0262 161.355 89.1964 161.971 89.3028 162.205C90.9838 165.798 91.0689 166.053 91.0051 167.095C90.8987 168.753 91.0263 171.687 91.2391 172.728C91.3455 173.26 91.537 174.408 91.6647 175.279C92.0902 177.894 92.4732 180.02 92.7073 180.913C92.8137 181.381 93.0477 182.337 93.2179 183.039C93.7286 185.122 94.0478 186.377 94.3244 187.397C94.4733 187.929 94.6648 188.8 94.7287 189.353C94.8138 189.906 94.9627 190.416 95.0904 190.48C95.1968 190.565 95.2819 190.905 95.2819 191.245C95.2819 191.585 95.4308 192.223 95.6011 192.648C95.7713 193.052 95.9202 193.669 95.9202 194.009C95.9202 194.349 96.0479 194.923 96.2181 195.306C96.3883 195.688 96.6224 196.581 96.7288 197.283C96.8564 197.984 97.0479 198.941 97.1543 199.409C97.8778 202.406 98.2182 203.746 99.0055 206.424C99.3247 207.487 99.6438 208.678 99.7502 209.082C99.8353 209.486 100.048 210.166 100.176 210.57C100.75 212.185 100.984 212.866 101.474 214.354C101.75 215.226 102.048 215.97 102.133 216.033C102.24 216.076 102.304 216.31 102.304 216.565C102.304 216.799 102.431 217.245 102.601 217.543C102.75 217.862 103.261 218.925 103.729 219.924C105.006 222.624 106.836 224.877 108.261 225.515C108.432 225.6 108.878 225.855 109.24 226.068C110.091 226.578 112.198 227.152 114.006 227.365C115.9 227.577 120.985 227.577 124.326 227.365ZM94.4308 208.89C95.9415 208.635 97.2394 208.146 97.4948 207.742C97.6437 207.53 97.6224 207.232 97.4735 206.913C96.7926 205.531 95.2606 199.557 94.6648 195.965C94.5584 195.369 94.4095 194.753 94.3244 194.625C94.2393 194.498 94.0265 193.754 93.8563 192.967C93.6861 192.18 93.4094 190.969 93.2392 190.267C93.069 189.566 92.8349 188.609 92.7286 188.141C92.3243 186.419 91.8987 184.718 91.6859 183.996C91.5583 183.592 91.4519 182.933 91.4519 182.55C91.4519 182.167 91.3455 181.657 91.2391 181.445C90.9838 180.977 90.4518 178.575 90.1752 176.661C90.0688 175.96 89.8773 175.088 89.7497 174.748C89.622 174.386 89.4518 172.346 89.3879 170.177C89.3028 166.606 89.239 166.138 88.7709 165.117C88.4943 164.501 88.2602 163.948 88.2602 163.884C88.2602 163.821 88.1326 163.459 87.9623 163.098C87.4942 162.014 87.0261 160.419 86.6857 158.591C86.5154 157.655 86.2601 156.359 86.1537 155.721C86.0261 155.083 85.8558 153.85 85.792 153.021C85.7069 152.171 85.5579 151.469 85.4516 151.469C85.3239 151.469 84.8771 151.745 84.4515 152.086C82.7067 153.446 79.2172 154.658 77.0043 154.658C75.9617 154.658 75.451 154.743 75.3659 154.934C75.0254 155.848 76.2808 168.902 77.1745 173.472C77.7277 176.257 78.0894 177.979 78.3661 179C78.515 179.595 78.7703 180.552 78.898 181.126C79.2172 182.593 79.4512 183.485 79.8555 184.846C80.0683 185.484 80.3449 186.504 80.4938 187.078C80.7704 188.205 82.2599 192.669 83.3451 195.646C83.7068 196.624 84.1323 197.814 84.3026 198.303C84.4728 198.792 84.8558 199.77 85.1537 200.45C85.4516 201.131 85.7069 201.811 85.7069 201.96C85.7069 202.109 85.8558 202.342 86.0261 202.491C86.1963 202.64 86.3452 202.895 86.3452 203.065C86.3452 203.363 86.8559 204.596 87.5793 206.105C88.09 207.126 89.8773 208.869 90.4518 208.869C90.7072 208.869 91.0689 208.975 91.2391 209.082C91.5583 209.315 92.303 209.273 94.4308 208.89ZM194.5 198.707C197.011 198.112 201.075 196.198 202.181 195.072C203.033 194.2 204.075 192.18 204.288 191.011C204.373 190.607 204.331 189.608 204.203 188.779C204.075 187.971 203.905 186.759 203.799 186.122C203.522 184.293 203.16 182.104 202.841 180.488C202.671 179.68 202.394 178.277 202.224 177.405C202.054 176.534 201.756 174.897 201.564 173.791C201.373 172.686 201.118 171.389 201.011 170.921C200.883 170.454 200.692 169.454 200.586 168.689C200.479 167.924 200.309 167.158 200.245 166.988C200.16 166.818 199.99 166.01 199.841 165.181C199.692 164.373 199.415 162.928 199.224 161.992C199.054 161.057 198.798 159.803 198.713 159.186C198.607 158.57 198.415 157.762 198.309 157.379C198.181 156.996 198.011 156.252 197.947 155.721C197.862 155.189 197.734 154.424 197.628 154.02C197.33 152.745 196.394 148.046 196.139 146.579C196.053 146.048 195.883 145.198 195.756 144.666C195.628 144.135 195.373 142.987 195.202 142.115C195.011 141.243 194.713 139.755 194.521 138.82C194.33 137.884 194.053 136.651 193.904 136.056C193.755 135.482 193.564 134.568 193.5 134.036C193.415 133.505 193.266 132.803 193.16 132.442C192.734 131.103 191.436 124.831 191.117 122.556C190.947 121.366 190.691 120.856 190.266 120.856C189.989 120.856 189.947 121.026 190.011 121.664C190.181 122.982 188.585 125.575 186.308 127.659C184.223 129.593 180.202 131.762 176.563 132.931C173.456 133.93 172.946 134.058 171.456 134.206C169.903 134.377 170.009 134.143 170.392 136.588C170.499 137.353 170.69 139.224 170.818 140.733C170.946 142.264 171.137 144.687 171.244 146.154C171.371 147.621 171.563 149.088 171.669 149.428C171.797 149.768 171.882 150.321 171.882 150.64C171.882 151.809 173.605 160.674 174.137 162.205C174.308 162.694 174.435 163.289 174.435 163.587C174.435 164.076 174.776 165.543 175.393 167.732C175.563 168.328 175.84 169.369 176.052 170.071C176.457 171.602 176.946 173.196 177.308 174.216C177.457 174.62 177.627 175.322 177.712 175.79C177.797 176.236 177.946 176.768 178.052 176.959C178.138 177.15 178.393 177.788 178.584 178.362C178.776 178.957 179.116 179.914 179.329 180.488C179.563 181.083 179.989 182.274 180.287 183.145C180.606 184.017 181.116 185.42 181.457 186.228C185.564 196.432 186.627 198.048 189.649 198.835C190.649 199.09 193.075 199.026 194.5 198.707ZM208.118 195.88C208.671 195.773 209.629 195.688 210.203 195.688C211.331 195.688 212.182 195.369 211.99 195.029C211.905 194.923 211.395 194.838 210.82 194.838C208.884 194.838 206.799 193.775 206.331 192.563C206.054 191.798 205.735 191.989 205.182 193.222C204.905 193.86 204.373 194.71 204.011 195.136C203.65 195.539 203.394 195.986 203.479 196.092C203.607 196.326 206.48 196.198 208.118 195.88ZM212.501 193.796C212.842 193.456 212.884 193.18 212.799 191.947C212.735 191.139 212.608 189.948 212.501 189.31C212.395 188.673 212.203 187.333 212.097 186.334C211.969 185.335 211.82 184.357 211.756 184.144C211.693 183.932 211.544 183.06 211.459 182.231C210.969 178.234 210.778 176.81 210.586 175.917C210.224 174.216 209.948 172.218 209.522 168.37C209.395 167.201 209.203 166.159 209.097 166.032C208.99 165.925 208.905 165.351 208.884 164.756C208.884 164.182 208.778 163.162 208.671 162.524C208.565 161.886 208.331 160.249 208.161 158.91C207.841 156.401 207.416 153.276 206.863 149.343C206.692 148.11 206.458 146.452 206.352 145.623C206.245 144.815 206.097 143.794 206.033 143.39C205.969 142.987 205.82 141.987 205.714 141.158C205.245 137.587 204.884 134.972 204.777 134.568C204.714 134.334 204.565 133.292 204.437 132.229C204.309 131.188 204.096 129.508 203.926 128.509C203.756 127.51 203.522 125.894 203.394 124.895C203.16 123.279 202.99 122.28 202.607 120.388C202.437 119.623 201.181 118.305 200.628 118.305C200.373 118.305 199.862 118.453 199.5 118.645C198.671 119.07 196.905 118.942 195.224 118.347C194.309 118.007 193.862 117.943 193.458 118.092C193.16 118.22 192.606 118.305 192.202 118.305C191.798 118.305 191.436 118.39 191.372 118.475C191.309 118.581 191.457 119.176 191.713 119.814C191.947 120.452 192.287 121.536 192.436 122.238C193.245 125.596 193.394 126.341 193.585 127.255C193.67 127.786 193.862 128.615 193.968 129.062C194.096 129.508 194.351 130.614 194.543 131.485C194.734 132.357 195.011 133.654 195.16 134.355C195.33 135.057 195.607 136.396 195.798 137.332C195.99 138.267 196.266 139.458 196.394 139.989C196.5 140.52 196.734 141.626 196.905 142.434C197.053 143.263 197.33 144.538 197.522 145.304C197.692 146.069 197.947 147.302 198.054 148.046C198.181 148.79 198.33 149.471 198.394 149.577C198.5 149.747 198.905 151.915 199.309 154.339C199.415 154.934 199.586 155.891 199.713 156.465C199.841 157.06 200.096 158.336 200.288 159.335C200.479 160.334 200.777 161.61 200.947 162.184C201.118 162.736 201.245 163.523 201.245 163.906C201.245 164.31 201.33 164.862 201.458 165.181C201.564 165.479 201.756 166.223 201.862 166.839C202.267 169.199 203.394 174.769 203.564 175.386C203.671 175.747 203.82 176.555 203.905 177.193C203.99 177.83 204.118 178.66 204.224 179C204.479 179.935 205.267 184.421 205.799 188.141C206.139 190.544 206.288 190.905 207.565 192.266C208.458 193.243 208.778 193.435 210.076 193.775C211.969 194.285 212.012 194.285 212.501 193.796ZM78.3661 152.957C80.2811 152.426 81.7067 151.915 81.9833 151.66C82.0897 151.554 82.3024 151.469 82.4514 151.469C82.6003 151.469 83.2599 151.129 83.8983 150.704C84.8771 150.045 85.0898 149.79 85.1749 149.152C85.2388 148.727 85.3452 148.131 85.3877 147.812C85.4516 147.494 85.8133 146.537 86.1963 145.686C87.1538 143.603 87.3453 143.072 87.6219 141.647C87.8985 140.265 87.8134 139.989 87.1112 139.989C86.8559 139.989 86.558 139.925 86.4729 139.84C86.3878 139.755 85.8133 139.564 85.2175 139.415C82.728 138.841 81.4726 138.522 79.6853 137.991C78.6639 137.693 77.6426 137.438 77.4086 137.438C77.1958 137.438 76.9617 137.353 76.8979 137.247C76.8341 137.162 76.3659 137.013 75.8766 136.928C75.3659 136.843 74.5361 136.651 74.0041 136.502C73.4722 136.332 72.4721 136.056 71.7699 135.843C71.0678 135.652 69.6847 135.248 68.6847 134.972C66.1739 134.228 64.344 133.696 62.8333 133.292C62.1311 133.101 61.1736 132.803 60.7055 132.655C60.2374 132.506 58.8543 132.059 57.6202 131.698C56.3861 131.315 55.152 130.933 54.8541 130.848C54.5562 130.741 53.5987 130.465 52.7263 130.21C51.8539 129.933 50.939 129.657 50.7049 129.572C50.4709 129.487 49.6198 129.189 48.7899 128.934C47.9814 128.7 47.109 128.403 46.8749 128.296C46.6409 128.211 45.4919 127.829 44.3216 127.467C43.1513 127.085 41.7257 126.617 41.1299 126.404C40.5554 126.17 39.5341 125.83 38.8958 125.639C38.2574 125.448 37.4276 125.15 37.0446 124.98C36.6829 124.81 36.2786 124.682 36.1509 124.682C36.0233 124.682 35.619 124.555 35.236 124.385C34.853 124.236 34.1508 123.981 33.6827 123.832C33.2146 123.683 32.555 123.449 32.1933 123.3C30.5762 122.62 27.3207 121.493 26.9589 121.493C26.7462 121.493 26.5334 121.408 26.4696 121.302C26.3844 121.196 25.9376 121.047 25.4269 120.962C24.9376 120.877 24.4482 120.728 24.3205 120.643C23.9162 120.324 21.5331 119.942 19.4266 119.856C17.3839 119.771 16.469 119.92 14.5327 120.643C14.2987 120.749 13.4901 121.026 12.7241 121.281C11.1921 121.812 10.0431 122.259 9.48989 122.556C9.27711 122.684 8.95794 122.769 8.76644 122.769C8.57494 122.769 8.12811 122.897 7.76639 123.067C7.38339 123.215 6.55356 123.577 5.91522 123.832C4.23428 124.512 4.00022 124.789 4.00022 125.958C4.00022 127.552 5.12794 129.678 6.76633 131.145C7.66 131.953 10.2772 133.292 11.5538 133.632C12.256 133.803 13.3624 134.185 14.3199 134.589C14.6817 134.717 15.1923 134.951 15.4902 135.057C15.7881 135.184 16.6605 135.567 17.4691 135.928C18.2563 136.29 18.9585 136.588 19.0223 136.588C19.0862 136.588 20.1288 137.076 21.3203 137.65C22.5119 138.246 23.5758 138.713 23.6609 138.713C23.746 138.713 24.3843 139.011 25.1078 139.351C25.8099 139.713 26.4696 139.989 26.5759 139.989C26.6823 139.989 27.3632 140.265 28.1079 140.606C30.1719 141.562 30.9592 141.902 31.1932 141.902C31.3634 141.902 32.5763 142.391 35.236 143.518C35.619 143.688 36.0658 143.816 36.2361 143.816C36.4276 143.816 36.7254 143.901 36.9382 144.028C37.3851 144.283 39.0234 144.879 39.7469 145.027C40.0448 145.091 40.3852 145.219 40.4916 145.304C40.6193 145.389 41.4278 145.665 42.3002 145.942C43.1726 146.197 44.2152 146.537 44.5982 146.707C44.9812 146.877 45.4493 147.005 45.6196 147.005C45.8111 147.005 46.8111 147.302 47.875 147.642C48.9176 148.004 50.0028 148.28 50.3007 148.28C50.5986 148.28 51.0454 148.386 51.3007 148.535C51.5561 148.663 52.1093 148.854 52.5136 148.939C53.7264 149.173 55.0669 149.513 58.4713 150.427C59.0033 150.576 59.8118 150.767 60.2799 150.852C60.7481 150.938 61.663 151.129 62.3013 151.256C62.9397 151.384 63.9184 151.575 64.4717 151.703C65.5994 151.958 66.9824 152.192 70.089 152.638C71.2593 152.808 72.4508 153.042 72.7487 153.148C73.6424 153.51 76.7489 153.404 78.3661 152.957ZM87.6432 138.884C87.707 138.139 87.5368 137.48 87.0261 136.524C86.4516 135.44 85.0898 134.249 84.4302 134.249C84.2387 134.249 83.9834 134.143 83.877 134.036C83.494 133.654 79.4087 132.655 76.983 132.336C75.4084 132.144 74.4297 131.953 72.5147 131.485C71.9827 131.336 71.1742 131.166 70.7061 131.06C70.2379 130.954 69.089 130.677 68.1527 130.422C67.2165 130.167 66.2164 129.891 65.9186 129.848C65.6207 129.785 65.3015 129.657 65.1738 129.572C65.0674 129.487 64.6206 129.338 64.2163 129.253C63.8121 129.189 63.0886 128.998 62.6205 128.828C62.1524 128.679 60.8119 128.254 59.6416 127.871C57.4287 127.191 56.0882 126.702 55.4286 126.362C54.4498 125.852 53.0242 125.511 51.4071 125.448C50.4496 125.384 48.9176 125.193 48.0452 125.022C43.9173 124.151 43.2152 123.981 42.513 123.726C42.1087 123.577 41.1512 123.279 40.3852 123.067C38.6192 122.599 35.2573 121.493 32.938 120.622C28.9803 119.155 28.3633 118.857 26.6611 117.56C24.5333 115.987 23.4481 115.711 19.2138 115.69L15.8094 115.668L14.2136 116.476C13.3412 116.923 12.5326 117.348 12.4049 117.433C12.0645 117.709 9.53244 118.666 7.87278 119.155C6.72378 119.516 6.17056 119.814 5.70244 120.367C4.83006 121.345 3.93639 123.13 4.23428 123.3C4.34067 123.386 5.08539 123.152 5.87267 122.769C6.65994 122.408 7.59617 121.961 7.93661 121.791C8.89411 121.366 13.6391 119.58 13.8944 119.58C14.0221 119.58 14.3412 119.453 14.6391 119.304C16.2562 118.453 20.1075 118.241 22.5119 118.836C25.7887 119.665 26.7249 119.963 29.6399 121.047C30.5762 121.387 32.1082 121.94 33.0444 122.259C33.9806 122.578 35.2998 123.067 36.002 123.343C36.6829 123.619 37.5978 123.938 38.0234 124.045C38.4489 124.151 39.8958 124.597 41.2363 125.065C42.5768 125.511 44.6833 126.213 45.9174 126.574C47.1516 126.957 48.4495 127.404 48.8325 127.574C49.1942 127.744 49.5985 127.871 49.7474 127.871C50.0453 127.871 52.0242 128.488 52.5561 128.743C52.7689 128.849 53.2796 129.019 53.7264 129.126C54.4711 129.317 55.3222 129.572 57.8756 130.337C59.0458 130.699 60.1523 131.018 62.8333 131.804C63.8972 132.123 65.4717 132.591 66.3441 132.867C67.2165 133.144 68.3229 133.441 68.7911 133.526C69.2592 133.59 69.7486 133.739 69.8549 133.845C70.0677 134.015 70.5997 134.164 73.153 134.78C73.7913 134.951 74.8552 135.227 75.4936 135.418C76.1319 135.61 77.0468 135.865 77.5149 135.971C77.9831 136.099 78.898 136.332 79.5363 136.502C80.1747 136.694 81.0045 136.928 81.3449 137.013C84.1111 137.757 85.3026 138.161 86.1324 138.586C87.2602 139.181 87.6219 139.245 87.6432 138.884ZM85.7069 133.207C85.7069 132.697 85.3239 132.421 85.026 132.718C84.8558 132.888 84.8771 133.058 85.0686 133.292C85.4303 133.739 85.7069 133.696 85.7069 133.207ZM171.031 132.655C171.52 132.484 172.158 132.336 172.435 132.336C172.861 132.336 176.776 131.145 177.946 130.677C181.01 129.402 184.117 127.51 185.627 126C186.606 125.022 188.138 123.067 188.606 122.216C188.968 121.578 188.564 121.175 186.968 120.643C186.223 120.388 185.415 120.112 185.18 120.005C184.946 119.899 183.755 119.474 182.521 119.07C181.287 118.645 180.095 118.198 179.861 118.092C179.627 117.964 178.712 117.646 177.84 117.369C176.265 116.859 175.563 116.604 174.329 116.051C173.988 115.902 172.499 115.307 171.031 114.733C169.563 114.138 167.839 113.436 167.201 113.16C166.562 112.862 165.605 112.458 165.073 112.267C163.626 111.672 163.371 111.565 161.881 110.906C161.115 110.545 159.541 109.865 158.37 109.376C156.072 108.398 154.647 107.76 152.562 106.803C151.838 106.463 151.179 106.187 151.115 106.187C151.051 106.187 149.817 105.634 148.413 104.932C146.987 104.252 145.157 103.381 144.327 102.998C142.646 102.211 134.603 98.2146 126.752 94.2603C121.049 91.3903 120.922 91.3266 118.9 90.71C116.666 90.0297 114.772 89.7534 113.964 89.9872C113.581 90.1148 112.687 90.2636 111.985 90.3274C111.283 90.4124 110.432 90.5612 110.07 90.6463C109.176 90.9226 107.368 91.4329 105.495 91.9431C104.623 92.1769 103.58 92.4746 103.218 92.6021C102.835 92.7297 102.07 92.8997 101.516 93.006C99.3247 93.41 98.3672 93.6651 98.1757 93.8564C98.048 93.984 97.7714 94.069 97.5586 94.069C97.3458 94.069 96.8777 94.2391 96.5373 94.4304C95.9415 94.7918 95.9202 94.8343 95.9202 96.5563C95.9202 98.172 96.1543 99.1287 96.7926 100.234C96.899 100.404 97.0692 100.744 97.1756 101C97.7076 102.211 101.112 105.018 103.474 106.166C103.708 106.272 104.899 106.995 106.134 107.76C110.027 110.162 112.325 111.608 112.836 111.927C113.091 112.097 114.006 112.671 114.836 113.202C115.687 113.734 116.623 114.329 116.943 114.52C117.262 114.733 117.666 114.967 117.836 115.052C118.007 115.137 118.921 115.69 119.858 116.285C121.496 117.327 122.368 117.816 124.858 119.049C125.496 119.389 126.177 119.729 126.347 119.814C128.518 120.962 134.837 124.045 135.05 124.045C135.199 124.045 135.582 124.172 135.88 124.342C136.199 124.491 136.837 124.81 137.305 125.001C137.774 125.214 138.412 125.511 138.731 125.682C139.029 125.83 139.412 125.958 139.561 125.958C139.71 125.958 140.604 126.256 141.54 126.617C143.923 127.552 144.561 127.765 146.029 128.19C146.732 128.403 147.54 128.658 147.838 128.785C148.136 128.892 148.753 129.083 149.221 129.168C150.455 129.423 153.923 130.295 155.583 130.762C156.136 130.933 156.924 131.06 157.285 131.06C157.668 131.06 158.158 131.209 158.392 131.379C158.605 131.549 158.988 131.677 159.222 131.698C159.456 131.698 160.264 131.847 161.03 132.017C165.286 132.995 169.329 133.25 171.031 132.655ZM89.5369 130.741C90.1752 130.55 91.0476 130.252 91.4519 130.061C91.8562 129.891 92.4945 129.614 92.8349 129.466C94.1329 128.934 95.8351 128.063 96.8777 127.446C97.4735 127.106 98.1331 126.723 98.3672 126.596C98.6012 126.489 98.9417 126.298 99.1119 126.192C99.2821 126.085 100.112 125.682 100.921 125.32C101.75 124.959 102.559 124.555 102.729 124.448C102.899 124.342 103.197 124.193 103.367 124.13C103.538 124.066 104.41 123.726 105.282 123.364C106.155 123.003 107.261 122.578 107.729 122.408C108.198 122.238 108.921 121.961 109.325 121.791C109.729 121.642 110.644 121.345 111.347 121.153C112.049 120.962 113.325 120.516 114.198 120.197C115.049 119.856 115.9 119.58 116.07 119.58C116.241 119.58 116.815 119.453 117.368 119.282C117.921 119.112 118.73 118.921 119.177 118.836C120.475 118.623 120.198 118.113 118.241 117.135C117.283 116.668 115.9 115.881 115.134 115.392C114.368 114.882 113.73 114.478 113.687 114.478C113.645 114.478 113.24 114.223 112.794 113.925C112.347 113.628 111.793 113.287 111.559 113.181C111.325 113.075 110.41 112.501 109.538 111.927C107.495 110.587 103.24 107.973 101.814 107.165C98.1969 105.166 95.367 102.084 94.4521 99.1712C93.7712 97.0028 94.1967 92.7509 95.3457 90.4549C96.1756 88.7754 96.7926 88.0526 98.0906 87.2023C98.6651 86.8621 99.1119 86.4157 99.1119 86.2669C99.1119 86.0968 98.8778 85.6503 98.5799 85.2677C96.7075 82.8229 94.6436 76.6577 94.6436 73.5538C94.6436 73.1074 94.5159 72.257 94.3457 71.6617C93.8563 69.9823 93.4094 68.1752 93.0477 66.432C92.8562 65.5603 92.6009 64.4123 92.4732 63.8809C92.3668 63.3494 92.1753 62.4565 92.0902 61.8612C91.6647 59.4164 90.8348 55.1858 90.6008 54.4205C90.4944 54.0803 90.3029 53.0386 90.1965 52.1032C90.0688 51.1891 89.8348 50.1899 89.6858 49.8923C89.3667 49.212 88.2177 48.8506 87.4729 49.1907C87.1963 49.3183 86.7282 49.4246 86.4516 49.4246C86.1537 49.4246 85.5579 49.5521 85.1324 49.7222C84.6856 49.871 83.7493 50.1686 83.0472 50.3812C82.345 50.5726 81.4301 50.8702 81.0258 51.019C80.6215 51.1678 79.9406 51.4017 79.5363 51.5505C79.1321 51.678 78.5576 51.8481 78.2597 51.9119C77.9618 51.9757 77.6213 52.1245 77.4724 52.2308C77.3234 52.3583 76.8979 52.5284 76.5149 52.6134C76.1319 52.7197 74.8552 53.1449 73.6849 53.5701C72.5147 53.9953 71.1742 54.463 70.7061 54.6118C67.5144 55.696 65.6207 56.4188 64.8121 56.8653C64.5993 56.9929 64.3014 57.0779 64.1312 57.0779C63.9823 57.0779 63.3865 57.2692 62.812 57.5243C61.4289 58.0983 61.0672 58.2471 60.0672 58.6298C58.599 59.1826 56.1095 60.1817 53.6838 61.2022C52.4072 61.7337 51.2794 62.1801 51.1943 62.1801C51.0879 62.1801 50.4283 62.4565 49.7049 62.7966C48.9602 63.1155 47.5133 63.7533 46.4494 64.1997C45.4068 64.6249 44.4493 65.0714 44.3429 65.1777C44.2152 65.284 44.0024 65.369 43.8535 65.369C43.7046 65.369 42.9811 65.6454 42.2364 65.9855C41.5129 66.3257 40.4491 66.8146 39.8533 67.0697C35.8956 68.7917 24.6184 74.2341 20.4905 76.4238C17.7882 77.8482 14.9157 79.5914 14.2136 80.2505C13.5965 80.8245 13.5752 80.9308 13.5965 82.5252C13.5965 83.4394 13.6816 84.6724 13.8093 85.2464C13.9157 85.8417 14.0859 86.8409 14.1923 87.4786C14.5753 89.8597 15.4264 93.9627 15.8307 95.4509C16.2562 96.9815 16.7882 98.7248 17.0861 99.7027C17.235 100.17 17.5329 101.127 17.7457 101.829C18.3414 103.87 19.916 107.356 20.7246 108.462C21.0012 108.823 21.2352 109.206 21.2352 109.269C21.2352 109.567 23.6183 112.543 24.8099 113.734C27.8313 116.731 29.9378 117.922 35.9169 120.005C40.2788 121.515 46.0877 122.96 50.5347 123.641C52.5987 123.96 53.7902 123.747 56.4499 122.663C58.3862 121.855 63.9397 119.027 64.4504 118.602C64.6206 118.432 64.8547 118.305 64.9611 118.305C65.0462 118.305 65.8334 117.879 66.7058 117.348C67.5569 116.816 68.3229 116.391 68.3868 116.391C68.4719 116.391 69.3443 115.902 70.3656 115.286C72.3019 114.095 76.6213 111.927 77.0043 111.927C77.132 111.927 77.4937 111.778 77.7916 111.629C79.2597 110.821 82.0897 109.865 85.9835 108.865C87.1325 108.568 88.1538 108.27 88.2602 108.206C88.3453 108.143 88.9837 108.015 89.6858 107.888C90.3667 107.781 91.6859 107.547 92.6222 107.356C95.7287 106.74 96.516 106.654 97.6437 106.782C99.2396 106.995 99.1544 107.335 97.4735 107.632C96.6649 107.781 95.3032 108.036 94.4308 108.206C93.5584 108.376 92.1541 108.653 91.3242 108.802C90.4944 108.972 89.7071 109.163 89.5794 109.248C89.4518 109.312 88.9411 109.461 88.4304 109.588C86.7069 109.95 85.6005 110.226 85.1749 110.417C84.9409 110.524 84.0898 110.821 83.2599 111.098C82.4514 111.353 81.6854 111.629 81.5577 111.714C81.4513 111.799 81.0258 111.948 80.6428 112.033C79.9406 112.182 75.1318 114.329 73.4722 115.222C73.0041 115.477 72.0466 116.009 71.3444 116.391C70.6422 116.774 69.9188 117.22 69.7273 117.369C69.5571 117.539 69.3443 117.667 69.2592 117.667C69.1741 117.667 68.3229 118.134 67.3654 118.708C65.5781 119.75 61.9183 121.706 59.7267 122.79C59.0671 123.13 57.8968 123.598 57.1096 123.853C56.3223 124.108 55.7265 124.427 55.7691 124.555C55.8754 124.852 56.5989 125.214 58.0458 125.618C58.6841 125.809 59.7906 126.149 60.4927 126.362C61.1949 126.574 62.6418 127.021 63.6844 127.318C64.7483 127.637 65.8973 127.999 66.2377 128.126C66.5994 128.233 67.2591 128.424 67.7272 128.509C68.7272 128.722 70.2167 129.104 71.1742 129.381C71.9189 129.614 72.8126 129.785 76.4511 130.444C80.4087 131.145 81.4513 131.251 84.9622 131.166C87.3666 131.124 88.7071 130.996 89.5369 130.741ZM188.989 120.048C189.159 119.771 188.5 117.624 188.117 117.157C187.096 115.924 185.819 115.031 183.478 113.861C182.053 113.139 180.819 112.565 180.755 112.565C180.691 112.565 179.882 112.224 178.967 111.799C178.052 111.374 176.776 110.8 176.137 110.502C175.499 110.226 174.818 109.907 174.627 109.801C174.435 109.716 173.329 109.227 172.18 108.738C171.031 108.249 169.541 107.611 168.903 107.314C168.265 107.016 167.456 106.654 167.094 106.506C166.754 106.357 165.818 105.953 165.03 105.57C164.243 105.209 163.541 104.911 163.498 104.911C163.435 104.911 162.775 104.635 162.03 104.273C161.264 103.933 160.583 103.636 160.52 103.636C160.477 103.636 159.498 103.21 158.392 102.679C157.264 102.148 156.307 101.722 156.264 101.722C156.2 101.722 155.221 101.297 154.072 100.766C150.923 99.2988 150.838 99.2563 149.008 98.5122C148.072 98.1295 147.115 97.6831 146.88 97.5343C146.646 97.3855 146.349 97.2579 146.2 97.2579C146.029 97.2579 145.263 96.9603 144.476 96.5989C143.689 96.2374 142.859 95.8548 142.625 95.7485C142.391 95.6634 141.455 95.2383 140.54 94.8343C139.646 94.4091 138.816 94.069 138.71 94.069C138.476 94.069 136.944 93.41 133.135 91.6667C132.497 91.3691 131.582 90.9864 131.114 90.8163C130.241 90.4762 124.305 87.8826 121.986 86.8196C121.751 86.7133 121.283 86.5432 120.922 86.4369C120.581 86.3306 119.624 85.9692 118.794 85.6503C117.453 85.1189 117.028 85.0763 114.432 85.0551C112.198 85.0338 111.389 85.1189 110.815 85.374C110.41 85.5653 109.644 85.8842 109.112 86.0968C108.58 86.2881 107.836 86.5857 107.453 86.7558C107.07 86.9259 106.538 87.0534 106.24 87.0534C105.963 87.0534 105.474 87.1597 105.133 87.2873C104.814 87.4149 103.772 87.5849 102.836 87.6912C99.6438 88.0101 98.5799 88.4991 97.5161 90.0297C96.9203 90.8801 96.133 92.8785 96.133 93.5163C96.133 93.8777 96.1968 93.8564 96.8564 93.3462C97.2607 93.0486 97.7501 92.7934 97.9416 92.7934C98.1331 92.7934 98.5587 92.6446 98.8566 92.4746C99.1757 92.3045 99.9204 92.0706 100.495 91.9431C102.367 91.5179 105.261 90.7738 107.41 90.136C108.049 89.9447 108.985 89.6896 109.495 89.6046C109.985 89.4983 110.602 89.2857 110.879 89.1369C111.198 88.9455 112.368 88.8605 114.645 88.8605C117.709 88.8605 118.07 88.903 119.56 89.4345C121.539 90.1573 123.581 91.0714 127.518 93.0486C135.497 97.0666 144.838 101.722 144.944 101.722C145.008 101.722 146.263 102.296 147.774 103.019C149.264 103.721 150.796 104.444 151.136 104.592C151.498 104.741 152.455 105.188 153.264 105.549C156.179 106.888 157.775 107.59 162.52 109.631C163.052 109.843 163.669 110.12 163.903 110.226C164.137 110.332 165.86 111.055 167.733 111.842C169.605 112.607 171.435 113.372 171.775 113.521C172.137 113.67 172.903 113.968 173.478 114.159C174.074 114.372 174.648 114.605 174.754 114.69C174.882 114.776 175.967 115.201 177.201 115.647C178.435 116.072 179.733 116.583 180.116 116.731C180.478 116.901 180.882 117.029 181.01 117.029C181.138 117.029 181.542 117.157 181.925 117.327C182.308 117.497 182.968 117.773 183.414 117.964C183.84 118.156 184.287 118.305 184.415 118.305C184.734 118.305 187.819 119.793 187.947 120.027C188.096 120.26 188.84 120.282 188.989 120.048ZM7.83022 117.433C8.36217 117.178 9.06433 116.838 9.3835 116.689C9.72394 116.519 10.1282 116.391 10.2984 116.391C10.4687 116.391 11.1496 116.115 11.8304 115.775C14.0221 114.69 15.2987 114.18 16.5116 113.946C16.8733 113.861 17.1924 113.776 17.1924 113.713C17.1924 113.67 16.7243 113.032 16.1286 112.309C15.5541 111.587 14.9583 110.651 14.8306 110.247C14.7029 109.822 14.5114 109.376 14.4051 109.248C14.1284 108.887 13.4263 106.569 13.0433 104.762C12.7879 103.551 12.6816 101.361 12.5964 96.1099C12.5113 89.3707 12.2986 86.0117 11.873 84.1834C11.5751 82.9292 11.6177 81.5898 11.9794 80.8883C12.2773 80.3143 12.256 80.2505 11.3411 79.1237C10.4474 78.0608 9.63883 76.275 9.10689 74.2979C9.0005 73.894 8.72389 72.8948 8.46856 72.0657C8.21322 71.2578 7.93661 70.2374 7.83022 69.8334C7.74511 69.4295 7.44722 68.324 7.19189 67.3886C6.63867 65.3903 6.48972 64.6674 6.02161 61.9675C5.65989 59.8416 5.51094 59.5014 5.00028 59.6928C4.76622 59.7778 4.63856 60.2455 4.57472 61.266C4.53217 62.0526 4.36194 63.4344 4.23428 64.306C4.08533 65.1777 3.93639 66.3257 3.89383 66.8571C3.55339 70.4074 3.29806 72.4483 3.02144 73.49C2.85122 74.1703 2.72356 75.2546 2.72356 75.8923C2.72356 76.5514 2.63844 77.4868 2.51078 77.9757C1.89372 80.5694 1.48944 99.9153 1.93628 105.443C2.31928 110.013 3.17039 112.82 5.23433 116.285C6.3195 118.092 6.36206 118.113 7.83022 117.433ZM194.011 116.242C196.011 116.094 196.479 115.945 197.777 115.009C198.926 114.202 199.862 112.458 200.075 110.758C200.352 108.462 200.054 95.9823 199.543 89.0731C199.415 87.4361 199.309 85.5228 199.309 84.8212C199.309 84.1197 199.203 82.9717 199.075 82.2701C198.862 80.9946 198.458 76.9553 198.054 72.0657C197.926 70.6626 197.734 69.2382 197.628 68.898C197.5 68.5579 197.415 67.9414 197.415 67.5374C197.415 66.2831 196.734 64.4761 195.798 63.2431C193.628 60.3731 179.074 45.768 173.776 41.1334C172.797 40.2831 171.18 38.8374 170.18 37.9233C168.222 36.1588 165.775 34.0754 163.477 32.2046C162.69 31.5668 161.924 30.929 161.796 30.8014C160.754 29.8023 150.03 21.8938 148.285 20.8308C148.093 20.7246 147.178 20.108 146.242 19.4703C145.306 18.8325 144.306 18.1522 144.008 17.9608C142.816 17.153 141.604 16.3664 141.221 16.1538C140.604 15.8137 137.369 13.9003 136.774 13.5177C136.476 13.3476 135.922 13.0074 135.518 12.7948C135.114 12.5823 134.412 12.1571 133.922 11.8382C133.433 11.5406 132.667 11.0728 132.199 10.839C131.731 10.5839 130.965 10.1587 130.497 9.88233C129.667 9.41462 126.943 7.969 124.22 6.54462C122.368 5.58796 122.262 5.52418 121.773 5.24781C119.858 4.18485 116.794 2.86677 116.241 2.86677C115.645 2.86677 115.496 3.29196 114.985 6.26825C113.857 12.8799 113.368 21.0434 113.219 35.7123C113.091 46.7246 113.474 57.8432 114.155 63.8809C114.326 65.454 114.496 67.176 114.538 67.7075C114.687 69.6634 116.198 75.3821 116.751 76.0837C116.858 76.2112 117.007 76.5514 117.092 76.8277C117.177 77.1041 117.836 78.2946 118.56 79.4426C119.262 80.6119 119.964 81.7599 120.113 82.015C120.262 82.2701 120.837 83.0354 121.39 83.737C122.496 85.0551 122.9 85.3314 125.922 86.5857C126.22 86.7133 126.901 87.0109 127.454 87.2448C128.007 87.4999 128.496 87.6912 128.582 87.6912C128.709 87.6912 131.199 88.8392 132.135 89.3069C132.433 89.477 132.795 89.6046 132.922 89.6046C133.05 89.6046 133.773 89.9022 134.497 90.2423C135.242 90.6037 135.986 90.8801 136.156 90.8801C136.327 90.8801 136.561 90.9652 136.688 91.0714C136.795 91.1777 138.072 91.773 139.54 92.3895C141.008 93.006 142.391 93.6226 142.625 93.7926C142.859 93.9414 143.157 94.069 143.306 94.069C143.455 94.069 144.221 94.3666 145.008 94.728C145.817 95.0682 146.753 95.4934 147.093 95.6422C147.455 95.791 148.37 96.2162 149.157 96.5989C149.945 96.9603 150.689 97.2579 150.796 97.2579C150.902 97.2579 151.455 97.4917 152.03 97.7681C152.583 98.0445 153.54 98.4909 154.115 98.746C154.711 98.9799 155.477 99.32 155.817 99.4901C156.179 99.6602 157.03 100.043 157.732 100.34C158.434 100.659 159.371 101.085 159.817 101.318C160.264 101.531 160.732 101.722 160.881 101.722C161.03 101.722 161.754 102.02 162.52 102.403C163.286 102.764 164.201 103.189 164.541 103.338C165.839 103.891 167.137 104.465 168.733 105.209C169.626 105.613 170.967 106.208 171.712 106.527C172.435 106.825 173.627 107.356 174.329 107.675C175.031 108.015 177.244 109.014 179.223 109.907C183.542 111.884 185.244 112.692 185.819 113.032C188.159 114.52 188.457 114.754 189.606 116.179C189.968 116.604 190.138 116.646 191.096 116.519C191.713 116.455 193.011 116.327 194.011 116.242ZM22.8311 114.265C22.8949 114.138 22.4481 113.5 21.8097 112.82C20.7458 111.693 19.2138 109.503 18.4266 107.994C17.235 105.719 16.7669 104.699 16.7669 104.422C16.7669 104.252 16.6392 103.827 16.469 103.487C16.1711 102.913 15.8307 101.807 15.1923 99.3838C15.0221 98.746 14.7242 97.6831 14.554 97.0453C14.3838 96.4075 14.1923 95.5997 14.1072 95.2595C13.8731 94.2178 13.5752 95.0469 13.5752 96.7264C13.5965 98.2358 14.0646 102.87 14.4051 104.805C14.7455 106.761 15.5115 108.993 16.2988 110.29C16.5541 110.736 16.7669 111.183 16.7669 111.268C16.7669 111.353 17.0435 111.82 17.3627 112.267C17.7031 112.713 18.0223 113.245 18.0861 113.436C18.1925 113.691 18.6181 113.798 19.8522 113.883C20.7458 113.946 21.5757 114.095 21.7246 114.244C22.0225 114.542 22.6608 114.542 22.8311 114.265ZM103.793 85.6503C106.112 85.2677 107.155 85.0126 108.474 84.5023C111.368 83.3756 111.964 83.2055 113.645 83.1417C115.432 83.0567 117.304 83.2693 118.262 83.6732C118.56 83.8008 119.113 84.0559 119.496 84.2472C120.219 84.5874 120.624 84.4598 120.283 83.9921C120.156 83.822 119.39 82.8016 118.56 81.6961C117.134 79.804 115.474 76.7427 114.772 74.7231C114.24 73.1286 113.581 70.4287 113.581 69.7697C113.581 69.4508 113.496 68.9831 113.368 68.7705C112.985 68.0689 112.198 58.1409 111.9 50.3812C111.645 44.1097 111.645 33.3951 111.879 27.4212C112.262 18.5136 113.006 8.47922 113.368 7.65011C113.474 7.41625 113.623 6.79974 113.708 6.26825C113.772 5.73677 114.028 4.84388 114.262 4.26988C114.687 3.18566 114.538 2.56914 113.964 3.01559C113.517 3.35574 110.687 4.75885 103.793 8.03277C101.623 9.07448 99.0481 10.6264 98.4523 11.3067C97.4309 12.4334 96.7713 16.6428 96.0479 26.7834C95.8777 29.2495 95.6223 31.6306 95.5159 32.0983C95.2393 33.1825 95.1755 39.3264 95.2606 51.3379C95.367 64.4336 95.367 64.4761 95.6436 65.9005C95.7925 66.602 96.0053 68.4303 96.133 69.9397C96.5373 74.9995 96.9203 77.4017 97.6437 79.4001C98.2821 81.1859 99.4098 83.822 99.8779 84.5449C100.155 84.9913 100.389 85.3952 100.389 85.4803C100.389 85.544 100.601 85.7779 100.857 85.9905C101.24 86.2881 101.431 86.3306 101.772 86.1393C102.006 86.0117 102.921 85.7991 103.793 85.6503ZM14.6604 77.6143C14.9796 77.338 15.8945 76.7852 16.7031 76.36C17.4903 75.9561 18.5755 75.3608 19.1074 75.0845C21.1288 73.9577 32.9167 68.154 35.8105 66.8571C36.2786 66.6446 37.1936 66.2194 37.8532 65.9217C38.5128 65.6241 39.1086 65.369 39.1724 65.369C39.2575 65.369 40.0661 65.0289 40.9597 64.6037C41.8747 64.1997 42.8109 63.7746 43.0449 63.6895C43.279 63.5832 44.1088 63.2006 44.8961 62.8391C45.6834 62.4777 46.4494 62.1801 46.5771 62.1801C46.7047 62.1801 47.0664 62.0526 47.3643 61.9037C47.8963 61.6274 48.3857 61.3935 50.2368 60.6069C51.2369 60.1605 55.6627 58.3747 56.6627 57.992C57.1308 57.822 57.8117 57.5456 58.1522 57.3968C58.5139 57.248 59.1735 56.9929 59.6416 56.8015C60.5566 56.4614 62.9397 55.5047 64.8547 54.7394C65.493 54.463 66.8335 53.9953 67.8336 53.6551C68.8336 53.3363 70.1741 52.8686 70.8124 52.6134C71.4508 52.3583 72.2806 52.0607 72.6211 51.9544C72.9828 51.8481 73.4509 51.678 73.6849 51.593C74.2169 51.3591 75.2382 50.9977 76.983 50.4663C77.749 50.2111 78.6214 49.8923 78.9406 49.7222C79.2384 49.5521 79.6853 49.4246 79.9406 49.4246C80.1747 49.4246 80.6853 49.297 81.0683 49.1269C81.4513 48.9781 82.3024 48.6805 82.9408 48.5104C83.5791 48.3403 84.6217 48.0214 85.2601 47.8514C85.8771 47.66 86.6857 47.5112 87.0687 47.5112C87.8559 47.5112 88.0474 47.3837 88.5368 46.6183C88.9837 45.9168 88.9837 45.5129 88.6007 44.8963C88.4517 44.6412 88.2602 43.7483 88.1751 42.898C88.1113 42.0476 87.9623 41.1334 87.8559 40.8783C87.6644 40.4106 87.3027 38.7949 86.6857 35.5635C86.5154 34.7131 86.1112 32.6723 85.8133 31.0353C85.4941 29.3983 85.1537 27.5488 85.0473 26.9323C84.8983 25.8268 84.7919 25.2953 84.1111 22.3828C83.9408 21.5962 83.7919 20.6608 83.7919 20.2994C83.7919 19.938 83.6642 19.1088 83.494 18.4286C83.3238 17.7695 83.0897 16.7491 82.9833 16.1538C82.5152 13.7728 81.6428 10.6902 81.3449 10.3926C81.1747 10.2012 81.0258 9.88233 81.0258 9.64848C81.0258 9.07448 81.9194 9.11699 82.5791 9.73351C83.5366 10.6264 83.7068 11.2642 85.8133 22.1064C86.0048 23.0418 86.2388 24.2961 86.3452 24.8914C86.4303 25.4866 86.6218 26.3583 86.7282 26.8047C86.8559 27.2724 87.0048 28.1866 87.0899 28.8456C87.1538 29.5259 87.324 30.1211 87.4304 30.1849C87.5368 30.27 87.6219 30.6739 87.6219 31.0991C87.6219 31.5243 87.7283 32.2683 87.8347 32.736C87.9623 33.2037 88.1326 34.2667 88.2602 35.0746C88.3879 35.9037 88.5794 36.9879 88.6858 37.5194C89.4092 40.7508 89.9624 43.8334 89.9624 44.7263C89.9624 46.0868 90.3667 46.2569 91.3668 45.3215C92.3881 44.4074 92.5158 43.3019 91.8987 41.1122C91.6434 40.2406 91.4519 39.2201 91.4519 38.8587C91.4519 38.476 91.3455 37.9233 91.2391 37.6044C91.1114 37.3068 90.9199 36.4564 90.8136 35.7336C90.6859 35.032 90.4518 33.714 90.2603 32.8423C90.0901 31.9707 89.8135 30.6314 89.6433 29.866C89.4943 29.1007 89.2177 27.8251 89.0475 26.996C88.856 26.1882 88.6007 24.9339 88.473 24.2323C88.3453 23.5308 88.1326 22.5316 88.0049 22.0001C87.8772 21.4686 87.707 20.6183 87.6219 20.0868C87.5368 19.5553 87.3666 18.7049 87.2389 18.1734C87.1112 17.642 86.8346 16.4514 86.6431 15.516C85.792 11.498 85.1324 9.52092 84.3877 8.58551C83.877 7.94774 82.6216 7.33122 81.8556 7.33122C81.4301 7.33122 80.6215 7.54381 80.047 7.77766C78.9406 8.26662 60.3012 17.4081 59.748 17.727C59.5778 17.8333 58.1309 18.5561 56.5563 19.3427C54.9818 20.108 51.3858 21.8726 48.5772 23.2544C45.7685 24.6363 38.2149 28.3779 31.7677 31.5668C25.3418 34.7344 18.2989 38.1997 16.1286 39.2626C13.9582 40.3043 11.3623 41.6011 10.3197 42.1114C9.29839 42.6216 8.31961 43.0468 8.14939 43.0468C7.57489 43.0468 6.61739 44.1948 6.04289 45.5554C5.61733 46.5758 5.48967 47.2561 5.48967 48.4254C5.48967 49.9135 5.57478 50.5513 6.21311 54.1229C6.40461 55.1433 6.55356 56.3551 6.55356 56.8228C6.55356 57.2905 6.68122 58.1409 6.85144 58.6936C7.02167 59.2676 7.31956 60.3518 7.51106 61.1171C7.70256 61.8825 8.00044 62.988 8.17067 63.5832C8.34089 64.1785 8.46856 64.8375 8.46856 65.0714C8.46856 65.284 8.59622 65.9005 8.76644 66.432C9.08561 67.4524 9.29839 68.1965 10.5112 72.3846C10.9155 73.8514 11.3411 75.212 11.4687 75.4034C11.5751 75.616 11.6602 75.9349 11.6602 76.1049C11.6602 76.5726 12.4475 78.0608 12.7667 78.1883C13.2135 78.3797 14.0433 78.1246 14.6604 77.6143ZM186.457 50.3387C186.372 50.1261 186.202 49.6797 186.095 49.3183C185.968 48.9781 185.755 48.4041 185.585 48.0852C185.415 47.7451 185.287 47.2561 185.287 46.9797C185.287 46.7246 185.138 46.3845 184.968 46.2357C184.798 46.0868 184.649 45.8105 184.649 45.6191C184.627 45.4278 184.329 44.6625 183.946 43.8971C183.18 42.3665 182.542 41.9626 181.521 42.324C181.053 42.4728 180.904 42.7279 180.67 43.6633L180.372 44.79L182.372 46.8522C183.478 47.9789 184.755 49.297 185.18 49.8072C185.989 50.7214 186.755 51.0403 186.457 50.3387ZM124.22 4.16359C124.22 3.95099 124.028 3.52581 123.794 3.22818C123.56 2.93055 123.369 2.61166 123.369 2.52662C123.369 1.67625 121.326 1.25107 120.56 1.95262C120.007 2.44159 120.071 2.5904 121.092 3.05811C121.581 3.2707 122.326 3.69588 122.73 4.01477C123.624 4.65255 124.22 4.71633 124.22 4.16359Z" fill="rgb(0,0,0)" fill-rule="nonzero" transform="matrix(1,0,0,-1,41.4521,229.726)" />
			<path id="矢量 377" d="M16.841 56.2733C16.3303 55.593 13.0322 48.5562 12.8195 47.7058C12.7556 47.4294 12.6067 47.1318 12.5003 47.068C12.3939 47.0042 12.3088 46.7916 12.3088 46.6003C12.3088 46.409 12.1599 45.9625 11.9896 45.6224C11.8194 45.3035 11.6705 44.9208 11.6705 44.772C11.6705 44.6445 11.5428 44.283 11.3726 43.9642C11.2024 43.6453 11.0109 43.0713 10.9257 42.6886C10.8406 42.3059 10.6917 41.902 10.6066 41.7745C10.4789 41.5831 9.73419 39.2659 8.71285 35.8431C8.45752 35.0353 8.26602 34.2062 8.26602 33.9936C8.26602 33.781 8.18091 33.5471 8.05324 33.4833C7.94685 33.4196 7.84046 33.1432 7.84046 32.9093C7.84046 32.6542 7.64896 31.8676 7.43619 31.1661C7.20213 30.4433 6.90424 29.4441 6.77658 28.9126C6.62763 28.3811 6.39358 27.5307 6.22335 26.9993C5.6063 24.8946 4.79774 21.9608 4.62752 21.0892C4.52113 20.579 4.37219 20.0687 4.30835 19.9412C4.22324 19.8136 4.03174 19.1333 3.8828 18.4105C3.73385 17.6877 3.45724 16.4972 3.28702 15.7319C3.09552 14.9665 2.79763 13.776 2.62741 13.0744C2.47847 12.3729 2.18058 11.1824 1.98908 10.417C1.79758 9.65171 1.54224 8.56748 1.43585 7.97222C1.30819 7.39822 1.07413 6.50533 0.903911 5.99511C0.733688 5.50615 0.606022 4.71956 0.606022 4.29437C0.606022 3.84793 0.520911 3.40148 0.414522 3.27393C0.308133 3.16763 0.159188 2.38104 0.0740774 1.55193C-0.0535892 0.191333 -0.0323115 0 0.265577 0C0.457077 0 0.712411 0.255111 0.840077 0.595259C0.989022 0.914148 1.15924 1.36059 1.24435 1.59444C1.35074 1.8283 1.47841 2.44482 1.56352 2.9763C1.62735 3.50778 1.81885 4.42193 1.98908 4.99593C2.30824 6.08015 2.98913 8.78008 3.47852 10.8422C3.64874 11.48 3.96791 12.8831 4.22324 13.9248C4.47858 14.9878 4.79774 16.3271 4.96797 16.9011C5.32969 18.1767 6.26591 21.7695 6.64891 23.3852C6.81913 24.023 7.11702 25.0859 7.30852 25.7237C7.50002 26.3615 7.79791 27.4882 7.96813 28.211C8.11708 28.9339 8.43624 30.0819 8.6703 30.7622C8.88308 31.4424 9.13841 32.3353 9.22352 32.7393C9.30863 33.1432 9.45757 33.6109 9.56396 33.8022C9.64907 33.9723 9.8193 34.5038 9.94696 34.9715C10.0534 35.4392 10.3087 36.3533 10.5002 36.9911C10.6917 37.6289 10.947 38.543 11.0534 39.0107C11.1598 39.4785 11.7981 41.3067 12.4365 43.05C14.2451 47.9184 14.4153 48.3223 16.4792 52.6592C17.1176 53.9773 17.6282 55.3379 17.6282 55.678C17.6282 56.337 17.1389 56.6985 16.841 56.2733Z" fill="rgb(0,0,0)" fill-rule="nonzero" transform="matrix(1,0,0,-1,208.047,71.4541)" />
			<path id="矢量 378" d="M1.74862 16.5609C0.131511 16.1145 -0.187656 15.9232 0.0889553 15.5618C0.301733 15.3066 0.769844 15.2854 2.9189 15.3917C4.47218 15.4767 5.87651 15.4555 6.53612 15.3066C7.1319 15.2004 8.70646 15.009 10.047 14.8815C12.8982 14.6476 17.4516 14.0949 17.6857 13.9461C17.7708 13.8823 18.6857 13.6909 19.7496 13.5209C21.5157 13.2232 22.2604 13.0532 25.9415 12.2028C26.75 12.0115 27.8352 11.7776 28.3884 11.6926C28.9629 11.5863 29.5161 11.4375 29.6438 11.3524C29.7715 11.2886 30.4098 11.0973 31.0694 10.9485C31.7503 10.7997 32.8142 10.5233 33.4525 10.332C34.559 9.99183 35.0909 9.84302 37.7719 9.03517C38.3677 8.84383 39.2614 8.60998 39.7295 8.48243C40.1976 8.37613 40.7721 8.20605 41.0061 8.09976C41.2402 7.99346 41.6232 7.84465 41.8572 7.80213C42.0913 7.73835 43.2403 7.33442 44.4106 6.90924C45.5809 6.48405 46.8362 6.05887 47.1767 5.95257C47.8789 5.76124 49.0066 5.37857 49.8364 5.03842C50.8365 4.65576 55.6878 2.95502 57.39 2.42354C58.3262 2.12591 59.7731 1.63694 60.6242 1.36057C61.4541 1.0842 62.2839 0.85035 62.4541 0.85035C62.6244 0.85035 63.3691 0.659016 64.0925 0.425164C66.0288 -0.191354 67.9225 -0.127576 67.9225 0.55272C67.9225 0.744053 67.6885 0.85035 67.2842 0.85035C66.4969 0.85035 63.667 1.72198 58.6667 3.50776C57.156 4.03924 55.1346 4.76205 54.1984 5.1022C53.2621 5.42109 52.1131 5.86754 51.645 6.08013C51.1769 6.27146 50.5173 6.50531 50.1556 6.61161C49.496 6.78168 47.9427 7.31317 47.1767 7.63205C46.5384 7.88717 45.5809 8.20606 41.9636 9.37531C36.9208 10.991 34.3036 11.7776 31.0056 12.6492C30.3034 12.8406 29.2608 13.1169 28.665 13.287C28.0905 13.4358 26.8351 13.7122 25.8989 13.9035C24.9627 14.0949 23.6009 14.3925 22.8775 14.5626C22.154 14.7326 21.3242 14.8815 21.0476 14.8815C20.7497 14.8815 19.9411 15.0303 19.2602 15.2004C15.4302 16.157 3.59979 17.0924 1.74862 16.5609Z" fill="rgb(0,0,0)" fill-rule="nonzero" transform="matrix(1,0,0,-1,138.39,77.1943)" />
			<path id="矢量 379" d="M0.0211938 0.212585C0.0850247 0.106293 0.297794 0 0.46801 0C0.638226 0 0.723333 0.106293 0.659503 0.212585C0.595672 0.340137 0.382902 0.425171 0.212686 0.425171C0.0424708 0.425171 -0.042637 0.340137 0.0211938 0.212585Z" fill="rgb(0,0,0)" fill-rule="nonzero" transform="matrix(1,0,0,-1,315.978,261.512)" />
		</g>
	</g>
</svg>
