<svg viewBox="0 0 268 230" xmlns="http://www.w3.org/2000/svg" xmlns:xlink="http://www.w3.org/1999/xlink" width="268.000000" height="230.000000" fill="none">
	<defs>
		<clipPath id="clipPath_5">
			<rect width="218.000000" height="230.000000" x="39.000000" y="0.000000" fill="rgb(255,255,255)" />
		</clipPath>
	</defs>
	<rect id="5" width="268.000000" height="230.000000" x="0.000000" y="0.000000" />
	<g id="5" clip-path="url(#clipPath_5)" customFrame="url(#clipPath_5)">
		<rect id="5" width="218.000000" height="230.000000" x="39.000000" y="0.000000" />
		<path id="矢量 380" d="M47.729 111.425L43.4522 117.292L42.4947 137.658L44.5586 163.297L40.9627 176.542L40.2393 181.856L42.4947 185.896L49.3674 189.34L117.201 222.632L122.074 219.932L129.244 198.375L136.883 204.561L138.287 216.87L142.841 221.207L158.565 228.563L160.565 226.437L162.969 229.286L165.48 227.67L167.629 223.397L181.736 214.808L209.632 194.761L220.568 184.726L222.973 188.319L225.547 187.086L228.909 178.668L230.037 174.99L239.91 165.381L240.442 159.853L242.931 118.993L241.378 114.784L237.08 112.041L240.187 111.276L242.931 111.276L245.08 109.086L255.613 34.8912L253.719 32.8929L241.463 31.4472L231.867 29.3638L230.952 25.5584L230.271 19.5846L227.696 12.0375L222.015 7.97702L204.716 4.72435L178.992 1.76931L155.033 1.19531L148.862 3.42753L144.564 9.4439L140.436 21.0515L134.84 18.9893L130.457 20.0735L126.584 26.8978L119.18 51.1546L116.329 75.4114L104.2 76.772L76.837 84.7867L56.0061 93.8857L49.2823 96.3092L44.9842 101.284L45.2395 106.96L47.729 111.425Z" fill="rgb(255,255,255)" fill-rule="nonzero" />
		<path id="矢量 381" d="M139.5 20.7113L134.989 19.2869L130.351 20.2436L127.053 25.8348L119.01 50.0916L116.329 75.4114L122.797 75.8366L128.244 79.6632L128.776 84.0852L131.117 90.1015L128.776 95.0337L128.244 97.0958L119.648 97.436L96.1785 103.92L79.3691 106.833L66.7514 112.636L59.0488 123.5L52.8144 139.062L52.1761 147.778L50.2824 149.16L40.2393 177.179L42.2394 185.662L117.818 222.1L122.074 219.932L131.436 189.17L139.5 147.374L142.436 142.08L137.862 139.232L136.5 131.281L139.5 125.966L158.012 114.252L172.502 105.663L192.865 98.8603L210.93 95.1612L223.59 99.3918L230.803 106.088L230.803 111.169L234.612 111.765L238.91 111.169L241.995 111.276L244.761 109.894L245.676 105.004L255.613 34.8912L252.506 32.4039L240.548 31.1921L232.292 29.5552L230.952 25.5584L228.569 11.9525L212.994 5.74479L183.311 1.66302L154.65 1.19531L147.118 3.98028L139.5 20.7113Z" fill="rgb(1,89,188)" fill-rule="nonzero" />
		<g id="组合 77">
			<path id="矢量 382" d="M203.033 198.252C202.564 198.677 199.266 200.016 197.649 200.42C196.99 200.59 195.628 200.739 194.628 200.739L192.798 200.739L192.713 204.417C192.649 207.011 192.521 208.371 192.287 209.136C191.904 210.284 191.394 211.964 190.968 213.516C190.457 215.344 189.074 217.831 187.989 218.916C187.351 219.575 185.925 220.531 184.798 221.084C183.372 221.786 179.67 223.061 179.031 223.061C178.818 223.061 178.201 223.189 177.669 223.359C177.138 223.529 176.244 223.784 175.648 223.912C175.074 224.06 174.01 224.316 173.308 224.486C171.158 224.996 165.626 225.719 160.009 226.25C158.775 226.356 157.498 226.505 157.136 226.569C156.413 226.718 154.711 226.909 149.945 227.398C148.115 227.589 146.391 227.781 146.115 227.845C145.859 227.908 143.391 228.057 140.646 228.163C135.731 228.397 133.007 228.546 126.709 229.014C122.241 229.354 116.772 229.482 116.389 229.248C116.219 229.163 115.538 229.014 114.9 228.929C113.645 228.78 111.41 228.142 110.602 227.696C109.176 226.909 107.134 224.996 106.261 223.678C105.112 221.913 103.41 218.618 103.41 218.172C103.41 218.002 103.282 217.661 103.112 217.428C102.963 217.194 102.772 216.769 102.708 216.471C102.644 216.173 102.367 215.28 102.07 214.451C101.325 212.347 100.857 210.667 100.857 210.136C100.857 209.413 100.559 209.413 99.0268 210.136C97.7288 210.752 97.3033 210.837 95.3245 210.901C93.2392 210.986 93.0052 210.943 91.8774 210.412C89.8348 209.434 89.0262 208.307 86.8133 203.184C85.7282 200.675 84.3877 197.295 84.1962 196.593C84.1323 196.36 83.8557 195.594 83.6217 194.893C83.3663 194.191 83.0685 193.341 82.9833 192.979C82.8769 192.639 82.5791 191.683 82.2812 190.853C81.7918 189.429 81.4088 188.175 80.7066 185.645C80.5364 185.007 80.2811 184.199 80.1747 183.838C80.047 183.498 79.813 182.584 79.664 181.818C79.4938 181.053 79.2597 180.096 79.1746 179.692C78.4512 176.844 78.1746 175.313 77.3447 169.807C77.1532 168.531 76.9405 167.319 76.8553 167.149C76.6638 166.682 76.1532 161.154 76.0042 157.795L75.8553 154.925L75.1106 154.883C74.2807 154.819 70.7273 154.266 68.9613 153.926C68.3229 153.82 67.3229 153.629 66.7271 153.543C66.1313 153.437 64.7908 153.161 63.727 152.906C62.6843 152.672 61.3864 152.374 60.8545 152.289C60.3225 152.183 59.5565 151.992 59.1522 151.864C58.748 151.736 58.1309 151.63 57.7692 151.63C57.4287 151.63 56.9393 151.481 56.7266 151.311C56.4925 151.141 56.0669 150.992 55.7903 150.992C55.5137 150.992 54.8328 150.844 54.2796 150.673C53.7477 150.525 52.9178 150.27 52.4497 150.163C50.8539 149.759 46.4919 148.441 43.9386 147.57C42.5343 147.102 41.1087 146.634 40.7469 146.528C40.4065 146.443 39.5767 146.145 38.9383 145.89C38.3 145.635 37.5766 145.38 37.3425 145.316C37.1084 145.252 36.6403 145.082 36.2786 144.933C35.9382 144.785 35.2147 144.487 34.6828 144.296C34.1508 144.083 33.4487 143.807 33.0869 143.658C32.7465 143.509 31.6826 143.084 30.7464 142.701C29.8102 142.319 28.5761 141.787 27.9803 141.532C27.4058 141.256 26.4483 140.83 25.8525 140.597C24.7248 140.108 24.5758 140.023 21.7033 138.683C20.7033 138.237 19.3628 137.642 18.7244 137.386C18.0861 137.131 17.2776 136.791 16.9158 136.642C16.1286 136.302 15.0859 135.898 12.9794 135.133C10.4261 134.219 9.31967 133.624 8.17067 132.539C5.72372 130.243 4.51089 127.692 4.74495 125.29C5.04283 122.377 5.68117 120.592 6.78761 119.614C7.57489 118.912 7.59617 118.763 6.95783 118.062C6.08544 117.126 4.72367 114.724 4.27683 113.427C2.70228 108.708 2.38311 105.604 2.38311 95.8246C2.38311 87.9374 3.04272 76.67 3.59594 74.8842C3.72361 74.4803 3.83 73.7575 3.83 73.2898C3.83 72.8221 4.0215 71.4402 4.25556 70.2285C4.70239 67.8687 4.65983 67.4648 3.85128 65.3176C3.59594 64.6798 3.29806 63.8082 3.19167 63.4042C3.10656 63.0003 2.78739 62.0011 2.4895 61.172C1.95756 59.6414 1.48944 58.0469 1.06389 56.3887C0.936222 55.8572 0.638333 54.7092 0.425556 53.8376C0.148944 52.7534 0.0212778 51.4778 0 49.8408C0 47.5448 0.0212778 47.3535 0.744722 45.8441C1.46817 44.2284 3.48956 41.9324 4.14917 41.9324C4.4045 41.9324 6.68122 40.9119 7.87278 40.2529C8.46856 39.934 14.7668 36.8727 16.7031 35.9585C18.4904 35.1294 29.4059 29.8146 31.8103 28.6028C35.0232 26.9871 37.3851 25.8179 41.5981 23.7132C44.1727 22.4377 46.4707 21.2897 46.7047 21.1621C46.9388 21.0345 47.8537 20.5881 48.7261 20.1629C49.5985 19.7377 50.4709 19.2913 50.6411 19.2062C50.8965 19.0574 52.5348 18.2708 54.2796 17.463C55.1307 17.0591 61.6417 13.8277 61.9183 13.6576C62.0886 13.5513 62.6631 13.2537 63.195 12.9985C64.876 12.1907 73.7062 7.87506 74.4722 7.47113C76.0042 6.7058 77.8554 6.17432 78.5788 6.32313C80.0257 6.62076 81.345 7.19476 82.1322 7.8538C82.8982 8.51284 84.26 10.8726 84.26 11.5529C84.26 11.723 84.409 12.0631 84.5792 12.297C84.7494 12.5096 84.8983 12.9135 84.8983 13.1686C84.8983 13.4237 85.026 13.9552 85.1962 14.3379C85.6218 15.4008 86.175 17.1866 86.175 17.5693C86.175 17.7394 86.3027 18.2071 86.4729 18.5897C86.6218 18.9724 86.9197 19.844 87.1112 20.5243C87.6857 22.6077 88.1326 24.1384 88.4305 25.1163C88.6007 25.6478 88.7283 26.2856 88.7283 26.5619C88.7283 27.1997 89.3028 28.3265 89.622 28.3265C89.7497 28.3265 90.1752 28.0926 90.5582 27.795C90.9412 27.4974 91.3881 27.2635 91.537 27.2635C91.686 27.2635 92.6647 26.8383 93.7286 26.3068C94.7712 25.7754 95.7926 25.3502 95.9841 25.3502C96.6649 25.3502 96.8777 24.7337 97.048 22.2038C97.2394 19.3763 97.7501 15.4859 98.0906 14.0828C98.814 11.234 99.0055 10.8088 99.9205 9.83091C100.878 8.81047 101.431 8.47032 104.58 6.87587C105.517 6.38691 106.708 5.79165 107.24 5.51528C107.772 5.23891 109.155 4.55862 110.325 4.00588C111.496 3.45313 112.602 2.90039 112.772 2.7941C112.942 2.6878 113.24 2.53899 113.411 2.47521C113.581 2.39017 114.517 1.96499 115.475 1.51854C117.219 0.689431 118.964 0.413061 119.262 0.902024C119.326 1.00832 119.624 1.11462 119.9 1.11462C120.177 1.11462 120.475 1.22091 120.539 1.32721C120.773 1.70988 121.411 1.56106 121.922 1.00832C122.198 0.71069 122.581 0.476838 122.752 0.476838C122.943 0.476838 123.347 0.328024 123.666 0.179209C124.007 -0.0121244 124.305 -0.0546429 124.369 0.0729126C124.454 0.179209 124.73 0.264246 125.007 0.264246C125.284 0.264246 125.858 0.561876 126.262 0.902024C127.007 1.56106 128.305 3.89958 128.305 4.57987C128.305 5.30269 128.731 5.77039 130.007 6.40817C131.858 7.36484 134.965 9.02306 135.22 9.19313C135.348 9.27817 136.008 9.66084 136.71 10.0435C137.412 10.4262 138.561 11.1065 139.263 11.5529C139.965 11.9994 141.029 12.6159 141.604 12.9135C142.199 13.2324 142.965 13.7214 143.348 13.9977C143.71 14.2741 144.072 14.5079 144.157 14.5079C144.221 14.5079 144.54 14.678 144.859 14.9119C145.178 15.1245 147.136 16.4425 149.221 17.8244C153.86 20.907 153.498 20.6731 155.966 22.4802C157.073 23.288 158.285 24.1597 158.626 24.3935C158.988 24.6486 159.456 25.01 159.69 25.2014C160.158 25.584 161.796 26.8171 162.307 27.1572C162.669 27.4123 163.009 27.6674 165.03 29.3257C165.86 30.0059 167.201 31.0902 167.988 31.7279C168.775 32.3657 169.541 33.0035 169.669 33.1098C169.797 33.2374 171.01 34.2791 172.35 35.4483C174.882 37.6168 176.627 39.2325 179.35 41.8686C180.223 42.719 181.053 43.4205 181.202 43.4205C181.351 43.4205 181.585 43.0591 181.712 42.6127C181.861 42.1875 182.223 41.571 182.521 41.2308C183.01 40.7206 183.223 40.6568 184.393 40.6568C185.627 40.6568 185.755 40.6994 186.542 41.4647C187.521 42.4214 188.415 44.2284 188.925 46.2905C189.011 46.6519 189.202 47.1409 189.33 47.396C189.479 47.6511 189.585 48.1826 189.585 48.5653C189.585 48.9479 189.734 49.4582 189.904 49.6708C190.096 49.9259 190.223 50.5636 190.223 51.1802C190.223 52.2431 190.266 52.3282 191.564 53.6462C195.841 58.0682 198.713 61.1295 199.649 62.3625C200.649 63.6594 201.713 66.7419 201.713 68.3577C201.713 68.8891 201.798 69.5482 201.926 69.8245C202.033 70.1009 202.224 71.6954 202.33 73.3961C202.458 75.0968 202.692 77.818 202.862 79.455C203.033 81.0707 203.139 82.4738 203.075 82.5588C203.033 82.6439 203.118 83.473 203.288 84.3871C203.777 87.0445 204.139 95.3994 204.16 104.116L204.16 111.425C204.16 111.933 204.048 112.432 203.83 112.892L203.607 113.363C203.054 114.554 201.267 116.552 200.777 116.552C200.628 116.552 200.352 116.722 200.16 116.935C199.415 117.743 199.798 117.807 201.65 117.19C202.65 116.871 203.075 116.829 203.671 116.978C204.522 117.233 206.175 119.123 206.394 119.699C206.475 119.913 206.552 120.096 206.605 120.283C206.701 120.583 206.82 120.868 206.884 121.336C207.331 124.673 207.522 125.991 207.799 127.288C208.267 129.542 208.692 132.561 209.373 138.131C209.48 139.066 209.629 140.065 209.693 140.363C209.756 140.66 209.948 142.042 210.139 143.445C210.65 147.548 211.076 150.588 211.288 151.843C211.373 152.481 211.586 153.884 211.714 154.925C211.842 155.988 212.033 157.413 212.161 158.114C212.395 159.475 212.608 161.091 213.076 165.023C213.246 166.363 213.437 167.617 213.501 167.787C213.565 167.957 213.714 168.978 213.82 170.019C214.097 172.719 214.459 175.292 214.799 177.035C214.969 177.864 215.203 179.437 215.331 180.543C215.459 181.648 215.714 183.519 215.884 184.688C216.055 185.858 216.289 187.728 216.416 188.834C216.523 189.939 216.714 191.13 216.821 191.47C217.182 192.533 217.055 193.936 216.523 195.105C216.097 195.977 215.778 196.317 214.948 196.764C214.033 197.253 213.544 197.359 211.586 197.465M126.603 227.526C128.177 227.419 131.199 227.186 133.305 227.037C135.412 226.867 137.901 226.782 138.816 226.824C139.838 226.888 141.093 226.803 142.008 226.59C142.838 226.42 145.029 226.229 146.902 226.144C148.753 226.059 150.498 225.91 150.796 225.804C151.072 225.697 151.753 225.612 152.306 225.612C152.838 225.612 154.2 225.464 155.328 225.293C157.094 225.038 159.605 224.719 162.456 224.422C165.924 224.039 172.967 222.827 176.499 221.998C178.925 221.424 182.138 220.489 182.776 220.17C183.074 220.021 183.734 219.702 184.266 219.426C184.798 219.171 185.415 218.852 185.649 218.724C186.159 218.448 187.181 217.406 187.819 216.535C188.287 215.876 189.585 212.389 189.585 211.751C189.585 211.56 189.713 211.071 189.883 210.688C190.606 209.03 190.84 207.563 190.926 204.353C190.968 202.546 190.968 200.952 190.926 200.803C190.883 200.675 190.308 200.314 189.67 199.995C188.542 199.442 187.053 197.89 186.308 196.445C184.968 193.936 184.329 192.575 183.223 189.791C182.84 188.855 182.393 187.813 182.223 187.495C182.053 187.154 181.925 186.793 181.925 186.665C181.925 186.559 181.797 186.155 181.648 185.794C181.265 184.88 180.861 183.774 180.648 182.988C180.542 182.647 180.265 181.818 180.031 181.181C179.095 178.799 177.712 174.399 176.499 170.019C175.754 167.341 175.563 166.575 175.329 165.555C175.201 164.981 174.967 163.918 174.797 163.216C174.648 162.515 174.35 161.282 174.159 160.453C173.967 159.645 173.712 158.348 173.605 157.604C173.478 156.839 173.286 156.052 173.18 155.861C173.073 155.648 172.988 155.223 172.988 154.925C172.988 154.606 172.861 153.586 172.69 152.629C172.265 150.206 171.924 147.655 171.669 145.04C171.563 143.807 171.435 142.425 171.393 141.957C171.329 141.49 171.222 139.853 171.095 138.322C170.839 134.708 170.797 134.623 168.733 134.623C166.945 134.623 165.456 134.41 162.669 133.772C160.839 133.347 160.307 133.22 158.413 132.731C157.945 132.603 155.945 132.114 153.945 131.625C150.625 130.817 146.923 129.733 144.795 128.947C142.88 128.224 142.37 128.032 140.753 127.395C139.816 127.033 138.774 126.608 138.412 126.438C138.072 126.289 137.05 125.843 136.178 125.46C134.539 124.758 130.795 123.015 130.22 122.696C130.05 122.611 129.177 122.144 128.305 121.697C127.433 121.229 126.135 120.549 125.433 120.166L124.156 119.465L123.241 119.911C122.73 120.145 122.028 120.422 121.645 120.507C121.283 120.57 120.837 120.719 120.645 120.804C120.475 120.889 118.9 121.421 117.134 121.973C111.283 123.823 108.815 124.716 107.134 125.524C106.559 125.821 105.644 126.247 105.112 126.502C103.112 127.416 101.346 128.309 100.112 129.01C96.7501 130.966 93.0052 132.497 91.5583 132.497C90.388 132.497 89.7922 132.837 89.7922 133.517C89.7922 133.836 89.9412 134.304 90.1114 134.538C91.1115 135.835 91.7711 138.152 91.7711 140.469C91.7711 142.659 91.537 143.488 89.9837 146.889C89.4731 147.974 89.3667 148.505 89.3667 149.759C89.3667 150.61 89.4518 151.651 89.5795 152.055C89.6858 152.459 89.8773 153.522 89.9837 154.394C90.1114 155.265 90.3029 156.371 90.4093 156.839C90.5157 157.306 90.7284 158.221 90.8561 158.858C91.3029 161.133 91.4945 161.941 91.686 162.366C93.3669 165.959 93.452 166.214 93.3882 167.256C93.2818 168.956 93.4095 171.848 93.6222 172.889C93.7286 173.421 93.9201 174.526 94.0265 175.334C94.2818 177.099 94.7712 179.884 95.0691 181.074C95.1968 181.542 95.4308 182.541 95.6223 183.306C96.0479 185.135 96.3883 186.389 96.7075 187.558C96.8777 188.09 97.0692 188.961 97.1331 189.535C97.2182 190.088 97.3671 190.598 97.4735 190.662C97.5799 190.726 97.665 191.066 97.665 191.406C97.665 191.746 97.814 192.384 97.9842 192.809C98.1544 193.213 98.3033 193.787 98.3033 194.064C98.3033 194.34 98.431 194.935 98.6012 195.36C98.7502 195.807 98.9842 196.742 99.1119 197.444C99.4949 199.782 101.006 205.714 101.835 208.073C102.006 208.562 102.133 209.073 102.133 209.221C102.133 209.37 102.261 209.795 102.431 210.157C102.58 210.54 102.942 211.603 103.197 212.538C103.474 213.473 103.899 214.749 104.176 215.387C104.453 216.003 104.687 216.683 104.687 216.854C104.687 217.045 105.304 218.448 106.048 219.979C107.112 222.105 107.708 223.04 108.687 224.06C109.389 224.805 110.176 225.485 110.453 225.612C110.73 225.74 111.262 226.016 111.623 226.229C112.474 226.739 114.581 227.313 116.389 227.526C118.368 227.738 123.241 227.738 126.603 227.526ZM96.9203 209.051C98.4523 208.733 99.6438 208.265 99.8779 207.903C100.006 207.691 99.8992 207.138 99.5162 206.181C99.197 205.416 98.9417 204.629 98.9417 204.438C98.9417 204.247 98.814 203.652 98.6438 203.099C98.1118 201.377 97.431 198.443 97.048 196.126C96.9416 195.531 96.7926 194.914 96.7075 194.786C96.6224 194.659 96.4096 193.915 96.2394 193.128C96.0692 192.342 95.7926 191.13 95.6223 190.428C95.4521 189.727 95.2181 188.77 95.1117 188.302C94.5585 185.9 94.2818 184.837 94.0691 184.306C93.9414 183.965 93.835 183.328 93.835 182.86C93.835 182.392 93.7286 181.818 93.6222 181.606C93.3669 181.138 92.835 178.736 92.5583 176.822C92.452 176.121 92.2605 175.249 92.1328 174.909C92.0051 174.548 91.8349 172.507 91.7711 170.338C91.7072 167.723 91.5796 166.193 91.3881 165.768C90.0476 162.791 89.5795 161.346 89.0688 158.752C88.5368 156.116 88.09 153.118 88.09 152.332C88.09 151.481 87.8559 151.46 86.8346 152.247C85.0898 153.607 81.6003 154.819 79.3874 154.819C78.3022 154.819 77.8341 154.904 77.749 155.117C77.6001 155.499 78.0256 162.196 78.4086 165.449C79.047 170.849 79.664 174.76 80.1321 176.376C80.3023 176.929 80.43 177.63 80.43 177.907C80.43 178.204 80.579 178.778 80.7492 179.203C80.9194 179.607 81.0683 180.181 81.0683 180.436C81.0683 180.713 81.2173 181.436 81.4088 182.052C81.7918 183.434 82.2173 184.88 82.6855 186.602C82.877 187.303 83.2812 188.6 83.5791 189.472C83.8557 190.343 84.1749 191.364 84.26 191.704C84.3664 192.065 84.643 192.873 84.8983 193.511C85.1537 194.149 85.5792 195.36 85.8558 196.168C86.7282 198.656 86.9836 199.336 87.5368 200.611C87.8347 201.292 88.09 201.972 88.09 202.121C88.09 202.27 88.239 202.504 88.4092 202.652C88.5794 202.801 88.7283 203.056 88.7283 203.226C88.7283 203.524 89.239 204.757 89.9625 206.266C90.4731 207.287 92.2605 209.03 92.835 209.03C93.0903 209.03 93.452 209.136 93.6222 209.243C93.9627 209.477 95.2181 209.413 96.9203 209.051ZM196.883 198.868C197.437 198.741 198.522 198.379 199.33 198.06C203.628 196.381 205.118 195.233 206.033 192.873C206.82 190.811 206.841 190.747 206.607 189.153C206.501 188.324 206.309 187.006 206.182 186.176C206.075 185.369 205.884 184.348 205.756 183.944C205.65 183.54 205.543 182.924 205.543 182.562C205.543 182.222 205.416 181.308 205.245 180.543C204.82 178.736 204.394 176.461 203.948 173.952C203.756 172.847 203.501 171.55 203.394 171.082C203.075 169.849 202.586 167.256 202.352 165.683C202.245 164.917 202.054 164.024 201.947 163.663C201.841 163.301 201.692 162.579 201.628 162.047C201.543 161.516 201.394 160.814 201.288 160.453C201.181 160.113 200.969 159.092 200.777 158.221C200.607 157.349 200.309 155.861 200.118 154.925C199.798 153.331 199.543 152.034 198.947 148.973C198.798 148.271 198.607 147.272 198.522 146.741C198.437 146.209 198.266 145.359 198.139 144.827C197.841 143.615 197.373 141.404 196.926 139.087C196.734 138.088 196.436 136.749 196.266 136.09C196.096 135.452 195.968 134.708 195.968 134.474C195.968 134.24 195.819 133.56 195.649 133.007C195.096 131.158 193.841 125.205 193.5 122.718C193.33 121.527 193.075 121.017 192.649 121.017C192.372 121.017 192.33 121.187 192.394 121.825C192.564 123.185 190.968 125.779 188.628 127.841C187.691 128.691 185.01 130.583 184.776 130.583C184.691 130.583 184.457 130.711 184.287 130.86C183.819 131.243 179.584 132.986 177.989 133.432C177.286 133.645 176.372 133.9 175.967 134.027C175.563 134.176 174.605 134.325 173.839 134.389C172.286 134.538 172.371 134.346 172.754 136.642C172.882 137.344 173.073 139.3 173.201 141.001C173.648 146.889 173.818 148.548 174.031 149.611C174.137 150.206 174.35 151.396 174.499 152.268C174.627 153.14 174.882 154.628 175.052 155.563C175.223 156.499 175.435 157.689 175.542 158.221C175.84 160.028 176.393 162.281 176.606 162.685C176.733 162.898 176.818 163.344 176.818 163.663C176.818 164.258 177.244 166.065 177.776 167.787C177.946 168.319 178.287 169.509 178.542 170.445C178.797 171.38 179.138 172.634 179.308 173.208C179.499 173.804 179.776 174.803 179.946 175.441C180.116 176.078 180.329 176.801 180.436 177.035C180.542 177.269 180.819 178.034 181.053 178.736C181.287 179.459 181.563 180.266 181.67 180.543C181.797 180.84 182.18 181.946 182.563 182.988C183.308 185.092 183.883 186.58 185.5 190.428C188.181 196.806 189.223 198.188 191.819 198.953C192.798 199.251 195.415 199.208 196.883 198.868ZM210.501 196.041C211.054 195.934 212.012 195.849 212.586 195.849C213.714 195.849 214.565 195.531 214.374 195.19C214.289 195.084 213.778 194.999 213.203 194.999C211.267 194.999 209.182 193.936 208.714 192.724C208.437 191.959 208.118 192.15 207.565 193.383C207.288 194.021 206.756 194.871 206.394 195.297C206.033 195.701 205.777 196.147 205.841 196.253C205.99 196.466 208.969 196.338 210.501 196.041ZM214.969 193.915C215.331 193.426 215.289 192.023 214.799 188.94C214.331 185.9 213.842 182.371 213.416 178.948C213.288 177.907 213.097 176.61 212.969 176.078C212.629 174.484 212.416 173.017 211.927 168.85C211.799 167.851 211.629 166.618 211.501 166.086C211.395 165.555 211.203 164.279 211.076 163.216C210.714 160.304 210.267 156.881 209.905 154.288C209.203 149.313 208.927 147.208 208.735 145.465C208.629 144.466 208.458 143.19 208.331 142.595C208.224 142.021 207.969 140.427 207.799 139.087C207.607 137.748 207.416 136.302 207.352 135.898C207.288 135.494 207.139 134.389 207.033 133.453C206.777 131.455 206.288 128.373 205.841 126.055C205.671 125.162 205.543 123.951 205.543 123.398C205.522 122.845 205.316 122.037 205.224 121.548C205.135 121.068 204.962 120.545 204.905 120.358C204.754 119.871 203.522 118.466 203.011 118.466C202.756 118.466 202.245 118.615 201.884 118.806C201.032 119.252 199.011 119.104 197.5 118.508C196.649 118.168 196.224 118.104 195.841 118.274C195.543 118.381 194.99 118.466 194.585 118.466C194.181 118.466 193.819 118.551 193.755 118.636C193.692 118.742 193.841 119.337 194.096 119.975C194.33 120.613 194.649 121.655 194.798 122.292C194.947 122.93 195.245 124.142 195.436 124.95C195.628 125.779 195.862 126.863 195.947 127.395C196.032 127.926 196.224 128.734 196.33 129.202C196.458 129.669 196.734 130.775 196.926 131.646C197.117 132.518 197.394 133.815 197.543 134.516C197.713 135.218 197.99 136.515 198.16 137.386C198.351 138.258 198.607 139.47 198.734 140.044C198.862 140.639 199.096 141.787 199.266 142.595C199.437 143.424 199.713 144.7 199.905 145.465C200.075 146.23 200.33 147.463 200.437 148.207C200.564 148.951 200.713 149.632 200.777 149.738C200.841 149.844 201.032 150.716 201.203 151.673C201.564 153.65 201.756 154.755 202.139 156.626C202.82 160.134 203.033 161.197 203.309 162.366C203.458 163.068 203.756 164.513 203.948 165.555C204.139 166.618 204.437 168.085 204.586 168.85C204.756 169.615 205.097 171.295 205.331 172.571C205.565 173.867 205.863 175.207 205.948 175.547C206.054 175.908 206.203 176.716 206.288 177.354C206.373 177.992 206.501 178.821 206.607 179.161C206.863 180.075 207.671 184.71 208.182 188.302C208.522 190.726 208.671 191.066 209.948 192.427C210.842 193.405 211.161 193.596 212.459 193.936C214.374 194.446 214.608 194.446 214.969 193.915ZM80.7492 153.118C82.6642 152.587 84.0898 152.077 84.3664 151.821C84.4728 151.715 84.6643 151.63 84.8132 151.63C85.2388 151.63 87.324 150.163 87.4942 149.759C87.5581 149.568 87.6432 149.079 87.6432 148.696C87.6645 148.314 88.1326 146.911 88.7071 145.571C89.7284 143.275 90.388 140.809 90.1114 140.363C90.0476 140.235 89.771 140.15 89.4943 140.15C89.239 140.15 88.9411 140.086 88.856 140.001C88.7709 139.916 88.1964 139.725 87.6006 139.576C85.6005 139.108 83.9621 138.683 82.7706 138.343C82.1322 138.152 81.1747 137.897 80.6428 137.79C80.1108 137.663 79.4938 137.493 79.2597 137.386C78.7916 137.195 76.1957 136.536 75.2169 136.387C74.8765 136.323 74.4935 136.196 74.3658 136.111C74.2594 136.026 73.8126 135.877 73.4083 135.792C73.0041 135.707 71.8976 135.409 70.9614 135.112C69.0464 134.538 67.1101 133.964 65.2164 133.453C64.5142 133.262 63.5567 132.965 63.0886 132.816C62.6205 132.667 61.28 132.242 60.1097 131.88C53.5562 129.903 49.8751 128.734 49.3432 128.458C49.1517 128.351 48.6197 128.202 48.1729 128.117C47.7048 128.054 47.2579 127.905 47.1303 127.82C47.0239 127.735 46.2579 127.458 45.4281 127.203C44.6195 126.948 43.6407 126.587 43.2577 126.417C42.896 126.247 42.4492 126.119 42.2789 126.119C42.1087 126.119 41.6832 125.97 41.364 125.8C41.0236 125.63 40.5342 125.481 40.2788 125.481C40.0235 125.481 39.7682 125.396 39.6831 125.29C39.6192 125.184 39.2575 125.014 38.8958 124.929C38.5128 124.865 38.0659 124.716 37.8744 124.61C37.5127 124.397 34.8104 123.44 33.5125 123.036C33.0444 122.909 32.4273 122.696 32.1294 122.569C31.8316 122.441 31.0656 122.186 30.4272 121.973C29.7889 121.761 29.108 121.527 28.9165 121.421C28.725 121.336 28.1931 121.187 27.7462 121.102C27.2781 121.038 26.8313 120.911 26.7036 120.825C26.1929 120.507 23.7673 120.103 21.8097 120.018C19.7671 119.933 18.8734 120.081 16.9158 120.804C16.6818 120.911 15.8732 121.187 15.1072 121.442C13.5752 121.973 12.4262 122.42 11.873 122.718C11.6602 122.845 11.3411 122.93 11.1496 122.93C10.9581 122.93 10.5112 123.058 10.1495 123.228C9.7665 123.377 8.93667 123.738 8.29833 123.993C6.61739 124.673 6.38333 124.95 6.38333 126.119C6.38333 127.713 7.51106 129.839 9.14945 131.306C10.0431 132.114 12.6603 133.453 13.9369 133.794C14.6391 133.964 15.7456 134.346 16.7031 134.75C17.0648 134.878 17.5754 135.112 17.8733 135.218C19.2138 135.771 22.1502 137.068 23.4056 137.642C24.1716 138.003 25.3206 138.534 25.9589 138.811C26.5972 139.108 27.5547 139.534 28.0867 139.767C28.6186 140.001 29.3633 140.32 29.7463 140.49C30.1081 140.66 30.7464 140.915 31.1294 141.086C32.938 141.893 33.3848 142.063 33.5763 142.063C33.6827 142.063 34.3423 142.319 35.0232 142.616C35.7041 142.914 36.7042 143.318 37.2361 143.488C37.7681 143.658 39.0022 144.126 40.0022 144.508C41.0023 144.891 42.8109 145.508 44.045 145.89C45.2791 146.273 46.5132 146.677 46.8111 146.804C47.109 146.911 47.6835 147.081 48.0878 147.187C48.4921 147.272 49.3219 147.485 49.8964 147.676C50.4922 147.846 51.3858 148.101 51.9178 148.229C52.4497 148.378 53.1732 148.569 53.5136 148.696C53.8753 148.824 54.5349 148.994 55.0031 149.079C55.8542 149.27 56.8117 149.504 58.8331 150.036C62.5567 151.035 65.1313 151.63 65.7909 151.63C66.0888 151.63 66.5994 151.715 66.9399 151.843C67.6421 152.077 69.3443 152.374 72.4508 152.799C73.6211 152.948 74.8127 153.182 75.1106 153.288C76.0042 153.671 79.1108 153.565 80.7492 153.118ZM90.0688 139.002C90.5157 137.854 88.1113 134.41 86.8985 134.41C86.7495 134.41 86.3665 134.283 86.0261 134.113C85.1537 133.687 83.3238 133.135 82.7706 133.135C82.4939 133.135 81.7918 133.007 81.196 132.837C80.2598 132.561 78.6852 132.305 75.9617 131.944C75.5574 131.88 74.7488 131.71 74.1531 131.54C73.5786 131.37 72.2381 131.051 71.1742 130.817C70.1316 130.562 68.4932 130.137 67.5782 129.839C66.6633 129.542 65.7909 129.308 65.6632 129.308C65.2802 129.308 61.1949 128.011 60.5991 127.692C60.3012 127.522 59.8544 127.395 59.6416 127.395C59.4076 127.395 59.0458 127.246 58.8118 127.076C58.599 126.906 58.216 126.757 57.9607 126.757C57.7266 126.757 57.3436 126.608 57.1096 126.438C56.833 126.225 56.1733 126.14 55.0669 126.119C54.152 126.119 52.7263 125.991 51.8752 125.821C49.4708 125.354 47.8537 125.035 46.9175 124.843C46.4494 124.737 44.7684 124.333 43.1939 123.908C41.6193 123.483 39.8958 123.036 39.3639 122.909C38.8319 122.781 38.3213 122.59 38.2149 122.484C38.0872 122.377 37.8745 122.292 37.7042 122.292C37.534 122.292 37.1084 122.165 36.7467 121.995C36.3637 121.825 35.4913 121.506 34.7892 121.251C34.087 121.017 33.0018 120.592 32.4061 120.294C31.789 119.996 31.0868 119.741 30.8741 119.741C30.4485 119.741 27.4271 117.637 26.2355 116.489L25.5333 115.83L21.8736 115.83C18.3202 115.808 18.1499 115.83 17.1286 116.361C13.8944 118.019 12.8943 118.487 10.8942 119.103C8.48983 119.869 7.91533 120.337 6.91528 122.314C6.21311 123.653 6.53228 123.823 8.10683 122.994C9.04306 122.505 11.3836 121.548 13.9369 120.592C14.171 120.507 14.7242 120.273 15.1711 120.081C15.6179 119.89 16.0647 119.741 16.1924 119.741C16.3201 119.741 16.7243 119.614 17.0861 119.444C18.3414 118.87 19.4692 118.678 21.4906 118.7C23.4056 118.7 25.5546 119.018 26.1078 119.38C26.2355 119.465 26.7674 119.614 27.2781 119.72C27.7888 119.826 28.5761 120.06 29.0442 120.251C30.3847 120.762 34.0019 122.059 35.6403 122.611C36.4701 122.909 38.0872 123.483 39.2575 123.908C40.4278 124.312 41.7257 124.737 42.13 124.843C42.5343 124.929 44.0663 125.396 45.5344 125.885C49.2368 127.097 51.8114 127.905 53.3008 128.351C54.003 128.564 54.9179 128.84 55.3222 128.989C55.7265 129.138 56.6414 129.436 57.3436 129.627C58.0458 129.839 59.0033 130.137 59.4714 130.265C59.9395 130.413 60.897 130.69 61.5992 130.902C62.3013 131.115 63.5567 131.498 64.3653 131.774C65.1951 132.029 66.1952 132.305 66.5994 132.391C67.0037 132.476 68.0251 132.752 68.8336 133.028C69.6635 133.305 70.7061 133.602 71.1742 133.687C71.6423 133.751 72.1317 133.9 72.2381 134.006C72.4508 134.176 72.9828 134.325 75.5361 134.942C76.1745 135.112 77.2383 135.388 77.8767 135.579C79.4087 136.026 82.0471 136.749 82.9833 136.961C83.3876 137.068 84.26 137.301 84.8983 137.493C85.5367 137.684 86.5367 137.982 87.1112 138.152C87.6645 138.301 88.4305 138.619 88.8135 138.853C89.622 139.364 89.9199 139.385 90.0688 139.002ZM88.1751 133.581C88.239 133.496 88.1538 133.22 87.9836 133.007C87.7496 132.688 87.6432 132.667 87.4304 132.858C87.2176 133.071 87.2389 133.177 87.4517 133.453C87.7496 133.815 88.0049 133.857 88.1751 133.581ZM173.414 132.816C173.903 132.646 174.542 132.497 174.818 132.497C175.329 132.497 178.84 131.455 180.116 130.924C183.372 129.584 186.542 127.671 188.032 126.14C188.989 125.184 190.521 123.228 190.989 122.377C191.372 121.718 190.904 121.293 189.351 120.804C188.606 120.57 187.798 120.294 187.564 120.188C187.33 120.06 186.032 119.592 184.691 119.125C183.351 118.657 181.712 118.083 181.074 117.828C180.436 117.594 179.329 117.19 178.627 116.956C177.925 116.722 177.074 116.382 176.712 116.233C176.372 116.085 175.648 115.787 175.116 115.596C174.584 115.383 173.967 115.149 173.733 115.043C172.925 114.724 171.18 113.98 170.754 113.789C170.52 113.682 169.478 113.257 168.414 112.832C166.009 111.833 165.924 111.812 164.264 111.067C163.498 110.727 161.583 109.877 160.009 109.218C158.434 108.538 156.349 107.623 155.37 107.177C154.413 106.709 153.562 106.348 153.498 106.348C153.434 106.348 152.2 105.774 150.796 105.094C149.37 104.413 147.54 103.542 146.71 103.159C144.774 102.266 133.561 96.7175 133.412 96.5687C133.348 96.5049 132.837 96.2498 132.241 95.9734C131.667 95.6971 130.986 95.3782 130.752 95.2506C128.837 94.1664 124.39 92.0192 123.135 91.5728C122.283 91.2539 121.432 90.9137 121.241 90.8074C120.751 90.5523 118.134 90.1059 117.241 90.1271C116.262 90.1484 113.517 90.5523 112.687 90.8074C112.325 90.935 111.262 91.2113 110.325 91.4665C108.581 91.9129 106.836 92.4019 105.602 92.7633C105.219 92.8908 104.41 93.0822 103.793 93.1885C103.176 93.2948 102.261 93.4648 101.75 93.5711C101.24 93.6562 100.729 93.8475 100.601 93.9751C100.452 94.1239 100.155 94.2302 99.9417 94.2302C99.729 94.2302 99.2608 94.4002 98.9204 94.5916C98.3246 94.953 98.3033 94.9955 98.3033 96.7813C98.3033 97.9718 98.4097 98.8009 98.6225 99.2048C98.7927 99.5237 98.9417 99.8851 98.9417 99.9914C98.9417 100.353 100.325 102.224 101.261 103.138C102.24 104.073 104.538 105.689 105.751 106.263C106.176 106.475 110.921 109.367 113.049 110.727C113.943 111.301 114.857 111.875 115.07 111.982C115.496 112.237 117.475 113.512 119.092 114.554C119.688 114.958 120.241 115.277 120.326 115.277C120.411 115.277 121.262 115.787 122.198 116.404C123.879 117.488 124.645 117.934 127.241 119.21C127.879 119.55 128.56 119.89 128.731 119.975C130.348 120.868 137.22 124.206 137.433 124.206C137.582 124.206 137.965 124.333 138.263 124.503C138.582 124.652 139.221 124.971 139.689 125.162C140.157 125.375 140.795 125.673 141.114 125.843C141.412 125.991 141.795 126.119 141.944 126.119C142.093 126.119 142.987 126.417 143.923 126.778C146.646 127.82 147.051 127.969 148.413 128.351C149.115 128.564 149.923 128.819 150.221 128.947C150.519 129.053 151.136 129.223 151.604 129.329C152.689 129.521 156.604 130.498 157.966 130.902C158.519 131.072 159.222 131.221 159.52 131.221C159.796 131.221 160.243 131.328 160.498 131.476C160.945 131.71 161.243 131.795 163.945 132.305C164.647 132.433 165.839 132.667 166.605 132.816C168.626 133.198 172.307 133.198 173.414 132.816ZM91.92 130.902C92.5583 130.711 93.4307 130.413 93.835 130.222C94.2393 130.052 94.8776 129.776 95.2181 129.648C96.5373 129.095 99.5162 127.543 100.75 126.736C101.112 126.523 101.538 126.268 101.708 126.204C102.708 125.779 104.836 124.78 105.112 124.61C105.282 124.503 105.58 124.355 105.751 124.291C106.644 123.951 109.347 122.866 109.9 122.633C110.879 122.207 111.857 121.888 113.836 121.293C114.836 121.017 115.943 120.634 116.283 120.485C117.177 120.103 118.453 119.72 121.496 118.955C122.624 118.678 122.517 118.232 121.241 117.637C120.326 117.211 116.155 114.767 113.964 113.363C110.581 111.195 106.814 108.899 106.666 108.899C106.602 108.899 106.197 108.623 105.772 108.304C104.751 107.496 103.708 107.092 103.346 107.347C102.516 107.985 99.6864 108.665 95.2181 109.324C93.3882 109.579 90.1539 110.302 89.4731 110.579C89.239 110.685 87.9411 111.11 86.6006 111.556C84.0685 112.343 83.8557 112.428 82.4939 113.023C82.0471 113.215 81.6003 113.363 81.4726 113.363C81.0045 113.363 74.2169 116.616 73.5573 117.148C73.4083 117.275 72.5785 117.743 71.7061 118.211C70.8337 118.657 69.5783 119.359 68.94 119.72C68.3017 120.103 66.9612 120.847 65.9611 121.378C64.9611 121.91 63.578 122.654 62.8758 123.036C62.1737 123.419 60.9821 123.929 60.2161 124.206C59.4501 124.461 58.7054 124.801 58.5352 124.971C58.2798 125.205 58.3224 125.29 58.8543 125.481C59.1948 125.609 59.8969 125.821 60.4289 125.949C60.9608 126.077 61.7268 126.289 62.1311 126.438C62.5354 126.587 63.4503 126.884 64.1525 127.076C64.8547 127.288 65.8122 127.586 66.2803 127.735C66.7484 127.862 67.7485 128.16 68.5145 128.351C69.2804 128.564 70.3231 128.861 70.8337 129.01C71.3657 129.18 72.0678 129.308 72.387 129.308C72.7275 129.308 73.1956 129.414 73.4296 129.542C73.8552 129.754 74.3658 129.861 77.2383 130.35C78.0043 130.477 79.43 130.732 80.43 130.902C83.0472 131.37 83.5791 131.391 87.3453 131.328C89.771 131.285 91.0902 131.158 91.92 130.902ZM58.1947 123.462C59.748 122.845 64.1099 120.762 65.5356 119.954C65.7058 119.848 66.5782 119.337 67.4506 118.827C68.323 118.317 69.9188 117.445 70.9614 116.871C72.0253 116.319 73.0253 115.745 73.1956 115.617C73.7062 115.213 78.7065 112.811 80.3236 112.194C82.9195 111.174 85.1962 110.366 85.8558 110.196C86.6857 109.962 88.7283 109.324 89.2603 109.112C89.9837 108.835 92.7498 108.283 95.1117 107.964C98.1331 107.538 100.772 107.177 101.921 107.049C103.282 106.901 103.346 106.688 102.304 106.072C100.048 104.753 97.5161 101.607 96.8139 99.2261C96.1543 96.9726 96.5798 92.9121 97.7288 90.6161C98.4523 89.1492 99.8779 87.5335 100.75 87.2146C101.367 86.9808 101.665 86.428 101.367 86.0453C99.4523 83.5368 97.9842 79.8376 97.3671 75.9259C97.1756 74.7992 96.899 73.5874 96.7288 73.2685C96.1756 72.1205 95.75 71.0363 95.75 70.7174C95.75 70.5473 95.4734 69.5694 95.1329 68.549C94.5159 66.6357 94.1329 65.3388 93.5158 62.9791C93.3031 62.2137 92.8775 60.7043 92.5371 59.5988C92.1966 58.4934 91.92 57.3454 91.92 57.0052C91.92 56.6863 91.7923 56.1548 91.6221 55.8147C91.0476 54.6879 90.6433 53.6037 90.6433 53.2848C90.6433 52.8384 89.9837 50.8188 89.7284 50.4999C89.4943 50.181 88.1751 50.1172 88.0049 50.4148C87.9411 50.4999 87.1963 50.7975 86.3452 51.0526C85.4941 51.329 84.0685 51.7754 83.1961 52.0518C82.3237 52.3494 81.2173 52.6896 80.7492 52.7959C80.3023 52.9234 79.813 53.0935 79.6853 53.1785C79.5789 53.2848 79.2384 53.4124 78.9406 53.4762C78.6427 53.5399 77.8767 53.7951 77.2383 54.0502C76.6 54.3053 75.7915 54.6029 75.4297 54.6879C74.2807 55.0281 71.1954 56.1336 70.1103 56.6013C69.5358 56.8564 68.7698 57.154 68.4081 57.2391C67.4506 57.4942 64.5355 58.5996 63.1099 59.2374C62.429 59.5351 61.7056 59.7902 61.5141 59.7902C61.3013 59.7902 60.9608 59.939 60.7268 60.1091C60.514 60.2791 60.1523 60.4279 59.9395 60.4279C59.7055 60.4279 59.2799 60.5555 58.982 60.7256C58.6628 60.8956 57.5564 61.3846 56.4925 61.8098C55.4499 62.235 54.3434 62.6814 54.0456 62.809C52.7902 63.3617 52.1093 63.6381 49.79 64.5735C47.6197 65.4664 45.8111 66.2317 43.7258 67.1246C42.2577 67.7411 39.8533 68.7828 39.2149 69.0592C38.8319 69.2293 38.1936 69.4844 37.8319 69.6545C37.4489 69.8245 36.9808 70.0159 36.8106 70.0797C36.6403 70.1434 36.3424 70.2922 36.1722 70.4198C36.002 70.5261 35.3849 70.8237 34.7892 71.0788C34.2147 71.3127 32.9593 71.8867 32.0231 72.3331C31.0868 72.7796 29.3633 73.5874 28.1931 74.1402C27.0228 74.6716 25.9163 75.2031 25.7461 75.3094C25.5759 75.3945 23.8098 76.3086 21.8097 77.3078C15.9371 80.2841 13.8093 81.5384 13.5327 82.2187C13.3199 82.8139 13.3837 84.4084 13.7029 85.6839C14.2561 87.8949 14.5114 89.0216 14.6817 89.7657C14.7881 90.1696 14.9583 90.8074 15.0647 91.1476C15.1923 91.509 15.4902 92.5082 15.7456 93.3798C16.0009 94.2514 16.2775 95.1656 16.3839 95.3994C16.4903 95.6333 16.7243 96.3561 16.9158 96.9939C17.3414 98.3332 17.7882 99.5875 18.1925 100.502C18.3414 100.863 18.6181 101.565 18.8308 102.096C19.0223 102.628 19.4266 103.542 19.7032 104.158C19.9798 104.775 20.299 105.476 20.4054 105.753C20.7458 106.646 22.98 110.196 24.2567 111.897C26.3419 114.597 29.491 117.254 32.1082 118.487C32.8742 118.848 33.7678 119.274 34.087 119.444C34.3849 119.614 34.853 119.741 35.1083 119.741C35.3637 119.741 35.8318 119.869 36.1297 120.039C37.2574 120.613 38.3213 121.017 38.7256 121.017C38.9596 121.017 39.449 121.144 39.832 121.314C40.215 121.485 41.1512 121.782 41.9172 121.973C42.6832 122.165 43.7258 122.462 44.2578 122.633C44.7897 122.803 45.4281 122.93 45.7047 122.93C45.96 122.93 46.726 123.058 47.4069 123.228C48.4708 123.504 51.4284 124.036 53.3008 124.291C54.6839 124.482 56.3436 124.206 58.1947 123.462ZM191.372 120.209C191.543 119.933 190.883 117.785 190.5 117.318C189.245 115.787 187.415 114.66 183.414 112.875C182.776 112.577 181.585 112.045 180.755 111.663C179.946 111.301 178.882 110.812 178.414 110.6C177.946 110.387 177.031 109.983 176.393 109.686C175.754 109.409 174.691 108.942 174.052 108.686C173.414 108.431 172.265 107.921 171.499 107.581C170.733 107.22 169.839 106.816 169.478 106.667C169.137 106.518 168.201 106.114 167.414 105.731C166.626 105.37 165.924 105.072 165.882 105.072C165.818 105.072 165.158 104.796 164.413 104.435C163.647 104.094 162.967 103.797 162.903 103.797C162.86 103.797 161.881 103.372 160.775 102.84C159.647 102.309 158.69 101.883 158.647 101.883C158.583 101.883 157.605 101.458 156.456 100.927C153.668 99.63 153.775 99.6725 151.604 98.7796C150.562 98.3332 149.498 97.8442 149.264 97.6954C149.03 97.5466 148.732 97.4191 148.561 97.4191C148.413 97.4191 147.71 97.1427 146.987 96.7813C146.285 96.4411 145.625 96.1435 145.54 96.1435C145.434 96.1435 144.434 95.7183 143.327 95.1868C142.199 94.6553 141.178 94.2302 141.072 94.2302C140.965 94.2302 140.221 93.9325 139.433 93.5711C134.646 91.4027 133.837 91.0413 133.561 91.0413C133.412 91.0413 133.114 90.9137 132.88 90.7649C132.646 90.5948 131.263 89.9783 129.794 89.3618C127.39 88.3413 125.518 87.5122 124.369 86.9808C124.135 86.8745 123.666 86.7044 123.305 86.5981C122.964 86.4918 122.134 86.1942 121.496 85.9391C120.858 85.6839 119.751 85.3651 119.049 85.2588C117.39 85.0036 114.07 85.1737 113.155 85.5776C111.496 86.3217 109.517 87.0233 108.517 87.2146C107.9 87.3209 107.325 87.4697 107.219 87.5335C107.134 87.5973 106.24 87.7461 105.282 87.8524C101.091 88.2776 100.325 88.8516 98.6863 92.742C98.2395 93.7837 98.4097 94.1239 99.1119 93.6136C99.9205 93.0396 101.197 92.5294 102.623 92.1893C104.41 91.7428 106.134 91.3176 107.453 90.9562C108.091 90.7862 109.049 90.5311 109.581 90.4035C110.113 90.2547 110.73 90.0846 110.964 89.9783C112.942 89.213 115.411 88.8728 118.092 88.9791C120.092 89.0642 120.837 89.213 122.241 89.7232C123.177 90.0634 124.135 90.446 124.369 90.5736C124.603 90.7011 125.284 91.02 125.858 91.2751C126.454 91.509 128.262 92.4019 129.901 93.231C139.625 98.1419 144.412 100.523 146.285 101.373C147.455 101.926 149.689 102.968 151.221 103.712C152.774 104.456 154.115 105.072 154.2 105.072C154.285 105.072 154.987 105.37 155.753 105.731C156.519 106.093 157.434 106.518 157.775 106.667C158.136 106.837 158.902 107.156 159.477 107.432C160.073 107.687 161.413 108.261 162.456 108.729C163.52 109.175 164.562 109.643 164.796 109.749C165.03 109.856 165.711 110.132 166.286 110.387C166.882 110.642 167.541 110.919 167.775 111.025C168.009 111.131 168.797 111.471 169.52 111.769C170.265 112.067 171.371 112.534 172.01 112.832C172.648 113.13 173.308 113.363 173.456 113.363C173.627 113.363 173.839 113.449 173.967 113.534C174.074 113.64 174.776 113.938 175.542 114.214C176.308 114.49 177.031 114.767 177.138 114.852C177.265 114.937 178.35 115.362 179.584 115.787C180.819 116.233 182.01 116.68 182.244 116.786C182.478 116.893 183.244 117.169 183.946 117.424C184.649 117.658 185.521 117.998 185.904 118.168C186.266 118.338 186.67 118.466 186.798 118.466C187.117 118.466 190.202 119.954 190.33 120.188C190.479 120.422 191.223 120.443 191.372 120.209ZM10.1708 117.637C10.5963 117.403 11.3836 117.063 11.9156 116.85C12.7454 116.552 14.3412 115.83 16.1711 114.958C16.469 114.83 17.1286 114.597 17.6606 114.448C18.1925 114.299 18.8521 114.086 19.1287 113.959L19.6394 113.767L19.0011 113.087C18.0861 112.088 17.235 110.876 17.235 110.557C17.235 110.408 17.0861 110.005 16.8946 109.643C15.8307 107.645 15.3626 105.115 15.2136 100.821C15.0859 97.0789 14.8732 95.9522 13.7242 92.742C12.8518 90.361 11.6177 84.9611 11.6177 83.6005C11.6177 83.1966 11.7028 82.5376 11.8092 82.1762C11.9368 81.5596 11.9156 81.4746 11.5538 81.4746C11.0644 81.4746 8.93667 79.3274 8.93667 78.8597C8.93667 78.6896 8.68133 77.9881 8.38344 77.3078C8.08556 76.6062 7.70256 75.6283 7.55361 75.0968C7.40467 74.5654 7.04294 73.4811 6.74506 72.652C6.00033 70.5473 5.31944 70.5473 5.34072 72.652C5.362 73.5449 4.93644 77.8818 4.80878 78.392C4.27683 80.2203 3.91511 100.884 4.31939 105.604C4.70239 110.175 5.57478 112.96 7.80895 116.765C8.63878 118.211 8.89411 118.296 10.1708 117.637ZM196.288 116.425C197.351 116.34 198.5 116.148 198.841 116C200.543 115.277 202.352 112.917 202.352 111.408C202.352 111.025 202.437 110.408 202.522 110.068C202.841 108.984 201.99 86.0241 201.501 82.7502C201.394 81.9848 201.203 80.0715 201.075 78.4983C200.947 76.9251 200.756 75.2882 200.649 74.8842C200.543 74.4803 200.394 73.0985 200.33 71.8229C200.245 70.5473 200.096 69.2718 199.99 68.9954C199.883 68.7191 199.798 68.1451 199.798 67.7199C199.798 66.4443 199.117 64.6373 198.181 63.4042C197.011 61.8523 192.755 57.4091 186.585 51.2865C179.606 44.3772 179.031 43.8245 174.371 39.7002C173.456 38.8923 172.052 37.638 171.286 36.9577C170.52 36.2774 168.754 34.768 167.35 33.5988C165.945 32.4508 164.562 31.3028 164.264 31.0477C163.967 30.7925 162.541 29.6658 161.073 28.5603C159.605 27.4548 158.328 26.4557 158.2 26.3706C156.945 25.3502 151.838 21.7148 150.668 20.992C150.476 20.8857 149.987 20.5243 149.583 20.2267C149.179 19.9291 148.753 19.6314 148.625 19.5889C148.519 19.5464 147.412 18.8448 146.178 18.0157C143.689 16.3575 143.242 16.0811 142.774 15.8685C142.604 15.7835 142.072 15.4646 141.604 15.1457C141.136 14.8268 140.604 14.5079 140.433 14.4229C140.263 14.3379 139.923 14.1678 139.689 14.019C139.455 13.8702 138.455 13.2962 137.476 12.7009C136.518 12.1269 135.178 11.3403 134.518 10.9577C133.837 10.5962 133.071 10.1498 132.773 10.001C131.858 9.4695 128.05 7.42862 126.603 6.7058C125.837 6.30188 125.071 5.89795 124.901 5.79165C124.73 5.68536 124.432 5.5578 124.262 5.49402C124.092 5.43025 123.794 5.28143 123.624 5.17513C123.454 5.06884 123.156 4.92002 122.986 4.85625C122.815 4.79247 122.517 4.64365 122.347 4.53736C121.539 4.02713 119.113 3.02795 118.666 3.02795C118.262 3.02795 118.113 3.19802 117.921 3.8358C117.645 4.83499 117.07 7.89632 116.921 9.29943C116.858 9.89469 116.751 10.8939 116.687 11.5317C116.624 12.1694 116.538 12.7434 116.475 12.8285C116.432 12.9135 116.219 16.0386 116.006 19.759C115.304 32.8759 115.623 57.643 116.624 65.3176C116.73 66.1892 116.858 67.3372 116.921 67.8687C117.07 69.8883 118.581 75.5433 119.134 76.2448C119.241 76.3724 119.39 76.7125 119.475 76.9889C119.56 77.2653 120.219 78.4558 120.943 79.6038C121.645 80.7731 122.347 81.9211 122.496 82.1762C122.645 82.4313 123.22 83.1966 123.773 83.8982C124.709 85.0249 125.326 85.4714 126.816 86.1091C128.071 86.6406 128.901 87.002 129.837 87.4059C130.39 87.6611 130.88 87.8524 130.965 87.8524C131.071 87.8524 133.22 88.8091 134.476 89.4468C134.773 89.5744 135.603 89.9145 136.348 90.1909C137.071 90.446 137.731 90.7649 137.795 90.8499C137.859 90.9562 138.114 91.0413 138.391 91.0413C138.646 91.0413 138.944 91.1263 139.072 91.2326C139.178 91.3389 140.455 91.9342 141.923 92.5507C143.391 93.1672 144.774 93.7837 145.008 93.9538C145.242 94.1026 145.54 94.2302 145.689 94.2302C145.838 94.2302 146.604 94.5278 147.391 94.8892C148.2 95.2293 149.136 95.6545 149.476 95.8034C150.711 96.3348 153.115 97.3978 154.541 98.0356C155.328 98.397 156.009 98.6946 156.073 98.6946C156.136 98.6946 156.775 98.971 157.519 99.3111C158.243 99.6513 159.775 100.374 160.924 100.906C162.073 101.437 163.137 101.883 163.264 101.883C163.413 101.883 164.137 102.181 164.903 102.564C165.669 102.925 166.584 103.35 166.924 103.499C168.669 104.243 171.01 105.285 173.265 106.327C174.052 106.688 174.733 106.986 174.776 106.986C174.84 106.986 175.669 107.347 176.648 107.815C178.414 108.623 184.308 111.28 184.904 111.535C185.074 111.599 185.372 111.748 185.542 111.854C185.712 111.96 186.223 112.215 186.691 112.407C188.67 113.278 190.819 114.873 191.989 116.319C192.33 116.744 192.521 116.807 193.372 116.701C193.926 116.616 195.245 116.51 196.288 116.425ZM23.7247 114.001C23.7886 113.895 23.4056 113.342 22.8736 112.789C21.6395 111.514 19.3628 107.751 18.1499 104.987C17.6393 103.839 17.235 102.776 17.235 102.67C17.235 102.33 16.5116 100.842 16.3413 100.821C16.0222 100.821 15.9371 101.883 16.1711 102.883C16.2988 103.435 16.4903 104.35 16.5967 104.902C16.7031 105.455 16.8733 106.093 17.0009 106.327C17.1286 106.561 17.235 106.901 17.235 107.092C17.235 107.411 17.5116 108.07 18.4478 110.175C18.6393 110.579 19.2138 111.599 19.7245 112.407C20.6182 113.852 20.682 113.895 21.6608 114.023C23.2992 114.235 23.5971 114.214 23.7247 114.001ZM106.07 85.854C106.772 85.769 107.644 85.6202 107.985 85.5139C110.198 84.8548 111.623 84.4084 111.815 84.2596C112.411 83.8131 114.602 83.3667 116.304 83.3454C118.73 83.3029 120.049 83.5155 121.432 84.1745C122.049 84.4509 122.645 84.621 122.773 84.5572C122.9 84.4722 122.603 83.9619 122.071 83.3242C120.773 81.7722 119.539 80.029 119.007 78.9873C118.751 78.4983 118.453 77.9243 118.326 77.7117C117.538 76.2874 116.241 72.2906 116.07 70.6962C116.006 70.0159 115.836 69.2293 115.73 68.9316C115.368 67.9537 114.581 58.0894 114.283 50.4361C114.028 44.1646 114.028 33.6838 114.283 27.5824C114.645 18.3984 115.368 8.61913 115.751 7.81128C115.858 7.57743 115.985 7.00343 116.07 6.53573C116.134 6.06802 116.389 5.13262 116.645 4.45232C117.113 3.17676 117.049 2.77284 116.432 3.17676C115.858 3.55943 112.921 5.00506 106.602 8.00262C101.942 10.2136 100.623 11.2128 100.112 12.956C99.4949 15.0394 98.8778 20.1417 98.5161 25.9879C98.3885 27.9225 98.197 30.0485 98.0693 30.7075C97.431 34.3216 97.3884 63.1066 98.0267 65.4026C98.1757 65.9766 98.3033 67.2309 98.3033 68.1663C98.3246 69.123 98.4097 70.6111 98.5374 71.4828C98.6438 72.3544 98.8353 73.8 98.9417 74.6716C99.197 76.6913 99.6438 78.6896 99.963 79.2849C100.112 79.54 100.218 79.9014 100.218 80.114C100.218 80.8793 102.623 85.6839 103.261 86.1942C103.644 86.4918 103.793 86.4918 104.261 86.2579C104.559 86.1091 105.368 85.9178 106.07 85.854ZM13.788 79.5613C14.2774 79.2211 14.7242 78.9235 14.7668 78.9235C14.8093 78.9235 15.8307 78.3708 17.0435 77.6905C19.1926 76.4999 29.6399 71.2702 29.874 71.2702C30.0017 71.2702 32.4061 70.1647 35.4275 68.7191C37.534 67.7199 42.5768 65.5302 42.8109 65.5302C42.896 65.5302 43.7258 65.19 44.6195 64.7648C46.5558 63.8932 47.2792 63.5743 48.3006 63.1916C48.7048 63.0216 49.2368 62.7665 49.4708 62.6176C49.7049 62.4688 50.0453 62.3413 50.2368 62.3413C50.4496 62.3413 50.8752 62.2137 51.2156 62.0436C51.5348 61.8948 52.1731 61.5972 52.6199 61.4059C53.0455 61.2358 53.7264 60.9382 54.1094 60.7681C54.4711 60.6193 55.5563 60.1728 56.4925 59.7902C57.4287 59.4075 58.8543 58.8335 59.6629 58.4934C60.4715 58.1532 61.2374 57.8768 61.3864 57.8768C61.5141 57.8768 61.9183 57.7493 62.2588 57.5792C62.5992 57.4304 64.8972 56.5588 67.3442 55.6446C69.8124 54.7517 72.4296 53.7738 73.1956 53.4762C73.9616 53.1785 74.8765 52.8596 75.2169 52.7534C75.5787 52.6683 76.3872 52.3919 77.0256 52.1368C77.6639 51.8817 78.4937 51.6054 78.8342 51.4991C79.1959 51.3928 79.7704 51.2227 80.1108 51.0951C82.111 50.3723 84.0259 49.7345 84.6856 49.607C86.7921 49.1605 88.0687 48.544 88.5156 47.7999C88.7709 47.3535 88.7922 47.1622 88.5581 46.5669C88.1326 45.5252 87.6645 43.867 87.4517 42.719C87.3453 42.1662 87.0261 41.0182 86.7282 40.1466C86.4303 39.275 86.175 38.4034 86.175 38.212C86.175 37.9994 85.8984 36.9577 85.558 35.8948C85.2175 34.8318 84.792 33.3437 84.5792 32.5783C84.1962 31.1114 83.6855 29.3044 82.8344 26.5194C82.5578 25.584 82.1748 24.2872 81.9833 23.6494C81.8131 23.0117 81.5152 22.1613 81.3662 21.7786C81.196 21.3959 81.0683 20.9282 81.0683 20.7157C81.0683 20.3755 80.7492 19.2913 80.1108 17.4842C79.9619 17.0803 79.7278 16.4 79.6002 15.9961C79.4512 15.5922 79.2385 14.8906 79.1321 14.4442C78.8555 13.3387 78.1533 11.9781 77.4937 11.2553C77.0468 10.7876 76.983 10.5962 77.1532 10.2986C77.9192 9.1081 79.9406 11.234 80.8556 14.1891C81.0045 14.6568 81.2386 15.3796 81.4088 15.7835C81.5577 16.1874 81.8131 17.0165 81.9833 17.5905C82.7918 20.3542 83.26 21.8849 83.4089 22.3739C83.494 22.6715 83.7281 23.4794 83.9408 24.1809C84.5366 26.2856 84.8132 27.306 85.1962 28.5816C85.3877 29.2619 85.6856 30.3674 85.8771 31.0264C86.0473 31.7067 86.324 32.6846 86.4942 33.2161C86.6431 33.7476 86.8346 34.5129 86.9197 34.9168C87.0048 35.3208 87.2815 36.3837 87.5581 37.2554C87.8134 38.127 88.1964 39.4663 88.4092 40.2317C88.6219 40.997 88.8986 41.9962 89.0475 42.4639C89.4731 43.8457 89.7922 45.2914 89.7922 45.9291C89.7922 46.9071 90.1752 47.0984 90.9838 46.4819C92.1541 45.5677 92.303 44.6323 91.6008 42.4639C91.4519 41.9962 91.154 41.0395 90.9625 40.3379C90.7497 39.6364 90.4731 38.7222 90.3242 38.3183C89.8348 36.9577 89.3667 35.2145 89.3667 34.7468C89.3667 34.4916 89.239 33.9814 89.0688 33.5988C88.8986 33.2161 88.6007 32.3232 88.4092 31.6217C88.0049 30.1973 87.6432 29.0068 87.2389 27.9013C87.1112 27.4974 86.8985 26.8171 86.8133 26.4131C86.7069 26.0092 86.4303 24.9462 86.175 24.0746C85.941 23.203 85.6431 22.14 85.558 21.7361C85.4516 21.3322 85.2813 20.7582 85.1537 20.4605C85.0473 20.1629 84.7707 19.3125 84.5579 18.5472C84.2175 17.2504 83.1748 14.019 82.4514 11.9994C81.9833 10.6813 81.1535 9.51202 80.1747 8.85299C79.0257 8.04513 77.749 8.04513 76.0468 8.85299C73.7488 9.93721 64.3653 14.5292 64.0461 14.7205C63.7695 14.8906 60.514 16.5063 53.3008 20.0779C52.1306 20.6519 51.0241 21.2046 50.8539 21.3109C50.6837 21.3959 46.4281 23.5006 41.3853 25.9879C36.3637 28.454 32.0869 30.5587 31.9167 30.6437C30.6187 31.3453 28.2994 32.4933 26.4908 33.3224C25.3206 33.8539 24.2141 34.3854 24.0439 34.4916C23.6396 34.7468 17.3627 37.8294 15.5328 38.701C13.7454 39.5301 12.5539 40.1254 9.68139 41.5497C8.40472 42.2088 6.76633 42.9954 6.06417 43.293C3.57467 44.4197 3.31933 44.6111 2.65972 45.9079C1.59583 47.9488 1.48944 48.5653 1.78733 50.8613C2.08522 52.9234 2.40439 54.4966 2.80867 55.6446C2.93633 56.006 3.08528 56.6651 3.17039 57.1328C3.36189 58.0894 4.25556 60.9169 5.06411 62.9791C5.362 63.7444 5.68117 64.7011 5.76628 65.105C5.85139 65.5089 6.21311 66.6144 6.55356 67.5498C6.91528 68.4852 7.31956 69.5907 7.4685 69.9946C7.59617 70.3985 8.00044 71.3339 8.31961 72.0568C8.66006 72.8008 8.93667 73.4599 8.93667 73.5449C8.93667 73.8638 10.9581 78.6259 11.2772 79.0511C11.5964 79.4762 12.5326 80.1991 12.7879 80.1991C12.8518 80.1991 13.3199 79.9227 13.788 79.5613ZM188.798 50.5211C188.713 50.1597 188.245 48.8417 187.947 48.1614C187.798 47.7999 187.67 47.311 187.67 47.0771C187.67 46.8433 187.521 46.5457 187.351 46.3968C187.181 46.248 187.032 45.9716 187.032 45.7803C187.01 45.589 186.713 44.8237 186.33 44.0583C185.564 42.5276 184.925 42.1237 183.904 42.4851C183.436 42.6339 183.287 42.8891 183.053 43.8245L182.755 44.9725L184.542 46.8008C185.521 47.7999 186.798 49.1393 187.351 49.7558C188.266 50.7337 188.925 51.0951 188.798 50.5211ZM126.603 4.34602C126.603 4.15469 126.284 3.49565 125.901 2.92165C125.284 1.94373 125.135 1.85869 124.284 1.79491C123.645 1.75239 123.241 1.83743 122.964 2.09254C122.39 2.60276 122.454 2.73032 123.475 3.21928C123.964 3.45313 124.709 3.89958 125.113 4.17595C126.007 4.81373 126.603 4.8775 126.603 4.34602Z" fill="rgb(0,0,0)" fill-rule="nonzero" transform="matrix(1,0,0,-1,39.4136,229.359)" />
			<path id="矢量 383" d="M16.8516 56.2733C16.6601 56.0181 14.1494 50.8947 13.8089 50.0656C13.7025 49.8317 13.3408 49.0026 13.0004 48.2373C12.6599 47.4719 12.2982 46.5578 12.2131 46.1751C12.1493 45.8137 11.979 45.4523 11.8726 45.3885C11.7663 45.3035 11.6811 45.0909 11.6811 44.8996C11.6811 44.7082 11.5535 44.283 11.3833 43.9641C11.213 43.6453 11.0215 43.0713 10.9364 42.6886C10.8513 42.3059 10.7024 41.902 10.6173 41.7744C10.5321 41.6681 10.2555 40.839 10.0002 39.9674C9.72359 39.0958 9.44698 38.1816 9.34059 37.9478C9.17037 37.5438 8.97887 36.8423 8.42565 34.6101C8.2767 34.0786 8.10648 33.5471 8.00009 33.4621C7.91498 33.377 7.85115 33.0794 7.85115 32.7818C7.85115 32.5054 7.72348 31.9739 7.55326 31.6125C7.38304 31.2299 7.14898 30.507 7.04259 29.9756C6.91492 29.4441 6.68087 28.5512 6.51065 27.9559C6.02126 26.2552 4.87226 22.1096 4.53181 20.7278C4.36159 20.0262 4.08498 18.9207 3.91476 18.283C3.4892 16.6673 2.99981 14.5839 2.63809 13.0744C2.48915 12.3729 2.19126 11.1824 2.02104 10.417C1.40398 7.95096 1.06354 6.50533 0.82948 5.31482C0.701813 4.67704 0.510313 3.86918 0.403924 3.50778C0.297536 3.16763 0.148591 2.23222 0.0847579 1.44563C-0.0641866 0.085037 -0.0429088 0 0.361369 0C0.808202 0 0.957147 0.382667 1.5742 3.08259C1.99976 4.86837 2.44659 6.69667 2.85087 8.18481C3.04237 8.88637 3.31898 10.0344 3.4892 10.7359C3.99987 12.9681 4.68076 15.7956 4.97865 16.9011C5.34037 18.1767 6.27659 21.7695 6.65959 23.3852C6.82981 24.023 7.1277 25.0859 7.3192 25.7237C7.5107 26.3615 7.78731 27.4244 7.93626 28.0622C8.21287 29.2315 8.91504 31.6338 9.44698 33.2707C9.59592 33.7384 9.78742 34.4613 9.87253 34.8652C9.93637 35.2691 10.0853 35.8006 10.1917 36.0344C10.4258 36.6084 10.9577 38.4155 11.1279 39.2446C11.213 39.606 11.7875 41.2855 12.4259 42.965C13.0642 44.6444 13.5961 46.1113 13.5961 46.1964C13.5961 46.4515 14.4685 48.4073 16.4474 52.5742C17.107 53.9347 17.6389 55.3379 17.6389 55.678C17.6389 56.337 17.1495 56.6984 16.8516 56.2733Z" fill="rgb(0,0,0)" fill-rule="nonzero" transform="matrix(1,0,0,-1,208.208,74.8228)" />
			<path id="矢量 384" d="M2.09308 16.6377C1.85902 16.574 1.26325 16.3826 0.75258 16.2126C-0.0346977 15.9149 -0.119809 15.8299 0.114247 15.5535C0.327024 15.2772 0.773857 15.2559 2.94419 15.3622C4.49747 15.4472 5.9018 15.426 6.56141 15.2772C7.15719 15.1709 8.73174 14.9795 10.0722 14.852C13.115 14.6181 17.4556 14.0654 17.7322 13.8953C17.8386 13.8315 18.7749 13.6402 19.7962 13.4701C20.8388 13.3 22.307 13.0237 23.0942 12.8323C23.9028 12.6623 25.1795 12.3646 25.9667 12.1733C26.7753 11.982 27.8605 11.7481 28.4137 11.6631C28.9882 11.5568 29.5414 11.408 29.6691 11.3229C29.7967 11.2592 30.4351 11.0678 31.0947 10.919C31.7756 10.7702 32.8395 10.4938 33.4778 10.3025C34.5842 9.96235 35.1162 9.81353 37.7972 9.00568C38.393 8.81435 39.2866 8.58049 39.7547 8.45294C40.2228 8.34664 40.7973 8.17657 41.0314 8.07027C41.2655 7.96398 41.6485 7.81516 41.8825 7.77264C42.1166 7.70886 43.2656 7.30494 44.4358 6.87975C45.6061 6.45457 46.8615 6.02938 47.202 5.92309C48.0743 5.68924 49.1808 5.28531 50.0745 4.9239C50.4787 4.75383 51.7767 4.28613 52.947 3.90346C54.1172 3.49953 55.7556 2.94679 56.5642 2.67042C58.6068 1.96887 62.1815 0.863387 62.9475 0.693313C63.3092 0.629535 64.0327 0.416942 64.5646 0.246868C65.8838 -0.157057 67.8201 -0.050761 67.9052 0.459461C67.9691 0.735831 67.8414 0.820868 67.3094 0.820868C66.7562 0.820868 65.6498 1.1185 63.4794 1.84131C63.3092 1.90509 62.7773 2.07516 62.3092 2.20272C61.4368 2.47909 57.8196 3.7759 54.0108 5.15775C52.8406 5.6042 51.032 6.24198 49.9681 6.60338C48.9255 6.94353 47.7765 7.36872 47.4147 7.49627C45.3933 8.34664 33.8395 11.9607 30.7117 12.726C30.3074 12.8323 29.3925 13.0449 28.6903 13.2363C27.9881 13.4063 26.6902 13.704 25.8178 13.8953C24.9454 14.0866 23.7964 14.3418 23.2645 14.4693C22.7325 14.5756 21.775 14.7669 21.1367 14.852C18.8387 15.1921 15.6896 15.7449 14.9661 15.9362C13.3703 16.3401 3.2208 16.8929 2.09308 16.6377Z" fill="rgb(0,0,0)" fill-rule="nonzero" transform="matrix(1,0,0,-1,138.537,76.5332)" />
		</g>
	</g>
</svg>
