<svg viewBox="0 0 268 230" xmlns="http://www.w3.org/2000/svg" xmlns:xlink="http://www.w3.org/1999/xlink" width="268.000000" height="230.000000" fill="none">
	<defs>
		<clipPath id="clipPath_6">
			<rect width="225.000000" height="230.000000" x="31.000000" y="0.000000" fill="rgb(255,255,255)" />
		</clipPath>
	</defs>
	<rect id="6" width="268.000000" height="230.000000" x="0.000000" y="0.000000" />
	<g id="6" clip-path="url(#clipPath_6)" customFrame="url(#clipPath_6)">
		<rect id="6" width="225.000000" height="230.000000" x="31.000000" y="0.000000" />
		<path id="矢量 385" d="M133.752 189.677L127.288 188.954L117.368 211.999L112.291 220.673L106.893 220.205L34.8721 184.596L31.0107 178.388L35.5761 169.141L38.0934 161.424L42.7014 151.559L41.4214 128.642L43.0427 117.332L46.3707 110.741L43.5547 105.129L45.8587 98.5387L71.6294 87.2925L99.0214 77.9597L110.52 76.3653L115.491 75.77L118.349 49.8975L126.285 26.3422L131.277 19.8794L139.747 21.2613L144.141 8.86712L150.392 2.21297L170.296 1.85156L206.541 5.2743L222.413 8.95216L228.472 13.778L230.733 29.191L243.981 32.8688L249.421 32.8688L254.861 34.931L244.408 110.146L242.424 112.421L238.285 111.698L236.728 112.591L241.549 115.674L242.509 120.499L239.053 164.953L228.621 176.985L227.768 182.066L225.251 187.53L222.072 188.487L219.811 185.149L197.133 204.303L169.592 222.14L166.499 223.437L165.795 226.86L163.256 229.113L159.416 227.306L155.96 228.093L138.275 218.696L136.163 195.162L133.752 189.677Z" fill="rgb(255,255,255)" fill-rule="nonzero" />
		<path id="矢量 386" d="M139.747 21.2611L132.856 19.4754L128.653 22.3454L121.464 39.0976L117.645 56.2326L115.235 75.4297L123.64 77.173L127.437 80.5957L128.653 85.5279L129.059 91.4805L127.117 98.0708L121.464 97.0929L103.629 101.579L94.9893 104.108L87.1599 105.129L73.1226 108.233L65.5493 112.697L58.9786 119.5L50.8079 135.849L47.9279 144.118L48.5893 147.329L45.5813 147.924L36.1946 164.634L31.7146 177.028L32.5466 182.98L38.9679 187.105L107.768 220.694L112.717 220.694L130.659 184.065L137.912 150.199L141.475 142.737L136.995 140.483L136.12 130.98L141.005 124.794L154.125 116.375L175.651 105.129L197.816 98.0708L210.168 95.4985L224.291 99.7503L230.136 106.745L230.136 113.144L236.963 111.698L242.488 111.698L244.685 108.871L254.861 35.9938L253.261 32.8687L241.464 32.6774L235.469 29.9137L231.565 29.9137L229.773 21.0911L226.957 12.2685L221.219 8.35676L196.941 3.99861L155 0.639648L145.571 5.65683L139.747 21.2611Z" fill="rgb(1,89,188)" fill-rule="nonzero" />
		<g id="组合 78">
			<path id="矢量 387" d="M124.048 229.058C123.877 228.973 123.195 228.824 122.555 228.739C121.296 228.59 119.056 227.952 118.245 227.506C116.944 226.762 114.832 224.891 114.043 223.743C113.04 222.255 111.035 218.428 111.035 217.961C111.035 217.79 110.907 217.472 110.736 217.238C110.587 217.004 110.395 216.579 110.331 216.281C110.267 215.983 110.032 215.218 109.776 214.58C109.221 213.135 108.475 210.456 108.475 209.903C108.475 209.266 108.112 209.202 107.237 209.669C105.765 210.435 104.4 210.754 102.459 210.754C100.88 210.754 100.411 210.669 99.408 210.201C97.424 209.266 96.6133 208.096 94.3946 202.994C92.9653 199.678 91.8346 196.829 91.8346 196.51C91.8346 196.382 91.7066 196 91.536 195.702C91.1733 194.979 90.768 193.853 90.5546 192.896C90.448 192.492 90.128 191.429 89.8293 190.557C88.976 188.113 88.6773 187.113 88.528 186.22C88.464 185.774 88.3146 185.243 88.2293 185.051C87.888 184.392 87.2053 181.756 86.3946 178.014C86.2026 177.143 85.968 176.08 85.84 175.676C85.7333 175.272 85.5626 174.273 85.456 173.444C85.0293 170.255 84.56 167.257 84.432 166.96C84.24 166.513 83.728 161.05 83.5573 157.606L83.408 154.736L81.8506 154.587C80.9973 154.523 80.0373 154.395 79.7173 154.31C79.3973 154.225 78.5653 154.076 77.8613 153.991C77.1573 153.885 75.856 153.673 74.9813 153.502C74.1066 153.311 72.592 153.014 71.6106 152.843C70.6506 152.652 58.064 149.399 56.528 148.974C55.0133 148.549 52.6453 147.805 51.3013 147.359C49.9573 146.891 48.5706 146.444 48.208 146.338C47.8666 146.253 47.0346 145.955 46.3946 145.7C45.7546 145.445 45.0293 145.19 44.7946 145.126C44.56 145.063 44.0906 144.892 43.728 144.744C43.3866 144.595 42.6613 144.297 42.128 144.106C41.5946 143.893 40.8906 143.617 40.528 143.468C40.1866 143.319 39.12 142.894 38.1813 142.511C37.2426 142.129 36.0053 141.597 35.408 141.342C34.832 141.066 33.872 140.641 33.2746 140.407C32.144 139.918 31.9946 139.833 29.1146 138.493C28.112 138.047 26.768 137.452 26.128 137.197C25.488 136.942 24.7626 136.644 24.5493 136.516C24.3146 136.389 23.888 136.219 23.5893 136.134C23.2906 136.027 22.5013 135.751 21.8613 135.496C21.2213 135.262 20.1333 134.858 19.4506 134.603C15.7386 133.306 13.2 130.628 12.2613 127.098C11.8773 125.568 12.0053 124.271 12.8586 121.486C13.0933 120.742 13.4986 120.083 14.0106 119.573C14.928 118.701 14.992 118.488 14.3946 117.957C13.648 117.277 11.9413 114.152 11.4293 112.536C11.1733 111.664 10.8533 110.708 10.7466 110.41C10.448 109.538 10.0853 106.838 9.91464 104.138C9.53064 98.3985 9.78664 85.239 10.32 81.8375C10.7253 79.3714 10.7253 76.9266 10.32 76.4802C10.128 76.2463 9.59464 75.3534 9.16797 74.4818C6.58664 69.4009 4.34664 64.8726 3.9413 63.8522C3.4933 62.7254 3.27997 62.2365 2.5973 60.6633C1.14664 57.3469 0.911969 56.6028 0.186635 53.01C-0.453365 49.8211 0.570635 46.696 2.9813 44.4425C3.53597 43.911 5.64797 42.848 13.8613 38.8938C21.584 35.1734 29.52 31.283 31.0346 30.4751C31.2053 30.3901 31.7813 30.1137 32.3146 29.8799C33.2746 29.4547 43.4506 24.4375 44.048 24.0974C44.2186 23.9911 47.3546 22.4604 50.9813 20.6959C54.6293 18.9101 58.3626 17.0818 59.3013 16.6141C63.184 14.6795 72.8906 9.85367 74.8746 8.87574C76.9866 7.8553 77.0293 7.83404 79.0346 7.83404C80.848 7.83404 81.1466 7.89781 81.9146 8.40804C82.768 8.93952 83.7706 10.0875 84.304 11.0867C84.7946 12.0009 85.3493 13.1276 85.712 13.8929C86.6933 15.9763 88.4853 20.0156 88.6346 20.4833C88.72 20.7809 88.9973 21.4187 89.2533 21.8864C89.68 22.7793 90.0213 23.6084 90.8106 25.9044C91.0453 26.606 91.3226 27.265 91.408 27.35C91.5573 27.5201 94.8 26.0532 99.7706 23.5446C102.203 22.3329 102.8 22.2053 103.781 22.7155C104.571 23.1194 104.677 22.9494 104.741 21.036C104.827 18.8251 105.381 14.7008 105.659 14.1693C105.808 13.9142 105.915 13.4677 105.915 13.1701C105.915 12.8725 106.107 12.1071 106.341 11.4694C106.811 10.2363 108.347 8.59937 109.605 8.02537C109.968 7.8553 111.163 7.26004 112.208 6.7073C115.344 5.04907 115.749 4.85774 117.968 3.81604C119.141 3.2633 120.251 2.71056 120.421 2.60426C120.592 2.49796 120.955 2.32789 121.211 2.20033C121.467 2.09404 122.405 1.66885 123.301 1.24367C124.923 0.499593 126.629 0.244482 126.928 0.712185C126.992 0.818482 127.291 0.924778 127.568 0.924778C127.845 0.924778 128.144 1.03107 128.208 1.13737C128.421 1.49878 129.019 1.37122 129.573 0.861C130.832 -0.287 132.987 -0.287 134.096 0.861C134.8 1.58381 135.995 3.79478 135.995 4.36878C135.995 4.96404 136.805 6.027 137.253 6.027C137.445 6.027 137.701 6.11204 137.808 6.21833C137.936 6.30337 139.088 6.96241 140.368 7.62144C142.757 8.897 143.632 9.3647 144.293 9.74737C145.061 10.2151 148.069 12.0009 148.368 12.1922C148.539 12.2985 149.307 12.7662 150.053 13.1914C150.8 13.6378 151.568 14.1055 151.76 14.2118C151.952 14.3394 152.635 14.7646 153.275 15.1685C153.915 15.5724 155.749 16.7842 157.328 17.8471C158.907 18.9101 160.592 20.0369 161.061 20.3345C161.531 20.6534 162.021 20.9723 162.128 21.0786C162.704 21.525 165.883 23.8635 166.821 24.5013C167.419 24.9052 168.379 25.6493 168.976 26.1595C169.573 26.6485 170.128 27.0737 170.213 27.0737C170.299 27.0737 171.259 27.8177 172.347 28.7106C173.456 29.6248 174.992 30.9003 175.781 31.5381C176.571 32.1759 177.339 32.8137 177.467 32.92C177.595 33.0475 178.789 34.0892 180.133 35.2585C182.779 37.5332 184.72 39.2765 187.173 41.6788C188.048 42.5292 188.88 43.2307 189.029 43.2307C189.179 43.2307 189.413 42.8693 189.541 42.4229C189.691 41.9977 190.053 41.3811 190.352 41.041C190.843 40.5308 191.056 40.467 192.229 40.467C193.467 40.467 193.595 40.5095 194.384 41.2749C195.365 42.2315 196.261 44.0386 196.773 46.1007C196.859 46.4621 198.075 50.3738 198.075 51.0116C198.075 52.2234 197.776 51.862 202.96 57.1555C206.117 60.3869 207.845 62.4703 208.4 63.7034C209.125 65.2766 209.595 67.0198 209.595 68.1466C209.595 68.678 209.68 69.3796 209.808 69.7197C209.915 70.0599 210.107 71.6756 210.213 73.3126C210.341 74.9495 210.576 77.6282 210.747 79.2439C210.917 80.8809 211.024 82.284 210.96 82.369C210.917 82.454 211.003 83.2831 211.173 84.1973C211.963 88.4917 212.411 110.474 211.749 112.536C211.237 114.088 209.68 115.959 208.528 116.384C208.229 116.49 207.867 116.788 207.696 117.022C207.44 117.468 207.44 117.468 208.229 117.319C208.677 117.234 209.467 117.043 209.979 116.873C210.704 116.618 211.045 116.596 211.621 116.788C212.453 117.064 214.288 118.935 214.288 119.509C214.288 119.722 214.373 119.977 214.48 120.104C214.587 120.21 214.715 120.678 214.779 121.146C215.248 124.675 215.397 125.738 215.589 126.588C216.037 128.65 216.592 132.35 217.275 137.941C217.381 138.876 217.531 139.875 217.616 140.173C217.68 140.471 217.893 141.852 218.064 143.256C218.469 146.614 218.939 150.207 219.195 151.653C219.301 152.291 219.493 153.736 219.621 154.842C219.749 155.947 219.963 157.35 220.069 157.924C220.197 158.52 220.368 159.753 220.475 160.688C221.051 165.493 221.285 167.3 221.413 167.597C221.477 167.767 221.627 168.788 221.755 169.83C222.032 172.466 222.523 176.08 222.693 176.845C222.757 177.207 222.971 178.588 223.163 179.928C223.333 181.267 223.632 183.329 223.803 184.498C225.083 193.385 225.104 193.619 224.443 194.937C223.696 196.404 222.501 197.041 220.048 197.275C219.045 197.36 217.979 197.403 217.659 197.382C217.339 197.36 216.571 197.611 215.931 197.658C215.069 197.722 214.437 197.956 213.307 197.807C211.899 197.637 211.771 197.658 210.448 198.338C207.419 199.869 204.944 200.549 202.448 200.549L200.656 200.549L200.571 204.227C200.507 206.821 200.379 208.181 200.144 208.947C199.76 210.095 199.248 211.774 198.821 213.326C198.309 215.154 196.923 217.642 195.835 218.726C194.192 220.363 190.245 222.234 187.195 222.786C186.896 222.85 186.192 223.02 185.595 223.19C185.019 223.339 184.059 223.594 183.461 223.722C182.885 223.871 181.819 224.126 181.115 224.296C179.536 224.657 176.464 225.125 172.795 225.529C171.28 225.699 168.72 225.975 167.141 226.167C165.563 226.337 163.344 226.571 162.235 226.677C161.125 226.804 159.44 226.974 158.501 227.102C154.363 227.634 152.464 227.782 148.155 227.974C143.696 228.186 140.304 228.399 134.181 228.845C129.893 229.164 124.432 229.292 124.048 229.058ZM134.288 227.336C135.76 227.23 138.683 227.017 140.795 226.847C142.907 226.677 145.403 226.571 146.341 226.613C147.344 226.677 148.752 226.571 149.755 226.4C150.693 226.23 152.933 226.018 154.747 225.954C156.56 225.869 158.267 225.72 158.544 225.614C158.821 225.508 159.504 225.423 160.059 225.423C160.592 225.423 161.957 225.274 163.088 225.125C165.307 224.785 168.272 224.402 170.811 224.147C174.224 223.807 181.349 222.553 183.696 221.894C184.293 221.723 184.933 221.596 185.125 221.596C185.317 221.596 186.32 221.341 187.344 221.043C190.139 220.214 190.288 220.172 190.736 219.938C190.949 219.831 191.376 219.619 191.675 219.491C193.381 218.768 194.597 217.79 195.664 216.345C196.133 215.686 197.435 212.199 197.435 211.562C197.435 211.37 197.563 210.881 197.733 210.499C198.437 208.862 198.693 207.352 198.8 204.185C198.843 202.378 198.843 200.783 198.779 200.634C198.736 200.485 198.16 200.124 197.52 199.805C196.709 199.401 196.048 198.848 195.387 198.019C194.405 196.808 192.251 192.641 191.035 189.601C190.672 188.665 190.224 187.624 190.053 187.305C189.883 186.965 189.755 186.603 189.755 186.476C189.755 186.369 189.627 185.965 189.477 185.604C189.051 184.605 188.667 183.521 188.475 182.734C188.389 182.351 188.219 181.926 188.091 181.777C187.984 181.628 187.835 181.288 187.771 180.991C187.707 180.693 187.28 179.354 186.832 178.014C186 175.57 185.168 172.955 184.848 171.743C184.763 171.403 184.528 170.616 184.336 170.021C184.144 169.404 183.995 168.724 183.995 168.469C183.995 168.235 183.867 167.725 183.696 167.342C183.525 166.96 183.291 166.109 183.163 165.471C183.035 164.834 182.779 163.728 182.608 163.027C181.477 158.18 180.901 155.31 180.389 151.759C180.24 150.824 180.027 149.442 179.899 148.677C179.792 147.911 179.579 146.296 179.472 145.063C179.365 143.83 179.237 142.405 179.195 141.874C179.152 141.342 179.024 139.663 178.896 138.132C178.64 134.518 178.597 134.433 176.528 134.433C174.416 134.433 171.728 133.965 167.781 132.945C166.629 132.647 163.515 131.882 162.555 131.669C160.059 131.116 154.768 129.586 152.528 128.757C150.48 127.991 150.096 127.843 148.475 127.205C147.536 126.843 144.485 125.674 138.448 122.677C136.229 121.571 134.053 120.466 133.648 120.232C132.155 119.318 131.941 119.296 130.789 119.743C129.232 120.359 122.832 122.506 121.808 122.762C121.339 122.868 120.763 123.038 120.528 123.144C120.293 123.251 119.141 123.697 117.968 124.122C115.792 124.93 114.704 125.398 111.888 126.716C111.013 127.141 110.011 127.609 109.648 127.779C109.307 127.949 108.432 128.417 107.728 128.82C104.272 130.819 100.624 132.307 99.152 132.307C97.9786 132.307 97.3813 132.647 97.3813 133.327C97.3813 133.646 97.5306 134.114 97.7013 134.348C98.2133 135.007 98.832 136.495 99.216 137.962C99.6853 139.875 99.4293 142.49 98.5333 144.552C98.3413 144.999 98.064 145.679 97.936 146.019C97.7866 146.381 97.5093 146.997 97.296 147.422C96.9973 148.018 96.9333 148.57 96.9973 149.867C97.104 151.887 97.5093 154.544 97.936 156.032C98.1066 156.628 98.2346 157.393 98.2346 157.754C98.2346 158.371 98.4053 159.03 99.2586 161.857C99.4506 162.495 99.9626 163.792 100.411 164.727C101.136 166.322 101.179 166.513 101.008 167.555C100.624 169.787 101.712 177.164 103.312 183.329C104.037 186.178 104.4 187.73 104.656 189.069C104.763 189.707 104.955 190.324 105.083 190.43C105.189 190.557 106.619 196.552 106.725 197.254C106.853 197.956 107.045 198.912 107.152 199.38C107.685 201.655 107.899 202.441 108.155 203.419C108.304 204.014 108.603 205.099 108.795 205.864C108.987 206.629 109.285 207.565 109.456 207.947C109.627 208.33 109.755 208.862 109.755 209.117C109.755 209.372 109.883 209.776 110.053 210.01C110.203 210.243 110.395 210.732 110.437 211.073C110.565 211.774 110.8 212.454 111.696 214.814C112.037 215.686 112.315 216.536 112.315 216.685C112.315 217.11 114.341 221.256 115.045 222.276C115.771 223.318 117.797 225.423 118.075 225.423C118.181 225.423 118.587 225.635 118.992 225.912C119.76 226.443 122.875 227.272 124.475 227.4C126.373 227.548 131.664 227.506 134.288 227.336ZM103.717 209.032C105.765 208.564 107.301 208.032 107.493 207.714C107.643 207.48 107.621 207.225 107.472 206.884C106.811 205.524 105.296 199.635 104.656 195.978C104.549 195.404 104.379 194.682 104.251 194.384C104.144 194.086 103.888 193.087 103.675 192.152C103.355 190.579 103.12 189.622 102.395 186.837C102.245 186.263 102.011 185.306 101.861 184.711C101.712 184.137 101.52 183.18 101.456 182.585C101.371 182.011 101.243 181.416 101.157 181.267C100.965 180.969 100.411 178.397 100.155 176.633C100.048 175.931 99.856 175.059 99.728 174.719C99.5786 174.358 99.4293 172.381 99.3653 170.255C99.2586 166.237 99.28 166.343 97.9146 163.027C97.04 160.986 95.6746 154.289 95.6746 152.142C95.6746 151.377 95.2906 151.206 94.8213 151.78C94.3306 152.354 92.6666 153.205 90.5973 153.928C88.9973 154.48 88.2293 154.629 86.992 154.629C85.9253 154.629 85.392 154.714 85.328 154.906C85.1786 155.288 85.584 162.027 85.968 165.153C86.5866 170.382 87.184 174.337 87.6746 176.207C88.3146 178.737 88.4853 179.481 88.7413 180.778C88.8906 181.543 89.1253 182.5 89.2533 182.904C89.36 183.308 89.6586 184.328 89.9146 185.136C90.1706 185.965 90.448 186.965 90.5333 187.368C90.8106 188.559 91.8346 191.642 92.7733 194.129C92.944 194.554 93.392 195.787 93.7546 196.829C94.1173 197.892 94.6933 199.401 95.056 200.209C95.3973 201.017 96.8266 204.567 97.552 206.077C98.064 207.097 99.856 208.84 100.432 208.84C100.688 208.84 101.051 208.947 101.221 209.053C101.648 209.329 102.48 209.308 103.717 209.032ZM204.688 198.678C205.627 198.487 207.141 197.977 207.995 197.594C211.963 195.787 212.773 195.128 213.691 193.108C214.651 191.046 214.736 190.579 214.501 188.963C214.373 188.155 214.181 186.816 214.075 185.987C213.968 185.179 213.776 184.158 213.669 183.754C213.541 183.35 213.435 182.734 213.435 182.373C213.435 182.032 213.307 181.118 213.136 180.353C212.709 178.546 212.283 176.271 211.835 173.763C211.643 172.657 211.387 171.36 211.28 170.893C210.96 169.66 210.469 167.066 210.235 165.493C210.128 164.749 209.957 163.941 209.893 163.686C209.808 163.431 209.616 162.58 209.445 161.751C209.296 160.943 209.083 159.88 208.976 159.413C208.869 158.945 208.528 157.265 208.229 155.692C207.909 154.119 207.525 152.269 207.355 151.61C207.184 150.93 207.035 150.08 207.035 149.718C207.035 149.336 206.907 148.549 206.736 147.954C206.565 147.359 206.267 146.104 206.075 145.169C205.883 144.233 205.605 142.852 205.435 142.086C205.285 141.321 204.987 139.897 204.795 138.897C204.603 137.898 204.304 136.559 204.133 135.9C203.963 135.262 203.835 134.518 203.835 134.284C203.835 134.05 203.685 133.37 203.515 132.817C203.237 131.882 202.213 127.502 201.979 126.142C201.019 120.87 200.955 120.657 200.336 120.891C200.08 120.997 200.059 121.167 200.208 121.699C200.677 123.293 197.925 126.843 194.235 129.373C192.272 130.734 188.795 132.371 186.661 132.924C186.32 133.03 185.787 133.2 185.488 133.306C184.528 133.689 182.843 134.072 181.541 134.199C180.112 134.348 180.197 134.114 180.56 136.559C180.773 137.856 180.987 140.194 181.435 146.126C181.541 147.465 181.712 148.91 181.84 149.314C181.947 149.718 182.139 150.824 182.267 151.759C182.395 152.695 182.629 154.225 182.821 155.161C183.013 156.096 183.248 157.287 183.333 157.818C183.739 160.157 184.059 161.581 184.336 162.24C184.507 162.623 184.635 163.197 184.635 163.494C184.635 164.068 185.061 165.897 185.595 167.597C185.765 168.129 186.107 169.319 186.363 170.255C186.619 171.19 186.96 172.444 187.131 173.018C187.323 173.614 187.6 174.613 187.771 175.251C187.941 175.888 188.155 176.611 188.261 176.845C188.368 177.079 188.645 177.844 188.88 178.546C189.115 179.269 189.392 180.077 189.499 180.353C189.627 180.651 190.011 181.756 190.395 182.798C190.757 183.861 191.333 185.391 191.675 186.199C195.813 196.446 196.837 198.019 199.888 198.806C200.869 199.061 203.259 198.997 204.688 198.678ZM218.341 195.872C218.875 195.766 219.728 195.681 220.261 195.681C221.349 195.702 222.48 195.341 222.288 195.022C222.224 194.916 221.627 194.809 221.008 194.809C219.109 194.809 217.083 193.746 216.613 192.534C216.336 191.769 216.016 191.96 215.461 193.194C215.184 193.831 214.651 194.682 214.288 195.107C213.925 195.511 213.669 195.957 213.755 196.064C213.883 196.297 216.784 196.17 218.341 195.872ZM222.8 193.768C223.269 193.3 223.248 192.152 222.715 188.75C222.565 187.709 222.267 185.689 222.075 184.286C221.883 182.883 221.648 181.267 221.52 180.672C221.413 180.098 221.264 178.907 221.2 178.014C221.136 177.143 220.987 176.144 220.88 175.782C220.773 175.442 220.645 174.762 220.581 174.294C220.517 173.826 220.368 172.827 220.261 172.062C220.155 171.296 219.963 169.766 219.835 168.66C219.728 167.555 219.536 166.301 219.429 165.897C219.323 165.493 219.109 164.238 218.981 163.133C218.853 162.027 218.619 160.114 218.448 158.881C218.299 157.648 218.064 155.735 217.936 154.629C217.787 153.524 217.637 152.461 217.573 152.291C217.509 152.121 217.317 150.866 217.147 149.527C216.976 148.188 216.741 146.359 216.613 145.488C216.485 144.616 216.357 143.617 216.315 143.256C216.272 142.915 216.144 141.959 216.016 141.13C215.909 140.322 215.696 138.834 215.568 137.834C215.44 136.835 215.227 135.56 215.12 134.964C215.013 134.39 214.821 133.094 214.715 132.094C214.587 131.095 214.373 129.48 214.203 128.48C214.032 127.481 213.797 125.865 213.669 124.866C213.413 123.123 213.136 121.507 212.859 120.402C212.795 120.104 212.453 119.509 212.112 119.084C211.408 118.191 210.832 118.063 209.765 118.616C208.912 119.062 206.885 118.914 205.371 118.318C204.517 117.978 204.091 117.914 203.707 118.085C203.408 118.191 202.853 118.276 202.448 118.276C202.043 118.276 201.68 118.361 201.616 118.446C201.552 118.552 201.701 119.148 201.957 119.785C202.512 121.21 203.237 124.143 203.835 127.269C203.941 127.821 204.112 128.587 204.24 128.969C204.347 129.331 204.603 130.415 204.795 131.35C204.987 132.286 205.264 133.625 205.435 134.327C205.584 135.028 205.861 136.325 206.032 137.197C206.224 138.068 206.48 139.28 206.608 139.854C206.736 140.449 206.971 141.597 207.141 142.405C207.312 143.234 207.589 144.51 207.781 145.275C207.952 146.04 208.208 147.274 208.315 148.018C208.443 148.762 208.592 149.442 208.656 149.548C208.72 149.655 208.912 150.526 209.083 151.483C209.68 154.821 210.576 159.349 211.195 162.283C211.365 163.048 211.643 164.387 211.813 165.259C211.984 166.13 212.283 167.619 212.475 168.554C212.667 169.489 213.051 171.445 213.349 172.912C213.925 175.74 214.395 178.184 214.715 180.247C214.843 180.948 214.992 181.692 215.056 181.905C215.163 182.266 215.44 183.967 216.08 188.219C216.443 190.536 216.613 190.94 217.872 192.258C218.768 193.194 219.131 193.406 220.389 193.746C222.267 194.256 222.309 194.256 222.8 193.768ZM88.208 152.928C90.1066 152.461 91.6426 151.908 91.9413 151.632C92.048 151.525 92.24 151.44 92.3893 151.44C92.816 151.44 94.9066 149.973 95.0773 149.57C95.1413 149.378 95.2266 148.889 95.2266 148.507C95.248 148.124 95.696 146.785 96.2506 145.53C97.2533 143.234 97.8933 140.874 97.68 140.3C97.616 140.13 97.3173 139.96 96.9973 139.897C95.824 139.663 94.48 139.301 94.0746 139.11C93.84 139.004 93.1146 138.812 92.4746 138.706C91.8346 138.6 90.448 138.26 89.3813 137.941C87.3546 137.367 86.224 137.048 83.9413 136.453C82.4693 136.07 80.5706 135.538 79.6746 135.262C79.376 135.177 78.5653 134.943 77.8613 134.752C75.536 134.093 73.616 133.54 71.568 132.924C63.4186 130.479 61.072 129.756 60.5813 129.543C60.3466 129.437 59.8346 129.288 59.4506 129.224C59.0666 129.139 58.4906 128.948 58.1706 128.778C57.8506 128.608 57.488 128.48 57.36 128.48C57.2106 128.48 56.8266 128.332 56.5066 128.161C56.1653 127.991 55.696 127.843 55.4613 127.843C55.2053 127.843 54.928 127.758 54.8213 127.651C54.6933 127.566 54.224 127.375 53.7546 127.247C53.2853 127.12 51.9413 126.673 50.768 126.248C49.5946 125.823 48.4 125.419 48.1013 125.355C47.8026 125.291 47.376 125.1 47.1413 124.951C46.9066 124.781 46.5226 124.654 46.288 124.654C46.0533 124.654 45.6693 124.505 45.456 124.335C45.2213 124.165 44.8586 124.016 44.6453 124.016C44.432 124.016 44.0906 123.931 43.8773 123.803C43.4933 123.591 42.0213 123.038 40.9546 122.74C40.6133 122.634 39.888 122.4 39.3546 122.209C38.8213 122.018 37.584 121.614 36.5813 121.337C35.5786 121.061 34.4266 120.742 34.0213 120.614C31.9946 120.04 31.184 119.892 29.0293 119.828C27.664 119.764 26.512 119.828 26.256 119.955C26 120.083 24.7626 120.508 23.4613 120.933C22.1813 121.358 20.8373 121.826 20.4746 121.975C20.1333 122.145 19.3653 122.421 18.768 122.634C16.8906 123.293 16.464 123.463 15.1413 124.122L13.8613 124.781L13.7973 125.908C13.7546 126.652 13.9104 127.169 14.0533 127.545C14.4224 128.523 15.6533 130.33 16.5493 131.138C17.424 131.924 20.048 133.285 21.328 133.604C22.1173 133.795 23.2266 134.178 24.208 134.603C24.6133 134.794 25.2533 135.049 25.5946 135.198C25.9573 135.326 26.7893 135.708 27.4506 136.006C28.112 136.304 28.7306 136.559 28.8373 136.559C28.9226 136.559 29.264 136.686 29.5626 136.856C30.288 137.239 35.3866 139.535 37.1786 140.3C37.5413 140.471 38.1813 140.726 38.5653 140.896C40.3786 141.704 40.8266 141.874 41.0186 141.874C41.1253 141.874 41.936 142.171 42.7893 142.533C43.664 142.894 44.7093 143.319 45.1146 143.468C48.2293 144.637 51.28 145.637 52.1546 145.913C53.0293 146.189 54.1386 146.529 54.608 146.678C55.0773 146.806 56.0373 147.103 56.7413 147.295C57.4453 147.486 58.384 147.784 58.832 147.954C59.2586 148.124 61.7333 148.783 62.3093 148.889C63.504 149.102 64.1866 149.272 68.368 150.399C69.5413 150.718 70.608 150.93 72.4213 151.228C73.1893 151.355 74.1066 151.547 74.448 151.674C75.216 151.887 77.0933 152.206 79.9946 152.61C81.168 152.758 82.3626 152.992 82.6613 153.099C83.5573 153.481 86.4586 153.375 88.208 152.928ZM97.6586 138.812C97.936 138.068 96.7626 135.708 95.7386 134.922C94.3946 133.901 90.4266 132.775 86.5013 132.307C85.4986 132.179 84.4746 131.988 84.1973 131.882C83.92 131.754 83.3653 131.669 82.96 131.669C82.5546 131.669 81.7653 131.542 81.2106 131.372C80.656 131.223 79.44 130.925 78.5013 130.713C77.5626 130.5 76.4106 130.224 75.9413 130.075C75.472 129.926 74.4693 129.65 73.7013 129.437C71.5893 128.906 70.032 128.459 69.4346 128.225C69.136 128.098 68.624 127.928 68.2613 127.843C67.3653 127.609 64.9546 126.673 64.1866 126.291C63.7173 126.057 63.3333 126.014 62.608 126.142C61.584 126.354 58.8533 126.121 56.3146 125.61C53.2853 125.015 51.3866 124.632 50.2773 124.356C49.6586 124.186 49.104 124.143 49.04 124.25C48.976 124.356 49.1466 124.441 49.424 124.441C49.7013 124.441 50.0853 124.632 50.2986 124.866C50.4906 125.1 50.896 125.291 51.1733 125.291C51.4506 125.291 51.9626 125.419 52.304 125.589C52.624 125.759 53.4346 126.036 54.0746 126.206C54.7146 126.397 56.1653 126.822 57.2746 127.162C58.384 127.502 59.8773 127.949 60.5813 128.14C61.2853 128.353 62.2026 128.629 62.608 128.799C63.376 129.076 65.104 129.586 68.4746 130.542C69.5413 130.819 70.736 131.202 71.1413 131.35C71.5466 131.499 72.4213 131.776 73.0613 131.946C73.7013 132.116 74.96 132.477 75.8346 132.732C76.7093 132.987 77.9253 133.327 78.5013 133.476C79.0986 133.646 80.1013 133.923 80.7413 134.135C81.3813 134.327 82.448 134.603 83.088 134.773C83.728 134.922 84.7946 135.22 85.4346 135.39C86.8426 135.815 89.5093 136.538 90.5546 136.793C90.96 136.878 91.792 137.112 92.368 137.282C92.9653 137.452 93.9466 137.749 94.5653 137.919C95.1626 138.09 95.9946 138.408 96.3786 138.642C97.2106 139.174 97.5093 139.195 97.6586 138.812ZM95.8026 133.349C96.016 132.987 95.312 132.371 94.992 132.69C94.8213 132.86 94.8213 133.009 95.0346 133.264C95.3546 133.646 95.5893 133.668 95.8026 133.349ZM181.221 132.626C181.712 132.456 182.352 132.307 182.629 132.307C183.12 132.307 186.725 131.244 187.941 130.734C189.563 130.054 192.059 128.799 192.677 128.353C193.04 128.076 193.424 127.843 193.488 127.843C194.021 127.843 196.219 125.759 197.733 123.803C199.461 121.592 199.419 121.337 197.2 120.614C196.453 120.359 195.643 120.083 195.408 119.977C195.173 119.87 193.552 119.296 191.781 118.701C190.032 118.106 188.197 117.468 187.728 117.277C187.259 117.107 186.491 116.809 186.021 116.639C185.552 116.448 184.976 116.235 184.741 116.129C184.507 116.044 183.781 115.746 183.141 115.512C182.501 115.257 181.776 114.959 181.541 114.874C179.685 114.088 178.917 113.769 178.555 113.599C178.32 113.493 177.275 113.067 176.208 112.642C173.712 111.622 173.712 111.622 171.771 110.75C170.875 110.325 170 109.985 169.851 109.985C169.701 109.985 169.488 109.9 169.36 109.793C169.253 109.687 168.208 109.198 167.035 108.709C165.861 108.199 164.112 107.434 163.131 106.987C162.171 106.52 161.317 106.158 161.253 106.158C161.189 106.158 159.973 105.584 158.544 104.904C157.115 104.202 155.28 103.331 154.448 102.969C152.485 102.076 141.243 96.5277 141.115 96.3789C141.051 96.3151 140.539 96.06 139.941 95.7836C139.365 95.5072 138.683 95.1883 138.448 95.0608C131.728 91.3404 126.181 89.4058 123.941 89.9798C123.472 90.1074 122.512 90.2562 121.808 90.3412C121.104 90.405 120.443 90.5326 120.315 90.5963C120.208 90.6814 119.632 90.8514 119.035 91.0003C118.459 91.1278 117.413 91.4042 116.752 91.5743C113.125 92.5734 111.312 93.0411 109.371 93.3813C108.859 93.4663 108.347 93.6577 108.219 93.7852C108.069 93.934 107.771 94.0403 107.557 94.0403C107.344 94.0403 106.875 94.2104 106.533 94.4017C105.936 94.7631 105.915 94.8057 105.915 96.5489C105.915 98.2072 106.149 99.1426 106.789 100.206C106.896 100.376 107.067 100.716 107.173 100.95C107.408 101.502 109.2 103.352 110.288 104.181C111.12 104.819 112.635 105.733 113.488 106.137C113.893 106.328 115.536 107.349 120.379 110.346C121.467 111.026 122.512 111.686 122.725 111.792C123.152 112.068 125.221 113.386 126.757 114.364C127.355 114.768 127.909 115.087 127.995 115.087C128.101 115.087 129.509 115.937 131.408 117.17C131.643 117.319 132.325 117.681 132.901 117.978C133.499 118.276 134.117 118.595 134.288 118.701C134.459 118.807 134.757 118.935 134.928 118.999C135.099 119.062 135.419 119.211 135.632 119.339C135.824 119.445 136.165 119.636 136.379 119.764C137.531 120.402 144.955 124.016 145.125 124.016C145.253 124.016 145.915 124.314 146.619 124.654C147.344 125.015 150.715 126.227 151.653 126.588C154.384 127.63 154.789 127.779 156.155 128.161C156.859 128.374 157.669 128.629 157.968 128.757C158.267 128.863 158.885 129.054 159.355 129.139C161.104 129.501 162.555 129.862 162.789 130.011C162.917 130.096 163.536 130.266 164.176 130.372C165.883 130.691 167.376 131.031 168.101 131.287C168.784 131.52 169.68 131.712 171.728 132.116C172.432 132.243 173.627 132.477 174.395 132.626C176.421 133.009 180.112 133.009 181.221 132.626ZM99.3013 130.734C99.8346 130.542 100.389 130.394 100.517 130.394C101.008 130.394 106 128.034 107.301 127.205C107.664 126.971 108.133 126.695 108.368 126.567C108.603 126.461 108.944 126.269 109.115 126.163C109.627 125.823 112.912 124.335 114.981 123.506C116.048 123.059 117.2 122.592 117.541 122.443C118.757 121.932 120.72 121.295 122.661 120.806C123.109 120.699 123.6 120.508 123.728 120.423C124.112 120.125 127.717 119.062 129.232 118.786C130.384 118.595 130.192 118.127 128.613 117.319C127.909 116.958 126.245 115.98 124.923 115.172C123.6 114.364 122.213 113.514 121.829 113.28C120.848 112.685 118.565 111.26 116.048 109.645C113.083 107.753 113.083 107.753 111.675 108.178C110.373 108.56 106.747 109.219 104.741 109.432C102.928 109.645 101.051 109.985 99.9413 110.304C99.408 110.474 98.128 110.835 97.0613 111.154C93.648 112.132 90.9173 113.025 89.7013 113.535C85.7333 115.215 84.1973 115.916 84.0266 116.171C83.9626 116.278 83.7706 116.363 83.6 116.363C83.4293 116.363 82.9386 116.596 82.4906 116.852C82.064 117.128 80.9333 117.766 79.9946 118.276C78.2026 119.233 76.88 119.955 74.832 121.061C70.1386 123.612 68.3893 124.42 66.8106 124.76C66.3413 124.845 66.2133 124.994 66.2773 125.355C66.32 125.738 66.512 125.844 67.408 125.95C68.0053 126.036 68.7093 126.184 69.008 126.312C69.3066 126.418 70.096 126.673 70.7786 126.865C71.44 127.035 72.5066 127.332 73.1253 127.524C73.7226 127.694 74.8106 127.991 75.5146 128.183C76.2186 128.353 77.0933 128.587 77.4346 128.693C77.7973 128.799 78.6293 128.969 79.312 129.097C79.9946 129.224 80.6346 129.373 80.7626 129.437C80.976 129.586 81.7226 129.713 85.8613 130.415C89.9146 131.095 91.216 131.202 94.928 131.138C97.3813 131.095 98.6186 130.989 99.3013 130.734ZM65.2533 123.931C67.0666 123.314 71.7813 121.061 74.8746 119.318C75.9413 118.722 77.3706 117.914 78.0746 117.532C78.7786 117.149 79.888 116.554 80.528 116.192C81.7653 115.512 86.1173 113.344 87.312 112.855C87.696 112.685 88.3146 112.408 88.6986 112.238C90.4053 111.473 96.5493 109.56 100.475 108.582C101.904 108.242 106.533 107.668 109.435 107.497C110.501 107.455 111.44 107.327 111.525 107.221C111.632 107.136 110.992 106.605 110.139 106.052C107.451 104.309 105.211 101.587 104.443 99.1426C103.803 97.1017 104.208 92.4246 105.211 90.6389C106.384 88.5342 106.917 87.8964 108.005 87.2374C108.603 86.8547 109.115 86.4083 109.115 86.2382C109.115 86.0681 108.837 85.5579 108.496 85.1327C107.771 84.2186 106.747 82.2202 106.277 80.7533C105.488 78.3723 105.275 77.6282 105.275 77.2455C105.275 76.8203 104.72 75.4385 104.315 74.907C104.187 74.7369 103.76 73.844 103.397 72.9511C102.011 69.5922 101.477 68.2103 101.371 67.7851C101.243 67.2537 100.816 66.0844 100.453 65.234C100.304 64.8939 100.048 64.2136 99.8773 63.7459C99.1093 61.6625 98.192 59.2177 97.8933 58.5799C97.7226 58.1972 97.5946 57.7508 97.5946 57.5807C97.5946 57.4319 97.4666 57.028 97.296 56.6878C97.1253 56.3689 96.8906 55.8587 96.784 55.5611C95.44 52.3297 94.8 51.3092 94.0746 51.3092C93.7973 51.3092 93.136 51.6068 92.624 51.947C92.0906 52.3084 91.5573 52.5848 91.408 52.5848C91.28 52.5848 90.96 52.6911 90.704 52.8399C90.2346 53.095 86.096 54.5406 83.5146 55.3697C82.7466 55.6036 81.4026 56.0926 80.5066 56.4327C79.632 56.7729 78.7786 57.0492 78.6293 57.0492C78.48 57.0492 78.16 57.1555 77.904 57.3043C77.3493 57.6232 76.4533 57.9634 74.4266 58.6437C73.616 58.92 72.3786 59.3877 71.696 59.6854C71.0133 59.983 70.288 60.2381 70.096 60.2381C69.8826 60.2381 69.5413 60.3869 69.3066 60.557C69.0933 60.7271 68.752 60.8759 68.56 60.8759C68.368 60.8759 67.6426 61.131 66.96 61.4286C66.2986 61.7263 65.3813 62.0877 64.976 62.2365C63.184 62.8743 58.2133 64.9577 58.0213 65.149C57.9146 65.2553 57.6586 65.3403 57.4666 65.3403C57.2746 65.3403 56.464 65.6167 55.6533 65.9569C54.8426 66.297 53.4133 66.8923 52.4746 67.2749C51.536 67.6576 50.576 68.104 50.3413 68.2529C50.1066 68.4017 49.808 68.5292 49.6373 68.5292C49.488 68.5292 48.8266 68.7631 48.1866 69.0607C47.5466 69.3583 46.4373 69.826 45.6906 70.1237C44.9653 70.4213 44.176 70.7614 43.9413 70.8465C43.5146 71.0166 43.152 71.1866 39.888 72.6748C38.9493 73.1 37.4133 73.8015 36.4746 74.2054C33.488 75.5448 24.8906 79.6266 22.8213 80.6895C18.7466 82.7942 17.872 83.3894 17.68 84.1973C17.5306 84.7288 17.9146 86.302 18.5546 87.7689C18.704 88.1303 18.896 88.7468 18.9813 89.1507C19.0666 89.5546 19.3653 90.3837 19.6213 90.9577C19.8986 91.553 20.432 92.8286 20.7946 93.8277C21.1786 94.8269 21.7546 96.23 22.096 96.9529C22.4373 97.6969 22.7146 98.3347 22.7146 98.4197C22.7146 98.5473 25.936 105.053 26.4053 105.839C26.5333 106.073 26.896 106.647 27.1946 107.115C28.0266 108.454 28.24 108.794 28.3893 109.134C28.7946 109.985 31.2693 112.982 32.5706 114.194C35.3653 116.83 36.3466 117.617 38.1813 118.659C38.992 119.105 39.312 119.254 40.7413 119.87C41.104 119.998 41.744 120.296 42.192 120.487C42.64 120.678 43.1306 120.827 43.3013 120.827C43.472 120.827 43.92 120.955 44.304 121.125C45.584 121.677 49.1893 122.74 49.7653 122.74C50.0853 122.74 50.6826 122.847 51.088 122.974C51.4933 123.08 52.368 123.272 53.008 123.378C53.648 123.506 55.568 123.825 57.2746 124.122C61.072 124.76 62.8853 124.717 65.2533 123.931ZM15.5253 122.783C16.1226 122.464 17.2533 121.975 18.0213 121.677C18.7893 121.401 19.5146 121.125 19.6213 121.04C19.8773 120.87 22.672 119.849 25.168 119.02C26.576 118.531 27.216 118.446 28.9013 118.467C30.8426 118.51 32.1653 118.701 33.0613 119.126C33.296 119.233 33.872 119.424 34.3413 119.53C34.8106 119.658 35.7706 119.934 36.4533 120.168C37.8613 120.657 38.6933 120.763 37.968 120.359C37.7333 120.232 37.456 119.998 37.3706 119.828C37.2853 119.679 37.072 119.551 36.9013 119.551C36.5173 119.551 34 117.829 32.4853 116.511L31.248 115.448L28.432 115.555C25.7013 115.661 25.5306 115.682 23.9946 116.448C23.12 116.873 22.1173 117.404 21.7546 117.617C21.4133 117.851 20.4533 118.233 19.6213 118.488C15.8026 119.7 15.4613 119.913 14.4373 121.847C13.52 123.569 13.712 123.74 15.5253 122.783ZM199.184 119.551C198.885 116.788 197.157 115.3 191.248 112.685C190.608 112.387 189.328 111.813 188.411 111.388C187.515 110.963 186.725 110.623 186.661 110.623C186.619 110.623 185.787 110.261 184.805 109.793C183.824 109.347 182.501 108.752 181.861 108.497C181.221 108.242 180.069 107.731 179.301 107.391C178.533 107.03 177.637 106.626 177.275 106.477C176.933 106.328 176.101 105.967 175.461 105.669C174.821 105.372 173.755 104.925 173.115 104.649C172.475 104.394 171.749 104.032 171.515 103.883C171.28 103.735 170.981 103.607 170.832 103.607C170.683 103.607 169.659 103.182 168.571 102.693C167.504 102.183 165.797 101.396 164.795 100.971C163.792 100.524 162.597 99.9929 162.128 99.7803C161.659 99.5465 160.656 99.1213 159.888 98.8024C159.12 98.5048 158.032 98.0371 157.435 97.7607C156.859 97.4843 155.984 97.1229 155.515 96.9103C155.045 96.719 154.405 96.4214 154.085 96.2513C153.787 96.1025 153.424 95.9537 153.317 95.9537C153.189 95.9537 152.165 95.5285 151.056 94.997C149.925 94.4655 148.901 94.0403 148.795 94.0403C148.581 94.0403 146.32 93.0411 145.125 92.4246C144.827 92.2546 144.464 92.127 144.336 92.127C144.208 92.127 143.504 91.8506 142.757 91.5105C140.688 90.5538 137.787 89.2783 135.483 88.3003C134.331 87.8114 133.221 87.3437 133.029 87.2374C132.283 86.8547 131.109 86.387 130.896 86.387C130.768 86.387 130.491 86.302 130.277 86.1744C129.253 85.6004 127.163 85.0689 125.435 84.9839C123.28 84.8351 121.723 85.0689 119.995 85.728C117.093 86.876 114.939 87.4287 112.635 87.6838C110.032 87.9602 109.2 88.2578 108.197 89.2357C107.707 89.746 107.109 90.5751 106.896 91.0853C106.683 91.5955 106.405 92.2758 106.235 92.5734C105.787 93.5089 106.149 93.7214 107.216 93.1687C107.728 92.9136 108.347 92.5947 108.581 92.4884C108.816 92.3609 109.563 92.1483 110.245 91.9782C111.931 91.5955 113.701 91.1491 115.088 90.7664C115.728 90.5963 116.688 90.3412 117.221 90.2137C117.755 90.0861 118.373 89.8948 118.608 89.7885C120.528 89.0444 123.045 88.683 125.648 88.768C127.611 88.8531 128.293 88.9594 129.851 89.5334C130.875 89.8948 131.877 90.2987 132.091 90.405C132.304 90.5326 132.965 90.8302 133.541 91.0853C134.139 91.3191 135.952 92.212 137.595 93.0411C145.979 97.2717 154.896 101.694 155.045 101.694C155.131 101.694 156.389 102.268 157.819 102.948C159.248 103.65 160.912 104.415 161.488 104.67C162.085 104.925 163.088 105.393 163.728 105.669C164.368 105.967 165.2 106.349 165.541 106.498C165.904 106.647 166.672 106.966 167.248 107.242C167.845 107.497 169.189 108.071 170.235 108.539C171.301 108.986 172.347 109.453 172.581 109.56C172.816 109.666 173.499 109.942 174.075 110.197C174.672 110.452 175.333 110.729 175.568 110.835C175.803 110.941 177.189 111.515 178.661 112.132C180.133 112.727 181.627 113.344 181.968 113.493C182.331 113.641 183.099 113.939 183.675 114.13C184.272 114.343 184.848 114.577 184.955 114.662C185.083 114.747 186.171 115.172 187.408 115.618C188.645 116.044 189.947 116.533 190.288 116.681C190.651 116.83 191.504 117.17 192.208 117.404C194.725 118.255 195.301 118.488 196.667 119.126C197.435 119.488 198.117 119.892 198.203 119.998C198.267 120.125 198.544 120.189 198.779 120.147C199.141 120.104 199.227 119.955 199.184 119.551ZM17.488 117.426C17.9296 117.277 19.1733 116.873 19.472 116.703C19.792 116.554 20.7306 116.107 21.5413 115.725C22.3733 115.342 23.2693 114.917 23.568 114.768C24.1226 114.492 25.2106 114.152 26.192 113.939C26.9386 113.769 26.9173 113.535 26.0213 112.472C25.3386 111.686 25.0826 111.239 24.1226 109.092C23.568 107.859 22.7146 104.33 22.7146 103.224C22.6933 102.544 22.5226 101.949 22.1813 101.375C21.8826 100.907 21.6053 100.376 21.52 100.206C21.392 99.8441 21.136 99.2701 20.176 97.1654C19.8133 96.3789 19.5146 95.6348 19.5146 95.5072C19.5146 95.3797 19.3866 95.0183 19.2373 94.7206C18.576 93.4238 18.1493 92.3183 17.36 89.7885C17.104 89.0231 16.784 88.0665 16.6133 87.6626C15.9306 85.8768 15.8026 85.1115 16.08 84.3461C16.3786 83.4957 16.2506 83.1981 15.5893 83.1981C14.8426 83.1981 13.712 82.3477 13.008 81.221C11.8133 79.3714 11.8773 78.925 11.4506 90.7451C11.3013 95.2946 11.4506 102.395 11.8133 106.264C12.1973 110.431 12.9653 112.876 14.992 116.256C16.0586 118.042 16.2058 117.859 17.488 117.426ZM204.048 116.235C206.395 116.065 207.013 115.852 208.272 114.768C209.744 113.493 210.384 111.771 210.533 108.816C210.597 107.094 210.192 93.4663 210.021 91.7018C209.893 90.5963 209.701 87.9602 209.595 85.8555C209.467 83.7509 209.296 81.3698 209.168 80.5407C208.933 78.7762 208.592 75.566 208.293 72.037C208.187 70.6339 207.995 69.2095 207.888 68.8694C207.76 68.5292 207.675 67.8914 207.675 67.4237C207.675 66.9773 207.525 66.2545 207.355 65.8293C207.184 65.4254 207.035 64.9151 207.035 64.7026C207.035 63.9797 203.131 59.7491 194.427 51.0966C189.179 45.8881 185.573 42.4654 182.501 39.808C181.52 38.9363 179.685 37.3419 178.448 36.2364C176.08 34.1317 175.227 33.4089 170.405 29.5823C165.883 26.0107 158.949 20.9723 156.517 19.5266C156.325 19.3991 155.152 18.6337 153.915 17.8259C152.677 17.018 151.504 16.2527 151.312 16.1251C150.352 15.5299 148.795 14.637 147.941 14.1693C147.408 13.8717 146.832 13.489 146.64 13.3402C146.469 13.1701 146.256 13.0426 146.192 13.0426C146.107 13.0426 145.125 12.4898 143.952 11.7883C140.752 9.89618 139.024 8.96078 132.688 5.70811C126.224 2.37041 125.968 2.30663 125.584 3.64596C124.795 6.36715 123.899 13.7866 123.728 19.1014C123.664 21.2061 123.515 24.1186 123.408 25.5855C122.853 32.8137 123.323 55.9225 124.176 63.7459C124.368 65.3829 124.496 66.956 124.496 67.2537C124.453 68.4867 126.373 75.7999 126.821 76.0763C126.907 76.14 127.056 76.4377 127.141 76.7566C127.248 77.2243 128.357 79.1163 130.235 82.0289C131.387 83.8146 132.496 85.0477 133.307 85.3878C135.184 86.2382 135.525 86.3657 137.168 87.0248C138.107 87.4074 139.493 88.0027 140.261 88.3641C141.029 88.7043 141.947 89.1294 142.288 89.2783C146.341 90.9365 151.376 93.0837 152.272 93.5301C152.848 93.8065 153.403 94.0403 153.509 94.0403C153.616 94.0403 154.341 94.338 155.131 94.6994C155.941 95.0395 156.88 95.4647 157.221 95.6135C158.459 96.145 160.869 97.208 162.299 97.8457C163.088 98.2071 163.771 98.5048 163.835 98.5048C163.899 98.5048 164.539 98.7812 165.285 99.1213C166.011 99.4614 167.184 99.9929 167.888 100.312C168.592 100.631 169.531 101.056 169.979 101.29C170.427 101.502 170.896 101.694 171.024 101.694C171.152 101.694 171.792 101.949 172.453 102.246C173.115 102.544 174.053 102.99 174.565 103.203C175.056 103.416 175.867 103.798 176.379 104.011C178.021 104.755 179.6 105.457 181.072 106.137C181.861 106.498 182.544 106.796 182.608 106.796C182.651 106.796 183.397 107.115 184.251 107.519C185.104 107.923 187.963 109.219 190.608 110.41C196.624 113.131 198.139 114.067 199.845 116.15C200.187 116.554 200.4 116.618 201.125 116.511C201.616 116.448 202.939 116.32 204.048 116.235ZM29.5413 113.811C29.7973 113.663 29.776 113.556 29.4346 113.131C29.2 112.876 28.9013 112.557 28.7733 112.43C28.3893 112.111 26.64 109.475 25.872 108.093C25.5093 107.434 24.8181 106.156 24.6325 105.856C24.4597 105.576 24.3146 105.35 24.208 105.414C23.9797 105.537 24.1141 106.082 24.3146 106.711C24.3872 106.94 24.848 108.263 25.0826 108.816C25.6373 110.07 27.792 113.641 28.1333 113.854C28.4533 114.067 29.1573 114.067 29.5413 113.811ZM113.701 85.6642C114.405 85.5791 115.28 85.4303 115.621 85.324C116.773 84.9839 119.44 84.1123 120.656 83.6446C122.085 83.1343 125.328 82.9217 126.928 83.2406C127.525 83.3682 128.507 83.7083 129.125 84.006C130.619 84.7075 130.875 84.4099 129.787 83.1981C128.699 81.9863 127.269 79.9454 126.672 78.7974C126.416 78.3085 126.117 77.7345 125.989 77.5219C125.2 76.0975 123.899 72.1008 123.728 70.5063C123.664 69.826 123.493 69.0394 123.387 68.7418C123.173 68.1678 122.875 65.2128 122.555 60.4507C122.448 58.75 122.256 56.454 122.128 55.3485C121.765 52.0958 121.637 34.9183 121.915 28.2429C122.341 17.5708 123.003 8.53559 123.408 7.62144C123.515 7.38759 123.643 6.81359 123.728 6.34589C123.792 5.87819 124.069 4.94278 124.304 4.26248C124.773 2.98693 124.709 2.583 124.091 2.98693C123.515 3.36959 120.571 4.81522 114.235 7.81278C111.824 8.93952 109.861 10.0663 108.987 10.7891C108.261 11.4056 108.027 11.7883 107.685 12.9788C107.237 14.4669 106.811 17.3157 106.555 20.4833C106.469 21.4825 106.341 22.4391 106.256 22.6305C106.171 22.8006 106.021 24.969 105.915 27.4138C105.808 29.8586 105.573 34.4506 105.403 37.597C105.04 43.7409 105.104 56.539 105.509 62.5766C105.637 64.2774 105.808 67.1049 105.915 68.8481C106 70.6126 106.192 72.3772 106.32 72.7811C106.448 73.185 106.555 73.8866 106.555 74.333C106.555 75.566 107.344 78.7549 108.197 80.9659C108.837 82.6241 110.437 85.6429 110.864 86.0043C111.227 86.3232 111.355 86.3445 111.845 86.0894C112.165 85.9406 112.997 85.7492 113.701 85.6642ZM18.3413 80.9659C19.8133 80.0943 29.648 75.2471 33.808 73.3551C34.448 73.0787 35.7066 72.5047 36.5813 72.0795C37.456 71.6756 39.1413 70.9528 40.2933 70.4426C41.4453 69.9536 42.5546 69.4859 42.7466 69.3796C43.088 69.2095 44.0693 68.7843 45.4346 68.2103C45.84 68.0403 46.5013 67.7639 46.8853 67.5938C47.248 67.445 48.4426 66.9348 49.488 66.5096C50.5546 66.0844 51.4933 65.638 51.6 65.5317C51.728 65.4254 51.984 65.3403 52.176 65.3403C52.3893 65.3403 53.0506 65.0852 53.648 64.7876C54.2453 64.49 55.0133 64.1498 55.312 64.0648C56.528 63.6821 57.8293 63.1719 58.8746 62.6617C59.4933 62.3853 60.0906 62.1514 60.1973 62.1514C60.3893 62.1514 61.2 61.8326 62.928 61.0885C64.2506 60.5145 65.04 60.1956 66.8746 59.494C67.984 59.0901 69.0933 58.6437 69.328 58.5586C70.5653 58.0271 71.184 57.8146 72.6346 57.3469C73.5093 57.0705 74.4266 56.7303 74.6613 56.624C74.896 56.5177 75.7706 56.1776 76.5813 55.8587C77.4133 55.5611 78.8426 55.0296 79.7813 54.6894C80.72 54.328 81.8293 53.9454 82.2346 53.8391C82.64 53.754 83.5146 53.4564 84.1546 53.2013C84.7946 52.9674 85.6266 52.6698 85.968 52.5848C89.04 51.7132 92.2613 50.2675 92.9226 49.4809C93.392 48.9282 93.264 47.5251 92.6453 45.9944C92.3253 45.2291 91.728 43.6984 91.3013 42.5929C90.8746 41.4874 90.4053 40.2969 90.256 39.9355C90.0853 39.5954 89.68 38.5749 89.3173 37.7033C88.976 36.8317 88.464 35.5774 88.208 34.9396C87.952 34.3018 87.5253 33.3026 87.248 32.7074C86.7573 31.5806 85.6053 28.8169 85.072 27.3926C84.88 26.9249 84.624 26.2658 84.4746 25.9044C84.304 25.5643 83.7493 24.1611 83.1946 22.8218C82.64 21.4825 82.0853 20.1006 81.9146 19.7392C81.7653 19.3991 81.424 18.57 81.168 17.9322C80.2933 15.7425 78.9493 13.4465 78.2453 12.915C77.4773 12.341 77.3706 11.9583 77.84 11.5757C78.2453 11.2355 79.1626 11.6182 80.0586 12.4686C80.7413 13.1063 86.096 25.1178 88.528 31.2192C88.656 31.5806 88.976 32.3247 89.232 32.8774C89.488 33.4514 89.7013 33.9617 89.7013 34.0467C89.7013 34.1105 89.8933 34.5569 90.1066 35.0246C90.8533 36.6191 91.8346 39.0639 91.8346 39.3615C91.8346 39.5316 91.9626 39.9143 92.1333 40.2119C92.304 40.5308 92.7306 41.6575 93.1146 42.6992C93.4986 43.7622 93.9253 44.9527 94.0746 45.3566C94.224 45.7606 94.4373 46.3983 94.5226 46.7385C94.8 47.6739 95.44 47.6739 96.08 46.7385C96.464 46.1645 96.5493 45.8031 96.464 45.1866C96.3786 44.485 95.1413 41.126 94.5866 40.0418C94.3733 39.5954 93.1146 36.3214 93.1146 36.1514C93.1146 36.0876 92.816 35.4073 92.4746 34.6632C92.1333 33.8979 91.8346 33.1751 91.8346 33.0688C91.8346 32.9412 91.5573 32.2184 91.1946 31.4318C90.8533 30.6452 90.5546 29.9224 90.5546 29.8161C90.5546 29.7098 90.128 28.6681 89.5946 27.4989C89.0613 26.3296 88.208 24.4163 87.6746 23.247C87.1413 22.0777 86.7146 21.0148 86.7146 20.9085C86.7146 20.7809 86.416 20.0369 86.0533 19.2503C85.6906 18.4637 85.2426 17.4857 85.072 17.0818C83.728 13.9567 83.2586 13 82.5333 11.8733C81.7226 10.5977 81.104 10.0237 80.144 9.64107C78.8853 9.15211 76.9013 9.85367 71.504 12.6386C71.312 12.7449 67.28 14.7646 62.544 17.1031C57.8293 19.4416 53.8186 21.44 53.648 21.5463C50.9813 22.8856 46.5226 25.0966 28.7946 33.7703C21.1146 37.5332 12.6453 41.6363 6.0533 44.8039C5.17864 45.2291 4.17597 45.8456 3.8133 46.1857C2.9173 47.0786 1.59464 49.7998 1.59464 50.7777C1.59464 52.1171 3.40797 58.2823 3.96264 58.8563C4.0693 58.9626 4.15464 59.1964 4.15464 59.3877C4.17597 59.5578 4.34664 60.0893 4.5813 60.557C4.81597 61.0247 4.98664 61.4924 5.00797 61.5774C5.00797 61.6837 5.26397 62.3003 5.56264 62.9593C6.60797 65.234 8.63464 69.4859 8.97597 70.1237C9.46664 71.0166 13.328 78.4573 13.776 79.3714C14.3733 80.5832 16.2506 82.0076 16.9333 81.7525C17.104 81.6887 17.7226 81.3486 18.3413 80.9659ZM196.688 50.31C195.963 48.588 195.664 47.6951 195.579 47.1211C195.515 46.7385 194.555 44.6338 194.171 43.8685C193.403 42.3378 192.763 41.9339 191.739 42.2953C191.291 42.4441 191.12 42.7205 190.864 43.6134L190.544 44.7401L192.272 46.4834C193.211 47.44 194.491 48.7794 195.088 49.4597C196.176 50.6502 197.008 51.0966 196.688 50.31ZM98.7893 39.2977C99.664 38.8938 101.925 38.0647 102.395 37.9159C103.653 37.5332 103.803 37.3419 103.76 36.2364C103.739 35.7049 103.803 33.8979 103.888 32.2397C104.037 29.5185 104.016 29.1996 103.696 29.072C103.504 29.0083 103.099 29.1146 102.757 29.3271C101.349 30.2626 95.6106 33.1113 94.7786 33.3239C94.0533 33.494 94.0106 34.0254 94.5866 35.1309C95.1413 36.1301 96.08 38.5749 96.2293 39.404C96.4 40.2331 96.784 40.2331 98.7893 39.2977ZM134.288 4.15619C134.288 3.96485 133.968 3.30581 133.584 2.73181C132.987 1.79641 132.795 1.66885 132.091 1.60507C131.28 1.5413 130.235 1.98774 130.235 2.41293C130.235 2.54048 130.448 2.71056 130.725 2.81685C130.981 2.92315 131.771 3.34833 132.475 3.77352C133.904 4.62389 134.288 4.70893 134.288 4.15619Z" fill="rgb(0,0,0)" fill-rule="nonzero" transform="matrix(1,0,0,-1,30.9521,229.697)" />
			<path id="矢量 388" d="M16.9124 56.2733C16.3791 55.5505 13.0938 48.5987 12.8804 47.7058C12.8164 47.4294 12.6671 47.1318 12.5604 47.068C12.4538 47.0042 12.3684 46.7916 12.3684 46.6003C12.3684 46.409 12.2404 45.9838 12.0698 45.6649C11.8991 45.346 11.7071 44.8145 11.6218 44.4531C11.5364 44.0917 11.3871 43.7516 11.2804 43.6878C11.1738 43.6027 11.0884 43.3476 11.0884 43.0925C11.0884 42.8374 10.9604 42.391 10.8111 42.0933C10.3418 41.2005 8.31508 34.6101 8.31508 33.9936C8.31508 33.781 8.22975 33.5471 8.10175 33.4833C7.99508 33.4196 7.88842 33.1007 7.88842 32.803C7.88842 32.5054 7.76042 31.9739 7.58975 31.6125C7.41908 31.2299 7.18442 30.507 7.07775 29.9756C6.94975 29.4441 6.69375 28.4874 6.50175 27.8496C6.30975 27.2119 6.03242 26.1489 5.86175 25.5111C5.71242 24.8733 5.41375 23.8104 5.22175 23.1726C5.02975 22.5348 4.75242 21.4719 4.58175 20.8341C4.24042 19.3672 3.25908 15.4342 3.00308 14.4563C2.40575 12.2241 1.33908 7.65333 0.720417 4.78333C-0.15425 0.701556 -0.196917 0 0.400417 0C0.699083 0 0.848417 0.212593 0.955083 0.701556C1.04042 1.06296 1.16842 1.48815 1.25375 1.59444C1.31775 1.722 1.48842 2.38104 1.63775 3.08259C1.76575 3.78415 2.04308 4.93215 2.21375 5.6337C2.38442 6.33526 2.68308 7.48326 2.85375 8.18482C3.02442 8.88637 3.32308 10.0344 3.51508 10.7359C3.89908 12.1178 4.38975 14.265 4.66708 15.6256C4.75242 16.0933 4.94442 16.8161 5.07242 17.22C5.28575 17.9216 6.07508 20.8341 6.69375 23.3852C6.86442 24.023 7.16308 25.0859 7.35508 25.7237C7.54708 26.3615 7.84575 27.467 7.99508 28.1685C8.16575 28.8701 8.48575 30.0606 8.72042 30.8259C9.23242 32.4204 9.59509 33.6747 10.2351 35.9282C10.4911 36.7998 10.7684 37.7565 10.8751 38.0541C10.9818 38.3517 11.1098 38.8832 11.1951 39.2233C11.3231 39.8399 13.2218 45.0696 14.1178 47.3019C14.6084 48.5562 14.9284 49.2365 16.5071 52.5742C17.1684 53.9347 17.7018 55.3379 17.7018 55.678C17.7018 56.337 17.2111 56.6985 16.9124 56.2733Z" fill="rgb(0,0,0)" fill-rule="nonzero" transform="matrix(1,0,0,-1,207.698,71.4541)" />
			<path id="矢量 389" d="M2.09854 16.6377C1.86387 16.574 1.26654 16.3826 0.754541 16.2126C-0.0347916 15.9149 -0.120125 15.8299 0.114542 15.5535C0.327875 15.2772 0.775875 15.2559 2.95187 15.3622C4.50921 15.4472 5.91721 15.426 6.57854 15.2772C7.17587 15.1709 8.75454 14.9795 10.0985 14.852C12.9785 14.6181 17.5012 14.0654 17.7359 13.9166C17.8425 13.8528 18.7599 13.6615 19.8265 13.4914C20.8719 13.3213 22.3652 13.0237 23.1545 12.8323C23.9652 12.6623 25.2452 12.3646 26.0345 12.1733C26.8452 12.0032 28.0612 11.7056 28.7652 11.5355C29.4692 11.3655 30.6212 11.0891 31.3252 10.9403C32.0292 10.7915 33.2239 10.4513 33.9919 10.1962C34.7599 9.96235 35.9119 9.60094 36.5519 9.40961C37.1919 9.21827 38.1092 8.9419 38.5785 8.77183C39.0692 8.60175 39.6239 8.4742 39.8372 8.4742C40.0505 8.4742 40.5199 8.34664 40.8825 8.17657C41.2665 8.00649 41.7572 7.83642 41.9919 7.77264C42.2265 7.70886 43.3785 7.30494 44.5519 6.87975C45.7252 6.45457 46.9839 6.02938 47.3252 5.92309C48.0292 5.73175 49.1599 5.34909 49.9919 5.00894C50.9945 4.62627 55.8585 2.92553 57.5652 2.39405C58.5038 2.09642 59.9545 1.62872 60.7652 1.35235C61.5972 1.07598 62.5998 0.799609 63.0052 0.714572C63.4105 0.629535 64.1998 0.416943 64.7332 0.246869C66.0558 -0.157057 67.9972 -0.0507606 68.0825 0.459461C68.1465 0.735832 68.0185 0.820869 67.4852 0.820869C66.9305 0.820869 65.8212 1.1185 63.6452 1.84131C63.4745 1.90509 62.9412 2.07516 62.4718 2.20272C61.6185 2.47909 58.2478 3.66961 53.9385 5.24279C52.6585 5.7105 51.2505 6.22072 50.8452 6.34827C50.4398 6.49709 49.7785 6.7522 49.3945 6.90101C49.0105 7.07109 48.5412 7.19864 48.3705 7.19864C48.1785 7.19864 47.7732 7.3262 47.4745 7.49627C47.1545 7.64509 46.5572 7.9002 46.1519 8.02775C45.7465 8.15531 43.9759 8.75057 42.2479 9.32457C40.5199 9.91983 38.9412 10.3875 38.7705 10.3875C38.5785 10.3875 38.1305 10.5151 37.7679 10.6639C36.9572 11.0253 35.5705 11.4292 32.1785 12.3221C30.7705 12.6835 29.1492 13.1087 28.5519 13.2575C27.9759 13.4276 26.7599 13.704 25.8852 13.8953C25.0105 14.0866 23.8585 14.3418 23.3252 14.4693C22.7919 14.5756 21.8319 14.7669 21.1919 14.852C18.8879 15.1921 15.7305 15.7449 15.0052 15.9362C13.4052 16.3401 3.22921 16.8929 2.09854 16.6377Z" fill="rgb(0,0,0)" fill-rule="nonzero" transform="matrix(1,0,0,-1,137.862,77.1646)" />
		</g>
	</g>
</svg>
