<svg viewBox="0 0 268 230" xmlns="http://www.w3.org/2000/svg" xmlns:xlink="http://www.w3.org/1999/xlink" width="268.000000" height="230.000000" fill="none">
	<defs>
		<clipPath id="clipPath_7">
			<rect width="232.000000" height="230.000000" x="18.000000" y="0.000000" fill="rgb(255,255,255)" />
		</clipPath>
	</defs>
	<rect id="7" width="268.000000" height="230.000000" x="0.000000" y="0.000000" />
	<g id="7" clip-path="url(#clipPath_7)" customFrame="url(#clipPath_7)">
		<rect id="7" width="232.000000" height="230.000000" x="18.000000" y="0.000000" />
		<path id="矢量 390" d="M160.161 223.755L157.672 228.496L155.267 228.496L152.842 227.369L149.501 228.092L131.479 219.525L130.308 209.044L128.84 190.123L118.074 186.956L100.179 217.909L94.583 218.249L20.3023 181.449L18.3235 174.816L33.2179 147.987L35.5372 144.99L35.367 122.455L40.1119 111.443L38.5374 108.785L37.516 102.854L40.8779 97.369L49.921 93.1597L72.5605 83.9332L98.2854 77.1514L109.137 75.4294L110.861 54.2552L117.137 32.2519L123.436 19.7515L130.734 20.4743L133.436 21.3246L137.713 8.25019L144.075 2.1913L153.714 1.21338L193.567 4.29597L214.654 8.69664L221.271 12.7146L223.952 23.6419L223.59 30.2748L229.101 30.1047L237.761 32.8472L246.336 34.0589L248.123 36.6313L237.719 109.487L235.399 112.399L231.527 111.698L230.144 112.654L234.527 115.843L235.74 119.479L232.718 163.825L221.548 177.41L220.164 183.299L218.441 187.508L215.505 188.061L213.356 184.723L186.673 207.598L160.161 223.755Z" fill="rgb(255,255,255)" fill-rule="nonzero" />
		<path id="矢量 390" d="M157.672 228.496L155.267 228.496L152.842 227.369L149.501 228.092L131.479 219.525L130.308 209.044L128.84 190.123L118.074 186.956L100.179 217.909L94.583 218.249L20.3023 181.449L18.3235 174.816L33.2179 147.987L35.5372 144.99L35.367 122.455L40.1119 111.443L38.5374 108.785L37.516 102.854L40.8779 97.369L49.921 93.1597L72.5605 83.9332L98.2854 77.1514L109.137 75.4294L110.861 54.2552L117.137 32.2519L123.436 19.7515L130.734 20.4743L133.436 21.3246L137.713 8.25019L144.075 2.1913L153.714 1.21338L193.567 4.29597L214.654 8.69664L221.271 12.7146L223.952 23.6419L223.59 30.2748L229.101 30.1047L237.761 32.8472L246.336 34.0589L248.123 36.6313L237.719 109.487L235.399 112.399L231.527 111.698L230.144 112.654L234.527 115.843L235.74 119.479L232.718 163.825L221.548 177.41L220.164 183.299L218.441 187.508L215.505 188.061L213.356 184.723L186.673 207.598L160.161 223.755L157.672 228.496Z" fill-rule="nonzero" stroke="rgb(0,0,0)" stroke-width="1.000000" />
		<path id="矢量 391" d="M130.266 150.794L117.861 187.657L100.392 217.484L96.9661 218.781L22.5151 183.087L18.6426 176.135L20.9619 169.077L35.6861 146.202L38.6011 144.926L39.0267 141.397L46.4314 126.856L52.5594 118.076L60.4534 110.231L74.4542 105.448L89.0295 104.13L94.2 102.174L107.201 99.0913L121.457 97.3906L120.925 95.0308L123.202 91.8632L122.18 84.2949L120.138 79.469L109.137 75.4298L109.797 60.4208L114.265 42.7543L119.669 26.6823L123.819 20.4746L128.627 19.5392L132.84 21.4313L136.798 10.589L142.096 2.59557L152.203 1.38379L179.247 2.93571L209.909 7.33638L218.781 11.2056L224.228 20.4746L224.228 30.2539L231.101 30.7428L237.761 32.8475L246.464 33.5278L248.528 38.2473L237.08 111.124L234.655 112.272L231.527 111.698L228.122 112.506L223.484 111.719L223.484 107.425L218.313 101.239L205.483 95.9875L192.759 97.1993L168.651 104.704L148.246 116.014L132.074 126.686L128.585 133.914L132.5 141.907L134.649 143.034L130.266 150.794Z" fill="rgb(1,89,188)" fill-rule="nonzero" />
		<path id="矢量 391" d="M117.861 187.657L100.392 217.484L96.9661 218.781L22.5151 183.087L18.6426 176.135L20.9619 169.077L35.6861 146.202L38.6011 144.926L39.0267 141.397L46.4314 126.856L52.5594 118.076L60.4534 110.231L74.4542 105.448L89.0295 104.13L94.2 102.174L107.201 99.0913L121.457 97.3906L120.925 95.0308L123.202 91.8632L122.18 84.2949L120.138 79.469L109.137 75.4298L109.797 60.4208L114.265 42.7543L119.669 26.6823L123.819 20.4746L128.627 19.5392L132.84 21.4313L136.798 10.589L142.096 2.59557L152.203 1.38379L179.247 2.93571L209.909 7.33638L218.781 11.2056L224.228 20.4746L224.228 30.2539L231.101 30.7428L237.761 32.8475L246.464 33.5278L248.528 38.2473L237.08 111.124L234.655 112.272L231.527 111.698L228.122 112.506L223.484 111.719L223.484 107.425L218.313 101.239L205.483 95.9875L192.759 97.1993L168.651 104.704L148.246 116.014L132.074 126.686L128.585 133.914L132.5 141.907L134.649 143.034L130.266 150.794L117.861 187.657Z" fill-rule="nonzero" stroke="rgb(0,0,0)" stroke-width="1.000000" />
		<g id="组合 79">
			<path id="矢量 392" d="M130.454 229.188C130.284 229.082 129.603 228.933 128.965 228.869C125.39 228.465 122.198 226.467 120.241 223.427C119.368 222.066 117.709 218.877 117.453 218.091C117.368 217.793 117.092 217.028 116.836 216.39C116.602 215.752 116.198 214.604 115.943 213.839C115.709 213.074 115.389 212.096 115.219 211.649C115.049 211.224 114.921 210.565 114.921 210.225C114.921 209.417 114.538 209.396 112.879 210.161C111.879 210.608 111.198 210.735 109.559 210.82C107.155 210.926 106.304 210.671 104.602 209.375C103.729 208.694 103.346 208.163 102.495 206.462C101.942 205.314 101.346 204.102 101.197 203.741C101.048 203.401 100.665 202.55 100.346 201.87C99.7077 200.446 98.7714 197.958 97.9629 195.45C97.665 194.514 97.3246 193.664 97.2394 193.558C97.1331 193.43 97.0479 193.175 97.0479 192.962C97.0479 192.771 96.9203 192.282 96.7501 191.899C96.3458 190.922 96.0053 189.901 95.6223 188.541C95.4521 187.903 95.1755 186.946 95.0266 186.415C94.2818 183.842 94.0052 182.822 93.7499 181.738C92.9626 178.442 92.7711 177.528 92.6647 176.848C92.6009 176.444 92.452 175.87 92.3456 175.572C92.2392 175.275 92.0689 174.276 91.9413 173.34C91.8349 172.405 91.537 170.534 91.3029 169.195C90.771 166.261 90.2603 161.392 90.0688 157.608L89.9199 154.845L88.1751 154.696C87.2389 154.632 86.0899 154.462 85.6218 154.334C85.1749 154.207 84.4515 154.1 84.0259 154.1C83.6004 154.1 82.9833 153.994 82.6642 153.888C82.345 153.76 81.5577 153.569 80.8981 153.463C78.5788 153.08 76.4085 152.634 76.1319 152.464C76.0042 152.378 75.451 152.23 74.9191 152.145C73.2807 151.89 71.6423 151.528 70.9827 151.294C70.6422 151.188 70.1103 151.039 69.8124 150.997C69.5145 150.933 68.8123 150.763 68.2166 150.593C67.6421 150.423 66.5782 150.146 65.876 149.934C61.4928 148.743 52.6412 145.873 50.1304 144.831C49.79 144.683 49.0666 144.406 48.5346 144.215C48.0027 144.002 47.2367 143.705 46.8324 143.513C46.4281 143.343 45.7472 143.046 45.3429 142.876C44.9387 142.706 44.3429 142.429 44.0237 142.259C43.7258 142.11 43.3641 141.983 43.2364 141.983C43.1088 141.983 42.3428 141.685 41.5555 141.324C35.1509 138.326 33.7678 137.688 32.6827 137.284C32.1082 137.051 31.4273 136.774 31.1932 136.668C30.257 136.243 26.8738 134.967 26.6398 134.967C26.5121 134.967 26.2355 134.882 26.0227 134.776C25.8312 134.67 25.0439 134.287 24.2779 133.947C22.9162 133.33 21.3629 131.991 20.4267 130.609C19.2351 128.802 18.4691 125.677 18.8947 124.189C19.8522 120.809 20.0437 120.362 20.7671 119.66C21.6182 118.831 21.6821 118.598 21.0863 118.066C20.5543 117.577 18.7457 114.558 18.3627 113.517C17.4052 110.88 16.9158 108.329 16.6179 104.248C16.3626 100.57 16.3626 92.5762 16.6179 88.0267L16.8307 84.3489L16.2349 83.7324C15.5966 83.1158 13.2773 79.8419 12.3624 78.29C12.0645 77.801 11.1921 76.4404 10.4048 75.2712C9.59628 74.1019 8.95794 73.0815 8.95794 72.9964C8.95794 72.9114 8.68133 72.465 8.34089 71.976C7.80894 71.1894 6.17056 68.447 5.51094 67.2564C5.38328 67.0226 4.65983 65.7896 3.91511 64.514C3.17039 63.2384 2.57461 62.0267 2.57461 61.8141C2.57461 61.6015 2.46822 61.3676 2.36183 61.3038C2.1065 61.1338 1.70222 60.2621 0.723444 57.5835C0.0851111 55.8402 0 55.3087 0 53.6505C0 51.8222 0.0425555 51.6734 0.936222 49.9089C2.00011 47.8255 2.85122 46.635 3.55339 46.2523C4.10661 45.9547 5.25561 45.4019 8.10683 44.0626C12.1922 42.1067 14.171 41.1713 14.554 40.98C15.4477 40.5123 16.7243 39.8745 20.7671 37.9187C29.9166 33.4755 52.5348 22.3144 54.4924 21.2514C56.4925 20.1884 71.8763 12.6627 73.7488 11.8548C73.9828 11.7485 74.3233 11.5784 74.4935 11.4721C74.6637 11.3871 75.1531 11.1533 75.5574 10.9832C75.9617 10.8131 76.6638 10.4942 77.1107 10.3029C79.132 9.43125 81.5577 10.069 83.5153 11.9824C84.2813 12.7477 85.7707 14.8524 85.7707 15.1925C85.7707 15.3413 85.8984 15.5539 86.0686 15.6815C86.2176 15.809 86.7921 16.8082 87.3453 17.8924C87.8985 18.9554 88.6007 20.2735 88.8986 20.805C89.1964 21.3364 90.1752 23.186 91.0689 24.9293C91.9626 26.6725 92.7924 28.1394 92.9201 28.1819C93.0477 28.2244 93.369 28.0416 93.6648 27.8205C94.9287 26.8894 96.8224 25.6563 97.8544 25.0185C98.4927 24.6784 99.5374 24.0151 100.197 23.6324C100.857 23.271 101.938 22.7268 102.516 22.3994C103.127 22.0529 103.61 21.7149 103.75 21.6341C104.691 21.1005 105.41 21.5065 108.006 22.8246C109.729 23.6962 110.836 24.1214 110.942 24.0151C111.07 23.8875 111.176 22.9521 111.198 21.9317C111.24 19.6782 111.793 15.1925 112.134 14.3634C112.262 14.0233 112.368 13.4918 112.368 13.1516C112.368 12.8115 112.453 12.4926 112.559 12.4288C112.666 12.365 112.815 11.9611 112.879 11.5572C113.049 10.6643 114.879 8.66592 115.985 8.1557C116.389 7.96436 117.602 7.3691 118.645 6.81636C121.326 5.39199 122.156 4.98807 123.007 4.58414C124.39 3.96762 129.284 1.65036 130.348 1.11888C131.433 0.587401 132.71 0.549133 133.324 0.768105C133.441 0.810623 133.714 0.914794 133.965 1.03385C134.235 1.1614 134.49 1.19754 134.603 1.24644C135.025 1.42927 135.325 1.28683 135.986 0.927549C136.327 0.742595 136.661 0.60441 136.837 0.527874C137.014 0.451341 137.391 0.268512 137.689 0.119698C138.859 -0.475562 141.067 1.26557 141.667 2.7771C141.791 3.08536 141.995 3.51693 142.076 3.72102C142.14 3.88471 142.406 4.75209 142.542 5.06885C142.829 5.73427 143.153 5.88308 143.54 6.13607C143.682 6.22961 144.859 6.71007 146.115 7.41162C147.37 8.11318 148.434 8.68718 148.455 8.68718C148.476 8.68718 149.2 9.0911 150.072 9.60133C150.923 10.1115 151.774 10.6005 151.945 10.6855C152.115 10.7706 152.455 10.9407 152.689 11.0895C152.923 11.2383 153.498 11.5997 153.966 11.8761C154.455 12.1737 155.03 12.5351 155.243 12.6839C155.477 12.8115 155.817 13.0028 155.987 13.0878C156.158 13.1729 156.69 13.4918 157.136 13.8319C157.583 14.1508 158.051 14.4272 158.136 14.4272C158.243 14.4272 158.924 14.8311 159.668 15.3413C160.392 15.8515 161.137 16.3193 161.307 16.4043C161.903 16.7019 167.009 20.1247 167.435 20.5498C167.584 20.6774 167.797 20.805 167.903 20.805C168.009 20.805 168.222 20.9325 168.371 21.0813C168.52 21.2301 170.988 23.101 173.861 25.2481C176.733 27.3953 179.414 29.4575 179.84 29.8189C180.244 30.1803 181.244 31.0094 182.053 31.6472C182.84 32.285 183.606 32.9227 183.734 33.029C183.861 33.1566 185.074 34.1983 186.415 35.3675C188.776 37.4084 191.074 39.5344 193.734 42.128C194.436 42.787 195.117 43.3398 195.266 43.3398C195.415 43.3398 195.585 43.0421 195.67 42.6807C195.756 42.3193 196.096 41.7028 196.458 41.2989C197.054 40.6186 197.181 40.5761 198.437 40.5761C199.756 40.5761 199.82 40.5973 200.713 41.5115C201.224 42.0217 201.798 42.8933 202.011 43.4673C203.245 46.6987 203.65 48.0168 203.65 48.5695C203.65 48.8247 203.799 49.3774 203.969 49.7813C204.139 50.2065 204.288 50.9506 204.288 51.4395C204.288 52.2687 204.416 52.4387 207.033 55.1174C211.671 59.837 213.523 61.9416 214.501 63.5998C215.033 64.514 215.778 67.3627 215.778 68.5532C215.778 69.0635 215.863 69.68 215.991 69.9564C216.097 70.2327 216.289 71.891 216.416 73.6342C216.544 75.3987 216.714 77.4396 216.821 78.2049C216.927 78.9703 217.076 80.5647 217.14 81.7552C217.204 82.9458 217.353 84.4764 217.459 85.1567C217.863 87.4315 218.225 96.3178 218.225 104.248L218.225 112.113L217.672 113.283C217.14 114.431 215.352 116.472 214.863 116.472C214.565 116.493 213.65 117.216 213.65 117.428C213.65 117.62 215.225 117.343 216.246 116.982C217.331 116.599 218.246 116.897 219.331 118.002C220.587 119.299 221.034 120.745 221.523 125.082C221.629 126.017 221.821 127.271 221.949 127.845C222.374 129.844 222.736 132.352 223.438 138.05C223.544 138.985 223.736 140.176 223.864 140.707C223.97 141.239 224.161 142.578 224.289 143.683C224.395 144.789 224.63 146.66 224.8 147.829C224.97 148.998 225.204 150.635 225.31 151.443C225.417 152.272 225.587 153.165 225.651 153.463C225.715 153.76 225.885 154.908 225.991 156.014C226.119 157.119 226.353 159.033 226.545 160.266C226.715 161.499 226.991 163.561 227.162 164.836C227.311 166.133 227.502 167.366 227.587 167.6C227.651 167.834 227.8 168.897 227.906 169.939C228.204 172.766 228.694 176.274 228.821 176.763C228.906 176.975 229.098 178.357 229.289 179.824C229.481 181.291 229.779 183.438 229.949 184.608C230.119 185.777 230.353 187.648 230.481 188.753C230.587 189.859 230.779 191.049 230.885 191.389C231.566 193.388 230.715 195.747 229.034 196.662C227.8 197.321 227.013 197.469 224.8 197.491C223.885 197.491 222.587 197.639 221.949 197.788C221.119 198.001 220.374 198.022 219.395 197.916C218.097 197.746 217.927 197.788 216.629 198.447C213.586 199.978 211.139 200.658 208.65 200.658L206.841 200.658L206.841 204.017C206.841 206.335 206.756 207.653 206.543 208.312C206.373 208.843 206.075 209.8 205.884 210.438C204.182 216.305 203.352 217.878 200.99 219.707C199.969 220.493 197.756 221.705 197.33 221.705C197.16 221.705 196.713 221.833 196.351 222.003C195.33 222.449 193.521 222.98 193.011 222.98C192.755 222.98 192.351 223.087 192.096 223.236C191.84 223.363 191.202 223.555 190.67 223.64C190.138 223.725 188.904 224.001 187.904 224.256C185.181 224.936 179.755 225.68 173.754 226.191C172.35 226.297 170.988 226.488 170.712 226.595C170.435 226.722 169.839 226.807 169.371 226.807C168.903 226.807 167.371 226.935 165.924 227.105C160.243 227.764 158.69 227.913 154.392 228.104C150.051 228.295 147.476 228.444 140.667 228.954C136.071 229.295 130.837 229.401 130.454 229.188ZM140.667 227.445C142.242 227.339 144.731 227.147 146.2 227.02C147.668 226.892 150.157 226.786 151.732 226.786C153.328 226.765 155.264 226.637 156.094 226.467C156.924 226.297 158.349 226.169 159.285 226.148C160.222 226.148 161.796 226.042 162.796 225.957C167.605 225.468 168.967 225.319 170.137 225.128C171.371 224.915 173.605 224.639 177.265 224.256C178.265 224.15 179.648 223.958 180.35 223.852C184.776 223.129 186.053 222.895 187.479 222.619C188.351 222.428 189.5 222.151 190.011 222.003C190.543 221.833 191.181 221.705 191.436 221.705C191.713 221.705 192.351 221.577 192.84 221.407C193.351 221.237 194.33 220.94 195.032 220.727C196.16 220.387 198.437 219.388 199.734 218.644C199.99 218.516 200.671 217.836 201.266 217.155C202.075 216.199 202.479 215.455 202.99 213.967C203.352 212.882 203.65 211.862 203.65 211.649C203.65 211.458 203.777 210.99 203.947 210.608C204.735 208.801 204.926 207.525 204.99 204.081L205.033 200.595L203.777 199.957C202.926 199.51 202.245 198.936 201.586 198.128C200.692 196.98 198.458 192.707 197.5 190.241C196.841 188.583 196.628 188.094 196.288 187.414C196.117 187.074 195.99 186.712 195.99 186.585C195.99 186.478 195.862 186.074 195.713 185.713C195.33 184.799 194.926 183.693 194.713 182.907C194.607 182.567 194.33 181.738 194.075 181.1C193.819 180.462 193.543 179.654 193.436 179.293C193.33 178.953 193.032 177.996 192.734 177.167C192.458 176.359 192.011 174.956 191.755 174.084C191.479 173.213 191.181 172.277 191.074 172.001C190.968 171.724 190.883 171.32 190.883 171.065C190.883 170.832 190.734 170.151 190.542 169.535C190.351 168.939 190.074 168.025 189.904 167.494C189.734 166.962 189.606 166.261 189.606 165.942C189.606 165.602 189.5 165.134 189.351 164.879C189.223 164.624 188.989 163.837 188.84 163.136C188.691 162.434 188.415 161.137 188.223 160.266C187.33 156.269 187.117 155.036 186.649 151.868C186.5 150.933 186.287 149.551 186.181 148.786C186.053 148.02 185.861 146.362 185.755 145.065C185.649 143.79 185.5 142.344 185.457 141.876C185.415 141.409 185.287 139.772 185.159 138.241C184.904 134.648 184.84 134.542 182.904 134.542C181.074 134.521 179.244 134.287 176.733 133.692C175.691 133.458 174.414 133.16 173.903 133.054C173.393 132.948 172.882 132.799 172.776 132.735C172.669 132.65 172.137 132.522 171.563 132.416C168.988 131.97 161.732 129.929 158.86 128.866C158.392 128.674 157.668 128.419 157.264 128.271C155.775 127.718 153.094 126.634 152.54 126.336C152.243 126.166 151.859 126.038 151.711 126.038C151.562 126.038 150.71 125.698 149.838 125.273C148.944 124.848 147.412 124.125 146.412 123.657C145.412 123.19 144.455 122.722 144.285 122.616C144.114 122.509 143.668 122.297 143.327 122.148C142.965 121.978 141.965 121.446 141.093 120.936C138.072 119.214 138.454 119.278 136.837 120.086C136.646 120.171 136.178 120.32 135.773 120.405C135.369 120.49 134.901 120.638 134.71 120.723C134.263 120.936 133.092 121.34 131.943 121.68C131.007 121.956 130.156 122.233 126.411 123.53C124.007 124.359 123.156 124.699 121.581 125.422C120.837 125.762 120.198 126.038 120.134 126.038C119.964 126.038 115.985 128.037 114.389 128.908C110.219 131.226 107.283 132.416 105.729 132.416C104.431 132.416 103.857 132.735 103.857 133.437C103.857 133.777 104.027 134.287 104.24 134.563C105.133 135.754 105.985 138.56 105.985 140.282C105.985 141.409 105.495 143.598 105.006 144.683C104.836 145.044 104.708 145.405 104.708 145.512C104.708 145.597 104.41 146.277 104.048 147.042C103.453 148.297 103.41 148.573 103.495 150.04C103.623 152.166 104.027 154.823 104.41 156.014C104.58 156.545 104.708 157.353 104.708 157.821C104.729 158.289 104.857 159.054 105.027 159.522C105.197 159.989 105.346 160.585 105.346 160.818C105.346 161.286 105.751 162.349 106.878 164.73C107.474 165.984 107.517 166.24 107.41 167.706C107.304 169.131 107.453 171.299 107.793 173.446C108.219 176.125 108.793 179.399 108.964 180.037C109.432 181.78 110.283 185.309 110.453 186.096C110.644 187.116 111.027 188.711 111.41 190.135C111.9 191.899 112.176 193.069 112.347 193.962C112.432 194.429 112.623 195.025 112.751 195.28C112.9 195.535 113.006 196.003 113.006 196.3C113.006 196.98 113.538 199.532 113.964 200.892C114.134 201.445 114.283 202.104 114.283 202.38C114.304 202.657 114.432 203.124 114.602 203.422C114.772 203.72 114.9 204.166 114.921 204.421C114.921 204.676 115.07 205.357 115.24 205.909C115.432 206.462 115.73 207.461 115.9 208.099C116.092 208.737 116.326 209.566 116.432 209.906C116.56 210.267 116.836 211.16 117.07 211.926C117.326 212.691 117.666 213.69 117.836 214.158C118.007 214.626 118.304 215.391 118.475 215.859C118.666 216.326 118.943 217.092 119.113 217.559C120.496 221.195 122.986 224.851 124.581 225.553C124.837 225.659 125.326 225.936 125.688 226.148C126.539 226.658 128.645 227.232 130.454 227.445C132.433 227.658 137.305 227.658 140.667 227.445ZM110.879 208.971C112.602 208.673 114.07 208.099 114.07 207.738C114.07 207.546 113.815 206.632 113.517 205.675C112.602 202.805 112.538 202.529 112.219 201.211C112.07 200.488 111.793 199.298 111.602 198.532C111.432 197.767 111.198 196.683 111.091 196.088C111.006 195.514 110.815 194.748 110.708 194.387C110.602 194.047 110.325 192.984 110.134 192.048C109.921 191.113 109.644 189.922 109.495 189.391C109.347 188.859 109.049 187.669 108.857 186.733C108.644 185.798 108.346 184.671 108.198 184.225C108.027 183.8 107.9 183.098 107.9 182.694C107.9 182.312 107.793 181.716 107.666 181.376C107.368 180.611 106.878 178.421 106.623 176.635C106.495 175.87 106.304 174.977 106.176 174.616C106.048 174.276 105.9 172.256 105.836 170.151C105.729 166.835 105.665 166.176 105.261 165.262C104.325 163.157 103.623 160.903 103.133 158.565C102.453 155.227 102.346 154.611 102.218 153.101C102.091 151.443 101.878 151.23 101.176 151.996C100.133 153.165 95.6862 154.738 93.452 154.738C92.4094 154.738 91.8987 154.823 91.8136 155.015C91.6859 155.397 92.1115 162.222 92.4732 165.155C92.9626 169.301 93.3882 172.235 93.6435 173.446C93.7712 174.084 94.0265 175.339 94.1967 176.21C94.3669 177.082 94.6648 178.294 94.8351 178.889C95.0053 179.484 95.1329 180.164 95.1329 180.398C95.1329 180.802 95.4308 181.908 96.0904 183.97C96.2394 184.437 96.516 185.437 96.7288 186.202C97.133 187.711 98.9629 193.473 99.4736 194.812C99.6438 195.28 100.069 196.428 100.431 197.363C100.772 198.299 101.261 199.595 101.516 200.233C101.772 200.871 102.027 201.615 102.091 201.87C102.155 202.125 102.325 202.465 102.495 202.593C102.665 202.72 102.793 202.976 102.793 203.146C102.793 203.316 102.921 203.72 103.091 204.017C103.24 204.336 103.602 205.059 103.878 205.612C104.155 206.186 104.516 206.866 104.665 207.142C105.07 207.886 106.495 208.949 107.112 208.949C107.41 208.949 107.729 209.056 107.814 209.183C107.942 209.417 108.602 209.375 110.879 208.971ZM210.884 198.787C213.352 198.256 217.267 196.449 218.501 195.28C219.289 194.536 220.012 193.26 220.544 191.623C220.821 190.751 220.842 190.305 220.672 189.072C220.544 188.264 220.353 186.925 220.246 186.096C220.14 185.288 219.948 184.267 219.842 183.863C219.714 183.46 219.608 182.843 219.608 182.482C219.608 182.141 219.48 181.227 219.31 180.462C218.906 178.74 218.48 176.508 218.012 173.872C217.821 172.766 217.565 171.469 217.438 171.002C217.14 169.747 216.65 167.154 216.416 165.602C216.31 164.836 216.118 163.944 216.012 163.582C215.906 163.221 215.757 162.498 215.693 161.966C215.608 161.435 215.459 160.733 215.352 160.372C215.182 159.798 214.969 158.82 214.267 155.27C214.161 154.696 213.906 153.484 213.735 152.612C213.544 151.741 213.331 150.486 213.246 149.849C213.14 149.211 212.969 148.233 212.842 147.68C212.203 145.129 212.097 144.576 211.948 143.683C211.544 141.387 210.607 136.902 210.331 136.03C210.161 135.499 210.033 134.84 210.033 134.563C210.033 134.287 209.884 133.564 209.714 132.969C209.437 131.991 208.416 127.569 208.182 126.251C207.501 122.552 207.224 121.234 207.033 121C206.586 120.468 206.373 120.723 206.458 121.638C206.671 123.615 204.118 126.995 200.543 129.44C199.5 130.163 197.585 131.268 196.841 131.587C196.543 131.714 196.032 131.948 195.67 132.097C192.968 133.245 189.925 134.117 187.904 134.308C186.351 134.457 186.457 134.223 186.819 136.668C187.032 137.943 187.181 139.602 187.691 146.128C187.798 147.425 187.968 148.849 188.096 149.317C188.202 149.785 188.351 150.742 188.415 151.443C188.5 152.145 188.628 153.144 188.755 153.675C189.096 155.334 189.415 156.928 189.606 158.033C189.925 160.074 190.287 161.648 190.585 162.349C190.755 162.732 190.883 163.306 190.883 163.603C190.883 164.177 191.372 166.261 191.755 167.388C191.883 167.749 192.053 168.365 192.16 168.769C192.33 169.513 192.755 171.087 193.372 173.128C193.564 173.723 193.841 174.722 194.011 175.36C194.181 175.998 194.394 176.72 194.5 176.954C194.607 177.188 194.883 177.953 195.117 178.655C195.351 179.378 195.628 180.186 195.734 180.462C195.862 180.76 196.245 181.865 196.628 182.907C196.99 183.97 197.564 185.5 197.905 186.308C202.033 196.555 203.054 198.128 206.097 198.915C207.075 199.17 209.458 199.106 210.884 198.787ZM224.566 195.96C225.119 195.854 226.013 195.769 226.523 195.769C227.608 195.769 228.63 195.428 228.438 195.131C228.374 195.025 227.8 194.918 227.204 194.918C226.587 194.897 225.757 194.769 225.332 194.621C224.31 194.259 223.012 193.26 222.778 192.644C222.502 191.878 222.183 192.048 221.629 193.303C221.353 193.94 220.821 194.791 220.459 195.216C220.097 195.62 219.842 196.066 219.906 196.173C220.055 196.385 223.034 196.258 224.566 195.96ZM228.949 193.877C229.396 193.43 229.396 192.325 228.949 189.391C228.651 187.478 228.14 183.821 227.928 182.163C227.523 179.08 227.247 177.103 227.034 175.998C226.651 173.999 226.204 170.874 225.991 168.769C225.885 167.664 225.715 166.558 225.651 166.325C225.587 166.091 225.396 164.9 225.225 163.667C225.076 162.434 224.8 160.329 224.608 158.99C224.438 157.651 224.183 155.695 224.076 154.632C223.97 153.59 223.821 152.527 223.736 152.293C223.672 152.06 223.48 150.827 223.31 149.53C223.14 148.254 222.906 146.617 222.821 145.916C222.715 145.214 222.48 143.492 222.268 142.089C222.076 140.686 221.8 138.581 221.629 137.412C221.459 136.243 221.225 134.436 221.097 133.373C220.97 132.331 220.778 131.034 220.651 130.503C220.544 129.971 220.374 128.93 220.268 128.164C219.565 122.998 219.544 122.913 219.055 120.468C218.884 119.703 217.629 118.385 217.076 118.385C216.821 118.385 216.331 118.534 215.991 118.704C215.246 119.087 213.267 119.172 212.65 118.853C211.565 118.257 210.246 117.939 209.841 118.172C209.607 118.279 209.097 118.385 208.671 118.385C208.267 118.385 207.884 118.47 207.82 118.576C207.756 118.661 207.926 119.363 208.203 120.107C208.82 121.829 209.437 124.21 210.033 127.335C210.118 127.867 210.31 128.696 210.416 129.142C210.778 130.46 211.246 132.586 211.629 134.542C211.82 135.541 212.118 136.923 212.267 137.625C212.437 138.326 212.629 139.24 212.693 139.644C212.757 140.048 212.905 140.58 212.991 140.813C213.097 141.047 213.267 141.855 213.395 142.62C213.523 143.386 213.778 144.619 213.969 145.384C214.14 146.15 214.437 147.531 214.629 148.467C215.097 150.827 215.544 153.186 215.757 154.313C215.948 155.27 216.182 156.482 216.757 159.415C216.927 160.287 217.204 161.626 217.374 162.392C217.544 163.157 217.821 164.581 218.012 165.581C218.204 166.58 218.502 167.962 218.65 168.663C218.821 169.365 219.14 171.044 219.395 172.383C219.629 173.723 219.906 175.126 220.012 175.466C220.119 175.827 220.268 176.635 220.353 177.273C220.438 177.911 220.565 178.74 220.672 179.08C220.97 180.143 221.417 182.779 222.246 188.328C222.608 190.645 222.778 191.049 224.034 192.367C224.927 193.303 225.289 193.515 226.544 193.855C228.417 194.366 228.459 194.366 228.949 193.877ZM94.8138 153.038C96.7288 152.506 98.1544 151.996 98.431 151.741C98.5374 151.634 98.7502 151.549 98.8778 151.549C99.2183 151.549 101.091 150.338 101.474 149.891C101.601 149.7 101.729 149.19 101.729 148.743C101.729 148.275 102.027 147.298 102.474 146.362C103.367 144.449 103.793 143.237 104.07 141.791C104.304 140.495 104.176 140.069 103.538 140.069C103.261 140.069 102.984 139.984 102.921 139.878C102.857 139.772 102.282 139.623 101.623 139.538C100.984 139.474 100.41 139.325 100.346 139.219C100.303 139.134 99.7928 138.985 99.2396 138.9C98.6651 138.815 97.5586 138.539 96.7288 138.262C95.9202 138.007 94.8138 137.71 94.2818 137.625C93.7712 137.54 93.1967 137.391 93.0052 137.306C92.6647 137.114 90.1539 136.477 89.0688 136.307C88.7283 136.243 88.3453 136.115 88.2177 136.03C88.1113 135.945 87.6644 135.796 87.2602 135.732C86.8559 135.647 86.2814 135.499 85.9835 135.392C85.4941 135.222 84.5366 134.946 81.196 134.01C80.6215 133.84 79.1746 133.415 78.0043 133.075C76.8341 132.714 74.8765 132.118 73.6424 131.757C72.4083 131.396 71.1742 131.013 70.8763 130.928C70.5784 130.822 69.6209 130.545 68.7485 130.269C67.8761 130.014 67.0676 129.737 66.9399 129.652C66.8335 129.567 66.3867 129.419 65.9824 129.355C65.5781 129.27 65.0462 129.121 64.8121 129.015C64.3227 128.781 60.8544 127.59 59.9182 127.314C59.5778 127.229 58.7479 126.931 58.1096 126.676C57.4713 126.421 56.6627 126.145 56.301 126.038C55.5988 125.847 54.4073 125.443 53.7477 125.167C53.5136 125.06 52.1731 124.593 50.7688 124.146C47.3005 122.998 46.7898 122.828 46.343 122.594C45.9813 122.424 42.7258 121.382 40.215 120.638C39.5554 120.447 38.7256 120.298 38.3638 120.298C38.0021 120.298 37.6404 120.213 37.5766 120.086C37.2361 119.533 32.8954 119.979 31.5124 120.702C31.3209 120.809 30.8741 120.957 30.4698 121.042C30.0868 121.127 29.5336 121.319 29.2144 121.489C28.8952 121.659 28.4697 121.786 28.2569 121.786C28.0654 121.786 27.7249 121.871 27.5122 121.999C26.9377 122.318 25.7036 122.807 25.1291 122.956C24.4482 123.126 24.0864 123.275 22.0863 124.253L20.4054 125.06L20.5543 126.336C20.8522 128.844 22.9374 131.608 25.3206 132.65C25.8525 132.884 26.4908 133.16 26.7249 133.266C26.9589 133.373 27.7675 133.67 28.5335 133.904C30.1506 134.436 32.555 135.392 34.4274 136.264C35.1722 136.604 35.8105 136.881 35.8743 136.881C35.9169 136.881 36.8744 137.306 37.9596 137.837C39.066 138.369 40.0235 138.794 40.1086 138.794C40.1724 138.794 40.8321 139.07 41.5768 139.41C44.3216 140.707 46.1302 141.473 48.4282 142.344C48.8963 142.514 49.5347 142.791 49.8538 142.961C50.1517 143.131 50.5986 143.258 50.8326 143.258C51.0879 143.258 51.322 143.343 51.4071 143.45C51.4709 143.556 51.8327 143.726 52.2157 143.811C52.854 143.939 53.9179 144.342 54.7477 144.768C54.9605 144.874 55.4712 145.044 55.918 145.15C56.3648 145.257 57.067 145.469 57.4713 145.618C57.8756 145.746 58.5564 145.979 58.9607 146.128C60.7693 146.766 61.8545 147.085 62.1949 147.085C62.4077 147.085 62.8758 147.212 63.2588 147.383C64.0036 147.701 65.4504 148.127 67.6421 148.658C71.1316 149.53 71.6848 149.679 72.5785 149.976C73.1104 150.146 73.7275 150.274 73.9828 150.274C74.2169 150.274 74.8339 150.401 75.3659 150.571C76.3659 150.869 78.8767 151.464 79.9193 151.634C80.2811 151.677 81.4301 151.89 82.4727 152.081C83.5366 152.272 85.3239 152.57 86.4729 152.74C87.6219 152.889 88.8773 153.123 89.239 153.229C90.4306 153.569 93.2179 153.484 94.8138 153.038ZM104.133 138.921C104.325 138.432 103.963 137.476 103.155 136.2C102.495 135.18 102.261 134.988 100.857 134.393C98.0267 133.224 96.2819 132.799 92.8988 132.437C90.771 132.203 88.7709 131.863 87.2602 131.481C85.1111 130.928 83.9621 130.652 83.111 130.481C82.6429 130.396 81.7918 130.163 81.196 129.993C80.6215 129.801 79.7066 129.567 79.1746 129.419C77.4724 129.015 72.0678 127.25 71.238 126.825C70.5358 126.506 70.2592 126.463 69.4081 126.655C68.4506 126.846 64.5142 126.634 64.0674 126.357C63.8546 126.23 61.2587 125.847 59.5991 125.698C59.0671 125.656 58.7905 125.677 58.9607 125.741C59.1309 125.826 59.6629 126.038 60.131 126.251C60.5991 126.463 62.5567 127.08 64.4929 127.633C66.4292 128.185 68.3868 128.759 68.8549 128.908C69.8337 129.227 73.3445 130.269 75.2382 130.822C75.9404 131.013 76.8979 131.311 77.366 131.459C77.8341 131.608 78.7916 131.906 79.4938 132.076C80.1959 132.267 81.196 132.565 81.7279 132.714C82.2599 132.884 83.2599 133.16 83.9621 133.351C85.8133 133.883 87.4942 134.372 88.1113 134.563C88.4092 134.67 89.0688 134.84 89.6007 134.967C90.1327 135.073 91.0902 135.307 91.7285 135.499C92.3668 135.69 93.9627 136.136 95.2393 136.455C99.8566 137.646 101.644 138.177 102.58 138.666C103.729 139.283 103.985 139.304 104.133 138.921ZM102.091 132.969C102.006 132.777 101.857 132.629 101.729 132.629C101.367 132.629 101.218 133.288 101.538 133.5C101.921 133.734 102.261 133.394 102.091 132.969ZM187.479 132.735C187.968 132.565 188.628 132.416 188.947 132.416C189.883 132.416 195.181 130.609 196.522 129.822C196.883 129.61 197.373 129.355 197.628 129.227C200.926 127.782 205.777 122.637 204.969 121.425C204.884 121.276 204.096 120.915 203.224 120.638C200.245 119.66 196.522 118.342 196.309 118.172C196.202 118.087 195.777 117.938 195.394 117.853C195.011 117.768 194.436 117.577 194.117 117.407C193.798 117.237 193.436 117.109 193.287 117.109C193.138 117.109 192.67 116.961 192.223 116.769C190.862 116.174 190.181 115.876 189.181 115.515C188.181 115.132 188.01 115.069 186.415 114.388C185.883 114.176 185.032 113.814 184.5 113.623C183.968 113.41 183.351 113.155 183.117 113.049C182.883 112.964 181.84 112.539 180.776 112.092C179.733 111.667 178.244 111.029 177.478 110.689C176.074 110.051 175.244 109.69 174.286 109.286C173.456 108.925 171.329 107.989 170.031 107.394C169.392 107.096 168.669 106.777 168.435 106.671C167.265 106.203 165.626 105.459 163.115 104.248C161.605 103.503 159.307 102.419 158.009 101.803C156.732 101.207 155.094 100.421 154.392 100.059C153.689 99.6981 152.157 98.954 150.987 98.38C149.817 97.806 148.668 97.2107 148.434 97.0832C148.2 96.9556 147.157 96.4029 146.093 95.8501C145.051 95.3187 143.987 94.7659 143.753 94.6384C142.391 93.8518 137.731 91.7046 136.093 91.1093C135.05 90.7054 133.539 90.3227 132.752 90.2377C131.241 90.0676 127.305 90.429 126.965 90.7692C126.837 90.8755 126.539 90.9605 126.305 90.9605C126.05 90.9605 125.177 91.1518 124.369 91.3857C123.56 91.6408 122.432 91.9597 121.837 92.1298C121.262 92.2998 120.262 92.5762 119.624 92.7463C119.007 92.9376 118.283 93.0864 118.049 93.0864C117.815 93.0864 117.326 93.1715 116.964 93.2778C116.602 93.3841 115.73 93.6392 115.028 93.8518C114.326 94.0431 113.432 94.4045 113.07 94.6384C112.368 95.0423 112.368 95.0423 112.368 96.743C112.368 98.3162 112.602 99.2729 113.24 100.315C113.347 100.485 113.517 100.825 113.623 101.059C114.049 102.037 116.581 104.311 118.453 105.417C119.368 105.948 125.071 109.435 125.858 109.945C129.454 112.241 130.624 112.964 131.475 113.432C132.029 113.729 132.88 114.261 133.39 114.58C133.901 114.92 134.348 115.196 134.412 115.196C134.476 115.196 135.305 115.706 136.263 116.323C137.22 116.961 139.008 117.981 140.242 118.598C141.476 119.214 142.625 119.809 142.795 119.916C143.944 120.575 151.349 124.125 151.583 124.125C151.732 124.125 152.03 124.253 152.264 124.401C152.498 124.571 153.179 124.869 153.753 125.082C154.349 125.294 155.009 125.613 155.243 125.762C155.477 125.911 155.838 126.038 156.051 126.038C156.264 126.038 156.647 126.145 156.902 126.293C157.158 126.442 158.136 126.825 159.073 127.165C160.86 127.782 161.349 127.952 163.179 128.462C163.775 128.632 164.413 128.844 164.541 128.93C164.69 129.015 165.179 129.163 165.669 129.27C166.818 129.482 170.222 130.333 172.031 130.843C172.584 131.013 173.244 131.141 173.478 131.141C173.712 131.141 174.393 131.289 175.01 131.481C176.967 132.097 177.35 132.182 179.584 132.522C180.797 132.692 181.861 132.884 181.904 132.948C182.18 133.203 186.627 133.033 187.479 132.735ZM104.623 131.119C105.836 130.907 107.346 130.481 108.219 130.099C109.708 129.44 111.879 128.356 113.538 127.441C114.602 126.867 115.687 126.272 115.985 126.123C116.921 125.656 120.751 123.891 121.305 123.657C121.603 123.551 122.113 123.317 122.432 123.147C122.773 122.977 123.198 122.849 123.411 122.849C123.603 122.849 123.964 122.701 124.198 122.531C124.411 122.36 124.773 122.212 124.964 122.212C125.177 122.212 125.645 122.084 126.028 121.914C126.411 121.744 127.262 121.446 127.901 121.255C128.539 121.085 129.837 120.66 130.773 120.32C133.135 119.49 133.795 119.299 135.199 119.023C136.837 118.704 136.752 118.342 134.71 117.258C133.837 116.812 132.007 115.749 130.667 114.92C129.326 114.069 128.135 113.346 128.007 113.283C127.879 113.219 126.837 112.581 125.667 111.837C124.496 111.093 123.347 110.37 123.113 110.243C122.9 110.094 122.241 109.669 121.666 109.307C120.475 108.499 120.539 108.521 118.858 108.946C116.879 109.456 114.219 109.86 111.41 110.073C110.006 110.2 108.581 110.37 108.219 110.498C107.878 110.604 107.049 110.838 106.41 111.029C105.261 111.327 103.431 111.858 101.091 112.56C100.452 112.73 99.7289 112.985 99.4949 113.07C99.2608 113.176 98.4523 113.474 97.6863 113.729C95.0904 114.601 94.601 114.792 92.7924 115.643C90.9838 116.493 90.4731 116.769 88.856 117.683C88.3879 117.939 87.2814 118.513 86.4091 118.938C85.5367 119.363 84.6643 119.831 84.4941 119.979C83.9834 120.383 77.9192 123.53 75.8766 124.444C75.5361 124.614 74.7276 124.912 74.1318 125.124C73.5147 125.337 73.0041 125.592 73.0041 125.719C73.0041 125.847 74.1318 126.272 75.5148 126.634C76.8766 127.016 78.4937 127.463 79.0682 127.633C81.3024 128.27 84.4302 129.078 85.2388 129.227C85.7069 129.312 86.5154 129.482 87.0474 129.61C93.0052 131.055 101.133 131.757 104.623 131.119ZM71.1529 124.593C72.0678 124.338 73.153 123.976 73.5998 123.806C74.8127 123.275 81.1109 120.107 81.8343 119.66C82.1961 119.448 83.0897 118.938 83.8557 118.555C84.6217 118.151 86.1963 117.322 87.3666 116.684C90.6433 114.941 94.0052 113.283 94.2818 113.283C94.4308 113.283 94.8351 113.155 95.1968 112.985C95.8777 112.709 96.8564 112.326 98.431 111.731C98.8991 111.561 99.8566 111.263 100.559 111.051C103.006 110.349 105.623 109.605 107.304 109.137C108.602 108.797 112.794 108.308 116.475 108.074C119.156 107.904 119.39 107.606 117.56 106.692C114.453 105.14 111.708 102.037 110.9 99.1453C110.198 96.7005 110.687 92.5762 111.921 90.3227C112.73 88.8346 114.006 87.4527 114.836 87.1338C115.602 86.8362 115.666 86.3898 115.07 85.6032C113.964 84.115 112.623 80.9899 112.262 79.0128C112.176 78.5876 111.772 77.716 111.368 77.0995C110.964 76.483 110.538 75.7814 110.432 75.5475C110.325 75.3137 110.049 74.846 109.836 74.4846C109.368 73.7618 108.389 71.8272 107.687 70.2327C107.027 68.7658 106.07 66.6399 105.346 65.1305C105.027 64.429 104.346 63.0046 103.857 61.9416C101.899 57.7748 100.112 54.2883 99.5587 53.523C98.8566 52.545 98.0054 52.4175 97.3458 53.1403C96.899 53.6505 95.8138 54.3733 94.4733 55.0749C93.7286 55.4575 86.8559 57.9024 85.026 58.4338C84.4089 58.6039 83.8344 58.8165 81.5152 59.7094C80.8768 59.9645 80.1108 60.2409 79.8129 60.3472C79.5151 60.4535 78.7491 60.7298 78.1107 60.985C77.4724 61.2401 76.6426 61.5377 76.2596 61.644C75.8765 61.7503 75.5148 61.9416 75.451 62.0479C75.3659 62.1755 75.1531 62.2605 74.9403 62.2605C74.7276 62.2605 74.0892 62.4518 73.5147 62.707C72.9402 62.9408 72.2806 63.2172 72.0466 63.3235C71.8125 63.4085 70.6635 63.855 69.4932 64.3014C68.3229 64.7266 67.2803 65.173 67.1527 65.2793C67.0463 65.3644 66.7697 65.4494 66.5569 65.4494C66.3441 65.4494 65.8973 65.5982 65.5994 65.7683C65.2802 65.9384 63.5354 66.6612 61.7268 67.384C59.9182 68.0855 57.4287 69.0847 56.1946 69.6162C54.9605 70.1264 53.8753 70.5516 53.7902 70.5516C53.7051 70.5516 53.0455 70.8492 52.3221 71.1894C51.6199 71.5508 50.8964 71.8272 50.7262 71.8272C50.556 71.8272 49.8113 72.1248 49.0878 72.4862C48.3857 72.8476 47.5133 73.2728 47.1941 73.4429C46.8537 73.613 46.4919 73.7405 46.3856 73.7405C46.2792 73.7405 45.5557 74.0169 44.811 74.3783C44.045 74.7397 42.8109 75.3137 42.0449 75.6538C41.3002 76.0152 40.5767 76.2916 40.4703 76.2916C40.3639 76.2916 39.4064 76.7168 38.3426 77.2483C37.2787 77.7798 36.3212 78.2049 36.1935 78.2049C36.0871 78.2049 35.4275 78.4813 34.7679 78.8002C33.2784 79.5443 30.8315 80.6923 29.8102 81.1387C29.4059 81.3088 28.4909 81.7552 27.7888 82.1167C27.0866 82.4781 25.4695 83.3072 24.1716 83.945L21.831 85.1142L21.7672 86.0496C21.6608 87.4952 23.6609 92.0235 27.8739 99.7831C28.2569 100.485 29.6612 102.887 31.0017 105.098C34.1934 110.434 36.5339 113.304 40.215 116.45C43.5131 119.278 45.4068 120.256 51.0879 122.084C53.8541 122.977 55.3222 123.338 57.8968 123.785C59.0033 123.976 60.4927 124.253 61.1949 124.38C63.4716 124.805 66.6846 125.145 68.1102 125.103C68.8762 125.06 70.2379 124.848 71.1529 124.593ZM21.9374 123.168C22.2991 122.871 23.6396 122.254 25.2354 121.659C25.8312 121.446 26.5334 121.149 26.8313 121C27.1292 120.851 27.5334 120.723 27.7249 120.723C27.9164 120.723 28.1292 120.638 28.2143 120.532C28.2782 120.426 28.6399 120.256 29.0016 120.171C29.3846 120.107 29.8314 119.958 30.0229 119.852C32.2358 118.683 36.4914 118.364 38.8532 119.214C39.5341 119.448 40.3639 119.66 40.6618 119.66C40.9597 119.66 41.3214 119.767 41.4491 119.894C41.5768 120.022 41.8108 120.086 41.9385 120.043C42.0662 120.001 41.5342 119.49 40.7469 118.916C39.9384 118.321 38.7256 117.343 38.0234 116.705L36.768 115.557L34.5977 115.685C33.2359 115.749 32.172 115.919 31.789 116.11C29.2782 117.45 26.1078 118.853 25.1929 119.023C23.8311 119.278 23.1077 119.639 22.2353 120.49C21.5331 121.17 20.6607 122.807 20.6607 123.402C20.6607 123.764 21.3629 123.636 21.9374 123.168ZM205.437 120.107C205.501 120.001 205.479 119.639 205.373 119.32C205.267 118.98 205.118 118.427 205.033 118.109C204.735 116.705 202.352 115.005 197.692 112.9C196.011 112.135 193.351 110.923 192.458 110.498C191.989 110.285 191.543 110.094 191.479 110.094C191.394 110.094 190.691 109.796 189.883 109.435C189.096 109.095 188.245 108.712 188.01 108.606C187.776 108.499 187.01 108.159 186.329 107.862C185.627 107.543 184.287 106.947 183.351 106.544C181.329 105.693 180.159 105.162 178.478 104.333C177.818 103.992 177.159 103.716 177.052 103.716C176.925 103.716 175.946 103.291 174.861 102.759C173.754 102.228 172.797 101.803 172.733 101.803C172.648 101.803 171.988 101.526 171.244 101.186C167.797 99.5918 165.541 98.6138 165.286 98.6138C165.137 98.6138 164.924 98.5288 164.796 98.4225C164.69 98.3162 162.647 97.4021 160.264 96.3816C157.86 95.3612 155.753 94.447 155.583 94.362C155.392 94.2557 154.477 93.873 153.54 93.4904C152.604 93.129 151.37 92.5975 150.774 92.3424C150.2 92.066 149.178 91.6408 148.54 91.3857C147.902 91.1093 146.774 90.6204 146.029 90.3015C145.306 89.9613 144.668 89.685 144.625 89.685C144.54 89.685 142.859 88.9409 140.987 88.0905C138.369 86.8787 137.433 86.4961 137.178 86.4961C137.029 86.4961 136.348 86.2622 135.688 85.9646C133.965 85.1992 130.901 84.8378 128.965 85.178C128.135 85.3268 127.305 85.5181 127.092 85.6244C126.241 86.1134 123.347 87.1338 122.879 87.1338C122.624 87.1338 122.134 87.2401 121.794 87.3677C121.475 87.4952 120.39 87.6866 119.39 87.7716C118.39 87.8567 117.155 88.0692 116.645 88.1968C115.538 88.5157 114.091 89.8338 113.496 91.0668C112.24 93.5754 112.198 94.1707 113.325 93.4904C113.687 93.2565 114.113 93.0439 114.283 92.9589C114.453 92.8951 114.836 92.725 115.134 92.5975C115.432 92.4699 116.198 92.2361 116.836 92.1085C117.475 91.9597 118.581 91.7046 119.283 91.5132C119.985 91.3432 121.049 91.0881 121.624 90.9605C122.22 90.8329 122.879 90.6416 123.113 90.5353C123.347 90.429 124.113 90.1952 124.815 90.0038C125.518 89.8125 126.624 89.5149 127.262 89.3235C127.901 89.1322 129.539 88.9409 130.901 88.8771C134.795 88.7283 135.135 88.8346 150.349 96.3816C160.86 101.59 163.158 102.717 166.307 104.141C168.648 105.204 169.392 105.544 170.903 106.246C171.669 106.607 172.35 106.905 172.435 106.905C172.499 106.905 173.201 107.203 174.01 107.564C174.797 107.925 175.754 108.351 176.095 108.499C176.457 108.648 177.265 109.01 177.904 109.307C178.542 109.605 180.265 110.349 181.734 110.944C183.202 111.539 184.691 112.156 185.032 112.326C186.542 113.006 187.244 113.283 187.457 113.283C187.585 113.283 187.861 113.368 188.074 113.474C188.84 113.899 189.883 114.346 190.096 114.346C190.202 114.346 190.691 114.537 191.181 114.75C191.67 114.983 192.926 115.472 193.968 115.834C195.032 116.217 196.139 116.642 196.458 116.812C196.756 116.982 197.16 117.109 197.351 117.109C197.522 117.109 197.99 117.237 198.373 117.407C198.756 117.577 199.415 117.853 199.862 118.045C200.288 118.236 200.735 118.385 200.862 118.385C201.181 118.385 204.267 119.873 204.394 120.107C204.565 120.362 205.288 120.362 205.437 120.107ZM24.1716 117.535C24.5333 117.301 24.9801 117.109 25.1716 117.109C25.5972 117.109 26.9164 116.557 30.5549 114.856C30.9166 114.707 31.7039 114.452 32.2997 114.324C32.9167 114.197 33.4699 114.006 33.5551 113.899C33.6189 113.793 33.2784 113.24 32.8103 112.687C32.3209 112.113 31.9379 111.561 31.9379 111.433C31.9379 111.306 31.789 111.093 31.6188 110.944C31.4486 110.795 31.2996 110.455 31.2996 110.179C31.2996 109.924 31.2145 109.647 31.1081 109.584C31.023 109.52 30.7251 108.861 30.4485 108.138C30.1932 107.394 29.6187 106.267 29.2144 105.629C27.1717 102.462 23.8949 96.3604 22.2778 92.7675C21.9587 92.066 21.5757 91.2156 21.4054 90.8542C21.1501 90.2802 20.9586 89.855 20.2564 88.133C20.1288 87.8141 20.0224 87.1338 20.0224 86.6236C20.0224 85.5819 19.6607 85.1567 18.9159 85.263C18.4904 85.3268 18.4053 85.4756 18.2776 86.7087C18.0436 88.8133 18.0648 103.27 18.3202 104.248C18.4266 104.715 18.5329 105.672 18.5329 106.373C18.5329 109.307 19.7245 113.049 21.6821 116.365C22.7459 118.151 23.0438 118.279 24.1716 117.535ZM210.246 116.344C212.629 116.174 213.203 115.961 214.544 114.771C215.629 113.814 216.416 112.369 216.416 111.284C216.416 110.923 216.501 110.328 216.587 109.988C216.906 108.861 216.055 86.3898 215.565 82.7757C215.459 81.9678 215.267 79.9907 215.14 78.4175C214.991 76.8444 214.82 75.2074 214.714 74.8035C214.608 74.3995 214.459 73.0177 214.395 71.7209C214.31 70.4453 214.161 69.2335 214.054 69.021C213.948 68.8296 213.863 68.2344 213.863 67.6816C213.863 67.1501 213.714 66.3635 213.544 65.9384C213.374 65.5344 213.225 65.0455 213.225 64.8754C213.225 64.0888 209.352 59.9007 200.33 50.9081C194.734 45.3169 192.287 43.0209 188.542 39.7257C187.691 38.9604 186.053 37.536 184.925 36.5368C182.84 34.6872 181.904 33.9007 179.563 32.0298C178.818 31.4558 178.138 30.8393 178.052 30.6693C177.967 30.4992 177.776 30.3716 177.627 30.3716C177.478 30.3504 176.84 29.9252 176.201 29.3937C173.137 26.9064 166.86 22.2718 164.733 20.9113C164.541 20.805 164.052 20.4435 163.626 20.1247C163.201 19.7845 162.796 19.5294 162.732 19.5294C162.669 19.5294 161.583 18.8278 160.286 17.9562C159.009 17.1058 157.817 16.3405 157.668 16.2767C157.498 16.1917 156.753 15.7453 156.009 15.2775C155.285 14.8098 154.626 14.4272 154.562 14.4272C154.498 14.4272 153.285 13.7044 151.838 12.8327C150.413 11.9611 149.178 11.2383 149.093 11.2383C149.03 11.2383 148.604 11.0044 148.157 10.7493C147.327 10.2178 144.71 8.77222 142.795 7.79429C141.667 7.19903 141.306 7.0077 140.518 6.56125C140.306 6.45496 139.348 5.96599 138.369 5.47703C137.412 4.98807 136.667 4.50973 136.497 4.41407C136.388 4.35242 136.235 4.32691 136.008 4.22273C135.791 4.12494 135.503 4.01652 135.348 3.90385C135.165 3.77204 134.982 3.69976 134.731 3.58496C134.556 3.5063 134.114 3.43614 133.773 3.26607C132.731 2.71333 132.263 2.84088 132.007 3.75503C130.624 8.53836 129.837 19.3806 129.667 35.899C129.539 46.9113 129.901 57.8173 130.603 63.8549C130.773 65.4919 130.922 67.0226 130.922 67.2564C130.88 68.8934 132.539 75.0161 133.624 77.142C134.454 78.779 135.008 79.7781 135.156 79.9057C135.22 79.9695 135.497 80.3947 135.773 80.8624C136.05 81.3301 136.837 82.4993 137.54 83.456C138.752 85.1142 138.901 85.2205 140.433 85.8583C142.05 86.5173 142.816 86.8575 144.136 87.4315C145.455 88.0267 147.37 88.8771 148.008 89.1535C148.37 89.3235 149.519 89.7912 150.562 90.2164C152.455 90.9818 153.03 91.2156 154.498 91.8747C154.902 92.0447 155.583 92.3424 155.987 92.5124C156.392 92.6825 157.328 93.129 158.073 93.4904C158.796 93.8518 159.541 94.1494 159.69 94.1494C159.86 94.1494 160.264 94.2769 160.605 94.447C161.158 94.7234 161.732 94.9785 163.477 95.7438C163.86 95.8926 164.796 96.3178 165.562 96.6792C166.328 97.0406 167.031 97.3383 167.116 97.3383C167.201 97.3383 167.903 97.6359 168.69 97.9973C170.265 98.6989 171.137 99.1028 172.201 99.5705C173.137 99.9744 175.031 100.804 176.244 101.356C176.797 101.59 177.372 101.803 177.542 101.803C177.712 101.803 177.967 101.952 178.116 102.122C178.265 102.292 178.499 102.441 178.648 102.441C178.797 102.441 179.436 102.738 180.095 103.078C180.755 103.44 181.393 103.716 181.499 103.716C181.606 103.716 182.351 104.014 183.159 104.375C183.946 104.737 185.138 105.268 185.776 105.566C187.33 106.267 188.713 106.884 189.564 107.245C189.925 107.415 190.564 107.692 190.947 107.84C191.309 108.01 192.202 108.414 192.904 108.712C194.33 109.35 195.458 109.86 197.373 110.753C198.075 111.093 198.798 111.412 198.969 111.454C199.139 111.518 199.437 111.667 199.607 111.773C200.245 112.135 201.65 112.879 202.479 113.283C203.607 113.835 205.352 115.281 205.863 116.089C206.245 116.684 206.331 116.727 207.246 116.599C207.778 116.535 209.139 116.408 210.246 116.344ZM35.236 113.899C35.3849 113.687 34.3423 112.454 34.0232 112.432C33.6827 112.432 33.8742 113.07 34.3211 113.602C34.8317 114.176 35.0232 114.261 35.236 113.899ZM118.858 86.0921C119.219 85.9858 120.071 85.7945 120.773 85.6669C122.858 85.3268 123.645 85.1142 125.879 84.2426C127.858 83.4772 128.199 83.4135 130.56 83.3497C132.901 83.2859 133.241 83.3284 134.603 83.8387C136.688 84.6252 136.837 84.6678 136.837 84.4127C136.837 84.2851 136.454 83.7324 135.986 83.2009C134.901 81.9466 133.582 79.8844 132.348 77.5672C131.539 76.0578 130.326 72.1886 130.135 70.5516C130.071 69.9138 129.922 69.1485 129.816 68.8509C129.114 66.895 128.135 50.0364 128.135 39.5131C128.135 28.4583 129.177 8.75096 129.794 7.9431C129.901 7.83681 130.029 7.22029 130.114 6.60377C130.241 5.58333 130.56 4.64792 131.114 3.52118C131.348 3.07473 130.816 2.7771 130.39 3.11725C130.029 3.41488 127.816 4.52036 124.39 6.13607C118.156 9.06985 116.283 10.0903 115.198 11.1745C114.687 11.6635 114.283 12.28 114.283 12.5138C114.283 12.769 114.177 13.1516 114.07 13.3855C113.836 13.8107 113.304 17.6586 113.028 20.9113C112.921 21.9742 112.794 22.9734 112.708 23.1435C112.645 23.3348 112.474 25.567 112.347 28.1394C112.24 30.7118 112.049 34.1558 111.964 35.7927C111.73 39.6194 111.708 59.4968 111.942 62.6857C112.049 64.025 112.219 66.7037 112.347 68.6383C112.474 70.5729 112.666 72.4862 112.794 72.8901C112.9 73.2941 113.006 73.9744 113.006 74.4208C113.006 76.4617 114.751 81.8403 116.347 84.7741C117.07 86.0921 117.496 86.5386 117.9 86.411C118.07 86.3685 118.517 86.2197 118.858 86.0921ZM20.7671 83.6048C21.2139 83.4347 21.7033 83.1371 21.8736 82.967C22.0438 82.797 22.3629 82.6694 22.5757 82.6694C22.7885 82.6694 23.0226 82.5844 23.0864 82.4993C23.1928 82.308 26.1291 80.8198 30.3421 78.8427C31.8741 78.1412 33.3636 77.4184 33.6827 77.2483C33.9806 77.0782 34.3423 76.9294 34.47 76.9294C34.5977 76.9294 35.5764 76.5042 36.6616 75.994C37.7468 75.4838 39.1724 74.846 39.8107 74.5909C40.8959 74.1444 42.2151 73.5492 44.8323 72.3374C45.4281 72.061 46.0238 71.8272 46.1728 71.8272C46.3004 71.8272 46.9175 71.5508 47.5346 71.2319C48.1303 70.913 49.1304 70.4666 49.7049 70.254C50.3007 70.0414 51.3646 69.595 52.1093 69.2548C52.854 68.9147 53.5562 68.6383 53.6838 68.6383C53.7902 68.6383 54.1519 68.5107 54.4498 68.3407C55.0031 68.0643 57.4926 67.0226 59.2799 66.3635C59.748 66.1935 60.3012 65.9596 60.4927 65.8533C60.7055 65.747 61.2374 65.5344 61.663 65.3644C62.429 65.088 66.4718 63.4935 67.3654 63.1321C67.5995 63.0258 68.1953 62.792 68.7059 62.6007C69.5571 62.2818 70.0677 62.0904 72.2168 61.2826C72.7062 61.0912 73.4083 60.8149 73.7488 60.6873C74.1105 60.5385 75.1531 60.1133 76.0893 59.7732C77.0256 59.433 78.5576 58.8378 79.5151 58.4764C80.4513 58.0937 81.3662 57.7961 81.5364 57.7961C81.7067 57.7961 82.0258 57.6685 82.2599 57.4984C82.4939 57.3496 82.9195 57.1583 83.2174 57.0945C83.5153 57.0307 84.2813 56.7756 84.9196 56.5205C85.5579 56.2654 86.4303 55.9678 86.8346 55.8827C87.2389 55.7764 88.1964 55.4363 88.9411 55.1387C89.7071 54.841 90.4944 54.6072 90.7284 54.6072C90.9412 54.6072 91.3881 54.4796 91.6859 54.3095C92.0051 54.1607 93.0477 53.6505 94.0052 53.2041C96.1117 52.2261 97.048 51.3758 97.1969 50.2278C97.282 49.5475 97.1331 49.101 96.4734 47.8042C96.0053 46.9326 95.5372 46.0184 95.4308 45.7846C93.8988 42.787 92.5371 40.2784 92.2179 39.917C92.0689 39.747 91.9413 39.4493 91.9413 39.2793C91.9413 39.1092 91.8562 38.8753 91.7498 38.7478C91.5583 38.5564 90.771 37.047 87.0261 29.7764C84.0898 24.0364 82.2599 20.6349 81.0471 18.5727C80.1108 17.0208 78.6639 15.3413 78.1107 15.1713C77.6426 15.0224 77.5362 14.3847 77.9618 14.0445C78.3448 13.7469 79.8129 14.4272 80.7279 15.3626C81.6428 16.2767 83.0259 18.509 85.2813 22.7183C86.2814 24.6104 87.0687 26.1198 90.9412 33.5605C91.7498 35.1337 92.8988 37.3447 93.4946 38.4501C95.6862 42.6382 97.665 46.5924 98.0267 47.4853C98.5161 48.7821 99.3247 48.7609 99.963 47.4428C100.282 46.7412 100.282 46.635 99.9204 45.5933C99.7077 44.998 99.2608 44.1051 98.9417 43.5949C98.6012 43.0847 98.3246 42.5957 98.3246 42.5107C98.3246 42.4044 97.8778 41.5327 97.3458 40.5548C95.5159 37.2596 94.2818 34.9636 92.9839 32.3913C92.2604 30.9881 91.5157 29.5638 91.3242 29.2024C90.7072 28.1607 89.1752 25.3119 88.0049 23.0372C87.3878 21.8679 86.4516 20.1034 85.8984 19.1255C85.3664 18.1475 84.9196 17.3184 84.9196 17.2759C84.9196 17.2334 84.643 16.787 84.2813 16.2767C83.9408 15.7453 83.6429 15.2563 83.6429 15.1713C83.6429 14.8949 81.6003 12.6839 80.9619 12.28C80.1321 11.7698 78.4299 11.7485 77.3234 12.2375C76.8766 12.4288 73.7062 13.9595 70.2805 15.639C66.8335 17.3397 63.8121 18.7853 63.578 18.9129C63.3227 19.0192 62.9609 19.1893 62.7907 19.2955C62.6205 19.4231 59.4501 20.9963 55.7691 22.8246C52.088 24.6316 48.641 26.3536 48.1091 26.63C47.5771 26.8851 45.6196 27.863 43.7471 28.7559C41.8747 29.6701 40.1512 30.5204 39.9171 30.6267C38.8532 31.2007 35.8105 32.7101 35.3424 32.9015C35.0445 33.029 34.6615 33.2204 34.4913 33.3267C34.3211 33.4542 32.2997 34.4321 30.0229 35.5376C24.9376 38.0037 18.6606 41.065 12.5113 44.0626C9.958 45.2956 7.78767 46.3161 7.72383 46.3161C7.51106 46.3161 4.7875 47.7192 4.31939 48.0593C3.38317 48.7396 1.51072 52.375 1.51072 53.523C1.51072 55.0961 3.447 60.007 5.61733 63.8549C6.55356 65.5344 10.724 72.465 11.6815 73.9531C14.4051 78.1624 15.7243 80.1395 16.4052 80.9687C16.8307 81.5001 17.3414 82.1804 17.5329 82.4993C17.8733 83.0521 19.1926 83.9237 19.7245 83.945C19.8522 83.945 20.3416 83.7961 20.7671 83.6048ZM202.862 50.4404C202.735 49.9301 202.288 48.6971 202.033 48.1869C201.862 47.8892 201.735 47.4641 201.735 47.2727C201.735 47.0814 201.607 46.6562 201.437 46.3586C201.266 46.0397 200.969 45.3594 200.756 44.8279C199.82 42.5532 199.16 41.9792 197.947 42.4044C197.522 42.5532 197.33 42.8508 197.096 43.7224L196.777 44.8492L198.671 46.805C199.713 47.8892 200.99 49.2073 201.522 49.7813C202.373 50.6742 202.99 50.9718 202.862 50.4404ZM106.336 28.4732C105.493 27.8907 104.936 27.829 102.255 29.6786C101.889 29.8997 101.338 30.3015 101.233 30.3822C101.133 30.4609 100.516 30.8818 99.5587 31.5196C98.5799 32.1361 97.3884 32.859 96.899 33.1141C96.4096 33.3479 95.9415 33.6455 95.8777 33.7731C95.8138 33.9007 96.1543 34.6447 96.6862 35.4313C97.6012 36.8557 99.2396 40.0233 99.4949 40.9587C99.6651 41.554 100.027 41.554 101.516 40.98C102.155 40.7249 102.984 40.3847 103.367 40.2359C103.729 40.0658 104.112 39.9383 104.24 39.9383C104.346 39.9383 105.006 39.6832 105.687 39.3855C107.027 38.7903 108.261 38.3226 109.325 38.0037C109.708 37.8974 110.091 37.6848 110.176 37.536C110.261 37.4084 110.304 36.5793 110.283 35.6864C110.261 34.8148 110.325 33.3692 110.41 32.4763C110.602 30.6055 110.604 30.7437 110.027 30.3716C109.849 30.2568 109.176 29.9953 108.474 29.6339M140.667 4.26525C140.667 4.07392 140.348 3.41488 139.965 2.84088C139.348 1.86296 139.199 1.77792 138.348 1.71414C137.71 1.67162 137.305 1.75666 137.029 2.01177C136.454 2.52199 136.518 2.67081 137.54 3.11725C138.029 3.32985 138.816 3.77629 139.263 4.07392C140.221 4.73296 140.667 4.79673 140.667 4.26525Z" fill="rgb(0,0,0)" fill-rule="nonzero" transform="matrix(1,0,0,-1,18.0044,229.807)" />
			<path id="矢量 393" d="M16.8701 56.4526C16.5509 56.0274 13.9125 50.5638 13.3167 49.0756C12.9975 48.3103 12.6783 47.545 12.572 47.3749C12.4656 47.1835 12.3166 46.7371 12.2528 46.3544C12.1677 45.993 11.9975 45.6316 11.8911 45.5678C11.7847 45.4828 11.6996 45.2915 11.6996 45.1001C11.6996 44.9301 11.5719 44.4836 11.423 44.1222C10.7208 42.464 9.16751 37.6381 8.08234 33.6627C7.97595 33.3225 7.69934 32.3021 7.444 31.4304C7.18867 30.5588 6.91206 29.4958 6.80567 29.0919C6.57162 28.199 6.14606 26.6896 5.40134 24.096C5.10345 23.0543 4.72045 21.6512 4.5715 21.0134C4.25234 19.6315 3.27356 15.6986 2.97567 14.6356C2.78417 13.849 1.86922 9.95857 1.33728 7.62005C-0.130888 1.00842 -0.279832 -0.118317 0.358502 0.00923864C0.550002 0.0517572 0.784057 0.370646 0.890446 0.710794C0.996835 1.0722 1.16706 1.53991 1.27345 1.77376C1.37984 2.00761 1.55006 2.73042 1.67772 3.3682C1.91178 4.66502 2.20967 5.87679 3.18845 9.63968C3.86934 12.1908 4.33745 14.2104 4.65661 15.8049C4.74173 16.2726 4.93323 16.9954 5.06089 17.3993C5.38006 18.3772 6.33756 22.1401 6.59289 23.3519C6.72056 23.8834 6.89078 24.4999 6.99717 24.7338C7.23123 25.2227 7.57167 26.5195 7.97595 28.3478C8.21 29.4958 8.63556 30.9627 9.46539 33.4501C9.61434 33.9178 9.80584 34.6618 9.89095 35.1295C9.95478 35.576 10.1037 36.1075 10.2101 36.2988C10.3165 36.4901 10.6144 37.3618 10.8697 38.2334C11.4655 40.3381 11.8698 41.6349 12.1038 42.1664C12.2102 42.4002 12.5932 43.4632 12.9762 44.5049C14.104 47.6938 14.5721 48.778 16.4871 52.796C17.8701 55.666 18.0191 56.2187 17.4658 56.4951C17.1892 56.6652 16.9977 56.6439 16.8701 56.4526Z" fill="rgb(0,0,0)" fill-rule="nonzero" transform="matrix(1,0,0,-1,201.018,71.6333)" />
			<path id="矢量 394" d="M1.70222 16.5181C1.36178 16.4118 0.829834 16.2418 0.531945 16.1567C0.234056 16.0929 0 15.8803 0 15.7103C0 15.4339 0.404278 15.4126 2.59589 15.4764C4.0215 15.5189 5.78756 15.4339 6.53228 15.3063C7.277 15.1788 8.97923 14.9662 10.3197 14.8599C13.5752 14.5623 17.235 14.0946 17.5116 13.9457C17.618 13.8607 18.4266 13.7119 19.2777 13.5843C20.1501 13.478 21.2352 13.2867 21.7033 13.1804C23.5971 12.734 25.4057 12.33 26.9164 11.9686C29.3633 11.4159 32.938 10.5017 34.2572 10.0553C34.7253 9.90649 35.6828 9.63012 36.385 9.41752C38.832 8.73723 43.7897 7.16404 44.6833 6.78137C44.9174 6.67508 45.7898 6.37745 46.5984 6.12234C47.4282 5.86723 48.1729 5.5696 48.2793 5.4633C48.407 5.37826 48.7261 5.29323 49.0027 5.29323C49.2794 5.29323 49.7049 5.18693 49.9602 5.03812C50.5135 4.71923 51.6625 4.27278 52.5561 4.01767C53.386 3.78382 54.9818 3.20982 55.535 2.95471C56.1946 2.65708 62.4716 0.765002 63.5142 0.53115C63.8121 0.488631 64.493 0.318557 65.0462 0.191001C66.408 -0.149147 67.6421 -0.0215914 67.7272 0.467372C67.791 0.743742 67.6421 0.828779 67.0463 0.828779C66.642 0.828779 65.9824 0.977594 65.5994 1.12641C65.2164 1.29648 64.1738 1.65789 63.3014 1.89174C62.429 2.14685 61.429 2.487 61.0672 2.63582C60.7268 2.78463 60.0459 3.01848 59.5778 3.1673C59.1097 3.31611 56.8117 4.14523 54.4499 4.9956C52.1093 5.86723 50.1092 6.56878 50.0241 6.56878C49.939 6.56878 49.556 6.69634 49.1942 6.84515C48.3006 7.22782 47.2154 7.61049 46.2792 7.88686C45.8749 7.99315 45.4493 8.18449 45.343 8.29078C45.2153 8.39708 44.96 8.48212 44.7472 8.48212C44.5557 8.48212 44.0663 8.60967 43.6833 8.77975C43.0662 9.03486 41.8108 9.43878 37.4489 10.7569C36.8744 10.9482 36.151 11.182 35.8531 11.2883C35.5552 11.4159 34.7892 11.6285 34.1508 11.7773C33.5125 11.9261 32.4061 12.2025 31.7039 12.3938C28.9591 13.1379 25.5972 13.967 24.2567 14.2221C22.3842 14.5623 20.8735 14.8812 20.0011 15.0938C19.533 15.2213 18.8734 15.3489 18.5117 15.4126C13.5539 16.1567 12.0432 16.3055 10.0644 16.3268C9.17072 16.348 8.36217 16.4543 8.29834 16.5606C8.12811 16.837 2.55333 16.7945 1.70222 16.5181Z" fill="rgb(0,0,0)" fill-rule="nonzero" transform="matrix(1,0,0,-1,131.542,77.1724)" />
			<path id="矢量 395" d="M0.0162486 0.212601C-0.0475824 0.1063 0.0800796 0 0.335404 0C0.590728 0 0.71839 0.1063 0.654559 0.212601C0.590728 0.340161 0.441789 0.425201 0.335404 0.425201C0.229019 0.425201 0.0800796 0.340161 0.0162486 0.212601Z" fill="rgb(0,0,0)" fill-rule="nonzero" transform="matrix(1,0,0,-1,307.706,258.536)" />
		</g>
	</g>
</svg>
