<svg viewBox="0 0 268 230" xmlns="http://www.w3.org/2000/svg" xmlns:xlink="http://www.w3.org/1999/xlink" width="268.000000" height="230.000000" fill="none">
	<defs>
		<clipPath id="clipPath_8">
			<rect width="237.000000" height="230.000000" x="15.000000" y="0.000000" fill="rgb(255,255,255)" />
		</clipPath>
	</defs>
	<rect id="8" width="268.000000" height="230.000000" x="0.000000" y="0.000000" />
	<g id="8" clip-path="url(#clipPath_8)" customFrame="url(#clipPath_8)">
		<rect id="8" width="237.000000" height="230.000000" x="15.000000" y="0.000000" />
		<path id="矢量 396" d="M151.024 227.242L134 218.632L130.053 189.74L116.933 185.85L103.024 208.895L97.3493 214.401L91.3759 212.339L19.2266 179.196L15.4719 170.416L21.9999 159.595L36.0159 141.184L36.8479 137.932L37.5093 120.265L39.7279 112.697L42.3519 109.487L39.3439 104.64L40.5813 97.6666L49.4986 92.9683L63.5786 87.2496L86.5333 79.7876L112.283 74.983L112.752 57.3591L121.051 33.0172L127.387 20.6869L133.147 20.0491L137.755 22.3451L140.272 12.7146L145.691 4.33849L155.355 1.48975L192.517 4.12589L211.035 7.10219L222.704 11.5666L226.971 18.5609L227.888 30.4874L233.691 31.1039L241.413 32.9747L249.84 34.6329L251.781 37.588L239.323 111.634L235.589 112.761L232.859 112.633L235.717 115.354L237.659 120.839L234.267 163.443L232.197 168.013L223.344 177.24L222.597 181.024L219.781 187.444L217.243 188.422L215.173 184.936L200.112 197.649L177.328 214.571L160.923 223.691L159.771 228.305L156.208 229.304L154.203 226.625L151.024 227.242Z" fill="rgb(255,255,255)" fill-rule="nonzero" />
		<path id="矢量 396" d="M134 218.632L130.053 189.74L116.933 185.85L103.024 208.895L97.3493 214.401L91.3759 212.339L19.2266 179.196L15.4719 170.416L21.9999 159.595L36.0159 141.184L36.8479 137.932L37.5093 120.265L39.7279 112.697L42.3519 109.487L39.3439 104.64L40.5813 97.6666L49.4986 92.9683L63.5786 87.2496L86.5333 79.7876L112.283 74.983L112.752 57.3591L121.051 33.0172L127.387 20.6869L133.147 20.0491L137.755 22.3451L140.272 12.7146L145.691 4.33849L155.355 1.48975L192.517 4.12589L211.035 7.10219L222.704 11.5666L226.971 18.5609L227.888 30.4874L233.691 31.1039L241.413 32.9747L249.84 34.6329L251.781 37.588L239.323 111.634L235.589 112.761L232.859 112.633L235.717 115.354L237.659 120.839L234.267 163.443L232.197 168.013L223.344 177.24L222.597 181.024L219.781 187.444L217.243 188.422L215.173 184.936L200.112 197.649L177.328 214.571L160.923 223.691L159.771 228.305L156.208 229.304L154.203 226.625L151.024 227.242L134 218.632Z" fill-rule="nonzero" stroke="rgb(0,0,0)" stroke-width="1.000000" />
		<path id="矢量 397" d="M206.149 95.477L194.757 97.0077L171.547 103.322L149.488 116.098L133.851 125.559L131.504 133.382L133.04 137.932L137.2 141.397L135.045 144.139L132.72 151.368L116.485 184.808L106.224 202.177L97.5841 214.061L91.8028 214.061L17.9468 177.155L16.0481 169.502L23.9841 157.384L32.1761 145.861L37.5094 141.482L38.4694 141.652L39.5574 139.25L52.6348 117.65L60.9974 108.785L73.2428 104.236L86.4481 102.28L91.2908 102.28L102.256 99.0911L123.568 97.0077L124.08 94.0101L125.467 89.1843L123.653 81.1058L121.669 77.768L112.688 74.9193L112.283 74.9831L111.088 71.8155L113.733 55.9348L117.872 41.7336L124.08 26.8521L127.387 20.6869L132.101 19.709L137.797 21.6011L142.64 7.25109L148.848 2.40397L158.939 1.12842L190.875 4.14723L215.195 7.76131L223.92 12.6509L227.12 20.2192L227.717 29.7646L233.691 31.104L240.496 34.2291L244.635 33.7189L250.736 35.2708L251.675 38.2258L240.411 108.785L237.893 112.761L232.731 111.74L227.888 112.229L226.331 108.892L224.667 104.066L215.109 97.858L206.149 95.477Z" fill="rgb(1,89,188)" fill-rule="nonzero" />
		<g id="组合 80">
			<path id="矢量 398" d="M136.96 229.175C136.661 229.09 136.043 229.005 135.573 228.983C135.083 228.962 134.613 228.877 134.507 228.771C134.379 228.686 133.824 228.473 133.227 228.324C130.261 227.517 127.893 225.263 125.504 220.884C125.141 220.246 124.779 219.481 124.693 219.183C124.608 218.885 124.331 218.184 124.053 217.589C123.797 217.015 123.456 216.185 123.328 215.781C122.475 213.4 121.6 210.701 121.493 210.212C121.365 209.51 121.173 209.489 120.021 210.02C118.507 210.722 116.971 211.104 115.605 211.104C112.384 211.104 110.357 209.489 108.245 205.152C107.52 203.685 106.581 201.644 106.155 200.581C105.707 199.539 105.28 198.476 105.173 198.243C104.128 195.904 102.784 192.269 101.76 189.101C101.376 187.932 100.971 186.741 100.864 186.444C100.736 186.146 100.501 185.402 100.352 184.785C100.203 184.19 99.904 183.127 99.7333 182.447C99.5413 181.788 99.3067 180.853 99.2213 180.385C99.136 179.917 98.9653 179.194 98.8373 178.79C98.24 176.941 97.92 175.623 97.92 175.113C97.92 174.815 97.8133 174.305 97.6853 173.965C97.5573 173.646 97.3227 172.519 97.1307 171.456C96.96 170.414 96.6827 168.735 96.512 167.736C96.3413 166.736 96.1067 165.163 96 164.228C95.872 163.292 95.68 162.102 95.5733 161.57C95.4667 161.039 95.296 159.572 95.2107 158.275L95.04 155.937L93.5467 155.767C92.736 155.682 91.1573 155.469 90.0907 155.299C89.0027 155.129 87.168 154.831 86.0373 154.64C84.8853 154.449 83.5627 154.215 83.0933 154.087C82.624 153.96 81.7707 153.789 81.1733 153.683C78.2933 153.215 71.936 151.685 69.12 150.813C68.5867 150.643 67.9467 150.516 67.6907 150.516C67.4347 150.516 67.1787 150.431 67.1147 150.324C67.0507 150.218 66.624 150.069 66.1973 149.984C65.2587 149.835 63.5733 149.304 62.5493 148.9C62.1653 148.73 61.696 148.602 61.5253 148.602C60.992 148.602 55.0613 146.498 50.56 144.712C48.896 144.053 48.5973 143.925 46.2293 142.883C45.44 142.522 44.7147 142.224 44.6293 142.224C44.5227 142.224 43.8613 141.948 43.136 141.587C42.4107 141.247 41.728 140.949 41.6427 140.949C41.5573 140.949 40.8747 140.651 40.1067 140.269C39.3387 139.907 38.4427 139.482 38.08 139.333C37.7387 139.184 36.9067 138.823 36.2667 138.547C35.6267 138.27 33.9413 137.675 32.5333 137.229C29.376 136.229 28.7787 135.974 27.3493 135.039C26.3467 134.38 24.9173 132.764 24.1493 131.425C23.6587 130.532 23.0827 128.321 23.0827 127.258C23.0827 126.067 23.7013 123.453 24.2133 122.475C24.384 122.113 24.832 121.603 25.1733 121.348C25.92 120.816 25.9627 120.476 25.4293 119.945C24.8107 119.328 23.5733 117.372 22.976 116.076C21.7387 113.333 21.3973 111.802 20.8853 106.721C20.5227 103.256 20.48 101.47 20.544 95.7304L20.6293 88.8637L19.712 88.4173C19.1573 88.1621 18.2187 87.3543 17.4293 86.4614C16.192 85.0583 15.36 84.0166 12.3307 80.0836C11.776 79.3608 11.2427 78.6593 11.1573 78.553C10.7093 77.979 9.664 76.5971 9.38667 76.1932C6.29333 71.7075 3.776 67.817 3.15733 66.6053C2.70933 65.7762 2.15467 64.7132 1.89867 64.2667C1.64267 63.8203 1.10933 62.651 0.725333 61.6731C0.106667 60.185 0 59.6322 0 58.2079C0 56.6134 0.064 56.4008 1.024 54.5087C1.57867 53.382 2.28267 52.1702 2.60267 51.7663C3.15733 51.1073 5.16267 50.0443 10.1333 47.727C11.072 47.2806 13.4827 46.1326 15.4667 45.1759C17.472 44.2193 20.352 42.8162 21.8667 42.0933C30.464 37.969 32.832 36.8423 35.7333 35.4179C37.504 34.5463 42.7733 31.9527 47.4667 29.6567C52.16 27.3607 59.456 23.7679 63.68 21.7057C67.904 19.6223 72.6187 17.3263 74.1333 16.6035C75.6693 15.8807 77.1627 15.1366 77.4827 14.9665C77.824 14.7752 78.6773 14.6689 79.7653 14.6689C83.392 14.6689 84.1387 15.4767 91.1787 26.7441C92.0747 28.1685 92.8 29.4016 92.8 29.4653C92.8 29.5291 93.0987 29.9968 93.44 30.507C93.8027 31.0173 94.08 31.5913 94.08 31.7613C94.08 31.9314 94.272 32.1865 94.528 32.3141C94.912 32.5267 95.104 32.4204 96.0853 31.5275C97.8987 29.8905 100.501 27.9559 104.213 25.5111C106.517 23.9804 107.243 23.8954 109.163 24.8521C109.845 25.171 111.125 25.7662 112 26.1701C112.875 26.5741 113.856 27.063 114.176 27.2969C115.093 27.9559 115.307 27.7008 115.328 25.8087C115.392 22.5773 116.288 15.6468 116.971 13.1382C117.717 10.4596 118.208 9.94933 122.069 8.036C128.981 4.592 133.653 2.38104 135.253 1.78578C136.149 1.44563 137.301 1.40311 137.493 1.70074C137.749 2.12593 138.645 1.91333 139.008 1.38185C139.456 0.701556 140.864 0 141.781 0C142.72 0 143.787 0.488963 144.512 1.2543C145.152 1.91333 145.472 2.61489 146.069 4.67704C146.261 5.31482 146.496 5.95259 146.603 6.08015C146.688 6.2077 147.947 6.90926 149.355 7.63207C150.763 8.35489 152.896 9.52415 154.069 10.2257C155.243 10.906 156.245 11.48 156.331 11.48C156.395 11.48 156.608 11.6076 156.779 11.7776C156.971 11.9264 157.611 12.3304 158.187 12.6493C159.168 13.1807 161.493 14.5626 162.667 15.3067C162.944 15.4767 163.861 16.0507 164.693 16.5822C166.805 17.9003 167.125 18.1129 167.701 18.5593C167.979 18.7719 168.832 19.3459 169.579 19.8349C170.347 20.3239 171.093 20.8341 171.285 20.9404C172.011 21.4293 178.517 26.2127 179.243 26.7867C179.669 27.1481 180.075 27.4244 180.117 27.4244C180.181 27.4244 180.459 27.6158 180.736 27.8284C182.933 29.6567 184.512 30.9322 184.96 31.2299C185.259 31.3999 185.536 31.6125 185.6 31.6763C185.664 31.7401 186.283 32.2716 186.987 32.8456C192.448 37.3738 195.755 40.2863 197.995 42.5823C198.656 43.2413 199.253 43.7941 199.339 43.7941C199.424 43.7941 199.68 43.3476 199.915 42.7949C200.533 41.328 201.237 40.839 202.645 40.8178C203.584 40.8178 203.904 40.9241 204.587 41.4556C205.333 42.0508 206.72 44.3681 206.72 45.0484C206.72 45.1972 206.848 45.6224 206.997 45.9838C207.552 47.2593 207.829 48.1522 208 49.1089C208.107 49.6404 208.277 50.3419 208.405 50.6608C208.533 51.001 208.64 51.575 208.64 51.9364C208.661 52.5316 209.152 53.1269 212.395 56.4433C214.464 58.5267 216.491 60.6952 216.917 61.2267C217.344 61.7581 217.856 62.3534 218.069 62.566C219.051 63.5439 219.883 66.2226 220.16 69.3052C220.267 70.3044 220.437 72.3027 220.565 73.7696C220.693 75.2365 220.949 77.2136 221.12 78.149C221.291 79.1057 221.44 80.6364 221.461 81.5505C221.461 82.4859 221.568 83.9953 221.675 84.9307C221.781 85.8661 221.931 88.0771 221.995 89.8204C222.059 91.5849 222.229 94.3273 222.4 95.9218C222.613 97.7926 222.72 101.088 222.72 105.042C222.72 113.014 222.592 113.546 220.117 116.182C219.691 116.628 219.371 117.053 219.413 117.096C219.456 117.139 219.797 117.075 220.181 116.947C220.565 116.82 221.376 116.713 221.995 116.713C223.061 116.713 223.147 116.756 224.085 117.798C224.725 118.499 225.088 119.137 225.173 119.647C225.237 120.072 225.429 120.923 225.579 121.497C225.899 122.623 226.261 124.664 226.581 126.918C226.688 127.683 226.859 128.576 226.987 128.916C227.093 129.256 227.2 129.915 227.2 130.404C227.2 130.893 227.307 131.659 227.435 132.126C227.541 132.594 227.733 133.551 227.84 134.252C228.053 135.847 228.395 137.93 228.8 140.417C228.971 141.48 229.227 142.947 229.355 143.713C229.461 144.478 229.717 145.966 229.888 147.008C230.059 148.071 230.293 149.729 230.421 150.686C230.528 151.664 230.677 152.556 230.741 152.663C230.848 152.854 231.296 155.639 231.659 158.488C231.872 160.103 232.448 163.803 233.088 167.523C233.259 168.628 233.557 170.457 233.728 171.562C233.877 172.668 234.176 174.39 234.347 175.389C234.517 176.388 234.752 177.812 234.859 178.578C234.987 179.343 235.179 180.236 235.285 180.576C235.413 180.895 235.52 181.554 235.52 182.022C235.52 182.851 235.861 184.977 236.501 188.251C236.907 190.355 237.035 192.821 236.8 193.714C236.544 194.586 235.52 195.691 234.56 196.117C234.219 196.265 233.451 196.457 232.853 196.521C232.277 196.606 231.253 196.754 230.613 196.861C229.973 196.967 228.395 197.052 227.115 197.052C224.875 197.073 224.768 197.095 223.595 197.796C222.037 198.732 220.117 199.624 219.648 199.624C219.456 199.624 218.987 199.795 218.603 199.986C218.091 200.262 217.344 200.369 215.573 200.39L213.227 200.432L213.291 203.472C213.355 206.406 213.205 207.916 212.736 209.297C212.608 209.659 212.352 210.467 212.16 211.104C211.477 213.507 210.923 215.08 210.389 216.164C209.621 217.737 207.744 219.629 206.08 220.522C203.925 221.67 199.104 223.137 194.027 224.179C193.088 224.37 191.893 224.625 191.36 224.753C189.739 225.136 182.763 226.028 178.24 226.411C176.832 226.539 175.339 226.709 174.933 226.836C174.272 227.006 172.672 227.176 169.92 227.389C169.451 227.41 168.107 227.538 166.933 227.665C162.24 228.133 159.808 228.324 157.888 228.324C156.779 228.324 154.475 228.473 152.768 228.643C145.771 229.324 138.24 229.579 136.96 229.175ZM147.52 227.474C147.989 227.368 150.528 227.219 153.173 227.155C155.883 227.07 158.656 226.879 159.552 226.709C160.405 226.539 162.048 226.411 163.179 226.39C164.309 226.39 165.995 226.305 166.933 226.199C167.872 226.092 169.707 225.922 170.987 225.795C172.288 225.688 173.824 225.476 174.4 225.369C174.997 225.242 176.427 225.051 177.6 224.923C181.184 224.519 181.355 224.498 183.787 224.158C188.331 223.541 192.725 222.776 194.795 222.244C195.435 222.074 196.181 221.947 196.416 221.947C196.843 221.947 198.421 221.521 199.787 221.075C200.149 220.947 200.811 220.756 201.28 220.65C201.749 220.522 202.219 220.352 202.325 220.225C202.453 220.118 202.667 220.033 202.816 220.033C203.541 220.033 206.443 218.418 207.339 217.525C208.704 216.164 209.173 215.165 210.219 211.423C210.411 210.722 210.709 209.68 210.88 209.085C211.605 206.534 211.691 205.641 211.499 202.983L211.307 200.369L210.325 199.901C209.152 199.348 207.765 198.03 206.848 196.563C206.101 195.415 203.84 190.802 203.2 189.207C203.008 188.676 202.581 187.741 202.304 187.103C202.005 186.465 201.685 185.7 201.579 185.402C201.493 185.104 201.216 184.318 200.96 183.68C200.704 183.042 200.384 182.128 200.213 181.66C199.765 180.3 198.827 177.664 198.635 177.196C198.549 176.962 198.144 175.772 197.76 174.539C197.397 173.305 196.949 171.924 196.821 171.456C196.544 170.627 196.245 169.543 195.563 167.098C195.243 165.95 194.859 164.483 194.261 162.059C194.091 161.379 193.813 160.252 193.621 159.551C193.216 157.935 192.405 153.556 191.701 149.24C191.509 148.135 191.232 146.37 191.061 145.307C190.891 144.265 190.677 142.522 190.613 141.459C190.549 140.396 190.4 139.206 190.293 138.802C190.165 138.398 190.08 137.611 190.08 137.016C190.08 136.442 189.995 135.847 189.909 135.719C189.824 135.592 188.693 135.443 187.2 135.358C185.792 135.294 184.341 135.124 184 134.996C183.637 134.869 182.784 134.677 182.08 134.571C180.288 134.295 178.112 133.827 176.107 133.296C175.168 133.04 174.059 132.743 173.653 132.658C173.248 132.573 172.139 132.275 171.2 132.02C170.261 131.765 169.152 131.467 168.747 131.382C167.531 131.106 163.051 129.681 161.451 129.065C161.173 128.959 160.533 128.704 160 128.512C159.061 128.151 158.485 127.917 156.907 127.237C156.501 127.067 155.819 126.769 155.413 126.599C152.384 125.302 150.848 124.601 148.693 123.538C146.005 122.198 144.192 121.199 143.723 120.795C143.403 120.497 143.232 120.497 142.656 120.731C142.272 120.88 141.696 121.071 141.333 121.178C140.992 121.263 140.459 121.433 140.16 121.56C139.861 121.688 138.624 122.092 137.387 122.453C136.149 122.836 134.805 123.261 134.4 123.431C133.995 123.58 132.992 123.92 132.16 124.175C131.349 124.43 130.581 124.707 130.475 124.813C130.347 124.919 130.091 125.004 129.899 125.004C129.707 125.004 129.088 125.196 128.512 125.451C127.936 125.685 127.275 125.961 127.04 126.046C125.547 126.663 122.667 128.023 120.747 129.022C115.904 131.552 113.536 132.658 113.024 132.658C112.789 132.658 112.405 132.764 112.149 132.913C111.893 133.04 111.061 133.274 110.293 133.402C109.035 133.593 108.907 133.678 108.843 134.188C108.8 134.529 109.035 135.145 109.419 135.804C109.781 136.378 110.08 136.952 110.08 137.058C110.08 137.165 110.251 137.59 110.443 137.994C110.741 138.568 110.827 139.269 110.827 141.374C110.805 144.223 110.464 145.732 109.312 147.688C108.693 148.751 108.608 150.834 109.099 153.067C109.269 153.832 109.568 155.405 109.76 156.574C110.379 160.295 111.232 163.122 112.469 165.567C113.259 167.162 113.28 167.247 113.301 169.649C113.301 170.988 113.387 172.583 113.515 173.157C113.621 173.752 113.792 174.815 113.899 175.516C114.005 176.239 114.176 177.153 114.304 177.536C114.432 177.94 114.688 179.024 114.88 179.96C115.072 180.895 115.328 182.001 115.456 182.404C115.584 182.808 115.776 183.489 115.84 183.893C115.925 184.297 116.203 185.402 116.48 186.337C117.76 190.972 118.229 192.8 118.4 193.714C118.507 194.267 118.677 194.884 118.784 195.096C118.891 195.309 119.125 196.159 119.339 196.967C119.531 197.796 119.829 198.944 119.979 199.518C120.149 200.113 120.427 201.155 120.619 201.857C121.173 203.898 121.536 205.109 122.368 207.703C123.52 211.36 123.541 211.402 124.459 213.507C124.651 213.953 124.8 214.506 124.8 214.74C124.8 214.995 124.928 215.441 125.099 215.739C125.269 216.058 125.717 217.078 126.101 218.014C128.661 224.158 131.584 226.709 136.96 227.453C138.667 227.708 146.517 227.708 147.52 227.474ZM117.12 209.191C118.549 208.915 120.384 208.234 120.491 207.937C120.533 207.809 120.363 207.044 120.107 206.257C118.955 202.813 118.101 199.752 117.76 197.839C117.653 197.265 117.461 196.691 117.333 196.563C117.227 196.457 117.12 196.074 117.12 195.755C117.12 195.415 116.971 194.799 116.8 194.373C116.629 193.969 116.48 193.459 116.48 193.247C116.48 193.034 116.352 192.396 116.181 191.844C116.011 191.27 115.712 190.185 115.52 189.42C115.328 188.655 115.051 187.57 114.88 186.975C114.133 184.297 113.899 183.404 113.28 180.81C111.851 174.815 111.573 173.072 111.488 169.543C111.424 167.438 111.36 167.077 110.784 165.929C109.995 164.377 108.992 161.379 108.523 159.232C107.819 155.958 107.52 154.215 107.456 153.301C107.435 152.769 107.307 152.323 107.157 152.28C107.029 152.238 106.539 152.514 106.091 152.897C104.363 154.427 99.776 156.022 98.0267 155.724C96.8533 155.511 96.7253 155.788 97.024 157.786C97.1733 158.764 97.28 159.955 97.28 160.422C97.28 160.89 97.408 162.144 97.5787 163.186C97.7493 164.228 98.048 166.141 98.24 167.417C98.432 168.713 98.688 170.287 98.816 170.924C98.944 171.562 99.1147 172.583 99.2 173.157C99.392 174.39 100.715 179.747 101.483 182.404C102.293 185.296 104.299 191.397 105.088 193.459C106.027 195.862 107.541 199.476 108.117 200.687C108.416 201.325 108.821 202.282 109.035 202.813C109.867 205.088 112 208.553 112.533 208.553C112.683 208.553 112.917 208.681 113.067 208.851C113.451 209.34 115.477 209.51 117.12 209.191ZM217.216 198.54C218.197 198.306 219.072 198.009 219.2 197.902C219.307 197.796 219.563 197.711 219.776 197.711C220.309 197.711 222.763 196.372 224.149 195.351C224.981 194.735 225.408 194.182 225.963 193.098C226.624 191.737 226.667 191.525 226.645 189.611C226.624 188.485 226.496 187.23 226.368 186.848C226.24 186.444 226.048 185.402 225.92 184.53C225.813 183.659 225.621 182.511 225.515 181.979C225.408 181.448 225.152 180.257 224.96 179.322C224.768 178.386 224.469 177.132 224.299 176.537C224.128 175.942 224 175.24 224 174.964C224 174.687 223.872 173.922 223.701 173.284C223.531 172.625 223.232 171.328 223.04 170.393C222.421 167.48 222.037 165.758 221.739 164.61C221.568 164.015 221.44 163.292 221.44 162.995C221.44 162.718 221.291 162.123 221.12 161.719C220.949 161.294 220.8 160.677 220.8 160.316C220.8 159.976 220.672 159.232 220.501 158.679C219.968 156.851 219.712 155.745 219.52 154.661C219.413 154.087 219.243 153.322 219.136 152.96C219.029 152.62 218.752 151.515 218.56 150.516C218.347 149.516 218.048 148.241 217.899 147.667C217.728 147.093 217.6 146.391 217.6 146.136C217.6 145.881 217.472 145.201 217.301 144.648C217.131 144.074 216.832 142.841 216.64 141.906C216.427 140.97 216.128 139.737 215.979 139.142C215.573 137.632 214.613 133.572 214.4 132.445C214.293 131.914 214.016 130.829 213.781 130C213.525 129.193 213.269 128.236 213.205 127.874C213.141 127.534 212.949 126.578 212.757 125.749C211.712 121.114 211.349 120.412 211.157 122.623C211.029 123.899 210.304 125.6 209.429 126.641C206.827 129.767 203.861 131.765 199.04 133.614C198.507 133.806 197.867 134.061 197.589 134.167C196.885 134.444 194.197 135.018 192.96 135.188L191.893 135.315L191.957 136.91C192 137.781 192.107 138.929 192.235 139.461C192.341 139.992 192.533 141.48 192.64 142.756C192.832 145.116 193.109 147.072 193.536 149.24C193.643 149.878 193.835 151.005 193.941 151.749C194.027 152.471 194.219 153.428 194.325 153.875C194.432 154.3 194.667 155.384 194.837 156.256C195.627 160.103 195.904 161.315 196.203 162.421C196.373 163.059 196.651 164.1 196.821 164.717C197.461 167.098 197.803 168.31 198.101 169.245C198.251 169.798 198.4 170.393 198.4 170.584C198.4 170.754 198.528 171.222 198.699 171.605C198.997 172.328 200 175.219 200.32 176.346C200.427 176.707 200.853 177.94 201.28 179.109C201.707 180.279 202.133 181.469 202.24 181.767C202.347 182.064 202.624 182.83 202.88 183.467C203.136 184.105 203.413 184.871 203.499 185.168C203.605 185.466 203.925 186.21 204.245 186.805C204.544 187.422 204.8 188.017 204.8 188.144C204.8 188.378 207.168 193.438 207.573 194.097C207.68 194.267 207.979 194.799 208.235 195.266C210.005 198.54 212.971 199.624 217.216 198.54ZM227.413 195.585C227.648 195.458 229.056 195.288 230.571 195.181C233.493 194.99 233.856 194.905 233.685 194.416C233.6 194.225 233.067 194.076 232.085 193.969C230.699 193.842 230.549 193.778 229.504 192.8C228.885 192.226 228.288 191.78 228.16 191.822C228.053 191.865 227.904 192.184 227.883 192.503C227.84 192.843 227.477 193.629 227.051 194.246C226.155 195.585 226.325 196.18 227.413 195.585ZM235.285 192.779C235.392 192.503 235.349 191.929 235.157 191.355C235.008 190.844 234.88 189.973 234.88 189.441C234.859 188.91 234.773 188.038 234.645 187.507C234.539 186.975 234.411 186.21 234.347 185.806C234.283 185.402 234.091 184.211 233.92 183.149C233.749 182.107 233.451 180.279 233.28 179.109C233.088 177.94 232.811 176.218 232.64 175.283C232.469 174.347 232.192 172.625 232 171.456C231.808 170.287 231.573 168.799 231.445 168.161C231.125 166.439 230.635 163.186 230.4 161.358C230.293 160.486 230.101 159.296 229.995 158.7C229.739 157.467 229.333 154.937 229.12 153.279C229.035 152.641 228.843 151.536 228.736 150.834C228.608 150.133 228.331 148.56 228.139 147.327C227.947 146.094 227.691 144.563 227.584 143.925C227.456 143.287 227.285 141.991 227.221 141.055C227.136 140.12 226.987 139.206 226.88 139.036C226.709 138.759 226.368 136.761 225.92 133.189C225.813 132.381 225.621 131.276 225.515 130.744C225.259 129.639 224.875 127.364 224.64 125.536C224.555 124.834 224.363 123.984 224.235 123.665C224.107 123.325 224 122.751 224 122.39C224 121.56 223.232 119.307 222.784 118.797C222.229 118.159 221.419 118.138 220.203 118.733C218.923 119.349 218.112 119.392 217.024 118.946C216.213 118.605 214.848 118.563 213.44 118.797C212.779 118.924 212.565 119.052 212.523 119.435C212.48 119.711 212.544 120.03 212.651 120.179C212.757 120.327 213.056 121.157 213.312 122.028C213.589 122.9 213.931 124.005 214.101 124.473C214.272 124.962 214.4 125.493 214.4 125.685C214.4 125.897 214.528 126.471 214.677 126.96C214.848 127.471 215.147 128.64 215.339 129.575C215.531 130.511 215.829 131.765 216 132.339C216.277 133.359 217.301 137.632 217.771 139.673C217.877 140.205 218.197 141.438 218.432 142.437C218.923 144.372 219.328 146.094 219.733 147.964C219.883 148.602 220.139 149.75 220.309 150.516C220.48 151.281 220.672 152.323 220.779 152.854C220.864 153.386 221.035 154.151 221.163 154.555C221.291 154.959 221.568 156.064 221.76 157C221.952 157.935 222.251 159.232 222.4 159.87C222.549 160.507 222.784 161.528 222.891 162.102C223.019 162.697 223.275 163.845 223.467 164.653C223.659 165.482 223.915 166.588 224 167.162C224.107 167.714 224.277 168.48 224.405 168.862C224.512 169.224 224.768 170.265 224.939 171.137C225.131 172.009 225.387 173.22 225.515 173.794C225.643 174.39 225.813 175.346 225.92 175.942C226.005 176.558 226.155 177.281 226.261 177.536C226.453 178.195 226.965 180.704 227.179 182.192C227.264 182.83 227.456 183.786 227.584 184.318C227.947 185.742 228.309 187.677 228.459 189.016C228.608 190.377 229.312 191.355 230.997 192.566C231.893 193.183 232.107 193.247 233.536 193.247C234.965 193.247 235.115 193.204 235.285 192.779ZM100.309 153.832C101.867 153.449 105.024 151.94 106.069 151.068C106.752 150.516 106.88 150.282 106.88 149.559C106.88 148.815 107.243 147.879 108.459 145.413C108.608 145.116 108.907 144.138 109.12 143.224C109.589 141.289 109.589 141.268 107.691 141.055C107.008 140.97 106.411 140.821 106.347 140.736C106.283 140.63 105.835 140.502 105.323 140.417C104.832 140.332 104.149 140.184 103.787 140.099C103.125 139.907 98.3893 138.695 97.0667 138.377C96.6613 138.291 95.744 138.058 95.04 137.866C94.336 137.675 93.2267 137.377 92.5867 137.229C91.52 136.995 88.96 136.293 86.4 135.528C85.8667 135.379 84.8213 135.103 84.0533 134.89C83.2853 134.699 82.4747 134.444 82.24 134.337C82.0053 134.231 81.3867 134.061 80.8533 133.955C80.32 133.827 79.168 133.508 78.2933 133.211C77.4187 132.913 76.5227 132.658 76.3093 132.658C76.1173 132.658 75.776 132.573 75.5627 132.466C75.3707 132.339 74.4747 132.063 73.6 131.807C70.3787 130.893 67.712 130.085 67.0293 129.788C66.6453 129.618 66.176 129.469 66.0053 129.469C65.8133 129.469 65.3653 129.341 65.0027 129.171C64.6187 129.022 62.8907 128.427 61.12 127.874C57.92 126.875 57.0453 126.599 54.8267 125.961C52.224 125.238 49.6 124.303 47.9787 123.58C45.4613 122.432 41.7707 121.731 39.168 121.879C37.3547 121.986 35.5627 122.432 35.1147 122.9C34.9867 123.006 34.7093 123.091 34.4747 123.091C34.2187 123.112 33.6427 123.282 33.1733 123.516C32.704 123.75 32.192 123.92 32.0427 123.941C31.8933 123.941 31.616 124.027 31.4027 124.154C30.784 124.473 29.6107 124.941 28.3733 125.345C26.56 125.919 24.96 126.663 24.9387 126.96C24.8533 127.811 25.0453 129.405 25.28 129.767C25.4293 130.022 25.6 130.447 25.6853 130.744C25.9413 131.807 28.8213 134.337 30.1013 134.635C30.3787 134.699 31.1467 134.954 31.7867 135.209C32.4267 135.464 33.3013 135.74 33.7067 135.825C34.624 136.038 36.8853 136.91 39.1467 137.973C40.0853 138.419 42.7307 139.567 45.0133 140.524C47.296 141.48 49.7493 142.543 50.4533 142.883C51.1573 143.224 51.8613 143.5 51.9893 143.5C52.1387 143.5 52.5653 143.628 52.9493 143.798C53.3333 143.968 54.08 144.265 54.6133 144.457C55.1467 144.669 55.872 144.967 56.256 145.116C56.6187 145.286 57.0667 145.413 57.2587 145.413C57.4293 145.413 57.8987 145.541 58.2827 145.711C59.0507 146.03 62.3147 147.072 64.32 147.624C65.024 147.837 65.92 148.135 66.304 148.305C66.688 148.475 67.2 148.602 67.4347 148.602C67.6693 148.602 68.0747 148.709 68.3307 148.857C68.5867 148.985 69.184 149.176 69.6533 149.24C70.1227 149.325 71.2747 149.601 72.2133 149.878C74.304 150.452 76.672 151.005 79.5733 151.579C80.2133 151.706 81.1733 151.919 81.7067 152.046C82.24 152.174 83.0933 152.344 83.6267 152.429C84.16 152.535 85.696 152.812 87.04 153.045C88.384 153.301 90.304 153.619 91.3067 153.726C92.3093 153.853 93.4613 154.023 93.8667 154.13C94.8693 154.385 98.7947 154.215 100.309 153.832ZM109.227 139.673C109.227 139.142 108.843 138.27 108.117 137.186C107.52 136.293 106.837 135.868 104.427 134.954C103.04 134.401 100.992 133.976 97.92 133.614C93.4827 133.083 88.4053 132.105 84.5867 131.063C80.192 129.852 79.7227 129.724 77.3333 128.937C75.8187 128.448 75.2213 128.363 72.1067 128.3C70.1653 128.257 68.16 128.13 67.6267 128.002C67.0933 127.874 66.3893 127.768 66.0267 127.768L65.3867 127.768L66.048 128.172C66.4107 128.385 66.9227 128.619 67.2213 128.704C67.4987 128.789 68.224 128.98 68.8 129.15C69.3973 129.32 70.4853 129.618 71.2533 129.809C72.9387 130.255 74.4533 130.659 75.7333 131.042C76.2667 131.212 77.2693 131.489 77.9733 131.701C78.6773 131.892 79.488 132.148 79.7653 132.254C80.064 132.381 80.6827 132.551 81.152 132.658C81.6427 132.764 82.5173 132.998 83.0933 133.168C83.6907 133.338 84.6933 133.614 85.3333 133.785C87.4453 134.359 90.3253 135.188 91.008 135.421C91.3493 135.528 92.0747 135.719 92.608 135.825C93.12 135.932 94.1227 136.166 94.8267 136.378C95.5307 136.569 96.64 136.867 97.28 137.016C97.92 137.165 99.6053 137.59 101.013 137.973C102.421 138.355 104.107 138.78 104.747 138.929C105.387 139.078 106.453 139.397 107.093 139.631C108.672 140.205 109.227 140.205 109.227 139.673ZM107.52 134.273C107.52 133.891 106.688 133.614 106.411 133.891C106.091 134.21 106.411 134.571 107.008 134.571C107.307 134.571 107.52 134.444 107.52 134.273ZM192.491 133.614C197.888 132.339 198.293 132.19 201.067 130.829C203.029 129.852 203.157 129.788 204.8 128.746C206.315 127.768 209.28 124.515 209.28 123.814C209.28 123.729 209.429 123.495 209.621 123.282C210.155 122.708 209.813 122.071 208.917 121.901C208.491 121.816 207.232 121.433 206.101 121.029C204.971 120.625 203.712 120.2 203.307 120.072C202.368 119.817 199.168 118.669 198.251 118.287C197.888 118.116 197.397 117.989 197.184 117.989C196.971 117.989 196.693 117.904 196.587 117.819C196.459 117.734 195.797 117.436 195.093 117.16C194.389 116.905 193.621 116.586 193.387 116.479C193.152 116.373 192.235 116.012 191.36 115.693C188.395 114.545 184.213 112.844 184 112.695C183.893 112.61 183.317 112.355 182.72 112.143C181.696 111.781 180.416 111.25 179.093 110.654C178.752 110.506 177.792 110.08 177.003 109.719C176.213 109.358 175.467 109.06 175.339 109.06C175.232 109.06 174.976 108.975 174.763 108.847C173.973 108.422 171.136 107.147 170.965 107.147C170.859 107.147 170.005 106.764 169.045 106.318C168.107 105.871 166.848 105.276 166.272 105.021C165.696 104.766 164.267 104.085 163.093 103.533C161.92 102.98 160.107 102.129 159.04 101.641C157.995 101.152 156.971 100.663 156.8 100.578C151.509 97.8139 141.653 93.1156 141.184 93.1156C141.013 93.1156 140.8 93.0305 140.693 92.9242C140.395 92.6479 138.432 92.2652 136.64 92.1376C134.933 92.0101 132.8 92.414 127.467 93.8596C126.763 94.051 125.717 94.3061 125.12 94.4124C124.544 94.5187 123.861 94.71 123.627 94.8163C123.221 95.0076 122.475 95.2202 120.427 95.6667C119.211 95.943 118.08 96.3682 117.675 96.7084C117.269 97.0485 117.227 98.3879 117.568 99.8547C118.4 103.32 120.192 105.361 124.309 107.508C125.333 108.04 126.336 108.614 126.528 108.762C126.699 108.932 126.955 109.06 127.083 109.06C127.189 109.06 127.829 109.421 128.469 109.889C129.109 110.336 130.581 111.271 131.712 111.951C132.864 112.653 134.037 113.376 134.357 113.567C134.677 113.78 135.125 114.035 135.36 114.162C135.595 114.269 135.936 114.46 136.107 114.587C136.939 115.119 141.909 118.01 143.04 118.627C145.493 119.945 152.853 123.644 154.027 124.133C154.667 124.409 155.733 124.856 156.373 125.153C158.635 126.174 158.891 126.28 159.104 126.28C159.232 126.28 159.595 126.408 159.936 126.578C161.259 127.258 167.061 129.235 168.427 129.49C168.896 129.575 169.579 129.724 169.92 129.852C171.349 130.341 172.309 130.617 173.12 130.766C173.589 130.872 174.549 131.085 175.253 131.255C175.957 131.403 177.024 131.659 177.6 131.807C178.197 131.935 178.987 132.148 179.349 132.254C179.733 132.381 180.501 132.551 181.056 132.658C181.632 132.764 182.891 132.998 183.893 133.189C188.096 133.997 190.4 134.125 192.491 133.614ZM109.227 131.914C112.064 131.318 115.051 130.128 118.4 128.3C122.603 125.982 127.915 123.708 132.693 122.219C133.461 121.964 134.421 121.645 134.827 121.497C135.232 121.348 136.192 121.05 136.96 120.859C137.728 120.646 138.773 120.349 139.285 120.2C139.819 120.03 140.416 119.902 140.629 119.902C140.843 119.902 141.013 119.775 141.013 119.605C141.013 119.243 140.224 118.627 139.776 118.627C139.627 118.627 137.003 117.117 133.952 115.289C130.901 113.439 128.107 111.76 127.723 111.547C127.339 111.313 126.848 110.973 126.592 110.739C126.123 110.314 125.013 110.208 124.672 110.548C124.373 110.846 119.829 111.59 117.44 111.739C115.627 111.866 113.088 112.27 111.68 112.674C110.144 113.099 108.608 113.546 107.413 113.865C106.709 114.056 105.792 114.332 105.387 114.481C104.981 114.63 103.68 115.055 102.507 115.438C100.139 116.203 99.5627 116.437 97.3867 117.457C93.9947 119.052 92.0747 120.03 88.4907 121.986C87.808 122.368 86.6987 122.964 86.0373 123.346C83.648 124.622 80.9173 125.897 79.4453 126.408C77.504 127.067 77.3547 127.13 77.5893 127.364C77.7813 127.556 82.2187 128.767 84.6933 129.299C85.2267 129.405 86.1227 129.639 86.6987 129.809C87.2533 129.979 87.872 130.107 88.0427 130.107C88.2133 130.107 88.7893 130.234 89.344 130.404C91.0293 130.893 97.4293 131.892 100.267 132.084C103.019 132.275 107.947 132.19 109.227 131.914ZM75.3067 126.365C76.6933 126.004 77.3973 125.749 79.5733 124.749C82.9653 123.176 85.056 122.156 85.5467 121.816C85.8453 121.624 87.1467 120.901 88.4267 120.221C89.728 119.541 91.3067 118.712 91.9467 118.35C93.4827 117.542 94.6987 116.926 96.5333 116.097C97.3653 115.714 98.2827 115.268 98.6027 115.098C98.9013 114.928 99.264 114.8 99.4133 114.8C99.5627 114.8 99.968 114.672 100.331 114.502C101.952 113.822 105.579 112.589 107.477 112.121C108.523 111.845 109.141 111.675 112.171 110.867C112.832 110.676 114.581 110.442 116.053 110.314C121.067 109.932 123.947 109.591 123.968 109.379C123.968 109.273 123.477 108.89 122.88 108.571C120 107.019 117.909 105.106 116.843 103.044C115.776 100.896 115.733 100.748 115.755 98.0052C115.797 94.1998 116.331 92.4778 118.251 90.0967C118.613 89.6503 118.997 89.2889 119.125 89.2889C119.253 89.2889 119.637 89.0763 119.957 88.7999L120.555 88.3322L119.808 87.3543C118.741 85.9512 117.12 82.656 117.12 81.8694C117.12 81.6781 116.736 81.1041 116.267 80.5726C115.051 79.2333 113.173 76.1932 111.445 72.813C110.912 71.7713 110.229 70.4744 109.931 69.943C109.632 69.4115 108.672 67.6044 107.797 65.9037C105.515 61.5668 105.173 60.9078 104.021 59.0157C102.72 56.826 101.803 55.6993 101.376 55.6993C101.163 55.6993 100.523 56.2095 99.9253 56.826C98.752 58.0378 97.0667 58.9519 94.72 59.696C92.672 60.355 89.216 61.5668 87.8933 62.1196C87.5947 62.2471 87.0827 62.4172 86.72 62.5235C86.3787 62.6085 85.696 62.8211 85.2267 63.0124C84.7573 63.1825 83.84 63.5227 83.2 63.7778C82.56 64.0116 81.4507 64.4156 80.768 64.6494C80.064 64.8833 79.296 65.2234 79.0613 65.3935C78.8267 65.5636 78.4853 65.6911 78.3147 65.6911C77.9733 65.6911 74.9653 66.8179 73.9627 67.3068C73.6213 67.4769 73.216 67.6044 73.024 67.6044C72.8533 67.6044 72.448 67.732 72.1493 67.8808C71.8293 68.0509 71.2533 68.3273 70.8693 68.5186C70.464 68.7099 70.0373 68.88 69.8667 68.88C69.7173 68.88 69.1413 69.0713 68.5653 69.3264C67.9893 69.5603 67.2853 69.8579 66.9867 69.9855C66.688 70.0918 66.176 70.3256 65.856 70.4957C65.5147 70.6658 65.1093 70.7933 64.9173 70.7933C64.7467 70.7933 64.3413 70.9209 64.0427 71.091C63.7227 71.261 63.04 71.5374 62.5067 71.75C61.9733 71.9413 61.2693 72.239 60.9067 72.3878C60.5653 72.5366 59.1573 73.1106 57.8133 73.6633C55.36 74.6625 54.5707 74.9814 53.2693 75.5554C51.7547 76.2144 48.8747 77.3837 48.768 77.3837C48.704 77.3837 48 77.6813 47.2107 78.0427C44.1387 79.4459 43.4987 79.7222 43.4133 79.7222C43.3707 79.7222 42.4107 80.1474 41.3013 80.6789C40.1707 81.2104 39.1467 81.6356 39.0187 81.6356C38.8907 81.6356 38.528 81.7844 38.2293 81.9544C37.6533 82.2521 34.368 83.804 31.8933 84.9307C28.6293 86.4189 24.9813 88.2684 24.5547 88.6724C24.1493 89.055 24.1067 89.2676 24.2133 89.9479C24.2987 90.4156 24.576 91.181 24.8533 91.6912C25.1307 92.1801 25.6 93.073 25.8987 93.647C26.432 94.6887 27.6053 96.8147 28.608 98.5792C32.3627 105.148 37.5253 112.44 40.7467 115.672C43.584 118.499 47.232 121.263 49.28 122.113C49.8133 122.326 50.4747 122.623 50.7733 122.751C51.072 122.9 51.8827 123.197 52.5867 123.389C53.2907 123.601 54.016 123.856 54.1867 123.941C54.7413 124.218 58.9653 125.217 62.2933 125.855C62.9333 125.982 64.512 126.174 65.7707 126.28C67.0507 126.365 68.1387 126.514 68.2027 126.578C68.5013 126.854 74.0053 126.705 75.3067 126.365ZM29.2907 123.644C29.9733 123.346 30.6347 123.091 30.784 123.091C30.912 123.091 31.296 122.964 31.5947 122.793C31.9147 122.645 32.768 122.305 33.5147 122.049C34.2613 121.794 35.072 121.518 35.3067 121.412C37.4827 120.476 40.448 120.242 42.24 120.859C43.2213 121.199 44.3733 121.284 44.3733 121.008C44.3733 120.795 43.2 119.902 42.9227 119.902C42.816 119.902 42.0907 119.328 41.3227 118.627C39.9573 117.372 39.9147 117.351 38.6773 117.351C37.4187 117.372 35.968 117.776 34.4533 118.563C33.984 118.797 32.9387 119.349 32.1067 119.775C31.296 120.2 30.4213 120.54 30.1867 120.54C29.952 120.54 29.4827 120.689 29.1413 120.859C28.8213 121.029 28.3733 121.178 28.1813 121.178C27.6053 121.178 25.7067 123.091 25.28 124.09C24.6613 125.578 24.9173 125.727 26.6027 124.898C27.392 124.515 28.608 123.941 29.2907 123.644ZM209.92 120.54C209.92 119.732 209.344 118.244 208.768 117.585C207.765 116.458 205.867 115.289 203.2 114.162C202.624 113.907 201.749 113.524 201.28 113.312C199.253 112.376 197.547 111.611 197.44 111.611C197.376 111.611 196.672 111.313 195.883 110.952C194.539 110.314 194.133 110.144 192.32 109.358C191.915 109.188 191.253 108.911 190.827 108.72C190.421 108.55 189.739 108.273 189.333 108.103C187.477 107.317 186.944 107.083 186.389 106.807C186.048 106.636 185.707 106.509 185.6 106.509C185.493 106.509 184.619 106.147 183.637 105.68C182.656 105.233 181.333 104.638 180.693 104.383C180.053 104.128 179.243 103.788 178.88 103.618C176.597 102.618 175.765 102.257 174.72 101.832C174.08 101.577 173.227 101.237 172.864 101.067C171.115 100.322 170.624 100.11 169.984 99.8335C169.6 99.6634 167.509 98.7918 165.333 97.8989C163.157 97.006 161.109 96.1344 160.789 95.9643C160.448 95.7942 160.085 95.6667 159.979 95.6667C159.872 95.6667 159.189 95.3903 158.464 95.0501C156.395 94.1147 152.448 92.4778 152.256 92.4778C152.171 92.4778 151.509 92.2014 150.763 91.8613C150.037 91.4999 148.523 90.8833 147.413 90.4369C146.304 90.0117 144.917 89.4377 144.32 89.1826C141.397 87.8645 138.027 86.8653 136.085 86.7803C134.443 86.6953 133.376 86.9291 130.56 88.0133C128.64 88.7574 127.381 89.0763 125.013 89.3952C121.984 89.8204 121.28 90.0117 120.341 90.6495C119.317 91.3723 118.784 92.0951 118.08 93.7533C117.632 94.795 117.568 95.1352 117.781 95.369C117.995 95.6242 118.101 95.6242 118.379 95.4116C118.955 94.9439 120.149 94.4336 121.173 94.1998C121.707 94.0935 122.667 93.8384 123.307 93.6683C125.547 93.0518 127.04 92.6479 128.213 92.3715C128.853 92.2227 129.963 91.9038 130.667 91.6699C133.419 90.777 136.064 90.5644 138.987 91.0322C140.907 91.351 141.227 91.4786 148.053 94.6462C149.291 95.199 150.443 95.7517 150.613 95.858C152.299 96.7509 157.376 99.2382 162.987 101.896C165.973 103.32 169.536 104.936 171.093 105.616C171.499 105.786 171.989 105.999 172.181 106.105C172.373 106.19 173.483 106.658 174.635 107.147C175.787 107.636 177.131 108.231 177.6 108.443C178.069 108.656 179.605 109.294 181.035 109.889C182.443 110.484 183.893 111.101 184.235 111.292C184.576 111.462 184.96 111.611 185.109 111.611C185.237 111.611 185.621 111.739 185.963 111.909C186.496 112.185 186.923 112.376 188.587 113.057C188.885 113.184 189.653 113.503 190.293 113.737C191.637 114.269 191.936 114.396 193.323 114.991C193.877 115.246 194.453 115.438 194.603 115.438C194.773 115.438 194.987 115.523 195.115 115.629C195.221 115.735 196.032 116.054 196.907 116.373C197.781 116.671 199.317 117.202 200.32 117.585C202.795 118.478 205.611 119.456 206.507 119.753C206.912 119.881 207.68 120.264 208.213 120.583C209.493 121.369 209.92 121.348 209.92 120.54ZM28.8 119.158C29.376 118.861 29.9733 118.627 30.1013 118.627C30.2507 118.627 31.232 118.201 32.2987 117.691C35.072 116.352 35.7973 116.076 36.5867 116.076C38.08 116.076 38.4427 115.438 37.376 114.651C37.056 114.417 36.3947 113.652 35.9467 112.972C35.4773 112.27 34.3893 110.782 33.5573 109.655C32.704 108.529 32 107.551 32 107.487C32 107.423 31.5947 106.785 31.104 106.041C30.592 105.297 30.08 104.489 29.9307 104.255C28.9067 102.597 27.264 99.876 26.88 99.1744C26.624 98.7067 26.048 97.7076 25.6 96.9422C23.9787 94.136 22.8267 91.2235 22.8267 89.8629C22.8267 89.3952 22.7413 89.2676 22.464 89.3314C22.1013 89.3952 22.08 89.8204 22.144 95.1352C22.208 101.981 22.528 108.592 22.8267 109.379C22.9333 109.677 23.04 110.229 23.04 110.591C23.04 111.781 24.2133 115.289 25.1307 116.82C26.3253 118.797 27.008 119.668 27.3707 119.69C27.584 119.69 28.224 119.456 28.8 119.158ZM213.333 116.926C214.101 116.82 215.104 116.713 215.595 116.713C217.387 116.713 219.52 115.098 220.416 113.099C220.608 112.695 220.821 111.739 220.885 110.973C220.971 110.208 221.056 109.4 221.077 109.166C221.163 108.252 220.779 95.6454 220.587 93.3281C220.459 91.9888 220.224 88.97 220.032 86.6315C219.84 84.293 219.563 80.9553 219.392 79.1907C219.221 77.4475 218.987 74.8539 218.88 73.4507C218.752 72.0476 218.581 70.5595 218.453 70.1343C218.347 69.7091 218.24 68.9863 218.24 68.5399C218.219 67.5407 217.493 64.7132 217.131 64.2242C214.464 60.8653 203.755 50.1506 196.267 43.3901C194.923 42.1784 192.96 40.4138 191.915 39.4572C190.869 38.5005 189.76 37.5439 189.461 37.31C189.163 37.0761 187.755 35.9281 186.347 34.7589C184.192 32.9731 182.827 31.8676 181.653 30.996C181.547 30.911 181.013 30.4858 180.48 30.0819C179.947 29.6567 179.307 29.1677 179.029 28.9551C178.752 28.7638 178.24 28.3386 177.856 28.041C177.216 27.5307 176.064 26.7016 170.581 22.7899C169.408 21.9396 168.299 21.1955 168.128 21.1104C167.957 21.0254 166.805 20.3026 165.568 19.4735C164.331 18.6444 163.157 17.879 162.944 17.7515C162.752 17.6452 161.536 16.9011 160.256 16.0933C158.976 15.3067 157.867 14.6689 157.803 14.6689C157.739 14.6689 157.269 14.3925 156.757 14.0524C156.245 13.7335 155.371 13.1807 154.773 12.8619C154.197 12.543 153.621 12.2028 153.493 12.1178C153.259 11.9264 152.683 11.6076 150.08 10.2044C149.141 9.69422 148.096 9.09896 147.733 8.88637C147.392 8.67378 146.944 8.46119 146.773 8.37615C146.603 8.31237 146.304 8.18482 146.133 8.07852C145.963 7.97222 144.043 7.01556 141.867 5.93133C139.691 4.84711 137.771 3.89044 137.579 3.80541C136.448 3.23141 136.021 5.14474 134.827 15.8381C133.867 24.4907 133.867 51.4899 134.827 61.1204C134.955 62.2896 135.147 64.3518 135.275 65.6911C135.552 68.8375 135.979 71.835 136.405 73.4507C136.576 74.1523 136.832 75.1515 136.96 75.683C137.088 76.2144 137.28 76.7247 137.408 76.831C137.515 76.9585 137.6 77.1924 137.6 77.3624C137.621 78.1278 140.459 82.9749 141.888 84.6969C141.995 84.8244 142.379 85.2709 142.72 85.6748C143.061 86.0787 143.36 86.4827 143.36 86.5464C143.36 86.7378 145.088 87.5456 147.093 88.2897C148.16 88.6936 151.104 89.8629 152.107 90.3093C152.512 90.4794 153.152 90.7345 153.493 90.8833C153.856 91.0321 154.475 91.2873 154.88 91.4786C155.285 91.6487 156.053 91.9676 156.587 92.1801C157.12 92.3715 157.973 92.7329 158.507 92.9455C159.04 93.1793 159.659 93.4557 159.893 93.5407C160.128 93.647 160.96 94.0084 161.771 94.3699C162.56 94.7313 163.307 95.0289 163.435 95.0289C163.563 95.0289 163.925 95.1564 164.224 95.3265C164.544 95.4966 166.571 96.3682 168.747 97.2611C170.923 98.1753 173.291 99.1957 174.037 99.5146C174.763 99.8547 175.445 100.131 175.552 100.131C175.659 100.131 176.021 100.259 176.363 100.429C177.728 101.13 179.84 102.044 180.032 102.044C180.139 102.044 180.501 102.193 180.843 102.363C181.632 102.767 183.211 103.448 186.453 104.808C187.925 105.425 189.611 106.147 190.208 106.424C190.805 106.7 191.851 107.125 192.555 107.381C193.237 107.636 193.92 107.912 194.027 107.997C194.155 108.082 194.859 108.422 195.627 108.741C196.395 109.06 197.547 109.57 198.187 109.868C199.787 110.591 202.005 111.59 202.773 111.93C206.763 113.695 208.96 115.076 210.133 116.543C210.688 117.224 210.901 117.351 211.371 117.266C211.691 117.202 212.565 117.053 213.333 116.926ZM124.288 87.6944C124.864 87.5244 125.632 87.3756 125.973 87.3756C126.613 87.3756 127.147 87.2267 130.773 85.9937C133.781 84.9733 134.187 84.867 135.488 84.8457C136.704 84.8032 139.157 85.3559 140.629 85.9724C141.589 86.3764 141.653 86.3764 141.653 86.0362C141.653 85.8874 141.205 85.3347 140.672 84.8244C139.52 83.6764 138.603 82.3371 137.323 79.9136C136.149 77.7026 135.381 75.4066 134.72 72.1752C133.44 66.0313 132.309 46.5365 132.544 34.7589C132.885 18.5593 133.909 7.63207 135.381 4.84711C136.021 3.63533 135.573 3.50778 134.016 4.46444C133.44 4.80459 132.907 5.10222 132.821 5.10222C132.736 5.10222 131.797 5.52741 130.709 6.03763C129.621 6.54785 128.597 7.01556 128.427 7.10059C128.256 7.16437 127.957 7.31319 127.787 7.44074C127.616 7.54704 125.931 8.37615 124.075 9.24778C119.979 11.2036 119.637 11.4375 119.083 12.5855C118.315 14.265 117.568 19.2821 116.885 27.5307C116.181 35.9069 115.968 45.8775 116.245 55.6993C116.395 60.4401 116.608 65.1809 116.715 66.2226C116.843 67.2856 117.013 69.5178 117.12 71.2185C117.355 74.62 117.781 78.1916 118.037 78.5955C118.123 78.723 118.272 79.2545 118.379 79.7647C118.805 81.7631 120.427 85.526 121.301 86.5464C121.472 86.7165 121.6 87.0141 121.6 87.1842C121.6 88.0346 122.56 88.2259 124.288 87.6944ZM23.168 87.1842C23.5093 86.8441 32.8747 82.2733 33.216 82.2733C33.3013 82.2733 34.048 81.9544 34.8587 81.5505C37.1413 80.4663 39.232 79.5096 39.3387 79.5096C39.4453 79.5096 40.0213 79.2545 43.1573 77.8301C43.9467 77.4687 44.6293 77.1711 44.6933 77.1711C44.736 77.1711 45.5467 76.831 46.4427 76.4058C48.2773 75.5767 48.2133 75.6192 50.816 74.535C51.8187 74.1098 52.7147 73.7696 52.8 73.7696C52.864 73.7696 53.44 73.5358 54.0373 73.2594C54.656 72.983 56.256 72.3027 57.6 71.75C58.944 71.2185 60.3307 70.6233 60.6507 70.4532C60.992 70.2831 61.3547 70.1556 61.4827 70.1556C61.5893 70.1556 61.9947 70.028 62.3573 69.8579C62.7413 69.6879 63.808 69.2414 64.7467 68.88C65.6853 68.4973 67.1787 67.9233 68.0533 67.5619C68.928 67.2218 70.0373 66.7753 70.5067 66.6053C70.976 66.4352 71.6373 66.1588 71.9573 65.9887C72.2987 65.8187 72.704 65.6911 72.8747 65.6911C73.0453 65.6911 73.6427 65.4998 74.1973 65.2447C75.7547 64.5644 75.776 64.5644 78.6133 63.5014C79.9787 62.9912 81.1307 62.5873 81.92 62.3109C82.8587 61.9707 86.4427 60.6739 87.5307 60.2487C89.9413 59.3346 92.6933 58.3779 95.04 57.6339C95.872 57.3575 97.024 56.8898 97.6 56.5709C98.8373 55.8906 100.053 54.4237 100.053 53.6371C100.053 52.9781 99.328 51.4049 98.5173 50.3632C98.1973 49.938 97.92 49.5128 97.92 49.4278C97.92 49.3427 97.6427 48.8538 97.28 48.3436C96.9387 47.8121 96.3413 46.8554 95.9787 46.1751C95.5947 45.5161 95.0187 44.5594 94.6773 44.0492C94.1227 43.1988 93.6747 42.4122 92.8213 40.839C92.6507 40.5414 92.4587 40.2438 92.3733 40.18C92.2453 40.0737 89.792 36.077 89.536 35.503C89.4507 35.3329 89.216 34.929 89.0027 34.6101C88.0427 33.1219 86.4 30.3582 86.4 30.2094C86.4 30.1244 86.144 29.7204 85.8453 29.3165C85.5467 28.9126 85.2053 28.4024 85.0987 28.1685C84.9067 27.7221 84.7787 27.5095 83.7973 25.9788C83.456 25.4686 83.2 25.0221 83.2 24.9796C83.2 24.767 80.9813 21.7907 80.3413 21.153C79.9787 20.7916 79.36 20.3026 78.976 20.0687C78.4853 19.7924 78.2933 19.5373 78.336 19.2396C78.4213 18.6019 79.04 18.6019 80.3413 19.2609C81.7067 19.9412 82.752 21.1317 84.6293 24.1293C84.8427 24.4694 93.696 39.032 94.5707 40.4989C94.72 40.7327 95.0827 41.328 95.424 41.8382C95.744 42.3484 96 42.7949 96 42.8374C96 42.8799 96.2773 43.3264 96.5973 43.8366C96.9387 44.3468 97.3867 45.0909 97.6213 45.4948C97.8347 45.8987 98.1333 46.3877 98.2613 46.5578C98.5387 46.9192 99.6693 48.9388 100.395 50.4057C101.056 51.6813 101.397 51.8088 102.101 50.9584C102.891 50.023 102.72 49.2152 101.269 46.8767C98.0907 41.7744 96.2987 38.8194 96.0213 38.3092C95.872 37.9903 95.5093 37.395 95.2533 36.9911C94.976 36.5872 94.528 35.8006 94.2293 35.2479C93.9307 34.7164 93.3547 33.8022 92.9493 33.2282C92.5653 32.6755 91.904 31.6338 91.52 30.9322C91.136 30.2307 90.5387 29.2527 90.2187 28.7638C89.8773 28.2748 89.6 27.8284 89.6 27.7646C89.6 27.7008 89.3227 27.2331 88.96 26.7229C88.6187 26.1914 88.32 25.7237 88.32 25.6599C88.32 25.5961 87.8933 24.9159 87.36 24.1505C86.8267 23.3639 86.4 22.6836 86.4 22.6199C86.4 22.4073 84.4373 19.516 83.7547 18.7081C83.4133 18.3042 82.688 17.6452 82.1547 17.2413C81.3227 16.6035 81.0453 16.4972 79.9147 16.4972C78.6133 16.4759 77.76 16.7948 73.7707 18.8144C70.3573 20.5364 68.5227 21.4293 62.8267 24.2356C59.2 26.0213 56.064 27.552 55.8933 27.6583C55.7227 27.7433 55.04 28.0835 54.4 28.4024C52.9493 29.0827 50.9227 30.1031 50.4107 30.3795C50.1973 30.507 47.6373 31.7613 44.6933 33.1857C41.7707 34.6101 37.3547 36.7573 34.88 37.9478C32.4267 39.1383 29.44 40.5627 28.2667 41.1154C27.0933 41.6681 25.984 42.1996 25.8133 42.2847C24.5547 42.9224 23.5947 43.3901 22.4 43.9429C21.632 44.3256 19.0507 45.5586 16.64 46.7279C14.2293 47.8971 11.7333 49.0664 11.0933 49.3427C10.4533 49.5979 9.77067 49.938 9.57867 50.1081C9.408 50.2569 9.19467 50.3844 9.10933 50.3844C8.72533 50.3844 4.50133 52.5316 4.01067 52.9781C3.712 53.2757 3.09333 54.2749 2.64533 55.189C1.92 56.6559 1.83467 57.0386 1.856 58.3567C1.87733 59.5472 2.00533 60.1424 2.56 61.333C3.392 63.1825 4.608 65.6061 5.07733 66.3714C7.21067 69.7729 8.512 71.7713 9.856 73.5783C10.4107 74.3224 11.328 75.5767 11.8827 76.3845C14.528 80.1262 19.3493 86.0575 20.3093 86.7378C21.2053 87.3968 22.6987 87.6094 23.168 87.1842ZM206.827 50.2356C206.741 49.7892 206.549 49.1727 206.379 48.8538C206.208 48.5349 206.08 48.1735 206.08 48.0459C206.08 47.8971 205.931 47.4932 205.76 47.1318C205.589 46.7491 205.248 45.9413 205.013 45.3035C204.181 43.1563 203.243 42.3059 202.155 42.7099C201.707 42.9012 200.96 44.2405 200.96 44.9208C200.96 45.1972 201.451 45.7287 203.093 47.3019C203.584 47.7696 204.565 48.79 205.291 49.5979C205.995 50.3844 206.677 51.0222 206.784 51.0222C206.891 51.0222 206.912 50.6821 206.827 50.2356ZM103.189 42.4973C103.68 42.2847 104.149 42.0933 104.235 42.0933C104.427 42.0933 111.829 39.1808 113.173 38.5856C113.536 38.4155 114.005 38.2667 114.24 38.2241C114.624 38.1604 114.667 37.9903 114.667 36.1407L114.667 34.1424L111.851 32.718C110.315 31.9527 108.8 31.1661 108.48 30.9535C107.947 30.5921 107.883 30.6133 107.349 30.9535C106.709 31.3787 106.389 31.6125 105.813 32.144C105.579 32.3566 104.853 32.9093 104.171 33.377C103.488 33.8447 102.315 34.7589 101.547 35.3967C100.779 36.0344 99.7547 36.8636 99.264 37.2462C98.3253 37.9265 98.1333 38.4367 98.624 38.947C98.9867 39.3296 100.48 41.7744 100.48 42.0296C100.48 42.1359 100.629 42.4335 100.821 42.7099C101.205 43.2413 101.611 43.2201 103.189 42.4973ZM144.619 4.84711C144.619 4.6983 144.256 3.99674 143.829 3.29519C143.168 2.23222 142.891 1.97711 142.208 1.80704C141.248 1.57319 140.309 1.97711 140.203 2.67867C140.16 3.04007 140.352 3.23141 141.163 3.57156C141.717 3.82667 142.528 4.25185 142.933 4.54948C143.723 5.12348 144.64 5.2723 144.619 4.84711Z" fill="rgb(0,0,0)" fill-rule="nonzero" transform="matrix(1,0,0,-1,15.3867,230.048)" />
			<path id="矢量 399" d="M17.6753 55.2316C17.4406 54.8914 14.454 48.8963 13.6646 47.0893C12.9606 45.5161 11.638 42.0508 11.638 41.7745C11.638 41.6682 11.51 41.3068 11.3393 40.9879C11.1686 40.669 10.9766 40.1162 10.8913 39.7336C10.806 39.3296 10.6566 38.8832 10.5713 38.6919C10.3366 38.2242 9.50464 35.4392 9.50464 35.1203C9.50464 34.9715 9.41931 34.6951 9.29131 34.4825C9.18464 34.2912 8.80064 33.1219 8.43798 31.8889C8.05398 30.6559 7.47798 28.7425 7.13664 27.637C6.79531 26.5316 6.38998 25.0859 6.21931 24.4482C5.72864 22.6199 5.21664 20.8128 4.89664 19.7711C4.59798 18.7719 3.87264 16.1783 3.53131 14.8815C3.42464 14.4776 3.18998 13.6059 3.01931 12.9682C2.84864 12.3304 2.48598 10.8847 2.22998 9.77926C1.99531 8.67378 1.69665 7.52578 1.58998 7.22815C1.50465 6.93052 1.35531 6.314 1.26998 5.8463C1.20598 5.37859 0.864646 3.97548 0.501979 2.69993C0.160646 1.44563 -0.0526875 0.318889 0.0113125 0.212593C0.0753125 0.0850371 0.309979 0 0.523312 0C1.05665 0 1.24865 0.510222 2.48598 5.31482C3.08331 7.63208 3.27531 8.39741 4.04331 11.3737C4.21398 12.0753 4.51264 13.2233 4.70464 13.9248C4.89664 14.6264 5.13131 15.5405 5.23798 15.9444C5.34464 16.3484 5.77131 17.879 6.21931 19.3459C6.64598 20.8128 7.09398 22.386 7.20064 22.8537C7.39264 23.7041 8.11798 26.1914 8.84331 28.5937C9.05664 29.2953 9.39798 30.4433 9.61131 31.1448C9.80331 31.8464 10.038 32.6117 10.1233 32.8456C10.23 33.0794 10.614 34.2699 10.998 35.503C11.6593 37.6502 13.3446 42.6248 14.0913 44.6445C14.454 45.6436 15.286 47.4294 17.4406 51.8088C18.166 53.297 18.678 54.6151 18.6353 54.8914C18.5713 55.4442 17.9953 55.6355 17.6753 55.2316Z" fill="rgb(0,0,0)" fill-rule="nonzero" transform="matrix(1,0,0,-1,204.069,70.8164)" />
			<path id="矢量 400" d="M1.77885 16.72C1.54419 16.6562 1.20285 16.4862 1.03219 16.3373C0.86152 16.2098 0.520187 16.0185 0.306854 15.9334C-0.610479 15.6145 0.434854 15.5082 4.72285 15.4657C7.21885 15.4445 9.92818 15.3169 10.7388 15.1681C11.5708 15.0193 13.2348 14.7854 14.4722 14.6153C18.3975 14.1051 22.1522 13.4248 25.1388 12.7233C25.9068 12.5319 26.9522 12.2981 27.4642 12.1918C27.9975 12.0642 28.7228 11.8942 29.0642 11.7879C29.4268 11.6603 30.3442 11.4265 31.1122 11.2351C31.8802 11.0438 33.1175 10.7037 33.8855 10.4911C34.6535 10.2572 35.8482 9.93832 36.5522 9.74698C37.2562 9.55565 38.0242 9.3218 38.2588 9.23676C38.4935 9.13047 39.6882 8.7478 40.9255 8.36513C42.1628 7.98247 44.2748 7.30217 45.6188 6.83447C46.9628 6.36677 48.3708 5.89906 48.7122 5.81403C49.0748 5.70773 49.7362 5.49514 50.2055 5.3038C51.9548 4.64477 55.3682 3.41173 56.9255 2.90151C57.8002 2.60388 58.7175 2.28499 58.9522 2.19996C59.4855 1.98736 61.0215 1.4984 63.1122 0.924403C65.9921 0.0952929 66.1842 0.0527744 67.1655 0.0102559C67.9121 -0.0322625 68.1255 0.0527744 68.1895 0.350404C68.2321 0.605514 68.1255 0.711811 67.8055 0.711811C67.5495 0.711811 67.0375 0.839366 66.6748 1.00944C66.2908 1.17951 65.6508 1.41337 65.2455 1.51966C64.5201 1.73225 63.4108 2.11492 59.8055 3.45425C58.8668 3.7944 57.7575 4.19832 57.3522 4.34714C56.9468 4.47469 55.9442 4.85736 55.1122 5.19751C54.3015 5.5164 53.4268 5.83529 53.1922 5.8778C52.9575 5.94158 52.2322 6.19669 51.5922 6.4518C49.2028 7.36595 48.6908 7.55728 47.9655 7.72736C47.5602 7.83365 46.6855 8.13128 46.0455 8.38639C45.4055 8.62024 44.5948 8.89662 44.2322 9.00291C43.8908 9.10921 43.3148 9.27928 42.9522 9.40684C39.7095 10.5336 39.0482 10.7674 38.5788 10.8525C38.0882 10.9588 36.3388 11.4477 33.3522 12.3194C32.7762 12.4894 31.8588 12.7233 31.3468 12.8508C30.8135 12.9571 30.0882 13.1272 29.7468 13.2335C27.6562 13.8713 23.3895 14.8067 20.0188 15.3807C19.3788 15.487 18.4615 15.6783 17.9922 15.7846C17.5228 15.9122 16.6908 16.0185 16.1362 16.0185C15.5815 16.0185 14.4295 16.1673 13.5762 16.3586C12.0615 16.6775 2.80285 16.9751 1.77885 16.72Z" fill="rgb(0,0,0)" fill-rule="nonzero" transform="matrix(1,0,0,-1,133.821,76.418)" />
		</g>
	</g>
</svg>
