<svg viewBox="0 0 268 230" xmlns="http://www.w3.org/2000/svg" xmlns:xlink="http://www.w3.org/1999/xlink" width="268.000000" height="230.000000" fill="none">
	<defs>
		<clipPath id="clipPath_9">
			<rect width="241.000000" height="230.000000" x="13.000000" y="0.000000" fill="rgb(255,255,255)" />
		</clipPath>
	</defs>
	<rect id="9" width="268.000000" height="230.000000" x="0.000000" y="0.000000" />
	<g id="9" clip-path="url(#clipPath_9)" customFrame="url(#clipPath_9)">
		<rect id="9" width="241.000000" height="230.000000" x="13.000000" y="0.000000" />
		<path id="矢量 401" d="M43.4523 108.233L38.9201 114.929L37.8137 138.272L34.2603 139.505L15.6635 160.701L14.3018 165.548L15.0252 171.585L19.2382 175.306L92.0933 210.277L96.6893 208.789L115.52 183.108L131.691 190.442L132.457 209.81L135.479 219.334L152.586 226.604L155.139 228.39L158.31 229.304L161.14 226.711L161.14 222.416L179.779 212.339L198.142 199.265L216.036 184.235L216.036 186.531L217.526 188.146L220.398 187.317L223.377 177.602L233.356 166.356L235.654 155.216L238.293 119.925L234.505 112.591L238.293 112.591L240.293 110.635L253.443 37.9497L250.889 35.5687L242.08 34.612L234.293 31.168L229.101 31.168L229.931 24.1737L227.122 12.6937L217.185 8.35682L188.269 3.65852L158.31 1.93652L150.863 3.08452L145.458 8.59067L139.841 20.921L133.862 20.0494L129.287 21.899L121.137 38.63L115.52 58.5712L112.988 73.9416L79.3692 80.7021L53.6444 90.9065L44.2183 93.3726L40.8139 100.473L41.6224 106.277L43.4523 108.233Z" fill="rgb(255,255,255)" fill-rule="nonzero" />
		<path id="矢量 402" d="M115.392 183.214L96.4553 209.278L91.5188 210.277L15.6635 173.902L14.3018 167.099L15.0252 163.719L31.6857 141.822L36.2179 138.782L38.7925 138.782L39.1542 135.912L51.0272 117.565L59.6021 108.785L68.1345 103.811L86.7313 101.153L93.0934 101.153L102.307 98.2194L115.392 96.7525L124.074 96.7525L126.393 90.9062L127.01 86.3567L123.435 77.4065L116.52 74.324L113.158 74.324L117.542 49.153L127.01 26.1505L131.84 20.0491L136.394 20.3892L140.777 21.8561L143.203 12.3957L150.863 2.93537L160.672 1.48975L193.971 4.40227L218.164 8.6116L226.675 13.5225L230.207 25.3001L230.207 31.1677L237.867 31.7204L244.059 34.8243L249.825 35.2707L253.358 38.2045L252.336 44.1571L240.293 111.145L237.101 113.335L226.931 111.719L226.143 106.107L223.611 101.281L211.611 95.4982L202.674 95.2218L180.694 100.473L163.012 107.807L148.799 115.631L138.819 121.753L134.5 126.345L133.564 134.594L137.947 139.93L133.564 146.988L115.392 183.214Z" fill="rgb(1,89,188)" fill-rule="nonzero" />
		<g id="组合 81">
			<path id="矢量 403" d="M103.685 29.848C104.153 29.4228 104.791 28.8701 105.089 28.615C105.387 28.3598 106.11 27.8284 106.685 27.4244C107.919 26.5953 109.264 26.4699 110.26 27.063C110.611 27.2459 110.93 27.3777 111.026 27.4244C111.196 27.5074 112.058 27.9049 113.185 28.4364C114.313 28.9679 115.385 29.3442 115.46 29.3824C115.807 29.5546 117.118 30.2902 117.449 30.4645C117.535 30.5708 117.747 30.6133 117.918 30.5496C118.173 30.4645 118.279 29.9756 118.343 28.6575C118.981 17.6027 120.152 11.48 121.918 10.0769C122.279 9.77926 126.28 7.75963 128.386 6.80296C129.216 6.4203 130.961 5.59118 132.301 4.97467C133.621 4.33689 134.748 3.82667 134.791 3.82667C134.833 3.82667 135.791 3.38022 136.919 2.84874C138.578 2.04089 139.068 1.89207 139.685 1.99837C140.323 2.12593 140.493 2.06215 141.025 1.46689C142.089 0.318889 142.749 0 144.068 0C144.876 0 145.515 0.127556 145.919 0.382667C146.855 0.956667 147.834 2.27474 148.111 3.3377C148.238 3.84793 148.409 4.31563 148.515 4.37941C148.621 4.44318 148.706 4.86837 148.706 5.31481C148.706 6.25022 148.919 6.44156 151.473 7.71711C155.239 9.60918 164.814 15.2641 168.92 18.0066C170.112 18.7932 171.24 19.5585 171.431 19.6648C171.623 19.7924 172.133 20.1325 172.559 20.4727C172.984 20.7916 173.41 21.0467 173.474 21.0467C173.559 21.0467 174.58 21.7695 175.729 22.6411C176.878 23.5127 177.878 24.2356 177.942 24.2356C178.006 24.2356 179.219 25.1284 180.644 26.1914C182.07 27.2756 183.645 28.4449 184.113 28.785C184.602 29.1252 185.07 29.5078 185.198 29.6567C185.304 29.7842 186.028 30.3795 186.794 30.9322C187.56 31.5062 188.219 32.0377 188.283 32.1015C188.347 32.1653 189.07 32.7393 189.879 33.377C190.709 34.0148 191.475 34.6526 191.581 34.7801C191.709 34.9077 192.411 35.5242 193.177 36.1407C195.092 37.6927 199.752 41.817 201.029 43.0713C201.837 43.8791 202.071 43.9641 202.241 43.4327C202.539 42.4547 203.092 41.6256 203.71 41.243C204.646 40.669 206.242 40.8603 207.114 41.6469C207.923 42.391 208.71 43.4752 208.71 43.8578C208.71 44.0067 208.859 44.3256 209.029 44.5594C209.199 44.772 209.348 45.1334 209.348 45.346C209.348 45.5798 209.476 46.0476 209.646 46.409C210.157 47.5782 210.561 49.0238 211.221 52.0214C211.327 52.4891 212.327 53.6584 214.774 56.167C220.349 61.8644 221.072 62.7361 221.647 64.4156C222.477 66.7753 222.945 69.8154 223.392 75.7893C223.477 77.0861 223.668 78.8506 223.796 79.7222C224.051 81.4655 224.392 86.0575 224.668 91.7337C224.775 93.7321 224.945 96.2194 225.072 97.2611C225.179 98.3241 225.285 101.917 225.307 105.276C225.328 110.399 225.264 111.569 224.966 112.61C224.668 113.652 224.051 114.843 223.604 115.225C223.328 115.48 222.774 116.458 222.881 116.565C222.923 116.607 223.392 116.501 223.902 116.331C224.775 116.012 224.881 116.012 225.604 116.394C227.264 117.287 227.945 118.712 228.796 123.091C229.52 126.769 229.626 127.3 229.775 128.406C229.86 129.044 230.009 129.724 230.073 129.894C230.137 130.064 230.286 130.787 230.392 131.489C230.498 132.19 230.754 133.572 230.945 134.571C231.732 138.674 232.158 140.906 232.307 141.906C232.392 142.501 232.583 143.543 232.711 144.244C232.839 144.946 233.073 146.094 233.201 146.795C233.328 147.497 233.52 148.645 233.605 149.346C233.69 150.048 233.86 151.111 233.988 151.685C234.116 152.28 234.328 153.364 234.456 154.13C234.584 154.895 234.754 155.937 234.86 156.468C235.371 159.168 235.988 162.676 236.179 163.909C236.286 164.674 236.456 165.716 236.562 166.247C237.158 169.096 237.456 170.627 237.86 172.731C238.094 174.028 238.392 175.559 238.499 176.133C238.605 176.728 238.839 178.11 239.031 179.216C239.222 180.321 239.52 181.852 239.69 182.617C239.861 183.382 239.988 184.254 239.988 184.594C239.988 184.913 240.116 185.721 240.286 186.401C240.648 187.847 241.052 190.462 241.052 191.333C241.052 193.268 239.158 195.16 237.201 195.16C236.86 195.16 236.243 195.288 235.839 195.458C235.456 195.628 233.924 195.84 232.435 195.925C229.839 196.074 229.69 196.095 228.754 196.776C227.413 197.732 225.03 198.88 223.392 199.369C221.54 199.922 220.817 200.028 219.391 199.965C218.54 199.922 217.795 199.965 217.753 200.071C217.689 200.156 217.732 201.495 217.859 203.047C218.008 205.003 218.008 206.13 217.838 206.725C217.71 207.214 217.476 208.128 217.327 208.766C216.285 213.039 215.37 215.611 214.497 216.844C212.923 219.013 209.561 220.99 205.625 222.053C204.029 222.478 201.965 223.01 200.518 223.371C199.284 223.669 198.816 223.754 195.624 224.285C194.815 224.413 193.794 224.625 193.39 224.753C192.986 224.88 191.602 225.093 190.305 225.242C180.325 226.454 177.197 226.815 174.878 227.028C170.559 227.453 167.835 227.708 166.048 227.899C165.005 228.027 162.069 228.218 159.558 228.324C157.047 228.452 154.281 228.643 153.43 228.75C151.579 229.005 142.6 228.983 141.366 228.728C139.153 228.282 138.876 228.197 136.791 227.198C135.557 226.602 133.45 224.498 132.259 222.648C131.408 221.351 129.961 218.503 129.237 216.738C128.961 216.037 128.535 215.016 128.024 213.868C127.854 213.464 127.471 212.401 127.216 211.53C126.556 209.319 126.429 209.234 125.152 209.829C122.875 210.892 120.62 211.189 118.918 210.615C118.003 210.318 116.194 209.17 115.534 208.49C114.662 207.533 111.215 200.73 109.47 196.436C108.917 195.096 108.343 193.714 108.172 193.353C107.874 192.651 107.3 191.206 106.896 190.058C106.747 189.654 106.47 188.91 106.279 188.421C105.47 186.295 105.3 185.806 104.661 183.68C103.108 178.62 102.406 176.005 102.108 174.177C102.023 173.561 101.832 172.753 101.725 172.37C101.427 171.413 100.938 169.075 100.534 166.779C100.342 165.737 100.044 164.1 99.874 163.144C99.7038 162.187 99.5548 161.103 99.5548 160.699C99.5548 159.87 99.0229 156.702 98.8526 156.553C98.7888 156.489 97.7462 156.383 96.5334 156.341C95.3418 156.277 94.0651 156.149 93.7034 156.043C93.363 155.937 92.5331 155.788 91.8948 155.703C91.2565 155.639 90.3628 155.49 89.8947 155.363C89.4479 155.256 88.4265 155.086 87.6605 154.98C85.8307 154.746 83.3411 154.278 80.8304 153.704C79.7239 153.449 78.3834 153.152 77.8515 153.088C76.9153 152.939 76.128 152.727 73.9364 152.089C73.3831 151.919 72.7023 151.791 72.4682 151.791C72.2129 151.791 71.6384 151.664 71.149 151.493C70.6809 151.323 69.7659 151.047 69.1276 150.856C66.8934 150.239 63.489 149.197 62.7443 148.942C62.34 148.794 61.042 148.347 59.8718 147.986C58.7015 147.603 57.5525 147.22 57.3184 147.135C55.2545 146.306 53.8076 145.753 53.2756 145.562C52.9352 145.435 52.3607 145.222 51.999 145.073C51.6585 144.924 50.9776 144.648 50.5095 144.457C49.6371 144.095 48.9563 143.819 47.5945 143.202C47.1476 143.011 46.4668 142.735 46.105 142.565C45.722 142.395 44.4241 141.821 43.2113 141.289C42.0197 140.758 40.9133 140.311 40.7643 140.311C40.6154 140.311 40.4026 140.226 40.2749 140.141C39.9132 139.822 37.2748 138.908 34.3384 138.079C30.8914 137.101 28.4019 134.89 27.2104 131.722C26.8912 130.915 26.7848 130.107 26.7848 128.597C26.7848 125.919 27.3593 124.005 28.5083 122.857C28.9764 122.39 29.3381 121.943 29.3381 121.816C29.3381 121.709 28.9339 121.199 28.4232 120.689C27.9125 120.157 27.1465 118.988 26.6997 118.074C26.2529 117.139 25.806 116.224 25.6996 116.033C25.5933 115.82 25.5081 115.502 25.5081 115.31C25.5081 115.119 25.3805 114.672 25.2103 114.311C24.3379 112.27 23.6144 101.577 23.9761 95.8792C24.0825 94.0722 24.1251 92.4565 24.0825 92.329C24.0187 92.1589 23.6144 92.0526 23.1038 92.0526C21.8058 92.0526 20.2313 91.181 19.0184 89.7991C18.4439 89.1401 17.4226 87.9921 16.763 87.2905C16.1034 86.5677 14.8693 85.1858 13.9969 84.1867C13.1245 83.1875 12.167 82.1032 11.8691 81.7418C11.0605 80.8064 9.35831 78.8081 9.16681 78.553C8.37953 77.4687 6.84753 75.5554 6.71986 75.4491C6.61347 75.3641 6.42197 75.1302 6.29431 74.8964C6.14536 74.6625 5.42192 73.557 4.65592 72.4728C3.01753 70.113 3.12392 70.2618 1.84725 67.8383C0.0173609 64.3518 -0.365639 62.5022 0.31525 60.4401C1.46425 56.9536 2.74092 55.4654 5.86875 53.9773C7.06031 53.4033 8.08164 52.9356 8.14547 52.9356C8.20931 52.9356 9.65619 52.2553 15.5076 49.4916C18.9759 47.8546 25.9337 44.4956 32.317 41.3918C42.3601 36.5234 45.5305 34.9715 47.5306 33.951C48.7009 33.377 49.8074 32.803 49.9776 32.718C50.8925 32.2503 56.5737 29.5291 57.0205 29.3378C57.2971 29.2315 57.6801 29.0401 57.8504 28.9338C58.0206 28.8276 60.276 27.7221 62.8506 26.4678C65.4253 25.2135 67.9148 24.0017 68.3829 23.7466C69.4042 23.2151 69.1914 23.3214 72.7448 21.6207C78.6175 18.7932 77.9791 19.027 80.0856 19.027C81.6602 19.027 82.1496 19.1121 82.873 19.516C84.0646 20.175 85.9158 22.1947 87.852 24.9584C88.7244 26.1914 89.8521 27.7859 90.3628 28.4874C90.8522 29.189 91.2565 29.8055 91.2565 29.8905C91.2565 29.9543 91.6608 30.5496 92.1714 31.2086C93.3204 32.7393 94.2141 34.0998 94.7248 35.1416C94.9588 35.588 95.3205 36.0344 95.5333 36.1407C95.9163 36.3533 96.3419 36.0557 98.576 33.9085C98.9378 33.5684 99.8527 32.803 100.619 32.229M151.475 227.24C153.645 227.134 156.752 226.921 158.39 226.815C160.028 226.709 163.092 226.517 165.199 226.411C167.305 226.284 169.518 226.113 170.093 226.007C171.072 225.816 172.987 225.603 178.391 225.114C179.561 225.029 180.944 224.838 181.476 224.732C182.008 224.604 183.391 224.413 184.562 224.264C185.732 224.136 187.562 223.902 188.604 223.732C189.668 223.584 191.2 223.35 192.009 223.243C193.562 223.01 195.179 222.691 196.796 222.329C197.328 222.202 198.286 222.032 198.924 221.947C200.243 221.777 204.307 220.735 206.329 220.076C208.882 219.225 210.861 218.099 212.244 216.738C213.478 215.484 213.585 215.314 214.329 212.997C214.755 211.657 215.095 210.36 215.095 210.148C215.095 209.914 215.223 209.361 215.393 208.872C216.01 207.108 216.202 205.131 216.01 202.388L215.84 199.752L215.159 199.603C213.521 199.284 210.861 195.925 208.925 191.758C208.84 191.588 208.478 190.823 208.095 190.058C207.733 189.292 207.435 188.527 207.435 188.357C207.435 188.166 207.308 187.847 207.159 187.613C207.01 187.379 206.563 186.422 206.18 185.487C205.797 184.552 205.371 183.51 205.201 183.148C205.052 182.808 204.797 182.128 204.605 181.66C204.435 181.193 204.137 180.427 203.967 179.96C202.797 176.877 202.286 175.453 201.69 173.582C201.307 172.413 200.86 171.116 200.733 170.712C200.584 170.308 200.286 169.394 200.094 168.692C199.882 167.991 199.605 167.034 199.456 166.566C199.307 166.099 199.031 165.099 198.818 164.334C198.626 163.569 198.307 162.527 198.158 162.017C197.988 161.485 197.86 160.848 197.86 160.571C197.86 160.316 197.733 159.721 197.562 159.296C197.413 158.849 197.116 157.722 196.903 156.787C196.711 155.852 196.413 154.619 196.264 154.023C196.094 153.449 195.86 152.301 195.733 151.472C195.605 150.664 195.435 149.559 195.328 149.027C195.243 148.496 195.052 147.305 194.903 146.37C194.754 145.435 194.498 143.946 194.349 143.075C194.179 142.203 193.945 140.439 193.796 139.142C193.435 135.74 193.669 135.995 190.839 135.91C189.498 135.868 188.03 135.74 187.562 135.592C186.668 135.358 185.923 135.188 183.179 134.677C180.03 134.082 177.157 133.402 175.88 132.955C175.455 132.785 174.88 132.658 174.625 132.658C174.37 132.658 173.774 132.53 173.284 132.36C172.816 132.211 171.859 131.914 171.157 131.722C169.199 131.191 165.71 130.085 164.986 129.788C164.646 129.639 163.965 129.405 163.497 129.256C163.029 129.107 162.369 128.874 162.007 128.704C161.667 128.555 160.752 128.172 159.986 127.874C159.22 127.556 158.071 127.067 157.432 126.769C156.794 126.471 155.986 126.089 155.624 125.94C153.645 125.089 148.049 122.305 147.24 121.773C146.325 121.178 146.262 121.157 145.538 121.454C144.474 121.901 141.559 122.9 138.921 123.729C135.559 124.792 134.452 125.153 133.176 125.642C132.537 125.897 131.771 126.174 131.474 126.28C130.58 126.578 129.346 127.109 126.899 128.278C125.622 128.916 124.409 129.469 124.239 129.554C124.069 129.618 123.537 129.915 123.069 130.17C119.452 132.233 115.132 133.933 113.536 133.933C112.494 133.933 112.175 134.38 112.515 135.379C112.664 135.804 112.941 136.399 113.132 136.697C113.813 137.739 114.877 141.247 114.877 142.48C114.877 143.054 114.132 146.009 113.813 146.668C113.728 146.859 113.409 147.561 113.068 148.22L112.494 149.453L112.856 151.94C113.047 153.322 113.302 154.597 113.409 154.81C113.515 155.001 113.6 155.448 113.6 155.788C113.6 156.128 113.749 156.893 113.898 157.446C114.068 158.02 114.43 159.359 114.664 160.401C115.388 163.462 116.43 166.12 117.43 167.502C117.792 168.054 117.835 168.331 117.728 169.585C117.622 170.903 118.09 175.559 118.409 176.048C118.452 176.154 118.707 177.026 118.941 177.982C119.409 180.002 119.898 181.873 120.303 183.255C120.473 183.786 120.75 184.785 120.941 185.487C121.133 186.189 121.388 187.06 121.516 187.4C121.941 188.697 122.345 190.185 122.537 191.078C122.665 191.588 122.984 192.779 123.303 193.736C123.601 194.692 123.963 195.904 124.111 196.436C124.665 198.306 125.09 199.752 125.707 201.644C126.026 202.707 126.665 204.705 127.09 206.109C127.92 208.745 128.133 209.34 128.622 210.297C128.793 210.594 128.92 211.041 128.92 211.253C128.92 211.487 129.069 211.848 129.239 212.082C129.41 212.295 129.559 212.656 129.559 212.869C129.559 213.103 129.686 213.528 129.856 213.826C130.027 214.145 130.622 215.505 131.176 216.844C131.729 218.184 132.261 219.396 132.367 219.523C132.452 219.651 132.793 220.225 133.091 220.799C133.389 221.373 133.708 221.883 133.793 221.947C133.878 222.01 134.048 222.202 134.155 222.414C134.516 223.052 136.261 224.817 137.133 225.412C138.41 226.284 140.049 226.815 142.325 227.155C144.9 227.517 146.602 227.538 151.475 227.24ZM123.856 208.596C125.856 208.022 126.005 207.873 125.601 206.895C125.409 206.449 125.069 205.492 124.835 204.727C124.601 203.961 124.282 203.005 124.133 202.601C123.771 201.58 122.92 198.689 122.218 196.117C122.026 195.415 121.728 194.458 121.558 193.991C121.388 193.502 121.26 192.97 121.26 192.779C121.26 192.566 121.133 192.099 120.962 191.716C120.707 191.078 120.516 190.483 119.664 187.4C119.494 186.826 119.111 185.487 118.813 184.445C118.069 181.979 117.005 177.876 116.813 176.664C116.707 176.133 116.537 175.431 116.388 175.113C116.26 174.772 116.09 173.05 116.005 171.286C115.898 168.373 115.834 167.991 115.366 167.31C115.111 166.906 114.877 166.481 114.877 166.354C114.877 166.247 114.728 165.865 114.558 165.546C114.388 165.206 113.962 164.058 113.622 162.995C112.387 159.062 111.749 156.022 111.494 152.812C111.451 152.429 110.813 152.705 109.855 153.492C108.94 154.236 108.025 154.767 106.472 155.405C105.11 155.958 104.366 156.128 102.749 156.234L100.94 156.362L100.94 157.319C100.961 157.85 101.068 159.04 101.217 159.976C101.366 160.911 101.621 162.548 101.791 163.59C102.323 167.013 102.557 168.225 103.366 172.094C103.749 173.922 104.898 178.408 105.11 178.96C105.217 179.237 105.302 179.641 105.302 179.853C105.302 180.087 105.43 180.576 105.6 180.959C105.749 181.341 106.196 182.66 106.579 183.893C107.323 186.337 107.366 186.422 108.813 190.27C109.004 190.802 109.302 191.503 109.472 191.822C109.643 192.162 109.77 192.524 109.77 192.651C109.77 192.779 110.068 193.502 110.409 194.246C110.77 194.969 111.047 195.691 111.047 195.819C111.047 195.947 111.175 196.308 111.324 196.606C111.494 196.925 111.77 197.52 111.941 197.924C112.345 198.795 115.622 205.428 116.047 206.215C116.558 207.108 117.728 208.213 118.728 208.723C119.856 209.297 121.579 209.276 123.856 208.596ZM221.628 198.03C222.032 197.86 222.564 197.711 222.798 197.711C223.521 197.711 227.564 195.606 228.607 194.692C229.649 193.778 230.075 193.119 230.671 191.44C231.139 190.164 231.139 189.505 230.734 187.485C229.437 181.214 229.181 179.981 228.819 178.471C228.671 177.77 228.373 176.473 228.16 175.601C227.968 174.73 227.564 173.157 227.287 172.094C226.99 171.052 226.67 169.628 226.564 168.947C226.458 168.246 226.309 167.608 226.245 167.48C226.181 167.374 225.99 166.736 225.841 166.077C225.309 163.781 224.351 159.827 223.904 158.063C223.734 157.361 223.5 156.404 223.415 155.937C223.074 154.321 222.5 152.11 222.33 151.685C222.223 151.451 222.096 150.983 222.053 150.622C221.989 150.282 221.755 149.219 221.479 148.283C221.223 147.348 220.947 146.157 220.84 145.626C220.734 145.094 220.564 144.393 220.436 144.074C220.308 143.734 220.202 143.266 220.202 143.011C220.202 142.756 220.053 142.267 219.883 141.927C219.713 141.608 219.564 141.119 219.564 140.864C219.564 140.63 219.415 139.992 219.244 139.461C218.904 138.398 217.925 134.55 217.627 133.083C217.521 132.573 217.329 132.041 217.223 131.935C217.095 131.807 217.01 131.446 217.01 131.127C217.01 130.808 216.883 130.17 216.712 129.745C216.542 129.299 216.244 128.215 216.053 127.343C215.84 126.471 215.542 125.323 215.393 124.813C215.223 124.282 215.095 123.601 215.095 123.282C215.095 122.73 214.627 122.028 214.265 122.028C214.159 122.028 214.031 122.708 213.968 123.538C213.861 124.728 213.691 125.302 213.138 126.216C211.861 128.363 209.648 130.383 206.691 132.169C204.159 133.678 197.903 135.847 196.03 135.847C195.647 135.847 195.286 135.932 195.222 136.017C195.179 136.102 195.264 136.888 195.435 137.76C195.605 138.632 195.839 140.332 195.945 141.523C196.052 142.735 196.243 143.904 196.371 144.117C196.477 144.35 196.584 144.903 196.584 145.371C196.584 145.839 196.733 146.923 196.903 147.773C197.094 148.645 197.371 150.112 197.562 151.047C197.733 151.982 198.009 153.364 198.179 154.13C198.371 154.895 198.499 155.682 198.499 155.873C198.499 156.085 198.626 156.659 198.797 157.148C199.116 158.19 199.584 159.976 200.094 162.102C200.499 163.739 200.69 164.44 201.69 167.736C202.52 170.457 203.563 173.582 203.903 174.432C204.137 175.006 204.584 176.239 205.308 178.365C205.456 178.769 205.691 179.407 205.839 179.747C205.988 180.108 206.414 181.193 206.797 182.192C207.18 183.191 207.712 184.488 207.967 185.062C208.223 185.657 208.797 186.975 209.244 187.996C211.18 192.481 213.499 196.457 214.712 197.307C215.074 197.562 215.712 197.902 216.138 198.051C217.223 198.434 220.67 198.434 221.628 198.03ZM235.096 194.097C237.352 193.842 237.863 193.714 237.863 193.459C237.863 193.332 237.586 193.247 237.267 193.247C236.096 193.247 234.373 192.588 233.607 191.844C233.181 191.44 232.735 191.121 232.586 191.121C232.458 191.121 232.245 191.482 232.139 191.929C232.011 192.354 231.713 193.034 231.479 193.417C230.905 194.352 231.096 194.607 232.309 194.437C232.841 194.352 234.096 194.203 235.096 194.097ZM239.16 191.844C239.416 191.695 239.309 189.718 238.926 188.038C238.458 185.827 237.756 181.915 237.458 179.747C237.352 179.045 237.182 178.089 237.054 177.621C236.926 177.153 236.692 175.963 236.501 174.964C236.331 173.964 236.075 172.583 235.948 171.881C235.394 169.054 235.096 167.353 234.884 165.971C234.777 165.163 234.628 164.44 234.564 164.334C234.458 164.143 234.245 163.016 233.607 159.062C233.501 158.445 233.33 157.489 233.203 156.936C233.096 156.383 232.841 154.98 232.649 153.811C232.458 152.641 232.181 151.026 232.011 150.197C231.862 149.389 231.564 147.752 231.373 146.583C230.777 143.032 229.777 137.505 229.522 136.484C229.394 135.953 229.224 134.954 229.139 134.252C229.054 133.551 228.862 132.551 228.734 132.02C228.394 130.574 228.096 128.916 227.841 127.024C227.713 126.089 227.521 125.153 227.415 124.962C227.309 124.771 227.224 124.324 227.224 123.984C227.224 123.644 227.075 122.942 226.904 122.453C226.734 121.964 226.585 121.242 226.585 120.88C226.585 120.519 226.309 119.753 225.99 119.158C225.479 118.201 225.33 118.095 224.606 118.031C224.16 117.989 223.649 118.074 223.457 118.244C223.16 118.478 222.245 118.882 221.202 119.201C220.989 119.264 220.457 119.158 219.989 118.946C219.159 118.584 218.734 118.584 216.585 118.988C215.159 119.264 215.053 119.371 215.414 120.179C215.925 121.348 217.01 124.494 217.01 124.813C217.01 124.983 217.159 125.536 217.329 126.067C217.606 126.96 217.755 127.428 218.606 130.638C219.181 132.828 219.542 134.103 219.883 135.273C220.159 136.251 220.436 137.314 221.606 141.906C221.777 142.607 222.011 143.585 222.117 144.095C222.223 144.605 222.372 145.116 222.457 145.243C222.585 145.456 223.053 147.327 223.372 148.921C223.457 149.389 223.628 150.112 223.755 150.516C224.16 151.77 224.479 153.109 224.67 154.257C224.755 154.852 224.947 155.554 225.075 155.788C225.202 156.022 225.309 156.447 225.309 156.702C225.309 156.957 225.458 157.659 225.628 158.254C225.926 159.296 226.564 161.847 227.458 165.503C227.692 166.439 227.99 167.587 228.117 168.054C228.245 168.522 228.415 169.287 228.5 169.755C228.585 170.223 228.883 171.371 229.139 172.306C229.394 173.242 229.671 174.496 229.777 175.113C229.862 175.708 230.054 176.516 230.16 176.92C230.288 177.302 230.607 178.578 230.841 179.747C231.096 180.916 231.394 182.149 231.5 182.489C231.607 182.83 231.692 183.361 231.692 183.659C231.692 183.956 231.841 184.594 232.011 185.083C232.16 185.572 232.373 186.678 232.458 187.57C232.586 189.016 232.692 189.292 233.33 190.036C234.224 191.099 235.16 191.78 236.033 191.992C236.756 192.184 238.777 192.099 239.16 191.844ZM103.706 154.555C104.536 154.321 105.387 154.045 105.621 153.938C107.706 153.024 108.6 152.535 109.536 151.791C110.472 151.047 110.621 150.834 110.621 150.197C110.621 149.793 111.004 148.666 111.472 147.646C111.941 146.646 112.324 145.711 112.324 145.562C112.324 145.413 112.43 145.179 112.536 145.073C112.877 144.733 113.175 142.586 112.919 142.288C112.813 142.161 112.238 141.991 111.643 141.906C111.026 141.821 110.026 141.565 109.366 141.353C108.728 141.119 108.004 140.949 107.749 140.949C107.494 140.949 106.536 140.758 105.6 140.524C104.685 140.269 103.302 139.928 102.536 139.758C100.642 139.312 99.0463 138.908 97.5355 138.504C96.8334 138.313 95.8333 138.079 95.3014 137.951C94.7694 137.845 93.8758 137.611 93.28 137.441C92.7055 137.292 91.599 136.995 90.833 136.782C90.067 136.591 89.0457 136.293 88.535 136.144C88.0457 135.974 87.4712 135.847 87.2797 135.847C87.1094 135.847 86.4711 135.698 85.854 135.507C85.2583 135.315 84.4923 135.081 84.1305 134.996C83.4284 134.805 80.6623 134.018 79.6622 133.742C78.5558 133.402 75.8748 132.658 74.6619 132.318C74.0236 132.126 73.2576 131.914 72.9597 131.807C72.6618 131.722 71.7043 131.425 70.8319 131.17C68.2573 130.404 67.1509 130.064 66.4274 129.745C66.0657 129.596 65.5976 129.469 65.3848 129.469C65.1933 129.469 64.5337 129.341 63.9379 129.171C63.3422 129.001 62.0442 128.661 61.0442 128.427C56.512 127.343 53.4054 126.386 51.5543 125.515C50.9585 125.238 50.384 125.004 50.2989 125.004C50.1925 125.004 49.9584 124.877 49.7882 124.707C49.0648 124.09 45.1284 123.304 42.7878 123.304C41.5112 123.304 40.1919 123.644 38.4897 124.409C37.9578 124.643 37.0641 125.026 36.4683 125.217C33.5533 126.259 32.0638 126.811 30.4042 127.534L28.5955 128.321L28.6594 129.788C28.787 132.488 30.6382 134.869 33.4894 136.017C34.7661 136.527 36.7237 137.122 37.1279 137.122C37.2769 137.122 37.7237 137.25 38.1067 137.42C38.4897 137.59 39.2344 137.888 39.7664 138.079C40.2983 138.27 40.9792 138.568 41.2984 138.738C41.5963 138.908 42.0005 139.036 42.1708 139.036C42.341 139.036 42.8942 139.269 43.4262 139.546C43.9368 139.822 44.5964 140.12 44.8943 140.205C45.4901 140.396 47.9158 141.459 48.7669 141.906C49.1073 142.076 49.4478 142.224 49.5542 142.224C49.6605 142.224 50.3627 142.522 51.1074 142.862C51.8734 143.224 52.6394 143.5 52.8309 143.5C53.0012 143.5 53.1927 143.585 53.2778 143.713C53.3416 143.819 53.7033 144.01 54.0863 144.117C54.4693 144.223 55.2992 144.52 55.9375 144.776C56.5758 145.031 57.4057 145.328 57.7461 145.413C58.1078 145.52 59.3419 145.945 60.5122 146.37C61.6825 146.795 63.1294 147.284 63.7039 147.454C64.2997 147.624 65.0657 147.858 65.4061 147.964C66.321 148.241 68.1935 148.815 69.4489 149.176C70.0447 149.346 70.8958 149.58 71.3639 149.686C71.832 149.793 72.7682 150.027 73.4491 150.197C74.1087 150.367 75.2152 150.643 75.896 150.813C76.5557 150.983 77.5983 151.238 78.1728 151.366C78.7685 151.515 79.5345 151.685 79.875 151.727C80.5984 151.812 83.0454 152.344 84.3433 152.684C84.8114 152.812 85.7264 152.982 86.3647 153.088C87.003 153.173 88.4074 153.386 89.45 153.577C95.9397 154.661 98.0888 154.937 100.195 154.959C101.621 154.98 102.663 154.852 103.706 154.555ZM112.962 140.587C112.941 140.375 112.621 139.588 112.238 138.823C111.664 137.675 111.345 137.314 110.387 136.74C109.749 136.357 108.834 135.932 108.323 135.804C107.834 135.677 107.366 135.507 107.302 135.4C107.238 135.294 106.919 135.209 106.579 135.209C106.238 135.209 105.706 135.103 105.366 134.975C105.047 134.847 104.004 134.656 103.068 134.55C97.6419 133.976 95.4929 133.699 94.4503 133.508C90.2585 132.658 89.9607 132.594 87.2158 131.914C86.4498 131.722 85.4285 131.489 84.9178 131.382C84.4284 131.276 83.8327 131.085 83.6199 130.957C83.3858 130.851 82.9815 130.744 82.7049 130.744C82.4283 130.744 82.0028 130.596 81.7687 130.426C81.5559 130.255 81.1304 130.107 80.8325 130.107C80.5133 130.107 80.1729 130 80.0452 129.873C79.7686 129.596 70.6617 129.448 70.4915 129.703C70.4064 129.873 72.5129 130.532 74.7683 131.063C76.6833 131.51 78.3643 131.956 79.5558 132.339C80.0878 132.509 80.6835 132.658 80.8963 132.658C81.1091 132.658 81.9815 132.892 82.8113 133.168C83.6624 133.444 84.8327 133.785 85.4072 133.912C86.4285 134.146 86.9818 134.295 89.8755 135.103C90.5777 135.315 91.6842 135.592 92.3225 135.74C93.897 136.102 97.8122 137.101 98.5994 137.335C98.9612 137.441 100.11 137.717 101.153 137.973C102.217 138.228 103.557 138.547 104.132 138.695C104.727 138.844 106.493 139.291 108.068 139.673C109.643 140.056 111.175 140.502 111.472 140.651C112.26 141.055 112.962 141.034 112.962 140.587ZM111.047 134.933C111.047 134.529 110.6 134.146 110.153 134.146C109.877 134.146 109.77 134.316 109.77 134.677C109.77 135.124 109.877 135.209 110.409 135.209C110.792 135.209 111.047 135.103 111.047 134.933ZM196.584 133.976C198.031 133.742 200.031 133.189 200.605 132.892C200.839 132.764 201.158 132.658 201.329 132.658C201.903 132.658 205.797 130.702 207.754 129.448C210.052 127.959 212.989 124.154 212.648 123.091C212.585 122.857 212.265 122.623 211.946 122.56C210.818 122.326 209.648 121.964 207.223 121.135C205.882 120.668 204.393 120.179 203.924 120.072C203.456 119.945 202.988 119.775 202.861 119.69C202.754 119.605 201.924 119.328 201.052 119.052C200.18 118.797 199.18 118.457 198.818 118.308C197.201 117.606 194.86 116.713 194.69 116.713C194.562 116.713 193.966 116.479 193.349 116.182C192.732 115.905 190.839 115.119 189.136 114.46C187.434 113.801 185.668 113.099 185.2 112.887C184.732 112.695 183.774 112.313 183.072 112.036C182.37 111.76 181.327 111.335 180.732 111.058C180.157 110.803 178.859 110.229 177.859 109.804C176.859 109.379 175.71 108.869 175.306 108.699C174.902 108.507 174.242 108.21 173.88 108.061C172.135 107.338 171.752 107.168 171.05 106.87C170.646 106.679 169.093 105.956 167.582 105.255C166.093 104.532 164.837 103.958 164.773 103.958C164.667 103.958 158.454 101.088 157.326 100.493C152.645 98.069 144.623 94.3911 144.049 94.3911C143.9 94.3911 143.304 94.2423 142.73 94.051C141.878 93.7746 141.112 93.7108 138.963 93.8171C137.474 93.8809 135.984 94.0297 135.623 94.136C135.282 94.2635 134.559 94.4549 134.027 94.6037C133.495 94.7313 132.559 94.9651 131.963 95.1352C128.899 95.9855 128.303 96.1556 127.112 96.4533C126.409 96.6233 125.367 96.8572 124.771 96.9847C124.197 97.1123 123.537 97.2824 123.345 97.3887C123.133 97.4949 122.792 97.58 122.579 97.58C122.388 97.58 121.984 97.7288 121.728 97.9201C121.324 98.1965 121.26 98.4304 121.26 99.8122C121.26 103.448 123.452 106.36 127.984 108.741C129.069 109.336 131.878 110.931 133.282 111.76C133.516 111.909 133.857 112.079 134.027 112.164C134.197 112.249 134.729 112.568 135.197 112.865C136.559 113.737 136.836 113.907 137.857 114.481C138.9 115.055 139.176 115.246 140.58 116.139C141.091 116.458 141.581 116.713 141.687 116.713C141.793 116.713 142.495 117.139 143.261 117.67C144.049 118.201 144.815 118.627 144.985 118.627C145.134 118.627 145.347 118.733 145.411 118.839C145.474 118.967 146.325 119.456 147.283 119.945C151.815 122.241 157.518 125.004 157.73 125.004C157.773 125.004 158.433 125.281 159.177 125.6C160.475 126.195 161.305 126.535 163.241 127.258C163.731 127.449 164.433 127.726 164.773 127.874C165.816 128.3 167.156 128.746 170.837 129.83C171.476 130.022 172.199 130.255 172.433 130.341C172.667 130.447 173.284 130.617 173.816 130.744C175.604 131.127 177.37 131.552 178.093 131.765C178.498 131.871 179.583 132.126 180.519 132.339C181.455 132.53 182.519 132.785 182.859 132.892C183.221 132.998 183.987 133.147 184.562 133.211C185.157 133.274 186.03 133.466 186.541 133.636C187.03 133.806 187.86 133.933 188.349 133.955C188.839 133.955 189.434 134.04 189.668 134.146C190.179 134.38 194.924 134.252 196.584 133.976ZM114.685 131.956C116.026 131.552 117.324 131.127 117.558 131C117.771 130.893 118.388 130.596 118.92 130.341C119.452 130.085 120.026 129.809 120.196 129.703C121.771 128.874 125.239 127.152 126.899 126.386C127.835 125.961 128.793 125.515 129.005 125.387C129.239 125.26 129.665 125.089 129.963 125.004C130.261 124.898 131.048 124.622 131.686 124.367C134.282 123.389 140.261 121.475 142.815 120.838C143.623 120.625 144.219 120.37 144.176 120.242C144.134 120.115 143.198 119.541 142.091 118.988C140.985 118.414 139.687 117.67 139.176 117.33C138.665 116.99 138.219 116.713 138.176 116.713C138.134 116.713 137.729 116.458 137.282 116.161C136.836 115.863 136.282 115.523 136.048 115.417C135.623 115.225 135.431 115.119 133.921 114.162C133.452 113.865 132.899 113.546 132.665 113.461C132.452 113.376 131.729 112.929 131.048 112.44C129.856 111.611 129.814 111.59 129.112 111.887C127.495 112.589 121.643 113.524 119.026 113.524C118.196 113.524 117.196 113.631 116.792 113.758C116.388 113.886 115.515 114.12 114.877 114.269C113.558 114.587 112.004 115.034 108.174 116.203C107.6 116.373 106.749 116.607 106.302 116.735C105.855 116.841 105.344 117.011 105.132 117.117C104.302 117.542 103.153 117.989 102.898 117.989C102.77 117.989 101.791 118.414 100.727 118.924C99.6846 119.435 98.3867 120.072 97.8547 120.327C97.3228 120.561 96.0887 121.199 95.0886 121.752C90.6841 124.133 89.2798 124.856 86.6839 126.131C85.1732 126.875 83.3645 127.662 82.7049 127.874C81.4921 128.278 81.1304 128.704 81.8538 128.895C82.0453 128.959 82.7049 129.107 83.2794 129.235C84.322 129.448 85.5136 129.745 87.003 130.107C87.4073 130.213 88.3648 130.447 89.1308 130.596C89.8968 130.766 90.8969 131 91.365 131.127C91.8331 131.255 93.131 131.489 94.2375 131.68C95.3439 131.871 96.8759 132.126 97.6419 132.254C99.9825 132.637 104.366 132.849 108.387 132.764C112.004 132.679 112.366 132.637 114.685 131.956ZM79.6622 127.471C82.6411 126.45 85.0668 125.345 89.6415 122.9C90.4713 122.453 91.6842 121.816 92.3225 121.497C92.9608 121.157 93.7906 120.668 94.1737 120.391C94.5354 120.136 94.9397 119.902 95.0673 119.902C95.195 119.902 95.7695 119.626 96.3653 119.264C96.961 118.924 97.493 118.627 97.5355 118.627C97.5994 118.627 98.4718 118.244 99.4931 117.755C100.514 117.287 102.259 116.565 103.366 116.161C104.493 115.757 105.706 115.289 106.047 115.14C106.408 114.991 107.025 114.8 107.43 114.715C107.834 114.63 108.366 114.481 108.6 114.396C109.77 113.928 110.6 113.673 111.472 113.524C112.004 113.418 113.153 113.099 114.026 112.823C115.877 112.206 119.75 111.611 121.835 111.611C123.388 111.611 127.069 111.25 127.707 111.058C128.303 110.867 128.09 110.654 126.324 109.74C124.601 108.826 124.111 108.465 122.537 106.913C120.026 104.468 118.792 100.237 119.643 96.9422C119.835 96.2194 119.984 95.4115 119.984 95.1352C119.984 94.8588 120.069 94.5824 120.175 94.5187C120.281 94.4549 120.43 94.136 120.494 93.8384C120.75 92.8179 121.941 91.266 122.984 90.5857C123.558 90.2243 124.026 89.8416 124.026 89.7353C124.026 89.6503 123.835 89.3952 123.601 89.1826C123.367 88.97 123.175 88.6724 123.175 88.5236C123.175 88.3747 123.048 88.1621 122.92 88.0771C122.537 87.8433 121.26 85.3772 121.26 84.9095C121.26 84.6969 120.835 84.1441 120.345 83.6552C118.749 82.2095 116.111 78.8081 115.43 77.3837C115.345 77.2136 115.175 76.8735 115.026 76.6396C114.877 76.4058 114.175 75.194 113.43 73.9822C112.707 72.7492 112.004 71.6012 111.898 71.4311C111.792 71.261 111.196 70.2193 110.579 69.1351C109.345 66.9454 109.281 66.8391 108.451 65.5636C108.153 65.0746 107.706 64.373 107.494 63.9691C106.281 61.7156 103.791 58.463 103.281 58.463C103.11 58.463 102.77 58.7818 102.515 59.1645C101.472 60.6952 99.5144 62.077 97.7696 62.5235C97.4079 62.6085 96.578 62.8849 95.9397 63.14C95.3014 63.3951 94.4928 63.6927 94.1311 63.7778C93.4289 63.9691 91.8118 64.5431 91.1522 64.8195C90.9182 64.9045 90.3649 65.1596 89.9181 65.351C89.4713 65.5423 88.9819 65.6911 88.8117 65.6911C88.6414 65.6911 88.1946 65.8187 87.8116 65.9887C87.152 66.2651 86.6413 66.4564 84.4072 67.3068C83.8965 67.4981 83.2156 67.7745 82.8539 67.9233C82.5134 68.0721 81.8325 68.3273 81.3644 68.4973C80.1942 68.9438 77.0663 70.113 76.1088 70.4957C75.662 70.6658 74.896 70.9421 74.4066 71.1335C73.8959 71.3036 73.215 71.6012 72.8959 71.7713C72.5554 71.9413 72.1724 72.0689 72.0022 72.0689C71.7682 72.0689 69.8106 72.8342 67.9594 73.6633C67.619 73.8334 66.4062 74.3011 65.2997 74.7263C64.1933 75.1515 62.7677 75.7255 62.1506 76.0231C61.5335 76.2995 60.9378 76.5333 60.8314 76.5333C60.725 76.5333 60.2782 76.6821 59.8313 76.8735C59.3845 77.0648 58.7036 77.3412 58.3206 77.5113C57.5972 77.8089 56.5971 78.2341 55.4481 78.723C55.0864 78.8931 54.3417 79.212 53.8097 79.4033C53.2778 79.6159 52.3841 79.9986 51.7883 80.2537C51.2138 80.5301 50.1925 80.9553 49.5542 81.2104C48.9158 81.4655 48.0434 81.8056 47.6392 81.997C47.2349 82.167 46.6178 82.4434 46.2561 82.5922C45.9157 82.741 44.9794 83.145 44.1922 83.5276C43.4049 83.889 42.6389 84.1867 42.5112 84.1867C42.3835 84.1867 42.0218 84.3142 41.7239 84.4843C40.7239 84.9945 38.4046 86.0362 37.8727 86.2063C37.5748 86.2913 36.6173 86.7378 35.7449 87.1842C34.8512 87.6307 34.0426 88.0133 33.9363 88.0133C33.8299 88.0133 32.5532 88.6086 31.0638 89.3101C29.5956 90.033 27.8721 90.8408 27.2763 91.1172C26.1486 91.6274 26.0635 91.7337 26.1486 92.6266C26.1911 93.3494 29.3403 98.9406 31.0212 101.3C31.4468 101.896 31.8936 102.533 32 102.725C32.7021 103.873 35.7236 108.146 36.8726 109.655C37.362 110.272 37.9578 111.08 38.2131 111.441C38.6174 111.994 40.0855 113.716 40.9366 114.672C41.0643 114.8 41.7239 115.565 42.4048 116.352C43.5538 117.67 45.3199 119.179 48.6605 121.773C49.3201 122.262 50.6606 123.07 51.6607 123.559C52.6607 124.048 53.7459 124.558 54.065 124.728C54.3629 124.877 54.7459 125.004 54.9162 125.004C55.0651 125.004 55.9588 125.26 56.895 125.578C57.8312 125.876 59.0228 126.216 59.5547 126.301C60.0867 126.386 61.4697 126.663 62.64 126.918C63.8103 127.173 65.5763 127.449 66.5764 127.577C67.5764 127.683 68.9169 127.874 69.5553 127.959C70.1936 128.066 72.2575 128.151 74.13 128.151C77.4706 128.193 77.577 128.172 79.6622 127.471ZM30.1914 126.344C30.3616 126.28 31.1063 125.94 31.851 125.621C32.5958 125.281 33.4469 124.941 33.766 124.877C34.0852 124.792 34.4469 124.664 34.5533 124.579C34.681 124.494 35.3832 124.218 36.1492 123.941C36.9151 123.665 37.6386 123.389 37.745 123.304C37.8727 123.219 38.5535 122.942 39.2983 122.666C40.5324 122.219 40.8728 122.198 43.6177 122.305C46.0646 122.39 46.5753 122.368 46.5753 122.113C46.5753 121.943 46.4689 121.816 46.3625 121.816C46.2348 121.816 45.8305 121.603 45.4688 121.348C44.7667 120.838 44.49 120.625 43.0006 119.392C42.2559 118.775 41.958 118.669 41.4048 118.754C40.1707 118.967 38.6174 119.541 37.4258 120.179C35.4257 121.284 34.681 121.603 33.2128 122.071C32.4255 122.305 31.4468 122.666 31.0212 122.879C29.6381 123.601 28.1487 126.152 28.7232 126.833C28.936 127.109 29.0424 127.088 29.4254 126.811C29.6807 126.641 30.0212 126.429 30.1914 126.344ZM212.67 120.604C212.585 119.945 212.393 119.243 212.223 119.052C212.053 118.861 211.904 118.627 211.904 118.52C211.904 118.223 210.372 116.862 209.478 116.352C208.201 115.65 206.329 114.757 204.137 113.822C203.797 113.673 202.861 113.248 202.052 112.908C201.265 112.547 200.541 112.249 200.435 112.249C200.329 112.249 199.967 112.1 199.626 111.93C198.69 111.441 196.179 110.336 196.009 110.336C195.945 110.336 195.264 110.059 194.52 109.698C193.796 109.358 193.073 109.06 192.945 109.06C192.817 109.06 192.456 108.932 192.158 108.762C191.413 108.38 190.328 107.912 189.136 107.466C188.604 107.253 187.86 106.955 187.498 106.785C187.115 106.636 186.434 106.339 186.009 106.147C185.562 105.956 184.945 105.68 184.626 105.51C184.328 105.361 183.966 105.233 183.838 105.233C183.711 105.233 183.115 104.999 182.498 104.723C181.881 104.425 179.838 103.554 177.966 102.789C176.093 102.002 174.37 101.279 174.136 101.173C173.284 100.811 166.454 98.0477 163.773 96.9635C162.922 96.6233 161.114 95.9005 159.773 95.3478C158.433 94.795 156.603 94.051 155.73 93.7108C154.858 93.3707 153.879 92.9455 153.56 92.7754C153.262 92.6053 152.815 92.4778 152.602 92.4778C152.39 92.4778 152.113 92.3927 151.985 92.3077C151.879 92.2227 151.219 91.925 150.517 91.6487C148.113 90.7345 147.113 90.3093 146.921 90.118C146.794 90.0117 146.517 89.9267 146.262 89.9267C146.006 89.9267 145.623 89.7778 145.389 89.6078C145.176 89.4377 144.751 89.2889 144.432 89.2889C144.134 89.2889 143.815 89.2038 143.687 89.0763C143.368 88.7574 141.538 88.396 139.666 88.2897C137.878 88.2047 136.942 88.3747 134.133 89.3527C131.771 90.1818 130.474 90.5007 127.856 90.9046C125.175 91.3085 124.473 91.5636 123.431 92.5628C122.792 93.1581 121.771 95.0076 121.388 96.2619C121.196 96.8784 121.728 97.1123 122.388 96.6871C122.984 96.2832 124.048 95.9005 125.516 95.5391C126.154 95.3903 127.218 95.1139 127.856 94.9226C128.495 94.7313 129.452 94.4761 129.984 94.3486C130.516 94.2423 131.133 94.0722 131.367 93.9872C131.601 93.8809 132.367 93.647 133.069 93.477C133.772 93.2856 135.027 92.9667 135.836 92.7541C136.963 92.4778 138.006 92.3715 140.027 92.414C142.878 92.4565 143.453 92.5841 146.368 93.7958C149.177 94.9651 150.921 95.7517 157.752 99.0681C159.624 99.961 161.582 100.896 162.114 101.152C162.646 101.385 164.199 102.108 165.603 102.767C166.986 103.426 168.22 103.958 168.348 103.958C168.476 103.958 168.731 104.085 168.901 104.234C169.093 104.404 170.114 104.893 171.157 105.34C172.816 106.041 174.136 106.594 175.838 107.359C176.072 107.466 176.753 107.742 177.327 107.997C177.923 108.252 178.689 108.571 179.029 108.741C179.391 108.89 180.327 109.315 181.115 109.677C181.902 110.038 182.689 110.336 182.859 110.336C183.03 110.336 183.2 110.421 183.264 110.527C183.328 110.633 183.647 110.782 183.966 110.846C184.306 110.931 184.86 111.122 185.2 111.271C186.668 111.951 190.115 113.333 193.073 114.481C194.477 115.013 195.818 115.544 196.052 115.65C197.839 116.458 198.541 116.713 198.903 116.713C199.137 116.713 199.371 116.798 199.456 116.905C199.52 117.011 199.882 117.181 200.265 117.266C200.626 117.33 201.222 117.521 201.584 117.67C202.563 118.095 203.797 118.542 205.095 118.946C205.733 119.137 206.457 119.392 206.691 119.498C206.925 119.583 207.797 119.902 208.606 120.2C211.138 121.071 211.584 121.284 211.755 121.56C211.84 121.688 212.116 121.816 212.372 121.816C212.776 121.816 212.797 121.731 212.67 120.604ZM32.2128 120.54C32.8937 120.2 33.5958 119.902 33.7448 119.902C33.8937 119.902 35.0853 119.371 36.4045 118.733C37.7237 118.074 39.2132 117.5 39.7238 117.415C40.2132 117.351 40.6175 117.181 40.6175 117.053C40.6175 116.926 40.0217 116.203 39.2983 115.438C37.9365 114.035 35.1065 110.421 32.9149 107.295C32.234 106.339 31.5957 105.403 31.468 105.233C29.9786 103.107 27.8083 99.6209 26.9571 98.0052C25.9145 96.0281 25.5315 95.5604 25.489 96.1344C25.34 97.6225 25.6166 106.062 25.8507 107.317C26.0209 108.188 26.1486 109.315 26.1486 109.825C26.1486 111.866 27.1912 115.778 28.2125 117.564C28.8296 118.648 30.6595 121.157 30.851 121.178C30.9148 121.178 31.5319 120.901 32.2128 120.54ZM217.202 117.011C218.053 116.841 218.989 116.713 219.266 116.713C219.968 116.713 221.308 115.842 221.989 114.949C223.117 113.461 223.394 112.483 223.521 109.336C223.713 104.617 223.011 89.0125 222.351 83.5489C222.223 82.5497 222.011 80.5088 221.883 78.9781C221.011 69.0076 220.542 65.8187 219.734 64.3943C218.755 62.6298 211.053 54.8489 201.605 46.0263C200.094 44.6232 198.754 43.4114 198.584 43.3051C198.435 43.2201 198.052 42.8799 197.711 42.561C197.392 42.2421 196.669 41.6044 196.094 41.1579C195.541 40.6902 194.732 39.9887 194.286 39.5635C191.051 36.5234 179.668 27.6583 174.05 23.8104C173.284 23.2789 172.093 22.4498 171.433 21.9396C170.774 21.4506 170.157 21.0467 170.093 21.0467C170.029 21.0467 169.008 20.3876 167.795 19.601C166.603 18.7932 165.156 17.8578 164.582 17.5176C164.007 17.1775 163.305 16.731 162.986 16.5397C162.688 16.3271 162.241 16.072 162.007 15.9444C161.241 15.5405 159.688 14.6264 158.752 14.0099C158.241 13.6697 157.794 13.3933 157.73 13.3933C157.688 13.3933 156.709 12.8406 155.56 12.1603C154.432 11.48 153.071 10.7147 152.539 10.4596C151.666 10.0131 148.432 8.24859 147.283 7.61081C145.581 6.63289 141.049 4.44318 140.495 4.33689C139.857 4.20933 139.793 4.25185 139.559 4.99593C139.304 5.78252 139.176 6.52659 138.708 9.77926C138.58 10.6509 138.389 11.9902 138.261 12.7556C138.027 14.3075 137.687 19.1333 137.431 24.6607C137.197 29.9118 137.197 49.9593 137.431 53.1481C137.538 54.615 137.729 57.485 137.857 59.5259C138.112 63.3738 138.751 69.943 139.112 72.1752C139.24 72.8767 139.538 74.2161 139.772 75.1515C140.027 76.0869 140.304 77.1498 140.389 77.5113C140.751 78.8931 142.942 82.9749 144.432 85.037C145.602 86.6527 147.496 88.6511 147.857 88.6511C148.07 88.6511 148.517 88.7999 148.836 88.97C149.177 89.1401 149.624 89.2889 149.815 89.2889C150.007 89.2889 150.219 89.3739 150.283 89.4802C150.347 89.5865 150.666 89.7353 150.985 89.7991C151.326 89.8841 152.262 90.203 153.071 90.5432C153.9 90.8833 155.283 91.4361 156.156 91.7975C157.028 92.1376 158.837 92.8817 160.156 93.4132C161.454 93.9447 163.624 94.8375 164.944 95.369C166.242 95.9005 167.986 96.6233 168.795 96.9635C169.603 97.3036 170.348 97.58 170.454 97.58C170.54 97.58 171.221 97.8564 171.965 98.1965C172.689 98.5367 174.391 99.2595 175.731 99.8122C177.072 100.365 178.476 100.918 178.817 101.088C179.178 101.237 180.221 101.662 181.157 102.044C182.093 102.427 183.455 103.022 184.2 103.341C184.923 103.681 185.604 103.958 185.732 103.958C185.838 103.958 186.583 104.255 187.37 104.638C188.179 104.999 189.115 105.425 189.456 105.573C189.817 105.722 190.796 106.126 191.668 106.488C192.52 106.849 193.307 107.147 193.413 107.147C193.498 107.147 194.498 107.572 195.605 108.103C196.733 108.635 197.754 109.06 197.86 109.06C197.967 109.06 198.711 109.358 199.499 109.719C200.307 110.08 201.243 110.506 201.584 110.654C201.946 110.803 202.861 111.228 203.669 111.59C204.456 111.951 205.137 112.249 205.201 112.249C205.265 112.249 206.371 112.759 207.691 113.397C210.201 114.609 211.904 115.735 212.819 116.841C213.351 117.457 213.457 117.5 214.5 117.415C215.117 117.372 216.329 117.181 217.202 117.011ZM27.1061 89.2038C28.6168 88.4598 30.5531 87.5456 31.3617 87.163C32.1915 86.7803 33.6384 86.1 34.6171 85.6535C35.5959 85.1858 36.4683 84.8244 36.5747 84.8244C36.7024 84.8244 37.3833 84.5268 38.1067 84.1654C39.5536 83.4638 39.8515 83.315 42.3197 82.2733C43.1921 81.8907 44.4049 81.3592 45.0007 81.1041C45.5752 80.8277 46.6817 80.36 47.4477 80.0836C48.2136 79.786 49.3201 79.3183 49.9372 78.9994C50.5329 78.7018 51.1287 78.4467 51.2777 78.4467C51.4053 78.4467 52.1288 78.1703 52.8948 77.8089C53.6395 77.4687 54.3204 77.1711 54.3842 77.1711C54.4693 77.1711 55.1928 76.8735 56.0226 76.5121C56.8524 76.1507 57.8312 75.7255 58.1717 75.5767C59.0866 75.194 62.0868 73.9822 62.9592 73.6633C63.6613 73.4082 65.0657 72.8555 68.5552 71.4524C69.8957 70.8996 73.4065 69.539 76.045 68.5186C76.5131 68.3485 77.2153 68.0721 77.5983 67.9021C77.9813 67.732 78.3855 67.6044 78.5132 67.6044C78.6409 67.6044 79.0452 67.4769 79.4069 67.3068C79.7899 67.158 80.5133 66.8604 81.0453 66.6478C81.5772 66.4564 82.3007 66.1588 82.6411 65.9887C83.0028 65.8399 83.5348 65.6486 83.8752 65.5636C84.1944 65.4998 84.5135 65.351 84.5774 65.2447C84.6412 65.1384 84.8327 65.0533 85.0242 65.0533C85.1944 65.0533 85.6413 64.9258 86.003 64.7557C86.386 64.5856 87.2584 64.2667 87.9605 64.0116C88.6627 63.7778 89.7691 63.3738 90.4075 63.14C91.0458 62.8849 91.8757 62.6085 92.2161 62.5022C92.5778 62.3959 93.3864 62.1196 94.0247 61.8644C94.663 61.6093 95.4929 61.3117 95.8333 61.2267C97.5994 60.7164 98.6845 60.2487 99.5782 59.5897C100.94 58.6118 102.11 57.2724 102.11 56.6984C102.11 56.4433 101.727 55.6993 101.259 55.0615C100.791 54.4237 100.046 53.3182 99.5569 52.6167C99.0888 51.9151 98.642 51.2348 98.5569 51.1285C98.3654 50.8734 96.5993 48.2798 93.4289 43.5815C92.1948 41.7744 90.9182 39.9461 90.5777 39.521C90.2585 39.0958 89.9819 38.6706 89.9819 38.6068C89.9819 38.4155 89.1521 37.2675 88.5563 36.5659C88.2797 36.2896 88.0669 35.9707 88.0669 35.8856C88.0669 35.7581 86.0881 32.7605 82.939 28.1685C81.9815 26.7441 79.875 24.7033 79.0026 24.3419C78.2579 24.0442 78.1728 23.8954 78.4494 23.449C79.1728 22.3222 81.7687 23.9167 84.0029 26.893C85.9392 29.4653 89.8117 35.0565 90.7267 36.6084C90.8543 36.7998 91.5139 37.7777 92.2161 38.7981C92.9183 39.7973 93.5992 40.7965 93.7055 40.9879C93.8332 41.1792 94.3226 41.902 94.8333 42.561C95.3227 43.2201 95.7269 43.8366 95.7269 43.9216C95.7269 43.9854 96.0248 44.4106 96.3653 44.857C96.727 45.3035 97.0036 45.7287 97.0036 45.8137C97.0036 45.8775 97.4292 46.5153 97.9611 47.1956C98.493 47.8759 98.9186 48.4924 98.9186 48.5561C98.9186 48.5987 99.791 49.9593 100.855 51.5324C102.919 54.5938 103.281 54.8914 103.94 53.8922C104.302 53.3395 104.259 51.745 103.876 51.4687C103.727 51.3411 101.429 48.0459 100.94 47.2381C100.834 47.0467 100.323 46.3239 99.8335 45.6436C99.3229 44.9846 98.9186 44.3681 98.9186 44.3043C98.9186 44.2405 98.6207 43.8153 98.2803 43.3689C97.9398 42.9224 97.6419 42.5185 97.6419 42.4547C97.6419 42.3484 96.5355 40.6264 96.1099 40.0737C95.5993 39.3934 94.4503 37.8202 93.897 36.9911C93.5353 36.4596 92.7268 35.2691 92.1097 34.3337C91.4714 33.3983 90.8969 32.5904 90.833 32.5267C90.7692 32.4629 89.8117 31.081 88.7265 29.4441C84.4497 23.0663 82.8113 21.2593 81.024 20.8553C80.0452 20.6427 78.4707 20.8979 77.5344 21.4293C77.3004 21.5781 75.3003 22.5348 73.0661 23.5978C70.8532 24.6607 68.8744 25.6174 68.7042 25.7237C68.236 26.0001 65.9593 27.1056 60.725 29.6567C58.1504 30.911 53.7459 33.0581 50.9372 34.44C48.1285 35.8006 44.256 37.6927 42.3197 38.6493C40.3834 39.5847 36.3194 41.5618 33.2979 43.05C30.2765 44.5169 27.5955 45.835 27.3401 45.9413C27.0848 46.0476 26.7444 46.2176 26.5742 46.3239C26.2763 46.494 22.4037 48.3648 20.2972 49.3215C19.5099 49.6829 16.6161 51.0647 12.1053 53.1907C10.3392 54.0198 9.14765 54.5725 7.63693 55.2103C7.23265 55.3804 6.74326 55.6142 6.57304 55.7205C6.40281 55.8268 6.04109 55.9969 5.78576 56.1244C4.27504 56.7622 3.6367 57.4 2.82815 59.037C2.06215 60.5464 1.99831 60.844 1.99831 62.3959C1.99831 63.8203 2.1047 64.3092 2.59409 65.3722C2.93454 66.0738 3.27498 66.7966 3.40265 66.9667C3.50904 67.1367 3.67926 67.4769 3.78565 67.7107C3.89204 67.9446 4.50909 68.9438 5.1687 69.9217C5.82831 70.8996 6.36026 71.75 6.36026 71.7925C6.36026 71.835 6.95604 72.6429 7.70076 73.5783C9.08381 75.3641 9.46681 75.8743 10.5094 77.2774C11.2329 78.2553 12.9564 80.2962 13.9139 81.3167C14.2756 81.6993 15.0203 82.571 15.6161 83.2513C16.1906 83.9315 17.1694 85.037 17.7651 85.6748C18.8503 86.8015 19.2971 87.3118 20.2759 88.4598C20.5525 88.7787 21.2121 89.3739 21.7654 89.7991C23.2123 90.9046 23.7655 90.8408 27.1061 89.2038ZM128.388 88.9487C131.325 88.396 132.346 88.1196 134.665 87.2267C136.155 86.674 136.474 86.6315 139.24 86.6527C141.964 86.6527 142.347 86.7165 143.687 87.248C144.496 87.5669 145.198 87.7582 145.262 87.6944C145.325 87.6307 145.262 87.5881 145.134 87.5881C144.985 87.5881 144.879 87.5031 144.879 87.3755C144.879 87.2693 144.453 86.7378 143.921 86.2063C143.027 85.2921 141.517 83.145 140.772 81.7418C138.41 77.3412 137.24 71.6437 136.58 61.4393C136.474 59.7385 136.261 57.1661 136.112 55.6993C135.75 52.0852 135.75 25.83 136.133 21.3656C137.027 10.5233 137.41 7.75963 138.368 5.48489C138.559 5.03844 138.708 4.63452 138.708 4.57074C138.708 4.29437 137.793 4.50696 136.665 5.08096C135.325 5.71874 132.835 6.90926 129.027 8.7163C121.792 12.139 122.111 11.7989 121.452 16.4759C121.345 17.305 121.154 18.368 121.047 18.8782C120.92 19.3672 120.728 20.9404 120.622 22.386C120.494 23.8104 120.324 25.5961 120.196 26.3615C119.452 31.4424 119.175 53.7859 119.728 63.4589C119.856 66.0313 120.026 69.0926 120.09 70.2618C120.133 71.4311 120.281 72.7279 120.409 73.1318C120.516 73.5358 120.622 74.4074 120.622 75.0664C120.622 75.7255 120.771 76.7247 120.941 77.2987C121.111 77.8727 121.26 78.6805 121.26 79.0844C121.26 80.5938 122.643 84.0378 125.069 88.6086C125.452 89.3527 125.75 89.544 126.261 89.3952C126.495 89.3314 127.452 89.1188 128.388 88.9487ZM209.286 50.3419C209.18 49.5553 208.925 48.79 208.031 46.6641C206.627 43.2838 206.222 42.7311 205.201 42.7311C204.393 42.7311 203.712 43.3901 203.541 44.3893C203.414 45.0484 203.52 45.1972 205.861 47.5782C207.223 48.9388 208.478 50.2781 208.648 50.5545C209.116 51.2348 209.414 51.1285 209.286 50.3419ZM115.579 39.1383C116.068 38.9257 116.834 38.5856 117.281 38.4155C117.877 38.1604 118.069 37.9478 118.069 37.5651C118.069 37.0336 118.218 37.1187 114.409 35.4817C112.707 34.7376 109.834 33.4196 109.536 33.2495C109.345 33.1432 106.472 35.5667 103.706 38.1391C101.131 40.5627 100.514 41.1154 99.8761 41.5406C99.4718 41.8382 99.4484 41.8573 100.104 42.7481C100.429 43.2179 100.748 43.6623 100.834 43.7728C100.989 43.9748 101.472 44.687 101.663 44.6019C101.727 44.5594 102.089 44.3893 102.429 44.2405C103.77 43.624 104.357 43.4199 104.578 43.3689C104.704 43.3412 107.515 42.3272 108.6 41.8807C108.834 41.7744 109.557 41.4768 110.196 41.2217M146.857 4.74081C146.772 3.9117 145.496 2.08341 144.815 1.80704C143.793 1.38185 142.112 1.99837 142.112 2.80622C142.112 2.91252 142.708 3.25267 143.453 3.59281C144.176 3.93296 145.113 4.46444 145.517 4.76207C146.389 5.39985 146.921 5.37859 146.857 4.74081Z" fill="rgb(0,0,0)" fill-rule="nonzero" transform="matrix(1,0,0,-1,13.0269,230.048)" />
			<path id="矢量 404" d="M17.6664 53.6926C17.2834 53.0973 17.1131 52.7359 15.4747 49.4407C13.6449 45.7629 12.8789 44.1046 12.7086 43.4456C12.6448 43.148 12.4959 42.8291 12.3895 42.7653C12.2831 42.7015 12.198 42.5102 12.198 42.3189C12.198 42.1488 12.0703 41.7024 11.9001 41.3409C11.7299 40.9583 11.3894 40.0867 11.1341 39.3851C10.8575 38.6835 10.517 37.8119 10.3681 37.4292C10.1979 37.0678 10.0702 36.6214 10.0702 36.4301C10.0702 36.2387 9.98507 35.9198 9.87868 35.7072C9.7723 35.5159 9.36802 34.3466 9.0063 33.1136C8.6233 31.8806 8.19774 30.5412 8.0488 30.1373C7.55941 28.8192 6.45296 25.2902 6.45296 25.0351C6.45296 24.8863 6.3253 24.4824 6.15507 24.1209C5.98485 23.7383 5.7508 23.058 5.64441 22.5903C5.51674 22.1226 5.26141 21.2084 5.06991 20.5707C4.87841 19.9329 4.62308 18.9975 4.53796 18.5085C4.43157 18.0195 4.26135 17.4455 4.15496 17.233C3.81452 16.5952 2.02719 10.2174 1.26119 6.96473C0.75052 4.83881 0.431353 3.66955 0.261131 3.24436C0.154742 3.01051 0.0483529 2.20266 0.00579736 1.45858C-0.0793137 -0.943712 0.793075 -0.242156 1.36758 2.56407C1.49524 3.15932 1.68674 3.86088 1.79313 4.09473C1.96335 4.49866 2.19741 5.39155 2.60169 7.17732C2.70807 7.58125 2.92085 8.41036 3.11235 8.98436C3.28257 9.57962 3.60174 10.6213 3.79324 11.3229C4.36774 13.3425 4.49541 13.789 4.96352 15.2133C5.19757 15.9361 5.38907 16.7227 5.38907 16.9353C5.38907 17.1692 5.49546 17.4243 5.60185 17.4881C5.72952 17.5518 5.81463 17.8069 5.81463 18.0195C5.81463 18.2534 5.9423 18.8487 6.11252 19.3376C6.28274 19.8478 6.55935 20.8258 6.77213 21.5273C6.96363 22.2289 7.26152 23.1855 7.41046 23.6532C7.55941 24.1209 8.0488 25.6516 8.47435 27.0547C8.89991 28.4578 9.34674 29.7972 9.43185 30.031C9.79357 30.8814 10.8787 34.3041 11.0277 35.0269C11.1128 35.4309 11.3256 36.0474 11.4745 36.4088C11.6235 36.7489 12.198 38.3009 12.7512 39.8103C13.3044 41.3409 13.8364 42.659 13.9427 42.7653C14.0279 42.8929 14.113 43.1055 14.113 43.2755C14.113 43.6582 14.6662 44.8912 16.9216 49.462C18.3898 52.3958 18.8153 53.4375 18.6451 53.6926C18.326 54.2241 17.9855 54.2241 17.6664 53.6926Z" fill="rgb(0,0,0)" fill-rule="nonzero" transform="matrix(1,0,0,-1,206.349,70.1279)" />
			<path id="矢量 405" d="M4.04278 17.0945C3.87256 16.9882 3.2555 16.8819 2.65972 16.8819C1.44689 16.8819 0 16.5417 0 16.2441C0 16.1378 0.148944 15.9252 0.319167 15.7339C0.5745 15.4788 0.766 15.4575 1.29794 15.6489C2.59589 16.0953 10.4474 15.6063 15.6392 14.756C17.1712 14.5009 18.8947 14.2245 19.4692 14.1395C20.0649 14.0332 20.9586 13.8631 21.4906 13.7355C22.0225 13.5867 23.2141 13.3316 24.1503 13.1403C25.0865 12.9489 26.81 12.5663 27.9803 12.2686C29.1506 11.9923 30.4911 11.6734 30.9804 11.5671C31.4486 11.4608 32.0656 11.2907 32.3635 11.1844C32.6401 11.0569 33.4912 10.8018 34.2572 10.6104C35.0232 10.3978 36.4488 9.97264 37.4489 9.65375C38.4489 9.31361 39.5767 8.99472 39.9384 8.90968C40.3214 8.82464 40.6831 8.67583 40.7469 8.56953C40.8321 8.46323 41.1087 8.3782 41.3853 8.3782C41.6619 8.3782 42.2151 8.25064 42.5981 8.08057C43.4918 7.71916 44.5344 7.35775 45.7472 6.99635C46.2792 6.84753 47.3856 6.46487 48.1942 6.16724C51.088 5.12553 53.1093 4.38146 54.2583 3.91376C54.8967 3.65865 56.1521 3.23346 57.0244 2.95709C60.3438 1.89413 60.7481 1.74531 61.1098 1.55398C61.4715 1.36265 62.429 1.10754 64.2589 0.70361C64.7908 0.576055 65.5143 0.342203 65.876 0.193389C66.5994 -0.146759 67.4506 -0.0192039 67.4506 0.42724C67.4506 0.597314 67.2803 0.788647 67.0888 0.852425C66.8761 0.937462 66.4292 1.10754 66.0675 1.25635C65.7271 1.40517 64.8972 1.7028 64.2589 1.89413C63.6206 2.08546 62.7907 2.38309 62.4077 2.55316C62.046 2.72324 61.6417 2.85079 61.5141 2.85079C61.3864 2.85079 61.1098 2.93583 60.897 3.04213C60.0885 3.44605 58.982 3.8925 57.9819 4.23265C57.4074 4.44524 56.6414 4.72161 56.2797 4.87042C55.9393 5.01924 55.0669 5.33813 54.3647 5.59324C53.6626 5.82709 52.5561 6.20976 51.9178 6.46487C51.2794 6.71998 50.3645 7.06013 49.8964 7.2302C48.6836 7.67664 43.7684 9.35612 42.13 9.8876C41.364 10.1427 40.0235 10.5892 39.1511 10.8655C38.2787 11.1632 37.2148 11.482 36.8106 11.5671C36.4063 11.6521 35.7892 11.8435 35.4275 11.9498C35.0871 12.0773 34.2147 12.3324 33.5125 12.5238C32.8103 12.7151 31.8103 13.0127 31.2783 13.1828C30.7464 13.3529 30.1081 13.4804 29.8314 13.4804C29.5548 13.4804 29.1506 13.5867 28.9165 13.693C28.7037 13.8206 27.959 14.0119 27.2994 14.1395C26.6185 14.267 25.7887 14.4371 25.4269 14.5434C24.512 14.7985 21.9374 15.3087 19.5756 15.7126C18.4691 15.904 16.7882 16.2016 15.8519 16.3504C14.9157 16.5205 12.4688 16.7543 10.4261 16.8819C8.38345 17.0095 6.17056 17.137 5.53222 17.2008C4.89389 17.2646 4.213 17.222 4.04278 17.0945Z" fill="rgb(0,0,0)" fill-rule="nonzero" transform="matrix(1,0,0,-1,135.777,75.793)" />
		</g>
	</g>
</svg>
