<svg viewBox="0 0 70 70" xmlns="http://www.w3.org/2000/svg" xmlns:xlink="http://www.w3.org/1999/xlink" width="70.000000" height="70.000000" fill="none" customFrame="#000000">
	<rect id="点按-未选中" width="70.000000" height="70.000000" x="0.000000" y="0.000000" />
	<circle id="椭圆 8" cx="35" cy="35" r="35" fill="rgb(242,244,246)" />
	<g id="组合 71">
		<path id="矢量 335" d="M4.26132 7.137C1.18269 6.58041 -0.702759 3.43916 0.246922 0.444015C0.431292 -0.140404 1.47838 -0.15084 1.66275 0.4301C1.6871 0.506631 1.65579 0.948424 1.58969 1.41457C1.13747 4.57669 4.08391 6.65347 7.03036 5.25156C7.8061 4.88282 7.96612 4.87238 8.27921 5.18546C9.33325 6.2395 6.61292 7.5614 4.26132 7.137Z" fill="rgb(1,89,188)" fill-rule="nonzero" transform="matrix(1,0,0,-1,24,28.2185)" />
		<path id="矢量 336" d="M1.58998 23.8156C0.626386 23.5373 -0.0971807 22.4624 0.0106586 21.464C0.0350094 21.2483 0.348091 20.2326 0.72031 19.1646C1.08905 18.114 1.54128 16.813 1.72913 16.2773C1.9135 15.7416 2.36225 14.4753 2.72403 13.4596C3.08582 12.4473 3.37455 11.6089 3.36411 11.5985C3.35715 11.588 3.09973 11.5185 2.79709 11.4419C1.00904 10.9932 0.135891 10.0991 0.212422 8.79812C0.254166 8.05716 0.386356 7.838 2.00394 5.83776C4.59209 2.63041 5.05823 2.23384 8.23775 0.497977C9.39615 -0.135144 9.76141 -0.156016 10.0432 0.386659C10.3145 0.908462 10.1232 1.23546 9.29527 1.66334C6.52624 3.09655 5.58351 3.82012 4.11899 5.63252C3.75024 6.0917 3.14495 6.83962 2.77621 7.29185C1.52737 8.83291 1.47866 9.01032 2.09787 9.67823C2.8597 10.5027 3.83721 10.5096 4.04593 9.68866C4.15377 9.26079 4.94343 7.89018 5.20086 7.68842C5.51394 7.44143 5.58351 7.431 5.87572 7.61189C6.2375 7.83105 6.23055 8.0189 5.82702 9.15295C4.6721 12.4125 4.24422 13.63 3.60762 15.4424C3.22148 16.5521 2.85274 17.5853 2.79361 17.7383C2.73447 17.8914 2.5014 18.5489 2.27876 19.1994C2.05613 19.8499 1.7987 20.5874 1.70478 20.8344C1.41953 21.5753 1.43344 21.878 1.75348 22.198C2.11526 22.5598 2.68229 22.5111 2.92928 22.0902C3.0719 21.8536 5.25999 16.1938 6.12271 13.8422C6.55059 12.6664 7.02369 12.3464 7.56636 12.8647C7.89336 13.1778 7.89336 13.3865 7.57332 14.2388C7.22545 15.1537 7.22545 15.2198 7.56288 15.5537C8.03598 16.0268 8.96131 15.7903 8.96131 15.1954C8.96131 14.2666 10.2589 14.1275 10.8085 14.9971C11.2294 15.6616 11.8138 15.6477 12.5131 14.9519C13.1114 14.3571 13.5393 14.2631 14.0576 14.6145C14.8542 15.1502 15.1395 14.931 15.7865 13.2821C17.9955 7.65711 17.832 8.23805 17.8354 6.01517C17.8389 3.90709 17.9015 3.71924 18.5694 3.71924C19.2304 3.71924 19.3382 4.04624 19.3487 6.07083C19.3626 8.21718 19.3487 8.27632 18.1172 11.4071C17.7241 12.402 17.2858 13.5291 17.1432 13.9118C16.9971 14.2944 16.7849 14.8023 16.6736 15.0389C16.1552 16.1312 14.9133 16.5939 13.7897 16.1103L13.4314 15.9538L13.0592 16.326C12.3287 17.053 11.1668 17.1504 10.2693 16.5556L9.99448 16.3712L9.73358 16.653C9.10046 17.3383 7.99424 17.5018 7.11065 17.0426C6.54363 16.7469 6.63755 16.646 6.08096 18.121C4.68253 21.8467 4.25117 22.859 3.94157 23.1825C3.34324 23.8017 2.41443 24.0522 1.58998 23.8156Z" fill="rgb(1,89,188)" fill-rule="nonzero" transform="matrix(1,0,0,-1,27,48.2185)" />
	</g>
</svg>
