<svg viewBox="0 0 70 70" xmlns="http://www.w3.org/2000/svg" xmlns:xlink="http://www.w3.org/1999/xlink" width="70.000000" height="70.000000" fill="none" customFrame="#000000">
	<rect id="蝴蝶-选中" width="70.000000" height="70.000000" x="0.000000" y="0.000000" />
	<circle id="椭圆 8" cx="35" cy="35" r="35" fill="rgb(1,89,188)" />
	<g id="图层_x0020_1">
		<path id="矢量 332" d="M14.0824 26.9512C13.1876 26.6801 12.3826 26.0397 11.537 24.9264C11.314 24.6351 11.0563 24.2659 11.0563 24.2428C11.0563 24.2342 10.9984 24.139 10.926 24.0294C10.8536 23.9198 10.7957 23.8246 10.7957 23.8159C10.7957 23.8073 10.7349 23.7006 10.6625 23.5766C10.5901 23.4525 10.4134 23.1122 10.2686 22.818C10.0196 22.3046 9.97617 22.2123 9.8864 22.0046C9.86324 21.9527 9.82559 21.8633 9.80243 21.8085C9.63158 21.4191 9.52443 21.1249 9.28698 20.4096C9.07849 19.7722 9.01768 19.5703 8.92791 19.2126C8.90184 19.1088 8.8613 18.9674 8.83814 18.8953C8.81497 18.8232 8.7976 18.7396 8.7976 18.7107C8.7976 18.679 8.78022 18.5896 8.75706 18.5088C8.73389 18.4281 8.69335 18.2579 8.66729 18.131C8.63833 18.0041 8.60068 17.8224 8.57752 17.7272C8.53698 17.5426 8.48196 17.2397 8.40667 16.7754C8.38061 16.6167 8.34007 16.3831 8.3169 16.2562C8.29373 16.1293 8.27636 15.9793 8.27636 15.9245C8.27636 15.8697 8.25609 15.7226 8.23292 15.5986C8.20976 15.4745 8.18949 15.3044 8.18949 15.2236C8.18949 15.14 8.16922 14.9236 8.14605 14.7419C8.12578 14.5602 8.09103 14.1824 8.07366 13.9055C8.05918 13.6286 8.03312 13.3921 8.01574 13.3748C8.00126 13.3603 7.93755 13.3748 7.85068 13.4151C7.6306 13.5161 7.44238 13.5651 7.17597 13.5795C7.03987 13.5882 6.91245 13.6084 6.89218 13.6228C6.82268 13.6834 6.28697 14.4131 6.1277 14.6727C5.7831 15.2294 5.42403 15.9735 5.32268 16.3427C5.31109 16.3917 5.26476 16.559 5.21843 16.7177C5.14314 16.9917 5.13735 17.0407 5.13445 17.6407C5.13156 18.2406 5.12866 18.281 5.06785 18.3761C4.99256 18.5002 4.89121 18.5781 4.71457 18.6473C4.4829 18.7396 4.20781 18.6444 4.03117 18.4136C3.95588 18.3156 3.93271 18.2521 3.91533 18.0964C3.8719 17.6926 3.9414 16.9311 4.06302 16.4869C4.15858 16.1293 4.30047 15.7197 4.34101 15.6822C4.35549 15.6649 4.36707 15.6361 4.36707 15.613C4.36707 15.5582 4.60742 15.0707 4.7609 14.8111C4.8304 14.6929 4.88831 14.5862 4.89121 14.5746C4.89121 14.5631 4.9636 14.4564 5.04758 14.3381C5.13445 14.2199 5.26476 14.0353 5.34005 13.9257C5.41245 13.8189 5.48774 13.7151 5.50801 13.6949C5.52538 13.6776 5.60936 13.5738 5.69334 13.4699L5.84392 13.2767L5.77152 13.2305C5.67307 13.1642 5.62673 13.1729 5.56592 13.2652C5.53986 13.3084 5.45588 13.4007 5.38349 13.4699C5.21553 13.6286 4.63059 14.0699 4.43947 14.1824C4.36128 14.2285 4.27441 14.2804 4.24545 14.2949C3.84584 14.5285 3.20008 14.8111 2.78888 14.9294C2.69332 14.9582 2.56301 14.9957 2.49931 15.0159C2.1605 15.1227 1.59293 15.2063 1.10355 15.2236C0.761845 15.238 0.666285 15.2294 0.524392 15.1861C0.127672 15.065 -0.0344904 14.8429 0.00605029 14.4852C0.0292164 14.2891 0.168213 14.1103 0.373813 14.0064C0.509914 13.9372 0.527288 13.9343 0.926904 13.9516C1.51185 13.9747 1.93463 13.9228 2.48483 13.7584C2.7744 13.669 2.81205 13.6574 3.21746 13.4873C3.5968 13.3315 3.99931 13.1123 4.38155 12.8556C4.5582 12.7373 4.94044 12.4258 4.95781 12.3854C4.9665 12.3653 4.94044 12.2816 4.8999 12.2037C4.76669 11.9413 4.71457 11.6874 4.71457 11.3183C4.71457 10.9462 4.758 10.7356 4.90279 10.4299C5.01283 10.1963 5.26187 9.87322 5.46167 9.70016C5.63542 9.55017 5.96554 9.34827 6.03214 9.34827C6.05531 9.34827 6.07847 9.33673 6.08716 9.32231C6.11322 9.28193 6.4694 9.18098 6.71554 9.14349C6.83427 9.12618 6.95879 9.10599 6.99353 9.10022C7.03697 9.09157 7.06882 9.0483 7.10357 8.95312C7.3584 8.22916 7.83041 7.66672 8.47906 7.3206C8.64412 7.23119 8.67018 7.19658 8.88157 6.7697C9.65185 5.23237 10.5988 3.99212 11.5659 3.2595C12.0524 2.8932 12.4781 2.6711 12.8893 2.57304C13.4772 2.43459 14.0534 2.7461 14.2214 3.29411C14.2474 3.38353 14.2706 3.48736 14.2706 3.53063C14.2706 3.57101 14.2822 3.61427 14.2996 3.62292C14.314 3.63158 14.4791 3.52486 14.6673 3.38353C14.8555 3.2422 15.0814 3.08068 15.1683 3.02587C15.3652 2.89896 15.8604 2.599 15.8777 2.599C15.8835 2.599 15.9878 2.54131 16.1065 2.4692C16.2281 2.39709 16.3324 2.33941 16.3382 2.33941C16.344 2.33941 16.4974 2.27019 16.677 2.18366C16.8594 2.09713 17.065 2.00483 17.1374 1.97887C17.4473 1.8635 17.8295 1.73947 17.9917 1.69621C18.0872 1.67313 18.2204 1.63564 18.2899 1.61833C19.0081 1.43085 19.8913 1.42797 20.6123 1.60679C21.2639 1.7712 21.7272 1.98175 22.1934 2.33076C22.3063 2.4144 22.4077 2.48362 22.4222 2.48362C22.4338 2.48362 22.5959 2.33652 22.7813 2.1577C23.5399 1.4222 23.789 1.21453 24.3768 0.833801C24.9357 0.473263 25.0805 0.395386 25.5641 0.196369C26.0969 -0.0199535 26.3865 -0.0516809 26.6703 0.0723443C26.9801 0.207907 27.1278 0.429998 27.1278 0.75304C27.1278 1.17703 26.9164 1.37605 26.317 1.51738C25.8681 1.62122 25.4946 1.77697 25.0428 2.04809C24.5013 2.37114 23.6268 3.12106 23.4038 3.45563C23.2735 3.65177 23.2764 3.75272 23.4183 4.03538C23.4791 4.15652 23.5573 4.32381 23.5892 4.40169C23.6413 4.53437 23.6645 4.60359 23.7803 5.00739C23.8643 5.29871 23.8961 5.80058 23.8556 6.16977C23.7774 6.89373 23.5892 7.37829 23.1606 7.94938C22.845 8.37049 22.5293 8.67334 22.1326 8.93005C21.9038 9.07715 21.3044 9.38288 21.1423 9.4348C20.9453 9.49826 20.8295 9.54729 20.8208 9.57325C20.8179 9.58767 20.8672 9.62228 20.9366 9.64536C21.0061 9.66843 21.1075 9.70304 21.1625 9.72323C21.2175 9.74054 21.3044 9.7665 21.3507 9.78092C21.4 9.79245 21.4695 9.81553 21.51 9.83284C21.5506 9.84726 21.6403 9.88475 21.7127 9.91071C22.3411 10.1588 22.6828 10.3549 23.2851 10.8308C23.844 11.2663 24.3797 12.0278 24.5593 12.6364C24.5824 12.7229 24.6259 12.8729 24.6548 12.9681C24.7301 13.2305 24.7214 14.0122 24.6432 14.315C24.5477 14.6698 24.4 15.0102 24.206 15.3188C24.151 15.4082 23.9077 15.7312 23.8816 15.7514C23.844 15.7803 23.7977 15.8956 23.7977 15.9591C23.7977 16.0456 23.8874 16.2129 24.0438 16.4148C24.1452 16.5504 24.3073 16.7927 24.4203 16.9859C24.4376 17.0119 24.484 17.0869 24.5245 17.1503C24.565 17.2138 24.6432 17.3436 24.6954 17.4387C24.7504 17.5339 24.8228 17.6637 24.8575 17.7272C25.0515 18.0675 25.4946 18.9992 25.5641 19.2126C25.5786 19.253 25.6162 19.3568 25.651 19.4433C25.8102 19.8616 25.9608 20.3865 26.039 20.799C26.0622 20.9345 26.0969 21.122 26.1172 21.2172C26.178 21.5373 26.1867 22.2671 26.1317 22.5786C25.9753 23.4843 25.6654 24.0438 25.0747 24.488C24.7533 24.7274 24.4666 24.8572 24.0091 24.9668C23.7253 25.0331 22.8189 25.036 22.4482 24.9668C21.7822 24.8485 21.6345 24.811 21.0177 24.6091C20.4154 24.413 20.3141 24.3755 20.2822 24.3438C20.2648 24.3294 20.2359 24.3178 20.2185 24.3178C20.1606 24.3178 19.3585 23.94 19.0197 23.7525C18.9154 23.6948 18.7503 23.6054 18.6519 23.5506C18.3884 23.4064 17.9656 23.1497 17.6934 22.9708C17.3806 22.7603 17.3835 22.7574 17.2706 23.3083C17.1577 23.8679 17.1287 23.9977 17.0911 24.1736C16.8594 25.1946 16.5293 25.9128 16.0747 26.383C15.8806 26.582 15.6432 26.7666 15.5158 26.8156C15.4926 26.8243 15.4492 26.8445 15.4202 26.8589C15.3913 26.8762 15.287 26.9137 15.1886 26.9425C14.9598 27.0146 14.3082 27.0204 14.0824 26.9512ZM23.8672 23.6544C24.1394 23.5564 24.2465 23.4929 24.4174 23.3227C24.678 23.0689 24.8112 22.7141 24.8575 22.1604C24.8981 21.6671 24.704 20.6634 24.4347 19.9625C24.4 19.876 24.3623 19.7722 24.3479 19.7318C24.2668 19.4808 23.8411 18.5896 23.6471 18.2608C23.4473 17.9175 23.1896 17.5022 23.0882 17.3522C22.5438 16.559 22.4801 16.4437 22.4222 16.1495C22.3729 15.913 22.4077 15.6332 22.5062 15.4197C22.5728 15.2842 22.6365 15.1948 22.9984 14.7419C23.288 14.3785 23.3923 14.093 23.3923 13.6603C23.3923 13.1959 23.2214 12.7143 22.9174 12.3249C22.7755 12.1432 22.4598 11.8317 22.2745 11.6903C22.0776 11.5403 21.5969 11.2692 21.3507 11.1683C21.2233 11.1164 21.0814 11.0587 21.0322 11.0385C20.899 10.9837 20.1287 10.7443 19.9173 10.6895C19.8131 10.6635 19.6625 10.6231 19.5814 10.6001C19.5003 10.577 19.4106 10.5597 19.3787 10.5597C19.3498 10.5597 19.2397 10.5424 19.1355 10.5164C18.7822 10.4385 18.2204 10.3405 17.8758 10.3001C17.6413 10.2712 17.288 10.2193 17.0071 10.1674C16.8797 10.1443 16.7233 10.127 16.6596 10.127C16.5959 10.127 16.4859 10.1126 16.4135 10.0953C16.3411 10.078 16.1789 10.052 16.0515 10.0405C15.8082 10.0145 15.5592 9.97705 15.1972 9.91071C14.7629 9.83284 14.6007 9.80399 14.4588 9.78092C14.2996 9.75784 14.0824 9.71169 13.8304 9.64824C13.7378 9.62516 13.6306 9.60786 13.5872 9.60786C13.5467 9.60786 13.4916 9.59632 13.4627 9.57902C13.4337 9.56459 13.3382 9.54152 13.2542 9.5271C12.9154 9.46941 12.1046 9.24732 11.8034 9.13195C11.7687 9.11753 11.6963 9.1954 11.4965 9.45499C11.3546 9.64247 11.2098 9.82707 11.175 9.86745C11.1403 9.90783 11.0389 10.0232 10.9492 10.127C10.8594 10.2309 10.619 10.4789 10.4134 10.6779C10.2107 10.877 10.0428 11.0558 10.0428 11.076C10.0428 11.0962 10.0746 11.1798 10.1123 11.2606C10.2513 11.5548 10.4134 11.9038 10.4771 12.0451C10.758 12.6652 11.2909 13.7295 11.5775 14.2372C11.6123 14.3006 11.7021 14.4564 11.7773 14.5833C11.8497 14.7102 11.925 14.8371 11.9395 14.8631C12.4463 15.7485 13.3845 17.1099 14.0129 17.8714C14.6152 18.6011 15.6635 19.6943 16.2397 20.199C16.3584 20.3029 16.4916 20.4211 16.5322 20.4557C16.5727 20.4932 16.6972 20.5971 16.8044 20.6836C16.9115 20.7701 17.0216 20.8624 17.0476 20.8884C17.2272 21.0643 18.426 21.8892 18.9762 22.218C19.7088 22.6536 20.4733 23.0343 20.9309 23.1929C20.9714 23.2074 21.0756 23.2449 21.1625 23.2795C21.5824 23.441 22.1123 23.5996 22.4511 23.666C22.7726 23.7323 22.8623 23.7381 23.3054 23.7237C23.6094 23.7179 23.734 23.7006 23.8672 23.6544ZM18.6142 8.78583C19.0168 8.7368 19.3642 8.67334 19.5872 8.60989C19.6683 8.58681 19.7523 8.56951 19.7754 8.56951C19.8392 8.56951 20.5978 8.31857 20.7224 8.25512C20.9424 8.14552 21.0148 8.10513 21.1046 8.05322C21.1596 8.02149 21.2262 7.98399 21.2494 7.97246C21.3623 7.92054 21.7475 7.60327 21.9299 7.4129C22.4975 6.81585 22.6944 6.0169 22.4772 5.20929C22.4222 5.00162 22.373 4.8776 22.2426 4.58917C22.0312 4.13345 22.0081 4.08153 21.9589 3.96327C21.8025 3.58543 21.0814 3.10375 20.3807 2.90762C19.9405 2.78359 19.4395 2.74321 19.092 2.80378C18.9965 2.8182 18.8401 2.84416 18.7446 2.85858C18.649 2.87301 18.481 2.91339 18.3681 2.94511C18.2581 2.97972 18.1278 3.01722 18.0785 3.03164C18.0322 3.04318 17.9193 3.08356 17.8324 3.11817C17.7455 3.15278 17.6413 3.19028 17.6007 3.20182C17.3835 3.27104 16.6451 3.64023 16.286 3.85655C16.1326 3.94885 15.9849 4.04115 15.9559 4.05557C15.7706 4.16517 15.2378 4.53725 14.8961 4.79972C14.6702 4.9699 14.3662 5.20352 14.2185 5.31601C13.9492 5.5208 13.9463 5.52368 13.7899 5.84096C13.4916 6.45243 13.1297 7.04948 12.6461 7.72729C12.4694 7.97534 12.4578 8.02437 12.5766 8.05322C12.6258 8.06187 12.7677 8.10225 12.8951 8.13686C13.0225 8.17436 13.1789 8.21185 13.2426 8.22339C13.3063 8.23493 13.4106 8.258 13.4743 8.27531C14.0708 8.43395 15.4376 8.65892 16.5293 8.78295C17.0389 8.83775 18.1625 8.84063 18.6142 8.78583Z" fill="rgb(255,255,255)" fill-rule="nonzero" transform="matrix(1,0,0,-1,21,48)" />
	</g>
</svg>
