<svg viewBox="0 0 70 70" xmlns="http://www.w3.org/2000/svg" xmlns:xlink="http://www.w3.org/1999/xlink" width="70.000000" height="70.000000" fill="none" customFrame="#000000">
	<rect id="拍打-选中" width="70.000000" height="70.000000" x="0.000000" y="0.000000" />
	<circle id="椭圆 8" cx="35" cy="35" r="35" fill="rgb(1,89,188)" />
	<g id="组合 26">
		<path id="矢量 333" d="M16.5574 11.7679C16.4209 11.7527 16.2413 11.7224 16.1623 11.6997C16.0833 11.6808 15.8965 11.6353 15.7492 11.6013C15.602 11.571 15.3829 11.518 15.2644 11.4877C14.4706 11.2832 14.2407 11.2301 14.115 11.2036C13.8636 11.1544 12.998 10.9499 12.4341 10.806C12.1396 10.7303 11.4141 10.5636 11.098 10.4993C10.9615 10.4728 10.6921 10.4122 10.5054 10.3705C10.3186 10.3251 10.0025 10.2569 9.80498 10.2152C9.60744 10.1774 9.37757 10.1244 9.29137 10.1054C9.20876 10.0827 9.1046 10.0676 9.0615 10.0676C9.0184 10.0676 8.88551 10.0448 8.76698 10.0145C8.24618 9.88957 7.6751 9.82519 7.02141 9.82519C6.10194 9.82141 5.91876 9.87821 4.36356 10.6242C4.25581 10.6773 4.10136 10.7492 4.02235 10.7871C3.51232 11.0294 3.01308 11.2907 2.93765 11.3551C2.873 11.4081 2.79039 11.4309 2.67187 11.4309C2.44559 11.4309 2.3091 11.3135 2.2265 11.0446C2.17262 10.8704 2.10797 10.681 1.86014 10.0108C1.83141 9.92744 1.7919 9.82898 1.77394 9.7949C1.75598 9.75703 1.74162 9.7078 1.74162 9.68886C1.74162 9.66614 1.71288 9.57526 1.67337 9.48816C1.63746 9.40106 1.56203 9.20035 1.50816 9.04509C1.45428 8.88982 1.37885 8.68911 1.34294 8.60202C1.30343 8.51492 1.2747 8.42782 1.2747 8.40888C1.2747 8.38995 1.24955 8.32178 1.22082 8.26498C1.19209 8.20439 1.16694 8.12865 1.16694 8.09457C1.16694 8.06427 1.15258 8.02261 1.13821 7.99989C1.12025 7.98096 1.05201 7.81433 0.987359 7.62499C0.822141 7.14405 0.631781 6.62524 0.570722 6.48133C0.541989 6.41696 0.520439 6.34122 0.520439 6.31092C0.520439 6.28063 0.506072 6.24276 0.491705 6.22004C0.473747 6.2011 0.423463 6.07613 0.376771 5.9398C0.33367 5.80347 0.276203 5.64442 0.251061 5.58004C-0.021908 4.89082 -0.0686001 4.53485 0.0930264 4.37201C0.161269 4.30006 2.42763 3.25108 2.51024 3.25108C2.52461 3.25108 2.77603 3.12611 3.07054 2.97085C3.58416 2.70198 4.03312 2.41038 4.81252 1.83477C5.45902 1.35761 5.81101 1.13419 6.35695 0.850166C7.29079 0.365439 7.97681 0.168518 9.13692 0.0511236C9.80139 -0.0170412 10.315 -0.0170412 11.1519 0.0511236C12.2509 0.138223 12.7645 0.251831 13.9462 0.66082C14.7364 0.933479 15.5409 1.1872 15.8067 1.24401C15.9612 1.27809 16.5969 1.39927 17.4733 1.5659C18.5508 1.7666 18.9459 1.84613 19.2332 1.90293C19.4918 1.95974 19.6893 2.00139 20.3287 2.13015C20.8064 2.22861 20.8961 2.25133 21.0757 2.31571C21.2553 2.38387 21.4852 2.52399 21.6504 2.66789C21.7761 2.77771 21.8551 2.7815 22.1066 2.68304C22.2143 2.6376 22.3616 2.58079 22.4298 2.55429C23.0691 2.30056 23.8773 2.00139 23.9132 2.00139C23.9383 2.00139 23.9742 1.98625 23.9958 1.96731C24.0137 1.94838 24.161 1.90293 24.3226 1.86885C24.8686 1.75146 25.3642 1.91051 25.7449 2.31571C25.885 2.4634 25.9748 2.53156 26.0143 2.5202C26.1041 2.48991 26.4166 2.36873 26.8476 2.19074C27.3935 1.96731 27.7204 1.91051 28.0975 1.98246C28.4423 2.04684 28.7907 2.21346 29.0206 2.42553C29.2037 2.59594 29.3833 2.9557 29.4192 3.22836C29.4408 3.39498 29.4552 3.41771 29.6096 3.51238C29.8287 3.64113 30.134 3.97817 30.2382 4.19403C30.4716 4.67497 30.4393 5.26194 30.1591 5.68987C30.0837 5.80726 29.7353 6.09128 29.6671 6.09128C29.6563 6.09128 29.5486 6.15566 29.4264 6.23518C29.3007 6.31471 29.1104 6.4321 29.0026 6.49648C28.7656 6.63281 28.2699 6.94334 26.4741 8.07563C24.9691 9.02615 24.8614 9.09053 24.4124 9.32911C23.9958 9.54496 23.3062 9.80247 22.1066 10.1812C21.8982 10.2455 21.5355 10.3667 21.2984 10.4463C21.0614 10.5258 20.6986 10.6432 20.4903 10.7113C20.282 10.7795 20.0018 10.8742 19.8617 10.9196C19.7253 10.9651 19.4667 11.0522 19.2871 11.109C19.1111 11.1696 18.7555 11.287 18.4969 11.374C17.6097 11.677 17.405 11.7376 17.1787 11.7717C16.9273 11.8133 16.9094 11.8133 16.5574 11.7679ZM17.1141 10.9158C17.3511 10.859 17.4445 10.8287 17.7965 10.7075C18.0192 10.6318 19.1362 10.2607 19.9156 10.0032C20.2029 9.90851 20.6375 9.7646 20.8854 9.68508C21.5678 9.45786 21.7474 9.40106 21.9808 9.32911C22.358 9.2155 23.5217 8.81787 23.6402 8.76107C23.7013 8.73077 23.7659 8.70426 23.7875 8.70426C23.8377 8.70426 24.495 8.33314 24.8901 8.07942C25.0302 7.99232 25.4253 7.74238 25.7701 7.52653C26.1149 7.31067 26.431 7.11375 26.4705 7.08724C26.51 7.06073 26.5674 7.03044 26.5962 7.01529C26.6249 7.00014 26.6896 6.95849 26.7398 6.92062C26.7901 6.88654 27.0451 6.7237 27.3073 6.56086C27.5695 6.39423 27.8533 6.22004 27.9395 6.16702C28.0221 6.114 28.2879 5.95495 28.5285 5.80726C28.7727 5.66336 29.0924 5.45508 29.2433 5.35283C29.4911 5.18242 29.527 5.14455 29.5737 4.9855C29.6204 4.81508 29.6204 4.79994 29.5306 4.6068C29.3654 4.25462 28.9667 4.06148 28.4674 4.09178C28.1729 4.11071 27.354 4.37959 26.7578 4.65225C26.7183 4.67118 26.4848 4.77343 26.237 4.87946C25.9892 4.9855 25.7378 5.0991 25.6731 5.1294C25.612 5.15969 25.551 5.18242 25.5402 5.18242C25.5294 5.18242 25.4361 5.22407 25.3319 5.2733C25.2277 5.32632 25.041 5.40963 24.9188 5.46265C24.7931 5.51945 24.6064 5.60277 24.4986 5.65578C24.3909 5.7088 24.2939 5.75046 24.2831 5.75046C24.2759 5.75046 24.1574 5.80347 24.0209 5.86785C23.6474 6.04205 23.6438 6.04584 23.4894 6.11021C23.2595 6.20867 23.0081 6.26927 22.7171 6.29577C22.1066 6.35258 19.3517 6.73885 19.0285 6.81458C18.716 6.88654 18.2383 6.83352 17.9581 6.6934C17.8324 6.63281 17.0746 6.35258 16.6472 6.21625L16.2341 6.07992L15.2284 6.07992C14.5496 6.08371 14.0576 6.10264 13.7127 6.1443C13.4326 6.17838 13.1058 6.20489 12.9872 6.20489C12.7969 6.20489 12.7609 6.19353 12.6783 6.10264C12.5562 5.96252 12.5526 5.68608 12.6712 5.54596C12.7645 5.42857 12.8507 5.40963 13.7918 5.29224C14.4347 5.21271 14.5819 5.20892 16.3957 5.22029C17.4517 5.22786 18.8525 5.23543 19.5026 5.23543L20.6878 5.23922L20.871 5.13697C21.0757 5.02337 21.2409 4.84538 21.3595 4.60302C21.4241 4.47426 21.4421 4.38337 21.4385 4.14101C21.4385 3.7661 21.3523 3.55025 21.1188 3.33439C20.8854 3.11854 20.6735 3.05037 19.6283 2.86103C19.5241 2.84209 18.8776 2.70955 18.4718 2.62624C17.951 2.5202 17.4302 2.41796 16.701 2.28541C16.3275 2.21725 15.9324 2.13394 15.6235 2.0582C15.1853 1.95216 14.7651 1.84234 14.6933 1.81205C14.6502 1.79311 14.4239 1.71737 14.1869 1.64163C13.9498 1.56211 13.6445 1.45986 13.5044 1.41442C13.3679 1.36519 13.1309 1.28945 12.9836 1.24401C12.8364 1.19856 12.6747 1.14933 12.6245 1.1304C12.5203 1.09253 12.2006 1.03194 11.7265 0.952413C11.5218 0.918331 10.9866 0.888036 10.394 0.876675C9.16207 0.850166 8.61972 0.910757 7.79363 1.15691C7.06092 1.37655 6.16659 1.86506 5.40515 2.45961C4.83048 2.91026 4.05108 3.43285 3.61648 3.66386C3.50514 3.72445 3.15315 3.88729 2.83708 4.0274C2.52101 4.16373 2.23009 4.29249 2.19058 4.31142C2.15107 4.33036 2.06128 4.36823 1.99304 4.39852C1.68056 4.53485 1.20645 4.74313 1.06279 4.8113C0.915525 4.87946 0.908342 4.88704 0.929892 5.012C0.944259 5.08396 0.976584 5.18999 1.00532 5.24679C1.03405 5.3036 1.05919 5.37555 1.05919 5.40206C1.05919 5.42857 1.07356 5.4778 1.09511 5.51567C1.11307 5.54975 1.18849 5.74288 1.25674 5.9398C1.41118 6.36773 1.48301 6.56086 1.54766 6.7237C1.5764 6.78807 1.59795 6.8676 1.59795 6.8979C1.59795 6.93198 1.61232 6.96606 1.63027 6.98121C1.64823 6.99257 1.67697 7.05695 1.69133 7.12133C1.70211 7.18949 1.72725 7.26902 1.74521 7.3031C1.76317 7.33339 1.835 7.52274 1.90324 7.71966C2.05769 8.14758 2.12952 8.34072 2.19417 8.50356C2.2229 8.56793 2.24445 8.64746 2.24445 8.67775C2.24445 8.71184 2.25882 8.74592 2.27678 8.75728C2.29474 8.76864 2.31988 8.82545 2.33065 8.88225C2.34502 8.94284 2.37735 9.0413 2.40608 9.10189C2.43122 9.16627 2.50665 9.3594 2.56771 9.53739C2.63236 9.71537 2.70419 9.91229 2.73293 9.98046C2.76166 10.0448 2.78321 10.1206 2.78321 10.1509C2.78321 10.1812 2.81913 10.2418 2.86582 10.2872L2.94484 10.3667L3.14238 10.2683C5.44107 9.12461 5.91517 8.96177 6.94958 8.95799C7.23692 8.9542 7.632 8.97692 7.82955 9.00343C8.31083 9.06781 9.27341 9.22307 9.60744 9.29124C10.0923 9.38591 10.2001 9.41242 11.08 9.61313C11.2668 9.65857 11.5362 9.71916 11.6727 9.74567C11.9205 9.79869 12.215 9.87064 12.6424 9.97667C12.7609 10.007 12.9298 10.0448 13.0196 10.0676C13.2386 10.113 13.8169 10.2531 14.0611 10.3137C14.1689 10.3402 14.3808 10.3894 14.5281 10.4273C15.0525 10.5523 15.268 10.6053 15.4799 10.6583C15.5984 10.6886 15.9216 10.7644 16.1982 10.8249C16.4748 10.8893 16.719 10.9461 16.737 10.9537C16.8016 10.984 16.877 10.9764 17.1141 10.9158Z" fill="rgb(255,255,255)" fill-rule="nonzero" transform="matrix(1,0,0,-1,20,33.8022)" />
		<path id="矢量 333" d="M16.1623 11.6997C16.0833 11.6808 15.8965 11.6353 15.7492 11.6013C15.602 11.571 15.3829 11.518 15.2644 11.4877C14.4706 11.2832 14.2407 11.2301 14.115 11.2036C13.8636 11.1544 12.998 10.9499 12.4341 10.806C12.1396 10.7303 11.4141 10.5636 11.098 10.4993C10.9615 10.4728 10.6921 10.4122 10.5054 10.3705C10.3186 10.3251 10.0025 10.2569 9.80498 10.2152C9.60744 10.1774 9.37757 10.1244 9.29137 10.1054C9.20876 10.0827 9.1046 10.0676 9.0615 10.0676C9.0184 10.0676 8.88551 10.0448 8.76698 10.0145C8.24618 9.88957 7.6751 9.82519 7.02141 9.82519C6.10194 9.82141 5.91876 9.87821 4.36356 10.6242C4.25581 10.6773 4.10136 10.7492 4.02235 10.7871C3.51232 11.0294 3.01308 11.2907 2.93765 11.3551C2.873 11.4081 2.79039 11.4309 2.67187 11.4309C2.44559 11.4309 2.3091 11.3135 2.2265 11.0446C2.17262 10.8704 2.10797 10.681 1.86014 10.0108C1.83141 9.92744 1.7919 9.82898 1.77394 9.7949C1.75598 9.75703 1.74162 9.7078 1.74162 9.68886C1.74162 9.66614 1.71288 9.57526 1.67337 9.48816C1.63746 9.40106 1.56203 9.20035 1.50816 9.04509C1.45428 8.88982 1.37885 8.68911 1.34294 8.60202C1.30343 8.51492 1.2747 8.42782 1.2747 8.40888C1.2747 8.38995 1.24955 8.32178 1.22082 8.26498C1.19209 8.20439 1.16694 8.12865 1.16694 8.09457C1.16694 8.06427 1.15258 8.02261 1.13821 7.99989C1.12025 7.98096 1.05201 7.81433 0.987359 7.62499C0.822141 7.14405 0.631781 6.62524 0.570722 6.48133C0.541989 6.41696 0.520439 6.34122 0.520439 6.31092C0.520439 6.28063 0.506072 6.24276 0.491705 6.22004C0.473747 6.2011 0.423463 6.07613 0.376771 5.9398C0.33367 5.80347 0.276203 5.64442 0.251061 5.58004C-0.021908 4.89082 -0.0686001 4.53485 0.0930264 4.37201C0.161269 4.30006 2.42763 3.25108 2.51024 3.25108C2.52461 3.25108 2.77603 3.12611 3.07054 2.97085C3.58416 2.70198 4.03312 2.41038 4.81252 1.83477C5.45902 1.35761 5.81101 1.13419 6.35695 0.850166C7.29079 0.365439 7.97681 0.168518 9.13692 0.0511236C9.80139 -0.0170412 10.315 -0.0170412 11.1519 0.0511236C12.2509 0.138223 12.7645 0.251831 13.9462 0.66082C14.7364 0.933479 15.5409 1.1872 15.8067 1.24401C15.9612 1.27809 16.5969 1.39927 17.4733 1.5659C18.5508 1.7666 18.9459 1.84613 19.2332 1.90293C19.4918 1.95974 19.6893 2.00139 20.3287 2.13015C20.8064 2.22861 20.8961 2.25133 21.0757 2.31571C21.2553 2.38387 21.4852 2.52399 21.6504 2.66789C21.7761 2.77771 21.8551 2.7815 22.1066 2.68304C22.2143 2.6376 22.3616 2.58079 22.4298 2.55429C23.0691 2.30056 23.8773 2.00139 23.9132 2.00139C23.9383 2.00139 23.9742 1.98625 23.9958 1.96731C24.0137 1.94838 24.161 1.90293 24.3226 1.86885C24.8686 1.75146 25.3642 1.91051 25.7449 2.31571C25.885 2.4634 25.9748 2.53156 26.0143 2.5202C26.1041 2.48991 26.4166 2.36873 26.8476 2.19074C27.3935 1.96731 27.7204 1.91051 28.0975 1.98246C28.4423 2.04684 28.7907 2.21346 29.0206 2.42553C29.2037 2.59594 29.3833 2.9557 29.4192 3.22836C29.4408 3.39498 29.4552 3.41771 29.6096 3.51238C29.8287 3.64113 30.134 3.97817 30.2382 4.19403C30.4716 4.67497 30.4393 5.26194 30.1591 5.68987C30.0837 5.80726 29.7353 6.09128 29.6671 6.09128C29.6563 6.09128 29.5486 6.15566 29.4264 6.23518C29.3007 6.31471 29.1104 6.4321 29.0026 6.49648C28.7656 6.63281 28.2699 6.94334 26.4741 8.07563C24.9691 9.02615 24.8614 9.09053 24.4124 9.32911C23.9958 9.54496 23.3062 9.80247 22.1066 10.1812C21.8982 10.2455 21.5355 10.3667 21.2984 10.4463C21.0614 10.5258 20.6986 10.6432 20.4903 10.7113C20.282 10.7795 20.0018 10.8742 19.8617 10.9196C19.7253 10.9651 19.4667 11.0522 19.2871 11.109C19.1111 11.1696 18.7555 11.287 18.4969 11.374C17.6097 11.677 17.405 11.7376 17.1787 11.7717C16.9273 11.8133 16.9094 11.8133 16.5574 11.7679C16.4209 11.7527 16.2413 11.7224 16.1623 11.6997ZM17.7965 10.7075C18.0192 10.6318 19.1362 10.2607 19.9156 10.0032C20.2029 9.90851 20.6375 9.7646 20.8854 9.68508C21.5678 9.45786 21.7474 9.40106 21.9808 9.32911C22.358 9.2155 23.5217 8.81787 23.6402 8.76107C23.7013 8.73077 23.7659 8.70426 23.7875 8.70426C23.8377 8.70426 24.495 8.33314 24.8901 8.07942C25.0302 7.99232 25.4253 7.74238 25.7701 7.52653C26.1149 7.31067 26.431 7.11375 26.4705 7.08724C26.51 7.06073 26.5674 7.03044 26.5962 7.01529C26.6249 7.00014 26.6896 6.95849 26.7398 6.92062C26.7901 6.88654 27.0451 6.7237 27.3073 6.56086C27.5695 6.39423 27.8533 6.22004 27.9395 6.16702C28.0221 6.114 28.2879 5.95495 28.5285 5.80726C28.7727 5.66336 29.0924 5.45508 29.2433 5.35283C29.4911 5.18242 29.527 5.14455 29.5737 4.9855C29.6204 4.81508 29.6204 4.79994 29.5306 4.6068C29.3654 4.25462 28.9667 4.06148 28.4674 4.09178C28.1729 4.11071 27.354 4.37959 26.7578 4.65225C26.7183 4.67118 26.4848 4.77343 26.237 4.87946C25.9892 4.9855 25.7378 5.0991 25.6731 5.1294C25.612 5.15969 25.551 5.18242 25.5402 5.18242C25.5294 5.18242 25.4361 5.22407 25.3319 5.2733C25.2277 5.32632 25.041 5.40963 24.9188 5.46265C24.7931 5.51945 24.6064 5.60277 24.4986 5.65578C24.3909 5.7088 24.2939 5.75046 24.2831 5.75046C24.2759 5.75046 24.1574 5.80347 24.0209 5.86785C23.6474 6.04205 23.6438 6.04584 23.4894 6.11021C23.2595 6.20867 23.0081 6.26927 22.7171 6.29577C22.1066 6.35258 19.3517 6.73885 19.0285 6.81458C18.716 6.88654 18.2383 6.83352 17.9581 6.6934C17.8324 6.63281 17.0746 6.35258 16.6472 6.21625L16.2341 6.07992L15.2284 6.07992C14.5496 6.08371 14.0576 6.10264 13.7127 6.1443C13.4326 6.17838 13.1058 6.20489 12.9872 6.20489C12.7969 6.20489 12.7609 6.19353 12.6783 6.10264C12.5562 5.96252 12.5526 5.68608 12.6712 5.54596C12.7645 5.42857 12.8507 5.40963 13.7918 5.29224C14.4347 5.21271 14.5819 5.20892 16.3957 5.22029C17.4517 5.22786 18.8525 5.23543 19.5026 5.23543L20.6878 5.23922L20.871 5.13697C21.0757 5.02337 21.2409 4.84538 21.3595 4.60302C21.4241 4.47426 21.4421 4.38337 21.4385 4.14101C21.4385 3.7661 21.3523 3.55025 21.1188 3.33439C20.8854 3.11854 20.6735 3.05037 19.6283 2.86103C19.5241 2.84209 18.8776 2.70955 18.4718 2.62624C17.951 2.5202 17.4302 2.41796 16.701 2.28541C16.3275 2.21725 15.9324 2.13394 15.6235 2.0582C15.1853 1.95216 14.7651 1.84234 14.6933 1.81205C14.6502 1.79311 14.4239 1.71737 14.1869 1.64163C13.9498 1.56211 13.6445 1.45986 13.5044 1.41442C13.3679 1.36519 13.1309 1.28945 12.9836 1.24401C12.8364 1.19856 12.6747 1.14933 12.6245 1.1304C12.5203 1.09253 12.2006 1.03194 11.7265 0.952413C11.5218 0.918331 10.9866 0.888036 10.394 0.876675C9.16207 0.850166 8.61972 0.910757 7.79363 1.15691C7.06092 1.37655 6.16659 1.86506 5.40515 2.45961C4.83048 2.91026 4.05108 3.43285 3.61648 3.66386C3.50514 3.72445 3.15315 3.88729 2.83708 4.0274C2.52101 4.16373 2.23009 4.29249 2.19058 4.31142C2.15107 4.33036 2.06128 4.36823 1.99304 4.39852C1.68056 4.53485 1.20645 4.74313 1.06279 4.8113C0.915525 4.87946 0.908342 4.88704 0.929892 5.012C0.944259 5.08396 0.976584 5.18999 1.00532 5.24679C1.03405 5.3036 1.05919 5.37555 1.05919 5.40206C1.05919 5.42857 1.07356 5.4778 1.09511 5.51567C1.11307 5.54975 1.18849 5.74288 1.25674 5.9398C1.41118 6.36773 1.48301 6.56086 1.54766 6.7237C1.5764 6.78807 1.59795 6.8676 1.59795 6.8979C1.59795 6.93198 1.61232 6.96606 1.63027 6.98121C1.64823 6.99257 1.67697 7.05695 1.69133 7.12133C1.70211 7.18949 1.72725 7.26902 1.74521 7.3031C1.76317 7.33339 1.835 7.52274 1.90324 7.71966C2.05769 8.14758 2.12952 8.34072 2.19417 8.50356C2.2229 8.56793 2.24445 8.64746 2.24445 8.67775C2.24445 8.71184 2.25882 8.74592 2.27678 8.75728C2.29474 8.76864 2.31988 8.82545 2.33065 8.88225C2.34502 8.94284 2.37735 9.0413 2.40608 9.10189C2.43122 9.16627 2.50665 9.3594 2.56771 9.53739C2.63236 9.71537 2.70419 9.91229 2.73293 9.98046C2.76166 10.0448 2.78321 10.1206 2.78321 10.1509C2.78321 10.1812 2.81913 10.2418 2.86582 10.2872L2.94484 10.3667L3.14238 10.2683C5.44107 9.12461 5.91517 8.96177 6.94958 8.95799C7.23692 8.9542 7.632 8.97692 7.82955 9.00343C8.31083 9.06781 9.27341 9.22307 9.60744 9.29124C10.0923 9.38591 10.2001 9.41242 11.08 9.61313C11.2668 9.65857 11.5362 9.71916 11.6727 9.74567C11.9205 9.79869 12.215 9.87064 12.6424 9.97667C12.7609 10.007 12.9298 10.0448 13.0196 10.0676C13.2386 10.113 13.8169 10.2531 14.0611 10.3137C14.1689 10.3402 14.3808 10.3894 14.5281 10.4273C15.0525 10.5523 15.268 10.6053 15.4799 10.6583C15.5984 10.6886 15.9216 10.7644 16.1982 10.8249C16.4748 10.8893 16.719 10.9461 16.737 10.9537C16.8016 10.984 16.877 10.9764 17.1141 10.9158C17.3511 10.859 17.4445 10.8287 17.7965 10.7075Z" fill-rule="nonzero" stroke="rgb(255,255,255)" stroke-width="0.500000" transform="matrix(1,0,0,-1,20,33.8022)" />
		<path id="矢量 334" d="M19.6866 12.1277C19.4351 12.1088 19.1693 12.0785 19.0939 12.0558C19.0221 12.0368 18.9143 12.0179 18.8569 12.0179C18.7958 12.0179 18.6521 11.9952 18.5336 11.9649C18.4115 11.9346 18.1924 11.8816 18.0451 11.8475C17.8979 11.8096 17.6393 11.7339 17.4705 11.6771C17.3017 11.6203 17.1077 11.5559 17.0395 11.5332C16.9712 11.5105 16.7054 11.4158 16.4468 11.3173C15.4879 10.9538 14.7408 10.7303 14.0584 10.6016C13.4729 10.488 13.3185 10.4615 13.0168 10.4085C12.7294 10.3592 12.4493 10.3062 11.7884 10.1775C11.1168 10.0487 10.9013 10.007 10.6858 9.97296C10.56 9.95024 10.4451 9.92373 10.4271 9.91615C10.4128 9.90479 10.305 9.87828 10.1901 9.85556C9.78783 9.77982 9.43584 9.61699 9.1485 9.37462L8.99765 9.24587L8.66362 9.38598C8.31164 9.52989 7.55379 9.83284 7.34188 9.91615C7.27364 9.94645 7.10483 10.0108 6.96475 10.0638C6.82826 10.1169 6.58762 10.1926 6.43318 10.2267C6.18894 10.2835 6.11711 10.2835 5.87646 10.2418C5.51729 10.1775 5.20841 10.0184 4.97854 9.78361L4.79177 9.59426L4.65888 9.65485C4.58345 9.68515 4.44338 9.74574 4.34281 9.7874C4.24583 9.82905 4.11653 9.88586 4.05547 9.91237C3.99801 9.94266 3.81124 10.0146 3.64243 10.0714C3.37664 10.1661 3.28326 10.1812 2.90613 10.1812C2.42125 10.1812 2.19856 10.1244 1.8789 9.92373C1.63108 9.76468 1.3617 9.41628 1.30064 9.17013C1.25754 8.98457 1.13901 8.83688 1.03485 8.83688C0.966611 8.83688 0.589482 8.62102 0.481731 8.52256C0.316513 8.3673 0.133337 8.09843 0.0650943 7.90908C0.0148105 7.76518 -0.003148 7.62885 0.000443701 7.3524C0.0076271 7.00779 0.0148105 6.96992 0.129745 6.74649C0.284188 6.45111 0.564341 6.22011 1.43353 5.68236C1.47304 5.65585 1.51255 5.62935 1.52332 5.61798C1.54128 5.59526 2.59365 4.90225 2.93486 4.6864C3.03184 4.62581 3.14677 4.55007 3.19346 4.51977C3.68553 4.18652 4.66247 3.54275 5.34848 3.10346C5.87287 2.76642 6.44036 2.47104 6.83904 2.32714C6.96834 2.27791 7.10483 2.22489 7.14433 2.20975C7.21617 2.17566 7.82317 1.96359 10.0716 1.18727C10.754 0.952484 11.7166 0.619234 12.2086 0.445035C13.8572 -0.130579 13.7495 -0.126792 15.3693 0.335214C15.4699 0.361722 15.6315 0.410952 15.7285 0.441248C15.9081 0.498052 16.5761 0.691185 16.9138 0.789646C17.0143 0.816154 17.2083 0.872958 17.3448 0.914614C17.4848 0.956271 17.7578 1.0358 17.9554 1.0926C18.1529 1.1494 18.4043 1.22136 18.5121 1.25165C18.7132 1.30846 19.1837 1.43721 19.6614 1.56975C21.6512 2.12265 22.6856 2.32335 23.5225 2.32335C23.9319 2.32335 24.4922 2.22111 24.7796 2.09235C25.3974 1.81969 25.7601 1.64549 26.9274 1.05852C27.2758 0.880532 27.5452 0.770711 27.6134 0.770711C27.7751 0.770711 27.9834 0.982779 28.0157 1.1797C28.0301 1.25544 28.0516 1.33875 28.066 1.35769C28.0804 1.38041 28.1127 1.45615 28.1306 1.5281C28.1737 1.67579 28.3569 2.20596 28.418 2.37258C28.4431 2.43317 28.4611 2.50134 28.4611 2.53163C28.4611 2.56193 28.4754 2.59223 28.4934 2.60359C28.5114 2.61495 28.5365 2.67175 28.5473 2.72856C28.5616 2.78915 28.6191 2.97471 28.6802 3.14512C28.7376 3.31932 28.8346 3.60712 28.8957 3.7889C28.9567 3.97446 29.0214 4.15244 29.0393 4.18652C29.0573 4.22439 29.0717 4.27362 29.0717 4.30013C29.0753 4.32664 29.104 4.41753 29.1435 4.50084C29.183 4.58415 29.2117 4.66746 29.2153 4.6864C29.2153 4.72048 29.3626 5.16734 29.4847 5.50438C29.5134 5.57633 29.5853 5.79218 29.6499 5.97774C29.711 6.16709 29.7864 6.37158 29.8116 6.43975C29.8403 6.50413 29.8618 6.57229 29.8618 6.58744C29.8618 6.61773 30.0558 7.19335 30.1168 7.34104C30.2749 7.73488 30.2928 7.86364 30.2066 8.03784C30.1564 8.14008 30.1168 8.1628 29.6463 8.35594C29.4057 8.45818 28.6083 8.79901 28.3892 8.89747C28.321 8.93155 28.2312 8.96942 28.1917 8.98835C27.2579 9.4087 26.7191 9.71545 25.8571 10.3251C25.5015 10.5789 25.1208 10.8477 25.013 10.9235C24.5497 11.2529 23.914 11.5748 23.3788 11.7604C22.3085 12.1239 21.2274 12.23 19.6866 12.1277ZM21.8703 11.2643C22.4055 11.181 22.5886 11.1393 22.9658 11.0068C23.2316 10.9121 23.8134 10.666 23.8817 10.6167C23.9032 10.6016 24.0325 10.5259 24.169 10.4463C24.3917 10.3214 24.8586 9.99568 25.5338 9.49959C26.0654 9.10575 26.8376 8.67025 27.5631 8.34458C27.811 8.23476 28.0624 8.12493 28.1199 8.09464C28.1809 8.06813 28.4647 7.93937 28.7592 7.81062C29.0501 7.68565 29.2872 7.56068 29.2872 7.53796C29.2872 7.47737 29.2081 7.21986 29.0717 6.8298C29.007 6.65182 28.9424 6.45868 28.9208 6.39431C28.9029 6.33372 28.8633 6.22768 28.8346 6.15952C28.8059 6.09514 28.7843 6.02319 28.7843 6.00046C28.7843 5.97774 28.77 5.92851 28.752 5.89064C28.734 5.85656 28.6586 5.64828 28.5868 5.42864C28.5149 5.209 28.4395 4.99693 28.4216 4.95527C28.4072 4.91362 28.3569 4.76971 28.3174 4.63338C28.2743 4.49705 28.2276 4.35315 28.2097 4.31149C28.1773 4.23575 28.1558 4.17895 27.9977 3.68665C27.9511 3.55032 27.8936 3.38748 27.8649 3.31932C27.8361 3.25494 27.8146 3.17541 27.8146 3.14512C27.8146 3.11104 27.8002 3.07695 27.7822 3.06559C27.7643 3.05423 27.7391 2.99743 27.7284 2.94062C27.696 2.81187 27.5093 2.24761 27.3872 1.9333C27.3333 1.79318 27.3692 1.77804 26.342 2.29306C25.013 2.95956 24.5425 3.10346 23.5943 3.14133C22.9837 3.16784 22.3049 3.10346 21.7087 2.96713C21.0837 2.82702 20.4875 2.67933 20.1642 2.58844C19.9559 2.53163 19.7476 2.47483 19.6973 2.46347C19.6075 2.44832 18.9754 2.27034 18.4761 2.12643C18.3289 2.08478 18.0308 1.99768 17.8117 1.93709C17.0036 1.70987 16.7126 1.62656 16.4468 1.54703C16.3283 1.51295 16.1451 1.45993 16.041 1.42964C15.9404 1.40313 15.7644 1.3539 15.6567 1.31982C15.5489 1.28952 15.3729 1.24029 15.2724 1.21C15.1682 1.1797 14.9922 1.12668 14.8844 1.0926C13.9973 0.819941 13.7962 0.80858 13.2323 0.99414C12.8767 1.11153 12.3379 1.29331 12.1009 1.38041C12.0434 1.39934 11.6699 1.5281 11.2748 1.66821C10.8797 1.80454 10.5241 1.92951 10.4846 1.94845C10.4451 1.96359 10.3014 2.01661 10.1614 2.06206C10.0249 2.1075 9.7986 2.18702 9.65852 2.23625C9.52204 2.28548 9.28499 2.3688 9.13773 2.41803C8.60616 2.59223 7.24131 3.07695 6.99707 3.17541C6.58044 3.34583 6.19972 3.55789 5.59631 3.95173C5.54962 3.98203 5.15812 4.23954 4.73071 4.52356C4.29971 4.80758 3.79328 5.13704 3.60651 5.25444C3.15755 5.54225 2.36019 6.06863 1.42276 6.69726C1.00612 6.97749 0.905552 7.06838 0.83731 7.22743C0.779842 7.36755 0.776251 7.40542 0.81576 7.51903C0.912735 7.81062 1.15338 8.00754 1.51973 8.10221C2.00102 8.22339 2.36019 8.11736 4.15604 7.33725C4.27816 7.28424 4.42901 7.21986 4.48648 7.18956C4.54754 7.16305 4.66606 7.10625 4.75585 7.06459C4.91748 6.98885 5.19763 6.85631 5.52807 6.69726C5.62864 6.65182 5.79026 6.57229 5.88724 6.52685C5.98781 6.47762 6.24641 6.35265 6.46191 6.24283C7.15152 5.89822 7.38139 5.79976 7.60766 5.76568C7.95247 5.71266 8.47686 5.62556 8.85039 5.56118C9.03716 5.53089 9.35323 5.47787 9.55077 5.44757C9.91713 5.39077 10.3374 5.31882 10.9156 5.22036C12.1655 5.0045 11.9716 4.98935 13.0527 5.38698C13.8393 5.67858 14.3421 5.83384 14.6869 5.89064C14.924 5.92851 16.5007 5.89822 17.0251 5.8452C17.2011 5.82627 17.4812 5.80733 17.6465 5.80354C17.9051 5.79976 17.9518 5.80733 18.0272 5.88307C18.1601 6.01561 18.2068 6.1633 18.1529 6.29585C18.0882 6.46247 18.002 6.52685 17.7614 6.58365C17.2191 6.71998 15.1502 6.76164 11.616 6.7162C10.3122 6.69726 10.1829 6.70105 10.0105 6.76543C9.79501 6.84495 9.55796 7.03051 9.46457 7.19335C9.37119 7.35619 9.2814 7.65914 9.2814 7.81441C9.2814 8.13251 9.48612 8.54907 9.73036 8.73084C10.0249 8.9467 10.129 8.98078 11.2389 9.19664C11.8495 9.31403 12.1188 9.37084 12.3882 9.42385C12.6899 9.48444 13.0814 9.56018 13.5914 9.65107C14.9347 9.89343 15.1933 9.95781 16.3391 10.3592C16.6947 10.4804 17.0179 10.5978 17.0574 10.6167C17.2514 10.7076 18.0056 10.9538 18.3864 11.0484C19.4998 11.3287 20.8826 11.4158 21.8703 11.2643Z" fill="rgb(255,255,255)" fill-rule="nonzero" transform="matrix(1,0,0,-1,20.0746,47)" />
		<path id="矢量 334" d="M19.0939 12.0558C19.0221 12.0368 18.9143 12.0179 18.8569 12.0179C18.7958 12.0179 18.6521 11.9952 18.5336 11.9649C18.4115 11.9346 18.1924 11.8816 18.0451 11.8475C17.8979 11.8096 17.6393 11.7339 17.4705 11.6771C17.3017 11.6203 17.1077 11.5559 17.0395 11.5332C16.9712 11.5105 16.7054 11.4158 16.4468 11.3173C15.4879 10.9538 14.7408 10.7303 14.0584 10.6016C13.4729 10.488 13.3185 10.4615 13.0168 10.4085C12.7294 10.3592 12.4493 10.3062 11.7884 10.1775C11.1168 10.0487 10.9013 10.007 10.6858 9.97296C10.56 9.95024 10.4451 9.92373 10.4271 9.91615C10.4128 9.90479 10.305 9.87828 10.1901 9.85556C9.78783 9.77982 9.43584 9.61699 9.1485 9.37462L8.99765 9.24587L8.66362 9.38598C8.31164 9.52989 7.55379 9.83284 7.34188 9.91615C7.27364 9.94645 7.10483 10.0108 6.96475 10.0638C6.82826 10.1169 6.58762 10.1926 6.43318 10.2267C6.18894 10.2835 6.11711 10.2835 5.87646 10.2418C5.51729 10.1775 5.20841 10.0184 4.97854 9.78361L4.79177 9.59426L4.65888 9.65485C4.58345 9.68515 4.44338 9.74574 4.34281 9.7874C4.24583 9.82905 4.11653 9.88586 4.05547 9.91237C3.99801 9.94266 3.81124 10.0146 3.64243 10.0714C3.37664 10.1661 3.28326 10.1812 2.90613 10.1812C2.42125 10.1812 2.19856 10.1244 1.8789 9.92373C1.63108 9.76468 1.3617 9.41628 1.30064 9.17013C1.25754 8.98457 1.13901 8.83688 1.03485 8.83688C0.966611 8.83688 0.589482 8.62102 0.481731 8.52256C0.316513 8.3673 0.133337 8.09843 0.0650943 7.90908C0.0148105 7.76518 -0.003148 7.62885 0.000443701 7.3524C0.0076271 7.00779 0.0148105 6.96992 0.129745 6.74649C0.284188 6.45111 0.564341 6.22011 1.43353 5.68236C1.47304 5.65585 1.51255 5.62935 1.52332 5.61798C1.54128 5.59526 2.59365 4.90225 2.93486 4.6864C3.03184 4.62581 3.14677 4.55007 3.19346 4.51977C3.68553 4.18652 4.66247 3.54275 5.34848 3.10346C5.87287 2.76642 6.44036 2.47104 6.83904 2.32714C6.96834 2.27791 7.10483 2.22489 7.14433 2.20975C7.21617 2.17566 7.82317 1.96359 10.0716 1.18727C10.754 0.952484 11.7166 0.619234 12.2086 0.445035C13.8572 -0.130579 13.7495 -0.126792 15.3693 0.335214C15.4699 0.361722 15.6315 0.410952 15.7285 0.441248C15.9081 0.498052 16.5761 0.691185 16.9138 0.789646C17.0143 0.816154 17.2083 0.872958 17.3448 0.914614C17.4848 0.956271 17.7578 1.0358 17.9554 1.0926C18.1529 1.1494 18.4043 1.22136 18.5121 1.25165C18.7132 1.30846 19.1837 1.43721 19.6614 1.56975C21.6512 2.12265 22.6856 2.32335 23.5225 2.32335C23.9319 2.32335 24.4922 2.22111 24.7796 2.09235C25.3974 1.81969 25.7601 1.64549 26.9274 1.05852C27.2758 0.880532 27.5452 0.770711 27.6134 0.770711C27.7751 0.770711 27.9834 0.982779 28.0157 1.1797C28.0301 1.25544 28.0516 1.33875 28.066 1.35769C28.0804 1.38041 28.1127 1.45615 28.1306 1.5281C28.1737 1.67579 28.3569 2.20596 28.418 2.37258C28.4431 2.43317 28.4611 2.50134 28.4611 2.53163C28.4611 2.56193 28.4754 2.59223 28.4934 2.60359C28.5114 2.61495 28.5365 2.67175 28.5473 2.72856C28.5616 2.78915 28.6191 2.97471 28.6802 3.14512C28.7376 3.31932 28.8346 3.60712 28.8957 3.7889C28.9567 3.97446 29.0214 4.15244 29.0393 4.18652C29.0573 4.22439 29.0717 4.27362 29.0717 4.30013C29.0753 4.32664 29.104 4.41753 29.1435 4.50084C29.183 4.58415 29.2117 4.66746 29.2153 4.6864C29.2153 4.72048 29.3626 5.16734 29.4847 5.50438C29.5134 5.57633 29.5853 5.79218 29.6499 5.97774C29.711 6.16709 29.7864 6.37158 29.8116 6.43975C29.8403 6.50413 29.8618 6.57229 29.8618 6.58744C29.8618 6.61773 30.0558 7.19335 30.1168 7.34104C30.2749 7.73488 30.2928 7.86364 30.2066 8.03784C30.1564 8.14008 30.1168 8.1628 29.6463 8.35594C29.4057 8.45818 28.6083 8.79901 28.3892 8.89747C28.321 8.93155 28.2312 8.96942 28.1917 8.98835C27.2579 9.4087 26.7191 9.71545 25.8571 10.3251C25.5015 10.5789 25.1208 10.8477 25.013 10.9235C24.5497 11.2529 23.914 11.5748 23.3788 11.7604C22.3085 12.1239 21.2274 12.23 19.6866 12.1277C19.4351 12.1088 19.1693 12.0785 19.0939 12.0558ZM22.9658 11.0068C23.2316 10.9121 23.8134 10.666 23.8817 10.6167C23.9032 10.6016 24.0325 10.5259 24.169 10.4463C24.3917 10.3214 24.8586 9.99568 25.5338 9.49959C26.0654 9.10575 26.8376 8.67025 27.5631 8.34458C27.811 8.23476 28.0624 8.12493 28.1199 8.09464C28.1809 8.06813 28.4647 7.93937 28.7592 7.81062C29.0501 7.68565 29.2872 7.56068 29.2872 7.53796C29.2872 7.47737 29.2081 7.21986 29.0717 6.8298C29.007 6.65182 28.9424 6.45868 28.9208 6.39431C28.9029 6.33372 28.8633 6.22768 28.8346 6.15952C28.8059 6.09514 28.7843 6.02319 28.7843 6.00046C28.7843 5.97774 28.77 5.92851 28.752 5.89064C28.734 5.85656 28.6586 5.64828 28.5868 5.42864C28.5149 5.209 28.4395 4.99693 28.4216 4.95527C28.4072 4.91362 28.3569 4.76971 28.3174 4.63338C28.2743 4.49705 28.2276 4.35315 28.2097 4.31149C28.1773 4.23575 28.1558 4.17895 27.9977 3.68665C27.9511 3.55032 27.8936 3.38748 27.8649 3.31932C27.8361 3.25494 27.8146 3.17541 27.8146 3.14512C27.8146 3.11104 27.8002 3.07695 27.7822 3.06559C27.7643 3.05423 27.7391 2.99743 27.7284 2.94062C27.696 2.81187 27.5093 2.24761 27.3872 1.9333C27.3333 1.79318 27.3692 1.77804 26.342 2.29306C25.013 2.95956 24.5425 3.10346 23.5943 3.14133C22.9837 3.16784 22.3049 3.10346 21.7087 2.96713C21.0837 2.82702 20.4875 2.67933 20.1642 2.58844C19.9559 2.53163 19.7476 2.47483 19.6973 2.46347C19.6075 2.44832 18.9754 2.27034 18.4761 2.12643C18.3289 2.08478 18.0308 1.99768 17.8117 1.93709C17.0036 1.70987 16.7126 1.62656 16.4468 1.54703C16.3283 1.51295 16.1451 1.45993 16.041 1.42964C15.9404 1.40313 15.7644 1.3539 15.6567 1.31982C15.5489 1.28952 15.3729 1.24029 15.2724 1.21C15.1682 1.1797 14.9922 1.12668 14.8844 1.0926C13.9973 0.819941 13.7962 0.80858 13.2323 0.99414C12.8767 1.11153 12.3379 1.29331 12.1009 1.38041C12.0434 1.39934 11.6699 1.5281 11.2748 1.66821C10.8797 1.80454 10.5241 1.92951 10.4846 1.94845C10.4451 1.96359 10.3014 2.01661 10.1614 2.06206C10.0249 2.1075 9.7986 2.18702 9.65852 2.23625C9.52204 2.28548 9.28499 2.3688 9.13773 2.41803C8.60616 2.59223 7.24131 3.07695 6.99707 3.17541C6.58044 3.34583 6.19972 3.55789 5.59631 3.95173C5.54962 3.98203 5.15812 4.23954 4.73071 4.52356C4.29971 4.80758 3.79328 5.13704 3.60651 5.25444C3.15755 5.54225 2.36019 6.06863 1.42276 6.69726C1.00612 6.97749 0.905552 7.06838 0.83731 7.22743C0.779842 7.36755 0.776251 7.40542 0.81576 7.51903C0.912735 7.81062 1.15338 8.00754 1.51973 8.10221C2.00102 8.22339 2.36019 8.11736 4.15604 7.33725C4.27816 7.28424 4.42901 7.21986 4.48648 7.18956C4.54754 7.16305 4.66606 7.10625 4.75585 7.06459C4.91748 6.98885 5.19763 6.85631 5.52807 6.69726C5.62864 6.65182 5.79026 6.57229 5.88724 6.52685C5.98781 6.47762 6.24641 6.35265 6.46191 6.24283C7.15152 5.89822 7.38139 5.79976 7.60766 5.76568C7.95247 5.71266 8.47686 5.62556 8.85039 5.56118C9.03716 5.53089 9.35323 5.47787 9.55077 5.44757C9.91713 5.39077 10.3374 5.31882 10.9156 5.22036C12.1655 5.0045 11.9716 4.98935 13.0527 5.38698C13.8393 5.67858 14.3421 5.83384 14.6869 5.89064C14.924 5.92851 16.5007 5.89822 17.0251 5.8452C17.2011 5.82627 17.4812 5.80733 17.6465 5.80354C17.9051 5.79976 17.9518 5.80733 18.0272 5.88307C18.1601 6.01561 18.2068 6.1633 18.1529 6.29585C18.0882 6.46247 18.002 6.52685 17.7614 6.58365C17.2191 6.71998 15.1502 6.76164 11.616 6.7162C10.3122 6.69726 10.1829 6.70105 10.0105 6.76543C9.79501 6.84495 9.55796 7.03051 9.46457 7.19335C9.37119 7.35619 9.2814 7.65914 9.2814 7.81441C9.2814 8.13251 9.48612 8.54907 9.73036 8.73084C10.0249 8.9467 10.129 8.98078 11.2389 9.19664C11.8495 9.31403 12.1188 9.37084 12.3882 9.42385C12.6899 9.48444 13.0814 9.56018 13.5914 9.65107C14.9347 9.89343 15.1933 9.95781 16.3391 10.3592C16.6947 10.4804 17.0179 10.5978 17.0574 10.6167C17.2514 10.7076 18.0056 10.9538 18.3864 11.0484C19.4998 11.3287 20.8826 11.4158 21.8703 11.2643C22.4055 11.181 22.5886 11.1393 22.9658 11.0068Z" fill-rule="nonzero" stroke="rgb(255,255,255)" stroke-width="0.500000" transform="matrix(1,0,0,-1,20.0746,47)" />
	</g>
</svg>
