<svg viewBox="0 0 70 70" xmlns="http://www.w3.org/2000/svg" xmlns:xlink="http://www.w3.org/1999/xlink" width="70.000000" height="70.000000" fill="none" customFrame="#000000">
	<defs>
		<clipPath id="clipPath_20">
			<rect width="24.000000" height="14.000000" x="23.000000" y="28.000000" fill="rgb(255,255,255)" />
		</clipPath>
	</defs>
	<rect id="海浪-选中" width="70.000000" height="70.000000" x="0.000000" y="0.000000" />
	<circle id="椭圆 8" cx="35" cy="35" r="35" fill="rgb(1,89,188)" />
	<g id="Margin" customFrame="url(#clipPath_20)">
		<rect id="Margin" width="24.000000" height="14.000000" x="23.000000" y="28.000000" />
		<path id="Icon" d="M23 40.8124L23 38.9134C23.7195 38.8734 24.266 38.663 24.6394 38.2824C25.0128 37.9018 25.758 37.7115 26.875 37.7115C28.016 37.7115 28.7912 37.9198 29.2007 38.3365C29.6101 38.7532 30.2139 38.9615 31.012 38.9615C31.8357 38.9615 32.4523 38.7532 32.8618 38.3365C33.2712 37.9198 34.0465 37.7115 35.1875 37.7115C36.3029 37.7115 37.0781 37.9198 37.5132 38.3365C37.9483 38.7532 38.5649 38.9615 39.363 38.9615C40.1867 38.9615 40.7969 38.7532 41.1935 38.3365C41.5901 37.9198 42.359 37.7115 43.5 37.7115C44.617 37.7115 45.3621 37.9018 45.7355 38.2824C46.1089 38.663 46.6554 38.8734 47.375 38.9134L47.375 40.8124C46.4038 40.7644 45.7007 40.548 45.2656 40.1634C44.8305 39.7788 44.242 39.5865 43.5 39.5865C42.7099 39.5865 42.1081 39.7948 41.6947 40.2115C41.2812 40.6281 40.504 40.8365 39.363 40.8365C38.2476 40.8365 37.4723 40.6281 37.0372 40.2115C36.6021 39.7948 35.9856 39.5865 35.1875 39.5865C34.3638 39.5865 33.7472 39.7948 33.3377 40.2115C32.9283 40.6281 32.153 40.8365 31.012 40.8365C29.871 40.8365 29.1001 40.6281 28.6995 40.2115C28.2989 39.7948 27.6907 39.5865 26.875 39.5865C26.0993 39.5865 25.5128 39.7788 25.1154 40.1634C24.7179 40.548 24.0128 40.7644 23 40.8124ZM23 35.9567L23 34.0577C23.7195 34.0176 24.266 33.8073 24.6394 33.4267C25.0128 33.0461 25.758 32.8558 26.875 32.8558C27.9904 32.8558 28.7592 33.0641 29.1815 33.4808C29.6037 33.8974 30.2139 34.1058 31.012 34.1058C31.8357 34.1058 32.4523 33.8974 32.8618 33.4808C33.2712 33.0641 34.0465 32.8558 35.1875 32.8558C36.3029 32.8558 37.0749 33.0641 37.5036 33.4808C37.9323 33.8974 38.5392 34.1058 39.3245 34.1058C40.1482 34.1058 40.7648 33.8974 41.1743 33.4808C41.5837 33.0641 42.359 32.8558 43.5 32.8558C44.5913 32.8558 45.3365 33.0461 45.7355 33.4267C46.1346 33.8073 46.681 34.0176 47.375 34.0577L47.375 35.9567C46.3782 35.9086 45.6686 35.6922 45.2464 35.3076C44.8241 34.923 44.242 34.7307 43.5 34.7307C42.7099 34.7307 42.1081 34.939 41.6947 35.3557C41.2812 35.7724 40.504 35.9807 39.363 35.9807C38.2476 35.9807 37.4723 35.7724 37.0372 35.3557C36.6021 34.939 35.9856 34.7307 35.1875 34.7307C34.3638 34.7307 33.7536 34.939 33.3569 35.3557C32.9603 35.7724 32.1915 35.9807 31.0505 35.9807C29.9094 35.9807 29.1258 35.7724 28.6995 35.3557C28.2732 34.939 27.665 34.7307 26.875 34.7307C26.125 34.7307 25.5384 34.923 25.1154 35.3076C24.6923 35.6922 23.9872 35.9086 23 35.9567ZM23 31.1009L23 29.2019C23.7195 29.1619 24.266 28.9515 24.6394 28.5709C25.0128 28.1903 25.758 28 26.875 28C27.9904 28 28.7592 28.2083 29.1815 28.625C29.6037 29.0417 30.2139 29.25 31.012 29.25C31.8357 29.25 32.4523 29.0417 32.8618 28.625C33.2712 28.2083 34.0465 28 35.1875 28C36.3029 28 37.0749 28.2083 37.5036 28.625C37.9323 29.0417 38.5392 29.25 39.3245 29.25C40.1482 29.25 40.7648 29.0417 41.1743 28.625C41.5837 28.2083 42.359 28 43.5 28C44.5913 28 45.3365 28.1903 45.7355 28.5709C46.1346 28.9515 46.681 29.1619 47.375 29.2019L47.375 31.1009C46.3782 31.0528 45.6686 30.8365 45.2464 30.4519C44.8241 30.0673 44.242 29.875 43.5 29.875C42.7099 29.875 42.1081 30.0833 41.6947 30.5C41.2812 30.9166 40.504 31.125 39.363 31.125C38.2476 31.125 37.4723 30.9166 37.0372 30.5C36.6021 30.0833 35.9856 29.875 35.1875 29.875C34.3638 29.875 33.7536 30.0833 33.3569 30.5C32.9603 30.9166 32.1915 31.125 31.0505 31.125C29.9094 31.125 29.1258 30.9166 28.6995 30.5C28.2732 30.0833 27.665 29.875 26.875 29.875C26.125 29.875 25.5344 30.0673 25.1033 30.4519C24.6723 30.8365 23.9711 31.0528 23 31.1009Z" fill="rgb(255,255,255)" fill-rule="nonzero" />
	</g>
</svg>
