<svg viewBox="0 0 70 70" xmlns="http://www.w3.org/2000/svg" xmlns:xlink="http://www.w3.org/1999/xlink" width="70.000000" height="70.000000" fill="none" customFrame="#000000">
	<rect id="记忆-未选中" width="70.000000" height="70.000000" x="0.000000" y="0.000000" />
	<circle id="椭圆 8" cx="35" cy="35" r="35" fill="rgb(242,244,246)" />
	<path id="矢量 17" d="M35.5012 23.2164C38.9072 20.1592 44.1706 20.2607 47.4519 23.5469C50.7317 26.8345 50.8448 32.0704 47.7941 35.4857L35.4983 47.7955L23.2054 35.4857C20.1547 32.0704 20.2692 26.8258 23.5476 23.5469C26.8318 20.265 32.0851 20.1549 35.5012 23.2164L35.5012 23.2164ZM45.3987 25.5951C43.2237 23.4179 39.7148 23.3295 37.4383 25.3734L35.5026 27.11L33.5655 25.3748C31.2818 23.328 27.7801 23.4179 25.5993 25.598C23.4389 27.7579 23.3301 31.2152 25.3209 33.4997L35.4997 43.6917L45.6785 33.5012C47.6708 31.2152 47.5621 27.7623 45.3987 25.5951L45.3987 25.5951Z" fill="rgb(1,89,188)" fill-rule="evenodd" />
</svg>
