<svg viewBox="0 0 70.0001 70" xmlns="http://www.w3.org/2000/svg" xmlns:xlink="http://www.w3.org/1999/xlink" width="70.000122" height="70.000000" fill="none" customFrame="#000000">
	<defs>
		<clipPath id="clipPath_8">
			<rect width="35.000000" height="15.476191" x="17.000000" y="27.000000" fill="rgb(255,255,255)" />
		</clipPath>
	</defs>
	<rect id="躺姿-未选中" width="70.000000" height="70.000000" x="0.000000" y="0.000000" />
	<circle id="椭圆 9" cx="35.0001221" cy="35" r="35" fill="rgb(242,244,246)" />
	<g id="沙发躺姿 1" clip-path="url(#clipPath_8)" customFrame="url(#clipPath_8)">
		<rect id="沙发躺姿 1" width="35.000000" height="15.476191" x="17.000000" y="27.000000" />
		<g id="组合 105">
			<path id="矢量 511" d="M1.72009 5.99205C-0.057682 5.29364 -0.597363 2.4365 0.767713 1.07143C2.19628 -0.357142 4.16453 -0.357142 5.5931 1.07143C6.41849 1.89682 6.60897 3.6111 6.03754 4.75396C5.33913 5.99205 3.2439 6.62697 1.72009 5.99205Z" fill="rgb(1,89,188)" fill-rule="nonzero" transform="matrix(1,0,0,-1,17.3116,33.3096)" />
			<path id="矢量 512" d="M2.81838 10.6546C2.81838 9.76569 1.64378 8.59109 0.469184 8.27363C-0.387957 8.0514 -0.356211 7.98791 3.04061 4.14665C4.91362 2.01967 6.75488 0.178408 7.16758 0.08317C9.04059 -0.393019 10.7549 1.25777 10.12 2.94031C9.86599 3.63872 3.29457 11.3847 2.94537 11.3847C2.88188 11.3847 2.81838 11.0673 2.81838 10.6546Z" fill="rgb(1,89,188)" fill-rule="nonzero" transform="matrix(1,0,0,-1,21.4832,42.1941)" />
			<path id="矢量 513" d="M4.5423 8.12709C-0.187842 5.20646 -0.219588 5.17472 0.129617 4.57154C0.288347 4.28583 0.796282 3.61916 1.20898 3.11123L1.97088 2.1906L4.35183 3.65091L6.70103 5.07948L10.4788 2.85726C12.574 1.61917 14.701 0.444568 15.2089 0.222347C16.4153 -0.285589 17.4629 0.0953627 17.9708 1.17473C18.6058 2.60329 17.9391 3.33345 13.5582 5.77789C11.3359 7.04773 8.92325 8.4128 8.19309 8.8255L6.92325 9.5874L4.5423 8.12709Z" fill="rgb(1,89,188)" fill-rule="nonzero" transform="matrix(1,0,0,-1,31.791,41.0317)" />
		</g>
	</g>
</svg>
