<svg viewBox="0 0 70 70" xmlns="http://www.w3.org/2000/svg" xmlns:xlink="http://www.w3.org/1999/xlink" width="70.000000" height="70.000000" fill="none" customFrame="#000000">
	<defs>
		<clipPath id="clipPath_16">
			<rect width="29.000000" height="16.000000" x="25.000000" y="27.000000" fill="rgb(255,255,255)" />
		</clipPath>
	</defs>
	<rect id="TV姿-选中" width="70.000000" height="70.000000" x="0.000000" y="0.000000" />
	<circle id="椭圆 8" cx="35" cy="35" r="35" fill="rgb(1,89,188)" />
	<g id="Container" customFrame="url(#clipPath_16)">
		<rect id="Container" width="29.000000" height="16.000000" x="25.000000" y="27.000000" />
	</g>
	<path id="Icon" d="M31.875 33.15L30.4975 36.1225L27.525 37.5L30.4975 38.8775L31.875 41.85L33.2525 38.8775L36.225 37.5L33.2525 36.1225L31.875 33.15ZM40.575 33.15L39.6325 35.1075L37.675 36.05L39.6325 36.9925L40.575 38.95L41.5175 36.9925L43.475 36.05L41.5175 35.1075L40.575 33.15ZM23.9 23L26.8 28.8L31.15 28.8L28.25 23L31.15 23L34.05 28.8L38.4 28.8L35.5 23L38.4 23L41.3 28.8L45.65 28.8L42.75 23L47.1 23C47.8975 23 48.5802 23.284 49.1481 23.8519C49.716 24.4198 50 25.1025 50 25.9L50 43.3C50 44.0975 49.716 44.7802 49.1481 45.3481C48.5802 45.916 47.8975 46.2 47.1 46.2L23.9 46.2C23.1025 46.2 22.4198 45.916 21.8519 45.3481C21.284 44.7802 21 44.0975 21 43.3L21 25.9C21 25.1025 21.284 24.4198 21.8519 23.8519C22.4198 23.284 23.1025 23 23.9 23ZM23.9 31.7L23.9 43.3L47.1 43.3L47.1 31.7L23.9 31.7ZM23.9 31.7L23.9 43.3L23.9 31.7Z" fill="rgb(255,255,255)" fill-rule="nonzero" />
</svg>
