<svg viewBox="0 0 42.5 42.5" xmlns="http://www.w3.org/2000/svg" xmlns:xlink="http://www.w3.org/1999/xlink" width="42.500000" height="42.500000" fill="none" customFrame="#000000">
	<defs>
		<g id="pixso_custom_effect_1">
			<effect x="0.000000" y="2.000000" visibility="visible" fill="rgb(0,0,0)" fill-opacity="0.0799999982" effectType="dropShadow" stdDeviation="7" radius="0" />
		</g>
		<filter id="filter_1" width="42.500000" height="42.500000" x="0.000000" y="0.000000" filterUnits="userSpaceOnUse" customEffect="url(#pixso_custom_effect_1)" color-interpolation-filters="sRGB">
			<feFlood flood-opacity="0" result="BackgroundImageFix" />
			<feOffset dx="0.000000" dy="2.000000" in="SourceAlpha" />
			<feGaussianBlur stdDeviation="2.33333325" />
			<feColorMatrix type="matrix" values="0 0 0 0 0 0 0 0 0 0 0 0 0 0 0 0 0 0 0.08 0 " />
			<feBlend result="effect_dropShadow_1" in2="BackgroundImageFix" mode="normal" />
			<feBlend result="shape" in="SourceGraphic" in2="effect_dropShadow_1" mode="normal" />
		</filter>
		<clipPath id="clipPath_1">
			<rect width="24.000000" height="24.000000" x="9.250000" y="7.250000" fill="rgb(255,255,255)" />
		</clipPath>
	</defs>
	<rect id="蓝牙按键" width="28.000000" height="28.000000" x="7.250000" y="5.250000" />
	<g filter="url(#filter_1)">
		<rect id="矩形 36" width="28.000000" height="28.000000" x="7.250000" y="5.250000" rx="14.000000" fill="rgb(246,248,250)" />
		<rect id="矩形 36" width="28.000000" height="28.000000" x="7.250000" y="5.250000" rx="14.000000" stroke="rgb(1,89,188)" stroke-width="0.500000" />
	</g>
	<g id="bluetooth_connected" clip-path="url(#clipPath_1)" customFrame="url(#clipPath_1)">
		<rect id="bluetooth_connected" width="24.000000" height="24.000000" x="9.250000" y="7.250000" />
		<g id="组合 102">
			<path id="矢量 510" d="M4.85005 19.9852C4.77059 19.9747 4.64722 19.9496 4.57821 19.9328C4.5092 19.914 4.41092 19.8909 4.35864 19.8826C4.30637 19.8721 4.19345 19.8407 4.10771 19.8114C4.02198 19.7821 3.93833 19.7569 3.9216 19.7569C3.90487 19.7569 3.8756 19.7444 3.85887 19.7276C3.8275 19.7004 3.75431 19.6606 3.47411 19.5078C3.28591 19.4073 3.25245 19.3822 3.08307 19.2335C2.81959 19.0053 0.950146 17.1314 0.774494 16.922C0.623934 16.744 0.448282 16.4823 0.40646 16.3755C0.398095 16.3525 0.364638 16.298 0.335362 16.2541C0.306087 16.2101 0.280994 16.164 0.280994 16.1494C0.280994 16.1347 0.268447 16.1054 0.253809 16.0824C0.21826 16.028 0.155527 15.8605 0.155527 15.8186C0.155527 15.7997 0.128343 15.6971 0.0948854 15.5883C-0.0326718 15.1779 -0.0305807 14.2315 0.0948854 13.8002C0.226625 13.3563 0.239172 13.3228 0.40646 13.0255C0.431553 12.9794 0.473375 12.9041 0.496377 12.858C0.621843 12.6235 0.931326 12.2822 1.92251 11.2835C2.40555 10.7977 2.97433 10.224 3.18763 10.0105C3.40092 9.79483 3.6414 9.56661 3.72086 9.5017C3.80241 9.43679 3.90069 9.35514 3.94251 9.31954C3.98224 9.28604 4.04289 9.23579 4.07425 9.20857C4.10562 9.18135 4.22272 9.11226 4.33355 9.05363C4.44647 8.99501 4.55102 8.93638 4.56775 8.92173C4.58448 8.90707 4.63258 8.89032 4.67231 8.88404C4.71204 8.87776 4.81659 8.85054 4.90233 8.82123C5.39165 8.65373 5.37701 8.65791 5.8956 8.64535C6.4142 8.63279 6.67768 8.65373 6.87842 8.71863C6.94743 8.73957 7.10217 8.78982 7.22345 8.8296C7.34474 8.86938 7.48902 8.92591 7.54339 8.95732C7.59776 8.99082 7.64795 9.01595 7.65422 9.01595C7.66049 9.01595 7.7065 9.04526 7.75668 9.07876C7.80687 9.11435 7.85497 9.14157 7.86542 9.14157C7.89888 9.14157 8.177 9.3342 8.269 9.42214C8.4572 9.60011 8.54085 9.65245 8.62658 9.64617C8.66422 9.64408 9.6094 8.70398 9.63031 8.64744C9.65331 8.58254 9.62404 8.53648 9.40238 8.28522C9.28528 8.15332 9.16609 7.99838 9.13472 7.93975C8.98625 7.66128 8.81269 7.30534 8.81269 7.27603C8.81269 7.25928 8.78551 7.15878 8.74996 7.05619C8.58894 6.57253 8.59313 5.45865 8.75832 5.02942C8.7876 4.94986 8.81269 4.86611 8.81269 4.84517C8.81269 4.82214 8.82524 4.77817 8.84197 4.74886C8.85661 4.71745 8.89634 4.6358 8.93188 4.5667C9.09499 4.2338 9.20373 4.05373 9.31037 3.93229C9.37311 3.85901 9.46721 3.74595 9.51739 3.68104C9.56758 3.61404 10.1573 3.01104 10.8264 2.34103C12.0811 1.08059 12.1752 0.988465 12.3676 0.829339C12.4303 0.776995 12.5139 0.703713 12.5579 0.668119C12.5997 0.630432 12.6394 0.599025 12.6457 0.599025C12.652 0.599025 12.7732 0.529931 12.9154 0.446181C13.2396 0.255648 13.2709 0.240992 13.5386 0.159335C13.6599 0.121647 13.7874 0.0797723 13.8251 0.0630222C13.8606 0.0483658 14.0635 0.0253345 14.2767 0.0106781C14.7096 -0.0165408 15.3474 0.0106781 15.4687 0.0651159C15.5481 0.0986161 15.9371 0.222148 15.9643 0.222148C15.9914 0.222148 16.2967 0.366618 16.3867 0.425243C16.4306 0.452462 16.4766 0.473399 16.4891 0.473399C16.5017 0.473399 16.5749 0.527837 16.6522 0.594838C16.7275 0.661838 16.8383 0.75187 16.8948 0.797932C17.1039 0.965433 17.3047 1.15806 18.3502 2.20285C18.9462 2.79747 19.3079 3.20576 19.4334 3.4256C19.5317 3.5952 19.7262 3.99511 19.7554 4.08514C19.8976 4.53948 19.9164 4.61486 19.9164 4.76142C19.9164 4.84517 19.9269 4.98336 19.9394 5.06502C19.9875 5.36024 19.8976 6.16424 19.8098 6.26265C19.7993 6.27312 19.791 6.30243 19.791 6.32965C19.791 6.35478 19.7659 6.44062 19.7366 6.51809C19.7073 6.59556 19.6781 6.6835 19.6718 6.71281C19.6634 6.74212 19.6383 6.79447 19.6132 6.82797C19.5881 6.86356 19.5129 6.98709 19.4459 7.10434C19.3707 7.24044 19.2452 7.41422 19.1051 7.57544C18.8312 7.89578 16.3407 10.3978 16.0981 10.5967C15.8639 10.7873 15.3097 11.1055 15.1487 11.1411C15.109 11.1495 15.0484 11.1683 15.0128 11.183C14.9522 11.2081 14.8832 11.227 14.6155 11.2898C14.2726 11.3714 13.4445 11.3631 13.1308 11.2772C13.0388 11.2521 12.9363 11.2228 12.9008 11.2144C12.7398 11.1704 12.4826 11.0636 12.2818 10.959C12.1626 10.894 12.0267 10.8229 11.9786 10.7977C11.9326 10.7726 11.8615 10.7245 11.8218 10.6889C11.7821 10.6533 11.7089 10.5905 11.6587 10.5486C11.6085 10.5067 11.5499 10.4565 11.5311 10.4376C11.4621 10.3727 11.3952 10.335 11.3471 10.335C11.3095 10.335 11.1694 10.4606 10.8076 10.8208C10.3936 11.2311 10.3183 11.3149 10.3183 11.3672C10.3183 11.4133 10.3622 11.4782 10.5023 11.6394C10.6027 11.7567 10.7051 11.8865 10.7281 11.9263C10.7491 11.9661 10.793 12.0352 10.8264 12.0812C10.8578 12.1252 10.8829 12.1712 10.8829 12.1817C10.8829 12.1922 10.9101 12.2403 10.9414 12.2885C11.0125 12.3911 11.1338 12.68 11.1338 12.7407C11.1338 12.7638 11.1589 12.8475 11.1882 12.925C11.2196 13.0067 11.253 13.1616 11.2697 13.2872C11.3555 13.9907 11.3534 13.9405 11.3157 14.1708C11.2969 14.2901 11.276 14.4702 11.2676 14.5728C11.2572 14.6942 11.2321 14.8199 11.1924 14.9287C11.161 15.0229 11.1338 15.1172 11.1338 15.1423C11.1338 15.1925 11.046 15.3663 10.77 15.873C10.7302 15.9442 10.4228 16.3232 10.4019 16.3232C10.3915 16.3232 10.381 16.3378 10.3768 16.3546C10.3685 16.3902 7.85706 18.9173 7.62704 19.1183C7.53712 19.1979 7.45557 19.2733 7.44302 19.2858C7.39702 19.334 7.24018 19.4492 7.15654 19.4931C7.0708 19.5392 6.7906 19.6962 6.72159 19.7339C6.6714 19.7632 6.34728 19.8637 6.20509 19.8972C6.1319 19.9119 6.01061 19.9391 5.93324 19.9579C5.75968 19.9977 5.06334 20.0145 4.85005 19.9852ZM5.58194 17.5794C5.95415 17.4831 5.97716 17.4643 7.42002 16.0154C8.81478 14.6126 8.89843 14.5163 8.96953 14.2169C9.03226 13.9468 8.99671 13.6578 8.86497 13.3814C8.79178 13.2286 8.7416 13.1637 8.65586 13.1072C8.60567 13.0737 8.5994 13.0758 8.5283 13.1302C8.48648 13.1616 8.36938 13.2705 8.26482 13.371C8.00762 13.6243 7.93443 13.6871 7.86124 13.7206C7.82778 13.7353 7.76087 13.7709 7.71486 13.8002C7.66886 13.8274 7.60613 13.8504 7.57685 13.8525C7.54548 13.8525 7.48066 13.8672 7.43256 13.8839C7.38447 13.9007 7.29455 13.9153 7.23391 13.9153C7.17327 13.9153 7.08335 13.9007 7.03525 13.8839C6.98716 13.8672 6.92234 13.8525 6.89515 13.8525C6.75505 13.8525 6.43093 13.6076 6.28246 13.3898C6.14654 13.1888 6.03571 12.7889 6.0608 12.59C6.10262 12.2801 6.21972 12.0917 6.66095 11.6415C6.85542 11.4405 6.86588 11.4259 6.85542 11.3568C6.84496 11.2981 6.82405 11.273 6.74459 11.2249C6.57521 11.1202 6.50621 11.0888 6.43929 11.0888C6.40374 11.0888 6.3661 11.0804 6.35356 11.0678C6.29919 11.0134 5.82032 10.9694 5.69695 11.0071C5.65722 11.0197 5.53384 11.0909 5.42511 11.1641C5.25364 11.2772 5.05289 11.4719 3.97179 12.5586C2.80914 13.7269 2.54357 14.0096 2.45156 14.1771C2.347 14.3676 2.31982 14.7989 2.3951 15.0481C2.42019 15.1276 2.44738 15.1988 2.45783 15.2051C2.46829 15.2114 2.47665 15.2323 2.47665 15.2533C2.47665 15.2742 2.49129 15.3056 2.51011 15.3203C2.52893 15.337 2.56866 15.3873 2.59793 15.4333C2.64394 15.5066 4.11398 16.989 4.39628 17.2486C4.52802 17.3659 4.85214 17.5585 4.92324 17.5585C4.95252 17.5585 5.04243 17.5773 5.1219 17.6004C5.28082 17.6443 5.33937 17.6401 5.58194 17.5794ZM14.1115 8.98245C14.3248 8.9301 14.421 8.88823 14.58 8.77935C14.7242 8.67885 14.9459 8.4611 16.8864 6.50343C17.3277 6.05746 17.4866 5.85646 17.5577 5.65546C17.6058 5.52355 17.61 5.15296 17.564 5.0043C17.5472 4.94777 17.5326 4.88286 17.5326 4.85983C17.5326 4.8368 17.4845 4.74258 17.4239 4.65045C17.3381 4.51855 17.1227 4.29033 16.3971 3.56589C15.2449 2.41641 15.2031 2.385 14.7577 2.36407C14.5758 2.35569 14.5026 2.35988 14.4231 2.385C14.3688 2.40385 14.2705 2.43525 14.2077 2.4541C14.145 2.47294 14.0572 2.51482 14.0154 2.54832C13.9735 2.58182 13.9317 2.60904 13.9254 2.60904C13.9171 2.60904 13.8753 2.63626 13.8334 2.66976C13.731 2.75141 11.276 5.21577 11.2509 5.26183C11.2405 5.28277 11.2237 5.30371 11.2154 5.30999C11.207 5.31627 11.1568 5.38746 11.1045 5.46702C11.0397 5.56543 11.0084 5.63662 11.0084 5.68268C11.0084 5.72037 10.9937 5.81877 10.9749 5.89834C10.9163 6.15587 10.9644 6.4134 11.1255 6.69187C11.1777 6.78609 11.2927 6.90125 11.3346 6.90125C11.3931 6.90125 11.4538 6.851 11.7277 6.57671C11.9493 6.35268 12.1564 6.18937 12.217 6.18937C12.2337 6.18937 12.2714 6.17471 12.3007 6.15796C12.3864 6.1119 12.583 6.06374 12.6875 6.06374C12.8067 6.06374 13.227 6.19774 13.3023 6.25846C13.3357 6.28568 13.3964 6.32965 13.4403 6.35687C13.5428 6.42387 13.7519 6.69606 13.7937 6.8175C13.9213 7.18181 13.8941 7.57753 13.7247 7.83716C13.6118 8.01094 13.5762 8.05072 13.3086 8.32919C13.1894 8.45273 13.0848 8.56788 13.0765 8.58254C13.0451 8.63698 13.1162 8.74166 13.2396 8.82123C13.5051 8.99292 13.8313 9.05363 14.1115 8.98245Z" fill="rgb(0,88,188)" fill-rule="nonzero" transform="matrix(1,0,0,-1,11.25,29.25)" />
		</g>
	</g>
</svg>
