<svg viewBox="0 0 14.4 18" xmlns="http://www.w3.org/2000/svg" xmlns:xlink="http://www.w3.org/1999/xlink" width="14.400024" height="18.000000" fill="none" customFrame="#000000">
	<defs>
		<clipPath id="clipPath_0">
			<rect width="14.400001" height="18.000000" x="0.000000" y="0.000000" fill="rgb(255,255,255)" />
		</clipPath>
	</defs>
	<rect id="循环播放" width="14.400002" height="18.000000" x="0.000000" y="0.000000" />
	<g id="循环播放" customFrame="url(#clipPath_0)">
		<rect id="循环播放" width="14.400001" height="18.000000" x="0.000000" y="0.000000" />
		<path id="矢量 31" d="M9.41539 0L4.98462 0C2.24559 0 0 2.24622 0 4.98601L0 13.014C0 13.9004 0.231608 14.7364 0.644476 15.4617C0.725035 15.6027 0.845874 15.6833 1.00699 15.7135C1.16811 15.7437 1.30909 15.7034 1.42993 15.5926C2.86993 14.3335 4.08839 13.2557 5.63916 11.8959C5.73986 11.8053 5.77007 11.6642 5.71972 11.5434C5.66937 11.4225 5.53846 11.352 5.40755 11.3621L2.5779 11.6844L2.5779 4.98601C2.5779 3.65641 3.66545 2.57863 4.98462 2.57863L8.50909 2.57863C8.64 2.57863 8.75077 2.53834 8.8414 2.44768L10.5331 0.966991C10.6842 0.836046 10.7446 0.644663 10.6842 0.443207C10.6338 0.251824 10.4828 0.110807 10.2814 0.0805877C9.99944 0.0302247 9.70741 5.76367e-06 9.41539 5.76367e-06L9.41539 0ZM11.8221 7.7258L8.99245 8.04813C8.86154 8.06827 8.73063 7.98769 8.68028 7.86682C8.62993 7.74594 8.66014 7.60492 8.76084 7.51427C10.3116 6.15445 11.8523 4.79463 13.4031 3.44488C13.5441 3.32401 13.7152 3.28372 13.8864 3.34415C14.0576 3.39451 14.1885 3.52546 14.2288 3.6967C14.3396 4.10968 14.4 4.54281 14.4 4.98601L14.4 13.014C14.4 15.7538 12.1544 18 9.41538 18L5.72979 18C5.51832 18 5.32699 17.8691 5.2565 17.6676C5.17594 17.4661 5.23636 17.2445 5.39748 17.1035L7.15972 15.5523C7.26042 15.4717 7.37119 15.4214 7.49203 15.4214L9.40531 15.4214C10.7345 15.4214 11.812 14.3335 11.812 13.014L11.812 7.73587L11.8221 7.7258Z" fill="rgb(0,88,188)" fill-rule="evenodd" />
	</g>
</svg>
