<svg viewBox="0 0 38 38" xmlns="http://www.w3.org/2000/svg" xmlns:xlink="http://www.w3.org/1999/xlink" width="38.000000" height="38.000000" fill="none" customFrame="#000000">
	<defs>
		<g id="pixso_custom_effect_9">
			<effect x="2.000000" y="3.000000" visibility="visible" fill="rgb(0,0,0)" fill-opacity="0.180000007" effectType="dropShadow" stdDeviation="6" radius="-2" />
		</g>
		<filter id="filter_9" width="38.000000" height="38.000000" x="0.000000" y="0.000000" filterUnits="userSpaceOnUse" customEffect="url(#pixso_custom_effect_9)" color-interpolation-filters="sRGB">
			<feFlood flood-opacity="0" result="BackgroundImageFix" />
			<feOffset dx="2.000000" dy="3.000000" in="SourceAlpha" />
			<feMorphology radius="2" operator="erode" />
			<feOffset dx="0.000000" dy="0.000000" />
			<feGaussianBlur stdDeviation="2" />
			<feColorMatrix type="matrix" values="0 0 0 0 0 0 0 0 0 0 0 0 0 0 0 0 0 0 0.18 0 " />
			<feBlend result="effect_dropShadow_1" in2="BackgroundImageFix" mode="normal" />
			<feBlend result="shape" in="SourceGraphic" in2="effect_dropShadow_1" mode="normal" />
		</filter>
	</defs>
	<rect id="悬浮图标-未启动/关闭" width="30.000000" height="30.000000" x="2.000000" y="1.000000" />
	<g filter="url(#filter_9)">
		<path id="椭圆 8" d="M2 16C2 7.71573 8.71573 1 17 1C25.2843 1 32 7.71573 32 16C32 24.2843 25.2843 31 17 31C8.71573 31 2 24.2843 2 16Z" fill="rgb(255,255,255)" fill-rule="evenodd" />
		<path id="椭圆 8" d="M17 1C8.71573 1 2 7.71573 2 16C2 24.2843 8.71573 31 17 31C25.2843 31 32 24.2843 32 16C32 7.71573 25.2843 1 17 1ZM13.9008 2.3418C14.9081 2.11393 15.9412 2 17 2C18.0588 2 19.0919 2.11393 20.0991 2.34179C20.8987 2.52266 21.682 2.77533 22.4491 3.09978C23.2311 3.43053 23.9714 3.82491 24.6699 4.28291C25.4675 4.80584 26.2107 5.4117 26.8995 6.1005C27.5882 6.78925 28.1941 7.53236 28.7169 8.32985C29.175 9.02846 29.5694 9.76881 29.9002 10.5509C30.2247 11.318 30.4774 12.1014 30.6583 12.901C30.8861 13.9083 31 14.9412 31 16C31 17.0588 30.8861 18.0917 30.6582 19.099C30.4774 19.8986 30.2247 20.682 29.9002 21.4491C29.5695 22.2311 29.1751 22.9714 28.7171 23.6699C28.1942 24.4675 27.5883 25.2107 26.8995 25.8995C26.2107 26.5883 25.4675 27.1942 24.6699 27.7171C23.9713 28.1751 23.2311 28.5695 22.4491 28.9002C21.682 29.2247 20.8986 29.4774 20.099 29.6582C19.0918 29.8861 18.0588 30 17 30C15.9412 30 14.9082 29.8861 13.901 29.6582C13.1014 29.4774 12.318 29.2247 11.5509 28.9002C10.7688 28.5694 10.0285 28.175 9.32989 27.717C8.53239 27.1941 7.78926 26.5883 7.1005 25.8995C6.41169 25.2107 5.80583 24.4675 5.2829 23.6699C4.8249 22.9714 4.43053 22.2311 4.09978 21.4491C3.77532 20.682 3.52265 19.8987 3.34178 19.0991C3.11393 18.0918 3 17.0588 3 16C3 14.9412 3.11393 13.9081 3.34179 12.9009C3.52266 12.1013 3.77533 11.318 4.09978 10.5509C4.43058 9.76879 4.82501 9.02842 5.28309 8.32979C5.80598 7.53233 6.41178 6.78923 7.1005 6.1005C7.78925 5.41176 8.53236 4.80594 9.32985 4.28305C10.0285 3.82499 10.7688 3.43057 11.5509 3.09978C12.318 2.77533 13.1013 2.52267 13.9008 2.3418Z" fill="rgb(1,89,188)" fill-rule="evenodd" />
	</g>
	<g id="组合 72">
		<path id="矢量 32" d="M17 16.25C18.125 16.25 18.5 15.5285 18.5 15.0302L18.5 9.2203C18.5 8.72148 18.125 8 17 8C15.875 8 15.5 8.72148 15.5 9.2203L15.5 15.0302C15.5 15.5285 15.875 16.25 17 16.25Z" fill="rgb(0,88,188)" fill-rule="nonzero" />
		<path id="矢量 33" d="M22.4907 10.3497C21.9274 9.86685 21.0629 9.91367 20.56 10.4552C20.0573 10.9962 20.1066 11.8264 20.6701 12.3093C21.8354 13.3108 22.5645 14.7521 22.565 16.3694C22.5596 19.3742 20.0283 21.8056 16.9001 21.8104C13.7719 21.8055 11.2402 19.3742 11.2353 16.3694C11.2357 14.7445 11.9716 13.2979 13.1461 12.296C13.7116 11.8153 13.7636 10.9849 13.263 10.4425C12.762 9.89953 11.8982 9.84928 11.3331 10.3304L11.3327 10.3297C9.59909 11.8032 8.49951 13.9689 8.5 16.3694C8.5008 20.8259 12.2605 24.4368 16.9001 24.4375C21.5395 24.4368 25.2993 20.8259 25.3 16.3694C25.3005 13.9792 24.2113 11.8221 22.4907 10.3497Z" fill="rgb(0,88,188)" fill-rule="nonzero" />
	</g>
</svg>
