<svg viewBox="0 0 40 40" xmlns="http://www.w3.org/2000/svg" xmlns:xlink="http://www.w3.org/1999/xlink" width="40.000000" height="40.000000" fill="none" customFrame="#000000">
	<rect id="随音乐震动-点击亮起" width="40.000000" height="40.000000" x="0.000000" y="0.000000" />
	<circle id="椭圆 8" cx="20" cy="20" r="20" fill="rgb(1,89,188)" />
	<circle id="椭圆 8" cx="20" cy="20" r="19.5" stroke="rgb(255,255,255)" stroke-width="1.000000" />
	<g id="音乐震动">
		<path id="矢量 331" d="M9.01035 14.1541C5.64217 13.2422 4.18407 12.853 3.91339 12.7876C3.13966 12.6053 3.21882 13.1388 3.18817 7.81989L3.16264 3.26589L3.03496 3.27406C2.96601 3.27678 2.76428 3.30944 2.58808 3.34211C1.18361 3.61431 -0.348546 2.18523 0.0702424 0.998418C0.601389 -0.504156 3.0324 -0.256449 3.78571 1.37678L3.92871 1.6871L3.95425 5.36187L3.97979 9.03664L4.89908 9.28707C8.07829 10.1554 8.70392 10.3296 8.92353 10.4058C9.34743 10.5528 9.31678 10.7679 9.31678 7.64295L9.31678 4.85829L9.09973 4.89368C7.23561 5.21216 5.59621 3.76947 6.28312 2.41933C6.98025 1.05558 9.41127 1.52105 9.98582 3.12979C10.1186 3.50543 10.139 13.9064 10.0063 14.1078C9.8607 14.3338 9.69982 14.3392 9.01035 14.1541ZM9.30402 12.3467L9.31934 11.3558L9.12527 11.3014C9.02057 11.2715 8.4409 11.1108 7.8357 10.9475C5.34595 10.2697 4.68202 10.0874 4.44199 10.0139C4.30409 9.97031 4.13811 9.93492 4.07171 9.93492L3.95425 9.93492L3.95425 10.9149C3.95425 11.8812 3.9568 11.8975 4.06916 11.9492C4.133 11.9792 4.87354 12.1888 5.71623 12.4174C6.55891 12.6434 7.67483 12.9482 8.19321 13.0925C8.71414 13.2368 9.17378 13.3511 9.21464 13.3457C9.27848 13.3375 9.2938 13.1769 9.30402 12.3467Z" fill="rgb(255,255,255)" fill-rule="nonzero" transform="matrix(1,0,0,-1,14.6591,26.2856)" />
		<path id="矢量 332" d="M1.2176 7.09941C0.941814 6.89526 0.405561 5.8146 0.185952 5.0252C-0.237943 3.50084 0.0761482 1.67434 0.992886 0.354137C1.46275 -0.326379 1.999 0.062876 1.56489 0.770613C0.471954 2.56718 0.451525 4.60872 1.51382 6.2964C1.79727 6.74827 1.82025 6.90615 1.62618 7.06947C1.46785 7.20285 1.36316 7.21102 1.2176 7.09941Z" fill="rgb(255,255,255)" fill-rule="nonzero" transform="matrix(1,0,0,-1,12,22.7153)" />
		<path id="矢量 333" d="M0.115819 7.02073C-0.0603784 6.83291 -0.0373961 6.64509 0.197534 6.36471C1.26749 5.09352 1.28026 2.47218 0.22307 0.795393C-0.0450569 0.370752 -0.0578248 0.286369 0.115819 0.101269C0.687823 -0.508471 1.74756 1.759 1.74756 3.58822C1.74756 5.39839 0.687823 7.63047 0.115819 7.02073Z" fill="rgb(255,255,255)" fill-rule="nonzero" transform="matrix(1,0,0,-1,27.3559,22.6882)" />
		<path id="矢量 334" d="M0.676923 4.25408C-0.196404 3.47013 -0.232155 1.12646 0.613083 0.162858C0.985907 -0.261779 1.41746 0.222743 1.10082 0.715431C0.579887 1.53204 0.592655 2.95567 1.12635 3.67973C1.40214 4.05265 1.01144 4.5535 0.676923 4.25408Z" fill="rgb(255,255,255)" fill-rule="nonzero" transform="matrix(1,0,0,-1,13.9604,21.2991)" />
		<path id="矢量 335" d="M0.117441 4.21019C-0.0459883 4.03598 -0.0408811 3.91349 0.145531 3.60045C0.697106 2.67223 0.666463 1.5943 0.0612624 0.584415C-0.104721 0.306765 0.135317 -0.066156 0.428979 0.0100615C0.712428 0.086279 1.14398 0.990001 1.24613 1.72496C1.42999 3.05332 0.648588 4.77366 0.117441 4.21019Z" fill="rgb(255,255,255)" fill-rule="nonzero" transform="matrix(1,0,0,-1,25.9243,21.2932)" />
		<path id="矢量 336" d="M0.261445 1.63701C-0.0909503 1.43013 -0.0858432 0.289589 0.269105 0.0663807C0.598518 -0.140496 0.779823 0.139876 0.779823 0.855777C0.779823 1.47368 0.764501 1.53357 0.572982 1.63973C0.401892 1.73228 0.429981 1.73228 0.261445 1.63701Z" fill="rgb(255,255,255)" fill-rule="nonzero" transform="matrix(1,0,0,-1,15.8928,19.9749)" />
	</g>
</svg>
