<svg viewBox="0 0 55.7214 55.7212" xmlns="http://www.w3.org/2000/svg" xmlns:xlink="http://www.w3.org/1999/xlink" width="55.721375" height="55.721191" fill="none" customFrame="#000000">
	<defs>
		<g id="pixso_custom_effect_6">
			<effect x="2.000000" y="3.000000" visibility="visible" fill="rgb(0,0,0)" fill-opacity="0.180000007" effectType="dropShadow" stdDeviation="6" radius="-2" />
		</g>
		<filter id="filter_6" width="55.709167" height="55.709229" x="0.010132" y="0.004150" filterUnits="userSpaceOnUse" customEffect="url(#pixso_custom_effect_6)" color-interpolation-filters="sRGB">
			<feFlood flood-opacity="0" result="BackgroundImageFix" />
			<feOffset dx="565.000000" dy="3815.000000" in="SourceAlpha" />
			<feMorphology radius="2" operator="erode" />
			<feOffset dx="-563.000000" dy="-3812.000000" />
			<feGaussianBlur stdDeviation="2" />
			<feColorMatrix type="matrix" values="0 0 0 0 0 0 0 0 0 0 0 0 0 0 0 0 0 0 0.18 0 " />
			<feBlend result="effect_dropShadow_1" in2="BackgroundImageFix" mode="normal" />
			<feBlend result="shape" in="SourceGraphic" in2="effect_dropShadow_1" mode="normal" />
		</filter>
		<clipPath id="clipPath_37">
			<rect width="19.000000" height="13.000000" x="0.000000" y="0.000000" fill="rgb(255,255,255)" transform="matrix(0.819152,-0.573577,-0.573577,-0.819152,24.507,38.7544)" />
		</clipPath>
		<clipPath id="clipPath_38">
			<rect width="13.000000" height="19.000000" x="0.000000" y="0.000000" fill="rgb(255,255,255)" transform="matrix(0.573577,0.819152,0.819152,-0.573577,17.0504,28.1055)" />
		</clipPath>
	</defs>
	<rect id="座椅下降" width="40.008781" height="40.008781" x="0.000000" y="0.000000" transform="matrix(-0.573577,-0.819152,-0.819152,0.573577,55.7214,32.7732)" />
	<g filter="url(#filter_6)">
		<circle id="椭圆 8" cx="20" cy="20" r="20" fill="rgb(255,255,255)" transform="matrix(-0.573577,-0.819152,-0.819152,0.573577,55.7193,32.7703)" />
		<circle id="椭圆 8" cx="20" cy="20" r="19.5" stroke="rgb(1,89,188)" stroke-width="1.000000" transform="matrix(-0.573577,-0.819152,-0.819152,0.573577,55.7193,32.7703)" />
	</g>
	<g id="图层_x0020_1">
		<g id="Container" customFrame="url(#clipPath_37)">
			<rect id="Container" width="19.000000" height="13.000000" x="0.000000" y="0.000000" transform="matrix(0.819152,-0.573577,-0.573577,-0.819152,24.507,38.7544)" />
			<g id="Container" customFrame="url(#clipPath_38)">
				<rect id="Container" width="13.000000" height="19.000000" x="0.000000" y="0.000000" transform="matrix(0.573577,0.819152,0.819152,-0.573577,17.0504,28.1055)" />
				<path id="Icon" d="M8.08108 9.5L0 2.21667L2.45946 0L13 9.5L2.45946 19L0 16.7833L8.08108 9.5Z" fill="rgb(24,27,36)" fill-rule="nonzero" transform="matrix(0.573577,0.819152,0.819152,-0.573577,17.0504,28.1055)" />
			</g>
		</g>
	</g>
</svg>
