<svg viewBox="0 0 48 48" xmlns="http://www.w3.org/2000/svg" xmlns:xlink="http://www.w3.org/1999/xlink" width="48.000000" height="48.000000" fill="none" customFrame="#000000">
	<defs>
		<g id="pixso_custom_effect_5">
			<effect x="2.000000" y="3.000000" visibility="visible" fill="rgb(0,0,0)" fill-opacity="0.180000007" effectType="dropShadow" stdDeviation="6" radius="-2" />
		</g>
		<filter id="filter_5" width="48.000000" height="48.000000" x="0.000000" y="0.000000" filterUnits="userSpaceOnUse" customEffect="url(#pixso_custom_effect_5)" color-interpolation-filters="sRGB">
			<feFlood flood-opacity="0" result="BackgroundImageFix" />
			<feOffset dx="2.000000" dy="3.000000" in="SourceAlpha" />
			<feMorphology radius="2" operator="erode" />
			<feOffset dx="0.000000" dy="0.000000" />
			<feGaussianBlur stdDeviation="2" />
			<feColorMatrix type="matrix" values="0 0 0 0 0 0 0 0 0 0 0 0 0 0 0 0 0 0 0.18 0 " />
			<feBlend result="effect_dropShadow_1" in2="BackgroundImageFix" mode="normal" />
			<feBlend result="shape" in="SourceGraphic" in2="effect_dropShadow_1" mode="normal" />
		</filter>
		<clipPath id="clipPath_35">
			<rect width="19.000000" height="13.000000" x="0.000000" y="0.000000" fill="rgb(255,255,255)" transform="matrix(0,-1,1,0,15,30)" />
		</clipPath>
		<clipPath id="clipPath_36">
			<rect width="13.000000" height="19.000000" x="0.000000" y="0.000000" fill="rgb(255,255,255)" transform="matrix(-1,0,0,-1,28,30)" />
		</clipPath>
	</defs>
	<rect id="座椅抬升" width="40.000000" height="40.000000" x="2.000000" y="1.000000" />
	<g filter="url(#filter_5)">
		<circle id="椭圆 8" cx="22" cy="21" r="20" fill="rgb(255,255,255)" />
		<circle id="椭圆 8" cx="22" cy="21" r="19.5" stroke="rgb(1,89,188)" stroke-width="1.000000" />
	</g>
	<g id="图层_x0020_1">
		<g id="Container" customFrame="url(#clipPath_35)">
			<rect id="Container" width="19.000000" height="13.000000" x="0.000000" y="0.000000" transform="matrix(0,-1,1,0,15,30)" />
			<g id="Container" customFrame="url(#clipPath_36)">
				<rect id="Container" width="13.000000" height="19.000000" x="0.000000" y="0.000000" transform="matrix(-1,0,0,-1,28,30)" />
				<path id="Icon" d="M8.08108 9.5L0 2.21667L2.45946 0L13 9.5L2.45946 19L0 16.7833L8.08108 9.5Z" fill="rgb(24,27,36)" fill-rule="nonzero" transform="matrix(-1,0,0,-1,28,30)" />
			</g>
		</g>
	</g>
</svg>
