<svg viewBox="0 0 14.4 18" xmlns="http://www.w3.org/2000/svg" xmlns:xlink="http://www.w3.org/1999/xlink" width="14.400024" height="18.000000" fill="none" customFrame="#000000">
	<rect id="单曲循环" width="14.400024" height="18.000000" x="0.000000" y="0.000000" />
	<g id="图层_x0020_2">
		<path id="矢量 32" d="M9.41539 6.7543e-07L4.98462 6.7543e-07C2.24559 6.7543e-07 0 2.24622 0 4.98601L0 13.014C0 15.7538 2.24559 18 4.98462 18L9.41539 18C12.1544 18 14.4 15.7538 14.4 13.014L14.4 4.98601C14.4 4.54281 14.3396 4.10968 14.2288 3.6967C14.1785 3.52546 14.0576 3.39452 13.8864 3.34415C13.7152 3.29379 13.5239 3.31393 13.4031 3.44488L9.82825 7.3934C9.73762 7.49412 9.69734 7.62507 9.74769 7.74594C9.79804 7.86682 9.92895 7.93733 10.0599 7.92725L11.6006 7.75602C11.661 7.74594 11.7113 7.76609 11.7617 7.80638C11.802 7.84667 11.8322 7.89703 11.8322 7.95747L11.8322 13.014C11.8322 14.3436 10.7446 15.4214 9.42545 15.4214L4.99468 15.4214C3.66545 15.4214 2.58797 14.3335 2.58797 13.014L2.58797 4.98601C2.58797 3.65641 3.67552 2.57862 4.99468 2.57862L8.51916 2.57862C8.65007 2.57862 8.76084 2.53833 8.85147 2.44768L10.5432 0.966984C10.6943 0.836038 10.7547 0.644656 10.6943 0.443201C10.6439 0.251819 10.4929 0.1108 10.2915 0.080582C10.0095 0.0302182 9.71748 0 9.42545 0L9.41539 6.7543e-07Z" fill="rgb(1,89,188)" fill-rule="evenodd" />
		<path id="矢量 33" d="M8.29759 13.0745L6.97843 13.0745L6.97843 6.65819C6.65619 6.89994 6.2534 7.16183 5.72976 7.38343C5.19605 7.60503 5.02487 7.62517 4.59186 7.71583L4.59186 6.57761C5.35717 6.37615 5.7499 6.12434 6.27354 5.65092C6.77703 5.19764 7.04892 4.88539 7.28053 4.5127L8.29759 4.5127L8.29759 13.0745Z" fill="rgb(1,89,188)" fill-rule="nonzero" />
		<rect id="矩形 20" width="6.062098" height="0.977057" x="4.511353" y="12.137695" fill="rgb(1,89,188)" />
		<rect id="矩形 20" width="6.062098" height="0.977057" x="4.511353" y="12.137695" stroke="rgb(1,89,188)" stroke-width="0.746437" />
	</g>
</svg>
