<svg viewBox="0 0 242 245" xmlns="http://www.w3.org/2000/svg" xmlns:xlink="http://www.w3.org/1999/xlink" width="242.000000" height="245.000000" fill="none">
	<rect id="沙发 1" width="242.000000" height="245.000000" x="0.000000" y="0.000000" />
	<g id="组合 70">
		<path id="矢量 331" d="M113.764 218.861C109.439 218.424 104.249 217.433 102.795 216.758C100.475 215.727 97.6046 212.395 96.0318 208.984C94.3411 205.296 92.4932 198.196 91.5102 191.533C90.5666 184.988 90.5666 182.371 91.5102 179.792L92.2966 177.77L91.1564 176.302C90.5273 175.509 89.1511 173.01 88.0895 170.71C84.7082 163.451 76.6086 141.161 76.6086 139.138C76.6086 138.662 76.412 138.543 75.7436 138.781C68.627 141.081 28.5616 135.291 13.542 129.817C9.88535 128.508 7.21171 126.485 6.38602 124.423C5.08852 121.289 6.11079 116.966 8.39126 115.895C9.57081 115.38 9.64944 114.943 8.62717 114.586C7.44762 114.229 3.59442 109.787 2.45419 107.566C0.684861 104.076 0.252359 102.093 0.0557678 96.5398C-0.534007 81.5075 3.67305 51.7206 7.05443 46.9213C7.56557 46.2074 8.90239 45.3745 10.9469 44.5416L14.0531 43.2327L14.1711 41.2495C14.289 39.306 14.3283 39.1871 16.0583 38.3541C17.0413 37.8782 19.4004 36.8469 21.327 36.0537L24.787 34.6258L27.5 35.6967C29.977 36.6883 30.4095 37.0453 30.2523 37.9178C30.1736 38.4335 30.8027 38.2748 32.8473 37.4022C35.9927 36.014 52.9389 29.43 64.8131 24.9877C70.9861 22.6476 76.4906 20.5454 77.1197 20.3075C78.1027 19.9108 78.1813 19.7125 78.1813 17.65C78.1813 16.4205 78.3386 15.1909 78.4958 14.9133C78.6924 14.6753 80.619 13.7234 82.8209 12.8508L86.8707 11.2643L88.522 12.2955C89.4264 12.8905 90.6059 13.6044 91.1564 13.9614C91.7068 14.3183 92.7291 14.5563 93.4368 14.477C94.1446 14.4373 95.1668 14.6357 95.678 14.9926C96.9362 15.8255 96.9362 15.8255 97.2507 14.477C97.5652 13.0491 99.3346 11.2246 100.947 10.6694C102.165 10.2727 102.205 10.1934 102.323 7.73429C102.401 6.1081 102.598 5.11653 102.991 4.87855C103.306 4.68024 106.097 3.49035 109.203 2.26079L114.865 0L118.05 1.70551C124.026 4.95788 123.791 4.7199 123.83 7.02035L123.83 9.08283L130.75 12.4542C137.867 15.9049 156.15 25.7413 160.986 28.716L163.659 30.3422L165.783 29.5489C166.962 29.073 168.22 28.716 168.613 28.716C169.007 28.716 170.855 29.6283 172.703 30.7388L176.084 32.8013L176.084 35.4587C176.084 37.9178 176.163 38.1558 177.106 38.5524C178.522 39.2267 184.616 43.2723 186.582 44.8589C187.997 46.0091 188.391 46.6834 189.216 49.2615C191.497 56.5595 194.917 82.5784 195.075 93.7237C195.114 98.2056 194.524 100.427 192.912 101.418C191.969 102.013 192.008 102.37 193.03 102.688C194.013 103.005 195.35 105.742 195.35 107.447C195.35 108.994 194.131 111.572 192.873 112.722C191.929 113.635 191.929 113.674 192.48 115.499C193.305 118.315 196.687 135.291 198.26 144.73C201.13 161.984 204 184.235 204 189.431C204 192.167 203.214 193.992 201.484 195.102C200.619 195.697 200.579 195.816 201.09 196.848C202.349 199.426 202.427 203.749 201.248 205.97C200.579 207.279 197.395 209.857 195.114 210.928C188.902 213.903 174.747 216.401 154.262 218.147C147.264 218.742 117.657 219.257 113.764 218.861ZM150.134 216.758C177.696 214.617 193.109 211.563 197.827 207.239C200.383 204.899 200.972 202.519 200.029 198.117C199.636 196.173 199.557 196.094 198.574 196.411C196.372 197.006 194.524 196.689 193.541 195.578C192.087 193.873 190.75 188.36 188.076 172.891C185.481 157.819 183.043 146.119 180.016 133.823C178.522 127.715 176.595 121.131 176.281 121.131C176.202 121.131 175.022 121.448 173.646 121.805C170.501 122.678 159.845 122.757 154.655 121.964C139.321 119.663 120.252 114.388 110.422 109.748L106.648 108.002L102.559 108.994C95.9532 110.58 86.7527 112.405 85.18 112.405C84.3936 112.405 83.6466 112.564 83.4893 112.762C82.7029 114.071 82.6243 117.323 83.1747 122.559C83.5286 125.652 83.6859 128.944 83.5286 129.936C83.1747 132.236 81.1302 135.727 79.3609 136.917C77.7095 138.027 77.7095 137.789 79.9506 144.651C84.4329 158.533 90.5273 173.208 93.0043 176.183C94.1052 177.413 94.1446 177.452 95.2848 176.818C96.7002 176.064 105.979 173.486 111.209 172.375C120.134 170.472 136.726 168.369 154.026 166.942C158.941 166.545 163.738 166.466 170.579 166.624C182.965 166.942 181.274 167.418 166.058 167.933C151.235 168.369 136.333 169.758 120.449 172.137C110.029 173.684 108.771 174.041 104.407 176.699C102.283 177.968 100.435 179.039 100.318 179.039C99.885 179.039 102.048 177.532 104.525 176.143C105.94 175.35 106.962 174.676 106.766 174.676C106.333 174.676 98.3123 176.58 95.9925 177.254C94.0659 177.849 93.948 177.928 93.2795 179.951C91.0777 186.456 95.3241 206.803 100.042 212.514C102.401 215.291 105.193 216.322 112.703 217.076C117.146 217.552 142.821 217.314 150.134 216.758ZM198.299 194.864C199.125 194.626 200.461 193.793 201.208 193.04L202.545 191.691L202.309 187.646C201.366 172.97 195.271 134.18 191.182 117.125L190.553 114.507L187.958 116.252C185.56 117.799 180.959 119.862 178.364 120.536L177.342 120.814L178.05 122.44C180.252 127.437 185.599 150.838 188.233 166.743C189.374 173.605 192.676 191.017 193.069 192.167C193.62 193.912 194.878 195.301 195.9 195.301C196.372 195.301 197.434 195.102 198.299 194.864ZM76.412 136.679C81.5627 134.299 82.7816 130.769 81.5234 121.964C80.8943 117.522 80.8943 115.737 81.5627 113.317C81.7986 112.524 81.6806 112.405 80.5404 112.405C75.7829 112.405 43.935 106.575 33.3584 103.758C31.0779 103.163 28.9154 102.727 28.5616 102.807C28.2077 102.886 27.1068 104.472 26.1238 106.456C23.9613 110.66 22.8211 112.088 20.5799 113.397C18.4961 114.666 14.0924 116.213 11.6547 116.57C8.74512 117.006 7.4083 118.989 7.72284 122.36C7.88012 123.868 7.91944 123.907 8.58785 123.312C8.94171 122.955 10.829 122.241 12.7556 121.726C17.3952 120.496 18.9286 119.782 21.7988 117.72C25.2981 115.221 27.1854 112.008 28.6402 106.059C29.112 104.195 29.3872 103.52 29.3872 104.274C29.4659 107.725 26.7529 113.952 24.0006 116.728C21.9954 118.711 18.732 120.655 15.7831 121.527L14.1317 122.043L14.7215 123.193C15.0754 123.868 15.2326 124.502 15.1147 124.621C14.9574 124.74 14.6429 124.264 14.407 123.59C13.8565 122.162 13.4633 122.083 10.6324 122.916C8.31262 123.63 7.99807 124.423 9.49217 125.811C12.559 128.746 29.7411 133.069 48.8891 135.766C64.4592 137.988 72.952 138.226 76.412 136.679ZM173.607 120.179C181.746 118.394 190.042 114.11 192.48 110.461C194.17 107.963 193.384 103.679 191.261 103.679C190.789 103.679 189.256 104.115 187.919 104.671C184.577 106.059 179.465 107.249 176.87 107.249C170.658 107.249 155.403 102.886 139.715 96.5398C136.058 95.0722 132.087 93.565 130.907 93.2081C127.998 92.3355 124.302 92.4148 119.426 93.4064C110.265 95.3102 105.39 93.4857 100.75 86.4654L99.2953 84.2442L98.0764 85.1565C96.0318 86.743 95.4027 88.3692 95.6386 91.5422C95.9139 95.3895 97.3293 98.0866 100.789 101.498C104.013 104.671 106.294 106.138 112.27 108.835C122.257 113.278 142.742 118.83 154.655 120.298C156.621 120.536 158.627 120.814 159.177 120.893C161.261 121.25 170.894 120.774 173.607 120.179ZM14.7215 113.952C20.5013 112.167 22.1527 110.779 24.5511 105.9C25.2981 104.353 26.0845 102.926 26.3204 102.727C26.8316 102.172 26.7529 101.696 26.1631 101.696C24.9443 101.696 19.8329 98.8006 18.2602 97.1744C16.9233 95.8258 16.2942 94.7946 15.6651 92.6925C13.424 85.4738 14.6822 75.5977 18.2208 72.8213C19.3611 71.909 19.4004 71.6314 18.614 70.7588C18.2995 70.4018 17.749 68.974 17.3952 67.5858C15.9011 61.676 18.1815 46.0884 20.8945 43.8276C21.9561 42.955 21.6809 42.4791 20.3047 42.7567C18.614 43.074 9.80672 46.9213 8.82376 47.7146C6.26807 49.8961 2.96532 68.8153 1.86441 87.8139C1.11736 99.9111 2.10032 105.028 6.11079 109.946C7.52625 111.651 11.1042 114.785 11.7333 114.785C11.8906 114.785 13.2667 114.388 14.7215 113.952ZM87.8143 110.62C92.3752 109.906 104.918 107.13 104.918 106.852C104.878 106.733 103.896 106.019 102.677 105.266C93.6334 99.5145 90.6845 87.1793 97.4866 83.6096C98.1157 83.2923 98.6268 82.856 98.6268 82.6181C98.6268 82.3801 97.3687 80.9919 95.8352 79.564C92.6111 76.4703 91.2743 74.4078 89.9375 70.5605C88.6793 66.8322 88.5613 58.6219 89.7409 55.4886C90.5666 53.3468 91.982 50.9273 92.4146 50.9273C92.5718 50.9273 92.2573 51.5619 91.7461 52.3552C88.6007 57.0354 88.4434 66.6339 91.4316 73.0593C92.2966 74.9234 96.543 80.1193 96.8968 79.7623C96.9755 79.683 96.6216 77.9378 96.1105 75.8753C95.0096 71.5124 94.3018 63.7385 94.3018 56.0835C94.3018 51.4429 94.2232 50.5703 93.6727 50.372C92.4539 49.8961 89.7016 50.1737 85.8484 51.1256C76.3333 53.5847 28.6402 69.1326 23.4895 71.4727C17.8277 74.0508 16.3336 76.7479 16.3336 84.4426C16.2942 93.684 18.1422 96.8571 25.1802 99.6731C31.0386 102.053 52.1919 106.694 68.7449 109.192C73.1879 109.867 77.7881 110.58 78.9677 110.779C82.2311 111.294 83.9218 111.255 87.8143 110.62ZM180.724 105.028C185.638 103.996 189.806 102.212 191.733 100.308L193.384 98.6419L193.384 94.4773C193.384 84.0063 189.138 52.3948 187.172 48.2302C186.661 47.1593 185.442 46.0884 182.375 43.9863C177.264 40.5356 161.3 30.8975 152.1 25.7016C142.86 20.5058 122.414 10.0744 118.404 8.52755L115.141 7.29799L108.221 9.83643C104.407 11.2643 100.868 12.6922 100.357 13.0491C99.2166 13.7631 98.4696 16.2222 97.6439 21.9733C95.4027 37.0056 95.2848 64.4921 97.4473 74.3285C98.8234 80.7539 101.104 85.1962 104.8 88.8451C108.653 92.6131 111.484 93.1288 120.016 91.5819C128.194 90.1144 127.015 89.8764 145.298 96.8967C159.02 102.132 170.186 105.266 176.595 105.623C177.185 105.623 179.072 105.385 180.724 105.028ZM23.5681 69.8069C28.247 67.7841 66.6217 55.0919 81.5234 50.6893C86.5954 49.1821 88.4434 48.8252 91.0384 48.7855L94.3018 48.7458L94.3018 44.1846C94.3018 36.6486 95.5993 21.4974 96.5037 18.126C96.8182 17.0154 95.0096 15.9842 93.3189 16.3015C91.9034 16.5791 75.3111 22.8459 46.3335 34.0705C28.9154 40.8529 23.4502 43.1534 22.3099 44.2639C19.0858 47.4766 17.1986 64.4524 19.5577 69.093C20.0295 70.0052 20.6586 70.7588 20.9338 70.7588C21.209 70.7588 22.4279 70.3225 23.5681 69.8069ZM17.2772 41.9238C18.0636 41.4875 19.479 41.2099 20.6979 41.2099L22.7424 41.2099L22.7424 39.1474L22.7424 37.0849L19.3218 38.5128C17.3952 39.306 15.8617 39.9803 15.8224 39.9803C15.7831 40.02 15.6651 40.6149 15.5472 41.3289C15.272 42.7964 15.4292 42.8361 17.2772 41.9238ZM27.382 39.7423C28.4829 39.2664 29.4266 38.6714 29.4266 38.3541C29.4266 37.7989 26.6743 36.4106 25.0622 36.1727C24.1579 36.0537 24.1186 36.1727 24.0006 38.5921C23.922 40.8529 23.9613 41.0909 24.5904 40.8132C24.9836 40.6546 26.2418 40.1786 27.382 39.7423ZM174.904 35.8554C174.904 34.0705 174.59 33.6739 171.444 31.6511L169.361 30.3025L169.518 32.127C169.596 33.1583 169.911 34.1102 170.226 34.2688C170.54 34.4672 171.68 35.2208 172.742 35.9744C173.843 36.728 174.747 37.3626 174.826 37.4022C174.865 37.4419 174.904 36.7279 174.904 35.8554ZM168.771 31.6114L168.535 30.0249L166.766 30.6198L165.036 31.2148L166.883 32.3254C167.945 32.9203 168.849 33.3566 168.928 33.3169C168.967 33.2376 168.928 32.484 168.771 31.6114ZM86.5168 15.0323C86.5954 13.9614 86.6741 13.0095 86.6741 13.0095C86.6348 12.9698 85.1407 13.5251 83.2927 14.239L79.9506 15.5082L79.8327 17.5311L79.7147 19.5142L83.0568 18.245L86.3595 17.0154L86.5168 15.0323ZM91.0777 15.0323C90.9991 14.9926 90.2127 14.5563 89.3084 14.0804L87.6177 13.2474L87.6177 14.7943L87.6177 16.3808L89.4264 15.7462C90.4093 15.4289 91.1564 15.1116 91.0777 15.0323ZM105.036 9.20182C105.508 8.96384 107.827 8.09125 110.147 7.25833L114.433 5.75114L114.511 3.76799L114.629 1.78484L112.624 2.61776C111.523 3.05405 109.203 3.9663 107.473 4.64057C105.743 5.31484 104.289 5.87013 104.289 5.87013C104.092 5.98911 103.738 9.67778 103.935 9.67778C104.053 9.67778 104.564 9.47946 105.036 9.20182ZM122.611 7.17901C122.611 5.98911 122.414 5.7908 119.112 4.00596C117.224 2.97473 115.573 2.1418 115.494 2.1418C115.416 2.1418 115.376 2.93506 115.455 3.88698L115.612 5.63215L118.797 7.02035C120.566 7.77395 122.139 8.40856 122.336 8.44822C122.493 8.48789 122.611 7.89294 122.611 7.17901Z" fill="rgb(0,0,0)" fill-rule="nonzero" transform="matrix(1,0,0,-1,26,235)" />
		<path id="矢量 332" d="M10.0328 42.3601C10.6225 41.9635 10.5439 41.8048 9.32503 40.9719C8.06684 40.139 7.90957 40.0993 6.84798 40.6546C6.21888 40.9719 5.47183 41.2495 5.19661 41.2099C4.92138 41.2099 5.35388 40.9322 6.17956 40.5753L7.63434 39.9803L6.29752 38.1162C5.55047 37.0849 4.56751 35.3397 4.13501 34.2292C2.09046 28.9937 0.12454 17.8087 0.00658505 11.1056C-0.0327333 7.06002 0.0852218 6.34608 0.871589 4.64057C1.81523 2.77641 4.68547 0 5.70774 0C6.02229 0 5.58979 0.39663 4.80342 0.912249C0.674997 3.45068 -0.0720516 6.98069 1.14682 17.65C3.07342 34.1499 6.88729 41.6065 13.4535 41.6462C14.751 41.6462 16.1271 41.3289 17.1887 40.8132L18.8401 40.02L17.8571 40.8132C16.5596 41.8841 14.0826 42.5584 12.3919 42.2808C11.6841 42.1618 10.7012 42.2411 10.2294 42.4791C9.56094 42.7964 9.52162 42.7567 10.0328 42.3601Z" fill="rgb(0,0,0)" fill-rule="nonzero" transform="matrix(1,0,0,-1,205.459,69.8433)" />
		<path id="矢量 333" d="M1.25242 0.45378C2.19606 0.136477 3.06106 -0.0618377 3.13969 0.0174881C3.33628 0.215802 0.819922 1.04872 0.112195 1.00906C-0.241668 1.00906 0.269468 0.73142 1.25242 0.45378Z" fill="rgb(0,0,0)" fill-rule="nonzero" transform="matrix(1,0,0,-1,206.729,33.2122)" />
		<path id="矢量 334" d="M0.040931 0.452155C0.119568 0.372829 0.905933 0.214177 1.77094 0.0951874C2.83253 -0.0634647 3.14708 -0.0238017 2.75389 0.214177C2.20344 0.571144 -0.352252 0.809122 0.040931 0.452155Z" fill="rgb(0,0,0)" fill-rule="nonzero" transform="matrix(1,0,0,-1,204.048,40.7068)" />
		<path id="矢量 335" d="M6.18259 1.64403C5.19963 1.32672 3.39099 0.890435 2.13281 0.652459C0.874621 0.37482 -0.108337 0.0971813 0.00961839 0.017856C0.20621 -0.180457 7.44078 1.32672 8.69896 1.84234C9.48533 2.15964 9.48533 2.1993 8.73828 2.15964C8.30578 2.15964 7.16555 1.92166 6.18259 1.64403Z" fill="rgb(0,0,0)" fill-rule="nonzero" transform="matrix(1,0,0,-1,184.892,66.1328)" />
		<path id="矢量 336" d="M14.8386 56.9812C13.3445 54.9187 10.3564 48.6916 8.39044 43.5751C2.57132 28.3445 -1.00665 10.8531 0.251538 3.43614C0.526766 1.84962 0.959268 0.382086 1.19518 0.144108C1.50972 -0.133533 1.54904 -0.0145444 1.35245 0.540738C0.0549458 3.99142 0.330174 12.4396 1.94223 20.0549C4.96974 34.175 10.9461 50.7938 15.0746 56.4656C16.1755 58.0124 16.5687 58.647 16.2934 58.647C16.1755 58.647 15.5071 57.8934 14.8386 56.9812Z" fill="rgb(0,0,0)" fill-rule="nonzero" transform="matrix(1,0,0,-1,121.151,123.731)" />
		<path id="矢量 337" d="M15.6769 45.3413C12.2169 41.018 7.93119 31.4196 4.7464 20.8296C2.07276 11.945 -0.758164 -0.866098 0.185476 0.0461508C0.264112 0.16514 0.735933 2.18795 1.16843 4.6074C4.15663 20.1553 9.81847 36.0205 15.4017 44.3497C16.5419 46.0156 16.6992 46.6105 15.6769 45.3413Z" fill="rgb(0,0,0)" fill-rule="nonzero" transform="matrix(1,0,0,-1,163.563,115.462)" />
		<path id="矢量 338" d="M15.3317 41.0572C11.7537 39.0741 10.7314 36.6943 5.9346 19.5202C4.55846 14.5227 2.59254 8.09729 1.60958 5.28121C-0.356342 -0.350935 -0.592252 -2.01678 1.29503 2.9411C2.63186 6.4711 4.59777 12.9758 8.05779 25.2714C10.928 35.4251 12.4615 38.7171 15.0958 40.4226C16.7865 41.4935 16.9831 41.9695 15.3317 41.0572Z" fill="rgb(0,0,0)" fill-rule="nonzero" transform="matrix(1,0,0,-1,192.453,110.98)" />
		<path id="矢量 339" d="M0.428712 0.356967C-0.0824173 0.158652 -0.121735 0 0.232124 0C0.546665 0 1.17575 0.158652 1.60824 0.356967C2.11937 0.555283 2.15869 0.713935 1.80483 0.713935C1.49029 0.713935 0.861207 0.555283 0.428712 0.356967Z" fill="rgb(0,0,0)" fill-rule="nonzero" transform="matrix(1,0,0,-1,184.552,111.053)" />
		<path id="矢量 340" d="M0.70773 1.2333C-0.23591 -0.0359254 -0.23591 -0.392894 0.70773 0.479696C1.2975 1.03498 1.76932 1.51094 1.76932 1.59027C1.76932 1.90757 1.02228 1.66959 0.70773 1.2333Z" fill="rgb(0,0,0)" fill-rule="nonzero" transform="matrix(1,0,0,-1,44.2208,113.595)" />
		<path id="矢量 341" d="M0.901255 0.753596C0.154208 0.317304 -0.199656 0 0.11489 0C0.429436 0 1.13716 0.317304 1.68762 0.753596C2.90649 1.74517 2.67058 1.74517 0.901255 0.753596Z" fill="rgb(0,0,0)" fill-rule="nonzero" transform="matrix(1,0,0,-1,48.6276,115.813)" />
		<path id="矢量 342" d="M1.10092 0.859826C0.471821 0.661513 0 0.304549 0 0.106235C0 -0.0920783 0.550458 -0.0127529 1.17955 0.344211C1.84797 0.701176 2.3591 1.05814 2.3591 1.13747C2.3591 1.25645 2.31979 1.33578 2.28047 1.29612C2.20183 1.29612 1.69069 1.0978 1.10092 0.859826Z" fill="rgb(0,0,0)" fill-rule="nonzero" transform="matrix(1,0,0,-1,53.4607,121.154)" />
		<path id="矢量 343" d="M71.9886 27.4851C63.2993 25.6606 52.2508 22.1703 41.1237 17.7677C30.3898 13.5237 30.2719 13.4841 22.1723 14.8723C17.5721 15.6655 16.6677 15.7052 13.8761 15.3086C7.74248 14.3963 3.33882 11.5009 1.21563 7.05866C-0.00323498 4.52023 -0.3571 1.34719 0.389948 0.157296C0.625858 -0.239334 0.704495 0.117633 0.547222 1.18854C0.271993 3.33034 1.37291 6.90001 2.98496 9.00215C4.47906 11.025 7.66384 12.9685 11.1239 14.0394C14.2693 14.9913 18.0439 14.9516 24.5314 13.8014C29.5248 12.9288 30.7437 13.0874 37.0346 15.5069C39.2758 16.3795 43.2469 17.9263 45.8419 18.9576C56.222 22.9635 68.5679 26.4935 75.8025 27.4851C81.1105 28.2387 86.9296 27.3265 92.5915 24.907C95.0292 23.8758 94.636 24.5104 92.1196 25.621C86.3792 28.2387 78.7907 28.9527 71.9886 27.4851Z" fill="rgb(0,0,0)" fill-rule="nonzero" transform="matrix(1,0,0,-1,123.411,149.287)" />
		<path id="矢量 344" d="M0.276003 1.43278C-0.274448 -0.114069 0.0794132 -0.590023 0.629863 0.917164C0.86577 1.51211 1.141 2.18637 1.25895 2.34502C1.3769 2.54334 1.29827 2.70199 1.10168 2.70199C0.86577 2.70199 0.51191 2.14671 0.276003 1.43278Z" fill="rgb(0,0,0)" fill-rule="nonzero" transform="matrix(1,0,0,-1,144.049,133.229)" />
		<path id="矢量 345" d="M0.0554162 1.36743C-0.0625388 0.851811 0.0160978 0.296526 0.212689 0.0982092C0.487918 -0.179434 0.605873 0.137872 0.605873 0.970801C0.605873 2.43834 0.409281 2.59699 0.0554162 1.36743Z" fill="rgb(0,0,0)" fill-rule="nonzero" transform="matrix(1,0,0,-1,137.389,133.164)" />
		<path id="矢量 346" d="M0.45095 1.38821C-0.0995168 0.158653 -0.138836 0 0.293674 0C0.45095 0 0.804822 0.555285 1.04074 1.1899C1.5912 2.61777 1.08006 2.77643 0.45095 1.38821Z" fill="rgb(0,0,0)" fill-rule="nonzero" transform="matrix(1,0,0,-1,149.025,134.097)" />
		<path id="矢量 347" d="M0 1.42594C0 1.1483 0.196587 0.632675 0.393175 0.315369C0.707715 -0.16059 0.78635 -0.120926 0.78635 0.593012C0.78635 1.06897 0.62908 1.58459 0.393175 1.70358C0.196587 1.82257 0 1.70358 0 1.42594Z" fill="rgb(0,0,0)" fill-rule="nonzero" transform="matrix(1,0,0,-1,133.67,134.016)" />
		<path id="矢量 348" d="M0.22937 0.991584C-0.00653699 0.436297 -0.0851728 0 0.111417 0C0.268688 0 0.62255 0.436297 0.858457 0.991584C1.09436 1.54687 1.173 1.98317 0.976411 1.98317C0.819139 1.98317 0.465278 1.54687 0.22937 0.991584Z" fill="rgb(0,0,0)" fill-rule="nonzero" transform="matrix(1,0,0,-1,153.572,134.097)" />
		<path id="矢量 349" d="M0 1.5766C0 1.2593 0.196593 0.704016 0.393186 0.386713C0.747054 -0.128904 0.786372 -0.128904 0.786372 0.386713C0.786372 0.704016 0.589779 1.2593 0.393186 1.5766C0.0393186 2.09222 0 2.09222 0 1.5766Z" fill="rgb(0,0,0)" fill-rule="nonzero" transform="matrix(1,0,0,-1,130.131,135.277)" />
		<path id="矢量 350" d="M7.54063 64.3676C2.66515 60.4806 -0.519634 49.4147 0.0701414 38.5073C1.01378 21.5316 1.83947 13.4007 3.25493 7.01493C4.23789 2.73132 5.29948 -0.36239 5.69267 0.0342403C5.81062 0.153229 5.65335 0.748174 5.3388 1.38278C3.80538 4.39717 2.31129 13.8766 1.28901 27.2827C0.306051 40.0145 0.227415 42.9099 0.699235 46.4003C1.9181 54.8882 3.8447 59.727 7.73722 63.8917C9.38859 65.5972 9.30995 65.7558 7.54063 64.3676Z" fill="rgb(0,0,0)" fill-rule="nonzero" transform="matrix(1,0,0,-1,39.3539,191.127)" />
		<path id="矢量 351" d="M5.50257 2.6825C9.04122 2.0479 13.7201 1.17531 15.8826 0.699359C18.0058 0.223404 19.8931 -0.0938992 20.011 0.0250895C20.129 0.144078 19.5392 0.382056 18.7135 0.501044C17.8485 0.659696 16.669 0.937336 16.0006 1.09599C14.1526 1.65127 1.17755 3.87239 0.0766401 3.83273C-0.473817 3.83273 2.00324 3.27745 5.50257 2.6825Z" fill="rgb(0,0,0)" fill-rule="nonzero" transform="matrix(1,0,0,-1,75.4023,135.193)" />
		<path id="矢量 352" d="M0 6.30415C0 6.22482 1.29751 5.82819 2.87024 5.47123C7.43117 4.36066 18.0864 1.42559 20.6421 0.513344C21.9396 0.0770506 22.8046 -0.121265 22.608 0.0770505C22.0969 0.59267 14.5085 2.89313 7.0773 4.87628C1.21887 6.38348 0 6.66112 0 6.30415Z" fill="rgb(0,0,0)" fill-rule="nonzero" transform="matrix(1,0,0,-1,95.9245,141.75)" />
		<path id="矢量 353" d="M0 19.8068C0 18.8152 11.8348 14.7299 26.5399 10.724C28.5058 10.1687 33.3419 8.82015 37.3524 7.70958C54.8491 2.7517 69.5541 -0.738647 69.0037 0.13394C68.925 0.292592 67.8635 0.530571 66.6446 0.689223C62.988 1.12552 48.0077 5.09182 21.2319 12.6675C10.5373 15.7215 4.01047 17.9823 0.314547 19.8861C0.117955 19.9655 0 19.9258 0 19.8068Z" fill="rgb(0,0,0)" fill-rule="nonzero" transform="matrix(1,0,0,-1,45.2038,163.185)" />
		<path id="矢量 354" d="M7.65104 14.7741C0.652372 11.7201 0.180552 11.1251 0.0232781 5.53265C-0.0553586 2.24062 0.0232781 1.92332 0.9276 0.931742C1.75329 0.0194926 2.14647 -0.0994964 3.48329 0.0591556C5.17398 0.217808 13.1556 3.8668 14.4138 5.01703C15.672 6.16726 16.3011 7.83311 16.537 10.6492C16.8122 13.7826 16.537 15.1311 15.4754 16.202C14.2958 17.3919 13.0377 17.1539 7.65104 14.7741ZM15.0822 15.4087C16.5763 13.9015 15.8686 7.79344 14.0206 5.81029C12.959 4.69973 4.30898 0.733427 2.93284 0.733427C1.55669 0.733427 0.9276 2.20096 0.9276 5.61198C0.9276 8.78502 1.43874 10.3715 2.73624 11.4821C3.60125 12.196 12.6838 16.1227 13.6274 16.1623C13.9813 16.202 14.6497 15.845 15.0822 15.4087Z" fill="rgb(0,0,0)" fill-rule="nonzero" transform="matrix(1,0,0,-1,159.086,161.008)" />
		<path id="矢量 355" d="M6.45198 10.3917C0.79014 7.97226 0.750821 7.9326 0.357638 6.1081C-0.428729 2.73675 0.121727 0 1.61582 0C2.55947 0 10.3052 3.53001 11.1309 4.32327C11.6027 4.83888 11.9566 5.98911 12.1531 7.97226C12.4677 10.9073 12.1925 12.2955 11.2488 12.2955C10.9736 12.2559 8.81108 11.4229 6.45198 10.3917ZM11.524 11.1453C11.9959 10.3917 11.2488 5.47349 10.5411 4.79922C9.44018 3.80765 1.96969 0.674271 1.30128 0.951912C0.79014 1.15023 0.672184 1.70551 0.829458 3.9663C0.908095 5.47349 1.18332 6.94102 1.37991 7.13934C1.81242 7.57563 10.5018 11.4626 11.0522 11.5023C11.2095 11.5023 11.4061 11.3436 11.524 11.1453Z" fill="rgb(0,0,0)" fill-rule="nonzero" transform="matrix(1,0,0,-1,161.228,158.688)" />
		<path id="矢量 356" d="M13.5648 79.9215C10.9305 78.1366 7.5098 74.5669 5.70116 71.6319C1.37614 64.5719 0 55.3701 0 33.7934C0 15.6277 1.25819 -1.30838 2.51637 0.0798295C2.59501 0.159156 2.43774 1.58702 2.12319 3.21321C1.10091 9.20232 0.70773 20.5459 0.904321 37.3234C1.10091 54.6958 1.41546 58.5431 3.18478 64.4925C4.95411 70.4817 9.16117 76.3914 13.8007 79.3662C14.8623 80.0801 15.7273 80.7147 15.7273 80.794C15.7273 81.1907 15.0196 80.8734 13.5648 79.9215Z" fill="rgb(0,0,0)" fill-rule="nonzero" transform="matrix(1,0,0,-1,138.781,226.156)" />
		<path id="矢量 357" d="M1.37614 27.9221C0.23591 24.9078 0 23.0833 0 18.284C0.0393183 10.7481 1.61205 2.81547 3.49933 0.39603C4.01047 -0.238578 4.01047 -0.159252 3.49933 0.990975C1.84796 4.40199 0.865003 9.7565 0.668411 16.6975C0.511138 22.7263 0.550456 23.7179 1.2975 26.0183C2.08387 28.4774 2.12319 29.9053 1.37614 27.9221Z" fill="rgb(0,0,0)" fill-rule="nonzero" transform="matrix(1,0,0,-1,116.606,217.627)" />
	</g>
</svg>
