<svg viewBox="0 0 70 70" xmlns="http://www.w3.org/2000/svg" xmlns:xlink="http://www.w3.org/1999/xlink" width="70.000000" height="70.000000" fill="none" customFrame="#000000">
	<defs>
		<clipPath id="clipPath_25">
			<rect width="14.000000" height="24.000000" x="28.000000" y="23.000000" fill="rgb(255,255,255)" />
		</clipPath>
		<clipPath id="clipPath_26">
			<rect width="25.000000" height="25.000000" x="28.000000" y="23.000000" fill="rgb(255,255,255)" />
		</clipPath>
		<clipPath id="clipPath_27">
			<rect width="13.888888" height="24.000000" x="28.000000" y="23.000000" fill="rgb(255,255,255)" />
		</clipPath>
	</defs>
	<rect id="慢热-未选中" width="67.339653" height="70.000000" x="0.000000" y="0.000000" />
	<circle id="椭圆 8" cx="35" cy="35" r="35" fill="rgb(242,244,246)" />
	<g id="Margin" customFrame="url(#clipPath_25)">
		<rect id="Margin" width="14.000000" height="24.000000" x="28.000000" y="23.000000" />
		<g id="组合 24">
			<g id="图层_x0020_1">
				<g id="Container" customFrame="url(#clipPath_26)">
					<rect id="Container" width="25.000000" height="25.000000" x="28.000000" y="23.000000" />
					<g id="Container" customFrame="url(#clipPath_27)">
						<rect id="Container" width="13.888888" height="24.000000" x="28.000000" y="23.000000" />
						<path id="Icon" d="M34.9444 47C33.0231 47 31.3854 46.35 30.0312 45.05C28.6771 43.75 28 42.1778 28 40.3333C28 39.2667 28.2431 38.2722 28.7292 37.35C29.2153 36.4278 29.8981 35.6444 30.7778 35L30.7778 27C30.7778 25.8889 31.1829 24.9444 31.9931 24.1667C32.8032 23.3889 33.787 23 34.9444 23C36.1019 23 37.0856 23.3889 37.8958 24.1667C38.706 24.9444 39.1111 25.8889 39.1111 27L39.1111 35C39.9907 35.6444 40.6736 36.4278 41.1597 37.35C41.6458 38.2722 41.8889 39.2667 41.8889 40.3333C41.8889 42.1778 41.2118 43.75 39.8576 45.05C38.5035 46.35 36.8657 47 34.9444 47ZM30.7778 40.3333L39.1111 40.3333C39.1111 39.6889 38.9664 39.0889 38.6771 38.5333C38.3877 37.9778 37.9769 37.5111 37.4444 37.1333L36.3333 36.3333L36.3333 27C36.3333 26.6222 36.2002 26.3056 35.934 26.05C35.6678 25.7944 35.338 25.6667 34.9444 25.6667C34.5509 25.6667 34.2211 25.7944 33.9549 26.05C33.6887 26.3056 33.5556 26.6222 33.5556 27L33.5556 36.3333L32.4444 37.1333C31.912 37.5111 31.5012 37.9778 31.2118 38.5333C30.9225 39.0889 30.7778 39.6889 30.7778 40.3333Z" fill="rgb(1,89,188)" fill-rule="nonzero" />
					</g>
				</g>
			</g>
		</g>
	</g>
</svg>
