<svg viewBox="0 0 70 70" xmlns="http://www.w3.org/2000/svg" xmlns:xlink="http://www.w3.org/1999/xlink" width="70.000000" height="70.000000" fill="none" customFrame="#000000">
	<defs>
		<clipPath id="clipPath_28">
			<rect width="14.000000" height="25.000000" x="28.000000" y="22.000000" fill="rgb(255,255,255)" />
		</clipPath>
		<clipPath id="clipPath_29">
			<rect width="25.000000" height="25.000000" x="28.000000" y="22.000000" fill="rgb(255,255,255)" />
		</clipPath>
		<clipPath id="clipPath_30">
			<rect width="13.888888" height="24.000000" x="28.000000" y="22.000000" fill="rgb(255,255,255)" />
		</clipPath>
	</defs>
	<rect id="慢热-选中" width="67.339653" height="70.000000" x="0.000000" y="0.000000" />
	<circle id="椭圆 8" cx="35" cy="35" r="35" fill="rgb(1,89,188)" />
	<g id="Margin" customFrame="url(#clipPath_28)">
		<rect id="Margin" width="14.000000" height="25.000000" x="28.000000" y="22.000000" />
		<g id="组合 24">
			<g id="图层_x0020_1">
				<g id="Container" customFrame="url(#clipPath_29)">
					<rect id="Container" width="25.000000" height="25.000000" x="28.000000" y="22.000000" />
					<g id="Container" customFrame="url(#clipPath_30)">
						<rect id="Container" width="13.888888" height="24.000000" x="28.000000" y="22.000000" />
						<path id="Icon" d="M34.9444 46C33.0231 46 31.3854 45.35 30.0312 44.05C28.6771 42.75 28 41.1778 28 39.3333C28 38.2667 28.2431 37.2722 28.7292 36.35C29.2153 35.4278 29.8981 34.6444 30.7778 34L30.7778 26C30.7778 24.8889 31.1829 23.9444 31.9931 23.1667C32.8032 22.3889 33.787 22 34.9444 22C36.1019 22 37.0856 22.3889 37.8958 23.1667C38.706 23.9444 39.1111 24.8889 39.1111 26L39.1111 34C39.9907 34.6444 40.6736 35.4278 41.1597 36.35C41.6458 37.2722 41.8889 38.2667 41.8889 39.3333C41.8889 41.1778 41.2118 42.75 39.8576 44.05C38.5035 45.35 36.8657 46 34.9444 46ZM30.7778 39.3333L39.1111 39.3333C39.1111 38.6889 38.9664 38.0889 38.6771 37.5333C38.3877 36.9778 37.9769 36.5111 37.4444 36.1333L36.3333 35.3333L36.3333 26C36.3333 25.6222 36.2002 25.3056 35.934 25.05C35.6678 24.7944 35.338 24.6667 34.9444 24.6667C34.5509 24.6667 34.2211 24.7944 33.9549 25.05C33.6887 25.3056 33.5556 25.6222 33.5556 26L33.5556 35.3333L32.4444 36.1333C31.912 36.5111 31.5012 36.9778 31.2118 37.5333C30.9225 38.0889 30.7778 38.6889 30.7778 39.3333Z" fill="rgb(255,255,255)" fill-rule="nonzero" />
					</g>
				</g>
			</g>
		</g>
	</g>
</svg>
