<svg viewBox="0 0 70 70" xmlns="http://www.w3.org/2000/svg" xmlns:xlink="http://www.w3.org/1999/xlink" width="70.000000" height="70.000000" fill="none" customFrame="#000000">
	<defs>
		<clipPath id="clipPath_21">
			<rect width="25.000000" height="24.000000" x="23.000000" y="23.000000" fill="rgb(255,255,255)" />
		</clipPath>
		<clipPath id="clipPath_22">
			<rect width="25.000000" height="24.000000" x="23.000000" y="23.000000" fill="rgb(255,255,255)" />
		</clipPath>
	</defs>
	<rect id="速热-未选中" width="70.000000" height="70.000000" x="0.000000" y="0.000000" />
	<circle id="椭圆 8" cx="35" cy="35" r="35" fill="rgb(242,244,246)" />
	<g id="Container" customFrame="url(#clipPath_21)">
		<rect id="Container" width="25.000000" height="24.000000" x="23.000000" y="23.000000" />
		<g id="Container" customFrame="url(#clipPath_22)">
			<rect id="Container" width="25.000000" height="24.000000" x="23.000000" y="23.000000" />
			<path id="Icon" d="M36.8889 33.6667L36.8889 31L43.8333 31L43.8333 33.6667L36.8889 33.6667ZM36.8889 28.3333L36.8889 25.6667L48 25.6667L48 28.3333L36.8889 28.3333ZM29.9444 47C28.0231 47 26.3854 46.35 25.0312 45.05C23.6771 43.75 23 42.1778 23 40.3333C23 39.2667 23.2431 38.2722 23.7292 37.35C24.2153 36.4278 24.8981 35.6444 25.7778 35L25.7778 27C25.7778 25.8889 26.1829 24.9444 26.9931 24.1667C27.8032 23.3889 28.787 23 29.9444 23C31.1019 23 32.0856 23.3889 32.8958 24.1667C33.706 24.9444 34.1111 25.8889 34.1111 27L34.1111 35C34.9907 35.6444 35.6736 36.4278 36.1597 37.35C36.6458 38.2722 36.8889 39.2667 36.8889 40.3333C36.8889 42.1778 36.2118 43.75 34.8576 45.05C33.5035 46.35 31.8657 47 29.9444 47ZM25.7778 40.3333L34.1111 40.3333C34.1111 39.6889 33.9664 39.0889 33.6771 38.5333C33.3877 37.9778 32.9769 37.5111 32.4444 37.1333L31.3333 36.3333L31.3333 27C31.3333 26.6222 31.2002 26.3056 30.934 26.05C30.6678 25.7944 30.338 25.6667 29.9444 25.6667C29.5509 25.6667 29.2211 25.7944 28.9549 26.05C28.6887 26.3056 28.5556 26.6222 28.5556 27L28.5556 36.3333L27.4444 37.1333C26.912 37.5111 26.5012 37.9778 26.2118 38.5333C25.9225 39.0889 25.7778 39.6889 25.7778 40.3333Z" fill="rgb(0,86,197)" fill-rule="nonzero" />
		</g>
	</g>
</svg>
