<svg viewBox="0 0 70 70" xmlns="http://www.w3.org/2000/svg" xmlns:xlink="http://www.w3.org/1999/xlink" width="70.000000" height="70.000000" fill="none" customFrame="#000000">
	<defs>
		<clipPath id="clipPath_17">
			<rect width="35.165649" height="25.000000" x="18.000000" y="23.000000" fill="rgb(255,255,255)" />
		</clipPath>
	</defs>
	<rect id="猫步-未选中" width="70.000000" height="70.000000" x="0.000000" y="0.000000" />
	<circle id="椭圆 8" cx="35" cy="35" r="35" fill="rgb(242,244,246)" />
	<circle id="椭圆 8" cx="35" cy="35" r="34.5" stroke="rgb(242,244,246)" stroke-width="1.000000" />
	<g id="Container" customFrame="url(#clipPath_17)">
		<rect id="Container" width="35.165649" height="25.000000" x="18.000000" y="23.000000" />
		<path id="矢量 331" d="M0.151195 24.7353C-0.0693711 24.3075 -0.0448638 22.3759 0.200209 21.5462C0.580073 20.2368 1.27853 19.0441 2.30784 17.9422C3.1901 16.9829 4.83209 15.7124 5.71435 15.2846C5.94717 15.1679 6.03295 15.0512 5.98393 14.9216C5.72661 14.2345 5.5428 13.0548 5.44477 11.4472C5.34675 9.93044 5.27322 9.47669 5.02815 8.90628C4.73406 8.23215 4.08462 7.41542 3.27588 6.72832C3.06756 6.54683 2.81024 6.26162 2.69996 6.08012C2.5039 5.76899 1.14374 0.907481 1.14374 0.518561C1.14374 0.116676 1.42558 0 2.36911 0C3.52095 0 3.64349 0.116676 3.98659 1.45197C4.28068 2.64466 4.86885 3.68178 5.49379 4.14848C5.76337 4.34294 6.48633 4.69297 7.08676 4.92633C8.3734 5.41896 8.97383 5.71713 9.70905 6.26162C10.2237 6.63758 10.236 6.63758 10.1502 6.3394C10.0889 6.17087 9.86834 5.74306 9.64778 5.38007C9.41496 5.03004 9.23115 4.5763 9.23115 4.38184C9.23115 4.04477 9.80708 3.07247 11.351 0.764877L11.8657 0.012964L13.5567 0L15.2477 0L14.1449 1.2964C13.5444 2.00942 12.9073 2.90394 12.7234 3.30582C12.3191 4.17441 12.3803 4.43369 13.2258 5.5486C13.5444 5.97641 14.0346 6.78018 14.3042 7.33763C14.8923 8.54329 14.6595 8.50439 17.0735 7.77841C17.9925 7.50616 19.0708 7.24688 19.463 7.19503C20.7128 7.05242 20.8721 7.00057 20.8721 6.74129C20.8721 6.59868 20.4555 5.23746 19.9531 3.69474C19.4507 2.16499 19.0341 0.816733 19.0341 0.700057C19.0341 0.596345 19.0953 0.38892 19.1566 0.246316C19.2792 0.025928 19.4262 0 20.7496 0C21.5583 0 22.22 0.025928 22.22 0.0648201C22.22 0.103712 22.1097 0.362992 21.975 0.648201C21.8402 0.933409 21.7299 1.23158 21.7299 1.33529C21.7299 1.51679 23.5802 5.09486 24.0948 5.8727L24.4012 6.35237L24.9526 5.8727C25.2467 5.60045 25.9206 5.01707 26.4598 4.5763C27.7587 3.50028 28.0528 3.16322 29.1188 1.49086L30.0256 0.0648201L31.6063 0.0648201L33.1871 0.0648201L33.2238 0.583381C33.2606 1.16676 33.0645 1.46493 32.268 1.99646C31.8146 2.29463 29.7805 5.53563 29.0576 7.11724C28.5429 8.24511 28.5184 9.20445 28.9963 10.2934C29.1801 10.7083 29.4374 11.525 29.5722 12.0954C30.0501 14.1437 30.6996 14.7919 32.4886 15.0253C33.6159 15.1809 33.7875 15.2457 34.2409 15.7772C34.633 16.218 34.7678 16.4902 34.9393 17.1514C35.0619 17.6311 35.0496 17.657 34.4124 18.4219C34.0571 18.8497 33.714 19.3812 33.6772 19.6016C33.5669 20.1201 32.6969 21.0276 31.9127 21.4425C31.2265 21.8184 31.251 21.6758 31.5451 23.2574C31.6063 23.6075 31.6308 23.9186 31.6063 23.9575C31.5696 23.9834 31.2387 23.8279 30.8711 23.6075C30.4912 23.3871 30.1604 23.2056 30.1236 23.2056C30.0869 23.2056 30.0624 23.413 30.0624 23.6723C30.0624 24.0871 30.0379 24.126 29.7928 24.0482C29.1924 23.8668 28.1876 23.0111 27.7587 22.3111C27.5014 21.9221 27.1215 21.4295 26.8887 21.2091C26.6681 20.9887 25.9206 20.2498 25.2344 19.5627C24.5605 18.8756 23.8253 18.2144 23.6047 18.0978C22.6489 17.5922 21.1172 17.6311 18.6665 18.2144C16.4976 18.72 15.4928 18.8367 13.4219 18.7719C11.7799 18.7071 11.2898 18.6423 10.0521 18.2922C9.25566 18.0718 8.33664 17.8903 8.00579 17.8903C6.62112 17.8903 4.84435 18.8108 3.49644 20.2368C2.87151 20.911 2.58967 21.3258 2.11178 22.4277C0.947682 25.0076 0.984443 24.9557 0.629087 24.9946C0.396268 25.0205 0.261478 24.9557 0.151195 24.7353ZM2.08727 20.7424C3.26362 18.9275 5.44477 17.4625 7.49113 17.0866C8.28762 16.944 8.38565 16.9569 10.1502 17.4496C11.9515 17.9422 12.025 17.9552 14.0713 17.9422C15.7501 17.9422 16.3995 17.8774 17.3798 17.644C20.48 16.918 21.0437 16.8273 22.0362 16.8921C23.6537 17.0088 24.0458 17.2162 25.6511 18.8626C26.423 19.6664 27.1828 20.3535 27.3421 20.4054C27.5014 20.4702 27.7464 20.7554 27.918 21.1184C28.0773 21.4684 28.4694 22.0259 28.8002 22.3629L29.3762 22.9852L29.5477 22.1814C29.7315 21.2999 29.707 21.3258 30.9079 20.9369C31.9494 20.5998 32.5621 20.0813 32.942 19.2256C33.1258 18.8108 33.4934 18.2404 33.763 17.9422C34.2409 17.4107 34.2409 17.4107 34.0693 16.9569C33.812 16.2958 33.3464 15.9717 32.5376 15.8809C30.2952 15.6087 29.4007 14.7919 28.8493 12.4843C28.7022 11.901 28.4204 10.9676 28.2121 10.4101C27.5259 8.6081 27.7832 7.50616 29.5232 4.64112C29.9888 3.87624 30.5525 2.9169 30.7853 2.52798C31.0304 2.07424 31.4348 1.60754 31.8146 1.32233L32.4518 0.842661L31.6063 0.803769C31.1407 0.777841 30.6873 0.790805 30.6015 0.829697C30.5158 0.868589 30.1114 1.42604 29.6948 2.07424C28.788 3.48732 28.0283 4.31702 26.325 5.71713C25.357 6.49497 24.9403 6.93575 24.6708 7.44134C24.4624 7.80434 24.2909 8.15436 24.2664 8.21918C24.2419 8.29697 23.911 8.25808 23.4944 8.12844C21.7299 7.62284 19.9408 7.75248 17.0735 8.62107C13.5322 9.68412 12.3068 9.54151 10.3953 7.84323C9.16989 6.75425 8.20185 6.17087 6.59662 5.58749C5.99619 5.35414 5.32224 5.05597 5.10167 4.91336C4.31744 4.40776 3.68025 3.30582 3.23912 1.72421L2.96954 0.777841L2.47939 0.777841C2.06277 0.777841 1.98924 0.816733 2.05051 1.01119C2.08727 1.12787 2.36911 2.19092 2.67545 3.37064L3.23912 5.50971L4.24392 6.54683C5.83689 8.18029 6.10647 8.89331 6.27802 11.9139C6.37605 13.5733 6.46183 13.9363 6.95197 15.1809C7.0255 15.3494 6.85394 15.505 6.2045 15.8809C3.80278 17.294 2.23432 18.8497 1.38881 20.6387C1.03346 21.4166 0.87416 21.9351 0.825146 22.4926L0.763878 23.2704L1.22952 22.2981C1.48684 21.7666 1.87896 21.0665 2.08727 20.7424Z" fill="rgb(0,86,197)" fill-rule="nonzero" transform="matrix(1,0,0,-1,18.0828,48)" />
		<path id="矢量 331" d="M0.200209 21.5462C0.580073 20.2368 1.27853 19.0441 2.30784 17.9422C3.1901 16.9829 4.83209 15.7124 5.71435 15.2846C5.94717 15.1679 6.03295 15.0512 5.98393 14.9216C5.72661 14.2345 5.5428 13.0548 5.44477 11.4472C5.34675 9.93044 5.27322 9.47669 5.02815 8.90628C4.73406 8.23215 4.08462 7.41542 3.27588 6.72832C3.06756 6.54683 2.81024 6.26162 2.69996 6.08012C2.5039 5.76899 1.14374 0.907481 1.14374 0.518561C1.14374 0.116676 1.42558 0 2.36911 0C3.52095 0 3.64349 0.116676 3.98659 1.45197C4.28068 2.64466 4.86885 3.68178 5.49379 4.14848C5.76337 4.34294 6.48633 4.69297 7.08676 4.92633C8.3734 5.41896 8.97383 5.71713 9.70905 6.26162C10.2237 6.63758 10.236 6.63758 10.1502 6.3394C10.0889 6.17087 9.86834 5.74306 9.64778 5.38007C9.41496 5.03004 9.23115 4.5763 9.23115 4.38184C9.23115 4.04477 9.80708 3.07247 11.351 0.764877L11.8657 0.012964L13.5567 0L15.2477 0L14.1449 1.2964C13.5444 2.00942 12.9073 2.90394 12.7234 3.30582C12.3191 4.17441 12.3803 4.43369 13.2258 5.5486C13.5444 5.97641 14.0346 6.78018 14.3042 7.33763C14.8923 8.54329 14.6595 8.50439 17.0735 7.77841C17.9925 7.50616 19.0708 7.24688 19.463 7.19503C20.7128 7.05242 20.8721 7.00057 20.8721 6.74129C20.8721 6.59868 20.4555 5.23746 19.9531 3.69474C19.4507 2.16499 19.0341 0.816733 19.0341 0.700057C19.0341 0.596345 19.0953 0.38892 19.1566 0.246316C19.2792 0.025928 19.4262 0 20.7496 0C21.5583 0 22.22 0.025928 22.22 0.0648201C22.22 0.103712 22.1097 0.362992 21.975 0.648201C21.8402 0.933409 21.7299 1.23158 21.7299 1.33529C21.7299 1.51679 23.5802 5.09486 24.0948 5.8727L24.4012 6.35237L24.9526 5.8727C25.2467 5.60045 25.9206 5.01707 26.4598 4.5763C27.7587 3.50028 28.0528 3.16322 29.1188 1.49086L30.0256 0.0648201L31.6063 0.0648201L33.1871 0.0648201L33.2238 0.583381C33.2606 1.16676 33.0645 1.46493 32.268 1.99646C31.8146 2.29463 29.7805 5.53563 29.0576 7.11724C28.5429 8.24511 28.5184 9.20445 28.9963 10.2934C29.1801 10.7083 29.4374 11.525 29.5722 12.0954C30.0501 14.1437 30.6996 14.7919 32.4886 15.0253C33.6159 15.1809 33.7875 15.2457 34.2409 15.7772C34.633 16.218 34.7678 16.4902 34.9393 17.1514C35.0619 17.6311 35.0496 17.657 34.4124 18.4219C34.0571 18.8497 33.714 19.3812 33.6772 19.6016C33.5669 20.1201 32.6969 21.0276 31.9127 21.4425C31.2265 21.8184 31.251 21.6758 31.5451 23.2574C31.6063 23.6075 31.6308 23.9186 31.6063 23.9575C31.5696 23.9834 31.2387 23.8279 30.8711 23.6075C30.4912 23.3871 30.1604 23.2056 30.1236 23.2056C30.0869 23.2056 30.0624 23.413 30.0624 23.6723C30.0624 24.0871 30.0379 24.126 29.7928 24.0482C29.1924 23.8668 28.1876 23.0111 27.7587 22.3111C27.5014 21.9221 27.1215 21.4295 26.8887 21.2091C26.6681 20.9887 25.9206 20.2498 25.2344 19.5627C24.5605 18.8756 23.8253 18.2144 23.6047 18.0978C22.6489 17.5922 21.1172 17.6311 18.6665 18.2144C16.4976 18.72 15.4928 18.8367 13.4219 18.7719C11.7799 18.7071 11.2898 18.6423 10.0521 18.2922C9.25566 18.0718 8.33664 17.8903 8.00579 17.8903C6.62112 17.8903 4.84435 18.8108 3.49644 20.2368C2.87151 20.911 2.58967 21.3258 2.11178 22.4277C0.947682 25.0076 0.984443 24.9557 0.629087 24.9946C0.396268 25.0205 0.261478 24.9557 0.151195 24.7353C-0.0693711 24.3075 -0.0448638 22.3759 0.200209 21.5462ZM7.49113 17.0866C8.28762 16.944 8.38565 16.9569 10.1502 17.4496C11.9515 17.9422 12.025 17.9552 14.0713 17.9422C15.7501 17.9422 16.3995 17.8774 17.3798 17.644C20.48 16.918 21.0437 16.8273 22.0362 16.8921C23.6537 17.0088 24.0458 17.2162 25.6511 18.8626C26.423 19.6664 27.1828 20.3535 27.3421 20.4054C27.5014 20.4702 27.7464 20.7554 27.918 21.1184C28.0773 21.4684 28.4694 22.0259 28.8002 22.3629L29.3762 22.9852L29.5477 22.1814C29.7315 21.2999 29.707 21.3258 30.9079 20.9369C31.9494 20.5998 32.5621 20.0813 32.942 19.2256C33.1258 18.8108 33.4934 18.2404 33.763 17.9422C34.2409 17.4107 34.2409 17.4107 34.0693 16.9569C33.812 16.2958 33.3464 15.9717 32.5376 15.8809C30.2952 15.6087 29.4007 14.7919 28.8493 12.4843C28.7022 11.901 28.4204 10.9676 28.2121 10.4101C27.5259 8.6081 27.7832 7.50616 29.5232 4.64112C29.9888 3.87624 30.5525 2.9169 30.7853 2.52798C31.0304 2.07424 31.4348 1.60754 31.8146 1.32233L32.4518 0.842661L31.6063 0.803769C31.1407 0.777841 30.6873 0.790805 30.6015 0.829697C30.5158 0.868589 30.1114 1.42604 29.6948 2.07424C28.788 3.48732 28.0283 4.31702 26.325 5.71713C25.357 6.49497 24.9403 6.93575 24.6708 7.44134C24.4624 7.80434 24.2909 8.15436 24.2664 8.21918C24.2419 8.29697 23.911 8.25808 23.4944 8.12844C21.7299 7.62284 19.9408 7.75248 17.0735 8.62107C13.5322 9.68412 12.3068 9.54151 10.3953 7.84323C9.16989 6.75425 8.20185 6.17087 6.59662 5.58749C5.99619 5.35414 5.32224 5.05597 5.10167 4.91336C4.31744 4.40776 3.68025 3.30582 3.23912 1.72421L2.96954 0.777841L2.47939 0.777841C2.06277 0.777841 1.98924 0.816733 2.05051 1.01119C2.08727 1.12787 2.36911 2.19092 2.67545 3.37064L3.23912 5.50971L4.24392 6.54683C5.83689 8.18029 6.10647 8.89331 6.27802 11.9139C6.37605 13.5733 6.46183 13.9363 6.95197 15.1809C7.0255 15.3494 6.85394 15.505 6.2045 15.8809C3.80278 17.294 2.23432 18.8497 1.38881 20.6387C1.03346 21.4166 0.87416 21.9351 0.825146 22.4926L0.763878 23.2704L1.22952 22.2981C1.48684 21.7666 1.87896 21.0665 2.08727 20.7424C3.26362 18.9275 5.44477 17.4625 7.49113 17.0866Z" fill-rule="nonzero" stroke="rgb(0,86,197)" stroke-width="0.500000" transform="matrix(1,0,0,-1,18.0828,48)" />
	</g>
</svg>
