<svg viewBox="0 0 70 70" xmlns="http://www.w3.org/2000/svg" xmlns:xlink="http://www.w3.org/1999/xlink" width="70.000000" height="70.000000" fill="none" customFrame="#000000">
	<defs>
		<clipPath id="clipPath_7">
			<rect width="35.000000" height="22.400000" x="18.000000" y="24.000000" fill="rgb(255,255,255)" />
		</clipPath>
	</defs>
	<rect id="双排海浪-选中" width="70.000000" height="70.000000" x="0.000000" y="0.000000" />
	<circle id="椭圆 8" cx="35" cy="35" r="35" fill="rgb(1,89,188)" />
	<g id="双排波浪 1" clip-path="url(#clipPath_7)" customFrame="url(#clipPath_7)">
		<rect id="双排波浪 1" width="35.000000" height="22.400000" x="18.000000" y="24.000000" />
		<g id="图层_1">
			<g id="组合 105">
				<path id="矢量 511" d="M9.85289 12.0702C8.73687 11.8799 7.42953 11.3211 6.40279 10.5842C5.71404 10.099 4.38757 8.82788 3.81361 8.11554C3.22754 7.38785 2.86149 6.82105 2.48012 6.2131C0.762085 3.47183 0 1.05663 0 0.654404C0 0.476319 0.191318 0.199981 0.382637 0.101727C0.943837 -0.174611 1.27546 0.0955865 1.61983 1.11497C2.28944 3.1046 3.37358 5.19249 4.547 6.76455C6.07755 8.82788 7.87594 10.1789 9.69346 10.6394C10.1144 10.75 10.4077 10.7745 11.0327 10.7745C12.2826 10.7745 13.0862 10.5289 14.2341 9.79813C15.3756 9.06737 16.1409 8.28748 17.9202 6.02765C19.2913 4.28979 19.9354 3.55289 20.7708 2.76686C22.1483 1.465 23.4237 0.715813 25.0117 0.279812C25.7387 0.0833048 27.1927 0.00961457 27.9835 0.132432C30.1135 0.457897 32.116 1.6308 34.0802 3.69413C34.7434 4.3819 34.8837 4.59683 34.8837 4.87931C34.8837 5.06968 34.8391 5.16179 34.6669 5.32759C34.4883 5.49954 34.399 5.53638 34.1822 5.53638C33.8761 5.53638 33.857 5.51796 32.7473 4.33892C31.4719 2.98179 30.0625 2.07908 28.5256 1.62466C28.0154 1.47728 27.8687 1.45886 26.9121 1.45886C25.9428 1.45886 25.8152 1.47114 25.2859 1.62466C24.0487 1.99311 22.8881 2.68089 21.8549 3.66342C21.0578 4.42489 20.3945 5.18635 19.1637 6.73385C17.1357 9.28844 16.4406 10.0008 15.0121 10.9526C13.5326 11.9413 11.5875 12.365 9.85289 12.0702Z" fill="rgb(255,255,255)" fill-rule="nonzero" transform="matrix(1,0,0,-1,18.1163,37.5623)" />
				<path id="矢量 511" d="M6.40279 10.5842C5.71404 10.099 4.38757 8.82788 3.81361 8.11554C3.22754 7.38785 2.86149 6.82105 2.48012 6.2131C0.762085 3.47183 0 1.05663 0 0.654404C0 0.476319 0.191318 0.199981 0.382637 0.101727C0.943837 -0.174611 1.27546 0.0955865 1.61983 1.11497C2.28944 3.1046 3.37358 5.19249 4.547 6.76455C6.07755 8.82788 7.87594 10.1789 9.69346 10.6394C10.1144 10.75 10.4077 10.7745 11.0327 10.7745C12.2826 10.7745 13.0862 10.5289 14.2341 9.79813C15.3756 9.06737 16.1409 8.28748 17.9202 6.02765C19.2913 4.28979 19.9354 3.55289 20.7708 2.76686C22.1483 1.465 23.4237 0.715813 25.0117 0.279812C25.7387 0.0833048 27.1927 0.00961457 27.9835 0.132432C30.1135 0.457897 32.116 1.6308 34.0802 3.69413C34.7434 4.3819 34.8837 4.59683 34.8837 4.87931C34.8837 5.06968 34.8391 5.16179 34.6669 5.32759C34.4883 5.49954 34.399 5.53638 34.1822 5.53638C33.8761 5.53638 33.857 5.51796 32.7473 4.33892C31.4719 2.98179 30.0625 2.07908 28.5256 1.62466C28.0154 1.47728 27.8687 1.45886 26.9121 1.45886C25.9428 1.45886 25.8152 1.47114 25.2859 1.62466C24.0487 1.99311 22.8881 2.68089 21.8549 3.66342C21.0578 4.42489 20.3945 5.18635 19.1637 6.73385C17.1357 9.28844 16.4406 10.0008 15.0121 10.9526C13.5326 11.9413 11.5875 12.365 9.85289 12.0702C8.73687 11.8799 7.42953 11.3211 6.40279 10.5842Z" fill-rule="nonzero" stroke="rgb(255,255,255)" stroke-width="0.500000" transform="matrix(1,0,0,-1,18.1163,37.5623)" />
				<path id="矢量 512" d="M7.86463 10.4991C5.71549 10.1245 3.77042 9.08673 1.95927 7.34887C1.14298 6.56284 0.154504 5.42678 0.039713 5.13816C-0.170737 4.59776 0.498877 4.04509 1.02181 4.32757C1.10472 4.37055 1.45547 4.75129 1.80622 5.175C3.66201 7.40413 5.83028 8.77969 8.08784 9.16042C8.87224 9.28938 10.1222 9.24639 10.8938 9.06216C12.9983 8.56476 14.4269 7.53309 16.9395 4.70216C19.0568 2.31951 20.7467 1.02379 22.5961 0.385141C23.8461 -0.0447191 25.3065 -0.118409 26.5501 0.182492C29.3178 0.857986 31.9707 3.22221 33.7883 6.63653C34.2474 7.49625 34.7449 8.73056 34.7449 8.99461C34.7449 9.51045 34.2474 9.81749 33.7628 9.60256C33.5459 9.51045 33.4566 9.36921 33.176 8.68143C32.6212 7.3243 31.5371 5.51889 30.6251 4.45038C30.1022 3.8363 29.0181 2.84762 28.4569 2.48531C26.2121 1.02993 23.9035 0.993085 21.5758 2.38092C20.4853 3.03799 19.5542 3.88543 17.9471 5.6847C16.6525 7.13394 15.3643 8.36211 14.5927 8.89022C13.4001 9.70081 11.9844 10.2965 10.7408 10.5053C10.0329 10.6219 8.55976 10.6158 7.86463 10.4991Z" fill="rgb(255,255,255)" fill-rule="nonzero" transform="matrix(1,0,0,-1,18,45.8167)" />
				<path id="矢量 512" d="M1.95927 7.34887C1.14298 6.56284 0.154504 5.42678 0.039713 5.13816C-0.170737 4.59776 0.498877 4.04509 1.02181 4.32757C1.10472 4.37055 1.45547 4.75129 1.80622 5.175C3.66201 7.40413 5.83028 8.77969 8.08784 9.16042C8.87224 9.28938 10.1222 9.24639 10.8938 9.06216C12.9983 8.56476 14.4269 7.53309 16.9395 4.70216C19.0568 2.31951 20.7467 1.02379 22.5961 0.385141C23.8461 -0.0447191 25.3065 -0.118409 26.5501 0.182492C29.3178 0.857986 31.9707 3.22221 33.7883 6.63653C34.2474 7.49625 34.7449 8.73056 34.7449 8.99461C34.7449 9.51045 34.2474 9.81749 33.7628 9.60256C33.5459 9.51045 33.4566 9.36921 33.176 8.68143C32.6212 7.3243 31.5371 5.51889 30.6251 4.45038C30.1022 3.8363 29.0181 2.84762 28.4569 2.48531C26.2121 1.02993 23.9035 0.993085 21.5758 2.38092C20.4853 3.03799 19.5542 3.88543 17.9471 5.6847C16.6525 7.13394 15.3643 8.36211 14.5927 8.89022C13.4001 9.70081 11.9844 10.2965 10.7408 10.5053C10.0329 10.6219 8.55976 10.6158 7.86463 10.4991C5.71549 10.1245 3.77042 9.08673 1.95927 7.34887Z" fill-rule="nonzero" stroke="rgb(255,255,255)" stroke-width="0.500000" transform="matrix(1,0,0,-1,18,45.8167)" />
				<path id="矢量 513" d="M0.63813 6.51773C0.63813 6.51773 0.3435 6.5208 0.0660888 6.3593C0.0201727 6.33228 -0.00342374 6.3114 0.000402472 6.29666C0.0112435 6.25613 0.214679 6.26841 0.274625 6.27824C0.810317 6.36421 2.26306 6.36114 2.66483 6.26903C3.16226 6.15849 3.99768 5.87601 4.0487 5.80846C4.06783 5.77162 4.1061 5.7532 4.1316 5.7532C4.35481 5.79004 5.63026 5.00401 6.19146 4.48818C6.2935 4.38993 6.50395 4.21184 6.65701 4.08903C7.04602 3.76356 8.26408 2.61522 8.16842 2.65821C8.09189 2.69505 8.13653 2.65821 8.54468 2.35117C8.65309 2.26519 8.84441 2.10553 8.97196 2.00114C9.11609 1.88323 9.11545 1.87525 9.19261 1.812C9.30485 1.71989 9.45855 1.6026 9.65433 1.47917C9.74488 1.39995 9.90177 1.31275 10.0689 1.17212C10.1199 1.12914 10.1773 1.09229 10.2028 1.09229C10.2219 1.09229 10.4579 0.969475 10.713 0.815953C10.9744 0.662432 11.2104 0.539615 11.2359 0.539615C11.3507 0.533474 11.6951 0.386094 11.6951 0.343108C11.6951 0.318545 11.7397 0.312404 11.7907 0.330826C11.8417 0.35539 11.8864 0.336967 11.8864 0.28784C11.8864 0.244854 11.9055 0.226432 11.9246 0.250995C11.9438 0.269418 12.0267 0.263277 12.1096 0.232573C12.1925 0.201868 12.5369 0.134319 12.8812 0.0729106C13.6975 -0.0560472 14.9475 -0.00692044 14.9475 0.165023C14.9475 0.183446 14.4826 0.121423 13.915 0.121423C13.0222 0.121423 12.8047 0.220291 12.3647 0.343108C10.8277 0.772967 9.74999 1.47302 7.72201 3.35212C6.33177 4.6417 5.66215 5.17596 4.92239 5.58739C3.73621 6.25061 2.8689 6.49624 1.58707 6.52694C1.09602 6.53923 0.727412 6.53001 0.63813 6.51773Z" fill="rgb(239,246,255)" fill-rule="nonzero" transform="matrix(1,0,0,-1,23.0021,44.4175)" />
				<path id="矢量 514" d="M1.70413 6.49971C0.919725 6.36461 0.116826 6.15459 0.000121832 6.02809C-0.0100817 6.01704 0.622544 6.17731 1.17482 6.30197C1.9554 6.47822 3.11351 6.51936 3.89728 6.23934C4.56753 5.99984 5.21737 5.79105 5.77857 5.44717C6.39079 5.06029 6.77981 4.74711 7.88308 3.74615C8.41239 3.26716 8.9991 2.73905 9.19042 2.56711C9.38174 2.4013 9.55392 2.25392 9.57305 2.2355C9.66871 2.13111 10.4404 1.59071 10.9314 1.28981C12.513 0.294993 14.1392 -0.122585 15.7909 0.0309366C16.5052 0.098486 17.6531 0.350261 17.7679 0.466937C17.8444 0.540627 17.2449 0.4915 16.9069 0.393247C16.0396 0.135331 14.5537 0.0923451 13.7502 0.294993C13.0869 0.460796 12.3153 0.718712 12.3153 0.77398C12.3153 0.798543 12.2706 0.823106 12.2132 0.823106C12.0156 0.823106 10.5807 1.67054 10.1917 2.01443C10.096 2.1004 10.0195 2.15567 10.0195 2.13725C10.0195 2.09426 9.31159 2.6715 8.9991 2.9724C8.76952 3.18733 8.18281 3.71545 7.36652 4.44621C7.1178 4.66728 6.81807 4.91905 6.6969 5.01731C6.24412 5.36734 5.81046 5.67438 5.7722 5.67438C5.74669 5.67438 5.62552 5.73579 5.49797 5.81562C5.26839 5.95072 5.19824 5.98142 4.50312 6.22705C3.60966 6.53962 2.56506 6.64709 1.70413 6.49971Z" fill="rgb(239,246,255)" fill-rule="nonzero" transform="matrix(1,0,0,-1,21.6172,45.5576)" />
			</g>
			<path id="矢量 515" d="M30.5201 27.2665C30.1247 27.506 29.3786 27.985 28.913 28.3535C27.4399 29.508 25.7308 31.3379 24.3405 33.2416C24.2449 33.3706 24.1492 33.5056 24.0535 33.6407C23.6454 34.2241 24.2767 34.9733 24.9464 34.697C24.9719 34.6847 24.9974 34.6663 24.9974 34.6663C25.7627 33.5732 27.0636 31.9704 27.7906 31.2213C29.302 29.6615 30.6094 28.7219 31.7956 28.0833C32.2802 27.8192 32.1527 27.8806 31.9677 27.7701C31.4193 27.4569 31.0622 27.285 30.8198 27.2113C30.6732 27.1683 30.705 27.156 30.5201 27.2665Z" fill="rgb(239,246,255)" fill-rule="nonzero" />
			<path id="矢量 516" d="M44.7094 40.0029C43.0895 41.5872 42.0564 42.3856 40.6598 43.1347C40.0858 43.4418 40.0284 43.4111 40.1496 43.5093C40.2261 43.5707 41.5335 44.1541 41.7248 44.0559C42.1521 43.8409 43.2043 43.1225 43.8931 42.5759C44.5372 42.0662 46.0358 40.5249 46.9095 39.6037C47.1774 39.3274 46.9797 38.8791 46.5843 38.8668C46.1379 38.8546 45.7106 39.0204 45.3981 39.3274L44.7094 40.0029Z" fill="rgb(239,246,255)" fill-rule="nonzero" />
			<path id="矢量 517" d="M34.7034 27.0522C34.0657 27.1443 34.2123 27.1627 35.1243 27.1627C36.202 27.1627 36.725 27.3163 37.7262 27.7891C38.8805 28.3356 39.5374 28.8883 42.3689 31.7008C44.4798 33.801 46.0039 34.6239 47.9426 34.7098C48.6122 34.7405 48.912 34.7037 48.8291 34.6239C48.8035 34.6054 48.6441 34.587 48.2997 34.5747C47.7003 34.5625 46.9222 34.4642 46.6544 34.3598C46.5843 34.3291 46.3993 34.2616 46.2399 34.2063C45.7361 34.0282 45.4746 33.9054 45.4746 33.8501C45.4746 33.8256 45.4491 33.8133 45.4172 33.8378C45.3789 33.8563 45.1366 33.7334 44.8751 33.5615C44.6137 33.3957 44.3905 33.2545 44.3713 33.2545C44.3586 33.2545 44.231 33.1501 44.0971 33.0273C43.9632 32.9044 43.7336 32.7263 43.5997 32.6281C43.4658 32.536 43.3701 32.4562 43.3956 32.4562C43.4275 32.4562 43.3255 32.3579 43.1788 32.2412C42.9556 32.0631 42.0947 31.228 42.1329 31.228C42.1839 31.228 39.9009 29.0234 39.6904 28.8638C39.5437 28.7532 39.4353 28.6488 39.4608 28.6243C39.48 28.6058 39.4545 28.5874 39.3971 28.5874C39.3397 28.5874 39.2695 28.5506 39.244 28.5076C39.1356 28.3418 37.892 27.6049 37.7198 27.6049C37.6624 27.6049 37.6433 27.5742 37.6688 27.5312C37.7007 27.4882 37.6816 27.4759 37.6178 27.5005C37.5604 27.5189 37.4584 27.4943 37.3882 27.4514C36.9737 27.1689 35.4623 26.9417 34.7034 27.0522Z" fill="rgb(239,246,255)" fill-rule="nonzero" />
			<path id="矢量 518" d="M34.0276 25.9836C33.747 26.0327 33.3771 26.1187 33.1986 26.1739C32.7458 26.3275 33.0327 26.352 33.7024 26.2292C34.5378 26.0695 35.1372 26.0204 35.7813 26.0695C36.113 26.1002 36.4318 26.131 36.4829 26.1494C36.5339 26.1678 36.6805 26.1985 36.8017 26.2108C37.2736 26.2722 39.072 27.0582 39.2889 27.2977C39.308 27.3161 39.4228 27.4021 39.5439 27.4819C39.6651 27.5618 39.8883 27.7276 40.0286 27.8442C40.1753 27.9671 40.3602 28.1144 40.4431 28.1759C40.6663 28.3355 41.7696 29.3917 42.5732 30.2208C44.1994 31.8972 44.9327 32.4867 46.0679 33.0333C46.8651 33.414 47.5092 33.5737 48.3765 33.5921C49.1928 33.6166 49.6838 33.543 50.1494 33.371C50.481 33.2543 50.8827 33.0148 50.6085 33.0947C49.2374 33.5184 47.9747 33.543 46.8268 33.1684C45.5577 32.7508 44.9965 32.3209 42.4137 29.8216C40.1498 27.6293 39.6779 27.2424 38.5236 26.6652C37.1461 25.9713 35.5326 25.7257 34.0276 25.9836Z" fill="rgb(239,246,255)" fill-rule="nonzero" />
			<path id="矢量 518" d="M33.1986 26.1739C32.7458 26.3275 33.0327 26.352 33.7024 26.2292C34.5378 26.0695 35.1372 26.0204 35.7813 26.0695C36.113 26.1002 36.4318 26.131 36.4829 26.1494C36.5339 26.1678 36.6805 26.1985 36.8017 26.2108C37.2736 26.2722 39.072 27.0582 39.2889 27.2977C39.308 27.3161 39.4228 27.4021 39.5439 27.4819C39.6651 27.5618 39.8883 27.7276 40.0286 27.8442C40.1753 27.9671 40.3602 28.1144 40.4431 28.1759C40.6663 28.3355 41.7696 29.3917 42.5732 30.2208C44.1994 31.8972 44.9327 32.4867 46.0679 33.0333C46.8651 33.414 47.5092 33.5737 48.3765 33.5921C49.1928 33.6166 49.6838 33.543 50.1494 33.371C50.481 33.2543 50.8827 33.0148 50.6085 33.0947C49.2374 33.5184 47.9747 33.543 46.8268 33.1684C45.5577 32.7508 44.9965 32.3209 42.4137 29.8216C40.1498 27.6293 39.6779 27.2424 38.5236 26.6652C37.1461 25.9713 35.5326 25.7257 34.0276 25.9836C33.747 26.0327 33.3771 26.1187 33.1986 26.1739Z" fill-rule="nonzero" stroke="rgb(239,246,255)" stroke-width="0.100000" />
			<path id="矢量 519" d="M32.9817 26.2903C32.9817 26.2903 33.5812 26.6648 34.2444 27.1131C34.2954 27.15 34.3592 27.1623 34.423 27.1561C34.7099 27.1254 35.6346 27.0763 36.9994 27.4018C37.433 27.5061 38.6064 28.1325 38.6064 28.1325L40.4686 29.7476L43.045 32.3513L44.8179 33.733L47.1648 34.5497L48.8292 34.6725C48.8292 34.6725 50.0281 33.9111 50.6914 33.1189L49.1162 33.5426L46.8268 33.3338L44.6967 32.1978L42.3946 29.9809L40.4559 28.0772L38.8615 26.8491L36.5083 26.0815L34.6589 26.0139L32.9817 26.2903Z" fill="rgb(239,246,255)" fill-rule="nonzero" />
			<path id="矢量 520" />
			<path id="矢量 521" d="M21.1198 39.665C20.6862 39.6466 22.5356 38.2342 22.9692 38.0623C23.0904 38.0131 23.2116 37.9026 23.5751 37.9026C23.9195 37.9026 26.0813 38.1359 26.3046 38.2035C27.3313 38.529 27.9882 38.9957 28.8746 39.6343C30.1692 40.5616 30.1756 40.8256 31.636 41.9985C33.1729 43.2328 33.9445 43.8162 34.7608 44.0127C36.5911 44.4549 37.9431 44.2522 37.9431 44.2522C37.9431 44.2522 38.8869 44.897 39.429 45.0997C39.429 45.0997 38.4788 45.29 38.0579 45.3637C37.1268 45.5172 35.0797 45.419 34.155 45.0014C32.465 44.2399 32.0377 43.7917 30.0863 42.1889C28.8236 41.1511 28.4728 40.5677 27.3887 39.9966C26.853 39.7141 26.3938 39.3702 25.0737 39.1922C23.6388 38.9957 22.9756 39.0571 22.4782 39.2659C22.1657 39.4071 21.3239 39.5852 21.1198 39.665Z" fill="rgb(239,246,255)" fill-rule="nonzero" />
		</g>
	</g>
</svg>
