<svg viewBox="0 0 70 70" xmlns="http://www.w3.org/2000/svg" xmlns:xlink="http://www.w3.org/1999/xlink" width="70.000000" height="70.000000" fill="none" customFrame="#000000">
	<defs>
		<clipPath id="clipPath_6">
			<rect width="43.750000" height="25.000000" x="13.000000" y="22.000000" fill="rgb(255,255,255)" />
		</clipPath>
	</defs>
	<rect id="揉捏-选中" width="70.000000" height="70.000000" x="0.000000" y="0.000000" />
	<circle id="椭圆 8" cx="35" cy="35" r="35" fill="rgb(1,89,188)" />
	<g id="揉捏 1" clip-path="url(#clipPath_6)" customFrame="url(#clipPath_6)">
		<rect id="揉捏 1" width="43.750000" height="25.000000" x="13.000000" y="22.000000" />
		<g id="组合 105">
			<path id="矢量 511" d="M22.9398 24.8705C22.4835 24.7038 22.069 24.3436 21.9694 24.0318C21.9117 23.8436 21.8749 23.8597 21.5917 24.2092C20.7366 25.2737 19.9183 25.2146 18.0403 23.9565C15.921 22.5264 14.7564 22.1877 11.3781 22.021C8.86539 21.8974 8.43523 21.6984 5.04645 19.1285L3.75074 18.1447L2.10356 18.1447C0.519333 18.1447 0.445892 18.1339 0.225569 17.8974L0 17.6447L0 10.3382C0 4.79525 0.0314747 2.99418 0.125899 2.8974C0.215077 2.806 0.807852 2.76837 2.1193 2.76837C3.91336 2.76837 4.00778 2.75762 4.38548 2.51031C6.05889 1.42966 7.7323 0.913535 10.1768 0.725364C11.0004 0.660848 11.504 0.553321 12.1702 0.300634C14.4574 -0.559579 16.6816 0.617837 16.6816 2.6931C16.6816 3.13934 16.7026 3.17697 17.1065 3.36514C18.3603 3.94041 19.2048 5.66084 18.7852 6.78449C18.696 7.02105 18.7327 7.07481 19.1629 7.35438C20.3327 8.11244 20.7576 9.69308 20.1386 10.9995L19.9078 11.4942L20.275 11.892C21.45 13.1501 21.3136 15.0963 19.9655 16.3167C19.4461 16.7845 18.5911 17.2845 18.3131 17.2845C18.0665 17.2845 18.119 17.4673 18.3865 17.5372C19.2101 17.7576 21.0094 19.4189 21.492 20.4027L21.7858 21.0103L22.0218 20.4941C22.4362 19.564 23.6952 18.3328 24.8913 17.6877L25.3896 17.4189L24.7234 17.0855C22.41 15.9189 21.6809 13.0533 23.3595 11.7038L23.6375 11.4726L23.3962 10.935C22.8192 9.68233 23.2179 8.13932 24.309 7.40277C24.7969 7.07481 24.8388 7.01029 24.7496 6.77911C24.3142 5.59632 25.2323 3.75761 26.5017 3.2845C26.8375 3.16622 26.8584 3.12321 26.8584 2.66622C26.8689 0.580203 29.3502 -0.640224 31.5797 0.34902C31.9993 0.531816 32.5029 0.666224 32.8911 0.687729C35.7763 0.865148 37.1874 1.263 39.0549 2.41353L39.6634 2.7845L41.4522 2.75224C43.1204 2.71998 43.2568 2.73074 43.3932 2.92428C43.666 3.306 43.6083 17.6447 43.3302 17.9296C43.1361 18.1285 42.9788 18.1447 41.4417 18.1447L39.7578 18.1447L38.4779 19.15C35.2674 21.6554 34.5802 21.9565 31.8419 22.0586C29.0512 22.1608 27.467 22.6285 25.6467 23.9027C24.1201 24.9726 23.6638 25.1339 22.9398 24.8705ZM20.7051 23.7522C22.0428 22.5479 20.5897 19.8866 17.778 18.392C17.0121 17.9834 16.5137 17.806 14.4049 17.1823C12.9256 16.7468 11.8293 15.0049 12.2489 13.763C12.3538 13.4565 12.3381 13.4296 11.8188 13.0802C10.8955 12.4511 10.5335 11.4619 10.8483 10.3866C11.0109 9.82212 11.0109 9.81136 10.7801 9.65545C9.63127 8.88663 9.25882 7.59094 9.8411 6.43503L10.0562 6.02105L9.61029 5.70385C8.5349 4.92428 8.42999 3.41891 9.36898 2.37052L9.78864 1.8974L9.32701 1.97267C7.56443 2.24149 6.20577 2.71461 5.07793 3.46729L4.35401 3.94579L2.8065 3.95116L1.25899 3.95116L1.25899 10.4565L1.25899 16.9619L2.64912 16.9619L4.0445 16.9619L4.52712 17.3113C4.79465 17.5049 5.61824 18.1339 6.36314 18.7146C7.16575 19.3436 8.11524 19.9726 8.70801 20.2737L9.70471 20.7737L11.2784 20.8436C14.7931 21.0049 16.3039 21.4726 18.6803 23.1447C20.1229 24.15 20.2225 24.1823 20.7051 23.7522ZM25.1011 23.0533C27.3201 21.5156 29.0302 20.978 32.1567 20.8436L33.9403 20.7683L34.9002 20.2522C35.4248 19.9673 36.6786 19.107 37.6805 18.349L39.5008 16.9619L40.8909 16.9619L42.2811 16.9619L42.2811 10.4511L42.2811 3.93503L40.7703 3.96192L39.2542 3.98342L38.3939 3.41891C37.2189 2.64471 35.0681 1.91353 33.956 1.90816C33.9088 1.90816 33.998 2.06407 34.1553 2.25762C35.194 3.51568 35.0104 5.17159 33.7619 5.84363L33.4734 5.99417L33.6937 6.37589C34.2917 7.40814 33.9403 8.92427 32.975 9.50491C32.7285 9.65545 32.5239 9.78986 32.5239 9.80599C32.5239 9.82749 32.5973 10.0103 32.6813 10.2253C33.1324 11.3275 32.6341 12.6393 31.5534 13.2092C31.2125 13.392 31.1705 13.4511 31.2649 13.6232C31.9731 14.9834 30.5987 16.8812 28.5371 17.3759C24.9175 18.2468 22.3366 20.4834 22.473 22.6285C22.5149 23.2791 22.5464 23.3597 22.9136 23.7038C23.4277 24.1877 23.5011 24.1662 25.1011 23.0533ZM17.5262 16.4673C19.6507 15.8221 20.6527 14.1286 19.677 12.8221C18.9898 11.8974 18.4809 11.9081 15.5275 12.892C13.1145 13.6985 12.8784 13.9834 13.5709 15.2791C14.0377 16.1501 15.0187 16.3167 16.5085 15.7791C17.5314 15.4081 17.7098 15.3866 17.8042 15.6339C17.8724 15.8167 17.3845 16.3167 17.138 16.3167C17.075 16.3167 16.9649 16.392 16.8914 16.478C16.7236 16.6823 16.8232 16.6823 17.5262 16.4673ZM26.6486 16.5318C26.6486 16.478 26.465 16.3329 26.2394 16.2146C25.804 15.9888 25.6729 15.7898 25.8093 15.5694C25.909 15.4027 26.166 15.4458 27.3778 15.8221C28.9043 16.3006 29.5968 16.1286 30.0846 15.1393C30.6459 13.9941 30.3469 13.6608 28.0545 12.8866C25.3214 11.9673 24.7129 11.9296 24.0152 12.6447C22.8664 13.8221 23.8106 15.7576 25.8565 16.4242C26.6066 16.6662 26.6486 16.6716 26.6486 16.5318ZM14.7617 12.0856C16.2987 11.5909 17.6573 11.2253 18.5176 11.0802C20.1491 10.8114 19.3517 7.92427 17.6836 8.06406C16.4613 8.16621 12.3276 9.73072 12.0338 10.2038C11.6037 10.8974 11.8397 11.9189 12.5269 12.349C12.9781 12.6339 13.1197 12.6178 14.7617 12.0856ZM31.2964 12.1286C31.9311 11.521 31.9574 10.5748 31.3541 10.0425C30.7089 9.47265 26.7588 8.03717 25.8355 8.03717C24.0047 8.03717 23.5011 10.8866 25.2952 11.0963C25.9352 11.1662 28.9935 12.0587 29.7069 12.3812C30.3626 12.6716 30.8033 12.6017 31.2964 12.1286ZM15.0554 7.76298C15.9787 7.44578 16.9387 7.13395 17.1852 7.06943C18.5334 6.7146 17.5786 4.19847 16.1098 4.24148C15.3177 4.26299 11.4201 5.99417 10.9952 6.51567C10.4234 7.20922 10.5913 8.31674 11.3362 8.77911L11.6771 8.98878L12.5269 8.66083C12.9938 8.48341 14.1322 8.07481 15.0554 7.76298ZM32.4242 8.60169C33.4786 7.59094 33.038 6.54255 31.181 5.64471C27.5037 3.87052 26.2342 3.83288 25.7988 5.48879C25.547 6.46191 25.7726 6.86513 26.7273 7.11782C27.6715 7.36513 30.3731 8.33287 31.1075 8.68771C31.9259 9.07481 31.9364 9.07481 32.4242 8.60169ZM13.4292 4.11245C14.384 3.71998 15.2653 3.35977 15.3964 3.30063C16.1308 2.99418 15.3177 1.44579 14.2685 1.15547C13.3453 0.902783 10.8273 1.97805 10.1139 2.93504C9.30603 4.02105 10.0824 5.49955 11.2155 5.02105C11.483 4.91353 12.4797 4.49955 13.4292 4.11245ZM33.1586 5.08019C34.1239 4.56406 33.9455 3.15547 32.8124 2.35977C30.6459 0.83289 28.9987 0.709235 28.1437 2.00493C27.5561 2.90278 27.7083 3.08557 29.6912 3.88127C30.5305 4.21998 31.5429 4.66084 31.9469 4.85976C32.8229 5.28987 32.7705 5.28449 33.1586 5.08019Z" fill="rgb(255,255,255)" fill-rule="nonzero" transform="matrix(1,0,0,-1,13,46.9995)" />
			<path id="矢量 511" d="M21.9694 24.0318C21.9117 23.8436 21.8749 23.8597 21.5917 24.2092C20.7366 25.2737 19.9183 25.2146 18.0403 23.9565C15.921 22.5264 14.7564 22.1877 11.3781 22.021C8.86539 21.8974 8.43523 21.6984 5.04645 19.1285L3.75074 18.1447L2.10356 18.1447C0.519333 18.1447 0.445892 18.1339 0.225569 17.8974L0 17.6447L0 10.3382C0 4.79525 0.0314747 2.99418 0.125899 2.8974C0.215077 2.806 0.807852 2.76837 2.1193 2.76837C3.91336 2.76837 4.00778 2.75762 4.38548 2.51031C6.05889 1.42966 7.7323 0.913535 10.1768 0.725364C11.0004 0.660848 11.504 0.553321 12.1702 0.300634C14.4574 -0.559579 16.6816 0.617837 16.6816 2.6931C16.6816 3.13934 16.7026 3.17697 17.1065 3.36514C18.3603 3.94041 19.2048 5.66084 18.7852 6.78449C18.696 7.02105 18.7327 7.07481 19.1629 7.35438C20.3327 8.11244 20.7576 9.69308 20.1386 10.9995L19.9078 11.4942L20.275 11.892C21.45 13.1501 21.3136 15.0963 19.9655 16.3167C19.4461 16.7845 18.5911 17.2845 18.3131 17.2845C18.0665 17.2845 18.119 17.4673 18.3865 17.5372C19.2101 17.7576 21.0094 19.4189 21.492 20.4027L21.7858 21.0103L22.0218 20.4941C22.4362 19.564 23.6952 18.3328 24.8913 17.6877L25.3896 17.4189L24.7234 17.0855C22.41 15.9189 21.6809 13.0533 23.3595 11.7038L23.6375 11.4726L23.3962 10.935C22.8192 9.68233 23.2179 8.13932 24.309 7.40277C24.7969 7.07481 24.8388 7.01029 24.7496 6.77911C24.3142 5.59632 25.2323 3.75761 26.5017 3.2845C26.8375 3.16622 26.8584 3.12321 26.8584 2.66622C26.8689 0.580203 29.3502 -0.640224 31.5797 0.34902C31.9993 0.531816 32.5029 0.666224 32.8911 0.687729C35.7763 0.865148 37.1874 1.263 39.0549 2.41353L39.6634 2.7845L41.4522 2.75224C43.1204 2.71998 43.2568 2.73074 43.3932 2.92428C43.666 3.306 43.6083 17.6447 43.3302 17.9296C43.1361 18.1285 42.9788 18.1447 41.4417 18.1447L39.7578 18.1447L38.4779 19.15C35.2674 21.6554 34.5802 21.9565 31.8419 22.0586C29.0512 22.1608 27.467 22.6285 25.6467 23.9027C24.1201 24.9726 23.6638 25.1339 22.9398 24.8705C22.4835 24.7038 22.069 24.3436 21.9694 24.0318ZM17.778 18.392C17.0121 17.9834 16.5137 17.806 14.4049 17.1823C12.9256 16.7468 11.8293 15.0049 12.2489 13.763C12.3538 13.4565 12.3381 13.4296 11.8188 13.0802C10.8955 12.4511 10.5335 11.4619 10.8483 10.3866C11.0109 9.82212 11.0109 9.81136 10.7801 9.65545C9.63127 8.88663 9.25882 7.59094 9.8411 6.43503L10.0562 6.02105L9.61029 5.70385C8.5349 4.92428 8.42999 3.41891 9.36898 2.37052L9.78864 1.8974L9.32701 1.97267C7.56443 2.24149 6.20577 2.71461 5.07793 3.46729L4.35401 3.94579L2.8065 3.95116L1.25899 3.95116L1.25899 10.4565L1.25899 16.9619L2.64912 16.9619L4.0445 16.9619L4.52712 17.3113C4.79465 17.5049 5.61824 18.1339 6.36314 18.7146C7.16575 19.3436 8.11524 19.9726 8.70801 20.2737L9.70471 20.7737L11.2784 20.8436C14.7931 21.0049 16.3039 21.4726 18.6803 23.1447C20.1229 24.15 20.2225 24.1823 20.7051 23.7522C22.0428 22.5479 20.5897 19.8866 17.778 18.392ZM32.1567 20.8436L33.9403 20.7683L34.9002 20.2522C35.4248 19.9673 36.6786 19.107 37.6805 18.349L39.5008 16.9619L40.8909 16.9619L42.2811 16.9619L42.2811 10.4511L42.2811 3.93503L40.7703 3.96192L39.2542 3.98342L38.3939 3.41891C37.2189 2.64471 35.0681 1.91353 33.956 1.90816C33.9088 1.90816 33.998 2.06407 34.1553 2.25762C35.194 3.51568 35.0104 5.17159 33.7619 5.84363L33.4734 5.99417L33.6937 6.37589C34.2917 7.40814 33.9403 8.92427 32.975 9.50491C32.7285 9.65545 32.5239 9.78986 32.5239 9.80599C32.5239 9.82749 32.5973 10.0103 32.6813 10.2253C33.1324 11.3275 32.6341 12.6393 31.5534 13.2092C31.2125 13.392 31.1705 13.4511 31.2649 13.6232C31.9731 14.9834 30.5987 16.8812 28.5371 17.3759C24.9175 18.2468 22.3366 20.4834 22.473 22.6285C22.5149 23.2791 22.5464 23.3597 22.9136 23.7038C23.4277 24.1877 23.5011 24.1662 25.1011 23.0533C27.3201 21.5156 29.0302 20.978 32.1567 20.8436ZM19.677 12.8221C18.9898 11.8974 18.4809 11.9081 15.5275 12.892C13.1145 13.6985 12.8784 13.9834 13.5709 15.2791C14.0377 16.1501 15.0187 16.3167 16.5085 15.7791C17.5314 15.4081 17.7098 15.3866 17.8042 15.6339C17.8724 15.8167 17.3845 16.3167 17.138 16.3167C17.075 16.3167 16.9649 16.392 16.8914 16.478C16.7236 16.6823 16.8232 16.6823 17.5262 16.4673C19.6507 15.8221 20.6527 14.1286 19.677 12.8221ZM26.2394 16.2146C25.804 15.9888 25.6729 15.7898 25.8093 15.5694C25.909 15.4027 26.166 15.4458 27.3778 15.8221C28.9043 16.3006 29.5968 16.1286 30.0846 15.1393C30.6459 13.9941 30.3469 13.6608 28.0545 12.8866C25.3214 11.9673 24.7129 11.9296 24.0152 12.6447C22.8664 13.8221 23.8106 15.7576 25.8565 16.4242C26.6066 16.6662 26.6486 16.6716 26.6486 16.5318C26.6486 16.478 26.465 16.3329 26.2394 16.2146ZM18.5176 11.0802C20.1491 10.8114 19.3517 7.92427 17.6836 8.06406C16.4613 8.16621 12.3276 9.73072 12.0338 10.2038C11.6037 10.8974 11.8397 11.9189 12.5269 12.349C12.9781 12.6339 13.1197 12.6178 14.7617 12.0856C16.2987 11.5909 17.6573 11.2253 18.5176 11.0802ZM31.3541 10.0425C30.7089 9.47265 26.7588 8.03717 25.8355 8.03717C24.0047 8.03717 23.5011 10.8866 25.2952 11.0963C25.9352 11.1662 28.9935 12.0587 29.7069 12.3812C30.3626 12.6716 30.8033 12.6017 31.2964 12.1286C31.9311 11.521 31.9574 10.5748 31.3541 10.0425ZM17.1852 7.06943C18.5334 6.7146 17.5786 4.19847 16.1098 4.24148C15.3177 4.26299 11.4201 5.99417 10.9952 6.51567C10.4234 7.20922 10.5913 8.31674 11.3362 8.77911L11.6771 8.98878L12.5269 8.66083C12.9938 8.48341 14.1322 8.07481 15.0554 7.76298C15.9787 7.44578 16.9387 7.13395 17.1852 7.06943ZM31.181 5.64471C27.5037 3.87052 26.2342 3.83288 25.7988 5.48879C25.547 6.46191 25.7726 6.86513 26.7273 7.11782C27.6715 7.36513 30.3731 8.33287 31.1075 8.68771C31.9259 9.07481 31.9364 9.07481 32.4242 8.60169C33.4786 7.59094 33.038 6.54255 31.181 5.64471ZM15.3964 3.30063C16.1308 2.99418 15.3177 1.44579 14.2685 1.15547C13.3453 0.902783 10.8273 1.97805 10.1139 2.93504C9.30603 4.02105 10.0824 5.49955 11.2155 5.02105C11.483 4.91353 12.4797 4.49955 13.4292 4.11245C14.384 3.71998 15.2653 3.35977 15.3964 3.30063ZM32.8124 2.35977C30.6459 0.83289 28.9987 0.709235 28.1437 2.00493C27.5561 2.90278 27.7083 3.08557 29.6912 3.88127C30.5305 4.21998 31.5429 4.66084 31.9469 4.85976C32.8229 5.28987 32.7705 5.28449 33.1586 5.08019C34.1239 4.56406 33.9455 3.15547 32.8124 2.35977Z" fill-rule="nonzero" stroke="rgb(255,255,255)" stroke-width="0.500000" transform="matrix(1,0,0,-1,13,46.9995)" />
		</g>
	</g>
</svg>
