<svg viewBox="0 0 70 70" xmlns="http://www.w3.org/2000/svg" xmlns:xlink="http://www.w3.org/1999/xlink" width="70.000000" height="70.000000" fill="none" customFrame="#000000">
	<rect id="速冷-未选中" width="70.000000" height="70.000000" x="0.000000" y="0.000000" />
	<circle id="椭圆 8" cx="35" cy="35" r="35" fill="rgb(242,244,246)" />
	<path id="Icon" d="M34.9706 47C33.7451 47 32.7034 46.5711 31.8456 45.7132C30.9877 44.8554 30.5588 43.8137 30.5588 42.5882L33.5 42.5882C33.5 43.0049 33.6409 43.3542 33.9228 43.636C34.2047 43.9179 34.5539 44.0588 34.9706 44.0588C35.3873 44.0588 35.7365 43.9179 36.0184 43.636C36.3002 43.3542 36.4412 43.0049 36.4412 42.5882C36.4412 42.1716 36.3002 41.8223 36.0184 41.5404C35.7365 41.2586 35.3873 41.1176 34.9706 41.1176L21 41.1176L21 38.1765L34.9706 38.1765C36.1961 38.1765 37.2377 38.6054 38.0956 39.4632C38.9534 40.3211 39.3824 41.3627 39.3824 42.5882C39.3824 43.8137 38.9534 44.8554 38.0956 45.7132C37.2377 46.5711 36.1961 47 34.9706 47ZM21 32.2941L21 29.3529L40.8529 29.3529C41.4902 29.3529 42.0172 29.1446 42.4338 28.7279C42.8505 28.3113 43.0588 27.7843 43.0588 27.1471C43.0588 26.5098 42.8505 25.9828 42.4338 25.5662C42.0172 25.1495 41.4902 24.9412 40.8529 24.9412C40.2157 24.9412 39.6887 25.1495 39.2721 25.5662C38.8554 25.9828 38.6471 26.5098 38.6471 27.1471L35.7059 27.1471C35.7059 25.701 36.2022 24.4816 37.1949 23.489C38.1875 22.4963 39.4069 22 40.8529 22C42.299 22 43.5184 22.4963 44.511 23.489C45.5037 24.4816 46 25.701 46 27.1471C46 28.5931 45.5037 29.8125 44.511 30.8051C43.5184 31.7978 42.299 32.2941 40.8529 32.2941L21 32.2941ZM45.2647 44.0588L45.2647 41.1176C45.902 41.1176 46.4289 40.9093 46.8456 40.4926C47.2623 40.076 47.4706 39.549 47.4706 38.9118C47.4706 38.2745 47.2623 37.7476 46.8456 37.3309C46.4289 36.9142 45.902 36.7059 45.2647 36.7059L21 36.7059L21 33.7647L45.2647 33.7647C46.7108 33.7647 47.9301 34.261 48.9228 35.2537C49.9154 36.2463 50.4118 37.4657 50.4118 38.9118C50.4118 40.3578 49.9154 41.5772 48.9228 42.5699C47.9301 43.5625 46.7108 44.0588 45.2647 44.0588Z" fill="rgb(1,89,188)" fill-rule="nonzero" />
</svg>
