<svg viewBox="0 0 38 38" xmlns="http://www.w3.org/2000/svg" xmlns:xlink="http://www.w3.org/1999/xlink" width="38.000000" height="38.000000" fill="none" customFrame="#000000">
	<defs>
		<g id="pixso_custom_effect_14">
			<effect x="2.000000" y="3.000000" visibility="visible" fill="rgb(0,0,0)" fill-opacity="0.180000007" effectType="dropShadow" stdDeviation="6" radius="-2" />
		</g>
		<filter id="filter_14" width="38.000000" height="38.000000" x="0.000000" y="0.000000" filterUnits="userSpaceOnUse" customEffect="url(#pixso_custom_effect_14)" color-interpolation-filters="sRGB">
			<feFlood flood-opacity="0" result="BackgroundImageFix" />
			<feOffset dx="2.000000" dy="3.000000" in="SourceAlpha" />
			<feMorphology radius="2" operator="erode" />
			<feOffset dx="0.000000" dy="0.000000" />
			<feGaussianBlur stdDeviation="2" />
			<feColorMatrix type="matrix" values="0 0 0 0 0 0 0 0 0 0 0 0 0 0 0 0 0 0 0.18 0 " />
			<feBlend result="effect_dropShadow_1" in2="BackgroundImageFix" mode="normal" />
			<feBlend result="shape" in="SourceGraphic" in2="effect_dropShadow_1" mode="normal" />
		</filter>
	</defs>
	<rect id="悬浮图标-点按" width="30.000000" height="30.000000" x="2.000000" y="1.000000" />
	<g filter="url(#filter_14)">
		<path id="椭圆 8" d="M2 16C2 7.71573 8.71573 1 17 1C25.2843 1 32 7.71573 32 16C32 24.2843 25.2843 31 17 31C8.71573 31 2 24.2843 2 16Z" fill="rgb(255,255,255)" fill-rule="evenodd" />
		<path id="椭圆 8" d="M17 1C8.71573 1 2 7.71573 2 16C2 24.2843 8.71573 31 17 31C25.2843 31 32 24.2843 32 16C32 7.71573 25.2843 1 17 1ZM13.9008 2.3418C14.9081 2.11393 15.9412 2 17 2C18.0588 2 19.0919 2.11393 20.0991 2.34179C20.8987 2.52266 21.682 2.77533 22.4491 3.09978C23.2311 3.43053 23.9714 3.82491 24.6699 4.28291C25.4675 4.80584 26.2107 5.4117 26.8995 6.1005C27.5882 6.78925 28.1941 7.53236 28.7169 8.32985C29.175 9.02846 29.5694 9.76881 29.9002 10.5509C30.2247 11.318 30.4774 12.1014 30.6583 12.901C30.8861 13.9083 31 14.9412 31 16C31 17.0588 30.8861 18.0917 30.6582 19.099C30.4774 19.8986 30.2247 20.682 29.9002 21.4491C29.5695 22.2311 29.1751 22.9714 28.7171 23.6699C28.1942 24.4675 27.5883 25.2107 26.8995 25.8995C26.2107 26.5883 25.4675 27.1942 24.6699 27.7171C23.9713 28.1751 23.2311 28.5695 22.4491 28.9002C21.682 29.2247 20.8986 29.4774 20.099 29.6582C19.0918 29.8861 18.0588 30 17 30C15.9412 30 14.9082 29.8861 13.901 29.6582C13.1014 29.4774 12.318 29.2247 11.5509 28.9002C10.7688 28.5694 10.0285 28.175 9.32989 27.717C8.53239 27.1941 7.78926 26.5883 7.1005 25.8995C6.41169 25.2107 5.80583 24.4675 5.2829 23.6699C4.8249 22.9714 4.43053 22.2311 4.09978 21.4491C3.77532 20.682 3.52265 19.8987 3.34178 19.0991C3.11393 18.0918 3 17.0588 3 16C3 14.9412 3.11393 13.9081 3.34179 12.9009C3.52266 12.1013 3.77533 11.318 4.09978 10.5509C4.43058 9.76879 4.82501 9.02842 5.28309 8.32979C5.80598 7.53233 6.41178 6.78923 7.1005 6.1005C7.78925 5.41176 8.53236 4.80594 9.32985 4.28305C10.0285 3.82499 10.7688 3.43057 11.5509 3.09978C12.318 2.77533 13.1013 2.52267 13.9008 2.3418Z" fill="rgb(1,89,188)" fill-rule="evenodd" />
	</g>
	<g id="组合 71">
		<path id="矢量 335" d="M2.50497 4.1954C0.695228 3.86821 -0.413108 2.02167 0.14515 0.261008C0.25353 -0.0825349 0.869045 -0.0886696 0.977425 0.252829C0.991739 0.297817 0.973335 0.557519 0.934482 0.831535C0.668645 2.69035 2.40068 3.91115 4.13271 3.08706C4.58872 2.8703 4.68278 2.86417 4.86683 3.04821C5.48643 3.66781 3.88732 4.44487 2.50497 4.1954Z" fill="rgb(1,89,188)" fill-rule="nonzero" transform="matrix(1,0,0,-1,11.0001,12.2432)" />
		<path id="矢量 336" d="M0.93465 13.9997C0.368213 13.8361 -0.0571264 13.2042 0.0062655 12.6173C0.0205798 12.4906 0.204621 11.8935 0.423425 11.2657C0.640185 10.6481 0.906022 9.88331 1.01645 9.5684C1.12483 9.25348 1.38862 8.50914 1.60129 7.91203C1.81396 7.31696 1.98368 6.82414 1.97755 6.81801C1.97346 6.81187 1.82214 6.77098 1.64423 6.72599C0.593152 6.4622 0.0798819 5.93666 0.12487 5.17186C0.149409 4.7363 0.227115 4.60747 1.17799 3.43165C2.6994 1.54625 2.97342 1.31313 4.84245 0.292729C5.52341 -0.0794426 5.73812 -0.091712 5.90376 0.227293C6.06326 0.534028 5.95079 0.726248 5.4641 0.977771C3.83636 1.82027 3.2822 2.24561 2.42129 3.311C2.20453 3.58093 1.84872 4.02058 1.63196 4.28642C0.897842 5.19231 0.869213 5.2966 1.23321 5.68922C1.68104 6.17386 2.25566 6.17795 2.37835 5.69536C2.44174 5.44383 2.90593 4.63814 3.05726 4.51954C3.2413 4.37435 3.2822 4.36822 3.45397 4.47455C3.66664 4.60338 3.66255 4.71381 3.42534 5.38044C2.74643 7.29651 2.49491 8.01223 2.12069 9.07762C1.89371 9.72995 1.67695 10.3373 1.64219 10.4273C1.60742 10.5172 1.47041 10.9037 1.33954 11.2861C1.20867 11.6685 1.05734 12.102 1.00213 12.2472C0.83445 12.6828 0.84263 12.8607 1.03076 13.0488C1.24343 13.2615 1.57675 13.2329 1.72194 12.9854C1.80578 12.8464 3.09202 9.51932 3.59916 8.13697C3.85068 7.44579 4.12878 7.25766 4.44779 7.56235C4.64001 7.74639 4.64001 7.86909 4.45188 8.37009C4.24739 8.9079 4.24739 8.94675 4.44574 9.14306C4.72385 9.42117 5.26779 9.28211 5.26779 8.93244C5.26779 8.38645 6.03054 8.30465 6.35364 8.81588C6.60107 9.20645 6.94461 9.19827 7.35564 8.78929C7.70736 8.43961 7.95888 8.3844 8.26357 8.59094C8.73185 8.90585 8.89954 8.77702 9.27989 7.80774C10.5784 4.50113 10.4823 4.84263 10.4843 3.53594C10.4864 2.29673 10.5232 2.18631 10.9158 2.18631C11.3043 2.18631 11.3677 2.37853 11.3739 3.56866C11.382 4.83036 11.3739 4.86513 10.65 6.70554C10.4189 7.29038 10.1612 7.95293 10.0774 8.17787C9.99151 8.40281 9.86677 8.70136 9.80134 8.84042C9.49665 9.48251 8.76662 9.75449 8.10612 9.47024L7.89549 9.37822L7.67669 9.59703C7.24726 10.0244 6.56426 10.0817 6.03668 9.73199L5.87513 9.62361L5.72176 9.78925C5.34959 10.1921 4.69931 10.2882 4.17991 10.0183C3.84659 9.84446 3.9018 9.78516 3.57462 10.6522C2.75257 12.8423 2.499 13.4374 2.317 13.6275C1.96528 13.9915 1.41929 14.1388 0.93465 13.9997Z" fill="rgb(1,89,188)" fill-rule="nonzero" transform="matrix(1,0,0,-1,12.7635,24)" />
	</g>
</svg>
