<svg viewBox="0 0 38 38" xmlns="http://www.w3.org/2000/svg" xmlns:xlink="http://www.w3.org/1999/xlink" width="38.000000" height="38.000000" fill="none" customFrame="#000000">
	<defs>
		<g id="pixso_custom_effect_12">
			<effect x="2.000000" y="3.000000" visibility="visible" fill="rgb(0,0,0)" fill-opacity="0.180000007" effectType="dropShadow" stdDeviation="6" radius="-2" />
		</g>
		<filter id="filter_12" width="38.000000" height="38.000000" x="0.000000" y="0.000000" filterUnits="userSpaceOnUse" customEffect="url(#pixso_custom_effect_12)" color-interpolation-filters="sRGB">
			<feFlood flood-opacity="0" result="BackgroundImageFix" />
			<feOffset dx="2.000000" dy="3.000000" in="SourceAlpha" />
			<feMorphology radius="2" operator="erode" />
			<feOffset dx="0.000000" dy="0.000000" />
			<feGaussianBlur stdDeviation="2" />
			<feColorMatrix type="matrix" values="0 0 0 0 0 0 0 0 0 0 0 0 0 0 0 0 0 0 0.18 0 " />
			<feBlend result="effect_dropShadow_1" in2="BackgroundImageFix" mode="normal" />
			<feBlend result="shape" in="SourceGraphic" in2="effect_dropShadow_1" mode="normal" />
		</filter>
	</defs>
	<rect id="悬浮图标-蝴蝶" width="30.000000" height="30.000000" x="2.000000" y="1.000000" />
	<g filter="url(#filter_12)">
		<path id="椭圆 8" d="M2 16C2 7.71573 8.71573 1 17 1C25.2843 1 32 7.71573 32 16C32 24.2843 25.2843 31 17 31C8.71573 31 2 24.2843 2 16Z" fill="rgb(255,255,255)" fill-rule="evenodd" />
		<path id="椭圆 8" d="M17 1C8.71573 1 2 7.71573 2 16C2 24.2843 8.71573 31 17 31C25.2843 31 32 24.2843 32 16C32 7.71573 25.2843 1 17 1ZM13.9008 2.3418C14.9081 2.11393 15.9412 2 17 2C18.0588 2 19.0919 2.11393 20.0991 2.34179C20.8987 2.52266 21.682 2.77533 22.4491 3.09978C23.2311 3.43053 23.9714 3.82491 24.6699 4.28291C25.4675 4.80584 26.2107 5.4117 26.8995 6.1005C27.5882 6.78925 28.1941 7.53236 28.7169 8.32985C29.175 9.02846 29.5694 9.76881 29.9002 10.5509C30.2247 11.318 30.4774 12.1014 30.6583 12.901C30.8861 13.9083 31 14.9412 31 16C31 17.0588 30.8861 18.0917 30.6582 19.099C30.4774 19.8986 30.2247 20.682 29.9002 21.4491C29.5695 22.2311 29.1751 22.9714 28.7171 23.6699C28.1942 24.4675 27.5883 25.2107 26.8995 25.8995C26.2107 26.5883 25.4675 27.1942 24.6699 27.7171C23.9713 28.1751 23.2311 28.5695 22.4491 28.9002C21.682 29.2247 20.8986 29.4774 20.099 29.6582C19.0918 29.8861 18.0588 30 17 30C15.9412 30 14.9082 29.8861 13.901 29.6582C13.1014 29.4774 12.318 29.2247 11.5509 28.9002C10.7688 28.5694 10.0285 28.175 9.32989 27.717C8.53239 27.1941 7.78926 26.5883 7.1005 25.8995C6.41169 25.2107 5.80583 24.4675 5.2829 23.6699C4.8249 22.9714 4.43053 22.2311 4.09978 21.4491C3.77532 20.682 3.52265 19.8987 3.34178 19.0991C3.11393 18.0918 3 17.0588 3 16C3 14.9412 3.11393 13.9081 3.34179 12.9009C3.52266 12.1013 3.77533 11.318 4.09978 10.5509C4.43058 9.76879 4.82501 9.02842 5.28309 8.32979C5.80598 7.53233 6.41178 6.78923 7.1005 6.1005C7.78925 5.41176 8.53236 4.80594 9.32985 4.28305C10.0285 3.82499 10.7688 3.43057 11.5509 3.09978C12.318 2.77533 13.1013 2.52267 13.9008 2.3418Z" fill="rgb(1,89,188)" fill-rule="evenodd" />
	</g>
	<g id="图层_x0020_1">
		<path id="矢量 332" d="M8.34511 15.9711C7.81487 15.8104 7.33782 15.431 6.83674 14.7712C6.70461 14.5986 6.55188 14.3798 6.55188 14.3661C6.55188 14.361 6.51756 14.3046 6.47466 14.2396C6.43176 14.1747 6.39744 14.1183 6.39744 14.1132C6.39744 14.108 6.36141 14.0448 6.31851 13.9713C6.27561 13.8978 6.17093 13.6961 6.08513 13.5218C5.93755 13.2175 5.91181 13.1628 5.85861 13.0398C5.84489 13.009 5.82258 12.956 5.80885 12.9235C5.70761 12.6928 5.64411 12.5185 5.5034 12.0946C5.37985 11.7168 5.34381 11.5972 5.29062 11.3852C5.27517 11.3237 5.25115 11.24 5.23742 11.1972C5.22369 11.1545 5.21339 11.1049 5.21339 11.0878C5.21339 11.069 5.2031 11.0161 5.18937 10.9682C5.17564 10.9203 5.15162 10.8195 5.13617 10.7443C5.11901 10.6691 5.09671 10.5614 5.08298 10.505C5.05895 10.3956 5.02635 10.2161 4.98173 9.94095C4.96629 9.84695 4.94227 9.7085 4.92854 9.63329C4.91481 9.55809 4.90451 9.46921 4.90451 9.43673C4.90451 9.40426 4.8925 9.31709 4.87877 9.24359C4.86504 9.1701 4.85303 9.06925 4.85303 9.02139C4.85303 8.97183 4.84102 8.84363 4.82729 8.73595C4.81528 8.62827 4.79469 8.40437 4.78439 8.24028C4.77581 8.0762 4.76037 7.93604 4.75007 7.92579C4.74149 7.91724 4.70374 7.92579 4.65226 7.94971C4.52184 8.00954 4.4103 8.03859 4.25243 8.04714C4.17178 8.05227 4.09627 8.06423 4.08426 8.07278C4.04308 8.10867 3.72561 8.5411 3.63123 8.69493C3.42703 9.02481 3.21424 9.46579 3.15418 9.68457C3.14732 9.71363 3.11986 9.81276 3.09241 9.90677C3.04779 10.0691 3.04436 10.0982 3.04264 10.4537C3.04092 10.8092 3.03921 10.8332 3.00317 10.8896C2.95856 10.9631 2.8985 11.0092 2.79382 11.0502C2.65654 11.1049 2.49352 11.0485 2.38884 10.9118C2.34422 10.8537 2.3305 10.8161 2.3202 10.7238C2.29446 10.4845 2.33564 10.0333 2.40772 9.77003C2.46435 9.55809 2.54843 9.31538 2.57245 9.29316C2.58103 9.2829 2.5879 9.26581 2.5879 9.25214C2.5879 9.21966 2.73033 8.93081 2.82128 8.77698C2.86246 8.7069 2.89678 8.64366 2.8985 8.63682C2.8985 8.62998 2.9414 8.56674 2.99116 8.49666C3.04264 8.42659 3.11986 8.3172 3.16448 8.25225C3.20738 8.189 3.25199 8.12747 3.26401 8.11551C3.2743 8.10525 3.32407 8.04372 3.37383 7.98219L3.46306 7.86767L3.42016 7.84032C3.36182 7.80101 3.33436 7.80614 3.29833 7.86084C3.28288 7.88647 3.23312 7.94117 3.19022 7.98219C3.09069 8.0762 2.74405 8.33771 2.6308 8.40437C2.58447 8.43171 2.53299 8.46248 2.51583 8.47103C2.27902 8.60947 1.89635 8.77698 1.65267 8.84705C1.59604 8.86415 1.51882 8.88637 1.48107 8.89833C1.2803 8.96157 0.943959 9.01114 0.653953 9.02139C0.451464 9.02994 0.394836 9.02481 0.310751 8.99917C0.0756578 8.92739 -0.0204388 8.79578 0.00358536 8.58383C0.0173134 8.46761 0.099682 8.36164 0.221519 8.3001C0.302171 8.25908 0.312467 8.25737 0.549277 8.26763C0.895911 8.2813 1.14645 8.25054 1.47249 8.15311C1.64409 8.10013 1.6664 8.09329 1.90664 7.99244C2.13144 7.90015 2.36996 7.77025 2.59648 7.61813C2.70115 7.54805 2.92767 7.36345 2.93796 7.33952C2.94311 7.32756 2.92767 7.27799 2.90364 7.23184C2.82471 7.0763 2.79382 6.92589 2.79382 6.70711C2.79382 6.48662 2.81956 6.36185 2.90536 6.18067C2.97057 6.04223 3.11815 5.85079 3.23655 5.74824C3.33951 5.65936 3.53514 5.53972 3.5746 5.53972C3.58833 5.53972 3.60206 5.53288 3.60721 5.52433C3.62265 5.5004 3.83372 5.44058 3.97958 5.41836C4.04994 5.40811 4.12373 5.39614 4.14432 5.39272C4.17006 5.3876 4.18894 5.36196 4.20953 5.30555C4.36054 4.87654 4.64025 4.54324 5.02463 4.33814C5.12245 4.28515 5.13789 4.26464 5.26316 4.01168C5.71962 3.10066 6.28075 2.3657 6.8539 1.93156C7.14219 1.71449 7.39444 1.58288 7.63812 1.52476C7.98647 1.44272 8.32796 1.62732 8.42748 1.95207C8.44293 2.00505 8.45666 2.06659 8.45666 2.09222C8.45666 2.11615 8.46352 2.14179 8.47382 2.14692C8.4824 2.15205 8.58021 2.0888 8.69175 2.00505C8.80329 1.9213 8.93714 1.82559 8.98862 1.79311C9.10531 1.7179 9.39875 1.54015 9.40904 1.54015C9.41247 1.54015 9.47425 1.50596 9.54461 1.46323C9.61668 1.4205 9.67846 1.38632 9.68189 1.38632C9.68532 1.38632 9.77627 1.34529 9.88266 1.29402C9.99077 1.24274 10.1126 1.18805 10.1555 1.17266C10.3391 1.1043 10.5656 1.0308 10.6617 1.00516C10.7184 0.991487 10.7973 0.969267 10.8385 0.959012C11.264 0.847912 11.7874 0.846203 12.2147 0.952175C12.6008 1.0496 12.8754 1.17437 13.1517 1.38119C13.2186 1.43076 13.2786 1.47178 13.2872 1.47178C13.2941 1.47178 13.3902 1.38461 13.5 1.27864C13.9496 0.842785 14.0972 0.719721 14.4455 0.494104C14.7767 0.280452 14.8625 0.234303 15.1491 0.116367C15.4648 -0.0118243 15.6364 -0.0306257 15.8046 0.0428707C15.9882 0.123204 16.0757 0.254814 16.0757 0.446246C16.0757 0.697501 15.9505 0.815437 15.5953 0.899189C15.3293 0.960721 15.1079 1.05302 14.8402 1.21369C14.5193 1.40512 14.0011 1.84951 13.869 2.04778C13.7917 2.16401 13.7934 2.22383 13.8775 2.39134C13.9136 2.46312 13.9599 2.56226 13.9788 2.60841C14.0097 2.68703 14.0234 2.72805 14.092 2.96734C14.1418 3.13997 14.1607 3.43738 14.1367 3.65616C14.0903 4.08517 13.9788 4.37232 13.7248 4.71075C13.5378 4.96029 13.3507 5.13976 13.1156 5.29188C12.9801 5.37905 12.6248 5.56023 12.5287 5.59099C12.4121 5.6286 12.3434 5.65765 12.3383 5.67304C12.3366 5.68158 12.3657 5.70209 12.4069 5.71577C12.4481 5.72944 12.5082 5.74995 12.5408 5.76191C12.5734 5.77217 12.6248 5.78755 12.6523 5.7961C12.6815 5.80294 12.7227 5.81661 12.7467 5.82687C12.7707 5.83541 12.8239 5.85763 12.8668 5.87301C13.2392 6.02001 13.4417 6.13623 13.7986 6.41825C14.1298 6.67635 14.4473 7.12758 14.5536 7.48823C14.5674 7.5395 14.5931 7.62838 14.6103 7.68479C14.6549 7.84032 14.6497 8.30352 14.6034 8.48299C14.5468 8.69322 14.4593 8.89491 14.3443 9.0778C14.3117 9.13078 14.1675 9.32222 14.1521 9.33418C14.1298 9.35127 14.1023 9.41964 14.1023 9.45724C14.1023 9.50852 14.1555 9.60766 14.2482 9.7273C14.3083 9.80764 14.4044 9.95121 14.4713 10.0657C14.4816 10.0811 14.509 10.1255 14.5331 10.1632C14.5571 10.2008 14.6034 10.2777 14.6343 10.3341C14.6669 10.3905 14.7098 10.4674 14.7304 10.505C14.8454 10.7067 15.1079 11.2588 15.1491 11.3852C15.1577 11.4092 15.18 11.4707 15.2006 11.522C15.295 11.7698 15.3842 12.0809 15.4305 12.3253C15.4443 12.4056 15.4648 12.5167 15.4769 12.5731C15.5129 12.7629 15.518 13.1953 15.4854 13.3799C15.3928 13.9166 15.2092 14.2482 14.8591 14.5114C14.6686 14.6533 14.4987 14.7302 14.2276 14.7951C14.0594 14.8344 13.5223 14.8362 13.3027 14.7951C12.908 14.7251 12.8205 14.7028 12.455 14.5832C12.098 14.467 12.038 14.4447 12.0191 14.4259C12.0088 14.4174 11.9916 14.4106 11.9813 14.4106C11.947 14.4106 11.4717 14.1867 11.2709 14.0756C11.2091 14.0414 11.1113 13.9884 11.053 13.9559C10.8968 13.8704 10.6463 13.7183 10.485 13.6124C10.2997 13.4876 10.3014 13.4859 10.2344 13.8123C10.1675 14.1439 10.1504 14.2208 10.128 14.3251C9.99077 14.9302 9.79514 15.3558 9.52573 15.6344C9.41076 15.7523 9.27004 15.8617 9.19454 15.8907C9.18081 15.8959 9.15507 15.9078 9.13791 15.9164C9.12075 15.9266 9.05898 15.9489 9.00063 15.9659C8.86507 16.0087 8.47896 16.0121 8.34511 15.9711ZM14.1435 14.0174C14.3048 13.9593 14.3683 13.9217 14.4696 13.8209C14.624 13.6705 14.7029 13.4602 14.7304 13.1321C14.7544 12.8398 14.6394 12.245 14.4799 11.8296C14.4593 11.7784 14.437 11.7168 14.4284 11.6929C14.3803 11.5442 14.1281 11.0161 14.0131 10.8212C13.8947 10.6178 13.742 10.3717 13.6819 10.2828C13.3593 9.81276 13.3215 9.74439 13.2872 9.57005C13.2581 9.4299 13.2786 9.2641 13.337 9.13762C13.3765 9.05729 13.4142 9.0043 13.6287 8.73595C13.8003 8.52059 13.8621 8.35138 13.8621 8.095C13.8621 7.81981 13.7608 7.53437 13.5807 7.30363C13.4966 7.19595 13.3095 7.01135 13.1997 6.9276C13.083 6.83872 12.7982 6.67806 12.6523 6.61823C12.5768 6.58747 12.4927 6.55328 12.4635 6.54132C12.3846 6.50884 11.9281 6.36698 11.8029 6.3345C11.7411 6.31912 11.6519 6.29519 11.6038 6.28152C11.5558 6.26784 11.5026 6.25759 11.4837 6.25759C11.4665 6.25759 11.4013 6.24733 11.3396 6.23195C11.1302 6.1858 10.7973 6.12769 10.5931 6.10376C10.4541 6.08667 10.2447 6.0559 10.0783 6.02513C10.0028 6.01146 9.91012 6.00121 9.87236 6.00121C9.83461 6.00121 9.7694 5.99266 9.7265 5.9824C9.6836 5.97215 9.58751 5.95677 9.512 5.94993C9.36786 5.93455 9.22028 5.91233 9.00578 5.87301C8.74838 5.82687 8.65228 5.80977 8.5682 5.7961C8.47382 5.78243 8.34511 5.75508 8.19582 5.71748C8.14091 5.7038 8.07742 5.69355 8.05168 5.69355C8.02765 5.69355 7.99505 5.68671 7.97789 5.67645C7.96073 5.66791 7.9041 5.65423 7.85434 5.64569C7.65356 5.6115 7.17308 5.47989 6.99461 5.41153C6.97402 5.40298 6.93112 5.44913 6.81272 5.60296C6.72863 5.71406 6.64283 5.82345 6.62224 5.84738C6.60165 5.8713 6.54159 5.93967 6.48839 6.00121C6.43519 6.06274 6.29277 6.20973 6.17093 6.32767C6.05081 6.4456 5.95128 6.55157 5.95128 6.56354C5.95128 6.5755 5.97016 6.62507 5.99246 6.67293C6.07483 6.84727 6.17093 7.05408 6.20868 7.13784C6.37513 7.50532 6.69088 8.13602 6.86076 8.43684C6.88136 8.47444 6.93455 8.56674 6.97917 8.64195C7.02207 8.71715 7.06669 8.79236 7.07527 8.80774C7.37557 9.33247 7.93156 10.1392 8.30393 10.5905C8.66086 11.0229 9.28206 11.6707 9.62354 11.9698C9.6939 12.0313 9.77284 12.1014 9.79686 12.1219C9.82088 12.1441 9.89467 12.2057 9.95817 12.2569C10.0217 12.3082 10.0869 12.3629 10.1023 12.3783C10.2087 12.4826 10.9191 12.9714 11.2452 13.1662C11.6793 13.4243 12.1324 13.65 12.4035 13.744C12.4275 13.7525 12.4893 13.7747 12.5408 13.7952C12.7896 13.891 13.1036 13.985 13.3044 14.0243C13.4949 14.0636 13.5481 14.067 13.8106 14.0585C13.9908 14.055 14.0646 14.0448 14.1435 14.0174ZM11.0307 5.20642C11.2692 5.17736 11.4751 5.13976 11.6073 5.10216C11.6553 5.08848 11.7051 5.07823 11.7188 5.07823C11.7565 5.07823 12.2061 4.92953 12.2799 4.89192C12.4103 4.82697 12.4532 4.80304 12.5064 4.77228C12.539 4.75348 12.5785 4.73126 12.5922 4.72442C12.6592 4.69365 12.8874 4.50564 12.9955 4.39283C13.3318 4.03902 13.4485 3.56557 13.3198 3.08699C13.2872 2.96392 13.2581 2.89043 13.1808 2.71951C13.0556 2.44945 13.0418 2.41868 13.0127 2.34861C12.92 2.1247 12.4927 1.83926 12.0774 1.72303C11.8166 1.64954 11.5197 1.62561 11.3138 1.6615C11.2572 1.67005 11.1645 1.68543 11.1079 1.69398C11.0513 1.70252 10.9517 1.72645 10.8848 1.74525C10.8196 1.76576 10.7424 1.78798 10.7132 1.79653C10.6858 1.80337 10.6188 1.82729 10.5673 1.84781C10.5159 1.86832 10.4541 1.89054 10.4301 1.89737C10.3014 1.93839 9.86378 2.15717 9.651 2.28537C9.56005 2.34006 9.47253 2.39475 9.45537 2.4033C9.34555 2.46825 9.0298 2.68874 8.82731 2.84428C8.69346 2.94512 8.51328 3.08357 8.42577 3.15023C8.26618 3.27158 8.26446 3.27329 8.1718 3.46131C7.99505 3.82366 7.78055 4.17747 7.49397 4.57914C7.3893 4.72613 7.38243 4.75519 7.45279 4.77228C7.48196 4.7774 7.56605 4.80133 7.64155 4.82185C7.71705 4.84406 7.80972 4.86628 7.84747 4.87312C7.88522 4.87996 7.947 4.89363 7.98475 4.90389C8.33825 4.99789 9.14821 5.13121 9.79514 5.20471C10.0972 5.23719 10.763 5.23889 11.0307 5.20642Z" fill="rgb(1,89,188)" fill-rule="nonzero" transform="matrix(1,0,0,-1,9,24)" />
	</g>
</svg>
