<svg viewBox="0 0 38 38" xmlns="http://www.w3.org/2000/svg" xmlns:xlink="http://www.w3.org/1999/xlink" width="38.000000" height="38.000000" fill="none" customFrame="#000000">
	<defs>
		<g id="pixso_custom_effect_18">
			<effect x="2.000000" y="3.000000" visibility="visible" fill="rgb(0,0,0)" fill-opacity="0.180000007" effectType="dropShadow" stdDeviation="6" radius="-2" />
		</g>
		<filter id="filter_18" width="38.000000" height="38.000000" x="0.000000" y="0.000000" filterUnits="userSpaceOnUse" customEffect="url(#pixso_custom_effect_18)" color-interpolation-filters="sRGB">
			<feFlood flood-opacity="0" result="BackgroundImageFix" />
			<feOffset dx="2.000000" dy="3.000000" in="SourceAlpha" />
			<feMorphology radius="2" operator="erode" />
			<feOffset dx="0.000000" dy="0.000000" />
			<feGaussianBlur stdDeviation="2" />
			<feColorMatrix type="matrix" values="0 0 0 0 0 0 0 0 0 0 0 0 0 0 0 0 0 0 0.18 0 " />
			<feBlend result="effect_dropShadow_1" in2="BackgroundImageFix" mode="normal" />
			<feBlend result="shape" in="SourceGraphic" in2="effect_dropShadow_1" mode="normal" />
		</filter>
	</defs>
	<rect id="悬浮图标-速冷" width="30.000000" height="30.000000" x="2.000000" y="1.000000" />
	<g filter="url(#filter_18)">
		<path id="椭圆 8" d="M2 16C2 7.71573 8.71573 1 17 1C25.2843 1 32 7.71573 32 16C32 24.2843 25.2843 31 17 31C8.71573 31 2 24.2843 2 16Z" fill="rgb(255,255,255)" fill-rule="evenodd" />
		<path id="椭圆 8" d="M17 1C8.71573 1 2 7.71573 2 16C2 24.2843 8.71573 31 17 31C25.2843 31 32 24.2843 32 16C32 7.71573 25.2843 1 17 1ZM13.9008 2.3418C14.9081 2.11393 15.9412 2 17 2C18.0588 2 19.0919 2.11393 20.0991 2.34179C20.8987 2.52266 21.682 2.77533 22.4491 3.09978C23.2311 3.43053 23.9714 3.82491 24.6699 4.28291C25.4675 4.80584 26.2107 5.4117 26.8995 6.1005C27.5882 6.78925 28.1941 7.53236 28.7169 8.32985C29.175 9.02846 29.5694 9.76881 29.9002 10.5509C30.2247 11.318 30.4774 12.1014 30.6583 12.901C30.8861 13.9083 31 14.9412 31 16C31 17.0588 30.8861 18.0917 30.6582 19.099C30.4774 19.8986 30.2247 20.682 29.9002 21.4491C29.5695 22.2311 29.1751 22.9714 28.7171 23.6699C28.1942 24.4675 27.5883 25.2107 26.8995 25.8995C26.2107 26.5883 25.4675 27.1942 24.6699 27.7171C23.9713 28.1751 23.2311 28.5695 22.4491 28.9002C21.682 29.2247 20.8986 29.4774 20.099 29.6582C19.0918 29.8861 18.0588 30 17 30C15.9412 30 14.9082 29.8861 13.901 29.6582C13.1014 29.4774 12.318 29.2247 11.5509 28.9002C10.7688 28.5694 10.0285 28.175 9.32989 27.717C8.53239 27.1941 7.78926 26.5883 7.1005 25.8995C6.41169 25.2107 5.80583 24.4675 5.2829 23.6699C4.8249 22.9714 4.43053 22.2311 4.09978 21.4491C3.77532 20.682 3.52265 19.8987 3.34178 19.0991C3.11393 18.0918 3 17.0588 3 16C3 14.9412 3.11393 13.9081 3.34179 12.9009C3.52266 12.1013 3.77533 11.318 4.09978 10.5509C4.43058 9.76879 4.82501 9.02842 5.28309 8.32979C5.80598 7.53233 6.41178 6.78923 7.1005 6.1005C7.78925 5.41176 8.53236 4.80594 9.32985 4.28305C10.0285 3.82499 10.7688 3.43057 11.5509 3.09978C12.318 2.77533 13.1013 2.52267 13.9008 2.3418Z" fill="rgb(1,89,188)" fill-rule="evenodd" />
	</g>
	<path id="Icon" d="M16.6 22.6C15.9333 22.6 15.3667 22.3667 14.9 21.9C14.4333 21.4333 14.2 20.8667 14.2 20.2L15.8 20.2C15.8 20.4267 15.8767 20.6167 16.03 20.77C16.1833 20.9233 16.3733 21 16.6 21C16.8267 21 17.0167 20.9233 17.17 20.77C17.3233 20.6167 17.4 20.4267 17.4 20.2C17.4 19.9733 17.3233 19.7833 17.17 19.63C17.0167 19.4767 16.8267 19.4 16.6 19.4L9 19.4L9 17.8L16.6 17.8C17.2667 17.8 17.8333 18.0333 18.3 18.5C18.7667 18.9667 19 19.5333 19 20.2C19 20.8667 18.7667 21.4333 18.3 21.9C17.8333 22.3667 17.2667 22.6 16.6 22.6ZM9 14.6L9 13L19.8 13C20.1467 13 20.4333 12.8867 20.66 12.66C20.8867 12.4333 21 12.1467 21 11.8C21 11.4533 20.8867 11.1667 20.66 10.94C20.4333 10.7133 20.1467 10.6 19.8 10.6C19.4533 10.6 19.1667 10.7133 18.94 10.94C18.7133 11.1667 18.6 11.4533 18.6 11.8L17 11.8C17 11.0133 17.27 10.35 17.81 9.81C18.35 9.27 19.0133 9 19.8 9C20.5867 9 21.25 9.27 21.79 9.81C22.33 10.35 22.6 11.0133 22.6 11.8C22.6 12.5867 22.33 13.25 21.79 13.79C21.25 14.33 20.5867 14.6 19.8 14.6L9 14.6ZM22.2 21L22.2 19.4C22.5467 19.4 22.8333 19.2867 23.06 19.06C23.2867 18.8333 23.4 18.5467 23.4 18.2C23.4 17.8533 23.2867 17.5667 23.06 17.34C22.8333 17.1133 22.5467 17 22.2 17L9 17L9 15.4L22.2 15.4C22.9867 15.4 23.65 15.67 24.19 16.21C24.73 16.75 25 17.4133 25 18.2C25 18.9867 24.73 19.65 24.19 20.19C23.65 20.73 22.9867 21 22.2 21Z" fill="rgb(1,89,188)" fill-rule="nonzero" />
</svg>
