<svg viewBox="0 0 38 38" xmlns="http://www.w3.org/2000/svg" xmlns:xlink="http://www.w3.org/1999/xlink" width="38.000000" height="38.000000" fill="none" customFrame="#000000">
	<defs>
		<g id="pixso_custom_effect_11">
			<effect x="2.000000" y="3.000000" visibility="visible" fill="rgb(0,0,0)" fill-opacity="0.180000007" effectType="dropShadow" stdDeviation="6" radius="-2" />
		</g>
		<filter id="filter_11" width="38.000000" height="38.000000" x="0.000000" y="0.000000" filterUnits="userSpaceOnUse" customEffect="url(#pixso_custom_effect_11)" color-interpolation-filters="sRGB">
			<feFlood flood-opacity="0" result="BackgroundImageFix" />
			<feOffset dx="2.000000" dy="3.000000" in="SourceAlpha" />
			<feMorphology radius="2" operator="erode" />
			<feOffset dx="0.000000" dy="0.000000" />
			<feGaussianBlur stdDeviation="2" />
			<feColorMatrix type="matrix" values="0 0 0 0 0 0 0 0 0 0 0 0 0 0 0 0 0 0 0.18 0 " />
			<feBlend result="effect_dropShadow_1" in2="BackgroundImageFix" mode="normal" />
			<feBlend result="shape" in="SourceGraphic" in2="effect_dropShadow_1" mode="normal" />
		</filter>
	</defs>
	<rect id="悬浮图标-猫步" width="30.000000" height="30.000000" x="2.000000" y="1.000000" />
	<g filter="url(#filter_11)">
		<path id="椭圆 8" d="M2 16C2 7.71573 8.71573 1 17 1C25.2843 1 32 7.71573 32 16C32 24.2843 25.2843 31 17 31C8.71573 31 2 24.2843 2 16Z" fill="rgb(255,255,255)" fill-rule="evenodd" />
		<path id="椭圆 8" d="M17 1C8.71573 1 2 7.71573 2 16C2 24.2843 8.71573 31 17 31C25.2843 31 32 24.2843 32 16C32 7.71573 25.2843 1 17 1ZM13.9008 2.3418C14.9081 2.11393 15.9412 2 17 2C18.0588 2 19.0919 2.11393 20.0991 2.34179C20.8987 2.52266 21.682 2.77533 22.4491 3.09978C23.2311 3.43053 23.9714 3.82491 24.6699 4.28291C25.4675 4.80584 26.2107 5.4117 26.8995 6.1005C27.5882 6.78925 28.1941 7.53236 28.7169 8.32985C29.175 9.02846 29.5694 9.76881 29.9002 10.5509C30.2247 11.318 30.4774 12.1014 30.6583 12.901C30.8861 13.9083 31 14.9412 31 16C31 17.0588 30.8861 18.0917 30.6582 19.099C30.4774 19.8986 30.2247 20.682 29.9002 21.4491C29.5695 22.2311 29.1751 22.9714 28.7171 23.6699C28.1942 24.4675 27.5883 25.2107 26.8995 25.8995C26.2107 26.5883 25.4675 27.1942 24.6699 27.7171C23.9713 28.1751 23.2311 28.5695 22.4491 28.9002C21.682 29.2247 20.8986 29.4774 20.099 29.6582C19.0918 29.8861 18.0588 30 17 30C15.9412 30 14.9082 29.8861 13.901 29.6582C13.1014 29.4774 12.318 29.2247 11.5509 28.9002C10.7688 28.5694 10.0285 28.175 9.32989 27.717C8.53239 27.1941 7.78926 26.5883 7.1005 25.8995C6.41169 25.2107 5.80583 24.4675 5.2829 23.6699C4.8249 22.9714 4.43053 22.2311 4.09978 21.4491C3.77532 20.682 3.52265 19.8987 3.34178 19.0991C3.11393 18.0918 3 17.0588 3 16C3 14.9412 3.11393 13.9081 3.34179 12.9009C3.52266 12.1013 3.77533 11.318 4.09978 10.5509C4.43058 9.76879 4.82501 9.02842 5.28309 8.32979C5.80598 7.53233 6.41178 6.78923 7.1005 6.1005C7.78925 5.41176 8.53236 4.80594 9.32985 4.28305C10.0285 3.82499 10.7688 3.43057 11.5509 3.09978C12.318 2.77533 13.1013 2.52267 13.9008 2.3418Z" fill="rgb(1,89,188)" fill-rule="evenodd" />
	</g>
	<path id="矢量 331" d="M0.0691176 11.3076C-0.0317125 11.112 -0.0205091 10.229 0.0915243 9.84969C0.265176 9.25112 0.584471 8.70589 1.05501 8.20215C1.45833 7.76359 2.20896 7.1828 2.61228 6.98723C2.71871 6.9339 2.75792 6.88056 2.73551 6.82129C2.61788 6.50719 2.53385 5.96789 2.48904 5.23302C2.44423 4.53963 2.41062 4.3322 2.29858 4.07144C2.16414 3.76327 1.86725 3.3899 1.49754 3.0758C1.40232 2.99284 1.28468 2.86245 1.23427 2.77948C1.14464 2.63725 0.522853 0.414848 0.522853 0.237056C0.522853 0.0533376 0.651691 0 1.08302 0C1.60958 0 1.66559 0.0533376 1.82244 0.663758C1.95688 1.20899 2.22576 1.6831 2.51145 1.89645C2.63468 1.98535 2.96518 2.14536 3.23966 2.25203C3.82784 2.47724 4.10232 2.61355 4.43842 2.86245C4.67369 3.03432 4.67929 3.03432 4.64008 2.89801C4.61207 2.82097 4.51124 2.6254 4.41041 2.45946C4.30398 2.29945 4.21996 2.09202 4.21996 2.00313C4.21996 1.84904 4.48323 1.40456 5.18905 0.349658L5.42432 0.00592641L6.19735 0L6.97038 0L6.46623 0.592641C6.19174 0.918593 5.90046 1.32752 5.81643 1.51123C5.63158 1.9083 5.65959 2.02683 6.0461 2.5365C6.19174 2.73207 6.41581 3.09951 6.53905 3.35435C6.80793 3.9055 6.7015 3.88772 7.80503 3.55584C8.22515 3.43139 8.7181 3.31286 8.89735 3.28916C9.46872 3.22396 9.54154 3.20026 9.54154 3.08173C9.54154 3.01654 9.35109 2.39427 9.12142 1.68903C8.89175 0.98971 8.70129 0.373364 8.70129 0.320026C8.70129 0.272615 8.7293 0.177792 8.75731 0.112602C8.81333 0.0118528 8.88055 0 9.48553 0C9.85524 0 10.1577 0.0118528 10.1577 0.029632C10.1577 0.0474113 10.1073 0.165939 10.0457 0.29632C9.98408 0.426701 9.93366 0.563009 9.93366 0.61042C9.93366 0.69339 10.7795 2.32908 11.0148 2.68466L11.1548 2.90394L11.4069 2.68466C11.5413 2.56021 11.8494 2.29352 12.0959 2.09202C12.6897 1.60013 12.8241 1.44604 13.3115 0.681537L13.726 0.029632L14.4486 0.029632L15.1712 0.029632L15.188 0.266688C15.2048 0.533377 15.1152 0.669684 14.7511 0.912667C14.5438 1.04897 13.614 2.53058 13.2835 3.2536C13.0482 3.76919 13.037 4.20775 13.2555 4.70557C13.3395 4.89521 13.4571 5.26858 13.5187 5.52934C13.7372 6.46571 14.0341 6.76203 14.8519 6.86871C15.3673 6.93982 15.4457 6.96945 15.653 7.21244C15.8322 7.41393 15.8938 7.53839 15.9723 7.84064C16.0283 8.05991 16.0227 8.07177 15.7314 8.42142C15.5689 8.61699 15.4121 8.85998 15.3953 8.96073C15.3449 9.19778 14.9472 9.61263 14.5887 9.80228C14.275 9.97414 14.2862 9.90895 14.4206 10.632C14.4486 10.792 14.4598 10.9342 14.4486 10.952C14.4318 10.9639 14.2806 10.8927 14.1125 10.792C13.9389 10.6912 13.7876 10.6083 13.7708 10.6083C13.754 10.6083 13.7428 10.7031 13.7428 10.8216C13.7428 11.0113 13.7316 11.029 13.6196 10.9935C13.3451 10.9105 12.8857 10.5194 12.6897 10.1993C12.572 10.0216 12.3984 9.79635 12.292 9.6956C12.1911 9.59485 11.8494 9.25705 11.5357 8.94295C11.2276 8.62885 10.8915 8.3266 10.7907 8.27326C10.3538 8.04213 9.65358 8.05991 8.53324 8.3266C7.54175 8.55773 7.08241 8.61107 6.13573 8.58144C5.3851 8.5518 5.16104 8.52217 4.59527 8.36216C4.23116 8.26141 3.81103 8.17844 3.65979 8.17844C3.0268 8.17844 2.21456 8.59922 1.59837 9.25112C1.31269 9.55929 1.18385 9.74894 0.965385 10.2527C0.433226 11.432 0.450031 11.4083 0.287583 11.4261C0.181151 11.438 0.119533 11.4083 0.0691176 11.3076ZM0.954182 9.48225C1.49194 8.65255 2.48904 7.98287 3.42452 7.811C3.78863 7.74581 3.83344 7.75174 4.64008 7.97694C5.46353 8.20215 5.49714 8.20807 6.43262 8.20215C7.20005 8.20215 7.49693 8.17251 7.94507 8.06584C9.36229 7.73396 9.61997 7.69248 10.0737 7.72211C10.8131 7.77544 10.9924 7.87027 11.7262 8.62292C12.0791 8.99036 12.4264 9.30446 12.4992 9.32816C12.572 9.3578 12.6841 9.48818 12.7625 9.65412C12.8353 9.81413 13.0146 10.069 13.1658 10.2231L13.4291 10.5075L13.5075 10.1401C13.5916 9.73709 13.5803 9.74894 14.1293 9.57115C14.6055 9.41706 14.8855 9.18 15.0592 8.78886C15.1432 8.59922 15.3113 8.33845 15.4345 8.20215C15.653 7.95916 15.653 7.95916 15.5745 7.75174C15.4569 7.44949 15.244 7.30133 14.8743 7.25985C13.8492 7.13539 13.4403 6.76203 13.1882 5.70713C13.121 5.44044 12.9922 5.01374 12.8969 4.7589C12.5833 3.93513 12.7009 3.43139 13.4963 2.12165C13.7092 1.772 13.9669 1.33344 14.0733 1.15565C14.1853 0.948225 14.3702 0.734874 14.5438 0.604493L14.8351 0.385216L14.4486 0.367437C14.2357 0.355584 14.0285 0.361511 13.9893 0.37929C13.9501 0.397069 13.7652 0.651905 13.5747 0.948225C13.1602 1.5942 12.8129 1.97349 12.0343 2.61355C11.5918 2.96913 11.4013 3.17063 11.2781 3.40176C11.1828 3.5677 11.1044 3.72771 11.0932 3.75734C11.082 3.7929 10.9308 3.77512 10.7403 3.71586C9.93366 3.48473 9.11582 3.54399 7.80503 3.94106C6.18614 4.42703 5.62598 4.36184 4.75211 3.58548C4.19195 3.08766 3.74942 2.82097 3.0156 2.55428C2.74112 2.44761 2.43302 2.3113 2.33219 2.24611C1.97369 2.01498 1.6824 1.51123 1.48074 0.788212L1.3575 0.355584L1.13344 0.355584C0.942978 0.355584 0.909368 0.373364 0.937377 0.46226C0.954182 0.515597 1.08302 1.00156 1.22306 1.54087L1.48074 2.51872L1.94008 2.99284C2.66829 3.73956 2.79153 4.06552 2.86995 5.44637C2.91477 6.20495 2.95398 6.37089 3.17805 6.93982C3.21166 7.01687 3.13323 7.08798 2.83634 7.25985C1.73842 7.90583 1.0214 8.61699 0.634886 9.43484C0.472438 9.79042 0.399616 10.0275 0.37721 10.2823L0.349201 10.6379L0.562065 10.1934C0.6797 9.95044 0.858953 9.63041 0.954182 9.48225Z" fill="rgb(0,86,197)" fill-rule="nonzero" transform="matrix(1,0,0,-1,9,21.4287)" />
	<path id="矢量 331" d="M0.0915243 9.84969C0.265176 9.25112 0.584471 8.70589 1.05501 8.20215C1.45833 7.76359 2.20896 7.1828 2.61228 6.98723C2.71871 6.9339 2.75792 6.88056 2.73551 6.82129C2.61788 6.50719 2.53385 5.96789 2.48904 5.23302C2.44423 4.53963 2.41062 4.3322 2.29858 4.07144C2.16414 3.76327 1.86725 3.3899 1.49754 3.0758C1.40232 2.99284 1.28468 2.86245 1.23427 2.77948C1.14464 2.63725 0.522853 0.414848 0.522853 0.237056C0.522853 0.0533376 0.651691 0 1.08302 0C1.60958 0 1.66559 0.0533376 1.82244 0.663758C1.95688 1.20899 2.22576 1.6831 2.51145 1.89645C2.63468 1.98535 2.96518 2.14536 3.23966 2.25203C3.82784 2.47724 4.10232 2.61355 4.43842 2.86245C4.67369 3.03432 4.67929 3.03432 4.64008 2.89801C4.61207 2.82097 4.51124 2.6254 4.41041 2.45946C4.30398 2.29945 4.21996 2.09202 4.21996 2.00313C4.21996 1.84904 4.48323 1.40456 5.18905 0.349658L5.42432 0.00592641L6.19735 0L6.97038 0L6.46623 0.592641C6.19174 0.918593 5.90046 1.32752 5.81643 1.51123C5.63158 1.9083 5.65959 2.02683 6.0461 2.5365C6.19174 2.73207 6.41581 3.09951 6.53905 3.35435C6.80793 3.9055 6.7015 3.88772 7.80503 3.55584C8.22515 3.43139 8.7181 3.31286 8.89735 3.28916C9.46872 3.22396 9.54154 3.20026 9.54154 3.08173C9.54154 3.01654 9.35109 2.39427 9.12142 1.68903C8.89175 0.98971 8.70129 0.373364 8.70129 0.320026C8.70129 0.272615 8.7293 0.177792 8.75731 0.112602C8.81333 0.0118528 8.88055 0 9.48553 0C9.85524 0 10.1577 0.0118528 10.1577 0.029632C10.1577 0.0474113 10.1073 0.165939 10.0457 0.29632C9.98408 0.426701 9.93366 0.563009 9.93366 0.61042C9.93366 0.69339 10.7795 2.32908 11.0148 2.68466L11.1548 2.90394L11.4069 2.68466C11.5413 2.56021 11.8494 2.29352 12.0959 2.09202C12.6897 1.60013 12.8241 1.44604 13.3115 0.681537L13.726 0.029632L14.4486 0.029632L15.1712 0.029632L15.188 0.266688C15.2048 0.533377 15.1152 0.669684 14.7511 0.912667C14.5438 1.04897 13.614 2.53058 13.2835 3.2536C13.0482 3.76919 13.037 4.20775 13.2555 4.70557C13.3395 4.89521 13.4571 5.26858 13.5187 5.52934C13.7372 6.46571 14.0341 6.76203 14.8519 6.86871C15.3673 6.93982 15.4457 6.96945 15.653 7.21244C15.8322 7.41393 15.8938 7.53839 15.9723 7.84064C16.0283 8.05991 16.0227 8.07177 15.7314 8.42142C15.5689 8.61699 15.4121 8.85998 15.3953 8.96073C15.3449 9.19778 14.9472 9.61263 14.5887 9.80228C14.275 9.97414 14.2862 9.90895 14.4206 10.632C14.4486 10.792 14.4598 10.9342 14.4486 10.952C14.4318 10.9639 14.2806 10.8927 14.1125 10.792C13.9389 10.6912 13.7876 10.6083 13.7708 10.6083C13.754 10.6083 13.7428 10.7031 13.7428 10.8216C13.7428 11.0113 13.7316 11.029 13.6196 10.9935C13.3451 10.9105 12.8857 10.5194 12.6897 10.1993C12.572 10.0216 12.3984 9.79635 12.292 9.6956C12.1911 9.59485 11.8494 9.25705 11.5357 8.94295C11.2276 8.62885 10.8915 8.3266 10.7907 8.27326C10.3538 8.04213 9.65358 8.05991 8.53324 8.3266C7.54175 8.55773 7.08241 8.61107 6.13573 8.58144C5.3851 8.5518 5.16104 8.52217 4.59527 8.36216C4.23116 8.26141 3.81103 8.17844 3.65979 8.17844C3.0268 8.17844 2.21456 8.59922 1.59837 9.25112C1.31269 9.55929 1.18385 9.74894 0.965385 10.2527C0.433226 11.432 0.450031 11.4083 0.287583 11.4261C0.181151 11.438 0.119533 11.4083 0.0691176 11.3076C-0.0317125 11.112 -0.0205091 10.229 0.0915243 9.84969ZM3.42452 7.811C3.78863 7.74581 3.83344 7.75174 4.64008 7.97694C5.46353 8.20215 5.49714 8.20807 6.43262 8.20215C7.20005 8.20215 7.49693 8.17251 7.94507 8.06584C9.36229 7.73396 9.61997 7.69248 10.0737 7.72211C10.8131 7.77544 10.9924 7.87027 11.7262 8.62292C12.0791 8.99036 12.4264 9.30446 12.4992 9.32816C12.572 9.3578 12.6841 9.48818 12.7625 9.65412C12.8353 9.81413 13.0146 10.069 13.1658 10.2231L13.4291 10.5075L13.5075 10.1401C13.5916 9.73709 13.5803 9.74894 14.1293 9.57115C14.6055 9.41706 14.8855 9.18 15.0592 8.78886C15.1432 8.59922 15.3113 8.33845 15.4345 8.20215C15.653 7.95916 15.653 7.95916 15.5745 7.75174C15.4569 7.44949 15.244 7.30133 14.8743 7.25985C13.8492 7.13539 13.4403 6.76203 13.1882 5.70713C13.121 5.44044 12.9922 5.01374 12.8969 4.7589C12.5833 3.93513 12.7009 3.43139 13.4963 2.12165C13.7092 1.772 13.9669 1.33344 14.0733 1.15565C14.1853 0.948225 14.3702 0.734874 14.5438 0.604493L14.8351 0.385216L14.4486 0.367437C14.2357 0.355584 14.0285 0.361511 13.9893 0.37929C13.9501 0.397069 13.7652 0.651905 13.5747 0.948225C13.1602 1.5942 12.8129 1.97349 12.0343 2.61355C11.5918 2.96913 11.4013 3.17063 11.2781 3.40176C11.1828 3.5677 11.1044 3.72771 11.0932 3.75734C11.082 3.7929 10.9308 3.77512 10.7403 3.71586C9.93366 3.48473 9.11582 3.54399 7.80503 3.94106C6.18614 4.42703 5.62598 4.36184 4.75211 3.58548C4.19195 3.08766 3.74942 2.82097 3.0156 2.55428C2.74112 2.44761 2.43302 2.3113 2.33219 2.24611C1.97369 2.01498 1.6824 1.51123 1.48074 0.788212L1.3575 0.355584L1.13344 0.355584C0.942978 0.355584 0.909368 0.373364 0.937377 0.46226C0.954182 0.515597 1.08302 1.00156 1.22306 1.54087L1.48074 2.51872L1.94008 2.99284C2.66829 3.73956 2.79153 4.06552 2.86995 5.44637C2.91477 6.20495 2.95398 6.37089 3.17805 6.93982C3.21166 7.01687 3.13323 7.08798 2.83634 7.25985C1.73842 7.90583 1.0214 8.61699 0.634886 9.43484C0.472438 9.79042 0.399616 10.0275 0.37721 10.2823L0.349201 10.6379L0.562065 10.1934C0.6797 9.95044 0.858953 9.63041 0.954182 9.48225C1.49194 8.65255 2.48904 7.98287 3.42452 7.811Z" fill-rule="nonzero" stroke="rgb(0,86,197)" stroke-width="0.500000" transform="matrix(1,0,0,-1,9,21.4287)" />
</svg>
