<svg viewBox="0 0 38 38" xmlns="http://www.w3.org/2000/svg" xmlns:xlink="http://www.w3.org/1999/xlink" width="38.000000" height="38.000000" fill="none" customFrame="#000000">
	<defs>
		<g id="pixso_custom_effect_17">
			<effect x="2.000000" y="3.000000" visibility="visible" fill="rgb(0,0,0)" fill-opacity="0.180000007" effectType="dropShadow" stdDeviation="6" radius="-2" />
		</g>
		<filter id="filter_17" width="38.000000" height="38.000000" x="0.000000" y="0.000000" filterUnits="userSpaceOnUse" customEffect="url(#pixso_custom_effect_17)" color-interpolation-filters="sRGB">
			<feFlood flood-opacity="0" result="BackgroundImageFix" />
			<feOffset dx="2.000000" dy="3.000000" in="SourceAlpha" />
			<feMorphology radius="2" operator="erode" />
			<feOffset dx="0.000000" dy="0.000000" />
			<feGaussianBlur stdDeviation="2" />
			<feColorMatrix type="matrix" values="0 0 0 0 0 0 0 0 0 0 0 0 0 0 0 0 0 0 0.18 0 " />
			<feBlend result="effect_dropShadow_1" in2="BackgroundImageFix" mode="normal" />
			<feBlend result="shape" in="SourceGraphic" in2="effect_dropShadow_1" mode="normal" />
		</filter>
	</defs>
	<rect id="悬浮图标-慢冷" width="30.000000" height="30.000000" x="2.000000" y="1.000000" />
	<g filter="url(#filter_17)">
		<path id="椭圆 8" d="M2 16C2 7.71573 8.71573 1 17 1C25.2843 1 32 7.71573 32 16C32 24.2843 25.2843 31 17 31C8.71573 31 2 24.2843 2 16Z" fill="rgb(255,255,255)" fill-rule="evenodd" />
		<path id="椭圆 8" d="M17 1C8.71573 1 2 7.71573 2 16C2 24.2843 8.71573 31 17 31C25.2843 31 32 24.2843 32 16C32 7.71573 25.2843 1 17 1ZM13.9008 2.3418C14.9081 2.11393 15.9412 2 17 2C18.0588 2 19.0919 2.11393 20.0991 2.34179C20.8987 2.52266 21.682 2.77533 22.4491 3.09978C23.2311 3.43053 23.9714 3.82491 24.6699 4.28291C25.4675 4.80584 26.2107 5.4117 26.8995 6.1005C27.5882 6.78925 28.1941 7.53236 28.7169 8.32985C29.175 9.02846 29.5694 9.76881 29.9002 10.5509C30.2247 11.318 30.4774 12.1014 30.6583 12.901C30.8861 13.9083 31 14.9412 31 16C31 17.0588 30.8861 18.0917 30.6582 19.099C30.4774 19.8986 30.2247 20.682 29.9002 21.4491C29.5695 22.2311 29.1751 22.9714 28.7171 23.6699C28.1942 24.4675 27.5883 25.2107 26.8995 25.8995C26.2107 26.5883 25.4675 27.1942 24.6699 27.7171C23.9713 28.1751 23.2311 28.5695 22.4491 28.9002C21.682 29.2247 20.8986 29.4774 20.099 29.6582C19.0918 29.8861 18.0588 30 17 30C15.9412 30 14.9082 29.8861 13.901 29.6582C13.1014 29.4774 12.318 29.2247 11.5509 28.9002C10.7688 28.5694 10.0285 28.175 9.32989 27.717C8.53239 27.1941 7.78926 26.5883 7.1005 25.8995C6.41169 25.2107 5.80583 24.4675 5.2829 23.6699C4.8249 22.9714 4.43053 22.2311 4.09978 21.4491C3.77532 20.682 3.52265 19.8987 3.34178 19.0991C3.11393 18.0918 3 17.0588 3 16C3 14.9412 3.11393 13.9081 3.34179 12.9009C3.52266 12.1013 3.77533 11.318 4.09978 10.5509C4.43058 9.76879 4.82501 9.02842 5.28309 8.32979C5.80598 7.53233 6.41178 6.78923 7.1005 6.1005C7.78925 5.41176 8.53236 4.80594 9.32985 4.28305C10.0285 3.82499 10.7688 3.43057 11.5509 3.09978C12.318 2.77533 13.1013 2.52267 13.9008 2.3418Z" fill="rgb(1,89,188)" fill-rule="evenodd" />
	</g>
	<path id="矢量 334" d="M11.1818 14.5455L19.4747 14.5455C21.303 14.5455 22.8182 13.101 22.8182 11.2727C22.8182 9.44444 21.303 8 19.4747 8C18.6667 8 17.8889 8.28283 17.2727 8.80808C16.8283 9.19192 16.4949 9.67677 16.3131 10.2222C16.3131 10.2323 16.303 10.2424 16.303 10.2525C16.1818 10.6364 16.3939 11.0404 16.7778 11.1616C17.1616 11.2828 17.5657 11.0707 17.6869 10.6869C17.7879 10.3838 17.9798 10.1111 18.2222 9.89899C18.5556 9.61616 18.9899 9.43434 19.4747 9.43434C20.5354 9.43434 21.3636 10.2626 21.3636 11.2525C21.3636 12.2424 20.5354 13.0707 19.4747 13.0707L11.1818 13.0707C10.7778 13.0707 10.4545 13.3939 10.4545 13.798C10.4545 14.2222 10.7778 14.5455 11.1818 14.5455ZM21.6566 16L9.72727 16C9.32323 16 9 16.3232 9 16.7273C9 17.1313 9.32323 17.4545 9.72727 17.4545L21.6566 17.4545C22.7172 17.4545 23.5455 18.2828 23.5455 19.2727C23.5455 20.2626 22.7172 21.0909 21.6566 21.0909C21.1717 21.0909 20.7374 20.9192 20.404 20.6263C20.1616 20.4141 19.9697 20.1414 19.8687 19.8384C19.7273 19.4646 19.3131 19.2626 18.9394 19.404C18.5758 19.5354 18.3737 19.9394 18.4949 20.3131C18.6869 20.8586 19.0202 21.3535 19.4545 21.7273C20.0707 22.2525 20.8485 22.5455 21.6566 22.5354C23.4849 22.5354 25 21.0909 25 19.2626C25 17.4445 23.4849 16 21.6566 16L21.6566 16Z" fill="rgb(0,86,197)" fill-rule="nonzero" />
</svg>
