<svg viewBox="0 0 38 38" xmlns="http://www.w3.org/2000/svg" xmlns:xlink="http://www.w3.org/1999/xlink" width="38.000000" height="38.000000" fill="none" customFrame="#000000">
	<defs>
		<g id="pixso_custom_effect_10">
			<effect x="2.000000" y="3.000000" visibility="visible" fill="rgb(0,0,0)" fill-opacity="0.180000007" effectType="dropShadow" stdDeviation="6" radius="-2" />
		</g>
		<filter id="filter_10" width="38.000000" height="38.000000" x="0.000000" y="0.000000" filterUnits="userSpaceOnUse" customEffect="url(#pixso_custom_effect_10)" color-interpolation-filters="sRGB">
			<feFlood flood-opacity="0" result="BackgroundImageFix" />
			<feOffset dx="2.000000" dy="3.000000" in="SourceAlpha" />
			<feMorphology radius="2" operator="erode" />
			<feOffset dx="0.000000" dy="0.000000" />
			<feGaussianBlur stdDeviation="2" />
			<feColorMatrix type="matrix" values="0 0 0 0 0 0 0 0 0 0 0 0 0 0 0 0 0 0 0.18 0 " />
			<feBlend result="effect_dropShadow_1" in2="BackgroundImageFix" mode="normal" />
			<feBlend result="shape" in="SourceGraphic" in2="effect_dropShadow_1" mode="normal" />
		</filter>
	</defs>
	<rect id="悬浮图标-海浪" width="30.000000" height="30.000000" x="2.000000" y="1.000000" />
	<g filter="url(#filter_10)">
		<path id="椭圆 8" d="M2 16C2 7.71573 8.71573 1 17 1C25.2843 1 32 7.71573 32 16C32 24.2843 25.2843 31 17 31C8.71573 31 2 24.2843 2 16Z" fill="rgb(255,255,255)" fill-rule="evenodd" />
		<path id="椭圆 8" d="M17 1C8.71573 1 2 7.71573 2 16C2 24.2843 8.71573 31 17 31C25.2843 31 32 24.2843 32 16C32 7.71573 25.2843 1 17 1ZM13.9008 2.3418C14.9081 2.11393 15.9412 2 17 2C18.0588 2 19.0919 2.11393 20.0991 2.34179C20.8987 2.52266 21.682 2.77533 22.4491 3.09978C23.2311 3.43053 23.9714 3.82491 24.6699 4.28291C25.4675 4.80584 26.2107 5.4117 26.8995 6.1005C27.5882 6.78925 28.1941 7.53236 28.7169 8.32985C29.175 9.02846 29.5694 9.76881 29.9002 10.5509C30.2247 11.318 30.4774 12.1014 30.6583 12.901C30.8861 13.9083 31 14.9412 31 16C31 17.0588 30.8861 18.0917 30.6582 19.099C30.4774 19.8986 30.2247 20.682 29.9002 21.4491C29.5695 22.2311 29.1751 22.9714 28.7171 23.6699C28.1942 24.4675 27.5883 25.2107 26.8995 25.8995C26.2107 26.5883 25.4675 27.1942 24.6699 27.7171C23.9713 28.1751 23.2311 28.5695 22.4491 28.9002C21.682 29.2247 20.8986 29.4774 20.099 29.6582C19.0918 29.8861 18.0588 30 17 30C15.9412 30 14.9082 29.8861 13.901 29.6582C13.1014 29.4774 12.318 29.2247 11.5509 28.9002C10.7688 28.5694 10.0285 28.175 9.32989 27.717C8.53239 27.1941 7.78926 26.5883 7.1005 25.8995C6.41169 25.2107 5.80583 24.4675 5.2829 23.6699C4.8249 22.9714 4.43053 22.2311 4.09978 21.4491C3.77532 20.682 3.52265 19.8987 3.34178 19.0991C3.11393 18.0918 3 17.0588 3 16C3 14.9412 3.11393 13.9081 3.34179 12.9009C3.52266 12.1013 3.77533 11.318 4.09978 10.5509C4.43058 9.76879 4.82501 9.02842 5.28309 8.32979C5.80598 7.53233 6.41178 6.78923 7.1005 6.1005C7.78925 5.41176 8.53236 4.80594 9.32985 4.28305C10.0285 3.82499 10.7688 3.43057 11.5509 3.09978C12.318 2.77533 13.1013 2.52267 13.9008 2.3418Z" fill="rgb(1,89,188)" fill-rule="evenodd" />
	</g>
	<path id="Icon" d="M9 20.4102L9 19.1637C9.47232 19.1374 9.83103 18.9993 10.0761 18.7495C10.3212 18.4997 10.8104 18.3748 11.5436 18.3748C12.2926 18.3748 12.8014 18.5115 13.0702 18.785C13.339 19.0585 13.7353 19.1953 14.2592 19.1953C14.7999 19.1953 15.2046 19.0585 15.4734 18.785C15.7421 18.5115 16.251 18.3748 17 18.3748C17.7321 18.3748 18.241 18.5115 18.5266 18.785C18.8122 19.0585 19.217 19.1953 19.7408 19.1953C20.2815 19.1953 20.6821 19.0585 20.9424 18.785C21.2028 18.5115 21.7074 18.3748 22.4564 18.3748C23.1896 18.3748 23.6788 18.4997 23.9239 18.7495C24.169 18.9993 24.5277 19.1374 25 19.1637L25 20.4102C24.3625 20.3787 23.901 20.2367 23.6154 19.9842C23.3298 19.7317 22.9435 19.6055 22.4564 19.6055C21.9378 19.6055 21.5428 19.7422 21.2714 20.0158C21 20.2893 20.4898 20.426 19.7408 20.426C19.0087 20.426 18.4998 20.2893 18.2142 20.0158C17.9286 19.7422 17.5239 19.6055 17 19.6055C16.4593 19.6055 16.0546 19.7422 15.7858 20.0158C15.517 20.2893 15.0081 20.426 14.2592 20.426C13.5102 20.426 13.0042 20.2893 12.7412 20.0158C12.4782 19.7422 12.079 19.6055 11.5436 19.6055C11.0344 19.6055 10.6494 19.7317 10.3885 19.9842C10.1277 20.2367 9.66482 20.3787 9 20.4102ZM9 17.2229L9 15.9763C9.47232 15.95 9.83103 15.812 10.0761 15.5621C10.3212 15.3123 10.8104 15.1874 11.5436 15.1874C12.2757 15.1874 12.7804 15.3241 13.0576 15.5976C13.3348 15.8711 13.7353 16.0079 14.2592 16.0079C14.7999 16.0079 15.2046 15.8711 15.4734 15.5976C15.7421 15.3241 16.251 15.1874 17 15.1874C17.7321 15.1874 18.2389 15.3241 18.5203 15.5976C18.8017 15.8711 19.2001 16.0079 19.7156 16.0079C20.2563 16.0079 20.661 15.8711 20.9298 15.5976C21.1986 15.3241 21.7074 15.1874 22.4564 15.1874C23.1728 15.1874 23.6619 15.3123 23.9239 15.5621C24.1858 15.812 24.5445 15.95 25 15.9763L25 17.2229C24.3457 17.1913 23.88 17.0493 23.6028 16.7968C23.3256 16.5443 22.9435 16.4181 22.4564 16.4181C21.9378 16.4181 21.5428 16.5549 21.2714 16.8284C21 17.1019 20.4898 17.2386 19.7408 17.2386C19.0087 17.2386 18.4998 17.1019 18.2142 16.8284C17.9286 16.5549 17.5239 16.4181 17 16.4181C16.4593 16.4181 16.0588 16.5549 15.7984 16.8284C15.5381 17.1019 15.0334 17.2386 14.2844 17.2386C13.5354 17.2386 13.021 17.1019 12.7412 16.8284C12.4614 16.5549 12.0622 16.4181 11.5436 16.4181C11.0513 16.4181 10.6663 16.5443 10.3885 16.7968C10.1108 17.0493 9.64799 17.1913 9 17.2229ZM9 14.0355L9 12.789C9.47232 12.7627 9.83103 12.6246 10.0761 12.3748C10.3212 12.1249 10.8104 12 11.5436 12C12.2757 12 12.7804 12.1368 13.0576 12.4103C13.3348 12.6838 13.7353 12.8205 14.2592 12.8205C14.7999 12.8205 15.2046 12.6838 15.4734 12.4103C15.7421 12.1368 16.251 12 17 12C17.7321 12 18.2389 12.1368 18.5203 12.4103C18.8017 12.6838 19.2001 12.8205 19.7156 12.8205C20.2563 12.8205 20.661 12.6838 20.9298 12.4103C21.1986 12.1368 21.7074 12 22.4564 12C23.1728 12 23.6619 12.1249 23.9239 12.3748C24.1858 12.6246 24.5445 12.7627 25 12.789L25 14.0355C24.3457 14.0039 23.88 13.8619 23.6028 13.6094C23.3256 13.357 22.9435 13.2307 22.4564 13.2307C21.9378 13.2307 21.5428 13.3675 21.2714 13.641C21 13.9145 20.4898 14.0513 19.7408 14.0513C19.0087 14.0513 18.4998 13.9145 18.2142 13.641C17.9286 13.3675 17.5239 13.2307 17 13.2307C16.4593 13.2307 16.0588 13.3675 15.7984 13.641C15.5381 13.9145 15.0334 14.0513 14.2844 14.0513C13.5354 14.0513 13.021 13.9145 12.7412 13.641C12.4614 13.3675 12.0622 13.2307 11.5436 13.2307C11.0513 13.2307 10.6636 13.357 10.3807 13.6094C10.0977 13.8619 9.63747 14.0039 9 14.0355Z" fill="rgb(0,86,197)" fill-rule="nonzero" />
</svg>
