<svg viewBox="0 0 40 40" xmlns="http://www.w3.org/2000/svg" xmlns:xlink="http://www.w3.org/1999/xlink" width="40.000000" height="40.000000" fill="none" customFrame="#000000">
	<defs>
		<g id="pixso_custom_effect_2">
			<effect x="2.000000" y="3.000000" visibility="visible" fill="rgb(0,0,0)" fill-opacity="0.180000007" effectType="dropShadow" stdDeviation="6" radius="-2" />
		</g>
		<filter id="filter_2" width="40.000000" height="40.000000" x="0.000000" y="0.000000" filterUnits="userSpaceOnUse" customEffect="url(#pixso_custom_effect_2)" color-interpolation-filters="sRGB">
			<feFlood flood-opacity="0" result="BackgroundImageFix" />
			<feOffset dx="2.000000" dy="3.000000" in="SourceAlpha" />
			<feMorphology radius="2" operator="erode" />
			<feOffset dx="0.000000" dy="0.000000" />
			<feGaussianBlur stdDeviation="2" />
			<feColorMatrix type="matrix" values="0 0 0 0 0 0 0 0 0 0 0 0 0 0 0 0 0 0 0.18 0 " />
			<feBlend result="effect_dropShadow_1" in2="BackgroundImageFix" mode="normal" />
			<feBlend result="shape" in="SourceGraphic" in2="effect_dropShadow_1" mode="normal" />
		</filter>
	</defs>
	<rect id="悬浮图标-双排波浪" width="30.000000" height="30.000000" x="3.000000" y="2.000000" />
	<g filter="url(#filter_2)">
		<path id="椭圆 8" d="M3 17C3 8.71573 9.71573 2 18 2C26.2843 2 33 8.71573 33 17C33 25.2843 26.2843 32 18 32C9.71573 32 3 25.2843 3 17Z" fill="rgb(255,255,255)" fill-rule="evenodd" />
		<path id="椭圆 8" d="M3 17C3 8.71573 9.71573 2 18 2C26.2843 2 33 8.71573 33 17C33 25.2843 26.2843 32 18 32C9.71573 32 3 25.2843 3 17ZM4 17Q4 18.588 4.3417 20.0987L4.3418 20.0992L4.34181 20.0992Q4.61312 21.2985 5.09978 22.4491Q5.59593 23.6222 6.28298 24.67L6.28302 24.6701L6.28304 24.6701Q7.06738 25.8664 8.1005 26.8995Q9.13356 27.9325 10.3297 28.7169L10.3299 28.717L10.33 28.7171Q11.3779 29.4041 12.5509 29.9002Q13.7008 30.3866 14.8995 30.6579L14.9009 30.6582L14.9011 30.6583Q16.4119 31 18 31Q19.5882 31 21.0991 30.6582L21.0991 30.6582Q22.2985 30.3869 23.4491 29.9002Q24.6222 29.404 25.6701 28.717L25.6702 28.7169Q26.8664 27.9326 27.8995 26.8995Q28.9326 25.8664 29.7169 24.6702L29.717 24.6701Q30.404 23.6222 30.9002 22.4491Q31.3869 21.2985 31.6582 20.0992L31.6582 20.0992L31.6583 20.0989Q32 18.5881 32 17Q32 15.4118 31.6582 13.901L31.6582 13.9009L31.6582 13.9009Q31.3869 12.7015 30.9002 11.5509Q30.404 10.3778 29.717 9.32986Q28.9326 8.13363 27.8995 7.1005Q26.8664 6.06737 25.6701 5.28303Q24.6222 4.59595 23.4491 4.09978Q22.2985 3.61312 21.0992 3.34181L21.0992 3.3418L21.0989 3.34173Q19.5881 3 18 3Q16.4117 3 14.9008 3.3418L14.9008 3.34181L14.9008 3.34181Q13.7015 3.61312 12.5509 4.09978Q11.3778 4.59594 10.3299 5.283L10.3299 5.28303L10.3299 5.28305Q9.13363 6.06738 8.1005 7.1005Q7.06741 8.1336 6.28308 9.32981L6.28306 9.32984Q5.59596 10.3778 5.09978 11.5509Q4.6131 12.7015 4.34179 13.9009Q4 15.4118 4 17Z" fill="rgb(1,89,188)" fill-rule="evenodd" />
	</g>
	<g id="图层_1">
		<g id="组合 105">
			<path id="矢量 511" d="M4.50418 5.51783C3.994 5.4308 3.39636 5.17534 2.92699 4.83847C2.61213 4.6167 2.00575 4.0356 1.74337 3.70996C1.47545 3.3773 1.30811 3.11819 1.13377 2.84028C0.348382 1.58712 0 0.483031 0 0.299156C0 0.217746 0.0874598 0.0914199 0.17492 0.0465039C0.431468 -0.0798222 0.583065 0.0436967 0.740493 0.5097C1.0466 1.41925 1.54221 2.37371 2.07863 3.09237C2.77831 4.0356 3.60043 4.6532 4.4313 4.86374C4.62371 4.91427 4.75781 4.9255 5.04352 4.9255C5.61492 4.9255 5.98225 4.81321 6.50701 4.47915C7.02885 4.14508 7.37869 3.78856 8.19207 2.7555C8.81886 1.96105 9.11331 1.62418 9.49522 1.26485C10.1249 0.669713 10.708 0.327229 11.4339 0.127914C11.7663 0.0380822 12.431 0.00439524 12.7925 0.0605402C13.7662 0.209324 14.6816 0.745508 15.5795 1.68874C15.8827 2.00315 15.9468 2.10141 15.9468 2.23054C15.9468 2.31757 15.9264 2.35968 15.8477 2.43547C15.7661 2.51407 15.7253 2.53092 15.6262 2.53092C15.4862 2.53092 15.4775 2.5225 14.9702 1.9835C14.3871 1.3631 13.7429 0.950437 13.0403 0.742701C12.807 0.675327 12.74 0.666905 12.3027 0.666905C11.8596 0.666905 11.8012 0.67252 11.5593 0.742701C10.9937 0.911136 10.4631 1.22555 9.99083 1.67471C9.62641 2.02281 9.32322 2.3709 8.76056 3.07833C7.83348 4.24615 7.51571 4.57179 6.86268 5.00691C6.18632 5.45888 5.29715 5.65258 4.50418 5.51783Z" fill="rgb(0,86,197)" fill-rule="nonzero" transform="matrix(1,0,0,-1,10.0532,17.5601)" />
			<path id="矢量 511" d="M2.92699 4.83847C2.61213 4.6167 2.00575 4.0356 1.74337 3.70996C1.47545 3.3773 1.30811 3.11819 1.13377 2.84028C0.348382 1.58712 0 0.483031 0 0.299156C0 0.217746 0.0874598 0.0914199 0.17492 0.0465039C0.431468 -0.0798222 0.583065 0.0436967 0.740493 0.5097C1.0466 1.41925 1.54221 2.37371 2.07863 3.09237C2.77831 4.0356 3.60043 4.6532 4.4313 4.86374C4.62371 4.91427 4.75781 4.9255 5.04352 4.9255C5.61492 4.9255 5.98225 4.81321 6.50701 4.47915C7.02885 4.14508 7.37869 3.78856 8.19207 2.7555C8.81886 1.96105 9.11331 1.62418 9.49522 1.26485C10.1249 0.669713 10.708 0.327229 11.4339 0.127914C11.7663 0.0380822 12.431 0.00439524 12.7925 0.0605402C13.7662 0.209324 14.6816 0.745508 15.5795 1.68874C15.8827 2.00315 15.9468 2.10141 15.9468 2.23054C15.9468 2.31757 15.9264 2.35968 15.8477 2.43547C15.7661 2.51407 15.7253 2.53092 15.6262 2.53092C15.4862 2.53092 15.4775 2.5225 14.9702 1.9835C14.3871 1.3631 13.7429 0.950437 13.0403 0.742701C12.807 0.675327 12.74 0.666905 12.3027 0.666905C11.8596 0.666905 11.8012 0.67252 11.5593 0.742701C10.9937 0.911136 10.4631 1.22555 9.99083 1.67471C9.62641 2.02281 9.32322 2.3709 8.76056 3.07833C7.83348 4.24615 7.51571 4.57179 6.86268 5.00691C6.18632 5.45888 5.29715 5.65258 4.50418 5.51783C3.994 5.4308 3.39636 5.17534 2.92699 4.83847Z" fill-rule="nonzero" stroke="rgb(0,86,197)" stroke-width="0.500000" transform="matrix(1,0,0,-1,10.0532,17.5601)" />
			<path id="矢量 512" d="M3.59526 4.7996C2.6128 4.62836 1.72362 4.15393 0.895668 3.35948C0.522506 3.00015 0.0706304 2.48081 0.0181545 2.34887C-0.0780513 2.10184 0.228058 1.84918 0.467115 1.97832C0.505014 1.99797 0.665357 2.17202 0.8257 2.36572C1.67406 3.38475 2.66527 4.01357 3.6973 4.18762C4.05588 4.24657 4.62729 4.22692 4.98004 4.1427C5.9421 3.91532 6.59513 3.4437 7.74377 2.14956C8.71166 1.06035 9.48422 0.468018 10.3297 0.176064C10.9011 -0.020443 11.5687 -0.05413 12.1372 0.0834251C13.4024 0.392222 14.6152 1.47301 15.4461 3.03384C15.656 3.42686 15.8834 3.99111 15.8834 4.11182C15.8834 4.34763 15.656 4.488 15.4344 4.38974C15.3353 4.34763 15.2945 4.28307 15.1662 3.96865C14.9126 3.34825 14.417 2.52292 14.0001 2.03446C13.761 1.75374 13.2654 1.30177 13.0089 1.13614C11.9827 0.470825 10.9273 0.453982 9.86322 1.08842C9.36469 1.38879 8.93906 1.77619 8.20439 2.59872C7.61258 3.26123 7.02369 3.82268 6.67093 4.0641C6.12577 4.43466 5.47856 4.70696 4.91007 4.80241C4.58647 4.85574 3.91303 4.85294 3.59526 4.7996Z" fill="rgb(0,86,197)" fill-rule="nonzero" transform="matrix(1,0,0,-1,10,21.3335)" />
			<path id="矢量 512" d="M0.895668 3.35948C0.522506 3.00015 0.0706304 2.48081 0.0181545 2.34887C-0.0780513 2.10184 0.228058 1.84918 0.467115 1.97832C0.505014 1.99797 0.665357 2.17202 0.8257 2.36572C1.67406 3.38475 2.66527 4.01357 3.6973 4.18762C4.05588 4.24657 4.62729 4.22692 4.98004 4.1427C5.9421 3.91532 6.59513 3.4437 7.74377 2.14956C8.71166 1.06035 9.48422 0.468018 10.3297 0.176064C10.9011 -0.020443 11.5687 -0.05413 12.1372 0.0834251C13.4024 0.392222 14.6152 1.47301 15.4461 3.03384C15.656 3.42686 15.8834 3.99111 15.8834 4.11182C15.8834 4.34763 15.656 4.488 15.4344 4.38974C15.3353 4.34763 15.2945 4.28307 15.1662 3.96865C14.9126 3.34825 14.417 2.52292 14.0001 2.03446C13.761 1.75374 13.2654 1.30177 13.0089 1.13614C11.9827 0.470825 10.9273 0.453982 9.86322 1.08842C9.36469 1.38879 8.93906 1.77619 8.20439 2.59872C7.61258 3.26123 7.02369 3.82268 6.67093 4.0641C6.12577 4.43466 5.47856 4.70696 4.91007 4.80241C4.58647 4.85574 3.91303 4.85294 3.59526 4.7996C2.6128 4.62836 1.72362 4.15393 0.895668 3.35948Z" fill-rule="nonzero" stroke="rgb(0,86,197)" stroke-width="0.500000" transform="matrix(1,0,0,-1,10,21.3335)" />
			<path id="矢量 513" d="M0.291717 2.97953C0.291717 2.97953 0.157029 2.98094 0.030212 2.90711C0.00922179 2.89476 -0.00156514 2.88521 0.000183987 2.87847C0.0051399 2.85995 0.0981389 2.86556 0.125543 2.87005C0.370431 2.90935 1.03454 2.90795 1.21821 2.86584C1.4456 2.81531 1.82751 2.68618 1.85083 2.6553C1.85958 2.63845 1.87707 2.63003 1.88873 2.63003C1.99077 2.64688 2.57384 2.28755 2.83038 2.05174C2.87703 2.00682 2.97324 1.92541 3.0432 1.86927C3.22104 1.72049 3.77787 1.19553 3.73414 1.21518C3.69915 1.23202 3.71956 1.21518 3.90614 1.07482C3.9557 1.03552 4.04316 0.962529 4.10147 0.914806C4.16735 0.860907 4.16706 0.857257 4.20234 0.828342C4.25365 0.786234 4.32391 0.732615 4.41341 0.67619C4.4548 0.639976 4.52652 0.600114 4.6029 0.535828C4.62623 0.516177 4.65246 0.499333 4.66412 0.499333C4.67287 0.499333 4.78074 0.443188 4.89735 0.373007C5.01688 0.302826 5.12475 0.246681 5.13641 0.246681C5.18888 0.243874 5.34631 0.1765 5.34631 0.156849C5.34631 0.14562 5.36672 0.142813 5.39004 0.151235C5.41336 0.162464 5.43377 0.154042 5.43377 0.131584C5.43377 0.111933 5.44252 0.103512 5.45126 0.114741C5.46001 0.123162 5.49791 0.120355 5.53581 0.106319C5.57371 0.0922827 5.73113 0.061403 5.88856 0.0333306C6.26172 -0.0256216 6.83313 -0.00316364 6.83313 0.0754392C6.83313 0.083861 6.6206 0.0555079 6.36114 0.0555079C5.95299 0.0555079 5.85358 0.100704 5.65242 0.156849C4.94983 0.353357 4.45714 0.673383 3.53006 1.5324C2.89452 2.12192 2.58841 2.36615 2.25023 2.55424C1.70798 2.85742 1.3115 2.96971 0.725518 2.98375C0.501037 2.98936 0.332531 2.98515 0.291717 2.97953Z" fill="rgb(0,122,255)" fill-rule="nonzero" transform="matrix(1,0,0,-1,12.2867,20.6938)" />
			<path id="矢量 514" d="M0.779031 2.9713C0.420446 2.90954 0.0534061 2.81353 5.56944e-05 2.7557C-0.00460876 2.75065 0.284592 2.82391 0.537059 2.8809C0.893895 2.96147 1.42332 2.98028 1.78161 2.85227C2.08801 2.74279 2.38508 2.64734 2.64163 2.49013C2.92151 2.31328 3.09934 2.17011 3.60369 1.71253C3.84566 1.49356 4.11387 1.25214 4.20133 1.17354C4.28879 1.09774 4.36751 1.03037 4.37625 1.02194C4.41998 0.974221 4.77274 0.727183 4.99722 0.589628C5.72022 0.134854 6.46363 -0.0560387 7.2187 0.0141425C7.54521 0.0450222 8.06997 0.160119 8.12245 0.213457C8.15743 0.247144 7.88339 0.224686 7.72888 0.17977C7.3324 0.0618656 6.65312 0.0422149 6.28579 0.134854C5.9826 0.21065 5.62984 0.328554 5.62984 0.353819C5.62984 0.365048 5.60944 0.376277 5.5832 0.376277C5.49282 0.376277 4.83688 0.763677 4.65904 0.920883C4.61531 0.960184 4.58033 0.98545 4.58033 0.977028C4.58033 0.957377 4.25673 1.22126 4.11387 1.35881C4.00892 1.45707 3.74071 1.69849 3.36755 2.03255C3.25385 2.13361 3.11683 2.24871 3.06144 2.29363C2.85445 2.45364 2.65621 2.594 2.63872 2.594C2.62706 2.594 2.57167 2.62207 2.51336 2.65857C2.40841 2.72033 2.37634 2.73436 2.05857 2.84665C1.65013 2.98954 1.1726 3.03867 0.779031 2.9713Z" fill="rgb(0,122,255)" fill-rule="nonzero" transform="matrix(1,0,0,-1,11.6536,21.2148)" />
		</g>
		<path id="矢量 515" d="M15.7235 12.8534C15.5427 12.9629 15.2016 13.1819 14.9888 13.3503C14.3154 13.8781 13.5341 14.7147 12.8985 15.5849C12.8548 15.6439 12.8111 15.7056 12.7673 15.7674C12.5808 16.0341 12.8694 16.3765 13.1755 16.2502C13.1871 16.2446 13.1988 16.2362 13.1988 16.2362C13.5486 15.7365 14.1434 15.0038 14.4757 14.6613C15.1666 13.9483 15.7643 13.5188 16.3065 13.2268C16.5281 13.1061 16.4698 13.1342 16.3853 13.0836C16.1345 12.9405 15.9713 12.8619 15.8605 12.8282C15.7934 12.8085 15.808 12.8029 15.7235 12.8534Z" fill="rgb(0,122,255)" fill-rule="nonzero" />
		<path id="矢量 516" d="M22.21 18.6754C21.4695 19.3997 20.9972 19.7646 20.3588 20.1071C20.0964 20.2475 20.0701 20.2334 20.1255 20.2783C20.1605 20.3064 20.7582 20.5731 20.8456 20.5282C21.0409 20.4299 21.522 20.1015 21.8368 19.8516C22.1313 19.6186 22.8164 18.914 23.2158 18.4929C23.3382 18.3666 23.2479 18.1617 23.0671 18.1561C22.863 18.1504 22.6677 18.2262 22.5248 18.3666L22.21 18.6754Z" fill="rgb(0,122,255)" fill-rule="nonzero" />
		<path id="矢量 517" d="M17.6359 12.7552C17.3443 12.7973 17.4114 12.8058 17.8283 12.8058C18.321 12.8058 18.56 12.8759 19.0177 13.0921C19.5454 13.3419 19.8457 13.5946 21.1401 14.8803C22.1051 15.8404 22.8018 16.2166 23.6881 16.2559C23.9942 16.2699 24.1312 16.2531 24.0933 16.2166C24.0817 16.2081 24.0088 16.1997 23.8514 16.1941C23.5773 16.1885 23.2216 16.1436 23.0992 16.0958C23.0671 16.0818 22.9826 16.0509 22.9097 16.0257C22.6794 15.9443 22.5599 15.8881 22.5599 15.8628C22.5599 15.8516 22.5482 15.846 22.5336 15.8572C22.5161 15.8657 22.4053 15.8095 22.2858 15.7309C22.1663 15.6551 22.0643 15.5905 22.0555 15.5905C22.0497 15.5905 21.9914 15.5428 21.9302 15.4867C21.8689 15.4305 21.764 15.3491 21.7028 15.3042C21.6415 15.2621 21.5978 15.2256 21.6095 15.2256C21.624 15.2256 21.5774 15.1807 21.5103 15.1273C21.4083 15.0459 21.0147 14.6642 21.0322 14.6642C21.0556 14.6642 20.0119 13.6564 19.9157 13.5834C19.8486 13.5328 19.799 13.4851 19.8107 13.4739C19.8195 13.4655 19.8078 13.457 19.7816 13.457C19.7553 13.457 19.7232 13.4402 19.7116 13.4205C19.662 13.3447 19.0935 13.0079 19.0148 13.0079C18.9886 13.0079 18.9798 12.9938 18.9915 12.9742C19.0061 12.9545 18.9973 12.9489 18.9682 12.9602C18.9419 12.9686 18.8953 12.9573 18.8632 12.9377C18.6737 12.8086 17.9828 12.7047 17.6359 12.7552Z" fill="rgb(0,122,255)" fill-rule="nonzero" />
		<path id="矢量 518" d="M17.3269 12.2669C17.1986 12.2894 17.0295 12.3287 16.9479 12.3539C16.7409 12.4241 16.8721 12.4354 17.1782 12.3792C17.5601 12.3062 17.8342 12.2838 18.1286 12.3062C18.2802 12.3203 18.426 12.3343 18.4493 12.3427C18.4726 12.3511 18.5397 12.3652 18.5951 12.3708C18.8108 12.3989 19.6329 12.7582 19.732 12.8677C19.7408 12.8761 19.7933 12.9154 19.8487 12.9519C19.904 12.9884 20.0061 13.0642 20.0702 13.1175C20.1373 13.1737 20.2218 13.241 20.2597 13.2691C20.3618 13.3421 20.8661 13.8249 21.2334 14.2039C21.9768 14.9703 22.3121 15.2398 22.831 15.4896C23.1955 15.6637 23.4899 15.7367 23.8864 15.7451C24.2595 15.7563 24.484 15.7226 24.6968 15.644C24.8484 15.5907 25.0321 15.4812 24.9067 15.5177C24.28 15.7114 23.7027 15.7226 23.178 15.5514C22.5978 15.3605 22.3413 15.164 21.1606 14.0214C20.1256 13.0193 19.9099 12.8424 19.3822 12.5785C18.7525 12.2613 18.0149 12.149 17.3269 12.2669Z" fill="rgb(0,122,255)" fill-rule="nonzero" />
		<path id="矢量 518" d="M16.9479 12.3539C16.7409 12.4241 16.8721 12.4354 17.1782 12.3792C17.5601 12.3062 17.8342 12.2838 18.1286 12.3062C18.2802 12.3203 18.426 12.3343 18.4493 12.3427C18.4726 12.3511 18.5397 12.3652 18.5951 12.3708C18.8108 12.3989 19.6329 12.7582 19.732 12.8677C19.7408 12.8761 19.7933 12.9154 19.8487 12.9519C19.904 12.9884 20.0061 13.0642 20.0702 13.1175C20.1373 13.1737 20.2218 13.241 20.2597 13.2691C20.3618 13.3421 20.8661 13.8249 21.2334 14.2039C21.9768 14.9703 22.3121 15.2398 22.831 15.4896C23.1955 15.6637 23.4899 15.7367 23.8864 15.7451C24.2595 15.7563 24.484 15.7226 24.6968 15.644C24.8484 15.5907 25.0321 15.4812 24.9067 15.5177C24.28 15.7114 23.7027 15.7226 23.178 15.5514C22.5978 15.3605 22.3413 15.164 21.1606 14.0214C20.1256 13.0193 19.9099 12.8424 19.3822 12.5785C18.7525 12.2613 18.0149 12.149 17.3269 12.2669C17.1986 12.2894 17.0295 12.3287 16.9479 12.3539Z" fill-rule="nonzero" stroke="rgb(0,122,255)" stroke-width="0.100000" />
		<path id="矢量 519" d="M16.8488 12.4071C16.8488 12.4071 17.1228 12.5783 17.426 12.7833C17.4493 12.8001 17.4785 12.8057 17.5076 12.8029C17.6388 12.7889 18.0615 12.7664 18.6854 12.9152C18.8837 12.9629 19.4201 13.2493 19.4201 13.2493L20.2713 13.9876L21.4491 15.1778L22.2596 15.8095L23.3324 16.1828L24.0933 16.239C24.0933 16.239 24.6414 15.8909 24.9446 15.5287L24.2245 15.7224L23.1779 15.627L22.2042 15.1077L21.1518 14.0942L20.2655 13.224L19.5367 12.6625L18.4609 12.3116L17.6155 12.2808L16.8488 12.4071Z" fill="rgb(0,122,255)" fill-rule="nonzero" />
		<path id="矢量 520" />
		<path id="矢量 521" d="M11.4262 18.521C11.2279 18.5126 12.0734 17.8669 12.2716 17.7883C12.327 17.7659 12.3824 17.7153 12.5486 17.7153C12.706 17.7153 13.6943 17.822 13.7964 17.8529C14.2657 18.0017 14.566 18.215 14.9712 18.507C15.563 18.9309 15.566 19.0516 16.2336 19.5878C16.9362 20.152 17.2889 20.4187 17.6621 20.5085C18.4988 20.7107 19.1168 20.618 19.1168 20.618C19.1168 20.618 19.5483 20.9128 19.7961 21.0054C19.7961 21.0054 19.3617 21.0924 19.1693 21.1261C18.7437 21.1963 17.8078 21.1514 17.3851 20.9605C16.6126 20.6124 16.4172 20.4075 15.5251 19.6748C14.9479 19.2004 14.7876 18.9337 14.292 18.6726C14.0471 18.5435 13.8372 18.3863 13.2337 18.3049C12.5777 18.215 12.2745 18.2431 12.0472 18.3385C11.9043 18.4031 11.5195 18.4845 11.4262 18.521Z" fill="rgb(0,122,255)" fill-rule="nonzero" />
	</g>
</svg>
