<svg viewBox="0 0 40 40" xmlns="http://www.w3.org/2000/svg" xmlns:xlink="http://www.w3.org/1999/xlink" width="40.000000" height="40.000000" fill="none" customFrame="#000000">
	<defs>
		<g id="pixso_custom_effect_3">
			<effect x="2.000000" y="3.000000" visibility="visible" fill="rgb(0,0,0)" fill-opacity="0.180000007" effectType="dropShadow" stdDeviation="6" radius="-2" />
		</g>
		<filter id="filter_3" width="40.000000" height="40.000000" x="0.000000" y="0.000000" filterUnits="userSpaceOnUse" customEffect="url(#pixso_custom_effect_3)" color-interpolation-filters="sRGB">
			<feFlood flood-opacity="0" result="BackgroundImageFix" />
			<feOffset dx="2.000000" dy="3.000000" in="SourceAlpha" />
			<feMorphology radius="2" operator="erode" />
			<feOffset dx="0.000000" dy="0.000000" />
			<feGaussianBlur stdDeviation="2" />
			<feColorMatrix type="matrix" values="0 0 0 0 0 0 0 0 0 0 0 0 0 0 0 0 0 0 0.18 0 " />
			<feBlend result="effect_dropShadow_1" in2="BackgroundImageFix" mode="normal" />
			<feBlend result="shape" in="SourceGraphic" in2="effect_dropShadow_1" mode="normal" />
		</filter>
	</defs>
	<rect id="悬浮图标-揉捏" width="30.000000" height="30.000000" x="3.000000" y="2.000000" />
	<g filter="url(#filter_3)">
		<path id="椭圆 8" d="M3 17C3 8.71573 9.71573 2 18 2C26.2843 2 33 8.71573 33 17C33 25.2843 26.2843 32 18 32C9.71573 32 3 25.2843 3 17Z" fill="rgb(255,255,255)" fill-rule="evenodd" />
		<path id="椭圆 8" d="M3 17C3 8.71573 9.71573 2 18 2C26.2843 2 33 8.71573 33 17C33 25.2843 26.2843 32 18 32C9.71573 32 3 25.2843 3 17ZM4 17Q4 18.588 4.3417 20.0987L4.3418 20.0992L4.34181 20.0992Q4.61312 21.2985 5.09978 22.4491Q5.59593 23.6222 6.28298 24.67L6.28302 24.6701L6.28304 24.6701Q7.06738 25.8664 8.1005 26.8995Q9.13356 27.9325 10.3297 28.7169L10.3299 28.717L10.33 28.7171Q11.3779 29.4041 12.5509 29.9002Q13.7008 30.3866 14.8995 30.6579L14.9009 30.6582L14.9011 30.6583Q16.4119 31 18 31Q19.5882 31 21.0991 30.6582L21.0991 30.6582Q22.2985 30.3869 23.4491 29.9002Q24.6222 29.404 25.6701 28.717L25.6702 28.7169Q26.8664 27.9326 27.8995 26.8995Q28.9326 25.8664 29.7169 24.6702L29.717 24.6701Q30.404 23.6222 30.9002 22.4491Q31.3869 21.2985 31.6582 20.0992L31.6582 20.0992L31.6583 20.0989Q32 18.5881 32 17Q32 15.4118 31.6582 13.901L31.6582 13.9009L31.6582 13.9009Q31.3869 12.7015 30.9002 11.5509Q30.404 10.3778 29.717 9.32986Q28.9326 8.13363 27.8995 7.1005Q26.8664 6.06737 25.6701 5.28303Q24.6222 4.59595 23.4491 4.09978Q22.2985 3.61312 21.0992 3.34181L21.0992 3.3418L21.0989 3.34173Q19.5881 3 18 3Q16.4117 3 14.9008 3.3418L14.9008 3.34181L14.9008 3.34181Q13.7015 3.61312 12.5509 4.09978Q11.3778 4.59594 10.3299 5.283L10.3299 5.28303L10.3299 5.28305Q9.13363 6.06738 8.1005 7.1005Q7.06741 8.1336 6.28308 9.32981L6.28306 9.32984Q5.59596 10.3778 5.09978 11.5509Q4.6131 12.7015 4.34179 13.9009Q4 15.4118 4 17Z" fill="rgb(1,89,188)" fill-rule="evenodd" />
	</g>
	<g id="组合 105">
		<path id="矢量 511" d="M8.42395 9.13291C8.25636 9.07171 8.10417 8.93943 8.06757 8.82492C8.04638 8.75582 8.0329 8.76174 7.92888 8.89007C7.61488 9.28098 7.31437 9.25927 6.62473 8.79728C5.84649 8.27212 5.41884 8.14774 4.17826 8.08654C3.25554 8.04113 3.09758 7.96808 1.85315 7.02437L1.37734 6.66307L0.772468 6.66307C0.190709 6.66307 0.16374 6.65912 0.0828332 6.57225L0 6.47946L0 3.7964C0 1.76091 0.0115581 1.09952 0.0462325 1.06398C0.0789805 1.03042 0.296659 1.0166 0.778247 1.0166C1.43706 1.0166 1.47173 1.01265 1.61043 0.921832C2.22494 0.525 2.83945 0.335468 3.73713 0.266367C4.03957 0.242676 4.2245 0.20319 4.46914 0.110398C5.30903 -0.205488 6.12581 0.226882 6.12581 0.988958C6.12581 1.15282 6.13351 1.16664 6.28184 1.23574C6.74224 1.44699 7.05238 2.07877 6.89828 2.49139C6.86553 2.57826 6.87901 2.59801 7.03697 2.70067C7.46655 2.97904 7.62258 3.55949 7.39528 4.03924L7.31052 4.22087L7.44536 4.36697C7.87686 4.82896 7.82678 5.54365 7.33171 5.99181C7.141 6.16358 6.827 6.34719 6.7249 6.34719C6.63437 6.34719 6.65363 6.41431 6.75187 6.43998C7.05431 6.52092 7.71505 7.13098 7.89227 7.49227L8.00015 7.71537L8.08684 7.52584C8.23902 7.18429 8.70134 6.73217 9.14055 6.49526L9.32356 6.39654L9.07891 6.27414C8.22939 5.84572 7.96162 4.79342 8.57806 4.29787L8.68015 4.21298L8.59154 4.01555C8.37964 3.55554 8.52605 2.98892 8.92673 2.71844C9.10588 2.59801 9.12129 2.57431 9.08854 2.48942C8.92865 2.05508 9.26577 1.37987 9.73194 1.20613C9.85523 1.1627 9.86294 1.1469 9.86294 0.979087C9.86679 0.213062 10.778 -0.235103 11.5967 0.128167C11.7508 0.195293 11.9357 0.24465 12.0782 0.252547C13.1377 0.317699 13.6559 0.463797 14.3417 0.886295L14.5652 1.02252L15.2221 1.01068C15.8346 0.99883 15.8847 1.00278 15.9348 1.07385C16.035 1.21403 16.0138 6.47946 15.9117 6.5841C15.8404 6.65715 15.7826 6.66307 15.2182 6.66307L14.5998 6.66307L14.1298 7.03226C12.9509 7.95228 12.6985 8.06285 11.693 8.10036C10.6682 8.13787 10.0864 8.30963 9.41795 8.77754C8.85738 9.17042 8.68979 9.22965 8.42395 9.13291ZM7.60332 8.72226C8.09454 8.28002 7.56094 7.30274 6.52842 6.75389C6.24717 6.60384 6.06416 6.53869 5.28977 6.30967C4.74654 6.14976 4.34393 5.51009 4.49804 5.05402C4.53656 4.94149 4.53079 4.93162 4.34008 4.80329C4.00104 4.5723 3.86812 4.20903 3.9837 3.81417C4.04342 3.60687 4.04342 3.60292 3.95866 3.54567C3.53679 3.26334 3.40002 2.78754 3.61384 2.36307L3.69282 2.21104L3.52908 2.09456C3.13418 1.80829 3.09565 1.25549 3.44047 0.870501L3.59458 0.696763L3.42506 0.724403C2.7778 0.823118 2.27888 0.996855 1.86471 1.27326L1.59887 1.44897L1.0306 1.45094L0.462325 1.45094L0.462325 3.83984L0.462325 6.22873L0.972809 6.22873L1.48522 6.22873L1.66244 6.35706C1.76069 6.42813 2.06313 6.65912 2.33667 6.87235C2.6314 7.10334 2.98007 7.33433 3.19775 7.44489L3.56376 7.6285L4.14166 7.65417C5.43232 7.7134 5.98711 7.88516 6.85975 8.49916C7.3895 8.86836 7.4261 8.8802 7.60332 8.72226ZM9.21761 8.4656C10.0325 7.90095 10.6604 7.70352 11.8086 7.65417L12.4635 7.62653L12.816 7.43699C13.0087 7.33236 13.4691 7.01647 13.837 6.7381L14.5055 6.22873L15.0159 6.22873L15.5264 6.22873L15.5264 3.83786L15.5264 1.44502L14.9716 1.45489L14.4149 1.46279L14.099 1.25549C13.6675 0.97119 12.8777 0.702686 12.4693 0.700712C12.452 0.700712 12.4847 0.757966 12.5425 0.829041C12.9239 1.29102 12.8565 1.89911 12.398 2.14589L12.2921 2.20117L12.373 2.34135C12.5926 2.72041 12.4635 3.27716 12.1091 3.49039C12.0185 3.54567 11.9434 3.59502 11.9434 3.60095C11.9434 3.60884 11.9704 3.67597 12.0012 3.75494C12.1669 4.15967 11.9839 4.6414 11.587 4.85067C11.4618 4.9178 11.4464 4.93952 11.4811 5.00269C11.7411 5.50219 11.2364 6.19911 10.4794 6.38075C9.15018 6.70058 8.20242 7.52189 8.2525 8.30963C8.26791 8.54852 8.27947 8.57814 8.41432 8.70449C8.6031 8.88218 8.63007 8.87428 9.21761 8.4656ZM6.43595 6.04709C7.21612 5.81018 7.58406 5.18828 7.22576 4.70852C6.9734 4.36895 6.78655 4.37289 5.70201 4.73419C4.81589 5.03033 4.7292 5.13497 4.98348 5.61077C5.15492 5.93061 5.51515 5.99181 6.06224 5.79438C6.43788 5.65816 6.50337 5.65026 6.53805 5.74108C6.56309 5.8082 6.38394 5.99181 6.2934 5.99181C6.27028 5.99181 6.22983 6.01945 6.20286 6.05104C6.14122 6.12607 6.17782 6.12607 6.43595 6.04709ZM9.78588 6.07079C9.78588 6.05104 9.71846 5.99774 9.63563 5.9543C9.47574 5.87138 9.42758 5.79833 9.47766 5.71739C9.51427 5.65618 9.60866 5.67198 10.0536 5.81018C10.6142 5.98589 10.8685 5.92271 11.0476 5.55944C11.2538 5.13892 11.144 5.01651 10.3021 4.73221C9.29851 4.39461 9.07506 4.38079 8.81885 4.64337C8.39698 5.07574 8.74372 5.78649 9.495 6.0313C9.77047 6.12014 9.78588 6.12212 9.78588 6.07079ZM5.42076 4.43805C5.98518 4.25641 6.48411 4.12216 6.80003 4.06885C7.39913 3.97014 7.10632 2.90994 6.49374 2.96128C6.0449 2.99879 4.52693 3.57331 4.41906 3.74704C4.2611 4.00173 4.34778 4.37684 4.60013 4.53479C4.7658 4.63942 4.81781 4.6335 5.42076 4.43805ZM11.4926 4.45384C11.7257 4.23074 11.7354 3.88327 11.5138 3.68781C11.2769 3.47854 9.82633 2.9514 9.4873 2.9514C8.815 2.9514 8.63007 3.99778 9.28888 4.07478C9.5239 4.10044 10.647 4.42817 10.9089 4.54663C11.1497 4.65324 11.3116 4.62758 11.4926 4.45384ZM5.52864 2.85072C5.86768 2.73423 6.2202 2.61972 6.31074 2.59603C6.80581 2.46573 6.45521 1.54176 5.91583 1.55755C5.62496 1.56545 4.19367 2.20117 4.03764 2.39268C3.82767 2.64736 3.88931 3.05407 4.16285 3.22386L4.28807 3.30085L4.60013 3.18042C4.77158 3.11527 5.1896 2.96522 5.52864 2.85072ZM11.9068 3.1587C12.294 2.78754 12.1322 2.40255 11.4503 2.07284C10.0999 1.42133 9.6337 1.40751 9.47381 2.01559C9.38135 2.37294 9.46418 2.52101 9.81478 2.6138C10.1615 2.70462 11.1536 3.05999 11.4233 3.19029C11.7238 3.33244 11.7276 3.33244 11.9068 3.1587ZM4.93147 1.51017C5.28206 1.36605 5.60569 1.23377 5.65385 1.21205C5.92354 1.09952 5.62496 0.530922 5.23968 0.424311C4.90065 0.331519 3.976 0.726377 3.71401 1.0778C3.41735 1.47661 3.70245 2.01954 4.11855 1.84383C4.21679 1.80434 4.5828 1.65232 4.93147 1.51017ZM12.1765 1.86554C12.5309 1.67601 12.4654 1.15875 12.0493 0.866552C11.2538 0.305853 10.6489 0.260445 10.3349 0.736249C10.1191 1.06596 10.175 1.13308 10.9032 1.42528C11.2114 1.54966 11.5832 1.71155 11.7315 1.7846C12.0532 1.94254 12.0339 1.94057 12.1765 1.86554Z" fill="rgb(1,89,188)" fill-rule="nonzero" transform="matrix(1,0,0,-1,10,21.1738)" />
		<path id="矢量 511" d="M8.06757 8.82492C8.04638 8.75582 8.0329 8.76174 7.92888 8.89007C7.61488 9.28098 7.31437 9.25927 6.62473 8.79728C5.84649 8.27212 5.41884 8.14774 4.17826 8.08654C3.25554 8.04113 3.09758 7.96808 1.85315 7.02437L1.37734 6.66307L0.772468 6.66307C0.190709 6.66307 0.16374 6.65912 0.0828332 6.57225L0 6.47946L0 3.7964C0 1.76091 0.0115581 1.09952 0.0462325 1.06398C0.0789805 1.03042 0.296659 1.0166 0.778247 1.0166C1.43706 1.0166 1.47173 1.01265 1.61043 0.921832C2.22494 0.525 2.83945 0.335468 3.73713 0.266367C4.03957 0.242676 4.2245 0.20319 4.46914 0.110398C5.30903 -0.205488 6.12581 0.226882 6.12581 0.988958C6.12581 1.15282 6.13351 1.16664 6.28184 1.23574C6.74224 1.44699 7.05238 2.07877 6.89828 2.49139C6.86553 2.57826 6.87901 2.59801 7.03697 2.70067C7.46655 2.97904 7.62258 3.55949 7.39528 4.03924L7.31052 4.22087L7.44536 4.36697C7.87686 4.82896 7.82678 5.54365 7.33171 5.99181C7.141 6.16358 6.827 6.34719 6.7249 6.34719C6.63437 6.34719 6.65363 6.41431 6.75187 6.43998C7.05431 6.52092 7.71505 7.13098 7.89227 7.49227L8.00015 7.71537L8.08684 7.52584C8.23902 7.18429 8.70134 6.73217 9.14055 6.49526L9.32356 6.39654L9.07891 6.27414C8.22939 5.84572 7.96162 4.79342 8.57806 4.29787L8.68015 4.21298L8.59154 4.01555C8.37964 3.55554 8.52605 2.98892 8.92673 2.71844C9.10588 2.59801 9.12129 2.57431 9.08854 2.48942C8.92865 2.05508 9.26577 1.37987 9.73194 1.20613C9.85523 1.1627 9.86294 1.1469 9.86294 0.979087C9.86679 0.213062 10.778 -0.235103 11.5967 0.128167C11.7508 0.195293 11.9357 0.24465 12.0782 0.252547C13.1377 0.317699 13.6559 0.463797 14.3417 0.886295L14.5652 1.02252L15.2221 1.01068C15.8346 0.99883 15.8847 1.00278 15.9348 1.07385C16.035 1.21403 16.0138 6.47946 15.9117 6.5841C15.8404 6.65715 15.7826 6.66307 15.2182 6.66307L14.5998 6.66307L14.1298 7.03226C12.9509 7.95228 12.6985 8.06285 11.693 8.10036C10.6682 8.13787 10.0864 8.30963 9.41795 8.77754C8.85738 9.17042 8.68979 9.22965 8.42395 9.13291C8.25636 9.07171 8.10417 8.93943 8.06757 8.82492ZM6.52842 6.75389C6.24717 6.60384 6.06416 6.53869 5.28977 6.30967C4.74654 6.14976 4.34393 5.51009 4.49804 5.05402C4.53656 4.94149 4.53079 4.93162 4.34008 4.80329C4.00104 4.5723 3.86812 4.20903 3.9837 3.81417C4.04342 3.60687 4.04342 3.60292 3.95866 3.54567C3.53679 3.26334 3.40002 2.78754 3.61384 2.36307L3.69282 2.21104L3.52908 2.09456C3.13418 1.80829 3.09565 1.25549 3.44047 0.870501L3.59458 0.696763L3.42506 0.724403C2.7778 0.823118 2.27888 0.996855 1.86471 1.27326L1.59887 1.44897L1.0306 1.45094L0.462325 1.45094L0.462325 3.83984L0.462325 6.22873L0.972809 6.22873L1.48522 6.22873L1.66244 6.35706C1.76069 6.42813 2.06313 6.65912 2.33667 6.87235C2.6314 7.10334 2.98007 7.33433 3.19775 7.44489L3.56376 7.6285L4.14166 7.65417C5.43232 7.7134 5.98711 7.88516 6.85975 8.49916C7.3895 8.86836 7.4261 8.8802 7.60332 8.72226C8.09454 8.28002 7.56094 7.30274 6.52842 6.75389ZM11.8086 7.65417L12.4635 7.62653L12.816 7.43699C13.0087 7.33236 13.4691 7.01647 13.837 6.7381L14.5055 6.22873L15.0159 6.22873L15.5264 6.22873L15.5264 3.83786L15.5264 1.44502L14.9716 1.45489L14.4149 1.46279L14.099 1.25549C13.6675 0.97119 12.8777 0.702686 12.4693 0.700712C12.452 0.700712 12.4847 0.757966 12.5425 0.829041C12.9239 1.29102 12.8565 1.89911 12.398 2.14589L12.2921 2.20117L12.373 2.34135C12.5926 2.72041 12.4635 3.27716 12.1091 3.49039C12.0185 3.54567 11.9434 3.59502 11.9434 3.60095C11.9434 3.60884 11.9704 3.67597 12.0012 3.75494C12.1669 4.15967 11.9839 4.6414 11.587 4.85067C11.4618 4.9178 11.4464 4.93952 11.4811 5.00269C11.7411 5.50219 11.2364 6.19911 10.4794 6.38075C9.15018 6.70058 8.20242 7.52189 8.2525 8.30963C8.26791 8.54852 8.27947 8.57814 8.41432 8.70449C8.6031 8.88218 8.63007 8.87428 9.21761 8.4656C10.0325 7.90095 10.6604 7.70352 11.8086 7.65417ZM7.22576 4.70852C6.9734 4.36895 6.78655 4.37289 5.70201 4.73419C4.81589 5.03033 4.7292 5.13497 4.98348 5.61077C5.15492 5.93061 5.51515 5.99181 6.06224 5.79438C6.43788 5.65816 6.50337 5.65026 6.53805 5.74108C6.56309 5.8082 6.38394 5.99181 6.2934 5.99181C6.27028 5.99181 6.22983 6.01945 6.20286 6.05104C6.14122 6.12607 6.17782 6.12607 6.43595 6.04709C7.21612 5.81018 7.58406 5.18828 7.22576 4.70852ZM9.63563 5.9543C9.47574 5.87138 9.42758 5.79833 9.47766 5.71739C9.51427 5.65618 9.60866 5.67198 10.0536 5.81018C10.6142 5.98589 10.8685 5.92271 11.0476 5.55944C11.2538 5.13892 11.144 5.01651 10.3021 4.73221C9.29851 4.39461 9.07506 4.38079 8.81885 4.64337C8.39698 5.07574 8.74372 5.78649 9.495 6.0313C9.77047 6.12014 9.78588 6.12212 9.78588 6.07079C9.78588 6.05104 9.71846 5.99774 9.63563 5.9543ZM6.80003 4.06885C7.39913 3.97014 7.10632 2.90994 6.49374 2.96128C6.0449 2.99879 4.52693 3.57331 4.41906 3.74704C4.2611 4.00173 4.34778 4.37684 4.60013 4.53479C4.7658 4.63942 4.81781 4.6335 5.42076 4.43805C5.98518 4.25641 6.48411 4.12216 6.80003 4.06885ZM11.5138 3.68781C11.2769 3.47854 9.82633 2.9514 9.4873 2.9514C8.815 2.9514 8.63007 3.99778 9.28888 4.07478C9.5239 4.10044 10.647 4.42817 10.9089 4.54663C11.1497 4.65324 11.3116 4.62758 11.4926 4.45384C11.7257 4.23074 11.7354 3.88327 11.5138 3.68781ZM6.31074 2.59603C6.80581 2.46573 6.45521 1.54176 5.91583 1.55755C5.62496 1.56545 4.19367 2.20117 4.03764 2.39268C3.82767 2.64736 3.88931 3.05407 4.16285 3.22386L4.28807 3.30085L4.60013 3.18042C4.77158 3.11527 5.1896 2.96522 5.52864 2.85072C5.86768 2.73423 6.2202 2.61972 6.31074 2.59603ZM11.4503 2.07284C10.0999 1.42133 9.6337 1.40751 9.47381 2.01559C9.38135 2.37294 9.46418 2.52101 9.81478 2.6138C10.1615 2.70462 11.1536 3.05999 11.4233 3.19029C11.7238 3.33244 11.7276 3.33244 11.9068 3.1587C12.294 2.78754 12.1322 2.40255 11.4503 2.07284ZM5.65385 1.21205C5.92354 1.09952 5.62496 0.530922 5.23968 0.424311C4.90065 0.331519 3.976 0.726377 3.71401 1.0778C3.41735 1.47661 3.70245 2.01954 4.11855 1.84383C4.21679 1.80434 4.5828 1.65232 4.93147 1.51017C5.28206 1.36605 5.60569 1.23377 5.65385 1.21205ZM12.0493 0.866552C11.2538 0.305853 10.6489 0.260445 10.3349 0.736249C10.1191 1.06596 10.175 1.13308 10.9032 1.42528C11.2114 1.54966 11.5832 1.71155 11.7315 1.7846C12.0532 1.94254 12.0339 1.94057 12.1765 1.86554C12.5309 1.67601 12.4654 1.15875 12.0493 0.866552Z" fill-rule="nonzero" stroke="rgb(1,89,188)" stroke-width="0.500000" transform="matrix(1,0,0,-1,10,21.1738)" />
	</g>
</svg>
