<svg viewBox="0 0 38 38" xmlns="http://www.w3.org/2000/svg" xmlns:xlink="http://www.w3.org/1999/xlink" width="38.000000" height="38.000000" fill="none" customFrame="#000000">
	<defs>
		<g id="pixso_custom_effect_13">
			<effect x="2.000000" y="3.000000" visibility="visible" fill="rgb(0,0,0)" fill-opacity="0.180000007" effectType="dropShadow" stdDeviation="6" radius="-2" />
		</g>
		<filter id="filter_13" width="38.000000" height="38.000000" x="0.000000" y="0.000000" filterUnits="userSpaceOnUse" customEffect="url(#pixso_custom_effect_13)" color-interpolation-filters="sRGB">
			<feFlood flood-opacity="0" result="BackgroundImageFix" />
			<feOffset dx="2.000000" dy="3.000000" in="SourceAlpha" />
			<feMorphology radius="2" operator="erode" />
			<feOffset dx="0.000000" dy="0.000000" />
			<feGaussianBlur stdDeviation="2" />
			<feColorMatrix type="matrix" values="0 0 0 0 0 0 0 0 0 0 0 0 0 0 0 0 0 0 0.18 0 " />
			<feBlend result="effect_dropShadow_1" in2="BackgroundImageFix" mode="normal" />
			<feBlend result="shape" in="SourceGraphic" in2="effect_dropShadow_1" mode="normal" />
		</filter>
	</defs>
	<rect id="悬浮图标-拍打" width="30.000000" height="30.000000" x="2.000000" y="1.000000" />
	<g filter="url(#filter_13)">
		<path id="椭圆 8" d="M2 16C2 7.71573 8.71573 1 17 1C25.2843 1 32 7.71573 32 16C32 24.2843 25.2843 31 17 31C8.71573 31 2 24.2843 2 16Z" fill="rgb(255,255,255)" fill-rule="evenodd" />
		<path id="椭圆 8" d="M17 1C8.71573 1 2 7.71573 2 16C2 24.2843 8.71573 31 17 31C25.2843 31 32 24.2843 32 16C32 7.71573 25.2843 1 17 1ZM13.9008 2.3418C14.9081 2.11393 15.9412 2 17 2C18.0588 2 19.0919 2.11393 20.0991 2.34179C20.8987 2.52266 21.682 2.77533 22.4491 3.09978C23.2311 3.43053 23.9714 3.82491 24.6699 4.28291C25.4675 4.80584 26.2107 5.4117 26.8995 6.1005C27.5882 6.78925 28.1941 7.53236 28.7169 8.32985C29.175 9.02846 29.5694 9.76881 29.9002 10.5509C30.2247 11.318 30.4774 12.1014 30.6583 12.901C30.8861 13.9083 31 14.9412 31 16C31 17.0588 30.8861 18.0917 30.6582 19.099C30.4774 19.8986 30.2247 20.682 29.9002 21.4491C29.5695 22.2311 29.1751 22.9714 28.7171 23.6699C28.1942 24.4675 27.5883 25.2107 26.8995 25.8995C26.2107 26.5883 25.4675 27.1942 24.6699 27.7171C23.9713 28.1751 23.2311 28.5695 22.4491 28.9002C21.682 29.2247 20.8986 29.4774 20.099 29.6582C19.0918 29.8861 18.0588 30 17 30C15.9412 30 14.9082 29.8861 13.901 29.6582C13.1014 29.4774 12.318 29.2247 11.5509 28.9002C10.7688 28.5694 10.0285 28.175 9.32989 27.717C8.53239 27.1941 7.78926 26.5883 7.1005 25.8995C6.41169 25.2107 5.80583 24.4675 5.2829 23.6699C4.8249 22.9714 4.43053 22.2311 4.09978 21.4491C3.77532 20.682 3.52265 19.8987 3.34178 19.0991C3.11393 18.0918 3 17.0588 3 16C3 14.9412 3.11393 13.9081 3.34179 12.9009C3.52266 12.1013 3.77533 11.318 4.09978 10.5509C4.43058 9.76879 4.82501 9.02842 5.28309 8.32979C5.80598 7.53233 6.41178 6.78923 7.1005 6.1005C7.78925 5.41176 8.53236 4.80594 9.32985 4.28305C10.0285 3.82499 10.7688 3.43057 11.5509 3.09978C12.318 2.77533 13.1013 2.52267 13.9008 2.3418Z" fill="rgb(1,89,188)" fill-rule="evenodd" />
	</g>
	<g id="组合 26">
		<path id="矢量 333" d="M8.71627 6.19495C8.64442 6.18697 8.54988 6.17103 8.50828 6.15906C8.46669 6.1491 8.36837 6.12517 8.29084 6.10723C8.21332 6.09128 8.09799 6.06337 8.03559 6.04743C7.61773 5.93977 7.49672 5.91186 7.43054 5.89791C7.29819 5.87199 6.84251 5.76434 6.54566 5.68859C6.39062 5.64872 6.00868 5.561 5.8423 5.52711C5.77045 5.51316 5.62864 5.48126 5.53032 5.45933C5.432 5.43541 5.26561 5.39952 5.16162 5.37759C5.05763 5.35766 4.93662 5.32975 4.89124 5.31978C4.84775 5.30782 4.79292 5.29985 4.77023 5.29985C4.74754 5.29985 4.67758 5.28788 4.61518 5.27194C4.34102 5.20615 4.04039 5.17226 3.69627 5.17226C3.21223 5.17027 3.1158 5.20017 2.2971 5.5929C2.24038 5.62081 2.15907 5.65868 2.11748 5.67862C1.84899 5.80621 1.58617 5.94376 1.54646 5.97765C1.51243 6.00556 1.46894 6.01752 1.40655 6.01752C1.28743 6.01752 1.21558 5.95572 1.17209 5.81418C1.14373 5.72248 1.10969 5.6228 0.979231 5.26994C0.964105 5.22608 0.943307 5.17425 0.933853 5.15631C0.924399 5.13637 0.916836 5.11046 0.916836 5.10049C0.916836 5.08853 0.90171 5.04068 0.880911 4.99483C0.862003 4.94898 0.822297 4.84332 0.793936 4.76159C0.765574 4.67985 0.725868 4.57419 0.70696 4.52834C0.686162 4.48249 0.671036 4.43664 0.671036 4.42667C0.671036 4.4167 0.6578 4.38082 0.642674 4.35092C0.627548 4.31902 0.614312 4.27915 0.614312 4.26121C0.614312 4.24526 0.606749 4.22333 0.599186 4.21137C0.589732 4.2014 0.553808 4.11369 0.519774 4.01401C0.432798 3.76083 0.332587 3.48771 0.300444 3.41196C0.285318 3.37807 0.273974 3.3382 0.273974 3.32225C0.273974 3.3063 0.26641 3.28636 0.258847 3.2744C0.249393 3.26443 0.222923 3.19865 0.198343 3.12688C0.175653 3.05511 0.145401 2.97138 0.132166 2.93749C-0.011533 2.57467 -0.036113 2.38727 0.0489717 2.30155C0.0848964 2.26367 1.27797 1.71146 1.32146 1.71146C1.32902 1.71146 1.46138 1.64567 1.61642 1.56394C1.8868 1.4224 2.12315 1.26889 2.53345 0.965874C2.87378 0.714687 3.05908 0.597067 3.34648 0.447551C3.83808 0.192377 4.19921 0.0887129 4.80993 0.0269129C5.15973 -0.00897096 5.43011 -0.00897096 5.87066 0.0269129C6.44923 0.0727645 6.71961 0.132571 7.34168 0.347874C7.75765 0.491409 8.18118 0.624977 8.3211 0.65488C8.4024 0.672822 8.73707 0.736616 9.19841 0.824332C9.76565 0.92999 9.97363 0.971854 10.1249 1.00176C10.261 1.03166 10.365 1.05359 10.7016 1.12137C10.9531 1.1732 11.0003 1.18516 11.0949 1.21905C11.1894 1.25494 11.3104 1.3287 11.3974 1.40445C11.4636 1.46227 11.5052 1.46426 11.6375 1.41243C11.6942 1.38851 11.7718 1.3586 11.8077 1.34465C12.1442 1.21108 12.5697 1.05359 12.5886 1.05359C12.6018 1.05359 12.6207 1.04562 12.6321 1.03565C12.6415 1.02568 12.719 1.00176 12.8041 0.983816C13.0915 0.922016 13.3524 1.00574 13.5529 1.21905C13.6266 1.2968 13.6739 1.33269 13.6947 1.32671C13.7419 1.31076 13.9064 1.24696 14.1333 1.15327C14.4207 1.03565 14.5928 1.00574 14.7913 1.04362C14.9728 1.07751 15.1562 1.16523 15.2772 1.27687C15.3737 1.36658 15.4682 1.55596 15.4871 1.6995C15.4985 1.78722 15.506 1.79918 15.5873 1.84902C15.7027 1.9168 15.8634 2.09422 15.9182 2.20785C16.0411 2.46103 16.0241 2.77003 15.8766 2.99531C15.8369 3.05711 15.6535 3.20662 15.6176 3.20662C15.6119 3.20662 15.5552 3.24051 15.4909 3.28238C15.4247 3.32424 15.3245 3.38604 15.2678 3.41993C15.143 3.4917 14.8821 3.65517 13.9367 4.25124C13.1445 4.75162 13.0877 4.78551 12.8514 4.9111C12.6321 5.02474 12.269 5.1603 11.6375 5.35965C11.5278 5.39354 11.3369 5.45734 11.2121 5.4992C11.0873 5.54106 10.8963 5.60287 10.7867 5.63875C10.677 5.67463 10.5295 5.72447 10.4558 5.74839C10.3839 5.77232 10.2478 5.81817 10.1533 5.84807C10.0606 5.87997 9.87342 5.94177 9.73728 5.98762C9.27026 6.1471 9.16249 6.179 9.04337 6.19694C8.91102 6.21887 8.90156 6.21887 8.71627 6.19495ZM9.00934 5.7464C9.13413 5.7165 9.18329 5.70055 9.36858 5.63676C9.48581 5.59688 10.0738 5.40152 10.4841 5.26596C10.6354 5.21612 10.8642 5.14036 10.9946 5.0985C11.3539 4.97888 11.4484 4.94898 11.5713 4.9111C11.7699 4.8513 12.3825 4.64198 12.4449 4.61207C12.477 4.59612 12.511 4.58217 12.5224 4.58217C12.5489 4.58217 12.8949 4.3868 13.1029 4.25323C13.1766 4.20738 13.3846 4.07581 13.5661 3.96218C13.7476 3.84854 13.914 3.74488 13.9348 3.73092C13.9556 3.71697 13.9858 3.70102 14.001 3.69305C14.0161 3.68507 14.0501 3.66314 14.0766 3.64321C14.1031 3.62527 14.2373 3.53954 14.3753 3.45382C14.5134 3.3661 14.6627 3.2744 14.7081 3.24649C14.7516 3.21858 14.8915 3.13485 15.0182 3.05711C15.1468 2.98135 15.3151 2.87171 15.3945 2.81788C15.5249 2.72817 15.5438 2.70823 15.5684 2.62451C15.593 2.5348 15.593 2.52682 15.5457 2.42515C15.4588 2.23975 15.2489 2.13808 14.9861 2.15403C14.831 2.164 14.3999 2.30554 14.0861 2.44907C14.0653 2.45904 13.9424 2.51287 13.8119 2.56869C13.6814 2.62451 13.5491 2.68431 13.515 2.70026C13.4829 2.71621 13.4508 2.72817 13.4451 2.72817C13.4394 2.72817 13.3903 2.7501 13.3354 2.77601C13.2806 2.80392 13.1823 2.84778 13.118 2.87569C13.0518 2.9056 12.9535 2.94945 12.8968 2.97736C12.84 3.00527 12.789 3.0272 12.7833 3.0272C12.7795 3.0272 12.7171 3.05511 12.6453 3.089C12.4487 3.1807 12.4468 3.1827 12.3655 3.21659C12.2444 3.26842 12.1121 3.30032 11.9589 3.31427C11.6375 3.34418 10.1873 3.54752 10.0171 3.58739C9.85262 3.62527 9.60115 3.59736 9.45367 3.5236C9.38749 3.4917 8.98854 3.34418 8.76354 3.27241L8.5461 3.20064L8.01668 3.20064C7.65933 3.20263 7.40029 3.2126 7.21878 3.23453C7.0713 3.25247 6.89924 3.26643 6.83684 3.26643C6.73663 3.26643 6.71772 3.26045 6.67423 3.2126C6.60995 3.13884 6.60806 2.99331 6.67045 2.91955C6.71961 2.85775 6.76499 2.84778 7.26037 2.78598C7.59882 2.74412 7.67634 2.74212 8.63118 2.74811C9.18707 2.75209 9.92447 2.75608 10.2667 2.75608L10.8907 2.75807L10.9871 2.70425C11.0949 2.64444 11.1818 2.55074 11.2442 2.42316C11.2783 2.35538 11.2877 2.30753 11.2858 2.17994C11.2858 1.98258 11.2404 1.86895 11.1175 1.75532C10.9946 1.64169 10.8831 1.6058 10.3329 1.50613C10.278 1.49616 9.93771 1.42638 9.72405 1.38253C9.44989 1.32671 9.17572 1.27288 8.7919 1.20311C8.59526 1.16722 8.38727 1.12336 8.22467 1.08349C7.99399 1.02767 7.77277 0.969861 7.73496 0.953912C7.71227 0.943945 7.59315 0.904074 7.46836 0.864203C7.34357 0.822338 7.18285 0.768513 7.10911 0.74459C7.03726 0.718674 6.91247 0.678803 6.83495 0.65488C6.75743 0.630958 6.67234 0.605042 6.64587 0.595074C6.59104 0.575138 6.42276 0.543242 6.17318 0.501377C6.06541 0.483435 5.78368 0.467487 5.4717 0.461506C4.82317 0.447551 4.53766 0.479448 4.10279 0.609029C3.71707 0.724654 3.24627 0.981822 2.84542 1.29481C2.5429 1.53204 2.1326 1.80715 1.90382 1.92876C1.8452 1.96065 1.65991 2.04638 1.49352 2.12014C1.32713 2.19191 1.17398 2.25969 1.15318 2.26965C1.13238 2.27962 1.08511 2.29956 1.04919 2.31551C0.884693 2.38727 0.635111 2.49692 0.55948 2.5328C0.481958 2.56869 0.478177 2.57267 0.489521 2.63846C0.497085 2.67634 0.514102 2.73216 0.529228 2.76206C0.544354 2.79196 0.557589 2.82984 0.557589 2.8438C0.557589 2.85775 0.565152 2.88367 0.576497 2.9036C0.585951 2.92154 0.625657 3.02321 0.661582 3.12688C0.742885 3.35215 0.7807 3.45382 0.814734 3.53954C0.82986 3.57343 0.841205 3.6153 0.841205 3.63125C0.841205 3.64919 0.848768 3.66713 0.858222 3.6751C0.867676 3.68109 0.882802 3.71498 0.890365 3.74887C0.896037 3.78475 0.909273 3.82661 0.918727 3.84456C0.92818 3.8605 0.965996 3.96018 1.00192 4.06385C1.08322 4.28912 1.12104 4.39079 1.15507 4.47651C1.1702 4.5104 1.18154 4.55227 1.18154 4.56821C1.18154 4.58616 1.18911 4.6041 1.19856 4.61008C1.20801 4.61606 1.22125 4.64596 1.22692 4.67587C1.23449 4.70776 1.2515 4.75959 1.26663 4.79149C1.27986 4.82538 1.31957 4.92705 1.35171 5.02075C1.38575 5.11445 1.42356 5.21811 1.43869 5.25399C1.45381 5.28788 1.46516 5.32776 1.46516 5.3437C1.46516 5.35965 1.48407 5.39155 1.50865 5.41547L1.55024 5.45734L1.65424 5.4055C2.86433 4.80345 3.11391 4.71773 3.65845 4.71574C3.80972 4.71374 4.0177 4.7257 4.12169 4.73966C4.37506 4.77355 4.88178 4.85528 5.05763 4.89117C5.31288 4.94101 5.3696 4.95496 5.83284 5.06062C5.93116 5.08454 6.07297 5.11644 6.14482 5.13039C6.27528 5.1583 6.43033 5.19618 6.65533 5.252C6.71772 5.26795 6.80659 5.28788 6.85386 5.29985C6.96919 5.32377 7.27361 5.39753 7.40218 5.42943C7.4589 5.44338 7.57046 5.4693 7.64798 5.48923C7.92403 5.55502 8.03748 5.58293 8.14904 5.61084C8.21143 5.62679 8.3816 5.66666 8.52719 5.69856C8.67278 5.73245 8.80135 5.76235 8.81081 5.76634C8.84484 5.78228 8.88455 5.7783 9.00934 5.7464Z" fill="rgb(0,86,197)" fill-rule="nonzero" transform="matrix(1,0,0,-1,9,15.2134)" />
		<path id="矢量 333" d="M8.50828 6.15906C8.46669 6.1491 8.36837 6.12517 8.29084 6.10723C8.21332 6.09128 8.09799 6.06337 8.03559 6.04743C7.61773 5.93977 7.49672 5.91186 7.43054 5.89791C7.29819 5.87199 6.84251 5.76434 6.54566 5.68859C6.39062 5.64872 6.00868 5.561 5.8423 5.52711C5.77045 5.51316 5.62864 5.48126 5.53032 5.45933C5.432 5.43541 5.26561 5.39952 5.16162 5.37759C5.05763 5.35766 4.93662 5.32975 4.89124 5.31978C4.84775 5.30782 4.79292 5.29985 4.77023 5.29985C4.74754 5.29985 4.67758 5.28788 4.61518 5.27194C4.34102 5.20615 4.04039 5.17226 3.69627 5.17226C3.21223 5.17027 3.1158 5.20017 2.2971 5.5929C2.24038 5.62081 2.15907 5.65868 2.11748 5.67862C1.84899 5.80621 1.58617 5.94376 1.54646 5.97765C1.51243 6.00556 1.46894 6.01752 1.40655 6.01752C1.28743 6.01752 1.21558 5.95572 1.17209 5.81418C1.14373 5.72248 1.10969 5.6228 0.979231 5.26994C0.964105 5.22608 0.943307 5.17425 0.933853 5.15631C0.924399 5.13637 0.916836 5.11046 0.916836 5.10049C0.916836 5.08853 0.90171 5.04068 0.880911 4.99483C0.862003 4.94898 0.822297 4.84332 0.793936 4.76159C0.765574 4.67985 0.725868 4.57419 0.70696 4.52834C0.686162 4.48249 0.671036 4.43664 0.671036 4.42667C0.671036 4.4167 0.6578 4.38082 0.642674 4.35092C0.627548 4.31902 0.614312 4.27915 0.614312 4.26121C0.614312 4.24526 0.606749 4.22333 0.599186 4.21137C0.589732 4.2014 0.553808 4.11369 0.519774 4.01401C0.432798 3.76083 0.332587 3.48771 0.300444 3.41196C0.285318 3.37807 0.273974 3.3382 0.273974 3.32225C0.273974 3.3063 0.26641 3.28636 0.258847 3.2744C0.249393 3.26443 0.222923 3.19865 0.198343 3.12688C0.175653 3.05511 0.145401 2.97138 0.132166 2.93749C-0.011533 2.57467 -0.036113 2.38727 0.0489717 2.30155C0.0848964 2.26367 1.27797 1.71146 1.32146 1.71146C1.32902 1.71146 1.46138 1.64567 1.61642 1.56394C1.8868 1.4224 2.12315 1.26889 2.53345 0.965874C2.87378 0.714687 3.05908 0.597067 3.34648 0.447551C3.83808 0.192377 4.19921 0.0887129 4.80993 0.0269129C5.15973 -0.00897096 5.43011 -0.00897096 5.87066 0.0269129C6.44923 0.0727645 6.71961 0.132571 7.34168 0.347874C7.75765 0.491409 8.18118 0.624977 8.3211 0.65488C8.4024 0.672822 8.73707 0.736616 9.19841 0.824332C9.76565 0.92999 9.97363 0.971854 10.1249 1.00176C10.261 1.03166 10.365 1.05359 10.7016 1.12137C10.9531 1.1732 11.0003 1.18516 11.0949 1.21905C11.1894 1.25494 11.3104 1.3287 11.3974 1.40445C11.4636 1.46227 11.5052 1.46426 11.6375 1.41243C11.6942 1.38851 11.7718 1.3586 11.8077 1.34465C12.1442 1.21108 12.5697 1.05359 12.5886 1.05359C12.6018 1.05359 12.6207 1.04562 12.6321 1.03565C12.6415 1.02568 12.719 1.00176 12.8041 0.983816C13.0915 0.922016 13.3524 1.00574 13.5529 1.21905C13.6266 1.2968 13.6739 1.33269 13.6947 1.32671C13.7419 1.31076 13.9064 1.24696 14.1333 1.15327C14.4207 1.03565 14.5928 1.00574 14.7913 1.04362C14.9728 1.07751 15.1562 1.16523 15.2772 1.27687C15.3737 1.36658 15.4682 1.55596 15.4871 1.6995C15.4985 1.78722 15.506 1.79918 15.5873 1.84902C15.7027 1.9168 15.8634 2.09422 15.9182 2.20785C16.0411 2.46103 16.0241 2.77003 15.8766 2.99531C15.8369 3.05711 15.6535 3.20662 15.6176 3.20662C15.6119 3.20662 15.5552 3.24051 15.4909 3.28238C15.4247 3.32424 15.3245 3.38604 15.2678 3.41993C15.143 3.4917 14.8821 3.65517 13.9367 4.25124C13.1445 4.75162 13.0877 4.78551 12.8514 4.9111C12.6321 5.02474 12.269 5.1603 11.6375 5.35965C11.5278 5.39354 11.3369 5.45734 11.2121 5.4992C11.0873 5.54106 10.8963 5.60287 10.7867 5.63875C10.677 5.67463 10.5295 5.72447 10.4558 5.74839C10.3839 5.77232 10.2478 5.81817 10.1533 5.84807C10.0606 5.87997 9.87342 5.94177 9.73728 5.98762C9.27026 6.1471 9.16249 6.179 9.04337 6.19694C8.91102 6.21887 8.90156 6.21887 8.71627 6.19495C8.64442 6.18697 8.54988 6.17103 8.50828 6.15906ZM9.36858 5.63676C9.48581 5.59688 10.0738 5.40152 10.4841 5.26596C10.6354 5.21612 10.8642 5.14036 10.9946 5.0985C11.3539 4.97888 11.4484 4.94898 11.5713 4.9111C11.7699 4.8513 12.3825 4.64198 12.4449 4.61207C12.477 4.59612 12.511 4.58217 12.5224 4.58217C12.5489 4.58217 12.8949 4.3868 13.1029 4.25323C13.1766 4.20738 13.3846 4.07581 13.5661 3.96218C13.7476 3.84854 13.914 3.74488 13.9348 3.73092C13.9556 3.71697 13.9858 3.70102 14.001 3.69305C14.0161 3.68507 14.0501 3.66314 14.0766 3.64321C14.1031 3.62527 14.2373 3.53954 14.3753 3.45382C14.5134 3.3661 14.6627 3.2744 14.7081 3.24649C14.7516 3.21858 14.8915 3.13485 15.0182 3.05711C15.1468 2.98135 15.3151 2.87171 15.3945 2.81788C15.5249 2.72817 15.5438 2.70823 15.5684 2.62451C15.593 2.5348 15.593 2.52682 15.5457 2.42515C15.4588 2.23975 15.2489 2.13808 14.9861 2.15403C14.831 2.164 14.3999 2.30554 14.0861 2.44907C14.0653 2.45904 13.9424 2.51287 13.8119 2.56869C13.6814 2.62451 13.5491 2.68431 13.515 2.70026C13.4829 2.71621 13.4508 2.72817 13.4451 2.72817C13.4394 2.72817 13.3903 2.7501 13.3354 2.77601C13.2806 2.80392 13.1823 2.84778 13.118 2.87569C13.0518 2.9056 12.9535 2.94945 12.8968 2.97736C12.84 3.00527 12.789 3.0272 12.7833 3.0272C12.7795 3.0272 12.7171 3.05511 12.6453 3.089C12.4487 3.1807 12.4468 3.1827 12.3655 3.21659C12.2444 3.26842 12.1121 3.30032 11.9589 3.31427C11.6375 3.34418 10.1873 3.54752 10.0171 3.58739C9.85262 3.62527 9.60115 3.59736 9.45367 3.5236C9.38749 3.4917 8.98854 3.34418 8.76354 3.27241L8.5461 3.20064L8.01668 3.20064C7.65933 3.20263 7.40029 3.2126 7.21878 3.23453C7.0713 3.25247 6.89924 3.26643 6.83684 3.26643C6.73663 3.26643 6.71772 3.26045 6.67423 3.2126C6.60995 3.13884 6.60806 2.99331 6.67045 2.91955C6.71961 2.85775 6.76499 2.84778 7.26037 2.78598C7.59882 2.74412 7.67634 2.74212 8.63118 2.74811C9.18707 2.75209 9.92447 2.75608 10.2667 2.75608L10.8907 2.75807L10.9871 2.70425C11.0949 2.64444 11.1818 2.55074 11.2442 2.42316C11.2783 2.35538 11.2877 2.30753 11.2858 2.17994C11.2858 1.98258 11.2404 1.86895 11.1175 1.75532C10.9946 1.64169 10.8831 1.6058 10.3329 1.50613C10.278 1.49616 9.93771 1.42638 9.72405 1.38253C9.44989 1.32671 9.17572 1.27288 8.7919 1.20311C8.59526 1.16722 8.38727 1.12336 8.22467 1.08349C7.99399 1.02767 7.77277 0.969861 7.73496 0.953912C7.71227 0.943945 7.59315 0.904074 7.46836 0.864203C7.34357 0.822338 7.18285 0.768513 7.10911 0.74459C7.03726 0.718674 6.91247 0.678803 6.83495 0.65488C6.75743 0.630958 6.67234 0.605042 6.64587 0.595074C6.59104 0.575138 6.42276 0.543242 6.17318 0.501377C6.06541 0.483435 5.78368 0.467487 5.4717 0.461506C4.82317 0.447551 4.53766 0.479448 4.10279 0.609029C3.71707 0.724654 3.24627 0.981822 2.84542 1.29481C2.5429 1.53204 2.1326 1.80715 1.90382 1.92876C1.8452 1.96065 1.65991 2.04638 1.49352 2.12014C1.32713 2.19191 1.17398 2.25969 1.15318 2.26965C1.13238 2.27962 1.08511 2.29956 1.04919 2.31551C0.884693 2.38727 0.635111 2.49692 0.55948 2.5328C0.481958 2.56869 0.478177 2.57267 0.489521 2.63846C0.497085 2.67634 0.514102 2.73216 0.529228 2.76206C0.544354 2.79196 0.557589 2.82984 0.557589 2.8438C0.557589 2.85775 0.565152 2.88367 0.576497 2.9036C0.585951 2.92154 0.625657 3.02321 0.661582 3.12688C0.742885 3.35215 0.7807 3.45382 0.814734 3.53954C0.82986 3.57343 0.841205 3.6153 0.841205 3.63125C0.841205 3.64919 0.848768 3.66713 0.858222 3.6751C0.867676 3.68109 0.882802 3.71498 0.890365 3.74887C0.896037 3.78475 0.909273 3.82661 0.918727 3.84456C0.92818 3.8605 0.965996 3.96018 1.00192 4.06385C1.08322 4.28912 1.12104 4.39079 1.15507 4.47651C1.1702 4.5104 1.18154 4.55227 1.18154 4.56821C1.18154 4.58616 1.18911 4.6041 1.19856 4.61008C1.20801 4.61606 1.22125 4.64596 1.22692 4.67587C1.23449 4.70776 1.2515 4.75959 1.26663 4.79149C1.27986 4.82538 1.31957 4.92705 1.35171 5.02075C1.38575 5.11445 1.42356 5.21811 1.43869 5.25399C1.45381 5.28788 1.46516 5.32776 1.46516 5.3437C1.46516 5.35965 1.48407 5.39155 1.50865 5.41547L1.55024 5.45734L1.65424 5.4055C2.86433 4.80345 3.11391 4.71773 3.65845 4.71574C3.80972 4.71374 4.0177 4.7257 4.12169 4.73966C4.37506 4.77355 4.88178 4.85528 5.05763 4.89117C5.31288 4.94101 5.3696 4.95496 5.83284 5.06062C5.93116 5.08454 6.07297 5.11644 6.14482 5.13039C6.27528 5.1583 6.43033 5.19618 6.65533 5.252C6.71772 5.26795 6.80659 5.28788 6.85386 5.29985C6.96919 5.32377 7.27361 5.39753 7.40218 5.42943C7.4589 5.44338 7.57046 5.4693 7.64798 5.48923C7.92403 5.55502 8.03748 5.58293 8.14904 5.61084C8.21143 5.62679 8.3816 5.66666 8.52719 5.69856C8.67278 5.73245 8.80135 5.76235 8.81081 5.76634C8.84484 5.78228 8.88455 5.7783 9.00934 5.7464C9.13413 5.7165 9.18329 5.70055 9.36858 5.63676Z" fill-rule="nonzero" stroke="rgb(0,86,197)" stroke-width="0.500000" transform="matrix(1,0,0,-1,9,15.2134)" />
		<path id="矢量 334" d="M10.3636 6.38438C10.2312 6.37441 10.0913 6.35846 10.0516 6.3465C10.0138 6.33653 9.95704 6.32656 9.92679 6.32656C9.89464 6.32656 9.81901 6.3146 9.75662 6.29865C9.69233 6.2827 9.57699 6.25479 9.49947 6.23685C9.42195 6.21692 9.28581 6.17705 9.19695 6.14714C9.10808 6.11724 9.00598 6.08335 8.97005 6.07139C8.93413 6.05943 8.79421 6.00959 8.65808 5.95776C8.15324 5.76638 7.75996 5.64876 7.40071 5.58098C7.09252 5.52117 7.01122 5.50721 6.85239 5.4793C6.70113 5.45339 6.55365 5.42548 6.20575 5.3577C5.85217 5.28992 5.73873 5.26799 5.62528 5.25005C5.5591 5.23808 5.4986 5.22413 5.48914 5.22014C5.48158 5.21416 5.42486 5.20021 5.36435 5.18825C5.15259 5.14838 4.96729 5.06265 4.81603 4.93507L4.73662 4.86728L4.56078 4.94105C4.37548 5.0168 3.97653 5.17628 3.86497 5.22014C3.82905 5.23609 3.74018 5.26998 3.66644 5.29789C3.59459 5.3258 3.46791 5.36567 3.38661 5.38361C3.25803 5.41352 3.22022 5.41352 3.09354 5.39159C2.90446 5.3577 2.74185 5.27397 2.62084 5.15037L2.52252 5.05069L2.45256 5.08259C2.41286 5.09854 2.33912 5.13043 2.28618 5.15236C2.23513 5.17429 2.16706 5.20419 2.13491 5.21815C2.10466 5.2341 2.00634 5.27198 1.91748 5.30188C1.77756 5.35172 1.7284 5.35969 1.52987 5.35969C1.27461 5.35969 1.15739 5.32979 0.989107 5.22413C0.858644 5.1404 0.716836 4.95699 0.684693 4.82741C0.662004 4.72973 0.599608 4.65198 0.544776 4.65198C0.508851 4.65198 0.31032 4.53835 0.253597 4.48652C0.166621 4.40478 0.0701921 4.26324 0.0342675 4.16356C0.00779667 4.08781 -0.0016572 4.01604 0.000233577 3.87051C0.00401512 3.6891 0.00779667 3.66916 0.0683014 3.55154C0.149605 3.39605 0.297085 3.27444 0.754652 2.99136C0.77545 2.9774 0.796248 2.96345 0.801921 2.95747C0.811375 2.9455 1.36537 2.58068 1.54499 2.46705C1.59604 2.43516 1.65655 2.39528 1.68113 2.37934C1.94017 2.2039 2.45446 1.865 2.81559 1.63375C3.09165 1.45632 3.39039 1.30083 3.60026 1.22507C3.66833 1.19916 3.74018 1.17125 3.76098 1.16327C3.79879 1.14533 4.11833 1.03369 5.30196 0.625014C5.6612 0.501414 6.16793 0.325982 6.42697 0.234279C7.29483 -0.0687404 7.23811 -0.0667469 8.09085 0.176466C8.14379 0.190421 8.22887 0.216337 8.27992 0.232285C8.37446 0.262189 8.72615 0.36386 8.90388 0.415692C8.95682 0.429647 9.05892 0.45955 9.13077 0.481479C9.20451 0.503408 9.34821 0.545272 9.4522 0.575176C9.55619 0.605079 9.68855 0.642956 9.74527 0.658905C9.85116 0.688808 10.0988 0.756588 10.3503 0.826363C11.3978 1.11742 11.9423 1.22308 12.3829 1.22308C12.5984 1.22308 12.8934 1.16925 13.0447 1.10147C13.3699 0.957937 13.5608 0.866234 14.1753 0.557234C14.3588 0.463537 14.5006 0.405724 14.5365 0.405724C14.6216 0.405724 14.7312 0.517363 14.7483 0.621027C14.7558 0.660898 14.7672 0.704756 14.7747 0.714724C14.7823 0.726685 14.7993 0.766556 14.8088 0.804434C14.8314 0.882182 14.9279 1.16128 14.96 1.24899C14.9733 1.28089 14.9827 1.31678 14.9827 1.33272C14.9827 1.34867 14.9903 1.36462 14.9997 1.3706C15.0092 1.37658 15.0224 1.40649 15.0281 1.43639C15.0357 1.46829 15.0659 1.56597 15.098 1.65568C15.1283 1.74738 15.1793 1.89889 15.2115 1.99458C15.2436 2.09227 15.2777 2.18596 15.2871 2.2039C15.2966 2.22384 15.3041 2.24976 15.3041 2.26371C15.306 2.27767 15.3212 2.32551 15.342 2.36937C15.3628 2.41323 15.3779 2.45708 15.3798 2.46705C15.3798 2.48499 15.4573 2.72023 15.5216 2.89766C15.5367 2.93554 15.5745 3.04917 15.6086 3.14685C15.6407 3.24653 15.6804 3.35418 15.6936 3.39007C15.7088 3.42396 15.7201 3.45984 15.7201 3.46781C15.7201 3.48376 15.8222 3.78678 15.8544 3.86453C15.9375 4.07186 15.947 4.13964 15.9016 4.23134C15.8752 4.28517 15.8544 4.29713 15.6067 4.3988C15.48 4.45263 15.0602 4.63205 14.9449 4.68388C14.909 4.70182 14.8617 4.72176 14.8409 4.73172C14.3493 4.95301 14.0657 5.11448 13.6119 5.43545C13.4247 5.56901 13.2243 5.71056 13.1676 5.75043C12.9237 5.92387 12.589 6.09332 12.3073 6.191C11.7438 6.38238 11.1747 6.4382 10.3636 6.38438ZM11.5131 5.92985C11.7949 5.88599 11.8913 5.86406 12.0898 5.79428C12.2297 5.74445 12.536 5.61487 12.572 5.58895C12.5833 5.58098 12.6514 5.5411 12.7232 5.49924C12.8405 5.43345 13.0863 5.26201 13.4417 5.00085C13.7216 4.79352 14.1281 4.56427 14.51 4.39282C14.6405 4.33501 14.7728 4.27719 14.8031 4.26125C14.8352 4.24729 14.9846 4.17951 15.1396 4.11173C15.2928 4.04594 15.4176 3.98016 15.4176 3.96819C15.4176 3.9363 15.376 3.80074 15.3041 3.5954C15.2701 3.5017 15.2361 3.40003 15.2247 3.36614C15.2153 3.33425 15.1945 3.27843 15.1793 3.24254C15.1642 3.20865 15.1529 3.17078 15.1529 3.15881C15.1529 3.14685 15.1453 3.12094 15.1359 3.101C15.1264 3.08306 15.0867 2.97341 15.0489 2.85779C15.0111 2.74216 14.9714 2.63052 14.9619 2.60859C14.9543 2.58667 14.9279 2.51091 14.9071 2.43914C14.8844 2.36738 14.8598 2.29162 14.8504 2.26969C14.8333 2.22982 14.822 2.19992 14.7388 1.94076C14.7142 1.86899 14.684 1.78327 14.6688 1.74738C14.6537 1.71349 14.6424 1.67163 14.6424 1.65568C14.6424 1.63774 14.6348 1.61979 14.6254 1.61381C14.6159 1.60783 14.6027 1.57793 14.597 1.54803C14.58 1.48025 14.4817 1.18321 14.4174 1.01774C14.389 0.943982 14.4079 0.936008 13.8672 1.20713C13.1676 1.55799 12.9199 1.63375 12.4207 1.65369C12.0993 1.66764 11.7419 1.63375 11.4281 1.56198C11.0991 1.48822 10.7852 1.41047 10.615 1.36263C10.5054 1.33272 10.3957 1.30282 10.3692 1.29684C10.322 1.28887 9.98918 1.19517 9.72636 1.11941C9.64884 1.09749 9.49191 1.05163 9.37657 1.01974C8.95115 0.900124 8.79799 0.856266 8.65808 0.814401C8.59568 0.796459 8.49925 0.76855 8.44442 0.752601C8.39148 0.738647 8.29883 0.71273 8.24211 0.694789C8.18538 0.67884 8.09274 0.652924 8.03979 0.636976C7.98496 0.621027 7.89231 0.593118 7.83559 0.575176C7.36857 0.43164 7.26269 0.42566 6.96584 0.523343C6.77865 0.585143 6.49503 0.680834 6.37024 0.726685C6.33999 0.736653 6.14335 0.804434 5.93537 0.878195C5.72738 0.949963 5.54019 1.01575 5.5194 1.02572C5.4986 1.03369 5.42297 1.0616 5.34923 1.08552C5.27738 1.10945 5.15826 1.15131 5.08452 1.17723C5.01267 1.20314 4.88788 1.247 4.81036 1.27292C4.53052 1.36462 3.81203 1.61979 3.68346 1.67163C3.46413 1.76134 3.26371 1.87298 2.94606 2.0803C2.92148 2.09625 2.71538 2.23181 2.49038 2.38133C2.26349 2.53085 1.99689 2.70428 1.89857 2.76608C1.66222 2.91759 1.24247 3.1947 0.748979 3.52563C0.52965 3.67315 0.476708 3.72099 0.440783 3.80472C0.410531 3.87848 0.40864 3.89842 0.429439 3.95823C0.48049 4.11173 0.607171 4.21539 0.80003 4.26523C1.05339 4.32903 1.24247 4.27321 2.18786 3.86254C2.25214 3.83463 2.33156 3.80074 2.36181 3.78479C2.39395 3.77083 2.45635 3.74093 2.50362 3.719C2.5887 3.67913 2.73618 3.60936 2.91013 3.52563C2.96307 3.5017 3.04816 3.45984 3.09921 3.43592C3.15215 3.41 3.28829 3.34421 3.40173 3.2864C3.76476 3.10499 3.88577 3.05316 4.00489 3.03521C4.1864 3.0073 4.46245 2.96145 4.6591 2.92756C4.75742 2.91161 4.9238 2.8837 5.0278 2.86776C5.22065 2.83785 5.44187 2.79998 5.74629 2.74814C6.40428 2.63451 6.30218 2.62654 6.8713 2.83586C7.28538 2.98936 7.55009 3.0711 7.7316 3.101C7.85639 3.12094 8.68644 3.10499 8.96249 3.07708C9.05514 3.06711 9.20262 3.05714 9.2896 3.05515C9.42573 3.05316 9.45031 3.05714 9.49002 3.09701C9.55998 3.16679 9.58456 3.24454 9.55619 3.31431C9.52216 3.40203 9.47678 3.43592 9.3501 3.46582C9.06459 3.53759 7.97551 3.55952 6.11499 3.53559C5.42864 3.52563 5.36057 3.52762 5.26981 3.56151C5.15637 3.60338 5.03158 3.70106 4.98242 3.78678C4.93326 3.8725 4.88599 4.03199 4.88599 4.11372C4.88599 4.28118 4.99376 4.50047 5.12233 4.59616C5.27738 4.70979 5.33221 4.72774 5.91646 4.84137C6.23789 4.90317 6.3797 4.93307 6.52151 4.96098C6.68033 4.99288 6.88642 5.03275 7.15491 5.08059C7.86206 5.20818 7.9982 5.24207 8.60135 5.45339C8.78854 5.51718 8.95871 5.57898 8.97951 5.58895C9.08161 5.63679 9.47867 5.76638 9.67909 5.81621C10.2652 5.96374 10.9932 6.00959 11.5131 5.92985Z" fill="rgb(0,86,197)" fill-rule="nonzero" transform="matrix(1,0,0,-1,9.03931,22.1606)" />
		<path id="矢量 334" d="M10.0516 6.3465C10.0138 6.33653 9.95704 6.32656 9.92679 6.32656C9.89464 6.32656 9.81901 6.3146 9.75662 6.29865C9.69233 6.2827 9.57699 6.25479 9.49947 6.23685C9.42195 6.21692 9.28581 6.17705 9.19695 6.14714C9.10808 6.11724 9.00598 6.08335 8.97005 6.07139C8.93413 6.05943 8.79421 6.00959 8.65808 5.95776C8.15324 5.76638 7.75996 5.64876 7.40071 5.58098C7.09252 5.52117 7.01122 5.50721 6.85239 5.4793C6.70113 5.45339 6.55365 5.42548 6.20575 5.3577C5.85217 5.28992 5.73873 5.26799 5.62528 5.25005C5.5591 5.23808 5.4986 5.22413 5.48914 5.22014C5.48158 5.21416 5.42486 5.20021 5.36435 5.18825C5.15259 5.14838 4.96729 5.06265 4.81603 4.93507L4.73662 4.86728L4.56078 4.94105C4.37548 5.0168 3.97653 5.17628 3.86497 5.22014C3.82905 5.23609 3.74018 5.26998 3.66644 5.29789C3.59459 5.3258 3.46791 5.36567 3.38661 5.38361C3.25803 5.41352 3.22022 5.41352 3.09354 5.39159C2.90446 5.3577 2.74185 5.27397 2.62084 5.15037L2.52252 5.05069L2.45256 5.08259C2.41286 5.09854 2.33912 5.13043 2.28618 5.15236C2.23513 5.17429 2.16706 5.20419 2.13491 5.21815C2.10466 5.2341 2.00634 5.27198 1.91748 5.30188C1.77756 5.35172 1.7284 5.35969 1.52987 5.35969C1.27461 5.35969 1.15739 5.32979 0.989107 5.22413C0.858644 5.1404 0.716836 4.95699 0.684693 4.82741C0.662004 4.72973 0.599608 4.65198 0.544776 4.65198C0.508851 4.65198 0.31032 4.53835 0.253597 4.48652C0.166621 4.40478 0.0701921 4.26324 0.0342675 4.16356C0.00779667 4.08781 -0.0016572 4.01604 0.000233577 3.87051C0.00401512 3.6891 0.00779667 3.66916 0.0683014 3.55154C0.149605 3.39605 0.297085 3.27444 0.754652 2.99136C0.77545 2.9774 0.796248 2.96345 0.801921 2.95747C0.811375 2.9455 1.36537 2.58068 1.54499 2.46705C1.59604 2.43516 1.65655 2.39528 1.68113 2.37934C1.94017 2.2039 2.45446 1.865 2.81559 1.63375C3.09165 1.45632 3.39039 1.30083 3.60026 1.22507C3.66833 1.19916 3.74018 1.17125 3.76098 1.16327C3.79879 1.14533 4.11833 1.03369 5.30196 0.625014C5.6612 0.501414 6.16793 0.325982 6.42697 0.234279C7.29483 -0.0687404 7.23811 -0.0667469 8.09085 0.176466C8.14379 0.190421 8.22887 0.216337 8.27992 0.232285C8.37446 0.262189 8.72615 0.36386 8.90388 0.415692C8.95682 0.429647 9.05892 0.45955 9.13077 0.481479C9.20451 0.503408 9.34821 0.545272 9.4522 0.575176C9.55619 0.605079 9.68855 0.642956 9.74527 0.658905C9.85116 0.688808 10.0988 0.756588 10.3503 0.826363C11.3978 1.11742 11.9423 1.22308 12.3829 1.22308C12.5984 1.22308 12.8934 1.16925 13.0447 1.10147C13.3699 0.957937 13.5608 0.866234 14.1753 0.557234C14.3588 0.463537 14.5006 0.405724 14.5365 0.405724C14.6216 0.405724 14.7312 0.517363 14.7483 0.621027C14.7558 0.660898 14.7672 0.704756 14.7747 0.714724C14.7823 0.726685 14.7993 0.766556 14.8088 0.804434C14.8314 0.882182 14.9279 1.16128 14.96 1.24899C14.9733 1.28089 14.9827 1.31678 14.9827 1.33272C14.9827 1.34867 14.9903 1.36462 14.9997 1.3706C15.0092 1.37658 15.0224 1.40649 15.0281 1.43639C15.0357 1.46829 15.0659 1.56597 15.098 1.65568C15.1283 1.74738 15.1793 1.89889 15.2115 1.99458C15.2436 2.09227 15.2777 2.18596 15.2871 2.2039C15.2966 2.22384 15.3041 2.24976 15.3041 2.26371C15.306 2.27767 15.3212 2.32551 15.342 2.36937C15.3628 2.41323 15.3779 2.45708 15.3798 2.46705C15.3798 2.48499 15.4573 2.72023 15.5216 2.89766C15.5367 2.93554 15.5745 3.04917 15.6086 3.14685C15.6407 3.24653 15.6804 3.35418 15.6936 3.39007C15.7088 3.42396 15.7201 3.45984 15.7201 3.46781C15.7201 3.48376 15.8222 3.78678 15.8544 3.86453C15.9375 4.07186 15.947 4.13964 15.9016 4.23134C15.8752 4.28517 15.8544 4.29713 15.6067 4.3988C15.48 4.45263 15.0602 4.63205 14.9449 4.68388C14.909 4.70182 14.8617 4.72176 14.8409 4.73172C14.3493 4.95301 14.0657 5.11448 13.6119 5.43545C13.4247 5.56901 13.2243 5.71056 13.1676 5.75043C12.9237 5.92387 12.589 6.09332 12.3073 6.191C11.7438 6.38238 11.1747 6.4382 10.3636 6.38438C10.2312 6.37441 10.0913 6.35846 10.0516 6.3465ZM12.0898 5.79428C12.2297 5.74445 12.536 5.61487 12.572 5.58895C12.5833 5.58098 12.6514 5.5411 12.7232 5.49924C12.8405 5.43345 13.0863 5.26201 13.4417 5.00085C13.7216 4.79352 14.1281 4.56427 14.51 4.39282C14.6405 4.33501 14.7728 4.27719 14.8031 4.26125C14.8352 4.24729 14.9846 4.17951 15.1396 4.11173C15.2928 4.04594 15.4176 3.98016 15.4176 3.96819C15.4176 3.9363 15.376 3.80074 15.3041 3.5954C15.2701 3.5017 15.2361 3.40003 15.2247 3.36614C15.2153 3.33425 15.1945 3.27843 15.1793 3.24254C15.1642 3.20865 15.1529 3.17078 15.1529 3.15881C15.1529 3.14685 15.1453 3.12094 15.1359 3.101C15.1264 3.08306 15.0867 2.97341 15.0489 2.85779C15.0111 2.74216 14.9714 2.63052 14.9619 2.60859C14.9543 2.58667 14.9279 2.51091 14.9071 2.43914C14.8844 2.36738 14.8598 2.29162 14.8504 2.26969C14.8333 2.22982 14.822 2.19992 14.7388 1.94076C14.7142 1.86899 14.684 1.78327 14.6688 1.74738C14.6537 1.71349 14.6424 1.67163 14.6424 1.65568C14.6424 1.63774 14.6348 1.61979 14.6254 1.61381C14.6159 1.60783 14.6027 1.57793 14.597 1.54803C14.58 1.48025 14.4817 1.18321 14.4174 1.01774C14.389 0.943982 14.4079 0.936008 13.8672 1.20713C13.1676 1.55799 12.9199 1.63375 12.4207 1.65369C12.0993 1.66764 11.7419 1.63375 11.4281 1.56198C11.0991 1.48822 10.7852 1.41047 10.615 1.36263C10.5054 1.33272 10.3957 1.30282 10.3692 1.29684C10.322 1.28887 9.98918 1.19517 9.72636 1.11941C9.64884 1.09749 9.49191 1.05163 9.37657 1.01974C8.95115 0.900124 8.79799 0.856266 8.65808 0.814401C8.59568 0.796459 8.49925 0.76855 8.44442 0.752601C8.39148 0.738647 8.29883 0.71273 8.24211 0.694789C8.18538 0.67884 8.09274 0.652924 8.03979 0.636976C7.98496 0.621027 7.89231 0.593118 7.83559 0.575176C7.36857 0.43164 7.26269 0.42566 6.96584 0.523343C6.77865 0.585143 6.49503 0.680834 6.37024 0.726685C6.33999 0.736653 6.14335 0.804434 5.93537 0.878195C5.72738 0.949963 5.54019 1.01575 5.5194 1.02572C5.4986 1.03369 5.42297 1.0616 5.34923 1.08552C5.27738 1.10945 5.15826 1.15131 5.08452 1.17723C5.01267 1.20314 4.88788 1.247 4.81036 1.27292C4.53052 1.36462 3.81203 1.61979 3.68346 1.67163C3.46413 1.76134 3.26371 1.87298 2.94606 2.0803C2.92148 2.09625 2.71538 2.23181 2.49038 2.38133C2.26349 2.53085 1.99689 2.70428 1.89857 2.76608C1.66222 2.91759 1.24247 3.1947 0.748979 3.52563C0.52965 3.67315 0.476708 3.72099 0.440783 3.80472C0.410531 3.87848 0.40864 3.89842 0.429439 3.95823C0.48049 4.11173 0.607171 4.21539 0.80003 4.26523C1.05339 4.32903 1.24247 4.27321 2.18786 3.86254C2.25214 3.83463 2.33156 3.80074 2.36181 3.78479C2.39395 3.77083 2.45635 3.74093 2.50362 3.719C2.5887 3.67913 2.73618 3.60936 2.91013 3.52563C2.96307 3.5017 3.04816 3.45984 3.09921 3.43592C3.15215 3.41 3.28829 3.34421 3.40173 3.2864C3.76476 3.10499 3.88577 3.05316 4.00489 3.03521C4.1864 3.0073 4.46245 2.96145 4.6591 2.92756C4.75742 2.91161 4.9238 2.8837 5.0278 2.86776C5.22065 2.83785 5.44187 2.79998 5.74629 2.74814C6.40428 2.63451 6.30218 2.62654 6.8713 2.83586C7.28538 2.98936 7.55009 3.0711 7.7316 3.101C7.85639 3.12094 8.68644 3.10499 8.96249 3.07708C9.05514 3.06711 9.20262 3.05714 9.2896 3.05515C9.42573 3.05316 9.45031 3.05714 9.49002 3.09701C9.55998 3.16679 9.58456 3.24454 9.55619 3.31431C9.52216 3.40203 9.47678 3.43592 9.3501 3.46582C9.06459 3.53759 7.97551 3.55952 6.11499 3.53559C5.42864 3.52563 5.36057 3.52762 5.26981 3.56151C5.15637 3.60338 5.03158 3.70106 4.98242 3.78678C4.93326 3.8725 4.88599 4.03199 4.88599 4.11372C4.88599 4.28118 4.99376 4.50047 5.12233 4.59616C5.27738 4.70979 5.33221 4.72774 5.91646 4.84137C6.23789 4.90317 6.3797 4.93307 6.52151 4.96098C6.68033 4.99288 6.88642 5.03275 7.15491 5.08059C7.86206 5.20818 7.9982 5.24207 8.60135 5.45339C8.78854 5.51718 8.95871 5.57898 8.97951 5.58895C9.08161 5.63679 9.47867 5.76638 9.67909 5.81621C10.2652 5.96374 10.9932 6.00959 11.5131 5.92985C11.7949 5.88599 11.8913 5.86406 12.0898 5.79428Z" fill-rule="nonzero" stroke="rgb(0,86,197)" stroke-width="0.500000" transform="matrix(1,0,0,-1,9.03931,22.1606)" />
	</g>
</svg>
