<svg viewBox="0 0 70 70.0002" xmlns="http://www.w3.org/2000/svg" xmlns:xlink="http://www.w3.org/1999/xlink" width="70.000000" height="70.000244" fill="none" customFrame="#000000">
	<rect id="慢冷-选中" width="70.000000" height="70.000000" x="0.000000" y="0.000244" />
	<circle id="椭圆 8" cx="35" cy="35" r="35" fill="rgb(1,89,188)" />
	<path id="矢量 334" d="M25.6024 33.8073L39.295 33.8073C42.3137 33.8073 44.8154 31.4224 44.8154 28.4037C44.8154 25.3849 42.3137 23 39.295 23C37.9608 23 36.6766 23.467 35.6592 24.3342C34.9254 24.968 34.375 25.7685 34.0748 26.6691C34.0748 26.6858 34.0582 26.7025 34.0582 26.7192C33.858 27.3529 34.2083 28.0201 34.842 28.2202C35.4758 28.4203 36.1429 28.0701 36.343 27.4363C36.5098 26.936 36.8267 26.4857 37.227 26.1355C37.7773 25.6685 38.4945 25.3683 39.295 25.3683C41.0462 25.3683 42.4138 26.7359 42.4138 28.3703C42.4138 30.0047 41.0462 31.3723 39.295 31.3723L25.6024 31.3723C24.9353 31.3723 24.4016 31.906 24.4016 32.5731C24.4016 33.2736 24.9353 33.8073 25.6024 33.8073ZM42.8975 36.2089L23.2008 36.2089C22.5337 36.2089 22 36.7426 22 37.4098C22 38.0769 22.5337 38.6106 23.2008 38.6106L42.8975 38.6106C44.6487 38.6106 46.0163 39.9782 46.0163 41.6126C46.0163 43.247 44.6487 44.6146 42.8975 44.6146C42.0969 44.6146 41.3798 44.3311 40.8294 43.8474C40.4291 43.4972 40.1123 43.0469 39.9455 42.5466C39.712 41.9295 39.0282 41.5959 38.4111 41.8294C37.8107 42.0462 37.4771 42.7133 37.6773 43.3304C37.9942 44.231 38.5445 45.0483 39.2617 45.6653C40.279 46.5326 41.5632 47.0163 42.8975 46.9996C45.9162 46.9996 48.4179 44.6146 48.4179 41.5959C48.4179 38.5939 45.9162 36.2089 42.8975 36.2089L42.8975 36.2089Z" fill="rgb(255,255,255)" fill-rule="nonzero" />
</svg>
