<svg viewBox="0 0 70.0001 70" xmlns="http://www.w3.org/2000/svg" xmlns:xlink="http://www.w3.org/1999/xlink" width="70.000122" height="70.000000" fill="none" customFrame="#000000">
	<defs>
		<clipPath id="clipPath_9">
			<rect width="29.000000" height="36.000000" x="21.000122" y="8.000000" fill="rgb(255,255,255)" />
		</clipPath>
		<clipPath id="clipPath_10">
			<rect width="32.000000" height="29.000000" x="19.500122" y="8.000000" fill="rgb(255,255,255)" />
		</clipPath>
		<clipPath id="clipPath_11">
			<rect width="33.000000" height="43.000000" x="19.500122" y="8.000000" fill="rgb(255,255,255)" />
		</clipPath>
	</defs>
	<rect id="Home-未选中" width="70.000000" height="70.000000" x="0.000000" y="0.000000" />
	<circle id="椭圆 8" cx="35.0001221" cy="35" r="35" fill="rgb(242,244,246)" />
	<g id="Container" customFrame="url(#clipPath_9)">
		<rect id="Container" width="29.000000" height="36.000000" x="21.000122" y="8.000000" />
		<g id="Margin" customFrame="url(#clipPath_10)">
			<rect id="Margin" width="32.000000" height="29.000000" x="19.500122" y="8.000000" />
			<g id="Container" customFrame="url(#clipPath_11)">
				<rect id="Container" width="33.000000" height="43.000000" x="19.500122" y="8.000000" />
				<path id="Text" d="M24.6785 26.8333C24.6785 25.7222 25.0673 24.7778 25.8451 24C26.6229 23.2222 27.5673 22.8333 28.6785 22.8333L42.0118 22.8333C43.1229 22.8333 44.0673 23.2222 44.8451 24C45.6229 24.7778 46.0118 25.7222 46.0118 26.8333L46.0118 29.5L46.0118 29.5C47.1229 29.5 48.0673 29.8889 48.8451 30.6667C49.6229 31.4444 50.0118 32.3889 50.0118 33.5L50.0118 40.1667C50.0118 41.2778 49.6229 42.2222 48.8451 43C48.0673 43.7778 47.1229 44.1667 46.0118 44.1667L24.6785 44.1667C23.5673 44.1667 22.6229 43.7778 21.8451 43C21.0673 42.2222 20.6785 41.2778 20.6785 40.1667L20.6785 33.5C20.6785 32.3889 21.0673 31.4444 21.8451 30.6667C22.6229 29.8889 23.5673 29.5 24.6785 29.5L24.6785 29.5L24.6785 26.8333ZM27.3451 26.8333L27.3451 30.5667C27.7451 30.9444 28.0673 31.3778 28.3118 31.8667C28.5562 32.3556 28.6785 32.9 28.6785 33.5L28.6785 36.1667L42.0118 36.1667L42.0118 33.5C42.0118 32.9 42.134 32.3556 42.3785 31.8667C42.6229 31.3778 42.9451 30.9444 43.3451 30.5667L43.3451 26.8333C43.3451 26.4556 43.2173 26.1389 42.9618 25.8833C42.7062 25.6278 42.3896 25.5 42.0118 25.5L28.6785 25.5C28.3007 25.5 27.984 25.6278 27.7285 25.8833C27.4729 26.1389 27.3451 26.4556 27.3451 26.8333ZM44.6785 38.8333L26.0118 38.8333L26.0118 33.5C26.0118 33.3222 25.9785 33.15 25.9118 32.9833C25.8451 32.8167 25.7507 32.6722 25.6285 32.55C25.5062 32.4278 25.3618 32.3333 25.1951 32.2667C25.0285 32.2 24.8562 32.1667 24.6785 32.1667C24.3007 32.1667 23.984 32.2944 23.7285 32.55C23.4729 32.8056 23.3451 33.1222 23.3451 33.5L23.3451 40.1667C23.3451 40.5444 23.4729 40.8611 23.7285 41.1167C23.984 41.3722 24.3007 41.5 24.6785 41.5L46.0118 41.5C46.3896 41.5 46.7062 41.3722 46.9618 41.1167C47.2173 40.8611 47.3451 40.5444 47.3451 40.1667L47.3451 33.5C47.3451 33.1222 47.2173 32.8056 46.9618 32.55C46.7062 32.2944 46.3896 32.1667 46.0118 32.1667C45.834 32.1667 45.6618 32.2 45.4951 32.2667C45.3285 32.3333 45.184 32.4278 45.0618 32.55C44.9396 32.6722 44.8451 32.8167 44.7785 32.9833C44.7118 33.15 44.6785 33.3222 44.6785 33.5L44.6785 38.8333ZM35.3451 38.8333C35.3451 38.8333 35.3451 38.8333 35.3451 38.8333C35.3451 38.8333 35.3451 38.8333 35.3451 38.8333L35.3451 38.8333L35.3451 38.8333L35.3451 38.8333C35.3451 38.8333 35.3451 38.8333 35.3451 38.8333C35.3451 38.8333 35.3451 38.8333 35.3451 38.8333L35.3451 38.8333L35.3451 38.8333C35.3451 38.8333 35.3451 38.8333 35.3451 38.8333C35.3451 38.8333 35.3451 38.8333 35.3451 38.8333L35.3451 38.8333L35.3451 38.8333L35.3451 38.8333C35.3451 38.8333 35.3451 38.8333 35.3451 38.8333C35.3451 38.8333 35.3451 38.8333 35.3451 38.8333L35.3451 38.8333L35.3451 38.8333ZM35.3451 41.5L35.3451 41.5C35.3451 41.5 35.3451 41.5 35.3451 41.5C35.3451 41.5 35.3451 41.5 35.3451 41.5C35.3451 41.5 35.3451 41.5 35.3451 41.5C35.3451 41.5 35.3451 41.5 35.3451 41.5C35.3451 41.5 35.3451 41.5 35.3451 41.5C35.3451 41.5 35.3451 41.5 35.3451 41.5L35.3451 41.5C35.3451 41.5 35.3451 41.5 35.3451 41.5C35.3451 41.5 35.3451 41.5 35.3451 41.5L35.3451 41.5C35.3451 41.5 35.3451 41.5 35.3451 41.5C35.3451 41.5 35.3451 41.5 35.3451 41.5L35.3451 41.5C35.3451 41.5 35.3451 41.5 35.3451 41.5C35.3451 41.5 35.3451 41.5 35.3451 41.5C35.3451 41.5 35.3451 41.5 35.3451 41.5C35.3451 41.5 35.3451 41.5 35.3451 41.5C35.3451 41.5 35.3451 41.5 35.3451 41.5C35.3451 41.5 35.3451 41.5 35.3451 41.5L35.3451 41.5L35.3451 41.5ZM35.3451 36.1667C35.3451 36.1667 35.3451 36.1667 35.3451 36.1667C35.3451 36.1667 35.3451 36.1667 35.3451 36.1667L35.3451 36.1667C35.3451 36.1667 35.3451 36.1667 35.3451 36.1667C35.3451 36.1667 35.3451 36.1667 35.3451 36.1667L35.3451 36.1667C35.3451 36.1667 35.3451 36.1667 35.3451 36.1667C35.3451 36.1667 35.3451 36.1667 35.3451 36.1667L35.3451 36.1667L35.3451 36.1667L35.3451 36.1667C35.3451 36.1667 35.3451 36.1667 35.3451 36.1667C35.3451 36.1667 35.3451 36.1667 35.3451 36.1667L35.3451 36.1667Z" fill="rgb(1,89,188)" fill-rule="nonzero" />
			</g>
		</g>
	</g>
</svg>
