<svg viewBox="0 0 70.0001 70" xmlns="http://www.w3.org/2000/svg" xmlns:xlink="http://www.w3.org/1999/xlink" width="70.000122" height="70.000000" fill="none" customFrame="#000000">
	<rect id="零重力-未选中" width="70.000000" height="70.000000" x="0.000000" y="0.000000" />
	<circle id="椭圆 9" cx="35.0001221" cy="35" r="35" fill="rgb(242,244,246)" />
	<g id="图层_x0020_1">
		<g id="_2926248937264">
			<path id="矢量 29" d="M38.2052 38.3851L40.8072 36.42L47.4142 40.3143C47.4142 40.3143 48.8892 41.0771 49.6533 40.0096C50.4174 38.9422 49.6799 37.798 49.6799 37.798L40.9975 32.8818L36.3516 36.058L38.2062 38.3861L38.2052 38.3851Z" fill="rgb(1,89,188)" fill-rule="evenodd" />
			<path id="矢量 29" d="M40.8072 36.42L38.776 37.954L38.2128 38.3794L38.2053 38.385L38.2053 38.385L37.582 37.6026L36.9763 36.8423L36.3516 36.058L40.9975 32.8818L49.6799 37.798C49.6799 37.798 50.4174 38.9422 49.6533 40.0096C48.8892 41.0771 47.4142 40.3143 47.4142 40.3143L40.8072 36.42ZM47.8943 39.4366L41.315 35.5585L40.7385 35.2187L38.3803 36.9997L37.804 36.2764L41.0472 34.0592L48.9228 38.5185C48.9424 38.5754 48.9598 38.6395 48.9749 38.7108C49.0118 38.8852 49.0066 39.0461 48.9592 39.1933C48.9327 39.2757 48.893 39.3537 48.8402 39.4275C48.8268 39.4462 48.8119 39.4631 48.7953 39.4783C48.7031 39.5629 48.5612 39.5934 48.3696 39.5698C48.188 39.5474 48.0296 39.503 47.8943 39.4366ZM38.2052 38.3851L38.2053 38.385L38.2062 38.3861L38.2052 38.3851Z" fill="rgb(1,89,188)" fill-rule="evenodd" />
			<ellipse id="椭圆 6" rx="2.193328" ry="2.108225" cx="2.19332767" cy="2.10822535" fill="rgb(1,89,188)" transform="matrix(0.663644,-0.748049,0.745619,0.666373,21,39.2896)" />
			<ellipse id="椭圆 6" rx="1.693328" ry="1.608225" cx="2.19332767" cy="2.10822535" stroke="rgb(1,89,188)" stroke-width="1.000000" transform="matrix(0.663644,-0.748049,0.745619,0.666373,21,39.2896)" />
			<path id="矢量 30" d="M26.5115 37.2166L35.1704 37.2447C36.2037 37.2486 37.03 38.0851 37.0073 39.105C36.9836 40.125 36.1189 40.9566 35.0856 40.9528L26.5963 40.9256L26.6703 40.847C27.6375 39.7785 27.5636 38.1589 26.5125 37.2166L26.5115 37.2166Z" fill="rgb(1,89,188)" fill-rule="evenodd" />
			<path id="矢量 30" d="M35.1666 38.2447L35.1671 38.2447C35.2951 38.2452 35.4124 38.2695 35.5191 38.3174C35.6119 38.3592 35.6966 38.4189 35.7733 38.4965C35.8559 38.5802 35.9168 38.6724 35.9557 38.773C35.9927 38.8686 36.01 38.9719 36.0075 39.0828C36.0053 39.1791 35.9885 39.2701 35.9571 39.3558C35.9121 39.4789 35.837 39.5909 35.7319 39.692C35.634 39.7862 35.5266 39.8549 35.4098 39.898C35.3099 39.9349 35.2031 39.9532 35.0894 39.9528L28.2599 39.9309C28.3334 39.6152 28.3625 39.285 28.3473 38.9404C28.3363 38.6904 28.3031 38.4511 28.2477 38.2222L35.1666 38.2447ZM27.1946 38.2188C27.0572 37.8462 26.8298 37.5014 26.5139 37.2178L26.5125 37.2166L26.5139 37.2166L35.1704 37.2447C36.2037 37.2486 37.03 38.0851 37.0073 39.105C36.9836 40.125 36.1189 40.9566 35.0856 40.9528L27.8508 40.9296L26.5963 40.9256L26.6703 40.847C26.9207 40.5703 27.1013 40.2568 27.2133 39.9276C27.4035 39.3682 27.3954 38.7638 27.1946 38.2188Z" fill="rgb(1,89,188)" fill-rule="evenodd" />
		</g>
		<path id="矢量 31" d="M34.0315 23.001C38.1647 23.001 41.5881 26.8565 42.1984 31.8921C42.2102 31.992 42.1491 32.0842 42.0505 32.1133L40.9728 32.4326C40.9117 32.4511 40.8505 32.4423 40.7973 32.4074C40.7441 32.3725 40.7115 32.321 40.7046 32.2589C40.2304 28.1152 37.4233 24.9312 34.0306 24.9312C30.9316 24.9312 28.3208 27.5872 27.531 31.206L25.9653 31.206C26.7895 26.511 30.0866 23 34.0306 23L34.0315 23.001Z" fill="rgb(1,89,188)" fill-rule="evenodd" />
		<path id="矢量 31" d="M42.1984 31.8921C42.2102 31.992 42.1491 32.0842 42.0505 32.1133L40.9728 32.4326C40.9117 32.4511 40.8505 32.4423 40.7973 32.4074C40.7441 32.3725 40.7115 32.321 40.7046 32.2589C40.2304 28.1152 37.4233 24.9312 34.0306 24.9312C30.9316 24.9312 28.3208 27.5872 27.531 31.206L25.9653 31.206C26.7895 26.511 30.0866 23 34.0306 23L34.0315 23.001C38.1647 23.001 41.5881 26.8565 42.1984 31.8921Z" fill-rule="evenodd" stroke="rgb(1,89,188)" stroke-width="0.753604" />
		<path id="矢量 32" d="M26.8685 34.8789L29.0199 31.5212C29.0613 31.4562 29.0642 31.3795 29.0258 31.3116C28.9883 31.2437 28.9213 31.2048 28.8424 31.2048L24.5396 31.2048C24.4617 31.2048 24.3947 31.2437 24.3562 31.3116C24.3188 31.3785 24.3207 31.4552 24.3621 31.5212L26.5135 34.8789C26.553 34.94 26.6161 34.9749 26.69 34.9749C26.764 34.9749 26.8271 34.94 26.8665 34.8789L26.8685 34.8789Z" fill="rgb(1,89,188)" fill-rule="evenodd" />
		<path id="矢量 32" d="M29.0199 31.5212C29.0613 31.4562 29.0642 31.3795 29.0258 31.3116C28.9883 31.2437 28.9213 31.2048 28.8424 31.2048L24.5396 31.2048C24.4617 31.2048 24.3947 31.2437 24.3562 31.3116C24.3188 31.3785 24.3207 31.4552 24.3621 31.5212L26.5135 34.8789C26.553 34.94 26.6161 34.9749 26.69 34.9749C26.764 34.9749 26.8271 34.94 26.8665 34.8789L26.8685 34.8789L29.0199 31.5212Z" fill-rule="evenodd" stroke="rgb(1,89,188)" stroke-width="0.753604" />
		<path id="矢量 33" d="M34.2169 45.8323C37.9735 45.8323 41.1444 42.6464 42.1481 38.2843C42.1629 38.2212 42.1481 38.1611 42.1077 38.1106C42.0663 38.0601 42.0101 38.033 41.944 38.033L40.7796 38.033C40.684 38.033 40.6031 38.0941 40.5775 38.1843C39.6526 41.5149 37.1542 43.9012 34.2169 43.9012C32.4777 43.9012 30.8922 43.0637 29.6962 41.6905C29.6548 41.643 29.6006 41.6187 29.5375 41.6187L27.9688 41.6187C27.8909 41.6187 27.8239 41.6575 27.7854 41.7245C27.748 41.7915 27.7499 41.8681 27.7913 41.9331C29.3058 44.3107 31.6219 45.8314 34.2169 45.8314L34.2169 45.8323Z" fill="rgb(1,89,188)" fill-rule="evenodd" />
		<path id="矢量 33" d="M35.2169 45.7562C38.5273 45.2487 41.2348 42.2534 42.1481 38.2843C42.1629 38.2212 42.1481 38.1611 42.1077 38.1106C42.0663 38.0601 42.0101 38.033 41.944 38.033L40.7796 38.033C40.684 38.033 40.6031 38.0941 40.5775 38.1843C39.6526 41.5149 37.1542 43.9012 34.2169 43.9012C32.4777 43.9012 30.8922 43.0637 29.6962 41.6905C29.6548 41.643 29.6006 41.6187 29.5375 41.6187L27.9688 41.6187C27.8909 41.6187 27.8239 41.6575 27.7854 41.7245C27.748 41.7915 27.7499 41.8681 27.7913 41.9331C27.9332 42.1558 28.0821 42.371 28.2375 42.5781C28.2477 42.5917 28.258 42.6052 28.2682 42.6187C29.7709 44.5991 31.8808 45.8314 34.2169 45.8314L34.2169 45.8323C34.5554 45.8323 34.8891 45.8065 35.2169 45.7562Z" fill="rgb(1,89,188)" fill-rule="evenodd" />
	</g>
</svg>
